<?xml version="1.0" standalone="no"?>
<!DOCTYPE svg PUBLIC "-//W3C//DTD SVG 1.1//EN" "http://www.w3.org/Graphics/SVG/1.1/DTD/svg11.dtd" >
<svg xmlns="http://www.w3.org/2000/svg" xmlns:xlink="http://www.w3.org/1999/xlink" version="1.1">
<metadata>
Created by FontForge 20170924 at Fri Sep 18 22:49:26 2015
 By www-data
(c) 2015 Apple Inc. All rights reserved.
</metadata>
<defs>
<font id="SFUIText-Regular" horiz-adv-x="0" >
  <font-face 
    font-family="SFUIText-Regular"
    font-weight="400"
    font-stretch="normal"
    units-per-em="2048"
    panose-1="0 0 5 0 0 0 0 0 0 0"
    ascent="1638"
    descent="-410"
    x-height="1078"
    cap-height="1443"
    bbox="-626 -573 2698 2173"
    underline-thickness="120"
    underline-position="-370"
    unicode-range="U+0020-FB02"
  />
<missing-glyph horiz-adv-x="2048" 
d="M100 1666v284h1848v-284h-1848zM100 1234v284h1848v-284h-1848zM100 802v284h1848v-284h-1848zM100 370v284h1848v-284h-1848zM100 -62v284h1848v-284h-1848zM100 -494v284h1848v-284h-1848z" />
    <glyph glyph-name=".notdef" horiz-adv-x="2048" 
d="M100 1666v284h1848v-284h-1848zM100 1234v284h1848v-284h-1848zM100 802v284h1848v-284h-1848zM100 370v284h1848v-284h-1848zM100 -62v284h1848v-284h-1848zM100 -494v284h1848v-284h-1848z" />
    <glyph glyph-name=".null" 
 />
    <glyph glyph-name="nonmarkingreturn" 
 />
    <glyph glyph-name="space" unicode=" " horiz-adv-x="578" 
 />
    <glyph glyph-name="exclam" unicode="!" horiz-adv-x="637" 
d="M180 121q0 61 39 101t100 39q61 0 99 -39q38 -38 39 -100q-1 -62 -39 -101t-99 -39t-100 39t-39 100zM218 1444h200l-17 -964h-166z" />
    <glyph glyph-name="quotedbl" unicode="&#x22;" horiz-adv-x="895" 
d="M716 904h-160v539h160v-539zM339 904h-160v539h160v-539z" />
    <glyph glyph-name="numbersign" unicode="#" horiz-adv-x="1296" 
d="M528 903l-70 -349h309l71 349h-310zM1195 901h-216l-70 -344h216l-29 -144h-216l-84 -413h-144l85 413h-307l-84 -413h-143l84 413h-216l31 144h216l69 344h-216l29 143h216l82 399h143l-81 -399h306l82 399h144l-83 -399h216z" />
    <glyph glyph-name="dollar" unicode="$" horiz-adv-x="1328" 
d="M357 1080q0 -182 241 -234v460q-105 -6 -173 -70t-68 -156zM1005 389q0 105 -66 165t-207 91v-496q130 7 202 71t71 169zM732 -137h-134v134q-203 15 -325 123t-123 275h171q8 -100 81 -164t196 -79v520l-80 22q-333 90 -333 386q0 150 111 256t302 124v140h134v-139
q186 -17 300 -123t120 -269h-170q-4 94 -72 159t-178 78v-489l86 -21q184 -50 272 -144t88 -258t-117 -272t-329 -124v-135z" />
    <glyph glyph-name="percent" unicode="%" horiz-adv-x="1610" 
d="M388 901q66 1 106 61t41 160t-39 159t-108 59t-108 -60t-40 -159q0 -100 40 -160q42 -60 108 -60zM372 0h-184l1057 1443h182zM388 773q-136 -1 -222 97t-86 250t86 250t222 98q135 0 221 -97t86 -250t-86 -251t-221 -97zM1223 -25q-135 -1 -221 97t-87 250q1 152 87 250
t221 98t221 -97t86 -250t-86 -251t-221 -97zM1222 103q66 1 108 61q40 60 40 160t-40 159t-106 59q-68 0 -108 -60t-41 -159q1 -100 41 -160t106 -60z" />
    <glyph glyph-name="ampersand" unicode="&#x26;" horiz-adv-x="1457" 
d="M843 1149q0 81 -55 133t-142 52q-86 0 -142 -53t-56 -125t35 -131t120 -144q132 67 186 127t54 141zM295 397q-1 -122 89 -197t235 -75q99 1 193 37t152 98l-408 446q-11 -4 -51 -24q-210 -109 -210 -285zM603 -27q-215 0 -351 115t-137 297q1 266 325 422q12 6 17 9
q-99 104 -140 182t-41 156q0 139 105 231t264 92q159 1 263 -91t104 -218t-72 -214q-72 -87 -240 -175l361 -388q68 136 68 388v25h168v-26q0 -325 -119 -509l251 -269h-226l-133 144q-92 -81 -214 -126t-253 -45z" />
    <glyph glyph-name="quotesingle" unicode="'" horiz-adv-x="518" 
d="M339 904h-160v539h160v-539z" />
    <glyph glyph-name="parenleft" unicode="(" horiz-adv-x="728" 
d="M179 600q0 256 66 454t214 388h145q-108 -128 -178 -364t-70 -474t58 -448t187 -433h-152q-129 161 -199 391t-71 486z" />
    <glyph glyph-name="parenright" unicode=")" horiz-adv-x="728" 
d="M371 605q0 239 -69 475t-178 362h146q148 -189 214 -387q66 -199 65 -455t-71 -485t-199 -392h-153q128 223 186 433t59 449z" />
    <glyph glyph-name="asterisk" unicode="*" horiz-adv-x="1054" 
d="M631 1062l259 -131l-67 -116l-244 158l16 -289h-136l16 290l-244 -159l-67 116l260 131l-260 132l67 118l244 -163l-16 294h136l-16 -294l244 163l67 -118z" />
    <glyph glyph-name="plus" unicode="+" horiz-adv-x="1328" 
d="M738 506v-435h-148v435h-435v148h435v435h148v-435h435v-148h-435z" />
    <glyph glyph-name="comma" unicode="," horiz-adv-x="608" 
d="M285 -367h-150l96 569h202z" />
    <glyph glyph-name="hyphen" unicode="-" horiz-adv-x="966" 
d="M811 499h-656v163h656v-163z" />
    <glyph glyph-name="hyphen" unicode="&#x2011;" horiz-adv-x="966" 
d="M811 499h-656v163h656v-163z" />
    <glyph glyph-name="period" unicode="." horiz-adv-x="608" 
d="M304 -10q-54 0 -92 38t-38 92t38 92t92 38t92 -38t38 -92t-38 -92t-92 -38z" />
    <glyph glyph-name="slash" unicode="/" horiz-adv-x="712" 
d="M210 -325h-150l440 1768h152z" />
    <glyph glyph-name="zero" unicode="0" horiz-adv-x="1290" 
d="M646 123q160 1 244 155t85 442t-85 444q-86 155 -244 155q-158 1 -244 -155t-87 -444t85 -442q86 -155 246 -155zM646 -34q-244 0 -378 198t-134 556t135 558q135 199 377 199t376 -200q134 -201 134 -559t-134 -555q-132 -197 -376 -197z" />
    <glyph glyph-name="one" unicode="1" horiz-adv-x="955" 
d="M506 0v1243h-16l-367 -266v190l384 276h179v-1443h-180z" />
    <glyph glyph-name="two" unicode="2" horiz-adv-x="1237" 
d="M152 1037q0 192 130 316t328 124q198 -1 330 -117t131 -288q0 -113 -64 -222t-241 -299l-347 -373v-16h676v-162h-934v124l499 545q139 151 185 230t46 177q1 98 -81 170q-82 74 -205 74t-201 -78t-78 -205v-1h-174v1z" />
    <glyph glyph-name="three" unicode="3" horiz-adv-x="1284" 
d="M456 665v154h175q123 0 201 72t79 183q0 110 -76 178t-201 68t-202 -66t-88 -181h-175q14 188 140 296t332 108q125 -1 229 -51t164 -137t60 -203t-67 -205t-186 -118v-16q147 -19 231 -115t84 -243q0 -179 -147 -301t-364 -122t-356 112t-149 298h174q12 -115 102 -184
t231 -69t233 76t91 198q0 122 -89 195t-243 73h-183z" />
    <glyph glyph-name="four" unicode="4" horiz-adv-x="1318" 
d="M301 459h520v817h-12q-234 -340 -508 -805v-12zM820 0v299h-703v164q198 352 618 980h261v-983h205v-161h-205v-299h-176z" />
    <glyph glyph-name="five" unicode="5" horiz-adv-x="1267" 
d="M646 -34q-214 0 -348 116t-146 302h177q11 -116 97 -188t222 -72t224 91t89 239q-1 148 -89 240t-230 93q-98 -1 -176 -43t-122 -119h-169l79 818h805v-161h-664l-41 -463h16q105 123 308 123t333 -135t130 -351t-140 -354q-141 -136 -355 -136z" />
    <glyph glyph-name="six" unicode="6" horiz-adv-x="1305" 
d="M669 125q139 -1 233 95t93 241t-91 237t-233 93q-143 0 -235 -92t-93 -236t93 -241t233 -97zM671 -33q-163 1 -284 85t-190 246t-69 399q0 372 145 576t410 204q183 1 311 -101t162 -276h-185q-29 101 -107 159t-183 58q-175 0 -273 -152t-105 -440h16q53 105 154 163
t230 59q206 -1 340 -137t134 -350t-142 -354t-364 -139z" />
    <glyph glyph-name="seven" unicode="7" horiz-adv-x="1167" 
d="M869 1282h-772v161h955v-167l-642 -1276h-189l648 1268v14z" />
    <glyph glyph-name="eight" unicode="8" horiz-adv-x="1308" 
d="M654 830q128 0 206 68t78 178q0 111 -78 179t-206 68t-206 -68t-78 -179q0 -110 78 -178t206 -68zM654 120q150 0 244 78t94 201t-94 201t-244 78t-244 -78t-94 -201t94 -201t244 -78zM654 -34q-228 0 -374 118t-146 302q0 141 82 242t218 126v16q-110 30 -176 117
t-65 205q-1 169 129 277t332 108t332 -108t129 -277q-1 -119 -65 -205t-176 -117v-16q136 -25 218 -126t82 -242q0 -184 -146 -302t-374 -118z" />
    <glyph glyph-name="nine" unicode="9" horiz-adv-x="1305" 
d="M634 653q144 0 236 92t92 236t-94 241t-232 97q-138 1 -232 -95t-94 -241t90 -237t234 -93zM602 497q-206 1 -340 137t-134 350t142 354t364 139q162 0 284 -84t190 -246t69 -400q0 -372 -145 -576t-410 -204q-184 -1 -312 101t-161 276h185q28 -101 106 -159t184 -58
q176 0 274 152t104 440h-16q-53 -105 -154 -163t-230 -59z" />
    <glyph glyph-name="colon" unicode=":" horiz-adv-x="608" 
d="M304 759q-54 1 -92 39t-38 92t38 91q38 38 92 38t92 -38q38 -37 38 -91t-38 -92t-92 -39zM304 -10q-54 0 -92 38t-38 92t38 92t92 38t92 -38t38 -92t-38 -92t-92 -38z" />
    <glyph glyph-name="semicolon" unicode=";" horiz-adv-x="608" 
d="M304 759q-54 1 -92 39t-38 92t38 91q38 38 92 38t92 -38q38 -37 38 -91t-38 -92t-92 -39zM260 -367h-150l96 569h202z" />
    <glyph glyph-name="less" unicode="&#x3c;" horiz-adv-x="1328" 
d="M1104 203v-186l-880 509v142l880 509v-186l-708 -386v-16z" />
    <glyph glyph-name="equal" unicode="=" horiz-adv-x="1328" 
d="M1168 700h-1008v149h1008v-149zM1168 312h-1008v149h1008v-149z" />
    <glyph glyph-name="greater" unicode="&#x3e;" horiz-adv-x="1328" 
d="M224 203l708 386v16l-708 386v186l880 -509v-142l-880 -509v186z" />
    <glyph glyph-name="question" unicode="?" horiz-adv-x="1050" 
d="M494 -18q-61 0 -100 39t-39 100t39 101t100 39q62 0 100 -39q38 -38 38 -100t-38 -101t-100 -39zM508 1454q194 0 314 -103q118 -103 118 -259q0 -219 -209 -345q-95 -56 -129 -106t-34 -130v-65h-175v92q-2 183 192 300q97 58 133 112t36 140t-68 148q-68 60 -178 60
q-112 0 -180 -62t-77 -170h-171q10 172 122 280t306 108z" />
    <glyph glyph-name="at" unicode="@" horiz-adv-x="1880" 
d="M988 -107q232 0 335 48v-126q-142 -49 -337 -49q-387 0 -615 226t-228 609q1 183 61 339t168 264q108 109 262 170t361 61q209 0 391 -93q182 -92 284 -260t101 -398q0 -230 -102 -374t-274 -144q-87 0 -149 47t-71 121h-16q-32 -76 -97 -118t-153 -41q-156 0 -252 117
q-96 118 -96 304t97 302t251 115q79 0 142 -38t92 -103h16v122h151v-587q0 -53 30 -82t83 -29q95 0 151 110t56 292t-84 320t-238 214t-350 77q-196 0 -348 -91q-154 -90 -240 -254t-86 -369q0 -320 192 -511t512 -191zM935 875q-101 0 -157 -74q-56 -75 -57 -205
q1 -130 57 -205t156 -75t162 76q61 76 61 204q-1 128 -61 204t-161 75z" />
    <glyph glyph-name="A" unicode="A" horiz-adv-x="1380" 
d="M682 1210l-226 -644h468l-226 644h-16zM1122 0l-145 413h-574l-145 -413h-189l532 1443h178l532 -1443h-189z" />
    <glyph glyph-name="B" unicode="B" horiz-adv-x="1346" 
d="M364 159h356q163 0 247 65t84 190q0 252 -348 252h-339v-507zM364 1284v-463h288q329 0 329 231q-1 110 -75 171t-208 61h-334zM747 0h-563v1443h552q198 0 312 -97t115 -263q-1 -112 -73 -202t-176 -109v-16q148 -20 235 -114t87 -237q0 -191 -130 -298t-359 -107z" />
    <glyph glyph-name="C" unicode="C" horiz-adv-x="1466" 
d="M765 -34q-293 0 -465 203t-172 552t171 553t465 203q228 0 390 -130t194 -339h-183q-36 140 -144 222t-257 81q-208 0 -330 -159t-121 -431q0 -273 122 -431t330 -158q151 0 259 72t141 198h183q-36 -200 -194 -318t-389 -118z" />
    <glyph glyph-name="D" unicode="D" horiz-adv-x="1487" 
d="M364 1281v-1119h303q241 0 375 147t134 411t-134 413q-134 148 -375 148h-303zM184 1443h495q321 -1 501 -191t180 -530t-180 -532q-180 -190 -501 -190h-495v1443z" />
    <glyph glyph-name="E" unicode="E" horiz-adv-x="1220" 
d="M1078 162v-162h-894v1443h894v-162h-714v-463h677v-160h-677v-496h714z" />
    <glyph glyph-name="F" unicode="F" horiz-adv-x="1172" 
d="M364 0h-180v1443h876v-162h-696v-496h639v-160h-639v-625z" />
    <glyph glyph-name="G" unicode="G" horiz-adv-x="1529" 
d="M1395 558q0 -268 -168 -430t-456 -162q-287 0 -465 205t-178 549t179 550t475 207q240 0 402 -125t202 -339h-183q-47 146 -154 222t-267 76q-214 0 -342 -160t-127 -431q1 -272 127 -430t332 -158t324 113q120 113 120 296v35h-406v158h585v-176z" />
    <glyph glyph-name="H" unicode="H" horiz-adv-x="1520" 
d="M1336 0h-180v657h-792v-657h-180v1443h180v-624h792v624h180v-1443z" />
    <glyph glyph-name="I" unicode="I" horiz-adv-x="548" 
d="M364 0h-180v1443h180v-1443z" />
    <glyph glyph-name="J" unicode="J" horiz-adv-x="1102" 
d="M86 337h179q3 -91 67 -148t172 -57t172 70q62 70 62 201v1040h180v-1041q0 -206 -112 -321t-301 -115t-304 103t-115 268z" />
    <glyph glyph-name="K" unicode="K" horiz-adv-x="1349" 
d="M364 0h-180v1443h180v-701h16l632 701h226l-577 -623l630 -820h-233l-521 695l-173 -191v-504z" />
    <glyph glyph-name="L" unicode="L" horiz-adv-x="1163" 
d="M1060 162v-162h-876v1443h180v-1281h696z" />
    <glyph glyph-name="M" unicode="M" horiz-adv-x="1790" 
d="M352 0h-168v1443h209l494 -1194h16l494 1194h209v-1443h-168v1102h-12l-455 -1092h-152l-455 1092h-12v-1102z" />
    <glyph glyph-name="N" unicode="N" horiz-adv-x="1520" 
d="M362 0h-178v1443h175l783 -1123h16v1123h178v-1443h-175l-783 1119h-16v-1119z" />
    <glyph glyph-name="O" unicode="O" horiz-adv-x="1579" 
d="M792 1311q-220 0 -350 -159q-129 -159 -129 -430q-1 -270 127 -430t350 -160t349 160t127 431t-127 429t-347 159zM792 1477q306 1 482 -203t177 -552q-1 -348 -177 -552t-484 -204t-485 204t-177 552t178 552q180 204 486 203z" />
    <glyph glyph-name="P" unicode="P" horiz-adv-x="1301" 
d="M364 1283v-608h318q154 0 239 79t85 225t-84 225t-240 79h-318zM184 1443h545q205 -1 333 -131t129 -334q-1 -204 -131 -334t-333 -129h-363v-515h-180v1443z" />
    <glyph glyph-name="Q" unicode="Q" horiz-adv-x="1579" 
d="M792 132q81 0 154 22l-191 259h204l131 -174q84 69 130 193t46 289q0 272 -128 431t-348 159t-348 -159q-128 -160 -129 -432q1 -272 129 -430t350 -158zM791 -34q-307 0 -485 202t-178 552t178 554t484 203q305 1 483 -203t178 -553q-1 -215 -67 -378t-189 -252
l183 -254h-202l-127 173q-117 -44 -258 -44z" />
    <glyph glyph-name="R" unicode="R" horiz-adv-x="1338" 
d="M364 571v-571h-180v1443h551q209 1 335 -117t125 -313q0 -151 -77 -261t-213 -153l334 -599h-211l-309 571h-355zM364 1283v-552h355q139 -1 215 71t75 204q0 132 -79 204q-79 73 -219 73h-347z" />
    <glyph glyph-name="S" unicode="S" horiz-adv-x="1305" 
d="M664 130q150 0 246 70t95 170q0 100 -70 160t-219 99l-185 48q-196 49 -285 142t-89 262q1 169 141 283t359 113q219 0 360 -112t152 -287h-181q-20 112 -106 174t-226 62t-226 -66q-88 -66 -88 -164q0 -97 64 -150t214 -91l151 -40q223 -56 321 -150t98 -253
q0 -198 -146 -316t-384 -118t-384 112t-161 299h182q17 -113 117 -180t250 -67z" />
    <glyph glyph-name="T" unicode="T" horiz-adv-x="1298" 
d="M739 0h-180v1281h-465v162h1110v-162h-465v-1281z" />
    <glyph glyph-name="U" unicode="U" horiz-adv-x="1524" 
d="M369 1443v-935q1 -168 105 -272t288 -104t288 104t105 272v935h180v-947q-1 -234 -155 -382t-418 -148t-418 148t-155 382v947h180z" />
    <glyph glyph-name="V" unicode="V" horiz-adv-x="1380" 
d="M779 0h-178l-532 1443h189l424 -1210h16l424 1210h189z" />
    <glyph glyph-name="W" unicode="W" horiz-adv-x="1982" 
d="M985 1139l-332 -1139h-170l-393 1443h188l287 -1173h12l323 1173h182l323 -1173h12l287 1173h188l-393 -1443h-170l-332 1139h-12z" />
    <glyph glyph-name="X" unicode="X" horiz-adv-x="1390" 
d="M90 0l494 726l-488 717h217l380 -574h16l386 574h205l-500 -725l489 -718h-216l-378 569h-16l-385 -569h-204z" />
    <glyph glyph-name="Y" unicode="Y" horiz-adv-x="1344" 
d="M762 0h-180v621l-512 822h205l389 -641h16l389 641h205l-512 -822v-621z" />
    <glyph glyph-name="Z" unicode="Z" horiz-adv-x="1355" 
d="M144 0v128l817 1137v16h-789v162h1022v-128l-813 -1137v-16h830v-162h-1067z" />
    <glyph glyph-name="bracketleft" unicode="[" horiz-adv-x="757" 
d="M179 1444h452v-136h-284v-1413h296v-135h-464v1684z" />
    <glyph glyph-name="backslash" unicode="\" horiz-adv-x="712" 
d="M502 -325l-442 1768h152l440 -1768h-150z" />
    <glyph glyph-name="bracketright" unicode="]" horiz-adv-x="757" 
d="M578 1444v-1684h-464v135h297v1413h-284v136h451z" />
    <glyph glyph-name="asciicircum" unicode="^" horiz-adv-x="984" 
d="M484 1280l-220 -500h-163l296 639h190l296 -639h-163l-220 500h-16z" />
    <glyph glyph-name="underscore" unicode="_" horiz-adv-x="916" 
d="M926 -235h-936v128h936v-128z" />
    <glyph glyph-name="grave" unicode="`" horiz-adv-x="1093" 
d="M782 1263h-194l-278 338h220z" />
    <glyph glyph-name="a" unicode="a" horiz-adv-x="1130" 
d="M462 -19q-160 -1 -262 87t-102 233t102 227t291 93l311 19v98q0 100 -62 153t-170 53q-217 0 -255 -134h-174q17 129 133 208t302 79q184 0 291 -95t107 -264v-738h-164v159h-16q-52 -86 -138 -132t-194 -46zM512 132q114 0 202 77t88 193v99l-290 -19q-122 -8 -179 -51
t-57 -125t61 -128t175 -46z" />
    <glyph glyph-name="b" unicode="b" horiz-adv-x="1258" 
d="M658 942q-148 0 -232 -108q-86 -108 -86 -295t86 -295t232 -108q148 0 231 107t83 296t-83 296t-231 107zM698 -19q-112 1 -204 51t-142 140h-16v-172h-164v1506h172v-598h16q44 87 136 138t202 51q206 0 329 -152q123 -151 123 -405t-124 -406t-328 -153z" />
    <glyph glyph-name="c" unicode="c" horiz-adv-x="1146" 
d="M602 942q-144 0 -230 -108t-86 -292t86 -296q86 -110 230 -110q110 0 182 49t96 140h174q-24 -153 -143 -249t-308 -95q-227 1 -361 153t-134 406t134 406q134 151 360 151q188 0 308 -99t144 -250h-174q-22 86 -94 140t-184 54z" />
    <glyph glyph-name="d" unicode="d" horiz-adv-x="1258" 
d="M600 942q-146 0 -230 -108t-84 -296t84 -295t230 -107q148 0 233 108t85 294t-86 295t-232 109zM561 -19q-207 0 -330 152q-123 151 -123 405t124 406t329 153q113 -1 203 -51t135 -138h15v598h172v-1506h-164v172h-16q-51 -90 -142 -140t-203 -51z" />
    <glyph glyph-name="e" unicode="e" horiz-adv-x="1170" 
d="M594 -19q-224 1 -355 151t-131 406t132 407q132 152 352 152t345 -145t125 -397v-66h-775v-8q7 -160 91 -254t220 -94q209 0 278 146h172q-38 -140 -158 -219t-296 -79zM592 945q-128 0 -212 -87q-83 -87 -93 -230h594q-3 143 -82 230t-207 87z" />
    <glyph glyph-name="f" unicode="f" horiz-adv-x="741" 
d="M234 0v934h-179v144h179v105q0 161 82 237t241 76q46 0 106 -10v-144q-41 9 -96 9q-161 0 -161 -173v-100h247v-144h-247v-934h-172z" />
    <glyph glyph-name="g" unicode="g" horiz-adv-x="1248" 
d="M620 -414q-206 0 -326 80t-140 215h182q14 -67 85 -106t201 -39t210 68q82 68 82 186v212h-16q-51 -90 -139 -138t-199 -48q-208 0 -330 148t-122 391q0 244 123 393t329 149q113 1 206 -51t140 -139h16v171h164v-1097q0 -181 -130 -288t-336 -107zM918 554
q0 178 -86 283t-234 105t-230 -104t-82 -283t82 -283t230 -104t234 104t86 282z" />
    <glyph glyph-name="h" unicode="h" horiz-adv-x="1216" 
d="M692 1097q172 1 272 -105t100 -294v-698h-172v656q0 286 -249 286q-143 0 -221 -82t-78 -222v-638h-172v1506h172v-598h16q85 189 332 189z" />
    <glyph glyph-name="i" unicode="i" horiz-adv-x="504" 
d="M252 1297q-50 -1 -85 35t-35 85t35 85t85 35q50 1 85 -35t35 -85t-35 -85t-85 -35zM166 0v1078h172v-1078h-172z" />
    <glyph glyph-name="j" unicode="j" horiz-adv-x="504" 
d="M252 1297q-50 -1 -85 35t-35 85t35 85t85 35q50 1 85 -35t35 -85t-35 -85t-85 -35zM338 1078v-1131q0 -165 -80 -241t-250 -76h-30v147h26q90 0 126 38t36 129v1134h172z" />
    <glyph glyph-name="k" unicode="k" horiz-adv-x="1112" 
d="M344 0h-172v1506h172v-899h16l468 471h211l-464 -462l495 -616h-219l-404 505l-103 -96v-409z" />
    <glyph glyph-name="l" unicode="l" horiz-adv-x="516" 
d="M172 0v1506h172v-1506h-172z" />
    <glyph glyph-name="m" unicode="m" horiz-adv-x="1782" 
d="M162 0v1078h164v-170h16q37 90 115 140t185 49q108 0 184 -51t115 -138h16q44 87 132 138t198 51q165 1 254 -91t89 -261v-745h-172v705q0 237 -227 237q-110 0 -180 -72t-70 -177v-693h-172v732q1 96 -61 153t-166 57t-176 -80t-72 -194v-668h-172z" />
    <glyph glyph-name="n" unicode="n" horiz-adv-x="1195" 
d="M162 0v1078h164v-170h16q86 189 324 189q181 1 279 -103t98 -296v-698h-172v656q-1 146 -63 216t-192 70t-206 -82t-76 -222v-638h-172z" />
    <glyph glyph-name="o" unicode="o" horiz-adv-x="1210" 
d="M605 -19q-229 -1 -363 149t-134 410t133 408q133 149 364 149t364 -149q133 -148 133 -408t-134 -410t-363 -149zM605 136q153 0 236 106t83 297t-83 297t-236 106t-236 -106t-83 -297t83 -297t236 -106z" />
    <glyph glyph-name="p" unicode="p" horiz-adv-x="1248" 
d="M647 136q147 0 231 107t84 296t-84 296t-230 107q-147 0 -233 -108t-86 -294q-1 -186 85 -295t233 -109zM687 1097q205 0 329 -152q124 -151 124 -405t-124 -406t-329 -153q-115 -1 -204 47t-133 134h-16v-522h-172v1438h164v-180h16q52 93 144 146t201 53z" />
    <glyph glyph-name="q" unicode="q" horiz-adv-x="1248" 
d="M598 136q148 0 234 108t85 294q0 186 -86 295q-87 109 -233 109t-229 -107t-83 -297t82 -296t230 -106zM559 1097q109 0 203 -54t142 -145h16v180h166v-1438h-174v522h-16q-106 -181 -324 -181q-218 -1 -342 151q-122 152 -122 406t123 406t328 153z" />
    <glyph glyph-name="r" unicode="r" horiz-adv-x="780" 
d="M162 0v1078h164v-160h16q24 79 108 129t191 50q49 0 86 -5v-172q-35 10 -110 10q-123 0 -203 -74t-80 -188v-668h-172z" />
    <glyph glyph-name="s" unicode="s" horiz-adv-x="1072" 
d="M137 792q0 125 115 215q116 90 286 90t280 -78t127 -211h-170q-17 66 -79 104t-158 39q-96 0 -162 -45t-66 -108q0 -64 46 -100t141 -59l166 -40q153 -37 227 -107t74 -185q0 -143 -123 -235t-306 -91q-183 0 -298 80t-129 214h177q22 -69 87 -109t170 -40t175 47t70 121
q0 110 -171 152l-185 45q-153 37 -223 107t-71 194z" />
    <glyph glyph-name="t" unicode="t" horiz-adv-x="744" 
d="M234 1357h172v-279h240v-144h-240v-610q0 -95 38 -138t122 -43q37 0 80 4v-145q-57 -10 -101 -10q-167 0 -239 67t-72 221v654h-174v144h174v279z" />
    <glyph glyph-name="u" unicode="u" horiz-adv-x="1196" 
d="M520 -19q-180 0 -274 103t-94 296v698h172v-656q0 -148 58 -216t192 -68t212 80q76 80 76 222v638h172v-1078h-164v169h-16q-85 -188 -334 -188z" />
    <glyph glyph-name="v" unicode="v" horiz-adv-x="1110" 
d="M68 1078h184l295 -888h16l295 888h184l-399 -1078h-176z" />
    <glyph glyph-name="w" unicode="w" horiz-adv-x="1586" 
d="M1518 1078l-302 -1078h-175l-241 834h-16l-240 -834h-174l-302 1078h174l212 -862h16l241 862h165l241 -862h16l212 862h173z" />
    <glyph glyph-name="x" unicode="x" horiz-adv-x="1076" 
d="M544 407h-16l-256 -407h-195l369 539l-373 539h205l256 -401h16l253 401h195l-366 -532l371 -546h-204z" />
    <glyph glyph-name="y" unicode="y" horiz-adv-x="1112" 
d="M254 -390q-41 0 -77 6v147q27 -5 87 -5t104 40t79 137l20 64l-399 1079h186l296 -887h16l295 887h183l-421 -1144q-69 -188 -147 -256t-222 -68z" />
    <glyph glyph-name="z" unicode="z" horiz-adv-x="1104" 
d="M137 0v126l622 792v16h-621v144h826v-129l-619 -789v-16h622v-144h-830z" />
    <glyph glyph-name="braceleft" unicode="{" horiz-adv-x="824" 
d="M466 365v-334q0 -119 54 -171t180 -53h45v-141h-60q-195 0 -289 87t-94 266v289q0 118 -39 164t-139 47v191q100 0 139 47t39 166v255q0 176 94 260t289 84h60v-141h-45q-126 0 -180 -52t-54 -173v-296q0 -220 -179 -238v-16q179 -17 179 -241z" />
    <glyph glyph-name="bar" unicode="|" horiz-adv-x="676" 
d="M412 -326h-148v1769h148v-1769z" />
    <glyph glyph-name="braceright" unicode="}" horiz-adv-x="824" 
d="M358 860v296q0 121 -54 173t-180 52h-45v141h60q195 0 289 -84t94 -260v-255q0 -119 39 -166t139 -47v-191q-100 -1 -139 -47t-39 -164v-289q0 -179 -94 -266t-289 -87h-60v141h45q126 1 180 53t54 171v334q0 224 179 241v16q-179 18 -179 238z" />
    <glyph glyph-name="asciitilde" unicode="~" horiz-adv-x="1202" 
d="M397 737q-130 0 -141 -179h-160q-1 160 81 252q81 92 213 92t257 -125q95 -100 158 -100q131 0 142 179h159q2 -160 -80 -252t-214 -92t-255 124q-55 56 -91 78t-69 23z" />
    <glyph glyph-name="nonbreakingspace" unicode="&#xa0;" horiz-adv-x="578" 
 />
    <glyph glyph-name="exclamdown" unicode="&#xa1;" horiz-adv-x="637" 
d="M180 981q0 61 39 100t100 39t99 -39t39 -101q-1 -62 -39 -100q-38 -39 -99 -39q-61 -1 -100 39t-39 101zM218 -342l17 964h166l17 -964h-200z" />
    <glyph glyph-name="cent" unicode="&#xa2;" horiz-adv-x="1328" 
d="M768 0h-172v171q-195 31 -315 179t-120 374t120 372q120 147 315 176v171h172v-169q158 -22 268 -114t131 -230h-174q-31 92 -112 143t-196 51q-149 0 -247 -110t-99 -290q0 -180 99 -293q99 -112 236 -112q269 0 319 189h174q-21 -140 -129 -230t-270 -109v-169z" />
    <glyph glyph-name="sterling" unicode="&#xa3;" horiz-adv-x="1328" 
d="M301 1060q-1 196 137 306t380 111q158 0 300 -43v-160q-132 44 -292 44t-250 -68t-91 -182q0 -115 59 -271h472v-144h-423q20 -75 20 -161t-52 -176t-142 -146v-16h771v-154h-1062v152q132 30 220 130t88 219q0 72 -22 152h-286v144h236q-63 159 -63 263z" />
    <glyph glyph-name="currency" unicode="&#xa4;" horiz-adv-x="1328" 
d="M1056 655q0 -120 -68 -218l169 -169l-106 -106l-169 169q-96 -66 -216 -66t-220 67l-169 -170l-106 106l170 170q-67 100 -67 218t67 217l-170 170l106 106l169 -169q100 67 219 67t218 -67l168 169l106 -106l-168 -169q67 -99 67 -219zM401 656q-1 -108 77 -186t187 -78
t187 78t77 186q1 108 -77 186t-187 78t-187 -78t-77 -186z" />
    <glyph glyph-name="yen" unicode="&#xa5;" horiz-adv-x="1328" 
d="M1031 269h-277v-269h-180v269h-277v136h277v166h-277v136h223l-458 736h205l389 -641h16l389 641h205l-458 -736h223v-136h-277v-166h277v-136z" />
    <glyph glyph-name="brokenbar" unicode="&#xa6;" horiz-adv-x="676" 
d="M412 -326h-148v669h148v-669zM412 774h-148v669h148v-669z" />
    <glyph glyph-name="section" unicode="&#xa7;" horiz-adv-x="1032" 
d="M524 -257q-176 0 -288 83q-114 83 -124 216h176q10 -69 77 -111t167 -42t164 44t63 107q0 63 -47 101t-151 66l-141 38q-164 43 -240 113t-77 170q1 100 59 169t164 98v16q-219 85 -219 273q0 140 111 226t284 87q173 0 280 -78t124 -211h-173q-11 65 -73 104t-160 39
q-98 1 -158 -43q-62 -44 -62 -108t46 -101q46 -38 149 -66l141 -38q162 -43 238 -111t75 -170q0 -102 -71 -181t-183 -101v-16q254 -57 254 -257q-1 -139 -115 -227t-290 -89zM752 564q0 139 -170 176l-83 18q-91 0 -155 -56t-64 -126q0 -138 171 -176l83 -18q92 0 155 55
t63 127z" />
    <glyph glyph-name="dieresis" unicode="&#xa8;" horiz-adv-x="1092" 
d="M748 1263q-50 -1 -86 35t-35 86q-1 50 35 86t86 35q50 1 86 -35t35 -86q1 -50 -35 -86t-86 -35zM344 1263q-50 -1 -86 35t-35 86q-1 50 35 86t86 35q50 1 86 -35t35 -86q1 -50 -35 -86t-86 -35z" />
    <glyph glyph-name="copyright" unicode="&#xa9;" horiz-adv-x="1742" 
d="M888 924q-116 0 -184 -80t-69 -217q1 -137 69 -218t170 -81q198 0 236 151h139q-19 -127 -117 -201t-260 -74q-164 0 -272 115t-107 308q0 193 107 307t288 114q143 0 242 -77t119 -203h-139q-18 72 -78 114t-144 42zM872 -28q136 0 257 50t207 138q86 86 137 208
q50 122 50 281q0 160 -85 310q-84 149 -234 235t-310 86t-281 -50t-207 -138q-86 -86 -137 -208q-50 -122 -50 -258q1 -137 51 -258t136 -208q86 -88 208 -138t258 -50zM871 -168q-165 0 -313 62t-252 166q-104 106 -166 253t-62 313q0 222 104 404t286 286t403 104
q165 0 313 -61t253 -167t166 -252q61 -148 61 -314q0 -222 -104 -404t-286 -286t-403 -104z" />
    <glyph glyph-name="ordfeminine" unicode="&#xaa;" horiz-adv-x="942" 
d="M390 515q-134 0 -216 77t-83 201t87 195t252 81l245 15v80q0 75 -52 116t-137 41q-85 1 -135 -29t-60 -81h-165q11 115 108 183t256 69q159 0 253 -81t94 -224v-618h-155v119h-16q-40 -69 -112 -107t-164 -37zM449 652q93 0 161 62t68 155v96l-227 -17
q-191 -12 -191 -148q0 -68 48 -108t141 -40z" />
    <glyph glyph-name="guillemotleft" unicode="&#xab;" horiz-adv-x="1391" 
d="M382 573v-16l351 -412h-204l-350 416v8l350 416h204zM861 573v-16l351 -412h-205l-350 416v8l351 416h204z" />
    <glyph glyph-name="logicalnot" unicode="&#xac;" horiz-adv-x="1328" 
d="M1138 654v-528h-148v380h-800v148h948z" />
    <glyph glyph-name="registered" unicode="&#xae;" horiz-adv-x="1260" 
d="M527 1143v-143h124q92 0 92 74q0 69 -89 69h-127zM527 733h-98v499h249q74 0 124 -44t50 -109q0 -122 -116 -150l138 -196h-120l-129 183h-98v-183zM630 553q174 -1 296 121t122 297t-121 297t-297 121q-176 1 -296 -121q-122 -122 -122 -297t122 -297t296 -121zM630 449
q-218 0 -370 152t-152 370q0 144 70 264t189 189t245 69t222 -41q96 -40 166 -110t111 -166t41 -222t-69 -246t-189 -190t-264 -69z" />
    <glyph glyph-name="macron" unicode="&#xaf;" horiz-adv-x="1048" 
d="M861 1286h-674v136h674v-136z" />
    <glyph glyph-name="degree" unicode="&#xb0;" horiz-adv-x="901" 
d="M450 941q88 0 144 57q55 56 55 140q1 84 -55 140t-144 57q-88 -1 -142 -57t-55 -140q1 -84 55 -140q54 -57 142 -57zM450 813q-140 0 -232 94t-92 231t92 231t232 94q140 -1 232 -95t93 -230q-1 -136 -93 -230t-232 -95z" />
    <glyph glyph-name="plusminus" unicode="&#xb1;" horiz-adv-x="1328" 
d="M738 662v-291h-148v291h-435v136h435v291h148v-291h435v-136h-435zM1173 112h-1018v148h1018v-148z" />
    <glyph glyph-name="two.sups" unicode="&#xb2;" horiz-adv-x="825" 
d="M95 1539q-1 126 87 206t225 80t223 -73t87 -187q-1 -70 -43 -140t-160 -188l-185 -186v-16h401v-135h-627v110l301 310q91 92 122 140t31 102t-43 94q-44 40 -112 39q-68 0 -112 -43t-43 -113v-2h-152v2z" />
    <glyph glyph-name="three.sups" unicode="&#xb3;" horiz-adv-x="853" 
d="M311 1300v122h109q69 0 112 38t43 100q0 61 -42 97t-112 36q-69 1 -113 -37t-49 -102h-151q4 124 90 196t222 73q136 -1 224 -69t88 -158t-46 -148q-46 -56 -120 -72v-16q92 -7 147 -66t55 -162t-97 -180t-244 -77q-147 1 -239 75t-98 197h156q5 -63 54 -101
q48 -38 126 -37t127 41t49 106t-48 105t-131 39h-112z" />
    <glyph glyph-name="acute" unicode="&#xb4;" horiz-adv-x="1093" 
d="M286 1263l252 338h220l-278 -338h-194z" />
    <glyph glyph-name="mugreek" unicode="&#xb5;" horiz-adv-x="1258" 
d="M162 -360v1438h172v-654q0 -286 244 -286q130 0 207 81t77 221v638h172v-809q0 -73 22 -101t62 -27q40 0 65 4v-145q-37 -10 -82 -10q-111 0 -162 38t-69 142h-16q-42 -96 -110 -142t-174 -47q-160 0 -220 129h-16v-470h-172z" />
    <glyph glyph-name="mugreek" unicode="&#x3bc;" horiz-adv-x="1258" 
d="M162 -360v1438h172v-654q0 -286 244 -286q130 0 207 81t77 221v638h172v-809q0 -73 22 -101t62 -27q40 0 65 4v-145q-37 -10 -82 -10q-111 0 -162 38t-69 142h-16q-42 -96 -110 -142t-174 -47q-160 0 -220 129h-16v-470h-172z" />
    <glyph glyph-name="paragraph" unicode="&#xb6;" horiz-adv-x="1321" 
d="M981 -220v1663h180v-1663h-180zM834 -220h-180v795h-20q-202 -1 -338 121t-136 310t136 312q136 125 339 125h199v-1663z" />
    <glyph glyph-name="periodcentered" unicode="&#xb7;" horiz-adv-x="630" 
d="M316 597q-62 0 -102 40t-40 102t40 102t102 40t100 -40q40 -40 40 -102t-40 -102q-38 -40 -100 -40z" />
    <glyph glyph-name="cedilla" unicode="&#xb8;" horiz-adv-x="1093" 
d="M394 -244v84l63 160h134l-55 -142q102 0 158 -43t57 -124t-65 -133t-165 -52t-160 18v108q48 -14 122 -14q119 0 119 73q0 35 -35 50t-114 15h-59z" />
    <glyph glyph-name="one.sups" unicode="&#xb9;" horiz-adv-x="664" 
d="M477 900h-156v742h-16q-14 -8 -116 -82t-104 -76v152q87 65 236 167h156v-903z" />
    <glyph glyph-name="ordmasculine" unicode="&#xba;" horiz-adv-x="1024" 
d="M512 515q-196 1 -310 127t-114 346t114 348q114 127 310 127q196 -1 310 -127t114 -347t-114 -347t-310 -127zM512 659q119 1 185 87t66 244q1 158 -65 243q-66 86 -186 86q-120 -1 -184 -87q-66 -86 -66 -243t66 -243t184 -87z" />
    <glyph glyph-name="guillemotright" unicode="&#xbb;" horiz-adv-x="1391" 
d="M1009 573l-351 412h204l350 -416v-8l-350 -416h-204l351 412v16zM530 573l-351 412h204l351 -416v-8l-350 -416h-205l351 412v16z" />
    <glyph glyph-name="onequarter" unicode="&#xbc;" horiz-adv-x="1944" 
d="M1285 299h304v477h-6q-203 -300 -298 -469v-8zM1743 903v-600h121v-133h-121v-170h-156v170h-452v141q77 141 378 592h230zM504 0l637 1443h167l-637 -1443h-167zM477 540h-156v742h-16q-14 -8 -116 -82t-104 -76v152q87 65 236 167h156v-903z" />
    <glyph glyph-name="onehalf" unicode="&#xbd;" horiz-adv-x="1949" 
d="M504 0l637 1443h167l-637 -1443h-167zM477 540h-156v742h-16q-14 -8 -116 -82t-104 -76v152q87 65 236 167h156v-903zM1219 639q-1 126 87 206t225 80t223 -73t87 -187q-1 -70 -43 -140t-160 -188l-185 -186v-16h401v-135h-627v110l301 310q91 92 122 140t31 102t-43 94
q-44 40 -112 39q-68 0 -112 -43t-43 -113v-2h-152v2z" />
    <glyph glyph-name="threequarters" unicode="&#xbe;" horiz-adv-x="2134" 
d="M311 940v122h109q69 0 112 38t43 100q0 61 -42 97t-112 36q-69 1 -113 -37t-49 -102h-151q4 124 90 196t222 73q136 -1 224 -69t88 -158t-46 -148q-46 -56 -120 -72v-16q92 -7 147 -66t55 -162t-97 -180t-244 -77q-147 1 -239 75t-98 197h156q5 -63 54 -101
q48 -38 126 -37t127 41t49 106t-48 105t-131 39h-112zM1475 299h304v477h-6q-203 -300 -298 -469v-8zM1933 903v-600h121v-133h-121v-170h-156v170h-452v141q74 137 378 592h230zM694 0l637 1443h167l-637 -1443h-167z" />
    <glyph glyph-name="questiondown" unicode="&#xbf;" horiz-adv-x="1050" 
d="M557 840q-61 0 -100 39t-39 99t40 101q40 40 99 40q60 0 99 -40q39 -41 39 -101q-1 -60 -39 -99t-99 -39zM542 -354q-194 0 -314 103q-118 103 -118 261q0 216 209 343q94 56 128 106t34 130v65h175v-92q2 -98 -46 -170t-144 -130t-133 -112t-37 -140q0 -88 68 -148
t178 -60q112 0 180 62t77 171h171q-8 -171 -121 -280t-307 -109z" />
    <glyph glyph-name="Agrave" unicode="&#xc0;" horiz-adv-x="1380" 
d="M478 1873l310 -298h-204l-332 298h226zM682 1210l-226 -644h468l-226 644h-16zM1122 0l-145 413h-574l-145 -413h-189l532 1443h178l532 -1443h-189z" />
    <glyph glyph-name="Aacute" unicode="&#xc1;" horiz-adv-x="1380" 
d="M584 1575l310 298h226l-332 -298h-204zM682 1210l-226 -644h468l-226 644h-16zM1122 0l-145 413h-574l-145 -413h-189l532 1443h178l532 -1443h-189z" />
    <glyph glyph-name="Acircumflex" unicode="&#xc2;" horiz-adv-x="1380" 
d="M772 1873l300 -298h-202l-172 177h-16l-172 -177h-202l300 298h164zM682 1210l-226 -644h468l-226 644h-16zM1122 0l-145 413h-574l-145 -413h-189l532 1443h178l532 -1443h-189z" />
    <glyph glyph-name="Atilde" unicode="&#xc3;" horiz-adv-x="1380" 
d="M314 1592q0 133 60 207t159 74q99 1 163 -59q26 -24 48 -50q55 -60 92 -59q87 0 95 151h135q0 -128 -62 -204t-155 -77q-94 -1 -154 59q-25 24 -47 50q-55 59 -102 59q-47 -1 -70 -35t-26 -116h-136zM682 1210l-226 -644h468l-226 644h-16zM1122 0l-145 413h-574
l-145 -413h-189l532 1443h178l532 -1443h-189z" />
    <glyph glyph-name="Adieresis" unicode="&#xc4;" horiz-adv-x="1380" 
d="M892 1575q-50 -1 -86 35t-35 86q-1 50 35 86t86 35q50 1 86 -35t35 -86q1 -50 -35 -86t-86 -35zM488 1575q-50 -1 -86 35t-35 86q-1 50 35 86t86 35q50 1 86 -35t35 -86q1 -50 -35 -86t-86 -35zM682 1210l-226 -644h468l-226 644h-16zM1122 0l-145 413h-574l-145 -413
h-189l532 1443h178l532 -1443h-189z" />
    <glyph glyph-name="Aring" unicode="&#xc5;" horiz-adv-x="1380" 
d="M690 1643q46 0 76 30q30 29 29 75q1 46 -29 76t-76 29q-46 1 -76 -29t-29 -76q-1 -46 29 -75q30 -30 76 -30zM690 1551q-83 0 -141 57t-58 140t58 140t141 57t141 -57t58 -140t-58 -140t-141 -57zM682 1210l-226 -644h468l-226 644h-16zM1122 0l-145 413h-574l-145 -413
h-189l532 1443h178l532 -1443h-189z" />
    <glyph glyph-name="AE" unicode="&#xc6;" horiz-adv-x="1966" 
d="M986 0v459h-527l-209 -459h-181l651 1443h1104v-162h-658v-473h621v-160h-621v-486h658v-162h-838zM986 1292h-147l-310 -680h457v680z" />
    <glyph glyph-name="Ccedilla" unicode="&#xc7;" horiz-adv-x="1466" 
d="M764 1311q-208 0 -330 -159t-121 -431q0 -273 122 -431t330 -158q151 0 259 72t141 198h183q-32 -182 -170 -298t-342 -135l-43 -111q103 0 159 -43t56 -124t-66 -133t-164 -52t-160 18v108q48 -14 122 -14q119 0 119 73q0 35 -35 50t-114 15h-59v84l51 129
q-266 23 -420 223t-154 539t171 543t465 203q228 0 390 -130t194 -339h-183q-36 140 -144 222t-257 81z" />
    <glyph glyph-name="Egrave" unicode="&#xc8;" horiz-adv-x="1220" 
d="M419 1873l310 -298h-204l-332 298h226zM1078 162v-162h-894v1443h894v-162h-714v-463h677v-160h-677v-496h714z" />
    <glyph glyph-name="Eacute" unicode="&#xc9;" horiz-adv-x="1220" 
d="M525 1575l310 298h226l-332 -298h-204zM1078 162v-162h-894v1443h894v-162h-714v-463h677v-160h-677v-496h714z" />
    <glyph glyph-name="Ecircumflex" unicode="&#xca;" horiz-adv-x="1220" 
d="M713 1873l300 -298h-202l-172 177h-16l-172 -177h-202l300 298h164zM1078 162v-162h-894v1443h894v-162h-714v-463h677v-160h-677v-496h714z" />
    <glyph glyph-name="Edieresis" unicode="&#xcb;" horiz-adv-x="1220" 
d="M833 1575q-49 -1 -85 35t-36 86t36 86t85 35q49 1 85 -35t36 -86t-36 -86t-85 -35zM429 1575q-49 -1 -85 35t-36 86t36 86t85 35q49 1 85 -35t36 -86t-36 -86t-85 -35zM1078 162v-162h-894v1443h894v-162h-714v-463h677v-160h-677v-496h714z" />
    <glyph glyph-name="Igrave" unicode="&#xcc;" horiz-adv-x="548" 
d="M62 1873l310 -298h-204l-332 298h226zM364 0h-180v1443h180v-1443z" />
    <glyph glyph-name="Iacute" unicode="&#xcd;" horiz-adv-x="548" 
d="M168 1575l310 298h226l-332 -298h-204zM364 0h-180v1443h180v-1443z" />
    <glyph glyph-name="Icircumflex" unicode="&#xce;" horiz-adv-x="548" 
d="M356 1873l300 -298h-202l-172 177h-16l-172 -177h-202l300 298h164zM364 0h-180v1443h180v-1443z" />
    <glyph glyph-name="Idieresis" unicode="&#xcf;" horiz-adv-x="548" 
d="M476 1575q-50 -1 -86 35t-35 86q-1 50 35 86t86 35q50 1 86 -35t35 -86q1 -50 -35 -86t-86 -35zM72 1575q-50 -1 -86 35t-35 86q-1 50 35 86t86 35q50 1 86 -35t35 -86q1 -50 -35 -86t-86 -35zM364 0h-180v1443h180v-1443z" />
    <glyph glyph-name="Eth" unicode="&#xd0;" horiz-adv-x="1487" 
d="M184 1443h495q321 -1 501 -191t180 -530t-180 -532q-180 -190 -501 -190h-495v663h-158v163h158v617zM364 162h303q241 0 375 147t134 411t-134 413q-134 148 -375 148h-303v-455h248v-163h-248v-501z" />
    <glyph glyph-name="Ntilde" unicode="&#xd1;" horiz-adv-x="1520" 
d="M384 1592q0 133 60 207t159 74q99 1 163 -59q26 -24 48 -50q55 -60 92 -59q87 0 95 151h135q0 -128 -62 -204t-155 -77q-94 -1 -154 59q-25 24 -47 50q-55 59 -102 59q-47 -1 -70 -35t-26 -116h-136zM362 0h-178v1443h175l783 -1123h16v1123h178v-1443h-175l-783 1119
h-16v-1119z" />
    <glyph glyph-name="Ograve" unicode="&#xd2;" horiz-adv-x="1579" 
d="M579 1873l310 -298h-204l-332 298h226zM792 1311q-220 0 -350 -159q-129 -159 -129 -430q-1 -270 127 -430t350 -160t349 160t127 431t-127 429t-347 159zM792 1477q306 1 482 -203t177 -552q-1 -348 -177 -552t-484 -204t-485 204t-177 552t178 552q180 204 486 203z
" />
    <glyph glyph-name="Oacute" unicode="&#xd3;" horiz-adv-x="1579" 
d="M685 1575l310 298h226l-332 -298h-204zM792 1311q-220 0 -350 -159q-129 -159 -129 -430q-1 -270 127 -430t350 -160t349 160t127 431t-127 429t-347 159zM792 1477q306 1 482 -203t177 -552q-1 -348 -177 -552t-484 -204t-485 204t-177 552t178 552q180 204 486 203z
" />
    <glyph glyph-name="Ocircumflex" unicode="&#xd4;" horiz-adv-x="1579" 
d="M873 1873l300 -298h-202l-172 177h-16l-172 -177h-202l300 298h164zM792 1311q-220 0 -350 -159q-129 -159 -129 -430q-1 -270 127 -430t350 -160t349 160t127 431t-127 429t-347 159zM792 1477q306 1 482 -203t177 -552q-1 -348 -177 -552t-484 -204t-485 204t-177 552
t178 552q180 204 486 203z" />
    <glyph glyph-name="Otilde" unicode="&#xd5;" horiz-adv-x="1579" 
d="M647 1743q-47 -1 -70 -35t-26 -116h-136q1 133 61 207t158 74q98 1 162 -59q26 -24 50 -50q55 -60 91 -59q87 0 95 151h135q1 -128 -61 -204t-156 -77t-154 59q-26 24 -48 50q-54 60 -101 59zM792 1311q-220 0 -350 -159q-129 -159 -129 -430q-1 -270 127 -430t350 -160
t349 160t127 431t-127 429t-347 159zM792 1477q306 1 482 -203t177 -552q-1 -348 -177 -552t-484 -204t-485 204t-177 552t178 552q180 204 486 203z" />
    <glyph glyph-name="Odieresis" unicode="&#xd6;" horiz-adv-x="1579" 
d="M993 1575q-49 -1 -85 35t-36 86t36 86t85 35q49 1 85 -35t36 -86t-36 -86t-85 -35zM589 1575q-49 -1 -85 35t-36 86t36 86t85 35q49 1 85 -35t36 -86t-36 -86t-85 -35zM792 1311q-220 0 -350 -159q-129 -159 -129 -430q-1 -270 127 -430t350 -160t349 160t127 431
t-127 429t-347 159zM792 1477q306 1 482 -203t177 -552q-1 -348 -177 -552t-484 -204t-485 204t-177 552t178 552q180 204 486 203z" />
    <glyph glyph-name="multiply" unicode="&#xd7;" horiz-adv-x="1328" 
d="M664 475l-308 -307l-104 104l307 308l-307 308l104 104l308 -307l308 307l104 -104l-307 -308l307 -308l-104 -104z" />
    <glyph glyph-name="Oslash" unicode="&#xd8;" horiz-adv-x="1551" 
d="M1451 724q-1 -350 -177 -554t-483 -204q-248 0 -418 137l-115 -150l-100 76l127 165q-157 200 -157 538t178 542t485 203q231 0 392 -119l101 130l98 -69l-110 -143q179 -202 179 -552zM791 1311q-220 0 -349 -159t-129 -408t90 -398l672 871q-117 94 -284 94zM791 132
q221 0 348 160t127 420t-108 415l-675 -881q122 -114 308 -114z" />
    <glyph glyph-name="Ugrave" unicode="&#xd9;" horiz-adv-x="1524" 
d="M550 1873l310 -298h-204l-332 298h226zM369 1443v-935q1 -168 105 -272t288 -104t288 104t105 272v935h180v-947q-1 -234 -155 -382t-418 -148t-418 148t-155 382v947h180z" />
    <glyph glyph-name="Uacute" unicode="&#xda;" horiz-adv-x="1524" 
d="M656 1575l310 298h226l-332 -298h-204zM369 1443v-935q1 -168 105 -272t288 -104t288 104t105 272v935h180v-947q-1 -234 -155 -382t-418 -148t-418 148t-155 382v947h180z" />
    <glyph glyph-name="Ucircumflex" unicode="&#xdb;" horiz-adv-x="1524" 
d="M844 1873l300 -298h-202l-172 177h-16l-172 -177h-202l300 298h164zM369 1443v-935q1 -168 105 -272t288 -104t288 104t105 272v935h180v-947q-1 -234 -155 -382t-418 -148t-418 148t-155 382v947h180z" />
    <glyph glyph-name="Udieresis" unicode="&#xdc;" horiz-adv-x="1524" 
d="M964 1575q-50 -1 -86 35t-35 86q-1 50 35 86t86 35q50 1 86 -35t35 -86q1 -50 -35 -86t-86 -35zM560 1575q-50 -1 -86 35t-35 86q-1 50 35 86t86 35q50 1 86 -35t35 -86q1 -50 -35 -86t-86 -35zM369 1443v-935q1 -168 105 -272t288 -104t288 104t105 272v935h180v-947
q-1 -234 -155 -382t-418 -148t-418 148t-155 382v947h180z" />
    <glyph glyph-name="Yacute" unicode="&#xdd;" horiz-adv-x="1344" 
d="M566 1575l310 298h226l-332 -298h-204zM762 0h-180v621l-512 822h205l389 -641h16l389 641h205l-512 -822v-621z" />
    <glyph glyph-name="Thorn" unicode="&#xde;" horiz-adv-x="1280" 
d="M364 1017v-512h322q130 0 209 66t79 191t-79 190t-209 65h-322zM184 1443h180v-266h373q172 0 297 -111t125 -304q0 -96 -35 -176q-34 -80 -94 -132q-125 -109 -295 -109h-371v-345h-180v1443z" />
    <glyph glyph-name="germandbls" unicode="&#xdf;" horiz-adv-x="1274" 
d="M396 0h-171v1101q-1 183 115 289t302 106t301 -105q116 -105 116 -270q0 -121 -65 -212t-164 -122v-18q156 -15 246 -109t90 -264t-126 -290t-329 -120q-83 0 -144 13v153q61 -14 132 -14q139 0 217 75t79 198t-89 195t-251 72h-61v170h51q113 0 179 68t66 182t-66 180
t-180 66t-181 -68t-67 -192v-1084z" />
    <glyph glyph-name="agrave" unicode="&#xe0;" horiz-adv-x="1130" 
d="M686 1263h-194l-278 338h220zM462 -19q-160 -1 -262 87t-102 233t102 227t291 93l311 19v98q0 100 -62 153t-170 53q-217 0 -255 -134h-174q17 129 133 208t302 79q184 0 291 -95t107 -264v-738h-164v159h-16q-52 -86 -138 -132t-194 -46zM512 132q114 0 202 77t88 193
v99l-290 -19q-122 -8 -179 -51t-57 -125t61 -128t175 -46z" />
    <glyph glyph-name="aacute" unicode="&#xe1;" horiz-adv-x="1130" 
d="M450 1263l252 338h220l-278 -338h-194zM462 -19q-160 -1 -262 87t-102 233t102 227t291 93l311 19v98q0 100 -62 153t-170 53q-217 0 -255 -134h-174q17 129 133 208t302 79q184 0 291 -95t107 -264v-738h-164v159h-16q-52 -86 -138 -132t-194 -46zM512 132q114 0 202 77
t88 193v99l-290 -19q-122 -8 -179 -51t-57 -125t61 -128t175 -46z" />
    <glyph glyph-name="acircumflex" unicode="&#xe2;" horiz-adv-x="1130" 
d="M665 1568l282 -340h-198l-177 227h-16l-177 -227h-198l282 340h202zM462 -19q-160 -1 -262 87t-102 233t102 227t291 93l311 19v98q0 100 -62 153t-170 53q-217 0 -255 -134h-174q17 129 133 208t302 79q184 0 291 -95t107 -264v-738h-164v159h-16q-52 -86 -138 -132
t-194 -46zM512 132q114 0 202 77t88 193v99l-290 -19q-122 -8 -179 -51t-57 -125t61 -128t175 -46z" />
    <glyph glyph-name="atilde" unicode="&#xe3;" horiz-adv-x="1130" 
d="M328 1231h-142q0 135 62 213t158 78q97 0 159 -55q26 -23 48 -47q52 -56 97 -55q90 0 90 157h142q0 -136 -62 -214t-158 -77q-97 -1 -159 55q-26 24 -48 47q-53 55 -97 55q-90 0 -90 -157zM462 -19q-160 -1 -262 87t-102 233t102 227t291 93l311 19v98q0 100 -62 153
t-170 53q-217 0 -255 -134h-174q17 129 133 208t302 79q184 0 291 -95t107 -264v-738h-164v159h-16q-52 -86 -138 -132t-194 -46zM512 132q114 0 202 77t88 193v99l-290 -19q-122 -8 -179 -51t-57 -125t61 -128t175 -46z" />
    <glyph glyph-name="adieresis" unicode="&#xe4;" horiz-adv-x="1130" 
d="M766 1228q-50 0 -86 36t-35 85q-1 49 35 85t86 36t86 -36t35 -85q1 -49 -35 -85t-86 -36zM362 1228q-50 0 -86 36t-35 85q-1 49 35 85t86 36t86 -36t35 -85q1 -49 -35 -85t-86 -36zM462 -19q-160 -1 -262 87t-102 233t102 227t291 93l311 19v98q0 100 -62 153t-170 53
q-217 0 -255 -134h-174q17 129 133 208t302 79q184 0 291 -95t107 -264v-738h-164v159h-16q-52 -86 -138 -132t-194 -46zM512 132q114 0 202 77t88 193v99l-290 -19q-122 -8 -179 -51t-57 -125t61 -128t175 -46z" />
    <glyph glyph-name="aring" unicode="&#xe5;" horiz-adv-x="1130" 
d="M564 1334q52 0 87 35t35 88t-35 88t-87 35t-87 -35t-35 -88t35 -88t87 -35zM564 1228q-96 0 -164 66t-68 163t68 163t164 66t164 -66t68 -163t-68 -163t-164 -66zM462 -19q-160 -1 -262 87t-102 233t102 227t291 93l311 19v98q0 100 -62 153t-170 53q-217 0 -255 -134
h-174q17 129 133 208t302 79q184 0 291 -95t107 -264v-738h-164v159h-16q-52 -86 -138 -132t-194 -46zM512 132q114 0 202 77t88 193v99l-290 -19q-122 -8 -179 -51t-57 -125t61 -128t175 -46z" />
    <glyph glyph-name="ae" unicode="&#xe6;" horiz-adv-x="1849" 
d="M516 132q116 0 201 80t85 198v91l-290 -19q-122 -8 -179 -51t-57 -125t62 -128t178 -46zM1272 946q-126 0 -208 -82t-91 -225h587q-2 135 -82 221t-206 86zM1291 134q195 0 264 145h172q-41 -143 -155 -221t-264 -77q-150 0 -257 65t-150 166h-16q-53 -109 -159 -170
t-262 -61t-261 87q-105 86 -105 232t102 228t291 93l311 19v98q0 100 -62 153t-170 53q-217 0 -255 -134h-174q17 130 133 208t266 79q278 0 372 -185h16q48 81 146 133t211 52q214 -1 335 -141t121 -388v-68h-768v-18q7 -160 93 -254t225 -94z" />
    <glyph glyph-name="ccedilla" unicode="&#xe7;" horiz-adv-x="1146" 
d="M602 942q-144 0 -230 -108t-86 -292t86 -296q86 -110 230 -110q110 0 182 49t96 140h174q-22 -136 -120 -228t-253 -111l-49 -128q102 0 158 -43t57 -124t-65 -133t-165 -52t-160 18v108q48 -14 122 -14q119 0 119 73q0 35 -35 50t-114 15h-59v84l57 144
q-203 19 -321 169t-118 396t134 397t360 151q188 0 308 -99t144 -250h-174q-22 86 -94 140t-184 54z" />
    <glyph glyph-name="egrave" unicode="&#xe8;" horiz-adv-x="1170" 
d="M716 1263h-194l-278 338h220zM594 -19q-224 1 -355 151t-131 406t132 407q132 152 352 152t345 -145t125 -397v-66h-775v-8q7 -160 91 -254t220 -94q209 0 278 146h172q-38 -140 -158 -219t-296 -79zM592 945q-128 0 -212 -87q-83 -87 -93 -230h594q-3 143 -82 230
t-207 87z" />
    <glyph glyph-name="eacute" unicode="&#xe9;" horiz-adv-x="1170" 
d="M480 1263l252 338h220l-278 -338h-194zM594 -19q-224 1 -355 151t-131 406t132 407q132 152 352 152t345 -145t125 -397v-66h-775v-8q7 -160 91 -254t220 -94q209 0 278 146h172q-38 -140 -158 -219t-296 -79zM592 945q-128 0 -212 -87q-83 -87 -93 -230h594
q-3 143 -82 230t-207 87z" />
    <glyph glyph-name="ecircumflex" unicode="&#xea;" horiz-adv-x="1170" 
d="M695 1568l282 -340h-198l-177 227h-16l-177 -227h-198l282 340h202zM594 -19q-224 1 -355 151t-131 406t132 407q132 152 352 152t345 -145t125 -397v-66h-775v-8q7 -160 91 -254t220 -94q209 0 278 146h172q-38 -140 -158 -219t-296 -79zM592 945q-128 0 -212 -87
q-83 -87 -93 -230h594q-3 143 -82 230t-207 87z" />
    <glyph glyph-name="edieresis" unicode="&#xeb;" horiz-adv-x="1170" 
d="M796 1228q-50 0 -86 36t-35 85q-1 49 35 85t86 36t86 -36t35 -85q1 -49 -35 -85t-86 -36zM392 1228q-50 0 -86 36t-35 85q-1 49 35 85t86 36t86 -36t35 -85q1 -49 -35 -85t-86 -36zM594 -19q-224 1 -355 151t-131 406t132 407q132 152 352 152t345 -145t125 -397v-66
h-775v-8q7 -160 91 -254t220 -94q209 0 278 146h172q-38 -140 -158 -219t-296 -79zM592 945q-128 0 -212 -87q-83 -87 -93 -230h594q-3 143 -82 230t-207 87z" />
    <glyph glyph-name="igrave" unicode="&#xec;" horiz-adv-x="504" 
d="M374 1263h-194l-278 338h220zM166 0v1078h172v-1078h-172z" />
    <glyph glyph-name="iacute" unicode="&#xed;" horiz-adv-x="504" 
d="M138 1263l252 338h220l-278 -338h-194zM166 0v1078h172v-1078h-172z" />
    <glyph glyph-name="icircumflex" unicode="&#xee;" horiz-adv-x="504" 
d="M353 1568l282 -340h-198l-177 227h-16l-177 -227h-198l282 340h202zM166 0v1078h172v-1078h-172z" />
    <glyph glyph-name="idieresis" unicode="&#xef;" horiz-adv-x="504" 
d="M454 1228q-50 0 -86 36t-35 85q-1 49 35 85t86 36t86 -36t35 -85q1 -49 -35 -85t-86 -36zM50 1228q-50 0 -86 36t-35 85q-1 49 35 85t86 36t86 -36t35 -85q1 -49 -35 -85t-86 -36zM166 0v1078h172v-1078h-172z" />
    <glyph glyph-name="eth" unicode="&#xf0;" horiz-adv-x="1188" 
d="M600 902q-144 0 -228 -104q-86 -104 -86 -279t86 -279t230 -104t230 104t86 278t-87 279t-231 105zM1084 571q0 -273 -130 -431t-356 -159q-226 0 -358 144q-132 143 -132 389t125 394t328 149q101 0 192 -48t126 -121h15q-45 183 -182 351l-278 -90l-35 112l231 75
q-62 73 -200 190h206q77 -65 145 -141l250 81l35 -112l-209 -68q227 -307 227 -715z" />
    <glyph glyph-name="ntilde" unicode="&#xf1;" horiz-adv-x="1195" 
d="M367 1231h-142q-1 135 61 213t159 78t159 -55q26 -23 48 -47q52 -56 97 -55q90 0 90 157h142q1 -136 -61 -214t-159 -77q-97 -1 -159 55q-26 24 -48 47q-53 55 -97 55q-90 0 -90 -157zM162 0v1078h164v-170h16q86 189 324 189q181 1 279 -103t98 -296v-698h-172v656
q-1 146 -63 216t-192 70t-206 -82t-76 -222v-638h-172z" />
    <glyph glyph-name="ograve" unicode="&#xf2;" horiz-adv-x="1210" 
d="M727 1263h-194l-278 338h220zM605 -19q-229 -1 -363 149t-134 410t133 408q133 149 364 149t364 -149q133 -148 133 -408t-134 -410t-363 -149zM605 136q153 0 236 106t83 297t-83 297t-236 106t-236 -106t-83 -297t83 -297t236 -106z" />
    <glyph glyph-name="oacute" unicode="&#xf3;" horiz-adv-x="1210" 
d="M491 1263l252 338h220l-278 -338h-194zM605 -19q-229 -1 -363 149t-134 410t133 408q133 149 364 149t364 -149q133 -148 133 -408t-134 -410t-363 -149zM605 136q153 0 236 106t83 297t-83 297t-236 106t-236 -106t-83 -297t83 -297t236 -106z" />
    <glyph glyph-name="ocircumflex" unicode="&#xf4;" horiz-adv-x="1210" 
d="M706 1568l282 -340h-198l-177 227h-16l-177 -227h-198l282 340h202zM605 -19q-229 -1 -363 149t-134 410t133 408q133 149 364 149t364 -149q133 -148 133 -408t-134 -410t-363 -149zM605 136q153 0 236 106t83 297t-83 297t-236 106t-236 -106t-83 -297t83 -297
t236 -106z" />
    <glyph glyph-name="otilde" unicode="&#xf5;" horiz-adv-x="1210" 
d="M369 1231h-142q-1 135 61 213t159 78t159 -55q26 -23 48 -47q52 -56 97 -55q90 0 90 157h142q1 -136 -61 -214t-159 -77q-97 -1 -159 55q-26 24 -48 47q-53 55 -97 55q-90 0 -90 -157zM605 -19q-229 -1 -363 149t-134 410t133 408q133 149 364 149t364 -149
q133 -148 133 -408t-134 -410t-363 -149zM605 136q153 0 236 106t83 297t-83 297t-236 106t-236 -106t-83 -297t83 -297t236 -106z" />
    <glyph glyph-name="odieresis" unicode="&#xf6;" horiz-adv-x="1210" 
d="M807 1228q-49 0 -85 36t-36 85t36 85t85 36t85 -36t36 -85t-36 -85t-85 -36zM403 1228q-49 0 -85 36t-36 85t36 85t85 36t85 -36t36 -85t-36 -85t-85 -36zM605 -19q-229 -1 -363 149t-134 410t133 408q133 149 364 149t364 -149q133 -148 133 -408t-134 -410t-363 -149z
M605 136q153 0 236 106t83 297t-83 297t-236 106t-236 -106t-83 -297t83 -297t236 -106z" />
    <glyph glyph-name="divide" unicode="&#xf7;" horiz-adv-x="1328" 
d="M664 98q-54 0 -89 36q-36 36 -36 89t36 89q35 36 89 36t90 -36t35 -90q1 -54 -35 -89t-90 -35zM664 812q-54 0 -89 36q-36 36 -36 89t36 89q35 36 89 36t90 -36t35 -90q1 -54 -35 -89t-90 -35zM1173 506h-1018v148h1018v-148z" />
    <glyph glyph-name="oslash" unicode="&#xf8;" horiz-adv-x="1210" 
d="M1102 546q0 -266 -134 -416t-363 -149q-155 0 -268 69l-59 -87l-104 69l67 98q-133 150 -133 410t133 408q133 149 364 149q144 0 256 -62l57 83l100 -64l-62 -92q146 -150 146 -416zM605 942q-153 0 -236 -106t-83 -280q0 -175 58 -276l425 620q-69 42 -164 42zM605 136
q153 0 236 106t83 288q0 184 -68 285l-427 -629q73 -50 176 -50z" />
    <glyph glyph-name="ugrave" unicode="&#xf9;" horiz-adv-x="1196" 
d="M715 1263h-194l-278 338h220zM520 -19q-180 0 -274 103t-94 296v698h172v-656q0 -148 58 -216t192 -68t212 80q76 80 76 222v638h172v-1078h-164v169h-16q-85 -188 -334 -188z" />
    <glyph glyph-name="uacute" unicode="&#xfa;" horiz-adv-x="1196" 
d="M479 1263l252 338h220l-278 -338h-194zM520 -19q-180 0 -274 103t-94 296v698h172v-656q0 -148 58 -216t192 -68t212 80q76 80 76 222v638h172v-1078h-164v169h-16q-85 -188 -334 -188z" />
    <glyph glyph-name="ucircumflex" unicode="&#xfb;" horiz-adv-x="1196" 
d="M694 1568l282 -340h-198l-177 227h-16l-177 -227h-198l282 340h202zM520 -19q-180 0 -274 103t-94 296v698h172v-656q0 -148 58 -216t192 -68t212 80q76 80 76 222v638h172v-1078h-164v169h-16q-85 -188 -334 -188z" />
    <glyph glyph-name="udieresis" unicode="&#xfc;" horiz-adv-x="1196" 
d="M795 1228q-49 0 -85 36t-36 85t36 85t85 36t85 -36t36 -85t-36 -85t-85 -36zM391 1228q-49 0 -85 36t-36 85t36 85t85 36t85 -36t36 -85t-36 -85t-85 -36zM520 -19q-180 0 -274 103t-94 296v698h172v-656q0 -148 58 -216t192 -68t212 80q76 80 76 222v638h172v-1078h-164
v169h-16q-85 -188 -334 -188z" />
    <glyph glyph-name="yacute" unicode="&#xfd;" horiz-adv-x="1112" 
d="M437 1263l252 338h220l-278 -338h-194zM254 -390q-41 0 -77 6v147q27 -5 87 -5t104 40t79 137l20 64l-399 1079h186l296 -887h16l295 887h183l-421 -1144q-69 -188 -147 -256t-222 -68z" />
    <glyph glyph-name="thorn" unicode="&#xfe;" horiz-adv-x="1258" 
d="M657 136q147 0 231 107t84 296t-84 296t-230 107q-147 0 -233 -108t-86 -294q-1 -186 85 -295t233 -109zM697 1097q205 0 329 -152q124 -151 124 -405t-124 -406t-329 -153q-115 -1 -204 47t-133 134h-16v-522h-172v1866h164v-608h16q52 93 144 146t201 53z" />
    <glyph glyph-name="ydieresis" unicode="&#xff;" horiz-adv-x="1112" 
d="M753 1228q-49 0 -85 36t-36 85t36 85t85 36t85 -36t36 -85t-36 -85t-85 -36zM349 1228q-49 0 -85 36t-36 85t36 85t85 36t85 -36t36 -85t-36 -85t-85 -36zM254 -390q-41 0 -77 6v147q27 -5 87 -5t104 40t79 137l20 64l-399 1079h186l296 -887h16l295 887h183l-421 -1144
q-69 -188 -147 -256t-222 -68z" />
    <glyph glyph-name="Amacron" unicode="&#x100;" horiz-adv-x="1380" 
d="M1027 1620h-674v136h674v-136zM682 1210l-226 -644h468l-226 644h-16zM1122 0l-145 413h-574l-145 -413h-189l532 1443h178l532 -1443h-189z" />
    <glyph glyph-name="amacron" unicode="&#x101;" horiz-adv-x="1130" 
d="M901 1286h-674v136h674v-136zM462 -19q-160 -1 -262 87t-102 233t102 227t291 93l311 19v98q0 100 -62 153t-170 53q-217 0 -255 -134h-174q17 129 133 208t302 79q184 0 291 -95t107 -264v-738h-164v159h-16q-52 -86 -138 -132t-194 -46zM512 132q114 0 202 77t88 193
v99l-290 -19q-122 -8 -179 -51t-57 -125t61 -128t175 -46z" />
    <glyph glyph-name="Abreve" unicode="&#x102;" horiz-adv-x="1380" 
d="M326 1873h154q0 -79 56 -126t154 -47t154 47t56 126h154q0 -135 -98 -217t-266 -81q-168 -1 -266 81t-98 217zM682 1210l-226 -644h468l-226 644h-16zM1122 0l-145 413h-574l-145 -413h-189l532 1443h178l532 -1443h-189z" />
    <glyph glyph-name="abreve" unicode="&#x103;" horiz-adv-x="1130" 
d="M198 1556h154q0 -88 56 -144t154 -56t154 56t56 144h154q0 -144 -98 -236t-266 -92t-266 92t-98 236zM462 -19q-160 -1 -262 87t-102 233t102 227t291 93l311 19v98q0 100 -62 153t-170 53q-217 0 -255 -134h-174q17 129 133 208t302 79q184 0 291 -95t107 -264v-738
h-164v159h-16q-52 -86 -138 -132t-194 -46zM512 132q114 0 202 77t88 193v99l-290 -19q-122 -8 -179 -51t-57 -125t61 -128t175 -46z" />
    <glyph glyph-name="Aogonek" unicode="&#x104;" horiz-adv-x="1380" 
d="M1116 -184q0 -52 33 -78t77 -26t68 6v-134q-46 -16 -104 -16q-109 0 -176 58t-67 138q0 78 48 141t125 103l-143 405h-574l-145 -413h-189l532 1443h178l532 -1443q-195 -89 -195 -184zM682 1210l-226 -644h468l-226 644h-16z" />
    <glyph glyph-name="aogonek" unicode="&#x105;" horiz-adv-x="1130" 
d="M788 -190q0 -42 32 -70t78 -28t68 6v-134q-45 -16 -104 -16q-106 0 -174 58t-69 142q0 86 54 150t137 94v147h-16q-52 -86 -138 -132t-194 -46q-162 0 -263 89t-101 232q0 144 102 226t291 93l311 19v98q0 102 -62 154t-172 52q-216 0 -253 -134h-174q17 129 133 208
t300 79q184 -1 292 -95t108 -264v-738q-186 -78 -186 -190zM511 132q115 0 203 77t88 193v99l-290 -19q-236 -14 -236 -174q0 -80 60 -128t175 -48z" />
    <glyph glyph-name="Cacute" unicode="&#x106;" horiz-adv-x="1466" 
d="M658 1577l310 298h226l-332 -298h-204zM765 -34q-293 0 -465 203t-172 552t171 553t465 203q228 0 390 -130t194 -339h-183q-36 140 -144 222t-257 81q-208 0 -330 -159t-121 -431q0 -273 122 -431t330 -158q151 0 259 72t141 198h183q-36 -200 -194 -318t-389 -118z" />
    <glyph glyph-name="cacute" unicode="&#x107;" horiz-adv-x="1146" 
d="M486 1263l252 338h220l-278 -338h-194zM602 942q-144 0 -230 -108t-86 -292t86 -296q86 -110 230 -110q110 0 182 49t96 140h174q-24 -153 -143 -249t-308 -95q-227 1 -361 153t-134 406t134 406q134 151 360 151q188 0 308 -99t144 -250h-174q-22 86 -94 140t-184 54z
" />
    <glyph glyph-name="Ccircumflex" unicode="&#x108;" horiz-adv-x="1466" 
d="M846 1875l300 -298h-202l-172 177h-16l-172 -177h-202l300 298h164zM765 -34q-293 0 -465 203t-172 552t171 553t465 203q228 0 390 -130t194 -339h-183q-36 140 -144 222t-257 81q-208 0 -330 -159t-121 -431q0 -273 122 -431t330 -158q151 0 259 72t141 198h183
q-36 -200 -194 -318t-389 -118z" />
    <glyph glyph-name="ccircumflex" unicode="&#x109;" horiz-adv-x="1146" 
d="M701 1568l282 -340h-198l-177 227h-16l-177 -227h-198l282 340h202zM602 942q-144 0 -230 -108t-86 -292t86 -296q86 -110 230 -110q110 0 182 49t96 140h174q-24 -153 -143 -249t-308 -95q-227 1 -361 153t-134 406t134 406q134 151 360 151q188 0 308 -99t144 -250
h-174q-22 86 -94 140t-184 54z" />
    <glyph glyph-name="Cdotaccent" unicode="&#x10a;" horiz-adv-x="1466" 
d="M764 1577q-50 -1 -86 35t-35 86q-1 50 35 86t86 35q50 1 86 -35t35 -86q1 -50 -35 -86t-86 -35zM765 -34q-293 0 -465 203t-172 552t171 553t465 203q228 0 390 -130t194 -339h-183q-36 140 -144 222t-257 81q-208 0 -330 -159t-121 -431q0 -273 122 -431t330 -158
q151 0 259 72t141 198h183q-36 -200 -194 -318t-389 -118z" />
    <glyph glyph-name="cdotaccent" unicode="&#x10b;" horiz-adv-x="1146" 
d="M600 1287q-52 -1 -90 37t-38 90t38 90t90 38t90 -38t38 -90t-38 -90t-90 -37zM602 942q-144 0 -230 -108t-86 -292t86 -296q86 -110 230 -110q110 0 182 49t96 140h174q-24 -153 -143 -249t-308 -95q-227 1 -361 153t-134 406t134 406q134 151 360 151q188 0 308 -99
t144 -250h-174q-22 86 -94 140t-184 54z" />
    <glyph glyph-name="Ccaron" unicode="&#x10c;" horiz-adv-x="1466" 
d="M846 1577h-164l-300 298h202l172 -177h16l172 177h202zM765 -34q-293 0 -465 203t-172 552t171 553t465 203q228 0 390 -130t194 -339h-183q-36 140 -144 222t-257 81q-208 0 -330 -159t-121 -431q0 -273 122 -431t330 -158q151 0 259 72t141 198h183q-36 -200 -194 -318
t-389 -118z" />
    <glyph glyph-name="ccaron" unicode="&#x10d;" horiz-adv-x="1146" 
d="M701 1228h-202l-282 340h198l177 -227h16l177 227h198zM602 942q-144 0 -230 -108t-86 -292t86 -296q86 -110 230 -110q110 0 182 49t96 140h174q-24 -153 -143 -249t-308 -95q-227 1 -361 153t-134 406t134 406q134 151 360 151q188 0 308 -99t144 -250h-174
q-22 86 -94 140t-184 54z" />
    <glyph glyph-name="Dcaron" unicode="&#x10e;" horiz-adv-x="1487" 
d="M676 1575h-164l-300 298h202l172 -177h16l172 177h202zM364 1281v-1119h303q241 0 375 147t134 411t-134 413q-134 148 -375 148h-303zM184 1443h495q321 -1 501 -191t180 -530t-180 -532q-180 -190 -501 -190h-495v1443z" />
    <glyph glyph-name="dcaron" unicode="&#x10f;" horiz-adv-x="1387" 
d="M600 942q-146 0 -230 -108t-84 -296t84 -295t230 -107q148 0 233 108t85 294t-86 295t-232 109zM561 -19q-207 0 -330 152q-123 151 -123 405t124 406t329 153q113 -1 203 -51t135 -138h15v598h172v-1506h-164v172h-16q-51 -90 -142 -140t-203 -51zM1237 1506h170
l-50 -488h-120v488z" />
    <glyph glyph-name="Dcroat" unicode="&#x110;" horiz-adv-x="1492" 
d="M189 1443h495q321 -1 501 -191t180 -530q1 -340 -179 -532q-180 -190 -502 -190h-495v663h-163v163h163v617zM369 162h303q241 0 375 147t134 411q-1 264 -135 413q-134 148 -374 148h-303v-455h243v-163h-243v-501z" />
    <glyph glyph-name="dcroat" unicode="&#x111;" horiz-adv-x="1258" 
d="M1230 1401v-124h-144v-1277h-164v172h-16q-51 -90 -142 -140t-203 -51q-207 0 -330 152q-123 151 -123 405t124 406t329 153q113 -1 203 -51t135 -138h15v369h-260v124h260v105h172v-105h144zM600 136q148 0 233 108t85 294t-86 295t-232 109t-230 -108t-84 -296t84 -295
q82 -107 230 -107z" />
    <glyph glyph-name="Emacron" unicode="&#x112;" horiz-adv-x="1220" 
d="M968 1620h-674v136h674v-136zM1078 162v-162h-894v1443h894v-162h-714v-463h677v-160h-677v-496h714z" />
    <glyph glyph-name="emacron" unicode="&#x113;" horiz-adv-x="1170" 
d="M931 1286h-674v136h674v-136zM594 -19q-224 1 -355 151t-131 406t132 407q132 152 352 152t345 -145t125 -397v-66h-775v-8q7 -160 91 -254t220 -94q209 0 278 146h172q-38 -140 -158 -219t-296 -79zM592 945q-128 0 -212 -87q-83 -87 -93 -230h594q-3 143 -82 230
t-207 87z" />
    <glyph glyph-name="Ebreve" unicode="&#x114;" horiz-adv-x="1220" 
d="M267 1873h154q1 -79 57 -126t153 -47t153 47t57 126h154q0 -135 -98 -217t-266 -81q-168 -1 -266 81t-98 217zM1078 162v-162h-894v1443h894v-162h-714v-463h677v-160h-677v-496h714z" />
    <glyph glyph-name="ebreve" unicode="&#x115;" horiz-adv-x="1170" 
d="M228 1556h154q0 -88 56 -144t154 -56t154 56t56 144h154q0 -144 -98 -236t-266 -92t-266 92t-98 236zM594 -19q-224 1 -355 151t-131 406t132 407q132 152 352 152t345 -145t125 -397v-66h-775v-8q7 -160 91 -254t220 -94q209 0 278 146h172q-38 -140 -158 -219t-296 -79
zM592 945q-128 0 -212 -87q-83 -87 -93 -230h594q-3 143 -82 230t-207 87z" />
    <glyph glyph-name="Edotaccent" unicode="&#x116;" horiz-adv-x="1220" 
d="M631 1575q-49 -1 -85 35t-36 86t36 86t85 35q49 1 85 -35t36 -86t-36 -86t-85 -35zM1078 162v-162h-894v1443h894v-162h-714v-463h677v-160h-677v-496h714z" />
    <glyph glyph-name="edotaccent" unicode="&#x117;" horiz-adv-x="1170" 
d="M594 1287q-52 -1 -90 37t-38 90t38 90t90 38t90 -38t38 -90t-38 -90t-90 -37zM594 -19q-224 1 -355 151t-131 406t132 407q132 152 352 152t345 -145t125 -397v-66h-775v-8q7 -160 91 -254t220 -94q209 0 278 146h172q-38 -140 -158 -219t-296 -79zM592 945
q-128 0 -212 -87q-83 -87 -93 -230h594q-3 143 -82 230t-207 87z" />
    <glyph glyph-name="Eogonek" unicode="&#x118;" horiz-adv-x="1220" 
d="M824 0h-640v1443h894v-162h-714v-463h677v-160h-677v-496h714v-150l-42 -16q-80 -30 -132 -78t-52 -100q0 -54 33 -80t77 -26t68 6v-134q-46 -16 -104 -16q-109 0 -176 58t-67 136q0 147 141 222v16z" />
    <glyph glyph-name="eogonek" unicode="&#x119;" horiz-adv-x="1170" 
d="M545 -228q0 123 131 208v16q-30 -15 -82 -15q-224 1 -355 151t-131 406t132 407q132 152 352 152t345 -145t125 -397v-66h-775v-8q7 -160 91 -254t220 -94q209 0 278 146h172q-12 -51 -58 -118t-120 -127t-114 -114q-42 -54 -42 -105t33 -77t77 -26t68 6v-134
q-46 -16 -104 -16q-109 0 -176 58t-67 146zM592 945q-128 0 -212 -87q-83 -87 -93 -230h594q-3 143 -82 230t-207 87z" />
    <glyph glyph-name="Ecaron" unicode="&#x11a;" horiz-adv-x="1220" 
d="M713 1575h-164l-300 298h202l172 -177h16l172 177h202zM1078 162v-162h-894v1443h894v-162h-714v-463h677v-160h-677v-496h714z" />
    <glyph glyph-name="ecaron" unicode="&#x11b;" horiz-adv-x="1170" 
d="M695 1228h-202l-282 340h198l177 -227h16l177 227h198zM594 -19q-224 1 -355 151t-131 406t132 407q132 152 352 152t345 -145t125 -397v-66h-775v-8q7 -160 91 -254t220 -94q209 0 278 146h172q-38 -140 -158 -219t-296 -79zM592 945q-128 0 -212 -87q-83 -87 -93 -230
h594q-3 143 -82 230t-207 87z" />
    <glyph glyph-name="Gcircumflex" unicode="&#x11c;" horiz-adv-x="1529" 
d="M864 1873l300 -298h-202l-172 177h-16l-172 -177h-202l300 298h164zM1395 558q0 -268 -168 -430t-456 -162q-287 0 -465 205t-178 549t179 550t475 207q240 0 402 -125t202 -339h-183q-47 146 -154 222t-267 76q-214 0 -342 -160t-127 -431q1 -272 127 -430t332 -158
t324 113q120 113 120 296v35h-406v158h585v-176z" />
    <glyph glyph-name="gcircumflex" unicode="&#x11d;" horiz-adv-x="1248" 
d="M695 1568l282 -340h-198l-177 227h-16l-177 -227h-198l282 340h202zM620 -414q-206 0 -326 80t-140 215h182q14 -67 85 -106t201 -39t210 68q82 68 82 186v212h-16q-51 -90 -139 -138t-199 -48q-208 0 -330 148t-122 391q0 244 123 393t329 149q113 1 206 -51t140 -139
h16v171h164v-1097q0 -181 -130 -288t-336 -107zM918 554q0 178 -86 283t-234 105t-230 -104t-82 -283t82 -283t230 -104t234 104t86 282z" />
    <glyph glyph-name="Gbreve" unicode="&#x11e;" horiz-adv-x="1529" 
d="M418 1873h154q0 -79 56 -126t154 -47t154 47t56 126h154q0 -135 -98 -217t-266 -81q-168 -1 -266 81t-98 217zM1395 558q0 -268 -168 -430t-456 -162q-287 0 -465 205t-178 549t179 550t475 207q240 0 402 -125t202 -339h-183q-47 146 -154 222t-267 76q-214 0 -342 -160
t-127 -431q1 -272 127 -430t332 -158t324 113q120 113 120 296v35h-406v158h585v-176z" />
    <glyph glyph-name="gbreve" unicode="&#x11f;" horiz-adv-x="1248" 
d="M228 1556h154q0 -88 56 -144t154 -56t154 56t56 144h154q0 -144 -98 -236t-266 -92t-266 92t-98 236zM620 -414q-206 0 -326 80t-140 215h182q14 -67 85 -106t201 -39t210 68q82 68 82 186v212h-16q-51 -90 -139 -138t-199 -48q-208 0 -330 148t-122 391q0 244 123 393
t329 149q113 1 206 -51t140 -139h16v171h164v-1097q0 -181 -130 -288t-336 -107zM918 554q0 178 -86 283t-234 105t-230 -104t-82 -283t82 -283t230 -104t234 104t86 282z" />
    <glyph glyph-name="Gdotaccent" unicode="&#x120;" horiz-adv-x="1529" 
d="M782 1575q-50 -1 -86 35t-35 86q-1 50 35 86t86 35q50 1 86 -35t35 -86q1 -50 -35 -86t-86 -35zM1395 558q0 -268 -168 -430t-456 -162q-287 0 -465 205t-178 549t179 550t475 207q240 0 402 -125t202 -339h-183q-47 146 -154 222t-267 76q-214 0 -342 -160t-127 -431
q1 -272 127 -430t332 -158t324 113q120 113 120 296v35h-406v158h585v-176z" />
    <glyph glyph-name="gdotaccent" unicode="&#x121;" horiz-adv-x="1248" 
d="M594 1287q-52 -1 -90 37t-38 90t38 90t90 38t90 -38t38 -90t-38 -90t-90 -37zM620 -414q-206 0 -326 80t-140 215h182q14 -67 85 -106t201 -39t210 68q82 68 82 186v212h-16q-51 -90 -139 -138t-199 -48q-208 0 -330 148t-122 391q0 244 123 393t329 149q113 1 206 -51
t140 -139h16v171h164v-1097q0 -181 -130 -288t-336 -107zM918 554q0 178 -86 283t-234 105t-230 -104t-82 -283t82 -283t230 -104t234 104t86 282z" />
    <glyph glyph-name="Gcommaaccent" unicode="&#x122;" horiz-adv-x="1529" 
d="M785 -518h-167l102 377h182zM1395 558q0 -268 -168 -430t-456 -162q-287 0 -465 205t-178 549t179 550t475 207q240 0 402 -125t202 -339h-183q-47 146 -154 222t-267 76q-214 0 -342 -160t-127 -431q1 -272 127 -430t332 -158t324 113q120 113 120 296v35h-406v158h585
v-176z" />
    <glyph glyph-name="gcommaaccent" unicode="&#x123;" horiz-adv-x="1248" 
d="M604 1663h167l-102 -377h-182zM620 -414q-206 0 -326 80t-140 215h182q14 -67 85 -106t201 -39t210 68q82 68 82 186v212h-16q-51 -90 -139 -138t-199 -48q-208 0 -330 148t-122 391q0 244 123 393t329 149q113 1 206 -51t140 -139h16v171h164v-1097q0 -181 -130 -288
t-336 -107zM918 554q0 178 -86 283t-234 105t-230 -104t-82 -283t82 -283t230 -104t234 104t86 282z" />
    <glyph glyph-name="Hcircumflex" unicode="&#x124;" horiz-adv-x="1520" 
d="M842 1873l300 -298h-202l-172 177h-16l-172 -177h-202l300 298h164zM1336 0h-180v657h-792v-657h-180v1443h180v-624h792v624h180v-1443z" />
    <glyph glyph-name="hcircumflex" unicode="&#x125;" horiz-adv-x="1216" 
d="M340 1936l300 -298h-202l-172 177h-16l-172 -177h-202l300 298h164zM692 1097q172 1 272 -105t100 -294v-698h-172v656q0 286 -249 286q-143 0 -221 -82t-78 -222v-638h-172v1506h172v-598h16q85 189 332 189z" />
    <glyph glyph-name="Hbar" unicode="&#x126;" horiz-adv-x="1520" 
d="M1472 1218v-143h-136v-1075h-180v657h-792v-657h-180v1075h-136v143h136v225h180v-225h792v225h180v-225h136zM1156 819v256h-792v-256h792z" />
    <glyph glyph-name="hbar" unicode="&#x127;" horiz-adv-x="1216" 
d="M692 1097q172 1 272 -105t100 -294v-698h-172v656q0 286 -249 286q-143 0 -221 -82t-78 -222v-638h-172v1277h-144v124h144v105h172v-105h260v-124h-260v-369h16q85 189 332 189z" />
    <glyph glyph-name="Itilde" unicode="&#x128;" horiz-adv-x="548" 
d="M130 1743q-47 -1 -70 -35t-26 -116h-136q0 133 60 207t159 74q99 1 163 -59q26 -24 48 -50q55 -59 92 -59q87 0 95 151h135q0 -128 -62 -204t-155 -77q-94 -1 -154 59q-25 24 -47 50q-54 60 -102 59zM364 0h-180v1443h180v-1443z" />
    <glyph glyph-name="itilde" unicode="&#x129;" horiz-adv-x="504" 
d="M16 1231h-142q0 135 62 213t158 78q97 0 159 -55q26 -23 48 -47q52 -56 97 -55q90 0 90 157h142q0 -136 -62 -214t-158 -77q-97 -1 -159 55q-26 24 -48 47q-53 55 -97 55q-90 0 -90 -157zM166 0v1078h172v-1078h-172z" />
    <glyph glyph-name="Imacron" unicode="&#x12a;" horiz-adv-x="548" 
d="M611 1620h-674v136h674v-136zM364 0h-180v1443h180v-1443z" />
    <glyph glyph-name="imacron" unicode="&#x12b;" horiz-adv-x="504" 
d="M589 1286h-674v136h674v-136zM166 0v1078h172v-1078h-172z" />
    <glyph glyph-name="Ibreve" unicode="&#x12c;" horiz-adv-x="548" 
d="M-90 1873h154q0 -79 56 -126t154 -47t154 47t56 126h154q0 -135 -98 -217t-266 -81q-168 -1 -266 81t-98 217zM364 0h-180v1443h180v-1443z" />
    <glyph glyph-name="ibreve" unicode="&#x12d;" horiz-adv-x="504" 
d="M-114 1556h154q0 -88 56 -144t154 -56t154 56t56 144h154q0 -144 -98 -236t-266 -92t-266 92t-98 236zM166 0v1078h172v-1078h-172z" />
    <glyph glyph-name="Iogonek" unicode="&#x12e;" horiz-adv-x="548" 
d="M43 -228q0 143 141 228v1443h180v-1443q-152 -91 -152 -190q0 -42 32 -70t78 -28t68 6v-134q-45 -16 -104 -16q-106 0 -174 58t-69 146z" />
    <glyph glyph-name="iogonek" unicode="&#x12f;" horiz-adv-x="504" 
d="M186 -190q0 -46 33 -72t77 -26t68 6v-134q-46 -16 -104 -16q-109 0 -176 58t-67 146q0 144 149 232v1074h172v-1078q-152 -91 -152 -190zM252 1297q-50 -1 -85 35t-35 85t35 85t85 35q50 1 85 -35t35 -85t-35 -85t-85 -35z" />
    <glyph glyph-name="Idotaccent" unicode="&#x130;" horiz-adv-x="548" 
d="M274 1575q-50 -1 -86 35t-35 86q-1 50 35 86t86 35q50 1 86 -35t35 -86q1 -50 -35 -86t-86 -35zM364 0h-180v1443h180v-1443z" />
    <glyph glyph-name="dotlessi" unicode="&#x131;" horiz-adv-x="504" 
d="M166 0v1078h172v-1078h-172z" />
    <glyph glyph-name="u0132" unicode="&#x132;" horiz-adv-x="1650" 
d="M634 337h179q3 -91 67 -148t172 -57t172 70q62 70 62 201v1040h180v-1041q0 -206 -112 -321t-301 -115t-304 103t-115 268zM364 0h-180v1443h180v-1443z" />
    <glyph glyph-name="u0133" unicode="&#x133;" horiz-adv-x="1032" 
d="M768 1297q-50 -1 -85 35t-35 85t35 85t85 35q50 1 85 -35t35 -85t-35 -85t-85 -35zM854 1078v-1131q0 -165 -80 -241t-250 -76h-30v147h26q90 0 126 38t36 129v1134h172zM252 1297q-50 -1 -85 35t-35 85t35 85t85 35q50 1 85 -35t35 -85t-35 -85t-85 -35zM166 0v1078h172
v-1078h-172z" />
    <glyph glyph-name="Jcircumflex" unicode="&#x134;" horiz-adv-x="1102" 
d="M910 1873l300 -298h-202l-172 177h-16l-172 -177h-202l300 298h164zM86 337h179q3 -91 67 -148t172 -57t172 70q62 70 62 201v1040h180v-1041q0 -206 -112 -321t-301 -115t-304 103t-115 268z" />
    <glyph glyph-name="jcircumflex" unicode="&#x135;" horiz-adv-x="504" 
d="M355 1568l282 -340h-198l-177 227h-16l-177 -227h-198l282 340h202zM332 1078v-1131q0 -165 -80 -241t-250 -76h-30v147h26q90 0 126 38t36 129v1134h172z" />
    <glyph glyph-name="Kcommaaccent" unicode="&#x136;" horiz-adv-x="1349" 
d="M656 -518h-167l102 377h182zM364 0h-180v1443h180v-701h16l632 701h226l-577 -623l630 -820h-233l-521 695l-173 -191v-504z" />
    <glyph glyph-name="kcommaaccent" unicode="&#x137;" horiz-adv-x="1112" 
d="M606 -518h-167l102 377h182zM344 0h-172v1506h172v-899h16l468 471h211l-464 -462l495 -616h-219l-404 505l-103 -96v-409z" />
    <glyph glyph-name="Lacute" unicode="&#x139;" horiz-adv-x="1163" 
d="M168 1575l310 298h226l-332 -298h-204zM1060 162v-162h-876v1443h180v-1281h696z" />
    <glyph glyph-name="lacute" unicode="&#x13a;" horiz-adv-x="516" 
d="M152 1638l310 298h226l-332 -298h-204zM172 0v1506h172v-1506h-172z" />
    <glyph glyph-name="Lcommaaccent" unicode="&#x13b;" horiz-adv-x="1163" 
d="M625 -518h-167l102 377h182zM1060 162v-162h-876v1443h180v-1281h696z" />
    <glyph glyph-name="lcommaaccent" unicode="&#x13c;" horiz-adv-x="516" 
d="M261 -518h-167l102 377h182zM172 0v1506h172v-1506h-172z" />
    <glyph glyph-name="Lcaron" unicode="&#x13d;" horiz-adv-x="1163" 
d="M1060 162v-162h-876v1443h180v-1281h696zM589 1443h170l-50 -488h-120v488z" />
    <glyph glyph-name="lcaron" unicode="&#x13e;" horiz-adv-x="645" 
d="M172 0v1506h172v-1506h-172zM495 1506h170l-50 -488h-120v488z" />
    <glyph glyph-name="Lslash" unicode="&#x141;" horiz-adv-x="1163" 
d="M364 162h696v-162h-876v719l-166 -76v143l166 76v581h180v-499l292 133v-143l-292 -133v-639z" />
    <glyph glyph-name="lslash" unicode="&#x142;" horiz-adv-x="516" 
d="M344 0h-172v707l-128 -61v143l128 61v656h172v-573l128 61v-143l-128 -61v-790z" />
    <glyph glyph-name="Nacute" unicode="&#x143;" horiz-adv-x="1520" 
d="M654 1575l310 298h226l-332 -298h-204zM362 0h-178v1443h175l783 -1123h16v1123h178v-1443h-175l-783 1119h-16v-1119z" />
    <glyph glyph-name="nacute" unicode="&#x144;" horiz-adv-x="1195" 
d="M489 1263l252 338h220l-278 -338h-194zM162 0v1078h164v-170h16q86 189 324 189q181 1 279 -103t98 -296v-698h-172v656q-1 146 -63 216t-192 70t-206 -82t-76 -222v-638h-172z" />
    <glyph glyph-name="Ncommaaccent" unicode="&#x145;" horiz-adv-x="1520" 
d="M763 -518h-167l102 377h182zM362 0h-178v1443h175l783 -1123h16v1123h178v-1443h-175l-783 1119h-16v-1119z" />
    <glyph glyph-name="ncommaaccent" unicode="&#x146;" horiz-adv-x="1195" 
d="M606 -518h-167l102 377h182zM162 0v1078h164v-170h16q86 189 324 189q181 1 279 -103t98 -296v-698h-172v656q-1 146 -63 216t-192 70t-206 -82t-76 -222v-638h-172z" />
    <glyph glyph-name="Ncaron" unicode="&#x147;" horiz-adv-x="1520" 
d="M842 1575h-164l-300 298h202l172 -177h16l172 177h202zM362 0h-178v1443h175l783 -1123h16v1123h178v-1443h-175l-783 1119h-16v-1119z" />
    <glyph glyph-name="ncaron" unicode="&#x148;" horiz-adv-x="1195" 
d="M704 1228h-202l-282 340h198l177 -227h16l177 227h198zM162 0v1078h164v-170h16q86 189 324 189q181 1 279 -103t98 -296v-698h-172v656q-1 146 -63 216t-192 70t-206 -82t-76 -222v-638h-172z" />
    <glyph glyph-name="Omacron" unicode="&#x14c;" horiz-adv-x="1579" 
d="M1128 1620h-674v136h674v-136zM792 1311q-220 0 -350 -159q-129 -159 -129 -430q-1 -270 127 -430t350 -160t349 160t127 431t-127 429t-347 159zM792 1477q306 1 482 -203t177 -552q-1 -348 -177 -552t-484 -204t-485 204t-177 552t178 552q180 204 486 203z" />
    <glyph glyph-name="omacron" unicode="&#x14d;" horiz-adv-x="1210" 
d="M942 1286h-674v136h674v-136zM605 -19q-229 -1 -363 149t-134 410t133 408q133 149 364 149t364 -149q133 -148 133 -408t-134 -410t-363 -149zM605 136q153 0 236 106t83 297t-83 297t-236 106t-236 -106t-83 -297t83 -297t236 -106z" />
    <glyph glyph-name="Obreve" unicode="&#x14e;" horiz-adv-x="1579" 
d="M427 1873h154q1 -79 57 -126t153 -47t153 47t57 126h154q0 -135 -98 -217t-266 -81q-168 -1 -266 81t-98 217zM792 1311q-220 0 -350 -159q-129 -159 -129 -430q-1 -270 127 -430t350 -160t349 160t127 431t-127 429t-347 159zM792 1477q306 1 482 -203t177 -552
q-1 -348 -177 -552t-484 -204t-485 204t-177 552t178 552q180 204 486 203z" />
    <glyph glyph-name="obreve" unicode="&#x14f;" horiz-adv-x="1210" 
d="M239 1556h154q-1 -88 55 -144t155 -56t155 56t55 144h154q0 -144 -98 -236t-266 -92t-266 92t-98 236zM605 -19q-229 -1 -363 149t-134 410t133 408q133 149 364 149t364 -149q133 -148 133 -408t-134 -410t-363 -149zM605 136q153 0 236 106t83 297t-83 297t-236 106
t-236 -106t-83 -297t83 -297t236 -106z" />
    <glyph glyph-name="Ohungarumlaut" unicode="&#x150;" horiz-adv-x="1579" 
d="M427 1575l310 298h226l-332 -298h-204zM841 1575l310 298h226l-332 -298h-204zM792 1311q-220 0 -350 -159q-129 -159 -129 -430q-1 -270 127 -430t350 -160t349 160t127 431t-127 429t-347 159zM792 1477q306 1 482 -203t177 -552q-1 -348 -177 -552t-484 -204t-485 204
t-177 552t178 552q180 204 486 203z" />
    <glyph glyph-name="ohungarumlaut" unicode="&#x151;" horiz-adv-x="1210" 
d="M270 1263l252 338h210l-280 -338h-182zM670 1263l252 338h210l-280 -338h-182zM605 -19q-229 -1 -363 149t-134 410t133 408q133 149 364 149t364 -149q133 -148 133 -408t-134 -410t-363 -149zM605 136q153 0 236 106t83 297t-83 297t-236 106t-236 -106t-83 -297
t83 -297t236 -106z" />
    <glyph glyph-name="OE" unicode="&#x152;" horiz-adv-x="2325" 
d="M1289 0v247h-16q-65 -125 -201 -203t-291 -78q-301 0 -477 204t-176 551q0 348 176 552t477 204q153 0 289 -75t203 -196h16v237h894v-162h-732v-463h695v-160h-695v-496h732v-162h-894zM797 1311q-222 0 -353 -158t-131 -432q1 -273 131 -431t352 -158t347 158t125 432
t-124 432t-347 157z" />
    <glyph glyph-name="oe" unicode="&#x153;" horiz-adv-x="1987" 
d="M605 136q151 0 235 106t84 298t-84 297t-235 105t-235 -105t-84 -297t84 -298t235 -106zM1409 946q-127 0 -211 -86t-94 -231h594q-3 143 -82 230t-207 87zM1432 -19q-154 1 -262 63t-149 165h-16q-41 -103 -151 -165t-249 -63q-231 -1 -364 149t-133 409t133 409
t364 149q135 1 241 -61t160 -171h16q54 109 157 171t232 61q218 -1 343 -145t125 -396v-66h-775v-8q6 -160 90 -254t221 -94q210 0 278 145h172q-39 -140 -159 -219t-274 -79z" />
    <glyph glyph-name="Racute" unicode="&#x154;" horiz-adv-x="1338" 
d="M503 1575l310 298h226l-332 -298h-204zM364 571v-571h-180v1443h551q209 1 335 -117t125 -313q0 -151 -77 -261t-213 -153l334 -599h-211l-309 571h-355zM364 1283v-552h355q139 -1 215 71t75 204q0 132 -79 204q-79 73 -219 73h-347z" />
    <glyph glyph-name="racute" unicode="&#x155;" horiz-adv-x="765" 
d="M264 1263l252 338h220l-278 -338h-194zM162 0v1078h164v-160h16q24 79 108 129t191 50q49 0 86 -5v-172q-35 10 -110 10q-123 0 -203 -74t-80 -188v-668h-172z" />
    <glyph glyph-name="Rcommaaccent" unicode="&#x156;" horiz-adv-x="1338" 
d="M612 -518h-167l102 377h182zM364 571v-571h-180v1443h551q209 1 335 -117t125 -313q0 -151 -77 -261t-213 -153l334 -599h-211l-309 571h-355zM364 1283v-552h355q139 -1 215 71t75 204q0 132 -79 204q-79 73 -219 73h-347z" />
    <glyph glyph-name="rcommaaccent" unicode="&#x157;" horiz-adv-x="765" 
d="M251 -518h-167l102 377h182zM162 0v1078h164v-160h16q24 79 108 129t191 50q49 0 86 -5v-172q-35 10 -110 10q-123 0 -203 -74t-80 -188v-668h-172z" />
    <glyph glyph-name="Rcaron" unicode="&#x158;" horiz-adv-x="1338" 
d="M691 1575h-164l-300 298h202l172 -177h16l172 177h202zM364 571v-571h-180v1443h551q209 1 335 -117t125 -313q0 -151 -77 -261t-213 -153l334 -599h-211l-309 571h-355zM364 1283v-552h355q139 -1 215 71t75 204q0 132 -79 204q-79 73 -219 73h-347z" />
    <glyph glyph-name="rcaron" unicode="&#x159;" horiz-adv-x="765" 
d="M479 1228h-202l-282 340h198l177 -227h16l177 227h198zM162 0v1078h164v-160h16q24 79 108 129t191 50q49 0 86 -5v-172q-35 10 -110 10q-123 0 -203 -74t-80 -188v-668h-172z" />
    <glyph glyph-name="Sacute" unicode="&#x15a;" horiz-adv-x="1305" 
d="M561 1575l310 298h226l-332 -298h-204zM664 130q150 0 246 70t95 170q0 100 -70 160t-219 99l-185 48q-196 49 -285 142t-89 262q1 169 141 283t359 113q219 0 360 -112t152 -287h-181q-20 112 -106 174t-226 62t-226 -66q-88 -66 -88 -164q0 -97 64 -150t214 -91
l151 -40q223 -56 321 -150t98 -253q0 -198 -146 -316t-384 -118t-384 112t-161 299h182q17 -113 117 -180t250 -67z" />
    <glyph glyph-name="sacute" unicode="&#x15b;" horiz-adv-x="1072" 
d="M425 1263l252 338h220l-278 -338h-194zM137 792q0 125 115 215q116 90 286 90t280 -78t127 -211h-170q-17 66 -79 104t-158 39q-96 0 -162 -45t-66 -108q0 -64 46 -100t141 -59l166 -40q153 -37 227 -107t74 -185q0 -143 -123 -235t-306 -91q-183 0 -298 80t-129 214h177
q22 -69 87 -109t170 -40t175 47t70 121q0 110 -171 152l-185 45q-153 37 -223 107t-71 194z" />
    <glyph glyph-name="Scircumflex" unicode="&#x15c;" horiz-adv-x="1305" 
d="M749 1873l300 -298h-202l-172 177h-16l-172 -177h-202l300 298h164zM664 130q150 0 246 70t95 170q0 100 -70 160t-219 99l-185 48q-196 49 -285 142t-89 262q1 169 141 283t359 113q219 0 360 -112t152 -287h-181q-20 112 -106 174t-226 62t-226 -66q-88 -66 -88 -164
q0 -97 64 -150t214 -91l151 -40q223 -56 321 -150t98 -253q0 -198 -146 -316t-384 -118t-384 112t-161 299h182q17 -113 117 -180t250 -67z" />
    <glyph glyph-name="scircumflex" unicode="&#x15d;" horiz-adv-x="1072" 
d="M640 1568l282 -340h-198l-177 227h-16l-177 -227h-198l282 340h202zM137 792q0 125 115 215q116 90 286 90t280 -78t127 -211h-170q-17 66 -79 104t-158 39q-96 0 -162 -45t-66 -108q0 -64 46 -100t141 -59l166 -40q153 -37 227 -107t74 -185q0 -143 -123 -235t-306 -91
q-183 0 -298 80t-129 214h177q22 -69 87 -109t170 -40t175 47t70 121q0 110 -171 152l-185 45q-153 37 -223 107t-71 194z" />
    <glyph glyph-name="Scedilla" unicode="&#x15e;" horiz-adv-x="1305" 
d="M1190 388q0 -170 -126 -286t-341 -133l-43 -111q102 0 158 -43t57 -124t-65 -133t-165 -52t-160 18v108q48 -14 122 -14q119 0 119 73q0 35 -35 50t-114 15h-59v84l51 128q-205 16 -333 126t-141 283h182q17 -113 117 -180t250 -67t246 70t95 170q0 100 -70 160t-219 99
l-185 48q-196 49 -285 142t-89 262q1 169 141 283t359 113q219 0 360 -112t152 -287h-181q-20 112 -106 174t-226 62t-226 -66q-88 -66 -88 -164q0 -97 64 -150t214 -91l151 -40q223 -56 321 -150t98 -265z" />
    <glyph glyph-name="scedilla" unicode="&#x15f;" horiz-adv-x="1072" 
d="M964 301q0 -121 -98 -209t-256 -106l-49 -128q103 0 159 -43t56 -124t-66 -133t-164 -52t-160 18v108q48 -14 122 -14q119 0 119 73q0 35 -35 50t-114 15h-59v84l56 143q-157 13 -255 91t-112 201h177q22 -69 87 -109t170 -40t175 47t70 121q0 110 -171 152l-185 45
q-153 37 -223 107t-71 194q0 125 115 215q116 90 286 90t280 -78t127 -211h-170q-17 66 -79 104t-158 39q-96 0 -162 -45t-66 -108q0 -64 46 -100t141 -59l166 -40q153 -37 227 -107t74 -191z" />
    <glyph glyph-name="Scaron" unicode="&#x160;" horiz-adv-x="1305" 
d="M749 1575h-164l-300 298h202l172 -177h16l172 177h202zM664 130q150 0 246 70t95 170q0 100 -70 160t-219 99l-185 48q-196 49 -285 142t-89 262q1 169 141 283t359 113q219 0 360 -112t152 -287h-181q-20 112 -106 174t-226 62t-226 -66q-88 -66 -88 -164q0 -97 64 -150
t214 -91l151 -40q223 -56 321 -150t98 -253q0 -198 -146 -316t-384 -118t-384 112t-161 299h182q17 -113 117 -180t250 -67z" />
    <glyph glyph-name="scaron" unicode="&#x161;" horiz-adv-x="1072" 
d="M640 1228h-202l-282 340h198l177 -227h16l177 227h198zM137 792q0 125 115 215q116 90 286 90t280 -78t127 -211h-170q-17 66 -79 104t-158 39q-96 0 -162 -45t-66 -108q0 -64 46 -100t141 -59l166 -40q153 -37 227 -107t74 -185q0 -143 -123 -235t-306 -91
q-183 0 -298 80t-129 214h177q22 -69 87 -109t170 -40t175 47t70 121q0 110 -171 152l-185 45q-153 37 -223 107t-71 194z" />
    <glyph glyph-name="Tcedilla" unicode="&#x162;" horiz-adv-x="1298" 
d="M739 1281v-1281l-55 -142q102 0 158 -43t57 -124t-65 -133t-165 -52t-160 18v108q48 -14 122 -14q119 0 119 73q0 35 -35 50t-114 15h-59v84l63 160h-46v1281h-465v162h1110v-162h-465z" />
    <glyph glyph-name="tcedilla" unicode="&#x163;" horiz-adv-x="744" 
d="M234 280v654h-174v144h174v279h172v-279h240v-144h-240v-610q0 -95 38 -138t122 -43q35 0 78 4v-145q-58 -10 -88 -10t-64 2l-52 -136q102 0 158 -43t57 -124t-65 -133t-165 -52t-160 18v108q48 -14 122 -14q119 0 119 73q0 35 -35 50t-114 15h-59v84l70 180
q-134 56 -134 260z" />
    <glyph glyph-name="Tcaron" unicode="&#x164;" horiz-adv-x="1298" 
d="M731 1575h-164l-300 298h202l172 -177h16l172 177h202zM739 0h-180v1281h-465v162h1110v-162h-465v-1281z" />
    <glyph glyph-name="tcaron" unicode="&#x165;" horiz-adv-x="744" 
d="M234 1357h172v-279h240v-144h-240v-610q0 -95 38 -138t122 -43q37 0 80 4v-145q-57 -10 -101 -10q-167 0 -239 67t-72 221v654h-174v144h174v279zM539 1232v488h170l-50 -488h-120z" />
    <glyph glyph-name="Tbar" unicode="&#x166;" horiz-adv-x="1298" 
d="M1204 1281h-465v-488h305v-143h-305v-650h-180v650h-305v143h305v488h-465v162h1110v-162z" />
    <glyph glyph-name="tbar" unicode="&#x167;" horiz-adv-x="739" 
d="M655 495h-249v-171q0 -95 38 -138t122 -43q37 0 80 4v-145q-57 -10 -101 -10q-167 0 -239 67t-72 221v215h-178v144h178v295h-174v144h174v279h172v-279h240v-144h-240v-295h249v-144z" />
    <glyph glyph-name="Utilde" unicode="&#x168;" horiz-adv-x="1524" 
d="M386 1592q0 133 60 207t159 74q99 1 163 -59q26 -24 48 -50q55 -59 92 -59q87 0 95 151h135q0 -128 -62 -204t-155 -77q-94 -1 -154 59q-25 24 -47 50q-55 60 -102 59t-70 -35t-26 -116h-136zM369 1443v-935q1 -168 105 -272t288 -104t288 104t105 272v935h180v-947
q-1 -234 -155 -382t-418 -148t-418 148t-155 382v947h180z" />
    <glyph glyph-name="utilde" unicode="&#x169;" horiz-adv-x="1196" 
d="M357 1231h-142q-1 135 61 213t159 78t159 -55q26 -23 48 -47q52 -55 97 -55q90 0 90 157h142q1 -136 -61 -214t-159 -77q-97 -1 -159 55q-26 24 -48 47q-53 55 -97 55q-90 0 -90 -157zM520 -19q-180 0 -274 103t-94 296v698h172v-656q0 -148 58 -216t192 -68t212 80
q76 80 76 222v638h172v-1078h-164v169h-16q-85 -188 -334 -188z" />
    <glyph glyph-name="Umacron" unicode="&#x16a;" horiz-adv-x="1524" 
d="M1099 1620h-674v136h674v-136zM369 1443v-935q1 -168 105 -272t288 -104t288 104t105 272v935h180v-947q-1 -234 -155 -382t-418 -148t-418 148t-155 382v947h180z" />
    <glyph glyph-name="umacron" unicode="&#x16b;" horiz-adv-x="1196" 
d="M930 1286h-674v136h674v-136zM520 -19q-180 0 -274 103t-94 296v698h172v-656q0 -148 58 -216t192 -68t212 80q76 80 76 222v638h172v-1078h-164v169h-16q-85 -188 -334 -188z" />
    <glyph glyph-name="Ubreve" unicode="&#x16c;" horiz-adv-x="1524" 
d="M398 1873h154q0 -79 56 -126t154 -47t154 47t56 126h154q0 -135 -98 -217t-266 -81q-168 -1 -266 81t-98 217zM369 1443v-935q1 -168 105 -272t288 -104t288 104t105 272v935h180v-947q-1 -234 -155 -382t-418 -148t-418 148t-155 382v947h180z" />
    <glyph glyph-name="ubreve" unicode="&#x16d;" horiz-adv-x="1196" 
d="M227 1556h154q-1 -88 55 -144t155 -56t155 56t55 144h154q0 -144 -98 -236t-266 -92t-266 92t-98 236zM520 -19q-180 0 -274 103t-94 296v698h172v-656q0 -148 58 -216t192 -68t212 80q76 80 76 222v638h172v-1078h-164v169h-16q-85 -188 -334 -188z" />
    <glyph glyph-name="Uring" unicode="&#x16e;" horiz-adv-x="1524" 
d="M762 1643q46 0 76 30q30 29 29 75q1 46 -29 76t-76 29q-46 1 -76 -29t-29 -76q-1 -46 29 -75q30 -30 76 -30zM762 1551q-83 0 -141 57t-58 140t58 140t141 57t141 -57t58 -140t-58 -140t-141 -57zM369 1443v-935q1 -168 105 -272t288 -104t288 104t105 272v935h180v-947
q-1 -234 -155 -382t-418 -148t-418 148t-155 382v947h180z" />
    <glyph glyph-name="uring" unicode="&#x16f;" horiz-adv-x="1196" 
d="M593 1334q52 0 87 35t35 88t-35 88t-87 35t-87 -35t-35 -88t35 -88t87 -35zM593 1228q-96 0 -164 66t-68 163t68 163t164 66t164 -66t68 -163t-68 -163t-164 -66zM520 -19q-180 0 -274 103t-94 296v698h172v-656q0 -148 58 -216t192 -68t212 80q76 80 76 222v638h172
v-1078h-164v169h-16q-85 -188 -334 -188z" />
    <glyph glyph-name="Uhungarumlaut" unicode="&#x170;" horiz-adv-x="1524" 
d="M398 1575l310 298h226l-332 -298h-204zM812 1575l310 298h226l-332 -298h-204zM369 1443v-935q1 -168 105 -272t288 -104t288 104t105 272v935h180v-947q-1 -234 -155 -382t-418 -148t-418 148t-155 382v947h180z" />
    <glyph glyph-name="uhungarumlaut" unicode="&#x171;" horiz-adv-x="1196" 
d="M258 1263l252 338h210l-280 -338h-182zM658 1263l252 338h210l-280 -338h-182zM520 -19q-180 0 -274 103t-94 296v698h172v-656q0 -148 58 -216t192 -68t212 80q76 80 76 222v638h172v-1078h-164v169h-16q-85 -188 -334 -188z" />
    <glyph glyph-name="Uogonek" unicode="&#x172;" horiz-adv-x="1524" 
d="M762 -34q-259 0 -416 145t-157 385v947h180v-935q0 -172 107 -274t286 -102t286 102t107 274v935h180v-947q-1 -136 -59 -248t-192 -232t-135 -206q0 -46 33 -72t77 -26t68 6v-134q-46 -16 -104 -16q-109 0 -176 58t-67 146q0 123 131 208v16q-48 -30 -149 -30z" />
    <glyph glyph-name="uogonek" unicode="&#x173;" horiz-adv-x="1196" 
d="M848 -190q0 -42 32 -70t78 -28t68 6v-134q-45 -16 -104 -16q-106 0 -174 58t-69 142q0 86 54 150t137 94v157h-16q-85 -188 -334 -188q-180 0 -274 103t-94 296v698h172v-656q0 -148 58 -216t192 -68t212 80q76 80 76 222v638h172v-1078q-186 -78 -186 -190z" />
    <glyph glyph-name="Wcircumflex" unicode="&#x174;" horiz-adv-x="1982" 
d="M1073 1873l300 -298h-202l-172 177h-16l-172 -177h-202l300 298h164zM985 1139l-332 -1139h-170l-393 1443h188l287 -1173h12l323 1173h182l323 -1173h12l287 1173h188l-393 -1443h-170l-332 1139h-12z" />
    <glyph glyph-name="wcircumflex" unicode="&#x175;" horiz-adv-x="1586" 
d="M894 1568l282 -340h-198l-177 227h-16l-177 -227h-198l282 340h202zM1518 1078l-302 -1078h-175l-241 834h-16l-240 -834h-174l-302 1078h174l212 -862h16l241 862h165l241 -862h16l212 862h173z" />
    <glyph glyph-name="Ycircumflex" unicode="&#x176;" horiz-adv-x="1344" 
d="M754 1873l300 -298h-202l-172 177h-16l-172 -177h-202l300 298h164zM762 0h-180v621l-512 822h205l389 -641h16l389 641h205l-512 -822v-621z" />
    <glyph glyph-name="ycircumflex" unicode="&#x177;" horiz-adv-x="1112" 
d="M652 1568l282 -340h-198l-177 227h-16l-177 -227h-198l282 340h202zM254 -390q-41 0 -77 6v147q27 -5 87 -5t104 40t79 137l20 64l-399 1079h186l296 -887h16l295 887h183l-421 -1144q-69 -188 -147 -256t-222 -68z" />
    <glyph glyph-name="Ydieresis" unicode="&#x178;" horiz-adv-x="1344" 
d="M874 1575q-50 -1 -86 35t-35 86q-1 50 35 86t86 35q50 1 86 -35t35 -86q1 -50 -35 -86t-86 -35zM470 1575q-50 -1 -86 35t-35 86q-1 50 35 86t86 35q50 1 86 -35t35 -86q1 -50 -35 -86t-86 -35zM762 0h-180v621l-512 822h205l389 -641h16l389 641h205l-512 -822v-621z
" />
    <glyph glyph-name="Zacute" unicode="&#x179;" horiz-adv-x="1355" 
d="M572 1575l310 298h226l-332 -298h-204zM144 0v128l817 1137v16h-789v162h1022v-128l-813 -1137v-16h830v-162h-1067z" />
    <glyph glyph-name="zacute" unicode="&#x17a;" horiz-adv-x="1104" 
d="M431 1263l252 338h220l-278 -338h-194zM137 0v126l622 792v16h-621v144h826v-129l-619 -789v-16h622v-144h-830z" />
    <glyph glyph-name="Zdotaccent" unicode="&#x17b;" horiz-adv-x="1355" 
d="M678 1575q-50 -1 -86 35t-35 86q-1 50 35 86t86 35q50 1 86 -35t35 -86q1 -50 -35 -86t-86 -35zM144 0v128l817 1137v16h-789v162h1022v-128l-813 -1137v-16h830v-162h-1067z" />
    <glyph glyph-name="zdotaccent" unicode="&#x17c;" horiz-adv-x="1104" 
d="M545 1287q-53 -1 -91 37t-37 90q-1 52 37 90t91 38t91 -38t37 -90q1 -52 -37 -90t-91 -37zM137 0v126l622 792v16h-621v144h826v-129l-619 -789v-16h622v-144h-830z" />
    <glyph glyph-name="Zcaron" unicode="&#x17d;" horiz-adv-x="1355" 
d="M760 1575h-164l-300 298h202l172 -177h16l172 177h202zM144 0v128l817 1137v16h-789v162h1022v-128l-813 -1137v-16h830v-162h-1067z" />
    <glyph glyph-name="zcaron" unicode="&#x17e;" horiz-adv-x="1104" 
d="M646 1228h-202l-282 340h198l177 -227h16l177 227h198zM137 0v126l622 792v16h-621v144h826v-129l-619 -789v-16h622v-144h-830z" />
    <glyph glyph-name="florin" unicode="&#x192;" horiz-adv-x="1328" 
d="M295 -24q-110 0 -218 27v167q99 -35 201 -35t162 47t75 153l57 395h-336v144h356l33 227q27 177 131 271t255 95q151 0 232 -21v-157q-72 22 -190 22q-224 0 -256 -221l-31 -216h369v-144h-390l-58 -408q-26 -180 -123 -263t-269 -83z" />
    <glyph glyph-name="Ohorn" unicode="&#x1a0;" horiz-adv-x="1603" 
d="M792 1311q-220 0 -350 -159q-129 -159 -129 -430q-1 -270 127 -430t350 -160t349 160t127 431t-127 429t-347 159zM1451 722q-1 -348 -177 -552t-484 -204t-485 204t-177 552t178 552t485 203q73 0 207 -20t202 -20t92 21t24 72v140h159v-192q-1 -79 -53 -125t-129 -46
h-59v-12q97 -67 157 -227t60 -346z" />
    <glyph glyph-name="ohorn" unicode="&#x1a1;" horiz-adv-x="1254" 
d="M605 136q151 0 235 106t84 298t-84 297t-235 105t-235 -105t-84 -297t84 -298t235 -106zM1102 539q0 -259 -133 -409t-364 -149q-231 -1 -364 149t-133 409t133 409t364 149q65 -1 143 -13t136 -12t80 20q23 20 23 73v137h159v-189q0 -75 -44 -117t-100 -43h-56v-7
q72 -50 114 -157t42 -250z" />
    <glyph glyph-name="Uhorn" unicode="&#x1af;" horiz-adv-x="1659" 
d="M1337 1443q91 0 91 88v159h159v-189q0 -90 -55 -138t-147 -48h-50v-819q0 -240 -157 -385t-416 -145t-416 145t-157 385v947h180v-935q0 -172 107 -274t286 -102t286 102t107 274v935h182z" />
    <glyph glyph-name="uhorn" unicode="&#x1b0;" horiz-adv-x="1316" 
d="M520 -19q-180 0 -274 103t-94 296v698h172v-656q0 -148 58 -216t192 -68t212 80q76 80 76 222v638h144q91 0 91 88v152h159v-182q0 -90 -55 -138t-147 -48h-20v-950h-164v169h-16q-85 -188 -334 -188z" />
    <glyph glyph-name="u01C4" unicode="&#x1c4;" horiz-adv-x="2842" 
d="M2247 1575h-164l-300 298h202l172 -177h16l172 177h202zM1631 0v128l817 1137v16h-789v162h1022v-128l-813 -1137v-16h830v-162h-1067zM364 1281v-1119h303q241 0 375 147t134 411t-134 413q-134 148 -375 148h-303zM184 1443h495q321 -1 501 -191t180 -530t-180 -532
q-180 -190 -501 -190h-495v1443z" />
    <glyph glyph-name="u01C5" unicode="&#x1c5;" horiz-adv-x="2591" 
d="M2133 1228h-202l-282 340h198l177 -227h16l177 227h198zM1624 0v126l622 792v16h-621v144h826v-129l-619 -789v-16h622v-144h-830zM364 1281v-1119h303q241 0 375 147t134 411t-134 413q-134 148 -375 148h-303zM184 1443h495q321 -1 501 -191t180 -530t-180 -532
q-180 -190 -501 -190h-495v1443z" />
    <glyph glyph-name="u01C6" unicode="&#x1c6;" horiz-adv-x="2362" 
d="M1904 1228h-202l-282 340h198l177 -227h16l177 227h198zM1395 0v126l622 792v16h-621v144h826v-129l-619 -789v-16h622v-144h-830zM600 942q-146 0 -230 -108t-84 -296t84 -295t230 -107q148 0 233 108t85 294t-86 295t-232 109zM561 -19q-207 0 -330 152
q-123 151 -123 405t124 406t329 153q113 -1 203 -51t135 -138h15v598h172v-1506h-164v172h-16q-51 -90 -142 -140t-203 -51z" />
    <glyph glyph-name="u01C7" unicode="&#x1c7;" horiz-adv-x="2265" 
d="M1249 337h179q3 -91 67 -148q65 -57 173 -57t170 70t63 201v1040h180v-1041q0 -206 -112 -321t-301 -115t-304 103t-115 268zM1060 162v-162h-876v1443h180v-1281h696z" />
    <glyph glyph-name="u01C8" unicode="&#x1c8;" horiz-adv-x="1679" 
d="M1415 1297q-49 -1 -85 35t-35 85q-1 49 35 85t85 35q49 1 85 -35t35 -85q1 -49 -35 -85t-85 -35zM1501 1078v-1131q0 -165 -80 -241t-250 -76h-30v147h26q90 0 126 38t36 129v1134h172zM1060 162v-162h-876v1443h180v-1281h696z" />
    <glyph glyph-name="u01C9" unicode="&#x1c9;" horiz-adv-x="1032" 
d="M768 1297q-50 -1 -85 35t-35 85t35 85t85 35q50 1 85 -35t35 -85t-35 -85t-85 -35zM854 1078v-1131q0 -165 -80 -241t-250 -76h-30v147h26q90 0 126 38t36 129v1134h172zM172 0v1506h172v-1506h-172z" />
    <glyph glyph-name="u01CA" unicode="&#x1ca;" horiz-adv-x="2622" 
d="M1606 337h179q3 -91 67 -148t172 -57t172 70q62 70 62 201v1040h180v-1041q0 -206 -112 -321t-301 -115t-304 103t-115 268zM362 0h-178v1443h175l783 -1123h16v1123h178v-1443h-175l-783 1119h-16v-1119z" />
    <glyph glyph-name="u01CB" unicode="&#x1cb;" horiz-adv-x="2036" 
d="M1772 1297q-50 -1 -85 35t-35 85t35 85t85 35q50 1 85 -35t35 -85t-35 -85t-85 -35zM1858 1078v-1131q0 -165 -80 -241t-250 -76h-30v147h26q90 0 126 38t36 129v1134h172zM362 0h-178v1443h175l783 -1123h16v1123h178v-1443h-175l-783 1119h-16v-1119z" />
    <glyph glyph-name="u01CC" unicode="&#x1cc;" horiz-adv-x="1699" 
d="M1447 1297q-49 -1 -85 35t-35 85q-1 49 35 85t85 35q49 1 85 -35t35 -85q1 -49 -35 -85t-85 -35zM1533 1078v-1131q0 -165 -80 -241t-250 -76h-30v147h26q90 0 126 38t36 129v1134h172zM162 0v1078h164v-170h16q86 189 324 189q181 1 279 -103t98 -296v-698h-172v656
q-1 146 -63 216t-192 70t-206 -82t-76 -222v-638h-172z" />
    <glyph glyph-name="Acaron" unicode="&#x1cd;" horiz-adv-x="1380" 
d="M772 1575h-164l-300 298h202l172 -177h16l172 177h202zM682 1210l-226 -644h468l-226 644h-16zM1122 0l-145 413h-574l-145 -413h-189l532 1443h178l532 -1443h-189z" />
    <glyph glyph-name="acaron" unicode="&#x1ce;" horiz-adv-x="1130" 
d="M665 1228h-202l-282 340h198l177 -227h16l177 227h198zM462 -19q-160 -1 -262 87t-102 233t102 227t291 93l311 19v98q0 100 -62 153t-170 53q-217 0 -255 -134h-174q17 129 133 208t302 79q184 0 291 -95t107 -264v-738h-164v159h-16q-52 -86 -138 -132t-194 -46z
M512 132q114 0 202 77t88 193v99l-290 -19q-122 -8 -179 -51t-57 -125t61 -128t175 -46z" />
    <glyph glyph-name="Icaron" unicode="&#x1cf;" horiz-adv-x="548" 
d="M356 1575h-164l-300 298h202l172 -177h16l172 177h202zM364 0h-180v1443h180v-1443z" />
    <glyph glyph-name="icaron" unicode="&#x1d0;" horiz-adv-x="504" 
d="M353 1228h-202l-282 340h198l177 -227h16l177 227h198zM166 0v1078h172v-1078h-172z" />
    <glyph glyph-name="Ocaron" unicode="&#x1d1;" horiz-adv-x="1579" 
d="M873 1575h-164l-300 298h202l172 -177h16l172 177h202zM792 1311q-220 0 -350 -159q-129 -159 -129 -430q-1 -270 127 -430t350 -160t349 160t127 431t-127 429t-347 159zM792 1477q306 1 482 -203t177 -552q-1 -348 -177 -552t-484 -204t-485 204t-177 552t178 552
q180 204 486 203z" />
    <glyph glyph-name="ocaron" unicode="&#x1d2;" horiz-adv-x="1210" 
d="M706 1228h-202l-282 340h198l177 -227h16l177 227h198zM605 -19q-229 -1 -363 149t-134 410t133 408q133 149 364 149t364 -149q133 -148 133 -408t-134 -410t-363 -149zM605 136q153 0 236 106t83 297t-83 297t-236 106t-236 -106t-83 -297t83 -297t236 -106z" />
    <glyph glyph-name="Ucaron" unicode="&#x1d3;" horiz-adv-x="1524" 
d="M844 1575h-164l-300 298h202l172 -177h16l172 177h202zM369 1443v-935q1 -168 105 -272t288 -104t288 104t105 272v935h180v-947q-1 -234 -155 -382t-418 -148t-418 148t-155 382v947h180z" />
    <glyph glyph-name="ucaron" unicode="&#x1d4;" horiz-adv-x="1196" 
d="M694 1228h-202l-282 340h198l177 -227h16l177 227h198zM520 -19q-180 0 -274 103t-94 296v698h172v-656q0 -148 58 -216t192 -68t212 80q76 80 76 222v638h172v-1078h-164v169h-16q-85 -188 -334 -188z" />
    <glyph glyph-name="Udieresismacron" unicode="&#x1d5;" horiz-adv-x="1524" 
d="M964 1575q-49 0 -83 34t-34 83t34 83t83 34t83 -34t34 -83t-34 -83t-83 -34zM560 1575q-49 0 -83 34t-34 83t34 83t83 34t83 -34t34 -83t-34 -83t-83 -34zM425 1932v130h674v-130h-674zM369 1443v-935q1 -168 105 -272t288 -104t288 104t105 272v935h180v-947
q-1 -234 -155 -382t-418 -148t-418 148t-155 382v947h180z" />
    <glyph glyph-name="udieresismacron" unicode="&#x1d6;" horiz-adv-x="1196" 
d="M930 1620h-674v136h674v-136zM795 1228q-49 0 -83 34t-34 83t34 83t83 34t83 -34t34 -83t-34 -83t-83 -34zM391 1228q-49 0 -83 34t-34 83t34 83t83 34t83 -34t34 -83t-34 -83t-83 -34zM520 -19q-180 0 -274 103t-94 296v698h172v-656q0 -148 58 -216t192 -68t212 80
q76 80 76 222v638h172v-1078h-164v169h-16q-85 -188 -334 -188z" />
    <glyph glyph-name="Udieresisacute" unicode="&#x1d7;" horiz-adv-x="1524" 
d="M964 1575q-50 -1 -86 35t-35 86q-1 50 35 86t86 35q50 1 86 -35t35 -86q1 -50 -35 -86t-86 -35zM560 1575q-50 -1 -86 35t-35 86q-1 50 35 86t86 35q50 1 86 -35t35 -86q1 -50 -35 -86t-86 -35zM674 1873l230 222h227l-281 -222h-176zM369 1443v-935q1 -168 105 -272
t288 -104t288 104t105 272v935h180v-947q-1 -234 -155 -382t-418 -148t-418 148t-155 382v947h180z" />
    <glyph glyph-name="udieresisacute" unicode="&#x1d8;" horiz-adv-x="1196" 
d="M795 1228q-49 0 -85 36t-36 85t36 85t85 36t85 -36t36 -85t-36 -85t-85 -36zM391 1228q-49 0 -85 36t-36 85t36 85t85 36t85 -36t36 -85t-36 -85t-85 -36zM493 1575l190 298h198l-218 -298h-170zM520 -19q-180 0 -274 103t-94 296v698h172v-656q0 -148 58 -216t192 -68
t212 80q76 80 76 222v638h172v-1078h-164v169h-16q-85 -188 -334 -188z" />
    <glyph glyph-name="Udieresiscaron" unicode="&#x1d9;" horiz-adv-x="1524" 
d="M860 1862h-196l-294 233h222l162 -135h16l162 135h222zM964 1575q-49 0 -83 34t-34 83t34 83t83 34t83 -34t34 -83t-34 -83t-83 -34zM560 1575q-49 0 -83 34t-34 83t34 83t83 34t83 -34t34 -83t-34 -83t-83 -34zM369 1443v-935q1 -168 105 -272t288 -104t288 104t105 272
v935h180v-947q-1 -234 -155 -382t-418 -148t-418 148t-155 382v947h180z" />
    <glyph glyph-name="udieresiscaron" unicode="&#x1da;" horiz-adv-x="1196" 
d="M694 1575h-202l-282 320h200l175 -207h16l175 207h200zM795 1228q-49 0 -83 34t-34 83t34 83t83 34t83 -34t34 -83t-34 -83t-83 -34zM391 1228q-49 0 -83 34t-34 83t34 83t83 34t83 -34t34 -83t-34 -83t-83 -34zM520 -19q-180 0 -274 103t-94 296v698h172v-656
q0 -148 58 -216t192 -68t212 80q76 80 76 222v638h172v-1078h-164v169h-16q-85 -188 -334 -188z" />
    <glyph glyph-name="Udieresisgrave" unicode="&#x1db;" horiz-adv-x="1524" 
d="M964 1575q-50 -1 -86 35t-35 86q-1 50 35 86t86 35q50 1 86 -35t35 -86q1 -50 -35 -86t-86 -35zM560 1575q-50 -1 -86 35t-35 86q-1 50 35 86t86 35q50 1 86 -35t35 -86q1 -50 -35 -86t-86 -35zM868 1873h-176l-281 222h227zM369 1443v-935q1 -168 105 -272t288 -104
t288 104t105 272v935h180v-947q-1 -234 -155 -382t-418 -148t-418 148t-155 382v947h180z" />
    <glyph glyph-name="udieresisgrave" unicode="&#x1dc;" horiz-adv-x="1196" 
d="M795 1228q-49 0 -85 36t-36 85t36 85t85 36t85 -36t36 -85t-36 -85t-85 -36zM391 1228q-49 0 -85 36t-36 85t36 85t85 36t85 -36t36 -85t-36 -85t-85 -36zM693 1575h-170l-218 298h198zM520 -19q-180 0 -274 103t-94 296v698h172v-656q0 -148 58 -216t192 -68t212 80
q76 80 76 222v638h172v-1078h-164v169h-16q-85 -188 -334 -188z" />
    <glyph glyph-name="Adieresismacron" unicode="&#x1de;" horiz-adv-x="1380" 
d="M892 1575q-49 0 -83 34t-34 83t34 83t83 34t83 -34t34 -83t-34 -83t-83 -34zM488 1575q-49 0 -83 34t-34 83t34 83t83 34t83 -34t34 -83t-34 -83t-83 -34zM353 1932v130h674v-130h-674zM682 1210l-226 -644h468l-226 644h-16zM1122 0l-145 413h-574l-145 -413h-189
l532 1443h178l532 -1443h-189z" />
    <glyph glyph-name="adieresismacron" unicode="&#x1df;" horiz-adv-x="1130" 
d="M901 1620h-674v136h674v-136zM766 1228q-49 0 -83 34t-34 83t34 83t83 34t83 -34t34 -83t-34 -83t-83 -34zM362 1228q-49 0 -83 34t-34 83t34 83t83 34t83 -34t34 -83t-34 -83t-83 -34zM462 -19q-160 -1 -262 87t-102 233t102 227t291 93l311 19v98q0 100 -62 153
t-170 53q-217 0 -255 -134h-174q17 129 133 208t302 79q184 0 291 -95t107 -264v-738h-164v159h-16q-52 -86 -138 -132t-194 -46zM512 132q114 0 202 77t88 193v99l-290 -19q-122 -8 -179 -51t-57 -125t61 -128t175 -46z" />
    <glyph glyph-name="Adotmacron" unicode="&#x1e0;" horiz-adv-x="1380" 
d="M1027 1932h-674v130h674v-130zM690 1577q-50 1 -84 35t-35 84q1 50 35 84t84 35q50 -1 84 -35t35 -84q-1 -50 -35 -84t-84 -35zM682 1210l-226 -644h468l-226 644h-16zM1122 0l-145 413h-574l-145 -413h-189l532 1443h178l532 -1443h-189z" />
    <glyph glyph-name="adotmacron" unicode="&#x1e1;" horiz-adv-x="1130" 
d="M901 1620h-674v136h674v-136zM564 1228q-50 0 -84 34t-35 85q1 51 35 85t84 34t84 -34t35 -85q-1 -51 -35 -85t-84 -34zM462 -19q-160 -1 -262 87t-102 233t102 227t291 93l311 19v98q0 100 -62 153t-170 53q-217 0 -255 -134h-174q17 129 133 208t302 79q184 0 291 -95
t107 -264v-738h-164v159h-16q-52 -86 -138 -132t-194 -46zM512 132q114 0 202 77t88 193v99l-290 -19q-122 -8 -179 -51t-57 -125t61 -128t175 -46z" />
    <glyph glyph-name="AEmacron" unicode="&#x1e2;" horiz-adv-x="1966" 
d="M1776 1620h-674v136h674v-136zM986 0v459h-527l-209 -459h-181l651 1443h1104v-162h-658v-473h621v-160h-621v-486h658v-162h-838zM986 1292h-147l-310 -680h457v680z" />
    <glyph glyph-name="aemacron" unicode="&#x1e3;" horiz-adv-x="1849" 
d="M1276 1286h-674v136h674v-136zM516 132q116 0 201 80t85 198v91l-290 -19q-122 -8 -179 -51t-57 -125t62 -128t178 -46zM1272 946q-126 0 -208 -82t-91 -225h587q-2 135 -82 221t-206 86zM1291 134q195 0 264 145h172q-41 -143 -155 -221t-264 -77q-150 0 -257 65
t-150 166h-16q-53 -109 -159 -170t-262 -61t-261 87q-105 86 -105 232t102 228t291 93l311 19v98q0 100 -62 153t-170 53q-217 0 -255 -134h-174q17 130 133 208t266 79q278 0 372 -185h16q48 81 146 133t211 52q214 -1 335 -141t121 -388v-68h-768v-18q7 -160 93 -254
t225 -94z" />
    <glyph glyph-name="Gcaron" unicode="&#x1e6;" horiz-adv-x="1529" 
d="M864 1575h-164l-300 298h202l172 -177h16l172 177h202zM1395 558q0 -268 -168 -430t-456 -162q-287 0 -465 205t-178 549t179 550t475 207q240 0 402 -125t202 -339h-183q-47 146 -154 222t-267 76q-214 0 -342 -160t-127 -431q1 -272 127 -430t332 -158t324 113
q120 113 120 296v35h-406v158h585v-176z" />
    <glyph glyph-name="gcaron" unicode="&#x1e7;" horiz-adv-x="1248" 
d="M695 1228h-202l-282 340h198l177 -227h16l177 227h198zM620 -414q-206 0 -326 80t-140 215h182q14 -67 85 -106t201 -39t210 68q82 68 82 186v212h-16q-51 -90 -139 -138t-199 -48q-208 0 -330 148t-122 391q0 244 123 393t329 149q113 1 206 -51t140 -139h16v171h164
v-1097q0 -181 -130 -288t-336 -107zM918 554q0 178 -86 283t-234 105t-230 -104t-82 -283t82 -283t230 -104t234 104t86 282z" />
    <glyph glyph-name="Kcaron" unicode="&#x1e8;" horiz-adv-x="1349" 
d="M735 1575h-164l-300 298h202l172 -177h16l172 177h202zM364 0h-180v1443h180v-701h16l632 701h226l-577 -623l630 -820h-233l-521 695l-173 -191v-504z" />
    <glyph glyph-name="kcaron" unicode="&#x1e9;" horiz-adv-x="1112" 
d="M340 1638h-164l-300 298h202l172 -177h16l172 177h202zM344 0h-172v1506h172v-899h16l468 471h211l-464 -462l495 -616h-219l-404 505l-103 -96v-409z" />
    <glyph glyph-name="Oogonek" unicode="&#x1ea;" horiz-adv-x="1579" 
d="M791 1311q-220 0 -349 -159t-129 -431q1 -273 129 -431t348 -158t348 159t128 431t-128 430t-347 159zM128 721q0 349 178 553t484 203q306 0 484 -203t177 -552q-1 -218 -79 -384t-255 -324q-133 -118 -133 -204q0 -42 32 -70t78 -28t68 6v-134q-45 -16 -104 -16
q-106 0 -174 58t-69 146q0 123 131 208v16q-46 -30 -155 -30q-307 0 -485 203t-178 552z" />
    <glyph glyph-name="oogonek" unicode="&#x1eb;" horiz-adv-x="1210" 
d="M555 -228q0 123 131 208v16q-26 -15 -81 -15q-231 -1 -364 149t-133 409t133 409t364 149q231 1 364 -149t133 -409q0 -158 -58 -287t-190 -245q-130 -116 -130 -197q0 -46 33 -72t77 -26t68 6v-134q-46 -16 -104 -16q-109 0 -176 58t-67 146zM605 136q151 0 235 106
t84 298t-84 297t-235 105t-235 -105t-84 -297t84 -298t235 -106z" />
    <glyph glyph-name="Oogonekmacron" unicode="&#x1ec;" horiz-adv-x="1579" 
d="M1128 1620h-674v136h674v-136zM791 1311q-220 0 -349 -159t-129 -431q1 -273 129 -431t348 -158t348 159t128 431t-128 430t-347 159zM128 721q0 349 178 553t484 203q306 0 484 -203t177 -552q-1 -218 -79 -384t-255 -324q-133 -118 -133 -204q0 -42 32 -70t78 -28t68 6
v-134q-45 -16 -104 -16q-106 0 -174 58t-69 146q0 123 131 208v16q-46 -30 -155 -30q-307 0 -485 203t-178 552z" />
    <glyph glyph-name="oogonekmacron" unicode="&#x1ed;" horiz-adv-x="1210" 
d="M942 1286h-674v136h674v-136zM555 -228q0 123 131 208v16q-26 -15 -81 -15q-231 -1 -364 149t-133 409t133 409t364 149q231 1 364 -149t133 -409q0 -158 -58 -287t-190 -245q-130 -116 -130 -197q0 -46 33 -72t77 -26t68 6v-134q-46 -16 -104 -16q-109 0 -176 58
t-67 146zM605 136q151 0 235 106t84 298t-84 297t-235 105t-235 -105t-84 -297t84 -298t235 -106z" />
    <glyph glyph-name="u01F1" unicode="&#x1f1;" horiz-adv-x="2842" 
d="M1631 0v128l817 1137v16h-789v162h1022v-128l-813 -1137v-16h830v-162h-1067zM364 1281v-1119h303q241 0 375 147t134 411t-134 413q-134 148 -375 148h-303zM184 1443h495q321 -1 501 -191t180 -530t-180 -532q-180 -190 -501 -190h-495v1443z" />
    <glyph glyph-name="u01F2" unicode="&#x1f2;" horiz-adv-x="2591" 
d="M1624 0v126l622 792v16h-621v144h826v-129l-619 -789v-16h622v-144h-830zM364 1281v-1119h303q241 0 375 147t134 411t-134 413q-134 148 -375 148h-303zM184 1443h495q321 -1 501 -191t180 -530t-180 -532q-180 -190 -501 -190h-495v1443z" />
    <glyph glyph-name="u01F3" unicode="&#x1f3;" horiz-adv-x="2362" 
d="M1395 0v126l622 792v16h-621v144h826v-129l-619 -789v-16h622v-144h-830zM600 942q-146 0 -230 -108t-84 -296t84 -295t230 -107q148 0 233 108t85 294t-86 295t-232 109zM561 -19q-207 0 -330 152q-123 151 -123 405t124 406t329 153q113 -1 203 -51t135 -138h15v598
h172v-1506h-164v172h-16q-51 -90 -142 -140t-203 -51z" />
    <glyph glyph-name="Gacute" unicode="&#x1f4;" horiz-adv-x="1529" 
d="M676 1575l310 298h226l-332 -298h-204zM1395 558q0 -268 -168 -430t-456 -162q-287 0 -465 205t-178 549t179 550t475 207q240 0 402 -125t202 -339h-183q-47 146 -154 222t-267 76q-214 0 -342 -160t-127 -431q1 -272 127 -430t332 -158t324 113q120 113 120 296v35
h-406v158h585v-176z" />
    <glyph glyph-name="gacute" unicode="&#x1f5;" horiz-adv-x="1248" 
d="M480 1263l252 338h220l-278 -338h-194zM620 -414q-206 0 -326 80t-140 215h182q14 -67 85 -106t201 -39t210 68q82 68 82 186v212h-16q-51 -90 -139 -138t-199 -48q-208 0 -330 148t-122 391q0 244 123 393t329 149q113 1 206 -51t140 -139h16v171h164v-1097
q0 -181 -130 -288t-336 -107zM918 554q0 178 -86 283t-234 105t-230 -104t-82 -283t82 -283t230 -104t234 104t86 282z" />
    <glyph glyph-name="Ngrave" unicode="&#x1f8;" horiz-adv-x="1520" 
d="M548 1873l310 -298h-204l-332 298h226zM362 0h-178v1443h175l783 -1123h16v1123h178v-1443h-175l-783 1119h-16v-1119z" />
    <glyph glyph-name="ngrave" unicode="&#x1f9;" horiz-adv-x="1195" 
d="M725 1263h-194l-278 338h220zM162 0v1078h164v-170h16q86 189 324 189q181 1 279 -103t98 -296v-698h-172v656q-1 146 -63 216t-192 70t-206 -82t-76 -222v-638h-172z" />
    <glyph glyph-name="Aringacute" unicode="&#x1fa;" horiz-adv-x="1380" 
d="M760 2173h187l-174 -181h-161zM690 1533q-84 -1 -143 57t-59 141t59 141t143 57q84 1 143 -57t59 -141t-59 -141t-143 -57zM590 1730q0 -42 28 -72t72 -30t72 30t28 72t-28 72t-72 30t-72 -30t-28 -72zM682 1210l-226 -644h468l-226 644h-16zM1122 0l-145 413h-574
l-145 -413h-189l532 1443h178l532 -1443h-189z" />
    <glyph glyph-name="aringacute" unicode="&#x1fb;" horiz-adv-x="1130" 
d="M479 1683l166 226h199l-194 -226h-171zM464 1397q0 -43 29 -73t71 -29q42 -1 71 29t29 73t-29 73t-71 29q-42 1 -71 -29t-29 -73zM564 1200q-84 0 -143 58t-59 140t59 140t143 58t143 -58t59 -140t-59 -140t-143 -58zM462 -19q-160 -1 -262 87t-102 233t102 227t291 93
l311 19v98q0 100 -62 153t-170 53q-217 0 -255 -134h-174q17 129 133 208t302 79q184 0 291 -95t107 -264v-738h-164v159h-16q-52 -86 -138 -132t-194 -46zM512 132q114 0 202 77t88 193v99l-290 -19q-122 -8 -179 -51t-57 -125t61 -128t175 -46z" />
    <glyph glyph-name="AEacute" unicode="&#x1fc;" horiz-adv-x="1966" 
d="M1333 1575l310 298h226l-332 -298h-204zM986 0v459h-527l-209 -459h-181l651 1443h1104v-162h-658v-473h621v-160h-621v-486h658v-162h-838zM986 1292h-147l-310 -680h457v680z" />
    <glyph glyph-name="aeacute" unicode="&#x1fd;" horiz-adv-x="1849" 
d="M825 1263l252 338h220l-278 -338h-194zM516 132q116 0 201 80t85 198v91l-290 -19q-122 -8 -179 -51t-57 -125t62 -128t178 -46zM1272 946q-126 0 -208 -82t-91 -225h587q-2 135 -82 221t-206 86zM1291 134q195 0 264 145h172q-41 -143 -155 -221t-264 -77
q-150 0 -257 65t-150 166h-16q-53 -109 -159 -170t-262 -61t-261 87q-105 86 -105 232t102 228t291 93l311 19v98q0 100 -62 153t-170 53q-217 0 -255 -134h-174q17 130 133 208t266 79q278 0 372 -185h16q48 81 146 133t211 52q214 -1 335 -141t121 -388v-68h-768v-18
q7 -160 93 -254t225 -94z" />
    <glyph glyph-name="Oslashacute" unicode="&#x1fe;" horiz-adv-x="1551" 
d="M1451 724q-1 -350 -177 -554t-483 -204q-248 0 -418 137l-115 -150l-100 76l127 165q-157 200 -157 538t178 542t485 203q231 0 392 -119l101 130l98 -69l-110 -143q179 -202 179 -552zM791 1311q-220 0 -349 -159t-129 -408t90 -398l672 871q-117 94 -284 94zM791 132
q221 0 348 160t127 420t-108 415l-675 -881q122 -114 308 -114zM1206 1873l-332 -298h-204l310 298h226z" />
    <glyph glyph-name="oslashacute" unicode="&#x1ff;" horiz-adv-x="1210" 
d="M1102 546q0 -266 -134 -416t-363 -149q-155 0 -268 69l-59 -87l-104 69l67 98q-133 150 -133 410t133 408q133 149 364 149q144 0 256 -62l57 83l100 -64l-62 -92q146 -150 146 -416zM605 942q-153 0 -236 -106t-83 -280q0 -175 58 -276l425 620q-69 42 -164 42zM605 136
q153 0 236 106t83 288q0 184 -68 285l-427 -629q73 -50 176 -50zM939 1601l-278 -338h-194l252 338h220z" />
    <glyph glyph-name="Adblgrave" unicode="&#x200;" horiz-adv-x="1380" 
d="M1014 1575h-204l-332 298h226zM600 1575h-204l-332 298h226zM682 1210l-226 -644h468l-226 644h-16zM1122 0l-145 413h-574l-145 -413h-189l532 1443h178l532 -1443h-189z" />
    <glyph glyph-name="adblgrave" unicode="&#x201;" horiz-adv-x="1130" 
d="M883 1263h-182l-280 338h210zM483 1263h-182l-280 338h210zM462 -19q-160 -1 -262 87t-102 233t102 227t291 93l311 19v98q0 100 -62 153t-170 53q-217 0 -255 -134h-174q17 129 133 208t302 79q184 0 291 -95t107 -264v-738h-164v159h-16q-52 -86 -138 -132t-194 -46z
M512 132q114 0 202 77t88 193v99l-290 -19q-122 -8 -179 -51t-57 -125t61 -128t175 -46z" />
    <glyph glyph-name="Ainvertedbreve" unicode="&#x202;" horiz-adv-x="1380" 
d="M326 1575q0 135 98 217t266 81q168 1 266 -81t98 -217h-154q0 79 -56 126t-154 47t-154 -47t-56 -126h-154zM682 1210l-226 -644h468l-226 644h-16zM1122 0l-145 413h-574l-145 -413h-189l532 1443h178l532 -1443h-189z" />
    <glyph glyph-name="ainvertedbreve" unicode="&#x203;" horiz-adv-x="1130" 
d="M200 1228q0 144 98 236t266 92t266 -92t98 -236h-154q0 88 -56 144t-154 56t-154 -56t-56 -144h-154zM462 -19q-160 -1 -262 87t-102 233t102 227t291 93l311 19v98q0 100 -62 153t-170 53q-217 0 -255 -134h-174q17 129 133 208t302 79q184 0 291 -95t107 -264v-738
h-164v159h-16q-52 -86 -138 -132t-194 -46zM512 132q114 0 202 77t88 193v99l-290 -19q-122 -8 -179 -51t-57 -125t61 -128t175 -46z" />
    <glyph glyph-name="Edblgrave" unicode="&#x204;" horiz-adv-x="1220" 
d="M955 1575h-204l-332 298h226zM541 1575h-204l-332 298h226zM1078 162v-162h-894v1443h894v-162h-714v-463h677v-160h-677v-496h714z" />
    <glyph glyph-name="edblgrave" unicode="&#x205;" horiz-adv-x="1170" 
d="M913 1263h-182l-280 338h210zM513 1263h-182l-280 338h210zM594 -19q-224 1 -355 151t-131 406t132 407q132 152 352 152t345 -145t125 -397v-66h-775v-8q7 -160 91 -254t220 -94q209 0 278 146h172q-38 -140 -158 -219t-296 -79zM592 945q-128 0 -212 -87
q-83 -87 -93 -230h594q-3 143 -82 230t-207 87z" />
    <glyph glyph-name="Einvertedbreve" unicode="&#x206;" horiz-adv-x="1220" 
d="M267 1575q0 135 98 217t266 81q168 1 266 -81t98 -217h-154q-1 79 -57 126t-153 47t-153 -47t-57 -126h-154zM1078 162v-162h-894v1443h894v-162h-714v-463h677v-160h-677v-496h714z" />
    <glyph glyph-name="einvertedbreve" unicode="&#x207;" horiz-adv-x="1170" 
d="M230 1228q0 144 98 236t266 92t266 -92t98 -236h-154q0 88 -56 144t-154 56t-154 -56t-56 -144h-154zM594 -19q-224 1 -355 151t-131 406t132 407q132 152 352 152t345 -145t125 -397v-66h-775v-8q7 -160 91 -254t220 -94q209 0 278 146h172q-38 -140 -158 -219t-296 -79
zM592 945q-128 0 -212 -87q-83 -87 -93 -230h594q-3 143 -82 230t-207 87z" />
    <glyph glyph-name="Idblgrave" unicode="&#x208;" horiz-adv-x="548" 
d="M598 1575h-204l-332 298h226zM184 1575h-204l-332 298h226zM364 0h-180v1443h180v-1443z" />
    <glyph glyph-name="idblgrave" unicode="&#x209;" horiz-adv-x="504" 
d="M571 1263h-182l-280 338h210zM171 1263h-182l-280 338h210zM166 0v1078h172v-1078h-172z" />
    <glyph glyph-name="Iinvertedbreve" unicode="&#x20a;" horiz-adv-x="548" 
d="M-90 1575q0 135 98 217t266 81q168 1 266 -81t98 -217h-154q0 79 -56 126t-154 47t-154 -47t-56 -126h-154zM364 0h-180v1443h180v-1443z" />
    <glyph glyph-name="iinvertedbreve" unicode="&#x20b;" horiz-adv-x="504" 
d="M-112 1228q0 144 98 236t266 92t266 -92t98 -236h-154q0 88 -56 144t-154 56t-154 -56t-56 -144h-154zM166 0v1078h172v-1078h-172z" />
    <glyph glyph-name="Odblgrave" unicode="&#x20c;" horiz-adv-x="1579" 
d="M1115 1575h-204l-332 298h226zM701 1575h-204l-332 298h226zM792 1311q-220 0 -350 -159q-129 -159 -129 -430q-1 -270 127 -430t350 -160t349 160t127 431t-127 429t-347 159zM792 1477q306 1 482 -203t177 -552q-1 -348 -177 -552t-484 -204t-485 204t-177 552t178 552
q180 204 486 203z" />
    <glyph glyph-name="odblgrave" unicode="&#x20d;" horiz-adv-x="1210" 
d="M924 1263h-182l-280 338h210zM524 1263h-182l-280 338h210zM605 -19q-229 -1 -363 149t-134 410t133 408q133 149 364 149t364 -149q133 -148 133 -408t-134 -410t-363 -149zM605 136q153 0 236 106t83 297t-83 297t-236 106t-236 -106t-83 -297t83 -297t236 -106z" />
    <glyph glyph-name="Oinvertedbreve" unicode="&#x20e;" horiz-adv-x="1579" 
d="M427 1575q0 135 98 217t266 81q168 1 266 -81t98 -217h-154q-1 79 -57 126t-153 47t-153 -47t-57 -126h-154zM792 1311q-220 0 -350 -159q-129 -159 -129 -430q-1 -270 127 -430t350 -160t349 160t127 431t-127 429t-347 159zM792 1477q306 1 482 -203t177 -552
q-1 -348 -177 -552t-484 -204t-485 204t-177 552t178 552q180 204 486 203z" />
    <glyph glyph-name="oinvertedbreve" unicode="&#x20f;" horiz-adv-x="1210" 
d="M241 1228q0 144 98 236t266 92t266 -92t98 -236h-154q1 88 -55 144t-155 56t-155 -56t-55 -144h-154zM605 -19q-229 -1 -363 149t-134 410t133 408q133 149 364 149t364 -149q133 -148 133 -408t-134 -410t-363 -149zM605 136q153 0 236 106t83 297t-83 297t-236 106
t-236 -106t-83 -297t83 -297t236 -106z" />
    <glyph glyph-name="Rdblgrave" unicode="&#x210;" horiz-adv-x="1338" 
d="M933 1575h-204l-332 298h226zM519 1575h-204l-332 298h226zM364 571v-571h-180v1443h551q209 1 335 -117t125 -313q0 -151 -77 -261t-213 -153l334 -599h-211l-309 571h-355zM364 1283v-552h355q139 -1 215 71t75 204q0 132 -79 204q-79 73 -219 73h-347z" />
    <glyph glyph-name="rdblgrave" unicode="&#x211;" horiz-adv-x="765" 
d="M697 1263h-182l-280 338h210zM297 1263h-182l-280 338h210zM162 0v1078h164v-160h16q24 79 108 129t191 50q49 0 86 -5v-172q-35 10 -110 10q-123 0 -203 -74t-80 -188v-668h-172z" />
    <glyph glyph-name="Rinvertedbreve" unicode="&#x212;" horiz-adv-x="1338" 
d="M245 1575q0 135 98 217t266 81q168 1 266 -81t98 -217h-154q-1 79 -57 126t-153 47t-153 -47t-57 -126h-154zM364 571v-571h-180v1443h551q209 1 335 -117t125 -313q0 -151 -77 -261t-213 -153l334 -599h-211l-309 571h-355zM364 1283v-552h355q139 -1 215 71t75 204
q0 132 -79 204q-79 73 -219 73h-347z" />
    <glyph glyph-name="rinvertedbreve" unicode="&#x213;" horiz-adv-x="765" 
d="M14 1228q0 144 98 236t266 92t266 -92t98 -236h-154q0 88 -56 144t-154 56t-154 -56t-56 -144h-154zM162 0v1078h164v-160h16q24 79 108 129t191 50q49 0 86 -5v-172q-35 10 -110 10q-123 0 -203 -74t-80 -188v-668h-172z" />
    <glyph glyph-name="Udblgrave" unicode="&#x214;" horiz-adv-x="1524" 
d="M1086 1575h-204l-332 298h226zM672 1575h-204l-332 298h226zM369 1443v-935q1 -168 105 -272t288 -104t288 104t105 272v935h180v-947q-1 -234 -155 -382t-418 -148t-418 148t-155 382v947h180z" />
    <glyph glyph-name="udblgrave" unicode="&#x215;" horiz-adv-x="1196" 
d="M912 1263h-182l-280 338h210zM512 1263h-182l-280 338h210zM520 -19q-180 0 -274 103t-94 296v698h172v-656q0 -148 58 -216t192 -68t212 80q76 80 76 222v638h172v-1078h-164v169h-16q-85 -188 -334 -188z" />
    <glyph glyph-name="Uinvertedbreve" unicode="&#x216;" horiz-adv-x="1524" 
d="M398 1575q0 135 98 217t266 81q168 1 266 -81t98 -217h-154q0 79 -56 126t-154 47t-154 -47t-56 -126h-154zM369 1443v-935q1 -168 105 -272t288 -104t288 104t105 272v935h180v-947q-1 -234 -155 -382t-418 -148t-418 148t-155 382v947h180z" />
    <glyph glyph-name="uinvertedbreve" unicode="&#x217;" horiz-adv-x="1196" 
d="M229 1228q0 144 98 236t266 92t266 -92t98 -236h-154q1 88 -55 144t-155 56t-155 -56t-55 -144h-154zM520 -19q-180 0 -274 103t-94 296v698h172v-656q0 -148 58 -216t192 -68t212 80q76 80 76 222v638h172v-1078h-164v169h-16q-85 -188 -334 -188z" />
    <glyph glyph-name="Scommaaccent" unicode="&#x218;" horiz-adv-x="1305" 
d="M654 -518h-167l102 377h182zM664 130q150 0 246 70t95 170q0 100 -70 160t-219 99l-185 48q-196 49 -285 142t-89 262q1 169 141 283t359 113q219 0 360 -112t152 -287h-181q-20 112 -106 174t-226 62t-226 -66q-88 -66 -88 -164q0 -97 64 -150t214 -91l151 -40
q223 -56 321 -150t98 -253q0 -198 -146 -316t-384 -118t-384 112t-161 299h182q17 -113 117 -180t250 -67z" />
    <glyph glyph-name="scommaaccent" unicode="&#x219;" horiz-adv-x="1072" 
d="M535 -518h-167l102 377h182zM137 792q0 125 115 215q116 90 286 90t280 -78t127 -211h-170q-17 66 -79 104t-158 39q-96 0 -162 -45t-66 -108q0 -64 46 -100t141 -59l166 -40q153 -37 227 -107t74 -185q0 -143 -123 -235t-306 -91q-183 0 -298 80t-129 214h177
q22 -69 87 -109t170 -40t175 47t70 121q0 110 -171 152l-185 45q-153 37 -223 107t-71 194z" />
    <glyph glyph-name="Tcommaaccent" unicode="&#x21a;" horiz-adv-x="1298" 
d="M652 -518h-167l102 377h182zM739 0h-180v1281h-465v162h1110v-162h-465v-1281z" />
    <glyph glyph-name="tcommaaccent" unicode="&#x21b;" horiz-adv-x="744" 
d="M419 -518h-167l102 377h182zM234 1357h172v-279h240v-144h-240v-610q0 -95 38 -138t122 -43q37 0 80 4v-145q-57 -10 -101 -10q-167 0 -239 67t-72 221v654h-174v144h174v279z" />
    <glyph glyph-name="Hcaron" unicode="&#x21e;" horiz-adv-x="1520" 
d="M842 1575h-164l-300 298h202l172 -177h16l172 177h202zM1336 0h-180v657h-792v-657h-180v1443h180v-624h792v624h180v-1443z" />
    <glyph glyph-name="hcaron" unicode="&#x21f;" horiz-adv-x="1216" 
d="M340 1638h-164l-300 298h202l172 -177h16l172 177h202zM692 1097q172 1 272 -105t100 -294v-698h-172v656q0 286 -249 286q-143 0 -221 -82t-78 -222v-638h-172v1506h172v-598h16q85 189 332 189z" />
    <glyph glyph-name="Adotaccent" unicode="&#x226;" horiz-adv-x="1380" 
d="M690 1575q-50 -1 -86 35t-35 86q-1 50 35 86t86 35q50 1 86 -35t35 -86q1 -50 -35 -86t-86 -35zM682 1210l-226 -644h468l-226 644h-16zM1122 0l-145 413h-574l-145 -413h-189l532 1443h178l532 -1443h-189z" />
    <glyph glyph-name="adotaccent" unicode="&#x227;" horiz-adv-x="1130" 
d="M564 1287q-52 -1 -90 37t-38 90t38 90t90 38t90 -38t38 -90t-38 -90t-90 -37zM462 -19q-160 -1 -262 87t-102 233t102 227t291 93l311 19v98q0 100 -62 153t-170 53q-217 0 -255 -134h-174q17 129 133 208t302 79q184 0 291 -95t107 -264v-738h-164v159h-16
q-52 -86 -138 -132t-194 -46zM512 132q114 0 202 77t88 193v99l-290 -19q-122 -8 -179 -51t-57 -125t61 -128t175 -46z" />
    <glyph glyph-name="Ecedilla" unicode="&#x228;" horiz-adv-x="1220" 
d="M1078 1281h-714v-463h677v-160h-677v-496h714v-162h-363l-55 -142q102 0 158 -43t57 -124t-65 -133t-165 -52t-160 18v108q48 -14 122 -14q119 0 119 73q0 35 -35 50t-114 15h-59v84l63 160h-397v1443h894v-162z" />
    <glyph glyph-name="ecedilla" unicode="&#x229;" horiz-adv-x="1170" 
d="M1062 489h-775v-8q7 -160 91 -254t220 -94q209 0 278 146h172q-34 -123 -132 -200t-243 -93l-49 -128q102 0 158 -43t57 -124t-65 -133t-165 -52t-160 18v108q48 -14 122 -14q119 0 119 73q0 35 -35 50t-114 15h-59v84l57 144q-199 19 -315 167t-116 395t132 399t352 152
t345 -145t125 -397v-66zM592 945q-128 0 -212 -87q-83 -87 -93 -230h594q-3 143 -82 230t-207 87z" />
    <glyph glyph-name="Odieresismacron" unicode="&#x22a;" horiz-adv-x="1579" 
d="M993 1575q-49 0 -83 34t-34 83t34 83t83 34t83 -34t34 -83t-34 -83t-83 -34zM589 1575q-49 0 -83 34t-34 83t34 83t83 34t83 -34t34 -83t-34 -83t-83 -34zM454 1932v130h674v-130h-674zM792 1311q-220 0 -350 -159q-129 -159 -129 -430q-1 -270 127 -430t350 -160
t349 160t127 431t-127 429t-347 159zM792 1477q306 1 482 -203t177 -552q-1 -348 -177 -552t-484 -204t-485 204t-177 552t178 552q180 204 486 203z" />
    <glyph glyph-name="odieresismacron" unicode="&#x22b;" horiz-adv-x="1210" 
d="M942 1620h-674v136h674v-136zM807 1228q-49 0 -83 34t-34 83t34 83t83 34t83 -34t34 -83t-34 -83t-83 -34zM403 1228q-49 0 -83 34t-34 83t34 83t83 34t83 -34t34 -83t-34 -83t-83 -34zM605 -19q-229 -1 -363 149t-134 410t133 408q133 149 364 149t364 -149
q133 -148 133 -408t-134 -410t-363 -149zM605 136q153 0 236 106t83 297t-83 297t-236 106t-236 -106t-83 -297t83 -297t236 -106z" />
    <glyph glyph-name="Otildemacron" unicode="&#x22c;" horiz-adv-x="1579" 
d="M655 1703q-88 0 -94 -111h-136q0 106 63 174t158 67q96 0 146 -45q22 -19 40 -38q44 -45 88 -45q94 0 102 111h135q1 -102 -63 -172t-158 -69q-94 0 -146 45q-22 19 -40 38q-44 45 -95 45zM1128 1932h-674v130h674v-130zM792 1311q-220 0 -350 -159q-129 -159 -129 -430
q-1 -270 127 -430t350 -160t349 160t127 431t-127 429t-347 159zM792 1477q306 1 482 -203t177 -552q-1 -348 -177 -552t-484 -204t-485 204t-177 552t178 552q180 204 486 203z" />
    <glyph glyph-name="otildemacron" unicode="&#x22d;" horiz-adv-x="1210" 
d="M942 1626h-674v136h674v-136zM369 1231h-142q-1 135 61 213t159 78t159 -55q26 -23 48 -47q52 -56 97 -55q90 0 90 157h142q1 -136 -61 -214t-159 -77q-97 -1 -159 55q-26 24 -48 47q-53 55 -97 55q-90 0 -90 -157zM605 -19q-229 -1 -363 149t-134 410t133 408
q133 149 364 149t364 -149q133 -148 133 -408t-134 -410t-363 -149zM605 136q153 0 236 106t83 297t-83 297t-236 106t-236 -106t-83 -297t83 -297t236 -106z" />
    <glyph glyph-name="Odotaccent" unicode="&#x22e;" horiz-adv-x="1579" 
d="M791 1575q-49 -1 -85 35t-36 86t36 86t85 35q49 1 85 -35t36 -86t-36 -86t-85 -35zM792 1311q-220 0 -350 -159q-129 -159 -129 -430q-1 -270 127 -430t350 -160t349 160t127 431t-127 429t-347 159zM792 1477q306 1 482 -203t177 -552q-1 -348 -177 -552t-484 -204
t-485 204t-177 552t178 552q180 204 486 203z" />
    <glyph glyph-name="odotaccent" unicode="&#x22f;" horiz-adv-x="1210" 
d="M605 1287q-53 -1 -91 37t-37 90q-1 52 37 90t91 38t91 -38t37 -90q1 -52 -37 -90t-91 -37zM605 -19q-229 -1 -363 149t-134 410t133 408q133 149 364 149t364 -149q133 -148 133 -408t-134 -410t-363 -149zM605 136q153 0 236 106t83 297t-83 297t-236 106t-236 -106
t-83 -297t83 -297t236 -106z" />
    <glyph glyph-name="Odotaccentmacron" unicode="&#x230;" horiz-adv-x="1579" 
d="M1128 1932h-674v130h674v-130zM791 1577q-49 1 -84 35t-35 84t35 84t84 35q49 -1 84 -35t35 -84t-35 -84t-84 -35zM792 1311q-220 0 -350 -159q-129 -159 -129 -430q-1 -270 127 -430t350 -160t349 160t127 431t-127 429t-347 159zM792 1477q306 1 482 -203t177 -552
q-1 -348 -177 -552t-484 -204t-485 204t-177 552t178 552q180 204 486 203z" />
    <glyph glyph-name="odotaccentmacron" unicode="&#x231;" horiz-adv-x="1210" 
d="M942 1620h-674v136h674v-136zM605 1228q-51 0 -85 34t-34 85t34 85t85 34t85 -34t34 -85t-34 -85t-85 -34zM605 -19q-229 -1 -363 149t-134 410t133 408q133 149 364 149t364 -149q133 -148 133 -408t-134 -410t-363 -149zM605 136q153 0 236 106t83 297t-83 297
t-236 106t-236 -106t-83 -297t83 -297t236 -106z" />
    <glyph glyph-name="Ymacron" unicode="&#x232;" horiz-adv-x="1344" 
d="M1009 1620h-674v136h674v-136zM762 0h-180v621l-512 822h205l389 -641h16l389 641h205l-512 -822v-621z" />
    <glyph glyph-name="ymacron" unicode="&#x233;" horiz-adv-x="1112" 
d="M888 1286h-674v136h674v-136zM254 -390q-41 0 -77 6v147q27 -5 87 -5t104 40t79 137l20 64l-399 1079h186l296 -887h16l295 887h183l-421 -1144q-69 -188 -147 -256t-222 -68z" />
    <glyph glyph-name="dotlessj" unicode="&#x237;" horiz-adv-x="504" 
d="M338 1078v-1131q0 -165 -80 -241t-250 -76h-30v147h26q90 0 126 38t36 129v1134h172z" />
    <glyph glyph-name="quoteright" unicode="&#x2bc;" horiz-adv-x="605" 
d="M289 904h-150l137 539h190z" />
    <glyph glyph-name="quoteright" unicode="&#x2019;" horiz-adv-x="605" 
d="M289 904h-150l137 539h190z" />
    <glyph glyph-name="circumflex" unicode="&#x2c6;" horiz-adv-x="1094" 
d="M648 1568l282 -340h-198l-177 227h-16l-177 -227h-198l282 340h202z" />
    <glyph glyph-name="caron" unicode="&#x2c7;" horiz-adv-x="1094" 
d="M648 1228h-202l-282 340h198l177 -227h16l177 227h198z" />
    <glyph glyph-name="breve" unicode="&#x2d8;" horiz-adv-x="1048" 
d="M160 1556h154q0 -88 56 -144t154 -56t154 56t56 144h154q0 -144 -98 -236t-266 -92t-266 92t-98 236z" />
    <glyph glyph-name="dotaccent" unicode="&#x2d9;" horiz-adv-x="1048" 
d="M524 1287q-52 -1 -90 37t-38 90t38 90t90 38t90 -38t38 -90t-38 -90t-90 -37z" />
    <glyph glyph-name="ring" unicode="&#x2da;" horiz-adv-x="1094" 
d="M547 1334q52 0 87 35t35 88t-35 88t-87 35t-87 -35t-35 -88t35 -88t87 -35zM547 1228q-96 0 -164 66t-68 163t68 163t164 66t164 -66t68 -163t-68 -163t-164 -66z" />
    <glyph glyph-name="ogonek" unicode="&#x2db;" horiz-adv-x="1048" 
d="M570 -432q-86 0 -150 52t-63 124q-1 74 35 126t126 128l24 20h169l-109 -89q-88 -71 -88 -141q0 -42 30 -64t82 -22t76 9v-125q-46 -18 -132 -18z" />
    <glyph glyph-name="tilde" unicode="&#x2dc;" horiz-adv-x="1093" 
d="M310 1263h-142q0 135 62 213t158 78q97 0 159 -55q26 -23 48 -47q52 -56 97 -55q90 0 90 157h142q0 -136 -62 -214t-158 -77q-97 -1 -159 55q-26 24 -48 47q-53 55 -97 55q-90 0 -90 -157z" />
    <glyph glyph-name="hungarumlaut" unicode="&#x2dd;" horiz-adv-x="1048" 
d="M85 1263l252 338h210l-280 -338h-182zM485 1263l252 338h210l-280 -338h-182z" />
    <glyph glyph-name="gravecmb" unicode="&#x300;" 
d="M122 1263h-194l-278 338h220z" />
    <glyph glyph-name="acutecmb" unicode="&#x301;" 
d="M-114 1263l252 338h220l-278 -338h-194z" />
    <glyph glyph-name="circumflexcmb" unicode="&#x302;" 
d="M101 1568l282 -340h-198l-177 227h-16l-177 -227h-198l282 340h202z" />
    <glyph glyph-name="tildecmb" unicode="&#x303;" 
d="M-236 1231h-142q0 135 62 213t158 78q97 0 159 -55q26 -23 48 -47q52 -56 97 -55q90 0 90 157h142q0 -136 -62 -214t-158 -77q-97 -1 -159 55q-26 24 -48 47q-53 55 -97 55q-90 0 -90 -157z" />
    <glyph glyph-name="macroncmb" unicode="&#x304;" 
d="M337 1286h-674v136h674v-136z" />
    <glyph glyph-name="brevecmb" unicode="&#x306;" 
d="M-366 1556h154q0 -88 56 -144t154 -56t154 56t56 144h154q0 -144 -98 -236t-266 -92t-266 92t-98 236z" />
    <glyph glyph-name="dotaccentcmb" unicode="&#x307;" 
d="M0 1287q-52 -1 -90 37t-38 90t38 90t90 38t90 -38t38 -90t-38 -90t-90 -37z" />
    <glyph glyph-name="dieresiscmb" unicode="&#x308;" 
d="M202 1228q-50 0 -86 36t-35 85q-1 49 35 85t86 36t86 -36t35 -85q1 -49 -35 -85t-86 -36zM-202 1228q-50 0 -86 36t-35 85q-1 49 35 85t86 36t86 -36t35 -85q1 -49 -35 -85t-86 -36z" />
    <glyph glyph-name="hookabovecmb" unicode="&#x309;" 
d="M2 1595q94 1 155 -49t61 -127t-52 -138t-134 -88l-75 99q49 14 81 44t31 63q-1 31 -29 53t-84 22t-100 -23v123q52 21 146 21z" />
    <glyph glyph-name="ringcmb" unicode="&#x30a;" 
d="M0 1334q52 0 87 35t35 88t-35 88t-87 35t-87 -35t-35 -88t35 -88t87 -35zM0 1228q-96 0 -164 66t-68 163t68 163t164 66t164 -66t68 -163t-68 -163t-164 -66z" />
    <glyph glyph-name="hungarumlautcmb" unicode="&#x30b;" 
d="M-335 1263l252 338h210l-280 -338h-182zM65 1263l252 338h210l-280 -338h-182z" />
    <glyph glyph-name="caroncmb" unicode="&#x30c;" 
d="M101 1228h-202l-282 340h198l177 -227h16l177 227h198z" />
    <glyph glyph-name="dblgravecmb" unicode="&#x30f;" 
d="M319 1263h-182l-280 338h210zM-81 1263h-182l-280 338h210z" />
    <glyph glyph-name="invertedbrevecmb" unicode="&#x311;" 
d="M-364 1228q0 144 98 236t266 92t266 -92t98 -236h-154q0 88 -56 144t-154 56t-154 -56t-56 -144h-154z" />
    <glyph glyph-name="horncmb" unicode="&#x31b;" 
d="M104 1068q64 0 92 40t28 133v156h159v-204q-1 -117 -69 -191t-164 -74t-150 44v139q40 -43 104 -43z" />
    <glyph glyph-name="dotbelowcmb" unicode="&#x323;" 
d="M0 -402q-50 0 -86 36t-35 85q-1 49 35 85t86 36t86 -36t35 -85q1 -49 -35 -85t-86 -36z" />
    <glyph glyph-name="dieresisbelowcmb" unicode="&#x324;" 
d="M202 -432q-50 0 -86 36t-35 85q-1 49 35 85t86 36t86 -36t35 -85q1 -49 -35 -85t-86 -36zM-202 -432q-50 0 -86 36t-35 85q-1 49 35 85t86 36t86 -36t35 -85q1 -49 -35 -85t-86 -36z" />
    <glyph glyph-name="ringbelowcmb" unicode="&#x325;" 
d="M0 -467q52 0 87 35t35 88t-35 88t-87 35t-87 -35t-35 -88t35 -88t87 -35zM0 -573q-96 1 -164 67t-68 162t68 162t164 67q96 -1 164 -67t68 -162t-68 -162t-164 -67z" />
    <glyph glyph-name="commabelowcmb" unicode="&#x326;" 
d="M3 -518h-167l102 377h182z" />
    <glyph glyph-name="cedillacmb" unicode="&#x327;" 
d="M-113 -244v84l63 160h134l-55 -142q103 0 159 -43t56 -124t-66 -133t-164 -52t-160 18v108q48 -14 122 -14q119 0 119 73q0 35 -35 50t-114 15h-59z" />
    <glyph glyph-name="ogonekcmb" unicode="&#x328;" 
d="M-8 -432q-86 0 -150 52t-63 124q-1 74 35 126t126 128l24 20h169l-109 -89q-88 -71 -88 -141q0 -42 30 -64t82 -22t76 9v-125q-46 -18 -132 -18z" />
    <glyph glyph-name="circumflexbelowcmb" unicode="&#x32d;" 
d="M82 -142l300 -290h-202l-172 173h-16l-172 -173h-202l300 290h164z" />
    <glyph glyph-name="brevebelowcmb" unicode="&#x32e;" 
d="M-364 -134h154q0 -79 56 -126t154 -47t154 47t56 126h154q0 -134 -98 -216t-266 -82t-266 82t-98 216z" />
    <glyph glyph-name="tildebelowcmb" unicode="&#x330;" 
d="M-144 -255q-47 -1 -70 -35t-26 -116h-136q0 133 60 207t159 74q99 1 163 -59q26 -24 48 -50q55 -60 92 -59q87 0 95 151h135q0 -128 -62 -204t-155 -77q-94 -1 -154 59q-25 24 -47 50q-54 60 -102 59z" />
    <glyph glyph-name="macronbelowcmb" unicode="&#x331;" 
d="M337 -348h-674v136h674v-136z" />
    <glyph glyph-name="greekquestionmark" unicode="&#x37e;" horiz-adv-x="608" 
d="M304 759q-54 1 -92 39t-38 92t38 91q38 38 92 38t92 -38q38 -37 38 -91t-38 -92t-92 -39zM260 -367h-150l96 569h202z" />
    <glyph glyph-name="tonosgreek" unicode="&#x384;" horiz-adv-x="915" 
d="M286 1263l88 338h206l-135 -338h-159z" />
    <glyph glyph-name="dieresistonosgreek" unicode="&#x385;" horiz-adv-x="1350" 
d="M570 1263l37 338h196l-84 -338h-149zM1006 1263q-50 -1 -86 35t-35 86q-1 50 35 86t86 35q50 1 86 -35t35 -86q1 -50 -35 -86t-86 -35zM344 1263q-50 -1 -86 35t-35 86q-1 50 35 86t86 35q50 1 86 -35t35 -86q1 -50 -35 -86t-86 -35z" />
    <glyph glyph-name="Alphatonosgreek" unicode="&#x386;" horiz-adv-x="1380" 
d="M92 1105l88 338h206l-135 -338h-159zM682 1210l-226 -644h468l-226 644h-16zM1122 0l-145 413h-574l-145 -413h-189l532 1443h178l532 -1443h-189z" />
    <glyph glyph-name="anoteleia" unicode="&#x387;" horiz-adv-x="630" 
d="M316 794q-62 0 -102 40t-40 102t40 102t102 40t100 -40q40 -40 40 -102t-40 -102q-38 -40 -100 -40z" />
    <glyph glyph-name="Epsilontonosgreek" unicode="&#x388;" horiz-adv-x="1618" 
d="M104 1105l88 338h206l-135 -338h-159zM1476 162v-162h-894v1443h894v-162h-714v-463h677v-160h-677v-496h714z" />
    <glyph glyph-name="Etatonosgreek" unicode="&#x389;" horiz-adv-x="1918" 
d="M104 1105l88 338h206l-135 -338h-159zM1734 0h-180v657h-792v-657h-180v1443h180v-624h792v624h180v-1443z" />
    <glyph glyph-name="Iotatonosgreek" unicode="&#x38a;" horiz-adv-x="946" 
d="M104 1105l88 338h206l-135 -338h-159zM762 0h-180v1443h180v-1443z" />
    <glyph glyph-name="Omicrontonosgreek" unicode="&#x38c;" horiz-adv-x="1843" 
d="M104 1105l88 338h206l-135 -338h-159zM1056 1311q-220 0 -350 -159q-129 -159 -129 -430q-1 -270 127 -430t350 -160t349 160t127 431t-127 429t-347 159zM1056 1477q306 1 482 -203t177 -552q-1 -348 -177 -552t-484 -204t-485 204t-177 552t178 552q180 204 486 203z
" />
    <glyph glyph-name="Upsilontonosgreek" unicode="&#x38e;" horiz-adv-x="1742" 
d="M104 1105l88 338h206l-135 -338h-159zM1160 0h-180v621l-512 822h205l389 -641h16l389 641h205l-512 -822v-621z" />
    <glyph glyph-name="Omegatonosgreek" unicode="&#x38f;" horiz-adv-x="1859" 
d="M104 1105l88 338h206l-135 -338h-159zM404 0v162h311v16q-147 94 -229 257t-82 362q0 304 182 492t478 188t478 -188t182 -492q0 -199 -82 -362t-229 -257v-16h311v-162h-526v204q175 108 258 252t83 337q0 241 -127 379t-348 139q-221 -1 -348 -139t-127 -379
q0 -193 83 -337t258 -252v-204h-526z" />
    <glyph glyph-name="iotadieresistonosgreek" unicode="&#x390;" horiz-adv-x="614" 
d="M164 1263l37 338h196l-84 -338h-149zM600 1263q-50 -1 -86 35t-35 86q-1 50 35 86t86 35q50 1 86 -35t35 -86q1 -50 -35 -86t-86 -35zM-62 1263q-50 -1 -86 35t-35 86q-1 50 35 86t86 35q50 1 86 -35t35 -86q1 -50 -35 -86t-86 -35zM460 -8q-162 0 -230 69t-68 221v796
h172v-754q0 -94 37 -138t121 -43q21 0 62 4v-145q-47 -10 -94 -10z" />
    <glyph glyph-name="Alphagreek" unicode="&#x391;" horiz-adv-x="1380" 
d="M682 1210l-226 -644h468l-226 644h-16zM1122 0l-145 413h-574l-145 -413h-189l532 1443h178l532 -1443h-189z" />
    <glyph glyph-name="Betagreek" unicode="&#x392;" horiz-adv-x="1346" 
d="M364 159h356q163 0 247 65t84 190q0 252 -348 252h-339v-507zM364 1284v-463h288q329 0 329 231q-1 110 -75 171t-208 61h-334zM747 0h-563v1443h552q198 0 312 -97t115 -263q-1 -112 -73 -202t-176 -109v-16q148 -20 235 -114t87 -237q0 -191 -130 -298t-359 -107z" />
    <glyph glyph-name="Gammagreek" unicode="&#x393;" horiz-adv-x="1152" 
d="M184 0v1443h856v-162h-676v-1281h-180z" />
    <glyph glyph-name="Deltagreek" unicode="&#x394;" horiz-adv-x="1394" 
d="M307 162h780v16l-382 1042h-16l-382 -1042v-16zM103 0v127l505 1316h178l505 -1316v-127h-1188z" />
    <glyph glyph-name="Deltagreek" unicode="&#x2206;" horiz-adv-x="1394" 
d="M307 162h780v16l-382 1042h-16l-382 -1042v-16zM103 0v127l505 1316h178l505 -1316v-127h-1188z" />
    <glyph glyph-name="Epsilongreek" unicode="&#x395;" horiz-adv-x="1220" 
d="M1078 162v-162h-894v1443h894v-162h-714v-463h677v-160h-677v-496h714z" />
    <glyph glyph-name="Zetagreek" unicode="&#x396;" horiz-adv-x="1355" 
d="M144 0v128l817 1137v16h-789v162h1022v-128l-813 -1137v-16h830v-162h-1067z" />
    <glyph glyph-name="Etagreek" unicode="&#x397;" horiz-adv-x="1520" 
d="M1336 0h-180v657h-792v-657h-180v1443h180v-624h792v624h180v-1443z" />
    <glyph glyph-name="Thetagreek" unicode="&#x398;" horiz-adv-x="1599" 
d="M800 -34q-312 0 -492 199t-180 557t182 556t492 199q310 -1 490 -199t179 -556q0 -358 -179 -557q-180 -199 -492 -199zM800 132q226 0 356 155t130 436t-130 435t-355 153q-225 0 -357 -154t-131 -435q1 -282 131 -436t356 -154zM497 638v162h605v-162h-605z" />
    <glyph glyph-name="Iotagreek" unicode="&#x399;" horiz-adv-x="548" 
d="M364 0h-180v1443h180v-1443z" />
    <glyph glyph-name="Kappagreek" unicode="&#x39a;" horiz-adv-x="1349" 
d="M364 0h-180v1443h180v-701h16l632 701h226l-577 -623l630 -820h-233l-521 695l-173 -191v-504z" />
    <glyph glyph-name="Lambdagreek" unicode="&#x39b;" horiz-adv-x="1368" 
d="M83 0l512 1443h178l512 -1443h-189l-404 1200h-16l-404 -1200h-189z" />
    <glyph glyph-name="Mugreek" unicode="&#x39c;" horiz-adv-x="1790" 
d="M352 0h-168v1443h209l494 -1194h16l494 1194h209v-1443h-168v1102h-12l-455 -1092h-152l-455 1092h-12v-1102z" />
    <glyph glyph-name="Nugreek" unicode="&#x39d;" horiz-adv-x="1520" 
d="M362 0h-178v1443h175l783 -1123h16v1123h178v-1443h-175l-783 1119h-16v-1119z" />
    <glyph glyph-name="Xigreek" unicode="&#x39e;" horiz-adv-x="1343" 
d="M142 1276v167h1059v-167h-1059zM229 653v165h885v-165h-885zM142 0v167h1059v-167h-1059z" />
    <glyph glyph-name="Omicrongreek" unicode="&#x39f;" horiz-adv-x="1579" 
d="M792 1311q-220 0 -350 -159q-129 -159 -129 -430q-1 -270 127 -430t350 -160t349 160t127 431t-127 429t-347 159zM792 1477q306 1 482 -203t177 -552q-1 -348 -177 -552t-484 -204t-485 204t-177 552t178 552q180 204 486 203z" />
    <glyph glyph-name="Pigreek" unicode="&#x3a0;" horiz-adv-x="1500" 
d="M184 0v1443h1132v-1443h-180v1281h-772v-1281h-180z" />
    <glyph glyph-name="Rhogreek" unicode="&#x3a1;" horiz-adv-x="1301" 
d="M364 1283v-608h318q154 0 239 79t85 225t-84 225t-240 79h-318zM184 1443h545q205 -1 333 -131t129 -334q-1 -204 -131 -334t-333 -129h-363v-515h-180v1443z" />
    <glyph glyph-name="Sigmagreek" unicode="&#x3a3;" horiz-adv-x="1335" 
d="M144 0v132l419 593l-402 566v152h1012v-162h-779v-16l357 -511v-32l-379 -544v-16h819v-162h-1047z" />
    <glyph glyph-name="Taugreek" unicode="&#x3a4;" horiz-adv-x="1298" 
d="M739 0h-180v1281h-465v162h1110v-162h-465v-1281z" />
    <glyph glyph-name="Upsilongreek" unicode="&#x3a5;" horiz-adv-x="1344" 
d="M762 0h-180v621l-512 822h205l389 -641h16l389 641h205l-512 -822v-621z" />
    <glyph glyph-name="Phigreek" unicode="&#x3a6;" horiz-adv-x="1716" 
d="M1414 718q0 220 -126 342t-340 130v-944q214 8 340 130t126 342zM302 718q0 -220 126 -342t340 -130v944q-214 -8 -340 -130t-126 -342zM768 -58v143q-294 13 -472 183t-178 450t178 450t472 183v146h180v-146q294 -13 472 -183t178 -450t-178 -450t-472 -183v-143h-180z
" />
    <glyph glyph-name="Chigreek" unicode="&#x3a7;" horiz-adv-x="1390" 
d="M90 0l494 726l-488 717h217l380 -574h16l386 574h205l-500 -725l489 -718h-216l-378 569h-16l-385 -569h-204z" />
    <glyph glyph-name="Psigreek" unicode="&#x3a8;" horiz-adv-x="1676" 
d="M748 0v339q-260 1 -420 155t-159 404v545h180v-539q-1 -188 103 -292t296 -107v938h180v-938q192 3 296 107t103 292v539h180v-545q1 -251 -159 -405t-420 -154v-339h-180z" />
    <glyph glyph-name="Omegagreek" unicode="&#x3a9;" horiz-adv-x="1590" 
d="M135 0v162h311v16q-147 94 -229 257t-82 362q0 304 182 492t478 188t478 -188t182 -492q0 -199 -82 -362t-229 -257v-16h311v-162h-526v204q175 108 258 252t83 337q0 241 -127 379t-348 139q-221 -1 -348 -139t-127 -379q0 -193 83 -337t258 -252v-204h-526z" />
    <glyph glyph-name="Omegagreek" unicode="&#x2126;" horiz-adv-x="1590" 
d="M135 0v162h311v16q-147 94 -229 257t-82 362q0 304 182 492t478 188t478 -188t182 -492q0 -199 -82 -362t-229 -257v-16h311v-162h-526v204q175 108 258 252t83 337q0 241 -127 379t-348 139q-221 -1 -348 -139t-127 -379q0 -193 83 -337t258 -252v-204h-526z" />
    <glyph glyph-name="Iotadieresisgreek" unicode="&#x3aa;" horiz-adv-x="548" 
d="M476 1575q-50 -1 -86 35t-35 86q-1 50 35 86t86 35q50 1 86 -35t35 -86q1 -50 -35 -86t-86 -35zM72 1575q-50 -1 -86 35t-35 86q-1 50 35 86t86 35q50 1 86 -35t35 -86q1 -50 -35 -86t-86 -35zM364 0h-180v1443h180v-1443z" />
    <glyph glyph-name="Upsilondieresisgreek" unicode="&#x3ab;" horiz-adv-x="1344" 
d="M874 1575q-50 -1 -86 35t-35 86q-1 50 35 86t86 35q50 1 86 -35t35 -86q1 -50 -35 -86t-86 -35zM470 1575q-50 -1 -86 35t-35 86q-1 50 35 86t86 35q50 1 86 -35t35 -86q1 -50 -35 -86t-86 -35zM762 0h-180v621l-512 822h205l389 -641h16l389 641h205l-512 -822v-621z
" />
    <glyph glyph-name="alphatonosgreek" unicode="&#x3ac;" horiz-adv-x="1265" 
d="M477 1263l88 338h206l-135 -338h-159zM570 136q140 0 228 110t89 292q-1 182 -83 293t-222 111t-224 -108q-82 -108 -82 -294t78 -295q76 -109 216 -109zM1056 269q0 -128 79 -128q37 0 60 4v-145q-36 -10 -87 -10q-197 0 -217 190l-1 10h-16q-88 -209 -327 -209
q-203 0 -326 152q-123 151 -123 405t124 406t325 153q243 0 327 -219h16v200h166v-809z" />
    <glyph glyph-name="epsilontonosgreek" unicode="&#x3ad;" horiz-adv-x="1057" 
d="M480 1263l88 338h206l-135 -338h-159zM552 -21q-204 1 -324 87t-120 223q0 178 186 240v16q-166 67 -166 235q0 144 118 230t310 85q192 1 308 -81t140 -237h-174q-21 79 -93 121q-73 42 -187 42t-184 -44t-71 -118t61 -116t178 -43h153v-154h-153q-120 -1 -184 -45
t-64 -120t70 -120t190 -45q121 0 202 51t103 138h174q-17 -99 -83 -178t-169 -123q-102 -44 -221 -44z" />
    <glyph glyph-name="etatonosgreek" unicode="&#x3ae;" horiz-adv-x="1257" 
d="M473 1263l88 338h206l-135 -338h-159zM234 0v809q0 73 -22 101t-64 27q-40 0 -63 -4v145q36 10 109 10t130 -42q57 -41 73 -138h16q40 88 125 138t196 51q177 0 274 -104t97 -295v-1058h-172v1016q0 286 -248 286q-131 0 -205 -82t-74 -222v-638h-172z" />
    <glyph glyph-name="iotatonosgreek" unicode="&#x3af;" horiz-adv-x="614" 
d="M160 1263l88 338h206l-135 -338h-159zM460 -8q-162 0 -230 69t-68 221v796h172v-754q0 -94 37 -138t121 -43q21 0 62 4v-145q-47 -10 -94 -10z" />
    <glyph glyph-name="upsilondieresistonosgreek" unicode="&#x3b0;" horiz-adv-x="1135" 
d="M458 1263l37 338h196l-84 -338h-149zM894 1263q-50 -1 -86 35t-35 86q-1 50 35 86t86 35q50 1 86 -35t35 -86q1 -50 -35 -86t-86 -35zM232 1263q-50 -1 -86 35t-35 86q-1 50 35 86t86 35q50 1 86 -35t35 -86q1 -50 -35 -86t-86 -35zM581 -19q-205 1 -319 111t-114 323
v663h172v-654q0 -142 65 -214t186 -72t195 103t73 289q0 186 -20 292t-82 256h178q46 -94 74 -238t28 -283q1 -275 -115 -425t-321 -151z" />
    <glyph glyph-name="alphagreek" unicode="&#x3b1;" horiz-adv-x="1265" 
d="M570 136q140 0 228 110t89 292q-1 182 -83 293t-222 111t-224 -108q-82 -108 -82 -294t78 -295q76 -109 216 -109zM1056 269q0 -128 79 -128q37 0 60 4v-145q-36 -10 -87 -10q-197 0 -217 190l-1 10h-16q-88 -209 -327 -209q-203 0 -326 152q-123 151 -123 405t124 406
t325 153q243 0 327 -219h16v200h166v-809z" />
    <glyph glyph-name="betagreek" unicode="&#x3b2;" horiz-adv-x="1238" 
d="M610 1370q-276 0 -276 -359v-503q0 -170 94 -271t228 -101t215 84t81 222t-92 216t-270 77h-88v154h89q127 0 197 62t69 175q0 112 -68 178t-179 66zM162 -360v1389q0 235 116 365t316 131q200 0 318 -104t118 -281q0 -101 -54 -182t-150 -122v-16q148 -37 226 -135
t78 -249q0 -200 -126 -328t-323 -127q-119 0 -205 48t-126 133h-16v-522h-172z" />
    <glyph glyph-name="gammagreek" unicode="&#x3b3;" horiz-adv-x="1115" 
d="M992 880q0 -392 -392 -908v-322h-172v329l-356 1099h184l274 -921h16q273 381 273 723q0 115 -18 198h172q19 -97 19 -198z" />
    <glyph glyph-name="deltagreek" unicode="&#x3b4;" horiz-adv-x="1174" 
d="M586 132q140 0 226 102q87 102 87 269q-1 168 -91 274t-224 106t-225 -102q-90 -102 -90 -274q1 -171 89 -273t228 -102zM580 -19q-218 1 -353 143t-135 354t110 345q110 134 276 167v19q-111 59 -156 117t-45 140q1 118 103 188t256 71q212 0 333 -82v-152
q-163 83 -341 83q-86 0 -132 -30t-47 -81q0 -51 41 -89t171 -100q213 -102 314 -240t101 -329q0 -233 -139 -379t-357 -145z" />
    <glyph glyph-name="epsilongreek" unicode="&#x3b5;" horiz-adv-x="1057" 
d="M552 -19q-204 1 -324 87t-120 223q0 178 186 240v16q-166 67 -166 235q0 144 118 230t310 85q192 1 308 -81t140 -237h-174q-21 79 -93 121q-73 42 -187 42t-184 -44t-71 -118t61 -116t178 -43h153v-154h-153q-120 -1 -184 -45t-64 -120t70 -120t190 -45q121 0 202 51
t103 138h174q-17 -99 -83 -178t-169 -123q-102 -44 -221 -44z" />
    <glyph glyph-name="zetagreek" unicode="&#x3b6;" horiz-adv-x="919" 
d="M743 -130q1 74 -41 108t-174 79q-244 80 -342 198t-99 323q0 394 517 758v16h-430v154h711v-153q-322 -196 -471 -381t-149 -394q-1 -144 69 -224t256 -141t254 -127q67 -66 67 -188t-97 -259l-141 42q70 115 70 189z" />
    <glyph glyph-name="etagreek" unicode="&#x3b7;" horiz-adv-x="1257" 
d="M234 0v809q0 73 -22 101t-64 27q-40 0 -63 -4v145q36 10 109 10t130 -42q57 -41 73 -138h16q40 88 125 138t196 51q177 0 274 -104t97 -295v-1058h-172v1016q0 286 -248 286q-131 0 -205 -82t-74 -222v-638h-172z" />
    <glyph glyph-name="thetagreek" unicode="&#x3b8;" horiz-adv-x="1206" 
d="M603 136q152 0 231 130t87 420h-636q8 -290 87 -420t231 -130zM602 1370q-293 0 -316 -530h634q-12 276 -92 403t-226 127zM602 -19q-238 0 -366 198t-128 575t128 574t366 197t368 -196q128 -196 128 -575t-128 -576q-130 -197 -368 -197z" />
    <glyph glyph-name="iotagreek" unicode="&#x3b9;" horiz-adv-x="614" 
d="M460 -8q-162 0 -230 69t-68 221v796h172v-754q0 -94 37 -138t121 -43q21 0 62 4v-145q-47 -10 -94 -10z" />
    <glyph glyph-name="kappagreek" unicode="&#x3ba;" horiz-adv-x="1176" 
d="M162 0v1078h172v-539h16l315 370q89 103 151 141t128 38q65 0 101 -10v-145q-24 4 -70 4t-88 -28t-113 -112l-122 -145l431 -652h-195l-342 531l-212 -231v-300h-172z" />
    <glyph glyph-name="lambdagreek" unicode="&#x3bb;" horiz-adv-x="1136" 
d="M204 1374q-32 0 -62 -4v145q36 10 107 10t129 -32t104 -111t99 -234l306 -898q37 -109 122 -109q37 0 62 4v-145q-36 -10 -76 -10q-113 0 -169 47t-99 179l-192 585h-16l-308 -801h-186l430 1018l-36 98q-35 93 -55 139q-20 45 -47 75t-54 37t-59 7z" />
    <glyph glyph-name="nugreek" unicode="&#x3bd;" horiz-adv-x="1115" 
d="M819 881q0 110 -18 197h172q19 -98 19 -195q0 -384 -371 -883h-200l-349 1078h184l273 -922h16q274 387 274 725z" />
    <glyph glyph-name="xigreek" unicode="&#x3be;" horiz-adv-x="949" 
d="M744 -139q0 59 -16 87q-30 53 -237 121q-207 67 -305 159t-98 218q0 128 74 214t214 124v15q-119 47 -172 115t-53 165q-1 98 61 168t160 90v15h-217v154h731v-137l-103 -11q-250 -26 -359 -93t-109 -175t86 -159q86 -50 277 -50h135v-154h-138q-195 0 -303 -68
t-107 -183q1 -62 27 -104q51 -80 308 -162q180 -58 246 -126t66 -178q0 -68 -20 -124t-77 -143l-141 42q70 120 70 180z" />
    <glyph glyph-name="omicrongreek" unicode="&#x3bf;" horiz-adv-x="1160" 
d="M580 136q140 0 222 107t82 297t-82 296t-222 106t-222 -106t-82 -296t82 -297t222 -107zM580 -19q-218 0 -350 150q-132 151 -132 409t132 408t350 149q218 1 350 -149t132 -408t-132 -409q-132 -150 -350 -150z" />
    <glyph glyph-name="pigreek" unicode="&#x3c0;" horiz-adv-x="1373" 
d="M297 0v924h-227v154h1195v-154h-210v-655q0 -74 25 -101t69 -27t70 4v-145q-38 -10 -92 -10q-129 0 -184 66t-55 212v656h-424v-924h-167z" />
    <glyph glyph-name="rhogreek" unicode="&#x3c1;" horiz-adv-x="1218" 
d="M633 136q141 0 225 110t84 302q0 190 -82 292t-227 102q-144 0 -229 -112t-85 -294q0 -184 87 -292t227 -108zM152 -360v903q0 260 130 407t352 147t354 -147q132 -148 132 -404t-124 -410t-331 -155q-105 0 -193 48t-132 133h-16v-522h-172z" />
    <glyph glyph-name="sigmafinalgreek" unicode="&#x3c2;" horiz-adv-x="1106" 
d="M922 -102q0 -122 -97 -258l-141 42q70 115 70 187q0 71 -41 107t-176 82q-245 84 -342 196t-97 307q0 244 137 390t331 146q194 -1 308 -93t140 -256h-174q-28 98 -90 146t-182 48q-118 0 -205 -102t-87 -271q0 -79 15 -131t55 -93t100 -70q58 -29 156 -62
q184 -61 252 -127t68 -188z" />
    <glyph glyph-name="sigmagreek" unicode="&#x3c3;" horiz-adv-x="1297" 
d="M580 136q139 0 224 106t85 288q1 180 -87 286t-220 107q-132 -1 -220 -107q-86 -106 -86 -288t82 -286q82 -106 222 -106zM576 -19q-214 1 -346 151t-132 401t145 398t391 147h565v-154h-301v-16q74 -56 116 -156t43 -216q0 -249 -134 -402q-133 -153 -347 -153z" />
    <glyph glyph-name="taugreek" unicode="&#x3c4;" horiz-adv-x="1043" 
d="M718 -8q-171 0 -243 66t-72 223v643h-343v154h885v-154h-370v-600q0 -96 38 -138t126 -43q36 0 76 4v-145q-53 -10 -97 -10z" />
    <glyph glyph-name="upsilongreek" unicode="&#x3c5;" horiz-adv-x="1135" 
d="M581 -19q-205 1 -319 111t-114 323v663h172v-654q0 -142 65 -214t186 -72t195 103t73 289q0 186 -20 292t-82 256h178q46 -94 74 -238t28 -283q1 -275 -115 -425t-321 -151z" />
    <glyph glyph-name="phigreek" unicode="&#x3c6;" horiz-adv-x="1470" 
d="M272 544q0 -176 96 -286t284 -132v824q-176 -18 -278 -124t-102 -282zM1198 544q0 176 -102 282t-278 124v-824q188 22 284 132t96 286zM652 -360v342q-266 18 -410 169t-144 399t155 389t399 157v261h166v-261q243 -16 399 -157q155 -141 155 -389t-144 -399t-410 -169
v-342h-166z" />
    <glyph glyph-name="chigreek" unicode="&#x3c7;" horiz-adv-x="1096" 
d="M92 937q-36 0 -55 -4v145q36 10 80 10q94 0 147 -42t110 -158l180 -364h16l280 554h183l-395 -729l229 -458q55 -110 132 -110q34 0 57 4v-145q-36 -10 -102 -10t-119 38q-54 38 -103 136l-191 381h-16l-277 -545h-183l393 719l-231 466q-57 112 -135 112z" />
    <glyph glyph-name="psigreek" unicode="&#x3c8;" horiz-adv-x="1382" 
d="M609 -360v341q-217 7 -339 125t-122 312v660h172v-639q0 -141 78 -219t211 -82v1219h167v-1219q150 5 230 107t80 284q0 183 -23 303t-79 246h178q42 -87 72 -232t30 -273q0 -273 -132 -428t-356 -164v-341h-167z" />
    <glyph glyph-name="omegagreek" unicode="&#x3c9;" horiz-adv-x="1562" 
d="M485 -19q-173 0 -270 137t-97 388q0 164 48 318t129 254h188q-187 -251 -187 -570q0 -370 203 -370q86 0 141 77t55 205v349h172v-349q0 -126 55 -204t139 -78q205 0 205 370q0 319 -187 570h188q81 -100 129 -254t48 -318q0 -252 -96 -388t-271 -137q-201 0 -288 221
h-16q-87 -221 -288 -221z" />
    <glyph glyph-name="iotadieresisgreek" unicode="&#x3ca;" horiz-adv-x="614" 
d="M445 1228q-49 0 -85 36t-36 85t36 85t85 36t85 -36t36 -85t-36 -85t-85 -36zM41 1228q-49 0 -85 36t-36 85t36 85t85 36t85 -36t36 -85t-36 -85t-85 -36zM460 -8q-162 0 -230 69t-68 221v796h172v-754q0 -94 37 -138t121 -43q21 0 62 4v-145q-47 -10 -94 -10z" />
    <glyph glyph-name="upsilondieresisgreek" unicode="&#x3cb;" horiz-adv-x="1135" 
d="M757 1228q-49 0 -85 36t-36 85t36 85t85 36t85 -36t36 -85t-36 -85t-85 -36zM353 1228q-49 0 -85 36t-36 85t36 85t85 36t85 -36t36 -85t-36 -85t-85 -36zM581 -19q-205 1 -319 111t-114 323v663h172v-654q0 -142 65 -214t186 -72t195 103t73 289q0 186 -20 292t-82 256
h178q46 -94 74 -238t28 -283q1 -275 -115 -425t-321 -151z" />
    <glyph glyph-name="omicrontonosgreek" unicode="&#x3cc;" horiz-adv-x="1160" 
d="M480 1263l88 338h206l-135 -338h-159zM580 136q140 0 222 107t82 297t-82 296t-222 106t-222 -106t-82 -296t82 -297t222 -107zM580 -19q-218 0 -350 150q-132 151 -132 409t132 408t350 149q218 1 350 -149t132 -408t-132 -409q-132 -150 -350 -150z" />
    <glyph glyph-name="upsilontonosgreek" unicode="&#x3cd;" horiz-adv-x="1135" 
d="M454 1263l88 338h206l-135 -338h-159zM581 -19q-205 1 -319 111t-114 323v663h172v-654q0 -142 65 -214t186 -72t195 103t73 289q0 186 -20 292t-82 256h178q46 -94 74 -238t28 -283q1 -275 -115 -425t-321 -151z" />
    <glyph glyph-name="omegatonosgreek" unicode="&#x3ce;" horiz-adv-x="1562" 
d="M694 1263l88 338h206l-135 -338h-159zM485 -19q-173 0 -270 137t-97 388q0 164 48 318t129 254h188q-187 -251 -187 -570q0 -370 203 -370q86 0 141 77t55 205v349h172v-349q0 -126 55 -204t139 -78q205 0 205 370q0 319 -187 570h188q81 -100 129 -254t48 -318
q0 -252 -96 -388t-271 -137q-201 0 -288 221h-16q-87 -221 -288 -221z" />
    <glyph glyph-name="Iocyrillic" unicode="&#x401;" horiz-adv-x="1240" 
d="M843 1575q-49 -1 -85 35t-36 86t36 86t85 35q49 1 85 -35t36 -86t-36 -86t-85 -35zM439 1575q-49 -1 -85 35t-36 86t36 86t85 35q49 1 85 -35t36 -86t-36 -86t-85 -35zM1088 162v-162h-894v1443h894v-162h-714v-463h677v-160h-677v-496h714z" />
    <glyph glyph-name="Djecyrillic" unicode="&#x402;" horiz-adv-x="1719" 
d="M1159 -16q-72 0 -130 18v161q43 -16 145 -16q102 -1 174 75t73 218q-1 176 -135 260q-72 44 -158 45q-86 0 -146 -18q-103 -31 -157 -87q-53 -57 -76 -105v-535h-180v1281h-465v162h1110v-162h-465v-520h16q135 146 364 146t350 -137q122 -137 122 -335q0 -199 -119 -325
t-323 -126z" />
    <glyph glyph-name="Gjecyrillic" unicode="&#x403;" horiz-adv-x="1160" 
d="M477 1575l310 298h226l-332 -298h-204zM375 0h-181v1443h856v-164h-675v-1279z" />
    <glyph glyph-name="Ecyrillic" unicode="&#x404;" horiz-adv-x="1506" 
d="M785 -34q-299 0 -473 204t-174 552t174 552t472 203q232 -1 397 -131t197 -338h-183q-36 139 -147 221t-264 82q-190 1 -312 -131t-144 -361h640v-162h-643q15 -243 138 -384t322 -141q155 0 265 72t145 198h183q-36 -200 -198 -318t-395 -118z" />
    <glyph glyph-name="Dzecyrillic" unicode="&#x405;" horiz-adv-x="1325" 
d="M674 130q150 0 246 70t95 170q0 100 -70 160t-219 99l-185 48q-196 49 -285 142t-89 262q1 169 141 283t359 113q219 0 360 -112t152 -287h-181q-20 112 -106 174t-226 62t-226 -66q-88 -66 -88 -164q0 -97 64 -150t214 -91l151 -40q223 -56 321 -150t98 -253
q0 -198 -146 -316t-384 -118t-384 112t-161 299h182q17 -113 117 -180t250 -67z" />
    <glyph glyph-name="Icyrillic" unicode="&#x406;" horiz-adv-x="568" 
d="M374 0h-180v1443h180v-1443z" />
    <glyph glyph-name="Yicyrillic" unicode="&#x407;" horiz-adv-x="568" 
d="M486 1575q-50 -1 -86 35t-35 86q-1 50 35 86t86 35q50 1 86 -35t35 -86q1 -50 -35 -86t-86 -35zM82 1575q-50 -1 -86 35t-35 86q-1 50 35 86t86 35q50 1 86 -35t35 -86q1 -50 -35 -86t-86 -35zM374 0h-180v1443h180v-1443z" />
    <glyph glyph-name="Jecyrillic" unicode="&#x408;" horiz-adv-x="1122" 
d="M96 337h179q3 -91 67 -148t172 -57t172 70q62 70 62 201v1040h180v-1041q0 -206 -112 -321t-301 -115t-304 103t-115 268z" />
    <glyph glyph-name="Ljecyrillic" unicode="&#x409;" horiz-adv-x="2168" 
d="M1241 162h308q155 0 239 76t85 216q-1 140 -85 216t-239 76h-308v-584zM120 -9q-42 0 -70 10v161q22 -6 62 -6t76 20q68 37 95 132t35 239l52 896h871v-535h353q204 0 334 -127t130 -327t-130 -328q-130 -126 -332 -126h-535v1281h-527l-46 -741q-17 -275 -101 -412
t-267 -137z" />
    <glyph glyph-name="Njecyrillic" unicode="&#x40a;" horiz-adv-x="2243" 
d="M374 657v-657h-180v1443h180v-624h752v624h180v-624h353q204 0 334 -112q130 -113 130 -293q1 -180 -129 -297t-333 -117h-535v657h-752zM1306 162h308q156 0 240 67t84 185t-84 181q-84 62 -240 62h-308v-495z" />
    <glyph glyph-name="Tshecyrillic" unicode="&#x40b;" horiz-adv-x="1769" 
d="M1120 907q156 0 266 -68q216 -133 215 -432v-407h-180v395q1 159 -79 255t-251 95t-278 -117q-43 -46 -64 -93v-535h-180v1281h-465v162h1110v-162h-465v-518h16q133 144 355 144z" />
    <glyph glyph-name="Kjecyrillic" unicode="&#x40c;" horiz-adv-x="1369" 
d="M527 1575l310 298h226l-332 -298h-204zM384 809h42l606 634h226l-677 -695l735 -748h-238l-652 665h-42v-665h-180v1443h180v-634z" />
    <glyph glyph-name="Ushortcyrillic" unicode="&#x40e;" horiz-adv-x="1318" 
d="M319 1874h156q1 -80 53 -130t134 -50t134 50q53 50 53 130h156q0 -138 -94 -218t-250 -80t-249 80t-93 218zM339 -10q-57 0 -83 13v162q32 -8 96 -8q137 0 220 151l-493 1135h192l387 -935h16l378 935h187l-442 -1030q-99 -231 -183 -315q-108 -108 -275 -108z" />
    <glyph glyph-name="Dzhecyrillic" unicode="&#x40f;" horiz-adv-x="1519" 
d="M676 0h-482v1443h180v-1281h771v1281h180v-1443h-482v-285h-167v285z" />
    <glyph glyph-name="Acyrillic" unicode="&#x410;" horiz-adv-x="1400" 
d="M692 1210l-226 -644h468l-226 644h-16zM1132 0l-145 413h-574l-145 -413h-189l532 1443h178l532 -1443h-189z" />
    <glyph glyph-name="Becyrillic" unicode="&#x411;" horiz-adv-x="1301" 
d="M374 162h298q156 0 240 70t84 202q0 130 -84 201t-240 71h-298v-544zM1181 434q1 -192 -129 -313t-333 -121h-525v1443h843v-162h-663v-413h343q204 0 334 -122q130 -120 130 -312z" />
    <glyph glyph-name="Vecyrillic" unicode="&#x412;" horiz-adv-x="1366" 
d="M374 159h356q163 0 247 65t84 190q0 252 -348 252h-339v-507zM374 1284v-463h288q329 0 329 231q-1 110 -75 171t-208 61h-334zM757 0h-563v1443h552q198 0 312 -97t115 -263q-1 -112 -73 -202t-176 -109v-16q148 -20 235 -114t87 -237q0 -191 -130 -298t-359 -107z" />
    <glyph glyph-name="Gecyrillic" unicode="&#x413;" horiz-adv-x="1160" 
d="M375 0h-181v1443h856v-164h-675v-1279z" />
    <glyph glyph-name="Decyrillic" unicode="&#x414;" horiz-adv-x="1500" 
d="M207 0v-285h-167v447h107q75 40 111 132t44 241l55 908h893v-1281h180v-447h-167v285h-1056zM370 162h700v1119h-552l-47 -750q-7 -133 -29 -215t-72 -142v-12z" />
    <glyph glyph-name="Iecyrillic" unicode="&#x415;" horiz-adv-x="1240" 
d="M1088 162v-162h-894v1443h894v-162h-714v-463h677v-160h-677v-496h714z" />
    <glyph glyph-name="Zhecyrillic" unicode="&#x416;" horiz-adv-x="2089" 
d="M953 806v637h180v-637h42l566 637h221l-638 -695l697 -748h-234l-612 667h-42v-667h-180v667h-42l-612 -667h-231l694 744l-640 699h223l566 -637h42z" />
    <glyph glyph-name="Zecyrillic" unicode="&#x417;" horiz-adv-x="1256" 
d="M416 657v160h195q127 1 209 73t81 184q0 112 -76 177q-77 66 -211 66q-134 -1 -216 -65t-94 -179h-175q13 188 145 296t341 108q209 -1 339 -109t130 -277q0 -119 -72 -211t-186 -120v-16q142 -16 231 -110t89 -258t-150 -288q-150 -122 -374 -122t-368 112t-154 298h174
q12 -114 108 -182t245 -68q150 0 242 75t92 195t-90 191q-90 70 -252 70h-203z" />
    <glyph glyph-name="Iicyrillic" unicode="&#x418;" horiz-adv-x="1540" 
d="M1168 0v1148h-16l-780 -1148h-178v1443h178v-1152h16l780 1152h178v-1443h-178z" />
    <glyph glyph-name="Iishortcyrillic" unicode="&#x419;" horiz-adv-x="1540" 
d="M422 1874h156q0 -80 52 -130t134 -50t135 50t53 130h156q0 -138 -94 -218t-250 -80t-249 80t-93 218zM1168 0v1148h-16l-780 -1148h-178v1443h178v-1152h16l780 1152h178v-1443h-178z" />
    <glyph glyph-name="Kacyrillic" unicode="&#x41a;" horiz-adv-x="1374" 
d="M374 809h42l606 634h226l-677 -695l735 -748h-238l-652 665h-42v-665h-180v1443h180v-634z" />
    <glyph glyph-name="Elcyrillic" unicode="&#x41b;" horiz-adv-x="1425" 
d="M1231 0h-180v1281h-527l-46 -741q-17 -275 -101 -412t-267 -137q-42 0 -70 10v161q22 -6 62 -6t76 20q68 37 95 132t35 239l52 896h871v-1443z" />
    <glyph glyph-name="Emcyrillic" unicode="&#x41c;" horiz-adv-x="1810" 
d="M362 0h-168v1443h209l494 -1194h16l494 1194h209v-1443h-168v1102h-12l-455 -1092h-152l-455 1092h-12v-1102z" />
    <glyph glyph-name="Encyrillic" unicode="&#x41d;" horiz-adv-x="1540" 
d="M1346 0h-180v657h-792v-657h-180v1443h180v-624h792v624h180v-1443z" />
    <glyph glyph-name="Ocyrillic" unicode="&#x41e;" horiz-adv-x="1599" 
d="M802 1311q-220 0 -350 -159q-129 -159 -129 -430q-1 -270 127 -430t350 -160t349 160t127 431t-127 429t-347 159zM802 1477q306 1 482 -203t177 -552q-1 -348 -177 -552t-484 -204t-485 204t-177 552t178 552q180 204 486 203z" />
    <glyph glyph-name="Pecyrillic" unicode="&#x41f;" horiz-adv-x="1519" 
d="M1325 0h-178v1279h-772v-1279h-181v1443h1131v-1443z" />
    <glyph glyph-name="Ercyrillic" unicode="&#x420;" horiz-adv-x="1321" 
d="M374 1283v-608h318q154 0 239 79t85 225t-84 225t-240 79h-318zM194 1443h545q205 -1 333 -131t129 -334q-1 -204 -131 -334t-333 -129h-363v-515h-180v1443z" />
    <glyph glyph-name="Escyrillic" unicode="&#x421;" horiz-adv-x="1506" 
d="M775 -34q-293 0 -465 203t-172 552t171 553t465 203q228 0 390 -130t194 -339h-183q-36 140 -144 222t-257 81q-208 0 -330 -159t-121 -431q0 -273 122 -431t330 -158q151 0 259 72t141 198h183q-36 -200 -194 -318t-389 -118z" />
    <glyph glyph-name="Tecyrillic" unicode="&#x422;" horiz-adv-x="1318" 
d="M749 0h-180v1281h-465v162h1110v-162h-465v-1281z" />
    <glyph glyph-name="Ucyrillic" unicode="&#x423;" horiz-adv-x="1318" 
d="M339 -10q-57 0 -83 13v162q32 -8 96 -8q137 0 220 151l-493 1135h192l387 -935h16l378 935h187l-442 -1030q-99 -231 -183 -315q-108 -108 -275 -108z" />
    <glyph glyph-name="Efcyrillic" unicode="&#x424;" horiz-adv-x="1700" 
d="M123 727q1 271 175 429t463 166v141h178v-141q289 -6 463 -166t174 -430t-174 -428t-463 -167v-151h-178v151q-290 7 -464 167t-174 429zM1394 726q0 196 -122 312t-333 123v-869q209 8 332 124t123 310zM305 727q1 -195 123 -311t333 -124v869q-209 -7 -333 -123
t-123 -311z" />
    <glyph glyph-name="Xacyrillic" unicode="&#x425;" horiz-adv-x="1410" 
d="M100 0l494 726l-488 717h217l380 -574h16l386 574h205l-500 -725l489 -718h-216l-378 569h-16l-385 -569h-204z" />
    <glyph glyph-name="Tsecyrillic" unicode="&#x426;" horiz-adv-x="1576" 
d="M1506 -285h-167v285h-1145v1443h180v-1281h772v1281h180v-1281h180v-447z" />
    <glyph glyph-name="Checyrillic" unicode="&#x427;" horiz-adv-x="1420" 
d="M1226 0h-180v680h-16q-139 -144 -380 -144t-378 152q-138 152 -138 378v377h180v-365q0 -168 90 -272t242 -104t255 62q102 62 145 154v525h180v-1443z" />
    <glyph glyph-name="Shacyrillic" unicode="&#x428;" horiz-adv-x="1972" 
d="M194 0v1443h180v-1281h522v1281h180v-1281h522v1281h180v-1443h-1584z" />
    <glyph glyph-name="Shchacyrillic" unicode="&#x429;" horiz-adv-x="2028" 
d="M1958 -285h-167v285h-1597v1443h180v-1281h522v1281h180v-1281h522v1281h180v-1281h180v-447z" />
    <glyph glyph-name="Hardsigncyrillic" unicode="&#x42a;" horiz-adv-x="1531" 
d="M604 162h308q156 0 240 76t84 216t-84 216t-240 76h-308v-584zM959 0h-535v1281h-330v162h510v-535h353q204 0 334 -127t130 -327q1 -200 -129 -328q-130 -126 -333 -126z" />
    <glyph glyph-name="Yericyrillic" unicode="&#x42b;" horiz-adv-x="1758" 
d="M1564 0h-180v1443h180v-1443zM374 162h308q156 0 240 76t84 216t-84 216t-240 76h-308v-584zM194 0v1443h180v-535h353q204 0 334 -127t130 -327q1 -200 -129 -328q-130 -126 -333 -126h-535z" />
    <glyph glyph-name="Softsigncyrillic" unicode="&#x42c;" horiz-adv-x="1311" 
d="M374 162h308q156 0 240 76t84 216t-84 216t-240 76h-308v-584zM194 0v1443h180v-535h353q204 0 334 -127t130 -327q1 -200 -129 -328q-130 -126 -333 -126h-535z" />
    <glyph glyph-name="Ereversedcyrillic" unicode="&#x42d;" horiz-adv-x="1506" 
d="M728 -34q-236 0 -400 118t-200 318h183q35 -126 147 -198t270 -72q196 0 317 140t136 385h-643v162h641q-22 231 -141 361t-309 131q-156 0 -269 -82t-149 -221h-183q32 208 199 338t402 131q295 0 467 -203q172 -204 172 -552t-172 -552t-468 -204z" />
    <glyph glyph-name="IUcyrillic" unicode="&#x42e;" horiz-adv-x="2079" 
d="M1291 1311q-216 0 -342 -159t-126 -430q1 -270 125 -430t342 -160t342 160t124 431t-124 429t-341 159zM1298 -34q-296 0 -469 186q-172 186 -189 505h-266v-657h-180v1443h180v-624h268q26 306 198 482t462 176q290 1 465 -203q174 -204 174 -552q1 -348 -173 -552
t-470 -204z" />
    <glyph glyph-name="IAcyrillic" unicode="&#x42f;" horiz-adv-x="1376" 
d="M185 1000q-1 196 129 320t333 123h535v-1443h-180v555h-280l-398 -555h-214l414 577q-154 35 -246 149t-93 274zM1002 717v564h-308q-156 0 -240 -73q-84 -72 -84 -208t84 -210t240 -73h308z" />
    <glyph glyph-name="acyrillic" unicode="&#x430;" horiz-adv-x="1150" 
d="M472 -19q-160 -1 -262 87t-102 233t102 227t291 93l311 19v98q0 100 -62 153t-170 53q-217 0 -255 -134h-174q17 129 133 208t302 79q184 0 291 -95t107 -264v-738h-164v159h-16q-52 -86 -138 -132t-194 -46zM522 132q114 0 202 77t88 193v99l-290 -19q-122 -8 -179 -51
t-57 -125t61 -128t175 -46z" />
    <glyph glyph-name="becyrillic" unicode="&#x431;" horiz-adv-x="1240" 
d="M646 1056q216 0 346 -142t130 -390q0 -250 -134 -396t-373 -147q-237 1 -367 163t-130 488q0 482 167 665q128 140 377 152l108 5q148 8 248 44q32 12 33 14v-154q-25 -22 -102 -41t-171 -23l-110 -5q-210 -10 -294 -118t-109 -314h16q52 91 144 145t221 54zM620 136
q156 0 240 103t84 285t-84 280t-240 98t-240 -98t-84 -280t84 -285t240 -103z" />
    <glyph glyph-name="vecyrillic" unicode="&#x432;" horiz-adv-x="1122" 
d="M171 0v1078h457q151 0 237 -74t86 -202q-1 -80 -51 -146t-125 -81v-16q102 -15 163 -83t61 -166q0 -142 -98 -226t-271 -84h-459zM828 313q0 173 -235 173h-250v-342h283q98 0 150 44t52 125zM606 934h-263v-304h235q203 0 203 154q1 70 -43 110t-132 40z" />
    <glyph glyph-name="gecyrillic" unicode="&#x433;" horiz-adv-x="951" 
d="M861 934h-518v-934h-172v1078h690v-144z" />
    <glyph glyph-name="decyrillic" unicode="&#x434;" horiz-adv-x="1256" 
d="M196 -285h-162v429h90q110 73 128 333l42 601h735v-934h172v-429h-162v285h-843v-285zM857 144v790h-409l-34 -461q-17 -218 -89 -313v-16h532z" />
    <glyph glyph-name="iecyrillic" unicode="&#x435;" horiz-adv-x="1190" 
d="M604 -19q-224 1 -355 151t-131 406t132 407q132 152 352 152t345 -145t125 -397v-66h-775v-8q7 -160 91 -254t220 -94q209 0 278 146h172q-38 -140 -158 -219t-296 -79zM602 945q-128 0 -212 -87q-83 -87 -93 -230h594q-3 143 -82 230t-207 87z" />
    <glyph glyph-name="zhecyrillic" unicode="&#x436;" horiz-adv-x="1639" 
d="M734 624v454h168v-454h54l387 454h206l-456 -506l478 -572h-218l-397 494h-54v-494h-168v494h-54l-397 -494h-215l475 568l-459 510h209l387 -454h54z" />
    <glyph glyph-name="zecyrillic" unicode="&#x437;" horiz-adv-x="1069" 
d="M539 -18q-183 0 -299 80t-130 214h177q17 -71 81 -110t173 -39t174 50t65 137q0 174 -247 174h-163v144h163q206 0 206 161q0 72 -52 115q-51 43 -151 43t-163 -39t-74 -104h-170q17 133 126 211t283 78q174 1 272 -79t99 -212q-1 -81 -49 -145t-126 -82v-16
q106 -23 162 -87t55 -158q0 -150 -115 -243t-297 -93z" />
    <glyph glyph-name="iicyrillic" unicode="&#x438;" horiz-adv-x="1239" 
d="M171 0v1078h172v-804h16l537 804h172v-1078h-172v804h-16l-537 -804h-172z" />
    <glyph glyph-name="iishortcyrillic" unicode="&#x439;" horiz-adv-x="1239" 
d="M262 1556h156q0 -86 51 -148t135 -62t136 62t52 148h156q0 -140 -96 -234t-248 -94t-247 93t-95 235zM171 0v1078h172v-804h16l537 804h172v-1078h-172v804h-16l-537 -804h-172z" />
    <glyph glyph-name="kacyrillic" unicode="&#x43a;" horiz-adv-x="1113" 
d="M343 627h47l427 451h209l-494 -508l513 -570h-223l-432 491h-47v-491h-172v1078h172v-451z" />
    <glyph glyph-name="elcyrillic" unicode="&#x43b;" horiz-adv-x="1184" 
d="M104 152q76 0 114 82t48 243l42 601h705v-1078h-172v934h-377l-34 -461q-22 -293 -114 -399q-72 -83 -188 -83q-52 0 -78 11v158q24 -8 54 -8z" />
    <glyph glyph-name="emcyrillic" unicode="&#x43c;" horiz-adv-x="1541" 
d="M343 0h-172v1078h209l386 -836h16l387 836h201v-1078h-173v767h-19l-341 -737h-134l-341 737h-19v-767z" />
    <glyph glyph-name="encyrillic" unicode="&#x43d;" horiz-adv-x="1224" 
d="M171 0v1078h172v-446h538v446h172v-1078h-172v488h-538v-488h-172z" />
    <glyph glyph-name="ocyrillic" unicode="&#x43e;" horiz-adv-x="1230" 
d="M615 -19q-229 -1 -363 149t-134 410t133 408q133 149 364 149t364 -149q133 -148 133 -408t-134 -410t-363 -149zM615 136q153 0 236 106t83 297t-83 297t-236 106t-236 -106t-83 -297t83 -297t236 -106z" />
    <glyph glyph-name="pecyrillic" unicode="&#x43f;" horiz-adv-x="1214" 
d="M871 0v934h-528v-934h-172v1078h872v-1078h-172z" />
    <glyph glyph-name="ercyrillic" unicode="&#x440;" horiz-adv-x="1267" 
d="M656 136q147 0 231 107t84 296q1 189 -83 296t-231 107t-233 -108t-86 -294t86 -295t232 -109zM696 1097q206 0 330 -152q124 -151 123 -405q0 -254 -124 -406t-329 -153q-115 -1 -204 47t-133 134h-16v-522h-172v1438h164v-180h16q51 93 143 146t202 53z" />
    <glyph glyph-name="escyrillic" unicode="&#x441;" horiz-adv-x="1166" 
d="M612 942q-144 0 -230 -108t-86 -292t86 -296q86 -110 230 -110q110 0 182 49t96 140h174q-24 -153 -143 -249t-308 -95q-227 1 -361 153t-134 406t134 406q134 151 360 151q188 0 308 -99t144 -250h-174q-22 86 -94 140t-184 54z" />
    <glyph glyph-name="tecyrillic" unicode="&#x442;" horiz-adv-x="1032" 
d="M952 1078v-144h-350v-934h-172v934h-350v144h872z" />
    <glyph glyph-name="ucyrillic" unicode="&#x443;" horiz-adv-x="1132" 
d="M264 -390q-41 0 -77 6v147q27 -5 87 -5t104 40t79 137l20 64l-399 1079h186l296 -887h16l295 887h183l-421 -1144q-69 -188 -147 -256t-222 -68z" />
    <glyph glyph-name="efcyrillic" unicode="&#x444;" horiz-adv-x="1515" 
d="M118 540q0 248 152 398t404 153v352h168v-352q251 -5 403 -155t152 -398t-152 -398t-403 -153v-347h-168v347q-252 5 -404 155t-152 398zM1222 538q0 184 -102 292t-278 112v-806q176 4 278 112q102 106 102 290zM293 540q1 -184 103 -292t278 -112v806
q-176 -4 -278 -112q-102 -106 -103 -290z" />
    <glyph glyph-name="hacyrillic" unicode="&#x445;" horiz-adv-x="1096" 
d="M554 407h-16l-256 -407h-195l369 539l-373 539h205l256 -401h16l253 401h195l-366 -532l371 -546h-204z" />
    <glyph glyph-name="tsecyrillic" unicode="&#x446;" horiz-adv-x="1260" 
d="M1205 -285h-162v285h-872v1078h172v-934h518v934h172v-934h172v-429z" />
    <glyph glyph-name="checyrillic" unicode="&#x447;" horiz-adv-x="1164" 
d="M993 0h-172v486h-16q-123 -102 -290 -102t-265 106t-99 280v308h172v-308q0 -108 56 -170t157 -63q152 0 252 98q20 19 33 38v405h172v-1078z" />
    <glyph glyph-name="shacyrillic" unicode="&#x448;" horiz-adv-x="1674" 
d="M171 0v1078h172v-934h408v934h172v-934h408v934h172v-1078h-1332z" />
    <glyph glyph-name="shchacyrillic" unicode="&#x449;" horiz-adv-x="1730" 
d="M1675 -285h-162v285h-1342v1078h172v-934h408v934h172v-934h408v934h172v-934h172v-429z" />
    <glyph glyph-name="hardsigncyrillic" unicode="&#x44a;" horiz-adv-x="1237" 
d="M745 588h-203v-444h203q105 0 169 60t64 162t-64 162t-169 60zM745 0h-375v934h-290v144h462v-346h203q185 0 295 -99t110 -267t-110 -267t-295 -99z" />
    <glyph glyph-name="yericyrillic" unicode="&#x44b;" horiz-adv-x="1427" 
d="M171 0v1078h172v-346h203q185 0 295 -99t110 -267t-110 -267t-295 -99h-375zM546 588h-203v-444h203q106 0 170 60t63 162q1 102 -63 162t-170 60zM1084 0v1078h172v-1078h-172z" />
    <glyph glyph-name="softsigncyrillic" unicode="&#x44c;" horiz-adv-x="1048" 
d="M171 0v1078h172v-346h203q185 0 295 -99t110 -267t-110 -267t-295 -99h-375zM546 588h-203v-444h203q106 0 170 60t63 162q1 102 -63 162t-170 60z" />
    <glyph glyph-name="ereversedcyrillic" unicode="&#x44d;" horiz-adv-x="1182" 
d="M284 326q50 -189 293 -189q123 0 210 95t98 253h-502v144h499q-15 143 -102 228q-88 85 -208 85t-193 -54t-95 -140h-174q24 151 144 250t311 99q227 0 363 -151q136 -152 136 -406t-136 -406t-364 -152q-190 0 -310 96t-144 248h174z" />
    <glyph glyph-name="iucyrillic" unicode="&#x44e;" horiz-adv-x="1630" 
d="M1025 136q149 0 229 106t80 297t-80 297t-229 106t-229 -106t-80 -297t80 -297t229 -106zM1031 -19q-220 0 -349 135t-143 372h-196v-488h-172v1078h172v-446h200q23 219 151 342t342 123q216 0 346 -149q130 -148 130 -408t-130 -410t-351 -149z" />
    <glyph glyph-name="iacyrillic" unicode="&#x44f;" horiz-adv-x="1088" 
d="M745 0v386h-185l-275 -386h-205l301 418q-114 32 -179 112t-65 191q-1 165 109 261t296 96h375v-1078h-172zM542 530h203v404h-203q-107 0 -170 -56t-63 -147q0 -93 64 -147t169 -54z" />
    <glyph glyph-name="iocyrillic" unicode="&#x451;" horiz-adv-x="1190" 
d="M806 1228q-50 0 -86 36t-35 85q-1 49 35 85t86 36t86 -36t35 -85q1 -49 -35 -85t-86 -36zM402 1228q-50 0 -86 36t-35 85q-1 49 35 85t86 36t86 -36t35 -85q1 -49 -35 -85t-86 -36zM604 -19q-224 1 -355 151t-131 406t132 407q132 152 352 152t345 -145t125 -397v-66
h-775v-8q7 -160 91 -254t220 -94q209 0 278 146h172q-38 -140 -158 -219t-296 -79zM602 945q-128 0 -212 -87q-83 -87 -93 -230h594q-3 143 -82 230t-207 87z" />
    <glyph glyph-name="djecyrillic" unicode="&#x452;" horiz-adv-x="1236" 
d="M702 1097q172 1 272 -105t100 -294v-754q0 -164 -80 -239t-250 -75h-30v147h26q90 0 126 38t36 129v712q0 286 -249 286q-143 0 -221 -82t-78 -222v-638h-172v1277h-144v124h144v105h172v-105h260v-124h-260v-369h16q85 189 332 189z" />
    <glyph glyph-name="gjecyrillic" unicode="&#x453;" horiz-adv-x="951" 
d="M388 1263l252 338h220l-278 -338h-194zM871 934h-518v-934h-172v1078h690v-144z" />
    <glyph glyph-name="ecyrillic" unicode="&#x454;" horiz-adv-x="1166" 
d="M613 -18q-227 0 -361 152t-134 406t134 406q134 151 360 151q188 0 308 -99t144 -250h-174q-22 86 -94 140t-192 54t-204 -84t-100 -226h491v-144h-494q8 -161 94 -256t208 -95q241 0 291 189h174q-24 -152 -143 -248t-308 -96z" />
    <glyph glyph-name="dzecyrillic" unicode="&#x455;" horiz-adv-x="1092" 
d="M147 792q0 125 115 215q116 90 286 90t280 -78t127 -211h-170q-17 66 -79 104t-158 39q-96 0 -162 -45t-66 -108q0 -64 46 -100t141 -59l166 -40q153 -37 227 -107t74 -185q0 -143 -123 -235t-306 -91q-183 0 -298 80t-129 214h177q22 -69 87 -109t170 -40t175 47t70 121
q0 110 -171 152l-185 45q-153 37 -223 107t-71 194z" />
    <glyph glyph-name="icyrillic" unicode="&#x456;" horiz-adv-x="524" 
d="M262 1297q-50 -1 -85 35t-35 85t35 85t85 35q50 1 85 -35t35 -85t-35 -85t-85 -35zM176 0v1078h172v-1078h-172z" />
    <glyph glyph-name="yicyrillic" unicode="&#x457;" horiz-adv-x="536" 
d="M166 0v1078h172v-1078h-172zM450 1298q-50 0 -86 36t-35 85q-1 49 35 85t86 36t86 -36t35 -85q1 -49 -35 -85t-86 -36zM86 1298q-50 0 -86 36t-35 85q-1 49 35 85t86 36t86 -36t35 -85q1 -49 -35 -85t-86 -36z" />
    <glyph glyph-name="jecyrillic" unicode="&#x458;" horiz-adv-x="524" 
d="M262 1297q-50 -1 -85 35t-35 85t35 85t85 35q50 1 85 -35t35 -85t-35 -85t-85 -35zM348 1078v-1131q0 -165 -80 -241t-250 -76h-30v147h26q90 0 126 38t36 129v1134h172z" />
    <glyph glyph-name="ljecyrillic" unicode="&#x459;" horiz-adv-x="1728" 
d="M1226 588h-203v-444h203q106 0 170 60t63 162q1 102 -63 162t-170 60zM114 152q76 0 114 82t48 243l42 601h705v-346h203q185 0 295 -99t110 -267t-110 -267t-295 -99h-375v934h-377l-34 -461q-22 -293 -114 -399q-72 -84 -188 -83q-52 0 -78 11v158q24 -8 54 -8z" />
    <glyph glyph-name="njecyrillic" unicode="&#x45a;" horiz-adv-x="1738" 
d="M861 0v508h-518v-508h-172v1078h172v-426h518v426h172v-426h213q181 0 288 -88t107 -238t-107 -238t-288 -88h-385zM1246 508h-213v-364h213q102 0 162 50t61 132q0 82 -61 132t-162 50z" />
    <glyph glyph-name="tshecyrillic" unicode="&#x45b;" horiz-adv-x="1236" 
d="M702 1097q172 1 272 -105t100 -294v-698h-172v656q0 286 -249 286q-143 0 -221 -82t-78 -222v-638h-172v1277h-144v124h144v105h172v-105h260v-124h-260v-369h16q85 189 332 189z" />
    <glyph glyph-name="kjecyrillic" unicode="&#x45c;" horiz-adv-x="1113" 
d="M438 1263l252 338h220l-278 -338h-194zM343 627h47l427 451h209l-494 -508l513 -570h-223l-432 491h-47v-491h-172v1078h172v-451z" />
    <glyph glyph-name="ushortcyrillic" unicode="&#x45e;" horiz-adv-x="1132" 
d="M232 1556h156q0 -86 51 -148t135 -62t136 62t52 148h156q0 -140 -96 -234t-248 -94t-247 93t-95 235zM264 -390q-41 0 -77 6v147q27 -5 87 -5t104 40t79 137l20 64l-399 1079h186l296 -887h16l295 887h183l-421 -1144q-69 -188 -147 -256t-222 -68z" />
    <glyph glyph-name="dzhecyrillic" unicode="&#x45f;" horiz-adv-x="1214" 
d="M1043 0h-355v-285h-162v285h-355v1078h172v-934h528v934h172v-1078z" />
    <glyph glyph-name="Geupturncyrillic" unicode="&#x490;" horiz-adv-x="1160" 
d="M375 1279v-1279h-181v1443h689v285h167v-449h-675z" />
    <glyph glyph-name="geupturncyrillic" unicode="&#x491;" horiz-adv-x="951" 
d="M861 934h-518v-934h-172v1078h528v285h162v-429z" />
    <glyph glyph-name="baht" unicode="&#xe3f;" horiz-adv-x="1328" 
d="M1160 405q0 -191 -130 -298t-359 -107h-7v-137h-134v137h-362v1443h362v157h134v-157q197 -1 310 -97t113 -263q-1 -112 -73 -202t-176 -109v-16q148 -20 235 -114t87 -237zM905 1052q0 101 -63 161t-178 69v-456q241 29 241 226zM348 1284v-463h182v463h-182zM348 159
h182v507h-182v-507zM975 414q0 237 -311 251v-506q311 10 311 255z" />
    <glyph glyph-name="Aringbelow" unicode="&#x1e00;" horiz-adv-x="1380" 
d="M690 -467q52 0 87 35t35 88t-35 88t-87 35t-87 -35t-35 -88t35 -88t87 -35zM690 -573q-96 1 -164 67t-68 162t68 162t164 67q96 -1 164 -67t68 -162t-68 -162t-164 -67zM682 1210l-226 -644h468l-226 644h-16zM1122 0l-145 413h-574l-145 -413h-189l532 1443h178
l532 -1443h-189z" />
    <glyph glyph-name="aringbelow" unicode="&#x1e01;" horiz-adv-x="1130" 
d="M536 -467q52 0 87 35t35 88t-35 88t-87 35t-87 -35t-35 -88t35 -88t87 -35zM536 -573q-96 1 -164 67t-68 162t68 162t164 67q96 -1 164 -67t68 -162t-68 -162t-164 -67zM462 -19q-160 -1 -262 87t-102 233t102 227t291 93l311 19v98q0 100 -62 153t-170 53
q-217 0 -255 -134h-174q17 129 133 208t302 79q184 0 291 -95t107 -264v-738h-164v159h-16q-52 -86 -138 -132t-194 -46zM512 132q114 0 202 77t88 193v99l-290 -19q-122 -8 -179 -51t-57 -125t61 -128t175 -46z" />
    <glyph glyph-name="Bdotaccent" unicode="&#x1e02;" horiz-adv-x="1346" 
d="M604 1575q-50 -1 -86 35t-35 86q-1 50 35 86t86 35q50 1 86 -35t35 -86q1 -50 -35 -86t-86 -35zM364 159h356q163 0 247 65t84 190q0 252 -348 252h-339v-507zM364 1284v-463h288q329 0 329 231q-1 110 -75 171t-208 61h-334zM747 0h-563v1443h552q198 0 312 -97
t115 -263q-1 -112 -73 -202t-176 -109v-16q148 -20 235 -114t87 -237q0 -191 -130 -298t-359 -107z" />
    <glyph glyph-name="bdotaccent" unicode="&#x1e03;" horiz-adv-x="1258" 
d="M258 1638q-50 0 -86 36t-35 85q-1 49 35 85t86 36t86 -36t35 -85q1 -49 -35 -85t-86 -36zM658 942q-148 0 -232 -108q-86 -108 -86 -295t86 -295t232 -108q148 0 231 107t83 296t-83 296t-231 107zM698 -19q-112 1 -204 51t-142 140h-16v-172h-164v1506h172v-598h16
q44 87 136 138t202 51q206 0 329 -152q123 -151 123 -405t-124 -406t-328 -153z" />
    <glyph glyph-name="Bdotbelow" unicode="&#x1e04;" horiz-adv-x="1346" 
d="M605 -402q-49 0 -85 36t-36 85t36 85t85 36t85 -36t36 -85t-36 -85t-85 -36zM364 159h356q163 0 247 65t84 190q0 252 -348 252h-339v-507zM364 1284v-463h288q329 0 329 231q-1 110 -75 171t-208 61h-334zM747 0h-563v1443h552q198 0 312 -97t115 -263q-1 -112 -73 -202
t-176 -109v-16q148 -20 235 -114t87 -237q0 -191 -130 -298t-359 -107z" />
    <glyph glyph-name="bdotbelow" unicode="&#x1e05;" horiz-adv-x="1258" 
d="M661 -402q-49 0 -85 36t-36 85t36 85t85 36t85 -36t36 -85t-36 -85t-85 -36zM658 942q-148 0 -232 -108q-86 -108 -86 -295t86 -295t232 -108q148 0 231 107t83 296t-83 296t-231 107zM698 -19q-112 1 -204 51t-142 140h-16v-172h-164v1506h172v-598h16q44 87 136 138
t202 51q206 0 329 -152q123 -151 123 -405t-124 -406t-328 -153z" />
    <glyph glyph-name="Blinebelow" unicode="&#x1e06;" horiz-adv-x="1346" 
d="M942 -348h-674v136h674v-136zM364 159h356q163 0 247 65t84 190q0 252 -348 252h-339v-507zM364 1284v-463h288q329 0 329 231q-1 110 -75 171t-208 61h-334zM747 0h-563v1443h552q198 0 312 -97t115 -263q-1 -112 -73 -202t-176 -109v-16q148 -20 235 -114t87 -237
q0 -191 -130 -298t-359 -107z" />
    <glyph glyph-name="blinebelow" unicode="&#x1e07;" horiz-adv-x="1258" 
d="M998 -348h-674v136h674v-136zM658 942q-148 0 -232 -108q-86 -108 -86 -295t86 -295t232 -108q148 0 231 107t83 296t-83 296t-231 107zM698 -19q-112 1 -204 51t-142 140h-16v-172h-164v1506h172v-598h16q44 87 136 138t202 51q206 0 329 -152q123 -151 123 -405
t-124 -406t-328 -153z" />
    <glyph glyph-name="Ccedillaacute" unicode="&#x1e08;" horiz-adv-x="1466" 
d="M764 1311q-208 0 -330 -159t-121 -431q0 -273 122 -431t330 -158q151 0 259 72t141 198h183q-32 -182 -170 -298t-342 -135l-43 -111q103 0 159 -43t56 -124t-66 -133t-164 -52t-160 18v108q48 -14 122 -14q119 0 119 73q0 35 -35 50t-114 15h-59v84l51 129
q-266 23 -420 223t-154 539t171 543t465 203q228 0 390 -130t194 -339h-183q-36 140 -144 222t-257 81zM1194 1875l-332 -298h-204l310 298h226z" />
    <glyph glyph-name="ccedillaacute" unicode="&#x1e09;" horiz-adv-x="1146" 
d="M602 942q-144 0 -230 -108t-86 -292t86 -296q86 -110 230 -110q110 0 182 49t96 140h174q-22 -136 -120 -228t-253 -111l-49 -128q102 0 158 -43t57 -124t-65 -133t-165 -52t-160 18v108q48 -14 122 -14q119 0 119 73q0 35 -35 50t-114 15h-59v84l57 144
q-203 19 -321 169t-118 396t134 397t360 151q188 0 308 -99t144 -250h-174q-22 86 -94 140t-184 54zM958 1601l-278 -338h-194l252 338h220z" />
    <glyph glyph-name="Ddotaccent" unicode="&#x1e0a;" horiz-adv-x="1487" 
d="M594 1575q-50 -1 -86 35t-35 86q-1 50 35 86t86 35q50 1 86 -35t35 -86q1 -50 -35 -86t-86 -35zM364 1281v-1119h303q241 0 375 147t134 411t-134 413q-134 148 -375 148h-303zM184 1443h495q321 -1 501 -191t180 -530t-180 -532q-180 -190 -501 -190h-495v1443z" />
    <glyph glyph-name="ddotaccent" unicode="&#x1e0b;" horiz-adv-x="1258" 
d="M1000 1638q-50 0 -86 36t-35 85q-1 49 35 85t86 36t86 -36t35 -85q1 -49 -35 -85t-86 -36zM600 942q-146 0 -230 -108t-84 -296t84 -295t230 -107q148 0 233 108t85 294t-86 295t-232 109zM561 -19q-207 0 -330 152q-123 151 -123 405t124 406t329 153q113 -1 203 -51
t135 -138h15v598h172v-1506h-164v172h-16q-51 -90 -142 -140t-203 -51z" />
    <glyph glyph-name="Ddotbelow" unicode="&#x1e0c;" horiz-adv-x="1487" 
d="M594 -402q-50 0 -86 36t-35 85q-1 49 35 85t86 36t86 -36t35 -85q1 -49 -35 -85t-86 -36zM364 1281v-1119h303q241 0 375 147t134 411t-134 413q-134 148 -375 148h-303zM184 1443h495q321 -1 501 -191t180 -530t-180 -532q-180 -190 -501 -190h-495v1443z" />
    <glyph glyph-name="ddotbelow" unicode="&#x1e0d;" horiz-adv-x="1258" 
d="M672 -402q-50 0 -86 36t-35 85q-1 49 35 85t86 36t86 -36t35 -85q1 -49 -35 -85t-86 -36zM600 942q-146 0 -230 -108t-84 -296t84 -295t230 -107q148 0 233 108t85 294t-86 295t-232 109zM561 -19q-207 0 -330 152q-123 151 -123 405t124 406t329 153q113 -1 203 -51
t135 -138h15v598h172v-1506h-164v172h-16q-51 -90 -142 -140t-203 -51z" />
    <glyph glyph-name="Dlinebelow" unicode="&#x1e0e;" horiz-adv-x="1487" 
d="M931 -348h-674v136h674v-136zM364 1281v-1119h303q241 0 375 147t134 411t-134 413q-134 148 -375 148h-303zM184 1443h495q321 -1 501 -191t180 -530t-180 -532q-180 -190 -501 -190h-495v1443z" />
    <glyph glyph-name="dlinebelow" unicode="&#x1e0f;" horiz-adv-x="1258" 
d="M1009 -348h-674v136h674v-136zM600 942q-146 0 -230 -108t-84 -296t84 -295t230 -107q148 0 233 108t85 294t-86 295t-232 109zM561 -19q-207 0 -330 152q-123 151 -123 405t124 406t329 153q113 -1 203 -51t135 -138h15v598h172v-1506h-164v172h-16q-51 -90 -142 -140
t-203 -51z" />
    <glyph glyph-name="Dcommaaccent" unicode="&#x1e10;" horiz-adv-x="1487" 
d="M597 -518h-167l102 377h182zM364 1281v-1119h303q241 0 375 147t134 411t-134 413q-134 148 -375 148h-303zM184 1443h495q321 -1 501 -191t180 -530t-180 -532q-180 -190 -501 -190h-495v1443z" />
    <glyph glyph-name="dcommaaccent" unicode="&#x1e11;" horiz-adv-x="1258" 
d="M675 -518h-167l102 377h182zM600 942q-146 0 -230 -108t-84 -296t84 -295t230 -107q148 0 233 108t85 294t-86 295t-232 109zM561 -19q-207 0 -330 152q-123 151 -123 405t124 406t329 153q113 -1 203 -51t135 -138h15v598h172v-1506h-164v172h-16q-51 -90 -142 -140
t-203 -51z" />
    <glyph glyph-name="Dcircumflexbelow" unicode="&#x1e12;" horiz-adv-x="1487" 
d="M676 -142l300 -290h-202l-172 173h-16l-172 -173h-202l300 290h164zM364 1281v-1119h303q241 0 375 147t134 411t-134 413q-134 148 -375 148h-303zM184 1443h495q321 -1 501 -191t180 -530t-180 -532q-180 -190 -501 -190h-495v1443z" />
    <glyph glyph-name="dcircumflexbelow" unicode="&#x1e13;" horiz-adv-x="1258" 
d="M754 -142l300 -290h-202l-172 173h-16l-172 -173h-202l300 290h164zM600 942q-146 0 -230 -108t-84 -296t84 -295t230 -107q148 0 233 108t85 294t-86 295t-232 109zM561 -19q-207 0 -330 152q-123 151 -123 405t124 406t329 153q113 -1 203 -51t135 -138h15v598h172
v-1506h-164v172h-16q-51 -90 -142 -140t-203 -51z" />
    <glyph glyph-name="Emacrongrave" unicode="&#x1e14;" horiz-adv-x="1220" 
d="M737 1873h-192l-246 222h218zM968 1620h-674v130h674v-130zM1078 162v-162h-894v1443h894v-162h-714v-463h677v-160h-677v-496h714z" />
    <glyph glyph-name="emacrongrave" unicode="&#x1e15;" horiz-adv-x="1170" 
d="M931 1263h-674v136h674v-136zM716 1555h-192l-226 288h218zM594 -19q-224 1 -355 151t-131 406t132 407q132 152 352 152t345 -145t125 -397v-66h-775v-8q7 -160 91 -254t220 -94q209 0 278 146h172q-38 -140 -158 -219t-296 -79zM592 945q-128 0 -212 -87
q-83 -87 -93 -230h594q-3 143 -82 230t-207 87z" />
    <glyph glyph-name="Emacronacute" unicode="&#x1e16;" horiz-adv-x="1220" 
d="M525 1872l220 222h218l-246 -222h-192zM968 1619h-674v130h674v-130zM1078 162v-162h-894v1443h894v-162h-714v-463h677v-160h-677v-496h714z" />
    <glyph glyph-name="emacronacute" unicode="&#x1e17;" horiz-adv-x="1170" 
d="M931 1263h-674v136h674v-136zM472 1555l200 288h218l-226 -288h-192zM594 -19q-224 1 -355 151t-131 406t132 407q132 152 352 152t345 -145t125 -397v-66h-775v-8q7 -160 91 -254t220 -94q209 0 278 146h172q-38 -140 -158 -219t-296 -79zM592 945q-128 0 -212 -87
q-83 -87 -93 -230h594q-3 143 -82 230t-207 87z" />
    <glyph glyph-name="Ecircumflexbelow" unicode="&#x1e18;" horiz-adv-x="1220" 
d="M713 -142l300 -290h-202l-172 173h-16l-172 -173h-202l300 290h164zM1078 162v-162h-894v1443h894v-162h-714v-463h677v-160h-677v-496h714z" />
    <glyph glyph-name="ecircumflexbelow" unicode="&#x1e19;" horiz-adv-x="1170" 
d="M677 -142l300 -290h-202l-172 173h-16l-172 -173h-202l300 290h164zM594 -19q-224 1 -355 151t-131 406t132 407q132 152 352 152t345 -145t125 -397v-66h-775v-8q7 -160 91 -254t220 -94q209 0 278 146h172q-38 -140 -158 -219t-296 -79zM592 945q-128 0 -212 -87
q-83 -87 -93 -230h594q-3 143 -82 230t-207 87z" />
    <glyph glyph-name="Etildebelow" unicode="&#x1e1a;" horiz-adv-x="1220" 
d="M255 -406q1 133 61 207t158 74q98 1 162 -59q26 -24 50 -50q55 -59 91 -59q87 0 95 151h135q1 -128 -61 -204t-156 -77t-154 59q-26 24 -48 50q-55 60 -101 59q-47 -1 -70 -35t-26 -116h-136zM1078 162v-162h-894v1443h894v-162h-714v-463h677v-160h-677v-496h714z" />
    <glyph glyph-name="etildebelow" unicode="&#x1e1b;" horiz-adv-x="1170" 
d="M219 -406q1 133 61 207t158 74q98 1 162 -59q26 -24 50 -50q55 -59 91 -59q87 0 95 151h135q1 -128 -61 -204t-156 -77t-154 59q-26 24 -48 50q-55 59 -101 59q-47 -1 -70 -35t-26 -116h-136zM594 -19q-224 1 -355 151t-131 406t132 407q132 152 352 152t345 -145
t125 -397v-66h-775v-8q7 -160 91 -254t220 -94q209 0 278 146h172q-38 -140 -158 -219t-296 -79zM592 945q-128 0 -212 -87q-83 -87 -93 -230h594q-3 143 -82 230t-207 87z" />
    <glyph glyph-name="Ecedillabreve" unicode="&#x1e1c;" horiz-adv-x="1220" 
d="M1078 1281h-714v-463h677v-160h-677v-496h714v-162h-363l-55 -142q102 0 158 -43t57 -124t-65 -133t-165 -52t-160 18v108q48 -14 122 -14q119 0 119 73q0 35 -35 50t-114 15h-59v84l63 160h-397v1443h894v-162zM841 1873h154q0 -135 -98 -217t-266 -81q-168 -1 -266 81
t-98 217h154q1 -79 57 -126t153 -47t153 47t57 126z" />
    <glyph glyph-name="ecedillabreve" unicode="&#x1e1d;" horiz-adv-x="1170" 
d="M1062 489h-775v-8q7 -160 91 -254t220 -94q209 0 278 146h172q-34 -123 -132 -200t-243 -93l-49 -128q102 0 158 -43t57 -124t-65 -133t-165 -52t-160 18v108q48 -14 122 -14q119 0 119 73q0 35 -35 50t-114 15h-59v84l57 144q-199 19 -315 167t-116 395t132 399t352 152
t345 -145t125 -397v-66zM592 945q-128 0 -212 -87q-83 -87 -93 -230h594q-3 143 -82 230t-207 87zM802 1556h154q0 -144 -98 -236t-266 -92t-266 92t-98 236h154q0 -88 56 -144t154 -56t154 56t56 144z" />
    <glyph glyph-name="Fdotaccent" unicode="&#x1e1e;" horiz-adv-x="1172" 
d="M622 1575q-50 -1 -86 35t-35 86q-1 50 35 86t86 35q50 1 86 -35t35 -86q1 -50 -35 -86t-86 -35zM364 0h-180v1443h876v-162h-696v-496h639v-160h-639v-625z" />
    <glyph glyph-name="fdotaccent" unicode="&#x1e1f;" horiz-adv-x="726" 
d="M429 1625q-49 -1 -85 35t-36 86t36 86t85 35q49 1 85 -35t36 -86t-36 -86t-85 -35zM234 0v934h-179v144h179v105q0 161 82 237t241 76q46 0 106 -10v-144q-41 9 -96 9q-161 0 -161 -173v-100h247v-144h-247v-934h-172z" />
    <glyph glyph-name="Gmacron" unicode="&#x1e20;" horiz-adv-x="1529" 
d="M1119 1620h-674v136h674v-136zM1395 558q0 -268 -168 -430t-456 -162q-287 0 -465 205t-178 549t179 550t475 207q240 0 402 -125t202 -339h-183q-47 146 -154 222t-267 76q-214 0 -342 -160t-127 -431q1 -272 127 -430t332 -158t324 113q120 113 120 296v35h-406v158
h585v-176z" />
    <glyph glyph-name="gmacron" unicode="&#x1e21;" horiz-adv-x="1248" 
d="M931 1286h-674v136h674v-136zM620 -414q-206 0 -326 80t-140 215h182q14 -67 85 -106t201 -39t210 68q82 68 82 186v212h-16q-51 -90 -139 -138t-199 -48q-208 0 -330 148t-122 391q0 244 123 393t329 149q113 1 206 -51t140 -139h16v171h164v-1097q0 -181 -130 -288
t-336 -107zM918 554q0 178 -86 283t-234 105t-230 -104t-82 -283t82 -283t230 -104t234 104t86 282z" />
    <glyph glyph-name="Hdotaccent" unicode="&#x1e22;" horiz-adv-x="1520" 
d="M760 1575q-50 -1 -86 35t-35 86q-1 50 35 86t86 35q50 1 86 -35t35 -86q1 -50 -35 -86t-86 -35zM1336 0h-180v657h-792v-657h-180v1443h180v-624h792v624h180v-1443z" />
    <glyph glyph-name="hdotaccent" unicode="&#x1e23;" horiz-adv-x="1216" 
d="M258 1638q-50 0 -86 36t-35 85q-1 49 35 85t86 36t86 -36t35 -85q1 -49 -35 -85t-86 -36zM692 1097q172 1 272 -105t100 -294v-698h-172v656q0 286 -249 286q-143 0 -221 -82t-78 -222v-638h-172v1506h172v-598h16q85 189 332 189z" />
    <glyph glyph-name="Hdotbelow" unicode="&#x1e24;" horiz-adv-x="1520" 
d="M760 -402q-50 0 -86 36t-35 85q-1 49 35 85t86 36t86 -36t35 -85q1 -49 -35 -85t-86 -36zM1336 0h-180v657h-792v-657h-180v1443h180v-624h792v624h180v-1443z" />
    <glyph glyph-name="hdotbelow" unicode="&#x1e25;" horiz-adv-x="1216" 
d="M618 -402q-50 0 -86 36t-35 85q-1 49 35 85t86 36t86 -36t35 -85q1 -49 -35 -85t-86 -36zM692 1097q172 1 272 -105t100 -294v-698h-172v656q0 286 -249 286q-143 0 -221 -82t-78 -222v-638h-172v1506h172v-598h16q85 189 332 189z" />
    <glyph glyph-name="Hdieresis" unicode="&#x1e26;" horiz-adv-x="1520" 
d="M962 1575q-50 -1 -86 35t-35 86q-1 50 35 86t86 35q50 1 86 -35t35 -86q1 -50 -35 -86t-86 -35zM558 1575q-50 -1 -86 35t-35 86q-1 50 35 86t86 35q50 1 86 -35t35 -86q1 -50 -35 -86t-86 -35zM1336 0h-180v657h-792v-657h-180v1443h180v-624h792v624h180v-1443z" />
    <glyph glyph-name="hdieresis" unicode="&#x1e27;" horiz-adv-x="1216" 
d="M460 1638q-50 0 -86 36t-35 85q-1 49 35 85t86 36t86 -36t35 -85q1 -49 -35 -85t-86 -36zM56 1638q-50 0 -86 36t-35 85q-1 49 35 85t86 36t86 -36t35 -85q1 -49 -35 -85t-86 -36zM692 1097q172 1 272 -105t100 -294v-698h-172v656q0 286 -249 286q-143 0 -221 -82
t-78 -222v-638h-172v1506h172v-598h16q85 189 332 189z" />
    <glyph glyph-name="Hcedilla" unicode="&#x1e28;" horiz-adv-x="1520" 
d="M184 1443h180v-624h792v624h180v-1443h-180v657h-792v-657l-55 -142q102 0 159 -43t57 -124q1 -81 -65 -133t-165 -52t-160 18v108q48 -14 122 -14q119 0 119 73q0 35 -35 50t-114 15h-59v84l63 160h-47v1443z" />
    <glyph glyph-name="hcedilla" unicode="&#x1e29;" horiz-adv-x="1216" 
d="M692 1097q172 1 272 -105t100 -294v-698h-172v656q0 286 -249 286q-143 0 -221 -82t-78 -222v-638l-55 -142q103 0 159 -43t56 -124t-66 -133t-164 -52t-160 18v108q48 -14 122 -14q119 0 119 73q0 35 -35 50t-114 15h-59v84l63 160h-38v1506h172v-598h16q85 189 332 189
z" />
    <glyph glyph-name="Hbrevebelow" unicode="&#x1e2a;" horiz-adv-x="1520" 
d="M396 -126h154q0 -79 56 -126t154 -47t154 47t56 126h154q0 -134 -98 -216t-266 -82t-266 82t-98 216zM1336 0h-180v657h-792v-657h-180v1443h180v-624h792v624h180v-1443z" />
    <glyph glyph-name="hbrevebelow" unicode="&#x1e2b;" horiz-adv-x="1216" 
d="M254 -126h154q0 -79 56 -126t154 -47t154 47t56 126h154q0 -134 -98 -216t-266 -82t-266 82t-98 216zM692 1097q172 1 272 -105t100 -294v-698h-172v656q0 286 -249 286q-143 0 -221 -82t-78 -222v-638h-172v1506h172v-598h16q85 189 332 189z" />
    <glyph glyph-name="Itildebelow" unicode="&#x1e2c;" horiz-adv-x="548" 
d="M130 -255q-47 -1 -70 -35t-26 -116h-136q0 133 60 207t159 74q99 1 163 -59q26 -24 48 -50q55 -60 92 -59q87 0 95 151h135q0 -128 -62 -204t-155 -77q-94 -1 -154 59q-25 24 -47 50q-54 60 -102 59zM364 0h-180v1443h180v-1443z" />
    <glyph glyph-name="itildebelow" unicode="&#x1e2d;" horiz-adv-x="504" 
d="M108 -255q-47 -1 -70 -35t-26 -116h-136q0 133 60 207t159 74q99 1 163 -59q26 -24 48 -50q55 -60 92 -59q87 0 95 151h135q0 -128 -62 -204t-155 -77q-94 -1 -154 59q-25 24 -47 50q-54 60 -102 59zM252 1297q-50 -1 -85 35t-35 85t35 85t85 35q50 1 85 -35t35 -85
t-35 -85t-85 -35zM166 0v1078h172v-1078h-172z" />
    <glyph glyph-name="Idieresisacute" unicode="&#x1e2e;" horiz-adv-x="548" 
d="M476 1575q-50 -1 -86 35t-35 86q-1 50 35 86t86 35q50 1 86 -35t35 -86q1 -50 -35 -86t-86 -35zM72 1575q-50 -1 -86 35t-35 86q-1 50 35 86t86 35q50 1 86 -35t35 -86q1 -50 -35 -86t-86 -35zM186 1873l230 222h227l-281 -222h-176zM364 0h-180v1443h180v-1443z" />
    <glyph glyph-name="idieresisacute" unicode="&#x1e2f;" horiz-adv-x="504" 
d="M454 1228q-50 0 -86 36t-35 85q-1 49 35 85t86 36t86 -36t35 -85q1 -49 -35 -85t-86 -36zM50 1228q-50 0 -86 36t-35 85q-1 49 35 85t86 36t86 -36t35 -85q1 -49 -35 -85t-86 -36zM152 1575l190 298h198l-218 -298h-170zM166 0v1078h172v-1078h-172z" />
    <glyph glyph-name="Kacute" unicode="&#x1e30;" horiz-adv-x="1349" 
d="M547 1575l310 298h226l-332 -298h-204zM364 0h-180v1443h180v-701h16l632 701h226l-577 -623l630 -820h-233l-521 695l-173 -191v-504z" />
    <glyph glyph-name="kacute" unicode="&#x1e31;" horiz-adv-x="1112" 
d="M152 1638l310 298h226l-332 -298h-204zM344 0h-172v1506h172v-899h16l468 471h211l-464 -462l495 -616h-219l-404 505l-103 -96v-409z" />
    <glyph glyph-name="Kdotbelow" unicode="&#x1e32;" horiz-adv-x="1349" 
d="M653 -402q-49 0 -85 36t-36 85t36 85t85 36t85 -36t36 -85t-36 -85t-85 -36zM364 0h-180v1443h180v-701h16l632 701h226l-577 -623l630 -820h-233l-521 695l-173 -191v-504z" />
    <glyph glyph-name="kdotbelow" unicode="&#x1e33;" horiz-adv-x="1112" 
d="M603 -402q-49 0 -85 36t-36 85t36 85t85 36t85 -36t36 -85t-36 -85t-85 -36zM344 0h-172v1506h172v-899h16l468 471h211l-464 -462l495 -616h-219l-404 505l-103 -96v-409z" />
    <glyph glyph-name="Klinebelow" unicode="&#x1e34;" horiz-adv-x="1349" 
d="M990 -348h-674v136h674v-136zM364 0h-180v1443h180v-701h16l632 701h226l-577 -623l630 -820h-233l-521 695l-173 -191v-504z" />
    <glyph glyph-name="klinebelow" unicode="&#x1e35;" horiz-adv-x="1112" 
d="M940 -348h-674v136h674v-136zM344 0h-172v1506h172v-899h16l468 471h211l-464 -462l495 -616h-219l-404 505l-103 -96v-409z" />
    <glyph glyph-name="Ldotbelow" unicode="&#x1e36;" horiz-adv-x="1163" 
d="M622 -402q-50 0 -86 36t-35 85q-1 49 35 85t86 36t86 -36t35 -85q1 -49 -35 -85t-86 -36zM1060 162v-162h-876v1443h180v-1281h696z" />
    <glyph glyph-name="ldotbelow" unicode="&#x1e37;" horiz-adv-x="516" 
d="M258 -402q-50 0 -86 36t-35 85q-1 49 35 85t86 36t86 -36t35 -85q1 -49 -35 -85t-86 -36zM172 0v1506h172v-1506h-172z" />
    <glyph glyph-name="Ldotbelowmacron" unicode="&#x1e38;" horiz-adv-x="1163" 
d="M611 1620h-674v136h674v-136zM622 -402q-50 0 -86 36t-35 85q-1 49 35 85t86 36t86 -36t35 -85q1 -49 -35 -85t-86 -36zM1060 162v-162h-876v1443h180v-1281h696z" />
    <glyph glyph-name="ldotbelowmacron" unicode="&#x1e39;" horiz-adv-x="516" 
d="M595 1683h-674v136h674v-136zM258 -402q-50 0 -86 36t-35 85q-1 49 35 85t86 36t86 -36t35 -85q1 -49 -35 -85t-86 -36zM172 0v1506h172v-1506h-172z" />
    <glyph glyph-name="Llinebelow" unicode="&#x1e3a;" horiz-adv-x="1163" 
d="M959 -348h-674v136h674v-136zM1060 162v-162h-876v1443h180v-1281h696z" />
    <glyph glyph-name="llinebelow" unicode="&#x1e3b;" horiz-adv-x="516" 
d="M595 -348h-674v136h674v-136zM172 0v1506h172v-1506h-172z" />
    <glyph glyph-name="Lcircumflexbelow" unicode="&#x1e3c;" horiz-adv-x="1163" 
d="M704 -142l300 -290h-202l-172 173h-16l-172 -173h-202l300 290h164zM1060 162v-162h-876v1443h180v-1281h696z" />
    <glyph glyph-name="lcircumflexbelow" unicode="&#x1e3d;" horiz-adv-x="516" 
d="M340 -142l300 -290h-202l-172 173h-16l-172 -173h-202l300 290h164zM172 0v1506h172v-1506h-172z" />
    <glyph glyph-name="Macute" unicode="&#x1e3e;" horiz-adv-x="1790" 
d="M789 1575l310 298h226l-332 -298h-204zM352 0h-168v1443h209l494 -1194h16l494 1194h209v-1443h-168v1102h-12l-455 -1092h-152l-455 1092h-12v-1102z" />
    <glyph glyph-name="macute" unicode="&#x1e3f;" horiz-adv-x="1788" 
d="M782 1263l252 338h220l-278 -338h-194zM162 0v1078h164v-170h16q37 90 115 140t185 49q108 0 184 -51t115 -138h16q44 87 132 138t198 51q165 1 254 -91t89 -261v-745h-172v705q0 237 -227 237q-110 0 -180 -72t-70 -177v-693h-172v732q1 96 -61 153t-166 57t-176 -80
t-72 -194v-668h-172z" />
    <glyph glyph-name="Mdotaccent" unicode="&#x1e40;" horiz-adv-x="1790" 
d="M895 1575q-49 -1 -85 35t-36 86t36 86t85 35q49 1 85 -35t36 -86t-36 -86t-85 -35zM352 0h-168v1443h209l494 -1194h16l494 1194h209v-1443h-168v1102h-12l-455 -1092h-152l-455 1092h-12v-1102z" />
    <glyph glyph-name="mdotaccent" unicode="&#x1e41;" horiz-adv-x="1788" 
d="M896 1287q-52 -1 -90 37t-38 90t38 90t90 38t90 -38t38 -90t-38 -90t-90 -37zM162 0v1078h164v-170h16q37 90 115 140t185 49q108 0 184 -51t115 -138h16q44 87 132 138t198 51q165 1 254 -91t89 -261v-745h-172v705q0 237 -227 237q-110 0 -180 -72t-70 -177v-693h-172
v732q1 96 -61 153t-166 57t-176 -80t-72 -194v-668h-172z" />
    <glyph glyph-name="Mdotbelow" unicode="&#x1e42;" horiz-adv-x="1790" 
d="M895 -402q-49 0 -85 36t-36 85t36 85t85 36t85 -36t36 -85t-36 -85t-85 -36zM352 0h-168v1443h209l494 -1194h16l494 1194h209v-1443h-168v1102h-12l-455 -1092h-152l-455 1092h-12v-1102z" />
    <glyph glyph-name="mdotbelow" unicode="&#x1e43;" horiz-adv-x="1788" 
d="M896 -402q-50 0 -86 36t-35 85q-1 49 35 85t86 36t86 -36t35 -85q1 -49 -35 -85t-86 -36zM162 0v1078h164v-170h16q37 90 115 140t185 49q108 0 184 -51t115 -138h16q44 87 132 138t198 51q165 1 254 -91t89 -261v-745h-172v705q0 237 -227 237q-110 0 -180 -72t-70 -177
v-693h-172v732q1 96 -61 153t-166 57t-176 -80t-72 -194v-668h-172z" />
    <glyph glyph-name="Ndotaccent" unicode="&#x1e44;" horiz-adv-x="1520" 
d="M760 1575q-50 -1 -86 35t-35 86q-1 50 35 86t86 35q50 1 86 -35t35 -86q1 -50 -35 -86t-86 -35zM362 0h-178v1443h175l783 -1123h16v1123h178v-1443h-175l-783 1119h-16v-1119z" />
    <glyph glyph-name="ndotaccent" unicode="&#x1e45;" horiz-adv-x="1195" 
d="M603 1287q-53 -1 -91 37t-37 90q-1 52 37 90t91 38t91 -38t37 -90q1 -52 -37 -90t-91 -37zM162 0v1078h164v-170h16q86 189 324 189q181 1 279 -103t98 -296v-698h-172v656q-1 146 -63 216t-192 70t-206 -82t-76 -222v-638h-172z" />
    <glyph glyph-name="Ndotbelow" unicode="&#x1e46;" horiz-adv-x="1520" 
d="M760 -402q-50 0 -86 36t-35 85q-1 49 35 85t86 36t86 -36t35 -85q1 -49 -35 -85t-86 -36zM362 0h-178v1443h175l783 -1123h16v1123h178v-1443h-175l-783 1119h-16v-1119z" />
    <glyph glyph-name="ndotbelow" unicode="&#x1e47;" horiz-adv-x="1195" 
d="M603 -402q-49 0 -85 36t-36 85t36 85t85 36t85 -36t36 -85t-36 -85t-85 -36zM162 0v1078h164v-170h16q86 189 324 189q181 1 279 -103t98 -296v-698h-172v656q-1 146 -63 216t-192 70t-206 -82t-76 -222v-638h-172z" />
    <glyph glyph-name="Nlinebelow" unicode="&#x1e48;" horiz-adv-x="1520" 
d="M1097 -348h-674v136h674v-136zM362 0h-178v1443h175l783 -1123h16v1123h178v-1443h-175l-783 1119h-16v-1119z" />
    <glyph glyph-name="nlinebelow" unicode="&#x1e49;" horiz-adv-x="1195" 
d="M940 -348h-674v136h674v-136zM162 0v1078h164v-170h16q86 189 324 189q181 1 279 -103t98 -296v-698h-172v656q-1 146 -63 216t-192 70t-206 -82t-76 -222v-638h-172z" />
    <glyph glyph-name="Ncircumflexbelow" unicode="&#x1e4a;" horiz-adv-x="1520" 
d="M842 -142l300 -290h-202l-172 173h-16l-172 -173h-202l300 290h164zM362 0h-178v1443h175l783 -1123h16v1123h178v-1443h-175l-783 1119h-16v-1119z" />
    <glyph glyph-name="ncircumflexbelow" unicode="&#x1e4b;" horiz-adv-x="1195" 
d="M685 -142l300 -290h-202l-172 173h-16l-172 -173h-202l300 290h164zM162 0v1078h164v-170h16q86 189 324 189q181 1 279 -103t98 -296v-698h-172v656q-1 146 -63 216t-192 70t-206 -82t-76 -222v-638h-172z" />
    <glyph glyph-name="Otildeacute" unicode="&#x1e4c;" horiz-adv-x="1579" 
d="M655 1703q-88 0 -94 -111h-136q0 106 63 174t158 67q96 0 146 -45q22 -19 40 -38q44 -45 88 -45q94 0 102 111h135q1 -102 -63 -172t-158 -69q-94 0 -146 45q-22 19 -40 38q-44 45 -95 45zM765 1873l220 222h218l-248 -222h-190zM792 1311q-220 0 -350 -159
q-129 -159 -129 -430q-1 -270 127 -430t350 -160t349 160t127 431t-127 429t-347 159zM792 1477q306 1 482 -203t177 -552q-1 -348 -177 -552t-484 -204t-485 204t-177 552t178 552q180 204 486 203z" />
    <glyph glyph-name="otildeacute" unicode="&#x1e4d;" horiz-adv-x="1210" 
d="M369 1211h-142q-1 135 61 213t159 78t159 -55q26 -23 48 -47q52 -56 97 -55q90 0 90 157h142q1 -136 -61 -214t-159 -77q-97 -1 -159 55q-26 24 -48 47q-53 55 -97 55q-90 0 -90 -157zM509 1625l200 248h214l-230 -248h-184zM605 -19q-229 -1 -363 149t-134 410t133 408
q133 149 364 149t364 -149q133 -148 133 -408t-134 -410t-363 -149zM605 136q153 0 236 106t83 297t-83 297t-236 106t-236 -106t-83 -297t83 -297t236 -106z" />
    <glyph glyph-name="Otildedieresis" unicode="&#x1e4e;" horiz-adv-x="1579" 
d="M993 1889q-53 0 -85 29t-32 74t32 74t85 29t85 -29t32 -74t-32 -74t-85 -29zM589 1889q-53 0 -85 29t-32 74t32 74t85 29t85 -29t32 -74t-32 -74t-85 -29zM655 1694q-88 0 -94 -111h-136q0 105 63 173t158 68q96 0 146 -45q22 -19 40 -38q44 -45 88 -45q94 0 102 111h135
q1 -101 -63 -171t-158 -70t-146 45q-22 19 -40 38q-44 45 -95 45zM792 1311q-220 0 -350 -159q-129 -159 -129 -430q-1 -270 127 -430t350 -160t349 160t127 431t-127 429t-347 159zM792 1477q306 1 482 -203t177 -552q-1 -348 -177 -552t-484 -204t-485 204t-177 552
t178 552q180 204 486 203z" />
    <glyph glyph-name="otildedieresis" unicode="&#x1e4f;" horiz-adv-x="1210" 
d="M369 1231h-142q-1 135 61 213t159 78t159 -55q26 -23 48 -47q52 -56 97 -55q90 0 90 157h142q1 -136 -61 -214t-159 -77q-97 -1 -159 55q-26 24 -48 47q-53 55 -97 55q-90 0 -90 -157zM807 1639q-49 0 -83 34t-34 83t34 83t83 34t83 -34t34 -83t-34 -83t-83 -34z
M403 1639q-49 0 -83 34t-34 83t34 83t83 34t83 -34t34 -83t-34 -83t-83 -34zM605 -19q-229 -1 -363 149t-134 410t133 408q133 149 364 149t364 -149q133 -148 133 -408t-134 -410t-363 -149zM605 136q153 0 236 106t83 297t-83 297t-236 106t-236 -106t-83 -297t83 -297
t236 -106z" />
    <glyph glyph-name="Omacrongrave" unicode="&#x1e50;" horiz-adv-x="1579" 
d="M897 1873h-192l-246 222h218zM1128 1620h-674v130h674v-130zM792 1311q-220 0 -350 -159q-129 -159 -129 -430q-1 -270 127 -430t350 -160t349 160t127 431t-127 429t-347 159zM792 1477q306 1 482 -203t177 -552q-1 -348 -177 -552t-484 -204t-485 204t-177 552t178 552
q180 204 486 203z" />
    <glyph glyph-name="omacrongrave" unicode="&#x1e51;" horiz-adv-x="1210" 
d="M942 1240h-674v136h674v-136zM727 1532h-192l-226 288h218zM605 -19q-229 -1 -363 149t-134 410t133 408q133 149 364 149t364 -149q133 -148 133 -408t-134 -410t-363 -149zM605 136q153 0 236 106t83 297t-83 297t-236 106t-236 -106t-83 -297t83 -297t236 -106z" />
    <glyph glyph-name="Omacronacute" unicode="&#x1e52;" horiz-adv-x="1579" 
d="M685 1872l220 222h218l-246 -222h-192zM1128 1619h-674v130h674v-130zM792 1311q-220 0 -350 -159q-129 -159 -129 -430q-1 -270 127 -430t350 -160t349 160t127 431t-127 429t-347 159zM792 1477q306 1 482 -203t177 -552q-1 -348 -177 -552t-484 -204t-485 204
t-177 552t178 552q180 204 486 203z" />
    <glyph glyph-name="omacronacute" unicode="&#x1e53;" horiz-adv-x="1210" 
d="M942 1240h-674v136h674v-136zM483 1532l200 288h218l-226 -288h-192zM605 -19q-229 -1 -363 149t-134 410t133 408q133 149 364 149t364 -149q133 -148 133 -408t-134 -410t-363 -149zM605 136q153 0 236 106t83 297t-83 297t-236 106t-236 -106t-83 -297t83 -297
t236 -106z" />
    <glyph glyph-name="Pacute" unicode="&#x1e54;" horiz-adv-x="1301" 
d="M473 1575l310 298h226l-332 -298h-204zM364 1283v-608h318q154 0 239 79t85 225t-84 225t-240 79h-318zM184 1443h545q205 -1 333 -131t129 -334q-1 -204 -131 -334t-333 -129h-363v-515h-180v1443z" />
    <glyph glyph-name="pacute" unicode="&#x1e55;" horiz-adv-x="1248" 
d="M537 1263l252 338h220l-278 -338h-194zM647 136q147 0 231 107t84 296t-84 296t-230 107q-147 0 -233 -108t-86 -294q-1 -186 85 -295t233 -109zM687 1097q205 0 329 -152q124 -151 124 -405t-124 -406t-329 -153q-115 -1 -204 47t-133 134h-16v-522h-172v1438h164v-180
h16q52 93 144 146t201 53z" />
    <glyph glyph-name="Pdotaccent" unicode="&#x1e56;" horiz-adv-x="1301" 
d="M579 1575q-49 -1 -85 35t-36 86t36 86t85 35q49 1 85 -35t36 -86t-36 -86t-85 -35zM364 1283v-608h318q154 0 239 79t85 225t-84 225t-240 79h-318zM184 1443h545q205 -1 333 -131t129 -334q-1 -204 -131 -334t-333 -129h-363v-515h-180v1443z" />
    <glyph glyph-name="pdotaccent" unicode="&#x1e57;" horiz-adv-x="1248" 
d="M651 1287q-53 -1 -91 37t-37 90q-1 52 37 90t91 38t91 -38t37 -90q1 -52 -37 -90t-91 -37zM647 136q147 0 231 107t84 296t-84 296t-230 107q-147 0 -233 -108t-86 -294q-1 -186 85 -295t233 -109zM687 1097q205 0 329 -152q124 -151 124 -405t-124 -406t-329 -153
q-115 -1 -204 47t-133 134h-16v-522h-172v1438h164v-180h16q52 93 144 146t201 53z" />
    <glyph glyph-name="Rdotaccent" unicode="&#x1e58;" horiz-adv-x="1338" 
d="M609 1575q-49 -1 -85 35t-36 86t36 86t85 35q49 1 85 -35t36 -86t-36 -86t-85 -35zM364 571v-571h-180v1443h551q209 1 335 -117t125 -313q0 -151 -77 -261t-213 -153l334 -599h-211l-309 571h-355zM364 1283v-552h355q139 -1 215 71t75 204q0 132 -79 204
q-79 73 -219 73h-347z" />
    <glyph glyph-name="rdotaccent" unicode="&#x1e59;" horiz-adv-x="765" 
d="M378 1287q-52 -1 -90 37t-38 90t38 90t90 38t90 -38t38 -90t-38 -90t-90 -37zM162 0v1078h164v-160h16q24 79 108 129t191 50q49 0 86 -5v-172q-35 10 -110 10q-123 0 -203 -74t-80 -188v-668h-172z" />
    <glyph glyph-name="Rdotbelow" unicode="&#x1e5a;" horiz-adv-x="1338" 
d="M609 -402q-49 0 -85 36t-36 85t36 85t85 36t85 -36t36 -85t-36 -85t-85 -36zM364 571v-571h-180v1443h551q209 1 335 -117t125 -313q0 -151 -77 -261t-213 -153l334 -599h-211l-309 571h-355zM364 1283v-552h355q139 -1 215 71t75 204q0 132 -79 204q-79 73 -219 73h-347
z" />
    <glyph glyph-name="rdotbelow" unicode="&#x1e5b;" horiz-adv-x="765" 
d="M248 -402q-50 0 -86 36t-35 85q-1 49 35 85t86 36t86 -36t35 -85q1 -49 -35 -85t-86 -36zM162 0v1078h164v-160h16q24 79 108 129t191 50q49 0 86 -5v-172q-35 10 -110 10q-123 0 -203 -74t-80 -188v-668h-172z" />
    <glyph glyph-name="Rdotbelowmacron" unicode="&#x1e5c;" horiz-adv-x="1338" 
d="M946 1620h-674v136h674v-136zM609 -402q-49 0 -85 36t-36 85t36 85t85 36t85 -36t36 -85t-36 -85t-85 -36zM364 571v-571h-180v1443h551q209 1 335 -117t125 -313q0 -151 -77 -261t-213 -153l334 -599h-211l-309 571h-355zM364 1283v-552h355q139 -1 215 71t75 204
q0 132 -79 204q-79 73 -219 73h-347z" />
    <glyph glyph-name="rdotbelowmacron" unicode="&#x1e5d;" horiz-adv-x="765" 
d="M715 1286h-674v136h674v-136zM248 -402q-50 0 -86 36t-35 85q-1 49 35 85t86 36t86 -36t35 -85q1 -49 -35 -85t-86 -36zM162 0v1078h164v-160h16q24 79 108 129t191 50q49 0 86 -5v-172q-35 10 -110 10q-123 0 -203 -74t-80 -188v-668h-172z" />
    <glyph glyph-name="Rlinebelow" unicode="&#x1e5e;" horiz-adv-x="1338" 
d="M946 -348h-674v136h674v-136zM364 571v-571h-180v1443h551q209 1 335 -117t125 -313q0 -151 -77 -261t-213 -153l334 -599h-211l-309 571h-355zM364 1283v-552h355q139 -1 215 71t75 204q0 132 -79 204q-79 73 -219 73h-347z" />
    <glyph glyph-name="rlinebelow" unicode="&#x1e5f;" horiz-adv-x="765" 
d="M585 -348h-674v136h674v-136zM162 0v1078h164v-160h16q24 79 108 129t191 50q49 0 86 -5v-172q-35 10 -110 10q-123 0 -203 -74t-80 -188v-668h-172z" />
    <glyph glyph-name="Sdotaccent" unicode="&#x1e60;" horiz-adv-x="1305" 
d="M667 1575q-49 -1 -85 35t-36 86t36 86t85 35q49 1 85 -35t36 -86t-36 -86t-85 -35zM664 130q150 0 246 70t95 170q0 100 -70 160t-219 99l-185 48q-196 49 -285 142t-89 262q1 169 141 283t359 113q219 0 360 -112t152 -287h-181q-20 112 -106 174t-226 62t-226 -66
q-88 -66 -88 -164q0 -97 64 -150t214 -91l151 -40q223 -56 321 -150t98 -253q0 -198 -146 -316t-384 -118t-384 112t-161 299h182q17 -113 117 -180t250 -67z" />
    <glyph glyph-name="sdotaccent" unicode="&#x1e61;" horiz-adv-x="1072" 
d="M539 1287q-53 -1 -91 37t-37 90q-1 52 37 90t91 38t91 -38t37 -90q1 -52 -37 -90t-91 -37zM137 792q0 125 115 215q116 90 286 90t280 -78t127 -211h-170q-17 66 -79 104t-158 39q-96 0 -162 -45t-66 -108q0 -64 46 -100t141 -59l166 -40q153 -37 227 -107t74 -185
q0 -143 -123 -235t-306 -91q-183 0 -298 80t-129 214h177q22 -69 87 -109t170 -40t175 47t70 121q0 110 -171 152l-185 45q-153 37 -223 107t-71 194z" />
    </font>
</defs>
</svg>
