<?xml version="1.0" standalone="no"?>
<!DOCTYPE svg PUBLIC "-//W3C//DTD SVG 1.1//EN" "http://www.w3.org/Graphics/SVG/1.1/DTD/svg11.dtd" >
<svg xmlns="http://www.w3.org/2000/svg" xmlns:xlink="http://www.w3.org/1999/xlink" version="1.1">
<metadata>
Created by FontForge 20170924 at Fri Jun 12 01:30:58 2015
 By www-data
(c) 2015 Apple Inc. All rights reserved.
</metadata>
<defs>
<font id="SFUIText-Bold" horiz-adv-x="0" >
  <font-face 
    font-family="SF UI Text"
    font-weight="700"
    font-stretch="normal"
    units-per-em="2048"
    panose-1="0 0 8 0 0 0 0 0 0 0"
    ascent="1638"
    descent="-410"
    x-height="1103"
    cap-height="1443"
    bbox="-611 -570 2789 2229"
    underline-thickness="50"
    underline-position="-75"
    unicode-range="U+0020-FB02"
  />
<missing-glyph horiz-adv-x="1293" 
d="M120 0v1365h1053v-1365h-1053zM501 313q0 -47 33.5 -77t86.5 -30q55 0 88.5 29.5t33.5 77.5q0 49 -33.5 78.5t-88.5 29.5q-54 0 -87 -30t-33 -78zM339 888h169q1 59 34.5 94.5t90.5 35.5q54 0 87 -30t33 -80q0 -38 -20.5 -65.5t-82.5 -72.5q-69 -48 -96 -100t-22 -121
l1 -18h166v15q0 48 19 76t88 77q73 52 103 102t30 116q0 113 -81 181.5t-215 68.5q-143 0 -225.5 -76t-78.5 -203z" />
    <glyph glyph-name=".notdef" horiz-adv-x="1293" 
d="M120 0v1365h1053v-1365h-1053zM501 313q0 -47 33.5 -77t86.5 -30q55 0 88.5 29.5t33.5 77.5q0 49 -33.5 78.5t-88.5 29.5q-54 0 -87 -30t-33 -78zM339 888h169q1 59 34.5 94.5t90.5 35.5q54 0 87 -30t33 -80q0 -38 -20.5 -65.5t-82.5 -72.5q-69 -48 -96 -100t-22 -121
l1 -18h166v15q0 48 19 76t88 77q73 52 103 102t30 116q0 113 -81 181.5t-215 68.5q-143 0 -225.5 -76t-78.5 -203z" />
    <glyph glyph-name=".null" 
 />
    <glyph glyph-name="nonmarkingreturn" 
 />
    <glyph glyph-name="space" unicode=" " horiz-adv-x="528" 
 />
    <glyph glyph-name="exclam" unicode="!" horiz-adv-x="730" 
d="M205 1443h320l-27 -968h-267zM183 140q0 79 49 125t133 46q85 0 133.5 -45.5t48.5 -125.5q0 -79 -48.5 -124.5t-133.5 -45.5q-84 0 -133 45.5t-49 124.5z" />
    <glyph glyph-name="quotedbl" unicode="&#x22;" horiz-adv-x="1016" 
d="M402 831h-250v612h250v-612zM864 831h-250v612h250v-612z" />
    <glyph glyph-name="numbersign" unicode="#" horiz-adv-x="1360" 
d="M1253 857h-211l-53 -252h209l-41 -223h-210l-77 -382h-222l77 382h-234l-77 -382h-221l77 382h-206l42 223h207l52 252h-205l42 221h206l74 366h221l-74 -366h234l74 366h222l-74 -366h209zM575 876l-59 -291h261l61 291h-263z" />
    <glyph glyph-name="dollar" unicode="$" horiz-adv-x="1415" 
d="M784 -135h-140v125q-235 13 -368.5 125t-134.5 295h286q5 -74 64.5 -125t152.5 -61v372l-105 25q-181 42 -275 144.5t-94 258.5q0 184 125 297t349 131v136h140v-136q209 -20 334 -133.5t128 -286.5h-279q-2 68 -53 119t-130 62v-356l107 -22q383 -82 383 -404
q0 -191 -127.5 -305t-362.5 -134v-127zM990 397q0 136 -206 174v-348q97 6 151.5 52t54.5 122zM460 1052q0 -63 47 -105.5t137 -60.5v328q-81 -4 -132.5 -49.5t-51.5 -112.5z" />
    <glyph glyph-name="percent" unicode="%" horiz-adv-x="1701" 
d="M1298 159q53 0 84 47t31 128q0 82 -30.5 128t-84.5 46q-53 0 -84 -46.5t-31 -127.5t31 -128t84 -47zM1298 -33q-151 0 -244 101t-93 265t93 265t244 101q152 0 245 -100.5t93 -265.5q0 -164 -93 -265t-245 -101zM403 744q-151 0 -244.5 101t-93.5 266q0 164 93.5 264.5
t244.5 100.5q152 0 245 -100.5t93 -264.5q0 -165 -93 -266t-245 -101zM506 0h-282l545 756l434 687h281l-554 -762zM403 936q53 0 84 47t31 128q0 82 -30.5 128.5t-84.5 46.5q-53 0 -84 -47t-31 -128t31 -128t84 -47z" />
    <glyph glyph-name="ampersand" unicode="&#x26;" horiz-adv-x="1525" 
d="M1172 0l-111 117q-80 -68 -198.5 -106.5t-250.5 -38.5q-230 0 -367.5 110t-137.5 295q0 124 64.5 216t204.5 169q3 1 32.5 17.5t31.5 17.5q-98 101 -138.5 176t-40.5 155q0 146 116.5 241.5t294.5 95.5q177 0 290 -92.5t113 -238.5q0 -112 -71.5 -204t-222.5 -174
l277 -287q51 90 51 263v71h245v-90q0 -265 -123 -431l268 -282h-327zM535 618q-155 -84 -155 -216q0 -94 72.5 -152.5t189.5 -58.5q79 0 151 26.5t115 71.5l-331 349q-16 -6 -42 -20zM646 897q99 49 142.5 100t43.5 115q0 68 -44 110.5t-115 42.5t-116 -43t-45 -110
q0 -49 29.5 -96.5t104.5 -118.5z" />
    <glyph glyph-name="quotesingle" unicode="'" horiz-adv-x="553" 
d="M402 831h-250v612h250v-612z" />
    <glyph glyph-name="parenleft" unicode="(" horiz-adv-x="803" 
d="M705 -277h-275q-129 162 -200 391.5t-71 485.5q0 257 66 455.5t214 387.5h269q-109 -126 -178.5 -362.5t-69.5 -479.5q0 -235 58.5 -445t186.5 -433z" />
    <glyph glyph-name="parenright" unicode=")" horiz-adv-x="803" 
d="M97 -277q128 223 186.5 433t58.5 445q0 244 -69 480t-178 362h269q148 -189 214 -387.5t66 -455.5q0 -255 -71 -484.5t-200 -392.5h-276z" />
    <glyph glyph-name="asterisk" unicode="*" horiz-adv-x="1027" 
d="M631 1065l255 -100l-94 -167l-216 162l32 -266h-188l32 266l-216 -162l-94 167l255 100l-255 106l94 169l217 -174l-33 277h188l-33 -277l217 174l94 -169z" />
    <glyph glyph-name="plus" unicode="+" horiz-adv-x="1415" 
d="M835 455v-409h-255v409h-412v258h412v408h255v-408h413v-258h-413z" />
    <glyph glyph-name="comma" unicode="," horiz-adv-x="722" 
d="M372 -388h-234l79 635h288z" />
    <glyph glyph-name="hyphen" unicode="-" horiz-adv-x="992" 
d="M825 446h-657v273h657v-273z" />
    <glyph glyph-name="period" unicode="." horiz-adv-x="712" 
d="M356 -27q-80 0 -128.5 48.5t-48.5 125.5q0 76 48.5 124.5t128.5 48.5t128.5 -48t48.5 -125t-48.5 -125.5t-128.5 -48.5z" />
    <glyph glyph-name="slash" unicode="/" horiz-adv-x="772" 
d="M310 -288h-268l414 1731h274z" />
    <glyph glyph-name="zero" unicode="0" horiz-adv-x="1402" 
d="M701 -37q-268 0 -420.5 201.5t-152.5 559.5q0 357 152.5 556.5t420.5 199.5q267 0 420 -200t153 -557t-152.5 -558.5t-420.5 -201.5zM701 209q126 0 196.5 132.5t70.5 382.5q0 248 -70.5 378.5t-196.5 130.5q-125 0 -196 -131t-71 -378q0 -249 70.5 -382t196.5 -133z" />
    <glyph glyph-name="one" unicode="1" horiz-adv-x="1051" 
d="M495 0v1149h-18l-354 -244v281l373 257h301v-1443h-302z" />
    <glyph glyph-name="two" unicode="2" horiz-adv-x="1318" 
d="M129 1011q0 209 146 339t380 130q226 0 368.5 -117.5t142.5 -303.5q0 -118 -74 -234.5t-261 -292.5l-276 -263v-18h632v-251h-1041v211l471 461q152 148 203 222t51 145q0 87 -63.5 142.5t-162.5 55.5q-105 0 -170.5 -62.5t-65.5 -162.5v-6h-280v5z" />
    <glyph glyph-name="three" unicode="3" horiz-adv-x="1370" 
d="M498 626v225h176q103 0 166.5 55t63.5 143q0 87 -62.5 138.5t-168.5 51.5q-105 0 -170 -55t-71 -149h-279q8 205 150 325t378 120q222 0 365.5 -109.5t143.5 -279.5q0 -125 -72.5 -215t-193.5 -115v-18q149 -17 235.5 -109.5t86.5 -234.5q0 -125 -72.5 -224.5
t-202.5 -155.5t-292 -56q-241 0 -392 123t-161 327h289q7 -92 79 -145.5t188 -53.5q113 0 184.5 58t71.5 150q0 95 -70 149.5t-191 54.5h-179z" />
    <glyph glyph-name="four" unicode="4" horiz-adv-x="1410" 
d="M820 0v252h-706v267q169 319 571 924h423v-940h189v-251h-189v-252h-288zM385 510v-16h442v714h-16q-231 -345 -426 -698z" />
    <glyph glyph-name="five" unicode="5" horiz-adv-x="1359" 
d="M691 -37q-233 0 -381.5 125.5t-155.5 321.5h279q13 -90 85 -145t175 -55q117 0 189.5 72t72.5 189q0 119 -73 192t-188 73q-167 0 -247 -130h-270l72 837h907v-251h-673l-32 -371h18q98 141 306 141q205 0 336.5 -136t131.5 -348q0 -230 -152 -372.5t-400 -142.5z" />
    <glyph glyph-name="six" unicode="6" horiz-adv-x="1401" 
d="M722 -37q-157 0 -279.5 67t-196.5 194q-121 186 -121 487q0 359 160 564t442 205q206 0 351.5 -111t176.5 -292h-299q-21 71 -83.5 113t-147.5 42q-148 0 -232.5 -132.5t-79.5 -357.5h18q49 102 145.5 157.5t222.5 55.5q205 0 340 -136t135 -343q0 -225 -155 -369
t-397 -144zM719 211q111 0 186.5 73.5t75.5 182.5q0 110 -74 182.5t-187 72.5t-187.5 -72t-74.5 -180q0 -110 75 -184.5t186 -74.5z" />
    <glyph glyph-name="seven" unicode="7" horiz-adv-x="1239" 
d="M207 0l617 1176v19h-715v249h1017v-252l-603 -1192h-316z" />
    <glyph glyph-name="eight" unicode="8" horiz-adv-x="1421" 
d="M710 -37q-260 0 -421 117t-161 305q0 136 86.5 236.5t231.5 132.5v18q-118 27 -189 113t-71 201q0 173 147.5 283.5t377.5 110.5q229 0 376.5 -110.5t147.5 -283.5q0 -115 -70.5 -200.5t-189.5 -113.5v-18q144 -27 231.5 -127.5t87.5 -238.5q0 -190 -162 -307.5
t-422 -117.5zM710 191q119 0 194 62t75 160q0 99 -75 161t-194 62t-193.5 -62t-74.5 -161q0 -98 74.5 -160t193.5 -62zM710 859q100 0 163.5 55.5t63.5 142.5q0 88 -63.5 143.5t-163.5 55.5t-163 -55.5t-63 -143.5q0 -87 63 -142.5t163 -55.5z" />
    <glyph glyph-name="nine" unicode="9" horiz-adv-x="1401" 
d="M674 -37q-205 0 -351 111.5t-177 291.5h299q21 -71 83.5 -113t147.5 -42q148 0 232.5 133t79.5 358h-9h-7h-2q-49 -102 -145.5 -157.5t-222.5 -55.5q-206 0 -340.5 135.5t-134.5 342.5q0 225 155 369t397 144q156 0 278.5 -66.5t197.5 -193.5q121 -188 121 -487
q0 -360 -160 -565t-442 -205zM681 722q113 0 187.5 71.5t74.5 180.5q0 110 -75 184.5t-186 74.5t-186.5 -74t-75.5 -182q0 -111 74 -183t187 -72z" />
    <glyph glyph-name="colon" unicode=":" horiz-adv-x="712" 
d="M356 -27q-80 0 -128.5 48.5t-48.5 125.5q0 76 48.5 124.5t128.5 48.5t128.5 -48t48.5 -125t-48.5 -125.5t-128.5 -48.5zM356 711q-80 0 -128.5 48.5t-48.5 125.5q0 76 48.5 124.5t128.5 48.5t128.5 -48t48.5 -125t-48.5 -125.5t-128.5 -48.5z" />
    <glyph glyph-name="semicolon" unicode=";" horiz-adv-x="712" 
d="M372 -388h-234l79 635h288zM356 711q-80 0 -128.5 48.5t-48.5 125.5q0 76 48.5 124.5t128.5 48.5t128.5 -48t48.5 -125t-48.5 -125.5t-128.5 -48.5z" />
    <glyph glyph-name="less" unicode="&#x3c;" horiz-adv-x="1415" 
d="M1184 279v-301l-953 496v235l953 496v-301l-657 -303v-19z" />
    <glyph glyph-name="equal" unicode="=" horiz-adv-x="1415" 
d="M1244 216h-1073v259h1073v-259zM1244 695h-1073v259h1073v-259z" />
    <glyph glyph-name="greater" unicode="&#x3e;" horiz-adv-x="1415" 
d="M231 279l657 303v19l-657 303v301l953 -496v-235l-953 -496v301z" />
    <glyph glyph-name="question" unicode="?" horiz-adv-x="1141" 
d="M78 1035q4 191 132 306t354 115q214 0 344.5 -108t130.5 -282q0 -111 -53 -193t-161 -145q-100 -58 -135 -104t-35 -118v-53h-265l-2 55q-10 118 32.5 193.5t147.5 137.5q98 58 133 103.5t35 114.5q0 70 -52.5 114.5t-137.5 44.5q-86 0 -139 -49t-58 -132h-271zM533 -30
q-84 0 -133 45.5t-49 124.5t49 125t133 46t132.5 -46t48.5 -125t-48.5 -124.5t-132.5 -45.5z" />
    <glyph glyph-name="at" unicode="@" horiz-adv-x="1899" 
d="M940 837q-79 0 -124 -60.5t-45 -167.5t44.5 -167.5t123.5 -60.5q80 0 127 61t47 167t-46.5 167t-126.5 61zM972 1450q237 0 420.5 -93.5t285 -262.5t101.5 -387q0 -239 -106 -378t-287 -139q-94 0 -157.5 42t-80.5 114h-18q-64 -153 -240 -153q-156 0 -251 116t-95 306
q0 182 93 295t243 113q80 0 142 -37t92 -104h18v119h202v-530q0 -53 25 -82.5t71 -29.5q76 0 121 89.5t45 241.5q0 271 -172.5 434.5t-457.5 163.5q-290 0 -473 -189t-183 -488q0 -304 187.5 -483t506.5 -179q180 0 272 33v-163q-122 -36 -287 -36q-258 0 -453.5 103
t-302 292t-106.5 438q0 244 106.5 434t299 295t439.5 105z" />
    <glyph glyph-name="A" unicode="A" horiz-adv-x="1500" 
d="M1102 0l-109 344h-507l-111 -344h-303l501 1443h355l501 -1443h-327zM732 1143l-181 -566h378l-179 566h-18z" />
    <glyph glyph-name="B" unicode="B" horiz-adv-x="1420" 
d="M823 0h-648v1443h631q209 0 328 -96t119 -264q0 -115 -75 -203t-186 -105v-18q143 -11 236.5 -108t93.5 -236q0 -190 -134 -301.5t-365 -111.5zM477 1212v-367h227q122 0 187 48t65 135t-59.5 135.5t-167.5 48.5h-252zM477 231h269q130 0 199 53.5t69 154.5
q0 99 -70.5 150.5t-204.5 51.5h-262v-410z" />
    <glyph glyph-name="C" unicode="C" horiz-adv-x="1518" 
d="M788 -37q-314 0 -495.5 203.5t-181.5 555.5t181.5 555t495.5 203q256 0 432.5 -152.5t193.5 -388.5h-294q-22 125 -112.5 200t-219.5 75q-170 0 -269 -132t-99 -360t99 -360.5t270 -132.5q130 0 220 71t112 190h294q-19 -234 -192.5 -380.5t-434.5 -146.5z" />
    <glyph glyph-name="D" unicode="D" horiz-adv-x="1530" 
d="M175 1444h568q322 0 499.5 -186.5t177.5 -525.5q0 -351 -176.5 -541.5t-500.5 -190.5h-568v1444zM477 1186v-928h218q201 0 309 120.5t108 348.5q0 218 -110 338.5t-307 120.5h-218z" />
    <glyph glyph-name="E" unicode="E" horiz-adv-x="1274" 
d="M1131 258v-258h-956v1443h956v-258h-654v-337h617v-239h-617v-351h654z" />
    <glyph glyph-name="F" unicode="F" horiz-adv-x="1224" 
d="M477 0h-302v1443h945v-258h-643v-376h587v-247h-587v-562z" />
    <glyph glyph-name="G" unicode="G" horiz-adv-x="1557" 
d="M1443 589q0 -289 -172 -457.5t-468 -168.5q-322 0 -507 203t-185 557q0 349 185 553t500 204q256 0 429 -136t205 -361h-300q-34 110 -121 170.5t-213 60.5q-175 0 -275.5 -130.5t-100.5 -357.5q0 -231 104.5 -364t283.5 -133q148 0 242 80t99 211l1 26h-313v227h606
v-184z" />
    <glyph glyph-name="H" unicode="H" horiz-adv-x="1604" 
d="M1429 0h-302v603h-650v-603h-302v1443h302v-582h650v582h302v-1443z" />
    <glyph glyph-name="I" unicode="I" horiz-adv-x="652" 
d="M477 0h-302v1443h302v-1443z" />
    <glyph glyph-name="J" unicode="J" horiz-adv-x="1231" 
d="M76 424h292q2 -87 54.5 -139t139.5 -52q93 0 142.5 55.5t49.5 161.5v993h302v-995q0 -232 -129.5 -358.5t-360.5 -126.5q-223 0 -356.5 125t-133.5 336z" />
    <glyph glyph-name="K" unicode="K" horiz-adv-x="1453" 
d="M477 0h-302v1443h302v-643h18l533 643h336l-526 -633l563 -810h-362l-419 604l-143 -169v-435z" />
    <glyph glyph-name="L" unicode="L" horiz-adv-x="1218" 
d="M1119 263v-263h-944v1443h302v-1180h642z" />
    <glyph glyph-name="M" unicode="M" horiz-adv-x="1878" 
d="M455 0h-280v1443h356l399 -970h18l400 970h355v-1443h-280v965h-16l-367 -882h-201l-368 882h-16v-965z" />
    <glyph glyph-name="N" unicode="N" horiz-adv-x="1573" 
d="M464 0h-289v1443h252l664 -899h18v899h289v-1443h-250l-666 903h-18v-903z" />
    <glyph glyph-name="O" unicode="O" horiz-adv-x="1610" 
d="M806 1480q320 0 506.5 -204t186.5 -554q0 -351 -186.5 -555t-506.5 -204q-321 0 -508 204t-187 555q0 350 188 554t507 204zM806 1215q-176 0 -281 -133.5t-105 -359.5t104.5 -360t281.5 -134q176 0 280.5 134t104.5 360t-104.5 359.5t-280.5 133.5z" />
    <glyph glyph-name="P" unicode="P" horiz-adv-x="1380" 
d="M175 1443h602q223 0 361.5 -137.5t138.5 -361.5q0 -222 -143 -359t-372 -137h-285v-448h-302v1443zM477 1195v-502h219q131 0 202.5 64.5t71.5 185.5q0 122 -71 187t-202 65h-220z" />
    <glyph glyph-name="Q" unicode="Q" horiz-adv-x="1610" 
d="M1451 -141h-292l-100 142q-116 -38 -253 -38q-321 0 -508 203.5t-187 555.5q0 350 188 554t507 204t506 -204t187 -554q0 -194 -58.5 -345.5t-168.5 -245.5zM807 228q49 0 104 13l-164 240h274l67 -81q103 111 103 322q0 226 -105 359.5t-280 133.5q-176 0 -281 -133.5
t-105 -359.5q0 -228 105 -361t282 -133z" />
    <glyph glyph-name="R" unicode="R" horiz-adv-x="1422" 
d="M477 1199v-444h265q114 0 177.5 58.5t63.5 162.5q0 103 -66 163t-178 60h-262zM477 523v-523h-302v1443h606q238 0 375 -124t137 -339q0 -140 -69.5 -250.5t-192.5 -159.5l304 -570h-342l-269 523h-247z" />
    <glyph glyph-name="S" unicode="S" horiz-adv-x="1383" 
d="M110 401h292q10 -88 92 -140t210 -52q118 0 193 51.5t75 133.5q0 69 -58 112t-191 71l-188 40q-392 82 -392 412q0 204 151 327.5t401 123.5q238 0 391.5 -121t160.5 -314h-284q-11 86 -84 138t-182 52q-114 0 -182.5 -49t-68.5 -131q0 -67 55.5 -108t182.5 -68l174 -37
q217 -46 316 -144t99 -266q0 -218 -156.5 -343.5t-428.5 -125.5q-258 0 -414 118t-164 320z" />
    <glyph glyph-name="T" unicode="T" horiz-adv-x="1352" 
d="M827 0h-302v1185h-433v258h1168v-258h-433v-1185z" />
    <glyph glyph-name="U" unicode="U" horiz-adv-x="1564" 
d="M480 1443v-914q0 -138 79.5 -218t222.5 -80q144 0 223.5 80t79.5 218v914h302v-945q0 -241 -164.5 -388t-440.5 -147q-275 0 -439.5 147t-164.5 388v945h302z" />
    <glyph glyph-name="V" unicode="V" horiz-adv-x="1477" 
d="M925 0h-365l-488 1443h341l328 -1103h18l322 1103h325z" />
    <glyph glyph-name="W" unicode="W" horiz-adv-x="2067" 
d="M1025 955l-270 -955h-285l-382 1443h314l225 -1017h16l263 1017h255l268 -1017h16l223 1017h312l-383 -1443h-283l-273 955h-16z" />
    <glyph glyph-name="X" unicode="X" horiz-adv-x="1494" 
d="M88 0l461 727l-458 716h355l301 -505h18l304 505h338l-475 -721l468 -722h-344l-310 489h-18l-314 -489h-326z" />
    <glyph glyph-name="Y" unicode="Y" horiz-adv-x="1451" 
d="M877 0h-302v531l-503 912h327l318 -604h18l317 604h327l-502 -912v-531z" />
    <glyph glyph-name="Z" unicode="Z" horiz-adv-x="1384" 
d="M135 0v204l726 963v18h-709v258h1077v-203l-724 -964v-18h744v-258h-1114z" />
    <glyph glyph-name="bracketleft" unicode="[" horiz-adv-x="848" 
d="M159 1444h575v-223h-294v-1239h306v-222h-587v1684z" />
    <glyph glyph-name="backslash" unicode="\" horiz-adv-x="772" 
d="M462 -288l-420 1731h274l414 -1731h-268z" />
    <glyph glyph-name="bracketright" unicode="]" horiz-adv-x="848" 
d="M689 1444v-1684h-587v222h307v1239h-294v223h574z" />
    <glyph glyph-name="asciicircum" unicode="^" horiz-adv-x="1066" 
d="M524 1207l-182 -405h-257l319 631h259l319 -631h-257l-183 405h-18z" />
    <glyph glyph-name="underscore" unicode="_" horiz-adv-x="945" 
d="M947 -334h-949v227h949v-227z" />
    <glyph glyph-name="grave" unicode="`" horiz-adv-x="1098" 
d="M826 1281h-269l-287 353h309z" />
    <glyph glyph-name="a" unicode="a" horiz-adv-x="1208" 
d="M544 202q101 0 169 57t68 141v81l-223 -14q-186 -13 -186 -133q0 -61 47.5 -96.5t124.5 -35.5zM448 -17q-160 0 -260.5 91t-100.5 241q0 149 110.5 234.5t316.5 97.5l267 16v90q0 69 -48 106.5t-138 37.5q-162 0 -199 -102h-268q14 153 144.5 242.5t338.5 89.5
q218 0 337.5 -98t119.5 -276v-753h-282v144h-18q-43 -76 -128 -118.5t-192 -42.5z" />
    <glyph glyph-name="b" unicode="b" horiz-adv-x="1334" 
d="M796 -17q-117 0 -206.5 50t-133.5 140h-18v-173h-282v1524h291v-597h18q42 91 130 142.5t201 51.5q209 0 328 -151t119 -418q0 -265 -119.5 -417t-327.5 -152zM695 877q-115 0 -182.5 -87.5t-68.5 -238.5q1 -150 68.5 -237.5t182.5 -87.5q116 0 182.5 87t66.5 239
q0 151 -67 238t-182 87z" />
    <glyph glyph-name="c" unicode="c" horiz-adv-x="1203" 
d="M1122 714h-272q-15 81 -71.5 127.5t-147.5 46.5q-118 0 -181.5 -86t-63.5 -248q0 -164 63.5 -251.5t181.5 -87.5q90 0 146.5 43t72.5 124h272q-18 -187 -148 -296.5t-343 -109.5q-258 0 -398.5 150.5t-140.5 427.5q0 275 140 424t399 149q216 0 344.5 -111t146.5 -302z
" />
    <glyph glyph-name="d" unicode="d" horiz-adv-x="1334" 
d="M541 -17q-208 0 -328.5 153t-120.5 417q0 263 120.5 415.5t328.5 152.5q112 0 199 -51.5t130 -142.5h17v597h291v-1524h-282v173h-18q-44 -89 -133 -139.5t-204 -50.5zM640 877q-116 0 -182.5 -86.5t-66.5 -238.5q0 -153 66 -239.5t183 -86.5t183.5 86.5t66.5 238.5
q0 151 -67 238.5t-183 87.5z" />
    <glyph glyph-name="e" unicode="e" horiz-adv-x="1231" 
d="M623 904q-101 0 -166.5 -65t-73.5 -172h470q-5 110 -66.5 173.5t-163.5 63.5zM859 314h271q-33 -157 -167.5 -247.5t-336.5 -90.5q-252 0 -393 150.5t-141 419.5t142 425t388 156q244 0 380.5 -147t136.5 -410v-89h-757v-15q3 -123 70.5 -194.5t181.5 -71.5
q86 0 144 29.5t81 84.5z" />
    <glyph glyph-name="f" unicode="f" horiz-adv-x="836" 
d="M229 0v863h-175v229h175v111q0 166 89 239t285 73q75 0 146 -11v-209q-44 8 -95 8q-140 0 -140 -121v-90h231v-229h-225v-863h-291z" />
    <glyph glyph-name="g" unicode="g" horiz-adv-x="1322" 
d="M888 561q0 146 -67.5 231t-184.5 85t-182.5 -84.5t-65.5 -230.5q0 -147 65 -231.5t183 -84.5t185 84.5t67 230.5zM632 -418q-218 0 -354.5 88.5t-150.5 234.5h288q11 -51 70 -81t153 -30q117 0 182 51.5t65 144.5v204h-18q-94 -178 -332 -178q-206 0 -326 147.5
t-120 397.5q0 257 121.5 408.5t330.5 151.5q112 0 201.5 -52t133.5 -143h18v177h282v-1099q0 -194 -147 -308t-397 -114z" />
    <glyph glyph-name="h" unicode="h" horiz-adv-x="1332" 
d="M156 0v1524h286v-602h18q38 94 131 148t215 54q185 0 287.5 -108t102.5 -306v-710h-291v641q0 114 -55.5 173t-160.5 59q-109 0 -175.5 -66t-66.5 -174v-633h-291z" />
    <glyph glyph-name="i" unicode="i" horiz-adv-x="587" 
d="M148 0v1103h291v-1103h-291zM294 1257q-78 0 -125 41t-47 106q0 66 47 106.5t125 40.5t125 -40.5t47 -106.5q0 -65 -47.5 -106t-124.5 -41z" />
    <glyph glyph-name="j" unicode="j" horiz-adv-x="587" 
d="M439 1103v-1136q0 -168 -99 -254.5t-291 -86.5q-42 0 -78 3v224q12 -2 37 -2q76 0 108 29t32 96v1127h291zM294 1257q-78 0 -125 41t-47 106q0 66 47 106.5t125 40.5t125 -40.5t47 -106.5q0 -65 -47.5 -106t-124.5 -41z" />
    <glyph glyph-name="k" unicode="k" horiz-adv-x="1232" 
d="M465 672l369 431h331l-420 -473l449 -630h-345l-322 448l-80 -82v-366h-291v1524h291v-852h18z" />
    <glyph glyph-name="l" unicode="l" horiz-adv-x="603" 
d="M156 0v1524h291v-1524h-291z" />
    <glyph glyph-name="m" unicode="m" horiz-adv-x="1899" 
d="M146 0v1103h282v-180h18q34 95 115.5 149.5t189.5 54.5q115 0 193.5 -53.5t111.5 -150.5h18q39 93 128 148.5t204 55.5q165 0 261 -100t96 -270v-757h-291v680q0 196 -184 196q-88 0 -141 -56t-53 -145v-675h-280v692q0 87 -48 135.5t-134 48.5q-85 0 -140 -60t-55 -152
v-664h-291z" />
    <glyph glyph-name="n" unicode="n" horiz-adv-x="1310" 
d="M146 0v1103h282v-177h18q38 93 130 147t213 54q184 0 284.5 -108t100.5 -306v-713h-291v644q0 114 -53.5 173t-156.5 59q-108 0 -172 -65.5t-64 -174.5v-636h-291z" />
    <glyph glyph-name="o" unicode="o" horiz-adv-x="1269" 
d="M635 214q116 0 180 88.5t64 249.5q0 159 -64.5 248t-179.5 89q-116 0 -180 -89t-64 -248q0 -161 63.5 -249.5t180.5 -88.5zM635 -24q-254 0 -398.5 153t-144.5 423q0 268 145.5 421.5t397.5 153.5t397.5 -153.5t145.5 -421.5q0 -270 -144.5 -423t-398.5 -153z" />
    <glyph glyph-name="p" unicode="p" horiz-adv-x="1324" 
d="M783 1121q210 0 330 -151t120 -418q0 -266 -119 -417.5t-326 -151.5q-118 0 -205 49t-128 137h-18v-514h-291v1448h282v-181h18q45 93 134 146t203 53zM684 226q118 0 184 86.5t66 239.5q0 152 -66.5 238.5t-182.5 86.5t-183.5 -87.5t-67.5 -238.5t67 -238t183 -87z" />
    <glyph glyph-name="q" unicode="q" horiz-adv-x="1324" 
d="M543 1121q111 0 200.5 -53.5t133.5 -145.5h18v181h283v-1448h-292v514h-18q-45 -89 -130 -137.5t-201 -48.5q-207 0 -326 152.5t-119 417.5q0 263 121.5 415.5t329.5 152.5zM638 226q117 0 184.5 87t67.5 238t-67.5 238.5t-183.5 87.5t-182 -86.5t-66 -238.5
q0 -153 65.5 -239.5t181.5 -86.5z" />
    <glyph glyph-name="r" unicode="r" horiz-adv-x="884" 
d="M146 0v1103h282v-176h18q22 84 100 139t180 55q73 0 112 -14v-265q-17 7 -60.5 12.5t-75.5 5.5q-119 0 -192 -67t-73 -182v-611h-291z" />
    <glyph glyph-name="s" unicode="s" horiz-adv-x="1160" 
d="M121 779q0 157 126.5 252.5t332.5 95.5q210 0 329.5 -85t131.5 -243h-269q-11 54 -60.5 84.5t-129.5 30.5q-79 0 -130 -32.5t-51 -84.5q0 -40 36 -66.5t113 -43.5l207 -45q161 -35 235.5 -107t74.5 -195q0 -164 -134 -264t-352 -100t-345 86t-142 245h284
q35 -118 209 -118q85 0 138 32.5t53 85.5q0 41 -33 66.5t-106 41.5l-200 45q-161 35 -239.5 113.5t-78.5 205.5z" />
    <glyph glyph-name="t" unicode="t" horiz-adv-x="845" 
d="M229 1360h291v-268h234v-229h-234v-496q0 -72 34.5 -106t108.5 -34q48 0 85 4v-222q-67 -13 -145 -13q-201 0 -287.5 70t-86.5 232v565h-175v229h175v268z" />
    <glyph glyph-name="u" unicode="u" horiz-adv-x="1315" 
d="M1169 1103v-1103h-282v177h-18q-39 -96 -127 -148.5t-208 -52.5q-183 0 -290.5 109.5t-107.5 303.5v714h291v-644q0 -114 56 -172t159 -58q108 0 172 64t64 174v636h291z" />
    <glyph glyph-name="v" unicode="v" horiz-adv-x="1194" 
d="M51 1103h313l228 -822h18l226 822h307l-381 -1103h-328z" />
    <glyph glyph-name="w" unicode="w" horiz-adv-x="1735" 
d="M1674 1103l-293 -1103h-310l-197 761h-18l-195 -761h-306l-294 1103h295l164 -791h18l193 791h278l194 -791h18l164 791h289z" />
    <glyph glyph-name="x" unicode="x" horiz-adv-x="1190" 
d="M598 360h-18l-205 -360h-309l346 545l-348 558h334l195 -362h18l195 362h318l-346 -545l349 -558h-324z" />
    <glyph glyph-name="y" unicode="y" horiz-adv-x="1223" 
d="M283 -403q-93 0 -111 3v235q15 -3 66 -3q82 0 129.5 29t65.5 92l10 40l-387 1110h321l232 -836h18l232 836h308l-380 -1120q-70 -213 -183.5 -299.5t-320.5 -86.5z" />
    <glyph glyph-name="z" unicode="z" horiz-adv-x="1160" 
d="M121 0v172l558 681v18h-550v232h898v-192l-526 -661v-18h539v-232h-919z" />
    <glyph glyph-name="braceleft" unicode="{" horiz-adv-x="927" 
d="M371 601q102 -10 155 -75.5t53 -180.5v-260q0 -117 46 -160.5t168 -43.5h45v-219h-105q-228 0 -330.5 90.5t-102.5 294.5v218q0 116 -37 161.5t-131 45.5v277q94 0 131 45.5t37 162.5v185q0 199 102 287.5t331 88.5h105v-220h-45q-122 0 -168 -43.5t-46 -161.5v-237
q0 -110 -51 -168.5t-157 -68.5v-18z" />
    <glyph glyph-name="bar" unicode="|" horiz-adv-x="749" 
d="M508 -289h-267v1732h267v-1732z" />
    <glyph glyph-name="braceright" unicode="}" horiz-adv-x="927" 
d="M556 601v18q-106 10 -157 68.5t-51 168.5v237q0 118 -46 161.5t-168 43.5h-45v220h105q229 0 331 -88.5t102 -287.5v-185q0 -117 36.5 -162.5t131.5 -45.5v-277q-94 0 -131 -45.5t-37 -161.5v-218q0 -204 -102.5 -294.5t-330.5 -90.5h-105v219h45q122 0 168 43.5
t46 160.5v260q0 115 53 180.5t155 75.5z" />
    <glyph glyph-name="asciitilde" unicode="~" horiz-adv-x="1225" 
d="M566 622q-47 46 -76.5 63.5t-60.5 17.5q-115 0 -119 -178h-228q-2 26 -2 38q0 182 86.5 288t236.5 106q68 0 127 -30t132 -101q44 -43 74.5 -61t60.5 -18q113 0 119 178h227q2 -26 2 -38q0 -182 -86 -288t-235 -106q-68 0 -127.5 29.5t-130.5 99.5z" />
    <glyph glyph-name="nonbreakingspace" unicode="&#xa0;" horiz-adv-x="528" 
 />
    <glyph glyph-name="exclamdown" unicode="&#xa1;" horiz-adv-x="730" 
d="M205 -322l26 969h267l27 -969h-320zM183 982q0 79 49 124.5t133 45.5q85 0 133.5 -45.5t48.5 -124.5q0 -80 -48.5 -125.5t-133.5 -45.5q-84 0 -133 46t-49 125z" />
    <glyph glyph-name="cent" unicode="&#xa2;" horiz-adv-x="1415" 
d="M1253 528q-16 -160 -127.5 -264.5t-285.5 -131.5v-184h-242v188q-200 39 -320 188.5t-120 375.5q0 224 120.5 373t319.5 187v189h242v-185q171 -29 284 -137t129 -267h-272q-22 80 -89 127t-159 47q-122 0 -201.5 -90t-79.5 -244q0 -156 79.5 -247t200.5 -91
q100 0 165 44t84 122h272z" />
    <glyph glyph-name="sterling" unicode="&#xa3;" horiz-adv-x="1415" 
d="M1264 257v-257h-1124v240q133 19 217 108.5t86 215.5q0 30 -11 68h-288v213h224q-59 143 -59 243q0 186 146.5 289t411.5 103q195 0 330 -33v-243q-138 33 -287 33q-138 0 -218 -55t-80 -149q0 -83 42 -188h417v-213h-354q10 -33 10 -65q5 -91 -40 -170t-125 -121v-19
h702z" />
    <glyph glyph-name="currency" unicode="&#xa4;" horiz-adv-x="1415" 
d="M474 648q0 -95 69 -163.5t165 -68.5t165.5 68.5t69.5 163.5t-69.5 164t-165.5 69t-165 -69t-69 -164zM1248 1021l-147 -149q58 -103 58 -224q0 -122 -59 -224l148 -149l-166 -172l-149 150q-103 -61 -225 -61t-225 61l-149 -150l-166 172l148 149q-58 105 -58 224
q0 121 58 224l-148 149l166 172l148 -150q104 62 226 62t225 -61l149 149z" />
    <glyph glyph-name="yen" unicode="&#xa5;" horiz-adv-x="1415" 
d="M1130 206h-271v-206h-302v206h-271v169h271v133h-271v169h195l-427 766h327l318 -604h18l317 604h327l-426 -766h195v-169h-271v-133h271v-169z" />
    <glyph glyph-name="brokenbar" unicode="&#xa6;" horiz-adv-x="749" 
d="M508 773h-267v670h267v-670zM508 -289h-267v669h267v-669z" />
    <glyph glyph-name="section" unicode="&#xa7;" horiz-adv-x="1032" 
d="M464 454l109 -38q59 9 99 48.5t40 89.5q0 47 -37 83.5t-104 55.5l-109 38q-59 -9 -99.5 -49t-40.5 -89q0 -47 37.5 -83.5t104.5 -55.5zM515 -286q-187 0 -308 92.5t-128 241.5h253q7 -55 59.5 -89.5t127.5 -34.5q77 0 125.5 35.5t48.5 91.5q0 42 -35 71.5t-114 52.5
l-175 60q-158 51 -229.5 122.5t-71.5 178.5q0 94 57.5 165.5t157.5 102.5v18q-107 49 -156 114.5t-49 159.5q0 152 120 244.5t318 92.5q184 0 301.5 -90t128.5 -239h-251q-8 53 -58 86t-123 33q-76 0 -123.5 -35t-47.5 -91q0 -42 34 -70.5t113 -53.5l171 -60
q160 -55 232 -125.5t72 -173.5q0 -97 -63.5 -172.5t-167.5 -103.5v-19q116 -45 169.5 -108t53.5 -159q0 -151 -122 -244.5t-320 -93.5z" />
    <glyph glyph-name="dieresis" unicode="&#xa8;" horiz-adv-x="1176" 
d="M354 1267q-67 0 -111 43t-44 109t43.5 108.5t111.5 42.5t111.5 -42.5t43.5 -108.5t-44 -109t-111 -43zM822 1267q-67 0 -111 43t-44 109t44 108.5t111 42.5q68 0 112 -42.5t44 -108.5t-44 -109t-112 -43z" />
    <glyph glyph-name="copyright" unicode="&#xa9;" horiz-adv-x="1742" 
d="M871 -136q-162 0 -308 62t-251 167t-167 251t-62 308t61.5 308.5t167 251.5t251.5 167t308 62q163 0 309 -62t251.5 -167t167 -251.5t61.5 -308.5t-62 -308t-167 -251t-251.5 -167t-308.5 -62zM871 30q129 0 245 48.5t199 132t132 198.5t49 243q0 172 -82.5 315
t-226.5 225.5t-316 82.5q-129 0 -244.5 -49t-198.5 -132t-132 -198.5t-49 -243.5t49 -243t132 -198t198.5 -132t244.5 -49zM1238 759h-188q-11 58 -55 92t-107 34q-85 0 -133.5 -61.5t-48.5 -169.5q0 -110 48.5 -172t133.5 -62q66 0 108.5 31.5t53.5 88.5h188
q-14 -132 -108 -208t-243 -76q-177 0 -279.5 107t-102.5 291q0 182 103 288.5t278 106.5q146 0 242 -79t110 -211z" />
    <glyph glyph-name="ordfeminine" unicode="&#xaa;" horiz-adv-x="1031" 
d="M491 693q75 0 124 44t49 111v70l-167 -12q-143 -9 -143 -107q0 -49 36.5 -77.5t100.5 -28.5zM392 497q-137 0 -219 78t-82 208q0 127 93 199t271 83l207 11v75q1 50 -37.5 78.5t-106.5 28.5q-59 0 -96 -21.5t-45 -60.5h-252q10 135 117.5 212t285.5 77q185 0 291 -85
t106 -234v-631h-256v113h-18q-33 -61 -101.5 -96t-157.5 -35z" />
    <glyph glyph-name="guillemotleft" unicode="&#xab;" horiz-adv-x="1447" 
d="M942 572v-11l347 -410h-276l-344 411v8l349 411h271zM431 572v-11l347 -410h-276l-344 411v8l349 411h271z" />
    <glyph glyph-name="logicalnot" unicode="&#xac;" horiz-adv-x="1415" 
d="M1230 713v-654h-255v396h-790v258h1045z" />
    <glyph glyph-name="registered" unicode="&#xae;" horiz-adv-x="1260" 
d="M630 412q-144 0 -266 71t-193 193t-71 267t71 267t193 193t266 71q145 0 267 -71t192.5 -193t70.5 -267t-70.5 -267t-192.5 -193t-267 -71zM630 548q166 0 281.5 115.5t115.5 279.5q0 165 -115.5 280t-281.5 115q-165 0 -281 -115t-116 -280q0 -164 116 -279.5
t281 -115.5zM546 707h-125v487h256q80 0 130 -43t50 -113q0 -55 -27 -94t-76 -54l127 -183h-149l-111 165h-75v-165zM546 1090v-121h99q78 0 78 61q0 60 -76 60h-101z" />
    <glyph glyph-name="macron" unicode="&#xaf;" horiz-adv-x="1048" 
d="M892 1316h-735v180h735v-180z" />
    <glyph glyph-name="degree" unicode="&#xb0;" horiz-adv-x="887" 
d="M443 759q-143 0 -242 100.5t-99 242.5q0 143 99 243.5t242 100.5q144 0 243 -100.5t99 -243.5t-99 -243t-243 -100zM443 936q74 0 122.5 48.5t48.5 117.5q0 70 -49 118.5t-122 48.5t-121 -48.5t-48 -118.5q0 -69 48 -117.5t121 -48.5z" />
    <glyph glyph-name="plusminus" unicode="&#xb1;" horiz-adv-x="1415" 
d="M1205 71h-997v225h997v-225zM832 650v-234h-249v234h-375v224h375v234h249v-234h375v-224h-375z" />
    <glyph glyph-name="two.sups" unicode="&#xb2;" horiz-adv-x="914" 
d="M80 1530q0 145 102 232.5t271 87.5q163 0 260.5 -77t97.5 -206q0 -89 -54.5 -168t-184.5 -175l-114 -97v-18h368v-213h-727v189l277 239q107 89 141.5 132t34.5 86t-31 70.5t-80 27.5q-52 0 -84 -30t-32 -79v-6h-245v5z" />
    <glyph glyph-name="three.sups" unicode="&#xb3;" horiz-adv-x="950" 
d="M354 1278v177h113q53 0 84.5 25.5t31.5 68.5q0 40 -32.5 65.5t-85.5 25.5q-56 0 -90.5 -28t-37.5 -76h-243q1 142 103 226.5t273 84.5q162 0 261.5 -71t99.5 -186q0 -79 -48.5 -135.5t-127.5 -69.5v-19q97 -8 153.5 -66t56.5 -147q0 -127 -109.5 -205.5t-285.5 -78.5
q-175 0 -279.5 87t-105.5 233h246q2 -49 39.5 -77.5t97.5 -28.5q59 0 95 27.5t36 71.5q0 46 -34 71t-96 25h-115z" />
    <glyph glyph-name="acute" unicode="&#xb4;" horiz-adv-x="1098" 
d="M260 1281l247 353h309l-287 -353h-269z" />
    <glyph glyph-name="paragraph" unicode="&#xb6;" horiz-adv-x="1580" 
d="M966 -259h-280v702h-20q-224 0 -374 143t-150 353q0 219 147 361.5t378 142.5h299v-1702zM1135 -259v1702h280v-1702h-280z" />
    <glyph glyph-name="periodcentered" unicode="&#xb7;" horiz-adv-x="723" 
d="M362 555q-84 0 -133.5 49t-49.5 130q0 80 49.5 129t133.5 49t133 -49t49 -129q0 -81 -49 -130t-133 -49z" />
    <glyph glyph-name="cedilla" unicode="&#xb8;" horiz-adv-x="1098" 
d="M405 -241v115l55 132h174l-49 -119q95 -5 145.5 -50.5t50.5 -126.5q0 -96 -70 -150t-197 -54q-84 0 -147 17v135q37 -14 116 -14q112 0 112 59q0 29 -30.5 42.5t-99.5 13.5h-60z" />
    <glyph glyph-name="one.sups" unicode="&#xb9;" horiz-adv-x="761" 
d="M589 896h-267v679h-18q-7 -4 -111.5 -72t-105.5 -69v235q91 68 232 155h270v-928z" />
    <glyph glyph-name="ordmasculine" unicode="&#xba;" horiz-adv-x="1107" 
d="M553 710q89 0 137.5 70.5t48.5 199.5q0 128 -49 198.5t-137 70.5t-137 -71t-49 -198q0 -129 48.5 -199.5t137.5 -70.5zM553 497q-215 0 -336.5 128t-121.5 355q0 223 123 352.5t335 129.5q214 0 336 -128.5t122 -353.5q0 -228 -121 -355.5t-337 -127.5z" />
    <glyph glyph-name="guillemotright" unicode="&#xbb;" horiz-adv-x="1447" 
d="M505 572l-347 409h271l349 -411v-8l-344 -411h-276l347 410v11zM1016 572l-347 409h271l349 -411v-8l-344 -411h-276l347 410v11z" />
    <glyph glyph-name="onequarter" unicode="&#xbc;" horiz-adv-x="2242" 
d="M1677 928h367v-588h110v-196h-119v-144h-236v134h-481v214q49 100 125.5 224.5t233.5 355.5zM1546 337v-3h254v393h-14q-191 -295 -240 -390zM589 515h-267v679h-18q-7 -4 -111.5 -72t-105.5 -69v235q91 68 232 155h270v-928zM569 0l394 749l305 694h274l-399 -742
l-300 -701h-274z" />
    <glyph glyph-name="onehalf" unicode="&#xbd;" horiz-adv-x="2243" 
d="M1410 634q0 145 102 232.5t271 87.5q163 0 260.5 -77t97.5 -206q0 -89 -54.5 -168t-184.5 -175l-114 -97v-18h368v-213h-727v189l277 239q107 89 141.5 132t34.5 86t-31 70.5t-80 27.5q-52 0 -84 -30t-32 -79v-6h-245v5zM589 515h-267v679h-18q-7 -4 -111.5 -72
t-105.5 -69v235q91 68 232 155h270v-928zM569 0l394 749l305 694h274l-399 -742l-300 -701h-274z" />
    <glyph glyph-name="threequarters" unicode="&#xbe;" horiz-adv-x="2402" 
d="M354 897v177h113q53 0 84.5 25.5t31.5 68.5q0 40 -32.5 65.5t-85.5 25.5q-56 0 -90.5 -28t-37.5 -76h-243q1 142 103 226.5t273 84.5q162 0 261.5 -71t99.5 -186q0 -79 -48.5 -135.5t-127.5 -69.5v-19q97 -8 153.5 -66t56.5 -147q0 -127 -109.5 -205.5t-285.5 -78.5
q-175 0 -279.5 87t-105.5 233h246q2 -49 39.5 -77.5t97.5 -28.5q59 0 95 27.5t36 71.5q0 46 -34 71t-96 25h-115zM1837 928h367v-588h110v-196h-119v-144h-236v134h-481v214q49 100 125.5 224.5t233.5 355.5zM1706 337v-3h254v393h-14q-191 -295 -240 -390zM729 0l394 749
l305 694h274l-399 -742l-300 -701h-274z" />
    <glyph glyph-name="questiondown" unicode="&#xbf;" horiz-adv-x="1141" 
d="M1064 87q-4 -191 -132 -306.5t-353 -115.5q-214 0 -345 108t-131 283q0 110 53.5 191.5t160.5 145.5q100 59 135 104.5t35 117.5v53h264l2 -54q10 -119 -32 -194.5t-148 -137.5q-97 -58 -132.5 -103.5t-35.5 -113.5q0 -71 53 -115.5t138 -44.5t138 49.5t58 132.5h272z
M609 811q-84 0 -133 45.5t-49 124.5t49 124.5t133 45.5q85 0 133.5 -45.5t48.5 -124.5t-48.5 -124.5t-133.5 -45.5z" />
    <glyph glyph-name="Agrave" unicode="&#xc0;" horiz-adv-x="1500" 
d="M1102 0l-109 344h-507l-111 -344h-303l501 1443h355l501 -1443h-327zM732 1143l-181 -566h378l-179 566h-18zM624 1908l276 -318h-277l-314 318h315z" />
    <glyph glyph-name="Aacute" unicode="&#xc1;" horiz-adv-x="1500" 
d="M1102 0l-109 344h-507l-111 -344h-303l501 1443h355l501 -1443h-327zM732 1143l-181 -566h378l-179 566h-18zM609 1590l277 318h315l-314 -318h-278z" />
    <glyph glyph-name="Acircumflex" unicode="&#xc2;" horiz-adv-x="1500" 
d="M1102 0l-109 344h-507l-111 -344h-303l501 1443h355l501 -1443h-327zM732 1143l-181 -566h378l-179 566h-18zM886 1925l284 -335h-265l-146 187h-18l-146 -187h-265l284 335h272z" />
    <glyph glyph-name="Atilde" unicode="&#xc3;" horiz-adv-x="1500" 
d="M1102 0l-109 344h-507l-111 -344h-303l501 1443h355l501 -1443h-327zM732 1143l-181 -566h378l-179 566h-18zM909 1577q-45 0 -83 14t-64 34.5t-49 41t-48 34.5t-51 14q-82 0 -86 -128h-184q0 145 68 227t179 82q47 0 86.5 -14t66 -34.5t49.5 -41t46.5 -34.5t46.5 -14
q80 0 87 124h183q0 -141 -68.5 -223t-178.5 -82z" />
    <glyph glyph-name="Adieresis" unicode="&#xc4;" horiz-adv-x="1500" 
d="M1102 0l-109 344h-507l-111 -344h-303l501 1443h355l501 -1443h-327zM732 1143l-181 -566h378l-179 566h-18zM516 1579q-67 0 -111 43t-44 109t43.5 108.5t111.5 42.5t111.5 -42.5t43.5 -108.5t-44 -109t-111 -43zM984 1579q-67 0 -111 43t-44 109t44 108.5t111 42.5
q68 0 112 -42.5t44 -108.5t-44 -109t-112 -43z" />
    <glyph glyph-name="Aring" unicode="&#xc5;" horiz-adv-x="1500" 
d="M1102 0l-109 344h-507l-111 -344h-303l501 1443h355l501 -1443h-327zM732 1143l-181 -566h378l-179 566h-18zM750 1578q-105 0 -175.5 68.5t-70.5 172.5q0 102 70.5 170t175.5 68t175 -67.5t70 -170.5q0 -104 -70 -172.5t-175 -68.5zM750 1714q46 0 75.5 29.5t29.5 74.5
q0 44 -30 73.5t-75 29.5q-46 0 -76 -29.5t-30 -73.5q0 -46 30 -75t76 -29z" />
    <glyph glyph-name="AE" unicode="&#xc6;" horiz-adv-x="2059" 
d="M990 1202h-129l-249 -604h378v604zM990 0v364h-465l-154 -364h-299l595 1443h1250v-258h-651v-341h614v-239h-614v-347h651v-258h-927z" />
    <glyph glyph-name="Ccedilla" unicode="&#xc7;" horiz-adv-x="1518" 
d="M1121 490h294q-17 -214 -165 -356.5t-377 -166.5l-33 -79q95 -5 145.5 -50.5t50.5 -126.5q0 -96 -70 -150t-197 -54q-84 0 -147 17v135q37 -14 116 -14q112 0 112 59q0 29 -30.5 42.5t-99.5 13.5h-60v115l39 93q-275 29 -431.5 228.5t-156.5 525.5q0 352 181.5 555
t495.5 203q256 0 432.5 -152.5t193.5 -388.5h-294q-22 125 -112.5 200t-219.5 75q-170 0 -269 -132t-99 -360t99 -360.5t270 -132.5q130 0 220 71t112 190z" />
    <glyph glyph-name="Egrave" unicode="&#xc8;" horiz-adv-x="1274" 
d="M527 1908l276 -318h-277l-314 318h315zM1131 258v-258h-956v1443h956v-258h-654v-337h617v-239h-617v-351h654z" />
    <glyph glyph-name="Eacute" unicode="&#xc9;" horiz-adv-x="1274" 
d="M512 1590l277 318h315l-314 -318h-278zM1131 258v-258h-956v1443h956v-258h-654v-337h617v-239h-617v-351h654z" />
    <glyph glyph-name="Ecircumflex" unicode="&#xca;" horiz-adv-x="1274" 
d="M789 1925l284 -335h-265l-146 187h-18l-146 -187h-265l284 335h272zM1131 258v-258h-956v1443h956v-258h-654v-337h617v-239h-617v-351h654z" />
    <glyph glyph-name="Edieresis" unicode="&#xcb;" horiz-adv-x="1274" 
d="M419 1579q-67 0 -111 43t-44 109t43.5 108.5t111.5 42.5t111.5 -42.5t43.5 -108.5t-44 -109t-111 -43zM887 1579q-67 0 -111 43t-44 109t44 108.5t111 42.5q68 0 112 -42.5t44 -108.5t-44 -109t-112 -43zM1131 258v-258h-956v1443h956v-258h-654v-337h617v-239h-617v-351
h654z" />
    <glyph glyph-name="Igrave" unicode="&#xcc;" horiz-adv-x="652" 
d="M477 0h-302v1443h302v-1443zM200 1908l276 -318h-277l-314 318h315z" />
    <glyph glyph-name="Iacute" unicode="&#xcd;" horiz-adv-x="652" 
d="M477 0h-302v1443h302v-1443zM185 1590l277 318h315l-314 -318h-278z" />
    <glyph glyph-name="Icircumflex" unicode="&#xce;" horiz-adv-x="652" 
d="M477 0h-302v1443h302v-1443zM462 1925l284 -335h-265l-146 187h-18l-146 -187h-265l284 335h272z" />
    <glyph glyph-name="Idieresis" unicode="&#xcf;" horiz-adv-x="652" 
d="M477 0h-302v1443h302v-1443zM92 1579q-67 0 -111 43t-44 109t43.5 108.5t111.5 42.5t111.5 -42.5t43.5 -108.5t-44 -109t-111 -43zM560 1579q-67 0 -111 43t-44 109t44 108.5t111 42.5q68 0 112 -42.5t44 -108.5t-44 -109t-112 -43z" />
    <glyph glyph-name="Eth" unicode="&#xd0;" horiz-adv-x="1499" 
d="M477 258h218q201 0 309 120.5t108 348.5q0 218 -110 338.5t-307 120.5h-218v-341h210v-227h-210v-360zM175 1444h568q322 0 499.5 -186.5t177.5 -525.5q0 -351 -176.5 -541.5t-500.5 -190.5h-568v618h-142v227h142v599z" />
    <glyph glyph-name="Ntilde" unicode="&#xd1;" horiz-adv-x="1573" 
d="M942 1577q-45 0 -83 14t-64 34.5t-49 41t-48 34.5t-51 14q-82 0 -86 -128h-184q0 145 68 227t179 82q47 0 86.5 -14t66 -34.5t49.5 -41t46.5 -34.5t46.5 -14q80 0 87 124h183q0 -141 -68.5 -223t-178.5 -82zM464 0h-289v1443h252l664 -899h18v899h289v-1443h-250
l-666 903h-18v-903z" />
    <glyph glyph-name="Ograve" unicode="&#xd2;" horiz-adv-x="1610" 
d="M680 1908l276 -318h-277l-314 318h315zM806 1480q320 0 506.5 -204t186.5 -554q0 -351 -186.5 -555t-506.5 -204q-321 0 -508 204t-187 555q0 350 188 554t507 204zM806 1215q-176 0 -281 -133.5t-105 -359.5t104.5 -360t281.5 -134q176 0 280.5 134t104.5 360
t-104.5 359.5t-280.5 133.5z" />
    <glyph glyph-name="Oacute" unicode="&#xd3;" horiz-adv-x="1610" 
d="M665 1590l277 318h315l-314 -318h-278zM806 1480q320 0 506.5 -204t186.5 -554q0 -351 -186.5 -555t-506.5 -204q-321 0 -508 204t-187 555q0 350 188 554t507 204zM806 1215q-176 0 -281 -133.5t-105 -359.5t104.5 -360t281.5 -134q176 0 280.5 134t104.5 360
t-104.5 359.5t-280.5 133.5z" />
    <glyph glyph-name="Ocircumflex" unicode="&#xd4;" horiz-adv-x="1610" 
d="M942 1925l284 -335h-265l-146 187h-18l-146 -187h-265l284 335h272zM806 1480q320 0 506.5 -204t186.5 -554q0 -351 -186.5 -555t-506.5 -204q-321 0 -508 204t-187 555q0 350 188 554t507 204zM806 1215q-176 0 -281 -133.5t-105 -359.5t104.5 -360t281.5 -134
q176 0 280.5 134t104.5 360t-104.5 359.5t-280.5 133.5z" />
    <glyph glyph-name="Otilde" unicode="&#xd5;" horiz-adv-x="1610" 
d="M806 1480q320 0 506.5 -204t186.5 -554q0 -351 -186.5 -555t-506.5 -204q-321 0 -508 204t-187 555q0 350 188 554t507 204zM806 1215q-176 0 -281 -133.5t-105 -359.5t104.5 -360t281.5 -134q176 0 280.5 134t104.5 360t-104.5 359.5t-280.5 133.5zM965 1577
q-45 0 -83 14t-64 34.5t-49 41t-48 34.5t-51 14q-82 0 -86 -128h-184q0 145 68 227t179 82q47 0 86.5 -14t66 -34.5t49.5 -41t46.5 -34.5t46.5 -14q80 0 87 124h183q0 -141 -68.5 -223t-178.5 -82z" />
    <glyph glyph-name="Odieresis" unicode="&#xd6;" horiz-adv-x="1610" 
d="M572 1579q-67 0 -111 43t-44 109t43.5 108.5t111.5 42.5t111.5 -42.5t43.5 -108.5t-44 -109t-111 -43zM1040 1579q-67 0 -111 43t-44 109t44 108.5t111 42.5q68 0 112 -42.5t44 -108.5t-44 -109t-112 -43zM806 1480q320 0 506.5 -204t186.5 -554q0 -351 -186.5 -555
t-506.5 -204q-321 0 -508 204t-187 555q0 350 188 554t507 204zM806 1215q-176 0 -281 -133.5t-105 -359.5t104.5 -360t281.5 -134q176 0 280.5 134t104.5 360t-104.5 359.5t-280.5 133.5z" />
    <glyph glyph-name="multiply" unicode="&#xd7;" horiz-adv-x="1415" 
d="M708 402l-305 -304l-175 182l304 304l-304 305l175 182l305 -304l304 304l175 -182l-304 -305l304 -304l-175 -182z" />
    <glyph glyph-name="Oslash" unicode="&#xd8;" horiz-adv-x="1592" 
d="M1097 1067l-510 -768q93 -71 219 -71q176 0 280.5 134t104.5 360q0 216 -94 345zM503 392l506 763q-88 60 -203 60q-176 0 -281 -133.5t-105 -359.5q0 -201 83 -330zM1350 1448l-84 -127q113 -98 173 -251t60 -348q0 -351 -186.5 -555t-506.5 -204q-217 0 -377 97
l-85 -128l-102 66l90 135q-107 100 -164 249.5t-57 339.5q0 350 188 554t507 204q207 0 360 -88l76 115z" />
    <glyph glyph-name="Ugrave" unicode="&#xd9;" horiz-adv-x="1565" 
d="M656 1908l276 -318h-277l-314 318h315zM480 1443v-914q0 -138 79.5 -218t222.5 -80q144 0 223.5 80t79.5 218v914h302v-945q0 -241 -164.5 -388t-440.5 -147q-275 0 -439.5 147t-164.5 388v945h302z" />
    <glyph glyph-name="Uacute" unicode="&#xda;" horiz-adv-x="1565" 
d="M641 1590l277 318h315l-314 -318h-278zM480 1443v-914q0 -138 79.5 -218t222.5 -80q144 0 223.5 80t79.5 218v914h302v-945q0 -241 -164.5 -388t-440.5 -147q-275 0 -439.5 147t-164.5 388v945h302z" />
    <glyph glyph-name="Ucircumflex" unicode="&#xdb;" horiz-adv-x="1565" 
d="M918 1925l284 -335h-265l-146 187h-18l-146 -187h-265l284 335h272zM480 1443v-914q0 -138 79.5 -218t222.5 -80q144 0 223.5 80t79.5 218v914h302v-945q0 -241 -164.5 -388t-440.5 -147q-275 0 -439.5 147t-164.5 388v945h302z" />
    <glyph glyph-name="Udieresis" unicode="&#xdc;" horiz-adv-x="1565" 
d="M548 1579q-67 0 -111 43t-44 109t43.5 108.5t111.5 42.5t111.5 -42.5t43.5 -108.5t-44 -109t-111 -43zM1016 1579q-67 0 -111 43t-44 109t44 108.5t111 42.5q68 0 112 -42.5t44 -108.5t-44 -109t-112 -43zM480 1443v-914q0 -138 79.5 -218t222.5 -80q144 0 223.5 80
t79.5 218v914h302v-945q0 -241 -164.5 -388t-440.5 -147q-275 0 -439.5 147t-164.5 388v945h302z" />
    <glyph glyph-name="Yacute" unicode="&#xdd;" horiz-adv-x="1452" 
d="M877 0h-302v531l-503 912h327l318 -604h18l317 604h327l-502 -912v-531zM585 1590l277 318h315l-314 -318h-278z" />
    <glyph glyph-name="Thorn" unicode="&#xde;" horiz-adv-x="1378" 
d="M175 1443h304v-232h307q209 0 342 -125t133 -337q0 -211 -138 -336t-352 -125h-294v-288h-302v1443zM477 963v-430h226q117 0 184 55.5t67 160.5q0 104 -66.5 159t-183.5 55h-227z" />
    <glyph glyph-name="germandbls" unicode="&#xdf;" horiz-adv-x="1402" 
d="M482 0h-290v1079q0 186 135.5 294t364.5 108q219 0 356.5 -105t137.5 -272q0 -119 -60.5 -207t-157.5 -115v-19q151 -10 243 -107.5t92 -254.5q0 -187 -132 -301.5t-353 -114.5q-114 0 -181 16v241q54 -18 129 -18q115 0 178 52.5t63 142.5q0 91 -72.5 143.5t-201.5 52.5
h-72v245h49q88 0 140.5 51t52.5 141q0 83 -55.5 134t-150.5 51q-104 0 -159.5 -56.5t-55.5 -163.5v-1017z" />
    <glyph glyph-name="agrave" unicode="&#xe0;" horiz-adv-x="1208" 
d="M544 202q101 0 169 57t68 141v81l-223 -14q-186 -13 -186 -133q0 -61 47.5 -96.5t124.5 -35.5zM448 -17q-160 0 -260.5 91t-100.5 241q0 149 110.5 234.5t316.5 97.5l267 16v90q0 69 -48 106.5t-138 37.5q-162 0 -199 -102h-268q14 153 144.5 242.5t338.5 89.5
q218 0 337.5 -98t119.5 -276v-753h-282v144h-18q-43 -76 -128 -118.5t-192 -42.5zM770 1281h-269l-287 353h309z" />
    <glyph glyph-name="aacute" unicode="&#xe1;" horiz-adv-x="1208" 
d="M544 202q101 0 169 57t68 141v81l-223 -14q-186 -13 -186 -133q0 -61 47.5 -96.5t124.5 -35.5zM448 -17q-160 0 -260.5 91t-100.5 241q0 149 110.5 234.5t316.5 97.5l267 16v90q0 69 -48 106.5t-138 37.5q-162 0 -199 -102h-268q14 153 144.5 242.5t338.5 89.5
q218 0 337.5 -98t119.5 -276v-753h-282v144h-18q-43 -76 -128 -118.5t-192 -42.5zM456 1281l247 353h309l-287 -353h-269z" />
    <glyph glyph-name="acircumflex" unicode="&#xe2;" horiz-adv-x="1208" 
d="M544 202q101 0 169 57t68 141v81l-223 -14q-186 -13 -186 -133q0 -61 47.5 -96.5t124.5 -35.5zM448 -17q-160 0 -260.5 91t-100.5 241q0 149 110.5 234.5t316.5 97.5l267 16v90q0 69 -48 106.5t-138 37.5q-162 0 -199 -102h-268q14 153 144.5 242.5t338.5 89.5
q218 0 337.5 -98t119.5 -276v-753h-282v144h-18q-43 -76 -128 -118.5t-192 -42.5zM756 1605l275 -354h-263l-148 209h-18l-149 -209h-263l275 354h291z" />
    <glyph glyph-name="atilde" unicode="&#xe3;" horiz-adv-x="1208" 
d="M544 202q101 0 169 57t68 141v81l-223 -14q-186 -13 -186 -133q0 -61 47.5 -96.5t124.5 -35.5zM448 -17q-160 0 -260.5 91t-100.5 241q0 149 110.5 234.5t316.5 97.5l267 16v90q0 69 -48 106.5t-138 37.5q-162 0 -199 -102h-268q14 153 144.5 242.5t338.5 89.5
q218 0 337.5 -98t119.5 -276v-753h-282v144h-18q-43 -76 -128 -118.5t-192 -42.5zM484 1397q-86 0 -88 -141h-187q0 145 71.5 233t189.5 88q42 0 79 -15t62.5 -36t48 -42t45 -36t43.5 -15q87 0 88 138h187q0 -144 -71.5 -231t-189.5 -87q-42 0 -79 15t-62.5 36t-48 42
t-45 36t-43.5 15z" />
    <glyph glyph-name="adieresis" unicode="&#xe4;" horiz-adv-x="1208" 
d="M544 202q101 0 169 57t68 141v81l-223 -14q-186 -13 -186 -133q0 -61 47.5 -96.5t124.5 -35.5zM448 -17q-160 0 -260.5 91t-100.5 241q0 149 110.5 234.5t316.5 97.5l267 16v90q0 69 -48 106.5t-138 37.5q-162 0 -199 -102h-268q14 153 144.5 242.5t338.5 89.5
q218 0 337.5 -98t119.5 -276v-753h-282v144h-18q-43 -76 -128 -118.5t-192 -42.5zM377 1251q-67 0 -111 43t-44 109t43.5 108.5t111.5 42.5t111.5 -42.5t43.5 -108.5t-44 -109t-111 -43zM845 1251q-67 0 -111 43t-44 109t44 108.5t111 42.5q68 0 112 -42.5t44 -108.5
t-44 -109t-112 -43z" />
    <glyph glyph-name="aring" unicode="&#xe5;" horiz-adv-x="1208" 
d="M544 202q101 0 169 57t68 141v81l-223 -14q-186 -13 -186 -133q0 -61 47.5 -96.5t124.5 -35.5zM448 -17q-160 0 -260.5 91t-100.5 241q0 149 110.5 234.5t316.5 97.5l267 16v90q0 69 -48 106.5t-138 37.5q-162 0 -199 -102h-268q14 153 144.5 242.5t338.5 89.5
q218 0 337.5 -98t119.5 -276v-753h-282v144h-18q-43 -76 -128 -118.5t-192 -42.5zM611 1251q-105 0 -175.5 68.5t-70.5 172.5q0 102 70.5 170t175.5 68t175 -67.5t70 -170.5q0 -104 -70 -172.5t-175 -68.5zM611 1387q46 0 75.5 29.5t29.5 74.5q0 44 -30 73.5t-75 29.5
q-46 0 -76 -29.5t-30 -73.5q0 -46 30 -75t76 -29z" />
    <glyph glyph-name="ae" unicode="&#xe6;" horiz-adv-x="1894" 
d="M1315 -24q-130 0 -235 53.5t-156 144.5h-18q-64 -93 -169.5 -145.5t-237.5 -52.5q-187 0 -299.5 94t-112.5 245q0 149 110.5 234.5t316.5 97.5l267 16v90q0 69 -48 106.5t-138 37.5q-162 0 -199 -102h-268q13 146 139 239t313 93q251 0 357 -158h18q58 72 151.5 115
t204.5 43q228 0 360 -148t132 -401v-94h-747v-26q4 -117 74 -187.5t182 -70.5q155 0 212 114h269q-33 -156 -161 -247t-317 -91zM1293 904q-102 0 -166.5 -64.5t-70.5 -170.5h462q-4 105 -66.5 170t-158.5 65zM549 199q98 0 165 60t67 145v77l-223 -14q-186 -13 -186 -135
q0 -62 48.5 -97.5t128.5 -35.5z" />
    <glyph glyph-name="ccedilla" unicode="&#xe7;" horiz-adv-x="1203" 
d="M1122 714h-272q-15 81 -71.5 127.5t-147.5 46.5q-118 0 -181.5 -86t-63.5 -248q0 -164 63.5 -251.5t181.5 -87.5q90 0 146.5 43t72.5 124h272q-16 -166 -121 -272t-279 -128l-39 -94q95 -5 145.5 -50.5t50.5 -126.5q0 -96 -70 -150t-197 -54q-84 0 -147 17v135
q37 -14 116 -14q112 0 112 59q0 29 -30.5 42.5t-99.5 13.5h-60v115l44 105q-219 24 -337 172t-118 402q0 275 140 424t399 149q216 0 344.5 -111t146.5 -302z" />
    <glyph glyph-name="egrave" unicode="&#xe8;" horiz-adv-x="1231" 
d="M781 1281h-269l-287 353h309zM623 904q-101 0 -166.5 -65t-73.5 -172h470q-5 110 -66.5 173.5t-163.5 63.5zM859 314h271q-33 -157 -167.5 -247.5t-336.5 -90.5q-252 0 -393 150.5t-141 419.5t142 425t388 156q244 0 380.5 -147t136.5 -410v-89h-757v-15
q3 -123 70.5 -194.5t181.5 -71.5q86 0 144 29.5t81 84.5z" />
    <glyph glyph-name="eacute" unicode="&#xe9;" horiz-adv-x="1231" 
d="M467 1281l247 353h309l-287 -353h-269zM623 904q-101 0 -166.5 -65t-73.5 -172h470q-5 110 -66.5 173.5t-163.5 63.5zM859 314h271q-33 -157 -167.5 -247.5t-336.5 -90.5q-252 0 -393 150.5t-141 419.5t142 425t388 156q244 0 380.5 -147t136.5 -410v-89h-757v-15
q3 -123 70.5 -194.5t181.5 -71.5q86 0 144 29.5t81 84.5z" />
    <glyph glyph-name="ecircumflex" unicode="&#xea;" horiz-adv-x="1231" 
d="M767 1605l275 -354h-263l-148 209h-18l-149 -209h-263l275 354h291zM623 904q-101 0 -166.5 -65t-73.5 -172h470q-5 110 -66.5 173.5t-163.5 63.5zM859 314h271q-33 -157 -167.5 -247.5t-336.5 -90.5q-252 0 -393 150.5t-141 419.5t142 425t388 156q244 0 380.5 -147
t136.5 -410v-89h-757v-15q3 -123 70.5 -194.5t181.5 -71.5q86 0 144 29.5t81 84.5z" />
    <glyph glyph-name="edieresis" unicode="&#xeb;" horiz-adv-x="1231" 
d="M623 904q-101 0 -166.5 -65t-73.5 -172h470q-5 110 -66.5 173.5t-163.5 63.5zM859 314h271q-33 -157 -167.5 -247.5t-336.5 -90.5q-252 0 -393 150.5t-141 419.5t142 425t388 156q244 0 380.5 -147t136.5 -410v-89h-757v-15q3 -123 70.5 -194.5t181.5 -71.5
q86 0 144 29.5t81 84.5zM388 1251q-67 0 -111 43t-44 109t43.5 108.5t111.5 42.5t111.5 -42.5t43.5 -108.5t-44 -109t-111 -43zM856 1251q-67 0 -111 43t-44 109t44 108.5t111 42.5q68 0 112 -42.5t44 -108.5t-44 -109t-112 -43z" />
    <glyph glyph-name="igrave" unicode="&#xec;" horiz-adv-x="593" 
d="M456 1281h-269l-287 353h309zM151 0v1103h291v-1103h-291z" />
    <glyph glyph-name="iacute" unicode="&#xed;" horiz-adv-x="593" 
d="M142 1281l247 353h309l-287 -353h-269zM151 0v1103h291v-1103h-291z" />
    <glyph glyph-name="icircumflex" unicode="&#xee;" horiz-adv-x="593" 
d="M442 1605l275 -354h-263l-148 209h-18l-149 -209h-263l275 354h291zM151 0v1103h291v-1103h-291z" />
    <glyph glyph-name="idieresis" unicode="&#xef;" horiz-adv-x="593" 
d="M151 0v1103h291v-1103h-291zM63 1251q-67 0 -111 43t-44 109t43.5 108.5t111.5 42.5t111.5 -42.5t43.5 -108.5t-44 -109t-111 -43zM531 1251q-67 0 -111 43t-44 109t44 108.5t111 42.5q68 0 112 -42.5t44 -108.5t-44 -109t-112 -43z" />
    <glyph glyph-name="eth" unicode="&#xf0;" horiz-adv-x="1277" 
d="M638 -17q-245 0 -393 151t-148 402q0 230 127 373.5t331 143.5q90 0 166.5 -34t116.5 -91h17q-20 65 -65.5 140.5t-105.5 140.5l-285 -95l-55 143l228 76q-78 69 -242 183h363q60 -45 119 -100l265 89l57 -143l-205 -68q124 -146 188.5 -322.5t64.5 -367.5
q0 -283 -148 -452t-396 -169zM645 843q-115 0 -182 -83.5t-67 -225.5t67 -225t182 -83q116 0 183 83t67 225q0 141 -68 225t-182 84z" />
    <glyph glyph-name="ntilde" unicode="&#xf1;" horiz-adv-x="1310" 
d="M540 1397q-86 0 -88 -141h-187q0 145 71.5 233t189.5 88q42 0 79 -15t62.5 -36t48 -42t45 -36t43.5 -15q87 0 88 138h187q0 -144 -71.5 -231t-189.5 -87q-42 0 -79 15t-62.5 36t-48 42t-45 36t-43.5 15zM146 0v1103h282v-177h18q38 93 130 147t213 54q184 0 284.5 -108
t100.5 -306v-713h-291v644q0 114 -53.5 173t-156.5 59q-108 0 -172 -65.5t-64 -174.5v-636h-291z" />
    <glyph glyph-name="ograve" unicode="&#xf2;" horiz-adv-x="1269" 
d="M794 1281h-269l-287 353h309zM635 214q116 0 180 88.5t64 249.5q0 159 -64.5 248t-179.5 89q-116 0 -180 -89t-64 -248q0 -161 63.5 -249.5t180.5 -88.5zM635 -24q-254 0 -398.5 153t-144.5 423q0 268 145.5 421.5t397.5 153.5t397.5 -153.5t145.5 -421.5
q0 -270 -144.5 -423t-398.5 -153z" />
    <glyph glyph-name="oacute" unicode="&#xf3;" horiz-adv-x="1269" 
d="M480 1281l247 353h309l-287 -353h-269zM635 214q116 0 180 88.5t64 249.5q0 159 -64.5 248t-179.5 89q-116 0 -180 -89t-64 -248q0 -161 63.5 -249.5t180.5 -88.5zM635 -24q-254 0 -398.5 153t-144.5 423q0 268 145.5 421.5t397.5 153.5t397.5 -153.5t145.5 -421.5
q0 -270 -144.5 -423t-398.5 -153z" />
    <glyph glyph-name="ocircumflex" unicode="&#xf4;" horiz-adv-x="1269" 
d="M780 1605l275 -354h-263l-148 209h-18l-149 -209h-263l275 354h291zM635 214q116 0 180 88.5t64 249.5q0 159 -64.5 248t-179.5 89q-116 0 -180 -89t-64 -248q0 -161 63.5 -249.5t180.5 -88.5zM635 -24q-254 0 -398.5 153t-144.5 423q0 268 145.5 421.5t397.5 153.5
t397.5 -153.5t145.5 -421.5q0 -270 -144.5 -423t-398.5 -153z" />
    <glyph glyph-name="otilde" unicode="&#xf5;" horiz-adv-x="1269" 
d="M508 1397q-86 0 -88 -141h-187q0 145 71.5 233t189.5 88q42 0 79 -15t62.5 -36t48 -42t45 -36t43.5 -15q87 0 88 138h187q0 -144 -71.5 -231t-189.5 -87q-42 0 -79 15t-62.5 36t-48 42t-45 36t-43.5 15zM635 214q116 0 180 88.5t64 249.5q0 159 -64.5 248t-179.5 89
q-116 0 -180 -89t-64 -248q0 -161 63.5 -249.5t180.5 -88.5zM635 -24q-254 0 -398.5 153t-144.5 423q0 268 145.5 421.5t397.5 153.5t397.5 -153.5t145.5 -421.5q0 -270 -144.5 -423t-398.5 -153z" />
    <glyph glyph-name="odieresis" unicode="&#xf6;" horiz-adv-x="1269" 
d="M401 1251q-67 0 -111 43t-44 109t43.5 108.5t111.5 42.5t111.5 -42.5t43.5 -108.5t-44 -109t-111 -43zM869 1251q-67 0 -111 43t-44 109t44 108.5t111 42.5q68 0 112 -42.5t44 -108.5t-44 -109t-112 -43zM635 214q116 0 180 88.5t64 249.5q0 159 -64.5 248t-179.5 89
q-116 0 -180 -89t-64 -248q0 -161 63.5 -249.5t180.5 -88.5zM635 -24q-254 0 -398.5 153t-144.5 423q0 268 145.5 421.5t397.5 153.5t397.5 -153.5t145.5 -421.5q0 -270 -144.5 -423t-398.5 -153z" />
    <glyph glyph-name="divide" unicode="&#xf7;" horiz-adv-x="1415" 
d="M1248 472h-1080v225h1080v-225zM708 815q-74 0 -120.5 45t-46.5 117t46.5 116.5t120.5 44.5t120.5 -44.5t46.5 -116.5t-46.5 -117t-120.5 -45zM708 30q-74 0 -120.5 45t-46.5 117t46.5 117t120.5 45t120.5 -45t46.5 -117t-46.5 -117t-120.5 -45z" />
    <glyph glyph-name="oslash" unicode="&#xf8;" horiz-adv-x="1269" 
d="M841 755l-320 -513q49 -28 114 -28q116 0 180 88.5t64 249.5q0 121 -38 203zM436 333l324 520q-53 36 -125 36q-116 0 -180 -89t-64 -248q0 -136 45 -219zM1065 1114l-67 -107q180 -155 180 -455q0 -270 -144.5 -423t-398.5 -153q-139 0 -249 48l-61 -97l-103 63l60 96
q-190 153 -190 466q0 268 145.5 421.5t397.5 153.5q147 0 262 -55l62 100z" />
    <glyph glyph-name="ugrave" unicode="&#xf9;" horiz-adv-x="1318" 
d="M815 1281h-269l-287 353h309zM1169 1103v-1103h-282v177h-18q-39 -96 -127 -148.5t-208 -52.5q-183 0 -290.5 109.5t-107.5 303.5v714h291v-644q0 -114 56 -172t159 -58q108 0 172 64t64 174v636h291z" />
    <glyph glyph-name="uacute" unicode="&#xfa;" horiz-adv-x="1318" 
d="M501 1281l247 353h309l-287 -353h-269zM1169 1103v-1103h-282v177h-18q-39 -96 -127 -148.5t-208 -52.5q-183 0 -290.5 109.5t-107.5 303.5v714h291v-644q0 -114 56 -172t159 -58q108 0 172 64t64 174v636h291z" />
    <glyph glyph-name="ucircumflex" unicode="&#xfb;" horiz-adv-x="1318" 
d="M801 1605l275 -354h-263l-148 209h-18l-149 -209h-263l275 354h291zM1169 1103v-1103h-282v177h-18q-39 -96 -127 -148.5t-208 -52.5q-183 0 -290.5 109.5t-107.5 303.5v714h291v-644q0 -114 56 -172t159 -58q108 0 172 64t64 174v636h291z" />
    <glyph glyph-name="udieresis" unicode="&#xfc;" horiz-adv-x="1318" 
d="M1169 1103v-1103h-282v177h-18q-39 -96 -127 -148.5t-208 -52.5q-183 0 -290.5 109.5t-107.5 303.5v714h291v-644q0 -114 56 -172t159 -58q108 0 172 64t64 174v636h291zM422 1251q-67 0 -111 43t-44 109t43.5 108.5t111.5 42.5t111.5 -42.5t43.5 -108.5t-44 -109
t-111 -43zM890 1251q-67 0 -111 43t-44 109t44 108.5t111 42.5q68 0 112 -42.5t44 -108.5t-44 -109t-112 -43z" />
    <glyph glyph-name="yacute" unicode="&#xfd;" horiz-adv-x="1223" 
d="M283 -403q-93 0 -111 3v235q15 -3 66 -3q82 0 129.5 29t65.5 92l10 40l-387 1110h321l232 -836h18l232 836h308l-380 -1120q-70 -213 -183.5 -299.5t-320.5 -86.5zM461 1281l247 353h309l-287 -353h-269z" />
    <glyph glyph-name="thorn" unicode="&#xfe;" horiz-adv-x="1339" 
d="M790 1121q210 0 329 -151t119 -418q0 -266 -119 -417.5t-326 -151.5q-118 0 -205 49t-128 137h-18v-514h-291v1852h287v-585h18q45 93 133 146t201 53zM689 226q118 0 184 86.5t66 239.5q0 152 -66.5 238.5t-182.5 86.5t-183.5 -87.5t-67.5 -238.5t67 -238t183 -87z" />
    <glyph glyph-name="ydieresis" unicode="&#xff;" horiz-adv-x="1223" 
d="M283 -403q-93 0 -111 3v235q15 -3 66 -3q82 0 129.5 29t65.5 92l10 40l-387 1110h321l232 -836h18l232 836h308l-380 -1120q-70 -213 -183.5 -299.5t-320.5 -86.5zM382 1251q-67 0 -111 43t-44 109t43.5 108.5t111.5 42.5t111.5 -42.5t43.5 -108.5t-44 -109t-111 -43z
M850 1251q-67 0 -111 43t-44 109t44 108.5t111 42.5q68 0 112 -42.5t44 -108.5t-44 -109t-112 -43z" />
    <glyph glyph-name="Amacron" unicode="&#x100;" horiz-adv-x="1500" 
d="M1102 0l-109 344h-507l-111 -344h-303l501 1443h355l501 -1443h-327zM732 1143l-181 -566h378l-179 566h-18zM1123 1632h-746v181h746v-181z" />
    <glyph glyph-name="amacron" unicode="&#x101;" horiz-adv-x="1208" 
d="M544 202q101 0 169 57t68 141v81l-223 -14q-186 -13 -186 -133q0 -61 47.5 -96.5t124.5 -35.5zM448 -17q-160 0 -260.5 91t-100.5 241q0 149 110.5 234.5t316.5 97.5l267 16v90q0 69 -48 106.5t-138 37.5q-162 0 -199 -102h-268q14 153 144.5 242.5t338.5 89.5
q218 0 337.5 -98t119.5 -276v-753h-282v144h-18q-43 -76 -128 -118.5t-192 -42.5zM979 1316h-735v180h735v-180z" />
    <glyph glyph-name="Abreve" unicode="&#x102;" horiz-adv-x="1500" 
d="M1102 0l-109 344h-507l-111 -344h-303l501 1443h355l501 -1443h-327zM732 1143l-181 -566h378l-179 566h-18zM350 1915h208q2 -75 53.5 -119.5t138.5 -44.5t138.5 44.5t53.5 119.5h208q0 -150 -108.5 -243t-291.5 -93t-291.5 93t-108.5 243z" />
    <glyph glyph-name="abreve" unicode="&#x103;" horiz-adv-x="1208" 
d="M544 202q101 0 169 57t68 141v81l-223 -14q-186 -13 -186 -133q0 -61 47.5 -96.5t124.5 -35.5zM448 -17q-160 0 -260.5 91t-100.5 241q0 149 110.5 234.5t316.5 97.5l267 16v90q0 69 -48 106.5t-138 37.5q-162 0 -199 -102h-268q14 153 144.5 242.5t338.5 89.5
q218 0 337.5 -98t119.5 -276v-753h-282v144h-18q-43 -76 -128 -118.5t-192 -42.5zM211 1602h207q2 -81 53 -129.5t139 -48.5t139 48.5t53 129.5h208q0 -156 -108.5 -253.5t-291.5 -97.5t-291 97.5t-108 253.5z" />
    <glyph glyph-name="Aogonek" unicode="&#x104;" horiz-adv-x="1500" 
d="M732 1143l-181 -566h378l-179 566h-18zM1409 -444q-57 -25 -149 -25q-117 0 -186.5 60t-69.5 161q0 153 161 260h-67l-105 332h-507l-111 -344h-303l501 1443h355l498 -1437h-59q-75 -41 -115 -92t-40 -105q0 -46 33 -73t88 -27q39 0 76 9v-162z" />
    <glyph glyph-name="aogonek" unicode="&#x105;" horiz-adv-x="1208" 
d="M547 202q99 0 166.5 57t67.5 141v87l-221 -14q-90 -5 -139 -40.5t-49 -94.5q0 -62 47.5 -99t127.5 -37zM1072 -444q-58 -25 -148 -25q-114 0 -182.5 59.5t-68.5 158.5q0 158 166 261h-53v134h-18q-43 -76 -128 -118.5t-194 -42.5q-161 0 -260 92.5t-99 243.5
q0 150 111 236t320 98l263 16v84q-1 69 -48.5 106.5t-137.5 37.5q-162 0 -199 -102h-268q14 153 144.5 242.5t338.5 89.5q218 0 337.5 -98t119.5 -276v-744h-41q-150 -91 -150 -196q0 -47 33 -75.5t86 -28.5q44 0 76 9v-162z" />
    <glyph glyph-name="Cacute" unicode="&#x106;" horiz-adv-x="1518" 
d="M647 1591l277 318h315l-314 -318h-278zM788 -37q-314 0 -495.5 203.5t-181.5 555.5t181.5 555t495.5 203q256 0 432.5 -152.5t193.5 -388.5h-294q-22 125 -112.5 200t-219.5 75q-170 0 -269 -132t-99 -360t99 -360.5t270 -132.5q130 0 220 71t112 190h294
q-19 -234 -192.5 -380.5t-434.5 -146.5z" />
    <glyph glyph-name="cacute" unicode="&#x107;" horiz-adv-x="1203" 
d="M1122 714h-272q-15 81 -71.5 127.5t-147.5 46.5q-118 0 -181.5 -86t-63.5 -248q0 -164 63.5 -251.5t181.5 -87.5q90 0 146.5 43t72.5 124h272q-18 -187 -148 -296.5t-343 -109.5q-258 0 -398.5 150.5t-140.5 427.5q0 275 140 424t399 149q216 0 344.5 -111t146.5 -302z
M475 1281l247 353h309l-287 -353h-269z" />
    <glyph glyph-name="Ccircumflex" unicode="&#x108;" horiz-adv-x="1518" 
d="M788 -37q-314 0 -495.5 203.5t-181.5 555.5t181.5 555t495.5 203q256 0 432.5 -152.5t193.5 -388.5h-294q-22 125 -112.5 200t-219.5 75q-170 0 -269 -132t-99 -360t99 -360.5t270 -132.5q130 0 220 71t112 190h294q-19 -234 -192.5 -380.5t-434.5 -146.5zM924 1926
l284 -335h-265l-146 187h-18l-146 -187h-265l284 335h272z" />
    <glyph glyph-name="ccircumflex" unicode="&#x109;" horiz-adv-x="1203" 
d="M775 1605l275 -354h-263l-148 209h-18l-149 -209h-263l275 354h291zM1122 714h-272q-15 81 -71.5 127.5t-147.5 46.5q-118 0 -181.5 -86t-63.5 -248q0 -164 63.5 -251.5t181.5 -87.5q90 0 146.5 43t72.5 124h272q-18 -187 -148 -296.5t-343 -109.5q-258 0 -398.5 150.5
t-140.5 427.5q0 275 140 424t399 149q216 0 344.5 -111t146.5 -302z" />
    <glyph glyph-name="Cdotaccent" unicode="&#x10a;" horiz-adv-x="1518" 
d="M788 1580q-69 0 -113.5 45t-44.5 113t44.5 113t113.5 45t113 -45t44 -113t-44 -113t-113 -45zM788 -37q-314 0 -495.5 203.5t-181.5 555.5t181.5 555t495.5 203q256 0 432.5 -152.5t193.5 -388.5h-294q-22 125 -112.5 200t-219.5 75q-170 0 -269 -132t-99 -360t99 -360.5
t270 -132.5q130 0 220 71t112 190h294q-19 -234 -192.5 -380.5t-434.5 -146.5z" />
    <glyph glyph-name="cdotaccent" unicode="&#x10b;" horiz-adv-x="1203" 
d="M1122 714h-272q-15 81 -71.5 127.5t-147.5 46.5q-118 0 -181.5 -86t-63.5 -248q0 -164 63.5 -251.5t181.5 -87.5q90 0 146.5 43t72.5 124h272q-18 -187 -148 -296.5t-343 -109.5q-258 0 -398.5 150.5t-140.5 427.5q0 275 140 424t399 149q216 0 344.5 -111t146.5 -302z
M630 1278q-70 0 -115.5 45.5t-45.5 114.5t45.5 115t115.5 46t115.5 -46t45.5 -115t-45.5 -114.5t-115.5 -45.5z" />
    <glyph glyph-name="Ccaron" unicode="&#x10c;" horiz-adv-x="1518" 
d="M788 -37q-314 0 -495.5 203.5t-181.5 555.5t181.5 555t495.5 203q256 0 432.5 -152.5t193.5 -388.5h-294q-22 125 -112.5 200t-219.5 75q-170 0 -269 -132t-99 -360t99 -360.5t270 -132.5q130 0 220 71t112 190h294q-19 -234 -192.5 -380.5t-434.5 -146.5zM915 1591h-254
l-281 318h253l145 -173h20l145 173h253z" />
    <glyph glyph-name="ccaron" unicode="&#x10d;" horiz-adv-x="1203" 
d="M775 1251h-291l-275 354h263l149 -209h18l148 209h263zM1122 714h-272q-15 81 -71.5 127.5t-147.5 46.5q-118 0 -181.5 -86t-63.5 -248q0 -164 63.5 -251.5t181.5 -87.5q90 0 146.5 43t72.5 124h272q-18 -187 -148 -296.5t-343 -109.5q-258 0 -398.5 150.5t-140.5 427.5
q0 275 140 424t399 149q216 0 344.5 -111t146.5 -302z" />
    <glyph glyph-name="Dcaron" unicode="&#x10e;" horiz-adv-x="1530" 
d="M766 1590h-254l-281 318h253l145 -173h20l145 173h253zM175 1444h568q322 0 499.5 -186.5t177.5 -525.5q0 -351 -176.5 -541.5t-500.5 -190.5h-568v1444zM477 1186v-928h218q201 0 309 120.5t108 348.5q0 218 -110 338.5t-307 120.5h-218z" />
    <glyph glyph-name="dcaron" unicode="&#x10f;" horiz-adv-x="1520" 
d="M1299 1524h251l-50 -505h-201v505zM541 -17q-208 0 -328.5 153t-120.5 417q0 263 120.5 415.5t328.5 152.5q112 0 199 -51.5t130 -142.5h17v597h291v-1524h-282v173h-18q-44 -89 -133 -139.5t-204 -50.5zM640 877q-116 0 -182.5 -86.5t-66.5 -238.5q0 -153 66 -239.5
t183 -86.5t183.5 86.5t66.5 238.5q0 151 -67 238.5t-183 87.5z" />
    <glyph glyph-name="Dcroat" unicode="&#x110;" horiz-adv-x="1513" 
d="M477 258h218q201 0 309 120.5t108 348.5q0 218 -110 338.5t-307 120.5h-218v-341h220v-227h-220v-360zM175 1444h568q322 0 499.5 -186.5t177.5 -525.5q0 -351 -176.5 -541.5t-500.5 -190.5h-568v618h-122v227h122v599z" />
    <glyph glyph-name="dcroat" unicode="&#x111;" horiz-adv-x="1343" 
d="M652 226q117 0 183.5 86.5t66.5 238.5q0 151 -67 238.5t-183 87.5t-182.5 -86.5t-66.5 -238.5q0 -153 66 -239.5t183 -86.5zM1314 1412v-152h-124v-1260h-287v173h-18q-44 -90 -132 -140t-203 -50q-207 0 -326.5 152t-119.5 418q0 263 121 415.5t328 152.5
q112 0 199 -51.5t130 -142.5h17v333h-223v152h223v143h291v-143h124z" />
    <glyph glyph-name="Emacron" unicode="&#x112;" horiz-adv-x="1274" 
d="M1131 258v-258h-956v1443h956v-258h-654v-337h617v-239h-617v-351h654zM1026 1632h-746v181h746v-181z" />
    <glyph glyph-name="emacron" unicode="&#x113;" horiz-adv-x="1231" 
d="M623 904q-101 0 -166.5 -65t-73.5 -172h470q-5 110 -66.5 173.5t-163.5 63.5zM859 314h271q-33 -157 -167.5 -247.5t-336.5 -90.5q-252 0 -393 150.5t-141 419.5t142 425t388 156q244 0 380.5 -147t136.5 -410v-89h-757v-15q3 -123 70.5 -194.5t181.5 -71.5
q86 0 144 29.5t81 84.5zM990 1316h-735v180h735v-180z" />
    <glyph glyph-name="Ebreve" unicode="&#x114;" horiz-adv-x="1274" 
d="M1131 258v-258h-956v1443h956v-258h-654v-337h617v-239h-617v-351h654zM253 1915h208q2 -75 53.5 -119.5t138.5 -44.5t138.5 44.5t53.5 119.5h208q0 -150 -108.5 -243t-291.5 -93t-291.5 93t-108.5 243z" />
    <glyph glyph-name="ebreve" unicode="&#x115;" horiz-adv-x="1231" 
d="M623 904q-101 0 -166.5 -65t-73.5 -172h470q-5 110 -66.5 173.5t-163.5 63.5zM859 314h271q-33 -157 -167.5 -247.5t-336.5 -90.5q-252 0 -393 150.5t-141 419.5t142 425t388 156q244 0 380.5 -147t136.5 -410v-89h-757v-15q3 -123 70.5 -194.5t181.5 -71.5
q86 0 144 29.5t81 84.5zM222 1602h207q2 -81 53 -129.5t139 -48.5t139 48.5t53 129.5h208q0 -156 -108.5 -253.5t-291.5 -97.5t-291 97.5t-108 253.5z" />
    <glyph glyph-name="Edotaccent" unicode="&#x116;" horiz-adv-x="1274" 
d="M653 1579q-69 0 -113.5 45t-44.5 113t44.5 113t113.5 45t113 -45t44 -113t-44 -113t-113 -45zM1131 258v-258h-956v1443h956v-258h-654v-337h617v-239h-617v-351h654z" />
    <glyph glyph-name="edotaccent" unicode="&#x117;" horiz-adv-x="1231" 
d="M622 1278q-70 0 -115.5 45.5t-45.5 114.5t45.5 115t115.5 46t115.5 -46t45.5 -115t-45.5 -114.5t-115.5 -45.5zM623 904q-101 0 -166.5 -65t-73.5 -172h470q-5 110 -66.5 173.5t-163.5 63.5zM859 314h271q-33 -157 -167.5 -247.5t-336.5 -90.5q-252 0 -393 150.5
t-141 419.5t142 425t388 156q244 0 380.5 -147t136.5 -410v-89h-757v-15q3 -123 70.5 -194.5t181.5 -71.5q86 0 144 29.5t81 84.5z" />
    <glyph glyph-name="Eogonek" unicode="&#x118;" horiz-adv-x="1274" 
d="M885 0h-710v1443h956v-258h-654v-337h617v-239h-617v-351h654v-225q-101 -52 -148.5 -105.5t-47.5 -114.5q0 -47 33 -75.5t88 -28.5q45 0 75 9v-162q-55 -25 -149 -25q-116 0 -186 59.5t-70 158.5q0 152 159 251z" />
    <glyph glyph-name="eogonek" unicode="&#x119;" horiz-adv-x="1231" 
d="M784 -469q-109 0 -179 60.5t-70 155.5q0 112 112 214v18q-16 -2 -38 -2q-245 5 -381 154.5t-136 414.5q0 270 142 425.5t388 155.5q244 0 380.5 -147t136.5 -410v-89h-757v-15q3 -123 71 -194.5t181 -71.5q176 0 225 114h271q-15 -78 -65 -144t-151 -142
q-98 -75 -136 -124t-38 -102q0 -41 31.5 -67t81.5 -26q41 0 80 9v-162q-53 -25 -149 -25zM623 904q-101 0 -167 -64.5t-73 -172.5h470q-5 110 -66.5 173.5t-163.5 63.5z" />
    <glyph glyph-name="Ecaron" unicode="&#x11a;" horiz-adv-x="1274" 
d="M780 1590h-254l-281 318h253l145 -173h20l145 173h253zM1131 258v-258h-956v1443h956v-258h-654v-337h617v-239h-617v-351h654z" />
    <glyph glyph-name="ecaron" unicode="&#x11b;" horiz-adv-x="1231" 
d="M767 1251h-291l-275 354h263l149 -209h18l148 209h263zM623 904q-101 0 -166.5 -65t-73.5 -172h470q-5 110 -66.5 173.5t-163.5 63.5zM859 314h271q-33 -157 -167.5 -247.5t-336.5 -90.5q-252 0 -393 150.5t-141 419.5t142 425t388 156q244 0 380.5 -147t136.5 -410v-89
h-757v-15q3 -123 70.5 -194.5t181.5 -71.5q86 0 144 29.5t81 84.5z" />
    <glyph glyph-name="Gcircumflex" unicode="&#x11c;" horiz-adv-x="1557" 
d="M932 1926l284 -335h-265l-146 187h-18l-146 -187h-265l284 335h272zM1443 589q0 -289 -172 -457.5t-468 -168.5q-322 0 -507 203t-185 557q0 349 185 553t500 204q256 0 429 -136t205 -361h-300q-34 110 -121 170.5t-213 60.5q-175 0 -275.5 -130.5t-100.5 -357.5
q0 -231 104.5 -364t283.5 -133q148 0 242 80t99 211l1 26h-313v227h606v-184z" />
    <glyph glyph-name="gcircumflex" unicode="&#x11d;" horiz-adv-x="1322" 
d="M789 1605l275 -354h-263l-148 209h-18l-149 -209h-263l275 354h291zM888 561q0 146 -67.5 231t-184.5 85t-182.5 -84.5t-65.5 -230.5q0 -147 65 -231.5t183 -84.5t185 84.5t67 230.5zM632 -418q-218 0 -354.5 88.5t-150.5 234.5h288q11 -51 70 -81t153 -30
q117 0 182 51.5t65 144.5v204h-18q-94 -178 -332 -178q-206 0 -326 147.5t-120 397.5q0 257 121.5 408.5t330.5 151.5q112 0 201.5 -52t133.5 -143h18v177h282v-1099q0 -194 -147 -308t-397 -114z" />
    <glyph glyph-name="Gbreve" unicode="&#x11e;" horiz-adv-x="1557" 
d="M1443 589q0 -289 -172 -457.5t-468 -168.5q-322 0 -507 203t-185 557q0 349 185 553t500 204q256 0 429 -136t205 -361h-300q-34 110 -121 170.5t-213 60.5q-175 0 -275.5 -130.5t-100.5 -357.5q0 -231 104.5 -364t283.5 -133q148 0 242 80t99 211l1 26h-313v227h606
v-184zM396 1916h208q2 -75 53.5 -119.5t138.5 -44.5t138.5 44.5t53.5 119.5h208q0 -150 -108.5 -243t-291.5 -93t-291.5 93t-108.5 243z" />
    <glyph glyph-name="gbreve" unicode="&#x11f;" horiz-adv-x="1322" 
d="M244 1602h207q2 -81 53 -129.5t139 -48.5t139 48.5t53 129.5h208q0 -156 -108.5 -253.5t-291.5 -97.5t-291 97.5t-108 253.5zM888 561q0 146 -67.5 231t-184.5 85t-182.5 -84.5t-65.5 -230.5q0 -147 65 -231.5t183 -84.5t185 84.5t67 230.5zM632 -418q-218 0 -354.5 88.5
t-150.5 234.5h288q11 -51 70 -81t153 -30q117 0 182 51.5t65 144.5v204h-18q-94 -178 -332 -178q-206 0 -326 147.5t-120 397.5q0 257 121.5 408.5t330.5 151.5q112 0 201.5 -52t133.5 -143h18v177h282v-1099q0 -194 -147 -308t-397 -114z" />
    <glyph glyph-name="Gdotaccent" unicode="&#x120;" horiz-adv-x="1557" 
d="M796 1580q-69 0 -113.5 45t-44.5 113t44.5 113t113.5 45t113 -45t44 -113t-44 -113t-113 -45zM1443 589q0 -289 -172 -457.5t-468 -168.5q-322 0 -507 203t-185 557q0 349 185 553t500 204q256 0 429 -136t205 -361h-300q-34 110 -121 170.5t-213 60.5
q-175 0 -275.5 -130.5t-100.5 -357.5q0 -231 104.5 -364t283.5 -133q148 0 242 80t99 211l1 26h-313v227h606v-184z" />
    <glyph glyph-name="gdotaccent" unicode="&#x121;" horiz-adv-x="1322" 
d="M644 1278q-70 0 -115.5 45.5t-45.5 114.5t45.5 115t115.5 46t115.5 -46t45.5 -115t-45.5 -114.5t-115.5 -45.5zM888 561q0 146 -67.5 231t-184.5 85t-182.5 -84.5t-65.5 -230.5q0 -147 65 -231.5t183 -84.5t185 84.5t67 230.5zM632 -418q-218 0 -354.5 88.5t-150.5 234.5
h288q11 -51 70 -81t153 -30q117 0 182 51.5t65 144.5v204h-18q-94 -178 -332 -178q-206 0 -326 147.5t-120 397.5q0 257 121.5 408.5t330.5 151.5q112 0 201.5 -52t133.5 -143h18v177h282v-1099q0 -194 -147 -308t-397 -114z" />
    <glyph glyph-name="Gcommaaccent" unicode="&#x122;" horiz-adv-x="1557" 
d="M807 -509h-258l132 358h292zM1443 589q0 -289 -172 -457.5t-468 -168.5q-322 0 -507 203t-185 557q0 349 185 553t500 204q256 0 429 -136t205 -361h-300q-34 110 -121 170.5t-213 60.5q-175 0 -275.5 -130.5t-100.5 -357.5q0 -231 104.5 -364t283.5 -133q148 0 242 80
t99 211l1 26h-313v227h606v-184z" />
    <glyph glyph-name="gcommaaccent" unicode="&#x123;" horiz-adv-x="1322" 
d="M669 1649h258l-132 -358h-292zM888 561q0 146 -67.5 231t-184.5 85t-182.5 -84.5t-65.5 -230.5q0 -147 65 -231.5t183 -84.5t185 84.5t67 230.5zM632 -418q-218 0 -354.5 88.5t-150.5 234.5h288q11 -51 70 -81t153 -30q117 0 182 51.5t65 144.5v204h-18
q-94 -178 -332 -178q-206 0 -326 147.5t-120 397.5q0 257 121.5 408.5t330.5 151.5q112 0 201.5 -52t133.5 -143h18v177h282v-1099q0 -194 -147 -308t-397 -114z" />
    <glyph glyph-name="Hcircumflex" unicode="&#x124;" horiz-adv-x="1604" 
d="M1429 0h-302v603h-650v-603h-302v1443h302v-582h650v582h302v-1443zM938 1925l284 -335h-265l-146 187h-18l-146 -187h-265l284 335h272z" />
    <glyph glyph-name="hcircumflex" unicode="&#x125;" horiz-adv-x="1332" 
d="M156 0v1524h286v-602h18q38 94 131 148t215 54q185 0 287.5 -108t102.5 -306v-710h-291v641q0 114 -55.5 173t-160.5 59q-109 0 -175.5 -66t-66.5 -174v-633h-291zM435 2006l284 -335h-265l-146 187h-18l-146 -187h-265l284 335h272z" />
    <glyph glyph-name="Hbar" unicode="&#x126;" horiz-adv-x="1556" 
d="M1103 861v194h-650v-194h650zM1533 1261v-206h-128v-1055h-302v603h-650v-603h-302v1055h-128v206h128v182h302v-182h650v182h302v-182h128z" />
    <glyph glyph-name="hbar" unicode="&#x127;" horiz-adv-x="1334" 
d="M439 922h18q38 94 132 148t216 54q186 0 289.5 -108t103.5 -306v-710h-291v641q0 114 -56.5 173t-161.5 59q-109 0 -177 -66.5t-68 -173.5v-633h-291v1260h-151v152h151v149h286v-149h249v-152h-249v-338z" />
    <glyph glyph-name="Itilde" unicode="&#x128;" horiz-adv-x="652" 
d="M477 0h-302v1443h302v-1443zM485 1577q-45 0 -83 14t-64 34.5t-49 41t-48 34.5t-51 14q-82 0 -86 -128h-184q0 145 68 227t179 82q47 0 86.5 -14t66 -34.5t49.5 -41t46.5 -34.5t46.5 -14q80 0 87 124h183q0 -141 -68.5 -223t-178.5 -82z" />
    <glyph glyph-name="itilde" unicode="&#x129;" horiz-adv-x="593" 
d="M151 0v1103h291v-1103h-291zM170 1397q-86 0 -88 -141h-187q0 145 71.5 233t189.5 88q42 0 79 -15t62.5 -36t48 -42t45 -36t43.5 -15q87 0 88 138h187q0 -144 -71.5 -231t-189.5 -87q-42 0 -79 15t-62.5 36t-48 42t-45 36t-43.5 15z" />
    <glyph glyph-name="Imacron" unicode="&#x12a;" horiz-adv-x="652" 
d="M477 0h-302v1443h302v-1443zM699 1632h-746v181h746v-181z" />
    <glyph glyph-name="imacron" unicode="&#x12b;" horiz-adv-x="593" 
d="M151 0v1103h291v-1103h-291zM665 1316h-735v180h735v-180z" />
    <glyph glyph-name="Ibreve" unicode="&#x12c;" horiz-adv-x="652" 
d="M477 0h-302v1443h302v-1443zM-74 1915h208q2 -75 53.5 -119.5t138.5 -44.5t138.5 44.5t53.5 119.5h208q0 -150 -108.5 -243t-291.5 -93t-291.5 93t-108.5 243z" />
    <glyph glyph-name="ibreve" unicode="&#x12d;" horiz-adv-x="593" 
d="M151 0v1103h291v-1103h-291zM-103 1602h207q2 -81 53 -129.5t139 -48.5t139 48.5t53 129.5h208q0 -156 -108.5 -253.5t-291.5 -97.5t-291 97.5t-108 253.5z" />
    <glyph glyph-name="Iogonek" unicode="&#x12e;" horiz-adv-x="652" 
d="M481 -441q-60 -25 -148 -25q-114 0 -182.5 59.5t-68.5 158.5q0 153 156 258h-63v1433h302v-1439h-42q-149 -91 -149 -190q0 -46 33 -74.5t87 -28.5q37 0 75 9v-161z" />
    <glyph glyph-name="iogonek" unicode="&#x12f;" horiz-adv-x="593" 
d="M294 1257q-78 0 -125 41t-47 106q0 66 47 106.5t125 40.5t125 -40.5t47 -106.5q0 -65 -47.5 -106t-124.5 -41zM442 -444q-62 -25 -149 -25q-113 0 -182 59.5t-69 158.5q0 154 163 261h-57v1093h291v-1094h-42q-150 -91 -150 -198q0 -46 33 -74t87 -28q42 0 75 9v-162z
" />
    <glyph glyph-name="Idotaccent" unicode="&#x130;" horiz-adv-x="652" 
d="M477 0h-302v1443h302v-1443zM326 1579q-69 0 -113.5 45t-44.5 113t44.5 113t113.5 45t113 -45t44 -113t-44 -113t-113 -45z" />
    <glyph glyph-name="dotlessi" unicode="&#x131;" horiz-adv-x="593" 
d="M151 0v1103h291v-1103h-291z" />
    <glyph glyph-name="u0132" unicode="&#x132;" horiz-adv-x="1883" 
d="M477 0h-302v1443h302v-1443zM728 424h292q2 -87 54.5 -139t139.5 -52q93 0 142.5 55.5t49.5 161.5v993h302v-995q0 -232 -129.5 -358.5t-360.5 -126.5q-223 0 -356.5 125t-133.5 336z" />
    <glyph glyph-name="u0133" unicode="&#x133;" horiz-adv-x="1194" 
d="M148 0v1103h291v-1103h-291zM294 1257q-78 0 -125 41t-47 106q0 66 47 106.5t125 40.5t125 -40.5t47 -106.5q0 -65 -47.5 -106t-124.5 -41zM1036 1103v-1136q0 -168 -99 -254.5t-291 -86.5q-42 0 -78 3v224q12 -2 37 -2q76 0 108 29t32 96v1127h291zM891 1257
q-78 0 -125 41t-47 106q0 66 47 106.5t125 40.5t125 -40.5t47 -106.5q0 -65 -47.5 -106t-124.5 -41z" />
    <glyph glyph-name="Jcircumflex" unicode="&#x134;" horiz-adv-x="1231" 
d="M76 424h292q2 -87 54.5 -139t139.5 -52q93 0 142.5 55.5t49.5 161.5v993h302v-995q0 -232 -129.5 -358.5t-360.5 -126.5q-223 0 -356.5 125t-133.5 336zM1041 1925l284 -335h-265l-146 187h-18l-146 -187h-265l284 335h272z" />
    <glyph glyph-name="jcircumflex" unicode="&#x135;" horiz-adv-x="587" 
d="M436 1103v-1136q0 -168 -99 -254.5t-291 -86.5q-42 0 -78 3v224q12 -2 37 -2q76 0 108 29t32 96v1127h291zM440 1605l275 -354h-263l-148 209h-18l-149 -209h-263l275 354h291z" />
    <glyph glyph-name="Kcommaaccent" unicode="&#x136;" horiz-adv-x="1453" 
d="M477 0h-302v1443h302v-643h18l533 643h336l-526 -633l563 -810h-362l-419 604l-143 -169v-435zM696 -509h-258l132 358h292z" />
    <glyph glyph-name="kcommaaccent" unicode="&#x137;" horiz-adv-x="1232" 
d="M465 672l369 431h331l-420 -473l449 -630h-345l-322 448l-80 -82v-366h-291v1524h291v-852h18zM645 -509h-258l132 358h292z" />
    <glyph glyph-name="Lacute" unicode="&#x139;" horiz-adv-x="1218" 
d="M185 1590l277 318h315l-314 -318h-278zM1119 263v-263h-944v1443h302v-1180h642z" />
    <glyph glyph-name="lacute" unicode="&#x13a;" horiz-adv-x="603" 
d="M161 1671l277 318h315l-314 -318h-278zM156 0v1524h291v-1524h-291z" />
    <glyph glyph-name="Lcommaaccent" unicode="&#x13b;" horiz-adv-x="1218" 
d="M636 -509h-258l132 358h292zM1119 263v-263h-944v1443h302v-1180h642z" />
    <glyph glyph-name="lcommaaccent" unicode="&#x13c;" horiz-adv-x="603" 
d="M296 -509h-258l132 358h292zM156 0v1524h291v-1524h-291z" />
    <glyph glyph-name="Lcaron" unicode="&#x13d;" horiz-adv-x="1218" 
d="M675 1443h246l-50 -504h-196v504zM1119 263v-263h-944v1443h302v-1180h642z" />
    <glyph glyph-name="lcaron" unicode="&#x13e;" horiz-adv-x="774" 
d="M553 1524h251l-50 -505h-201v505zM156 0v1524h291v-1524h-291z" />
    <glyph glyph-name="Lslash" unicode="&#x141;" horiz-adv-x="1194" 
d="M477 263h642v-263h-944v661l-152 -78v205l152 78v577h302v-423l238 122v-205l-238 -122v-552z" />
    <glyph glyph-name="lslash" unicode="&#x142;" horiz-adv-x="603" 
d="M571 1094v-205l-124 -66v-823h-291v668l-124 -66v205l124 66v651h291v-496z" />
    <glyph glyph-name="Nacute" unicode="&#x143;" horiz-adv-x="1573" 
d="M642 1590l277 318h315l-314 -318h-278zM464 0h-289v1443h252l664 -899h18v899h289v-1443h-250l-666 903h-18v-903z" />
    <glyph glyph-name="nacute" unicode="&#x144;" horiz-adv-x="1310" 
d="M512 1281l247 353h309l-287 -353h-269zM146 0v1103h282v-177h18q38 93 130 147t213 54q184 0 284.5 -108t100.5 -306v-713h-291v644q0 114 -53.5 173t-156.5 59q-108 0 -172 -65.5t-64 -174.5v-636h-291z" />
    <glyph glyph-name="Ncommaaccent" unicode="&#x145;" horiz-adv-x="1573" 
d="M777 -509h-258l132 358h292zM464 0h-289v1443h252l664 -899h18v899h289v-1443h-250l-666 903h-18v-903z" />
    <glyph glyph-name="ncommaaccent" unicode="&#x146;" horiz-adv-x="1310" 
d="M654 -509h-258l132 358h292zM146 0v1103h282v-177h18q38 93 130 147t213 54q184 0 284.5 -108t100.5 -306v-713h-291v644q0 114 -53.5 173t-156.5 59q-108 0 -172 -65.5t-64 -174.5v-636h-291z" />
    <glyph glyph-name="Ncaron" unicode="&#x147;" horiz-adv-x="1573" 
d="M910 1590h-254l-281 318h253l145 -173h20l145 173h253zM464 0h-289v1443h252l664 -899h18v899h289v-1443h-250l-666 903h-18v-903z" />
    <glyph glyph-name="ncaron" unicode="&#x148;" horiz-adv-x="1310" 
d="M812 1251h-291l-275 354h263l149 -209h18l148 209h263zM146 0v1103h282v-177h18q38 93 130 147t213 54q184 0 284.5 -108t100.5 -306v-713h-291v644q0 114 -53.5 173t-156.5 59q-108 0 -172 -65.5t-64 -174.5v-636h-291z" />
    <glyph glyph-name="Omacron" unicode="&#x14c;" horiz-adv-x="1610" 
d="M806 1480q320 0 506.5 -204t186.5 -554q0 -351 -186.5 -555t-506.5 -204q-321 0 -508 204t-187 555q0 350 188 554t507 204zM806 1215q-176 0 -281 -133.5t-105 -359.5t104.5 -360t281.5 -134q176 0 280.5 134t104.5 360t-104.5 359.5t-280.5 133.5zM1179 1632h-746v181
h746v-181z" />
    <glyph glyph-name="omacron" unicode="&#x14d;" horiz-adv-x="1269" 
d="M1003 1316h-735v180h735v-180zM635 214q116 0 180 88.5t64 249.5q0 159 -64.5 248t-179.5 89q-116 0 -180 -89t-64 -248q0 -161 63.5 -249.5t180.5 -88.5zM635 -24q-254 0 -398.5 153t-144.5 423q0 268 145.5 421.5t397.5 153.5t397.5 -153.5t145.5 -421.5
q0 -270 -144.5 -423t-398.5 -153z" />
    <glyph glyph-name="Obreve" unicode="&#x14e;" horiz-adv-x="1610" 
d="M806 1480q320 0 506.5 -204t186.5 -554q0 -351 -186.5 -555t-506.5 -204q-321 0 -508 204t-187 555q0 350 188 554t507 204zM806 1215q-176 0 -281 -133.5t-105 -359.5t104.5 -360t281.5 -134q176 0 280.5 134t104.5 360t-104.5 359.5t-280.5 133.5zM406 1915h208
q2 -75 53.5 -119.5t138.5 -44.5t138.5 44.5t53.5 119.5h208q0 -150 -108.5 -243t-291.5 -93t-291.5 93t-108.5 243z" />
    <glyph glyph-name="obreve" unicode="&#x14f;" horiz-adv-x="1269" 
d="M235 1602h207q2 -81 53 -129.5t139 -48.5t139 48.5t53 129.5h208q0 -156 -108.5 -253.5t-291.5 -97.5t-291 97.5t-108 253.5zM635 214q116 0 180 88.5t64 249.5q0 159 -64.5 248t-179.5 89q-116 0 -180 -89t-64 -248q0 -161 63.5 -249.5t180.5 -88.5zM635 -24
q-254 0 -398.5 153t-144.5 423q0 268 145.5 421.5t397.5 153.5t397.5 -153.5t145.5 -421.5q0 -270 -144.5 -423t-398.5 -153z" />
    <glyph glyph-name="Ohungarumlaut" unicode="&#x150;" horiz-adv-x="1610" 
d="M875 1590l252 318h270l-278 -318h-244zM438 1590l251 318h271l-278 -318h-244zM806 1480q320 0 506.5 -204t186.5 -554q0 -351 -186.5 -555t-506.5 -204q-321 0 -508 204t-187 555q0 350 188 554t507 204zM806 1215q-176 0 -281 -133.5t-105 -359.5t104.5 -360
t281.5 -134q176 0 280.5 134t104.5 360t-104.5 359.5t-280.5 133.5z" />
    <glyph glyph-name="ohungarumlaut" unicode="&#x151;" horiz-adv-x="1269" 
d="M712 1281l212 353h259l-242 -353h-229zM276 1281l212 353h259l-242 -353h-229zM635 214q116 0 180 88.5t64 249.5q0 159 -64.5 248t-179.5 89q-116 0 -180 -89t-64 -248q0 -161 63.5 -249.5t180.5 -88.5zM635 -24q-254 0 -398.5 153t-144.5 423q0 268 145.5 421.5
t397.5 153.5t397.5 -153.5t145.5 -421.5q0 -270 -144.5 -423t-398.5 -153z" />
    <glyph glyph-name="OE" unicode="&#x152;" horiz-adv-x="2271" 
d="M821 1215q-179 0 -285 -133.5t-106 -359.5q0 -227 105.5 -360.5t285.5 -133.5q175 0 278 133.5t103 360.5t-103 360t-278 133zM1254 0v232h-18q-55 -121 -183 -195t-282 -74q-305 0 -477.5 201t-172.5 558t172.5 557.5t477.5 200.5q152 0 282.5 -73.5t182.5 -188.5h18
v225h916v-258h-663v-337h626v-239h-626v-351h663v-258h-916z" />
    <glyph glyph-name="oe" unicode="&#x153;" horiz-adv-x="2017" 
d="M1427 -24q-128 0 -232.5 49.5t-160.5 136.5h-18q-55 -87 -157.5 -136.5t-232.5 -49.5q-245 0 -387 154t-142 420q0 269 141.5 423t388.5 154q129 0 229.5 -49t160.5 -141h18q58 90 160 140t231 50q228 0 364.5 -151t136.5 -406v-88h-757v-16q3 -123 71 -194.5t181 -71.5
q177 0 225 114h269q-33 -156 -165.5 -247t-323.5 -91zM1411 904q-101 0 -167 -64.5t-73 -172.5h470q-5 110 -66.5 173.5t-163.5 63.5zM640 214q116 0 180 88t64 249q0 160 -64.5 249t-179.5 89t-179.5 -89t-64.5 -249q0 -161 64 -249t180 -88z" />
    <glyph glyph-name="Racute" unicode="&#x154;" horiz-adv-x="1422" 
d="M511 1590l277 318h315l-314 -318h-278zM477 1199v-444h265q114 0 177.5 58.5t63.5 162.5q0 103 -66 163t-178 60h-262zM477 523v-523h-302v1443h606q238 0 375 -124t137 -339q0 -140 -69.5 -250.5t-192.5 -159.5l304 -570h-342l-269 523h-247z" />
    <glyph glyph-name="racute" unicode="&#x155;" horiz-adv-x="881" 
d="M293 1281l247 353h309l-287 -353h-269zM146 0v1103h282v-176h18q22 84 100 139t180 55q73 0 112 -14v-265q-17 7 -60.5 12.5t-75.5 5.5q-119 0 -192 -67t-73 -182v-611h-291z" />
    <glyph glyph-name="Rcommaaccent" unicode="&#x156;" horiz-adv-x="1422" 
d="M477 1199v-444h265q114 0 177.5 58.5t63.5 162.5q0 103 -66 163t-178 60h-262zM477 523v-523h-302v1443h606q238 0 375 -124t137 -339q0 -140 -69.5 -250.5t-192.5 -159.5l304 -570h-342l-269 523h-247zM646 -509h-258l132 358h292z" />
    <glyph glyph-name="rcommaaccent" unicode="&#x157;" horiz-adv-x="881" 
d="M146 0v1103h282v-176h18q22 84 100 139t180 55q73 0 112 -14v-265q-17 7 -60.5 12.5t-75.5 5.5q-119 0 -192 -67t-73 -182v-611h-291zM283 -509h-258l132 358h292z" />
    <glyph glyph-name="Rcaron" unicode="&#x158;" horiz-adv-x="1422" 
d="M477 1199v-444h265q114 0 177.5 58.5t63.5 162.5q0 103 -66 163t-178 60h-262zM477 523v-523h-302v1443h606q238 0 375 -124t137 -339q0 -140 -69.5 -250.5t-192.5 -159.5l304 -570h-342l-269 523h-247zM779 1590h-254l-281 318h253l145 -173h20l145 173h253z" />
    <glyph glyph-name="rcaron" unicode="&#x159;" horiz-adv-x="881" 
d="M593 1251h-291l-275 354h263l149 -209h18l148 209h263zM146 0v1103h282v-176h18q22 84 100 139t180 55q73 0 112 -14v-265q-17 7 -60.5 12.5t-75.5 5.5q-119 0 -192 -67t-73 -182v-611h-291z" />
    <glyph glyph-name="Sacute" unicode="&#x15a;" horiz-adv-x="1383" 
d="M555 1590l277 318h315l-314 -318h-278zM110 401h292q10 -88 92 -140t210 -52q118 0 193 51.5t75 133.5q0 69 -58 112t-191 71l-188 40q-392 82 -392 412q0 204 151 327.5t401 123.5q238 0 391.5 -121t160.5 -314h-284q-11 86 -84 138t-182 52q-114 0 -182.5 -49
t-68.5 -131q0 -67 55.5 -108t182.5 -68l174 -37q217 -46 316 -144t99 -266q0 -218 -156.5 -343.5t-428.5 -125.5q-258 0 -414 118t-164 320z" />
    <glyph glyph-name="sacute" unicode="&#x15b;" horiz-adv-x="1160" 
d="M121 779q0 157 126.5 252.5t332.5 95.5q210 0 329.5 -85t131.5 -243h-269q-11 54 -60.5 84.5t-129.5 30.5q-79 0 -130 -32.5t-51 -84.5q0 -40 36 -66.5t113 -43.5l207 -45q161 -35 235.5 -107t74.5 -195q0 -164 -134 -264t-352 -100t-345 86t-142 245h284
q35 -118 209 -118q85 0 138 32.5t53 85.5q0 41 -33 66.5t-106 41.5l-200 45q-161 35 -239.5 113.5t-78.5 205.5zM425 1281l247 353h309l-287 -353h-269z" />
    <glyph glyph-name="Scircumflex" unicode="&#x15c;" horiz-adv-x="1383" 
d="M110 401h292q10 -88 92 -140t210 -52q118 0 193 51.5t75 133.5q0 69 -58 112t-191 71l-188 40q-392 82 -392 412q0 204 151 327.5t401 123.5q238 0 391.5 -121t160.5 -314h-284q-11 86 -84 138t-182 52q-114 0 -182.5 -49t-68.5 -131q0 -67 55.5 -108t182.5 -68l174 -37
q217 -46 316 -144t99 -266q0 -218 -156.5 -343.5t-428.5 -125.5q-258 0 -414 118t-164 320zM832 1925l284 -335h-265l-146 187h-18l-146 -187h-265l284 335h272z" />
    <glyph glyph-name="scircumflex" unicode="&#x15d;" horiz-adv-x="1160" 
d="M725 1605l275 -354h-263l-148 209h-18l-149 -209h-263l275 354h291zM121 779q0 157 126.5 252.5t332.5 95.5q210 0 329.5 -85t131.5 -243h-269q-11 54 -60.5 84.5t-129.5 30.5q-79 0 -130 -32.5t-51 -84.5q0 -40 36 -66.5t113 -43.5l207 -45q161 -35 235.5 -107
t74.5 -195q0 -164 -134 -264t-352 -100t-345 86t-142 245h284q35 -118 209 -118q85 0 138 32.5t53 85.5q0 41 -33 66.5t-106 41.5l-200 45q-161 35 -239.5 113.5t-78.5 205.5z" />
    <glyph glyph-name="Scedilla" unicode="&#x15e;" horiz-adv-x="1383" 
d="M684 879l174 -37q217 -46 316 -144t99 -266q0 -200 -133 -323t-367 -143l-33 -79q95 -5 145.5 -50.5t50.5 -126.5q0 -96 -70 -150t-197 -54q-84 0 -147 17v135q37 -14 116 -14q112 0 112 59q0 29 -30.5 42.5t-99.5 13.5h-60v115l39 93q-220 20 -351 135.5t-138 298.5h292
q10 -88 92 -140t210 -52q118 0 193 51.5t75 133.5q0 69 -58 112t-191 71l-188 40q-392 82 -392 412q0 204 151 327.5t401 123.5q238 0 391.5 -121t160.5 -314h-284q-11 86 -84 138t-182 52q-114 0 -182.5 -49t-68.5 -131q0 -67 55.5 -108t182.5 -68z" />
    <glyph glyph-name="scedilla" unicode="&#x15f;" horiz-adv-x="1160" 
d="M550 687l207 -45q161 -35 235.5 -107t74.5 -195q0 -146 -107.5 -242.5t-288.5 -116.5l-38 -93q95 -5 145.5 -50.5t50.5 -126.5q0 -96 -70 -150t-197 -54q-84 0 -147 17v135q37 -14 116 -14q112 0 112 59q0 29 -30.5 42.5t-99.5 13.5h-60v115l44 105q-181 16 -285.5 100
t-117.5 227h284q35 -118 209 -118q85 0 138 32.5t53 85.5q0 41 -33 66.5t-106 41.5l-200 45q-161 35 -239.5 113.5t-78.5 205.5q0 157 126.5 252.5t332.5 95.5q210 0 329.5 -85t131.5 -243h-269q-11 54 -60.5 84.5t-129.5 30.5q-79 0 -130 -32.5t-51 -84.5q0 -40 36 -66.5
t113 -43.5z" />
    <glyph glyph-name="Scaron" unicode="&#x160;" horiz-adv-x="1383" 
d="M110 401h292q10 -88 92 -140t210 -52q118 0 193 51.5t75 133.5q0 69 -58 112t-191 71l-188 40q-392 82 -392 412q0 204 151 327.5t401 123.5q238 0 391.5 -121t160.5 -314h-284q-11 86 -84 138t-182 52q-114 0 -182.5 -49t-68.5 -131q0 -67 55.5 -108t182.5 -68l174 -37
q217 -46 316 -144t99 -266q0 -218 -156.5 -343.5t-428.5 -125.5q-258 0 -414 118t-164 320zM823 1590h-254l-281 318h253l145 -173h20l145 173h253z" />
    <glyph glyph-name="scaron" unicode="&#x161;" horiz-adv-x="1160" 
d="M725 1251h-291l-275 354h263l149 -209h18l148 209h263zM121 779q0 157 126.5 252.5t332.5 95.5q210 0 329.5 -85t131.5 -243h-269q-11 54 -60.5 84.5t-129.5 30.5q-79 0 -130 -32.5t-51 -84.5q0 -40 36 -66.5t113 -43.5l207 -45q161 -35 235.5 -107t74.5 -195
q0 -164 -134 -264t-352 -100t-345 86t-142 245h284q35 -118 209 -118q85 0 138 32.5t53 85.5q0 41 -33 66.5t-106 41.5l-200 45q-161 35 -239.5 113.5t-78.5 205.5z" />
    <glyph glyph-name="Tcedilla" unicode="&#x162;" horiz-adv-x="1352" 
d="M827 0h-53l-46 -112q95 -5 145.5 -50.5t50.5 -126.5q0 -96 -70 -150t-197 -54q-84 0 -147 17v135q37 -14 116 -14q112 0 112 59q0 29 -30.5 42.5t-99.5 13.5h-60v115l52 125h-75v1185h-433v258h1168v-258h-433v-1185z" />
    <glyph glyph-name="tcedilla" unicode="&#x163;" horiz-adv-x="845" 
d="M463 -493q-90 0 -147 17v134q42 -14 116 -14q112 0 112 59q0 30 -30.5 43t-99.5 13h-60v116l60 144q-97 27 -141 94.5t-44 184.5v565h-175v229h175v268h291v-268h234v-229h-234v-496q0 -72 34.5 -106t108.5 -34q48 0 85 4v-222q-67 -13 -142 -13q-5 0 -14 0.5t-13 0.5
l-45 -109q95 -5 145.5 -50.5t50.5 -126.5q0 -96 -69.5 -150t-197.5 -54z" />
    <glyph glyph-name="Tcaron" unicode="&#x164;" horiz-adv-x="1352" 
d="M800 1590h-254l-281 318h253l145 -173h20l145 173h253zM827 0h-302v1185h-433v258h1168v-258h-433v-1185z" />
    <glyph glyph-name="tcaron" unicode="&#x165;" horiz-adv-x="845" 
d="M824 1231h-201v504h251zM229 1360h291v-268h234v-229h-234v-496q0 -72 34.5 -106t108.5 -34q48 0 85 4v-222q-67 -13 -145 -13q-201 0 -287.5 70t-86.5 232v565h-175v229h175v268z" />
    <glyph glyph-name="Tbar" unicode="&#x166;" horiz-adv-x="1352" 
d="M1260 1185h-433v-384h281v-218h-281v-583h-302v583h-286v218h286v384h-433v258h1168v-258z" />
    <glyph glyph-name="tbar" unicode="&#x167;" horiz-adv-x="843" 
d="M763 492h-243v-125q0 -72 34.5 -106t108.5 -34q48 0 85 4v-222q-67 -13 -145 -13q-201 0 -287.5 70t-86.5 232v194h-173v162h173v209h-175v229h175v268h291v-268h234v-229h-234v-209h243v-162z" />
    <glyph glyph-name="Utilde" unicode="&#x168;" horiz-adv-x="1565" 
d="M480 1443v-914q0 -138 79.5 -218t222.5 -80q144 0 223.5 80t79.5 218v914h302v-945q0 -241 -164.5 -388t-440.5 -147q-275 0 -439.5 147t-164.5 388v945h302zM941 1577q-45 0 -83 14t-64 34.5t-49 41t-48 34.5t-51 14q-82 0 -86 -128h-184q0 145 68 227t179 82
q47 0 86.5 -14t66 -34.5t49.5 -41t46.5 -34.5t46.5 -14q80 0 87 124h183q0 -141 -68.5 -223t-178.5 -82z" />
    <glyph glyph-name="utilde" unicode="&#x169;" horiz-adv-x="1318" 
d="M1169 1103v-1103h-282v177h-18q-39 -96 -127 -148.5t-208 -52.5q-183 0 -290.5 109.5t-107.5 303.5v714h291v-644q0 -114 56 -172t159 -58q108 0 172 64t64 174v636h291zM529 1397q-86 0 -88 -141h-187q0 145 71.5 233t189.5 88q42 0 79 -15t62.5 -36t48 -42t45 -36
t43.5 -15q87 0 88 138h187q0 -144 -71.5 -231t-189.5 -87q-42 0 -79 15t-62.5 36t-48 42t-45 36t-43.5 15z" />
    <glyph glyph-name="Umacron" unicode="&#x16a;" horiz-adv-x="1565" 
d="M480 1443v-914q0 -138 79.5 -218t222.5 -80q144 0 223.5 80t79.5 218v914h302v-945q0 -241 -164.5 -388t-440.5 -147q-275 0 -439.5 147t-164.5 388v945h302zM1155 1632h-746v181h746v-181z" />
    <glyph glyph-name="umacron" unicode="&#x16b;" horiz-adv-x="1318" 
d="M1169 1103v-1103h-282v177h-18q-39 -96 -127 -148.5t-208 -52.5q-183 0 -290.5 109.5t-107.5 303.5v714h291v-644q0 -114 56 -172t159 -58q108 0 172 64t64 174v636h291zM1024 1316h-735v180h735v-180z" />
    <glyph glyph-name="Ubreve" unicode="&#x16c;" horiz-adv-x="1565" 
d="M480 1443v-914q0 -138 79.5 -218t222.5 -80q144 0 223.5 80t79.5 218v914h302v-945q0 -241 -164.5 -388t-440.5 -147q-275 0 -439.5 147t-164.5 388v945h302zM382 1915h208q2 -75 53.5 -119.5t138.5 -44.5t138.5 44.5t53.5 119.5h208q0 -150 -108.5 -243t-291.5 -93
t-291.5 93t-108.5 243z" />
    <glyph glyph-name="ubreve" unicode="&#x16d;" horiz-adv-x="1318" 
d="M1169 1103v-1103h-282v177h-18q-39 -96 -127 -148.5t-208 -52.5q-183 0 -290.5 109.5t-107.5 303.5v714h291v-644q0 -114 56 -172t159 -58q108 0 172 64t64 174v636h291zM256 1602h207q2 -81 53 -129.5t139 -48.5t139 48.5t53 129.5h208q0 -156 -108.5 -253.5
t-291.5 -97.5t-291 97.5t-108 253.5z" />
    <glyph glyph-name="Uring" unicode="&#x16e;" horiz-adv-x="1565" 
d="M782 1578q-105 0 -175.5 68.5t-70.5 172.5q0 102 70.5 170t175.5 68t175 -67.5t70 -170.5q0 -104 -70 -172.5t-175 -68.5zM782 1714q46 0 75.5 29.5t29.5 74.5q0 44 -30 73.5t-75 29.5q-46 0 -76 -29.5t-30 -73.5q0 -46 30 -75t76 -29zM480 1443v-914q0 -138 79.5 -218
t222.5 -80q144 0 223.5 80t79.5 218v914h302v-945q0 -241 -164.5 -388t-440.5 -147q-275 0 -439.5 147t-164.5 388v945h302z" />
    <glyph glyph-name="uring" unicode="&#x16f;" horiz-adv-x="1318" 
d="M1169 1103v-1103h-282v177h-18q-39 -96 -127 -148.5t-208 -52.5q-183 0 -290.5 109.5t-107.5 303.5v714h291v-644q0 -114 56 -172t159 -58q108 0 172 64t64 174v636h291zM656 1251q-105 0 -175.5 68.5t-70.5 172.5q0 102 70.5 170t175.5 68t175 -67.5t70 -170.5
q0 -104 -70 -172.5t-175 -68.5zM656 1387q46 0 75.5 29.5t29.5 74.5q0 44 -30 73.5t-75 29.5q-46 0 -76 -29.5t-30 -73.5q0 -46 30 -75t76 -29z" />
    <glyph glyph-name="Uhungarumlaut" unicode="&#x170;" horiz-adv-x="1565" 
d="M480 1443v-914q0 -138 79.5 -218t222.5 -80q144 0 223.5 80t79.5 218v914h302v-945q0 -241 -164.5 -388t-440.5 -147q-275 0 -439.5 147t-164.5 388v945h302zM851 1590l252 318h270l-278 -318h-244zM414 1590l251 318h271l-278 -318h-244z" />
    <glyph glyph-name="uhungarumlaut" unicode="&#x171;" horiz-adv-x="1318" 
d="M733 1281l212 353h259l-242 -353h-229zM297 1281l212 353h259l-242 -353h-229zM1169 1103v-1103h-282v177h-18q-39 -96 -127 -148.5t-208 -52.5q-183 0 -290.5 109.5t-107.5 303.5v714h291v-644q0 -114 56 -172t159 -58q108 0 172 64t64 174v636h291z" />
    <glyph glyph-name="Uogonek" unicode="&#x172;" horiz-adv-x="1565" 
d="M986 -469q-112 0 -181 59.5t-69 154.5q0 124 113 211v18q-23 -10 -63 -10q-279 0 -443.5 145t-164.5 389v945h302v-914q0 -139 80.5 -218.5t221.5 -79.5t222 79t81 219v914h302v-945q0 -92 -24.5 -169.5t-64 -129.5t-87 -95.5t-95 -77.5t-87 -66t-64 -69.5t-24.5 -79.5
q0 -46 33 -74t88 -28q36 0 74 9v-162q-58 -25 -150 -25z" />
    <glyph glyph-name="uogonek" unicode="&#x173;" horiz-adv-x="1312" 
d="M1152 -445q-60 -21 -133 -21q-113 0 -182 59.5t-69 158.5q0 158 168 258h-49v167h-18q-39 -96 -127 -148.5t-208 -52.5q-183 0 -290.5 109.5t-107.5 303.5v714h291v-644q0 -114 55.5 -172t159.5 -58q108 0 172 64t64 174v636h291v-1094h-45q-151 -86 -151 -193
q0 -48 32.5 -76.5t86.5 -28.5q33 0 60 7v-163z" />
    <glyph glyph-name="Wcircumflex" unicode="&#x174;" horiz-adv-x="2067" 
d="M1170 1925l284 -335h-265l-146 187h-18l-146 -187h-265l284 335h272zM1025 955l-270 -955h-285l-382 1443h314l225 -1017h16l263 1017h255l268 -1017h16l223 1017h312l-383 -1443h-283l-273 955h-16z" />
    <glyph glyph-name="wcircumflex" unicode="&#x175;" horiz-adv-x="1735" 
d="M1015 1605l275 -354h-263l-148 209h-18l-149 -209h-263l275 354h291zM1674 1103l-293 -1103h-310l-197 761h-18l-195 -761h-306l-294 1103h295l164 -791h18l193 791h278l194 -791h18l164 791h289z" />
    <glyph glyph-name="Ycircumflex" unicode="&#x176;" horiz-adv-x="1452" 
d="M877 0h-302v531l-503 912h327l318 -604h18l317 604h327l-502 -912v-531zM862 1925l284 -335h-265l-146 187h-18l-146 -187h-265l284 335h272z" />
    <glyph glyph-name="ycircumflex" unicode="&#x177;" horiz-adv-x="1223" 
d="M283 -403q-93 0 -111 3v235q15 -3 66 -3q82 0 129.5 29t65.5 92l10 40l-387 1110h321l232 -836h18l232 836h308l-380 -1120q-70 -213 -183.5 -299.5t-320.5 -86.5zM761 1605l275 -354h-263l-148 209h-18l-149 -209h-263l275 354h291z" />
    <glyph glyph-name="Ydieresis" unicode="&#x178;" horiz-adv-x="1452" 
d="M877 0h-302v531l-503 912h327l318 -604h18l317 604h327l-502 -912v-531zM492 1579q-67 0 -111 43t-44 109t43.5 108.5t111.5 42.5t111.5 -42.5t43.5 -108.5t-44 -109t-111 -43zM960 1579q-67 0 -111 43t-44 109t44 108.5t111 42.5q68 0 112 -42.5t44 -108.5t-44 -109
t-112 -43z" />
    <glyph glyph-name="Zacute" unicode="&#x179;" horiz-adv-x="1384" 
d="M551 1590l277 318h315l-314 -318h-278zM135 0v204l726 963v18h-709v258h1077v-203l-724 -964v-18h744v-258h-1114z" />
    <glyph glyph-name="zacute" unicode="&#x17a;" horiz-adv-x="1160" 
d="M422 1281l247 353h309l-287 -353h-269zM121 0v172l558 681v18h-550v232h898v-192l-526 -661v-18h539v-232h-919z" />
    <glyph glyph-name="Zdotaccent" unicode="&#x17b;" horiz-adv-x="1384" 
d="M692 1579q-69 0 -113.5 45t-44.5 113t44.5 113t113.5 45t113 -45t44 -113t-44 -113t-113 -45zM135 0v204l726 963v18h-709v258h1077v-203l-724 -964v-18h744v-258h-1114z" />
    <glyph glyph-name="zdotaccent" unicode="&#x17c;" horiz-adv-x="1160" 
d="M577 1278q-70 0 -115.5 45.5t-45.5 114.5t45.5 115t115.5 46t115.5 -46t45.5 -115t-45.5 -114.5t-115.5 -45.5zM121 0v172l558 681v18h-550v232h898v-192l-526 -661v-18h539v-232h-919z" />
    <glyph glyph-name="Zcaron" unicode="&#x17d;" horiz-adv-x="1384" 
d="M135 0v204l726 963v18h-709v258h1077v-203l-724 -964v-18h744v-258h-1114zM819 1590h-254l-281 318h253l145 -173h20l145 173h253z" />
    <glyph glyph-name="zcaron" unicode="&#x17e;" horiz-adv-x="1160" 
d="M722 1251h-291l-275 354h263l149 -209h18l148 209h263zM121 0v172l558 681v18h-550v232h898v-192l-526 -661v-18h539v-232h-919z" />
    <glyph glyph-name="florin" unicode="&#x192;" horiz-adv-x="1415" 
d="M323 -24q-121 0 -216 23v246q87 -26 179 -26q90 0 145.5 45t69.5 135l41 256h-317v217h350l29 188q63 399 495 399q121 0 202 -15v-245q-66 18 -168 18q-103 0 -159.5 -47t-71.5 -143l-24 -155h349v-217h-383l-42 -271q-33 -211 -150.5 -309.5t-328.5 -98.5z" />
    <glyph glyph-name="Ohorn" unicode="&#x1a0;" horiz-adv-x="1689" 
d="M1499 716q0 -346 -187.5 -549.5t-506.5 -203.5q-320 0 -507 204.5t-187 553.5t186 554t502 205q100 0 187 -22t136 -48.5t100.5 -48.5t89.5 -22q93 0 93 124v185h231v-280q0 -103 -48 -161.5t-131 -58.5q-31 0 -44 9l-14 -16q100 -180 100 -425zM806 1215
q-176 0 -281 -134t-105 -360q0 -225 105 -359t281 -134t280.5 134t104.5 360q0 225 -104.5 359t-280.5 134z" />
    <glyph glyph-name="ohorn" unicode="&#x1a1;" horiz-adv-x="1425" 
d="M391 551q0 -161 64 -249t180 -88t180 88t64 249q0 160 -64.5 249t-179.5 89t-179.5 -89t-64.5 -249zM1178 546q0 -266 -146.5 -418t-403.5 -152q-245 0 -390.5 155.5t-145.5 415.5q0 262 145.5 421t385.5 159q90 0 168 -24t121.5 -52.5t89 -52.5t78.5 -24q44 0 65 26.5
t21 88.5v167h231v-233q0 -115 -55 -182.5t-146 -67.5q-24 0 -49 7l-9 -10q40 -113 40 -224z" />
    <glyph glyph-name="Uhorn" unicode="&#x1af;" horiz-adv-x="1794" 
d="M1391 1394q39 -20 78 -13q39 4 55.5 32t16.5 86v166h231v-224q0 -132 -70.5 -207t-195.5 -75q-26 0 -67 5.5t-52 14.5v-681q0 -243 -165.5 -389t-439.5 -146q-273 0 -438.5 146t-165.5 389v945h302v-914q0 -139 80.5 -218.5t221.5 -79.5t222 79t81 219v914h306v-49z" />
    <glyph glyph-name="uhorn" unicode="&#x1b0;" horiz-adv-x="1555" 
d="M866 177q-39 -95 -126.5 -148t-208.5 -53q-185 0 -291.5 111t-106.5 302v714h291v-644q0 -112 55 -171t160 -59q108 0 172 64.5t64 173.5v636h296v-41q43 -20 81 -10q37 5 53 32t16 83v166h231v-224q0 -132 -71 -207t-196 -75q-25 0 -66 5.5t-53 13.5v-846h-282v177h-18z
" />
    <glyph glyph-name="u01C4" unicode="&#x1c4;" horiz-adv-x="2924" 
d="M175 1444h568q322 0 499.5 -186.5t177.5 -525.5q0 -351 -176.5 -541.5t-500.5 -190.5h-568v1444zM477 1186v-928h218q201 0 309 120.5t108 348.5q0 218 -110 338.5t-307 120.5h-218zM1675 0v204l726 963v18h-709v258h1077v-203l-724 -964v-18h744v-258h-1114zM2359 1590
h-254l-281 318h253l145 -173h20l145 173h253z" />
    <glyph glyph-name="u01C5" unicode="&#x1c5;" horiz-adv-x="2700" 
d="M175 1444h568q322 0 499.5 -186.5t177.5 -525.5q0 -351 -176.5 -541.5t-500.5 -190.5h-568v1444zM477 1186v-928h218q201 0 309 120.5t108 348.5q0 218 -110 338.5t-307 120.5h-218zM2262 1251h-291l-275 354h263l149 -209h18l148 209h263zM1661 0v172l558 681v18h-550
v232h898v-192l-526 -661v-18h539v-232h-919z" />
    <glyph glyph-name="u01C6" unicode="&#x1c6;" horiz-adv-x="2503" 
d="M541 -17q-208 0 -328.5 153t-120.5 417q0 263 120.5 415.5t328.5 152.5q112 0 199 -51.5t130 -142.5h17v597h291v-1524h-282v173h-18q-44 -89 -133 -139.5t-204 -50.5zM640 877q-116 0 -182.5 -86.5t-66.5 -238.5q0 -153 66 -239.5t183 -86.5t183.5 86.5t66.5 238.5
q0 151 -67 238.5t-183 87.5zM2065 1251h-291l-275 354h263l149 -209h18l148 209h263zM1464 0v172l558 681v18h-550v232h898v-192l-526 -661v-18h539v-232h-919z" />
    <glyph glyph-name="u01C7" unicode="&#x1c7;" horiz-adv-x="2444" 
d="M1289 424h292q2 -87 54.5 -139t139.5 -52q93 0 142.5 55.5t49.5 161.5v993h302v-995q0 -232 -129.5 -358.5t-360.5 -126.5q-223 0 -356.5 125t-133.5 336zM1119 263v-263h-944v1443h302v-1180h642z" />
    <glyph glyph-name="u01C8" unicode="&#x1c8;" horiz-adv-x="1810" 
d="M1652 1103v-1136q0 -168 -99 -254.5t-291 -86.5q-42 0 -78 3v224q12 -2 37 -2q76 0 108 29t32 96v1127h291zM1507 1257q-78 0 -125 41t-47 106q0 66 47 106.5t125 40.5t125 -40.5t47 -106.5q0 -65 -47.5 -106t-124.5 -41zM1119 263v-263h-944v1443h302v-1180h642z" />
    <glyph glyph-name="u01C9" unicode="&#x1c9;" horiz-adv-x="1194" 
d="M1036 1103v-1136q0 -168 -99 -254.5t-291 -86.5q-42 0 -78 3v224q12 -2 37 -2q76 0 108 29t32 96v1127h291zM891 1257q-78 0 -125 41t-47 106q0 66 47 106.5t125 40.5t125 -40.5t47 -106.5q0 -65 -47.5 -106t-124.5 -41zM156 0v1524h291v-1524h-291z" />
    <glyph glyph-name="u01CA" unicode="&#x1ca;" horiz-adv-x="2804" 
d="M1649 424h292q2 -87 54.5 -139t139.5 -52q93 0 142.5 55.5t49.5 161.5v993h302v-995q0 -232 -129.5 -358.5t-360.5 -126.5q-223 0 -356.5 125t-133.5 336zM464 0h-289v1443h252l664 -899h18v899h289v-1443h-250l-666 903h-18v-903z" />
    <glyph glyph-name="u01CB" unicode="&#x1cb;" horiz-adv-x="2170" 
d="M2012 1103v-1136q0 -168 -99 -254.5t-291 -86.5q-42 0 -78 3v224q12 -2 37 -2q76 0 108 29t32 96v1127h291zM1867 1257q-78 0 -125 41t-47 106q0 66 47 106.5t125 40.5t125 -40.5t47 -106.5q0 -65 -47.5 -106t-124.5 -41zM464 0h-289v1443h252l664 -899h18v899h289v-1443
h-250l-666 903h-18v-903z" />
    <glyph glyph-name="u01CC" unicode="&#x1cc;" horiz-adv-x="1914" 
d="M1756 1103v-1136q0 -168 -99 -254.5t-291 -86.5q-42 0 -78 3v224q12 -2 37 -2q76 0 108 29t32 96v1127h291zM1611 1257q-78 0 -125 41t-47 106q0 66 47 106.5t125 40.5t125 -40.5t47 -106.5q0 -65 -47.5 -106t-124.5 -41zM146 0v1103h282v-177h18q38 93 130 147t213 54
q184 0 284.5 -108t100.5 -306v-713h-291v644q0 114 -53.5 173t-156.5 59q-108 0 -172 -65.5t-64 -174.5v-636h-291z" />
    <glyph glyph-name="Acaron" unicode="&#x1cd;" horiz-adv-x="1500" 
d="M1102 0l-109 344h-507l-111 -344h-303l501 1443h355l501 -1443h-327zM732 1143l-181 -566h378l-179 566h-18zM877 1590h-254l-281 318h253l145 -173h20l145 173h253z" />
    <glyph glyph-name="acaron" unicode="&#x1ce;" horiz-adv-x="1208" 
d="M544 202q101 0 169 57t68 141v81l-223 -14q-186 -13 -186 -133q0 -61 47.5 -96.5t124.5 -35.5zM448 -17q-160 0 -260.5 91t-100.5 241q0 149 110.5 234.5t316.5 97.5l267 16v90q0 69 -48 106.5t-138 37.5q-162 0 -199 -102h-268q14 153 144.5 242.5t338.5 89.5
q218 0 337.5 -98t119.5 -276v-753h-282v144h-18q-43 -76 -128 -118.5t-192 -42.5zM756 1251h-291l-275 354h263l149 -209h18l148 209h263z" />
    <glyph glyph-name="Icaron" unicode="&#x1cf;" horiz-adv-x="652" 
d="M477 0h-302v1443h302v-1443zM453 1590h-254l-281 318h253l145 -173h20l145 173h253z" />
    <glyph glyph-name="icaron" unicode="&#x1d0;" horiz-adv-x="593" 
d="M442 1251h-291l-275 354h263l149 -209h18l148 209h263zM151 0v1103h291v-1103h-291z" />
    <glyph glyph-name="Ocaron" unicode="&#x1d1;" horiz-adv-x="1610" 
d="M933 1590h-254l-281 318h253l145 -173h20l145 173h253zM806 1480q320 0 506.5 -204t186.5 -554q0 -351 -186.5 -555t-506.5 -204q-321 0 -508 204t-187 555q0 350 188 554t507 204zM806 1215q-176 0 -281 -133.5t-105 -359.5t104.5 -360t281.5 -134q176 0 280.5 134
t104.5 360t-104.5 359.5t-280.5 133.5z" />
    <glyph glyph-name="ocaron" unicode="&#x1d2;" horiz-adv-x="1269" 
d="M780 1251h-291l-275 354h263l149 -209h18l148 209h263zM635 214q116 0 180 88.5t64 249.5q0 159 -64.5 248t-179.5 89q-116 0 -180 -89t-64 -248q0 -161 63.5 -249.5t180.5 -88.5zM635 -24q-254 0 -398.5 153t-144.5 423q0 268 145.5 421.5t397.5 153.5t397.5 -153.5
t145.5 -421.5q0 -270 -144.5 -423t-398.5 -153z" />
    <glyph glyph-name="Ucaron" unicode="&#x1d3;" horiz-adv-x="1565" 
d="M909 1590h-254l-281 318h253l145 -173h20l145 173h253zM480 1443v-914q0 -138 79.5 -218t222.5 -80q144 0 223.5 80t79.5 218v914h302v-945q0 -241 -164.5 -388t-440.5 -147q-275 0 -439.5 147t-164.5 388v945h302z" />
    <glyph glyph-name="ucaron" unicode="&#x1d4;" horiz-adv-x="1318" 
d="M801 1251h-291l-275 354h263l149 -209h18l148 209h263zM1169 1103v-1103h-282v177h-18q-39 -96 -127 -148.5t-208 -52.5q-183 0 -290.5 109.5t-107.5 303.5v714h291v-644q0 -114 56 -172t159 -58q108 0 172 64t64 174v636h291z" />
    <glyph glyph-name="Udieresismacron" unicode="&#x1d5;" horiz-adv-x="1565" 
d="M480 1443v-914q0 -138 79.5 -218t222.5 -80q144 0 223.5 80t79.5 218v914h302v-945q0 -241 -164.5 -388t-440.5 -147q-275 0 -439.5 147t-164.5 388v945h302zM409 1996v168h746v-168h-746zM548 1579q-67 0 -110.5 42.5t-43.5 107.5t43.5 107.5t110.5 42.5
q66 0 109.5 -42.5t43.5 -107.5t-43.5 -107.5t-109.5 -42.5zM1016 1579q-66 0 -109.5 42.5t-43.5 107.5t43.5 107.5t109.5 42.5q67 0 110.5 -42.5t43.5 -107.5t-43.5 -107.5t-110.5 -42.5z" />
    <glyph glyph-name="udieresismacron" unicode="&#x1d6;" horiz-adv-x="1318" 
d="M1169 1103v-1103h-282v177h-18q-39 -96 -127 -148.5t-208 -52.5q-183 0 -290.5 109.5t-107.5 303.5v714h291v-644q0 -114 56 -172t159 -58q108 0 172 64t64 174v636h291zM435 1251q-64 0 -105.5 42t-41.5 103q0 62 41.5 103.5t105.5 41.5q63 0 104 -41.5t41 -103.5
q0 -61 -41 -103t-104 -42zM877 1251q-63 0 -104 42t-41 103q0 62 41 103.5t104 41.5q64 0 105.5 -41.5t41.5 -103.5q0 -61 -41.5 -103t-105.5 -42zM1024 1678h-735v180h735v-180z" />
    <glyph glyph-name="Udieresisacute" unicode="&#x1d7;" horiz-adv-x="1565" 
d="M662 1937l166 242h292l-218 -242h-240zM548 1579q-67 0 -111 43t-44 109t43.5 108.5t111.5 42.5t111.5 -42.5t43.5 -108.5t-44 -109t-111 -43zM1016 1579q-67 0 -111 43t-44 109t44 108.5t111 42.5q68 0 112 -42.5t44 -108.5t-44 -109t-112 -43zM480 1443v-914
q0 -138 79.5 -218t222.5 -80q144 0 223.5 80t79.5 218v914h302v-945q0 -241 -164.5 -388t-440.5 -147q-275 0 -439.5 147t-164.5 388v945h302z" />
    <glyph glyph-name="udieresisacute" unicode="&#x1d8;" horiz-adv-x="1318" 
d="M528 1640l207 319h281l-247 -319h-241zM422 1258q-67 0 -111 43t-44 109t43.5 108.5t111.5 42.5t111.5 -42.5t43.5 -108.5t-44 -109t-111 -43zM890 1258q-67 0 -111 43t-44 109t44 108.5t111 42.5q68 0 112 -42.5t44 -108.5t-44 -109t-112 -43zM1169 1103v-1103h-282v177
h-18q-39 -96 -127 -148.5t-208 -52.5q-183 0 -290.5 109.5t-107.5 303.5v714h291v-644q0 -114 56 -172t159 -58q108 0 172 64t64 174v636h291z" />
    <glyph glyph-name="Udieresiscaron" unicode="&#x1d9;" horiz-adv-x="1565" 
d="M548 1564q-66 0 -109 41t-43 104q0 62 43 103t109 41t108.5 -41t42.5 -103q0 -63 -42.5 -104t-108.5 -41zM1016 1564q-66 0 -108.5 41t-42.5 104q0 62 42.5 103t108.5 41t109 -41t43 -103q0 -63 -43 -104t-109 -41zM917 1910h-270l-278 300h263l140 -166h20l140 166h263z
M480 1443v-914q0 -138 79.5 -218t222.5 -80q144 0 223.5 80t79.5 218v914h302v-945q0 -241 -164.5 -388t-440.5 -147q-275 0 -439.5 147t-164.5 388v945h302z" />
    <glyph glyph-name="udieresiscaron" unicode="&#x1da;" horiz-adv-x="1318" 
d="M435 1251q-64 0 -105.5 42t-41.5 103q0 62 41.5 103.5t105.5 41.5q63 0 104 -41.5t41 -103.5q0 -61 -41 -103t-104 -42zM877 1251q-63 0 -104 42t-41 103q0 62 41 103.5t104 41.5q64 0 105.5 -41.5t41.5 -103.5q0 -61 -41.5 -103t-105.5 -42zM793 1622h-274l-272 347h252
l148 -208h18l148 208h252zM1169 1103v-1103h-282v177h-18q-39 -96 -127 -148.5t-208 -52.5q-183 0 -290.5 109.5t-107.5 303.5v714h291v-644q0 -114 56 -172t159 -58q108 0 172 64t64 174v636h291z" />
    <glyph glyph-name="Udieresisgrave" unicode="&#x1db;" horiz-adv-x="1565" 
d="M911 1937h-240l-218 242h292zM548 1579q-67 0 -111 43t-44 109t43.5 108.5t111.5 42.5t111.5 -42.5t43.5 -108.5t-44 -109t-111 -43zM1016 1579q-67 0 -111 43t-44 109t44 108.5t111 42.5q68 0 112 -42.5t44 -108.5t-44 -109t-112 -43zM480 1443v-914q0 -138 79.5 -218
t222.5 -80q144 0 223.5 80t79.5 218v914h302v-945q0 -241 -164.5 -388t-440.5 -147q-275 0 -439.5 147t-164.5 388v945h302z" />
    <glyph glyph-name="udieresisgrave" unicode="&#x1dc;" horiz-adv-x="1318" 
d="M784 1640h-241l-247 319h281zM422 1258q-67 0 -111 43t-44 109t43.5 108.5t111.5 42.5t111.5 -42.5t43.5 -108.5t-44 -109t-111 -43zM890 1258q-67 0 -111 43t-44 109t44 108.5t111 42.5q68 0 112 -42.5t44 -108.5t-44 -109t-112 -43zM1169 1103v-1103h-282v177h-18
q-39 -96 -127 -148.5t-208 -52.5q-183 0 -290.5 109.5t-107.5 303.5v714h291v-644q0 -114 56 -172t159 -58q108 0 172 64t64 174v636h291z" />
    <glyph glyph-name="Adieresismacron" unicode="&#x1de;" horiz-adv-x="1500" 
d="M1102 0l-109 344h-507l-111 -344h-303l501 1443h355l501 -1443h-327zM732 1143l-181 -566h378l-179 566h-18zM377 1996v168h746v-168h-746zM516 1579q-67 0 -110.5 42.5t-43.5 107.5t43.5 107.5t110.5 42.5q66 0 109.5 -42.5t43.5 -107.5t-43.5 -107.5t-109.5 -42.5z
M984 1579q-66 0 -109.5 42.5t-43.5 107.5t43.5 107.5t109.5 42.5q67 0 110.5 -42.5t43.5 -107.5t-43.5 -107.5t-110.5 -42.5z" />
    <glyph glyph-name="adieresismacron" unicode="&#x1df;" horiz-adv-x="1208" 
d="M544 202q101 0 169 57t68 141v81l-223 -14q-186 -13 -186 -133q0 -61 47.5 -96.5t124.5 -35.5zM448 -17q-160 0 -260.5 91t-100.5 241q0 149 110.5 234.5t316.5 97.5l267 16v90q0 69 -48 106.5t-138 37.5q-162 0 -199 -102h-268q14 153 144.5 242.5t338.5 89.5
q218 0 337.5 -98t119.5 -276v-753h-282v144h-18q-43 -76 -128 -118.5t-192 -42.5zM390 1251q-64 0 -105.5 42t-41.5 103q0 62 41.5 103.5t105.5 41.5q63 0 104 -41.5t41 -103.5q0 -61 -41 -103t-104 -42zM832 1251q-63 0 -104 42t-41 103q0 62 41 103.5t104 41.5
q64 0 105.5 -41.5t41.5 -103.5q0 -61 -41.5 -103t-105.5 -42zM979 1678h-735v180h735v-180z" />
    <glyph glyph-name="Adotmacron" unicode="&#x1e0;" horiz-adv-x="1500" 
d="M1102 0l-109 344h-507l-111 -344h-303l501 1443h355l501 -1443h-327zM732 1143l-181 -566h378l-179 566h-18zM750 1575q-68 0 -112 42.5t-44 107.5q0 64 44 106t112 42t112 -42t44 -106q0 -65 -44 -107.5t-112 -42.5zM1123 1996h-746v168h746v-168z" />
    <glyph glyph-name="adotmacron" unicode="&#x1e1;" horiz-adv-x="1208" 
d="M544 202q101 0 169 57t68 141v81l-223 -14q-186 -13 -186 -133q0 -61 47.5 -96.5t124.5 -35.5zM448 -17q-160 0 -260.5 91t-100.5 241q0 149 110.5 234.5t316.5 97.5l267 16v90q0 69 -48 106.5t-138 37.5q-162 0 -199 -102h-268q14 153 144.5 242.5t338.5 89.5
q218 0 337.5 -98t119.5 -276v-753h-282v144h-18q-43 -76 -128 -118.5t-192 -42.5zM611 1251q-66 0 -108.5 42.5t-42.5 106.5q0 65 42.5 108t108.5 43t108.5 -43t42.5 -108q0 -64 -42.5 -106.5t-108.5 -42.5zM979 1678h-735v180h735v-180z" />
    <glyph glyph-name="AEmacron" unicode="&#x1e2;" horiz-adv-x="2059" 
d="M990 1202h-129l-249 -604h378v604zM990 0v364h-465l-154 -364h-299l595 1443h1250v-258h-651v-341h614v-239h-614v-347h651v-258h-927zM1896 1632h-746v181h746v-181z" />
    <glyph glyph-name="aemacron" unicode="&#x1e3;" horiz-adv-x="1902" 
d="M1315 -24q-130 0 -235 53.5t-156 144.5h-18q-64 -93 -169.5 -145.5t-237.5 -52.5q-187 0 -299.5 94t-112.5 245q0 149 110.5 234.5t316.5 97.5l267 16v90q0 69 -48 106.5t-138 37.5q-162 0 -199 -102h-268q13 146 139 239t313 93q251 0 357 -158h18q58 72 151.5 115
t204.5 43q228 0 360 -148t132 -401v-94h-747v-26q4 -117 74 -187.5t182 -70.5q155 0 212 114h269q-33 -156 -161 -247t-317 -91zM1293 904q-102 0 -166.5 -64.5t-70.5 -170.5h462q-4 105 -66.5 170t-158.5 65zM549 199q98 0 165 60t67 145v77l-223 -14q-186 -13 -186 -135
q0 -62 48.5 -97.5t128.5 -35.5zM1351 1316h-735v180h735v-180z" />
    <glyph glyph-name="Gcaron" unicode="&#x1e6;" horiz-adv-x="1557" 
d="M923 1591h-254l-281 318h253l145 -173h20l145 173h253zM1443 589q0 -289 -172 -457.5t-468 -168.5q-322 0 -507 203t-185 557q0 349 185 553t500 204q256 0 429 -136t205 -361h-300q-34 110 -121 170.5t-213 60.5q-175 0 -275.5 -130.5t-100.5 -357.5q0 -231 104.5 -364
t283.5 -133q148 0 242 80t99 211l1 26h-313v227h606v-184z" />
    <glyph glyph-name="gcaron" unicode="&#x1e7;" horiz-adv-x="1322" 
d="M789 1251h-291l-275 354h263l149 -209h18l148 209h263zM888 561q0 146 -67.5 231t-184.5 85t-182.5 -84.5t-65.5 -230.5q0 -147 65 -231.5t183 -84.5t185 84.5t67 230.5zM632 -418q-218 0 -354.5 88.5t-150.5 234.5h288q11 -51 70 -81t153 -30q117 0 182 51.5t65 144.5
v204h-18q-94 -178 -332 -178q-206 0 -326 147.5t-120 397.5q0 257 121.5 408.5t330.5 151.5q112 0 201.5 -52t133.5 -143h18v177h282v-1099q0 -194 -147 -308t-397 -114z" />
    <glyph glyph-name="Kcaron" unicode="&#x1e8;" horiz-adv-x="1453" 
d="M477 0h-302v1443h302v-643h18l533 643h336l-526 -633l563 -810h-362l-419 604l-143 -169v-435zM829 1590h-254l-281 318h253l145 -173h20l145 173h253z" />
    <glyph glyph-name="kcaron" unicode="&#x1e9;" horiz-adv-x="1232" 
d="M465 672l369 431h331l-420 -473l449 -630h-345l-322 448l-80 -82v-366h-291v1524h291v-852h18zM429 1671h-254l-281 318h253l145 -173h20l145 173h253z" />
    <glyph glyph-name="Oogonek" unicode="&#x1ea;" horiz-adv-x="1610" 
d="M1011 -469q-110 0 -178 59.5t-68 155.5q0 129 108 211v18q-33 -9 -71 -9q-320 0 -505.5 202.5t-185.5 552.5t187.5 554.5t507.5 204.5t506.5 -204t186.5 -555q0 -108 -18 -200t-48.5 -158.5t-70.5 -122.5t-84 -96t-87.5 -75t-83.5 -64.5t-70.5 -58t-48.5 -62.5t-18 -72
q0 -47 32 -75t85 -28q37 0 76 9v-162q-55 -25 -152 -25zM806 1215q-176 0 -281 -134t-105 -360q0 -225 104.5 -359t281.5 -134q176 0 280.5 134t104.5 360q0 225 -104.5 359t-280.5 134z" />
    <glyph glyph-name="oogonek" unicode="&#x1eb;" horiz-adv-x="1269" 
d="M795 -469q-111 0 -179 59.5t-68 154.5q0 121 110 216v18q-13 -2 -37 -2q-249 2 -389 154t-140 422q0 266 145.5 420t397.5 154t397.5 -153.5t145.5 -420.5q0 -313 -210 -484q-129 -106 -172.5 -159.5t-43.5 -106.5q0 -43 32.5 -68.5t85.5 -25.5q37 0 75 9v-162
q-65 -25 -150 -25zM635 214q116 0 180 88.5t64 249.5q0 159 -64.5 248t-179.5 89t-179.5 -89t-64.5 -248q0 -161 64 -249.5t180 -88.5z" />
    <glyph glyph-name="Oogonekmacron" unicode="&#x1ec;" horiz-adv-x="1610" 
d="M1011 -469q-110 0 -178 59.5t-68 155.5q0 129 108 211v18q-33 -9 -71 -9q-320 0 -505.5 202.5t-185.5 552.5t187.5 554.5t507.5 204.5t506.5 -204t186.5 -555q0 -108 -18 -200t-48.5 -158.5t-70.5 -122.5t-84 -96t-87.5 -75t-83.5 -64.5t-70.5 -58t-48.5 -62.5t-18 -72
q0 -47 32 -75t85 -28q37 0 76 9v-162q-55 -25 -152 -25zM806 1215q-176 0 -281 -134t-105 -360q0 -225 104.5 -359t281.5 -134q176 0 280.5 134t104.5 360q0 225 -104.5 359t-280.5 134zM1179 1632h-746v181h746v-181z" />
    <glyph glyph-name="oogonekmacron" unicode="&#x1ed;" horiz-adv-x="1269" 
d="M795 -469q-111 0 -179 59.5t-68 154.5q0 121 110 216v18q-13 -2 -37 -2q-249 2 -389 154t-140 422q0 266 145.5 420t397.5 154t397.5 -153.5t145.5 -420.5q0 -313 -210 -484q-129 -106 -172.5 -159.5t-43.5 -106.5q0 -43 32.5 -68.5t85.5 -25.5q37 0 75 9v-162
q-65 -25 -150 -25zM635 214q116 0 180 88.5t64 249.5q0 159 -64.5 248t-179.5 89t-179.5 -89t-64.5 -248q0 -161 64 -249.5t180 -88.5zM1003 1316h-735v180h735v-180z" />
    <glyph glyph-name="u01F1" unicode="&#x1f1;" horiz-adv-x="2924" 
d="M1675 0v204l726 963v18h-709v258h1077v-203l-724 -964v-18h744v-258h-1114zM175 1444h568q322 0 499.5 -186.5t177.5 -525.5q0 -351 -176.5 -541.5t-500.5 -190.5h-568v1444zM477 1186v-928h218q201 0 309 120.5t108 348.5q0 218 -110 338.5t-307 120.5h-218z" />
    <glyph glyph-name="u01F2" unicode="&#x1f2;" horiz-adv-x="2700" 
d="M1661 0v172l558 681v18h-550v232h898v-192l-526 -661v-18h539v-232h-919zM175 1444h568q322 0 499.5 -186.5t177.5 -525.5q0 -351 -176.5 -541.5t-500.5 -190.5h-568v1444zM477 1186v-928h218q201 0 309 120.5t108 348.5q0 218 -110 338.5t-307 120.5h-218z" />
    <glyph glyph-name="u01F3" unicode="&#x1f3;" horiz-adv-x="2503" 
d="M1464 0v172l558 681v18h-550v232h898v-192l-526 -661v-18h539v-232h-919zM541 -17q-208 0 -328.5 153t-120.5 417q0 263 120.5 415.5t328.5 152.5q112 0 199 -51.5t130 -142.5h17v597h291v-1524h-282v173h-18q-44 -89 -133 -139.5t-204 -50.5zM640 877
q-116 0 -182.5 -86.5t-66.5 -238.5q0 -153 66 -239.5t183 -86.5t183.5 86.5t66.5 238.5q0 151 -67 238.5t-183 87.5z" />
    <glyph glyph-name="Gacute" unicode="&#x1f4;" horiz-adv-x="1557" 
d="M655 1591l277 318h315l-314 -318h-278zM1443 589q0 -289 -172 -457.5t-468 -168.5q-322 0 -507 203t-185 557q0 349 185 553t500 204q256 0 429 -136t205 -361h-300q-34 110 -121 170.5t-213 60.5q-175 0 -275.5 -130.5t-100.5 -357.5q0 -231 104.5 -364t283.5 -133
q148 0 242 80t99 211l1 26h-313v227h606v-184z" />
    <glyph glyph-name="gacute" unicode="&#x1f5;" horiz-adv-x="1322" 
d="M489 1281l247 353h309l-287 -353h-269zM888 561q0 146 -67.5 231t-184.5 85t-182.5 -84.5t-65.5 -230.5q0 -147 65 -231.5t183 -84.5t185 84.5t67 230.5zM632 -418q-218 0 -354.5 88.5t-150.5 234.5h288q11 -51 70 -81t153 -30q117 0 182 51.5t65 144.5v204h-18
q-94 -178 -332 -178q-206 0 -326 147.5t-120 397.5q0 257 121.5 408.5t330.5 151.5q112 0 201.5 -52t133.5 -143h18v177h282v-1099q0 -194 -147 -308t-397 -114z" />
    <glyph glyph-name="Ngrave" unicode="&#x1f8;" horiz-adv-x="1573" 
d="M657 1908l276 -318h-277l-314 318h315zM464 0h-289v1443h252l664 -899h18v899h289v-1443h-250l-666 903h-18v-903z" />
    <glyph glyph-name="ngrave" unicode="&#x1f9;" horiz-adv-x="1310" 
d="M826 1281h-269l-287 353h309zM146 0v1103h282v-177h18q38 93 130 147t213 54q184 0 284.5 -108t100.5 -306v-713h-291v644q0 114 -53.5 173t-156.5 59q-108 0 -172 -65.5t-64 -174.5v-636h-291z" />
    <glyph glyph-name="Aringacute" unicode="&#x1fa;" horiz-adv-x="1500" 
d="M1102 0l-109 344h-507l-111 -344h-303l501 1443h355l501 -1443h-327zM732 1143l-181 -566h378l-179 566h-18zM700 1779q-16 -19 -12 -44t26 -41q21 -17 45.5 -14.5t40.5 21.5t12 44t-26 41q-21 17 -46 15t-40 -22zM751 1531q-93 0 -155 60t-62 151q0 90 62 149t155 59
q92 0 153.5 -59t61.5 -149q0 -91 -61.5 -151t-153.5 -60zM741 2214h264l-135 -191h-237z" />
    <glyph glyph-name="aringacute" unicode="&#x1fb;" horiz-adv-x="1208" 
d="M544 202q101 0 169 57t68 141v81l-223 -14q-186 -13 -186 -133q0 -61 47.5 -96.5t124.5 -35.5zM448 -17q-160 0 -260.5 91t-100.5 241q0 149 110.5 234.5t316.5 97.5l267 16v90q0 69 -48 106.5t-138 37.5q-162 0 -199 -102h-268q14 153 144.5 242.5t338.5 89.5
q218 0 337.5 -98t119.5 -276v-753h-282v144h-18q-43 -76 -128 -118.5t-192 -42.5zM611 1215q-97 0 -162 64t-65 159t65 158.5t162 63.5t162 -63.5t65 -158.5t-65 -159t-162 -64zM519 1437q0 -39 26.5 -65t65.5 -26t65.5 26t26.5 65t-26.5 65t-65.5 26t-65.5 -26t-26.5 -65z
M505 1739l160 236h251l-198 -236h-213z" />
    <glyph glyph-name="AEacute" unicode="&#x1fc;" horiz-adv-x="2059" 
d="M1382 1590l277 318h315l-314 -318h-278zM990 1202h-129l-249 -604h378v604zM990 0v364h-465l-154 -364h-299l595 1443h1250v-258h-651v-341h614v-239h-614v-347h651v-258h-927z" />
    <glyph glyph-name="aeacute" unicode="&#x1fd;" horiz-adv-x="1902" 
d="M828 1281l247 353h309l-287 -353h-269zM1315 -24q-130 0 -235 53.5t-156 144.5h-18q-64 -93 -169.5 -145.5t-237.5 -52.5q-187 0 -299.5 94t-112.5 245q0 149 110.5 234.5t316.5 97.5l267 16v90q0 69 -48 106.5t-138 37.5q-162 0 -199 -102h-268q13 146 139 239t313 93
q251 0 357 -158h18q58 72 151.5 115t204.5 43q228 0 360 -148t132 -401v-94h-747v-26q4 -117 74 -187.5t182 -70.5q155 0 212 114h269q-33 -156 -161 -247t-317 -91zM1293 904q-102 0 -166.5 -64.5t-70.5 -170.5h462q-4 105 -66.5 170t-158.5 65zM549 199q98 0 165 60
t67 145v77l-223 -14q-186 -13 -186 -135q0 -62 48.5 -97.5t128.5 -35.5z" />
    <glyph glyph-name="Oslashacute" unicode="&#x1fe;" horiz-adv-x="1592" 
d="M1270 1908l-314 -318h-278l277 318h315zM1097 1067l-510 -768q93 -71 219 -71q176 0 280.5 134t104.5 360q0 216 -94 345zM503 392l506 763q-88 60 -203 60q-176 0 -281 -133.5t-105 -359.5q0 -201 83 -330zM1350 1448l-84 -127q113 -98 173 -251t60 -348
q0 -351 -186.5 -555t-506.5 -204q-217 0 -377 97l-85 -128l-102 66l90 135q-107 100 -164 249.5t-57 339.5q0 350 188 554t507 204q207 0 360 -88l76 115z" />
    <glyph glyph-name="oslashacute" unicode="&#x1ff;" horiz-adv-x="1269" 
d="M1024 1634l-287 -353h-269l247 353h309zM841 755l-320 -513q49 -28 114 -28q116 0 180 88.5t64 249.5q0 121 -38 203zM436 333l324 520q-53 36 -125 36q-116 0 -180 -89t-64 -248q0 -136 45 -219zM1065 1114l-67 -107q180 -155 180 -455q0 -270 -144.5 -423t-398.5 -153
q-139 0 -249 48l-61 -97l-103 63l60 96q-190 153 -190 466q0 268 145.5 421.5t397.5 153.5q147 0 262 -55l62 100z" />
    <glyph glyph-name="Adblgrave" unicode="&#x200;" horiz-adv-x="1500" 
d="M1102 0l-109 344h-507l-111 -344h-303l501 1443h355l501 -1443h-327zM732 1143l-181 -566h378l-179 566h-18zM661 1590h-244l-278 318h270zM1098 1590h-244l-278 318h271z" />
    <glyph glyph-name="adblgrave" unicode="&#x201;" horiz-adv-x="1208" 
d="M544 202q101 0 169 57t68 141v81l-223 -14q-186 -13 -186 -133q0 -61 47.5 -96.5t124.5 -35.5zM448 -17q-160 0 -260.5 91t-100.5 241q0 149 110.5 234.5t316.5 97.5l267 16v90q0 69 -48 106.5t-138 37.5q-162 0 -199 -102h-268q14 153 144.5 242.5t338.5 89.5
q218 0 337.5 -98t119.5 -276v-753h-282v144h-18q-43 -76 -128 -118.5t-192 -42.5zM526 1281h-230l-241 353h258zM962 1281h-230l-241 353h258z" />
    <glyph glyph-name="Ainvertedbreve" unicode="&#x202;" horiz-adv-x="1500" 
d="M1102 0l-109 344h-507l-111 -344h-303l501 1443h355l501 -1443h-327zM732 1143l-181 -566h378l-179 566h-18zM350 1579q0 151 108.5 243.5t291.5 92.5t291.5 -92.5t108.5 -243.5h-208q-2 76 -53.5 120.5t-138.5 44.5t-138.5 -44.5t-53.5 -120.5h-208z" />
    <glyph glyph-name="ainvertedbreve" unicode="&#x203;" horiz-adv-x="1208" 
d="M544 202q101 0 169 57t68 141v81l-223 -14q-186 -13 -186 -133q0 -61 47.5 -96.5t124.5 -35.5zM448 -17q-160 0 -260.5 91t-100.5 241q0 149 110.5 234.5t316.5 97.5l267 16v90q0 69 -48 106.5t-138 37.5q-162 0 -199 -102h-268q14 153 144.5 242.5t338.5 89.5
q218 0 337.5 -98t119.5 -276v-753h-282v144h-18q-43 -76 -128 -118.5t-192 -42.5zM211 1251q0 156 108.5 253.5t291.5 97.5t291.5 -97.5t108.5 -253.5h-208q-2 81 -53 129.5t-139 48.5t-139 -48.5t-53 -129.5h-208z" />
    <glyph glyph-name="Edblgrave" unicode="&#x204;" horiz-adv-x="1274" 
d="M564 1590h-244l-278 318h270zM1001 1590h-244l-278 318h271zM1131 258v-258h-956v1443h956v-258h-654v-337h617v-239h-617v-351h654z" />
    <glyph glyph-name="edblgrave" unicode="&#x205;" horiz-adv-x="1231" 
d="M623 904q-101 0 -166.5 -65t-73.5 -172h470q-5 110 -66.5 173.5t-163.5 63.5zM859 314h271q-33 -157 -167.5 -247.5t-336.5 -90.5q-252 0 -393 150.5t-141 419.5t142 425t388 156q244 0 380.5 -147t136.5 -410v-89h-757v-15q3 -123 70.5 -194.5t181.5 -71.5
q86 0 144 29.5t81 84.5zM537 1281h-230l-241 353h258zM973 1281h-230l-241 353h258z" />
    <glyph glyph-name="Einvertedbreve" unicode="&#x206;" horiz-adv-x="1274" 
d="M1131 258v-258h-956v1443h956v-258h-654v-337h617v-239h-617v-351h654zM253 1579q0 151 108.5 243.5t291.5 92.5t291.5 -92.5t108.5 -243.5h-208q-2 76 -53.5 120.5t-138.5 44.5t-138.5 -44.5t-53.5 -120.5h-208z" />
    <glyph glyph-name="einvertedbreve" unicode="&#x207;" horiz-adv-x="1231" 
d="M623 904q-101 0 -166.5 -65t-73.5 -172h470q-5 110 -66.5 173.5t-163.5 63.5zM859 314h271q-33 -157 -167.5 -247.5t-336.5 -90.5q-252 0 -393 150.5t-141 419.5t142 425t388 156q244 0 380.5 -147t136.5 -410v-89h-757v-15q3 -123 70.5 -194.5t181.5 -71.5
q86 0 144 29.5t81 84.5zM222 1251q0 156 108.5 253.5t291.5 97.5t291.5 -97.5t108.5 -253.5h-208q-2 81 -53 129.5t-139 48.5t-139 -48.5t-53 -129.5h-208z" />
    <glyph glyph-name="Idblgrave" unicode="&#x208;" horiz-adv-x="652" 
d="M477 0h-302v1443h302v-1443zM237 1590h-244l-278 318h270zM674 1590h-244l-278 318h271z" />
    <glyph glyph-name="idblgrave" unicode="&#x209;" horiz-adv-x="593" 
d="M151 0v1103h291v-1103h-291zM212 1281h-230l-241 353h258zM648 1281h-230l-241 353h258z" />
    <glyph glyph-name="Iinvertedbreve" unicode="&#x20a;" horiz-adv-x="652" 
d="M477 0h-302v1443h302v-1443zM-74 1579q0 151 108.5 243.5t291.5 92.5t291.5 -92.5t108.5 -243.5h-208q-2 76 -53.5 120.5t-138.5 44.5t-138.5 -44.5t-53.5 -120.5h-208z" />
    <glyph glyph-name="iinvertedbreve" unicode="&#x20b;" horiz-adv-x="593" 
d="M151 0v1103h291v-1103h-291zM-103 1251q0 156 108.5 253.5t291.5 97.5t291.5 -97.5t108.5 -253.5h-208q-2 81 -53 129.5t-139 48.5t-139 -48.5t-53 -129.5h-208z" />
    <glyph glyph-name="Odblgrave" unicode="&#x20c;" horiz-adv-x="1610" 
d="M717 1590h-244l-278 318h270zM1154 1590h-244l-278 318h271zM806 1480q320 0 506.5 -204t186.5 -554q0 -351 -186.5 -555t-506.5 -204q-321 0 -508 204t-187 555q0 350 188 554t507 204zM806 1215q-176 0 -281 -133.5t-105 -359.5t104.5 -360t281.5 -134q176 0 280.5 134
t104.5 360t-104.5 359.5t-280.5 133.5z" />
    <glyph glyph-name="odblgrave" unicode="&#x20d;" horiz-adv-x="1269" 
d="M635 214q116 0 180 88.5t64 249.5q0 159 -64.5 248t-179.5 89q-116 0 -180 -89t-64 -248q0 -161 63.5 -249.5t180.5 -88.5zM635 -24q-254 0 -398.5 153t-144.5 423q0 268 145.5 421.5t397.5 153.5t397.5 -153.5t145.5 -421.5q0 -270 -144.5 -423t-398.5 -153zM550 1281
h-230l-241 353h258zM986 1281h-230l-241 353h258z" />
    <glyph glyph-name="Oinvertedbreve" unicode="&#x20e;" horiz-adv-x="1610" 
d="M406 1579q0 151 108.5 243.5t291.5 92.5t291.5 -92.5t108.5 -243.5h-208q-2 76 -53.5 120.5t-138.5 44.5t-138.5 -44.5t-53.5 -120.5h-208zM806 1480q320 0 506.5 -204t186.5 -554q0 -351 -186.5 -555t-506.5 -204q-321 0 -508 204t-187 555q0 350 188 554t507 204z
M806 1215q-176 0 -281 -133.5t-105 -359.5t104.5 -360t281.5 -134q176 0 280.5 134t104.5 360t-104.5 359.5t-280.5 133.5z" />
    <glyph glyph-name="oinvertedbreve" unicode="&#x20f;" horiz-adv-x="1269" 
d="M635 214q116 0 180 88.5t64 249.5q0 159 -64.5 248t-179.5 89q-116 0 -180 -89t-64 -248q0 -161 63.5 -249.5t180.5 -88.5zM635 -24q-254 0 -398.5 153t-144.5 423q0 268 145.5 421.5t397.5 153.5t397.5 -153.5t145.5 -421.5q0 -270 -144.5 -423t-398.5 -153zM235 1251
q0 156 108.5 253.5t291.5 97.5t291.5 -97.5t108.5 -253.5h-208q-2 81 -53 129.5t-139 48.5t-139 -48.5t-53 -129.5h-208z" />
    <glyph glyph-name="Rdblgrave" unicode="&#x210;" horiz-adv-x="1422" 
d="M563 1590h-244l-278 318h270zM1000 1590h-244l-278 318h271zM477 1199v-444h265q114 0 177.5 58.5t63.5 162.5q0 103 -66 163t-178 60h-262zM477 523v-523h-302v1443h606q238 0 375 -124t137 -339q0 -140 -69.5 -250.5t-192.5 -159.5l304 -570h-342l-269 523h-247z" />
    <glyph glyph-name="rdblgrave" unicode="&#x211;" horiz-adv-x="881" 
d="M146 0v1103h282v-176h18q22 84 100 139t180 55q73 0 112 -14v-265q-17 7 -60.5 12.5t-75.5 5.5q-119 0 -192 -67t-73 -182v-611h-291zM363 1281h-230l-241 353h258zM799 1281h-230l-241 353h258z" />
    <glyph glyph-name="Rinvertedbreve" unicode="&#x212;" horiz-adv-x="1422" 
d="M477 1199v-444h265q114 0 177.5 58.5t63.5 162.5q0 103 -66 163t-178 60h-262zM477 523v-523h-302v1443h606q238 0 375 -124t137 -339q0 -140 -69.5 -250.5t-192.5 -159.5l304 -570h-342l-269 523h-247zM252 1579q0 151 108.5 243.5t291.5 92.5t291.5 -92.5t108.5 -243.5
h-208q-2 76 -53.5 120.5t-138.5 44.5t-138.5 -44.5t-53.5 -120.5h-208z" />
    <glyph glyph-name="rinvertedbreve" unicode="&#x213;" horiz-adv-x="881" 
d="M146 0v1103h282v-176h18q22 84 100 139t180 55q73 0 112 -14v-265q-17 7 -60.5 12.5t-75.5 5.5q-119 0 -192 -67t-73 -182v-611h-291zM48 1251q0 156 108.5 253.5t291.5 97.5t291.5 -97.5t108.5 -253.5h-208q-2 81 -53 129.5t-139 48.5t-139 -48.5t-53 -129.5h-208z" />
    <glyph glyph-name="Udblgrave" unicode="&#x214;" horiz-adv-x="1565" 
d="M693 1590h-244l-278 318h270zM1130 1590h-244l-278 318h271zM480 1443v-914q0 -138 79.5 -218t222.5 -80q144 0 223.5 80t79.5 218v914h302v-945q0 -241 -164.5 -388t-440.5 -147q-275 0 -439.5 147t-164.5 388v945h302z" />
    <glyph glyph-name="udblgrave" unicode="&#x215;" horiz-adv-x="1318" 
d="M1169 1103v-1103h-282v177h-18q-39 -96 -127 -148.5t-208 -52.5q-183 0 -290.5 109.5t-107.5 303.5v714h291v-644q0 -114 56 -172t159 -58q108 0 172 64t64 174v636h291zM571 1281h-230l-241 353h258zM1007 1281h-230l-241 353h258z" />
    <glyph glyph-name="Uinvertedbreve" unicode="&#x216;" horiz-adv-x="1565" 
d="M480 1443v-914q0 -138 79.5 -218t222.5 -80q144 0 223.5 80t79.5 218v914h302v-945q0 -241 -164.5 -388t-440.5 -147q-275 0 -439.5 147t-164.5 388v945h302zM382 1579q0 151 108.5 243.5t291.5 92.5t291.5 -92.5t108.5 -243.5h-208q-2 76 -53.5 120.5t-138.5 44.5
t-138.5 -44.5t-53.5 -120.5h-208z" />
    <glyph glyph-name="uinvertedbreve" unicode="&#x217;" horiz-adv-x="1318" 
d="M1169 1103v-1103h-282v177h-18q-39 -96 -127 -148.5t-208 -52.5q-183 0 -290.5 109.5t-107.5 303.5v714h291v-644q0 -114 56 -172t159 -58q108 0 172 64t64 174v636h291zM256 1251q0 156 108.5 253.5t291.5 97.5t291.5 -97.5t108.5 -253.5h-208q-2 81 -53 129.5
t-139 48.5t-139 -48.5t-53 -129.5h-208z" />
    <glyph glyph-name="Scommaaccent" unicode="&#x218;" horiz-adv-x="1383" 
d="M110 401h292q10 -88 92 -140t210 -52q118 0 193 51.5t75 133.5q0 69 -58 112t-191 71l-188 40q-392 82 -392 412q0 204 151 327.5t401 123.5q238 0 391.5 -121t160.5 -314h-284q-11 86 -84 138t-182 52q-114 0 -182.5 -49t-68.5 -131q0 -67 55.5 -108t182.5 -68l174 -37
q217 -46 316 -144t99 -266q0 -218 -156.5 -343.5t-428.5 -125.5q-258 0 -414 118t-164 320zM682 -509h-258l132 358h292z" />
    <glyph glyph-name="scommaaccent" unicode="&#x219;" horiz-adv-x="1160" 
d="M121 779q0 157 126.5 252.5t332.5 95.5q210 0 329.5 -85t131.5 -243h-269q-11 54 -60.5 84.5t-129.5 30.5q-79 0 -130 -32.5t-51 -84.5q0 -40 36 -66.5t113 -43.5l207 -45q161 -35 235.5 -107t74.5 -195q0 -164 -134 -264t-352 -100t-345 86t-142 245h284
q35 -118 209 -118q85 0 138 32.5t53 85.5q0 41 -33 66.5t-106 41.5l-200 45q-161 35 -239.5 113.5t-78.5 205.5zM575 -509h-258l132 358h292z" />
    <glyph glyph-name="Tcommaaccent" unicode="&#x21a;" horiz-adv-x="1352" 
d="M667 -509h-258l132 358h292zM827 0h-302v1185h-433v258h1168v-258h-433v-1185z" />
    <glyph glyph-name="tcommaaccent" unicode="&#x21b;" horiz-adv-x="845" 
d="M478 -509h-258l132 358h292zM229 1360h291v-268h234v-229h-234v-496q0 -72 34.5 -106t108.5 -34q48 0 85 4v-222q-67 -13 -145 -13q-201 0 -287.5 70t-86.5 232v565h-175v229h175v268z" />
    <glyph glyph-name="Hcaron" unicode="&#x21e;" horiz-adv-x="1604" 
d="M1429 0h-302v603h-650v-603h-302v1443h302v-582h650v582h302v-1443zM929 1590h-254l-281 318h253l145 -173h20l145 173h253z" />
    <glyph glyph-name="hcaron" unicode="&#x21f;" horiz-adv-x="1332" 
d="M156 0v1524h286v-602h18q38 94 131 148t215 54q185 0 287.5 -108t102.5 -306v-710h-291v641q0 114 -55.5 173t-160.5 59q-109 0 -175.5 -66t-66.5 -174v-633h-291zM426 1671h-254l-281 318h253l145 -173h20l145 173h253z" />
    <glyph glyph-name="Adotaccent" unicode="&#x226;" horiz-adv-x="1500" 
d="M1102 0l-109 344h-507l-111 -344h-303l501 1443h355l501 -1443h-327zM732 1143l-181 -566h378l-179 566h-18zM750 1579q-69 0 -113.5 45t-44.5 113t44.5 113t113.5 45t113 -45t44 -113t-44 -113t-113 -45z" />
    <glyph glyph-name="adotaccent" unicode="&#x227;" horiz-adv-x="1208" 
d="M544 202q101 0 169 57t68 141v81l-223 -14q-186 -13 -186 -133q0 -61 47.5 -96.5t124.5 -35.5zM448 -17q-160 0 -260.5 91t-100.5 241q0 149 110.5 234.5t316.5 97.5l267 16v90q0 69 -48 106.5t-138 37.5q-162 0 -199 -102h-268q14 153 144.5 242.5t338.5 89.5
q218 0 337.5 -98t119.5 -276v-753h-282v144h-18q-43 -76 -128 -118.5t-192 -42.5zM611 1278q-70 0 -115.5 45.5t-45.5 114.5t45.5 115t115.5 46t115.5 -46t45.5 -115t-45.5 -114.5t-115.5 -45.5z" />
    <glyph glyph-name="Ecedilla" unicode="&#x228;" horiz-adv-x="1274" 
d="M1131 1185h-654v-337h617v-239h-617v-351h654v-258h-380l-46 -112q95 -5 145.5 -50.5t50.5 -126.5q0 -96 -70 -150t-197 -54q-84 0 -147 17v135q37 -14 116 -14q112 0 112 59q0 29 -30.5 42.5t-99.5 13.5h-60v115l52 125h-402v1443h956v-258z" />
    <glyph glyph-name="ecedilla" unicode="&#x229;" horiz-adv-x="1231" 
d="M383 667h470q-5 110 -66.5 173.5t-163.5 63.5q-101 0 -166.5 -65t-73.5 -172zM1139 481h-757v-15q3 -123 70.5 -194.5t181.5 -71.5q86 0 144 29.5t81 84.5h271q-29 -138 -138 -225.5t-276 -107.5l-38 -93q95 -5 145.5 -50.5t50.5 -126.5q0 -96 -70 -150t-197 -54
q-84 0 -147 17v135q37 -14 116 -14q112 0 112 59q0 29 -30.5 42.5t-99.5 13.5h-60v115l44 106q-214 25 -332 172.5t-118 392.5q0 269 142 425t388 156q244 0 380.5 -147t136.5 -410v-89z" />
    <glyph glyph-name="Odieresismacron" unicode="&#x22a;" horiz-adv-x="1610" 
d="M806 1480q320 0 506.5 -204t186.5 -554q0 -351 -186.5 -555t-506.5 -204q-321 0 -508 204t-187 555q0 350 188 554t507 204zM806 1215q-176 0 -281 -133.5t-105 -359.5t104.5 -360t281.5 -134q176 0 280.5 134t104.5 360t-104.5 359.5t-280.5 133.5zM433 1996v168h746
v-168h-746zM572 1579q-67 0 -110.5 42.5t-43.5 107.5t43.5 107.5t110.5 42.5q66 0 109.5 -42.5t43.5 -107.5t-43.5 -107.5t-109.5 -42.5zM1040 1579q-66 0 -109.5 42.5t-43.5 107.5t43.5 107.5t109.5 42.5q67 0 110.5 -42.5t43.5 -107.5t-43.5 -107.5t-110.5 -42.5z" />
    <glyph glyph-name="odieresismacron" unicode="&#x22b;" horiz-adv-x="1269" 
d="M414 1251q-64 0 -105.5 42t-41.5 103q0 62 41.5 103.5t105.5 41.5q63 0 104 -41.5t41 -103.5q0 -61 -41 -103t-104 -42zM856 1251q-63 0 -104 42t-41 103q0 62 41 103.5t104 41.5q64 0 105.5 -41.5t41.5 -103.5q0 -61 -41.5 -103t-105.5 -42zM1003 1678h-735v180h735
v-180zM635 214q116 0 180 88.5t64 249.5q0 159 -64.5 248t-179.5 89q-116 0 -180 -89t-64 -248q0 -161 63.5 -249.5t180.5 -88.5zM635 -24q-254 0 -398.5 153t-144.5 423q0 268 145.5 421.5t397.5 153.5t397.5 -153.5t145.5 -421.5q0 -270 -144.5 -423t-398.5 -153z" />
    <glyph glyph-name="Otildemacron" unicode="&#x22c;" horiz-adv-x="1610" 
d="M1179 1986h-746v178h746v-178zM960 1579q-54 0 -98.5 19t-68.5 41.5t-55 41.5t-63 19q-39 0 -61.5 -27.5t-24.5 -82.5h-184q0 132 69 208t178 76q54 0 98.5 -19t68.5 -41t55 -41t63 -19q80 0 87 107h183q0 -130 -69 -206t-178 -76zM806 1480q320 0 506.5 -204t186.5 -554
q0 -351 -186.5 -555t-506.5 -204q-321 0 -508 204t-187 555q0 350 188 554t507 204zM806 1215q-176 0 -281 -133.5t-105 -359.5t104.5 -360t281.5 -134q176 0 280.5 134t104.5 360t-104.5 359.5t-280.5 133.5z" />
    <glyph glyph-name="otildemacron" unicode="&#x22d;" horiz-adv-x="1269" 
d="M496 1397q-86 0 -88 -141h-187q0 145 71.5 233t189.5 88q42 0 79 -15t62.5 -36t48 -42t45 -36t43.5 -15q87 0 88 138h187q0 -144 -71.5 -231t-189.5 -87q-42 0 -79 15t-62.5 36t-48 42t-45 36t-43.5 15zM1003 1680h-735v180h735v-180zM635 214q116 0 180 88.5t64 249.5
q0 159 -64.5 248t-179.5 89q-116 0 -180 -89t-64 -248q0 -161 63.5 -249.5t180.5 -88.5zM635 -24q-254 0 -398.5 153t-144.5 423q0 268 145.5 421.5t397.5 153.5t397.5 -153.5t145.5 -421.5q0 -270 -144.5 -423t-398.5 -153z" />
    <glyph glyph-name="Odotaccent" unicode="&#x22e;" horiz-adv-x="1610" 
d="M806 1579q-69 0 -113.5 45t-44.5 113t44.5 113t113.5 45t113 -45t44 -113t-44 -113t-113 -45zM806 1480q320 0 506.5 -204t186.5 -554q0 -351 -186.5 -555t-506.5 -204q-321 0 -508 204t-187 555q0 350 188 554t507 204zM806 1215q-176 0 -281 -133.5t-105 -359.5
t104.5 -360t281.5 -134q176 0 280.5 134t104.5 360t-104.5 359.5t-280.5 133.5z" />
    <glyph glyph-name="odotaccent" unicode="&#x22f;" horiz-adv-x="1269" 
d="M635 1278q-70 0 -115.5 45.5t-45.5 114.5t45.5 115t115.5 46t115.5 -46t45.5 -115t-45.5 -114.5t-115.5 -45.5zM635 214q116 0 180 88.5t64 249.5q0 159 -64.5 248t-179.5 89q-116 0 -180 -89t-64 -248q0 -161 63.5 -249.5t180.5 -88.5zM635 -24q-254 0 -398.5 153
t-144.5 423q0 268 145.5 421.5t397.5 153.5t397.5 -153.5t145.5 -421.5q0 -270 -144.5 -423t-398.5 -153z" />
    <glyph glyph-name="Odotaccentmacron" unicode="&#x230;" horiz-adv-x="1610" 
d="M806 1575q-68 0 -112 42.5t-44 107.5q0 64 44 106t112 42t112 -42t44 -106q0 -65 -44 -107.5t-112 -42.5zM1179 1996h-746v168h746v-168zM806 1480q320 0 506.5 -204t186.5 -554q0 -351 -186.5 -555t-506.5 -204q-321 0 -508 204t-187 555q0 350 188 554t507 204z
M806 1215q-176 0 -281 -133.5t-105 -359.5t104.5 -360t281.5 -134q176 0 280.5 134t104.5 360t-104.5 359.5t-280.5 133.5z" />
    <glyph glyph-name="odotaccentmacron" unicode="&#x231;" horiz-adv-x="1269" 
d="M635 214q116 0 180 88.5t64 249.5q0 159 -64.5 248t-179.5 89q-116 0 -180 -89t-64 -248q0 -161 63.5 -249.5t180.5 -88.5zM635 -24q-254 0 -398.5 153t-144.5 423q0 268 145.5 421.5t397.5 153.5t397.5 -153.5t145.5 -421.5q0 -270 -144.5 -423t-398.5 -153zM635 1251
q-66 0 -108.5 42.5t-42.5 106.5q0 65 42.5 108t108.5 43t108.5 -43t42.5 -108q0 -64 -42.5 -106.5t-108.5 -42.5zM1003 1678h-735v180h735v-180z" />
    <glyph glyph-name="Ymacron" unicode="&#x232;" horiz-adv-x="1452" 
d="M877 0h-302v531l-503 912h327l318 -604h18l317 604h327l-502 -912v-531zM1099 1632h-746v181h746v-181z" />
    <glyph glyph-name="ymacron" unicode="&#x233;" horiz-adv-x="1223" 
d="M283 -403q-93 0 -111 3v235q15 -3 66 -3q82 0 129.5 29t65.5 92l10 40l-387 1110h321l232 -836h18l232 836h308l-380 -1120q-70 -213 -183.5 -299.5t-320.5 -86.5zM984 1316h-735v180h735v-180z" />
    <glyph glyph-name="dotlessj" unicode="&#x237;" horiz-adv-x="587" 
d="M439 1103v-1136q0 -168 -99 -254.5t-291 -86.5q-42 0 -78 3v224q12 -2 37 -2q76 0 108 29t32 96v1127h291z" />
    <glyph glyph-name="circumflex" unicode="&#x2c6;" horiz-adv-x="1099" 
d="M695 1605l275 -354h-263l-148 209h-18l-149 -209h-263l275 354h291z" />
    <glyph glyph-name="caron" unicode="&#x2c7;" horiz-adv-x="1099" 
d="M695 1251h-291l-275 354h263l149 -209h18l148 209h263z" />
    <glyph glyph-name="breve" unicode="&#x2d8;" horiz-adv-x="1048" 
d="M125 1602h207q2 -81 53 -129.5t139 -48.5t139 48.5t53 129.5h208q0 -156 -108.5 -253.5t-291.5 -97.5t-291 97.5t-108 253.5z" />
    <glyph glyph-name="dotaccent" unicode="&#x2d9;" horiz-adv-x="1048" 
d="M524 1278q-70 0 -115.5 45.5t-45.5 114.5t45.5 115t115.5 46t115.5 -46t45.5 -115t-45.5 -114.5t-115.5 -45.5z" />
    <glyph glyph-name="ring" unicode="&#x2da;" horiz-adv-x="1099" 
d="M550 1251q-105 0 -175.5 68.5t-70.5 172.5q0 102 70.5 170t175.5 68t175 -67.5t70 -170.5q0 -104 -70 -172.5t-175 -68.5zM550 1387q46 0 75.5 29.5t29.5 74.5q0 44 -30 73.5t-75 29.5q-46 0 -76 -29.5t-30 -73.5q0 -46 30 -75t76 -29z" />
    <glyph glyph-name="ogonek" unicode="&#x2db;" horiz-adv-x="1048" 
d="M729 -280v-161q-56 -25 -153 -25q-110 0 -177.5 57.5t-67.5 152.5q0 169 188 295l165 -11q-69 -48 -108.5 -106t-39.5 -110q0 -46 30.5 -73.5t82.5 -27.5q43 0 80 9z" />
    <glyph glyph-name="tilde" unicode="&#x2dc;" horiz-adv-x="1098" 
d="M417 1411q-86 0 -88 -141h-187q0 145 71.5 233t189.5 88q42 0 79 -15t62.5 -36t48 -42t45 -36t43.5 -15q87 0 88 138h187q0 -144 -71.5 -231t-189.5 -87q-42 0 -79 15t-62.5 36t-48 42t-45 36t-43.5 15z" />
    <glyph glyph-name="hungarumlaut" unicode="&#x2dd;" horiz-adv-x="1048" 
d="M503 1281l212 353h259l-242 -353h-229zM67 1281l212 353h259l-242 -353h-229z" />
    <glyph glyph-name="gravecmb" unicode="&#x300;" 
d="M159 1281h-269l-287 353h309z" />
    <glyph glyph-name="acutecmb" unicode="&#x301;" 
d="M-155 1281l247 353h309l-287 -353h-269z" />
    <glyph glyph-name="circumflexcmb" unicode="&#x302;" 
d="M145 1605l275 -354h-263l-148 209h-18l-149 -209h-263l275 354h291z" />
    <glyph glyph-name="tildecmb" unicode="&#x303;" 
d="M-127 1397q-86 0 -88 -141h-187q0 145 71.5 233t189.5 88q42 0 79 -15t62.5 -36t48 -42t45 -36t43.5 -15q87 0 88 138h187q0 -144 -71.5 -231t-189.5 -87q-42 0 -79 15t-62.5 36t-48 42t-45 36t-43.5 15z" />
    <glyph glyph-name="macroncmb" unicode="&#x304;" 
d="M368 1316h-735v180h735v-180z" />
    <glyph glyph-name="brevecmb" unicode="&#x306;" 
d="M-400 1602h207q2 -81 53 -129.5t139 -48.5t139 48.5t53 129.5h208q0 -156 -108.5 -253.5t-291.5 -97.5t-291 97.5t-108 253.5z" />
    <glyph glyph-name="dotaccentcmb" unicode="&#x307;" 
d="M0 1278q-70 0 -115.5 45.5t-45.5 114.5t45.5 115t115.5 46t115.5 -46t45.5 -115t-45.5 -114.5t-115.5 -45.5z" />
    <glyph glyph-name="dieresiscmb" unicode="&#x308;" 
d="M-234 1251q-67 0 -111 43t-44 109t43.5 108.5t111.5 42.5t111.5 -42.5t43.5 -108.5t-44 -109t-111 -43zM234 1251q-67 0 -111 43t-44 109t44 108.5t111 42.5q68 0 112 -42.5t44 -108.5t-44 -109t-112 -43z" />
    <glyph glyph-name="hookabovecmb" unicode="&#x309;" 
d="M-179 1497v155q67 25 157 25q113 0 182.5 -58t69.5 -154q0 -82 -53.5 -147.5t-147.5 -101.5l-94 115q49 18 78.5 46.5t29.5 60.5q0 35 -29.5 56.5t-79.5 21.5q-68 0 -113 -19z" />
    <glyph glyph-name="ringcmb" unicode="&#x30a;" 
d="M0 1251q-105 0 -175.5 68.5t-70.5 172.5q0 102 70.5 170t175.5 68t175 -67.5t70 -170.5q0 -104 -70 -172.5t-175 -68.5zM0 1387q46 0 75.5 29.5t29.5 74.5q0 44 -30 73.5t-75 29.5q-46 0 -76 -29.5t-30 -73.5q0 -46 30 -75t76 -29z" />
    <glyph glyph-name="hungarumlautcmb" unicode="&#x30b;" 
d="M77 1281l212 353h259l-242 -353h-229zM-359 1281l212 353h259l-242 -353h-229z" />
    <glyph glyph-name="caroncmb" unicode="&#x30c;" 
d="M145 1251h-291l-275 354h263l149 -209h18l148 209h263z" />
    <glyph glyph-name="dblgravecmb" unicode="&#x30f;" 
d="M-85 1281h-230l-241 353h258zM351 1281h-230l-241 353h258z" />
    <glyph glyph-name="invertedbrevecmb" unicode="&#x311;" 
d="M-400 1251q0 156 108.5 253.5t291.5 97.5t291.5 -97.5t108.5 -253.5h-208q-2 81 -53 129.5t-139 48.5t-139 -48.5t-53 -129.5h-208z" />
    <glyph glyph-name="horncmb" unicode="&#x31b;" 
d="M0 910v208q32 -21 72 -19q44 3 63.5 32t19.5 92v158h231v-215q0 -130 -68.5 -206.5t-183.5 -76.5q-87 0 -134 27z" />
    <glyph glyph-name="dotbelowcmb" unicode="&#x323;" 
d="M0 -419q-71 0 -114 39.5t-43 100.5t43.5 100t113.5 39t113.5 -39t43.5 -100t-43 -100.5t-114 -39.5z" />
    <glyph glyph-name="dieresisbelowcmb" unicode="&#x324;" 
d="M-234 -432q-70 0 -113 39t-43 100t43 100t113 39q71 0 114 -39t43 -100t-43 -100t-114 -39zM234 -432q-71 0 -114 39t-43 100t43 100t114 39q70 0 113 -39t43 -100t-43 -100t-113 -39z" />
    <glyph glyph-name="ringbelowcmb" unicode="&#x325;" 
d="M0 -570q-105 0 -175.5 68.5t-70.5 172.5q0 102 70.5 170t175.5 68t175 -67.5t70 -170.5q0 -104 -70 -172.5t-175 -68.5zM0 -434q46 0 75.5 29.5t29.5 74.5q0 44 -30 73.5t-75 29.5q-46 0 -76 -29.5t-30 -73.5q0 -46 30 -75t76 -29z" />
    <glyph glyph-name="commabelowcmb" unicode="&#x326;" 
d="M-6 -509h-258l132 358h292z" />
    <glyph glyph-name="cedillacmb" unicode="&#x327;" 
d="M-128 -240v115l55 132h174l-49 -119q95 -5 145.5 -50.5t50.5 -126.5q0 -96 -70 -150t-197 -54q-84 0 -147 17v135q37 -14 116 -14q112 0 112 59q0 29 -30.5 42.5t-99.5 13.5h-60z" />
    <glyph glyph-name="ogonekcmb" unicode="&#x328;" 
d="M150 -283v-161q-56 -25 -153 -25q-110 0 -177.5 57.5t-67.5 152.5q0 169 188 295l165 -11q-69 -48 -108.5 -106t-39.5 -110q0 -46 30.5 -73.5t82.5 -27.5q42 0 80 9z" />
    <glyph glyph-name="circumflexbelowcmb" unicode="&#x32d;" 
d="M148 -152l286 -280h-284l-141 153h-18l-141 -153h-284l286 280h296z" />
    <glyph glyph-name="brevebelowcmb" unicode="&#x32e;" 
d="M-400 -113h210q0 -69 51 -112t139 -43t139 43t51 112h210q0 -139 -107.5 -229t-292.5 -90t-292.5 90t-107.5 229z" />
    <glyph glyph-name="tildebelowcmb" unicode="&#x330;" 
d="M159 -428q-54 0 -100 21t-72 45.5t-59.5 45.5t-65.5 21q-82 0 -85 -117h-183q0 140 68 216t179 76q46 0 85.5 -13.5t66 -33t49.5 -39t47.5 -33t48.5 -13.5q82 0 86 113h182q0 -137 -68 -213t-179 -76z" />
    <glyph glyph-name="macronbelowcmb" unicode="&#x331;" 
d="M373 -401h-746v181h746v-181z" />
    <glyph glyph-name="greekquestionmark" unicode="&#x37e;" horiz-adv-x="712" 
d="M372 -388h-234l79 635h288zM356 711q-80 0 -128.5 48.5t-48.5 125.5q0 76 48.5 124.5t128.5 48.5t128.5 -48t48.5 -125t-48.5 -125.5t-128.5 -48.5z" />
    <glyph glyph-name="tonosgreek" unicode="&#x384;" horiz-adv-x="929" 
d="M265 1267l83 378h299l-145 -378h-237z" />
    <glyph glyph-name="dieresistonosgreek" unicode="&#x385;" horiz-adv-x="1446" 
d="M344 1267q-63 0 -104 40t-41 101q0 62 41 102t104 40t104 -40t41 -102q0 -61 -41 -101t-104 -40zM1102 1267q-63 0 -104 40t-41 101q0 62 41 102t104 40t104 -40t41 -102q0 -61 -41 -101t-104 -40zM588 1267l25 378h275l-86 -378h-214z" />
    <glyph glyph-name="Alphatonosgreek" unicode="&#x386;" horiz-adv-x="1562" 
d="M1164 0l-109 344h-507l-111 -344h-303l501 1443h355l501 -1443h-327zM794 1143l-181 -566h378l-179 566h-18zM69 1065l83 378h299l-145 -378h-237z" />
    <glyph glyph-name="anoteleia" unicode="&#x387;" horiz-adv-x="723" 
d="M362 754q-84 0 -133.5 49.5t-49.5 129.5t49.5 129.5t133.5 49.5t133 -49.5t49 -129.5t-49 -129.5t-133 -49.5z" />
    <glyph glyph-name="Epsilontonosgreek" unicode="&#x388;" horiz-adv-x="1731" 
d="M75 1065l83 378h299l-145 -378h-237zM1589 258v-258h-956v1443h956v-258h-654v-337h617v-239h-617v-351h654z" />
    <glyph glyph-name="Etatonosgreek" unicode="&#x389;" horiz-adv-x="2062" 
d="M75 1065l83 378h299l-145 -378h-237zM1887 0h-302v603h-650v-603h-302v1443h302v-582h650v582h302v-1443z" />
    <glyph glyph-name="Iotatonosgreek" unicode="&#x38a;" horiz-adv-x="1110" 
d="M935 0h-302v1443h302v-1443zM75 1065l83 378h299l-145 -378h-237z" />
    <glyph glyph-name="Omicrontonosgreek" unicode="&#x38c;" horiz-adv-x="1948" 
d="M1144 1480q320 0 506.5 -204t186.5 -554q0 -351 -186.5 -555t-506.5 -204q-321 0 -508 204t-187 555q0 350 188 554t507 204zM1144 1215q-176 0 -281 -133.5t-105 -359.5t104.5 -360t281.5 -134q176 0 280.5 134t104.5 360t-104.5 359.5t-280.5 133.5zM75 1065l83 378
h299l-145 -378h-237z" />
    <glyph glyph-name="Upsilontonosgreek" unicode="&#x38e;" horiz-adv-x="1909" 
d="M75 1065l83 378h299l-145 -378h-237zM1335 0h-302v531l-503 912h327l318 -604h18l317 604h327l-502 -912v-531z" />
    <glyph glyph-name="Omegatonosgreek" unicode="&#x38f;" horiz-adv-x="1954" 
d="M438 0v247h282v18q-132 78 -207 223.5t-75 322.5q0 297 194 483t504 186t504.5 -186t194.5 -483q0 -177 -75 -322.5t-207 -223.5v-18h282v-247h-577v314q139 80 206 196t67 277q0 197 -106.5 312.5t-288.5 115.5t-288.5 -115.5t-106.5 -312.5q0 -161 67 -277t207 -196
v-314h-577zM75 1065l83 378h299l-145 -378h-237z" />
    <glyph glyph-name="iotadieresistonosgreek" unicode="&#x390;" horiz-adv-x="719" 
d="M508 -4q-201 0 -288.5 70t-87.5 233v804h291v-736q0 -72 35.5 -106t110.5 -34q58 0 95 4v-222q-67 -13 -156 -13zM-79 1267q-63 0 -104 40t-41 101q0 62 41 102t104 40t104 -40t41 -102q0 -61 -41 -101t-104 -40zM679 1267q-63 0 -104 40t-41 101q0 62 41 102t104 40
t104 -40t41 -102q0 -61 -41 -101t-104 -40zM165 1267l25 378h275l-86 -378h-214z" />
    <glyph glyph-name="Alphagreek" unicode="&#x391;" horiz-adv-x="1500" 
d="M1102 0l-109 344h-507l-111 -344h-303l501 1443h355l501 -1443h-327zM732 1143l-181 -566h378l-179 566h-18z" />
    <glyph glyph-name="Betagreek" unicode="&#x392;" horiz-adv-x="1420" 
d="M823 0h-648v1443h631q209 0 328 -96t119 -264q0 -115 -75 -203t-186 -105v-18q143 -11 236.5 -108t93.5 -236q0 -190 -134 -301.5t-365 -111.5zM477 1212v-367h227q122 0 187 48t65 135t-59.5 135.5t-167.5 48.5h-252zM477 231h269q130 0 199 53.5t69 154.5
q0 99 -70.5 150.5t-204.5 51.5h-262v-410z" />
    <glyph glyph-name="Gammagreek" unicode="&#x393;" horiz-adv-x="1199" 
d="M175 0v1443h925v-258h-623v-1185h-302z" />
    <glyph glyph-name="Deltagreek" unicode="&#x394;" horiz-adv-x="1506" 
d="M114 0v177l462 1266h355l462 -1266v-177h-1279zM430 258h625v18l-302 877h-18l-305 -877v-18z" />
    <glyph glyph-name="Epsilongreek" unicode="&#x395;" horiz-adv-x="1274" 
d="M1131 258v-258h-956v1443h956v-258h-654v-337h617v-239h-617v-351h654z" />
    <glyph glyph-name="Zetagreek" unicode="&#x396;" horiz-adv-x="1384" 
d="M135 0v204l726 963v18h-709v258h1077v-203l-724 -964v-18h744v-258h-1114z" />
    <glyph glyph-name="Etagreek" unicode="&#x397;" horiz-adv-x="1604" 
d="M1429 0h-302v603h-650v-603h-302v1443h302v-582h650v582h302v-1443z" />
    <glyph glyph-name="Thetagreek" unicode="&#x398;" horiz-adv-x="1690" 
d="M589 591v252h511v-252h-511zM846 223q192 0 302.5 131.5t110.5 367.5t-110.5 367t-302.5 131t-303 -131t-111 -367t110 -367.5t304 -131.5zM846 -37q-340 0 -532.5 200t-192.5 559q0 361 192.5 559.5t532.5 198.5q341 0 532 -198.5t191 -559.5q0 -358 -192 -558.5
t-531 -200.5z" />
    <glyph glyph-name="Iotagreek" unicode="&#x399;" horiz-adv-x="652" 
d="M477 0h-302v1443h302v-1443z" />
    <glyph glyph-name="Kappagreek" unicode="&#x39a;" horiz-adv-x="1453" 
d="M477 0h-302v1443h302v-643h18l533 643h336l-526 -633l563 -810h-362l-419 604l-143 -169v-435z" />
    <glyph glyph-name="Lambdagreek" unicode="&#x39b;" horiz-adv-x="1474" 
d="M79 0l481 1443h355l481 -1443h-327l-332 1133h-18l-337 -1133h-303z" />
    <glyph glyph-name="Mugreek" unicode="&#x39c;" horiz-adv-x="1879" 
d="M455 0h-280v1443h356l399 -970h18l400 970h355v-1443h-280v965h-16l-367 -882h-201l-368 882h-16v-965z" />
    <glyph glyph-name="Nugreek" unicode="&#x39d;" horiz-adv-x="1573" 
d="M464 0h-289v1443h252l664 -899h18v899h289v-1443h-250l-666 903h-18v-903z" />
    <glyph glyph-name="Xigreek" unicode="&#x39e;" horiz-adv-x="1373" 
d="M143 0v265h1087v-265h-1087zM230 604v246h913v-246h-913zM143 1178v265h1087v-265h-1087z" />
    <glyph glyph-name="Omicrongreek" unicode="&#x39f;" horiz-adv-x="1630" 
d="M816 1480q320 0 506.5 -204t186.5 -554q0 -351 -186.5 -555t-506.5 -204q-321 0 -508 204t-187 555q0 350 188 554t507 204zM816 1215q-176 0 -281 -133.5t-105 -359.5t104.5 -360t281.5 -134q176 0 280.5 134t104.5 360t-104.5 359.5t-280.5 133.5z" />
    <glyph glyph-name="Pigreek" unicode="&#x3a0;" horiz-adv-x="1584" 
d="M175 0v1443h1234v-1443h-302v1185h-630v-1185h-302z" />
    <glyph glyph-name="Rhogreek" unicode="&#x3a1;" horiz-adv-x="1380" 
d="M175 1443h602q223 0 361.5 -137.5t138.5 -361.5q0 -222 -143 -359t-372 -137h-285v-448h-302v1443zM477 1195v-502h219q131 0 202.5 64.5t71.5 185.5q0 122 -71 187t-202 65h-220z" />
    <glyph glyph-name="Sigmagreek" unicode="&#x3a3;" horiz-adv-x="1364" 
d="M140 0v191l382 532l-361 495v225h1047v-258h-664v-18l297 -415v-36l-320 -440v-18h713v-258h-1094z" />
    <glyph glyph-name="Taugreek" unicode="&#x3a4;" horiz-adv-x="1352" 
d="M827 0h-302v1185h-433v258h1168v-258h-433v-1185z" />
    <glyph glyph-name="Upsilongreek" unicode="&#x3a5;" horiz-adv-x="1452" 
d="M877 0h-302v531l-503 912h327l318 -604h18l317 604h327l-502 -912v-531z" />
    <glyph glyph-name="Phigreek" unicode="&#x3a6;" horiz-adv-x="1884" 
d="M804 -110v151q-310 15 -501.5 199t-191.5 474t191.5 473.5t501.5 198.5v153h277v-153q204 -10 361 -95.5t244.5 -235t87.5 -341.5t-87.5 -342t-244.5 -235.5t-361 -95.5v-151h-277zM804 288v851q-185 -14 -291 -124.5t-106 -300.5t106 -300.5t291 -125.5zM1081 288
q185 15 291 125.5t106 300.5q0 189 -106.5 300t-290.5 125v-851z" />
    <glyph glyph-name="Chigreek" unicode="&#x3a7;" horiz-adv-x="1494" 
d="M88 0l461 727l-458 716h355l301 -505h18l304 505h338l-475 -721l468 -722h-344l-310 489h-18l-314 -489h-326z" />
    <glyph glyph-name="Psigreek" unicode="&#x3a8;" horiz-adv-x="1779" 
d="M746 0v306q-276 5 -437 166t-161 432v539h287v-543q0 -158 79 -244t232 -97v884h287v-884q312 23 312 341v543h287v-539q0 -271 -161 -432t-438 -166v-306h-287z" />
    <glyph glyph-name="Omegagreek" unicode="&#x3a9;" horiz-adv-x="1636" 
d="M120 0v247h282v18q-132 78 -207 223.5t-75 322.5q0 297 194 483t504 186t504.5 -186t194.5 -483q0 -177 -75 -322.5t-207 -223.5v-18h282v-247h-577v314q139 80 206 196t67 277q0 197 -106.5 312.5t-288.5 115.5t-288.5 -115.5t-106.5 -312.5q0 -161 67 -277t207 -196
v-314h-577z" />
    <glyph glyph-name="Iotadieresisgreek" unicode="&#x3aa;" horiz-adv-x="652" 
d="M477 0h-302v1443h302v-1443zM92 1579q-67 0 -111 43t-44 109t43.5 108.5t111.5 42.5t111.5 -42.5t43.5 -108.5t-44 -109t-111 -43zM560 1579q-67 0 -111 43t-44 109t44 108.5t111 42.5q68 0 112 -42.5t44 -108.5t-44 -109t-112 -43z" />
    <glyph glyph-name="Upsilondieresisgreek" unicode="&#x3ab;" horiz-adv-x="1452" 
d="M877 0h-302v531l-503 912h327l318 -604h18l317 604h327l-502 -912v-531zM492 1579q-67 0 -111 43t-44 109t43.5 108.5t111.5 42.5t111.5 -42.5t43.5 -108.5t-44 -109t-111 -43zM960 1579q-67 0 -111 43t-44 109t44 108.5t111 42.5q68 0 112 -42.5t44 -108.5t-44 -109
t-112 -43z" />
    <glyph glyph-name="alphatonosgreek" unicode="&#x3ac;" horiz-adv-x="1386" 
d="M536 -17q-214 0 -335.5 151.5t-121.5 418.5q0 263 120.5 415.5t329.5 152.5q116 0 198.5 -56t122.5 -163h18v201h288v-760q0 -71 21 -97t78 -26q30 0 54 8v-221q-49 -17 -145 -17q-231 0 -276 174l-9 26h-18q-35 -96 -122 -151.5t-203 -55.5zM612 226q115 0 182.5 88
t67.5 237q0 147 -65.5 236.5t-173.5 89.5q-114 0 -179.5 -87t-65.5 -238t63 -238.5t171 -87.5zM491 1267l83 378h299l-145 -378h-237z" />
    <glyph glyph-name="epsilontonosgreek" unicode="&#x3ad;" horiz-adv-x="1216" 
d="M501 1267l83 378h299l-145 -378h-237zM602 -25q-233 0 -369 86.5t-136 235.5q0 91 49 156.5t142 96.5v18q-87 35 -128 91.5t-41 141.5q0 149 134 237t357 88q233 0 367.5 -92.5t157.5 -270.5h-285q-37 132 -236 132q-96 0 -152.5 -32.5t-56.5 -88.5q0 -54 52 -82.5
t150 -28.5h146v-216h-145q-102 0 -157.5 -30.5t-55.5 -87.5q0 -59 56 -91t156 -32q214 0 258 157h298q-24 -173 -180 -280.5t-381 -107.5z" />
    <glyph glyph-name="etatonosgreek" unicode="&#x3ae;" horiz-adv-x="1397" 
d="M244 0v760q0 66 -24 94.5t-79 28.5q-28 0 -55 -8v221q58 17 142 17q123 0 191.5 -44.5t95.5 -143.5l4 -17h18q38 102 130.5 160.5t214.5 58.5q184 0 284 -108.5t100 -308.5v-1055h-291v986q0 235 -212 235q-103 0 -165.5 -66.5t-62.5 -176.5v-633h-291zM530 1267l83 378
h299l-145 -378h-237z" />
    <glyph glyph-name="iotatonosgreek" unicode="&#x3af;" horiz-adv-x="719" 
d="M508 -4q-201 0 -288.5 70t-87.5 233v804h291v-736q0 -72 35.5 -106t110.5 -34q58 0 95 4v-222q-67 -13 -156 -13zM160 1267l83 378h299l-145 -378h-237z" />
    <glyph glyph-name="upsilondieresistonosgreek" unicode="&#x3b0;" horiz-adv-x="1232" 
d="M213 1267q-63 0 -104 40t-41 101q0 62 41 102t104 40t104 -40t41 -102q0 -61 -41 -101t-104 -40zM971 1267q-63 0 -104 40t-41 101q0 62 41 102t104 40t104 -40t41 -102q0 -61 -41 -101t-104 -40zM457 1267l25 378h275l-86 -378h-214zM601 -24q-237 0 -356 120t-119 353
v654h276v-616q0 -134 49.5 -196t156.5 -62q112 0 172.5 89t60.5 247q0 293 -101 538h284q48 -96 75 -236t27 -292q0 -289 -139 -444t-386 -155z" />
    <glyph glyph-name="alphagreek" unicode="&#x3b1;" horiz-adv-x="1386" 
d="M536 -17q-214 0 -335.5 151.5t-121.5 418.5q0 263 120.5 415.5t329.5 152.5q116 0 198.5 -56t122.5 -163h18v201h288v-760q0 -71 21 -97t78 -26q30 0 54 8v-221q-49 -17 -145 -17q-231 0 -276 174l-9 26h-18q-35 -96 -122 -151.5t-203 -55.5zM612 226q115 0 182.5 88
t67.5 237q0 147 -65.5 236.5t-173.5 89.5q-114 0 -179.5 -87t-65.5 -238t63 -238.5t171 -87.5z" />
    <glyph glyph-name="betagreek" unicode="&#x3b2;" horiz-adv-x="1329" 
d="M141 -345v1344q0 269 131.5 409t384.5 140q222 0 348.5 -105.5t126.5 -290.5q0 -103 -54 -186.5t-146 -123.5v-18q310 -76 310 -401q0 -200 -123.5 -320t-329.5 -120q-118 0 -210 50.5t-129 135.5h-18v-514h-291zM708 226q105 0 170.5 63t65.5 164q0 119 -75.5 181.5
t-221.5 62.5h-77v222h75q104 0 162.5 51t58.5 142q0 92 -55 145t-150 53q-113 0 -171.5 -68t-58.5 -201v-500q0 -153 72 -234t205 -81z" />
    <glyph glyph-name="gammagreek" unicode="&#x3b3;" horiz-adv-x="1222" 
d="M432 -340v278l-395 1165h304l254 -838h18q115 178 170.5 326.5t55.5 308.5q0 126 -18 203h280q19 -77 19 -202q0 -215 -99.5 -441.5t-302.5 -497.5v-302h-286z" />
    <glyph glyph-name="deltagreek" unicode="&#x3b4;" horiz-adv-x="1231" 
d="M606 -24q-247 0 -390.5 139t-143.5 381q0 181 103 312t275 170v19q-195 92 -195 265q0 133 109.5 209.5t299.5 76.5q232 0 385 -82v-220q-176 81 -348 81q-68 0 -105 -23t-37 -65q0 -38 33 -66t125 -74q233 -130 334 -265.5t101 -331.5q0 -233 -148 -379.5t-398 -146.5z
M608 194q112 0 177 83t65 227q0 142 -67.5 228t-177.5 86q-107 0 -172.5 -86t-65.5 -228q0 -144 65 -227t176 -83z" />
    <glyph glyph-name="epsilongreek" unicode="&#x3b5;" horiz-adv-x="1216" 
d="M602 -24q-233 0 -369 86.5t-136 235.5q0 91 49 156.5t142 96.5v18q-87 35 -128 91.5t-41 141.5q0 149 134 237t357 88q233 0 367.5 -92.5t157.5 -270.5h-285q-37 132 -236 132q-96 0 -152.5 -32.5t-56.5 -88.5q0 -54 52 -82.5t150 -28.5h146v-216h-145
q-102 0 -157.5 -30.5t-55.5 -87.5q0 -59 56 -91t156 -32q214 0 258 157h298q-24 -173 -180 -280.5t-381 -107.5z" />
    <glyph glyph-name="zetagreek" unicode="&#x3b6;" horiz-adv-x="1023" 
d="M875 -395l-217 86q77 113 77 191q0 59 -39 91t-162 74q-253 87 -351.5 197.5t-98.5 313.5q0 338 456 703v18h-374v245h823v-200q-302 -205 -456.5 -385t-154.5 -349q0 -114 58 -172.5t230 -118.5q202 -72 272.5 -144t70.5 -205q0 -162 -134 -345z" />
    <glyph glyph-name="etagreek" unicode="&#x3b7;" horiz-adv-x="1397" 
d="M244 0v760q0 66 -24 94.5t-79 28.5q-28 0 -55 -8v221q58 17 142 17q123 0 191.5 -44.5t95.5 -143.5l4 -17h18q38 102 130.5 160.5t214.5 58.5q184 0 284 -108.5t100 -308.5v-1055h-291v986q0 235 -212 235q-103 0 -165.5 -66.5t-62.5 -176.5v-633h-291z" />
    <glyph glyph-name="thetagreek" unicode="&#x3b8;" horiz-adv-x="1283" 
d="M642 -24q-269 0 -409.5 200.5t-140.5 589.5q0 382 141.5 582t408.5 200q266 0 407.5 -199.5t141.5 -583.5q0 -387 -140.5 -588t-408.5 -201zM642 200q125 0 189 108.5t68 341.5h-515q4 -233 68.5 -341.5t189.5 -108.5zM384 883h515q-11 441 -257 441
q-123 0 -187.5 -107.5t-70.5 -333.5z" />
    <glyph glyph-name="iotagreek" unicode="&#x3b9;" horiz-adv-x="719" 
d="M508 -4q-201 0 -288.5 70t-87.5 233v804h291v-736q0 -72 35.5 -106t110.5 -34q58 0 95 4v-222q-67 -13 -156 -13z" />
    <glyph glyph-name="kappagreek" unicode="&#x3ba;" horiz-adv-x="1284" 
d="M141 0v1103h286v-485h18l272 309q91 106 160 146t160 40q68 0 124 -17v-221q-26 8 -64 8q-49 0 -85 -21t-91 -81l-133 -152l412 -629h-309l-291 445l-173 -182v-263h-286z" />
    <glyph glyph-name="lambdagreek" unicode="&#x3bb;" horiz-adv-x="1272" 
d="M30 0l455 1039l-32 85q-47 121 -87 157t-131 36q-20 0 -62 -7v220q67 18 133 18q82 0 136.5 -17.5t102.5 -66.5t85.5 -124.5t84.5 -204.5l295 -799q25 -68 55.5 -92t92.5 -24q17 0 54 8v-221q-53 -17 -142 -17q-123 0 -188.5 47.5t-108.5 168.5l-167 461h-18l-267 -667
h-291z" />
    <glyph glyph-name="mugreek" unicode="&#x3bc;" horiz-adv-x="1407" 
d="M141 -345v1448h291v-644q0 -112 54.5 -171t156.5 -59q107 0 171 64.5t64 171.5v638h291v-760q0 -71 21 -97t78 -26q19 0 54 8v-221q-61 -18 -135 -18q-120 0 -183 43.5t-88 144.5l-3 14h-19q-62 -215 -277 -215q-124 0 -167 78h-18v-399h-291z" />
    <glyph glyph-name="nugreek" unicode="&#x3bd;" horiz-adv-x="1222" 
d="M746 0h-334l-375 1103h304l254 -839h18q115 179 170.5 327.5t55.5 309.5q0 126 -18 202h280q19 -79 19 -200q0 -211 -91.5 -423.5t-282.5 -479.5z" />
    <glyph glyph-name="xigreek" unicode="&#x3be;" horiz-adv-x="1058" 
d="M880 -393l-216 86q76 116 76 191q0 61 -40 92t-179 79q-242 85 -337 170.5t-95 220.5q0 118 67 196t196 112v18q-200 80 -200 251q0 91 54.5 153.5t151.5 84.5v18h-202v245h824v-210l-130 -16q-234 -29 -325 -77t-91 -143q0 -78 68.5 -114.5t214.5 -36.5h186v-234h-200
q-157 0 -238.5 -46.5t-81.5 -136.5q0 -31 6.5 -50.5t21.5 -38.5t51.5 -37.5t84.5 -37.5t133 -49q195 -71 264.5 -141.5t69.5 -199.5q0 -164 -134 -349z" />
    <glyph glyph-name="omicrongreek" unicode="&#x3bf;" horiz-adv-x="1254" 
d="M627 -24q-251 0 -395.5 152.5t-144.5 423.5q0 269 146 422t394 153q249 0 395 -153t146 -422q0 -271 -145 -423.5t-396 -152.5zM627 214q114 0 178 88.5t64 249.5q0 159 -64.5 248t-177.5 89q-112 0 -176.5 -89t-64.5 -248q0 -161 63.5 -249.5t177.5 -88.5z" />
    <glyph glyph-name="pigreek" unicode="&#x3c0;" horiz-adv-x="1528" 
d="M292 0v859h-205v244h1330v-244h-229v-517q0 -71 23 -96.5t85 -25.5q31 0 58 8v-221q-59 -17 -143 -17q-170 0 -235.5 66.5t-65.5 235.5v567h-340v-859h-278z" />
    <glyph glyph-name="rhogreek" unicode="&#x3c1;" horiz-adv-x="1287" 
d="M114 -345v882q0 278 146 434t398 156q176 0 299.5 -72.5t183 -199t59.5 -297.5q0 -271 -122.5 -423t-335.5 -152q-115 0 -197 48.5t-123 137.5h-18v-514h-290zM648 226q121 0 187 87.5t66 249.5q0 160 -65.5 243t-184.5 83q-118 0 -184 -89t-66 -253q0 -149 67.5 -235
t179.5 -86z" />
    <glyph glyph-name="sigmafinalgreek" unicode="&#x3c2;" horiz-adv-x="1171" 
d="M878 -393l-217 86q77 113 77 191q0 60 -39.5 92t-163.5 73q-249 85 -348.5 205.5t-99.5 330.5q0 250 146 396t389 146q211 0 338.5 -108.5t146.5 -304.5h-272q-35 174 -212 174q-110 0 -176 -75.5t-66 -209.5q0 -122 56.5 -182t233.5 -122q201 -71 271 -142.5t70 -204.5
q0 -160 -134 -345z" />
    <glyph glyph-name="sigmagreek" unicode="&#x3c3;" horiz-adv-x="1403" 
d="M621 -24q-247 0 -390.5 148.5t-143.5 405.5q0 259 157.5 416t418.5 157h653v-244h-272v-19q53 -50 83 -134t30 -182q0 -250 -146 -399t-390 -149zM627 210q113 0 177.5 89t64.5 243q0 145 -66 229t-176 84q-111 0 -176 -84.5t-65 -228.5q0 -155 65 -243.5t176 -88.5z" />
    <glyph glyph-name="taugreek" unicode="&#x3c4;" horiz-adv-x="1168" 
d="M763 -4q-204 0 -291.5 70.5t-87.5 232.5v560h-327v244h1014v-244h-396v-492q0 -72 36 -106t114 -34q72 0 101 4v-222q-65 -13 -163 -13z" />
    <glyph glyph-name="upsilongreek" unicode="&#x3c5;" horiz-adv-x="1232" 
d="M601 -24q-237 0 -356 120t-119 353v654h276v-616q0 -134 49.5 -196t156.5 -62q112 0 172.5 89t60.5 247q0 293 -101 538h284q48 -96 75 -236t27 -292q0 -289 -139 -444t-386 -155z" />
    <glyph glyph-name="phigreek" unicode="&#x3c6;" horiz-adv-x="1627" 
d="M681 -345v320q-268 11 -433.5 164t-165.5 413t166 413.5t433 163.5v266h266v-266q267 -10 433 -163.5t166 -413.5q0 -173 -77.5 -302.5t-212 -198.5t-309.5 -76v-320h-266zM686 205v693q-153 -10 -238.5 -99.5t-85.5 -246.5t85.5 -246.5t238.5 -100.5zM942 205
q153 11 238.5 100.5t85.5 246.5t-86 246.5t-238 99.5v-693z" />
    <glyph glyph-name="chigreek" unicode="&#x3c7;" horiz-adv-x="1253" 
d="M79 -345l401 710l-212 401q-38 72 -71.5 94.5t-90.5 22.5q-32 0 -56 -8v221q57 17 133 17q117 0 183.5 -43t123.5 -153l151 -286h18l250 469h291l-419 -741l197 -370q34 -64 68.5 -88.5t91.5 -24.5q33 0 57 7v-220q-56 -18 -142 -18q-111 0 -174.5 38.5t-113.5 136.5
l-146 273h-18l-231 -438h-291z" />
    <glyph glyph-name="psigreek" unicode="&#x3c8;" horiz-adv-x="1617" 
d="M663 -345v321q-258 1 -397.5 124t-139.5 350v653h276v-588q0 -157 60 -221.5t201 -64.5v1166h276v-1164q138 0 212.5 88.5t74.5 250.5q0 292 -101 533h284q47 -93 74.5 -232t27.5 -283q0 -293 -149 -452.5t-423 -159.5v-321h-276z" />
    <glyph glyph-name="omegagreek" unicode="&#x3c9;" horiz-adv-x="1677" 
d="M511 -24q-198 0 -303.5 138.5t-105.5 398.5q0 171 45.5 325.5t128.5 264.5h293q-94 -141 -138.5 -283.5t-44.5 -304.5q0 -146 40.5 -216t123.5 -70q74 0 115 52.5t41 146.5v360h266v-360q0 -94 41 -146.5t113 -52.5q84 0 125 70t41 216q0 313 -183 588h292
q83 -110 129 -264t46 -326q0 -260 -105.5 -398.5t-303.5 -138.5q-113 0 -191 54.5t-128 169.5h-18q-51 -115 -128.5 -169.5t-190.5 -54.5z" />
    <glyph glyph-name="iotadieresisgreek" unicode="&#x3ca;" horiz-adv-x="719" 
d="M508 -4q-201 0 -288.5 70t-87.5 233v804h291v-736q0 -72 35.5 -106t110.5 -34q58 0 95 4v-222q-67 -13 -156 -13zM42 1251q-67 0 -111 43t-44 109t43.5 108.5t111.5 42.5t111.5 -42.5t43.5 -108.5t-44 -109t-111 -43zM510 1251q-67 0 -111 43t-44 109t44 108.5t111 42.5
q68 0 112 -42.5t44 -108.5t-44 -109t-112 -43z" />
    <glyph glyph-name="upsilondieresisgreek" unicode="&#x3cb;" horiz-adv-x="1232" 
d="M346 1251q-67 0 -111 43t-44 109t43.5 108.5t111.5 42.5t111.5 -42.5t43.5 -108.5t-44 -109t-111 -43zM814 1251q-67 0 -111 43t-44 109t44 108.5t111 42.5q68 0 112 -42.5t44 -108.5t-44 -109t-112 -43zM601 -24q-237 0 -356 120t-119 353v654h276v-616
q0 -134 49.5 -196t156.5 -62q112 0 172.5 89t60.5 247q0 293 -101 538h284q48 -96 75 -236t27 -292q0 -289 -139 -444t-386 -155z" />
    <glyph glyph-name="omicrontonosgreek" unicode="&#x3cc;" horiz-adv-x="1254" 
d="M627 -24q-251 0 -395.5 152.5t-144.5 423.5q0 269 146 422t394 153q249 0 395 -153t146 -422q0 -271 -145 -423.5t-396 -152.5zM627 214q114 0 178 88.5t64 249.5q0 159 -64.5 248t-177.5 89q-112 0 -176.5 -89t-64.5 -248q0 -161 63.5 -249.5t177.5 -88.5zM499 1267
l83 378h299l-145 -378h-237z" />
    <glyph glyph-name="upsilontonosgreek" unicode="&#x3cd;" horiz-adv-x="1232" 
d="M448 1267l83 378h299l-145 -378h-237zM601 -24q-237 0 -356 120t-119 353v654h276v-616q0 -134 49.5 -196t156.5 -62q112 0 172.5 89t60.5 247q0 293 -101 538h284q48 -96 75 -236t27 -292q0 -289 -139 -444t-386 -155z" />
    <glyph glyph-name="omegatonosgreek" unicode="&#x3ce;" horiz-adv-x="1677" 
d="M511 -24q-198 0 -303.5 138.5t-105.5 398.5q0 171 45.5 325.5t128.5 264.5h293q-94 -141 -138.5 -283.5t-44.5 -304.5q0 -146 40.5 -216t123.5 -70q74 0 115 52.5t41 146.5v360h266v-360q0 -94 41 -146.5t113 -52.5q84 0 125 70t41 216q0 313 -183 588h292
q83 -110 129 -264t46 -326q0 -260 -105.5 -398.5t-303.5 -138.5q-113 0 -191 54.5t-128 169.5h-18q-51 -115 -128.5 -169.5t-190.5 -54.5zM710 1267l83 378h299l-145 -378h-237z" />
    <glyph glyph-name="Iocyrillic" unicode="&#x401;" horiz-adv-x="1294" 
d="M429 1579q-67 0 -111 43t-44 109t43.5 108.5t111.5 42.5t111.5 -42.5t43.5 -108.5t-44 -109t-111 -43zM897 1579q-67 0 -111 43t-44 109t44 108.5t111 42.5q68 0 112 -42.5t44 -108.5t-44 -109t-112 -43zM1141 258v-258h-956v1443h956v-258h-654v-337h617v-239h-617v-351
h654z" />
    <glyph glyph-name="Djecyrillic" unicode="&#x402;" horiz-adv-x="1802" 
d="M1183 -72q-43 0 -79.5 4.5t-51.5 8.5l-15 4v244q39 -12 119 -12q106 0 170 60t64 171q0 102 -66.5 167t-190.5 65q-63 0 -116 -16t-88 -41.5t-57 -50.5t-35 -50v-482h-302v1185h-433v258h1168v-258h-433v-398h17q129 119 339 119q122 0 219 -38t157.5 -104t92 -151.5
t31.5 -184.5q0 -225 -136.5 -362.5t-373.5 -137.5z" />
    <glyph glyph-name="Gjecyrillic" unicode="&#x403;" horiz-adv-x="1225" 
d="M477 1573l277 318h315l-314 -318h-278zM488 0h-303v1443h930v-259h-627v-1184z" />
    <glyph glyph-name="Ecyrillic" unicode="&#x404;" horiz-adv-x="1571" 
d="M1450 479q-19 -228 -194 -372t-439 -144q-318 0 -502 203t-184 556t184 555.5t501 202.5q260 0 438 -150t195 -380h-294q-22 119 -114.5 191.5t-224.5 72.5q-153 0 -253 -97.5t-117 -265.5h567v-241h-570q14 -173 115.5 -277t258.5 -104q133 0 225 68.5t114 181.5h294z
" />
    <glyph glyph-name="Dzecyrillic" unicode="&#x405;" horiz-adv-x="1403" 
d="M120 401h292q10 -88 92 -140t210 -52q118 0 193 51.5t75 133.5q0 69 -58 112t-191 71l-188 40q-392 82 -392 412q0 204 151 327.5t401 123.5q238 0 391.5 -121t160.5 -314h-284q-11 86 -84 138t-182 52q-114 0 -182.5 -49t-68.5 -131q0 -67 55.5 -108t182.5 -68l174 -37
q217 -46 316 -144t99 -266q0 -218 -156.5 -343.5t-428.5 -125.5q-258 0 -414 118t-164 320z" />
    <glyph glyph-name="Icyrillic" unicode="&#x406;" horiz-adv-x="672" 
d="M487 0h-302v1443h302v-1443z" />
    <glyph glyph-name="Yicyrillic" unicode="&#x407;" horiz-adv-x="672" 
d="M487 0h-302v1443h302v-1443zM102 1579q-67 0 -111 43t-44 109t43.5 108.5t111.5 42.5t111.5 -42.5t43.5 -108.5t-44 -109t-111 -43zM570 1579q-67 0 -111 43t-44 109t44 108.5t111 42.5q68 0 112 -42.5t44 -108.5t-44 -109t-112 -43z" />
    <glyph glyph-name="Jecyrillic" unicode="&#x408;" horiz-adv-x="1251" 
d="M86 424h292q2 -87 54.5 -139t139.5 -52q93 0 142.5 55.5t49.5 161.5v993h302v-995q0 -232 -129.5 -358.5t-360.5 -126.5q-223 0 -356.5 125t-133.5 336z" />
    <glyph glyph-name="Ljecyrillic" unicode="&#x409;" horiz-adv-x="2256" 
d="M596 573q-6 -110 -23 -198t-49.5 -162t-80.5 -123t-117 -76t-157 -27q-68 0 -109 13v275q37 -8 67 -8q43 0 75.5 16.5t52.5 44t33.5 71t20 89t9.5 106.5l43 849h993v-479h279q229 0 372 -133t143 -349q0 -217 -138 -349.5t-361 -132.5h-597v1185h-421zM1354 249h215
q129 0 200 60.5t71 173.5q0 114 -71.5 174.5t-201.5 60.5h-213v-469z" />
    <glyph glyph-name="Njecyrillic" unicode="&#x40a;" horiz-adv-x="2317" 
d="M1409 249h230q124 0 192 50t68 143q0 89 -68.5 136.5t-192.5 47.5h-229v-377zM487 620v-620h-302v1443h302v-571h620v571h302v-571h280q229 0 372 -118.5t143 -311.5q0 -199 -138.5 -320.5t-361.5 -121.5h-597v620h-620z" />
    <glyph glyph-name="Tshecyrillic" unicode="&#x40b;" horiz-adv-x="1829" 
d="M1123 640q-62 0 -113.5 -16t-85 -43t-53.5 -50t-34 -49v-482h-302v1185h-433v258h1168v-258h-433v-397h17q128 118 330 118q161 0 274 -69t166.5 -185t53.5 -267v-385h-302v366q0 126 -64 200t-189 74z" />
    <glyph glyph-name="Kjecyrillic" unicode="&#x40c;" horiz-adv-x="1473" 
d="M577 1573l277 318h315l-314 -318h-278zM497 830h46l505 613h336l-586 -706l626 -737h-365l-514 591h-48v-591h-302v1443h302v-613z" />
    <glyph glyph-name="Ushortcyrillic" unicode="&#x40e;" horiz-adv-x="1420" 
d="M326 1915h218q2 -72 46 -114.5t113 -42.5q70 0 114.5 42.5t46.5 114.5h218q0 -147 -103.5 -234.5t-275.5 -87.5q-171 0 -274 87.5t-103 234.5zM389 -13q-82 0 -124 14v255q27 -9 88 -9q69 0 118 23t85 78l-479 1095h321l310 -789h18l299 789h318l-442 -1030
q-47 -109 -91.5 -182t-104.5 -131t-138 -85.5t-178 -27.5z" />
    <glyph glyph-name="Dzhecyrillic" unicode="&#x40f;" horiz-adv-x="1609" 
d="M663 0h-478v1443h302v-1185h635v1185h302v-1443h-478v-285h-283v285z" />
    <glyph glyph-name="Acyrillic" unicode="&#x410;" horiz-adv-x="1520" 
d="M1112 0l-109 344h-507l-111 -344h-303l501 1443h355l501 -1443h-327zM742 1143l-181 -566h378l-179 566h-18z" />
    <glyph glyph-name="Becyrillic" unicode="&#x411;" horiz-adv-x="1392" 
d="M1277 457q0 -205 -138.5 -331t-361.5 -126h-592v1443h959v-258h-657v-281h280q227 0 368.5 -123.5t141.5 -323.5zM487 249h215q127 0 196.5 53.5t69.5 154.5q0 102 -69.5 156t-197.5 54h-214v-418z" />
    <glyph glyph-name="Vecyrillic" unicode="&#x412;" horiz-adv-x="1440" 
d="M833 0h-648v1443h631q209 0 328 -96t119 -264q0 -115 -75 -203t-186 -105v-18q143 -11 236.5 -108t93.5 -236q0 -190 -134 -301.5t-365 -111.5zM487 1212v-367h227q122 0 187 48t65 135t-59.5 135.5t-167.5 48.5h-252zM487 231h269q130 0 199 53.5t69 154.5
q0 99 -70.5 150.5t-204.5 51.5h-262v-410z" />
    <glyph glyph-name="Gecyrillic" unicode="&#x413;" horiz-adv-x="1225" 
d="M488 0h-303v1443h930v-259h-627v-1184z" />
    <glyph glyph-name="Decyrillic" unicode="&#x414;" horiz-adv-x="1606" 
d="M561 612q-8 -125 -28 -205t-63 -131v-18h584v928h-455zM314 0v-285h-274v543h101q72 51 102 137t40 242l50 806h1023v-1185h180v-543h-273v285h-949z" />
    <glyph glyph-name="Iecyrillic" unicode="&#x415;" horiz-adv-x="1294" 
d="M1141 258v-258h-956v1443h956v-258h-654v-337h617v-239h-617v-351h654z" />
    <glyph glyph-name="Zhecyrillic" unicode="&#x416;" horiz-adv-x="2160" 
d="M930 828v615h297v-615h48l455 615h328l-534 -709l575 -734h-358l-464 593h-50v-593h-297v593h-50l-464 -593h-354l571 728l-538 715h331l455 -615h49z" />
    <glyph glyph-name="Zecyrillic" unicode="&#x417;" horiz-adv-x="1363" 
d="M479 611v242h191q107 0 172.5 54t65.5 142q0 87 -63.5 138t-175.5 51t-181 -55t-74 -148h-279q8 205 153.5 325t388.5 120q231 0 375.5 -108.5t144.5 -283.5q0 -121 -74.5 -212t-192.5 -116v-18q145 -14 234 -106.5t89 -236.5q0 -191 -164 -313.5t-414 -122.5
q-248 0 -403 123t-165 327h289q7 -91 83 -144.5t200 -53.5q119 0 191.5 57.5t72.5 149.5q0 88 -71 138.5t-199 50.5h-194z" />
    <glyph glyph-name="Iicyrillic" unicode="&#x418;" horiz-adv-x="1629" 
d="M1143 0v956h-18l-649 -956h-291v1443h301v-957h18l649 957h291v-1443h-301z" />
    <glyph glyph-name="Iishortcyrillic" unicode="&#x419;" horiz-adv-x="1629" 
d="M427 1915h218q2 -72 46 -114.5t113 -42.5q70 0 114.5 42.5t46.5 114.5h218q0 -147 -103.5 -234.5t-275.5 -87.5q-171 0 -274 87.5t-103 234.5zM1143 0v956h-18l-649 -956h-291v1443h301v-957h18l649 957h291v-1443h-301z" />
    <glyph glyph-name="Kacyrillic" unicode="&#x41a;" horiz-adv-x="1475" 
d="M487 830h46l505 613h336l-586 -706l626 -737h-365l-514 591h-48v-591h-302v1443h302v-613z" />
    <glyph glyph-name="Elcyrillic" unicode="&#x41b;" horiz-adv-x="1529" 
d="M1344 0h-302v1185h-421l-35 -612q-6 -110 -23 -198t-49.5 -162t-80.5 -123t-117 -76t-157 -27q-68 0 -109 13v275q37 -8 67 -8q43 0 75.5 16.5t52.5 44t33.5 71t20 89t9.5 106.5l43 849h993v-1443z" />
    <glyph glyph-name="Emcyrillic" unicode="&#x41c;" horiz-adv-x="1898" 
d="M465 0h-280v1443h356l399 -970h18l400 970h355v-1443h-280v965h-16l-367 -882h-201l-368 882h-16v-965z" />
    <glyph glyph-name="Encyrillic" unicode="&#x41d;" horiz-adv-x="1624" 
d="M1439 0h-302v603h-650v-603h-302v1443h302v-582h650v582h302v-1443z" />
    <glyph glyph-name="Ocyrillic" unicode="&#x41e;" horiz-adv-x="1650" 
d="M826 1480q320 0 506.5 -204t186.5 -554q0 -351 -186.5 -555t-506.5 -204q-321 0 -508 204t-187 555q0 350 188 554t507 204zM826 1215q-176 0 -281 -133.5t-105 -359.5t104.5 -360t281.5 -134q176 0 280.5 134t104.5 360t-104.5 359.5t-280.5 133.5z" />
    <glyph glyph-name="Pecyrillic" unicode="&#x41f;" horiz-adv-x="1609" 
d="M1424 0h-301v1184h-635v-1184h-303v1443h1239v-1443z" />
    <glyph glyph-name="Ercyrillic" unicode="&#x420;" horiz-adv-x="1400" 
d="M185 1443h602q223 0 361.5 -137.5t138.5 -361.5q0 -222 -143 -359t-372 -137h-285v-448h-302v1443zM487 1195v-502h219q131 0 202.5 64.5t71.5 185.5q0 122 -71 187t-202 65h-220z" />
    <glyph glyph-name="Escyrillic" unicode="&#x421;" horiz-adv-x="1566" 
d="M808 -37q-314 0 -495.5 203.5t-181.5 555.5t181.5 555t495.5 203q256 0 432.5 -152.5t193.5 -388.5h-294q-22 125 -112.5 200t-219.5 75q-170 0 -269 -132t-99 -360t99 -360.5t270 -132.5q130 0 220 71t112 190h294q-19 -234 -192.5 -380.5t-434.5 -146.5z" />
    <glyph glyph-name="Tecyrillic" unicode="&#x422;" horiz-adv-x="1372" 
d="M837 0h-302v1185h-433v258h1168v-258h-433v-1185z" />
    <glyph glyph-name="Ucyrillic" unicode="&#x423;" horiz-adv-x="1420" 
d="M389 -13q-82 0 -124 14v255q27 -9 88 -9q69 0 118 23t85 78l-479 1095h321l310 -789h18l299 789h318l-442 -1030q-47 -109 -91.5 -182t-104.5 -131t-138 -85.5t-178 -27.5z" />
    <glyph glyph-name="Efcyrillic" unicode="&#x424;" horiz-adv-x="1863" 
d="M786 374v700q-165 -8 -263.5 -101t-98.5 -249t98 -249t264 -101zM1439 723q0 157 -98 250t-263 101v-700q164 8 262.5 100.5t98.5 248.5zM782 123q-302 10 -482.5 168.5t-180.5 432.5q0 273 181 431.5t482 168.5v150h299v-150q302 -9 482.5 -168t180.5 -433
q0 -273 -181 -431t-482 -169v-154h-299v154z" />
    <glyph glyph-name="Xacyrillic" unicode="&#x425;" horiz-adv-x="1514" 
d="M98 0l461 727l-458 716h355l301 -505h18l304 505h338l-475 -721l468 -722h-344l-310 489h-18l-314 -489h-326z" />
    <glyph glyph-name="Tsecyrillic" unicode="&#x426;" horiz-adv-x="1674" 
d="M1604 -285h-273v285h-1146v1443h302v-1185h635v1185h302v-1185h180v-543z" />
    <glyph glyph-name="Checyrillic" unicode="&#x427;" horiz-adv-x="1524" 
d="M1339 0h-302v612h-18q-136 -118 -348 -118q-244 0 -387.5 148t-143.5 387v414h302v-383q0 -137 74.5 -217t214.5 -80q110 0 190 44t116 116v520h302v-1443z" />
    <glyph glyph-name="Shacyrillic" unicode="&#x428;" horiz-adv-x="2096" 
d="M185 0v1443h302v-1185h410v1185h302v-1185h410v1185h302v-1443h-1726z" />
    <glyph glyph-name="Shchacyrillic" unicode="&#x429;" horiz-adv-x="2161" 
d="M2091 -285h-273v285h-1633v1443h302v-1185h410v1185h302v-1185h410v1185h302v-1185h180v-543z" />
    <glyph glyph-name="Hardsigncyrillic" unicode="&#x42a;" horiz-adv-x="1644" 
d="M1036 0h-597v1186h-335v257h637v-479h280q229 0 372 -133t143 -349q0 -217 -138.5 -349.5t-361.5 -132.5zM741 249h215q130 0 200.5 60.5t70.5 173.5q0 114 -71 174.5t-201 60.5h-214v-469z" />
    <glyph glyph-name="Yericyrillic" unicode="&#x42b;" horiz-adv-x="1932" 
d="M1747 0h-302v1443h302v-1443zM190 0v1443h302v-479h280q229 0 372 -133t143 -349q0 -217 -138.5 -349.5t-361.5 -132.5h-597zM492 249h215q130 0 200.5 60.5t70.5 173.5q0 114 -71 174.5t-201 60.5h-214v-469z" />
    <glyph glyph-name="Softsigncyrillic" unicode="&#x42c;" horiz-adv-x="1395" 
d="M185 0v1443h302v-479h280q229 0 372 -133t143 -349q0 -217 -138.5 -349.5t-361.5 -132.5h-597zM487 249h215q130 0 200.5 60.5t70.5 173.5q0 114 -71 174.5t-201 60.5h-214v-469z" />
    <glyph glyph-name="Ereversedcyrillic" unicode="&#x42d;" horiz-adv-x="1571" 
d="M761 -37q-267 0 -444 144t-196 372h294q22 -112 116.5 -181t230.5 -69q154 0 253.5 102.5t113.5 278.5h-571v241h570q-17 170 -115.5 266.5t-249.5 96.5q-135 0 -230 -72.5t-117 -191.5h-294q17 230 197 380t443 150q315 0 496.5 -202t181.5 -555q0 -354 -182 -557
t-497 -203z" />
    <glyph glyph-name="IUcyrillic" unicode="&#x42e;" horiz-adv-x="2190" 
d="M1376 -37q-289 0 -468.5 170.5t-209.5 469.5h-211v-603h-302v1443h302v-582h213q35 289 214.5 454t461.5 165q315 0 499 -204t184 -554q0 -351 -183.5 -555t-499.5 -204zM1375 1215q-172 0 -274.5 -133.5t-102.5 -359.5t102 -360t275 -134q172 0 274 134t102 360
t-102 359.5t-274 133.5z" />
    <glyph glyph-name="IAcyrillic" unicode="&#x42f;" horiz-adv-x="1451" 
d="M967 748v450h-245q-120 0 -188.5 -60t-68.5 -165q0 -106 68 -165.5t190 -59.5h244zM765 518l-343 -518h-334l379 561q-142 45 -226.5 154.5t-84.5 258.5q0 211 142 340t382 129h586v-1443h-299v518h-202z" />
    <glyph glyph-name="acyrillic" unicode="&#x430;" horiz-adv-x="1233" 
d="M554 202q101 0 169 57t68 141v81l-223 -14q-186 -13 -186 -133q0 -61 47.5 -96.5t124.5 -35.5zM458 -17q-160 0 -260.5 91t-100.5 241q0 149 110.5 234.5t316.5 97.5l267 16v90q0 69 -48 106.5t-138 37.5q-162 0 -199 -102h-268q14 153 144.5 242.5t338.5 89.5
q218 0 337.5 -98t119.5 -276v-753h-282v144h-18q-43 -76 -128 -118.5t-192 -42.5z" />
    <glyph glyph-name="becyrillic" unicode="&#x431;" horiz-adv-x="1309" 
d="M655 214q118 0 183.5 82.5t65.5 234.5q0 145 -65.5 226t-183.5 81t-183.5 -81t-65.5 -226q0 -152 65 -234.5t184 -82.5zM332 853h18q108 211 369 211q218 0 351 -142t133 -383q0 -261 -146 -412t-397 -151q-265 0 -409 166.5t-144 491.5q0 424 143.5 626t449.5 213l141 5
q76 3 148 14t105.5 19.5t35.5 10.5v-235q-9 -5 -27 -12t-88 -19.5t-156 -15.5l-134 -4q-101 -4 -172.5 -29.5t-116 -76t-68.5 -116.5t-36 -161z" />
    <glyph glyph-name="vecyrillic" unicode="&#x432;" horiz-adv-x="1232" 
d="M630 911h-191v-254h175q84 0 127.5 33.5t43.5 94.5q0 59 -39.5 92.5t-115.5 33.5zM629 482h-190v-290h205q89 0 136 37.5t47 108.5q0 144 -198 144zM153 0v1103h553q172 0 268.5 -74t96.5 -204q0 -86 -56.5 -152.5t-141.5 -80.5v-18q110 -10 178.5 -81.5t68.5 -173.5
q0 -145 -109 -232t-295 -87h-563z" />
    <glyph glyph-name="gecyrillic" unicode="&#x433;" horiz-adv-x="1006" 
d="M916 874h-472v-874h-291v1103h763v-229z" />
    <glyph glyph-name="decyrillic" unicode="&#x434;" horiz-adv-x="1365" 
d="M863 229v646h-336l-25 -345q-13 -184 -78 -283v-18h439zM303 -285h-266v514h85q104 58 122 321l36 553h873v-874h164v-514h-266v285h-748v-285z" />
    <glyph glyph-name="iecyrillic" unicode="&#x435;" horiz-adv-x="1263" 
d="M638 904q-101 0 -166.5 -65t-73.5 -172h470q-5 110 -66.5 173.5t-163.5 63.5zM874 314h271q-33 -157 -167.5 -247.5t-336.5 -90.5q-252 0 -393 150.5t-141 419.5t142 425t388 156q244 0 380.5 -147t136.5 -410v-89h-757v-15q3 -123 70.5 -194.5t181.5 -71.5
q86 0 144 29.5t81 84.5z" />
    <glyph glyph-name="zhecyrillic" unicode="&#x436;" horiz-adv-x="1796" 
d="M56 0l408 598l-387 505h325l299 -434h54v434h284v-434h55l299 434h323l-385 -503l409 -600h-339l-304 462h-58v-462h-284v462h-58l-304 -462h-337z" />
    <glyph glyph-name="zecyrillic" unicode="&#x437;" horiz-adv-x="1184" 
d="M595 -24q-95 0 -176.5 21t-150 64t-112 117t-51.5 173h280q38 -140 210 -140q88 0 138.5 34.5t50.5 97.5q0 124 -188 124h-153v196h145q162 0 162 116q0 53 -40.5 86.5t-121.5 33.5q-80 0 -129.5 -33.5t-59.5 -96.5h-275q16 165 136 261.5t326 96.5q215 0 331.5 -82
t116.5 -232q0 -82 -45.5 -140t-119.5 -79v-18q102 -26 154 -90.5t52 -154.5q0 -163 -128 -259t-352 -96z" />
    <glyph glyph-name="iicyrillic" unicode="&#x438;" horiz-adv-x="1341" 
d="M439 0h-286v1103h286v-678h18l445 678h286v-1103h-286v686h-18z" />
    <glyph glyph-name="iishortcyrillic" unicode="&#x439;" horiz-adv-x="1341" 
d="M274 1616h218q2 -81 46 -132.5t116 -51.5t116.5 51.5t46.5 132.5h218q0 -155 -105 -252.5t-276 -97.5t-275.5 97t-104.5 253zM439 0h-286v1103h286v-678h18l445 678h286v-1103h-286v686h-18z" />
    <glyph glyph-name="kacyrillic" unicode="&#x43a;" horiz-adv-x="1234" 
d="M444 673h48l333 430h331l-423 -503l445 -600h-347l-335 457h-52v-457h-291v1103h291v-430z" />
    <glyph glyph-name="elcyrillic" unicode="&#x43b;" horiz-adv-x="1268" 
d="M513 530q-7 -129 -29 -224t-65 -169.5t-113.5 -112t-169.5 -37.5q-54 0 -93 13v256q28 -7 63 -7q39 0 66.5 22t44 64.5t25 93.5t12.5 121l32 553h830v-1103h-291v874h-289z" />
    <glyph glyph-name="emcyrillic" unicode="&#x43c;" horiz-adv-x="1652" 
d="M427 0h-274v1103h377l289 -706h18l290 706h372v-1103h-274v731h-19l-279 -669h-203l-279 669h-18v-731z" />
    <glyph glyph-name="encyrillic" unicode="&#x43d;" horiz-adv-x="1328" 
d="M153 0v1103h291v-423h441v423h291v-1103h-291v451h-441v-451h-291z" />
    <glyph glyph-name="ocyrillic" unicode="&#x43e;" horiz-adv-x="1299" 
d="M650 214q116 0 180 88.5t64 249.5q0 159 -64.5 248t-179.5 89q-116 0 -180 -89t-64 -248q0 -161 63.5 -249.5t180.5 -88.5zM650 -24q-254 0 -398.5 153t-144.5 423q0 268 145.5 421.5t397.5 153.5t397.5 -153.5t145.5 -421.5q0 -270 -144.5 -423t-398.5 -153z" />
    <glyph glyph-name="pecyrillic" unicode="&#x43f;" horiz-adv-x="1318" 
d="M875 0v874h-431v-874h-291v1103h1013v-1103h-291z" />
    <glyph glyph-name="ercyrillic" unicode="&#x440;" horiz-adv-x="1346" 
d="M793 1121q210 0 330 -151t120 -418q0 -266 -119 -417.5t-326 -151.5q-118 0 -205 49t-128 137h-18v-514h-291v1448h282v-181h18q45 93 134 146t203 53zM694 226q118 0 184 86.5t66 239.5q0 152 -66.5 238.5t-182.5 86.5t-183.5 -87.5t-67.5 -238.5t67 -238t183 -87z" />
    <glyph glyph-name="escyrillic" unicode="&#x441;" horiz-adv-x="1231" 
d="M1137 714h-272q-15 81 -71.5 127.5t-147.5 46.5q-118 0 -181.5 -86t-63.5 -248q0 -164 63.5 -251.5t181.5 -87.5q90 0 146.5 43t72.5 124h272q-18 -187 -148 -296.5t-343 -109.5q-258 0 -398.5 150.5t-140.5 427.5q0 275 140 424t399 149q216 0 344.5 -111t146.5 -302z
" />
    <glyph glyph-name="tecyrillic" unicode="&#x442;" horiz-adv-x="1091" 
d="M1021 1103v-229h-330v-874h-291v874h-330v229h951z" />
    <glyph glyph-name="ucyrillic" unicode="&#x443;" horiz-adv-x="1243" 
d="M293 -403q-93 0 -111 3v235q15 -3 66 -3q82 0 129.5 29t65.5 92l10 40l-387 1110h321l232 -836h18l232 836h308l-380 -1120q-70 -213 -183.5 -299.5t-320.5 -86.5z" />
    <glyph glyph-name="efcyrillic" unicode="&#x444;" horiz-adv-x="1687" 
d="M703 212v679q-138 -4 -219 -94t-81 -245q0 -157 80.5 -246t219.5 -94zM1284 552q0 156 -80.5 245t-219.5 94v-679q138 4 219 94.5t81 245.5zM700 -16q-273 6 -433 157t-160 411q0 256 161 408.5t432 158.5v338h287v-338q273 -6 433 -157t160 -411q0 -256 -161 -408.5
t-432 -158.5v-329h-287v329z" />
    <glyph glyph-name="hacyrillic" unicode="&#x445;" horiz-adv-x="1210" 
d="M608 360h-18l-205 -360h-309l346 545l-348 558h334l195 -362h18l195 362h318l-346 -545l349 -558h-324z" />
    <glyph glyph-name="tsecyrillic" unicode="&#x446;" horiz-adv-x="1374" 
d="M1327 -285h-266v285h-908v1103h291v-874h426v874h291v-874h166v-514z" />
    <glyph glyph-name="checyrillic" unicode="&#x447;" horiz-adv-x="1273" 
d="M1121 0h-291v467h-18q-103 -119 -295 -119q-175 0 -279.5 110t-104.5 297v348h291v-303q0 -94 49.5 -147.5t134.5 -53.5t139.5 33t82.5 76v395h291v-1103z" />
    <glyph glyph-name="shacyrillic" unicode="&#x448;" horiz-adv-x="1810" 
d="M153 0v1103h291v-874h316v874h291v-874h316v874h291v-1103h-1505z" />
    <glyph glyph-name="shchacyrillic" unicode="&#x449;" horiz-adv-x="1865" 
d="M1817 -285h-266v285h-1398v1103h291v-874h316v874h291v-874h316v874h291v-874h159v-514z" />
    <glyph glyph-name="hardsigncyrillic" unicode="&#x44a;" horiz-adv-x="1370" 
d="M855 0h-505v874h-285v229h576v-318h214q195 0 310.5 -106.5t115.5 -286.5t-115.5 -286t-310.5 -106zM809 559h-168v-330h168q83 0 133 45.5t50 119.5t-50 119.5t-133 45.5z" />
    <glyph glyph-name="yericyrillic" unicode="&#x44b;" horiz-adv-x="1643" 
d="M1199 0v1103h291v-1103h-291zM617 559h-168v-330h168q83 0 132.5 45.5t49.5 119.5t-50 119.5t-132 45.5zM158 0v1103h291v-318h214q195 0 310.5 -106.5t115.5 -286.5t-115.5 -286t-310.5 -106h-505z" />
    <glyph glyph-name="softsigncyrillic" unicode="&#x44c;" horiz-adv-x="1177" 
d="M612 559h-168v-330h168q83 0 132.5 45.5t49.5 119.5t-50 119.5t-132 45.5zM153 0v1103h291v-318h214q195 0 310.5 -106.5t115.5 -286.5t-115.5 -286t-310.5 -106h-505z" />
    <glyph glyph-name="ereversedcyrillic" unicode="&#x44d;" horiz-adv-x="1243" 
d="M595 -24q-216 0 -347 109t-150 292h272q16 -77 76 -119t149 -42q103 0 170 67t76 183h-406v196h403q-12 106 -78.5 166t-164.5 60q-89 0 -148 -44.5t-76 -118.5h-272q20 180 152.5 291t344.5 111q249 0 394.5 -154.5t145.5 -418.5q0 -268 -145.5 -423t-395.5 -155z" />
    <glyph glyph-name="iucyrillic" unicode="&#x44e;" horiz-adv-x="1781" 
d="M1137 -24q-226 0 -366.5 124.5t-165.5 350.5h-161v-451h-291v1103h291v-423h165q33 211 172 329t356 118q249 0 393.5 -153t144.5 -422q0 -272 -143.5 -424t-394.5 -152zM1136 214q114 0 177 88.5t63 249.5q0 160 -63.5 248.5t-176.5 88.5t-177 -89t-64 -248
q0 -161 63.5 -249.5t177.5 -88.5z" />
    <glyph glyph-name="iacyrillic" unicode="&#x44f;" horiz-adv-x="1207" 
d="M590 567h179v308h-179q-81 0 -129.5 -43t-48.5 -114q0 -67 49 -109t129 -42zM769 0v355h-119l-245 -355h-330l289 403q-110 33 -174 118.5t-64 199.5q0 174 119.5 278t314.5 104h494v-1103h-285z" />
    <glyph glyph-name="iocyrillic" unicode="&#x451;" horiz-adv-x="1263" 
d="M638 904q-101 0 -166.5 -65t-73.5 -172h470q-5 110 -66.5 173.5t-163.5 63.5zM874 314h271q-33 -157 -167.5 -247.5t-336.5 -90.5q-252 0 -393 150.5t-141 419.5t142 425t388 156q244 0 380.5 -147t136.5 -410v-89h-757v-15q3 -123 70.5 -194.5t181.5 -71.5
q86 0 144 29.5t81 84.5zM403 1251q-67 0 -111 43t-44 109t43.5 108.5t111.5 42.5t111.5 -42.5t43.5 -108.5t-44 -109t-111 -43zM871 1251q-67 0 -111 43t-44 109t44 108.5t111 42.5q68 0 112 -42.5t44 -108.5t-44 -109t-112 -43z" />
    <glyph glyph-name="djecyrillic" unicode="&#x452;" horiz-adv-x="1359" 
d="M1208 -34q0 -168 -99 -254t-291 -86q-42 0 -78 3v224q12 -2 37 -2q76 0 108 29t32 96v665q0 114 -56.5 173t-161.5 59q-109 0 -177 -66.5t-68 -173.5v-633h-291v1260h-151v152h151v149h286v-149h249v-152h-249v-338h18q38 94 132 148t216 54q186 0 289.5 -108t103.5 -306
v-744z" />
    <glyph glyph-name="gjecyrillic" unicode="&#x453;" horiz-adv-x="1006" 
d="M357 1281l247 353h309l-287 -353h-269zM921 874h-472v-874h-291v1103h763v-229z" />
    <glyph glyph-name="ecyrillic" unicode="&#x454;" horiz-adv-x="1235" 
d="M1141 377q-19 -183 -149 -292t-343 -109q-251 0 -396.5 155t-145.5 423q0 265 145.5 419t394.5 154q211 0 342 -111t151 -291h-272q-17 74 -74 118.5t-145 44.5q-98 0 -164 -60t-79 -165h398v-196h-401q7 -117 74.5 -184t171.5 -67q88 0 146 42t74 119h272z" />
    <glyph glyph-name="dzecyrillic" unicode="&#x455;" horiz-adv-x="1181" 
d="M132 779q0 157 126.5 252.5t332.5 95.5q210 0 329.5 -85t131.5 -243h-269q-11 54 -60.5 84.5t-129.5 30.5q-79 0 -130 -32.5t-51 -84.5q0 -40 36 -66.5t113 -43.5l207 -45q161 -35 235.5 -107t74.5 -195q0 -164 -134 -264t-352 -100t-345 86t-142 245h284
q35 -118 209 -118q85 0 138 32.5t53 85.5q0 41 -33 66.5t-106 41.5l-200 45q-161 35 -239.5 113.5t-78.5 205.5z" />
    <glyph glyph-name="icyrillic" unicode="&#x456;" horiz-adv-x="612" 
d="M158 0v1103h291v-1103h-291zM304 1257q-78 0 -125 41t-47 106q0 66 47 106.5t125 40.5t125 -40.5t47 -106.5q0 -65 -47.5 -106t-124.5 -41z" />
    <glyph glyph-name="yicyrillic" unicode="&#x457;" horiz-adv-x="614" 
d="M160 0v1103h291v-1103h-291zM72 1251q-67 0 -111 43t-44 109t43.5 108.5t111.5 42.5t111.5 -42.5t43.5 -108.5t-44 -109t-111 -43zM540 1251q-67 0 -111 43t-44 109t44 108.5t111 42.5q68 0 112 -42.5t44 -108.5t-44 -109t-112 -43z" />
    <glyph glyph-name="jecyrillic" unicode="&#x458;" horiz-adv-x="613" 
d="M450 1103v-1136q0 -168 -99 -254.5t-291 -86.5q-42 0 -78 3v224q12 -2 37 -2q76 0 108 29t32 96v1127h291zM305 1257q-78 0 -125 41t-47 106q0 66 47 106.5t125 40.5t125 -40.5t47 -106.5q0 -65 -47.5 -106t-124.5 -41z" />
    <glyph glyph-name="ljecyrillic" unicode="&#x459;" horiz-adv-x="1854" 
d="M518 530q-7 -129 -29 -224t-65 -169.5t-113.5 -112t-169.5 -37.5q-54 0 -93 13v256q28 -7 63 -7q39 0 66.5 22t44 64.5t25 93.5t12.5 121l32 553h830v-318h214q195 0 310.5 -106.5t115.5 -286.5t-115.5 -286t-310.5 -106h-505v874h-289zM1289 559h-168v-330h168
q83 0 132.5 45.5t49.5 119.5t-50 119.5t-132 45.5z" />
    <glyph glyph-name="njecyrillic" unicode="&#x45a;" horiz-adv-x="1894" 
d="M1347 492h-186v-268h186q76 0 122 37.5t46 96.5t-46 96.5t-122 37.5zM870 0v487h-426v-487h-291v1103h291v-392h426v392h291v-387h219q193 0 307 -97t114 -261t-114 -261t-307 -97h-510z" />
    <glyph glyph-name="tshecyrillic" unicode="&#x45b;" horiz-adv-x="1359" 
d="M449 922h18q38 94 132 148t216 54q186 0 289.5 -108t103.5 -306v-710h-291v641q0 114 -56.5 173t-161.5 59q-109 0 -177 -66.5t-68 -173.5v-633h-291v1260h-151v152h151v149h286v-149h249v-152h-249v-338z" />
    <glyph glyph-name="kjecyrillic" unicode="&#x45c;" horiz-adv-x="1234" 
d="M467 1281l247 353h309l-287 -353h-269zM444 673h48l333 430h331l-423 -503l445 -600h-347l-335 457h-52v-457h-291v1103h291v-430z" />
    <glyph glyph-name="ushortcyrillic" unicode="&#x45e;" horiz-adv-x="1243" 
d="M247 1616h218q2 -81 46 -132.5t116 -51.5t116.5 51.5t46.5 132.5h218q0 -155 -105 -252.5t-276 -97.5t-275.5 97t-104.5 253zM293 -403q-93 0 -111 3v235q15 -3 66 -3q82 0 129.5 29t65.5 92l10 40l-387 1110h321l232 -836h18l232 836h308l-380 -1120
q-70 -213 -183.5 -299.5t-320.5 -86.5z" />
    <glyph glyph-name="dzhecyrillic" unicode="&#x45f;" horiz-adv-x="1318" 
d="M1166 0h-374v-285h-266v285h-373v1103h291v-874h431v874h291v-1103z" />
    <glyph glyph-name="Geupturncyrillic" unicode="&#x490;" horiz-adv-x="1225" 
d="M488 1184v-1184h-303v1443h647v285h283v-544h-627z" />
    <glyph glyph-name="geupturncyrillic" unicode="&#x491;" horiz-adv-x="1006" 
d="M916 874h-472v-874h-291v1103h497v285h266v-514z" />
    <glyph glyph-name="baht" unicode="&#xe3f;" horiz-adv-x="1415" 
d="M727 640v-408q231 10 231 207q0 188 -231 201zM445 231h142v410h-142v-410zM445 1212v-367h142v367h-142zM727 1210v-360q88 13 135 58.5t47 119.5q0 76 -47.5 124t-134.5 58zM936 775v-18q143 -11 236.5 -108t93.5 -236q0 -190 -134 -301.5t-365 -111.5h-40v-135h-140
v135h-438v1443h438v145h140v-145h23q209 0 328 -96t119 -264q0 -115 -75 -203t-186 -105z" />
    <glyph glyph-name="Aringbelow" unicode="&#x1e00;" horiz-adv-x="1500" 
d="M1102 0l-109 344h-507l-111 -344h-303l501 1443h355l501 -1443h-327zM732 1143l-181 -566h378l-179 566h-18zM739 -570q-105 0 -175.5 68.5t-70.5 172.5q0 102 70.5 170t175.5 68t175 -67.5t70 -170.5q0 -104 -70 -172.5t-175 -68.5zM739 -434q46 0 75.5 29.5t29.5 74.5
q0 44 -30 73.5t-75 29.5q-46 0 -76 -29.5t-30 -73.5q0 -46 30 -75t76 -29z" />
    <glyph glyph-name="aringbelow" unicode="&#x1e01;" horiz-adv-x="1208" 
d="M544 202q101 0 169 57t68 141v81l-223 -14q-186 -13 -186 -133q0 -61 47.5 -96.5t124.5 -35.5zM448 -17q-160 0 -260.5 91t-100.5 241q0 149 110.5 234.5t316.5 97.5l267 16v90q0 69 -48 106.5t-138 37.5q-162 0 -199 -102h-268q14 153 144.5 242.5t338.5 89.5
q218 0 337.5 -98t119.5 -276v-753h-282v144h-18q-43 -76 -128 -118.5t-192 -42.5zM598 -570q-105 0 -175.5 68.5t-70.5 172.5q0 102 70.5 170t175.5 68t175 -67.5t70 -170.5q0 -104 -70 -172.5t-175 -68.5zM598 -434q46 0 75.5 29.5t29.5 74.5q0 44 -30 73.5t-75 29.5
q-46 0 -76 -29.5t-30 -73.5q0 -46 30 -75t76 -29z" />
    <glyph glyph-name="Bdotaccent" unicode="&#x1e02;" horiz-adv-x="1420" 
d="M643 1579q-69 0 -113.5 45t-44.5 113t44.5 113t113.5 45t113 -45t44 -113t-44 -113t-113 -45zM823 0h-648v1443h631q209 0 328 -96t119 -264q0 -115 -75 -203t-186 -105v-18q143 -11 236.5 -108t93.5 -236q0 -190 -134 -301.5t-365 -111.5zM477 1212v-367h227
q122 0 187 48t65 135t-59.5 135.5t-167.5 48.5h-252zM477 231h269q130 0 199 53.5t69 154.5q0 99 -70.5 150.5t-204.5 51.5h-262v-410z" />
    <glyph glyph-name="bdotaccent" unicode="&#x1e03;" horiz-adv-x="1334" 
d="M302 1660q-69 0 -113.5 45t-44.5 113t44.5 113t113.5 45t113 -45t44 -113t-44 -113t-113 -45zM796 -17q-117 0 -206.5 50t-133.5 140h-18v-173h-282v1524h291v-597h18q42 91 130 142.5t201 51.5q209 0 328 -151t119 -418q0 -265 -119.5 -417t-327.5 -152zM695 877
q-115 0 -182.5 -87.5t-68.5 -238.5q1 -150 68.5 -237.5t182.5 -87.5q116 0 182.5 87t66.5 239q0 151 -67 238t-182 87z" />
    <glyph glyph-name="Bdotbelow" unicode="&#x1e04;" horiz-adv-x="1420" 
d="M643 -419q-71 0 -114 39.5t-43 100.5t43.5 100t113.5 39t113.5 -39t43.5 -100t-43 -100.5t-114 -39.5zM823 0h-648v1443h631q209 0 328 -96t119 -264q0 -115 -75 -203t-186 -105v-18q143 -11 236.5 -108t93.5 -236q0 -190 -134 -301.5t-365 -111.5zM477 1212v-367h227
q122 0 187 48t65 135t-59.5 135.5t-167.5 48.5h-252zM477 231h269q130 0 199 53.5t69 154.5q0 99 -70.5 150.5t-204.5 51.5h-262v-410z" />
    <glyph glyph-name="bdotbelow" unicode="&#x1e05;" horiz-adv-x="1334" 
d="M655 -419q-71 0 -114 39.5t-43 100.5t43.5 100t113.5 39t113.5 -39t43.5 -100t-43 -100.5t-114 -39.5zM796 -17q-117 0 -206.5 50t-133.5 140h-18v-173h-282v1524h291v-597h18q42 91 130 142.5t201 51.5q209 0 328 -151t119 -418q0 -265 -119.5 -417t-327.5 -152z
M695 877q-115 0 -182.5 -87.5t-68.5 -238.5q1 -150 68.5 -237.5t182.5 -87.5q116 0 182.5 87t66.5 239q0 151 -67 238t-182 87z" />
    <glyph glyph-name="Blinebelow" unicode="&#x1e06;" horiz-adv-x="1420" 
d="M823 0h-648v1443h631q209 0 328 -96t119 -264q0 -115 -75 -203t-186 -105v-18q143 -11 236.5 -108t93.5 -236q0 -190 -134 -301.5t-365 -111.5zM477 1212v-367h227q122 0 187 48t65 135t-59.5 135.5t-167.5 48.5h-252zM477 231h269q130 0 199 53.5t69 154.5
q0 99 -70.5 150.5t-204.5 51.5h-262v-410zM1016 -401h-746v181h746v-181z" />
    <glyph glyph-name="blinebelow" unicode="&#x1e07;" horiz-adv-x="1334" 
d="M1028 -401h-746v181h746v-181zM796 -17q-117 0 -206.5 50t-133.5 140h-18v-173h-282v1524h291v-597h18q42 91 130 142.5t201 51.5q209 0 328 -151t119 -418q0 -265 -119.5 -417t-327.5 -152zM695 877q-115 0 -182.5 -87.5t-68.5 -238.5q1 -150 68.5 -237.5t182.5 -87.5
q116 0 182.5 87t66.5 239q0 151 -67 238t-182 87z" />
    <glyph glyph-name="Ccedillaacute" unicode="&#x1e08;" horiz-adv-x="1518" 
d="M1239 1909l-314 -318h-278l277 318h315zM1121 490h294q-17 -214 -165 -356.5t-377 -166.5l-33 -79q95 -5 145.5 -50.5t50.5 -126.5q0 -96 -70 -150t-197 -54q-84 0 -147 17v135q37 -14 116 -14q112 0 112 59q0 29 -30.5 42.5t-99.5 13.5h-60v115l39 93
q-275 29 -431.5 228.5t-156.5 525.5q0 352 181.5 555t495.5 203q256 0 432.5 -152.5t193.5 -388.5h-294q-22 125 -112.5 200t-219.5 75q-170 0 -269 -132t-99 -360t99 -360.5t270 -132.5q130 0 220 71t112 190z" />
    <glyph glyph-name="ccedillaacute" unicode="&#x1e09;" horiz-adv-x="1203" 
d="M1031 1634l-287 -353h-269l247 353h309zM1122 714h-272q-15 81 -71.5 127.5t-147.5 46.5q-118 0 -181.5 -86t-63.5 -248q0 -164 63.5 -251.5t181.5 -87.5q90 0 146.5 43t72.5 124h272q-16 -166 -121 -272t-279 -128l-39 -94q95 -5 145.5 -50.5t50.5 -126.5
q0 -96 -70 -150t-197 -54q-84 0 -147 17v135q37 -14 116 -14q112 0 112 59q0 29 -30.5 42.5t-99.5 13.5h-60v115l44 105q-219 24 -337 172t-118 402q0 275 140 424t399 149q216 0 344.5 -111t146.5 -302z" />
    <glyph glyph-name="Ddotaccent" unicode="&#x1e0a;" horiz-adv-x="1530" 
d="M639 1579q-69 0 -113.5 45t-44.5 113t44.5 113t113.5 45t113 -45t44 -113t-44 -113t-113 -45zM175 1444h568q322 0 499.5 -186.5t177.5 -525.5q0 -351 -176.5 -541.5t-500.5 -190.5h-568v1444zM477 1186v-928h218q201 0 309 120.5t108 348.5q0 218 -110 338.5t-307 120.5
h-218z" />
    <glyph glyph-name="ddotaccent" unicode="&#x1e0b;" horiz-adv-x="1334" 
d="M1033 1660q-69 0 -113.5 45t-44.5 113t44.5 113t113.5 45t113 -45t44 -113t-44 -113t-113 -45zM541 -17q-208 0 -328.5 153t-120.5 417q0 263 120.5 415.5t328.5 152.5q112 0 199 -51.5t130 -142.5h17v597h291v-1524h-282v173h-18q-44 -89 -133 -139.5t-204 -50.5z
M640 877q-116 0 -182.5 -86.5t-66.5 -238.5q0 -153 66 -239.5t183 -86.5t183.5 86.5t66.5 238.5q0 151 -67 238.5t-183 87.5z" />
    <glyph glyph-name="Ddotbelow" unicode="&#x1e0c;" horiz-adv-x="1530" 
d="M639 -419q-71 0 -114 39.5t-43 100.5t43.5 100t113.5 39t113.5 -39t43.5 -100t-43 -100.5t-114 -39.5zM175 1444h568q322 0 499.5 -186.5t177.5 -525.5q0 -351 -176.5 -541.5t-500.5 -190.5h-568v1444zM477 1186v-928h218q201 0 309 120.5t108 348.5q0 218 -110 338.5
t-307 120.5h-218z" />
    <glyph glyph-name="ddotbelow" unicode="&#x1e0d;" horiz-adv-x="1334" 
d="M697 -419q-71 0 -114 39.5t-43 100.5t43.5 100t113.5 39t113.5 -39t43.5 -100t-43 -100.5t-114 -39.5zM541 -17q-208 0 -328.5 153t-120.5 417q0 263 120.5 415.5t328.5 152.5q112 0 199 -51.5t130 -142.5h17v597h291v-1524h-282v173h-18q-44 -89 -133 -139.5t-204 -50.5
zM640 877q-116 0 -182.5 -86.5t-66.5 -238.5q0 -153 66 -239.5t183 -86.5t183.5 86.5t66.5 238.5q0 151 -67 238.5t-183 87.5z" />
    <glyph glyph-name="Dlinebelow" unicode="&#x1e0e;" horiz-adv-x="1530" 
d="M1012 -401h-746v181h746v-181zM175 1444h568q322 0 499.5 -186.5t177.5 -525.5q0 -351 -176.5 -541.5t-500.5 -190.5h-568v1444zM477 1186v-928h218q201 0 309 120.5t108 348.5q0 218 -110 338.5t-307 120.5h-218z" />
    <glyph glyph-name="dlinebelow" unicode="&#x1e0f;" horiz-adv-x="1334" 
d="M1070 -401h-746v181h746v-181zM541 -17q-208 0 -328.5 153t-120.5 417q0 263 120.5 415.5t328.5 152.5q112 0 199 -51.5t130 -142.5h17v597h291v-1524h-282v173h-18q-44 -89 -133 -139.5t-204 -50.5zM640 877q-116 0 -182.5 -86.5t-66.5 -238.5q0 -153 66 -239.5
t183 -86.5t183.5 86.5t66.5 238.5q0 151 -67 238.5t-183 87.5z" />
    <glyph glyph-name="Dcommaaccent" unicode="&#x1e10;" horiz-adv-x="1530" 
d="M633 -509h-258l132 358h292zM175 1444h568q322 0 499.5 -186.5t177.5 -525.5q0 -351 -176.5 -541.5t-500.5 -190.5h-568v1444zM477 1186v-928h218q201 0 309 120.5t108 348.5q0 218 -110 338.5t-307 120.5h-218z" />
    <glyph glyph-name="dcommaaccent" unicode="&#x1e11;" horiz-adv-x="1334" 
d="M691 -509h-258l132 358h292zM541 -17q-208 0 -328.5 153t-120.5 417q0 263 120.5 415.5t328.5 152.5q112 0 199 -51.5t130 -142.5h17v597h291v-1524h-282v173h-18q-44 -89 -133 -139.5t-204 -50.5zM640 877q-116 0 -182.5 -86.5t-66.5 -238.5q0 -153 66 -239.5t183 -86.5
t183.5 86.5t66.5 238.5q0 151 -67 238.5t-183 87.5z" />
    <glyph glyph-name="Dcircumflexbelow" unicode="&#x1e12;" horiz-adv-x="1530" 
d="M175 1444h568q322 0 499.5 -186.5t177.5 -525.5q0 -351 -176.5 -541.5t-500.5 -190.5h-568v1444zM477 1186v-928h218q201 0 309 120.5t108 348.5q0 218 -110 338.5t-307 120.5h-218zM787 -152l286 -280h-284l-141 153h-18l-141 -153h-284l286 280h296z" />
    <glyph glyph-name="dcircumflexbelow" unicode="&#x1e13;" horiz-adv-x="1334" 
d="M541 -17q-208 0 -328.5 153t-120.5 417q0 263 120.5 415.5t328.5 152.5q112 0 199 -51.5t130 -142.5h17v597h291v-1524h-282v173h-18q-44 -89 -133 -139.5t-204 -50.5zM640 877q-116 0 -182.5 -86.5t-66.5 -238.5q0 -153 66 -239.5t183 -86.5t183.5 86.5t66.5 238.5
q0 151 -67 238.5t-183 87.5zM845 -152l286 -280h-284l-141 153h-18l-141 -153h-284l286 280h296z" />
    <glyph glyph-name="Emacrongrave" unicode="&#x1e14;" horiz-adv-x="1274" 
d="M1026 1611h-746v178h746v-178zM775 1915h-255l-189 264h285zM1131 258v-258h-956v1443h956v-258h-654v-337h617v-239h-617v-351h654z" />
    <glyph glyph-name="emacrongrave" unicode="&#x1e15;" horiz-adv-x="1231" 
d="M623 904q-101 0 -166.5 -65t-73.5 -172h470q-5 110 -66.5 173.5t-163.5 63.5zM859 314h271q-33 -157 -167.5 -247.5t-336.5 -90.5q-252 0 -393 150.5t-141 419.5t142 425t388 156q244 0 380.5 -147t136.5 -410v-89h-757v-15q3 -123 70.5 -194.5t181.5 -71.5
q86 0 144 29.5t81 84.5zM761 1637h-252l-251 308h291zM990 1306h-735v180h735v-180z" />
    <glyph glyph-name="Emacronacute" unicode="&#x1e16;" horiz-adv-x="1274" 
d="M1026 1611h-746v178h746v-178zM531 1915l159 264h285l-189 -264h-255zM1131 258v-258h-956v1443h956v-258h-654v-337h617v-239h-617v-351h654z" />
    <glyph glyph-name="emacronacute" unicode="&#x1e17;" horiz-adv-x="1231" 
d="M623 904q-101 0 -166.5 -65t-73.5 -172h470q-5 110 -66.5 173.5t-163.5 63.5zM859 314h271q-33 -157 -167.5 -247.5t-336.5 -90.5q-252 0 -393 150.5t-141 419.5t142 425t388 156q244 0 380.5 -147t136.5 -410v-89h-757v-15q3 -123 70.5 -194.5t181.5 -71.5
q86 0 144 29.5t81 84.5zM483 1637l212 308h291l-251 -308h-252zM990 1306h-735v180h735v-180z" />
    <glyph glyph-name="Ecircumflexbelow" unicode="&#x1e18;" horiz-adv-x="1274" 
d="M1131 258v-258h-956v1443h956v-258h-654v-337h617v-239h-617v-351h654zM801 -152l286 -280h-284l-141 153h-18l-141 -153h-284l286 280h296z" />
    <glyph glyph-name="ecircumflexbelow" unicode="&#x1e19;" horiz-adv-x="1231" 
d="M623 904q-101 0 -166.5 -65t-73.5 -172h470q-5 110 -66.5 173.5t-163.5 63.5zM859 314h271q-33 -157 -167.5 -247.5t-336.5 -90.5q-252 0 -393 150.5t-141 419.5t142 425t388 156q244 0 380.5 -147t136.5 -410v-89h-757v-15q3 -123 70.5 -194.5t181.5 -71.5
q86 0 144 29.5t81 84.5zM774 -152l286 -280h-284l-141 153h-18l-141 -153h-284l286 280h296z" />
    <glyph glyph-name="Etildebelow" unicode="&#x1e1a;" horiz-adv-x="1274" 
d="M812 -428q-54 0 -100 21t-72 45.5t-59.5 45.5t-65.5 21q-82 0 -85 -117h-183q0 140 68 216t179 76q46 0 85.5 -13.5t66 -33t49.5 -39t47.5 -33t48.5 -13.5q82 0 86 113h182q0 -137 -68 -213t-179 -76zM1131 258v-258h-956v1443h956v-258h-654v-337h617v-239h-617v-351
h654z" />
    <glyph glyph-name="etildebelow" unicode="&#x1e1b;" horiz-adv-x="1231" 
d="M785 -428q-54 0 -100 21t-72 45.5t-59.5 45.5t-65.5 21q-82 0 -85 -117h-183q0 140 68 216t179 76q46 0 85.5 -13.5t66 -33t49.5 -39t47.5 -33t48.5 -13.5q82 0 86 113h182q0 -137 -68 -213t-179 -76zM623 904q-101 0 -166.5 -65t-73.5 -172h470q-5 110 -66.5 173.5
t-163.5 63.5zM859 314h271q-33 -157 -167.5 -247.5t-336.5 -90.5q-252 0 -393 150.5t-141 419.5t142 425t388 156q244 0 380.5 -147t136.5 -410v-89h-757v-15q3 -123 70.5 -194.5t181.5 -71.5q86 0 144 29.5t81 84.5z" />
    <glyph glyph-name="Ecedillabreve" unicode="&#x1e1c;" horiz-adv-x="1274" 
d="M845 1915h208q0 -150 -108.5 -243t-291.5 -93t-291.5 93t-108.5 243h208q2 -75 53.5 -119.5t138.5 -44.5t138.5 44.5t53.5 119.5zM1131 1185h-654v-337h617v-239h-617v-351h654v-258h-380l-46 -112q95 -5 145.5 -50.5t50.5 -126.5q0 -96 -70 -150t-197 -54q-84 0 -147 17
v135q37 -14 116 -14q112 0 112 59q0 29 -30.5 42.5t-99.5 13.5h-60v115l52 125h-402v1443h956v-258z" />
    <glyph glyph-name="ecedillabreve" unicode="&#x1e1d;" horiz-adv-x="1231" 
d="M813 1602h208q0 -156 -108.5 -253.5t-291.5 -97.5t-291 97.5t-108 253.5h207q2 -81 53 -129.5t139 -48.5t139 48.5t53 129.5zM383 667h470q-5 110 -66.5 173.5t-163.5 63.5q-101 0 -166.5 -65t-73.5 -172zM1139 481h-757v-15q3 -123 70.5 -194.5t181.5 -71.5
q86 0 144 29.5t81 84.5h271q-29 -138 -138 -225.5t-276 -107.5l-38 -93q95 -5 145.5 -50.5t50.5 -126.5q0 -96 -70 -150t-197 -54q-84 0 -147 17v135q37 -14 116 -14q112 0 112 59q0 29 -30.5 42.5t-99.5 13.5h-60v115l44 106q-214 25 -332 172.5t-118 392.5q0 269 142 425
t388 156q244 0 380.5 -147t136.5 -410v-89z" />
    <glyph glyph-name="Fdotaccent" unicode="&#x1e1e;" horiz-adv-x="1224" 
d="M648 1579q-69 0 -113.5 45t-44.5 113t44.5 113t113.5 45t113 -45t44 -113t-44 -113t-113 -45zM477 0h-302v1443h945v-258h-643v-376h587v-247h-587v-562z" />
    <glyph glyph-name="fdotaccent" unicode="&#x1e1f;" horiz-adv-x="828" 
d="M462 1629q-69 0 -113.5 45t-44.5 113t44.5 113t113.5 45t113 -45t44 -113t-44 -113t-113 -45zM229 0v863h-175v229h175v111q0 166 89 239t285 73q75 0 146 -11v-209q-44 8 -95 8q-140 0 -140 -121v-90h231v-229h-225v-863h-291z" />
    <glyph glyph-name="Gmacron" unicode="&#x1e20;" horiz-adv-x="1557" 
d="M1443 589q0 -289 -172 -457.5t-468 -168.5q-322 0 -507 203t-185 557q0 349 185 553t500 204q256 0 429 -136t205 -361h-300q-34 110 -121 170.5t-213 60.5q-175 0 -275.5 -130.5t-100.5 -357.5q0 -231 104.5 -364t283.5 -133q148 0 242 80t99 211l1 26h-313v227h606
v-184zM1169 1633h-746v181h746v-181z" />
    <glyph glyph-name="gmacron" unicode="&#x1e21;" horiz-adv-x="1322" 
d="M1012 1316h-735v180h735v-180zM888 561q0 146 -67.5 231t-184.5 85t-182.5 -84.5t-65.5 -230.5q0 -147 65 -231.5t183 -84.5t185 84.5t67 230.5zM632 -418q-218 0 -354.5 88.5t-150.5 234.5h288q11 -51 70 -81t153 -30q117 0 182 51.5t65 144.5v204h-18
q-94 -178 -332 -178q-206 0 -326 147.5t-120 397.5q0 257 121.5 408.5t330.5 151.5q112 0 201.5 -52t133.5 -143h18v177h282v-1099q0 -194 -147 -308t-397 -114z" />
    <glyph glyph-name="Hdotaccent" unicode="&#x1e22;" horiz-adv-x="1604" 
d="M1429 0h-302v603h-650v-603h-302v1443h302v-582h650v582h302v-1443zM802 1579q-69 0 -113.5 45t-44.5 113t44.5 113t113.5 45t113 -45t44 -113t-44 -113t-113 -45z" />
    <glyph glyph-name="hdotaccent" unicode="&#x1e23;" horiz-adv-x="1332" 
d="M156 0v1524h286v-602h18q38 94 131 148t215 54q185 0 287.5 -108t102.5 -306v-710h-291v641q0 114 -55.5 173t-160.5 59q-109 0 -175.5 -66t-66.5 -174v-633h-291zM299 1660q-69 0 -113.5 45t-44.5 113t44.5 113t113.5 45t113 -45t44 -113t-44 -113t-113 -45z" />
    <glyph glyph-name="Hdotbelow" unicode="&#x1e24;" horiz-adv-x="1604" 
d="M1429 0h-302v603h-650v-603h-302v1443h302v-582h650v582h302v-1443zM802 -419q-71 0 -114 39.5t-43 100.5t43.5 100t113.5 39t113.5 -39t43.5 -100t-43 -100.5t-114 -39.5z" />
    <glyph glyph-name="hdotbelow" unicode="&#x1e25;" horiz-adv-x="1332" 
d="M156 0v1524h286v-602h18q38 94 131 148t215 54q185 0 287.5 -108t102.5 -306v-710h-291v641q0 114 -55.5 173t-160.5 59q-109 0 -175.5 -66t-66.5 -174v-633h-291zM679 -419q-71 0 -114 39.5t-43 100.5t43.5 100t113.5 39t113.5 -39t43.5 -100t-43 -100.5t-114 -39.5z
" />
    <glyph glyph-name="Hdieresis" unicode="&#x1e26;" horiz-adv-x="1604" 
d="M1429 0h-302v603h-650v-603h-302v1443h302v-582h650v582h302v-1443zM568 1579q-67 0 -111 43t-44 109t43.5 108.5t111.5 42.5t111.5 -42.5t43.5 -108.5t-44 -109t-111 -43zM1036 1579q-67 0 -111 43t-44 109t44 108.5t111 42.5q68 0 112 -42.5t44 -108.5t-44 -109
t-112 -43z" />
    <glyph glyph-name="hdieresis" unicode="&#x1e27;" horiz-adv-x="1332" 
d="M156 0v1524h286v-602h18q38 94 131 148t215 54q185 0 287.5 -108t102.5 -306v-710h-291v641q0 114 -55.5 173t-160.5 59q-109 0 -175.5 -66t-66.5 -174v-633h-291zM65 1660q-67 0 -111 43t-44 109t43.5 108.5t111.5 42.5t111.5 -42.5t43.5 -108.5t-44 -109t-111 -43z
M533 1660q-67 0 -111 43t-44 109t44 108.5t111 42.5q68 0 112 -42.5t44 -108.5t-44 -109t-112 -43z" />
    <glyph glyph-name="Hcedilla" unicode="&#x1e28;" horiz-adv-x="1604" 
d="M175 1443h302v-582h650v582h302v-1443h-302v603h-650v-597l-49 -119q95 -5 146 -50.5t51 -126.5q0 -96 -70 -150t-197 -54q-86 0 -147 17v135q37 -14 116 -14q111 0 111 59q0 29 -30.5 42.5t-99.5 13.5h-60v115l53 126h-126v1443z" />
    <glyph glyph-name="hcedilla" unicode="&#x1e29;" horiz-adv-x="1332" 
d="M156 1524h286v-602h18q38 93 130.5 147.5t215.5 54.5q186 0 288 -108.5t102 -305.5v-710h-291v641q0 113 -55 172.5t-161 59.5q-109 0 -175.5 -66.5t-66.5 -173.5v-627l-52 -124q92 -2 145.5 -49.5t53.5 -127.5q0 -97 -69 -151t-198 -54q-88 0 -147 18v134
q40 -14 116 -14q112 0 112 57q0 32 -29 45t-101 13h-60v116l57 131h-119v1524z" />
    <glyph glyph-name="Hbrevebelow" unicode="&#x1e2a;" horiz-adv-x="1604" 
d="M402 -105h210q0 -69 51 -112t139 -43t139 43t51 112h210q0 -139 -107.5 -229t-292.5 -90t-292.5 90t-107.5 229zM1429 0h-302v603h-650v-603h-302v1443h302v-582h650v582h302v-1443z" />
    <glyph glyph-name="hbrevebelow" unicode="&#x1e2b;" horiz-adv-x="1332" 
d="M279 -105h210q0 -69 51 -112t139 -43t139 43t51 112h210q0 -139 -107.5 -229t-292.5 -90t-292.5 90t-107.5 229zM156 0v1524h286v-602h18q38 94 131 148t215 54q185 0 287.5 -108t102.5 -306v-710h-291v641q0 114 -55.5 173t-160.5 59q-109 0 -175.5 -66t-66.5 -174v-633
h-291z" />
    <glyph glyph-name="Itildebelow" unicode="&#x1e2c;" horiz-adv-x="652" 
d="M477 0h-302v1443h302v-1443zM485 -428q-54 0 -100 21t-72 45.5t-59.5 45.5t-65.5 21q-82 0 -85 -117h-183q0 140 68 216t179 76q46 0 85.5 -13.5t66 -33t49.5 -39t47.5 -33t48.5 -13.5q82 0 86 113h182q0 -137 -68 -213t-179 -76z" />
    <glyph glyph-name="itildebelow" unicode="&#x1e2d;" horiz-adv-x="587" 
d="M148 0v1103h291v-1103h-291zM294 1257q-78 0 -125 41t-47 106q0 66 47 106.5t125 40.5t125 -40.5t47 -106.5q0 -65 -47.5 -106t-124.5 -41zM453 -428q-54 0 -100 21t-72 45.5t-59.5 45.5t-65.5 21q-82 0 -85 -117h-183q0 140 68 216t179 76q46 0 85.5 -13.5t66 -33
t49.5 -39t47.5 -33t48.5 -13.5q82 0 86 113h182q0 -137 -68 -213t-179 -76z" />
    </font>
</defs>
</svg>
