<svg width="81" height="64" viewBox="0 0 81 64" fill="none" xmlns="http://www.w3.org/2000/svg">
<path d="M39.6798 63.4914C61.2179 63.4914 78.678 62.472 78.678 61.2146C78.678 59.9571 61.2179 58.9377 39.6798 58.9377C18.1417 58.9377 0.681641 59.9571 0.681641 61.2146C0.681641 62.472 18.1417 63.4914 39.6798 63.4914Z" fill="#F5F5F5"/>
<path d="M17.116 6.83555C15.4949 8.46676 18.2505 10.9991 16.4302 12.1616C17.9166 12.9078 23.126 13.8552 24.4756 10.9206C23.492 10.1563 24.1759 8.27769 23.2688 6.47351C21.9111 3.7984 15.4949 4.98309 17.116 6.83555Z" fill="#263238"/>
<path d="M17.2631 6.7933C16.7582 6.70883 15.0506 7.55762 16.3218 9.83649C17.3455 11.6789 16.4927 11.8096 16.4927 11.8096C16.4927 11.8096 17.4984 11.8378 16.895 10.4681C16.2554 9.0058 15.9557 7.48923 17.2631 6.7933Z" fill="#263238"/>
<path d="M29.2204 21.263C29.1582 21.1492 29.0538 21.0643 28.9297 21.0267C28.8055 20.9891 28.6716 21.0017 28.5567 21.0619L28.438 21.1242C28.3998 21.1443 28.3274 21.1926 28.269 21.2268C28.2107 21.261 28.1423 21.2992 28.078 21.3314C27.9511 21.3952 27.8201 21.4503 27.6857 21.4963C27.4371 21.5864 27.1757 21.636 26.9114 21.6432C26.6686 21.646 26.4271 21.6072 26.1973 21.5285C26.0514 21.4743 25.9107 21.407 25.777 21.3274C25.604 20.9452 25.4391 20.559 25.2983 20.1608C25.1273 19.6962 24.9764 19.2215 24.8437 18.7408C24.7109 18.2601 24.5943 17.7733 24.4977 17.2845C24.4475 17.0412 24.4032 16.7958 24.363 16.5524L24.3087 16.1884C24.2906 16.0717 24.2745 15.9389 24.2644 15.8464V15.8062C24.2378 15.5395 24.1062 15.2943 23.8988 15.1245C23.6913 14.9548 23.4249 14.8744 23.1582 14.9011C22.8915 14.9278 22.6463 15.0593 22.4765 15.2668C22.3068 15.4742 22.2264 15.7406 22.2531 16.0073C22.2671 16.1783 22.2792 16.309 22.2973 16.4518C22.3154 16.5947 22.3355 16.7314 22.3556 16.8702C22.3999 17.1478 22.4502 17.4213 22.5065 17.6949C22.6183 18.2384 22.7593 18.7756 22.9289 19.3039C23.0073 19.5694 23.1039 19.8309 23.1944 20.0944C23.2849 20.3579 23.3955 20.6154 23.5102 20.8708C23.7297 21.3869 23.9788 21.8899 24.2564 22.3773L24.2805 22.4215C24.3527 22.5525 24.4609 22.66 24.5923 22.7313C24.9725 22.9385 25.3832 23.0838 25.8091 23.1617C26.2466 23.239 26.6949 23.2294 27.1286 23.1336C27.7408 22.9916 28.3031 22.6864 28.7558 22.2506C28.8302 22.1822 28.9006 22.1118 28.9569 22.0374C29.0132 21.963 29.0816 21.8926 29.1581 21.788C29.217 21.7153 29.2542 21.6274 29.2652 21.5345C29.2763 21.4416 29.2607 21.3475 29.2204 21.263Z" fill="#FF8B7B"/>
<path d="M30.558 19.3804H30.4996C30.3071 19.3763 30.1162 19.4166 29.9418 19.4982C29.7674 19.5799 29.6141 19.7006 29.4939 19.851L28.5225 21.0699V21.9026C29.3029 22.2124 30.2925 21.3777 30.2925 21.3777L30.7933 21.2509C30.9618 21.2089 31.1088 21.1058 31.2058 20.9617C31.3028 20.8175 31.3428 20.6425 31.3182 20.4705L31.2458 19.9818C31.2222 19.8158 31.1398 19.6637 31.0136 19.5534C30.8873 19.443 30.7256 19.3816 30.558 19.3804Z" fill="#FF8B7B"/>
<path d="M24.2387 14.6798C24.8884 15.3476 24.9286 17.3409 24.9286 17.3409L22.3299 19.4327C22.3299 19.4327 21.2619 16.476 21.8532 15.4321C22.354 14.5471 23.41 13.829 24.2387 14.6798Z" fill="#407BFF"/>
<g opacity="0.2">
<path opacity="0.2" d="M24.2387 14.6798C24.8884 15.3476 24.9286 17.3409 24.9286 17.3409L22.3299 19.4327C22.3299 19.4327 21.2619 16.476 21.8532 15.4321C22.354 14.5471 23.41 13.829 24.2387 14.6798Z" fill="white"/>
</g>
<path d="M19.938 59.4908L21.3741 59.6477L21.5712 55.7457L20.1351 55.5868L19.938 59.4908Z" fill="#FF8B7B"/>
<path d="M21.6097 58.7104H19.9222C19.8882 58.7093 19.8551 58.7215 19.8299 58.7444C19.8048 58.7673 19.7895 58.7992 19.7874 58.8331L19.6748 60.4281C19.6748 60.5116 19.7074 60.5917 19.7656 60.6515C19.8239 60.7112 19.9032 60.7459 19.9866 60.748C20.6986 60.748 20.7066 60.748 21.5957 60.748H23.9912C24.7273 60.748 24.7294 60.0017 24.4116 59.9333C22.9815 59.6316 22.4243 59.2133 21.9195 58.815C21.8308 58.7466 21.7218 58.7098 21.6097 58.7104Z" fill="#263238"/>
<path opacity="0.2" d="M21.5711 55.7477L21.4686 57.7591H20.0244L20.135 55.5888L21.5711 55.7477Z" fill="black"/>
<path d="M22.3459 24.6139C22.3459 24.6139 23.5889 35.0187 23.5889 39.6448C22.6094 46.0811 21.7787 57.3769 21.7787 57.3769L19.7915 57.3246C19.7915 57.3246 18.8884 45.0232 19.7251 39.7112C18.6531 34.9523 17.3296 23.9703 17.3296 23.9703L22.3459 24.6139Z" fill="#263238"/>
<path opacity="0.2" d="M18.5141 27.5103C18.2772 27.6145 18.0474 27.7341 17.8262 27.8683C18.0997 29.9219 18.4598 32.5065 18.8419 34.892C19.4936 32.9289 19.1416 28.6125 18.5141 27.5103Z" fill="black"/>
<path d="M4.38623 55.8684L5.57092 56.6951L7.61446 53.3642L6.42977 52.5376L4.38623 55.8684Z" fill="#FF8B7B"/>
<path d="M5.87068 56.2586L4.865 54.905C4.84585 54.8772 4.81658 54.8581 4.78348 54.8517C4.75039 54.8453 4.7161 54.8522 4.688 54.8708L3.34039 55.7356C3.27316 55.7851 3.22809 55.859 3.21492 55.9415C3.20175 56.0239 3.22153 56.1082 3.26999 56.1761C3.69037 56.7494 3.69841 56.7534 4.2274 57.4654C4.55525 57.9019 5.20894 58.7808 5.65948 59.3862C6.11003 59.9917 6.69935 59.5331 6.56258 59.2354C5.95918 57.9099 5.95918 57.224 5.97124 56.5724C5.9733 56.4595 5.93793 56.3492 5.87068 56.2586Z" fill="#263238"/>
<path opacity="0.2" d="M7.61261 53.3642L6.56067 55.0819L5.2915 54.39L6.42993 52.5376L7.61261 53.3642Z" fill="black"/>
<path d="M11.6532 57.2643C10.6254 57.2643 8.48533 57.2643 8.44913 55.7517C8.42097 54.565 9.88926 54.0722 11.1564 54.0119C11.2968 54.0051 11.4372 54.0261 11.5695 54.0736C11.7017 54.1211 11.8234 54.1942 11.9274 54.2887C12.0315 54.3832 12.1159 54.4973 12.1758 54.6244C12.2357 54.7516 12.27 54.8893 12.2767 55.0297V55.1101C13.7129 55.0417 14.6421 54.7279 14.982 54.1929C15.7483 52.9861 14.2801 49.8705 12.862 46.8595C11.1926 43.3175 9.30194 39.3049 9.26574 35.4612C9.26441 35.3207 9.29078 35.1812 9.34333 35.0509C9.39588 34.9206 9.47359 34.8019 9.57202 34.7016C9.67045 34.6013 9.78767 34.5214 9.917 34.4664C10.0463 34.4114 10.1852 34.3824 10.3257 34.3811C10.6076 34.3816 10.878 34.4931 11.0783 34.6915C11.2785 34.8899 11.3926 35.1592 11.3958 35.4411C11.4279 38.8161 13.206 42.6035 14.7869 45.9464C16.5971 49.8042 18.1761 53.137 16.7782 55.3394C15.9676 56.6347 14.2881 57.2643 11.6532 57.2643Z" fill="#407BFF"/>
<path d="M20.7547 24.4088C20.7547 24.4088 17.3233 36.2999 15.6479 40.6123C12.4015 46.2561 7.01512 54.8929 7.01512 54.8929L5.29541 53.8872C5.29541 53.8872 9.31812 43.9109 12.0234 39.2646C12.7495 34.4374 15.495 23.7249 15.495 23.7249L20.7547 24.4088Z" fill="#263238"/>
<path d="M6.18076 57.2301C6.24901 57.3431 6.35415 57.429 6.47844 57.4735C6.51482 57.4822 6.55292 57.4806 6.58845 57.4689C6.62399 57.4572 6.65554 57.4358 6.67958 57.4071C6.6963 57.3917 6.70906 57.3725 6.71677 57.3512C6.72447 57.3298 6.72689 57.3069 6.72383 57.2844C6.69969 57.043 6.07617 56.7293 5.95146 56.6689C5.9442 56.666 5.9361 56.6658 5.92869 56.6684C5.92128 56.6709 5.91507 56.6762 5.91124 56.683C5.90639 56.6905 5.90381 56.6992 5.90381 56.7081C5.90381 56.7171 5.90639 56.7258 5.91124 56.7333C5.9851 56.9071 6.07534 57.0734 6.18076 57.2301ZM6.60918 57.2301C6.62689 57.2523 6.63865 57.2786 6.64337 57.3065C6.64434 57.3143 6.64338 57.3223 6.64058 57.3296C6.63777 57.337 6.63321 57.3436 6.62728 57.3488C6.61106 57.3672 6.59022 57.3811 6.56689 57.3888C6.54357 57.3966 6.5186 57.3981 6.49453 57.393C6.36178 57.3669 6.18679 57.1517 6.01784 56.8117C6.2369 56.9138 6.43689 57.0526 6.60918 57.2221V57.2301Z" fill="#407BFF"/>
<path d="M5.90076 56.7413L5.91283 56.7514C6.11397 56.862 6.63692 56.9525 6.75157 56.7856C6.77081 56.7551 6.78017 56.7194 6.77837 56.6834C6.77657 56.6474 6.7637 56.6128 6.74151 56.5844C6.54037 56.2284 5.93697 56.6468 5.91082 56.6649C5.90482 56.6697 5.90005 56.6758 5.8969 56.6828C5.89376 56.6898 5.89232 56.6975 5.89272 56.7051C5.8919 56.7177 5.89469 56.7303 5.90076 56.7413ZM6.66508 56.6247C6.67094 56.6317 6.67631 56.6391 6.68117 56.6468C6.70329 56.685 6.70732 56.7132 6.69525 56.7293C6.62887 56.8258 6.24269 56.7916 6.01742 56.7031C6.16827 56.6126 6.52026 56.4296 6.66508 56.6247Z" fill="#407BFF"/>
<path d="M22.5831 59.0423C22.7149 59.0543 22.8469 59.021 22.9572 58.9478C22.9852 58.9233 23.0058 58.8915 23.0168 58.856C23.0278 58.8205 23.0288 58.7827 23.0195 58.7467C23.0167 58.7239 23.0086 58.7022 22.9961 58.683C22.9836 58.6638 22.9668 58.6478 22.9471 58.636C22.746 58.5133 22.1164 58.8251 21.9938 58.8895C21.9868 58.8933 21.9815 58.8994 21.9785 58.9067C21.9756 58.914 21.9753 58.9222 21.9777 58.9297C21.9807 58.9381 21.9858 58.9456 21.9925 58.9516C21.9991 58.9575 22.0072 58.9618 22.0159 58.9639C22.2018 59.0093 22.3918 59.0356 22.5831 59.0423ZM22.8325 58.6944C22.8611 58.6925 22.8897 58.6988 22.915 58.7125C22.925 58.7125 22.9351 58.7265 22.9391 58.7507C22.9443 58.7747 22.943 58.7998 22.9352 58.8231C22.9274 58.8465 22.9135 58.8673 22.8948 58.8834C22.7963 58.9739 22.5187 58.986 22.1446 58.9196C22.356 58.8063 22.5853 58.7301 22.8224 58.6944H22.8325Z" fill="#407BFF"/>
<path d="M22.0161 58.9739H22.0302C22.2313 58.8814 22.6235 58.5133 22.5592 58.3223C22.5458 58.2907 22.5234 58.2637 22.4947 58.2448C22.4661 58.2258 22.4326 58.2157 22.3983 58.2157C21.996 58.1694 21.9678 58.8975 21.9658 58.9277C21.9659 58.9357 21.9679 58.9436 21.9718 58.9506C21.9757 58.9576 21.9812 58.9636 21.9879 58.9679C21.9965 58.9727 22.0063 58.9748 22.0161 58.9739ZM22.3781 58.2901H22.4063C22.4485 58.2901 22.4747 58.3082 22.4807 58.3283C22.5189 58.4389 22.2615 58.7306 22.0543 58.8573C22.0724 58.6823 22.1368 58.2901 22.3822 58.2901H22.3781Z" fill="#407BFF"/>
<path d="M15.4951 23.735L22.3458 24.6119C23.8905 19.4105 24.3994 16.8984 24.5362 15.6895C24.5724 15.3857 24.5013 15.0788 24.3353 14.8217C24.1694 14.5647 23.9188 14.3736 23.627 14.2816C23.2248 14.1529 22.7058 14 22.1909 13.8793C22.0159 13.8331 21.8369 13.7908 21.6619 13.7506C20.6363 13.5425 19.5972 13.4081 18.5524 13.3483C18.3975 13.3342 18.2446 13.3262 18.0898 13.3182C17.7861 13.3021 17.4864 13.298 17.2128 13.298C17.0075 13.2978 16.8044 13.3403 16.6164 13.4229C16.4285 13.5055 16.2597 13.6263 16.1211 13.7777C15.9824 13.9291 15.8767 14.1077 15.8108 14.3021C15.745 14.4966 15.7203 14.7026 15.7385 14.9071C15.7928 15.5105 15.835 16.0717 15.8672 16.5866C15.9437 17.7934 15.9678 18.7589 15.9497 19.6036C15.9086 20.9907 15.7566 22.3722 15.4951 23.735Z" fill="#407BFF"/>
<g opacity="0.3">
<path opacity="0.3" d="M15.4951 23.735L22.3458 24.6119C23.8905 19.4105 24.3994 16.8984 24.5362 15.6895C24.5724 15.3857 24.5013 15.0788 24.3353 14.8217C24.1694 14.5647 23.9188 14.3736 23.627 14.2816C23.2248 14.1529 22.7058 14 22.1909 13.8793C22.0159 13.8331 21.8369 13.7908 21.6619 13.7506C20.6363 13.5425 19.5972 13.4081 18.5524 13.3483C18.3975 13.3342 18.2446 13.3262 18.0898 13.3182C17.7861 13.3021 17.4864 13.298 17.2128 13.298C17.0075 13.2978 16.8044 13.3403 16.6164 13.4229C16.4285 13.5055 16.2597 13.6263 16.1211 13.7777C15.9824 13.9291 15.8767 14.1077 15.8108 14.3021C15.745 14.4966 15.7203 14.7026 15.7385 14.9071C15.7928 15.5105 15.835 16.0717 15.8672 16.5866C15.9437 17.7934 15.9678 18.7589 15.9497 19.6036C15.9086 20.9907 15.7566 22.3722 15.4951 23.735Z" fill="white"/>
</g>
<path opacity="0.3" d="M15.9457 19.5956C16.8509 18.425 17.1787 17.0854 16.8851 16.3473L15.8633 16.5766C15.9457 17.7793 15.9679 18.7488 15.9457 19.5956Z" fill="#407BFF"/>
<path d="M22.1909 13.8672C22.0139 13.821 21.8369 13.7787 21.6619 13.7385C20.6355 13.5314 19.5957 13.397 18.5504 13.3362C18.3955 13.3242 18.2426 13.3161 18.0898 13.3081L17.8223 13.296L18.0234 13.648C18.0516 13.6963 18.7354 14.8146 20.437 16.0174L20.8011 16.2708L21.1511 16.0033C21.4881 15.7615 21.7635 15.4438 21.955 15.0759C22.1465 14.7079 22.2486 14.3001 22.2533 13.8853L22.1909 13.8672Z" fill="white"/>
<path d="M19.3066 11.2686C19.2422 12.1154 19.0431 12.9782 18.5503 13.3403C18.5503 13.3403 19.1778 14.3842 20.803 15.5246C21.8208 14.7462 21.6619 13.7385 21.6619 13.7385C20.5797 13.3362 20.6562 12.586 21.1128 11.3893L20.268 10.9347C20.1951 10.8544 20.1002 10.7973 19.9951 10.7704C19.89 10.7436 19.7794 10.7483 19.6769 10.7839C19.5745 10.8195 19.4847 10.8844 19.4189 10.9706C19.353 11.0567 19.314 11.1604 19.3066 11.2686Z" fill="#FF8B7B"/>
<path opacity="0.2" d="M20.2683 10.9347C20.1998 10.8591 20.1118 10.8039 20.0139 10.7751C19.9161 10.7464 19.8122 10.7453 19.7137 10.772C19.6153 10.7986 19.5261 10.852 19.4561 10.9261C19.386 11.0003 19.3379 11.0923 19.3169 11.1921C19.6378 11.8391 20.1553 12.3679 20.7952 12.7027C20.8182 12.2491 20.9252 11.8037 21.111 11.3893L20.2683 10.9347Z" fill="black"/>
<path d="M17.9913 8.61358C18.4116 10.2488 18.5544 10.9488 19.5541 11.6306C21.0566 12.6645 22.9734 11.7915 23.0478 10.0658C23.1182 8.511 22.4203 6.09738 20.6744 5.75142C20.289 5.67263 19.8898 5.69388 19.515 5.81314C19.1401 5.9324 18.802 6.14569 18.533 6.43268C18.264 6.71967 18.0729 7.0708 17.9781 7.45257C17.8832 7.83435 17.8878 8.23406 17.9913 8.61358Z" fill="#FF8B7B"/>
<path d="M22.1529 6.08934C21.1681 6.96483 19.9997 7.60878 18.7336 7.97398C18.7336 7.97398 19.9827 10.631 17.6455 9.9612C16.9676 7.69842 17.6455 6.52379 18.2489 5.97067C20.1074 5.36726 21.4147 5.16613 22.1529 6.08934Z" fill="#263238"/>
<path d="M17.9127 10.2247C18.0497 10.521 18.2985 10.7509 18.6046 10.8643C19.0069 11.0091 19.2462 10.6632 19.1597 10.2609C19.0813 9.90086 18.7756 9.38998 18.3552 9.41613C18.2643 9.42389 18.1767 9.45403 18.1002 9.50386C18.0238 9.55368 17.9608 9.62165 17.917 9.7017C17.8732 9.78175 17.8499 9.8714 17.8491 9.96265C17.8484 10.0539 17.8702 10.1439 17.9127 10.2247Z" fill="#FF8B7B"/>
<path d="M15.4449 23.3206L15.0567 23.8939C15.0265 23.9381 15.0768 23.9944 15.1553 24.0045L22.3398 24.9257C22.4022 24.9257 22.4565 24.9096 22.4666 24.8714L22.6073 24.268C22.6073 24.2257 22.5671 24.1835 22.5007 24.1734L15.5616 23.2844C15.5407 23.2795 15.5188 23.2803 15.4983 23.2867C15.4778 23.293 15.4594 23.3048 15.4449 23.3206Z" fill="#407BFF"/>
<path d="M16.2754 24.2157L16.0904 24.1915C16.0542 24.1915 16.028 24.1634 16.0341 24.1413L16.2231 23.3548C16.2303 23.3416 16.2418 23.3312 16.2557 23.3253C16.2696 23.3195 16.2851 23.3185 16.2996 23.3226L16.4866 23.3468C16.5228 23.3468 16.549 23.3729 16.5429 23.3971L16.3539 24.1815C16.3478 24.2056 16.3136 24.2197 16.2754 24.2157Z" fill="#263238"/>
<path d="M21.8086 24.9237L21.6236 24.9015C21.5874 24.9015 21.5612 24.8734 21.5673 24.8493L21.7563 24.0648C21.7563 24.0427 21.7966 24.0266 21.8328 24.0306L22.0198 24.0548C22.056 24.0548 22.0822 24.0829 22.0762 24.1051L21.8871 24.8915C21.881 24.9136 21.8469 24.9297 21.8086 24.9237Z" fill="#263238"/>
<path d="M19.0431 24.5697L18.858 24.5455C18.8198 24.5455 18.7937 24.5194 18.7997 24.4952L18.9888 23.7108C18.9888 23.6867 19.029 23.6726 19.0672 23.6766L19.2522 23.7008C19.2885 23.7008 19.3146 23.7289 19.3106 23.751L19.1195 24.5375C19.1155 24.5596 19.0793 24.5737 19.0431 24.5697Z" fill="#263238"/>
<path d="M20.793 8.5432C20.8171 8.67796 20.9097 8.7745 20.9941 8.7564C21.0786 8.7383 21.1329 8.61762 21.1068 8.48286C21.0806 8.3481 20.9881 8.25155 20.9056 8.26965C20.8232 8.28776 20.7729 8.40844 20.793 8.5432Z" fill="#263238"/>
<path d="M22.3139 8.25154C22.34 8.3863 22.4325 8.48083 22.515 8.46474C22.5975 8.44865 22.6538 8.32395 22.6276 8.18919C22.6015 8.05442 22.509 7.95989 22.4265 7.97598C22.344 7.99207 22.2897 8.11678 22.3139 8.25154Z" fill="#263238"/>
<path d="M22.3818 7.99208L22.6876 7.83519C22.6876 7.83519 22.583 8.1208 22.3818 7.99208Z" fill="#263238"/>
<path d="M21.9111 8.55325C22.0909 8.83659 22.308 9.09436 22.5568 9.31958C22.4978 9.38219 22.4258 9.43106 22.3459 9.46269C22.2659 9.49433 22.18 9.50796 22.0942 9.50261L21.9111 8.55325Z" fill="#FF5652"/>
<path d="M20.9619 10.0457C20.9559 10.0527 20.9524 10.0616 20.9522 10.0709C20.9519 10.0802 20.9549 10.0892 20.9606 10.0966C20.9663 10.1039 20.9743 10.1091 20.9833 10.1112C20.9924 10.1132 21.0019 10.1121 21.0102 10.108C21.1622 10.0305 21.3304 9.99008 21.501 9.99008C21.6716 9.99008 21.8398 10.0305 21.9917 10.108C22.0008 10.1132 22.0116 10.1146 22.0218 10.112C22.0319 10.1094 22.0406 10.1029 22.0461 10.0939C22.0515 10.0848 22.0533 10.0739 22.0511 10.0634C22.0489 10.053 22.0427 10.0437 22.034 10.0376C21.8699 9.95361 21.6883 9.90979 21.504 9.90979C21.3197 9.90979 21.138 9.95361 20.974 10.0376C20.974 10.0376 20.974 10.0416 20.9619 10.0457Z" fill="#263238"/>
<path d="M20.268 8.12884C20.2804 8.1212 20.2902 8.10998 20.2962 8.09666C20.3381 8.00499 20.4011 7.92456 20.4801 7.86198C20.5592 7.7994 20.6519 7.75644 20.7507 7.73663C20.7613 7.73539 20.7716 7.73205 20.7809 7.72681C20.7902 7.72157 20.7983 7.71454 20.8049 7.70611C20.8114 7.69769 20.8162 7.68805 20.819 7.67775C20.8218 7.66745 20.8225 7.6567 20.8211 7.64612C20.8201 7.63561 20.817 7.6254 20.812 7.61612C20.807 7.60683 20.8001 7.59865 20.7919 7.59208C20.7836 7.58551 20.7741 7.58067 20.7639 7.57786C20.7537 7.57505 20.7431 7.57432 20.7326 7.57572C20.6069 7.59921 20.4886 7.65233 20.3875 7.73069C20.2864 7.80904 20.2054 7.91037 20.1513 8.02627C20.1435 8.04213 20.1412 8.06013 20.1446 8.07747C20.1481 8.09482 20.1571 8.11054 20.1704 8.12222C20.1837 8.1339 20.2004 8.14087 20.2181 8.14207C20.2357 8.14327 20.2533 8.13862 20.268 8.12884Z" fill="#263238"/>
<path d="M22.7662 7.1091L22.7763 7.09904C22.7824 7.09034 22.7867 7.08052 22.7891 7.07013C22.7914 7.05974 22.7916 7.049 22.7897 7.03852C22.7878 7.02805 22.7839 7.01805 22.7782 7.0091C22.7724 7.00015 22.7649 6.99244 22.7561 6.9864C22.6522 6.91167 22.5319 6.86282 22.4052 6.84393C22.2786 6.82504 22.1493 6.83665 22.028 6.87779C22.0087 6.88623 21.9933 6.90179 21.985 6.92125C21.9768 6.94072 21.9764 6.9626 21.9838 6.98238C21.9918 7.00209 22.0073 7.01782 22.0269 7.02611C22.0465 7.0344 22.0686 7.03459 22.0884 7.02663C22.1847 6.99507 22.2872 6.987 22.3872 7.00309C22.4873 7.01919 22.5821 7.05898 22.6636 7.11915C22.6791 7.13015 22.6979 7.13519 22.7168 7.13334C22.7357 7.13149 22.7532 7.12288 22.7662 7.1091Z" fill="#263238"/>
<path d="M20.8677 8.28373L21.1734 8.12886C21.1734 8.12886 21.0547 8.41246 20.8677 8.28373Z" fill="#263238"/>
<path d="M10.3358 36.5211C10.0537 36.5212 9.78307 36.4098 9.58269 36.2113C9.3823 36.0128 9.2684 35.7432 9.26574 35.4612C9.23759 32.605 10.189 30.1934 12.0173 28.4878C14.268 26.3879 17.7778 25.4124 21.9051 25.7383C24.7995 25.9676 26.6559 25.2636 28.8041 24.445C29.1581 24.3122 29.5141 24.1755 29.8801 24.0427C30.1469 23.9456 30.4412 23.9585 30.6985 24.0784C30.9557 24.1984 31.1548 24.4156 31.2519 24.6823C31.349 24.949 31.3361 25.2434 31.2162 25.5007C31.0962 25.7579 30.879 25.957 30.6123 26.0541C30.2563 26.1828 29.9103 26.3155 29.5664 26.4463C27.376 27.279 25.1132 28.1378 21.7362 27.8723C18.2163 27.5927 15.2837 28.3671 13.4775 30.0526C12.0696 31.356 11.3837 33.1682 11.4058 35.4411C11.4072 35.5816 11.3808 35.721 11.3282 35.8513C11.2757 35.9816 11.198 36.1003 11.0995 36.2006C11.0011 36.3009 10.8839 36.3809 10.7546 36.4359C10.6253 36.4909 10.4864 36.5198 10.3458 36.5211H10.3358Z" fill="#407BFF"/>
<path d="M35.0825 27.5649L30.7784 29.1417C30.4192 29.2732 30.0225 29.2568 29.6756 29.0958C29.3286 28.9349 29.0597 28.6428 28.9282 28.2836L27.1507 23.4318C27.0191 23.0726 27.0356 22.676 27.1966 22.329C27.3575 21.982 27.6496 21.7131 28.0088 21.5816L32.3129 20.0048L35.0804 27.5592L35.0825 27.5649Z" fill="#407BFF"/>
<path opacity="0.7" d="M35.0825 27.5649L30.7784 29.1417C30.4192 29.2732 30.0225 29.2568 29.6756 29.0958C29.3286 28.9349 29.0597 28.6428 28.9282 28.2836L27.1507 23.4318C27.0191 23.0726 27.0356 22.676 27.1966 22.329C27.3575 21.982 27.6496 21.7131 28.0088 21.5816L32.3129 20.0048L35.0804 27.5592L35.0825 27.5649Z" fill="white"/>
<path opacity="0.2" d="M30.3951 20.7059L32.316 20.0039L35.0836 27.5626L33.1628 28.2666C33.0349 28.1429 32.9372 27.9915 32.8771 27.8241L30.4635 21.2288C30.4004 21.0622 30.377 20.8831 30.3951 20.7059Z" fill="#407BFF"/>
<path d="M36.6298 21.8866L36.4409 21.9558L36.9017 23.2136L37.0906 23.1445L36.6298 21.8866Z" fill="#407BFF"/>
<path d="M36.1495 21.1725L35.4717 19.318C35.3554 19.0036 35.1456 18.7323 34.8706 18.5406C34.5955 18.3489 34.2683 18.2461 33.933 18.246C33.7423 18.2454 33.5529 18.2788 33.3739 18.3445L32.151 18.7931L32.0806 18.604L33.3055 18.1555C33.5065 18.0818 33.7189 18.0443 33.933 18.0448C34.3097 18.0457 34.6772 18.1618 34.986 18.3775C35.2948 18.5932 35.5303 18.8983 35.6608 19.2516L36.3386 21.1061L36.1495 21.1725Z" fill="#407BFF"/>
<path d="M35.1159 28.1066L36.9121 27.4569C37.4989 27.2447 37.8025 26.5969 37.5903 26.01L35.1523 19.2698C34.9401 18.6829 34.2923 18.3793 33.7054 18.5916L31.9093 19.2412C31.3225 19.4535 31.0188 20.1013 31.2311 20.6881L33.669 27.4284C33.8813 28.0152 34.5291 28.3189 35.1159 28.1066Z" fill="#407BFF"/>
<path d="M34.0881 21.3153C34.1291 21.4274 34.1359 21.5492 34.1077 21.6653C34.0794 21.7813 34.0174 21.8863 33.9294 21.9671C33.8414 22.0478 33.7315 22.1007 33.6135 22.1189C33.4954 22.1371 33.3747 22.1199 33.2664 22.0694C33.1582 22.019 33.0674 21.9376 33.0055 21.8355C32.9435 21.7334 32.9133 21.6152 32.9186 21.4959C32.9238 21.3766 32.9644 21.2615 33.0351 21.1653C33.1058 21.0691 33.2035 20.996 33.3157 20.9553C33.4659 20.9008 33.6315 20.9081 33.7763 20.9756C33.9211 21.0431 34.0332 21.1653 34.0881 21.3153Z" fill="#263238"/>
<path d="M35.5908 25.4165C35.6316 25.5286 35.6383 25.6502 35.61 25.7661C35.5817 25.882 35.5197 25.987 35.4318 26.0676C35.3439 26.1483 35.2341 26.2011 35.1162 26.2194C34.9983 26.2376 34.8776 26.2205 34.7694 26.1702C34.6612 26.1199 34.5704 26.0387 34.5084 25.9368C34.4463 25.8349 34.4159 25.7168 34.4209 25.5976C34.426 25.4784 34.4662 25.3634 34.5366 25.2671C34.607 25.1707 34.7043 25.0974 34.8164 25.0564C34.8909 25.0292 34.97 25.0168 35.0492 25.0202C35.1285 25.0235 35.2063 25.0425 35.2782 25.0759C35.3501 25.1093 35.4148 25.1566 35.4684 25.2151C35.522 25.2735 35.5636 25.3419 35.5908 25.4165Z" fill="#263238"/>
<path d="M17.957 24.9317L17.9409 24.9136C17.6271 24.5998 17.2952 24.2579 16.9955 23.9079C16.6958 23.558 16.4022 23.208 16.1347 22.8459C15.8724 22.4927 15.6339 22.1225 15.4206 21.7377C15.2681 21.4624 15.1382 21.1752 15.0325 20.8788C15.1531 20.4766 15.2819 20.0743 15.4347 19.6881C15.6097 19.2235 15.8068 18.7669 16.022 18.3164C16.2373 17.8658 16.4665 17.4233 16.7139 16.9909C16.8346 16.7737 16.9613 16.5584 17.0921 16.3472L17.2932 16.0375C17.3556 15.9369 17.43 15.8364 17.4823 15.7499L17.5044 15.7177C17.6474 15.4998 17.7002 15.2348 17.6516 14.9787C17.6031 14.7226 17.457 14.4954 17.2442 14.3449C17.0313 14.1944 16.7684 14.1324 16.5108 14.172C16.2532 14.2116 16.021 14.3497 15.8631 14.5571C15.7626 14.6939 15.6861 14.8025 15.6057 14.9212C15.5252 15.0399 15.4528 15.1585 15.3764 15.2772C15.2296 15.5145 15.0868 15.7539 14.95 15.9973C14.6779 16.4828 14.4315 16.9823 14.2118 17.4937C14.0992 17.7471 14.0107 18.0066 13.896 18.2661C13.7814 18.5255 13.705 18.789 13.6245 19.0585C13.4538 19.5926 13.3134 20.1358 13.2041 20.6857V20.732C13.1729 20.8788 13.1834 21.0313 13.2343 21.1725C13.4292 21.6882 13.688 22.1774 14.0046 22.6287C14.3028 23.0571 14.6351 23.4606 14.9983 23.8355C15.352 24.1967 15.7275 24.5359 16.1226 24.8513C16.5176 25.1661 16.9321 25.4557 17.3636 25.7181C17.4684 25.7794 17.5919 25.8004 17.7111 25.7771C17.8302 25.7538 17.9368 25.6879 18.0108 25.5917C18.0848 25.4955 18.1212 25.3756 18.1132 25.2544C18.1051 25.1333 18.0531 25.0193 17.967 24.9337L17.957 24.9317Z" fill="#FF8B7B"/>
<path d="M20.2941 25.9314L20.268 25.8791C20.1845 25.7048 20.0616 25.5523 19.9091 25.4336C19.7566 25.3149 19.5785 25.2333 19.389 25.1952L17.8624 24.8855L17.1162 25.2576C17.1967 26.0943 18.3914 26.5951 18.3914 26.5951L18.7313 26.9833C18.8459 27.1135 19.0046 27.1967 19.1768 27.2172C19.349 27.2376 19.5227 27.1937 19.6646 27.0939L20.0669 26.8063C20.2021 26.7109 20.2991 26.5706 20.3407 26.4105C20.3823 26.2503 20.3658 26.0805 20.2941 25.9314Z" fill="#FF8B7B"/>
<path d="M16.5872 13.4268C15.7404 13.815 14.8394 15.1585 14.8394 15.1585L16.6496 18.5477C16.6496 18.5477 18.7072 16.1763 18.5342 14.9896C18.3934 13.9819 17.6653 12.932 16.5872 13.4268Z" fill="#407BFF"/>
<g opacity="0.3">
<path opacity="0.3" d="M16.5872 13.4268C15.7404 13.815 14.8394 15.1585 14.8394 15.1585L16.6496 18.5477C16.6496 18.5477 18.7072 16.1763 18.5342 14.9896C18.3934 13.9819 17.6653 12.932 16.5872 13.4268Z" fill="white"/>
</g>
<path d="M74.5347 57.8335C72.7627 57.8335 71.0209 57.4694 70.1761 56.3672C66.1775 51.1377 66.2137 40.6183 66.2479 30.4388C66.268 24.9579 66.7005 19.7786 66.091 15.7559C65.733 13.3845 64.482 11.7573 63.2188 10.9166C61.3442 9.6776 58.7697 10.3434 57.6695 10.627C57.5325 10.6652 57.3891 10.6758 57.248 10.6581C57.1068 10.6403 56.9706 10.5945 56.8473 10.5235C56.724 10.4524 56.6161 10.3575 56.53 10.2443C56.4438 10.131 56.3811 10.0017 56.3455 9.86394C56.3099 9.72617 56.3022 9.58268 56.3227 9.44188C56.3433 9.30107 56.3917 9.16578 56.4652 9.04392C56.5386 8.92206 56.6357 8.81607 56.7506 8.73217C56.8655 8.64826 56.996 8.58811 57.1345 8.55526C58.5082 8.19925 61.7304 7.36856 64.3975 9.13051C66.1977 10.3192 67.7544 12.4412 68.207 15.4361C68.8406 19.6197 68.4081 24.8754 68.388 30.4388C68.3538 40.2603 68.3196 50.4156 71.8757 55.0598C72.1633 55.4339 73.2837 55.7698 75.1442 55.6733C75.3091 55.6733 75.47 55.6552 75.6289 55.6411C75.5569 55.4954 75.5197 55.335 75.5203 55.1725C75.5203 54.8887 75.633 54.6165 75.8337 54.4158C76.0344 54.2152 76.3065 54.1024 76.5903 54.1024C78.9295 54.1024 80.1605 54.3036 80.3978 55.3736C80.4662 55.6813 80.5024 56.4537 79.372 56.9827C78.5273 57.3789 76.5119 57.8335 74.5347 57.8335Z" fill="#407BFF"/>
<path d="M51.1184 58.7567L48.936 57.8979L50.0865 54.1145L52.2709 54.9713L51.1184 58.7567Z" fill="#FFC3BD"/>
<path d="M48.8839 57.6665L51.3458 58.632C51.3769 58.6447 51.4029 58.6674 51.4197 58.6965C51.4365 58.7257 51.443 58.7596 51.4383 58.7929L51.1969 60.3256C51.1906 60.3626 51.1761 60.3978 51.1544 60.4285C51.1328 60.4592 51.1045 60.4846 51.0717 60.5029C51.0389 60.5213 51.0024 60.532 50.9649 60.5344C50.9274 60.5368 50.8898 60.5307 50.855 60.5166C50.2375 60.2612 49.27 59.8388 48.4876 59.5311C48.0069 59.342 47.0917 59.0403 46.426 58.7788C45.7602 58.5173 45.9332 57.8254 46.2248 57.8737C47.5503 58.0869 48.0572 57.8596 48.5862 57.6625C48.6823 57.6257 48.7888 57.6272 48.8839 57.6665Z" fill="#263238"/>
<path opacity="0.2" d="M52.2708 54.9733L50.0865 54.1145L49.4932 56.0655L51.6775 56.9243L52.2708 54.9733Z" fill="black"/>
<path d="M55.0006 25.688C55.0006 25.688 53.0254 35.4511 52.2711 40.2663C51.4223 45.6628 49.1797 55.5204 49.1797 55.5204L52.0821 56.6609C52.0821 56.6609 56.2275 46.5679 56.8047 41.6803C58.5446 37.7079 62.0041 26.0179 62.0041 26.0179L55.0006 25.688Z" fill="#407BFF"/>
<path d="M49.0391 55.5365L52.2251 56.7896L52.7701 55.8241L49.208 54.3478L49.0391 55.5365Z" fill="#263238"/>
<path d="M48.2585 57.7088C48.1474 57.6742 48.0511 57.6034 47.9849 57.5076C47.9666 57.4722 47.957 57.4329 47.957 57.393C47.957 57.3531 47.9666 57.3138 47.9849 57.2784C47.9931 57.2565 48.0072 57.2374 48.0257 57.2232C48.0442 57.2089 48.0663 57.2002 48.0895 57.1979C48.3007 57.1758 48.6929 57.6907 48.7312 57.751C48.7355 57.7576 48.7378 57.7653 48.7378 57.7731C48.7378 57.781 48.7355 57.7887 48.7312 57.7953C48.7269 57.8019 48.7209 57.8071 48.7137 57.8103C48.7066 57.8135 48.6987 57.8146 48.6909 57.8134C48.5434 57.7943 48.3984 57.7592 48.2585 57.7088ZM48.1519 57.2884C48.1357 57.2804 48.1176 57.2769 48.0996 57.2784C48.0875 57.2784 48.0734 57.2784 48.0594 57.3125C48.046 57.3365 48.039 57.3635 48.039 57.391C48.039 57.4185 48.046 57.4455 48.0594 57.4694C48.1177 57.576 48.3188 57.6706 48.6105 57.7188C48.488 57.5461 48.332 57.3997 48.1519 57.2884Z" fill="#407BFF"/>
<path d="M48.6866 57.8114C48.68 57.8092 48.6744 57.8049 48.6705 57.7993C48.5417 57.6464 48.3607 57.1738 48.4693 57.0108C48.4861 56.9856 48.511 56.9668 48.5399 56.9576C48.5688 56.9485 48.6 56.9495 48.6282 56.9606C48.6581 56.9682 48.6861 56.9819 48.7103 57.001C48.7346 57.02 48.7546 57.0439 48.769 57.0712C48.8937 57.2944 48.7529 57.7651 48.7469 57.7852C48.7445 57.7923 48.7403 57.7987 48.7346 57.8037C48.729 57.8086 48.7221 57.812 48.7147 57.8134C48.7103 57.8155 48.7053 57.8165 48.7004 57.8162C48.6954 57.8158 48.6907 57.8141 48.6866 57.8114ZM48.6182 57.043H48.6021C48.5498 57.0309 48.5377 57.043 48.5317 57.0611C48.4713 57.1577 48.5699 57.4996 48.6845 57.6867C48.7419 57.5006 48.7419 57.3015 48.6845 57.1154C48.6718 57.0841 48.6483 57.0584 48.6182 57.043Z" fill="#407BFF"/>
<path opacity="0.2" d="M59.2585 31.5994C58.1643 32.955 57.7318 36.4105 57.7359 39.2908C58.474 37.2573 59.3208 34.6747 60.065 32.3295L59.2585 31.5994Z" fill="black"/>
<path d="M64.2527 59.1208H61.9075L61.5957 55.1785H63.9409L64.2527 59.1208Z" fill="#FFC3BD"/>
<path d="M61.7747 58.9236H64.4196C64.4535 58.9234 64.4865 58.9349 64.5128 58.9561C64.5392 58.9774 64.5575 59.0071 64.5644 59.0403L64.9003 60.5528C64.9082 60.5898 64.9076 60.628 64.8987 60.6647C64.8898 60.7013 64.8727 60.7355 64.8487 60.7647C64.8248 60.7939 64.7945 60.8173 64.7603 60.8332C64.7261 60.8491 64.6887 60.8571 64.6509 60.8566C63.9832 60.8445 62.9312 60.8043 62.0905 60.8043C61.5715 60.8043 60.6101 60.8586 59.8961 60.8586C59.1821 60.8586 59.0915 60.1526 59.3792 60.0882C60.6926 59.8006 61.0828 59.4064 61.5011 59.0282C61.5765 58.9612 61.6738 58.9241 61.7747 58.9236Z" fill="#263238"/>
<path opacity="0.2" d="M63.941 55.1785H61.5938L61.7567 57.212H64.1039L63.941 55.1785Z" fill="black"/>
<path d="M57.8403 25.8107C57.8403 25.8107 59.1397 36.6901 59.4132 40.6062C59.7934 46.057 61.2637 56.8178 61.2637 56.8178H64.3813C64.3813 56.8178 64.7151 45.8277 64.152 40.9381C64.9283 36.672 64.683 26.1385 64.683 26.1385L57.8403 25.8107Z" fill="#407BFF"/>
<path d="M61.1389 56.8841H64.5622L64.7171 55.7879L60.8613 55.7155L61.1389 56.8841Z" fill="#263238"/>
<path d="M61.2016 59.1912C61.0857 59.1999 60.9702 59.1694 60.8737 59.1047C60.8437 59.0784 60.8205 59.0453 60.8058 59.0083C60.7911 58.9712 60.7854 58.9312 60.7893 58.8915C60.7893 58.8677 60.7959 58.8444 60.8083 58.8242C60.8207 58.804 60.8385 58.7876 60.8596 58.7768C61.0487 58.6803 61.5978 59.0182 61.6642 59.0564C61.6712 59.0603 61.6768 59.0663 61.6804 59.0734C61.684 59.0806 61.6853 59.0887 61.6843 59.0966C61.6825 59.1047 61.6785 59.1121 61.6729 59.1181C61.6672 59.1241 61.66 59.1285 61.6521 59.1308C61.5047 59.1679 61.3536 59.1881 61.2016 59.1912ZM60.9481 58.8392C60.9301 58.838 60.9122 58.8415 60.8959 58.8492C60.8858 58.8492 60.8737 58.8653 60.8717 58.8955C60.8675 58.9226 60.8703 58.9503 60.8798 58.976C60.8893 59.0016 60.9052 59.0245 60.926 59.0423C61.0185 59.1208 61.2418 59.1308 61.5294 59.0725C61.3545 58.9585 61.1591 58.8793 60.9542 58.8392H60.9481Z" fill="#407BFF"/>
<path d="M61.6441 59.1308H61.624C61.449 59.0343 61.1071 58.6622 61.1433 58.4711C61.1493 58.4415 61.1655 58.4149 61.1889 58.3958C61.2124 58.3767 61.2418 58.3664 61.272 58.3665C61.3025 58.3622 61.3335 58.3645 61.3629 58.3731C61.3924 58.3818 61.4197 58.3967 61.443 58.4168C61.6441 58.5797 61.6823 59.0705 61.6843 59.0906C61.6848 59.098 61.6833 59.1053 61.6801 59.112C61.677 59.1187 61.6722 59.1245 61.6662 59.1288C61.6591 59.1313 61.6515 59.132 61.6441 59.1308ZM61.3002 58.4409H61.2821C61.2298 58.4409 61.2258 58.4731 61.2237 58.4832C61.2016 58.5938 61.4249 58.8854 61.5938 59.0101C61.5816 58.8157 61.5116 58.6294 61.3927 58.4751C61.3666 58.4537 61.334 58.4416 61.3002 58.4409Z" fill="#407BFF"/>
<path d="M58.9166 10.808L57.038 10.7838C56.4064 10.7838 55.7789 10.7637 55.1574 10.7537C54.9683 10.7537 54.7832 10.7416 54.5962 10.7336C54.6083 10.7336 54.6163 10.7114 54.6264 10.7014C54.7591 10.5606 54.8919 10.4158 55.0286 10.277C55.097 10.2046 55.1641 10.1342 55.2298 10.0658C55.2921 9.9974 55.3726 9.92097 55.4148 9.86465L55.5858 9.64743C55.7205 9.47552 55.7978 9.26555 55.8065 9.04729C55.8152 8.82903 55.7549 8.61358 55.6343 8.43149C55.5136 8.24941 55.3387 8.10993 55.1343 8.03286C54.9299 7.9558 54.7065 7.94504 54.4956 8.00213L54.1235 8.1027C54.0089 8.13689 53.8942 8.17511 53.7796 8.21333C53.5543 8.29177 53.3331 8.37826 53.1138 8.47279C52.672 8.66787 52.2451 8.89509 51.8366 9.15263C51.4134 9.42309 51.0132 9.72783 50.6398 10.0638C50.2447 10.423 49.8869 10.8213 49.5718 11.2525C49.4923 11.3601 49.4248 11.4761 49.3707 11.5984C49.1839 12.0265 49.1747 12.5113 49.3452 12.9462C49.5157 13.3811 49.8518 13.7304 50.2798 13.9175L50.4628 13.998C50.8761 14.1758 51.3042 14.3171 51.7421 14.4204C52.1242 14.5189 52.4863 14.5833 52.8423 14.6436C53.1983 14.704 53.5463 14.7522 53.8922 14.7945C54.2382 14.8367 54.5801 14.8689 54.922 14.8971C55.6039 14.9574 56.2797 14.9876 56.9535 15.0077C57.6273 15.0278 58.287 15.0278 58.987 14.9956C59.5328 14.9723 60.0479 14.7368 60.4226 14.3393C60.7974 13.9418 61.0021 13.4137 60.9932 12.8675C60.9843 12.3213 60.7624 11.8001 60.3749 11.4151C59.9874 11.03 59.4649 10.8114 58.9186 10.806L58.9166 10.808Z" fill="#FFC3BD"/>
<path d="M60.0107 14.4787C58.3875 16.3291 54.4814 15.6372 54.4814 15.6372L54.6967 11.0272C56.0356 10.7326 57.4009 10.5742 58.7717 10.5545C61.0646 10.5505 61.31 12.9943 60.0107 14.4787Z" fill="#263238"/>
<path d="M55.6785 13.0607C55.5819 13.8049 55.4773 14.8066 55.415 16.1542C54.5682 20.4384 54.2524 23.4735 55.0006 25.688C55.592 26.4181 63.2975 26.2773 64.6833 26.1365C65.4879 24.1453 65.5723 18.429 65.6669 13.6239C65.6787 12.9617 65.4529 12.3173 65.0304 11.8073C64.6079 11.2974 64.0167 10.9557 63.3639 10.8442C61.6298 10.5368 59.861 10.4772 58.1102 10.6672C57.4957 10.7371 56.9224 11.0108 56.4816 11.4446C56.0408 11.8785 55.7581 12.4474 55.6785 13.0607Z" fill="#263238"/>
<path opacity="0.2" d="M63.1548 15.9852C63.1809 17.4495 64.2429 19.7887 65.4377 20.9754C65.5101 19.7384 65.5563 18.3968 65.5925 17.0432L63.1548 15.9852Z" fill="black"/>
<path d="M69.8683 18.8313L69.8 18.6704C69.5188 17.9995 69.1901 17.3495 68.8164 16.7254C68.4584 16.122 68.0722 15.5528 67.6719 15.0037C67.2717 14.4546 66.8473 13.9296 66.4128 13.4187C66.1916 13.1653 65.9723 12.9119 65.741 12.6665L65.3931 12.3004L65.023 11.9263C64.6353 11.5435 64.1138 11.3267 63.569 11.3219C63.0243 11.3171 62.499 11.5245 62.1046 11.9004C61.7102 12.2762 61.4776 12.7909 61.4562 13.3352C61.4348 13.8796 61.6262 14.411 61.9899 14.8166L62.0502 14.883L63.2309 16.1964C63.6331 16.6429 64.0173 17.0975 64.3995 17.5501C64.5845 17.7773 64.7756 18.0046 64.9486 18.2359C65.1215 18.4672 65.3046 18.6905 65.4776 18.9198C65.727 19.2678 65.9683 19.6137 66.1835 19.9536C66.1506 20.1253 66.109 20.2951 66.0588 20.4625C65.9143 20.9497 65.7444 21.4291 65.55 21.8986C65.3488 22.3954 65.1356 22.9043 64.9144 23.4051C64.6931 23.9059 64.4558 24.4289 64.2446 24.9317L64.2245 24.976C64.1318 25.1983 64.1177 25.4455 64.1846 25.6768C64.2515 25.9082 64.3952 26.1098 64.5922 26.2484C64.7892 26.3869 65.0275 26.4542 65.2678 26.439C65.5082 26.4237 65.7361 26.327 65.914 26.1647C66.3577 25.7534 66.7787 25.3183 67.1751 24.8613C67.5774 24.4095 67.9549 23.9334 68.3075 23.4333C68.4865 23.1819 68.6575 22.9204 68.8265 22.6488C69.002 22.3728 69.1624 22.0874 69.3072 21.794C69.47 21.474 69.6111 21.1434 69.7296 20.8044C69.8839 20.3704 69.9707 19.9152 69.987 19.4548C69.9922 19.2409 69.9517 19.0283 69.8683 18.8313Z" fill="#FFC3BD"/>
<path d="M63.5003 10.8703C66.2136 11.335 67.9816 15.0077 67.9816 15.0077L64.7112 18.5256C64.7112 18.5256 62.8265 16.6067 61.6941 14.8287C60.4732 12.8938 61.5574 10.5405 63.5003 10.8703Z" fill="#263238"/>
<path d="M58.5447 5.07963C58.0901 4.31732 57.9413 3.26941 58.774 2.20138C58.6117 2.22172 58.4471 2.19453 58.3 2.12313C58.1529 2.05172 58.0297 1.93916 57.9453 1.79911C58.8571 1.05312 60.0036 0.654086 61.1816 0.672745C63.6153 0.672745 63.7963 1.61205 63.7139 2.25367C65.3793 2.36027 66.5941 6.69073 62.3723 7.45706C59.9567 4.91269 58.5447 5.07963 58.5447 5.07963Z" fill="#263238"/>
<path d="M63.5609 2.33213C63.5609 2.33213 64.2388 1.64022 63.396 0.803497C63.5849 0.855306 63.7572 0.955159 63.8961 1.09333C64.035 1.2315 64.1357 1.40328 64.1885 1.59195C64.3071 2.0787 63.9793 2.4689 63.5609 2.33213Z" fill="#263238"/>
<path d="M62.6273 6.92807C62.563 8.2616 62.4423 9.77816 62.6656 10.8422C62.3196 11.3872 61.4346 12.0148 59.8497 12.1556C59.2865 11.8358 58.5423 11.0534 58.8017 10.6511C59.4756 10.2187 59.7612 8.90926 59.5681 7.92973L62.6273 6.92807Z" fill="#FFC3BD"/>
<path opacity="0.2" d="M61.8549 7.17949L59.564 7.92973C59.6419 8.34688 59.6453 8.77452 59.574 9.19286C60.2579 9.17073 61.2052 8.65582 61.5613 8.1731C61.6772 8.03739 61.7633 7.87877 61.8139 7.70757C61.8645 7.53638 61.8785 7.35644 61.8549 7.17949Z" fill="black"/>
<path d="M63.2952 4.81615C62.8708 6.45138 62.7059 7.43091 61.7043 8.11679C60.1977 9.14861 58.3031 7.99208 58.2286 6.26433C58.1643 4.70754 58.8682 2.29391 60.6181 1.94997C61.0034 1.8727 61.4021 1.89522 61.7762 2.0154C62.1504 2.13557 62.4876 2.34941 62.7559 2.6366C63.0241 2.92379 63.2145 3.27479 63.3089 3.65626C63.4033 4.03773 63.3986 4.437 63.2952 4.81615Z" fill="#FFC3BD"/>
<path d="M62.9571 2.47493C62.2391 2.98581 61.3481 5.15004 63.1583 6.01894C64.7834 4.59088 64.3631 2.47493 62.9571 2.47493Z" fill="#263238"/>
<path d="M63.3719 2.73441C63.6796 1.31036 60.0853 0.574206 58.9469 2.2376C58.5607 3.23926 63.1546 4.12426 63.3719 2.73441Z" fill="#263238"/>
<path d="M60.6908 6.55195C60.3173 6.3831 59.9169 6.28164 59.5081 6.25226C59.5024 6.25225 59.4967 6.25341 59.4915 6.25566C59.4862 6.2579 59.4815 6.26119 59.4775 6.26533C59.4736 6.26947 59.4705 6.27437 59.4685 6.27973C59.4665 6.28509 59.4656 6.29079 59.4659 6.29651C59.4681 6.30951 59.4747 6.32136 59.4846 6.33013C59.4945 6.3389 59.507 6.34407 59.5202 6.34478C59.9121 6.37311 60.296 6.46977 60.6546 6.63039C60.6658 6.63534 60.6785 6.6358 60.6901 6.63169C60.7017 6.62758 60.7113 6.6192 60.7169 6.60827C60.7191 6.60287 60.7202 6.59708 60.7201 6.59125C60.72 6.58541 60.7186 6.57967 60.7162 6.57438C60.7137 6.56909 60.7102 6.56437 60.7058 6.56051C60.7015 6.55664 60.6963 6.55373 60.6908 6.55195Z" fill="#263238"/>
<path d="M63.6875 6.60424C63.396 6.91362 62.994 7.09512 62.5692 7.10909C62.006 7.12116 61.8632 6.58413 62.1347 6.12554C62.3801 5.72327 62.9674 5.20836 63.4783 5.41352C63.9892 5.61868 64.0415 6.22007 63.6875 6.60424Z" fill="#FFC3BD"/>
<path d="M60.6944 4.788C60.6682 4.92276 60.5757 5.0193 60.4932 5.0012C60.4108 4.9831 60.3564 4.86041 60.3826 4.72565C60.4087 4.59089 60.5013 4.49635 60.5837 4.52451C60.6662 4.55267 60.7205 4.6472 60.6944 4.788Z" fill="#263238"/>
<path d="M59.1718 4.49232C59.1457 4.62708 59.0531 4.72162 58.9707 4.70553C58.8882 4.68944 58.8319 4.56473 58.858 4.42997C58.8842 4.29521 58.9767 4.19866 59.0592 4.21677C59.1416 4.23487 59.1899 4.35756 59.1718 4.49232Z" fill="#263238"/>
<path d="M59.6428 4.6472C59.4015 5.02788 59.1091 5.3737 58.7739 5.675C58.9751 5.94251 59.4196 5.89021 59.4196 5.89021L59.6428 4.6472Z" fill="#ED847E"/>
<path d="M60.4752 4.00557C60.4896 4.00243 60.5045 4.00299 60.5186 4.00722C60.5326 4.01144 60.5454 4.01918 60.5557 4.02971C60.6202 4.10776 60.7024 4.16942 60.7954 4.20962C60.8884 4.24983 60.9896 4.26744 61.0907 4.26102C61.112 4.25811 61.1335 4.26363 61.1508 4.27641C61.1681 4.28918 61.1797 4.30819 61.1832 4.3294C61.1849 4.33987 61.1844 4.35057 61.1819 4.36086C61.1793 4.37115 61.1747 4.38082 61.1683 4.38928C61.162 4.39774 61.1539 4.40482 61.1447 4.41008C61.1355 4.41535 61.1253 4.41869 61.1148 4.41991C60.9871 4.43019 60.8588 4.40982 60.7405 4.36049C60.6223 4.31116 60.5175 4.2343 60.435 4.13631C60.4274 4.129 60.4214 4.12025 60.4173 4.11057C60.4132 4.1009 60.4111 4.0905 60.4111 4.07999C60.4111 4.06949 60.4132 4.05909 60.4173 4.04941C60.4214 4.03974 60.4274 4.03099 60.435 4.02367C60.4469 4.01479 60.4606 4.00862 60.4752 4.00557Z" fill="#263238"/>
<path d="M58.7012 3.55906C58.6845 3.5556 58.6695 3.54634 58.6589 3.53291C58.6522 3.52453 58.6472 3.51487 58.6442 3.50451C58.6412 3.49415 58.6404 3.4833 58.6417 3.47261C58.643 3.46192 58.6465 3.4516 58.6518 3.44226C58.6572 3.43293 58.6644 3.42477 58.673 3.41826C58.7718 3.3373 58.8885 3.28103 59.0133 3.25409C59.1382 3.22716 59.2677 3.23035 59.3911 3.26339C59.4114 3.27029 59.4283 3.28488 59.4381 3.30404C59.4478 3.3232 59.4497 3.34543 59.4434 3.36597C59.4353 3.38539 59.4204 3.4012 59.4016 3.41046C59.3827 3.41971 59.3611 3.42177 59.3408 3.41625C59.2425 3.39118 59.1396 3.38978 59.0407 3.41216C58.9417 3.43453 58.8495 3.48005 58.7716 3.54498C58.7622 3.55343 58.7507 3.55919 58.7383 3.56167C58.7259 3.56415 58.7131 3.56325 58.7012 3.55906Z" fill="#263238"/>
<path d="M65.1941 24.8734L63.4663 24.8613L64.3594 26.8445C64.3594 26.8445 65.8337 26.5287 65.7532 25.7282L65.1941 24.8734Z" fill="#FFC3BD"/>
<path d="M62.5872 26.223L62.8708 26.7822C62.9471 26.9311 63.0761 27.0461 63.2327 27.1049C63.3893 27.1637 63.5622 27.1619 63.7176 27.1L64.3592 26.8445L63.4662 24.8613L62.7803 25.3843C62.6547 25.4791 62.5665 25.6152 62.5312 25.7685C62.4959 25.9219 62.5158 26.0828 62.5872 26.223Z" fill="#FFC3BD"/>
<path d="M52.042 23.4132C51.8332 23.411 51.6297 23.348 51.4563 23.2318C51.2829 23.1156 51.1471 22.9513 51.0658 22.7591C50.9844 22.5669 50.9609 22.3551 50.9982 22.1497C51.0355 21.9443 51.1319 21.7543 51.2756 21.6029C52.044 20.8105 52.7379 20.195 53.3493 19.658C54.8257 18.3566 55.3345 17.8477 55.2863 16.8722C55.214 16.2703 55.0861 15.6765 54.9041 15.0982C54.4636 13.4791 53.9648 11.6467 54.8196 10.1764C55.2782 9.38597 56.0566 8.84491 57.1347 8.56734C57.4073 8.50266 57.6943 8.54744 57.9342 8.69207C58.1742 8.83671 58.3478 9.06966 58.4178 9.3409C58.4879 9.61214 58.4488 9.90004 58.3089 10.1428C58.169 10.3855 57.9395 10.5637 57.6697 10.639C56.9114 10.8402 56.7284 11.1479 56.664 11.2525C56.2618 11.9464 56.65 13.3825 56.9637 14.535C57.1909 15.2618 57.3432 16.0099 57.4183 16.7676C57.5189 18.8293 56.302 19.9033 54.7593 21.263C54.178 21.7779 53.5163 22.3612 52.8043 23.0934C52.705 23.1948 52.5863 23.2754 52.4554 23.3303C52.3245 23.3852 52.1839 23.4134 52.042 23.4132Z" fill="#407BFF"/>
<path d="M54.3891 8.04638L56.0626 7.61797L55.6724 9.75805C55.6724 9.75805 54.1659 9.80431 54.0532 9.00982L54.3891 8.04638Z" fill="#FFC3BD"/>
<path d="M57.2372 8.75237L57.1085 9.31153C57.0689 9.48233 56.9669 9.63215 56.8225 9.73154C56.6781 9.83092 56.5017 9.87266 56.3281 9.84856L55.6724 9.75805L56.0626 7.61797L56.8309 7.94984C56.9819 8.01487 57.1052 8.13082 57.1795 8.27748C57.2537 8.42413 57.2742 8.5922 57.2372 8.75237Z" fill="#FFC3BD"/>
<path d="M51.4432 19.8938L51.3977 19.8483C51.1942 19.6449 50.8644 19.6449 50.661 19.8484L44.7299 25.7816C44.5265 25.9851 44.5265 26.315 44.73 26.5184L44.7755 26.5639C44.979 26.7673 45.3088 26.7672 45.5122 26.5637L51.4434 20.6305C51.6468 20.427 51.6467 20.0972 51.4432 19.8938Z" fill="#263238"/>
<path d="M54.535 22.9811L54.4895 22.9355C54.286 22.7321 53.9562 22.7321 53.7527 22.9355L47.8205 28.8677C47.6171 29.0712 47.6171 29.401 47.8205 29.6044L47.8661 29.65C48.0695 29.8534 48.3993 29.8534 48.6028 29.65L54.535 23.7178C54.7384 23.5143 54.7384 23.1845 54.535 22.9811Z" fill="#263238"/>
<path d="M46.6016 22.1024L50.7815 17.9224C50.9155 17.7885 51.0744 17.6822 51.2494 17.6098C51.4244 17.5373 51.6119 17.5 51.8013 17.5C51.9907 17.5 52.1782 17.5373 52.3532 17.6098C52.5281 17.6822 52.6871 17.7885 52.821 17.9224L56.4748 21.5761C56.6087 21.71 56.7149 21.869 56.7874 22.044C56.8599 22.219 56.8972 22.4065 56.8972 22.5959C56.8972 22.7853 56.8599 22.9728 56.7874 23.1478C56.7149 23.3227 56.6087 23.4817 56.4748 23.6156L52.2948 27.7956L46.6016 22.1024Z" fill="#407BFF"/>
<path opacity="0.7" d="M46.6016 22.1024L50.7815 17.9224C50.9155 17.7885 51.0744 17.6822 51.2494 17.6098C51.4244 17.5373 51.6119 17.5 51.8013 17.5C51.9907 17.5 52.1782 17.5373 52.3532 17.6098C52.5281 17.6822 52.6871 17.7885 52.821 17.9224L56.4748 21.5761C56.6087 21.71 56.7149 21.869 56.7874 22.044C56.8599 22.219 56.8972 22.4065 56.8972 22.5959C56.8972 22.7853 56.8599 22.9728 56.7874 23.1478C56.7149 23.3227 56.6087 23.4817 56.4748 23.6156L52.2948 27.7956L46.6016 22.1024Z" fill="white"/>
<path opacity="0.2" d="M48.0434 20.6495L46.5952 22.0957L52.2894 27.7898L53.7355 26.3417C53.678 26.1733 53.5823 26.0205 53.4559 25.8952L48.4899 20.9392C48.3657 20.8092 48.2128 20.71 48.0434 20.6495Z" fill="#407BFF"/>
<path d="M46.3509 21.3664L46.2471 21.4703C45.8056 21.9117 45.8056 22.6274 46.2471 23.0689L51.3174 28.1392C51.7588 28.5806 52.4745 28.5806 52.916 28.1392L53.0198 28.0353C53.4612 27.5939 53.4612 26.8782 53.0198 26.4367L47.9495 21.3664C47.508 20.925 46.7923 20.925 46.3509 21.3664Z" fill="#407BFF"/>
</svg>
