<svg width="144" height="34" viewBox="0 0 144 34" fill="none" xmlns="http://www.w3.org/2000/svg">
  <path d="M18.1185 22.9004L27.1124 24.9557V9.00729L18.1185 11.064V22.9004Z" fill="#8C3123"/>
  <path d="M27.1127 9.00729L28.8411 9.82329V24.1444L27.1127 24.9601V9.00729Z" fill="#E05243"/>
  <path d="M22.0414 11.851L18.1185 10.9344V4.76001L22.0414 6.61233V11.851Z" fill="#E05243"/>
  <path d="M18.1185 29.24L22.041 27.3884V22.1497L18.1185 23.066V29.24Z" fill="#E05243"/>
  <path d="M22.0414 19.6228L18.1185 20.0944V13.9196L22.0414 14.3844V19.6228Z" fill="#E05243"/>
  <path d="M18.1184 22.9004L9.12421 24.9557V9.00729L18.1184 11.064V22.9004Z" fill="#E05243"/>
  <path d="M9.12422 9.00729L7.39658 9.82329V24.1444L9.12422 24.9601V9.00729Z" fill="#8C3123"/>
  <path d="M14.1966 11.851L18.1185 10.9344V4.76001L14.1966 6.61233V11.851Z" fill="#8C3123"/>
  <path d="M18.1185 29.24L14.1963 27.3884V22.1497L18.1185 23.066V29.24Z" fill="#8C3123"/>
  <path d="M14.1966 19.6228L18.1185 20.0944V13.9196L14.1966 14.3844V19.6228Z" fill="#8C3123"/>
  <path d="M22.0414 11.8511L18.1185 12.5263L14.1966 11.8511L18.1185 10.9344L22.0414 11.8511Z" fill="#5E1F18"/>
  <path d="M22.0414 22.1493L18.1185 21.4697L14.1966 22.1493L18.1185 23.0717L22.0414 22.1493Z" fill="#F2B0A9"/>
  <path d="M45.4043 19.6895H39.8965L38.7441 23H36.1758L41.5469 8.78125H43.7637L49.1445 23H46.5664L45.4043 19.6895ZM40.5898 17.6973H44.7109L42.6504 11.7988L40.5898 17.6973ZM52.2988 12.4336L52.3672 13.5371C53.1094 12.6712 54.125 12.2383 55.4141 12.2383C56.8268 12.2383 57.7936 12.7786 58.3145 13.8594C59.0827 12.7786 60.1634 12.2383 61.5566 12.2383C62.722 12.2383 63.5879 12.5605 64.1543 13.2051C64.7272 13.8496 65.0202 14.8001 65.0332 16.0566V23H62.6602V16.125C62.6602 15.4544 62.5137 14.9629 62.2207 14.6504C61.9277 14.3379 61.4427 14.1816 60.7656 14.1816C60.2253 14.1816 59.7826 14.3281 59.4375 14.6211C59.099 14.9076 58.8613 15.2852 58.7246 15.7539L58.7344 23H56.3613V16.0469C56.3288 14.8034 55.694 14.1816 54.457 14.1816C53.5065 14.1816 52.8327 14.569 52.4355 15.3438V23H50.0625V12.4336H52.2988ZM73.7832 23C73.679 22.7982 73.5879 22.4694 73.5098 22.0137C72.7546 22.8014 71.8301 23.1953 70.7363 23.1953C69.6751 23.1953 68.8092 22.8926 68.1387 22.2871C67.4681 21.6816 67.1328 20.9329 67.1328 20.041C67.1328 18.9147 67.5495 18.0521 68.3828 17.4531C69.2227 16.8477 70.4206 16.5449 71.9766 16.5449H73.4316V15.8516C73.4316 15.3047 73.2786 14.8685 72.9727 14.543C72.6667 14.2109 72.2012 14.0449 71.5762 14.0449C71.0358 14.0449 70.5931 14.1816 70.248 14.4551C69.903 14.722 69.7305 15.0638 69.7305 15.4805H67.3574C67.3574 14.901 67.5495 14.3607 67.9336 13.8594C68.3177 13.3516 68.8385 12.9544 69.4961 12.668C70.1602 12.3815 70.8991 12.2383 71.7129 12.2383C72.9499 12.2383 73.9362 12.5508 74.6719 13.1758C75.4076 13.7943 75.7852 14.6667 75.8047 15.793V20.5586C75.8047 21.5091 75.9382 22.2676 76.2051 22.834V23H73.7832ZM71.1758 21.291C71.6445 21.291 72.084 21.1771 72.4941 20.9492C72.9108 20.7214 73.2233 20.4154 73.4316 20.0312V18.0391H72.1523C71.2734 18.0391 70.6126 18.1921 70.1699 18.498C69.7272 18.804 69.5059 19.237 69.5059 19.7969C69.5059 20.2526 69.6556 20.6172 69.9551 20.8906C70.2611 21.1576 70.668 21.291 71.1758 21.291ZM80.8242 21.1055H86.4492V23H77.875V21.4473L83.2363 14.3477H77.9727V12.4336H86.2441V13.9375L80.8242 21.1055ZM87.748 17.6191C87.748 16.584 87.9531 15.653 88.3633 14.8262C88.7734 13.9928 89.3496 13.3548 90.0918 12.9121C90.834 12.4629 91.6868 12.2383 92.6504 12.2383C94.0762 12.2383 95.2318 12.6973 96.1172 13.6152C97.0091 14.5332 97.4909 15.7507 97.5625 17.2676L97.5723 17.8242C97.5723 18.8659 97.3704 19.7969 96.9668 20.6172C96.5697 21.4375 95.9967 22.0723 95.248 22.5215C94.5059 22.9707 93.6465 23.1953 92.6699 23.1953C91.179 23.1953 89.9844 22.7005 89.0859 21.7109C88.194 20.7148 87.748 19.39 87.748 17.7363V17.6191ZM90.1211 17.8242C90.1211 18.9115 90.3457 19.7643 90.7949 20.3828C91.2441 20.9948 91.8691 21.3008 92.6699 21.3008C93.4707 21.3008 94.0924 20.9883 94.5352 20.3633C94.9844 19.7383 95.209 18.8236 95.209 17.6191C95.209 16.5514 94.9779 15.7051 94.5156 15.0801C94.0599 14.4551 93.4382 14.1426 92.6504 14.1426C91.8757 14.1426 91.2604 14.4518 90.8047 15.0703C90.349 15.6823 90.1211 16.6003 90.1211 17.8242ZM101.781 12.4336L101.85 13.6543C102.631 12.7103 103.656 12.2383 104.926 12.2383C107.126 12.2383 108.246 13.498 108.285 16.0176V23H105.912V16.1543C105.912 15.4837 105.766 14.9889 105.473 14.6699C105.186 14.3444 104.714 14.1816 104.057 14.1816C103.1 14.1816 102.387 14.6146 101.918 15.4805V23H99.5449V12.4336H101.781ZM123.354 19.3379C123.354 18.7129 123.132 18.2311 122.689 17.8926C122.253 17.554 121.462 17.2122 120.316 16.8672C119.171 16.5221 118.259 16.138 117.582 15.7148C116.286 14.901 115.639 13.8398 115.639 12.5312C115.639 11.3854 116.104 10.4414 117.035 9.69922C117.973 8.95703 119.187 8.58594 120.678 8.58594C121.667 8.58594 122.549 8.76823 123.324 9.13281C124.099 9.4974 124.708 10.0182 125.15 10.6953C125.593 11.3659 125.814 12.1113 125.814 12.9316H123.354C123.354 12.1895 123.119 11.61 122.65 11.1934C122.188 10.7702 121.524 10.5586 120.658 10.5586C119.851 10.5586 119.223 10.7311 118.773 11.0762C118.331 11.4212 118.109 11.903 118.109 12.5215C118.109 13.0423 118.35 13.4785 118.832 13.8301C119.314 14.1751 120.108 14.5137 121.215 14.8457C122.322 15.1712 123.21 15.5456 123.881 15.9688C124.551 16.3854 125.043 16.8672 125.355 17.4141C125.668 17.9544 125.824 18.5892 125.824 19.3184C125.824 20.5033 125.368 21.4473 124.457 22.1504C123.552 22.847 122.322 23.1953 120.766 23.1953C119.737 23.1953 118.79 23.0065 117.924 22.6289C117.064 22.2448 116.394 21.7174 115.912 21.0469C115.437 20.3763 115.199 19.5951 115.199 18.7031H117.67C117.67 19.5104 117.937 20.1354 118.471 20.5781C119.005 21.0208 119.77 21.2422 120.766 21.2422C121.625 21.2422 122.27 21.0697 122.699 20.7246C123.135 20.373 123.354 19.9108 123.354 19.3379ZM130.355 14.8066H131.801C132.53 14.8001 133.106 14.6113 133.529 14.2402C133.959 13.8691 134.174 13.332 134.174 12.6289C134.174 11.9518 133.995 11.4277 133.637 11.0566C133.285 10.679 132.745 10.4902 132.016 10.4902C131.378 10.4902 130.854 10.6758 130.443 11.0469C130.033 11.4115 129.828 11.89 129.828 12.4824H127.455C127.455 11.7533 127.647 11.0892 128.031 10.4902C128.422 9.89128 128.962 9.42578 129.652 9.09375C130.349 8.75521 131.127 8.58594 131.986 8.58594C133.406 8.58594 134.519 8.94401 135.326 9.66016C136.14 10.3698 136.547 11.3594 136.547 12.6289C136.547 13.2669 136.342 13.8691 135.932 14.4355C135.528 14.9954 135.004 15.4186 134.359 15.7051C135.141 15.972 135.733 16.3919 136.137 16.9648C136.547 17.5378 136.752 18.2214 136.752 19.0156C136.752 20.2917 136.312 21.3073 135.434 22.0625C134.561 22.8177 133.412 23.1953 131.986 23.1953C130.619 23.1953 129.499 22.8307 128.627 22.1016C127.755 21.3724 127.318 20.4023 127.318 19.1914H129.691C129.691 19.8164 129.9 20.3242 130.316 20.7148C130.74 21.1055 131.306 21.3008 132.016 21.3008C132.751 21.3008 133.331 21.1055 133.754 20.7148C134.177 20.3242 134.389 19.7578 134.389 19.0156C134.389 18.2669 134.167 17.6908 133.725 17.2871C133.282 16.8835 132.624 16.6816 131.752 16.6816H130.355V14.8066Z" fill="#24292E"/>
</svg>
