<svg width="81" height="62" viewBox="0 0 81 62" fill="none" xmlns="http://www.w3.org/2000/svg">
<path d="M40.4043 61.6617C62.4957 61.6617 80.4043 60.6162 80.4043 59.3264C80.4043 58.0366 62.4957 56.9911 40.4043 56.9911C18.3129 56.9911 0.404297 58.0366 0.404297 59.3264C0.404297 60.6162 18.3129 61.6617 40.4043 61.6617Z" fill="#F5F5F5"/>
<path d="M36.7958 0.136136H12.186C11.7963 0.132113 11.4101 0.209195 11.0518 0.362481C10.6935 0.515768 10.371 0.741904 10.1048 1.02653C9.83862 1.31115 9.63455 1.64803 9.50556 2.01577C9.37657 2.38351 9.32548 2.77405 9.35554 3.16259L12.8833 55.646C12.9499 56.4635 13.3184 57.227 13.9172 57.7877C14.516 58.3483 15.3021 58.6659 16.1223 58.6786H40.7321C41.1224 58.683 41.5092 58.606 41.868 58.4524C42.2268 58.2989 42.5496 58.0721 42.8158 57.7867C43.082 57.5013 43.2857 57.1635 43.414 56.7949C43.5422 56.4263 43.5921 56.035 43.5605 55.646L40.0327 3.16259C39.9648 2.34648 39.5958 1.58476 38.9976 1.02545C38.3994 0.466144 37.6147 0.149177 36.7958 0.136136Z" fill="#407BFF"/>
<path opacity="0.3" d="M36.7958 0.136136H12.186C11.7963 0.132113 11.4101 0.209195 11.0518 0.362481C10.6935 0.515768 10.371 0.741904 10.1048 1.02653C9.83862 1.31115 9.63455 1.64803 9.50556 2.01577C9.37657 2.38351 9.32548 2.77405 9.35554 3.16259L12.8833 55.646C12.9499 56.4635 13.3184 57.227 13.9172 57.7877C14.516 58.3483 15.3021 58.6659 16.1223 58.6786H40.7321C41.1224 58.683 41.5092 58.606 41.868 58.4524C42.2268 58.2989 42.5496 58.0721 42.8158 57.7867C43.082 57.5013 43.2857 57.1635 43.414 56.7949C43.5422 56.4263 43.5921 56.035 43.5605 55.646L40.0327 3.16259C39.9648 2.34648 39.5958 1.58476 38.9976 1.02545C38.3994 0.466144 37.6147 0.149177 36.7958 0.136136Z" fill="white"/>
<path d="M9.38602 11.3814L9.18018 11.3953L9.51246 16.3457L9.7183 16.3319L9.38602 11.3814Z" fill="#407BFF"/>
<path d="M9.90115 18.9346L9.69531 18.9484L9.84464 21.1674L10.0505 21.1535L9.90115 18.9346Z" fill="#407BFF"/>
<path d="M14.6703 56.1823C14.6871 56.3824 14.6304 56.5817 14.5108 56.743C14.3912 56.9042 14.217 57.0163 14.0206 57.0583C13.8243 57.1003 13.6194 57.0693 13.4443 56.9711C13.2692 56.8729 13.136 56.7142 13.0694 56.5248C12.9668 56.2455 12.9043 55.9531 12.8838 55.6563L9.35599 3.16259C9.3351 2.86709 9.35875 2.57014 9.42613 2.28167C9.4676 2.08509 9.57937 1.91039 9.74046 1.79033C9.90156 1.67028 10.1009 1.61312 10.3012 1.62957C10.5014 1.64602 10.6887 1.73496 10.8281 1.87971C10.9674 2.02445 11.0492 2.21505 11.058 2.41577L14.6703 56.1823Z" fill="#407BFF"/>
<path d="M40.732 57.6945H17.8675C17.2998 57.6792 16.7575 57.456 16.3434 57.0674C15.9293 56.6788 15.6722 56.1517 15.6209 55.5861L12.0931 3.10483C12.0705 2.85142 12.1015 2.59609 12.184 2.35542C12.2665 2.11476 12.3988 1.89416 12.5721 1.70795C12.7455 1.52174 12.9561 1.3741 13.1903 1.27462C13.4244 1.17513 13.6769 1.12603 13.9313 1.13051H36.7958C37.3631 1.14582 37.9052 1.36868 38.3193 1.75688C38.7333 2.14508 38.9906 2.67166 39.0424 3.23687L42.5702 55.7202C42.5921 55.9735 42.5607 56.2286 42.478 56.4689C42.3952 56.7093 42.2629 56.9297 42.0897 57.1157C41.9165 57.3018 41.7061 57.4495 41.4723 57.5492C41.2384 57.6489 40.9862 57.6984 40.732 57.6945ZM13.9313 1.35126C13.7072 1.34715 13.4848 1.3903 13.2786 1.4779C13.0723 1.5655 12.8868 1.69559 12.7342 1.85968C12.5816 2.02377 12.4653 2.21818 12.3929 2.43023C12.3205 2.64229 12.2935 2.86723 12.3139 3.09039L15.8416 55.5634C15.8875 56.0737 16.1191 56.5493 16.4926 56.9C16.8661 57.2507 17.3554 57.4519 17.8675 57.4656H40.732C40.9561 57.4697 41.1785 57.4265 41.3847 57.3389C41.591 57.2513 41.7765 57.1212 41.9291 56.9571C42.0817 56.793 42.198 56.5986 42.2704 56.3866C42.3428 56.1745 42.3698 55.9496 42.3494 55.7264L38.8217 3.24512C38.7758 2.73486 38.5442 2.25923 38.1707 1.90856C37.7972 1.55789 37.3079 1.35663 36.7958 1.34301L13.9313 1.35126Z" fill="white"/>
<g opacity="0.5">
<path opacity="0.5" d="M35.0378 24.9491C38.5246 21.2619 38.0098 15.113 33.888 11.2152C29.7662 7.31733 23.5981 7.1466 20.1113 10.8338C16.6245 14.521 17.1393 20.6699 21.2611 24.5677C25.3829 28.4655 31.5509 28.6363 35.0378 24.9491Z" fill="#407BFF"/>
<path opacity="0.5" d="M33.5448 23.5393C36.3341 20.5897 35.9222 15.6709 32.6249 12.5528C29.3277 9.43466 24.3935 9.29807 21.6042 12.2477C18.8149 15.1973 19.2267 20.1161 22.524 23.2342C25.8213 26.3523 30.7555 26.4889 33.5448 23.5393Z" fill="white"/>
<path opacity="0.5" d="M32.051 22.1365C34.1431 19.9249 33.8349 16.236 31.3626 13.8972C28.8902 11.5584 25.1899 11.4553 23.0978 13.6669C21.0056 15.8786 21.3138 19.5674 23.7862 21.9062C26.2585 24.245 29.9588 24.3481 32.051 22.1365Z" fill="#407BFF"/>
<path opacity="0.5" d="M30.5602 20.7171C31.9553 19.2419 31.7493 16.7818 30.1003 15.2224C28.4512 13.663 25.9835 13.5947 24.5884 15.0699C23.1934 16.5451 23.3993 19.0052 25.0484 20.5646C26.6975 22.1241 29.1652 22.1923 30.5602 20.7171Z" fill="white"/>
<path opacity="0.5" d="M29.067 19.3117C29.7646 18.5742 29.6619 17.3442 28.8375 16.5643C28.0131 15.7844 26.7792 15.7501 26.0816 16.4876C25.3839 17.2251 25.4867 18.4551 26.3111 19.235C27.1355 20.0148 28.3693 20.0492 29.067 19.3117Z" fill="#407BFF"/>
</g>
<path d="M29.4474 31.1187C29.4103 31.1187 29.3752 31.1187 29.3381 31.1187C29.055 30.5719 28.6287 30.1123 28.1047 29.789C27.5808 29.4656 26.9789 29.2905 26.3632 29.2826C26.0475 29.2823 25.7336 29.331 25.4328 29.427C25.1361 28.8831 24.6999 28.4281 24.1691 28.1087C23.6383 27.7892 23.032 27.6169 22.4125 27.6094C22.0232 27.6037 21.6365 27.6749 21.2747 27.819C20.9129 27.963 20.5831 28.1771 20.3042 28.4488C20.0254 28.7206 19.8029 29.0448 19.6496 29.4028C19.4963 29.7607 19.4151 30.1454 19.4108 30.5348C19.1029 30.553 18.8017 30.6326 18.525 30.7691C18.2484 30.9055 18.0018 31.0959 17.7999 31.3292C17.598 31.5624 17.4449 31.8337 17.3495 32.127C17.2542 32.4204 17.2185 32.7299 17.2446 33.0373C17.2981 33.7148 17.6028 34.348 18.099 34.8124C18.5951 35.2769 19.247 35.5393 19.9266 35.548H29.7507C30.0359 35.5513 30.3186 35.4949 30.5807 35.3826C30.8428 35.2702 31.0786 35.1043 31.2728 34.8955C31.4671 34.6867 31.6155 34.4396 31.7087 34.17C31.8018 33.9005 31.8376 33.6144 31.8137 33.3302C31.765 32.7333 31.4956 32.176 31.0581 31.767C30.6205 31.3581 30.0463 31.1269 29.4474 31.1187Z" fill="white"/>
<path d="M35.7045 7.11536H35.62C35.3992 6.68939 35.0668 6.33139 34.6584 6.07959C34.25 5.82779 33.7809 5.69164 33.3011 5.68568C33.0548 5.68515 32.8098 5.72273 32.5749 5.79708C32.3433 5.37362 32.0033 5.01938 31.5896 4.77069C31.176 4.52199 30.7036 4.38779 30.221 4.38185C29.61 4.37302 29.0204 4.60704 28.5818 5.03252C28.1432 5.458 27.8913 6.04016 27.8816 6.65118C27.6414 6.66546 27.4066 6.72765 27.1909 6.83408C26.9751 6.94051 26.7829 7.08903 26.6254 7.2709C26.468 7.45276 26.3485 7.66429 26.2741 7.89303C26.1996 8.12178 26.1717 8.3631 26.1919 8.6028C26.234 9.13054 26.4716 9.62356 26.8582 9.98531C27.2447 10.3471 27.7524 10.5515 28.2818 10.5585H35.9397C36.1623 10.5616 36.3831 10.5181 36.5878 10.4307C36.7926 10.3434 36.9767 10.2141 37.1285 10.0512C37.2803 9.8884 37.3963 9.69558 37.469 9.48521C37.5418 9.27483 37.5697 9.05155 37.551 8.82973C37.5101 8.36606 37.2987 7.93403 36.9576 7.61732C36.6165 7.3006 36.17 7.12174 35.7045 7.11536Z" fill="white"/>
<path opacity="0.3" d="M38.7539 39.2367H24.6098C24.5076 39.2355 24.4062 39.2556 24.3122 39.2958C24.2183 39.336 24.1337 39.3954 24.064 39.4702C23.9943 39.5449 23.9409 39.6334 23.9074 39.73C23.8738 39.8265 23.8608 39.929 23.8691 40.0309L24.4427 48.4666C24.4592 48.681 24.5553 48.8815 24.7123 49.0285C24.8692 49.1755 25.0755 49.2584 25.2906 49.2609H27.1886L27.3474 51.5942L29.5198 49.2609H39.4223C39.5246 49.2624 39.6261 49.2425 39.7202 49.2024C39.8143 49.1623 39.899 49.1029 39.9688 49.0281C40.0386 48.9532 40.0919 48.8646 40.1253 48.7679C40.1588 48.6712 40.1716 48.5686 40.1629 48.4666L39.5915 40.0309C39.5743 39.8186 39.4792 39.6201 39.3247 39.4735C39.1701 39.3269 38.9668 39.2426 38.7539 39.2367Z" fill="white"/>
<path d="M38.6446 44.7821H25.4702L25.3979 43.7155H38.5745L38.6446 44.7821Z" fill="white"/>
<path d="M34.6277 46.9978H25.6205L25.5483 45.9312H34.5555L34.6277 46.9978Z" fill="white"/>
<path d="M38.4958 42.5664H25.3193L25.2471 41.4998H38.4236L38.4958 42.5664Z" fill="white"/>
<g clip-path="url(#clip0)">
<path d="M53.4319 38.4532C52.4334 38.4532 51.624 39.2627 51.624 40.2611V48.6978C51.624 49.6963 52.4334 50.5057 53.4319 50.5057C54.4303 50.5057 55.2398 49.6963 55.2398 48.6978V40.2611C55.2398 39.2627 54.4303 38.4532 53.4319 38.4532Z" fill="#263238"/>
<path d="M73.9212 38.4532C72.9227 38.4532 72.1133 39.2627 72.1133 40.2611V48.6978C72.1133 49.6963 72.9227 50.5057 73.9212 50.5057C74.9196 50.5057 75.729 49.6963 75.729 48.6978V40.2611C75.729 39.2627 74.9197 38.4532 73.9212 38.4532Z" fill="#263238"/>
<path d="M70.3051 38.4532H57.0475C56.7146 38.4532 56.4448 38.7231 56.4448 39.0559V48.6978C56.4445 50.1299 57.4522 51.3642 58.8553 51.6507V55.9293C58.8553 56.9277 59.6648 57.7372 60.6632 57.7372C61.6617 57.7372 62.4711 56.9277 62.4711 55.9293V51.7109H64.8816V55.9293C64.8816 56.9277 65.691 57.7372 66.6894 57.7372C67.6879 57.7372 68.4973 56.9277 68.4973 55.9293V51.6507C69.9004 51.3642 70.9081 50.1299 70.9078 48.6978V39.0559C70.9078 38.7231 70.6379 38.4532 70.3051 38.4532Z" fill="#263238"/>
<path d="M68.0575 31.3086L69.5266 29.8406C69.766 29.6093 69.7726 29.2279 69.5414 28.9884C69.3102 28.7491 68.9287 28.7425 68.6893 28.9736C68.6843 28.9785 68.6794 28.9834 68.6745 28.9884L66.9631 30.6999C64.867 29.7894 62.487 29.7894 60.3909 30.6999L58.6794 28.9872C58.4401 28.756 58.0585 28.7627 57.8273 29.002C57.6018 29.2356 57.6018 29.6058 57.8273 29.8393L59.2953 31.3085C57.5057 32.4926 56.4338 34.4994 56.4449 36.6453C56.4449 36.9781 56.7147 37.248 57.0476 37.248H70.3053C70.6381 37.248 70.9079 36.9781 70.9079 36.6453C70.9189 34.4995 69.8471 32.4927 68.0575 31.3086Z" fill="#263238"/>
<path d="M60.6632 34.8375C60.996 34.8375 61.2658 34.5677 61.2658 34.2349C61.2658 33.902 60.996 33.6322 60.6632 33.6322C60.3304 33.6322 60.0605 33.902 60.0605 34.2349C60.0605 34.5677 60.3304 34.8375 60.6632 34.8375Z" fill="#FAFAFA"/>
<path d="M66.6896 34.8375C67.0224 34.8375 67.2922 34.5677 67.2922 34.2349C67.2922 33.902 67.0224 33.6322 66.6896 33.6322C66.3567 33.6322 66.0869 33.902 66.0869 34.2349C66.0869 34.5677 66.3567 34.8375 66.6896 34.8375Z" fill="#FAFAFA"/>
</g>
<defs>
<clipPath id="clip0">
<rect width="28.9327" height="28.9327" fill="white" transform="translate(49.21 28.8045)"/>
</clipPath>
</defs>
</svg>
