<svg width="42" height="90" viewBox="0 0 42 90" fill="none" xmlns="http://www.w3.org/2000/svg">
<g clip-path="url(#clip0)">
<path d="M0.652715 12.53H-0.264404V25.5007H0.652715V12.53Z" fill="#535461"/>
<path d="M0.652715 29.9551H-0.264404V37.292H0.652715V29.9551Z" fill="#535461"/>
<path d="M35.4901 -0.178711H6.56152C3.15343 -0.178711 0.390625 2.58409 0.390625 5.99219V83.266C0.390625 86.6741 3.15343 89.4369 6.56152 89.4369H35.4901C38.8981 89.4369 41.661 86.6741 41.661 83.266V5.99219C41.661 2.58409 38.8981 -0.178711 35.4901 -0.178711Z" fill="#535461"/>
<path d="M34.5592 4.01392H7.22205C4.00144 4.01392 1.39062 6.81057 1.39062 10.2604V80.391C1.39062 83.8408 4.00144 86.6375 7.22205 86.6375H34.5592C37.7798 86.6375 40.3906 83.8408 40.3906 80.391V10.2604C40.3906 6.81057 37.7798 4.01392 34.5592 4.01392Z" fill="#BEC4DA"/>
<path d="M24.0391 1.78662H18.1434C17.8901 1.78662 17.6848 1.99193 17.6848 2.24518C17.6848 2.49844 17.8901 2.70374 18.1434 2.70374H24.0391C24.2924 2.70374 24.4977 2.49844 24.4977 2.24518C24.4977 1.99193 24.2924 1.78662 24.0391 1.78662Z" fill="#EAEAF3"/>
<path d="M26.856 2.96569C27.2178 2.96569 27.5111 2.6724 27.5111 2.3106C27.5111 1.94881 27.2178 1.65552 26.856 1.65552C26.4942 1.65552 26.2009 1.94881 26.2009 2.3106C26.2009 2.6724 26.4942 2.96569 26.856 2.96569Z" fill="#EAEAF3"/>
<path d="M10.3216 40.2008V49.765C10.3249 50.0649 10.2686 50.3624 10.1558 50.6403C10.0431 50.9183 9.87627 51.171 9.665 51.3838C9.45373 51.5967 9.20225 51.7654 8.92518 51.8802C8.64812 51.995 8.35099 52.0536 8.05109 52.0525C6.78809 52.0525 5.56177 51.0293 5.56177 49.765V40.2008C5.56177 38.9535 6.78416 37.9302 8.05109 37.9302C8.65253 37.9326 9.22864 38.1726 9.65392 38.5979C10.0792 39.0232 10.3192 39.5993 10.3216 40.2008ZM11.2138 53.1636C11.2131 53.4846 11.2759 53.8027 11.3984 54.0994C11.521 54.3962 11.7009 54.6659 11.928 54.8929C12.155 55.1199 12.4246 55.2999 12.7214 55.4224C13.0182 55.545 13.3362 55.6077 13.6573 55.607H15.3003L15.3252 60.6525C15.3252 63.6986 19.8832 63.675 19.8832 60.6525V55.6083H22.9543V60.6538C22.9543 63.6842 27.5399 63.6921 27.5399 60.6538V55.6083H29.2077C29.5275 55.6073 29.8441 55.5433 30.1392 55.4199C30.4343 55.2966 30.7022 55.1163 30.9276 54.8894C31.1531 54.6625 31.3316 54.3934 31.4531 54.0975C31.5745 53.8016 31.6365 53.4847 31.6354 53.1649V38.3469H11.2138V53.1636ZM31.6905 37.5503H11.1208C11.1208 34.0128 13.2341 30.9444 16.372 29.3434L14.7998 26.4283C14.5692 26.0234 15.1548 25.7732 15.3527 26.1151L16.955 29.0552C18.3649 28.4384 19.8871 28.12 21.426 28.12C22.9648 28.12 24.4871 28.4384 25.8969 29.0552L27.4901 26.1243C27.6971 25.7693 28.2762 26.0339 28.043 26.4374L26.4708 29.3434C29.5772 30.9444 31.6905 34.0168 31.6905 37.5503ZM17.5957 32.9647C17.5957 32.7347 17.5043 32.5141 17.3416 32.3514C17.179 32.1887 16.9584 32.0974 16.7283 32.0974C16.5043 32.1061 16.2924 32.2012 16.1369 32.3628C15.9815 32.5244 15.8947 32.7398 15.8947 32.964C15.8947 33.1882 15.9815 33.4037 16.1369 33.5653C16.2924 33.7269 16.5043 33.822 16.7283 33.8307C16.9577 33.8307 17.1777 33.7399 17.3402 33.5781C17.5028 33.4163 17.5946 33.1967 17.5957 32.9673V32.9647ZM26.9595 32.9647C26.9568 32.7958 26.9042 32.6315 26.8083 32.4925C26.7123 32.3536 26.5773 32.2461 26.4204 32.1839C26.2634 32.1216 26.0914 32.1072 25.9263 32.1426C25.7612 32.178 25.6102 32.2616 25.4926 32.3827C25.3749 32.5038 25.2958 32.6572 25.2652 32.8233C25.2346 32.9894 25.254 33.1608 25.3208 33.3159C25.3876 33.471 25.4989 33.6028 25.6407 33.6947C25.7824 33.7865 25.9481 33.8343 26.117 33.832C26.3427 33.8269 26.5573 33.7334 26.7149 33.5717C26.8724 33.4101 26.9602 33.193 26.9595 32.9673V32.9647ZM34.7864 37.9276C34.488 37.9267 34.1924 37.9849 33.9165 38.0987C33.6406 38.2125 33.39 38.3797 33.179 38.5907C32.968 38.8017 32.8007 39.0524 32.6869 39.3282C32.5732 39.6041 32.515 39.8997 32.5159 40.1981V49.7624C32.5147 50.0617 32.5725 50.3583 32.6859 50.6353C32.7994 50.9122 32.9663 51.1641 33.1772 51.3766C33.388 51.589 33.6387 51.7578 33.9148 51.8734C34.1909 51.9889 34.4871 52.0489 34.7864 52.0499C36.0586 52.0499 37.2757 51.0267 37.2757 49.7624V40.1981C37.2718 38.9299 36.0494 37.9302 34.7864 37.9302V37.9276Z" fill="white"/>
</g>
<defs>
<clipPath id="clip0">
<rect width="41.6842" height="90" fill="white"/>
</clipPath>
</defs>
</svg>
