<svg width="98" height="62" viewBox="0 0 98 62" fill="none" xmlns="http://www.w3.org/2000/svg">
<path d="M30.9489 0.00850974C30.9489 0.00850974 49.1905 -0.8069 58.8617 17.4573H29.3967C29.3967 17.4573 23.8361 17.2788 19.0861 23.9984C17.7216 26.8188 16.2549 29.7241 17.9008 35.4498C15.5298 31.4485 5.31312 13.7281 5.31312 13.7281C5.31312 13.7281 12.5194 0.730556 30.9487 0.00850974H30.9489Z" fill="#EF3F36"/>
<path d="M57.9151 46.3742C57.9151 46.3742 49.4977 62.5232 28.7914 61.7247C31.3498 57.3157 43.528 36.3076 43.528 36.3076C43.528 36.3076 46.4703 31.6013 42.9993 24.1428C41.2337 21.5518 39.4343 18.8419 33.6353 17.3975C38.3004 17.3553 58.8107 17.3975 58.8107 17.3975C58.8107 17.3975 66.4944 30.1148 57.9151 46.3742Z" fill="#FCD900"/>
<path d="M4.11048 46.5016C4.11048 46.5016 -5.72258 31.1681 5.32989 13.7024C7.87989 18.1114 20.058 39.1195 20.058 39.1195C20.058 39.1195 22.6848 44.0127 30.8974 44.7429C34.0274 44.5138 37.2851 44.3184 41.4471 40.0454C39.1526 44.0892 28.8589 61.7587 28.8589 61.7587C28.8589 61.7587 13.9518 62.0306 4.11024 46.5016H4.11048Z" fill="#61BC5B"/>
<path d="M28.7826 61.8777L32.9272 44.6499C32.9272 44.6499 37.4812 44.2928 41.302 40.1219C38.931 44.2762 28.7826 61.8777 28.7826 61.8777V61.8777Z" fill="#5AB055"/>
<path d="M17.0651 31.1342C17.0651 23.5398 23.2481 17.3808 30.8722 17.3808C38.4963 17.3808 44.6793 23.5398 44.6793 31.1342C44.6793 38.7288 38.4963 44.8876 30.8722 44.8876C23.2481 44.8791 17.0651 38.7288 17.0651 31.1342V31.1342Z" fill="white"/>
<path d="M19.376 31.134C19.376 24.8139 24.5186 19.6829 30.8722 19.6829C37.217 19.6829 42.3681 24.8055 42.3681 31.134C42.3681 37.4544 37.2257 42.5855 30.8722 42.5855C24.5271 42.5855 19.376 37.4544 19.376 31.134V31.134Z" fill="url(#paint0_linear)"/>
<path d="M58.8018 17.4062L41.7367 22.3928C41.7367 22.3928 39.1613 18.6294 33.6266 17.4062C38.428 17.3807 58.8018 17.4062 58.8018 17.4062V17.4062Z" fill="#EACA05"/>
<path d="M17.5683 34.8211C15.1716 30.6839 5.31312 13.728 5.31312 13.728L17.9519 26.1816C17.9519 26.1816 16.6555 28.8406 17.1418 32.6462L17.568 34.8211H17.5683Z" fill="#DF3A32"/>
<path d="M96.1783 27.0203C95.8019 26.4548 95.2687 26.1265 94.6061 26.0403C94.2954 26.0021 93.9709 25.9491 93.6641 25.9001C93.271 25.8403 92.8672 25.7766 92.4692 25.7335C91.4076 25.6257 90.7568 25.1837 90.3637 24.3173C90.0942 23.7254 90.0618 23.1971 90.2657 22.6757L90.4176 22.2827C90.6803 21.5996 90.9548 20.8881 91.2459 20.1991C91.5263 19.5317 91.5047 18.8751 91.1822 18.24C90.5902 17.0767 89.6589 16.2691 88.4209 15.8438C87.7201 15.6017 87.0251 15.6929 86.3958 16.1074C86.0949 16.3015 85.7822 16.4896 85.4764 16.6729C85.05 16.9316 84.6089 17.2002 84.1943 17.4913C83.9041 17.6951 83.5375 17.8029 83.1386 17.8029V17.8029C82.1427 17.8029 81.1782 17.1463 80.9419 16.3122C80.8184 15.8653 80.6675 15.4243 80.5214 14.999C80.393 14.6383 80.2685 14.262 80.1548 13.8954C79.9235 13.1153 79.4118 12.5763 78.6316 12.2911C78.4061 12.2107 78.1738 12.146 77.9474 12.0921C77.8562 12.0657 77.7543 12.0382 77.6621 12.0108L77.6141 12H76.3271L76.2781 12.0167C76.2516 12.0225 76.23 12.0333 76.2036 12.0431C76.1712 12.0539 76.1379 12.0647 76.1016 12.0706C74.7882 12.3077 74.002 12.9752 73.7099 14.1267C73.5815 14.6334 73.3992 15.144 73.2267 15.634C73.1345 15.8987 73.0424 16.1623 72.9571 16.4259C72.6983 17.2119 71.7671 17.8313 70.835 17.8313C70.4644 17.8313 70.1135 17.7294 69.8293 17.5295C69.3068 17.1737 68.7638 16.8405 68.2354 16.523C67.9825 16.3671 67.7296 16.2162 67.4817 16.0604C66.9915 15.7536 66.4534 15.6615 65.9212 15.7967C64.4744 16.1505 63.4148 17.0336 62.7629 18.4174C62.5051 18.9721 62.4934 19.5798 62.7414 20.1825C62.8541 20.4569 62.9619 20.7323 63.0697 21.0116C63.2315 21.437 63.3981 21.8731 63.5863 22.2984C63.9735 23.1707 63.9313 23.941 63.4402 24.7103C63.107 25.2386 62.6708 25.5503 62.1052 25.6581C61.2916 25.8149 60.4202 25.9491 59.5106 26.0569C58.7401 26.1432 58.1422 26.5254 57.7285 27.1928C57.1688 28.0974 56.9316 29.1255 57.0169 30.2398C57.0983 31.2846 57.5992 32.0323 58.5039 32.4636C58.8323 32.6204 59.1548 32.8085 59.4733 32.9859C59.8223 33.1849 60.1791 33.3897 60.5555 33.5671C61.0946 33.8141 61.4975 34.3855 61.6268 35.0793C61.7611 35.8016 61.5788 36.5337 61.1416 36.9797C60.5329 37.6147 59.936 38.2988 59.3704 39.0094C59.1116 39.3269 58.9283 39.7258 58.8578 40.108C58.5951 41.6094 59.8546 43.8332 61.2661 44.3605C61.6151 44.4898 62.0572 44.5271 62.461 44.4673C63.2197 44.3487 64.0068 44.1929 64.8625 43.9831C65.7408 43.7675 66.4191 43.9498 67.07 44.5918C67.5591 45.0759 67.7806 45.5983 67.764 46.249C67.7434 47.084 67.7218 47.9779 67.6836 48.8824C67.6512 49.5655 67.8884 50.1585 68.3785 50.6377C69.1598 51.4022 70.14 51.855 71.3015 51.9784C71.4319 51.9951 71.5544 52 71.6789 52C72.5621 52 73.2776 51.6227 73.7903 50.8798C73.9942 50.5936 74.2157 50.3251 74.4519 50.0399C74.695 49.7439 74.942 49.443 75.1685 49.1196C75.539 48.5708 76.2232 48.2425 76.9878 48.2425C77.7366 48.2425 78.4149 48.5659 78.7972 49.099C79.1099 49.5401 79.454 49.9654 79.7833 50.3751C79.9872 50.623 80.1921 50.8759 80.3861 51.1336C80.7625 51.6237 81.2742 51.9089 81.8506 51.9628C83.2503 52.0921 84.505 51.6609 85.5705 50.6867C86.0812 50.2183 86.3243 49.6155 86.286 48.8893C86.2655 48.5718 86.2596 48.2376 86.2537 47.92C86.2439 47.4996 86.2321 47.0693 86.1998 46.644C86.1253 45.6424 86.438 44.9211 87.1751 44.3771C87.6642 44.0214 88.1435 43.892 88.666 43.9782C89.608 44.1341 90.449 44.3066 91.24 44.5065C92.0575 44.7054 92.8123 44.5173 93.4681 43.9351C94.2924 43.2138 94.8305 42.2935 95.0619 41.2057C95.256 40.2962 95.0403 39.5102 94.4208 38.8692C94.1777 38.6164 93.9415 38.3419 93.7151 38.0783C93.4886 37.8098 93.2524 37.5344 93.0034 37.2756C92.3261 36.5769 92.1379 35.8546 92.3908 34.9402C92.5633 34.2992 92.8799 33.869 93.3759 33.5887C94.1885 33.1251 94.9472 32.7105 95.702 32.3185C96.3048 32.001 96.692 31.511 96.8478 30.8602C97.186 29.4911 96.9596 28.1993 96.1783 27.0203Z" fill="#03A973" stroke="white" stroke-width="2"/>
<path d="M76.9083 27.3169L76.914 27.2361L76.9704 25.8086C76.96 25.7436 76.9854 25.4896 76.9854 25.4512C76.991 24.6891 77.0314 24.7433 77.0944 23.293C77.0982 23.1798 77.0531 23.0666 76.9657 22.9898C76.883 22.914 76.7683 22.8933 76.6603 22.9199C76.057 23.0764 75.308 23.2438 74.436 23.4171C74.2706 23.4496 74.1616 23.5953 74.1466 23.7637C74.0432 25.0997 74.0583 24.7866 74.0085 25.4128L73.8684 27.1928C73.8684 27.1928 73.8684 27.1977 73.8684 27.2037L73.7801 28.8853L73.5912 32.5409L73.5236 33.8385C73.4352 35.5103 73.3892 36.4564 73.3798 36.737C73.3685 37.0137 73.3638 37.2125 73.3638 37.3327C73.3638 38.2306 73.5179 38.966 73.8233 39.5115C74.1381 40.0677 74.592 40.4793 75.1756 40.7284C75.7281 40.9725 76.4554 41.0907 77.3387 41.0907C77.6845 41.0907 78.0613 41.069 78.4485 41.0306C78.8404 40.9873 79.3675 40.8849 80.0225 40.7274C80.1616 40.689 80.2706 40.5708 80.2912 40.4241C80.3429 40.0667 80.4002 39.6237 80.4472 39.1964C80.5083 38.6775 80.5703 38.142 80.6276 37.887C80.6587 37.7462 80.607 37.5995 80.4989 37.5138C80.3899 37.4272 80.2452 37.4114 80.123 37.4764C79.4878 37.8121 79.1317 37.947 78.5537 38.0602C78.3517 38.1036 78.176 38.1036 77.9852 38.1036H77.8931C77.6244 38.1036 77.2673 38.012 76.9788 37.8653C76.7157 37.7294 76.6537 37.6812 76.6067 37.4547C76.524 37.0274 76.524 36.9359 76.524 36.4279V36.2063L76.54 35.5782L76.7467 30.9597L76.9083 27.3169Z" fill="white"/>
<path d="M84.1862 27.5112L83.5665 26.1638C83.4637 25.9451 83.2789 25.7713 83.0565 25.6926C82.8341 25.6077 82.59 25.619 82.3725 25.7263L77.7904 27.9947L77.7963 27.9109L74.5 29.6232L72.5628 30.5831L71.8195 28.9607C71.7207 28.742 71.5368 28.5733 71.3144 28.4885C71.092 28.4046 70.8479 28.4159 70.6305 28.5232L69.3278 29.1621C68.883 29.3809 68.6932 29.9319 68.9047 30.3919L70.6473 34.1998C70.7501 34.4186 70.93 34.5924 71.1523 34.6711C71.2512 34.7109 71.354 34.7273 71.4508 34.7273C71.5862 34.7273 71.7177 34.6997 71.8363 34.6373L74.3013 33.4188L77.6203 31.7771L83.7661 28.7389C84.208 28.5222 84.3977 27.9712 84.1862 27.5112Z" fill="white"/>
<defs>
<linearGradient id="paint0_linear" x1="30.8716" y1="19.8445" x2="30.8716" y2="41.8961" gradientUnits="userSpaceOnUse">
<stop stop-color="#86BBE5"/>
<stop offset="1" stop-color="#1072BA"/>
</linearGradient>
</defs>
</svg>
