<svg width="311" height="231" viewBox="0 0 311 231" fill="none" xmlns="http://www.w3.org/2000/svg">
<path d="M311 202.553H0V202.708H311V202.553Z" fill="#EBEBEB"/>
<path d="M279.838 212.561H259.237V212.716H279.838V212.561Z" fill="#EBEBEB"/>
<path d="M206.019 214.253H200.614V214.408H206.019V214.253Z" fill="#EBEBEB"/>
<path d="M258.615 206.789H246.679V206.944H258.615V206.789Z" fill="#EBEBEB"/>
<path d="M59.4942 207.834H32.63V207.989H59.4942V207.834Z" fill="#EBEBEB"/>
<path d="M68.9735 207.834H65.0363V207.989H68.9735V207.834Z" fill="#EBEBEB"/>
<path d="M140.044 210.458H81.775V210.614H140.044V210.458Z" fill="#EBEBEB"/>
<path d="M278.184 50.9155H197.05V55.0829H278.184V50.9155Z" fill="#E0E0E0"/>
<path d="M204.359 35.552H200.782V50.9154H204.359V35.552Z" fill="#EBEBEB"/>
<path d="M221.643 35.552H218.067V50.9154H221.643V35.552Z" fill="#EBEBEB"/>
<path d="M241.266 35.158L237.742 35.7655L240.352 50.9056L243.876 50.2981L241.266 35.158Z" fill="#EBEBEB"/>
<path d="M208.787 37.5797H205.21V50.9216H208.787V37.5797Z" fill="#EBEBEB"/>
<path d="M217.003 37.5797H213.427V50.9216H217.003V37.5797Z" fill="#EBEBEB"/>
<path d="M237.741 37.5797H234.164V50.9216H237.741V37.5797Z" fill="#EBEBEB"/>
<path d="M226.336 37.1091L222.845 37.885L225.739 50.9091L229.231 50.1332L226.336 37.1091Z" fill="#EBEBEB"/>
<path d="M211.879 34.787H210.093V50.9154H211.879V34.787Z" fill="#EBEBEB"/>
<path d="M233.138 34.787H231.353V50.9154H233.138V34.787Z" fill="#EBEBEB"/>
<path d="M270.396 38.7553H252.98V50.7786H270.396V38.7553Z" fill="#EBEBEB"/>
<path d="M197.049 86.2015L278.183 86.2015V82.0341L197.049 82.0341V86.2015Z" fill="#E0E0E0"/>
<path d="M270.868 82.0404H274.444V66.677H270.868V82.0404Z" fill="#EBEBEB"/>
<path d="M253.589 82.0404H257.165V66.677H253.589V82.0404Z" fill="#EBEBEB"/>
<path d="M231.362 81.4296L234.886 82.0371L237.496 66.897L233.972 66.2895L231.362 81.4296Z" fill="#EBEBEB"/>
<path d="M266.44 82.0341H270.016V68.6923H266.44V82.0341Z" fill="#EBEBEB"/>
<path d="M258.23 82.0341H261.806V68.6923H258.23V82.0341Z" fill="#EBEBEB"/>
<path d="M237.492 82.0341H241.069V68.6923H237.492V82.0341Z" fill="#EBEBEB"/>
<path d="M246.01 81.2513L249.501 82.0273L252.396 69.0031L248.904 68.2272L246.01 81.2513Z" fill="#EBEBEB"/>
<path d="M263.356 82.0341H265.141V65.9057H263.356V82.0341Z" fill="#EBEBEB"/>
<path d="M242.095 82.0341H243.88V65.9057H242.095V82.0341Z" fill="#EBEBEB"/>
<path d="M204.831 81.9035H222.247V69.8802H204.831V81.9035Z" fill="#EBEBEB"/>
<path d="M32.9661 130.152V202.926H36.6981V137.616H102.63V202.926H106.984V130.152H32.9661Z" fill="#E0E0E0"/>
<path d="M74.0179 130.152V202.926H77.7499V137.616H143.682V202.926H148.036V130.152H74.0179Z" fill="#F5F5F5"/>
<path d="M97.5794 103.033C96.7459 101.664 95.3775 102.859 95.3775 102.859C95.5703 100.228 93.157 98.4363 93.157 98.4363C93.157 98.4363 95.9622 98.4363 96.354 95.7555C96.7459 93.0746 95.3775 94.3249 94.09 94.3062C92.8024 94.2875 91.4589 98.0382 93.157 100.153C94.855 102.268 94.401 105.875 90.4824 109.34C89.5446 110.216 88.8411 111.313 88.436 112.531C88.7345 109.346 88.9025 104.855 87.9633 101.863C86.3709 96.7693 89.4063 95.4009 90.2833 92.8569C91.1603 90.313 87.9633 88.1546 87.9633 88.1546C87.9633 88.1546 90.9737 86.7862 89.4996 85.2188C88.0255 83.6513 85.0025 83.8628 85.0025 85.9154C85.0025 87.968 87.0551 88.7455 87.0551 88.7455C87.0551 88.7455 89.4063 91.19 89.4063 92.4775C89.4063 93.7651 87.0551 96.4894 87.0551 96.4894C87.0551 96.4894 88.1312 94.1445 85.9791 94.045C83.827 93.9454 83.1365 96.7818 84.0198 98.0569C84.903 99.332 86.3709 98.2497 86.3709 98.2497C86.4608 99.7349 86.6857 101.209 87.0427 102.653C87.2604 103.387 87.1609 106.261 86.9743 109.247C86.565 108.168 85.9113 107.2 85.0647 106.417C81.1524 102.952 80.7107 99.3444 82.3901 97.2296C84.0695 95.1148 82.7447 91.3641 81.4571 91.3828C80.1696 91.4015 78.8012 90.1388 79.1931 92.8321C79.5849 95.5253 82.3901 95.5129 82.3901 95.5129C82.3901 95.5129 79.9768 97.3042 80.1758 99.9353C80.1758 99.9353 78.8012 98.7411 77.9677 100.109C76.4874 102.56 79.927 104.078 80.5055 102.871C80.5055 102.871 87.8078 108.04 86.0475 115.479L86.458 116.101C86.402 116.723 86.3709 117.065 86.3709 117.065L86.9432 116.823L87.5652 117.78C87.543 118.861 87.5991 119.942 87.7331 121.015L89.4747 118.434C87.7145 110.97 95.0167 105.826 95.0167 105.826C95.6201 107.001 99.066 105.484 97.5794 103.033Z" fill="#E0E0E0"/>
<path d="M93.1566 130.152L90.7992 116.661L91.4647 112.736H84.0442L84.7098 116.661L82.3586 130.152H93.1566Z" fill="#EBEBEB"/>
<path d="M155.499 230.642C222.105 230.642 276.099 227.49 276.099 223.601C276.099 219.713 222.105 216.56 155.499 216.56C88.894 216.56 34.8997 219.713 34.8997 223.601C34.8997 227.49 88.894 230.642 155.499 230.642Z" fill="#F5F5F5"/>
<path d="M187.057 31.4342L167.897 21.087L154.384 46.1094L173.545 56.4566L187.057 31.4342Z" fill="#92E3A9"/>
<path opacity="0.6" d="M187.057 31.4342L167.897 21.087L154.384 46.1094L173.545 56.4566L187.057 31.4342Z" fill="white"/>
<path d="M182.286 33.4367L168.845 26.1779L168.115 27.5298L181.556 34.7885L182.286 33.4367Z" fill="#92E3A9"/>
<path d="M181.008 35.8054L167.566 28.5467L166.836 29.8985L180.278 37.1573L181.008 35.8054Z" fill="#92E3A9"/>
<path d="M179.728 38.172L166.286 30.9133L165.556 32.2651L178.998 39.5239L179.728 38.172Z" fill="#92E3A9"/>
<path d="M178.445 40.5378L165.003 33.2791L164.273 34.6309L177.715 41.8896L178.445 40.5378Z" fill="#92E3A9"/>
<path d="M177.171 42.9012L163.729 35.6424L162.999 36.9942L176.441 44.253L177.171 42.9012Z" fill="#92E3A9"/>
<path d="M175.893 45.2732L162.451 38.0144L161.721 39.3662L175.163 46.625L175.893 45.2732Z" fill="#92E3A9"/>
<path d="M174.619 47.6365L161.177 40.3778L160.447 41.7296L173.889 48.9883L174.619 47.6365Z" fill="#92E3A9"/>
<path d="M168.593 47.4456L159.891 42.7464L159.161 44.0982L167.863 48.7975L168.593 47.4456Z" fill="#92E3A9"/>
<path d="M136.149 31.6208C133.438 31.3434 130.871 30.2684 128.771 28.5317C126.671 26.7951 125.133 24.4748 124.352 21.8642C123.571 19.2537 123.582 16.4701 124.383 13.8656C125.184 11.2611 126.739 8.95254 128.852 7.23192C130.965 5.5113 133.541 4.45588 136.253 4.19912C138.966 3.94236 141.694 4.49579 144.092 5.78943C146.491 7.08307 148.451 9.05881 149.727 11.4668C151.002 13.8748 151.535 16.6069 151.257 19.3177C150.881 22.9507 149.079 26.286 146.246 28.5923C143.414 30.8987 139.783 31.9878 136.149 31.6208V31.6208Z" fill="#92E3A9"/>
<path opacity="0.3" d="M138.521 30.4341C145.443 29.9014 150.623 23.8582 150.09 16.9361C149.557 10.014 143.514 4.83431 136.592 5.36693C129.67 5.89956 124.49 11.9428 125.023 18.8649C125.556 25.787 131.599 30.9667 138.521 30.4341Z" fill="white"/>
<path d="M141.816 13.8379C140.366 12.8116 138.345 9.30348 138.345 9.28482L137.039 21.9985C137.07 21.7124 135.938 21.42 135.173 21.3765C133.35 21.1837 131.814 22.042 131.689 23.2425C131.565 24.443 132.933 25.6372 134.799 25.8238C136.665 26.0104 138.14 25.152 138.27 23.9205C138.27 23.7339 138.14 23.5348 138.158 23.3669L139.16 13.5704C139.908 14.432 140.827 15.1288 141.859 15.6168C143.234 16.2388 143.725 18.1483 143.725 18.1483C143.793 17.3275 143.653 16.5028 143.319 15.7498C142.986 14.9968 142.469 14.3394 141.816 13.8379V13.8379Z" fill="white"/>
<path opacity="0.5" d="M139.886 22.3158C144.747 19.795 146.994 14.4858 144.905 10.4573C142.816 6.42885 137.182 5.20663 132.321 7.7274C127.46 10.2482 125.213 15.5574 127.302 19.5859C129.391 23.6143 135.025 24.8365 139.886 22.3158Z" fill="white"/>
<path d="M110.584 0.0297639L80.9813 2.43755L82.784 24.6009L112.387 22.1931L110.584 0.0297639Z" fill="#92E3A9"/>
<path d="M109.268 1.58505L82.6101 3.75331L84.1733 22.9718L110.831 20.8036L109.268 1.58505Z" fill="#92E3A9"/>
<path opacity="0.5" d="M109.268 1.58505L82.6101 3.75331L84.1733 22.9718L110.831 20.8036L109.268 1.58505Z" fill="white"/>
<path d="M110.616 18.1918L110.828 20.8042L84.1687 22.975L83.4099 13.6326L88.5165 8.37045L97.3302 15.6665L101.398 12.1646L110.616 18.1918Z" fill="#92E3A9"/>
<path opacity="0.3" d="M110.616 18.1918L110.828 20.8042L84.1687 22.975L83.4099 13.6326L88.5165 8.37045L97.3302 15.6665L101.398 12.1646L110.616 18.1918Z" fill="white"/>
<path d="M105.236 6.99592C105.27 7.42011 105.178 7.84494 104.971 8.21671C104.764 8.58847 104.451 8.89047 104.072 9.08453C103.693 9.27859 103.266 9.356 102.843 9.30697C102.42 9.25794 102.021 9.08467 101.697 8.80907C101.373 8.53347 101.138 8.16791 101.021 7.75861C100.904 7.3493 100.912 6.91463 101.042 6.50953C101.173 6.10444 101.42 5.74712 101.754 5.48273C102.087 5.21835 102.492 5.05877 102.916 5.02418C103.198 5.0012 103.481 5.03398 103.75 5.12065C104.02 5.20731 104.269 5.34617 104.484 5.52928C104.7 5.7124 104.877 5.93618 105.006 6.18783C105.135 6.43948 105.213 6.71407 105.236 6.99592Z" fill="#92E3A9"/>
<path opacity="0.3" d="M105.236 6.99592C105.27 7.42011 105.178 7.84494 104.971 8.21671C104.764 8.58847 104.451 8.89047 104.072 9.08453C103.693 9.27859 103.266 9.356 102.843 9.30697C102.42 9.25794 102.021 9.08467 101.697 8.80907C101.373 8.53347 101.138 8.16791 101.021 7.75861C100.904 7.3493 100.912 6.91463 101.042 6.50953C101.173 6.10444 101.42 5.74712 101.754 5.48273C102.087 5.21835 102.492 5.05877 102.916 5.02418C103.198 5.0012 103.481 5.03398 103.75 5.12065C104.02 5.20731 104.269 5.34617 104.484 5.52928C104.7 5.7124 104.877 5.93618 105.006 6.18783C105.135 6.43948 105.213 6.71407 105.236 6.99592Z" fill="white"/>
<path d="M53.7343 26.197L52.5898 25.4941C52.3869 25.3687 52.1573 25.2926 51.9197 25.2721C51.682 25.2516 51.4428 25.2872 51.2214 25.3759L46.1396 27.5218C45.926 27.6086 45.7386 27.7494 45.5958 27.9304C45.453 28.1114 45.3596 28.3264 45.3248 28.5544L45.1382 29.7984C45.1066 30.0258 45.0151 30.2407 44.873 30.4211C44.7309 30.6014 44.5434 30.7407 44.3296 30.8247L41.2943 32.0687C41.1209 32.1391 40.9642 32.2451 40.8344 32.3798C40.7046 32.5146 40.6045 32.6751 40.5406 32.851C40.4767 33.0269 40.4504 33.2142 40.4634 33.4009C40.4765 33.5875 40.5286 33.7694 40.6163 33.9347L48.7023 50.5047C48.8733 50.8481 49.167 51.1148 49.5252 51.2519C49.8835 51.3889 50.2802 51.3865 50.6367 51.2449L74.6832 41.2058C74.8578 41.1368 75.0157 41.0317 75.1468 40.8973C75.2778 40.763 75.379 40.6024 75.4436 40.4262C75.5082 40.25 75.5348 40.0621 75.5217 39.8749C75.5086 39.6876 75.456 39.5053 75.3674 39.3398L67.2814 22.776C67.1115 22.4315 66.8183 22.1635 66.4599 22.0252C66.1015 21.8869 65.7043 21.8885 65.347 22.0296L55.1027 26.3152C54.8812 26.4039 54.6421 26.4395 54.4044 26.419C54.1667 26.3984 53.9372 26.3224 53.7343 26.197V26.197Z" fill="#92E3A9"/>
<path d="M68.4189 22.6454L46.3939 31.8758C45.9447 32.0701 45.5825 32.4226 45.3761 32.8664C45.1697 33.3101 45.1335 33.8143 45.2743 34.283L50.0948 49.5406C50.1627 49.7593 50.2763 49.9611 50.428 50.1326C50.5797 50.304 50.766 50.4414 50.9748 50.5355C51.1835 50.6295 51.4099 50.6782 51.6388 50.6783C51.8678 50.6784 52.0941 50.6298 52.3029 50.5358L74.3342 41.3178C74.7816 41.1214 75.1421 40.7686 75.3482 40.3255C75.5543 39.8824 75.5918 39.3794 75.4538 38.9107L70.6271 23.653C70.5614 23.4326 70.4493 23.2289 70.2984 23.0555C70.1474 22.882 69.9611 22.7429 69.752 22.6474C69.5428 22.552 69.3156 22.5024 69.0857 22.5021C68.8558 22.5017 68.6284 22.5506 68.4189 22.6454V22.6454Z" fill="#92E3A9"/>
<path opacity="0.5" d="M68.4189 22.6454L46.3939 31.8758C45.9447 32.0701 45.5825 32.4226 45.3761 32.8664C45.1697 33.3101 45.1335 33.8143 45.2743 34.283L50.0948 49.5406C50.1627 49.7593 50.2763 49.9611 50.428 50.1326C50.5797 50.304 50.766 50.4414 50.9748 50.5355C51.1835 50.6295 51.4099 50.6782 51.6388 50.6783C51.8678 50.6784 52.0941 50.6298 52.3029 50.5358L74.3342 41.3178C74.7816 41.1214 75.1421 40.7686 75.3482 40.3255C75.5543 39.8824 75.5918 39.3794 75.4538 38.9107L70.6271 23.653C70.5614 23.4326 70.4493 23.2289 70.2984 23.0555C70.1474 22.882 69.9611 22.7429 69.752 22.6474C69.5428 22.552 69.3156 22.5024 69.0857 22.5021C68.8558 22.5017 68.6284 22.5506 68.4189 22.6454Z" fill="white"/>
<path d="M148.335 59.244C148.609 57.9599 148.746 56.6507 148.746 55.3378C148.746 52.9021 148.266 50.4902 147.334 48.2398C146.402 45.9894 145.036 43.9447 143.313 42.2224C141.591 40.5 139.546 39.1338 137.296 38.2017C135.046 37.2695 132.634 36.7898 130.198 36.7898C129.048 36.791 127.901 36.8972 126.771 37.107C126.298 37.0199 125.819 37.107 125.328 37.051C123.58 33.2525 120.772 30.0394 117.243 27.7974C113.713 25.5554 109.611 24.3799 105.43 24.412H98.5879C95.7243 24.3981 92.8862 24.9492 90.2359 26.034C87.5857 27.1187 85.1755 28.7156 83.1434 30.7332C81.1113 32.7509 79.4973 35.1496 78.3937 37.792C77.2901 40.4344 76.7187 43.2686 76.7122 46.1322C76.7122 46.2939 76.7122 46.3748 76.7122 46.5365C72.1874 47.3357 68.1283 49.8067 65.3406 53.4593C62.5528 57.1118 61.2401 61.6789 61.663 66.2543C62.0858 70.8297 64.2133 75.0788 67.6232 78.1586C71.0332 81.2384 75.4763 82.9237 80.071 82.88H147.247C150.381 83.0227 153.444 81.9144 155.761 79.799C158.078 77.6836 159.46 74.7344 159.603 71.6C159.746 68.4657 158.637 65.4031 156.522 63.0858C154.407 60.7686 151.457 59.3867 148.323 59.244H148.335Z" fill="#92E3A9"/>
<path opacity="0.5" d="M148.335 59.244C148.609 57.9599 148.746 56.6507 148.746 55.3378C148.746 52.9021 148.266 50.4902 147.334 48.2398C146.402 45.9894 145.036 43.9447 143.313 42.2224C141.591 40.5 139.546 39.1338 137.296 38.2017C135.046 37.2695 132.634 36.7898 130.198 36.7898C129.048 36.791 127.901 36.8972 126.771 37.107C126.298 37.0199 125.819 37.107 125.328 37.051C123.58 33.2525 120.772 30.0394 117.243 27.7974C113.713 25.5554 109.611 24.3799 105.43 24.412H98.5879C95.7243 24.3981 92.8862 24.9492 90.2359 26.034C87.5857 27.1187 85.1755 28.7156 83.1434 30.7332C81.1113 32.7509 79.4973 35.1496 78.3937 37.792C77.2901 40.4344 76.7187 43.2686 76.7122 46.1322C76.7122 46.2939 76.7122 46.3748 76.7122 46.5365C72.1874 47.3357 68.1283 49.8067 65.3406 53.4593C62.5528 57.1118 61.2401 61.6789 61.663 66.2543C62.0858 70.8297 64.2133 75.0788 67.6232 78.1586C71.0332 81.2384 75.4763 82.9237 80.071 82.88H147.247C150.381 83.0227 153.444 81.9144 155.761 79.799C158.078 77.6836 159.46 74.7344 159.603 71.6C159.746 68.4657 158.637 65.4031 156.522 63.0858C154.407 60.7686 151.457 59.3867 148.323 59.244H148.335Z" fill="white"/>
<path opacity="0.4" d="M148.335 59.244C148.609 57.9599 148.746 56.6506 148.746 55.3378C148.746 52.902 148.266 50.4901 147.334 48.2398C146.402 45.9894 145.036 43.9447 143.313 42.2224C141.591 40.5 139.546 39.1338 137.296 38.2016C135.046 37.2695 132.634 36.7898 130.198 36.7898C129.048 36.791 127.901 36.8971 126.771 37.107C126.298 37.0199 125.819 37.107 125.328 37.051C123.579 33.2525 120.772 30.0393 117.242 27.7974C113.713 25.5554 109.611 24.3798 105.43 24.412C102.566 24.398 99.728 24.9492 97.0778 26.0339C94.4276 27.1186 92.0174 28.7155 89.9853 30.7332C87.9532 32.7508 86.3391 35.1496 85.2356 37.792C84.132 40.4344 83.5606 43.2686 83.5541 46.1322C83.5541 46.2939 83.5541 46.3748 83.5541 46.5365C79.0292 47.3356 74.9702 49.8067 72.1824 53.4592C69.3947 57.1118 68.082 61.6789 68.5048 66.2543C68.9277 70.8296 71.0552 75.0788 74.4651 78.1586C77.8751 81.2384 82.3182 82.9236 86.9129 82.88H147.247C150.381 83.0227 153.444 81.9144 155.761 79.799C158.078 77.6836 159.46 74.7343 159.603 71.6C159.746 68.4657 158.637 65.403 156.522 63.0858C154.407 60.7686 151.457 59.3867 148.323 59.244H148.335Z" fill="white"/>
<path d="M166.491 113.358H145.548C137.303 113.348 129.398 110.068 123.568 104.238C117.738 98.4079 114.458 90.5032 114.448 82.258V76.038H108.228V82.258C108.24 92.1523 112.176 101.638 119.172 108.634C126.168 115.631 135.654 119.566 145.548 119.578H166.491V113.358Z" fill="#92E3A9"/>
<path d="M111.264 71.8953L105.871 77.2819H116.65L111.264 71.8953Z" fill="#92E3A9"/>
<path d="M64.8624 193.179L61.1304 181.778C62.9709 180.207 65.1386 179.066 67.4757 178.439C69.8128 177.812 72.2604 177.714 74.6402 178.152L77.7502 188.825L64.8624 193.179Z" fill="#92E3A9"/>
<path opacity="0.7" d="M64.8624 193.179L61.1304 181.778C62.9709 180.207 65.1386 179.066 67.4757 178.439C69.8128 177.812 72.2604 177.714 74.6402 178.152L77.7502 188.825L64.8624 193.179Z" fill="white"/>
<g opacity="0.2">
<path opacity="0.2" d="M62.9094 184.471C63.3549 183.974 63.8487 183.522 64.3835 183.122C64.9295 182.7 65.5077 182.321 66.1127 181.99C66.4424 181.815 66.7907 181.629 67.1577 181.467C67.5246 181.305 67.8916 181.15 68.2835 181.032C68.6651 180.903 69.0533 180.795 69.4466 180.708L70.0251 180.578L70.6035 180.509C70.7901 180.509 70.9767 180.453 71.1571 180.441H71.692C72.0199 180.422 72.3488 180.433 72.6748 180.472C72.9734 180.503 73.247 180.528 73.4896 180.571L74.1116 180.714L74.6403 180.851C74.6403 180.851 74.4351 180.851 74.093 180.851L73.471 180.82H72.6624C72.3482 180.828 72.0346 180.853 71.7231 180.895C71.3742 180.927 71.0274 180.979 70.6844 181.05L70.137 181.15L69.5897 181.293C69.2147 181.382 68.8451 181.492 68.4825 181.623C68.1031 181.722 67.7486 181.89 67.3878 182.021C67.027 182.151 66.6912 182.319 66.3615 182.475C66.0318 182.63 65.7395 182.786 65.4161 182.954C65.0926 183.122 64.8376 183.265 64.5826 183.414C64.0725 183.712 63.6496 183.967 63.3386 184.167L62.9094 184.471Z" fill="black"/>
<path opacity="0.2" d="M63.2391 185.51C63.2391 185.51 63.3822 185.386 63.6558 185.193C63.9295 185 64.3152 184.72 64.8065 184.434C65.3644 184.097 65.9395 183.79 66.5295 183.513C67.1515 183.202 67.8917 182.929 68.607 182.667C68.9739 182.562 69.3409 182.437 69.7017 182.338C70.0624 182.238 70.4294 182.151 70.784 182.095C71.1385 182.039 71.4806 181.958 71.8103 181.934C72.1399 181.909 72.4323 181.865 72.737 181.859C73.1979 181.846 73.6592 181.862 74.1179 181.909L74.6404 181.971C74.6404 181.971 74.4475 182.002 74.1179 182.033C73.9562 182.033 73.7571 182.033 73.5332 182.095L72.7744 182.213C72.4945 182.257 72.2021 182.338 71.8849 182.394C71.5677 182.45 71.2629 182.556 70.9084 182.63C70.5538 182.705 70.2242 182.829 69.8696 182.916C69.5151 183.003 69.1668 183.146 68.8122 183.258C67.3941 183.731 66.007 184.303 64.9683 184.745C64.452 184.975 64.0104 185.149 63.7243 185.292L63.2391 185.51Z" fill="black"/>
<path opacity="0.2" d="M64.1156 187.637C64.2373 187.516 64.3661 187.401 64.5013 187.295C64.7501 187.09 65.1233 186.798 65.5711 186.48C66.0964 186.119 66.6427 185.788 67.207 185.491C67.8525 185.145 68.5194 184.839 69.2036 184.577C69.8922 184.318 70.5991 184.11 71.3184 183.955C71.6511 183.886 71.9876 183.836 72.326 183.806C72.6495 183.806 72.948 183.737 73.2342 183.744L73.9992 183.775C74.2294 183.775 74.4222 183.831 74.5839 183.849L75.0877 183.936C75.0877 183.936 74.9011 183.936 74.5777 183.967C74.416 183.967 74.2231 183.967 74.0054 184.005L73.259 184.104C72.9916 184.135 72.7055 184.21 72.3945 184.26C72.0835 184.31 71.7725 184.422 71.4428 184.49C71.1131 184.558 70.7835 184.695 70.4414 184.788C70.0993 184.882 69.7634 185.025 69.4213 185.143C69.0792 185.261 68.7433 185.398 68.4137 185.541C68.084 185.684 67.7543 185.809 67.4496 185.958C66.8276 186.238 66.2491 186.524 65.7577 186.766C65.2663 187.009 64.8496 187.221 64.5697 187.388L64.1156 187.637Z" fill="black"/>
<path opacity="0.2" d="M64.6388 189.087C65.0698 188.66 65.5381 188.273 66.0383 187.93C66.5513 187.575 67.0874 187.255 67.643 186.972C67.954 186.822 68.265 186.673 68.6071 186.536C68.9492 186.399 69.2851 186.269 69.6396 186.169C69.9892 186.06 70.3443 185.969 70.7033 185.896C71.0495 185.816 71.4007 185.76 71.7544 185.728C72.0844 185.685 72.417 185.666 72.7496 185.672C73.0446 185.662 73.3398 185.674 73.6329 185.709L74.3793 185.809L74.9391 185.945C75.2439 186.026 75.418 186.082 75.418 186.082C75.418 186.082 75.2314 186.082 74.9204 186.082H74.3544H73.6267C73.3419 186.082 73.0573 186.098 72.7745 186.132C72.4573 186.159 72.1417 186.203 71.8291 186.263C71.5056 186.306 71.2071 186.399 70.8339 186.474C70.4607 186.549 70.1621 186.655 69.8262 186.754C69.1631 186.956 68.5111 187.192 67.8732 187.463C67.2512 187.724 66.6976 187.992 66.2186 188.228C65.7397 188.465 65.3416 188.676 65.0679 188.85L64.6388 189.087Z" fill="black"/>
<path opacity="0.2" d="M65.3597 191.027C65.4752 190.906 65.5977 190.792 65.7267 190.685C65.9692 190.48 66.3113 190.187 66.753 189.87C67.2568 189.509 67.7824 189.179 68.3266 188.881C68.6189 188.713 68.9486 188.552 69.2596 188.402C69.5706 188.253 69.9251 188.122 70.261 187.973C70.5969 187.824 70.9514 187.737 71.2935 187.631C71.6356 187.525 71.984 187.451 72.3261 187.388C72.6491 187.328 72.9751 187.285 73.3026 187.258C73.6198 187.258 73.9246 187.208 74.1921 187.221L74.9385 187.27C75.1562 187.27 75.349 187.345 75.5045 187.37L75.9896 187.482H75.492C75.3365 187.482 75.1437 187.482 74.9322 187.482L74.2107 187.55C73.9495 187.581 73.6634 187.65 73.371 187.687C73.0787 187.724 72.749 187.836 72.4442 187.898C72.1395 187.961 71.8222 188.098 71.4677 188.185C71.1132 188.272 70.8084 188.409 70.4787 188.533C70.1491 188.657 69.8194 188.782 69.5022 188.925C69.185 189.068 68.8802 189.192 68.5692 189.342C67.9472 189.621 67.4185 189.908 66.9396 190.15C66.4606 190.393 66.0625 190.598 65.7951 190.772L65.3597 191.027Z" fill="black"/>
</g>
<path d="M63.2454 193.26L70.9084 187.451C71.0019 187.379 71.1096 187.328 71.2244 187.301C71.3392 187.274 71.4584 187.272 71.574 187.295L80.3255 188.956C80.497 188.987 80.6545 189.071 80.776 189.196C80.8976 189.321 80.9772 189.481 81.0039 189.653C81.0306 189.826 81.0029 190.002 80.9248 190.158C80.8468 190.314 80.7221 190.442 80.5681 190.523L73.3467 194.436C73.229 194.496 73.0995 194.53 72.9673 194.535L63.7617 194.772C63.5844 194.774 63.4108 194.721 63.2658 194.619C63.1208 194.517 63.0118 194.371 62.9545 194.203C62.8972 194.036 62.8944 193.854 62.9467 193.685C62.999 193.515 63.1035 193.367 63.2454 193.26Z" fill="#92E3A9"/>
<path d="M77.0606 196.706C77.0606 196.706 88.8413 168.2 90.9188 166.433C92.9962 164.667 106.158 172.324 106.158 172.324L94.4393 202.41L77.0606 196.706Z" fill="#92E3A9"/>
<path opacity="0.2" d="M80.4437 196.501C80.4437 196.501 91.7268 169.27 93.4062 168.094C95.0856 166.919 104.702 171.932 104.702 171.932C104.702 171.932 94.6813 165.811 91.6086 166.85C88.5359 167.889 78.0614 195.879 78.0614 195.879L80.4437 196.501Z" fill="black"/>
<path d="M104.186 193.907H54.1526V223.452H104.186V193.907Z" fill="#263238"/>
<path opacity="0.2" d="M104.186 193.907H54.1526V223.452H104.186V193.907Z" fill="white"/>
<path opacity="0.4" d="M104.186 193.907H73.1232V223.452H104.186V193.907Z" fill="white"/>
<path d="M73.1232 194.218L84.9038 184.732L111.183 186.524L104.186 194.218H73.1232Z" fill="#263238"/>
<path d="M73.1229 194.218L64.2221 183.955L45.4066 185.976L54.1519 193.907L73.1229 194.218Z" fill="#263238"/>
<path opacity="0.1" d="M73.1229 194.218L64.2221 183.955L45.4066 185.976L54.1519 193.907L73.1229 194.218Z" fill="white"/>
<path opacity="0.4" d="M73.1232 194.218L84.9038 184.732L111.183 186.524L104.186 194.218H73.1232Z" fill="white"/>
<path d="M94.7123 207.504C93.1401 207.504 91.6032 207.97 90.296 208.844C88.9888 209.717 87.9699 210.959 87.3682 212.411C86.7666 213.864 86.6092 215.462 86.9159 217.004C87.2226 218.546 87.9797 219.962 89.0914 221.074C90.2031 222.186 91.6195 222.943 93.1615 223.25C94.7035 223.556 96.3018 223.399 97.7543 222.797C99.2068 222.196 100.448 221.177 101.322 219.869C102.195 218.562 102.661 217.025 102.661 215.453C102.661 213.345 101.824 211.323 100.333 209.832C98.8425 208.341 96.8206 207.504 94.7123 207.504ZM94.7123 218.619C94.0846 218.619 93.4711 218.433 92.9493 218.084C92.4275 217.735 92.0209 217.239 91.781 216.659C91.5411 216.079 91.4786 215.441 91.6015 214.826C91.7244 214.21 92.0272 213.645 92.4714 213.202C92.9157 212.758 93.4815 212.457 94.0973 212.335C94.713 212.213 95.351 212.277 95.9306 212.518C96.5101 212.759 97.0051 213.167 97.3529 213.689C97.7007 214.212 97.8857 214.825 97.8845 215.453C97.8845 215.869 97.8024 216.282 97.6429 216.666C97.4834 217.051 97.2497 217.4 96.955 217.694C96.6604 217.988 96.3106 218.221 95.9258 218.38C95.541 218.539 95.1286 218.62 94.7123 218.619V218.619Z" fill="#92E3A9"/>
<path opacity="0.7" d="M101.878 212.001C101.735 211.707 101.573 211.422 101.393 211.149C101.16 210.779 100.894 210.431 100.597 210.11C99.2385 208.604 97.3509 207.682 95.3284 207.535C95.1219 207.512 94.9142 207.502 94.7064 207.504C93.4992 207.506 92.3083 207.783 91.2239 208.313C90.1395 208.844 89.19 209.614 88.4474 210.566C87.7048 211.517 87.1886 212.626 86.9378 213.807C86.687 214.987 86.7082 216.21 86.9999 217.381C87.0736 217.686 87.1692 217.986 87.286 218.277C87.4525 218.711 87.6608 219.128 87.908 219.521C88.5528 220.597 89.4439 221.505 90.5078 222.17C91.5718 222.835 92.7784 223.238 94.0285 223.346C94.2586 223.346 94.4888 223.377 94.7189 223.377C96.0631 223.376 97.3851 223.034 98.5614 222.384C99.7377 221.733 100.73 220.795 101.446 219.657C102.161 218.519 102.577 217.218 102.653 215.876C102.73 214.534 102.466 213.194 101.884 211.982L101.878 212.001ZM94.7127 218.619C94.6133 218.625 94.5135 218.625 94.4141 218.619C93.8394 218.566 93.2902 218.357 92.8262 218.014C92.3623 217.67 92.0015 217.206 91.783 216.672C91.7092 216.491 91.6509 216.304 91.6089 216.112C91.5879 215.993 91.5734 215.873 91.5654 215.752C91.5592 215.658 91.5592 215.565 91.5654 215.472C91.5645 215.056 91.6458 214.643 91.8046 214.258C91.9633 213.873 92.1964 213.524 92.4904 213.229C92.7845 212.934 93.1338 212.701 93.5183 212.541C93.9028 212.382 94.315 212.3 94.7313 212.3C94.8058 212.293 94.8807 212.293 94.9553 212.3C95.6082 212.341 96.2322 212.584 96.7404 212.996C96.8656 213.101 96.982 213.215 97.0887 213.338C97.1803 213.437 97.2635 213.543 97.3375 213.656C97.7088 214.184 97.9066 214.814 97.9035 215.459C97.9027 215.877 97.8194 216.29 97.6584 216.675C97.4974 217.06 97.2618 217.409 96.9653 217.703C96.6687 217.997 96.317 218.229 95.9304 218.386C95.5439 218.543 95.13 218.622 94.7127 218.619V218.619Z" fill="white"/>
<path opacity="0.2" d="M94.4136 218.6L94.0217 223.365C92.7717 223.257 91.5651 222.854 90.5011 222.189C89.4371 221.524 88.5461 220.616 87.9012 219.54L91.7825 216.654C92.0009 217.188 92.3618 217.652 92.8257 217.995C93.2896 218.338 93.8388 218.548 94.4136 218.6V218.6Z" fill="white"/>
<path opacity="0.2" d="M100.597 210.11L96.7214 212.99C96.2133 212.578 95.5893 212.334 94.9363 212.293L95.3282 207.535C97.3506 207.682 99.2382 208.605 100.597 210.11V210.11Z" fill="white"/>
<path opacity="0.2" d="M91.6091 216.094L87.2924 218.277C87.1756 217.986 87.08 217.686 87.0063 217.381L91.5656 215.733C91.5736 215.854 91.5881 215.974 91.6091 216.094V216.094Z" fill="white"/>
<path opacity="0.2" d="M101.878 212.001L97.3187 213.649C97.2447 213.537 97.1614 213.431 97.0698 213.332L101.393 211.149C101.572 211.422 101.734 211.707 101.878 212.001V212.001Z" fill="white"/>
<path d="M100.516 209.712C96.1615 209.712 93.7792 212.778 95.272 216.554C96.7648 220.33 101.523 223.396 105.908 223.396C110.293 223.396 112.651 220.336 111.158 216.554C109.665 212.772 104.907 209.712 100.516 209.712ZM104.291 219.285C103.401 219.265 102.534 219 101.785 218.518C101.036 218.036 100.435 217.356 100.049 216.554C99.427 215.049 100.391 213.823 102.139 213.823C103.029 213.844 103.896 214.11 104.644 214.592C105.392 215.074 105.993 215.753 106.381 216.554C106.984 218.059 106.039 219.285 104.291 219.285Z" fill="#92E3A9"/>
<path opacity="0.1" d="M109.205 213.581C108.963 213.332 108.708 213.083 108.434 212.847C108.07 212.526 107.686 212.228 107.283 211.957C105.473 210.68 103.352 209.913 101.144 209.737C100.926 209.737 100.721 209.737 100.522 209.737C96.168 209.737 93.7857 212.797 95.2785 216.579C95.5093 217.165 95.8078 217.723 96.168 218.24C96.358 218.51 96.5658 218.768 96.79 219.011C97.1085 219.399 97.4557 219.763 97.8287 220.099C99.8727 221.98 102.477 223.138 105.243 223.396C105.479 223.396 105.716 223.396 105.946 223.396C110.337 223.396 112.688 220.33 111.202 216.554C110.733 215.444 110.055 214.435 109.205 213.581ZM104.285 219.285H103.98C102.712 219.16 101.538 218.562 100.69 217.611C100.557 217.46 100.436 217.297 100.329 217.126C100.267 217.026 100.211 216.922 100.161 216.815C100.119 216.737 100.081 216.656 100.049 216.573C99.4273 215.061 100.391 213.842 102.139 213.842C102.214 213.836 102.289 213.836 102.363 213.842C103.075 213.896 103.766 214.108 104.385 214.464C104.546 214.554 104.702 214.654 104.851 214.763C104.976 214.845 105.094 214.936 105.206 215.036C105.724 215.444 106.131 215.977 106.387 216.585C106.985 218.059 106.039 219.285 104.285 219.285Z" fill="white"/>
<path opacity="0.2" d="M103.98 219.266L105.224 223.371C102.459 223.113 99.8542 221.955 97.8102 220.075L100.709 217.587C101.551 218.536 102.718 219.135 103.98 219.266V219.266Z" fill="white"/>
<path opacity="0.2" d="M107.283 211.957L104.384 214.445C103.765 214.09 103.074 213.877 102.363 213.823L101.119 209.724C103.337 209.9 105.466 210.672 107.283 211.957V211.957Z" fill="white"/>
<path opacity="0.2" d="M100.329 217.108L96.7526 218.974C96.5284 218.731 96.3206 218.473 96.1306 218.202L100.143 216.797C100.198 216.904 100.261 217.008 100.329 217.108V217.108Z" fill="white"/>
<path opacity="0.2" d="M109.205 213.581L105.205 215.005C105.094 214.905 104.976 214.814 104.851 214.732L108.433 212.866C108.707 213.083 108.962 213.332 109.205 213.581Z" fill="white"/>
<path d="M231.633 169.96L231.857 179.644L232.877 223.452H236.242L237.256 179.644L237.48 169.96H231.633Z" fill="#92E3A9"/>
<path opacity="0.4" d="M231.633 169.96L231.857 179.644L232.877 223.452H236.242L237.256 179.644L237.48 169.96H231.633Z" fill="white"/>
<path opacity="0.2" d="M231.633 169.96L231.857 179.912H237.256L237.48 169.96H231.633Z" fill="black"/>
<path d="M213.358 223.296L216.468 170.644H221.55L217.196 223.296H213.358Z" fill="#92E3A9"/>
<path opacity="0.5" d="M217.209 223.296H213.365L216.189 175.371L216.468 170.582H221.55L221.158 175.371L217.209 223.296Z" fill="white"/>
<path opacity="0.2" d="M221.549 170.582L221.158 175.558H216.188L216.468 170.582H221.549Z" fill="black"/>
<path d="M251.922 223.296L247.568 170.644H252.65L255.76 223.296H251.922Z" fill="#92E3A9"/>
<path opacity="0.5" d="M251.91 223.296L247.96 175.371L247.568 170.582H252.65L252.93 175.371L255.754 223.296H251.91Z" fill="white"/>
<path opacity="0.2" d="M247.568 170.582L247.96 175.558H252.93L252.65 170.582H247.568Z" fill="black"/>
<path d="M255.368 172.466H213.743V168.318C213.743 167.493 214.071 166.702 214.654 166.119C215.237 165.535 216.029 165.208 216.853 165.208H252.258C253.082 165.208 253.873 165.535 254.457 166.119C255.04 166.702 255.368 167.493 255.368 168.318V172.479V172.466Z" fill="#92E3A9"/>
<path d="M213.003 172.46H256.114C256.804 172.46 257.364 171.901 257.364 171.21V170.078C257.364 169.388 256.804 168.828 256.114 168.828H213.003C212.312 168.828 211.753 169.388 211.753 170.078V171.21C211.753 171.901 212.312 172.46 213.003 172.46Z" fill="#92E3A9"/>
<path opacity="0.6" d="M213.003 172.46H256.114C256.804 172.46 257.364 171.901 257.364 171.21V170.078C257.364 169.388 256.804 168.828 256.114 168.828H213.003C212.312 168.828 211.753 169.388 211.753 170.078V171.21C211.753 171.901 212.312 172.46 213.003 172.46Z" fill="white"/>
<path d="M219.622 106.205C219.622 106.205 219.448 106.678 219.131 107.449C218.814 108.22 218.329 109.396 217.738 110.677C216.307 113.787 214.23 117.743 212.059 119.876C211.514 120.45 210.858 120.907 210.131 121.22C207.817 122.109 202.014 122.271 196.832 122.221C191.651 122.172 187.222 121.91 187.222 121.91V117.986L204.259 113.445C204.259 113.445 213.241 97.2356 218.565 94.8347L219.622 106.205Z" fill="#263238"/>
<path opacity="0.2" d="M219.13 107.455C218.807 108.264 218.328 109.402 217.737 110.683C216.306 113.793 214.229 117.749 212.058 119.883C209.85 111.747 218.017 104.003 218.017 104.003L219.13 107.455Z" fill="black"/>
<path d="M216.929 218.961L211.971 218.283L211.287 206.502L216.232 207.187L216.929 218.961Z" fill="#EBB376"/>
<path opacity="0.2" d="M216.232 207.187L211.287 206.509L211.679 213.239L216.624 213.674L216.232 207.187Z" fill="black"/>
<path d="M216.729 149.72L217.936 142.144L245.69 140.483C245.69 140.483 248.644 156.245 246.374 160.443C242.325 167.938 220.492 164.175 214.098 164.891C217.942 180.534 217.569 211.012 217.569 211.012L208.444 211.708C208.444 211.708 201.428 178.823 200.004 163.192C199.04 152.668 207.785 152.929 216.729 149.72Z" fill="#92E3A9"/>
<path d="M218.639 211.466L207.673 212.181L206.733 207.485L218.782 206.932L218.639 211.466Z" fill="#92E3A9"/>
<path d="M205.496 214.563L200.508 214.93L197.385 203.554L202.368 203.193L205.496 214.563Z" fill="#EBB376"/>
<path d="M199.837 215.098H199.75C199.75 215.024 199.495 213.624 198.891 213.295C198.814 213.256 198.729 213.236 198.642 213.236C198.556 213.236 198.471 213.256 198.394 213.295C198.299 213.324 198.216 213.385 198.161 213.468C198.106 213.55 198.08 213.65 198.089 213.749C198.209 214.161 198.469 214.519 198.823 214.763C198.369 214.607 197.874 214.62 197.429 214.8C197.37 214.845 197.322 214.905 197.292 214.973C197.261 215.042 197.249 215.117 197.255 215.192C197.247 215.309 197.273 215.427 197.329 215.53C197.385 215.634 197.47 215.719 197.573 215.776C197.885 215.898 198.231 215.898 198.543 215.776C198.975 215.648 199.392 215.473 199.787 215.254H199.83C199.83 215.254 199.83 215.254 199.83 215.217C199.844 215.2 199.852 215.18 199.853 215.159C199.854 215.137 199.848 215.116 199.837 215.098ZM198.338 213.705C198.338 213.637 198.338 213.55 198.506 213.487H198.562C198.606 213.472 198.652 213.467 198.699 213.473C198.745 213.478 198.79 213.494 198.829 213.519C199.19 213.711 199.451 214.47 199.557 214.924L199.445 214.893C198.953 214.601 198.381 214.041 198.338 213.705ZM197.684 215.534C197.623 215.492 197.573 215.435 197.539 215.369C197.506 215.303 197.489 215.229 197.492 215.154C197.488 215.118 197.494 215.082 197.508 215.048C197.522 215.014 197.544 214.985 197.573 214.962C197.859 214.75 198.767 214.93 199.439 215.13C198.611 215.54 197.977 215.689 197.684 215.534Z" fill="#92E3A9"/>
<path opacity="0.2" d="M202.368 203.193L197.385 203.56L199.171 210.06L204.097 209.457L202.368 203.193Z" fill="black"/>
<path d="M195.693 209.258L204.476 206.658C204.476 206.658 199.232 177.063 193.902 166.8C194.3 166.67 194.828 166.502 195.481 166.309C196.657 165.954 198.218 165.513 200.053 165.003C212.817 161.463 238.686 154.827 238.686 154.827L226.868 143.799C226.868 143.799 179.795 150.977 178.818 163.379C178.364 169.338 195.693 209.258 195.693 209.258Z" fill="#92E3A9"/>
<path d="M205.609 206.869L195.035 209.861L193.138 205.464L204.807 202.41L205.609 206.869Z" fill="#92E3A9"/>
<path opacity="0.2" d="M195.494 166.327C196.67 165.973 198.231 165.531 200.066 165.021C199.699 162.011 199.692 158.559 201.142 156.798C204.022 153.29 211.43 151.231 215.647 150.485C219.174 149.863 231.023 148.619 231.023 148.619C231.023 148.619 215.647 147.145 199.923 151.729C192.16 154.006 193.672 161.6 195.494 166.327Z" fill="black"/>
<path d="M247.258 148.401C249.124 146.977 247.332 133.728 248.284 120.697C249.733 100.856 248.284 94.4802 246.822 93.8644C244.123 93.3963 241.394 93.126 238.655 93.0558C234.65 92.9126 230.64 92.9999 226.645 93.317C223.91 93.6523 221.207 94.2013 218.559 94.9591C218.559 94.9591 212.015 115.796 216.195 145.808L247.258 148.401Z" fill="#263238"/>
<path opacity="0.8" d="M248.799 110.484C248.719 113.401 248.544 116.785 248.258 120.691C247.307 133.722 249.086 146.971 247.232 148.395L216.163 145.801C214.308 132.775 214.298 119.552 216.132 106.522C218.657 102.579 223.559 98.0816 225.81 96.1099C226.558 96.9288 227.572 97.4557 228.672 97.5964C231.091 98.0692 233.853 96.9744 236.136 95.5812C237.939 97.3787 241.36 101.017 242.859 104.084C243.016 104.402 243.155 104.728 243.276 105.06C244.228 107.723 247.132 104.438 248.613 100.159C248.867 103.595 248.929 107.042 248.799 110.484Z" fill="white"/>
<path d="M237.181 79.5896C236.503 83.4709 235.899 90.5616 238.655 93.087C237.536 94.2883 236.191 95.2563 234.696 95.9353C233.202 96.6142 231.587 96.9906 229.947 97.0429C224.971 97.2606 226.65 93.3109 226.65 93.3109C230.942 92.1913 230.755 88.9942 229.941 86.0086L237.181 79.5896Z" fill="#EBB376"/>
<path opacity="0.2" d="M234.226 82.2206L229.941 86.0397C230.142 86.7331 230.281 87.4428 230.358 88.1607C232 87.8932 234.22 86.0334 234.363 84.3043C234.446 83.6072 234.399 82.9009 234.226 82.2206Z" fill="black"/>
<path d="M227.77 69.5442C229.916 70.9997 228.94 73.4629 224.088 77.3255C222.122 74.7939 221.793 69.8179 223.36 68.5739C224.928 67.3299 225.904 68.2816 227.77 69.5442Z" fill="#263238"/>
<path d="M236.982 73.5499C236.752 78.7933 236.876 81.866 234.282 84.6028C230.376 88.7142 223.87 86.4253 222.533 81.2191C221.338 76.5417 221.911 68.7791 227.005 66.5835C228.124 66.0985 229.349 65.908 230.562 66.0301C231.776 66.1523 232.938 66.583 233.938 67.2813C234.938 67.9796 235.743 68.9223 236.276 70.0195C236.809 71.1168 237.052 72.3321 236.982 73.5499Z" fill="#EBB376"/>
<path d="M229.2 75.1049C229.2 75.5341 228.989 75.8824 228.709 75.8886C228.429 75.8948 228.205 75.5527 228.199 75.1236C228.193 74.6944 228.404 74.3523 228.684 74.3461C228.964 74.3398 229.163 74.6882 229.2 75.1049Z" fill="#263238"/>
<path d="M224.355 75.1982C224.355 75.6211 224.143 75.9695 223.863 75.9757C223.583 75.9819 223.353 75.646 223.347 75.2106C223.341 74.7752 223.558 74.4331 223.838 74.4331C224.118 74.4331 224.348 74.7939 224.355 75.1982Z" fill="#263238"/>
<path d="M225.941 75.3723C225.456 76.6826 224.793 77.9197 223.969 79.0484C224.264 79.2494 224.599 79.3846 224.951 79.4447C225.304 79.5048 225.664 79.4884 226.009 79.3967L225.941 75.3723Z" fill="#D58745"/>
<path d="M230.501 73.5499C230.555 73.557 230.611 73.5437 230.656 73.5126C230.682 73.493 230.704 73.4684 230.721 73.4403C230.738 73.4122 230.748 73.3811 230.753 73.3487C230.758 73.3164 230.756 73.2834 230.748 73.2518C230.74 73.2201 230.725 73.1904 230.706 73.1643C230.468 72.8447 230.157 72.5869 229.798 72.4127C229.44 72.2384 229.045 72.1527 228.647 72.1628C228.615 72.1644 228.584 72.1723 228.556 72.1861C228.527 72.1998 228.502 72.2192 228.481 72.243C228.46 72.2667 228.444 72.2945 228.434 72.3245C228.424 72.3546 228.421 72.3863 228.423 72.4179C228.431 72.4822 228.463 72.5411 228.513 72.5827C228.562 72.6243 228.626 72.6454 228.691 72.6418C229.005 72.6383 229.316 72.7099 229.597 72.8505C229.878 72.9911 230.122 73.1967 230.308 73.4504C230.331 73.4792 230.361 73.5029 230.394 73.5201C230.427 73.5372 230.463 73.5473 230.501 73.5499Z" fill="#263238"/>
<path d="M222.122 73.5997C222.17 73.5999 222.217 73.5866 222.258 73.5613C222.298 73.5359 222.331 73.4997 222.352 73.4566C222.474 73.1672 222.664 72.9112 222.905 72.71C223.147 72.5088 223.432 72.3681 223.739 72.2997C223.805 72.289 223.864 72.2531 223.903 72.1996C223.943 72.1462 223.96 72.0794 223.951 72.0136C223.941 71.9485 223.907 71.8897 223.854 71.8501C223.802 71.8105 223.736 71.7932 223.671 71.8021C223.281 71.8834 222.917 72.0569 222.609 72.308C222.3 72.5591 222.057 72.8804 221.898 73.2451C221.87 73.3046 221.867 73.3726 221.889 73.4343C221.911 73.496 221.957 73.5465 222.016 73.5748C222.048 73.5927 222.085 73.6014 222.122 73.5997Z" fill="#263238"/>
<path d="M234.83 68.9347C232.398 69.8179 232.747 72.449 236.504 77.3752C239.041 75.3786 240.578 70.6452 239.352 69.0591C238.127 67.473 236.982 68.1696 234.83 68.9347Z" fill="#263238"/>
<path d="M239.563 77.6861C239.394 78.3177 239.102 78.9097 238.704 79.4284C238.306 79.9471 237.809 80.3823 237.243 80.709C235.719 81.5674 234.543 80.3047 234.612 78.6564C234.68 77.1636 235.551 74.9244 237.249 74.7378C238.947 74.5512 239.973 76.1186 239.563 77.6861Z" fill="#EBB376"/>
<path d="M229.941 80.2613C229.573 80.8246 229.056 81.2754 228.448 81.5641C227.84 81.8527 227.164 81.968 226.495 81.8972" stroke="#263238" stroke-width="0.526291" stroke-linecap="round" stroke-linejoin="round"/>
<path d="M229.518 68.1012C229.518 68.1012 230.302 73.3509 235.359 73.6992C240.416 74.0475 241.498 70.9064 241.498 70.9064C241.086 70.9663 240.67 70.9996 240.254 71.0059C240.254 71.0059 241.734 68.4619 240.254 66.0299C238.774 63.5979 233.735 60.9979 229.997 62.2979C228.834 61.9178 227.605 61.7824 226.386 61.9001C225.168 62.0179 223.988 62.3863 222.919 62.9821C219.417 65.0161 220.039 69.4509 220.039 69.4509C220.039 69.4509 219.883 66.7577 221.519 66.005C221.519 66.005 219.498 71.5471 222.527 73.0274C222.521 73.0088 222.819 67.5538 229.518 68.1012Z" fill="#263238"/>
<path d="M220.916 117.712C220.916 117.712 202.878 117.301 201.858 117.202C200.838 117.102 196.564 114.714 195.638 114.583C194.711 114.453 192.291 118.315 191.986 119.211C191.682 120.107 198.828 122.532 199.519 122.427C200.318 122.214 201.095 121.924 201.839 121.562L220.25 123.932L220.916 117.712Z" fill="#EBB376"/>
<path d="M168.562 121.444V123.092C168.562 123.584 169.408 123.932 169.899 123.932H208.333C208.83 123.932 209.614 123.584 209.614 123.092V121.444H168.562Z" fill="#263238"/>
<path opacity="0.6" d="M168.562 121.444V123.092C168.562 123.584 169.408 123.932 169.899 123.932H208.333C208.83 123.932 209.614 123.584 209.614 123.092V121.444H168.562Z" fill="white"/>
<path opacity="0.2" d="M168.562 121.444V123.092C168.562 123.584 169.408 123.932 169.899 123.932H195.246C195.744 123.932 196.552 123.584 196.552 123.092V121.444H168.562Z" fill="black"/>
<path d="M162.398 101.235L166.976 122.066C167.057 122.405 167.245 122.71 167.513 122.934C167.781 123.158 168.114 123.29 168.462 123.31H193.442C193.602 123.296 193.757 123.246 193.896 123.164C194.035 123.082 194.153 122.97 194.243 122.837C194.333 122.703 194.392 122.551 194.416 122.392C194.44 122.233 194.428 122.071 194.381 121.917L189.809 101.316C189.716 101.001 189.518 100.728 189.247 100.542C188.976 100.357 188.65 100.27 188.323 100.296H163.343C162.672 100.296 162.249 100.557 162.398 101.235Z" fill="#263238"/>
<path opacity="0.6" d="M162.398 101.235L166.976 122.066C167.057 122.405 167.245 122.71 167.513 122.934C167.781 123.158 168.114 123.29 168.462 123.31H193.442C193.602 123.296 193.757 123.246 193.896 123.164C194.035 123.082 194.153 122.97 194.243 122.837C194.333 122.703 194.392 122.551 194.416 122.392C194.44 122.233 194.428 122.071 194.381 121.917L189.809 101.316C189.716 101.001 189.518 100.728 189.247 100.542C188.976 100.357 188.65 100.27 188.323 100.296H163.343C162.672 100.296 162.249 100.557 162.398 101.235Z" fill="white"/>
<path opacity="0.4" d="M162.398 101.235L166.976 122.066C167.057 122.405 167.245 122.71 167.513 122.934C167.781 123.158 168.114 123.29 168.462 123.31H192.602C192.763 123.295 192.918 123.245 193.057 123.164C193.195 123.082 193.314 122.97 193.405 122.837C193.495 122.704 193.555 122.552 193.58 122.393C193.604 122.234 193.593 122.071 193.548 121.917L188.976 101.316C188.883 101.001 188.684 100.728 188.414 100.542C188.143 100.357 187.817 100.27 187.489 100.296H163.343C162.672 100.296 162.249 100.557 162.398 101.235Z" fill="white"/>
<path opacity="0.2" d="M177.101 114.602C175.938 114.602 174.744 113.358 174.439 111.815C174.135 110.273 174.837 109.004 176.025 109.004C176.238 109.009 176.449 109.051 176.647 109.128C176.755 109.678 176.991 110.195 177.336 110.637C177.68 111.079 178.124 111.434 178.632 111.672C178.645 111.713 178.655 111.755 178.663 111.797C178.974 113.358 178.271 114.602 177.101 114.602Z" fill="black"/>
<path opacity="0.2" d="M248.8 110.484C246.119 114.838 242.369 119.472 238.63 119.255C234.718 119.024 238.662 111.038 242.866 104.084C243.023 104.402 243.162 104.728 243.283 105.06C244.235 107.723 247.139 104.438 248.62 100.159C248.872 103.595 248.932 107.042 248.8 110.484Z" fill="black"/>
<path d="M246.822 93.8644C256.046 97.1859 239.856 122.165 234.824 124.74C229.792 127.316 216.568 124.349 216.568 124.349L217.389 116.63C217.389 116.63 227.857 117.339 229.941 116.81C232.025 116.281 236.976 105.614 239.824 100.607C241.405 97.6912 243.85 95.3361 246.822 93.8644Z" fill="#263238"/>
<path opacity="0.2" d="M218.639 211.466L207.673 212.181L206.733 207.485L218.782 206.932L218.639 211.466Z" fill="white"/>
<path opacity="0.2" d="M205.609 206.869L195.035 209.861L193.138 205.464L204.807 202.41L205.609 206.869Z" fill="white"/>
<path d="M200.022 214.421L205.421 212.915C205.51 212.887 205.607 212.895 205.69 212.937C205.774 212.979 205.838 213.051 205.869 213.139L207.331 217.344C207.392 217.571 207.361 217.812 207.244 218.016C207.128 218.22 206.935 218.37 206.709 218.432C204.812 218.924 203.885 219.054 201.503 219.714C200.041 220.118 197.192 221.051 195.108 221.287C193.025 221.524 192.851 219.459 193.709 219.179C195.749 218.495 198.194 216.367 199.251 214.924C199.444 214.675 199.716 214.498 200.022 214.421Z" fill="#263238"/>
<path d="M211.48 218.289C211.48 218.202 211.393 216.79 210.858 216.343C210.779 216.284 210.688 216.242 210.592 216.219C210.495 216.197 210.396 216.194 210.298 216.212C210.197 216.221 210.102 216.263 210.026 216.33C209.95 216.397 209.897 216.486 209.875 216.585C209.897 217.013 210.072 217.419 210.367 217.73C209.951 217.485 209.462 217.395 208.986 217.475C208.918 217.507 208.859 217.556 208.815 217.617C208.771 217.678 208.742 217.748 208.731 217.823C208.702 217.934 208.704 218.05 208.737 218.16C208.769 218.27 208.832 218.368 208.917 218.445C209.198 218.624 209.535 218.69 209.863 218.631C210.307 218.595 210.745 218.507 211.169 218.37C211.176 218.374 211.183 218.375 211.191 218.375C211.198 218.375 211.206 218.374 211.213 218.37V218.333C211.213 218.333 211.331 218.333 211.337 218.289C211.343 218.246 211.443 218.289 211.443 218.289H211.48ZM210.105 216.61C210.105 216.542 210.149 216.454 210.311 216.423H210.367C210.413 216.419 210.461 216.425 210.505 216.441C210.549 216.458 210.589 216.483 210.622 216.517C210.939 216.778 211.026 217.568 211.045 218.041L210.945 217.985C210.512 217.64 210.215 217.153 210.105 216.61ZM209.085 218.258C209.037 218.204 209.004 218.139 208.987 218.068C208.971 217.997 208.973 217.924 208.992 217.854C208.996 217.817 209.009 217.783 209.031 217.753C209.053 217.723 209.083 217.7 209.116 217.686C209.434 217.537 210.286 217.904 210.889 218.233C209.993 218.476 209.334 218.476 209.085 218.283V218.258Z" fill="#92E3A9"/>
<path d="M211.598 217.686L217.196 217.338C217.243 217.332 217.29 217.335 217.335 217.347C217.38 217.36 217.422 217.381 217.458 217.41C217.495 217.439 217.525 217.475 217.547 217.516C217.57 217.557 217.584 217.602 217.588 217.649L218.136 222.065C218.144 222.18 218.13 222.295 218.093 222.404C218.057 222.514 217.999 222.615 217.923 222.701C217.847 222.788 217.755 222.859 217.652 222.91C217.548 222.961 217.436 222.991 217.321 222.998C215.368 223.091 214.428 223.035 211.965 223.172C210.454 223.259 207.474 223.582 205.385 223.377C203.295 223.172 203.556 221.119 204.458 221.02C206.591 220.777 209.434 219.21 210.759 218.016C210.994 217.816 211.29 217.7 211.598 217.686Z" fill="#263238"/>
<path d="M186.668 223.452H190.475L191.103 128.131H186.046L186.668 223.452Z" fill="#92E3A9"/>
<path opacity="0.4" d="M186.041 128.286L186.14 143.668L186.663 223.452H190.475L190.998 143.668L191.097 128.286H186.041Z" fill="white"/>
<path opacity="0.2" d="M186.041 128.286L186.14 143.836H190.998L191.097 128.286H186.041Z" fill="black"/>
<path d="M146.212 223.452H150.019L156.867 128.131H151.81L146.212 223.452Z" fill="#92E3A9"/>
<path opacity="0.5" d="M146.207 223.452H150.02L156.532 132.87L156.868 128.286H151.811L151.537 132.87L146.207 223.452Z" fill="white"/>
<path opacity="0.2" d="M151.537 132.64H156.532L156.868 128.286H151.811L151.537 132.64Z" fill="black"/>
<path d="M227.123 223.452H230.929L225.331 128.131H220.275L227.123 223.452Z" fill="#92E3A9"/>
<path opacity="0.5" d="M220.275 128.286L220.61 132.87L227.123 223.452H230.929L225.605 132.87L225.331 128.286H220.275Z" fill="white"/>
<path opacity="0.2" d="M225.331 128.286H220.275L220.61 132.64H225.605L225.331 128.286Z" fill="black"/>
<path d="M227.994 130.519H149.149C148.973 130.519 148.798 130.484 148.635 130.417C148.472 130.349 148.324 130.25 148.199 130.126C148.074 130.001 147.975 129.853 147.908 129.69C147.84 129.527 147.805 129.352 147.805 129.176V125.748L229.337 125.748V129.176C229.337 129.532 229.196 129.874 228.944 130.126C228.692 130.377 228.35 130.519 227.994 130.519V130.519Z" fill="#92E3A9"/>
<path opacity="0.6" d="M227.994 130.519H149.149C148.973 130.519 148.798 130.484 148.635 130.417C148.472 130.349 148.324 130.25 148.199 130.126C148.074 130.001 147.975 129.853 147.908 129.69C147.84 129.527 147.805 129.352 147.805 129.176V125.748L229.337 125.748V129.176C229.337 129.532 229.196 129.874 228.944 130.126C228.692 130.377 228.35 130.519 227.994 130.519V130.519Z" fill="white"/>
<path opacity="0.2" d="M147.805 128.131H229.337V125.742L147.805 125.742V128.131Z" fill="black"/>
<path d="M145.442 126.37H231.701C232.058 126.369 232.399 126.226 232.651 125.973C232.903 125.72 233.044 125.377 233.044 125.021V125.021C233.044 124.664 232.903 124.322 232.651 124.071C232.399 123.819 232.057 123.677 231.701 123.677H145.442C145.086 123.677 144.744 123.819 144.492 124.071C144.24 124.322 144.098 124.664 144.098 125.021V125.021C144.098 125.377 144.24 125.72 144.492 125.973C144.743 126.226 145.085 126.369 145.442 126.37V126.37Z" fill="#92E3A9"/>
<path opacity="0.6" d="M145.442 126.37H231.701C232.058 126.369 232.399 126.226 232.651 125.973C232.903 125.72 233.044 125.377 233.044 125.021V125.021C233.044 124.664 232.903 124.322 232.651 124.071C232.399 123.819 232.057 123.677 231.701 123.677H145.442C145.086 123.677 144.744 123.819 144.492 124.071C144.24 124.322 144.098 124.664 144.098 125.021V125.021C144.098 125.377 144.24 125.72 144.492 125.973C144.743 126.226 145.085 126.369 145.442 126.37V126.37Z" fill="white"/>
</svg>
