<svg width="311" height="233" viewBox="0 0 311 233" fill="none" xmlns="http://www.w3.org/2000/svg">
<path d="M311 204.553H0V204.708H311V204.553Z" fill="#EBEBEB"/>
<path d="M279.838 214.561H259.237V214.716H279.838V214.561Z" fill="#EBEBEB"/>
<path d="M206.018 216.253H200.613V216.408H206.018V216.253Z" fill="#EBEBEB"/>
<path d="M258.616 208.789H246.68V208.944H258.616V208.789Z" fill="#EBEBEB"/>
<path d="M59.4941 209.834H32.6299V209.989H59.4941V209.834Z" fill="#EBEBEB"/>
<path d="M68.9734 209.834H65.0361V209.989H68.9734V209.834Z" fill="#EBEBEB"/>
<path d="M140.044 212.458H81.7754V212.614H140.044V212.458Z" fill="#EBEBEB"/>
<path d="M147.414 176.812H27.312C26.3711 176.81 25.4694 176.435 24.8046 175.769C24.1399 175.103 23.7666 174.201 23.7666 173.26V4.43055C23.7748 3.49508 24.1517 2.60062 24.8156 1.94145C25.4794 1.28228 26.3765 0.911637 27.312 0.910034H147.414C148.356 0.910034 149.259 1.28422 149.925 1.95028C150.591 2.61634 150.966 3.51971 150.966 4.46165V173.26C150.966 174.202 150.591 175.105 149.925 175.771C149.259 176.437 148.356 176.812 147.414 176.812ZM27.312 1.03443C26.4124 1.03608 25.5502 1.39461 24.9146 2.03133C24.2791 2.66805 23.9221 3.53092 23.9221 4.43055V173.26C23.9221 174.16 24.2791 175.023 24.9146 175.659C25.5502 176.296 26.4124 176.654 27.312 176.656H147.414C148.314 176.654 149.177 176.296 149.814 175.66C150.45 175.023 150.808 174.16 150.81 173.26V4.43055C150.808 3.53035 150.45 2.66749 149.814 2.03095C149.177 1.39441 148.314 1.03608 147.414 1.03443H27.312Z" fill="#EBEBEB"/>
<path d="M281.96 176.812H161.851C160.91 176.81 160.008 176.435 159.342 175.77C158.676 175.104 158.301 174.201 158.3 173.26V4.43055C158.31 3.49451 158.688 2.60006 159.353 1.94106C160.018 1.28206 160.915 0.911619 161.851 0.910034H281.96C282.894 0.913271 283.79 1.28463 284.452 1.94363C285.115 2.60262 285.491 3.49616 285.499 4.43055V173.26C285.499 174.2 285.126 175.101 284.463 175.767C283.8 176.433 282.899 176.808 281.96 176.812ZM161.851 1.03443C160.951 1.03608 160.088 1.39441 159.452 2.03095C158.815 2.66749 158.457 3.53035 158.455 4.43055V173.26C158.457 174.16 158.815 175.023 159.452 175.66C160.088 176.296 160.951 176.654 161.851 176.656H281.96C282.86 176.654 283.723 176.296 284.359 175.66C284.996 175.023 285.354 174.16 285.356 173.26V4.43055C285.354 3.53035 284.996 2.66749 284.359 2.03095C283.723 1.39441 282.86 1.03608 281.96 1.03443H161.851Z" fill="#EBEBEB"/>
<path d="M278.183 52.9155H197.05V57.0829H278.183V52.9155Z" fill="#E0E0E0"/>
<path d="M204.359 37.552H200.782V52.9154H204.359V37.552Z" fill="#EBEBEB"/>
<path d="M221.643 37.552H218.066V52.9154H221.643V37.552Z" fill="#EBEBEB"/>
<path d="M241.267 37.158L237.742 37.7655L240.352 52.9056L243.876 52.2981L241.267 37.158Z" fill="#EBEBEB"/>
<path d="M208.786 39.5797H205.21V52.9216H208.786V39.5797Z" fill="#EBEBEB"/>
<path d="M217.003 39.5797H213.427V52.9216H217.003V39.5797Z" fill="#EBEBEB"/>
<path d="M237.741 39.5797H234.164V52.9216H237.741V39.5797Z" fill="#EBEBEB"/>
<path d="M226.336 39.1091L222.845 39.885L225.739 52.9091L229.231 52.1332L226.336 39.1091Z" fill="#EBEBEB"/>
<path d="M211.879 36.787H210.094V52.9155H211.879V36.787Z" fill="#EBEBEB"/>
<path d="M233.139 36.787H231.354V52.9155H233.139V36.787Z" fill="#EBEBEB"/>
<path d="M270.396 40.7554H252.98V52.7786H270.396V40.7554Z" fill="#EBEBEB"/>
<path d="M197.049 88.2015L278.183 88.2015V84.0341L197.049 84.0341V88.2015Z" fill="#E0E0E0"/>
<path d="M270.868 84.0404H274.444V68.677H270.868V84.0404Z" fill="#EBEBEB"/>
<path d="M253.589 84.0404H257.165V68.677H253.589V84.0404Z" fill="#EBEBEB"/>
<path d="M231.362 83.4296L234.887 84.0371L237.496 68.897L233.972 68.2894L231.362 83.4296Z" fill="#EBEBEB"/>
<path d="M266.44 84.0342H270.017V70.6923H266.44V84.0342Z" fill="#EBEBEB"/>
<path d="M258.23 84.0342H261.807V70.6923H258.23V84.0342Z" fill="#EBEBEB"/>
<path d="M237.492 84.0342H241.068V70.6923H237.492V84.0342Z" fill="#EBEBEB"/>
<path d="M246.01 83.2513L249.501 84.0272L252.396 71.0031L248.904 70.2272L246.01 83.2513Z" fill="#EBEBEB"/>
<path d="M263.355 84.0342H265.141V67.9057H263.355V84.0342Z" fill="#EBEBEB"/>
<path d="M242.095 84.0342H243.88V67.9057H242.095V84.0342Z" fill="#EBEBEB"/>
<path d="M204.831 83.9036H222.247V71.8803H204.831V83.9036Z" fill="#EBEBEB"/>
<path d="M32.9658 132.152V204.926H36.6978V139.616H102.63V204.926H106.984V132.152H32.9658Z" fill="#E0E0E0"/>
<path d="M74.0176 132.152V204.926H77.7496V139.616H143.682V204.926H148.036V132.152H74.0176Z" fill="#F5F5F5"/>
<path d="M97.5791 105.033C96.7456 103.664 95.3772 104.859 95.3772 104.859C95.5701 102.228 93.1567 100.436 93.1567 100.436C93.1567 100.436 95.9619 100.436 96.3538 97.7555C96.7456 95.0747 95.3772 96.3249 94.0897 96.3062C92.8022 96.2876 91.4586 100.038 93.1567 102.153C94.8548 104.268 94.4007 107.875 90.4821 111.34C89.5443 112.216 88.8408 113.313 88.4357 114.531C88.7343 111.346 88.9022 106.855 87.963 103.864C86.3707 98.7693 89.406 97.4009 90.283 94.857C91.1601 92.313 87.963 90.1546 87.963 90.1546C87.963 90.1546 90.9735 88.7862 89.4993 87.2188C88.0252 85.6514 85.0023 85.8628 85.0023 87.9154C85.0023 89.968 87.0549 90.7455 87.0549 90.7455C87.0549 90.7455 89.406 93.19 89.406 94.4775C89.406 95.7651 87.0549 98.4894 87.0549 98.4894C87.0549 98.4894 88.1309 96.1445 85.9788 96.045C83.8267 95.9455 83.1363 98.7818 84.0195 100.057C84.9028 101.332 86.3707 100.25 86.3707 100.25C86.4606 101.735 86.6854 103.209 87.0424 104.653C87.2601 105.387 87.1606 108.261 86.974 111.247C86.5647 110.168 85.9111 109.2 85.0645 108.417C81.1521 104.952 80.7105 101.344 82.3899 99.2296C84.0693 97.1148 82.7444 93.3642 81.4569 93.3828C80.1693 93.4015 78.8009 92.1388 79.1928 94.8321C79.5847 97.5253 82.3899 97.5129 82.3899 97.5129C82.3899 97.5129 79.9765 99.3042 80.1756 101.935C80.1756 101.935 78.8009 100.741 77.9675 102.109C76.4871 104.56 79.9267 106.078 80.5052 104.871C80.5052 104.871 87.8075 110.04 86.0472 117.479L86.4578 118.101C86.4018 118.723 86.3707 119.065 86.3707 119.065L86.9429 118.823L87.5649 119.78C87.5427 120.861 87.5989 121.942 87.7329 123.015L89.4745 120.434C87.7142 112.97 95.0165 107.826 95.0165 107.826C95.6198 109.001 99.0657 107.484 97.5791 105.033Z" fill="#E0E0E0"/>
<path d="M93.1563 132.152L90.7989 118.661L91.4645 114.736H84.044L84.7096 118.661L82.3584 132.152H93.1563Z" fill="#EBEBEB"/>
<path d="M155.499 232.642C222.104 232.642 276.099 229.49 276.099 225.601C276.099 221.713 222.104 218.56 155.499 218.56C88.8937 218.56 34.8994 221.713 34.8994 225.601C34.8994 229.49 88.8937 232.642 155.499 232.642Z" fill="#F5F5F5"/>
<path d="M187.057 33.4343L167.896 23.087L154.384 48.1094L173.545 58.4567L187.057 33.4343Z" fill="#92E3A9"/>
<path opacity="0.6" d="M187.057 33.4343L167.896 23.087L154.384 48.1094L173.545 58.4567L187.057 33.4343Z" fill="white"/>
<path d="M182.286 35.4367L168.845 28.178L168.115 29.5298L181.556 36.7885L182.286 35.4367Z" fill="#92E3A9"/>
<path d="M181.007 37.8055L167.565 30.5468L166.835 31.8986L180.277 39.1573L181.007 37.8055Z" fill="#92E3A9"/>
<path d="M179.728 40.1721L166.286 32.9133L165.556 34.2652L178.998 41.5239L179.728 40.1721Z" fill="#92E3A9"/>
<path d="M178.445 42.5378L165.003 35.2791L164.273 36.6309L177.715 43.8896L178.445 42.5378Z" fill="#92E3A9"/>
<path d="M177.17 44.9012L163.729 37.6425L162.999 38.9943L176.44 46.253L177.17 44.9012Z" fill="#92E3A9"/>
<path d="M175.893 47.2731L162.451 40.0144L161.721 41.3662L175.163 48.625L175.893 47.2731Z" fill="#92E3A9"/>
<path d="M174.618 49.6366L161.177 42.3778L160.447 43.7296L173.888 50.9884L174.618 49.6366Z" fill="#92E3A9"/>
<path d="M168.593 49.4457L159.891 44.7465L159.161 46.0983L167.863 50.7975L168.593 49.4457Z" fill="#92E3A9"/>
<path d="M136.149 33.6208C133.438 33.3434 130.871 32.2684 128.771 30.5317C126.671 28.7951 125.134 26.4748 124.353 23.8642C123.571 21.2537 123.582 18.4701 124.383 15.8656C125.184 13.2611 126.739 10.9525 128.852 9.23193C130.965 7.51131 133.541 6.45589 136.253 6.19913C138.966 5.94237 141.694 6.49579 144.092 7.78943C146.491 9.08307 148.451 11.0588 149.727 13.4668C151.002 15.8748 151.535 18.6069 151.257 21.3177C150.881 24.9507 149.079 28.286 146.246 30.5923C143.414 32.8987 139.783 33.9878 136.149 33.6208Z" fill="#92E3A9"/>
<path opacity="0.3" d="M138.521 32.4342C145.443 31.9015 150.623 25.8583 150.09 18.9362C149.558 12.0141 143.514 6.83439 136.592 7.36702C129.67 7.89964 124.49 13.9429 125.023 20.865C125.556 27.7871 131.599 32.9668 138.521 32.4342Z" fill="white"/>
<path d="M141.816 15.8378C140.366 14.8115 138.345 11.3035 138.345 11.2848L137.039 23.9985C137.07 23.7123 135.938 23.42 135.173 23.3765C133.35 23.1836 131.814 24.042 131.689 25.2425C131.565 26.4429 132.933 27.6372 134.799 27.8238C136.665 28.0104 138.14 27.152 138.27 25.9204C138.27 25.7338 138.14 25.5348 138.158 25.3669L139.16 15.5704C139.908 16.4319 140.827 17.1287 141.859 17.6167C143.234 18.2387 143.725 20.1483 143.725 20.1483C143.793 19.3275 143.653 18.5028 143.32 17.7498C142.986 16.9968 142.469 16.3394 141.816 15.8378Z" fill="white"/>
<path opacity="0.5" d="M139.885 24.3158C144.746 21.7951 146.993 16.4859 144.904 12.4574C142.815 8.42893 137.181 7.2067 132.32 9.72748C127.459 12.2483 125.212 17.5575 127.301 21.5859C129.39 25.6144 135.024 26.8366 139.885 24.3158Z" fill="white"/>
<path d="M110.584 2.02984L80.9814 4.43762L82.7841 26.6009L112.387 24.1931L110.584 2.02984Z" fill="#92E3A9"/>
<path d="M109.267 3.58503L82.6094 5.7533L84.1725 24.9718L110.831 22.8036L109.267 3.58503Z" fill="#92E3A9"/>
<path opacity="0.5" d="M109.267 3.58503L82.6094 5.7533L84.1725 24.9718L110.831 22.8036L109.267 3.58503Z" fill="white"/>
<path d="M110.615 20.1919L110.827 22.8043L84.168 24.9751L83.4092 15.6326L88.5158 10.3705L97.3295 17.6665L101.397 14.1647L110.615 20.1919Z" fill="#92E3A9"/>
<path opacity="0.3" d="M110.615 20.1919L110.827 22.8043L84.168 24.9751L83.4092 15.6326L88.5158 10.3705L97.3295 17.6665L101.397 14.1647L110.615 20.1919Z" fill="white"/>
<path d="M105.236 8.99595C105.27 9.42014 105.178 9.84498 104.971 10.2167C104.763 10.5885 104.451 10.8905 104.072 11.0846C103.693 11.2786 103.265 11.356 102.843 11.307C102.42 11.258 102.021 11.0847 101.697 10.8091C101.373 10.5335 101.137 10.1679 101.021 9.75864C100.904 9.34933 100.912 8.91466 101.042 8.50956C101.173 8.10447 101.42 7.74715 101.754 7.48276C102.087 7.21838 102.492 7.0588 102.916 7.02421C103.198 7.00123 103.481 7.03401 103.75 7.12068C104.019 7.20735 104.269 7.3462 104.484 7.52931C104.7 7.71243 104.877 7.93621 105.006 8.18786C105.135 8.43951 105.213 8.7141 105.236 8.99595Z" fill="#92E3A9"/>
<path opacity="0.3" d="M105.236 8.99595C105.27 9.42014 105.178 9.84498 104.971 10.2167C104.763 10.5885 104.451 10.8905 104.072 11.0846C103.693 11.2786 103.265 11.356 102.843 11.307C102.42 11.258 102.021 11.0847 101.697 10.8091C101.373 10.5335 101.137 10.1679 101.021 9.75864C100.904 9.34933 100.912 8.91466 101.042 8.50956C101.173 8.10447 101.42 7.74715 101.754 7.48276C102.087 7.21838 102.492 7.0588 102.916 7.02421C103.198 7.00123 103.481 7.03401 103.75 7.12068C104.019 7.20735 104.269 7.3462 104.484 7.52931C104.7 7.71243 104.877 7.93621 105.006 8.18786C105.135 8.43951 105.213 8.7141 105.236 8.99595Z" fill="white"/>
<path d="M53.734 28.197L52.5896 27.4941C52.3866 27.3687 52.1571 27.2927 51.9194 27.2721C51.6817 27.2516 51.4426 27.2872 51.2212 27.3759L46.1394 29.5218C45.9258 29.6086 45.7384 29.7494 45.5956 29.9304C45.4527 30.1114 45.3594 30.3264 45.3246 30.5544L45.138 31.7984C45.1064 32.0258 45.0149 32.2407 44.8728 32.4211C44.7307 32.6014 44.5431 32.7407 44.3294 32.8247L41.294 34.0687C41.1207 34.1391 40.964 34.2451 40.8342 34.3799C40.7044 34.5146 40.6043 34.6751 40.5404 34.851C40.4764 35.0269 40.4502 35.2142 40.4632 35.4009C40.4763 35.5875 40.5283 35.7694 40.6161 35.9347L48.7021 52.5047C48.873 52.8481 49.1667 53.1148 49.525 53.2519C49.8833 53.389 50.28 53.3865 50.6365 53.2449L74.683 43.2058C74.8575 43.1368 75.0155 43.0317 75.1466 42.8973C75.2776 42.763 75.3787 42.6024 75.4434 42.4262C75.508 42.25 75.5346 42.0621 75.5215 41.8749C75.5083 41.6876 75.4558 41.5053 75.3672 41.3398L67.2812 24.776C67.1113 24.4315 66.818 24.1635 66.4597 24.0252C66.1013 23.8869 65.704 23.8885 65.3468 24.0296L55.1024 28.3152C54.881 28.4039 54.6418 28.4395 54.4042 28.419C54.1665 28.3985 53.937 28.3224 53.734 28.197Z" fill="#92E3A9"/>
<path d="M68.4185 24.6454L46.3935 33.8759C45.9443 34.0701 45.5821 34.4226 45.3757 34.8664C45.1693 35.3102 45.1331 35.8143 45.2739 36.283L50.0944 51.5407C50.1623 51.7593 50.2759 51.9611 50.4276 52.1326C50.5792 52.3041 50.7656 52.4414 50.9744 52.5355C51.1831 52.6295 51.4094 52.6782 51.6384 52.6783C51.8674 52.6784 52.0937 52.6298 52.3025 52.5359L74.3337 43.3178C74.7812 43.1214 75.1417 42.7686 75.3478 42.3255C75.5539 41.8824 75.5914 41.3794 75.4533 40.9107L70.6266 25.653C70.561 25.4327 70.4489 25.2289 70.298 25.0555C70.147 24.882 69.9607 24.7429 69.7515 24.6475C69.5424 24.552 69.3152 24.5024 69.0853 24.5021C68.8553 24.5017 68.628 24.5506 68.4185 24.6454Z" fill="#92E3A9"/>
<path opacity="0.5" d="M68.4185 24.6454L46.3935 33.8759C45.9443 34.0701 45.5821 34.4226 45.3757 34.8664C45.1693 35.3102 45.1331 35.8143 45.2739 36.283L50.0944 51.5407C50.1623 51.7593 50.2759 51.9611 50.4276 52.1326C50.5792 52.3041 50.7656 52.4414 50.9744 52.5355C51.1831 52.6295 51.4094 52.6782 51.6384 52.6783C51.8674 52.6784 52.0937 52.6298 52.3025 52.5359L74.3337 43.3178C74.7812 43.1214 75.1417 42.7686 75.3478 42.3255C75.5539 41.8824 75.5914 41.3794 75.4533 40.9107L70.6266 25.653C70.561 25.4327 70.4489 25.2289 70.298 25.0555C70.147 24.882 69.9607 24.7429 69.7515 24.6475C69.5424 24.552 69.3152 24.5024 69.0853 24.5021C68.8553 24.5017 68.628 24.5506 68.4185 24.6454Z" fill="white"/>
<path d="M148.335 61.244C148.609 59.9599 148.746 58.6507 148.746 57.3379C148.746 54.9021 148.266 52.4902 147.334 50.2398C146.402 47.9895 145.035 45.9448 143.313 44.2224C141.591 42.5001 139.546 41.1338 137.296 40.2017C135.045 39.2696 132.633 38.7898 130.198 38.7898C129.048 38.791 127.901 38.8972 126.77 39.107C126.298 39.02 125.819 39.107 125.327 39.0511C123.579 35.2526 120.772 32.0394 117.242 29.7974C113.713 27.5554 109.611 26.3799 105.43 26.412H98.5877C95.7241 26.3981 92.8859 26.9493 90.2357 28.034C87.5854 29.1187 85.1752 30.7156 83.1432 32.7332C81.1111 34.7509 79.497 37.1496 78.3934 39.792C77.2898 42.4345 76.7184 45.2687 76.7119 48.1323C76.7119 48.294 76.7119 48.3748 76.7119 48.5366C72.1871 49.3357 68.1281 51.8067 65.3403 55.4593C62.5526 59.1118 61.2399 63.679 61.6627 68.2543C62.0856 72.8297 64.213 77.0789 67.623 80.1586C71.0329 83.2384 75.4761 84.9237 80.0707 84.88H147.247C150.381 85.0227 153.444 83.9145 155.761 81.7991C158.078 79.6837 159.46 76.7344 159.603 73.6001C159.745 70.4657 158.637 67.4031 156.522 65.0859C154.406 62.7687 151.457 61.3867 148.323 61.244H148.335Z" fill="#92E3A9"/>
<path opacity="0.5" d="M148.335 61.244C148.609 59.9599 148.746 58.6507 148.746 57.3379C148.746 54.9021 148.266 52.4902 147.334 50.2398C146.402 47.9895 145.035 45.9448 143.313 44.2224C141.591 42.5001 139.546 41.1338 137.296 40.2017C135.045 39.2696 132.633 38.7898 130.198 38.7898C129.048 38.791 127.901 38.8972 126.77 39.107C126.298 39.02 125.819 39.107 125.327 39.0511C123.579 35.2526 120.772 32.0394 117.242 29.7974C113.713 27.5554 109.611 26.3799 105.43 26.412H98.5877C95.7241 26.3981 92.8859 26.9493 90.2357 28.034C87.5854 29.1187 85.1752 30.7156 83.1432 32.7332C81.1111 34.7509 79.497 37.1496 78.3934 39.792C77.2898 42.4345 76.7184 45.2687 76.7119 48.1323C76.7119 48.294 76.7119 48.3748 76.7119 48.5366C72.1871 49.3357 68.1281 51.8067 65.3403 55.4593C62.5526 59.1118 61.2399 63.679 61.6627 68.2543C62.0856 72.8297 64.213 77.0789 67.623 80.1586C71.0329 83.2384 75.4761 84.9237 80.0707 84.88H147.247C150.381 85.0227 153.444 83.9145 155.761 81.7991C158.078 79.6837 159.46 76.7344 159.603 73.6001C159.745 70.4657 158.637 67.4031 156.522 65.0859C154.406 62.7687 151.457 61.3867 148.323 61.244H148.335Z" fill="white"/>
<path opacity="0.4" d="M148.335 61.244C148.608 59.9599 148.746 58.6507 148.746 57.3379C148.746 54.9021 148.266 52.4902 147.334 50.2398C146.402 47.9895 145.035 45.9448 143.313 44.2224C141.591 42.5001 139.546 41.1338 137.296 40.2017C135.045 39.2696 132.633 38.7898 130.198 38.7898C129.048 38.791 127.901 38.8972 126.77 39.107C126.298 39.02 125.819 39.107 125.327 39.0511C123.579 35.2526 120.772 32.0394 117.242 29.7974C113.713 27.5554 109.611 26.3799 105.429 26.412C102.566 26.3981 99.7277 26.9493 97.0775 28.034C94.4272 29.1187 92.017 30.7156 89.985 32.7332C87.9529 34.7509 86.3388 37.1496 85.2352 39.792C84.1316 42.4345 83.5602 45.2687 83.5537 48.1323C83.5537 48.294 83.5537 48.3748 83.5537 48.5366C79.0289 49.3357 74.9698 51.8067 72.1821 55.4593C69.3944 59.1118 68.0817 63.679 68.5045 68.2543C68.9273 72.8297 71.0548 77.0789 74.4648 80.1586C77.8747 83.2384 82.3179 84.9237 86.9125 84.88H147.247C150.381 85.0227 153.443 83.9145 155.761 81.7991C158.078 79.6837 159.46 76.7344 159.603 73.6001C159.745 70.4657 158.637 67.4031 156.522 65.0859C154.406 62.7687 151.457 61.3867 148.323 61.244H148.335Z" fill="white"/>
<path d="M166.491 115.358H145.549C137.303 115.348 129.399 112.068 123.568 106.238C117.738 100.408 114.458 92.5032 114.449 84.258V78.038H108.229V84.258C108.24 94.1523 112.176 103.638 119.172 110.634C126.168 117.631 135.654 121.566 145.549 121.578H166.491V115.358Z" fill="#92E3A9"/>
<path d="M111.264 73.8954L105.871 79.2819H116.65L111.264 73.8954Z" fill="#92E3A9"/>
<path d="M64.8619 195.179L61.1299 183.778C62.9704 182.207 65.1382 181.066 67.4753 180.439C69.8123 179.812 72.2599 179.714 74.6397 180.152L77.7497 190.825L64.8619 195.179Z" fill="#92E3A9"/>
<path opacity="0.7" d="M64.8619 195.179L61.1299 183.778C62.9704 182.207 65.1382 181.066 67.4753 180.439C69.8123 179.812 72.2599 179.714 74.6397 180.152L77.7497 190.825L64.8619 195.179Z" fill="white"/>
<g opacity="0.2">
<path opacity="0.2" d="M62.9092 186.471C63.3546 185.974 63.8485 185.522 64.3833 185.122C64.9293 184.7 65.5075 184.321 66.1125 183.99C66.4421 183.815 66.7905 183.629 67.1574 183.467C67.5244 183.305 67.8914 183.15 68.2833 183.032C68.6648 182.903 69.0531 182.795 69.4464 182.708L70.0249 182.578L70.6033 182.509C70.7899 182.509 70.9765 182.453 71.1569 182.441H71.6918C72.0197 182.422 72.3485 182.433 72.6746 182.472C72.9731 182.503 73.2468 182.528 73.4894 182.571L74.1114 182.714L74.6401 182.851C74.6401 182.851 74.4348 182.851 74.0927 182.851L73.4707 182.82H72.6621C72.3479 182.828 72.0344 182.853 71.7229 182.895C71.374 182.927 71.0272 182.979 70.6842 183.05L70.1368 183.15L69.5895 183.293C69.2145 183.382 68.8448 183.492 68.4823 183.623C68.1029 183.722 67.7483 183.89 67.3876 184.021C67.0268 184.151 66.6909 184.319 66.3613 184.475C66.0316 184.63 65.7393 184.786 65.4158 184.954C65.0924 185.122 64.8374 185.265 64.5824 185.414C64.0723 185.712 63.6494 185.967 63.3384 186.167L62.9092 186.471Z" fill="black"/>
<path opacity="0.2" d="M63.2393 187.51C63.2393 187.51 63.3823 187.386 63.656 187.193C63.9297 187 64.3153 186.72 64.8067 186.434C65.3646 186.097 65.9397 185.79 66.5296 185.513C67.1516 185.202 67.8918 184.929 68.6071 184.667C68.9741 184.562 69.3411 184.437 69.7018 184.338C70.0626 184.238 70.4296 184.151 70.7841 184.095C71.1387 184.039 71.4808 183.958 71.8104 183.933C72.1401 183.909 72.4324 183.865 72.7372 183.859C73.1981 183.846 73.6593 183.862 74.118 183.909L74.6405 183.971C74.6405 183.971 74.4477 184.002 74.118 184.033C73.9563 184.033 73.7573 184.033 73.5334 184.095L72.7745 184.213C72.4946 184.257 72.2023 184.338 71.8851 184.394C71.5678 184.45 71.2631 184.555 70.9085 184.63C70.554 184.705 70.2243 184.829 69.8698 184.916C69.5152 185.003 69.1669 185.146 68.8124 185.258C67.3942 185.731 66.0072 186.303 64.9684 186.745C64.4522 186.975 64.0105 187.149 63.7244 187.292L63.2393 187.51Z" fill="black"/>
<path opacity="0.2" d="M64.1152 189.637C64.2369 189.516 64.3657 189.402 64.5009 189.295C64.7497 189.09 65.1229 188.798 65.5707 188.48C66.096 188.119 66.6423 187.789 67.2066 187.491C67.8521 187.145 68.519 186.839 69.2032 186.577C69.8918 186.318 70.5986 186.11 71.318 185.955C71.6507 185.886 71.9871 185.836 72.3256 185.806C72.6491 185.806 72.9476 185.737 73.2338 185.744L73.9988 185.775C74.229 185.775 74.4218 185.831 74.5835 185.849L75.0873 185.936C75.0873 185.936 74.9007 185.936 74.5773 185.967C74.4156 185.967 74.2227 185.967 74.005 186.005L73.2586 186.104C72.9912 186.135 72.7051 186.21 72.3941 186.26C72.0831 186.31 71.7721 186.422 71.4424 186.49C71.1127 186.558 70.7831 186.695 70.441 186.789C70.0989 186.882 69.763 187.025 69.4209 187.143C69.0788 187.261 68.7429 187.398 68.4133 187.541C68.0836 187.684 67.7539 187.809 67.4492 187.958C66.8272 188.238 66.2487 188.524 65.7573 188.766C65.2659 189.009 64.8492 189.221 64.5693 189.388L64.1152 189.637Z" fill="black"/>
<path opacity="0.2" d="M64.6387 191.087C65.0697 190.66 65.538 190.273 66.0382 189.93C66.5512 189.575 67.0873 189.255 67.6429 188.972C67.9539 188.822 68.2649 188.673 68.607 188.536C68.9491 188.399 69.285 188.269 69.6395 188.169C69.9892 188.06 70.3442 187.969 70.7032 187.896C71.0495 187.816 71.4006 187.76 71.7543 187.728C72.0843 187.685 72.4169 187.666 72.7495 187.672C73.0445 187.662 73.3398 187.674 73.6328 187.709L74.3792 187.809L74.939 187.945C75.2438 188.026 75.4179 188.082 75.4179 188.082C75.4179 188.082 75.2313 188.082 74.9203 188.082H74.3543H73.6266C73.3418 188.082 73.0572 188.098 72.7744 188.132C72.4572 188.159 72.1416 188.202 71.829 188.263C71.5056 188.306 71.207 188.399 70.8338 188.474C70.4606 188.549 70.162 188.654 69.8262 188.754C69.163 188.955 68.511 189.192 67.8731 189.463C67.2511 189.724 66.6975 189.992 66.2186 190.228C65.7396 190.464 65.3415 190.676 65.0679 190.85L64.6387 191.087Z" fill="black"/>
<path opacity="0.2" d="M65.3594 193.027C65.4749 192.906 65.5974 192.792 65.7264 192.685C65.9689 192.48 66.311 192.187 66.7527 191.87C67.2566 191.509 67.7821 191.179 68.3263 190.881C68.6187 190.713 68.9483 190.552 69.2593 190.402C69.5703 190.253 69.9249 190.122 70.2607 189.973C70.5966 189.824 70.9512 189.737 71.2933 189.631C71.6354 189.525 71.9837 189.451 72.3258 189.388C72.6488 189.328 72.9748 189.285 73.3023 189.258C73.6195 189.258 73.9243 189.208 74.1918 189.221L74.9382 189.27C75.1559 189.27 75.3487 189.345 75.5042 189.37L75.9893 189.482H75.4917C75.3362 189.482 75.1434 189.482 74.9319 189.482L74.2104 189.55C73.9492 189.581 73.6631 189.65 73.3707 189.687C73.0784 189.724 72.7487 189.836 72.444 189.898C72.1392 189.961 71.822 190.098 71.4674 190.185C71.1129 190.272 70.8081 190.409 70.4784 190.533C70.1488 190.657 69.8191 190.782 69.5019 190.925C69.1847 191.068 68.8799 191.192 68.5689 191.342C67.9469 191.621 67.4182 191.908 66.9393 192.15C66.4603 192.393 66.0622 192.598 65.7948 192.772L65.3594 193.027Z" fill="black"/>
</g>
<path d="M63.2452 195.26L70.9082 189.451C71.0017 189.379 71.1094 189.328 71.2242 189.301C71.339 189.274 71.4582 189.272 71.5738 189.295L80.3253 190.956C80.4968 190.987 80.6543 191.071 80.7758 191.196C80.8974 191.321 80.977 191.481 81.0037 191.653C81.0304 191.826 81.0027 192.002 80.9246 192.158C80.8465 192.314 80.7219 192.442 80.5679 192.523L73.3465 196.436C73.2288 196.496 73.0993 196.53 72.967 196.535L63.7614 196.772C63.5841 196.774 63.4105 196.721 63.2655 196.619C63.1205 196.517 63.0116 196.371 62.9543 196.203C62.8969 196.036 62.8942 195.854 62.9465 195.685C62.9987 195.515 63.1033 195.367 63.2452 195.26Z" fill="#92E3A9"/>
<path d="M77.0605 198.706C77.0605 198.706 88.8412 170.2 90.9187 168.433C92.9962 166.667 106.158 174.324 106.158 174.324L94.4392 204.41L77.0605 198.706Z" fill="#92E3A9"/>
<path opacity="0.2" d="M80.4438 198.501C80.4438 198.501 91.7269 171.27 93.4063 170.094C95.0857 168.919 104.702 173.932 104.702 173.932C104.702 173.932 94.6814 167.811 91.6087 168.85C88.536 169.889 78.0615 197.879 78.0615 197.879L80.4438 198.501Z" fill="black"/>
<path d="M104.186 195.907H54.1523V225.452H104.186V195.907Z" fill="#263238"/>
<path opacity="0.2" d="M104.186 195.907H54.1523V225.452H104.186V195.907Z" fill="white"/>
<path opacity="0.4" d="M104.186 195.907H73.123V225.452H104.186V195.907Z" fill="white"/>
<path d="M73.123 196.218L84.9037 186.733L111.183 188.524L104.186 196.218H73.123Z" fill="#263238"/>
<path d="M73.1226 196.218L64.2218 185.955L45.4062 187.976L54.1516 195.907L73.1226 196.218Z" fill="#263238"/>
<path opacity="0.1" d="M73.1226 196.218L64.2218 185.955L45.4062 187.976L54.1516 195.907L73.1226 196.218Z" fill="white"/>
<path opacity="0.4" d="M73.123 196.218L84.9037 186.733L111.183 188.524L104.186 196.218H73.123Z" fill="white"/>
<path d="M94.7119 209.504C93.1397 209.504 91.6028 209.97 90.2956 210.844C88.9883 211.717 87.9694 212.959 87.3678 214.411C86.7661 215.864 86.6087 217.462 86.9154 219.004C87.2222 220.546 87.9792 221.962 89.091 223.074C90.2027 224.186 91.6191 224.943 93.1611 225.25C94.7031 225.556 96.3014 225.399 97.7539 224.797C99.2064 224.196 100.448 223.177 101.321 221.869C102.195 220.562 102.661 219.025 102.661 217.453C102.661 215.345 101.824 213.323 100.333 211.832C98.842 210.341 96.8201 209.504 94.7119 209.504ZM94.7119 220.619C94.0842 220.619 93.4707 220.433 92.9489 220.084C92.4271 219.735 92.0205 219.239 91.7805 218.659C91.5406 218.079 91.4782 217.441 91.6011 216.826C91.724 216.21 92.0267 215.645 92.471 215.202C92.9153 214.758 93.4811 214.457 94.0968 214.335C94.7126 214.213 95.3506 214.277 95.9301 214.518C96.5097 214.759 97.0047 215.167 97.3525 215.689C97.7003 216.212 97.8853 216.825 97.8841 217.453C97.8841 217.869 97.802 218.282 97.6425 218.666C97.483 219.051 97.2492 219.4 96.9546 219.694C96.6599 219.988 96.3102 220.221 95.9254 220.38C95.5405 220.539 95.1282 220.62 94.7119 220.619Z" fill="#92E3A9"/>
<path opacity="0.7" d="M101.878 214.001C101.734 213.707 101.572 213.422 101.392 213.149C101.16 212.779 100.893 212.431 100.596 212.11C99.2379 210.605 97.3504 209.682 95.3279 209.535C95.1214 209.512 94.9137 209.502 94.7059 209.504C93.4987 209.506 92.3078 209.783 91.2234 210.313C90.139 210.844 89.1895 211.614 88.4469 212.566C87.7043 213.517 87.1881 214.626 86.9373 215.807C86.6865 216.987 86.7077 218.21 86.9993 219.381C87.073 219.686 87.1686 219.986 87.2855 220.277C87.4519 220.711 87.6602 221.128 87.9075 221.521C88.5523 222.597 89.4433 223.505 90.5073 224.17C91.5713 224.835 92.7779 225.238 94.0279 225.346C94.2581 225.346 94.4882 225.377 94.7184 225.377C96.0626 225.376 97.3846 225.034 98.5609 224.384C99.7372 223.733 100.729 222.795 101.445 221.657C102.161 220.519 102.576 219.218 102.653 217.876C102.73 216.534 102.465 215.194 101.884 213.982L101.878 214.001ZM94.7121 220.619C94.6127 220.625 94.513 220.625 94.4136 220.619C93.8389 220.566 93.2896 220.357 92.8257 220.014C92.3618 219.67 92.0009 219.206 91.7825 218.672C91.7086 218.491 91.6504 218.304 91.6084 218.112C91.5874 217.993 91.5728 217.873 91.5648 217.752C91.5586 217.659 91.5586 217.565 91.5648 217.472C91.564 217.056 91.6453 216.643 91.804 216.258C91.9628 215.873 92.1958 215.524 92.4899 215.229C92.784 214.934 93.1333 214.701 93.5178 214.541C93.9023 214.382 94.3145 214.3 94.7308 214.3C94.8053 214.293 94.8802 214.293 94.9547 214.3C95.6077 214.341 96.2317 214.584 96.7399 214.996C96.865 215.101 96.9815 215.215 97.0882 215.338C97.1798 215.437 97.263 215.543 97.337 215.656C97.7083 216.184 97.9061 216.814 97.903 217.459C97.9022 217.877 97.8189 218.29 97.6579 218.675C97.4968 219.06 97.2613 219.409 96.9647 219.703C96.6682 219.997 96.3165 220.229 95.9299 220.386C95.5433 220.543 95.1295 220.622 94.7121 220.619Z" fill="white"/>
<path opacity="0.2" d="M94.4137 220.6L94.0218 225.365C92.7718 225.257 91.5652 224.854 90.5012 224.189C89.4372 223.524 88.5462 222.616 87.9014 221.54L91.7826 218.654C92.0011 219.188 92.3619 219.652 92.8258 219.995C93.2897 220.338 93.839 220.548 94.4137 220.6Z" fill="white"/>
<path opacity="0.2" d="M100.596 212.11L96.7207 214.99C96.2125 214.578 95.5885 214.334 94.9355 214.293L95.3274 209.535C97.3499 209.682 99.2374 210.605 100.596 212.11Z" fill="white"/>
<path opacity="0.2" d="M91.6086 218.094L87.292 220.277C87.1752 219.986 87.0795 219.686 87.0059 219.381L91.5651 217.733C91.5731 217.854 91.5876 217.974 91.6086 218.094Z" fill="white"/>
<path opacity="0.2" d="M101.877 214.001L97.3181 215.649C97.2442 215.537 97.1609 215.431 97.0693 215.332L101.392 213.149C101.572 213.422 101.734 213.707 101.877 214.001Z" fill="white"/>
<path d="M100.516 211.712C96.1616 211.712 93.7793 214.778 95.2721 218.554C96.7649 222.33 101.523 225.396 105.908 225.396C110.293 225.396 112.651 222.336 111.158 218.554C109.665 214.772 104.907 211.712 100.516 211.712ZM104.291 221.285C103.401 221.265 102.534 221 101.785 220.518C101.036 220.036 100.436 219.356 100.049 218.554C99.4271 217.049 100.391 215.823 102.139 215.823C103.029 215.844 103.896 216.11 104.644 216.592C105.392 217.074 105.993 217.753 106.381 218.554C106.984 220.059 106.039 221.285 104.291 221.285Z" fill="#92E3A9"/>
<path opacity="0.1" d="M109.205 215.581C108.962 215.332 108.707 215.083 108.433 214.847C108.07 214.526 107.685 214.228 107.283 213.957C105.472 212.68 103.352 211.913 101.143 211.737C100.926 211.737 100.721 211.737 100.521 211.737C96.1675 211.737 93.7852 214.797 95.278 218.579C95.5088 219.165 95.8073 219.723 96.1675 220.24C96.3575 220.51 96.5653 220.768 96.7895 221.011C97.108 221.399 97.4552 221.763 97.8282 222.099C99.8722 223.98 102.477 225.138 105.242 225.396C105.479 225.396 105.715 225.396 105.945 225.396C110.337 225.396 112.688 222.33 111.201 218.554C110.732 217.444 110.054 216.435 109.205 215.581ZM104.285 221.285H103.98C102.712 221.16 101.537 220.562 100.689 219.611C100.556 219.46 100.436 219.297 100.329 219.126C100.267 219.026 100.211 218.922 100.161 218.815C100.118 218.737 100.081 218.656 100.049 218.573C99.4268 217.061 100.391 215.842 102.139 215.842C102.213 215.836 102.288 215.836 102.363 215.842C103.074 215.896 103.765 216.109 104.384 216.464C104.545 216.554 104.701 216.654 104.851 216.763C104.975 216.845 105.094 216.936 105.205 217.036C105.724 217.445 106.13 217.977 106.387 218.585C106.984 220.059 106.039 221.285 104.285 221.285Z" fill="white"/>
<path opacity="0.2" d="M103.98 221.266L105.224 225.371C102.458 225.113 99.8536 223.955 97.8096 222.075L100.708 219.587C101.55 220.536 102.718 221.135 103.98 221.266Z" fill="white"/>
<path opacity="0.2" d="M107.282 213.957L104.384 216.445C103.765 216.09 103.074 215.877 102.362 215.823L101.118 211.724C103.336 211.9 105.466 212.672 107.282 213.957Z" fill="white"/>
<path opacity="0.2" d="M100.328 219.108L96.7519 220.974C96.5277 220.731 96.3199 220.473 96.1299 220.202L100.142 218.797C100.198 218.904 100.26 219.008 100.328 219.108Z" fill="white"/>
<path opacity="0.2" d="M109.205 215.581L105.205 217.005C105.094 216.905 104.975 216.814 104.851 216.732L108.433 214.866C108.707 215.083 108.962 215.332 109.205 215.581Z" fill="white"/>
<path d="M231.633 171.96L231.857 181.645L232.877 225.452H236.242L237.256 181.645L237.48 171.96H231.633Z" fill="#92E3A9"/>
<path opacity="0.4" d="M231.633 171.96L231.857 181.645L232.877 225.452H236.242L237.256 181.645L237.48 171.96H231.633Z" fill="white"/>
<path opacity="0.2" d="M231.633 171.96L231.857 181.912H237.256L237.48 171.96H231.633Z" fill="black"/>
<path d="M213.358 225.297L216.468 172.644H221.55L217.196 225.297H213.358Z" fill="#92E3A9"/>
<path opacity="0.5" d="M217.209 225.297H213.365L216.189 177.371L216.469 172.582H221.551L221.159 177.371L217.209 225.297Z" fill="white"/>
<path opacity="0.2" d="M221.55 172.582L221.158 177.558H216.188L216.468 172.582H221.55Z" fill="black"/>
<path d="M251.922 225.297L247.568 172.644H252.65L255.76 225.297H251.922Z" fill="#92E3A9"/>
<path opacity="0.5" d="M251.91 225.297L247.96 177.371L247.568 172.582H252.65L252.93 177.371L255.754 225.297H251.91Z" fill="white"/>
<path opacity="0.2" d="M247.568 172.582L247.96 177.558H252.93L252.65 172.582H247.568Z" fill="black"/>
<path d="M255.368 174.467H213.744V170.318C213.744 169.493 214.072 168.702 214.655 168.119C215.238 167.535 216.029 167.208 216.854 167.208H252.258C253.083 167.208 253.874 167.535 254.457 168.119C255.04 168.702 255.368 169.493 255.368 170.318V174.479V174.467Z" fill="#92E3A9"/>
<path d="M213.003 174.46H256.114C256.805 174.46 257.364 173.901 257.364 173.21V172.078C257.364 171.388 256.805 170.828 256.114 170.828H213.003C212.313 170.828 211.753 171.388 211.753 172.078V173.21C211.753 173.901 212.313 174.46 213.003 174.46Z" fill="#92E3A9"/>
<path opacity="0.6" d="M213.003 174.46H256.114C256.805 174.46 257.364 173.901 257.364 173.21V172.078C257.364 171.388 256.805 170.828 256.114 170.828H213.003C212.313 170.828 211.753 171.388 211.753 172.078V173.21C211.753 173.901 212.313 174.46 213.003 174.46Z" fill="white"/>
<path d="M219.623 108.205C219.623 108.205 219.448 108.678 219.131 109.449C218.814 110.22 218.329 111.396 217.738 112.677C216.307 115.787 214.23 119.743 212.059 121.876C211.514 122.45 210.858 122.907 210.131 123.22C207.817 124.109 202.014 124.271 196.833 124.221C191.651 124.172 187.223 123.91 187.223 123.91V119.986L204.259 115.445C204.259 115.445 213.241 99.2356 218.565 96.8347L219.623 108.205Z" fill="#263238"/>
<path opacity="0.2" d="M219.131 109.455C218.807 110.264 218.328 111.402 217.737 112.683C216.307 115.793 214.229 119.749 212.058 121.883C209.85 113.747 218.017 106.003 218.017 106.003L219.131 109.455Z" fill="black"/>
<path d="M216.929 220.961L211.971 220.283L211.287 208.502L216.232 209.187L216.929 220.961Z" fill="#EBB376"/>
<path opacity="0.2" d="M216.232 209.187L211.287 208.509L211.679 215.239L216.624 215.674L216.232 209.187Z" fill="black"/>
<path d="M216.729 151.72L217.936 144.144L245.69 142.483C245.69 142.483 248.644 158.245 246.374 162.443C242.325 169.938 220.492 166.175 214.098 166.891C217.942 182.534 217.569 213.012 217.569 213.012L208.444 213.709C208.444 213.709 201.428 180.823 200.004 165.193C199.04 154.668 207.785 154.93 216.729 151.72Z" fill="#92E3A9"/>
<path d="M218.638 213.466L207.673 214.181L206.733 209.485L218.782 208.932L218.638 213.466Z" fill="#92E3A9"/>
<path d="M205.497 216.564L200.508 216.93L197.386 205.554L202.368 205.193L205.497 216.564Z" fill="#EBB376"/>
<path d="M199.837 217.098H199.75C199.75 217.024 199.495 215.624 198.892 215.295C198.814 215.256 198.729 215.236 198.643 215.236C198.556 215.236 198.471 215.256 198.394 215.295C198.299 215.324 198.217 215.385 198.161 215.468C198.106 215.55 198.08 215.65 198.089 215.749C198.21 216.161 198.469 216.519 198.823 216.763C198.369 216.607 197.875 216.62 197.43 216.8C197.37 216.845 197.322 216.905 197.292 216.973C197.262 217.042 197.249 217.117 197.256 217.192C197.248 217.309 197.273 217.427 197.33 217.53C197.386 217.634 197.47 217.719 197.573 217.776C197.885 217.898 198.231 217.898 198.543 217.776C198.976 217.648 199.393 217.473 199.787 217.254H199.831C199.831 217.254 199.831 217.254 199.831 217.217C199.844 217.2 199.852 217.18 199.853 217.159C199.854 217.137 199.849 217.116 199.837 217.098ZM198.338 215.705C198.338 215.637 198.338 215.55 198.506 215.487H198.562C198.606 215.472 198.653 215.467 198.699 215.473C198.745 215.478 198.79 215.494 198.829 215.519C199.19 215.711 199.451 216.47 199.557 216.924L199.445 216.893C198.954 216.601 198.381 216.041 198.338 215.705ZM197.685 217.534C197.623 217.492 197.573 217.435 197.54 217.369C197.506 217.303 197.49 217.229 197.492 217.154C197.489 217.118 197.494 217.082 197.509 217.048C197.523 217.014 197.545 216.985 197.573 216.962C197.859 216.75 198.767 216.931 199.439 217.13C198.612 217.54 197.977 217.689 197.685 217.534Z" fill="#92E3A9"/>
<path opacity="0.2" d="M202.368 205.193L197.386 205.56L199.171 212.06L204.097 211.457L202.368 205.193Z" fill="black"/>
<path d="M195.693 211.258L204.476 208.658C204.476 208.658 199.232 179.063 193.902 168.8C194.3 168.67 194.829 168.502 195.482 168.309C196.657 167.954 198.219 167.513 200.053 167.003C212.817 163.464 238.686 156.827 238.686 156.827L226.868 145.799C226.868 145.799 179.795 152.977 178.818 165.379C178.364 171.338 195.693 211.258 195.693 211.258Z" fill="#92E3A9"/>
<path d="M205.609 208.869L195.035 211.861L193.138 207.464L204.806 204.41L205.609 208.869Z" fill="#92E3A9"/>
<path opacity="0.2" d="M195.494 168.327C196.67 167.973 198.231 167.531 200.066 167.021C199.699 164.011 199.693 160.559 201.142 158.798C204.022 155.29 211.43 153.232 215.647 152.485C219.174 151.863 231.023 150.619 231.023 150.619C231.023 150.619 215.647 149.145 199.923 153.729C192.16 156.006 193.672 163.6 195.494 168.327Z" fill="black"/>
<path d="M247.258 150.401C249.124 148.977 247.332 135.728 248.284 122.698C249.733 102.856 248.284 96.4803 246.822 95.8645C244.123 95.3964 241.394 95.1261 238.656 95.0559C234.65 94.9127 230.64 94.9999 226.645 95.3171C223.911 95.6523 221.207 96.2014 218.559 96.9592C218.559 96.9592 212.015 117.796 216.195 147.808L247.258 150.401Z" fill="#263238"/>
<path opacity="0.8" d="M248.8 112.484C248.719 115.401 248.545 118.785 248.259 122.691C247.307 135.722 249.086 148.971 247.233 150.395L216.164 147.801C214.309 134.775 214.298 121.552 216.133 108.522C218.658 104.579 223.559 100.082 225.811 98.1099C226.558 98.9289 227.572 99.4557 228.672 99.5965C231.092 100.069 233.853 98.9745 236.136 97.5812C237.94 99.3788 241.361 103.017 242.86 106.084C243.017 106.402 243.156 106.728 243.277 107.06C244.228 109.723 247.133 106.438 248.614 102.159C248.868 105.595 248.93 109.042 248.8 112.484Z" fill="white"/>
<path d="M237.181 81.5896C236.503 85.4709 235.9 92.5617 238.655 95.087C237.537 96.2883 236.191 97.2563 234.697 97.9353C233.202 98.6142 231.588 98.9907 229.947 99.0429C224.971 99.2606 226.651 95.3109 226.651 95.3109C230.942 94.1913 230.756 90.9942 229.941 88.0086L237.181 81.5896Z" fill="#EBB376"/>
<path opacity="0.2" d="M234.227 84.2206L229.941 88.0397C230.142 88.7331 230.282 89.4428 230.358 90.1607C232 89.8932 234.221 88.0334 234.364 86.3043C234.446 85.6072 234.4 84.9009 234.227 84.2206Z" fill="black"/>
<path d="M227.771 71.5442C229.917 72.9997 228.94 75.4628 224.088 79.3255C222.123 76.7939 221.793 71.8179 223.361 70.5739C224.928 69.3299 225.905 70.2816 227.771 71.5442Z" fill="#263238"/>
<path d="M236.982 75.55C236.752 80.7934 236.876 83.8661 234.283 86.6029C230.377 90.7143 223.87 88.4253 222.533 83.2192C221.339 78.5418 221.911 70.7792 227.005 68.5836C228.124 68.0985 229.349 67.908 230.563 68.0302C231.776 68.1523 232.939 68.5831 233.939 69.2814C234.939 69.9797 235.743 70.9223 236.276 72.0196C236.809 73.1168 237.052 74.3322 236.982 75.55Z" fill="#EBB376"/>
<path d="M229.201 77.105C229.201 77.5342 228.989 77.8825 228.709 77.8887C228.429 77.8949 228.206 77.5528 228.199 77.1237C228.193 76.6945 228.405 76.3524 228.684 76.3462C228.964 76.3399 229.163 76.6883 229.201 77.105Z" fill="#263238"/>
<path d="M224.354 77.1982C224.354 77.6211 224.143 77.9694 223.863 77.9757C223.583 77.9819 223.353 77.646 223.347 77.2106C223.341 76.7752 223.558 76.4331 223.838 76.4331C224.118 76.4331 224.348 76.7939 224.354 77.1982Z" fill="#263238"/>
<path d="M225.941 77.3724C225.457 78.6827 224.793 79.9198 223.97 81.0485C224.265 81.2495 224.6 81.3847 224.952 81.4448C225.304 81.5049 225.665 81.4885 226.01 81.3968L225.941 77.3724Z" fill="#D58745"/>
<path d="M230.501 75.55C230.556 75.5571 230.611 75.5438 230.657 75.5126C230.683 75.493 230.705 75.4685 230.721 75.4404C230.738 75.4122 230.749 75.3811 230.754 75.3488C230.758 75.3165 230.756 75.2835 230.748 75.2519C230.74 75.2202 230.726 75.1905 230.706 75.1643C230.468 74.8448 230.157 74.587 229.799 74.4127C229.441 74.2385 229.046 74.1528 228.648 74.1629C228.616 74.1645 228.585 74.1724 228.556 74.1861C228.528 74.1999 228.502 74.2192 228.482 74.243C228.461 74.2668 228.445 74.2946 228.435 74.3246C228.425 74.3546 228.421 74.3864 228.424 74.4179C228.431 74.4822 228.463 74.5412 228.513 74.5828C228.563 74.6244 228.626 74.6455 228.691 74.6418C229.006 74.6384 229.316 74.7099 229.597 74.8505C229.879 74.9912 230.122 75.1968 230.308 75.4504C230.332 75.4793 230.361 75.503 230.394 75.5201C230.428 75.5372 230.464 75.5474 230.501 75.55Z" fill="#263238"/>
<path d="M222.122 75.5998C222.17 75.6 222.217 75.5867 222.258 75.5614C222.299 75.536 222.331 75.4998 222.352 75.4567C222.475 75.1673 222.664 74.9113 222.906 74.7101C223.147 74.5089 223.433 74.3682 223.739 74.2998C223.805 74.2891 223.864 74.2532 223.903 74.1997C223.943 74.1463 223.96 74.0795 223.951 74.0137C223.942 73.9486 223.907 73.8898 223.855 73.8502C223.802 73.8106 223.736 73.7933 223.671 73.8022C223.282 73.8835 222.918 74.057 222.609 74.3081C222.301 74.5592 222.057 74.8805 221.898 75.2452C221.871 75.3047 221.867 75.3727 221.89 75.4344C221.912 75.4961 221.957 75.5466 222.017 75.5749C222.049 75.5928 222.085 75.6015 222.122 75.5998Z" fill="#263238"/>
<path d="M234.831 70.9347C232.399 71.818 232.747 74.449 236.504 79.3753C239.042 77.3787 240.578 72.6452 239.353 71.0591C238.127 69.473 236.983 70.1697 234.831 70.9347Z" fill="#263238"/>
<path d="M239.563 79.6861C239.394 80.3177 239.102 80.9098 238.704 81.4284C238.306 81.9471 237.81 82.3823 237.243 82.709C235.719 83.5674 234.544 82.3047 234.612 80.6564C234.681 79.1636 235.551 76.9244 237.25 76.7378C238.948 76.5512 239.974 78.1187 239.563 79.6861Z" fill="#EBB376"/>
<path d="M229.941 82.2614C229.573 82.8247 229.056 83.2755 228.448 83.5641C227.84 83.8527 227.164 83.968 226.495 83.8972" stroke="#263238" stroke-width="0.526291" stroke-linecap="round" stroke-linejoin="round"/>
<path d="M229.518 70.1012C229.518 70.1012 230.302 75.3509 235.359 75.6992C240.416 76.0475 241.498 72.9064 241.498 72.9064C241.086 72.9664 240.67 72.9996 240.254 73.006C240.254 73.006 241.734 70.462 240.254 68.03C238.773 65.5979 233.735 62.998 229.997 64.298C228.834 63.9179 227.604 63.7824 226.386 63.9002C225.168 64.0179 223.988 64.3863 222.919 64.9822C219.417 67.0161 220.039 71.451 220.039 71.451C220.039 71.451 219.883 68.7577 221.519 68.0051C221.519 68.0051 219.498 73.5471 222.527 75.0275C222.521 75.0088 222.819 69.5539 229.518 70.1012Z" fill="#263238"/>
<path d="M220.916 119.712C220.916 119.712 202.878 119.301 201.858 119.202C200.838 119.102 196.565 116.714 195.638 116.583C194.711 116.453 192.292 120.315 191.987 121.211C191.682 122.107 198.829 124.532 199.519 124.427C200.319 124.214 201.096 123.924 201.839 123.562L220.251 125.932L220.916 119.712Z" fill="#EBB376"/>
<path d="M168.562 123.444V125.092C168.562 125.584 169.408 125.932 169.9 125.932H208.333C208.831 125.932 209.615 125.584 209.615 125.092V123.444H168.562Z" fill="#263238"/>
<path opacity="0.6" d="M168.562 123.444V125.092C168.562 125.584 169.408 125.932 169.9 125.932H208.333C208.831 125.932 209.615 125.584 209.615 125.092V123.444H168.562Z" fill="white"/>
<path opacity="0.2" d="M168.562 123.444V125.092C168.562 125.584 169.408 125.932 169.9 125.932H195.246C195.744 125.932 196.553 125.584 196.553 125.092V123.444H168.562Z" fill="black"/>
<path d="M162.398 103.235L166.976 124.066C167.057 124.406 167.245 124.71 167.513 124.934C167.781 125.158 168.114 125.29 168.463 125.31H193.442C193.602 125.296 193.758 125.246 193.896 125.164C194.035 125.082 194.153 124.97 194.243 124.837C194.333 124.703 194.392 124.551 194.416 124.392C194.44 124.233 194.428 124.071 194.381 123.917L189.81 103.316C189.717 103.001 189.518 102.728 189.247 102.542C188.977 102.357 188.65 102.27 188.323 102.296H163.344C162.672 102.296 162.249 102.557 162.398 103.235Z" fill="#263238"/>
<path opacity="0.6" d="M162.398 103.235L166.976 124.066C167.057 124.406 167.245 124.71 167.513 124.934C167.781 125.158 168.114 125.29 168.463 125.31H193.442C193.602 125.296 193.758 125.246 193.896 125.164C194.035 125.082 194.153 124.97 194.243 124.837C194.333 124.703 194.392 124.551 194.416 124.392C194.44 124.233 194.428 124.071 194.381 123.917L189.81 103.316C189.717 103.001 189.518 102.728 189.247 102.542C188.977 102.357 188.65 102.27 188.323 102.296H163.344C162.672 102.296 162.249 102.557 162.398 103.235Z" fill="white"/>
<path opacity="0.4" d="M162.398 103.235L166.976 124.066C167.057 124.406 167.245 124.71 167.513 124.934C167.781 125.158 168.114 125.29 168.463 125.31H192.602C192.763 125.295 192.918 125.245 193.057 125.164C193.196 125.082 193.314 124.97 193.405 124.837C193.495 124.704 193.555 124.552 193.58 124.393C193.605 124.234 193.594 124.071 193.548 123.917L188.976 103.316C188.883 103.001 188.684 102.728 188.414 102.542C188.143 102.357 187.817 102.27 187.49 102.296H163.344C162.672 102.296 162.249 102.557 162.398 103.235Z" fill="white"/>
<path opacity="0.2" d="M177.101 116.602C175.938 116.602 174.744 115.358 174.439 113.815C174.134 112.273 174.837 111.004 176.025 111.004C176.238 111.009 176.449 111.051 176.647 111.128C176.755 111.678 176.991 112.195 177.336 112.637C177.68 113.079 178.124 113.434 178.632 113.672C178.645 113.713 178.655 113.755 178.663 113.797C178.974 115.358 178.271 116.602 177.101 116.602Z" fill="black"/>
<path opacity="0.2" d="M248.8 112.484C246.119 116.838 242.369 121.472 238.63 121.255C234.718 121.024 238.662 113.038 242.866 106.084C243.023 106.402 243.162 106.728 243.283 107.061C244.235 109.723 247.139 106.439 248.62 102.159C248.872 105.595 248.932 109.042 248.8 112.484Z" fill="black"/>
<path d="M246.822 95.8645C256.047 99.186 239.856 124.166 234.824 126.741C229.792 129.316 216.568 126.349 216.568 126.349L217.389 118.63C217.389 118.63 227.858 119.339 229.941 118.81C232.025 118.281 236.976 107.614 239.825 102.607C241.406 99.6913 243.85 97.3362 246.822 95.8645Z" fill="#263238"/>
<path opacity="0.2" d="M218.638 213.466L207.673 214.181L206.733 209.485L218.782 208.932L218.638 213.466Z" fill="white"/>
<path opacity="0.2" d="M205.609 208.869L195.035 211.861L193.138 207.464L204.806 204.41L205.609 208.869Z" fill="white"/>
<path d="M200.023 216.421L205.422 214.915C205.511 214.888 205.607 214.895 205.691 214.937C205.774 214.979 205.838 215.051 205.869 215.139L207.331 219.344C207.392 219.571 207.361 219.813 207.244 220.016C207.128 220.22 206.935 220.37 206.709 220.433C204.812 220.924 203.885 221.055 201.503 221.714C200.041 222.118 197.192 223.051 195.109 223.288C193.025 223.524 192.851 221.459 193.709 221.179C195.749 220.495 198.194 218.367 199.251 216.924C199.445 216.675 199.716 216.498 200.023 216.421Z" fill="#263238"/>
<path d="M211.481 220.289C211.481 220.202 211.394 218.79 210.859 218.343C210.779 218.284 210.689 218.242 210.592 218.219C210.496 218.197 210.396 218.194 210.299 218.212C210.198 218.221 210.103 218.263 210.027 218.33C209.951 218.397 209.898 218.486 209.876 218.585C209.898 219.013 210.072 219.419 210.367 219.73C209.951 219.485 209.462 219.395 208.987 219.475C208.919 219.507 208.86 219.556 208.816 219.617C208.771 219.678 208.742 219.748 208.731 219.823C208.702 219.934 208.704 220.05 208.737 220.16C208.77 220.27 208.833 220.368 208.918 220.445C209.199 220.624 209.536 220.69 209.864 220.631C210.308 220.595 210.746 220.507 211.17 220.37C211.176 220.374 211.184 220.375 211.191 220.375C211.199 220.375 211.206 220.374 211.213 220.37V220.333C211.213 220.333 211.331 220.333 211.338 220.289C211.344 220.246 211.443 220.289 211.443 220.289H211.481ZM210.106 218.61C210.106 218.542 210.15 218.455 210.311 218.423H210.367C210.414 218.419 210.461 218.425 210.505 218.441C210.549 218.458 210.589 218.483 210.622 218.517C210.94 218.778 211.027 219.568 211.045 220.041L210.946 219.985C210.513 219.64 210.215 219.153 210.106 218.61ZM209.086 220.258C209.038 220.204 209.004 220.139 208.988 220.068C208.972 219.997 208.973 219.924 208.993 219.854C208.997 219.817 209.01 219.783 209.032 219.753C209.054 219.723 209.083 219.7 209.117 219.686C209.434 219.537 210.286 219.904 210.89 220.233C209.994 220.476 209.335 220.476 209.086 220.283V220.258Z" fill="#92E3A9"/>
<path d="M211.598 219.686L217.196 219.338C217.243 219.332 217.29 219.335 217.335 219.347C217.38 219.36 217.422 219.381 217.458 219.41C217.495 219.439 217.525 219.475 217.547 219.516C217.57 219.557 217.584 219.602 217.588 219.649L218.136 224.065C218.144 224.18 218.13 224.295 218.093 224.404C218.057 224.514 217.999 224.615 217.923 224.702C217.847 224.788 217.755 224.859 217.652 224.91C217.548 224.961 217.436 224.991 217.321 224.998C215.368 225.091 214.429 225.035 211.965 225.172C210.454 225.259 207.475 225.583 205.385 225.377C203.295 225.172 203.556 223.119 204.458 223.02C206.591 222.777 209.434 221.21 210.759 220.016C210.994 219.816 211.29 219.7 211.598 219.686Z" fill="#263238"/>
<path d="M186.668 225.452H190.475L191.103 130.13H186.046L186.668 225.452Z" fill="#92E3A9"/>
<path opacity="0.4" d="M186.041 130.286L186.141 145.668L186.663 225.452H190.476L190.998 145.668L191.098 130.286H186.041Z" fill="white"/>
<path opacity="0.2" d="M186.041 130.286L186.141 145.836H190.998L191.098 130.286H186.041Z" fill="black"/>
<path d="M146.213 225.452H150.02L156.868 130.13H151.811L146.213 225.452Z" fill="#92E3A9"/>
<path opacity="0.5" d="M146.207 225.452H150.02L156.532 134.87L156.868 130.286H151.811L151.538 134.87L146.207 225.452Z" fill="white"/>
<path opacity="0.2" d="M151.538 134.64H156.533L156.869 130.286H151.812L151.538 134.64Z" fill="black"/>
<path d="M227.123 225.452H230.929L225.331 130.13H220.274L227.123 225.452Z" fill="#92E3A9"/>
<path opacity="0.5" d="M220.274 130.286L220.61 134.87L227.123 225.452H230.929L225.605 134.87L225.331 130.286H220.274Z" fill="white"/>
<path opacity="0.2" d="M225.331 130.286H220.274L220.61 134.64H225.605L225.331 130.286Z" fill="black"/>
<path d="M227.994 132.519H149.15C148.973 132.519 148.799 132.484 148.636 132.417C148.473 132.349 148.324 132.25 148.2 132.126C148.075 132.001 147.976 131.853 147.908 131.69C147.841 131.527 147.806 131.352 147.806 131.176V127.748L229.338 127.748V131.176C229.338 131.532 229.196 131.874 228.944 132.126C228.692 132.378 228.351 132.519 227.994 132.519Z" fill="#92E3A9"/>
<path opacity="0.6" d="M227.994 132.519H149.15C148.973 132.519 148.799 132.484 148.636 132.417C148.473 132.349 148.324 132.25 148.2 132.126C148.075 132.001 147.976 131.853 147.908 131.69C147.841 131.527 147.806 131.352 147.806 131.176V127.748L229.338 127.748V131.176C229.338 131.532 229.196 131.874 228.944 132.126C228.692 132.378 228.351 132.519 227.994 132.519Z" fill="white"/>
<path opacity="0.2" d="M147.806 130.13H229.338V127.742L147.806 127.742V130.13Z" fill="black"/>
<path d="M145.442 128.37H231.701C232.058 128.369 232.4 128.226 232.651 127.973C232.903 127.72 233.045 127.377 233.045 127.021C233.045 126.664 232.903 126.322 232.651 126.071C232.399 125.819 232.057 125.677 231.701 125.677H145.442C145.086 125.677 144.744 125.819 144.492 126.071C144.24 126.322 144.099 126.664 144.099 127.021C144.099 127.377 144.24 127.72 144.492 127.973C144.744 128.226 145.085 128.369 145.442 128.37Z" fill="#92E3A9"/>
<path opacity="0.6" d="M145.442 128.37H231.701C232.058 128.369 232.4 128.226 232.651 127.973C232.903 127.72 233.045 127.377 233.045 127.021C233.045 126.664 232.903 126.322 232.651 126.071C232.399 125.819 232.057 125.677 231.701 125.677H145.442C145.086 125.677 144.744 125.819 144.492 126.071C144.24 126.322 144.099 126.664 144.099 127.021C144.099 127.377 144.24 127.72 144.492 127.973C144.744 128.226 145.085 128.369 145.442 128.37Z" fill="white"/>
</svg>
