<?xml version="1.0" encoding="UTF-8"?>
<svg width="34px" height="34px" viewBox="0 0 34 34" version="1.1" xmlns="http://www.w3.org/2000/svg" xmlns:xlink="http://www.w3.org/1999/xlink">
    <!-- Generator: Sketch 60.1 (88133) - https://sketch.com -->
    <title>custom-functions-filled</title>
    <desc>Created with Sketch.</desc>
    <g id="Symbols" stroke="none" stroke-width="1" fill="none" fill-rule="evenodd">
        <g id="custom-functions-filled" fill="#000000" fill-rule="nonzero">
            <path d="M29.952381,16.1904762 L27.5238095,16.1904762 L27.5238095,9.7142857 C27.5238095,7.9333333 26.0666667,6.4761905 24.2857143,6.4761905 L17.8095238,6.4761905 L17.8095238,4.047619 C17.8095238,1.7809524 16.0285714,0 13.7619048,0 C11.4952381,0 9.7142857,1.7809524 9.7142857,4.047619 L9.7142857,6.4761905 L3.2380952,6.4761905 C1.4571429,6.4761905 0,7.9333333 0,9.7142857 L0,15.8666667 L2.4285714,15.8666667 C4.8571429,15.8666667 6.8,17.8095238 6.8,20.2380952 C6.8,22.6666667 4.8571429,24.6095238 2.4285714,24.6095238 L0,24.6095238 L0,30.7619048 C0,32.5428571 1.4571429,34 3.2380952,34 L9.3904762,34 L9.3904762,31.5714286 C9.3904762,29.1428571 11.3333333,27.2 13.7619048,27.2 C16.1904762,27.2 18.1333333,29.1428571 18.1333333,31.5714286 L18.1333333,34 L24.2857143,34 C26.0666667,34 27.5238095,32.5428571 27.5238095,30.7619048 L27.5238095,24.2857143 L29.952381,24.2857143 C32.2190476,24.2857143 34,22.5047619 34,20.2380952 C34,17.9714286 32.2190476,16.1904762 29.952381,16.1904762 L29.952381,16.1904762 Z" id="Shape"></path>
        </g>
    </g>
</svg>