<svg width="296" height="249" viewBox="0 0 296 249" fill="none" xmlns="http://www.w3.org/2000/svg">
<path d="M39.5886 190.446C39.5886 190.446 68.2797 226.777 117.312 228.254C166.345 229.73 210.195 199.144 246.369 175.344C282.544 151.545 294.415 111.672 276.352 78.7843C258.29 45.8971 225.516 57.1648 186.182 34.0543C146.848 10.9438 139.798 -1.17586 94.1379 0.897337C48.4778 2.97054 10.7413 51.7333 12.4027 106.361C14.0641 160.988 39.5886 190.446 39.5886 190.446Z" fill="#92E3A9"/>
<path opacity="0.7" d="M39.5886 190.446C39.5886 190.446 68.2797 226.777 117.312 228.254C166.345 229.73 210.195 199.144 246.369 175.344C282.544 151.545 294.415 111.672 276.352 78.7843C258.29 45.8971 225.516 57.1648 186.182 34.0543C146.848 10.9438 139.798 -1.17586 94.1379 0.897337C48.4778 2.97054 10.7413 51.7333 12.4027 106.361C14.0641 160.988 39.5886 190.446 39.5886 190.446Z" fill="white"/>
<path d="M270.757 203.979H261.009V210.077H270.757V203.979Z" fill="white" stroke="#566C77" stroke-linecap="round" stroke-linejoin="round"/>
<path d="M179.025 227.813C182.28 227.813 184.918 225.175 184.918 221.92C184.918 218.666 182.28 216.027 179.025 216.027C175.771 216.027 173.132 218.666 173.132 221.92C173.132 225.175 175.771 227.813 179.025 227.813Z" fill="#566C77" stroke="#566C77" stroke-linecap="round" stroke-linejoin="round"/>
<path d="M275.997 124.381H272.518V222.056H275.997V124.381Z" fill="#566C77" stroke="#566C77" stroke-linecap="round" stroke-linejoin="round"/>
<path d="M274.144 158.545L265.915 151.999C262.415 149.21 259.79 145.474 258.351 141.236C256.912 136.999 256.721 132.437 257.8 128.093C258.117 126.825 258.848 125.7 259.876 124.893C260.905 124.087 262.173 123.647 263.48 123.642H284.78C286.087 123.644 287.357 124.084 288.386 124.89C289.415 125.697 290.145 126.824 290.46 128.093C291.54 132.436 291.35 136.998 289.913 141.236C288.476 145.474 285.851 149.21 282.352 151.999L274.144 158.545ZM263.494 126.972C262.925 126.969 262.372 127.159 261.924 127.509C261.476 127.859 261.159 128.35 261.023 128.903C260.096 132.625 260.258 136.536 261.49 140.169C262.722 143.802 264.973 147.004 267.974 149.393L274.13 154.292L280.293 149.393C283.295 147.004 285.547 143.803 286.782 140.17C288.017 136.537 288.182 132.626 287.258 128.903C287.121 128.351 286.804 127.861 286.356 127.511C285.908 127.161 285.355 126.971 284.787 126.972H263.494Z" fill="#566C77"/>
<path d="M253.717 207.031H145.989V219.57H253.717V207.031Z" fill="white"/>
<path opacity="0.28" d="M253.717 207.031H145.989V219.57H253.717V207.031Z" fill="#566C77" stroke="#566C77" stroke-linecap="round" stroke-linejoin="round"/>
<path d="M253.717 207.031H145.989V219.57H253.717V207.031Z" stroke="#566C77" stroke-linecap="round" stroke-linejoin="round"/>
<path d="M158.059 207.031H145.989V219.57H158.059V207.031Z" stroke="#566C77" stroke-linecap="round" stroke-linejoin="round"/>
<path d="M253.71 207.031H241.64V219.57H253.71V207.031Z" stroke="#566C77" stroke-linecap="round" stroke-linejoin="round"/>
<path d="M205.885 207.031H193.815V219.57H205.885V207.031Z" stroke="#566C77" stroke-linecap="round" stroke-linejoin="round"/>
<path d="M253.717 219.57H261.144L270.431 184.276H263.004L253.717 219.57Z" fill="white" stroke="#566C77" stroke-linecap="round" stroke-linejoin="round"/>
<path d="M279.135 199.137H269.387V214.927H279.135V199.137Z" fill="white" stroke="#566C77" stroke-linecap="round" stroke-linejoin="round"/>
<path d="M271.872 227.813C271.319 227.804 270.792 227.581 270.401 227.19C270.01 226.799 269.787 226.271 269.778 225.719V217.859C269.787 217.306 270.01 216.779 270.401 216.388C270.792 215.997 271.319 215.774 271.872 215.765C272.425 215.774 272.952 215.997 273.343 216.388C273.734 216.779 273.957 217.306 273.967 217.859V225.74C273.952 226.289 273.726 226.811 273.336 227.197C272.945 227.584 272.421 227.804 271.872 227.813Z" fill="#566C77"/>
<path d="M276.849 227.813C276.296 227.804 275.769 227.581 275.378 227.19C274.987 226.799 274.764 226.271 274.755 225.719V217.859C274.764 217.306 274.987 216.779 275.378 216.388C275.769 215.997 276.296 215.774 276.849 215.765C277.408 215.765 277.944 215.984 278.343 216.376C278.741 216.768 278.97 217.3 278.979 217.859V225.74C278.964 226.295 278.733 226.822 278.336 227.21C277.938 227.597 277.404 227.814 276.849 227.813Z" fill="#566C77"/>
<path d="M1 227.813H294.805" stroke="#566C77" stroke-linecap="round" stroke-linejoin="round"/>
<path d="M102.367 248.325C130.694 248.325 153.657 245.534 153.657 242.091C153.657 238.648 130.694 235.857 102.367 235.857C74.0398 235.857 51.0763 238.648 51.0763 242.091C51.0763 245.534 74.0398 248.325 102.367 248.325Z" fill="#92E3A9"/>
<path opacity="0.5" d="M102.367 248.325C130.694 248.325 153.657 245.534 153.657 242.091C153.657 238.648 130.694 235.857 102.367 235.857C74.0398 235.857 51.0763 238.648 51.0763 242.091C51.0763 245.534 74.0398 248.325 102.367 248.325Z" fill="white"/>
<path d="M208.505 242.07C208.505 243.789 197.052 245.18 182.945 245.18C168.837 245.18 157.385 243.76 157.385 242.07C157.385 240.381 168.83 238.968 182.945 238.968C197.059 238.968 208.505 240.381 208.505 242.07Z" fill="#92E3A9"/>
<path opacity="0.5" d="M208.505 242.07C208.505 243.789 197.052 245.18 182.945 245.18C168.837 245.18 157.385 243.76 157.385 242.07C157.385 240.381 168.83 238.968 182.945 238.968C197.059 238.968 208.505 240.381 208.505 242.07Z" fill="white"/>
<path d="M112.598 36.731C112.598 36.731 108.629 33.6141 104.078 35.169C99.5266 36.7239 96.076 44.3067 94.8477 50.4695C93.6194 56.6323 88.8979 61.3041 90.0339 68.5319C91.1699 75.7597 99.3846 76.8886 109.303 77.9536C119.222 79.0186 124.604 77.8116 129.276 71.2938C133.947 64.776 131.967 56.8453 129.205 49.8305C126.443 42.8157 121.842 36.305 118.015 35.098C114.188 33.891 112.598 36.731 112.598 36.731Z" fill="#566C77" stroke="#566C77" stroke-linecap="round" stroke-linejoin="round"/>
<path d="M96.1968 73.7998C96.8665 74.1009 97.563 74.3387 98.2771 74.5098" stroke="white" stroke-linecap="round" stroke-linejoin="round"/>
<path d="M111.604 41.7793C109.986 45.3935 107.936 48.798 105.498 51.9181C101.437 57.1366 92.4551 62.064 91.88 67.5381C91.7876 68.271 91.8518 69.0152 92.0684 69.7214C92.2851 70.4276 92.6492 71.0798 93.1367 71.6348" stroke="white" stroke-linecap="round" stroke-linejoin="round"/>
<path d="M128.083 67.957C127.789 68.6442 127.413 69.2928 126.961 69.8882" stroke="white" stroke-linecap="round" stroke-linejoin="round"/>
<path d="M124.668 54.2393C124.668 54.2393 129.233 59.5075 128.793 65.1307" stroke="white" stroke-linecap="round" stroke-linejoin="round"/>
<path d="M110.738 38.8749C108.958 38.6938 107.161 38.9416 105.497 39.5975C103.834 40.2535 102.351 41.2985 101.174 42.645C101.011 42.8296 100.861 43.0142 100.719 43.1988" stroke="white" stroke-linecap="round" stroke-linejoin="round"/>
<path d="M84.5456 172.703L83.6581 186.364C83.6581 186.364 79.8809 204.689 78.6881 212.243C77.4953 219.798 75.3085 231.286 74.9109 231.286C74.5133 231.286 67.9955 235.226 65.9081 238.442C63.8207 241.659 66.469 243.022 69.3658 241.992C72.2626 240.963 76.196 238.052 77.4811 234.594C78.7662 231.136 79.4052 229.851 79.4904 229.29C79.5756 228.73 93.3141 191.845 94.6773 187.905C96.0405 183.964 98.9373 172.391 98.9373 172.391L105.689 149.486C105.689 149.486 112.917 173.037 113.002 174.081C113.088 175.125 120.472 235.318 120.812 237.569C121.153 239.82 121.054 241.424 122.417 241.907C123.78 242.39 126.997 242.39 128.686 242.39C130.376 242.39 136.241 243.277 139.13 242.553C142.02 241.829 142.347 241.346 140.337 239.898C138.328 238.449 127.167 237.526 126.137 233.309C126.052 232.99 125.974 171.028 125.974 171.028C125.974 171.028 125.009 150.537 123.404 144.758H86.2709L84.5456 172.703Z" fill="white" stroke="#566C77" stroke-linecap="round" stroke-linejoin="round"/>
<path d="M69.3589 241.977C72.2486 240.927 76.1891 238.037 77.4742 234.579L77.744 233.869C76.1039 235.616 73.484 238.044 73.484 238.044C73.3234 237.22 72.9652 236.448 72.4403 235.793C72.2112 235.541 71.9178 235.355 71.5914 235.256C71.265 235.157 70.9179 235.149 70.5872 235.232L73.4272 232.108C71.2972 233.429 67.4632 236.127 65.958 238.449C63.8067 241.651 66.4479 243.021 69.3589 241.977Z" fill="#566C77" stroke="#566C77" stroke-linecap="round" stroke-linejoin="round"/>
<path d="M140.288 239.883C138.91 238.897 133.252 238.151 129.474 236.426C129.319 236.558 129.197 236.726 129.119 236.916C128.88 237.596 128.692 238.294 128.559 239.003L120.749 237.335V237.555C121.068 239.805 120.99 241.41 122.353 241.893C123.716 242.376 126.933 242.376 128.622 242.376C130.312 242.376 136.177 243.263 139.067 242.539C141.956 241.815 142.325 241.36 140.288 239.883Z" fill="#566C77" stroke="#566C77" stroke-linecap="round" stroke-linejoin="round"/>
<path d="M95.3661 111.43C95.3661 111.43 91.6812 113.127 87.2224 121.135C82.3447 129.875 83.1825 134.732 83.1115 145.275C83.0405 155.819 82.8275 173.32 82.8275 173.32C82.8275 173.32 96.3175 176.934 105.995 176.366C115.672 175.798 127.948 173.604 127.948 173.604C127.948 173.604 125.328 137.906 122.85 127.639C120.372 117.372 118.881 112.729 118.881 112.729C114.092 113.394 109.239 113.465 104.433 112.942C96.2181 112.14 95.3661 111.43 95.3661 111.43Z" fill="#566C77" stroke="#566C77" stroke-linecap="round" stroke-linejoin="round"/>
<path d="M110.887 143.004C111.256 144.218 111.597 145.446 111.895 146.675" stroke="white" stroke-linecap="round" stroke-linejoin="round"/>
<path d="M102.331 122.911C105.191 128.189 107.646 133.676 109.673 139.326" stroke="white" stroke-linecap="round" stroke-linejoin="round"/>
<path d="M185.813 104.642C185.387 104.358 178.408 103.265 178.408 103.265L177.044 102.704C177.044 102.704 185.493 103.378 185.564 103.023C185.635 102.668 185.919 102.242 185.351 102.171C184.783 102.1 173.913 99.8921 173.913 99.8921C173.913 99.8921 176.675 97.2794 177.03 96.7114C177.385 96.1434 177.875 95.0074 177.307 95.0074C176.739 95.0074 176.597 95.3624 175.823 95.8594C175.049 96.3564 171.996 97.5634 171.144 98.2663C170.292 98.9692 167.751 100.815 167.751 100.815L138.229 96.754C138.229 96.754 127.863 83.974 125.612 81.2476C124.048 79.4281 122.266 77.8068 120.308 76.4196C118.136 75.4611 118.178 77.0657 118.178 77.0657L122.715 97.2297C122.715 97.2297 134.452 104.223 135.176 104.223C135.9 104.223 167.609 105.274 167.609 105.274C167.609 105.274 169.739 106.268 171.073 107.113C172.408 107.958 180.921 110.663 180.921 110.663C180.921 110.663 181.489 110.379 180.85 109.882C180.211 109.385 176.107 107.404 176.107 107.404L184.627 109.25C184.627 109.25 185.124 108.895 184.911 108.54C184.698 108.185 177.101 105.281 177.101 105.281L185.621 105.707C185.621 105.707 186.232 104.926 185.813 104.642Z" fill="white" stroke="#566C77" stroke-linecap="round" stroke-linejoin="round"/>
<path d="M136.447 94.5601C133.387 90.79 127.274 83.264 125.612 81.2476C124.048 79.4281 122.266 77.8068 120.308 76.4196C118.136 75.4611 118.178 77.0657 118.178 77.0657L122.715 97.2297C122.715 97.2297 128.012 100.382 131.704 102.455L136.447 94.5601Z" fill="white" stroke="#566C77" stroke-linecap="round" stroke-linejoin="round"/>
<path d="M105.072 74.6951C105.072 74.6951 98.909 74.9791 95.1318 79.161C91.3546 83.3429 91.8019 92.5445 93.3639 98.0683C94.9259 103.592 96.9139 106.638 96.4808 108.555C96.0477 110.472 94.4999 111.104 95.3448 112.872C96.1897 114.64 101.082 116.557 109.722 116.273C118.363 115.989 119.996 114.143 120.067 112.524C120.138 110.905 119.499 109.549 119.712 108.555C119.925 107.561 126.159 102.037 126.159 95.9454C126.159 89.8536 123.468 87.7307 122.829 83.3358C122.19 78.9409 122.403 78.309 119.783 76.392C117.163 74.475 108.544 73.4881 105.072 74.6951Z" fill="white" stroke="#566C77" stroke-linecap="round" stroke-linejoin="round"/>
<path d="M102.274 95.8096C100.215 97.5332 97.9285 98.9665 95.4797 100.07" stroke="#566C77" stroke-linecap="round" stroke-linejoin="round"/>
<path d="M102.956 96.5205C102.956 96.5205 101.429 101.448 97.6877 104.167" stroke="#566C77" stroke-linecap="round" stroke-linejoin="round"/>
<path d="M118.249 79.1533L118.959 85.9551L115.977 82.4832L118.249 79.1533Z" fill="white" stroke="#566C77" stroke-linecap="round" stroke-linejoin="round"/>
<path d="M114.281 86.5233L118.249 79.1535L114.636 75.2627L114.281 86.5233Z" fill="white" stroke="#566C77" stroke-linecap="round" stroke-linejoin="round"/>
<path d="M106.634 62.6533C107.253 65.109 107.56 67.6327 107.55 70.1651C107.529 71.8049 107.363 73.4396 107.053 75.0499L114.28 86.5235L116.332 75.8735L117.681 68.5037C117.681 68.5037 109.467 68.0351 106.634 62.6533Z" fill="white" stroke="#566C77" stroke-linecap="round" stroke-linejoin="round"/>
<path d="M113.854 80.3604L114.28 86.5231L112.158 83.1932L113.854 80.3604Z" fill="white" stroke="#566C77" stroke-linecap="round" stroke-linejoin="round"/>
<path d="M104.646 74.7655L111.235 86.5941L113.854 80.3603L106.847 70.7256L104.646 74.7655Z" fill="white" stroke="#566C77" stroke-linecap="round" stroke-linejoin="round"/>
<path d="M220.078 80.2822H160.289V129.343H220.078V80.2822Z" fill="#92E3A9"/>
<path opacity="0.2" d="M220.078 80.2822H160.289V129.343H220.078V80.2822Z" fill="#566C77"/>
<path d="M220.078 80.2822H160.289V129.343H220.078V80.2822Z" stroke="#566C77" stroke-linecap="round" stroke-linejoin="round"/>
<path d="M207.418 80.2822H147.629V129.343H207.418V80.2822Z" fill="#92E3A9" stroke="#566C77" stroke-linecap="round" stroke-linejoin="round"/>
<path d="M229.925 145.858C228.008 142.82 220.078 129.344 220.078 129.344H207.425L213.936 145.858H229.925Z" fill="#92E3A9"/>
<path opacity="0.2" d="M229.925 145.858C228.008 142.82 220.078 129.344 220.078 129.344H207.425L213.936 145.858H229.925Z" fill="#566C77"/>
<path d="M229.925 145.858C228.008 142.82 220.078 129.344 220.078 129.344H207.425L213.936 145.858H229.925Z" stroke="#566C77" stroke-linecap="round" stroke-linejoin="round"/>
<path d="M137.746 145.858C139.663 142.82 147.587 129.344 147.587 129.344H160.246L153.735 145.858H137.746Z" fill="#92E3A9" stroke="#566C77" stroke-linecap="round" stroke-linejoin="round"/>
<path d="M147.587 129.344L142.084 145.858H204.529L207.425 129.344H147.587Z" fill="#92E3A9" stroke="#566C77" stroke-linecap="round" stroke-linejoin="round"/>
<path d="M227.774 98.0322V114.462" stroke="#566C77" stroke-linecap="round" stroke-linejoin="round"/>
<path d="M230.884 105.14V118.459" stroke="#566C77" stroke-linecap="round" stroke-linejoin="round"/>
<path d="M141.204 114.462V124.672" stroke="#566C77" stroke-linecap="round" stroke-linejoin="round"/>
<path d="M138.541 120.234V128.222" stroke="#566C77" stroke-linecap="round" stroke-linejoin="round"/>
<path d="M94.7981 92.3311C96.9169 94.7309 99.376 96.8072 102.097 98.4939C106.357 101.043 121.977 109.897 123.205 110.394C124.433 110.891 161.737 104.799 161.737 104.799C161.737 104.799 163.867 105.793 165.209 106.638C166.551 107.483 175.056 110.188 175.056 110.188C175.056 110.188 175.624 109.904 174.985 109.414C174.346 108.924 170.243 106.929 170.243 106.929L178.763 108.775C178.763 108.775 179.26 108.42 179.047 108.065C178.834 107.71 171.237 104.806 171.237 104.806L179.757 105.232C179.757 105.232 180.396 104.451 179.97 104.167C179.544 103.883 170.818 101.895 170.818 101.895C170.818 101.895 180.098 101.114 180.169 100.759C180.24 100.404 180.523 99.9849 179.955 99.9139C179.387 99.8429 167.772 98.7069 167.772 98.7069C167.772 98.7069 170.818 96.797 171.173 96.229C171.528 95.661 172.025 94.525 171.457 94.525C170.889 94.525 170.747 94.88 169.973 95.377C169.199 95.874 166.146 97.081 165.294 97.7839C164.442 98.4868 161.893 100.34 161.893 100.34L127.756 100.411L106.563 83.6904" fill="white"/>
<path d="M94.7981 92.3311C96.9169 94.7309 99.376 96.8072 102.097 98.4939C106.357 101.043 121.977 109.897 123.205 110.394C124.433 110.891 161.737 104.799 161.737 104.799C161.737 104.799 163.867 105.793 165.209 106.638C166.551 107.483 175.056 110.188 175.056 110.188C175.056 110.188 175.624 109.904 174.985 109.414C174.346 108.924 170.243 106.929 170.243 106.929L178.763 108.775C178.763 108.775 179.26 108.42 179.047 108.065C178.834 107.71 171.237 104.806 171.237 104.806L179.757 105.232C179.757 105.232 180.396 104.451 179.97 104.167C179.544 103.883 170.818 101.895 170.818 101.895C170.818 101.895 180.098 101.114 180.169 100.759C180.24 100.404 180.523 99.9849 179.955 99.9139C179.387 99.8429 167.772 98.7069 167.772 98.7069C167.772 98.7069 170.818 96.797 171.173 96.229C171.528 95.661 172.025 94.525 171.457 94.525C170.889 94.525 170.747 94.88 169.973 95.377C169.199 95.874 166.146 97.081 165.294 97.7839C164.442 98.4868 161.893 100.34 161.893 100.34L127.756 100.411L106.563 83.6904" stroke="#566C77" stroke-linecap="round" stroke-linejoin="round"/>
<path d="M179.941 99.9143C179.38 99.8433 167.758 98.7073 167.758 98.7073C167.758 98.7073 170.804 96.7974 171.159 96.2294C171.514 95.6614 172.011 94.5254 171.443 94.5254C170.875 94.5254 170.733 94.8804 169.959 95.3774C169.185 95.8744 166.132 97.0814 165.28 97.7843C164.428 98.4872 161.879 100.34 161.879 100.34L127.742 100.411L123.958 97.408C122.538 99.9001 119.882 104.572 118.157 107.653C120.813 109.13 122.822 110.231 123.227 110.394C124.434 110.891 161.758 104.799 161.758 104.799C161.758 104.799 163.888 105.793 165.23 106.638C166.572 107.483 175.078 110.188 175.078 110.188C175.078 110.188 175.646 109.904 175.007 109.414C174.368 108.924 170.264 106.929 170.264 106.929L178.784 108.775C178.784 108.775 179.281 108.42 179.068 108.065C178.855 107.71 171.258 104.806 171.258 104.806L179.778 105.232C179.778 105.232 180.417 104.451 179.991 104.167C179.565 103.883 170.818 101.895 170.818 101.895C170.818 101.895 180.098 101.114 180.169 100.759C180.24 100.404 180.509 99.9853 179.941 99.9143Z" fill="white" stroke="#566C77" stroke-linecap="round" stroke-linejoin="round"/>
<path d="M122.779 56.7038C122.9 56.5569 123.06 56.447 123.241 56.3865C123.421 56.3261 123.615 56.3176 123.8 56.362C123.985 56.4064 124.154 56.502 124.287 56.6377C124.421 56.7735 124.513 56.944 124.554 57.1298C124.673 57.9 124.633 58.6863 124.438 59.4407C124.243 60.195 123.896 60.9017 123.418 61.5176C122.637 62.2986 121.927 62.5116 121.927 61.5176C122.124 59.8988 122.409 58.2919 122.779 56.7038Z" fill="white" stroke="#566C77" stroke-linecap="round" stroke-linejoin="round"/>
<path d="M114.06 44.293C113.812 47.7483 112.333 51.0001 109.893 53.4591C107.619 55.6945 105.049 57.6059 102.253 59.1391C102.253 59.1391 102.665 61.3614 103.503 62.0572C104.341 62.753 106.002 62.6181 106.002 62.6181C106.968 65.259 108.539 67.637 110.589 69.5619C113.918 72.6149 117.809 72.338 120.032 67.7585C122.254 63.179 123.369 58.5853 123.092 55.9441L122.815 53.3029C122.815 53.3029 115.587 49.2914 114.06 44.293Z" fill="white" stroke="#566C77" stroke-linecap="round" stroke-linejoin="round"/>
<path d="M113.641 58.0239C113.994 58.0239 114.28 57.5153 114.28 56.8879C114.28 56.2606 113.994 55.752 113.641 55.752C113.289 55.752 113.002 56.2606 113.002 56.8879C113.002 57.5153 113.289 58.0239 113.641 58.0239Z" fill="#566C77"/>
<path d="M117.113 67.0903C117.466 67.0903 117.752 66.5817 117.752 65.9543C117.752 65.327 117.466 64.8184 117.113 64.8184C116.76 64.8184 116.474 65.327 116.474 65.9543C116.474 66.5817 116.76 67.0903 117.113 67.0903Z" fill="#566C77"/>
<path d="M119.804 58.0239C120.157 58.0239 120.443 57.5153 120.443 56.8879C120.443 56.2606 120.157 55.752 119.804 55.752C119.451 55.752 119.165 56.2606 119.165 56.8879C119.165 57.5153 119.451 58.0239 119.804 58.0239Z" fill="#566C77"/>
<path d="M118.526 55.6807C118.282 56.5312 118.21 57.4218 118.313 58.3006C118.526 59.5076 119.52 61.5595 118.668 61.9145C118.28 62.0918 117.85 62.1591 117.425 62.1091C117.001 62.059 116.598 61.8935 116.261 61.6305" stroke="#566C77" stroke-linecap="round" stroke-linejoin="round"/>
<path d="M111.795 54.8365C111.795 54.8365 112.136 52.6639 114.983 52.9124" stroke="#566C77" stroke-linecap="round" stroke-linejoin="round"/>
<path d="M119.421 53.5799C119.421 53.5799 122.076 51.4498 122.935 55.3478" stroke="#566C77" stroke-linecap="round" stroke-linejoin="round"/>
</svg>
