<svg width="383" height="351" viewBox="0 0 383 351" fill="none" xmlns="http://www.w3.org/2000/svg">
<path opacity="0.7" d="M233.309 13.6523C253.54 8.02165 275.468 17.6962 287.213 34.6361C304.257 59.2217 293.156 87.508 285.002 113.085C278.913 132.329 274.627 153.23 281.319 172.866C288.099 192.788 303.987 207.92 311.421 227.542C317.318 243.104 314.397 261.692 305.027 275.284C291.77 294.519 266.296 302.72 244.061 296.173C219.622 288.977 203.403 267.307 180.504 257.138C153.448 245.105 123.535 250.317 94.9137 248.823C69.1765 247.464 42.7477 231.99 35.2775 206.153C28.4874 182.537 38.8571 158.113 56.1571 141.818C75.4587 123.648 102.158 120.347 126.772 114.262C137.773 111.54 149.613 107.629 158.975 100.47C169.379 92.4927 174.51 80.6942 179.878 69.1632C186.764 54.3861 195.692 39.1116 207.875 28.0457C215.131 21.3533 223.835 16.4274 233.309 13.6523Z" fill="white"/>
<path opacity="0.2" d="M233.309 13.6523C253.54 8.02165 275.468 17.6962 287.213 34.6361C304.257 59.2217 293.156 87.508 285.002 113.085C278.913 132.329 274.627 153.23 281.319 172.866C288.099 192.788 303.987 207.92 311.421 227.542C317.318 243.104 314.397 261.692 305.027 275.284C291.77 294.519 266.296 302.72 244.061 296.173C219.622 288.977 203.403 267.307 180.504 257.138C153.448 245.105 123.535 250.317 94.9137 248.823C69.1765 247.464 42.7477 231.99 35.2775 206.153C28.4874 182.537 38.8571 158.113 56.1571 141.818C75.4587 123.648 102.158 120.347 126.772 114.262C137.773 111.54 149.613 107.629 158.975 100.47C169.379 92.4927 174.51 80.6942 179.878 69.1632C186.764 54.3861 195.692 39.1116 207.875 28.0457C215.131 21.3533 223.835 16.4274 233.309 13.6523Z" fill="#92E3A9"/>
<path d="M339.7 80.26C354.407 80.26 366.33 68.3373 366.33 53.63C366.33 38.9227 354.407 27 339.7 27C324.992 27 313.07 38.9227 313.07 53.63C313.07 68.3373 324.992 80.26 339.7 80.26Z" fill="#92E3A9"/>
<path opacity="0.4" d="M339.7 80.26C354.407 80.26 366.33 68.3373 366.33 53.63C366.33 38.9227 354.407 27 339.7 27C324.992 27 313.07 38.9227 313.07 53.63C313.07 68.3373 324.992 80.26 339.7 80.26Z" fill="white"/>
<path opacity="0.4" d="M339.7 80.26C354.407 80.26 366.33 68.3373 366.33 53.63C366.33 38.9227 354.407 27 339.7 27C324.992 27 313.07 38.9227 313.07 53.63C313.07 68.3373 324.992 80.26 339.7 80.26Z" fill="white"/>
<path opacity="0.2" d="M316.24 40.9998C315.64 43.9998 317.72 45.2598 322.29 44.9998C333.122 44.3945 343.71 41.5407 353.38 36.6198C355.5 35.1698 355.71 33.5198 354.91 31.7598C367.84 42.0298 368.74 55.7598 363.11 66.3098C361.739 68.3878 359.683 69.9199 357.3 70.6398C350.396 73.3576 343.158 75.1303 335.78 75.9098C328.95 76.9098 324.94 76.4598 323.4 74.6798C311.75 65.6498 310.77 51.7998 316.24 40.9998Z" fill="white"/>
<path opacity="0.2" d="M313.07 53.6298C313.043 58.7555 314.577 63.7679 317.47 67.9998C318.87 69.9998 323.4 70.3998 330.47 69.4098C339.658 68.4632 348.673 66.2558 357.26 62.8498C361.94 61.0098 365.04 58.6598 366.37 55.7098C366.68 50.9836 365.742 46.2588 363.65 42.0098C363.24 45.6898 360.72 48.7398 355.65 51.0098C345.735 54.7221 335.423 57.2692 324.92 58.5998C318.23 59.3698 313.62 58.2698 313.07 53.6298Z" fill="white"/>
<path opacity="0.1" d="M328.99 30.1904C331.53 29.2088 334.164 28.4884 336.85 28.0404C340.38 27.6804 340.99 28.2804 340.6 29.2104C339.551 30.2853 338.309 31.1536 336.94 31.7704C334.81 32.6934 332.55 33.2772 330.24 33.5004C328.63 33.5704 326.92 33.6104 325.95 32.8704C325.47 32.0004 326.91 31.0804 328.99 30.1904Z" fill="black"/>
<path d="M382.71 40.5497C381.38 36.4497 372.63 35.2997 360.42 36.9097C361.511 38.2237 362.456 39.652 363.24 41.1697C367.61 41.3397 370.5 42.3797 371.13 44.3097C372.67 49.0797 359.86 57.4997 342.51 63.1097C325.16 68.7197 309.85 69.4197 308.31 64.6497C307.64 62.6497 309.25 60.1797 313.09 57.2997C313.04 57.2997 313.36 57.0897 313.31 57.1197C313.096 55.4621 313.036 53.7883 313.13 52.1197C301.99 58.0597 295.35 64.2497 296.7 68.4097C298.82 74.9397 319.79 73.9997 343.55 66.2997C367.31 58.5997 384.83 47.0797 382.71 40.5497Z" fill="#92E3A9"/>
<path opacity="0.3" d="M382.71 40.5497C381.38 36.4497 372.63 35.2997 360.42 36.9097C361.511 38.2237 362.456 39.652 363.24 41.1697C367.61 41.3397 370.5 42.3797 371.13 44.3097C372.67 49.0797 359.86 57.4997 342.51 63.1097C325.16 68.7197 309.85 69.4197 308.31 64.6497C307.64 62.6497 309.25 60.1797 313.09 57.2997C313.04 57.2997 313.36 57.0897 313.31 57.1197C313.096 55.4621 313.036 53.7883 313.13 52.1197C301.99 58.0597 295.35 64.2497 296.7 68.4097C298.82 74.9397 319.79 73.9997 343.55 66.2997C367.31 58.5997 384.83 47.0797 382.71 40.5497Z" fill="white"/>
<path d="M83.7529 129.148C98.9872 113.913 98.9872 89.2136 83.7529 73.9792C68.5185 58.7449 43.8188 58.7449 28.5844 73.9792C13.3501 89.2136 13.3501 113.913 28.5844 129.148C43.8188 144.382 68.5185 144.382 83.7529 129.148Z" fill="#92E3A9"/>
<path opacity="0.4" d="M83.7529 129.148C98.9872 113.913 98.9872 89.2136 83.7529 73.9792C68.5185 58.7449 43.8188 58.7449 28.5844 73.9792C13.3501 89.2136 13.3501 113.913 28.5844 129.148C43.8188 144.382 68.5185 144.382 83.7529 129.148Z" fill="white"/>
<path opacity="0.5" d="M84.1696 104.57L83.2796 104.7C83.1647 104.718 83.0472 104.712 82.935 104.68C82.8228 104.649 82.7187 104.595 82.6296 104.52L81.1896 103.31C81.1269 103.261 81.0599 103.217 80.9896 103.18L76.7896 101.37C76.648 101.308 76.5266 101.207 76.4396 101.08L74.0696 97.7296C73.9649 97.5762 73.8194 97.455 73.6496 97.3796L72.2596 96.7396C72.1966 96.7091 72.129 96.6889 72.0596 96.6796L70.5896 96.4596C70.387 96.4237 70.1954 96.3415 70.0296 96.2196L66.9096 93.8596C66.7833 93.7669 66.6352 93.7083 66.4796 93.6896L64.1896 93.3896C64.0402 93.3693 63.8881 93.39 63.7496 93.4496L63.1296 93.7196C63.0253 93.7642 62.9131 93.7871 62.7996 93.7871C62.6862 93.7871 62.5739 93.7642 62.4696 93.7196L59.7396 92.4596C59.5784 92.3803 59.3947 92.3591 59.2196 92.3996L56.7996 92.9396C56.648 92.9776 56.5119 93.0614 56.4096 93.1796L55.4096 94.2796C55.3243 94.374 55.2155 94.444 55.0943 94.4827C54.9731 94.5213 54.8438 94.5272 54.7196 94.4996L52.7196 94.0796L48.5096 92.1996L47.1396 90.0596C47.0379 89.8918 47.0023 89.6922 47.0396 89.4996L47.3396 87.8396L48.3396 85.4596C48.3511 85.4364 48.356 85.4104 48.3536 85.3846C48.3512 85.3588 48.3417 85.3342 48.3262 85.3134C48.3106 85.2927 48.2896 85.2767 48.2655 85.2672C48.2414 85.2577 48.2151 85.2551 48.1896 85.2596L46.4196 85.4696C46.3079 85.4839 46.2011 85.5238 46.1074 85.5863C46.0137 85.6487 45.9358 85.732 45.8796 85.8296L45.3596 86.7296C45.3 86.8302 45.2204 86.9175 45.1258 86.9863C45.0313 87.0551 44.9237 87.1038 44.8096 87.1296L42.3896 87.6696C42.2783 87.6979 42.1604 87.6827 42.06 87.6269C41.9596 87.5711 41.8843 87.4791 41.8496 87.3696L41.5496 86.4596L40.8096 85.0996C40.7416 84.9882 40.7056 84.8602 40.7056 84.7296C40.7056 84.599 40.7416 84.471 40.8096 84.3596L42.0096 82.6096L42.4796 81.3996C42.5388 81.2425 42.6476 81.1091 42.7896 81.0196L44.3796 80.0196C44.5412 79.9205 44.7313 79.8783 44.9196 79.8996L46.4296 80.1096C46.5251 80.1238 46.6225 80.1177 46.7155 80.0919C46.8086 80.0661 46.8951 80.021 46.9696 79.9596L47.5796 79.4796C47.6906 79.398 47.8223 79.3495 47.9596 79.3396L49.6496 79.2196C49.7876 79.2122 49.9252 79.2397 50.0496 79.2996L50.9596 79.7196C51.0472 79.7628 51.1209 79.8298 51.1722 79.9129C51.2235 79.996 51.2503 80.0919 51.2496 80.1896V80.9996C51.2496 81.1269 51.3002 81.249 51.3902 81.339C51.4802 81.429 51.6023 81.4796 51.7296 81.4796H51.9996C52.0859 81.4785 52.171 81.4597 52.2497 81.4244C52.3284 81.389 52.399 81.3379 52.4572 81.2741C52.5153 81.2104 52.5597 81.1354 52.5877 81.0537C52.6156 80.9721 52.6265 80.8856 52.6196 80.7996L52.5396 80.0996L52.3796 78.6796C52.3632 78.5444 52.389 78.4075 52.4534 78.2875C52.5179 78.1676 52.6178 78.0705 52.7396 78.0096L54.3596 77.1996L56.4796 74.8696L57.9196 72.6996L60.5796 71.8696C60.6914 71.8356 60.7895 71.7669 60.8597 71.6734C60.9298 71.5799 60.9683 71.4665 60.9696 71.3496V70.0496C60.9686 69.9345 61.0067 69.8224 61.0775 69.7316C61.1483 69.6408 61.2477 69.5767 61.3596 69.5496L63.1196 69.1196C63.2763 69.0819 63.4145 68.9898 63.5096 68.8596L64.2396 67.7796C64.2653 67.743 64.2822 67.701 64.289 67.6568C64.2958 67.6126 64.2923 67.5675 64.2787 67.5249C64.2652 67.4823 64.242 67.4434 64.2109 67.4113C64.1798 67.3791 64.1417 67.3546 64.0996 67.3396L60.8896 66.1596L58.5396 65.0196C58.438 64.9708 58.3253 64.9498 58.2129 64.9586C58.1005 64.9673 57.9924 65.0057 57.8996 65.0696L54.8996 67.1596C54.7947 67.2303 54.6735 67.2729 54.5474 67.2834C54.4214 67.294 54.2948 67.272 54.1796 67.2196L52.0096 66.2196L50.3796 65.4696C50.3475 65.4556 50.3202 65.4325 50.301 65.4032C50.2818 65.3739 50.2716 65.3396 50.2716 65.3046C50.2716 65.2696 50.2818 65.2353 50.301 65.206C50.3202 65.1767 50.3475 65.1536 50.3796 65.1396L52.0296 64.5896C52.1031 64.5671 52.1712 64.5296 52.2296 64.4796L54.4696 62.5996C48.8811 62.8934 43.4225 64.3945 38.4696 66.9996C36.4814 72.0645 35.0725 77.338 34.2696 82.7196C34.2549 82.8446 34.2698 82.9714 34.3132 83.0895C34.3567 83.2077 34.4274 83.3139 34.5196 83.3996L40.6596 89.2796C40.769 89.3828 40.9099 89.4462 41.0596 89.4596L43.3396 89.7096C43.4539 89.7187 43.5639 89.7566 43.6596 89.8196L52.4596 95.1096C52.5654 95.1696 52.6513 95.2595 52.7064 95.368C52.7615 95.4764 52.7835 95.5987 52.7696 95.7196L51.9196 104.61C51.8811 104.942 51.9588 105.278 52.1396 105.56L56.4396 112.39C56.4962 112.478 56.5672 112.555 56.6496 112.62L59.9496 115.16C60.0289 115.221 60.0902 115.303 60.1271 115.396C60.1641 115.489 60.1753 115.591 60.1596 115.69L58.9796 122.91L56.7296 134.06C56.9496 135.56 58.8996 134.64 61.7296 132.54L64.5396 127.92L67.0096 126.92L73.3296 122.41L77.6796 117.48L80.0196 112.3C80.0602 112.217 80.1105 112.14 80.1696 112.07L82.5496 109.34L84.1396 107.69C84.2841 107.539 84.3662 107.339 84.3696 107.13V104.75C84.3716 104.724 84.3676 104.698 84.3579 104.674C84.3482 104.649 84.3331 104.628 84.3138 104.61C84.2945 104.593 84.2715 104.58 84.2465 104.573C84.2215 104.566 84.1952 104.565 84.1696 104.57Z" fill="white"/>
<path d="M73.5496 70.8403H73.4996C73.5043 70.8205 73.5043 70.8 73.4996 70.7803L73.5496 70.8403Z" fill="white"/>
<path d="M224.08 171.5C227.34 173.22 252.68 201.8 245.92 215.39C240.92 225.39 209.67 230.04 209.67 230.04L205.82 221.51C205.82 221.51 228.7 213.41 230.05 209.86C231.4 206.31 205.69 187.41 205.69 187.41L224.08 171.5Z" fill="#92E3A9"/>
<path opacity="0.3" d="M224.08 171.5C227.34 173.22 252.68 201.8 245.92 215.39C240.92 225.39 209.67 230.04 209.67 230.04L205.82 221.51C205.82 221.51 228.7 213.41 230.05 209.86C231.4 206.31 205.69 187.41 205.69 187.41L224.08 171.5Z" fill="white"/>
<path opacity="0.2" d="M220.6 215.63C219.78 218.95 217.4 221.51 212.54 222.89L215.54 228.96L214.92 229.09L210.18 219.89L220.6 215.63Z" fill="black"/>
<path d="M209.25 218L215.88 230.88L203.11 233.77C202.928 233.808 202.756 233.883 202.604 233.991C202.453 234.099 202.327 234.238 202.232 234.398C202.138 234.558 202.079 234.736 202.057 234.921C202.036 235.106 202.054 235.293 202.11 235.47L203.63 240.16C203.756 240.579 203.741 241.028 203.588 241.438C203.434 241.849 203.15 242.197 202.78 242.43L201.78 243.03C201.478 243.209 201.118 243.266 200.776 243.187C200.433 243.109 200.134 242.903 199.94 242.61L188.94 226C188.87 225.895 188.826 225.776 188.81 225.652C188.794 225.527 188.806 225.4 188.847 225.282C188.887 225.163 188.955 225.055 189.044 224.966C189.133 224.877 189.241 224.81 189.36 224.77L209.25 218Z" fill="#92E3A9"/>
<g opacity="0.2">
<path opacity="0.2" d="M209.25 218L215.88 230.88L203.11 233.77C202.928 233.808 202.756 233.883 202.604 233.991C202.453 234.099 202.327 234.238 202.232 234.398C202.138 234.558 202.079 234.736 202.057 234.921C202.036 235.106 202.054 235.293 202.11 235.47L203.63 240.16C203.756 240.579 203.741 241.028 203.588 241.438C203.434 241.849 203.15 242.197 202.78 242.43L201.78 243.03C201.478 243.209 201.118 243.266 200.776 243.187C200.433 243.109 200.134 242.903 199.94 242.61L188.94 226C188.87 225.895 188.826 225.776 188.81 225.652C188.794 225.527 188.806 225.4 188.847 225.282C188.887 225.163 188.955 225.055 189.044 224.966C189.133 224.877 189.241 224.81 189.36 224.77L209.25 218Z" fill="white"/>
</g>
<path opacity="0.2" d="M197.47 221.999C202.164 223.192 207.035 223.531 211.85 222.999L209.25 217.949L197.47 221.999Z" fill="black"/>
<path opacity="0.2" d="M222.81 201.08L224.91 203C227.05 195.27 223.19 187.87 221.91 178L220.06 178.52C221.821 185.913 222.744 193.481 222.81 201.08Z" fill="black"/>
<path d="M166.63 254.24L148.47 261.21L145.07 234.5L163.01 227.31L166.63 254.24Z" fill="#92E3A9"/>
<path d="M166.63 254.24L148.47 261.21L145.07 234.5L163.01 227.31L166.63 254.24Z" fill="#A6ABAE"/>
<path d="M155.19 227.999C166 205.869 176.84 189.919 187.76 187.799L270.47 163.999C290.31 160.999 308.21 166.859 324.06 182.179C321.13 207.039 309.06 220.089 291.74 226.269L206.2 248.749C198.39 250.689 182.35 244.669 155.19 227.999Z" fill="#92E3A9"/>
<path d="M132.12 230.71L161.25 217C168.87 222 169.68 229.46 167.32 235.34L137.76 245.07C131.41 241.29 130.11 237.13 132.12 230.71Z" fill="#92E3A9"/>
<path d="M111.7 224.11L99.7896 225.18C96.1195 225.509 92.6556 227.022 89.9196 229.49L53.1096 262.77L102.92 267C105.597 267.23 108.29 266.822 110.78 265.81L120.32 261.91C122.908 260.853 125.196 259.174 126.98 257.021C128.765 254.869 129.991 252.309 130.55 249.57L130.93 247.71C131.502 244.873 131.34 241.937 130.46 239.18L129.38 235.81C128.698 233.673 127.6 231.691 126.15 229.98C124.384 227.919 122.151 226.311 119.638 225.29C117.124 224.269 114.402 223.864 111.7 224.11Z" fill="#D0D6D9"/>
<path opacity="0.29" d="M119.13 232.589L113.06 233.139C111.2 233.31 109.446 234.079 108.06 235.329L89.3096 252.279L114.68 254.459C116.042 254.574 117.413 254.365 118.68 253.849L123.54 251.849C124.858 251.31 126.024 250.454 126.933 249.357C127.841 248.26 128.466 246.955 128.75 245.559L128.94 244.609C129.234 243.167 129.155 241.673 128.71 240.269L128.16 238.549C127.814 237.45 127.253 236.43 126.51 235.549C125.606 234.501 124.465 233.685 123.18 233.17C121.896 232.655 120.507 232.456 119.13 232.589Z" fill="white"/>
<path d="M121.47 236.22L117.67 236.56C116.501 236.669 115.4 237.153 114.53 237.94L102.81 248.54L118.67 249.9C119.524 249.97 120.384 249.84 121.18 249.52L124.18 248.28C125.003 247.941 125.731 247.404 126.298 246.717C126.865 246.029 127.253 245.213 127.43 244.34L127.55 243.75C127.73 242.848 127.679 241.916 127.4 241.04L127.06 239.96C126.85 239.284 126.51 238.655 126.06 238.11C125.5 237.452 124.792 236.937 123.994 236.608C123.195 236.28 122.33 236.146 121.47 236.22Z" fill="#F1F3F4"/>
<path d="M155.19 228C166 205.87 176.84 189.92 188.42 187.61L271.07 163.85C290.26 161 308.16 166.9 324.01 182.22C321.08 207.08 309.01 220.13 291.69 226.31L206.15 248.79C198.39 250.69 182.35 244.67 155.19 228Z" fill="#D0D6D9"/>
<path d="M132.12 230.71L161.25 217C159.4 225.05 163.44 231.49 167.32 235.34L137.76 245.07C131.41 241.29 130.11 237.13 132.12 230.71Z" fill="#B8BEC1"/>
<path d="M127.61 275.339L155.44 264.709L160.48 231.159L139.65 239.179L127.61 275.339Z" fill="#92E3A9"/>
<path d="M127.61 275.339L155.44 264.709L160.48 231.159L139.65 239.179L127.61 275.339Z" fill="#D0D6D9"/>
<path d="M103.43 208.789L133.76 199.569L158.51 221.399L134.58 231.249L103.43 208.789Z" fill="#92E3A9"/>
<path d="M103.43 208.789L133.76 199.569L158.51 221.399L134.58 231.249L103.43 208.789Z" fill="#D0D6D9"/>
<path opacity="0.7" d="M257.8 167.67L261.98 166.47C260.534 167.455 259.319 168.74 258.416 170.238C257.514 171.736 256.945 173.412 256.75 175.15C253.08 194.47 257.89 212.15 270.11 227.46C272.11 229.52 275.38 230.03 278.17 229.86L274.59 230.8C270.81 231.05 269.06 229.8 266.87 227.8C254.56 216.01 249.14 192.51 253.4 175.42C254.18 171.38 256.06 168.17 257.8 167.67Z" fill="white"/>
<path opacity="0.7" d="M248.27 170.41L252.27 169.26C249.73 170.36 247.59 174.41 247.04 177.9C243.38 197.22 248.22 214.67 260.4 230.21C262.12 232.12 265.59 232.6 268.4 232.44L264.66 233.39C260.88 233.64 259.23 232.74 257.18 230.57C244.87 218.78 239.44 195.28 243.7 178.19C244.3 174.16 247.08 170.75 248.27 170.41Z" fill="white"/>
<path d="M321.22 180.929C320.45 182.999 320.8 184.579 322.75 185.429L348.56 177.629C352.43 176.039 353.86 175.029 348.1 175.759L321.22 180.929Z" fill="#92E3A9"/>
<path d="M321.22 180.929C320.45 182.999 320.8 184.579 322.75 185.429L348.56 177.629C352.43 176.039 353.86 175.029 348.1 175.759L321.22 180.929Z" fill="#A6ABAE"/>
<path opacity="0.2" d="M164.91 232.57C181.48 238.57 200.12 246.64 208.03 244.26L292.47 221.81C303.6 220.16 313.83 198.51 321.55 184.63C312.55 197.41 303.45 216.24 290.22 218.96L208.03 241C198.47 244.17 180.26 236.59 164.91 232.57Z" fill="black"/>
<path opacity="0.4" d="M261.99 168.559C260.366 169.758 259.255 171.526 258.88 173.509L272.88 169.629C286.07 166.759 309.33 175.459 320.88 182.629C310.88 173.749 286.06 163.009 273.88 165.939L261.99 168.559Z" fill="white"/>
<path d="M321.12 184.02L322.24 185.17L351.68 176.12L321.12 184.02Z" fill="#566C77"/>
<path opacity="0.2" d="M216.54 179.53L215.82 219.41L187.67 219.56C202.34 225.21 216.97 226.9 220.78 221.21C227.37 210.21 227.08 195.07 222.78 177.72L216.54 179.53Z" fill="black"/>
<path opacity="0.2" d="M223.24 179.479L245.56 173.239C244.719 174.333 244.162 175.618 243.94 176.979L223.94 182.659L223.24 179.479Z" fill="#E6E6E6"/>
<path opacity="0.2" d="M198.04 187.68L186.73 191.29C184.09 192.546 181.714 194.294 179.73 196.44L173.61 203.53L177.82 204.45L182.9 198.53C184.444 196.737 186.34 195.28 188.47 194.25L199.26 190.42L198.04 187.68Z" fill="#E0E0E0"/>
<path d="M176.36 134L191.54 145.66L216.01 148.78L231.18 113.7L224.03 103.86L191.54 92.25C183.37 103.87 179.55 118.32 176.36 134Z" fill="#92E3A9"/>
<path d="M176.36 134L191.54 145.66L216.01 148.78L231.18 113.7L224.03 103.86L191.54 92.25C184.47 102.45 179.53 116.65 176.36 134Z" fill="#A6ABAE"/>
<path d="M176.36 134L191.54 145.65L207.25 106.83C202.17 103.92 196.94 99.12 191.54 92.25C185.18 100.59 180.19 114.83 176.36 134Z" fill="#566C77"/>
<path d="M217.88 171.529C219.94 174.529 228.7 211.839 216.32 220.619C207.22 227.069 177.45 216.389 177.45 216.389L178.08 207.049C178.08 207.049 202.08 210.739 204.95 208.249C207.82 205.759 194.79 183.049 194.1 176.949C193.41 170.849 217.88 171.529 217.88 171.529Z" fill="#92E3A9"/>
<path d="M217.88 171.529C219.94 174.529 228.7 211.839 216.32 220.619C207.22 227.069 177.45 216.389 177.45 216.389L178.08 207.049C178.08 207.049 202.08 210.739 204.95 208.249C207.82 205.759 194.79 183.049 194.1 176.949C193.41 170.849 217.88 171.529 217.88 171.529Z" fill="#566C77"/>
<path d="M188.53 206.749L187.61 221.199L175.16 217.129C174.982 217.072 174.795 217.053 174.61 217.074C174.425 217.094 174.246 217.153 174.085 217.248C173.925 217.342 173.786 217.47 173.678 217.622C173.57 217.774 173.496 217.947 173.46 218.129L172.36 222.929C172.252 223.355 172.008 223.733 171.665 224.005C171.322 224.278 170.898 224.431 170.46 224.439H169.3C168.948 224.44 168.61 224.305 168.355 224.063C168.1 223.821 167.948 223.49 167.93 223.139L167.01 203.229C167.003 203.103 167.027 202.977 167.077 202.861C167.128 202.745 167.204 202.643 167.301 202.561C167.398 202.48 167.512 202.422 167.635 202.392C167.758 202.362 167.886 202.361 168.01 202.389L188.53 206.749Z" fill="#92E3A9"/>
<path d="M239.58 114.64C239.58 114.64 244.13 136.91 247.24 141.38C250.35 145.85 266.24 160.85 266.24 160.85L264.74 165.51C264.74 165.51 240.88 150.2 239.24 148.05C237.6 145.9 226.47 125 226.47 125L239.58 114.64Z" fill="#92E3A9"/>
<path d="M247.24 89.7592C247.24 89.7592 245.94 96.0892 241.04 97.4792C236.14 98.8692 241.12 85.2992 241.12 85.2992L245.6 84.1992L247.24 89.7592Z" fill="#263238"/>
<path d="M246.644 105.124C253.596 98.1723 253.596 86.9019 246.644 79.9506C239.693 72.9993 228.423 72.9993 221.471 79.9506C214.52 86.9019 214.52 98.1723 221.471 105.124C228.423 112.075 239.693 112.075 246.644 105.124Z" fill="#263238"/>
<path opacity="0.2" d="M246.644 105.124C253.596 98.1723 253.596 86.9019 246.644 79.9506C239.693 72.9993 228.423 72.9993 221.471 79.9506C214.52 86.9019 214.52 98.1723 221.471 105.124C228.423 112.075 239.693 112.075 246.644 105.124Z" fill="white"/>
<path opacity="0.7" d="M238.47 106.27C242.185 105.519 245.471 103.372 247.65 100.27L246.28 99.46C243.817 102.094 240.797 104.144 237.44 105.46L238.47 106.27Z" fill="white"/>
<path opacity="0.7" d="M248.12 99.3294L246.7 98.6594C247.027 98.2905 247.251 97.8422 247.35 97.3594L248.68 98.0394C248.64 98.5192 248.443 98.9726 248.12 99.3294Z" fill="white"/>
<path d="M220.8 105.74C219.8 109.41 230.36 114.57 234.06 110.9C232.06 109.39 231.54 107.81 231.79 106.27C231.974 105.336 232.345 104.448 232.88 103.66C233.159 103.208 233.466 102.774 233.8 102.36L229.3 93.04C228.37 97.14 226.29 106.4 220.8 105.74Z" fill="white"/>
<path opacity="0.2" d="M229.18 97.3994C227.18 101.969 230.18 105.089 231.79 106.269C231.974 105.335 232.345 104.448 232.88 103.659L229.18 97.3994Z" fill="black"/>
<path d="M227.69 99.1599C228.053 100.66 228.902 101.998 230.105 102.966C231.308 103.933 232.796 104.476 234.34 104.51C236.337 104.602 238.295 103.925 239.81 102.62C240.022 102.443 240.222 102.253 240.41 102.05C243.95 98.2899 247.41 90.7199 243.77 86.0499C242.973 85.0153 241.923 84.2025 240.722 83.6895C239.521 83.1765 238.209 82.9803 236.91 83.1198C235.612 83.2593 234.371 83.7298 233.306 84.4862C232.241 85.2426 231.389 86.2596 230.83 87.4399C228.34 92.4599 226.65 95.2899 227.69 99.1599Z" fill="white"/>
<path d="M237.41 92.9995C237.345 93.0673 237.295 93.1476 237.262 93.2354C237.229 93.3232 237.215 93.4167 237.22 93.5103C237.224 93.6038 237.248 93.6955 237.289 93.7796C237.331 93.8637 237.388 93.9385 237.46 93.9995C237.73 94.1495 238.12 93.9995 238.34 93.5495C238.56 93.0995 238.54 92.7195 238.28 92.5495C238.02 92.3795 237.64 92.6295 237.41 92.9995Z" fill="#263238"/>
<path d="M241.86 95.5894C241.735 95.7302 241.672 95.9144 241.683 96.1018C241.694 96.2892 241.779 96.4645 241.92 96.5894C242.18 96.7294 242.57 96.5294 242.8 96.1394C243.03 95.7494 243 95.2994 242.74 95.1394C242.48 94.9794 242.08 95.2094 241.86 95.5894Z" fill="#263238"/>
<path d="M240.34 95C240.113 96.4735 240.096 97.9717 240.29 99.45C239.907 99.489 239.521 99.4439 239.159 99.3178C238.796 99.1917 238.465 98.9876 238.19 98.72L240.34 95Z" fill="#DE5753"/>
<path d="M236.85 90.7997C236.892 90.8242 236.94 90.8372 236.99 90.8372C237.039 90.8372 237.087 90.8242 237.13 90.7997C237.434 90.6616 237.766 90.5969 238.099 90.6108C238.433 90.6247 238.758 90.7168 239.05 90.8797C239.108 90.9064 239.173 90.9117 239.235 90.8947C239.296 90.8776 239.35 90.8393 239.386 90.7866C239.422 90.7338 239.438 90.67 239.431 90.6065C239.425 90.543 239.396 90.4839 239.35 90.4397C238.985 90.2247 238.573 90.1006 238.151 90.078C237.728 90.0554 237.305 90.1348 236.92 90.3097C236.853 90.3363 236.801 90.3881 236.772 90.4537C236.744 90.5193 236.743 90.5933 236.77 90.6597C236.787 90.7109 236.815 90.7583 236.85 90.7997Z" fill="#263238"/>
<path d="M236.38 100.359C235.766 100.123 235.219 99.7427 234.783 99.2501C234.348 98.7574 234.038 98.1672 233.88 97.5293C233.874 97.4909 233.883 97.4518 233.905 97.4201C233.928 97.3884 233.962 97.3666 234 97.3593C234.035 97.3534 234.072 97.3615 234.102 97.3821C234.132 97.4026 234.152 97.4338 234.16 97.4693C234.316 98.056 234.606 98.5987 235.007 99.0549C235.407 99.5111 235.908 99.8686 236.47 100.099C236.486 100.105 236.502 100.114 236.515 100.125C236.528 100.137 236.539 100.151 236.546 100.167C236.553 100.183 236.558 100.2 236.558 100.218C236.559 100.235 236.556 100.253 236.55 100.269C236.536 100.304 236.51 100.331 236.476 100.346C236.442 100.361 236.404 100.362 236.37 100.349L236.38 100.359Z" fill="#263238"/>
<path d="M244.66 95.1493C244.692 95.1906 244.738 95.219 244.79 95.2293C244.825 95.2334 244.86 95.2304 244.894 95.2205C244.928 95.2105 244.959 95.1938 244.986 95.1714C245.013 95.1489 245.035 95.1212 245.051 95.0899C245.068 95.0586 245.077 95.0244 245.08 94.9893C245.117 94.5671 245.051 94.1423 244.889 93.7506C244.728 93.359 244.474 93.0121 244.15 92.7393C244.122 92.7177 244.091 92.7019 244.057 92.6928C244.024 92.6836 243.989 92.6813 243.954 92.6859C243.92 92.6906 243.886 92.7022 243.856 92.7199C243.826 92.7376 243.8 92.7612 243.78 92.7893C243.74 92.8467 243.724 92.9174 243.735 92.9864C243.746 93.0554 243.784 93.1174 243.84 93.1593C244.086 93.3858 244.277 93.6659 244.399 93.9779C244.52 94.29 244.568 94.6257 244.54 94.9593C244.545 94.9975 244.559 95.0341 244.58 95.0668C244.6 95.0995 244.628 95.1276 244.66 95.1493Z" fill="#263238"/>
<path d="M227.61 90.3994C228.71 85.4594 230.48 81.8494 232.25 81.0294C234.02 80.2094 238.4 86.2694 238.4 86.2694C238.133 86.0376 237.809 85.8808 237.461 85.8149C237.114 85.749 236.755 85.7764 236.422 85.8943C236.088 86.0122 235.792 86.2164 235.564 86.4861C235.335 86.7558 235.182 87.0813 235.12 87.4294C234.89 89.6294 232.38 91.9494 230.38 92.3694C230.38 92.3694 230.75 91.5494 229.98 91.3694C229.21 91.1894 227.27 95.4694 227.57 98.1294C227.57 98.1494 226.47 95.3394 227.61 90.3994Z" fill="#263238"/>
<path d="M226.47 90.2298C226.381 91.6327 226.852 93.0137 227.78 94.0698C229.01 95.4598 230.64 94.5998 231.14 92.8998C231.57 91.3898 231.48 88.8098 229.82 88.0598C229.458 87.8954 229.06 87.8247 228.664 87.8542C228.267 87.8837 227.885 88.0124 227.551 88.2285C227.217 88.4446 226.944 88.7412 226.755 89.0909C226.566 89.4406 226.468 89.8323 226.47 90.2298Z" fill="white"/>
<path d="M230.71 83.4096C230.71 83.4096 234.16 79.4096 240.89 79.9496C249.12 80.6396 248.02 92.0495 246.62 92.5395C245.53 92.7195 246.38 87.7095 245.21 88.1795C244.31 88.8495 244.31 89.3795 243.37 89.2895C242.84 89.2895 242.21 88.1096 241.58 86.8596C240.35 85.5796 237.53 89.6796 235.44 90.5296C233.54 89.9996 231.95 85.9996 230.71 83.4096Z" fill="#263238"/>
<path d="M191.34 151.54C190.76 161 191.97 172.99 194.94 180.11L220.08 178.53L228.91 175.97C227.25 174.26 223.46 165.25 226.04 151.13L191.34 151.54Z" fill="#92E3A9"/>
<path d="M191.34 151.54C190.76 161 191.97 172.99 194.94 180.11L220.08 178.53L228.91 175.97C227.05 173.97 223.61 165.26 226.04 151.13L191.34 151.54Z" fill="#566C77"/>
<path opacity="0.2" d="M220.08 178.53L221.47 173.72L226.38 176.71L220.08 178.53Z" fill="black"/>
<path d="M229.18 93.6093L228.86 95.9492C228.76 96.6731 228.849 97.4105 229.12 98.0892L229.27 98.4593C229.541 99.1397 229.986 99.7375 230.559 100.193C231.133 100.649 231.815 100.948 232.54 101.059L234.05 101.289V101.999L232.05 101.619C231.364 101.486 230.722 101.185 230.182 100.744C229.641 100.303 229.217 99.734 228.95 99.0892L228.6 98.2393C228.286 97.4765 228.203 96.6388 228.36 95.8293L228.81 93.4893L229.18 93.6093Z" fill="#263238"/>
<path opacity="0.2" d="M229.18 93.6093L228.86 95.9492C228.76 96.6731 228.849 97.4105 229.12 98.0892L229.27 98.4593C229.541 99.1397 229.986 99.7375 230.559 100.193C231.133 100.649 231.815 100.948 232.54 101.059L234.05 101.289V101.999L232.05 101.619C231.364 101.486 230.722 101.185 230.182 100.744C229.641 100.303 229.217 99.734 228.95 99.0892L228.6 98.2393C228.286 97.4765 228.203 96.6388 228.36 95.8293L228.81 93.4893L229.18 93.6093Z" fill="white"/>
<path d="M235.2 100.87H234.13C233.809 100.87 233.55 101.13 233.55 101.45V102.17C233.55 102.49 233.809 102.75 234.13 102.75H235.2C235.52 102.75 235.78 102.49 235.78 102.17V101.45C235.78 101.13 235.52 100.87 235.2 100.87Z" fill="#263238"/>
<path d="M229.45 90.4795H228.66C228.312 90.4795 228.03 90.7616 228.03 91.1095V93.2995C228.03 93.6474 228.312 93.9295 228.66 93.9295H229.45C229.798 93.9295 230.08 93.6474 230.08 93.2995V91.1095C230.08 90.7616 229.798 90.4795 229.45 90.4795Z" fill="#263238"/>
<path d="M227.107 125.133L239.255 115.533C239.267 115.589 239.279 115.648 239.292 115.709C239.423 116.328 239.613 117.216 239.851 118.297C240.327 120.457 240.994 123.385 241.758 126.454C242.522 129.522 243.386 132.736 244.254 135.467C245.115 138.175 246.002 140.476 246.829 141.665C247.632 142.819 249.279 144.663 251.269 146.758C253.268 148.862 255.639 151.246 257.91 153.487C260.181 155.728 262.355 157.83 263.961 159.371C264.764 160.141 265.425 160.772 265.886 161.209C266.037 161.353 266.166 161.476 266.272 161.576L264.01 164.406C263.85 164.302 263.641 164.168 263.389 164.006C262.752 163.596 261.839 163.007 260.738 162.293C258.536 160.867 255.584 158.942 252.581 156.952C249.577 154.961 246.525 152.905 244.124 151.216C242.922 150.37 241.887 149.62 241.104 149.016C240.712 148.714 240.387 148.451 240.137 148.234C239.88 148.011 239.726 147.855 239.656 147.765C239.273 147.268 238.29 145.6 237.005 143.321C235.731 141.061 234.185 138.247 232.689 135.497C231.193 132.747 229.749 130.064 228.678 128.068C228.143 127.071 227.701 126.245 227.393 125.668C227.279 125.454 227.183 125.274 227.107 125.133Z" fill="white" stroke="#CED3D6"/>
<path opacity="0.2" d="M231.75 130.409L235.41 141.469L230.82 133.109L231.75 130.409Z" fill="black"/>
<path d="M219.721 105.948L219.73 105.948L234.571 111.093L239.714 115.326C237.075 117.9 234.865 121.641 233.028 125.798C231.091 130.18 229.552 135.065 228.361 139.624C227.169 144.184 226.323 148.428 225.774 151.531C225.5 153.083 225.3 154.35 225.169 155.23C225.112 155.608 225.068 155.915 225.037 156.142L191.681 154.022C192.186 143.48 194.485 133.1 198.482 123.33C200.106 119.364 202.047 115.535 204.286 111.881L204.286 111.881L204.288 111.878C205.383 110.054 206.602 108.309 207.936 106.653C210.121 106.21 213.031 106.031 215.441 105.965C216.673 105.931 217.765 105.928 218.55 105.932C218.942 105.935 219.256 105.939 219.473 105.943C219.581 105.945 219.665 105.947 219.721 105.948Z" fill="white" stroke="#CED3D6"/>
<path opacity="0.2" d="M225.67 155.28L214.67 147.48C212.67 145.56 207.09 132.17 202.91 123.3L226.35 151.54L225.67 155.28Z" fill="black"/>
<path opacity="0.2" d="M214.4 105.5H215.66L237.96 113.24L238.89 114C238.611 114.729 238.058 115.321 237.35 115.65L236.06 116.27C227.88 113.29 220.26 110.43 214.4 105.5Z" fill="#263238"/>
<path d="M216.11 112.64C216.11 112.64 222.32 134.29 225.43 138.76C228.54 143.23 249.56 163.81 249.56 163.81L246.2 167.6C246.2 167.6 218.29 148.89 216.65 146.74C215.01 144.59 203.07 123.93 203.07 123.93C199.87 115.12 211.47 101.38 216.11 112.64Z" fill="#92E3A9"/>
<path d="M248.87 163.834L246.115 166.941C245.913 166.805 245.63 166.615 245.276 166.377C244.51 165.861 243.414 165.122 242.093 164.229C239.452 162.441 235.913 160.036 232.323 157.564C228.733 155.092 225.094 152.554 222.251 150.501C220.83 149.474 219.611 148.571 218.698 147.859C218.241 147.503 217.864 147.198 217.579 146.951C217.284 146.695 217.115 146.525 217.047 146.437C216.658 145.927 215.622 144.262 214.264 142.011C212.916 139.774 211.27 136.992 209.676 134.275C208.081 131.559 206.538 128.91 205.393 126.94C204.821 125.955 204.348 125.14 204.019 124.571L203.637 123.912L203.537 123.739L203.525 123.718C202.788 121.654 202.899 119.275 203.583 117.01C204.271 114.732 205.526 112.612 207.006 111.109C208.497 109.594 210.143 108.775 211.618 108.913C213.048 109.046 214.517 110.102 215.637 112.805L215.647 112.841L215.7 113.023C215.746 113.183 215.815 113.418 215.903 113.719C216.079 114.321 216.334 115.185 216.65 116.236C217.281 118.338 218.156 121.188 219.128 124.178C220.1 127.167 221.171 130.302 222.194 132.972C223.211 135.623 224.202 137.871 225.019 139.045C225.822 140.199 227.747 142.352 230.148 144.902C232.56 147.465 235.482 150.46 238.305 153.313C241.129 156.166 243.855 158.88 245.875 160.88C246.885 161.88 247.719 162.701 248.3 163.273C248.532 163.501 248.723 163.69 248.87 163.834Z" fill="white" stroke="#CED3D6"/>
<path d="M206.04 121.93L208.32 126.61C209.32 122.85 211.12 120.61 213.8 119.99L211.14 114.64C208.553 116.31 206.722 118.927 206.04 121.93Z" fill="#D0D6D9"/>
<path d="M188.003 207.149L187.152 220.524L175.315 216.654L175.313 216.653C175.069 216.575 174.81 216.548 174.555 216.577C174.3 216.605 174.053 216.687 173.832 216.817C173.61 216.947 173.419 217.123 173.27 217.332C173.123 217.54 173.021 217.775 172.971 218.024L171.874 222.812C171.792 223.129 171.61 223.41 171.354 223.614C171.097 223.818 170.782 223.932 170.454 223.939H169.3H169.299C169.076 223.94 168.861 223.854 168.699 223.7C168.537 223.547 168.441 223.337 168.429 223.115C168.429 223.115 168.429 223.114 168.429 223.114L167.509 203.206L167.509 203.205C167.507 203.156 167.516 203.106 167.535 203.061C167.555 203.016 167.585 202.976 167.623 202.944C167.661 202.912 167.705 202.89 167.753 202.878C167.801 202.867 167.851 202.866 167.899 202.877L167.899 202.877L167.906 202.878L188.003 207.149Z" fill="white" stroke="#CED3D6"/>
<path d="M243.03 154.88L234.68 163.34L246.41 168.65L249.11 174.8C249.161 174.915 249.239 175.016 249.338 175.095C249.437 175.173 249.553 175.226 249.677 175.25C249.801 175.274 249.928 175.267 250.049 175.23C250.17 175.194 250.28 175.128 250.37 175.04L256.2 169.3C256.273 169.229 256.331 169.143 256.369 169.048C256.406 168.953 256.423 168.851 256.419 168.749C256.414 168.646 256.388 168.546 256.341 168.455C256.295 168.364 256.229 168.284 256.15 168.22L250.7 163.69L243.03 154.88Z" fill="#92E3A9"/>
<path d="M243.03 154.88L234.68 163.34L246.41 168.65L249.11 174.8C249.161 174.915 249.239 175.016 249.338 175.095C249.437 175.173 249.553 175.226 249.677 175.25C249.801 175.274 249.928 175.267 250.049 175.23C250.17 175.194 250.28 175.128 250.37 175.04L256.2 169.3C256.273 169.229 256.331 169.143 256.369 169.048C256.406 168.953 256.423 168.851 256.419 168.749C256.414 168.646 256.388 168.546 256.341 168.455C256.295 168.364 256.229 168.284 256.15 168.22L250.7 163.69L243.03 154.88Z" fill="#566C77"/>
<path d="M251.39 160.79L259.75 151.54L267.17 160.11L272.26 162.69C272.331 162.727 272.394 162.779 272.445 162.842C272.496 162.905 272.533 162.977 272.555 163.055C272.576 163.133 272.581 163.214 272.57 163.294C272.559 163.374 272.532 163.451 272.49 163.52L272.35 163.76L263.71 165.96L263.09 165.22L251.39 160.79Z" fill="#92E3A9"/>
<path d="M251.39 160.79L259.75 151.54L267.17 160.11L272.26 162.69C272.331 162.727 272.394 162.779 272.445 162.842C272.496 162.905 272.533 162.977 272.555 163.055C272.576 163.133 272.581 163.214 272.57 163.294C272.559 163.374 272.532 163.451 272.49 163.52L272.35 163.76L263.71 165.96L263.09 165.22L251.39 160.79Z" fill="#566C77"/>
<path d="M251.86 92.5393C251.863 89.8753 251.269 87.2445 250.12 84.8408C248.972 82.4371 247.298 80.3218 245.224 78.651C243.149 76.9802 240.725 75.7964 238.132 75.1869C235.538 74.5775 232.841 74.5579 230.24 75.1296C227.638 75.7013 225.197 76.8498 223.098 78.4903C220.999 80.1308 219.295 82.2216 218.112 84.6083C216.929 86.9951 216.296 89.617 216.261 92.2808C216.226 94.9446 216.79 97.5822 217.91 99.9993L217.19 99.4193C215.47 100.419 214.57 102.109 214.63 104.659C221.123 109.536 228.488 113.127 236.33 115.239C237.091 114.586 237.711 113.785 238.151 112.884C238.591 111.983 238.842 111.001 238.89 109.999L238.14 109.839C242.04 108.921 245.516 106.713 248.006 103.574C250.496 100.434 251.854 96.5463 251.86 92.5393ZM236.86 107.349C234.302 107.349 231.802 106.591 229.676 105.17C227.55 103.749 225.893 101.73 224.914 99.3674C223.935 97.0047 223.679 94.4049 224.178 91.8968C224.677 89.3886 225.908 87.0847 227.717 85.2764C229.525 83.4681 231.829 82.2366 234.337 81.7377C236.845 81.2388 239.445 81.4949 241.808 82.4735C244.17 83.4522 246.19 85.1094 247.611 87.2358C249.031 89.3621 249.79 91.862 249.79 94.4193C249.792 97.8424 248.436 101.127 246.02 103.551C243.603 105.975 240.323 107.341 236.9 107.349H236.86Z" fill="#92E3A9"/>
<path d="M251.86 92.5393C251.863 89.8753 251.269 87.2445 250.12 84.8408C248.972 82.4371 247.298 80.3218 245.224 78.651C243.149 76.9802 240.725 75.7964 238.132 75.1869C235.538 74.5775 232.841 74.5579 230.24 75.1296C227.638 75.7013 225.197 76.8498 223.098 78.4903C220.999 80.1308 219.295 82.2216 218.112 84.6083C216.929 86.9951 216.296 89.617 216.261 92.2808C216.226 94.9446 216.79 97.5822 217.91 99.9993L217.19 99.4193C215.47 100.419 214.57 102.109 214.63 104.659C221.123 109.536 228.488 113.127 236.33 115.239C237.091 114.586 237.711 113.785 238.151 112.884C238.591 111.983 238.842 111.001 238.89 109.999L238.14 109.839C242.04 108.921 245.516 106.713 248.006 103.574C250.496 100.434 251.854 96.5463 251.86 92.5393ZM236.86 107.349C234.302 107.349 231.802 106.591 229.676 105.17C227.55 103.749 225.893 101.73 224.914 99.3674C223.935 97.0047 223.679 94.4049 224.178 91.8968C224.677 89.3886 225.908 87.0847 227.717 85.2764C229.525 83.4681 231.829 82.2366 234.337 81.7377C236.845 81.2388 239.445 81.4949 241.808 82.4735C244.17 83.4522 246.19 85.1094 247.611 87.2358C249.031 89.3621 249.79 91.862 249.79 94.4193C249.792 97.8424 248.436 101.127 246.02 103.551C243.603 105.975 240.323 107.341 236.9 107.349H236.86Z" fill="white"/>
<path opacity="0.2" d="M218.65 100.379L224.03 103.859C220.03 100.959 217.74 96.7192 217.3 90.9492C216.826 94.157 217.295 97.4333 218.65 100.379Z" fill="black"/>
<path opacity="0.2" d="M238.47 77.1396C241.157 77.8799 243.637 79.2293 245.718 81.0832C247.799 82.9372 249.425 85.2457 250.47 87.8297C249.624 85.3742 248.288 83.1162 246.543 81.1926C244.799 79.269 242.681 77.7201 240.32 76.6396L238.47 77.1396Z" fill="white"/>
<path opacity="0.2" d="M239.26 76.2197L237.49 76.9197L235.95 76.6397L236.35 75.4297C237.369 75.4544 238.368 75.7254 239.26 76.2197Z" fill="white"/>
<path opacity="0.2" d="M188.42 208.38L187.66 219.51L188.29 219.68L189.14 208.45L188.42 208.38Z" fill="#263238"/>
</svg>
