<svg width="187" height="155" viewBox="0 0 187 155" fill="none" xmlns="http://www.w3.org/2000/svg">
<path d="M79.9975 17.2123C103.285 12.4853 119.454 0.976366 144.568 7.81402C165.579 13.5152 172.967 27.826 173.763 46.6226C175.725 92.9461 129.373 115.959 82.4183 109.948C37.9517 104.251 10.1559 72.0156 10.3536 32.5901C10.4307 17.6948 16.8685 -4.60416 38.9451 0.837204C55.1433 4.82197 60.1778 21.2342 79.9975 17.2123Z" fill="#92E3A9"/>
<path opacity="0.9" d="M79.9975 17.2123C103.285 12.4853 119.454 0.976366 144.568 7.81402C165.579 13.5152 172.967 27.826 173.763 46.6226C175.725 92.9461 129.373 115.959 82.4183 109.948C37.9517 104.251 10.1559 72.0156 10.3536 32.5901C10.4307 17.6948 16.8685 -4.60416 38.9451 0.837204C55.1433 4.82197 60.1778 21.2342 79.9975 17.2123Z" fill="white"/>
<path d="M93.5 155C145.139 155 187 152.649 187 149.749C187 146.849 145.139 144.498 93.5 144.498C41.8614 144.498 0 146.849 0 149.749C0 152.649 41.8614 155 93.5 155Z" fill="#F5F5F5"/>
<path d="M111.684 4.59864L111.629 5.05957L114.159 5.33556L114.214 4.87464L111.684 4.59864Z" fill="#92E3A9"/>
<path d="M100.713 3.40528L100.658 3.86621L108.866 4.76163L108.921 4.3007L100.713 3.40528Z" fill="#92E3A9"/>
<path d="M161.513 11.6741L74.7517 2.20926C73.455 2.0678 72.2846 2.96431 72.1375 4.21168L64.6393 67.8154C64.4922 69.0628 65.4242 70.1887 66.7209 70.3301L153.483 79.795C154.779 79.9364 155.95 79.0399 156.097 77.7926L163.595 14.1888C163.742 12.9414 162.81 11.8156 161.513 11.6741Z" fill="#92E3A9"/>
<path d="M65.9061 67.0651L73.1926 5.23388C73.2184 5.01544 73.2888 4.80406 73.3998 4.61193C73.5109 4.41979 73.6604 4.25071 73.8397 4.11444C74.019 3.97816 74.2246 3.87739 74.4446 3.81793C74.6646 3.75847 74.8947 3.7415 75.1216 3.76801L160.814 13.1106C161.041 13.136 161.26 13.2041 161.46 13.3111C161.659 13.4181 161.835 13.5619 161.976 13.7343C162.118 13.9066 162.223 14.1042 162.285 14.3156C162.347 14.527 162.365 14.748 162.338 14.9662L155.032 76.7742C155.007 76.9929 154.937 77.2046 154.826 77.397C154.715 77.5894 154.566 77.7588 154.386 77.8952C154.207 78.0315 154.001 78.1323 153.781 78.1915C153.561 78.2507 153.33 78.2672 153.103 78.2401L67.4107 68.8928C66.9606 68.8393 66.5505 68.6176 66.269 68.2756C65.9874 67.9336 65.8571 67.4988 65.9061 67.0651Z" fill="#566C77" stroke="#566C77" stroke-linecap="round" stroke-linejoin="round"/>
<path d="M147.989 28.3494L111.88 24.4102L111.678 26.1202L147.788 30.0594L147.989 28.3494Z" fill="#92E3A9"/>
<path d="M153.524 31.7125L115.268 27.5391L115.066 29.2491L153.323 33.4225L153.524 31.7125Z" fill="#92E3A9"/>
<path d="M146.641 33.7234L114.944 30.2656L114.743 31.9757L146.439 35.4335L146.641 33.7234Z" fill="#92E3A9"/>
<path d="M143.014 36.0913L114.624 32.9941L114.422 34.7042L142.813 37.8013L143.014 36.0913Z" fill="#92E3A9"/>
<path d="M133.85 39.5866L110.391 37.0273L110.189 38.7374L133.649 41.2966L133.85 39.5866Z" fill="#92E3A9"/>
<path d="M138.326 48.3661L113.136 45.6182L112.935 47.3282L138.124 50.0761L138.326 48.3661Z" fill="#92E3A9"/>
<path d="M134.329 45.1676L113.457 42.8906L113.255 44.6007L134.128 46.8776L134.329 45.1676Z" fill="#92E3A9"/>
<path d="M136.766 42.6706L113.78 40.1631L113.579 41.8731L136.564 44.3806L136.766 42.6706Z" fill="#92E3A9"/>
<path d="M131.4 60.3922L107.94 57.833L107.738 59.5431L131.198 62.1023L131.4 60.3922Z" fill="#92E3A9"/>
<path d="M135.871 69.1718L110.681 66.4238L110.48 68.1339L135.669 70.8818L135.871 69.1718Z" fill="#92E3A9"/>
<path d="M131.604 65.17L110.808 62.9473L110.611 64.6511L131.407 66.8738L131.604 65.17Z" fill="#92E3A9"/>
<path d="M134.311 63.4762L111.325 60.9688L111.124 62.6788L134.109 65.1863L134.311 63.4762Z" fill="#92E3A9"/>
<path d="M96.2648 9.81857L77.2134 7.74023L77.0118 9.45029L96.0632 11.5286L96.2648 9.81857Z" fill="white"/>
<path d="M99.7118 18.478L79.2612 16.2471L79.0596 17.9571L99.5102 20.1881L99.7118 18.478Z" fill="white"/>
<path d="M96.5299 15.3723L79.582 13.5234L79.3804 15.2335L96.3283 17.0823L96.5299 15.3723Z" fill="white"/>
<path d="M98.5613 12.827L79.8979 10.791L79.6964 12.5011L98.3597 14.5371L98.5613 12.827Z" fill="white"/>
<path d="M137.359 56.5507L112.169 53.8027L111.968 55.5128L137.157 58.2607L137.359 56.5507Z" fill="#92E3A9"/>
<path d="M133.362 53.3512L112.49 51.0742L112.289 52.7843L133.161 55.0612L133.362 53.3512Z" fill="#92E3A9"/>
<path d="M135.799 50.8542L112.813 48.3467L112.612 50.0567L135.597 52.5642L135.799 50.8542Z" fill="#92E3A9"/>
<path d="M84.0775 147.897L80.8899 147.828L80.4463 140.712L83.6338 140.781L84.0775 147.897Z" fill="#FFC3BD"/>
<path d="M80.7739 147.471L84.2556 147.545C84.3183 147.547 84.3785 147.569 84.4266 147.608C84.4747 147.646 84.5079 147.699 84.5209 147.758L85.0899 150.5C85.1004 150.566 85.0957 150.634 85.0762 150.699C85.0568 150.763 85.0229 150.823 84.977 150.874C84.9312 150.925 84.8744 150.965 84.8106 150.993C84.7468 151.02 84.6776 151.034 84.6077 151.033C83.3539 150.987 81.5407 150.88 79.9638 150.843C78.1168 150.806 77.7841 151.117 75.6237 150.899C74.3217 150.769 74.095 149.465 74.6592 149.405C77.1958 149.131 77.8034 148.941 79.9638 147.693C80.2056 147.545 80.4871 147.468 80.7739 147.471Z" fill="#263238"/>
<path opacity="0.2" d="M80.4463 140.717L80.6778 144.381L83.8653 144.451L83.6387 140.786L80.4463 140.717Z" fill="black"/>
<path d="M79.0327 46.8817C77.9718 48.881 76.8531 50.8154 75.6571 52.7452C74.4612 54.6749 73.246 56.5583 71.7993 58.451C71.616 58.6875 71.4135 58.9148 71.2206 59.17C71.1386 59.2767 70.9988 59.4298 70.8734 59.5643C70.748 59.6988 70.6178 59.8473 70.4779 59.9725C69.9368 60.4955 69.3215 60.9421 68.6503 61.2992C67.3982 61.9735 66.0103 62.3816 64.5803 62.496C63.2838 62.6074 61.9775 62.5466 60.6983 62.3151C60.0813 62.2094 59.4711 62.07 58.8706 61.8976C58.261 61.7296 57.6633 61.5235 57.0815 61.2807L57.8531 58.938C58.3353 58.9891 58.8851 59.0447 59.4059 59.0726C59.9267 59.1004 60.4668 59.1004 60.9876 59.0726C61.9874 59.0624 62.9826 58.941 63.9533 58.7107C64.8009 58.5232 65.601 58.1746 66.3066 57.6855C66.613 57.4671 66.8885 57.2114 67.1264 56.9248C67.188 56.8561 67.2444 56.7832 67.2952 56.7068C67.3531 56.6325 67.4013 56.5722 67.4785 56.4563L67.9028 55.83C69.0361 54.0858 70.1307 52.17 71.2158 50.2634L74.4708 44.5391L79.0327 46.8817Z" fill="#FFC3BD"/>
<path d="M81.8926 43.8715C82.3748 46.6548 75.7634 55.0465 75.7634 55.0465L70.917 49.4381C72.2944 47.1622 73.8757 45.0062 75.6429 42.9948C78.1553 40.2857 81.3573 40.8006 81.8926 43.8715Z" fill="white"/>
<path opacity="0.2" d="M80.345 46.2521C78.4161 46.716 75.1658 48.6875 73.5938 52.5192L75.7783 55.052C75.7783 55.052 79.6988 50.093 81.2805 46.5304C81.1736 46.3967 81.0262 46.2982 80.8587 46.2484C80.6912 46.1985 80.5117 46.1998 80.345 46.2521Z" fill="black"/>
<path d="M78.4737 41.2411C78.4737 41.2411 73.3909 47.4757 73.7285 65.4698L90.9008 68.4572C91.4939 65.9429 91.7061 55.7143 96.4947 44.21C94.662 43.5281 92.7854 42.961 90.8767 42.5121C88.4709 41.9517 86.0331 41.5272 83.5757 41.2411C81.8776 41.1136 80.1718 41.1136 78.4737 41.2411Z" fill="white"/>
<path opacity="0.2" d="M92.8587 51.2334C92.1257 52.2308 91.682 54.9445 92.6706 56.8C92.9021 55.6496 93.177 54.4435 93.5049 53.1864L92.8587 51.2334Z" fill="black"/>
<path d="M83.5755 41.2412C83.5755 41.2412 81.5163 45.1332 83.9179 47.1557C88.1181 46.8125 90.8765 42.5169 90.8765 42.5169L83.5755 41.2412Z" fill="#263238"/>
<path d="M52.1631 57.3848L52.2161 59.6903L54.2897 61.133L55.2253 57.9693L52.1631 57.3848Z" fill="#FFC3BD"/>
<path d="M58.919 59.1795L55.2251 57.9688L54.2896 61.1324C54.2896 61.1324 56.4403 62.0324 58.1474 60.8263L58.919 59.1795Z" fill="#FFC3BD"/>
<path d="M91.6385 34.4775C90.7512 36.6578 89.5167 40.7168 90.8766 42.512C90.8766 42.512 89.0055 44.6134 84.8053 44.9567C82.3941 42.9342 83.5756 41.2456 83.5756 41.2456C86.3098 41.0972 86.5895 39.2184 86.469 37.3815L91.6385 34.4775Z" fill="#FFC3BD"/>
<path opacity="0.2" d="M89.5314 35.6611L86.4692 37.3775C86.5056 37.8051 86.5056 38.2349 86.4692 38.6625C87.8291 39.3351 88.9383 38.63 89.5314 37.2151C89.6527 36.7037 89.6527 36.1726 89.5314 35.6611Z" fill="black"/>
<path d="M84.8584 31.9724C85.0561 33.364 89.5168 31.0956 90.2691 30.6178C91.0213 30.14 90.1581 28.4839 88.4655 27.148C86.7729 25.812 84.4003 28.7205 84.8584 31.9724Z" fill="#263238"/>
<path d="M94.0114 32.6133C92.6467 35.4383 92.0005 37.1593 89.8739 38.0686C86.6815 39.4602 83.5036 36.7187 83.9617 33.5596C84.3716 30.716 86.532 26.5735 89.9462 26.5271C90.6999 26.5136 91.4446 26.6858 92.1095 27.0274C92.7745 27.369 93.3374 27.8686 93.7449 28.4786C94.1524 29.0886 94.3908 29.7888 94.4374 30.5126C94.4841 31.2363 94.3374 31.9595 94.0114 32.6133Z" fill="#FFC3BD"/>
<path d="M92.8058 35.2572C91.3591 35.466 92.3814 30.7111 92.6467 29.8854C92.9119 29.0597 95.2073 28.3036 96.5045 30.0014C98.0621 32.075 96.1814 34.7748 92.8058 35.2572Z" fill="#263238"/>
<path d="M92.3718 25.5852C91.0746 25.3347 91.446 24.0126 92.4008 24.0822C91.634 23.1869 87.0962 22.3704 86.8503 25.2651C86.6044 28.1597 92.4538 29.7648 94.0355 29.9689L96.3937 30.6044C99.5716 29.0782 96.0464 26.2949 92.3718 25.5852Z" fill="#263238"/>
<path d="M94.1702 36.0322C93.5738 36.5671 92.7812 36.8524 91.9664 36.8255C90.891 36.7791 90.6836 35.7771 91.2623 34.9699C91.7783 34.237 92.9694 33.3788 93.9194 33.8195C94.1238 33.92 94.2989 34.0677 94.4292 34.2495C94.5594 34.4313 94.6407 34.6413 94.6655 34.8608C94.6904 35.0802 94.6581 35.3022 94.5717 35.5067C94.4852 35.7112 94.3472 35.8918 94.1702 36.0322Z" fill="#FFC3BD"/>
<path d="M74.3746 142.145L71.2449 142.739L69.7114 135.79L72.8411 135.196L74.3746 142.145Z" fill="#FFC3BD"/>
<path d="M71.0474 142.415L74.4664 141.765C74.5288 141.754 74.5934 141.764 74.6495 141.792C74.7055 141.821 74.7498 141.867 74.775 141.923L75.9372 144.479C75.9626 144.541 75.9738 144.607 75.9701 144.674C75.9665 144.74 75.948 144.805 75.916 144.864C75.884 144.923 75.8392 144.975 75.7846 145.016C75.73 145.056 75.6669 145.085 75.5996 145.101C74.3603 145.314 72.5664 145.565 71.0184 145.875C69.2052 146.219 68.6073 146.256 66.4999 146.659C65.2123 146.901 64.5999 145.732 65.1159 145.504C67.4595 144.526 68.4915 144.447 70.3433 142.791C70.5363 142.604 70.7804 142.473 71.0474 142.415Z" fill="#263238"/>
<path opacity="0.2" d="M69.7114 135.79L70.5023 139.371L73.632 138.777L72.8411 135.196L69.7114 135.79Z" fill="black"/>
<path d="M69.8706 143.143C69.6684 143.233 69.4401 143.252 69.2244 143.199C69.1522 143.174 69.0877 143.132 69.0371 143.077C68.9864 143.022 68.9513 142.955 68.9351 142.883C68.9189 142.843 68.9148 142.799 68.9233 142.756C68.9318 142.713 68.9526 142.674 68.9833 142.642C69.2534 142.359 70.4686 142.591 70.6036 142.619C70.619 142.622 70.6331 142.629 70.6442 142.64C70.6553 142.651 70.663 142.664 70.6663 142.679C70.6688 142.693 70.6669 142.708 70.6609 142.721C70.6549 142.734 70.6451 142.745 70.6326 142.753C70.3945 142.91 70.139 143.041 69.8706 143.143ZM69.1859 142.679C69.1535 142.69 69.1239 142.707 69.0991 142.73C69.0991 142.73 69.0653 142.772 69.0991 142.828C69.1091 142.877 69.1321 142.923 69.1658 142.961C69.1996 142.999 69.2431 143.028 69.2919 143.046C69.6919 143.076 70.0888 142.958 70.4011 142.716C69.9962 142.625 69.5765 142.612 69.1666 142.679H69.1859Z" fill="#92E3A9"/>
<path d="M70.599 142.739H70.5604C70.1794 142.684 69.321 142.276 69.2583 141.904C69.2494 141.849 69.2608 141.792 69.2908 141.744C69.3207 141.696 69.3672 141.659 69.4223 141.64C69.4759 141.616 69.5344 141.604 69.5935 141.604C69.6527 141.604 69.7111 141.616 69.7647 141.64C70.2469 141.793 70.6231 142.619 70.6424 142.651C70.6496 142.662 70.6535 142.675 70.6535 142.688C70.6535 142.702 70.6496 142.714 70.6424 142.726C70.6302 142.735 70.6147 142.74 70.599 142.739ZM69.5236 141.751H69.4898C69.403 141.798 69.4078 141.844 69.4127 141.863C69.4464 142.067 70.0251 142.419 70.4254 142.54C70.2951 142.303 70.0106 141.839 69.7165 141.742C69.6529 141.724 69.585 141.727 69.5236 141.751Z" fill="#92E3A9"/>
<path d="M73.7284 65.4697C73.7284 65.4697 66.1043 93.3863 63.9005 102.724C61.6148 112.443 69.316 138.703 69.316 138.703L74.4036 137.738C74.4036 137.738 72.2673 110.963 72.9954 106.714C75.9129 96.4248 85.0175 67.4366 85.0175 67.4366L73.7284 65.4697Z" fill="#92E3A9"/>
<path opacity="0.2" d="M74.6929 88.6084C74.3763 92.496 74.4409 96.4037 74.8858 100.28C77.0655 92.9828 80.0939 83.1948 82.2736 76.2041C80.0746 77.118 75.5079 80.0172 74.6929 88.6084Z" fill="black"/>
<path d="M79.6601 66.5049C79.6601 66.5049 75.6672 94.9503 76.0096 104.144C76.3809 114.206 78.8548 143.468 78.8548 143.468L84.82 143.607C84.82 143.607 84.7283 115.941 85.3022 106.135C85.9002 95.493 90.7514 68.4439 90.7514 68.4439L79.6601 66.5049Z" fill="#92E3A9"/>
<path d="M85.22 143.723L78.7822 143.588L78.2759 141.241L85.4033 141.199L85.22 143.723Z" fill="#566C77" stroke="#566C77" stroke-linecap="round" stroke-linejoin="round"/>
<path d="M75.407 137.674L69.0897 138.87L68.0674 136.681L75.0694 135.479L75.407 137.674Z" fill="#566C77" stroke="#566C77" stroke-linecap="round" stroke-linejoin="round"/>
<path d="M89.3046 31.7692C89.2082 32.0058 89.0008 32.1496 88.8224 32.0893C88.644 32.029 88.6102 31.7877 88.7067 31.5512C88.8031 31.3146 89.0105 31.1754 89.1889 31.2357C89.3673 31.296 89.3963 31.5373 89.3046 31.7692Z" fill="#263238"/>
<path d="M86.5317 30.7303C86.4352 30.9622 86.2279 31.106 86.0495 31.0457C85.871 30.9854 85.8373 30.7442 85.9337 30.5123C86.0302 30.2803 86.2375 30.1319 86.416 30.1922C86.5944 30.2525 86.6281 30.4937 86.5317 30.7303Z" fill="#263238"/>
<path d="M87.1781 31.1055C86.5927 31.7167 85.9225 32.2474 85.1865 32.6827C85.3077 32.8605 85.4674 33.011 85.6547 33.1239C85.8419 33.2368 86.0524 33.3094 86.2715 33.3368L87.1781 31.1055Z" fill="#ED847E"/>
<path d="M86.2279 34.478C86.2175 34.4749 86.2079 34.4697 86.1998 34.4627C86.1916 34.4557 86.1851 34.4472 86.1806 34.4376C86.1762 34.4281 86.1738 34.4177 86.1738 34.4072C86.1738 34.3968 86.1761 34.3864 86.1806 34.3768C86.185 34.3673 86.1915 34.3587 86.1997 34.3518C86.2078 34.3448 86.2174 34.3396 86.2278 34.3364C86.2382 34.3333 86.2491 34.3323 86.26 34.3335C86.2708 34.3347 86.2812 34.3381 86.2906 34.3435C86.5879 34.4758 86.9133 34.5392 87.2408 34.5287C87.5682 34.5183 87.8885 34.4342 88.1761 34.2832C88.1846 34.2771 88.1944 34.2728 88.2047 34.2705C88.2151 34.2682 88.2258 34.2679 88.2363 34.2698C88.2467 34.2717 88.2567 34.2756 88.2655 34.2814C88.2742 34.2871 88.2817 34.2946 88.2874 34.3032C88.293 34.3119 88.2968 34.3216 88.2984 34.3317C88.3 34.3418 88.2994 34.3521 88.2966 34.362C88.2939 34.3719 88.289 34.3811 88.2824 34.3891C88.2758 34.3971 88.2675 34.4037 88.2581 34.4084C87.9506 34.5766 87.6054 34.6707 87.2519 34.6829C86.8984 34.695 86.547 34.6247 86.2279 34.478Z" fill="#263238"/>
<path d="M90.8381 31.2351C90.8183 31.2233 90.8012 31.2078 90.788 31.1895C90.7747 31.1711 90.7655 31.1503 90.761 31.1284C90.736 30.9413 90.6653 30.7627 90.5547 30.607C90.444 30.4514 90.2966 30.3232 90.1244 30.2331C90.0875 30.2169 90.0587 30.1873 90.0443 30.1509C90.0299 30.1144 90.0309 30.0739 90.0472 30.0382C90.0651 30.0024 90.0966 29.9746 90.1353 29.9608C90.174 29.9469 90.2168 29.9481 90.2546 29.964C90.4705 30.0756 90.6553 30.2354 90.7938 30.4299C90.9322 30.6244 91.0202 30.848 91.0503 31.082C91.0537 31.1015 91.0531 31.1215 91.0483 31.1407C91.0436 31.16 91.0349 31.1782 91.0228 31.1942C91.0107 31.2102 90.9953 31.2237 90.9777 31.2339C90.96 31.2441 90.9405 31.2508 90.9201 31.2536C90.8916 31.2544 90.8633 31.248 90.8381 31.2351Z" fill="#263238"/>
<path d="M85.8324 29.1387C85.8119 29.1282 85.7951 29.1121 85.7842 29.0923C85.7728 29.076 85.765 29.0577 85.7613 29.0384C85.7576 29.0191 85.758 28.9994 85.7625 28.9802C85.767 28.9611 85.7756 28.9431 85.7876 28.9273C85.7996 28.9114 85.8149 28.8981 85.8324 28.8882C86.0384 28.7601 86.2731 28.6811 86.5172 28.6577C86.7612 28.6343 87.0075 28.6672 87.2357 28.7537C87.273 28.7708 87.3018 28.8012 87.3162 28.8384C87.3306 28.8756 87.3294 28.9168 87.3129 28.9531C87.3041 28.9709 87.2918 28.9868 87.2766 28.9999C87.2614 29.013 87.2436 29.0231 87.2243 29.0296C87.205 29.0361 87.1846 29.0388 87.1642 29.0376C87.1438 29.0364 87.1239 29.0314 87.1055 29.0227C86.9243 28.9562 86.7293 28.932 86.5364 28.9522C86.3436 28.9723 86.1585 29.0363 85.9964 29.1387C85.9718 29.1535 85.9434 29.1614 85.9144 29.1614C85.8854 29.1614 85.857 29.1535 85.8324 29.1387Z" fill="#263238"/>
<path d="M94.0543 43.2079L93.2538 42.9992C93.2154 42.9885 93.1742 42.9921 93.1385 43.0093C93.1027 43.0265 93.075 43.056 93.0609 43.0919C88.6147 54.3551 87.5586 66.9495 87.5586 66.9495L88.4507 67.1026C89.4622 59.0296 91.3765 51.0852 94.1604 43.4074C94.1686 43.3877 94.1723 43.3665 94.1713 43.3453C94.1703 43.3241 94.1646 43.3033 94.1546 43.2844C94.1445 43.2655 94.1303 43.2489 94.113 43.2357C94.0957 43.2225 94.0757 43.213 94.0543 43.2079Z" fill="#92E3A9"/>
<g opacity="0.99">
<path opacity="0.99" d="M88.5813 67.1266C88.5882 67.0903 88.5876 67.0531 88.5794 67.017C88.5713 66.981 88.5558 66.9469 88.5338 66.9167C88.5118 66.8865 88.4838 66.8608 88.4514 66.841C88.419 66.8213 88.3828 66.808 88.345 66.8019L87.7278 66.6905C87.6584 66.6807 87.5878 66.695 87.5284 66.7308C87.4691 66.7666 87.425 66.8216 87.4041 66.8859C87.3831 66.9502 87.3868 67.0196 87.4143 67.0816C87.4418 67.1436 87.4914 67.1941 87.5541 67.224L87.4191 67.9616C87.4103 68.0091 87.4112 68.0578 87.4219 68.105C87.4326 68.1521 87.4529 68.1968 87.4815 68.2364C87.5102 68.2761 87.5467 68.3099 87.5889 68.3359C87.6312 68.362 87.6784 68.3798 87.7278 68.3883C87.7771 68.3969 87.8278 68.396 87.8768 68.3857C87.9259 68.3754 87.9723 68.3559 88.0135 68.3283C88.0547 68.3007 88.0898 68.2656 88.1169 68.225C88.144 68.1843 88.1625 68.139 88.1714 68.0915L88.3113 67.3539C88.376 67.35 88.4376 67.3255 88.4865 67.2844C88.5353 67.2433 88.5687 67.1878 88.5813 67.1266Z" fill="#263238"/>
</g>
<path d="M80.4267 41H79.5972C79.5638 41.0004 79.5314 41.011 79.5046 41.0301C79.4778 41.0493 79.4579 41.0761 79.4477 41.1067C75.5513 52.4719 75.1655 64.7648 75.1655 64.7648L76.0577 64.9225C77.1089 51.9987 80.0891 42.6561 80.581 41.1716C80.5837 41.1504 80.5817 41.1289 80.5753 41.1084C80.5688 41.088 80.5579 41.0691 80.5434 41.0529C80.5289 41.0367 80.511 41.0237 80.4909 41.0146C80.4708 41.0054 80.4489 41.0005 80.4267 41Z" fill="#92E3A9"/>
<path opacity="0.99" d="M76.1883 64.9734C76.1983 64.8981 76.1778 64.8219 76.1311 64.7607C76.0845 64.6994 76.0152 64.6577 75.9376 64.644L75.3203 64.5327C75.2828 64.5261 75.2443 64.527 75.2072 64.5352C75.17 64.5434 75.135 64.5589 75.1043 64.5806C75.0736 64.6023 75.0479 64.6299 75.0286 64.6615C75.0094 64.6932 74.997 64.7283 74.9924 64.7646C74.9856 64.8277 74.9996 64.8913 75.0325 64.9463C75.0654 65.0012 75.1155 65.0448 75.1757 65.0708L75.0744 65.813C75.0616 65.9116 75.0884 66.0111 75.1493 66.0913C75.2103 66.1715 75.3008 66.2263 75.4023 66.2444C75.4513 66.2537 75.5017 66.2531 75.5505 66.2428C75.5992 66.2324 75.6452 66.2124 75.6855 66.184C75.7258 66.1557 75.7596 66.1197 75.7847 66.0782C75.8099 66.0367 75.8258 65.9906 75.8315 65.9429L75.9328 65.2007C75.9964 65.1979 76.0569 65.1735 76.1037 65.1319C76.1505 65.0904 76.1805 65.0342 76.1883 64.9734Z" fill="#263238"/>
<path d="M79.4476 147.911C79.2313 147.958 79.0048 147.932 78.8062 147.837C78.7419 147.796 78.6886 147.741 78.6509 147.677C78.6131 147.612 78.592 147.54 78.5892 147.466C78.5831 147.424 78.5893 147.38 78.6071 147.341C78.625 147.302 78.6539 147.268 78.6905 147.243C79.0232 147.021 80.1372 147.498 80.2819 147.554C80.2956 147.561 80.3072 147.57 80.3157 147.583C80.3242 147.595 80.3291 147.609 80.3301 147.624C80.3279 147.638 80.3218 147.652 80.3125 147.663C80.3032 147.674 80.291 147.683 80.2771 147.689C80.0108 147.794 79.7323 147.869 79.4476 147.911ZM78.8786 147.318C78.844 147.32 78.8107 147.331 78.7821 147.35C78.7667 147.36 78.7547 147.374 78.7479 147.391C78.741 147.407 78.7395 147.425 78.7436 147.443C78.7446 147.493 78.7583 147.543 78.7835 147.587C78.8087 147.632 78.8446 147.67 78.8882 147.698C79.271 147.81 79.6841 147.775 80.0408 147.601C79.6758 147.435 79.2812 147.339 78.8786 147.318Z" fill="#92E3A9"/>
<path d="M80.2626 147.693H80.2241C79.8624 147.559 79.1198 146.965 79.139 146.608C79.1436 146.552 79.1675 146.499 79.2068 146.458C79.2462 146.417 79.2987 146.39 79.356 146.381C79.414 146.367 79.4744 146.364 79.5333 146.374C79.5922 146.384 79.6484 146.405 79.6984 146.436C80.1131 146.682 80.3205 147.568 80.3253 147.605C80.3288 147.618 80.3284 147.632 80.3242 147.646C80.3199 147.659 80.312 147.67 80.3012 147.679C80.2961 147.684 80.29 147.688 80.2834 147.69C80.2768 147.692 80.2697 147.694 80.2626 147.693ZM79.4332 146.52H79.3946C79.2982 146.548 79.2982 146.594 79.2934 146.612C79.2934 146.821 79.7756 147.28 80.1373 147.48C80.0622 147.128 79.881 146.805 79.6165 146.552C79.5616 146.52 79.4964 146.508 79.4332 146.52Z" fill="#92E3A9"/>
<path d="M81.666 76.2513L84.3617 78.0837L86.3822 76.6503L83.7975 73.6211L81.666 76.2513Z" fill="#FFC3BD"/>
<path d="M87.6118 73.0684L83.7974 73.6204L86.3821 76.6496C86.3821 76.6496 89.0296 76.028 88.8849 73.9869L87.6118 73.0684Z" fill="#FFC3BD"/>
<path d="M98.8479 49.0117C98.9926 51.4332 99.0697 53.8454 99.0842 56.2762C99.0842 57.4869 99.0842 58.7023 99.0842 59.9269C99.0842 60.5346 99.0601 61.1469 99.0263 61.7825L98.9781 62.7102L98.954 63.1741C98.954 63.3921 98.9058 63.638 98.872 63.8699C98.7271 64.6797 98.4504 65.4625 98.0522 66.1894C97.7062 66.8176 97.3129 67.4207 96.8756 67.9939C96.0603 69.0419 95.1554 70.0226 94.1702 70.9256C92.2835 72.6588 90.2204 74.2051 88.0121 75.5413L86.4497 73.593C87.2888 72.7765 88.1664 71.9276 88.9766 71.0555C89.7867 70.1834 90.5921 69.3159 91.3299 68.4253C92.0526 67.5679 92.7116 66.6626 93.3022 65.7162C93.5617 65.2887 93.789 64.8437 93.9822 64.3849C94.1388 64.0266 94.2411 63.6485 94.286 63.2623C94.2811 63.1928 94.2811 63.123 94.286 63.0535V62.6267L94.2619 61.7546L94.1847 59.9872L93.9822 56.3968C93.8568 54.0124 93.7555 51.6095 93.688 49.2205L98.8479 49.0117Z" fill="#FFC3BD"/>
<path d="M96.4947 44.2098C100.618 45.685 100.584 56.294 100.584 56.294L93.6062 57.5279C93.6062 57.5279 91.9183 52.7082 92.7526 48.9136C93.5483 45.2907 93.3602 43.0826 96.4947 44.2098Z" fill="white"/>
<path d="M43.2712 57.8566L24.5799 51.121L21.2959 32.1853L36.7273 19.9805L55.4042 26.7068L58.6882 45.6472L43.2712 57.8566ZM25.3659 50.4994L43.1024 56.8871L57.7189 45.29L54.6037 27.3238L36.8672 20.9361L22.2507 32.5332L25.3659 50.4994Z" fill="#92E3A9"/>
<path d="M39.2243 22.1434C40.1855 20.8487 39.8735 19.0496 38.5275 18.125C37.1816 17.2004 35.3113 17.5005 34.3501 18.7953C33.389 20.09 33.701 21.8892 35.047 22.8137C36.3929 23.7383 38.2632 23.4382 39.2243 22.1434Z" fill="#92E3A9"/>
<path d="M45.6189 59.0458C46.58 57.751 46.268 55.9519 44.9221 55.0273C43.5761 54.1028 41.7058 54.4029 40.7447 55.6976C39.7835 56.9924 40.0955 58.7915 41.4415 59.7161C42.7875 60.6406 44.6577 60.3405 45.6189 59.0458Z" fill="#92E3A9"/>
<path d="M53.258 29.3694C52.7759 29.0382 52.4068 28.5769 52.1974 28.0439C51.9879 27.5108 51.9475 26.93 52.0812 26.3749C52.215 25.8197 52.5169 25.3152 52.9487 24.9252C53.3806 24.5351 53.923 24.277 54.5074 24.1836C55.0917 24.0901 55.6918 24.1654 56.2316 24.4001C56.7715 24.6347 57.2268 25.0181 57.5401 25.5017C57.8534 25.9853 58.0106 26.5475 57.9917 27.117C57.9728 27.6866 57.7788 28.238 57.4341 28.7014C56.9722 29.3225 56.2729 29.7417 55.4898 29.867C54.7067 29.9922 53.904 29.8133 53.258 29.3694Z" fill="#92E3A9"/>
<path d="M20.0273 34.6727C19.545 34.342 19.1755 33.8811 18.9655 33.3483C18.7555 32.8155 18.7145 32.2347 18.8476 31.6795C18.9808 31.1243 19.2821 30.6195 19.7135 30.2291C20.1448 29.8386 20.6869 29.5799 21.2711 29.4858C21.8553 29.3917 22.4554 29.4664 22.9955 29.7004C23.5356 29.9344 23.9914 30.3173 24.3053 30.8005C24.6192 31.2837 24.777 31.8456 24.7589 32.4151C24.7408 32.9847 24.5475 33.5362 24.2035 34.0001C23.7415 34.6209 23.0426 35.0402 22.2599 35.1663C21.4771 35.2924 20.6743 35.1149 20.0273 34.6727Z" fill="#92E3A9"/>
<path d="M56.4602 47.8561C55.9785 47.5249 55.6098 47.0638 55.4004 46.531C55.1911 45.9983 55.1507 45.4178 55.2842 44.863C55.4177 44.3081 55.7192 43.8038 56.1505 43.4137C56.5819 43.0236 57.1238 42.7652 57.7077 42.6713C58.2917 42.5774 58.8914 42.652 59.4313 42.8859C59.9711 43.1197 60.4268 43.5022 60.7407 43.9851C61.0547 44.468 61.2127 45.0295 61.195 45.5988C61.1773 46.1681 60.9845 46.7195 60.6411 47.1835C60.4128 47.492 60.1234 47.7542 59.7896 47.955C59.4557 48.1558 59.084 48.2914 58.6957 48.3538C58.3073 48.4163 57.91 48.4045 57.5264 48.3191C57.1428 48.2337 56.7805 48.0764 56.4602 47.8561Z" fill="#92E3A9"/>
<path d="M23.2341 53.1487C22.752 52.8175 22.3829 52.3562 22.1734 51.8232C21.964 51.2901 21.9236 50.7093 22.0573 50.1542C22.191 49.599 22.4929 49.0945 22.9248 48.7045C23.3567 48.3144 23.8991 48.0563 24.4834 47.9628C25.0678 47.8694 25.6678 47.9447 26.2077 48.1794C26.7475 48.414 27.2029 48.7974 27.5162 49.281C27.8295 49.7646 27.9867 50.3268 27.9678 50.8963C27.9489 51.4659 27.7549 52.0173 27.4102 52.4807C27.1819 52.7887 26.8927 53.0504 26.5591 53.2507C26.2255 53.451 25.8541 53.5861 25.4662 53.6481C25.0783 53.7102 24.6814 53.698 24.2984 53.6123C23.9154 53.5266 23.5537 53.3691 23.2341 53.1487Z" fill="#92E3A9"/>
<path d="M31.7668 46.6534C32.1597 46.5868 32.4835 46.6477 32.7385 46.8362C32.9924 47.019 33.15 47.2775 33.2112 47.6118C33.2714 47.9403 33.2147 48.2322 33.0411 48.4874C32.8665 48.7369 32.5828 48.895 32.1899 48.9616C31.8144 49.0253 31.4974 48.9692 31.2388 48.7931C30.9802 48.6171 30.8202 48.362 30.7589 48.0277C30.6977 47.6934 30.7538 47.3987 30.9274 47.1434C31.1 46.8824 31.3798 46.719 31.7668 46.6534ZM38.0562 47.8685L35.9506 48.2257L33.5165 34.9469L35.6222 34.5898L38.0562 47.8685ZM39.0895 42.7818C38.9215 41.8654 38.9524 41.0104 39.1822 40.2167C39.4109 39.4173 39.8186 38.7657 40.4053 38.2621C40.991 37.7527 41.7113 37.4255 42.5663 37.2805C43.8314 37.0659 44.9313 37.2983 45.8659 37.9777C46.8063 38.6561 47.4313 39.6613 47.741 40.9934L47.84 41.4847C48.009 42.4068 47.981 43.2614 47.756 44.0483C47.5367 44.8343 47.1313 45.4824 46.5399 45.9928C45.9542 46.5022 45.2281 46.8303 44.3616 46.9773C43.0387 47.2017 41.8983 46.9435 40.9406 46.2027C39.9875 45.4551 39.3768 44.3494 39.1085 42.8855L39.0895 42.7818ZM41.2284 42.6062C41.4048 43.5686 41.7425 44.2898 42.2415 44.7697C42.7394 45.2439 43.3436 45.4207 44.0542 45.3002C44.7647 45.1796 45.2657 44.8094 45.5571 44.1895C45.8543 43.5686 45.9052 42.7251 45.7097 41.6589C45.5365 40.7137 45.1941 39.9992 44.6825 39.5155C44.1767 39.0308 43.5743 38.8477 42.8753 38.9663C42.1879 39.0829 41.6921 39.4493 41.3881 40.0654C41.083 40.6757 41.0298 41.5226 41.2284 42.6062ZM33.4077 65.0614C33.1415 63.609 33.27 62.3928 33.7932 61.4127C34.3211 60.4258 35.1512 59.8363 36.2835 59.6443C37.3522 59.463 38.2609 59.6922 39.0095 60.3318L38.9321 59.3733L40.8298 59.0514L42.4921 68.1201C42.7171 69.3476 42.5104 70.3811 41.872 71.2203C41.2394 72.0585 40.2732 72.5879 38.9734 72.8083C38.286 72.9249 37.5866 72.895 36.8752 72.7185C36.1706 72.5469 35.6057 72.2594 35.1803 71.8561L35.9455 70.4249C36.733 71.0817 37.6004 71.3297 38.5479 71.1691C39.2469 71.0505 39.7637 70.7667 40.0983 70.3177C40.4341 69.8745 40.5348 69.287 40.4007 68.555L40.285 67.9239C39.802 68.7011 39.0551 69.1755 38.0441 69.3469C36.9465 69.5331 35.9684 69.2504 35.1099 68.4986C34.2572 67.746 33.6898 66.6002 33.4077 65.0614ZM35.538 64.8873C35.7102 65.8267 36.0366 66.5349 36.5171 67.012C37.0024 67.4824 37.5859 67.6597 38.2676 67.5441C39.1168 67.4001 39.6799 66.9302 39.957 66.1344L39.2027 62.0194C38.6741 61.3781 37.9853 61.1295 37.1361 61.2735C36.4428 61.3911 35.9529 61.7565 35.6662 62.3696C35.3853 62.9818 35.3425 63.821 35.538 64.8873Z" fill="#566C77"/>
</svg>
