<svg width="204" height="185" viewBox="0 0 204 185" fill="none" xmlns="http://www.w3.org/2000/svg">
<path d="M154.04 52.5467C151.871 70.8867 165.013 99.0202 142.355 108.934C123.349 117.245 107.472 105.219 92.0142 121.851C80.7482 133.971 61.2187 153.569 46.4786 133.264C34.9506 117.381 34.3532 93.6807 39.9233 75.697C44.2987 61.549 58.4834 32.5299 76.9649 30.109C97.731 27.3737 110.889 54.6112 122.291 27.1222C129.15 10.5848 143.623 -8.96569 166.202 4.48015C175.11 9.78303 172.548 16.3645 167.827 23.2132C160.863 33.3106 155.528 39.9392 154.04 52.5467Z" fill="#92E3A9"/>
<path opacity="0.9" d="M154.04 52.5467C151.871 70.8867 165.013 99.0202 142.355 108.934C123.349 117.245 107.472 105.219 92.0142 121.851C80.7482 133.971 61.2187 153.569 46.4786 133.264C34.9506 117.381 34.3532 93.6807 39.9233 75.697C44.2987 61.549 58.4834 32.5299 76.9649 30.109C97.731 27.3737 110.889 54.6112 122.291 27.1222C129.15 10.5848 143.623 -8.96569 166.202 4.48015C175.11 9.78303 172.548 16.3645 167.827 23.2132C160.863 33.3106 155.528 39.9392 154.04 52.5467Z" fill="white"/>
<path d="M101.598 184.757C157.71 184.757 203.197 182.101 203.197 178.825C203.197 175.549 157.71 172.894 101.598 172.894C45.4871 172.894 0 175.549 0 178.825C0 182.101 45.4871 184.757 101.598 184.757Z" fill="#F5F5F5"/>
<path d="M22.513 53.4624L21.9893 53.4795L22.2172 60.4607L22.7409 60.4436L22.513 53.4624Z" fill="#92E3A9"/>
<path d="M22.3167 47.437L21.793 47.4541L21.9014 50.7745L22.4251 50.7574L22.3167 47.437Z" fill="#92E3A9"/>
<path d="M29.3915 97.9361H129.402C129.937 97.9386 130.466 97.8329 130.959 97.6254C131.452 97.4178 131.897 97.1126 132.269 96.7283C132.64 96.344 132.93 95.8884 133.121 95.3891C133.312 94.8897 133.4 94.3569 133.379 93.8227L131.152 25.5822C131.108 24.4828 130.643 23.4426 129.852 22.6769C129.062 21.9112 128.008 21.4787 126.908 21.4688H26.8972C26.3624 21.4663 25.8326 21.572 25.3397 21.7795C24.8468 21.987 24.4009 22.2921 24.0289 22.6763C23.6569 23.0606 23.3664 23.5161 23.175 24.0154C22.9835 24.5148 22.895 25.0477 22.9148 25.5822L25.1418 93.8122C25.1849 94.9139 25.6502 95.9568 26.4414 96.7246C27.2326 97.4923 28.289 97.9262 29.3915 97.9361Z" fill="#92E3A9"/>
<path d="M29.7111 97.9361H129.722C130.257 97.9386 130.786 97.8329 131.279 97.6254C131.772 97.4179 132.218 97.1128 132.59 96.7286C132.962 96.3444 133.253 95.8889 133.444 95.3895C133.635 94.8901 133.724 94.3572 133.704 93.8227L131.467 25.5822C131.421 24.4824 130.955 23.4421 130.164 22.6766C129.373 21.911 128.318 21.4786 127.217 21.4688H27.2169C26.6823 21.4663 26.1527 21.572 25.6601 21.7796C25.1675 21.9871 24.7219 22.2923 24.3503 22.6766C23.9787 23.0609 23.6888 23.5165 23.4979 24.0158C23.307 24.5152 23.2192 25.048 23.2397 25.5822L25.4667 93.8122C25.5085 94.9134 25.9727 95.9563 26.7631 96.7242C27.5534 97.4921 28.6092 97.9261 29.7111 97.9361Z" fill="#92E3A9"/>
<path opacity="0.5" d="M29.7111 97.9361H129.722C130.257 97.9386 130.786 97.8329 131.279 97.6254C131.772 97.4179 132.218 97.1128 132.59 96.7286C132.962 96.3444 133.253 95.8889 133.444 95.3895C133.635 94.8901 133.724 94.3572 133.704 93.8227L131.467 25.5822C131.421 24.4824 130.955 23.4421 130.164 22.6766C129.373 21.911 128.318 21.4786 127.217 21.4688H27.2169C26.6823 21.4663 26.1527 21.572 25.6601 21.7796C25.1675 21.9871 24.7219 22.2923 24.3503 22.6766C23.9787 23.0609 23.6888 23.5165 23.4979 24.0158C23.307 24.5152 23.2192 25.048 23.2397 25.5822L25.4667 93.8122C25.5085 94.9134 25.9727 95.9563 26.7631 96.7242C27.5534 97.4921 28.6092 97.9261 29.7111 97.9361Z" fill="white"/>
<path opacity="0.5" d="M126.976 23.5234H26.9604H26.625C24.0626 23.733 24.4294 27.6211 27.0128 27.6211H127.196C129.774 27.6211 129.89 23.733 127.312 23.5234C127.202 23.5287 127.086 23.5234 126.976 23.5234Z" fill="#92E3A9"/>
<path d="M29.4858 25.5819C29.49 25.704 29.4695 25.8257 29.4255 25.9397C29.3816 26.0537 29.315 26.1576 29.2298 26.2452C29.1447 26.3328 29.0427 26.4023 28.93 26.4495C28.8173 26.4967 28.6962 26.5206 28.574 26.5199C28.3221 26.5187 28.0804 26.4207 27.8989 26.246C27.7174 26.0714 27.6101 25.8335 27.5994 25.5819C27.5944 25.4594 27.6144 25.3371 27.658 25.2225C27.7017 25.1079 27.7681 25.0033 27.8534 24.9151C27.9386 24.827 28.0409 24.757 28.1539 24.7095C28.267 24.662 28.3885 24.6379 28.5111 24.6387C28.7643 24.6386 29.0075 24.7369 29.1894 24.913C29.3713 25.089 29.4776 25.3289 29.4858 25.5819Z" fill="#FAFAFA"/>
<path d="M32.6928 25.5819C32.6978 25.7042 32.6778 25.8262 32.6341 25.9405C32.5904 26.0549 32.5239 26.1591 32.4385 26.2469C32.3532 26.3346 32.2509 26.4041 32.1379 26.451C32.0249 26.498 31.9034 26.5214 31.7811 26.5199C31.5296 26.5175 31.2885 26.419 31.1073 26.2446C30.9261 26.0702 30.8184 25.8331 30.8064 25.5819C30.8014 25.4594 30.8214 25.3371 30.8651 25.2225C30.9087 25.1079 30.9752 25.0033 31.0604 24.9151C31.1456 24.827 31.2479 24.757 31.3609 24.7095C31.474 24.662 31.5955 24.6379 31.7182 24.6387C31.9713 24.6386 32.2146 24.7369 32.3965 24.913C32.5784 25.089 32.6846 25.3289 32.6928 25.5819Z" fill="#FAFAFA"/>
<path d="M35.6448 26.2573C36.0039 25.892 35.9888 25.2949 35.6112 24.9236C35.2335 24.5524 34.6362 24.5475 34.2771 24.9128C33.9181 25.2781 33.9331 25.8752 34.3108 26.2465C34.6885 26.6177 35.2857 26.6226 35.6448 26.2573Z" fill="#FAFAFA"/>
<path d="M31.6503 91.1245H127.343C127.537 91.126 127.729 91.0883 127.908 91.0134C128.086 90.9386 128.248 90.8283 128.382 90.6891C128.517 90.55 128.622 90.3849 128.691 90.2039C128.76 90.0229 128.792 89.8298 128.784 89.6363L126.95 33.5107C126.929 33.1138 126.758 32.7397 126.473 32.4636C126.187 32.1875 125.807 32.0299 125.41 32.0225H29.7219C29.5283 32.0209 29.3363 32.0587 29.1576 32.1335C28.979 32.2084 28.8174 32.3187 28.6826 32.4579C28.5479 32.597 28.4428 32.7621 28.3738 32.9431C28.3047 33.124 28.2731 33.3171 28.2809 33.5107L30.1097 89.6206C30.127 90.0202 30.2959 90.3982 30.5821 90.6776C30.8684 90.9571 31.2503 91.1168 31.6503 91.1245Z" fill="white"/>
<g opacity="0.3">
<path opacity="0.3" d="M101.877 84.1818H100.126V83.684H101.363L101.321 82.4474L101.819 82.4316L101.877 84.1818Z" fill="#92E3A9"/>
<path opacity="0.3" d="M97.3437 84.1822H94.5613V83.6582H97.3437V84.1822ZM91.7788 84.1822H89.0226V83.6582H91.805L91.7788 84.1822ZM86.214 84.1822H83.4315V83.6582H86.214V84.1822ZM80.6491 84.1822H77.8666V83.6582H80.6386L80.6491 84.1822ZM75.0894 84.1822H72.3018V83.6582H75.0894V84.1822ZM69.5246 84.1822H66.7421V83.6582H69.5246V84.1822ZM63.9597 84.1822H61.1772V83.6582H63.9597V84.1822Z" fill="#92E3A9"/>
<path opacity="0.3" d="M58.3948 84.1818H56.6603L56.6079 82.4474L57.1005 82.4316L57.1424 83.684H58.3948V84.1818Z" fill="#92E3A9"/>
<path opacity="0.3" d="M56.535 79.6645L56.4459 76.8821H56.9699L57.059 79.6645H56.535ZM56.3568 74.0997L56.2625 71.3172H56.7603L56.8494 74.0997H56.3568ZM56.1734 68.5348L56.0843 65.7523H56.5769L56.6712 68.5348H56.1734ZM55.99 62.9751L55.9009 60.1927H56.3987L56.4878 62.9751H55.99ZM55.8118 57.4102L55.7175 54.6278H56.2153L56.3044 57.4102H55.8118ZM55.6284 51.8401L55.5394 49.0629H56.0319L56.1262 51.8454L55.6284 51.8401ZM55.445 46.2805L55.356 43.498H55.8538L55.9428 46.2805H55.445Z" fill="#92E3A9"/>
<path opacity="0.3" d="M55.2456 40.7107L55.188 38.9658H56.9329V39.4636H55.7015L55.7382 40.695L55.2456 40.7107Z" fill="#92E3A9"/>
<path opacity="0.3" d="M95.8871 39.4636H93.1046V38.9658H95.8871V39.4636ZM90.3222 39.4636H87.5397V38.9658H90.3222V39.4636ZM84.7573 39.4636H81.9749V38.9658H84.7573V39.4636ZM79.1924 39.4636H76.41V38.9658H79.1924V39.4636ZM73.6275 39.4636H70.8451V38.9658H73.6275V39.4636ZM68.0626 39.4636H65.2802V38.9658H68.0626V39.4636ZM62.4978 39.4636H59.7153V38.9658H62.4978V39.4636Z" fill="#92E3A9"/>
<path opacity="0.3" d="M99.9585 40.7107L99.9166 39.4636H98.6694V38.9658H100.399L100.456 40.695L99.9585 40.7107Z" fill="#92E3A9"/>
<path opacity="0.3" d="M101.232 79.6645L101.143 76.8821H101.635L101.73 79.6645H101.232ZM101.075 74.0997L100.986 71.3172H101.483L101.573 74.0997H101.075ZM100.897 68.54L100.802 65.7576H101.3L101.389 68.54H100.897ZM100.713 62.9751L100.624 60.1927H101.117L101.211 62.9751H100.713ZM100.53 57.4102L100.441 54.6278H100.938L101.028 57.4102H100.53ZM100.352 51.8454L100.257 49.0629H100.781L100.87 51.8454H100.352ZM100.168 46.2805L100.079 43.498H100.572L100.666 46.2805H100.168Z" fill="#92E3A9"/>
</g>
<path d="M88.4043 68.6602H70.1115C68.4149 68.6467 66.7886 67.9806 65.5699 66.8C64.3513 65.6195 63.634 64.0151 63.5667 62.3198C63.507 60.7966 64.0164 59.3057 64.9957 58.1375C65.9751 56.9693 67.3541 56.2074 68.8644 56.0003C69.2602 54.4864 70.1475 53.1468 71.3871 52.1918C72.6266 51.2367 74.1482 50.7203 75.713 50.7236C77.001 50.7256 78.2668 51.0593 79.3883 51.6926C80.5099 52.3259 81.4494 53.2374 82.1163 54.3392C82.6915 54.1609 83.2905 54.0708 83.8927 54.072C85.4531 54.0866 86.9541 54.6719 88.1126 55.7174C89.271 56.7628 90.0067 58.1962 90.1807 59.7469C90.9799 60.1286 91.6604 60.7202 92.1495 61.4585C92.6387 62.1968 92.9181 63.0542 92.9579 63.9389C92.9819 64.551 92.8818 65.1616 92.6636 65.7339C92.4453 66.3063 92.1135 66.8285 91.688 67.2691C91.2625 67.7098 90.7523 68.0598 90.1879 68.2979C89.6236 68.5361 89.0169 68.6575 88.4043 68.6549V68.6602ZM75.713 51.9446C74.3534 51.9363 73.0336 52.403 71.9813 53.2639C70.929 54.1249 70.2102 55.3262 69.949 56.6606L69.86 57.1269L69.3884 57.1584C68.1045 57.2368 66.9023 57.815 66.0394 58.7689C65.1766 59.7229 64.7216 60.9768 64.7719 62.2621C64.8258 63.6413 65.4091 64.9468 66.4006 65.907C67.3921 66.8673 68.7155 67.4086 70.0958 67.4183H88.3886C88.8367 67.4222 89.2809 67.335 89.6943 67.162C90.1077 66.9889 90.4816 66.7337 90.7933 66.4117C91.105 66.0897 91.3479 65.7077 91.5075 65.289C91.667 64.8702 91.7397 64.4234 91.7212 63.9756C91.6879 63.2632 91.4476 62.576 91.0297 61.998C90.6118 61.4201 90.0345 60.9765 89.3685 60.7216L88.9912 60.5748V60.1714C88.9245 58.8597 88.3598 57.6229 87.4123 56.7134C86.4648 55.8039 85.206 55.2902 83.8927 55.2772C83.2674 55.2758 82.6479 55.3969 82.0692 55.6335L81.5452 55.8431L81.2884 55.3506C80.7589 54.3285 79.959 53.4714 78.9759 52.8726C77.9928 52.2739 76.8641 51.9565 75.713 51.955V51.9446Z" fill="#92E3A9"/>
<path d="M83.133 62.7288L78.0868 57.8398L73.3604 62.7288H76.1271L76.2948 67.7801H80.5339L80.3662 62.7288H83.133Z" fill="#92E3A9"/>
<path d="M162.906 42.8789C163.388 43.5758 163.776 44.1627 164.174 44.8125C164.572 45.4622 164.95 46.091 165.317 46.746C166.05 48.0455 166.731 49.366 167.355 50.7494C167.997 52.1291 168.564 53.5424 169.053 54.9833C169.575 56.462 169.988 57.9769 170.289 59.5159L170.488 60.7106L170.515 60.8626L170.546 61.0512C170.546 61.2346 170.588 61.3918 170.593 61.5752C170.604 61.7812 170.604 61.9876 170.593 62.1936L170.567 62.5237L170.509 62.8905C170.465 63.1507 170.399 63.4067 170.31 63.6555C170.214 63.9322 170.091 64.199 169.943 64.452C169.649 64.965 169.256 65.4139 168.785 65.7725C168.093 66.2987 167.281 66.6444 166.422 66.7786C165.858 66.871 165.285 66.8991 164.714 66.8624C164.248 66.8407 163.784 66.7864 163.325 66.6999C162.515 66.5441 161.716 66.3394 160.931 66.0869C159.496 65.6061 158.095 65.0283 156.739 64.3577C155.401 63.7125 154.102 62.9881 152.851 62.1883L154.36 58.8452C156.963 59.549 159.6 60.1191 162.262 60.5534C162.85 60.6424 163.443 60.6931 164.038 60.7054C164.418 60.7381 164.801 60.6953 165.165 60.5796C165.196 60.5534 165.076 60.5167 164.73 60.7473C164.443 60.9572 164.224 61.247 164.101 61.5805C164.068 61.6621 164.042 61.7462 164.022 61.832L163.991 61.9997C163.992 62.0293 163.992 62.0591 163.991 62.0888C163.991 62.115 163.991 62.0888 163.991 62.0888V62.0206V61.9106L163.755 61.0303C162.995 58.5707 162.01 56.1868 160.81 53.9091C160.218 52.7249 159.568 51.5563 158.908 50.3983C158.578 49.8167 158.237 49.2455 157.897 48.6743C157.556 48.1032 157.189 47.5058 156.885 47.029L162.906 42.8789Z" fill="#FFB573"/>
<path d="M154.936 59.1289L152.662 56.8652L150.403 61.9009C150.403 61.9009 152.541 63.0904 154.443 62.2258L154.936 59.1289Z" fill="#FFB573"/>
<path d="M149.303 55.0566L147.626 59.3115L150.398 61.9001L152.662 56.8644L149.303 55.0566Z" fill="#FFB573"/>
<path d="M156.975 44.5647L113.348 36.8799L105.663 80.5072L149.291 88.192L156.975 44.5647Z" fill="#92E3A9"/>
<path opacity="0.6" d="M156.975 44.5647L113.348 36.8799L105.663 80.5072L149.291 88.192L156.975 44.5647Z" fill="white"/>
<path d="M154.475 46.3117L115.095 39.375L108.159 78.7552L147.539 85.6919L154.475 46.3117Z" fill="white"/>
<path opacity="0.3" d="M133.63 59.4943C136.97 57.1549 137.781 52.551 135.442 49.2112C133.102 45.8714 128.498 45.0605 125.159 47.3999C121.819 49.7393 121.008 54.3432 123.347 57.6829C125.687 61.0227 130.29 61.8337 133.63 59.4943Z" fill="#92E3A9"/>
<path opacity="0.2" d="M138.624 64.1953L125.424 73.4387L119.357 64.7717L109.395 71.7462L108.159 78.7625L147.537 85.695L148.774 78.6839L138.624 64.1953Z" fill="#92E3A9"/>
<path d="M140.788 27.007C140.788 27.3581 140.62 27.6463 140.39 27.6515C140.159 27.6568 139.971 27.3738 139.965 27.028C139.96 26.6821 140.138 26.3887 140.364 26.3887C140.589 26.3887 140.783 26.6612 140.788 27.007Z" fill="#263238"/>
<path d="M140.652 27.6416C140.256 28.7156 139.717 29.7309 139.048 30.6598C139.29 30.8246 139.565 30.9347 139.854 30.9827C140.142 31.0306 140.438 31.0152 140.72 30.9375L140.652 27.6416Z" fill="#FF5652"/>
<path d="M142.019 25.0477C141.965 25.0585 141.908 25.0472 141.862 25.0163C141.657 24.8608 141.417 24.758 141.163 24.7168C140.909 24.6757 140.649 24.6976 140.405 24.7805C140.355 24.8013 140.298 24.8012 140.247 24.7801C140.197 24.7589 140.156 24.7186 140.136 24.6678C140.115 24.6171 140.115 24.5602 140.136 24.5096C140.157 24.459 140.198 24.4188 140.248 24.398C140.557 24.2953 140.886 24.2674 141.207 24.3166C141.529 24.3658 141.834 24.4907 142.098 24.6809C142.142 24.7117 142.173 24.7586 142.182 24.8116C142.192 24.8646 142.181 24.9194 142.15 24.9639C142.119 25.0076 142.072 25.0376 142.019 25.0477Z" fill="#263238"/>
<path d="M150.891 28.3379C150.671 31.5552 150.922 38.0476 153.38 39.8659C153.38 39.8659 152.777 42.4859 146.945 43.2247C140.537 44.0264 143.482 40.4266 143.482 40.4266C146.877 39.148 146.463 36.5647 145.546 34.2014L150.891 28.3379Z" fill="#FFB573"/>
<path d="M166.778 167.471H166.742C166.664 167.43 166.601 167.366 166.562 167.288C166.522 167.21 166.508 167.122 166.521 167.036C166.523 166.967 166.54 166.899 166.571 166.837C166.601 166.776 166.645 166.722 166.7 166.679C167.192 166.26 168.628 166.443 168.691 166.449C168.71 166.452 168.728 166.461 168.743 166.474C168.757 166.487 168.768 166.503 168.775 166.522C168.78 166.541 168.78 166.561 168.775 166.579C168.769 166.598 168.758 166.614 168.743 166.627C168.408 166.899 167.297 167.649 166.778 167.471ZM168.418 166.611C167.931 166.574 167.124 166.569 166.846 166.815C166.815 166.841 166.789 166.873 166.771 166.909C166.753 166.945 166.743 166.985 166.742 167.025C166.742 167.219 166.815 167.256 166.841 167.271C167.098 167.402 167.889 167.004 168.418 166.611Z" fill="#92E3A9"/>
<path d="M167.952 166.481C167.428 166.308 166.904 166.009 166.825 165.705C166.805 165.631 166.81 165.552 166.841 165.481C166.871 165.411 166.925 165.353 166.993 165.317C167.058 165.273 167.131 165.244 167.207 165.23C167.284 165.216 167.363 165.219 167.439 165.239C168.073 165.37 168.733 166.439 168.764 166.481C168.775 166.496 168.78 166.514 168.78 166.533C168.78 166.552 168.775 166.57 168.764 166.585C168.756 166.602 168.743 166.615 168.728 166.625C168.712 166.634 168.693 166.639 168.675 166.638C168.428 166.619 168.185 166.566 167.952 166.481ZM167.47 165.459H167.397C167.348 165.446 167.296 165.444 167.247 165.453C167.197 165.462 167.15 165.482 167.108 165.511C166.998 165.584 167.014 165.642 167.019 165.668C167.103 165.946 167.921 166.334 168.471 166.433C168.23 166.025 167.885 165.688 167.47 165.459Z" fill="#92E3A9"/>
<path d="M134.961 174.634C134.406 174.634 133.871 174.555 133.688 174.309C133.641 174.243 133.617 174.164 133.617 174.084C133.617 174.003 133.641 173.925 133.688 173.858C133.724 173.8 133.771 173.749 133.827 173.708C133.882 173.668 133.946 173.639 134.013 173.623C134.73 173.424 136.245 174.283 136.308 174.32C136.326 174.331 136.34 174.348 136.349 174.367C136.357 174.387 136.359 174.409 136.355 174.43C136.352 174.45 136.343 174.469 136.329 174.484C136.315 174.499 136.296 174.509 136.276 174.513C135.842 174.59 135.402 174.631 134.961 174.634ZM134.275 173.796C134.208 173.787 134.142 173.787 134.075 173.796C134.034 173.805 133.995 173.823 133.961 173.848C133.926 173.873 133.898 173.905 133.876 173.942C133.803 174.068 133.829 174.131 133.876 174.168C134.075 174.445 135.171 174.451 135.972 174.341C135.448 174.049 134.871 173.863 134.275 173.796Z" fill="#92E3A9"/>
<path d="M136.266 174.508H136.224C135.7 174.278 134.652 173.34 134.746 172.852C134.746 172.737 134.846 172.596 135.129 172.564C135.23 172.554 135.333 172.565 135.43 172.595C135.527 172.626 135.617 172.676 135.695 172.742C136.245 173.193 136.365 174.356 136.365 174.409C136.367 174.426 136.364 174.443 136.357 174.459C136.35 174.475 136.338 174.488 136.323 174.498C136.306 174.509 136.286 174.512 136.266 174.508ZM135.218 172.753H135.134C134.951 172.753 134.94 172.847 134.935 172.868C134.888 173.162 135.59 173.916 136.119 174.215C136.072 173.723 135.875 173.258 135.553 172.884C135.457 172.805 135.337 172.76 135.213 172.758L135.218 172.753Z" fill="#92E3A9"/>
<path d="M141.018 174.409H136.695L136.266 164.4H140.589L141.018 174.409Z" fill="#FFB573"/>
<path d="M173.344 165.28L169.336 166.381L164.206 156.996L168.214 155.896L173.344 165.28Z" fill="#FFB573"/>
<path d="M168.733 165.946L173.061 163.73C173.138 163.692 173.225 163.682 173.309 163.7C173.393 163.718 173.468 163.764 173.522 163.829L176.032 166.858C176.093 166.933 176.135 167.02 176.157 167.113C176.179 167.206 176.18 167.303 176.159 167.397C176.138 167.491 176.097 167.578 176.038 167.654C175.979 167.729 175.904 167.79 175.818 167.833C174.298 168.577 173.517 168.881 171.626 169.84C170.457 170.437 166.978 173.026 165.222 173.508C163.467 173.99 162.786 172.287 163.462 171.936C165.68 170.795 167.386 168.861 168.241 166.517C168.328 166.273 168.504 166.069 168.733 165.946Z" fill="#263238"/>
<path d="M136.706 173.911H141.422C141.507 173.911 141.59 173.941 141.657 173.994C141.723 174.047 141.77 174.121 141.789 174.205L142.643 178.051C142.665 178.144 142.665 178.24 142.643 178.333C142.622 178.426 142.579 178.513 142.519 178.586C142.459 178.66 142.382 178.719 142.296 178.759C142.209 178.799 142.115 178.818 142.019 178.816C140.316 178.79 137.853 178.69 135.731 178.69C133.227 178.69 131.068 178.826 128.133 178.826C126.357 178.826 125.864 177.029 126.608 176.867C129.988 176.128 132.75 176.049 135.674 174.247C135.98 174.042 136.338 173.926 136.706 173.911Z" fill="#263238"/>
<path d="M155.297 47.8736C155.748 49.0316 156.246 50.1634 156.749 51.2272C157.608 53.0664 158.468 54.6698 159.091 55.7755C159.647 56.7763 160.013 57.3475 160.013 57.3475L169.445 52.6629C169.445 52.6629 165.641 41.727 161.669 40.5061C157.608 39.3167 153.259 42.6598 155.297 47.8736Z" fill="#566C77" stroke="#566C77" stroke-linecap="round" stroke-linejoin="round"/>
<path opacity="0.2" d="M159.485 48.9521C158.662 49.5547 158.075 51.1844 157.656 53.097C158.18 54.145 158.704 55.062 159.092 55.7746C159.647 56.7755 160.014 57.3466 160.014 57.3466L161.093 56.8226C161.072 54.1197 160.526 51.4466 159.485 48.9521Z" fill="black"/>
<path d="M135.333 54.8473C135.333 56.3145 135.37 57.9336 135.448 59.7205C135.663 64.5675 136.192 70.6092 137.204 78.1181H160.323C160.485 74.5706 158.253 57.2524 161.68 40.5263C159.122 40.0363 156.535 39.7108 153.935 39.5517C150.661 39.363 147.379 39.363 144.105 39.5517C141.861 39.7826 139.638 40.1837 137.455 40.7517C137.455 40.7517 135.328 43.1568 135.333 54.8473Z" fill="#566C77" stroke="#566C77" stroke-linecap="round" stroke-linejoin="round"/>
<path d="M141.281 47.9834C140.937 48.7027 140.554 49.4024 140.133 50.0794C139.751 50.6977 139.363 51.2951 138.965 51.8715C138.168 53.0243 137.335 54.1352 136.46 55.2198C134.699 57.4216 132.747 59.4643 130.628 61.3244C129.498 62.315 128.287 63.2089 127.007 63.9968L126.483 64.3008L126.347 64.3741L126.158 64.4684L125.776 64.6518C125.284 64.884 124.767 65.0597 124.235 65.1758C123.294 65.365 122.33 65.4144 121.374 65.3226C119.779 65.1327 118.229 64.6663 116.794 63.9444C116.13 63.6192 115.488 63.2516 114.871 62.844C114.247 62.4391 113.65 61.9927 113.084 61.5078L114.939 58.3638C117.208 58.9612 119.765 59.4957 121.526 59.2442C121.89 59.2094 122.245 59.11 122.574 58.9507C122.682 58.8977 122.784 58.8327 122.878 58.7568L122.925 58.7097H122.957L123.03 58.652L123.35 58.432C124.247 57.7486 125.098 57.0064 125.896 56.2102C127.607 54.4789 129.198 52.6337 130.659 50.6872C131.409 49.7074 132.132 48.7013 132.829 47.6899C133.169 47.1659 133.51 46.6839 133.824 46.1861C134.139 45.6883 134.453 45.18 134.616 44.8604L141.281 47.9834Z" fill="#FFB573"/>
<path d="M115.861 58.7989L111.874 56.9072L111.512 62.2573C111.512 62.2573 114.614 62.7813 116.254 61.5813L115.861 58.7989Z" fill="#FFB573"/>
<path d="M106.849 57.819L108.384 61.8957L111.512 62.2573L111.874 56.9072L106.849 57.819Z" fill="#FFB573"/>
<path d="M144.137 45.1488C144 49.2832 135.491 58.799 135.491 58.799L126.504 52.9407C126.504 52.9407 129.37 47.5959 133.038 43.734C138.64 37.9176 144.299 40.1918 144.137 45.1488Z" fill="#566C77" stroke="#566C77" stroke-linecap="round" stroke-linejoin="round"/>
<path opacity="0.2" d="M136.266 164.4L136.486 169.562H140.814L140.594 164.4H136.266Z" fill="black"/>
<path opacity="0.2" d="M168.214 155.896L164.206 157.001L166.852 161.838L170.86 160.732L168.214 155.896Z" fill="black"/>
<path d="M152.426 26.0278C152.253 30.3141 152.374 32.8398 150.257 35.0773C147.071 38.4466 141.747 36.5969 140.636 32.3473C139.635 28.5168 140.086 22.1502 144.241 20.3581C145.155 19.9578 146.157 19.7982 147.15 19.8944C148.144 19.9907 149.096 20.3395 149.916 20.9079C150.737 21.4762 151.398 22.2451 151.837 23.1413C152.277 24.0375 152.479 25.0312 152.426 26.0278Z" fill="#FFB573"/>
<path d="M143.869 28.0711C142.323 26.9707 140.809 24.7018 140.93 23.0145C139.499 22.9569 138.54 20.5989 139.326 18.8801C139.819 19.9858 141.522 19.1736 142.187 18.2985C141.831 17.4549 141.889 16.0558 144.336 15.0654C144.131 15.7781 144.236 16.978 146.694 16.1134C149.675 15.0654 154.915 15.7676 153.38 19.3151C155.476 19.6976 158.206 24.0311 155.89 26.3105C153.574 28.5899 153.097 32.2736 151.116 32.6509C149.135 33.0282 143.985 33.1591 143.869 28.0711Z" fill="#263238"/>
<path d="M151.986 19.1732C152.819 18.8265 153.745 18.7707 154.614 19.0151C155.483 19.2594 156.245 19.7896 156.775 20.5199C155.268 19.8002 153.648 19.3447 151.986 19.1732Z" fill="#263238"/>
<path d="M144.996 27.8876C144.953 28.8398 144.597 29.7513 143.984 30.4814C143.167 31.435 142.271 30.8796 142.087 29.753C141.925 28.7417 142.155 27.023 143.172 26.4832C144.189 25.9435 145.032 26.74 144.996 27.8876Z" fill="#FFB573"/>
<path d="M145.405 78.1182C145.405 78.1182 143.366 110.831 147.233 122.894C153.354 141.999 164.274 161.518 164.274 161.518L172.081 159.17C172.081 159.17 163.493 138.567 160.669 122.49C158.132 108.033 160.323 89.9448 160.323 78.1339L145.405 78.1182Z" fill="#92E3A9"/>
<path opacity="0.2" d="M145.09 85.4282C147.27 84.7942 148.973 85.0352 149.413 86.974C150.566 92.0411 147.107 105.408 145.384 111.523C144.671 102.72 144.833 92.2402 145.09 85.4282Z" fill="black"/>
<path d="M162.068 159.281C162.036 159.281 164.106 161.697 164.106 161.697L172.637 159.129L171.552 156.247L162.068 159.281Z" fill="#263238"/>
<path d="M137.23 78.1182C137.23 78.1182 130.717 105.717 130.256 118.901C129.732 133.688 134.903 168.561 134.903 168.561H142.239C142.239 168.561 143.141 133.416 143.466 119.949C143.822 105.277 152.436 78.1182 152.436 78.1182H137.23Z" fill="#92E3A9"/>
<path d="M133.468 165.647C133.436 165.647 133.882 168.687 133.882 168.687H142.79L143.031 165.972L133.468 165.647Z" fill="#263238"/>
<path d="M140.437 38.541C141.433 38.1951 148.983 37.2362 154.464 37.5297C157.608 37.6973 159.359 38.0537 160.637 38.6563C161.916 39.2589 159.626 42.3871 158.567 42.7697C158.997 43.9644 156.613 45.4892 155.256 46.2123C154.732 47.3337 149.35 48.3712 146.206 45.9608C143.791 44.1059 137.613 39.5209 140.437 38.541Z" fill="#92E3A9"/>
</svg>
