<svg width="275" height="229" viewBox="0 0 275 229" fill="none" xmlns="http://www.w3.org/2000/svg">
<path d="M208.596 143.424C207.357 115.799 181.212 88.1473 156.781 75.6159C129.73 61.7283 121.247 47.3517 101.361 26.1943C50.0424 -28.5085 -7.82909 10.0834 0.875114 72.069C4.68279 99.1922 14.4237 132.379 29.8956 156.536C51.8811 190.863 67.3856 180.718 101.029 178.469C124.931 176.865 143.676 193.465 166.783 193.413C196.247 193.289 209.763 170.202 208.596 143.424Z" fill="#92E3A9"/>
<path opacity="0.9" d="M208.596 143.424C207.357 115.799 181.212 88.1473 156.781 75.6159C129.73 61.7283 121.247 47.3517 101.361 26.1943C50.0424 -28.5085 -7.82909 10.0834 0.875114 72.069C4.68279 99.1922 14.4237 132.379 29.8956 156.536C51.8811 190.863 67.3856 180.718 101.029 178.469C124.931 176.865 143.676 193.465 166.783 193.413C196.247 193.289 209.763 170.202 208.596 143.424Z" fill="white"/>
<path d="M130.356 228.914C200.174 228.914 256.772 225.61 256.772 221.533C256.772 217.457 200.174 214.153 130.356 214.153C60.5382 214.153 3.9397 217.457 3.9397 221.533C3.9397 225.61 60.5382 228.914 130.356 228.914Z" fill="#F5F5F5"/>
<path d="M165.564 121.706H253.584C258.449 121.665 263.114 119.763 266.621 116.391C270.129 113.02 272.213 108.433 272.446 103.574L274.35 56.2384C274.391 55.4785 274.276 54.7182 274.012 54.0046C273.747 53.2909 273.34 52.639 272.813 52.0891C272.287 51.5392 271.654 51.103 270.953 50.8074C270.252 50.5118 269.497 50.363 268.736 50.3704H174.261C172.689 50.3823 171.18 50.9978 170.048 52.0898C168.916 53.1818 168.247 54.6669 168.178 56.2384L166.268 103.574C166.037 108.433 163.954 113.019 160.447 116.391C156.941 119.763 152.277 121.665 147.412 121.706H165.564Z" fill="#92E3A9"/>
<path opacity="0.7" d="M165.564 121.706H253.584C258.449 121.665 263.114 119.763 266.621 116.391C270.129 113.02 272.213 108.433 272.446 103.574L274.35 56.2384C274.391 55.4785 274.276 54.7182 274.012 54.0046C273.747 53.2909 273.34 52.639 272.813 52.0891C272.287 51.5392 271.654 51.103 270.953 50.8074C270.252 50.5118 269.497 50.363 268.736 50.3704H174.261C172.689 50.3823 171.18 50.9978 170.048 52.0898C168.916 53.1818 168.247 54.6669 168.178 56.2384L166.268 103.574C166.037 108.433 163.954 113.019 160.447 116.391C156.941 119.763 152.277 121.665 147.412 121.706H165.564Z" fill="white"/>
<path opacity="0.6" d="M259.517 71.2671H181.662C181.409 71.2695 181.159 71.2196 180.927 71.1207C180.695 71.0218 180.485 70.8759 180.312 70.6923C180.139 70.5086 180.005 70.2911 179.92 70.0534C179.835 69.8157 179.8 69.563 179.817 69.3111L180.025 64.2451C180.049 63.7307 180.269 63.245 180.64 62.8882C181.011 62.5315 181.506 62.331 182.02 62.3282H259.876C260.124 62.3261 260.371 62.3749 260.6 62.4715C260.829 62.5681 261.036 62.7105 261.209 62.89C261.381 63.0695 261.514 63.2823 261.601 63.5153C261.688 63.7483 261.727 63.9967 261.714 64.2451L261.512 69.3111C261.496 69.8313 261.279 70.325 260.907 70.6893C260.535 71.0537 260.038 71.2607 259.517 71.2671Z" fill="white"/>
<path opacity="0.6" d="M259.654 80.832H180.762C180.58 80.8379 180.398 80.8055 180.229 80.7367C180.06 80.668 179.907 80.5645 179.781 80.433C179.654 80.3015 179.556 80.1448 179.494 79.9732C179.432 79.8016 179.406 79.6188 179.419 79.4367L179.497 77.5198C179.516 77.1455 179.677 76.7925 179.947 76.533C180.217 76.2736 180.577 76.1274 180.951 76.1245H259.843C260.023 76.1241 260.2 76.1606 260.365 76.2317C260.529 76.3029 260.677 76.4072 260.799 76.5381C260.922 76.6691 261.016 76.8238 261.076 76.9927C261.136 77.1616 261.16 77.341 261.147 77.5198L261.076 79.4367C261.056 79.8049 260.9 80.1525 260.637 80.4108C260.373 80.6692 260.023 80.8194 259.654 80.832Z" fill="white"/>
<path opacity="0.6" d="M259.367 87.9908H180.475C180.293 87.9959 180.111 87.9626 179.942 87.8931C179.773 87.8235 179.621 87.7193 179.495 87.5872C179.369 87.455 179.272 87.2979 179.211 87.126C179.149 86.954 179.125 86.7711 179.138 86.589L179.217 84.6721C179.233 84.2985 179.393 83.9454 179.662 83.6858C179.931 83.4262 180.29 83.2798 180.664 83.2769H259.556C259.735 83.2764 259.913 83.3129 260.077 83.3841C260.242 83.4553 260.39 83.5596 260.512 83.6905C260.634 83.8214 260.728 83.9761 260.788 84.145C260.848 84.3139 260.873 84.4934 260.86 84.6721L260.782 86.589C260.767 86.9584 260.613 87.3084 260.351 87.5685C260.088 87.8287 259.737 87.9796 259.367 87.9908Z" fill="white"/>
<path d="M238.686 33.3403C238.168 32.1621 237.532 31.0393 236.789 29.989L237.323 29.6108C238.093 30.6966 238.748 31.859 239.279 33.0795L238.686 33.3403Z" fill="#92E3A9"/>
<path d="M240.26 41.7999L239.789 53.272L240.441 53.2987L240.911 41.8267L240.26 41.7999Z" fill="#92E3A9"/>
<path d="M236.13 103.574L238.621 41.8163C238.736 39.4663 238.371 37.1174 237.546 34.9136C236.722 32.7098 235.457 30.6974 233.828 28.9999C232.198 27.3023 230.24 25.9552 228.072 25.0412C225.904 24.1271 223.572 23.6654 221.219 23.6842H115.093C117.446 23.6644 119.778 24.1256 121.947 25.0393C124.115 25.953 126.074 27.3 127.704 28.9978C129.333 30.6956 130.598 32.7083 131.422 34.9125C132.246 37.1168 132.611 39.4661 132.495 41.8163L130.011 103.574C129.606 113.589 142.177 121.706 152.179 121.706H253.532C251.179 121.726 248.847 121.265 246.678 120.351C244.51 119.437 242.55 118.09 240.921 116.392C239.292 114.695 238.026 112.682 237.202 110.478C236.379 108.273 236.014 105.924 236.13 103.574Z" fill="#92E3A9"/>
<path d="M216.863 162.632H80.5237C79.7611 162.638 79.0051 162.488 78.302 162.193C77.5989 161.898 76.9632 161.462 76.4338 160.913C75.9043 160.364 75.4921 159.713 75.2223 159C74.9525 158.286 74.8307 157.526 74.8644 156.764L78.7112 61.3174C78.7925 59.7425 79.4722 58.258 80.6113 57.1674C81.7504 56.0768 83.263 55.4623 84.84 55.4494H221.18C221.942 55.4433 222.698 55.5926 223.401 55.888C224.105 56.1835 224.74 56.6189 225.27 57.1679C225.799 57.7169 226.211 58.3679 226.481 59.0813C226.751 59.7946 226.873 60.5554 226.839 61.3174L222.999 156.764C222.914 158.339 222.233 159.822 221.093 160.912C219.953 162.003 218.441 162.617 216.863 162.632Z" fill="white"/>
<path d="M216.863 162.958H80.5237C79.7151 162.963 78.9138 162.804 78.1689 162.489C77.4239 162.175 76.7509 161.712 76.1908 161.128C75.6307 160.545 75.1953 159.854 74.9112 159.097C74.6271 158.34 74.5002 157.533 74.5384 156.725L78.3851 61.2786C78.465 59.6154 79.1782 58.0458 80.3784 56.8916C81.5786 55.7375 83.1749 55.0863 84.84 55.0715H221.18C221.989 55.0643 222.791 55.2225 223.537 55.5364C224.283 55.8503 224.956 56.3133 225.517 56.897C226.077 57.4807 226.513 58.1727 226.796 58.9306C227.079 59.6886 227.205 60.4964 227.165 61.3047L223.325 156.751C223.245 158.415 222.531 159.986 221.329 161.14C220.128 162.294 218.53 162.945 216.863 162.958ZM84.84 55.7235C83.3434 55.7384 81.9091 56.3245 80.8304 57.3619C79.7517 58.3994 79.1102 59.8098 79.0371 61.3047L75.1904 156.751C75.1548 157.471 75.2667 158.191 75.5193 158.866C75.7719 159.542 76.1597 160.158 76.6591 160.679C77.1585 161.199 77.7589 161.611 78.4234 161.891C79.088 162.171 79.8027 162.312 80.5237 162.306H216.863C218.361 162.293 219.797 161.707 220.877 160.67C221.957 159.632 222.6 158.221 222.673 156.725L226.513 61.2786C226.549 60.5584 226.437 59.8385 226.184 59.1631C225.932 58.4878 225.544 57.8711 225.044 57.351C224.545 56.8308 223.945 56.4182 223.28 56.1383C222.615 55.8585 221.901 55.7173 221.18 55.7235H84.84Z" fill="#92E3A9"/>
<path d="M217.34 60.633H88.2435C87.1287 60.6417 86.0596 61.077 85.2556 61.8494C84.4517 62.6218 83.9741 63.6727 83.9208 64.7862L80.8042 142.322H218.207L221.33 64.7862C221.356 64.2475 221.273 63.7091 221.084 63.2039C220.895 62.6987 220.605 62.2375 220.231 61.8485C219.857 61.4596 219.408 61.1511 218.911 60.9421C218.414 60.7331 217.879 60.6279 217.34 60.633Z" fill="#92E3A9"/>
<path opacity="0.3" d="M100.319 55.0713L97.2346 131.773C97.2106 132.281 97.2906 132.788 97.4697 133.264C97.6487 133.74 97.923 134.174 98.2758 134.541C98.6287 134.907 99.0525 135.197 99.5215 135.394C99.9905 135.591 100.495 135.69 101.003 135.685H199.273C200.324 135.678 201.333 135.268 202.092 134.541C202.851 133.813 203.303 132.823 203.354 131.773L206.445 55.0713H100.319Z" fill="black"/>
<path d="M203.087 23.6841H115.067C110.202 23.7237 105.537 25.6248 102.03 28.9971C98.523 32.3693 96.4408 36.9565 96.2109 41.8162L92.5336 133.096C92.5106 133.604 92.5912 134.111 92.7706 134.587C92.95 135.062 93.2243 135.496 93.577 135.862C93.9296 136.228 94.3531 136.519 94.8216 136.716C95.2902 136.913 95.7939 137.012 96.3022 137.008H194.598C195.649 137 196.656 136.59 197.415 135.863C198.174 135.135 198.626 134.146 198.679 133.096L202.356 41.8162C202.59 36.9564 204.674 32.3701 208.181 28.9984C211.689 25.6266 216.354 23.7251 221.219 23.6841H203.087Z" fill="#92E3A9"/>
<path opacity="0.7" d="M203.087 23.6841H115.067C110.202 23.7237 105.537 25.6248 102.03 28.9971C98.523 32.3693 96.4408 36.9565 96.2109 41.8162L92.5336 133.096C92.5106 133.604 92.5912 134.111 92.7706 134.587C92.95 135.062 93.2243 135.496 93.577 135.862C93.9296 136.228 94.3531 136.519 94.8216 136.716C95.2902 136.913 95.7939 137.012 96.3022 137.008H194.598C195.649 137 196.656 136.59 197.415 135.863C198.174 135.135 198.626 134.146 198.679 133.096L202.356 41.8162C202.59 36.9564 204.674 32.3701 208.181 28.9984C211.689 25.6266 216.354 23.7251 221.219 23.6841H203.087Z" fill="white"/>
<path d="M223.592 142.648H75.4447C75.3582 142.648 75.2753 142.614 75.2141 142.553C75.153 142.491 75.1187 142.409 75.1187 142.322C75.1187 142.236 75.153 142.153 75.2141 142.092C75.2753 142.03 75.3582 141.996 75.4447 141.996H223.592C223.679 141.996 223.761 142.03 223.823 142.092C223.884 142.153 223.918 142.236 223.918 142.322C223.918 142.409 223.884 142.491 223.823 142.553C223.761 142.614 223.679 142.648 223.592 142.648Z" fill="#92E3A9"/>
<path opacity="0.1" d="M192.811 86.687H102.183C101.897 86.6891 101.612 86.6327 101.348 86.5212C101.083 86.4098 100.844 86.2457 100.645 86.0388C100.447 85.832 100.292 85.5868 100.191 85.3183C100.09 85.0497 100.045 84.7634 100.058 84.4767L101.46 49.7708C101.488 49.1797 101.742 48.6219 102.169 48.212C102.595 47.8021 103.163 47.5713 103.755 47.567H194.383C194.669 47.564 194.954 47.6196 195.218 47.7303C195.482 47.841 195.721 48.0046 195.92 48.2109C196.119 48.4172 196.274 48.6619 196.375 48.9302C196.476 49.1984 196.522 49.4844 196.508 49.7708L195.106 84.4572C195.085 85.0529 194.834 85.6172 194.406 86.0326C193.979 86.4479 193.408 86.6824 192.811 86.687Z" fill="#92E3A9"/>
<path opacity="0.6" d="M151.872 125.807H100.592C100.304 125.809 100.018 125.752 99.7527 125.64C99.4872 125.527 99.2478 125.361 99.0491 125.152C98.8504 124.943 98.6968 124.695 98.5978 124.424C98.4987 124.153 98.4564 123.865 98.4734 123.577L99.7122 93.1678C99.7436 92.5813 99.9968 92.0286 100.421 91.6218C100.844 91.215 101.407 90.9845 101.994 90.9771H153.3C153.587 90.975 153.871 91.0314 154.135 91.1429C154.399 91.2544 154.637 91.4187 154.836 91.6256C155.034 91.8325 155.188 92.0778 155.289 92.3463C155.389 92.6149 155.433 92.9011 155.419 93.1874L154.2 123.577C154.175 124.177 153.918 124.745 153.484 125.16C153.051 125.576 152.473 125.807 151.872 125.807Z" fill="#92E3A9"/>
<path d="M132.312 108.379L122.688 102.693L122.232 114.071L132.312 108.379Z" fill="white"/>
<path d="M191.233 125.807H160.811C160.524 125.809 160.24 125.753 159.975 125.641C159.711 125.53 159.472 125.366 159.273 125.159C159.074 124.952 158.919 124.707 158.818 124.438C158.717 124.17 158.672 123.883 158.685 123.597L159.911 93.1679C159.941 92.5756 160.196 92.017 160.624 91.6063C161.051 91.1955 161.62 90.9635 162.213 90.9576H192.635C192.922 90.9555 193.206 91.0119 193.471 91.1233C193.735 91.2348 193.974 91.3989 194.173 91.6057C194.372 91.8126 194.527 92.0577 194.628 92.3263C194.729 92.5949 194.774 92.8812 194.761 93.1679L193.535 123.577C193.511 124.173 193.259 124.738 192.831 125.153C192.402 125.568 191.83 125.802 191.233 125.807Z" fill="white"/>
<path opacity="0.3" d="M162.709 120.904L163.719 95.8607C163.731 95.596 163.843 95.3457 164.034 95.1614C164.224 94.9771 164.478 94.8727 164.743 94.8696H189.793C189.921 94.8695 190.048 94.8954 190.165 94.9457C190.283 94.996 190.389 95.0698 190.478 95.1625C190.566 95.2552 190.635 95.3648 190.68 95.4848C190.724 95.6049 190.744 95.7327 190.738 95.8607L189.728 120.904C189.717 121.169 189.605 121.42 189.415 121.605C189.224 121.79 188.969 121.894 188.704 121.895H163.654C163.526 121.895 163.399 121.869 163.281 121.819C163.164 121.769 163.057 121.695 162.969 121.602C162.88 121.51 162.812 121.4 162.767 121.28C162.722 121.16 162.702 121.032 162.709 120.904Z" fill="#92E3A9"/>
<path d="M181.466 109.865L180.097 112.056L175.625 103.854L164.338 121.895H188.026L181.466 109.865Z" fill="#92E3A9"/>
<path d="M187.849 100.692C187.816 101.534 187.457 102.33 186.85 102.913C186.242 103.497 185.432 103.822 184.589 103.822C184.184 103.825 183.781 103.745 183.407 103.587C183.033 103.429 182.696 103.197 182.415 102.904C182.134 102.611 181.916 102.263 181.774 101.883C181.632 101.503 181.57 101.097 181.59 100.692C181.626 99.8514 181.985 99.0569 182.592 98.4749C183.2 97.8928 184.009 97.5682 184.85 97.5689C185.256 97.5658 185.657 97.6454 186.031 97.8028C186.404 97.9603 186.742 98.1923 187.022 98.4846C187.303 98.777 187.521 99.1235 187.663 99.503C187.806 99.8826 187.869 100.287 187.849 100.692Z" fill="white"/>
<path d="M36.018 39.8994C36.8395 43.7006 37.7197 50.677 35.0791 53.3111C37.2046 55.3062 39.9691 57.6012 44.5266 57.6143C49.0841 57.6273 48.2299 54.5368 46.9977 52.9264C42.7075 52.0462 42.7597 48.884 43.4508 45.8913L36.018 39.8994Z" fill="#FF8B7B"/>
<path d="M34.3881 60.4828C32.7646 63.7428 31.1281 67.094 29.5307 70.4062C27.9333 73.7184 26.4011 77.0566 25.0514 80.3818C24.8754 80.7926 24.7189 81.2098 24.5624 81.6206L24.1778 82.6442C24.02 83.141 23.958 83.6631 23.9952 84.183C24.1291 85.7257 24.478 87.2422 25.0319 88.6883C26.3049 92.0055 27.8511 95.2113 29.6546 98.2727L26.5836 100.757C23.7534 97.9401 21.3385 94.7349 19.4116 91.2376C18.3407 89.2991 17.5878 87.2012 17.1818 85.024C16.9449 83.685 16.9648 82.3132 17.2405 80.9816L17.3709 80.4275C17.423 80.2384 17.4491 80.1666 17.4882 80.0362L17.7034 79.3256C17.8468 78.8496 17.9838 78.3736 18.1402 77.9107C19.366 74.1878 20.8069 70.6409 22.3391 67.1397C23.8713 63.6384 25.5404 60.2155 27.34 56.812L34.3881 60.4828Z" fill="#FF8B7B"/>
<path d="M28.7157 53.6567C23.9235 55.1563 21.009 65.3927 21.009 65.3927L30.8738 73.6731C32.7674 69.9678 34.4183 66.1434 35.816 62.224C38.1371 55.5475 34.512 51.8572 28.7157 53.6567Z" fill="#92E3A9"/>
<g opacity="0.2">
<path opacity="0.2" d="M28.7157 53.6567C23.9235 55.1563 21.009 65.3927 21.009 65.3927L30.8738 73.6731C32.7674 69.9678 34.4183 66.1434 35.816 62.224C38.1371 55.5475 34.512 51.8572 28.7157 53.6567Z" fill="black"/>
</g>
<path d="M28.5724 97.0928L32.4844 100.698L27.1771 104.017C27.1771 104.017 23.9953 100.32 25.6253 98.3185L28.5724 97.0928Z" fill="#FF8B7B"/>
<path d="M32.8885 106.234L30.8217 107.075C30.4172 107.236 29.9688 107.247 29.5566 107.107C29.1445 106.968 28.7955 106.686 28.5723 106.312L27.177 104.017L32.5104 100.692L33.8144 103.789C33.9164 104.01 33.9733 104.249 33.9819 104.492C33.9905 104.735 33.9505 104.978 33.8643 105.206C33.7781 105.433 33.6474 105.641 33.4799 105.818C33.3124 105.995 33.1113 106.136 32.8885 106.234Z" fill="#FF8B7B"/>
<path d="M53.2636 53.2065C45.5048 51.9025 36.0443 51.4852 28.8136 53.5456C27.8616 53.8242 27.0543 54.4604 26.5609 55.3209C26.0675 56.1813 25.9261 57.1994 26.1664 58.1617C30.5218 77.0045 29.2634 96.0364 29.6872 100.066L57.6711 99.6159C59.0533 76.5742 57.4755 62.2758 56.6018 56.5839C56.4691 55.7423 56.0755 54.9636 55.4766 54.3576C54.8776 53.7517 54.1036 53.3491 53.2636 53.2065Z" fill="#92E3A9"/>
<path d="M55.3302 55.873C57.7817 58.2137 60.3049 60.6 62.8151 62.9016C64.0757 64.0622 65.3405 65.1901 66.6098 66.2855C67.8681 67.3808 69.1591 68.4436 70.4044 69.3434C70.9381 69.7432 71.4979 70.1069 72.0801 70.4322L72.2365 70.517H72.3148H72.3539H72.2431H72.067C71.8779 70.517 71.9431 70.5756 72.067 70.5496C72.6157 70.4163 73.1395 70.1962 73.6188 69.8976C74.2949 69.5477 74.9522 69.1625 75.5878 68.7435C78.2748 66.7497 80.8559 64.6169 83.3205 62.3539L86.3849 64.812C85.4522 66.3809 84.4222 67.89 83.301 69.3303C82.1753 70.8164 80.9419 72.2176 79.6107 73.5227C78.9021 74.2256 78.1462 74.8791 77.3482 75.4787C76.4018 76.2053 75.3568 76.7937 74.2447 77.226C73.4293 77.5263 72.564 77.6679 71.6954 77.6433C71.4178 77.6327 71.1413 77.6044 70.8673 77.5586L70.4435 77.4608L70.1697 77.3825L69.6285 77.2065L69.1787 77.0239C68.1883 76.5935 67.2334 76.0855 66.3229 75.5048C63.2447 73.4835 60.3141 71.2459 57.5535 68.8087C54.8477 66.455 52.2723 64.0622 49.7295 61.4998L55.3302 55.873Z" fill="#FF8B7B"/>
<path d="M46.5869 57.9857C45.8893 62.9605 57.6709 72.4471 57.6709 72.4471L64.0149 62.7192C64.0149 62.7192 62.7109 60.2351 58.01 55.8276C53.1852 51.3027 47.3563 52.5089 46.5869 57.9857Z" fill="#92E3A9"/>
<path opacity="0.6" d="M180.645 78.4193L90.1994 84.346C89.9135 84.3664 89.6264 84.3284 89.3556 84.2343C89.0848 84.1402 88.8359 83.9919 88.6243 83.7985C88.4126 83.6052 88.2425 83.3708 88.1244 83.1095C88.0062 82.8483 87.9425 82.5658 87.937 82.2792L87.0633 47.5602C87.0533 46.9683 87.2698 46.395 87.6686 45.9574C88.0673 45.5199 88.6181 45.2513 89.2084 45.2065L179.66 39.2798C179.946 39.2594 180.233 39.2974 180.503 39.3916C180.774 39.4858 181.022 39.6341 181.233 39.8276C181.444 40.021 181.614 40.2555 181.731 40.5167C181.849 40.7779 181.912 41.0603 181.916 41.3466L182.796 76.0656C182.806 76.6585 182.589 77.2328 182.189 77.6705C181.789 78.1081 181.236 78.3761 180.645 78.4193Z" fill="white"/>
<path d="M135.005 57.914L136.231 60.196C136.244 60.2247 136.265 60.2491 136.292 60.2664C136.318 60.2836 136.349 60.2932 136.381 60.2938L138.989 60.5025C139.026 60.5054 139.061 60.5189 139.091 60.5413C139.121 60.5638 139.144 60.5943 139.157 60.6292C139.17 60.6642 139.172 60.7021 139.165 60.7385C139.157 60.775 139.139 60.8085 139.112 60.835L137.274 62.791C137.251 62.8151 137.235 62.8443 137.226 62.876C137.217 62.9077 137.215 62.9412 137.222 62.9736L137.73 65.5359C137.737 65.5726 137.735 65.6105 137.722 65.6457C137.71 65.681 137.688 65.7122 137.659 65.7362C137.631 65.7602 137.596 65.776 137.559 65.7821C137.522 65.7881 137.485 65.7842 137.45 65.7706L135.09 64.6948C135.061 64.6805 135.03 64.6731 134.998 64.6731C134.967 64.6731 134.935 64.6805 134.907 64.6948L132.612 66.0706C132.581 66.0888 132.545 66.0981 132.509 66.0973C132.473 66.0966 132.438 66.0858 132.407 66.0662C132.377 66.0466 132.352 66.019 132.337 65.9864C132.321 65.9538 132.315 65.9174 132.319 65.8815L132.697 63.2735C132.702 63.2426 132.7 63.2107 132.69 63.181C132.679 63.1513 132.662 63.1248 132.638 63.104L130.682 61.3892C130.655 61.3626 130.636 61.3294 130.627 61.2929C130.618 61.2564 130.619 61.2181 130.629 61.182C130.64 61.146 130.66 61.1134 130.688 61.0879C130.715 61.0624 130.75 61.0449 130.786 61.0371L133.394 60.4894C133.426 60.4818 133.456 60.4674 133.482 60.4472C133.508 60.4269 133.529 60.4013 133.544 60.3721L134.646 57.9336C134.659 57.8978 134.683 57.8666 134.714 57.8439C134.744 57.8212 134.781 57.808 134.819 57.806C134.857 57.8039 134.895 57.813 134.928 57.8322C134.961 57.8514 134.988 57.8799 135.005 57.914Z" fill="#92E3A9"/>
<path d="M150.79 56.8773L152.009 59.1658C152.026 59.1927 152.049 59.2154 152.076 59.2323C152.103 59.2492 152.134 59.2599 152.166 59.2636L154.774 59.4722C154.81 59.4762 154.845 59.4905 154.874 59.5134C154.903 59.5362 154.925 59.5668 154.937 59.6016C154.949 59.6363 154.951 59.6738 154.943 59.7098C154.935 59.7457 154.917 59.7786 154.891 59.8047L153.059 61.7607C153.036 61.7836 153.02 61.8116 153.011 61.8423C153.002 61.873 153 61.9054 153.007 61.9368L153.515 64.5057C153.522 64.5426 153.518 64.5806 153.505 64.6157C153.491 64.6508 153.469 64.6817 153.44 64.705C153.41 64.7284 153.375 64.7434 153.338 64.7485C153.301 64.7535 153.263 64.7485 153.228 64.7339L150.875 63.6581C150.846 63.6437 150.815 63.6363 150.783 63.6363C150.752 63.6363 150.72 63.6437 150.692 63.6581L148.397 65.0403C148.365 65.0591 148.329 65.0685 148.292 65.0676C148.255 65.0666 148.219 65.0552 148.189 65.0348C148.158 65.0143 148.134 64.9856 148.119 64.952C148.104 64.9184 148.098 64.8812 148.104 64.8447L148.482 62.2367C148.486 62.2043 148.482 62.1713 148.471 62.1407C148.459 62.11 148.441 62.0825 148.417 62.0607L146.493 60.3329C146.466 60.3075 146.447 60.2752 146.437 60.2395C146.427 60.2038 146.427 60.166 146.437 60.1303C146.447 60.0946 146.467 60.0624 146.494 60.0372C146.521 60.012 146.555 59.9947 146.591 59.9873L149.199 59.4396C149.231 59.4328 149.262 59.4179 149.287 59.3962C149.312 59.3745 149.331 59.3469 149.342 59.3157L150.444 56.8838C150.462 56.8537 150.487 56.8287 150.517 56.8111C150.546 56.7935 150.58 56.7839 150.615 56.7832C150.65 56.7826 150.684 56.7909 150.715 56.8074C150.745 56.8238 150.771 56.8479 150.79 56.8773Z" fill="#92E3A9"/>
<path d="M166.574 55.8408L167.794 58.1294C167.808 58.1572 167.829 58.1808 167.856 58.1979C167.882 58.215 167.912 58.2251 167.944 58.2272L170.552 58.4358C170.589 58.4387 170.624 58.4522 170.654 58.4746C170.684 58.4971 170.707 58.5276 170.72 58.5625C170.733 58.5975 170.735 58.6354 170.728 58.6719C170.72 58.7083 170.702 58.7418 170.675 58.7683L168.837 60.7243C168.814 60.7485 168.798 60.7776 168.789 60.8093C168.78 60.8411 168.778 60.8745 168.785 60.9069L169.293 63.4692C169.301 63.5059 169.299 63.544 169.287 63.5795C169.275 63.6149 169.253 63.6463 169.223 63.6699C169.194 63.6936 169.159 63.7088 169.122 63.7136C169.085 63.7185 169.047 63.7129 169.013 63.6975L166.659 62.6282C166.63 62.6122 166.598 62.6038 166.565 62.6038C166.531 62.6038 166.499 62.6122 166.47 62.6282L164.175 64.0039C164.144 64.0222 164.108 64.0314 164.072 64.0307C164.036 64.0299 164.001 64.0191 163.97 63.9995C163.94 63.9799 163.915 63.9523 163.9 63.9197C163.884 63.8871 163.878 63.8508 163.882 63.8148L164.26 61.2068C164.265 61.1759 164.263 61.144 164.253 61.1143C164.242 61.0846 164.225 61.0581 164.201 61.0373L162.245 59.3225C162.218 59.296 162.199 59.2627 162.19 59.2262C162.181 59.1898 162.182 59.1515 162.192 59.1154C162.203 59.0793 162.223 59.0468 162.251 59.0212C162.278 58.9957 162.313 58.9782 162.349 58.9704L164.957 58.4228C164.99 58.416 165.02 58.4019 165.046 58.3816C165.072 58.3612 165.093 58.3352 165.107 58.3054L166.209 55.8669C166.223 55.8311 166.247 55.7999 166.278 55.777C166.308 55.7542 166.345 55.7406 166.383 55.7378C166.422 55.7351 166.46 55.7433 166.494 55.7616C166.528 55.7798 166.556 55.8073 166.574 55.8408Z" fill="#92E3A9"/>
<path d="M119.226 58.944L120.446 61.2326C120.463 61.2595 120.486 61.2822 120.513 61.2991C120.54 61.316 120.57 61.3267 120.602 61.3304L123.21 61.539C123.247 61.543 123.281 61.5573 123.31 61.5801C123.339 61.603 123.361 61.6336 123.373 61.6684C123.386 61.7031 123.388 61.7406 123.38 61.7766C123.372 61.8125 123.353 61.8454 123.327 61.8715L121.495 63.8275C121.473 63.8504 121.456 63.8784 121.447 63.909C121.438 63.9397 121.437 63.9722 121.443 64.0036L121.952 66.5725C121.958 66.6094 121.955 66.6474 121.941 66.6825C121.928 66.7176 121.905 66.7485 121.876 66.7718C121.847 66.7952 121.812 66.8102 121.774 66.8153C121.737 66.8203 121.699 66.8153 121.665 66.8006L119.311 65.7248C119.283 65.7105 119.252 65.7031 119.22 65.7031C119.188 65.7031 119.157 65.7105 119.129 65.7248L116.834 67.1071C116.802 67.1259 116.765 67.1353 116.729 67.1343C116.692 67.1334 116.656 67.122 116.625 67.1016C116.595 67.0811 116.57 67.0524 116.555 67.0188C116.54 66.9852 116.535 66.948 116.54 66.9115L116.918 64.3035C116.922 64.2711 116.919 64.2381 116.907 64.2074C116.896 64.1768 116.877 64.1493 116.853 64.1274L114.93 62.4127C114.903 62.3873 114.883 62.355 114.873 62.3193C114.863 62.2836 114.863 62.2458 114.873 62.2101C114.883 62.1744 114.903 62.1422 114.93 62.117C114.958 62.0918 114.991 62.0745 115.027 62.0671L117.635 61.5194C117.667 61.5118 117.696 61.4973 117.72 61.477C117.745 61.4567 117.765 61.4311 117.779 61.4021L118.881 58.9636C118.897 58.9328 118.921 58.9068 118.95 58.888C118.98 58.8692 119.013 58.8582 119.048 58.8563C119.083 58.8543 119.117 58.8614 119.149 58.8767C119.18 58.8921 119.207 58.9153 119.226 58.944Z" fill="#92E3A9"/>
<path d="M103.441 59.9812L104.667 62.2632C104.68 62.2923 104.701 62.3171 104.727 62.3345C104.754 62.3519 104.785 62.3611 104.817 62.361L107.425 62.5696C107.462 62.5736 107.496 62.5879 107.525 62.6108C107.554 62.6336 107.576 62.6642 107.588 62.699C107.601 62.7337 107.603 62.7712 107.595 62.8072C107.586 62.8431 107.568 62.876 107.542 62.9021L105.71 64.8581C105.688 64.8823 105.671 64.9114 105.662 64.9431C105.653 64.9749 105.652 65.0083 105.658 65.0407L106.167 67.6096C106.172 67.6458 106.169 67.6828 106.156 67.7171C106.143 67.7513 106.121 67.7815 106.092 67.8047C106.064 67.8278 106.03 67.843 105.994 67.8488C105.958 67.8547 105.921 67.8508 105.886 67.8378L103.526 66.762C103.498 66.7477 103.466 66.7402 103.435 66.7402C103.403 66.7402 103.372 66.7477 103.343 66.762L101.048 68.1573C101.018 68.1784 100.981 68.1901 100.944 68.1906C100.907 68.1912 100.87 68.1807 100.839 68.1605C100.807 68.1403 100.783 68.1112 100.768 68.077C100.753 68.0428 100.748 68.0049 100.755 67.9682L101.133 65.3602C101.139 65.3293 101.136 65.2974 101.126 65.2677C101.116 65.238 101.098 65.2115 101.075 65.1907L99.1185 63.4759C99.0914 63.4501 99.072 63.4173 99.0624 63.3811C99.0528 63.345 99.0535 63.3068 99.0643 63.271C99.0751 63.2352 99.0957 63.2031 99.1236 63.1782C99.1516 63.1534 99.186 63.1368 99.2228 63.1303L101.831 62.5761C101.863 62.5705 101.893 62.5568 101.918 62.5362C101.943 62.5157 101.962 62.489 101.974 62.4588L103.083 60.0203C103.094 59.9834 103.115 59.9505 103.145 59.9258C103.174 59.9011 103.211 59.8857 103.249 59.8815C103.287 59.8773 103.326 59.8846 103.36 59.9023C103.394 59.92 103.423 59.9475 103.441 59.9812Z" fill="#92E3A9"/>
<path d="M82.6558 63.0716L86.2678 58.312L90.2711 62.7782C90.2711 62.7782 87.9761 66.8271 84.2792 65.7383L82.6558 63.0716Z" fill="#FF8B7B"/>
<path d="M91.4575 56.6425L92.5072 59.2505C92.598 59.4664 92.6254 59.7038 92.5862 59.9347C92.5469 60.1657 92.4426 60.3807 92.2855 60.5545L90.2709 62.7908L86.2676 58.3246L89.6971 56.0752C89.8457 55.9789 90.0139 55.9169 90.1894 55.8936C90.3649 55.8704 90.5435 55.8865 90.712 55.9408C90.8805 55.9951 91.0349 56.0863 91.1638 56.2076C91.2928 56.329 91.3931 56.4775 91.4575 56.6425Z" fill="#FF8B7B"/>
<path d="M49.0711 35.2439C49.0711 35.6677 49.3319 36.0002 49.6057 35.9937C49.8796 35.9872 50.0882 35.6351 50.0687 35.2113C50.0491 34.7875 49.8079 34.455 49.534 34.4615C49.2602 34.468 49.0515 34.8201 49.0711 35.2439Z" fill="#263238"/>
<path d="M49.3447 35.5571C49.9106 36.8299 50.6453 38.0207 51.5289 39.0975C51.2495 39.3137 50.9258 39.4656 50.5809 39.5422C50.2361 39.6189 49.8785 39.6184 49.5338 39.5409L49.3447 35.5571Z" fill="#FF5652"/>
<path d="M48.2039 33.0727C48.2436 33.0771 48.2838 33.071 48.3204 33.0549C48.357 33.0389 48.3888 33.0136 48.4125 32.9814C48.595 32.7333 48.8353 32.5335 49.1125 32.3994C49.3898 32.2653 49.6956 32.201 50.0034 32.212C50.036 32.2147 50.0687 32.2109 50.0998 32.2009C50.1309 32.1908 50.1597 32.1748 50.1845 32.1535C50.2094 32.1323 50.2298 32.1064 50.2446 32.0773C50.2594 32.0482 50.2682 32.0164 50.2707 31.9838C50.2727 31.9178 50.2496 31.8536 50.206 31.8039C50.1624 31.7543 50.1017 31.7231 50.036 31.7165C49.6479 31.6982 49.2613 31.7754 48.91 31.9413C48.5587 32.1073 48.2536 32.357 48.0213 32.6684C47.9945 32.7048 47.9779 32.7476 47.9731 32.7926C47.9683 32.8375 47.9756 32.8829 47.9942 32.924C48.0128 32.9652 48.042 33.0007 48.0789 33.0268C48.1157 33.0529 48.1589 33.0688 48.2039 33.0727Z" fill="#263238"/>
<path d="M34.8575 34.1421C35.4182 39.3125 35.5095 42.3638 38.2218 44.9327C42.349 48.8056 48.6538 46.2367 49.6253 41.0207C50.5185 36.3328 49.4492 28.6327 44.2854 26.768C43.1603 26.3371 41.9428 26.2047 40.7514 26.3835C39.5599 26.5624 38.435 27.0465 37.486 27.7888C36.537 28.5311 35.7962 29.5062 35.3356 30.6195C34.875 31.7328 34.7103 32.9463 34.8575 34.1421Z" fill="#FF8B7B"/>
<path d="M45.2308 37.076C45.8828 39.0711 44.5071 43.3417 44.0767 44.6457C43.6464 45.9497 41.8274 47.0972 38.6391 46.7973C38.0839 46.7601 37.5421 46.6111 37.046 46.3592C36.5499 46.1072 36.1099 45.7576 35.7524 45.3313C35.3949 44.905 35.1273 44.4108 34.9657 43.8784C34.804 43.346 34.7517 42.7864 34.8118 42.2333C33.3905 42.0182 31.8648 39.4167 31.943 37.6106C32.0213 35.8046 29.335 33.9268 29.009 32.1664C28.683 30.406 30.1631 27.961 32.1191 29.1933C30.8542 27.8893 30.7434 24.6293 34.6228 23.9773C37.7197 23.4883 40.9211 25.1379 43.3139 24.199C45.7067 23.2601 48.8755 22.6407 49.5731 24.5576C50.8771 23.7948 52.8331 25.3204 52.1811 27.6742C51.5291 30.0279 46.7499 31.4036 46.7499 31.4036C46.7499 31.4036 48.5299 36.0263 45.2308 37.076Z" fill="#263238"/>
<path d="M32.4125 30.2302C32.3167 30.2303 32.2221 30.2094 32.1353 30.1688C32.0486 30.1282 31.9718 30.069 31.9105 29.9954C30.7239 28.561 29.146 25.1837 31.6236 22.6735C31.7458 22.552 31.911 22.4839 32.0833 22.4839C32.2555 22.4839 32.4208 22.552 32.5429 22.6735C32.604 22.7341 32.6525 22.8062 32.6856 22.8857C32.7188 22.9651 32.7358 23.0503 32.7358 23.1364C32.7358 23.2225 32.7188 23.3077 32.6856 23.3872C32.6525 23.4666 32.604 23.5387 32.5429 23.5993C30.274 25.8944 32.7972 29.0435 32.9081 29.1739C32.9854 29.2693 33.0343 29.3846 33.049 29.5066C33.0637 29.6285 33.0437 29.7521 32.9913 29.8632C32.9388 29.9743 32.856 30.0682 32.7525 30.1343C32.6489 30.2004 32.5288 30.2359 32.406 30.2367L32.4125 30.2302Z" fill="#263238"/>
<path d="M32.9928 30.9213C32.8948 30.9208 32.7983 30.8983 32.7102 30.8554C32.6222 30.8125 32.5449 30.7503 32.4842 30.6735C32.3734 30.5431 29.8175 27.4135 27.0987 29.1739C26.9526 29.2673 26.7753 29.2988 26.606 29.2615C26.4366 29.2242 26.289 29.1212 26.1957 28.975C26.1023 28.8289 26.0708 28.6517 26.1081 28.4823C26.1454 28.313 26.2484 28.1654 26.3945 28.072C29.3611 26.1682 32.3408 28.4111 33.5013 29.8585C33.5551 29.9256 33.5951 30.0027 33.619 30.0853C33.6429 30.1679 33.6502 30.2544 33.6405 30.3399C33.6308 30.4253 33.6043 30.508 33.5625 30.5832C33.5207 30.6583 33.4645 30.7245 33.397 30.7778C33.2823 30.8699 33.1398 30.9204 32.9928 30.9213Z" fill="#263238"/>
<path d="M42.473 37.6171C42.8708 38.7101 43.6805 39.604 44.7289 40.1078C46.1242 40.7598 47.0631 39.5992 46.874 38.1518C46.711 36.8478 45.7786 34.957 44.266 34.8918C42.7534 34.8266 42.0036 36.274 42.473 37.6171Z" fill="#FF8B7B"/>
<path d="M12.0246 208.272C12.0131 208.252 12.0071 208.23 12.0071 208.207C12.0071 208.184 12.0131 208.161 12.0246 208.142C12.0352 208.118 12.0529 208.099 12.0751 208.086C12.0973 208.073 12.1229 208.068 12.1484 208.07C12.4157 208.07 14.7564 208.265 15.1411 208.898C15.1761 208.957 15.1945 209.025 15.1945 209.093C15.1945 209.162 15.1761 209.23 15.1411 209.289C15.0993 209.392 15.0318 209.483 14.9451 209.552C14.8583 209.622 14.7552 209.668 14.6456 209.687C13.8893 209.817 12.6896 208.865 12.0376 208.285L12.0246 208.272ZM14.8738 208.989C14.5999 208.67 13.3937 208.448 12.4809 208.337C13.3872 209.1 14.1566 209.504 14.5804 209.426C14.6526 209.414 14.7206 209.384 14.7777 209.339C14.8349 209.293 14.8792 209.233 14.9064 209.165C14.9195 209.141 14.9264 209.114 14.9264 209.087C14.9264 209.06 14.9195 209.033 14.9064 209.009L14.8738 208.989Z" fill="#92E3A9"/>
<path d="M6.48901 207.855L11.5877 209.061L16.4972 197.788L11.3986 196.582L6.48901 207.855Z" fill="#FF8B7B"/>
<path d="M12.1875 208.18L7.0106 205.657C6.92159 205.611 6.81838 205.6 6.72165 205.627C6.62492 205.653 6.54182 205.715 6.489 205.801L4.0114 209.713C3.95198 209.816 3.91441 209.93 3.90102 210.048C3.88763 210.166 3.89871 210.286 3.93357 210.4C3.96843 210.513 4.02632 210.619 4.10364 210.709C4.18097 210.8 4.27607 210.873 4.38304 210.925C6.2608 211.799 6.91931 211.942 9.26652 213.09C12.0114 214.427 11.8745 215.196 15.0889 216.767C17.0449 217.713 18.2837 215.933 17.5404 215.346C15.5738 213.679 14.075 211.528 13.1916 209.106C12.986 208.682 12.6272 208.351 12.1875 208.18Z" fill="#263238"/>
<path opacity="0.2" d="M16.4972 197.788L13.824 203.93L8.8623 202.397L11.3921 196.582L16.4972 197.788Z" fill="black"/>
<path d="M22.8802 150.087C26.9096 126.785 26.2836 105.321 29.6871 100.066L48.1778 99.7661C48.1778 99.7661 38.965 137.217 34.6488 152.63C30.1696 168.65 16.6471 201.602 16.6471 201.602L8.54272 199.098C8.54272 199.098 16.5297 167.913 22.8802 150.087Z" fill="#566C77" stroke="#566C77" stroke-linecap="round" stroke-linejoin="round"/>
<path opacity="0.2" d="M40.7059 114.99C36.7352 120.206 37.0025 134.811 37.4459 142.283C39.0107 136.324 40.7515 129.517 42.3619 123.121L40.7059 114.99Z" fill="black"/>
<path d="M45.3676 215.594C45.3452 215.584 45.3261 215.568 45.3126 215.548C45.2992 215.528 45.292 215.504 45.292 215.48C45.292 215.455 45.2992 215.431 45.3126 215.411C45.3261 215.391 45.3452 215.375 45.3676 215.365C45.6023 215.242 47.6627 214.14 48.3081 214.485C48.3699 214.516 48.4226 214.562 48.4614 214.619C48.5002 214.676 48.5238 214.742 48.5298 214.811C48.5502 214.922 48.5418 215.036 48.5052 215.142C48.4686 215.248 48.4053 215.343 48.3212 215.418C47.767 215.939 46.2609 215.757 45.4133 215.6L45.3676 215.594ZM48.1256 214.687C47.7279 214.557 46.6064 215.007 45.7914 215.418C46.952 215.594 47.8126 215.528 48.1256 215.235C48.1779 215.184 48.2171 215.122 48.2399 215.052C48.2626 214.983 48.2681 214.909 48.256 214.837C48.2559 214.81 48.2478 214.783 48.2328 214.76C48.2178 214.737 48.1964 214.718 48.1712 214.707L48.1256 214.687Z" fill="#92E3A9"/>
<path d="M45.3677 215.594H45.3351C45.317 215.582 45.3026 215.565 45.2934 215.546C45.2842 215.526 45.2806 215.505 45.2829 215.483C45.2829 215.418 45.3677 214.01 46.0132 213.455C46.1006 213.375 46.2036 213.313 46.3157 213.274C46.4278 213.235 46.5467 213.219 46.6652 213.227C47.0042 213.227 47.1085 213.429 47.1411 213.566C47.2585 214.16 46.0523 215.307 45.4329 215.6C45.411 215.605 45.3883 215.603 45.3677 215.594ZM46.8021 213.488H46.6782C46.5873 213.48 46.4957 213.49 46.4092 213.519C46.3227 213.549 46.2433 213.596 46.1762 213.658C45.7924 214.116 45.5641 214.684 45.5242 215.281C46.1762 214.883 46.9651 213.977 46.8934 213.625C46.8999 213.553 46.8999 213.553 46.8021 213.488Z" fill="#92E3A9"/>
<path d="M39.8125 216.168L45.0415 216.089L45.2632 203.949L40.0407 204.027L39.8125 216.168Z" fill="#FF8B7B"/>
<path d="M45.446 215.509L39.741 215.6C39.6405 215.598 39.5431 215.635 39.4691 215.703C39.395 215.771 39.35 215.865 39.3433 215.965L38.9586 220.627C38.9514 220.746 38.9689 220.866 39.0101 220.978C39.0513 221.09 39.1152 221.193 39.1978 221.279C39.2805 221.365 39.3801 221.434 39.4904 221.48C39.6007 221.526 39.7193 221.548 39.8388 221.546C41.8926 221.481 44.8462 221.312 47.4346 221.272C50.4534 221.227 50.1665 221.351 53.7134 221.272C55.8519 221.24 56.1518 219.062 55.226 218.88C51.0141 218.045 50.5903 217.999 46.75 215.874C46.3535 215.643 45.9047 215.517 45.446 215.509Z" fill="#263238"/>
<path opacity="0.2" d="M45.2632 203.949L45.1524 210.208L39.9233 210.293L40.0342 204.034L45.2632 203.949Z" fill="black"/>
<path d="M41.2732 151.561C40.4713 127.144 35.3465 113.145 35.816 99.9683L57.6515 99.6162C57.6515 99.6162 55.4673 137.537 53.8699 153.458C52.2138 170.013 47.1086 208.109 47.1086 208.109L38.2414 208.246C38.2414 208.246 39.076 172.334 41.2732 151.561Z" fill="#566C77" stroke="#566C77" stroke-linecap="round" stroke-linejoin="round"/>
<path opacity="0.3" d="M45.5504 207.157C45.529 207.156 45.5081 207.15 45.4889 207.14C45.4698 207.13 45.4528 207.117 45.4388 207.1C45.4249 207.084 45.4143 207.065 45.4077 207.045C45.4012 207.024 45.3987 207.003 45.4005 206.981C45.9938 200.905 47.0826 191.881 48.2432 182.336C49.5015 171.904 50.8121 161.119 51.5488 153.445C52.9572 138.782 55.2457 107.688 55.3109 104.154C54.4837 103.99 53.7092 103.626 53.0547 103.094C52.4001 102.563 51.8855 101.879 51.5553 101.103C51.5482 101.082 51.5453 101.061 51.5467 101.039C51.5481 101.017 51.5538 100.996 51.5636 100.977C51.5733 100.957 51.5868 100.94 51.6033 100.926C51.6198 100.912 51.639 100.901 51.6597 100.894C51.6793 100.887 51.7003 100.884 51.7212 100.885C51.7421 100.886 51.7626 100.891 51.7814 100.9C51.8003 100.91 51.8171 100.922 51.8309 100.938C51.8447 100.954 51.8552 100.972 51.8618 100.992C52.1818 101.736 52.683 102.387 53.3197 102.887C53.9564 103.387 54.7082 103.72 55.5065 103.854C55.5445 103.862 55.5788 103.882 55.6037 103.912C55.6286 103.941 55.6426 103.979 55.6434 104.017C55.6434 106.801 53.3027 138.573 51.8748 153.478C51.1316 161.159 49.8276 171.943 48.5627 182.368C47.4086 191.92 46.3198 200.937 45.7265 207.014C45.7249 207.035 45.719 207.056 45.7091 207.074C45.6993 207.093 45.6857 207.11 45.6693 207.123C45.6528 207.137 45.6338 207.147 45.6133 207.152C45.5929 207.158 45.5715 207.16 45.5504 207.157Z" fill="white"/>
<path d="M47.6691 209.158L37.1328 209.321L36.6895 205.912L48.4515 205.546L47.6691 209.158Z" fill="#263238"/>
<path d="M17.2599 203.617L7.14087 200.507L7.55163 197.077L18.8834 200.37L17.2599 203.617Z" fill="#263238"/>
</svg>
