<svg xmlns="http://www.w3.org/2000/svg" width="219" height="41" viewBox="0 0 219 41">
    <g fill="none" fill-rule="evenodd">
        <path fill="#7D61DC" d="M17.049 40.098C7.633 40.098 0 32.465 0 23.049S7.633 6 17.049 6h12.787a4.262 4.262 0 0 1 4.262 4.262v12.787c0 9.416-7.633 17.049-17.049 17.049"/>
        <path fill="#FFF" fill-rule="nonzero" d="M10.231 26.825L9 25.595l1.427-3.246a1.957 1.957 0 0 1 1.785-1.168l1.88-.007a1.436 1.436 0 0 0 1.255-.745l1.125-2.053a5.815 5.815 0 0 1 4.58-2.995l4.22-.378a.714.714 0 0 1 .775.771l-.356 4.24a5.806 5.806 0 0 1-2.999 4.574l-2.055 1.124c-.459.25-.745.73-.746 1.253l-.007 1.878a1.954 1.954 0 0 1-1.17 1.782l-3.25 1.425-1.23-1.228.227-.795a2.772 2.772 0 0 0-.707-2.722 2.781 2.781 0 0 0-2.726-.707l-.797.227zm10.63-5.032a1.649 1.649 0 1 0-1.65-1.648c0 .91.738 1.648 1.65 1.648z"/>
        <g fill="#4D4D4D">
            <path d="M41.8 7.8v2h-1c-.8 0-1.4.6-1.4 1.4 0 .8.6 1.4 1.4 1.4h1v13.8c0 .8.6 1.5 1.5 1.5s1.5-.6 1.5-1.5V12.5H48c.8 0 1.4-.6 1.4-1.4 0-.8-.6-1.4-1.4-1.4h-3.2v-2c0-1.8.7-4 3.9-4 .8 0 1.4-.6 1.4-1.3-.1-.8-.7-1.4-1.5-1.4-5 0-6.8 3.5-6.8 6.8zM60 9.3c-2-.1-3.8.8-5 2.4v-.8c0-.8-.6-1.5-1.5-1.5s-1.5.7-1.5 1.5v15.4c0 .8.6 1.5 1.5 1.5s1.5-.6 1.5-1.5v-8.5c0-3.6 1.9-5.7 5-5.7.8 0 1.4-.6 1.4-1.4 0-.8-.7-1.4-1.4-1.4z"/>
            <path fill-rule="nonzero" d="M77.7 16.9c0-1.7-.5-3.4-1.4-4.8-1.4-1.9-3.7-3-6.1-2.8-5.1 0-8 3.4-8 9.3 0 6.1 2.9 9.4 8.4 9.4 2.2.1 4.4-.7 6.1-2.2.3-.2.5-.6.5-1 0-.7-.6-1.3-1.3-1.3-.3 0-.6.1-.8.3-1.2 1-2.8 1.6-4.4 1.6-3.3 0-5.4-2.2-5.5-5.7H76c1.7-.2 1.7-1.8 1.7-2.8zm-7.4-5c3 0 4.5 1.7 4.6 5h-9.7c.3-3.2 2.1-5 5.1-5z"/>
            <path d="M87.5 17.1c-2.2-.8-4-1.4-4-3 0-1.8 2-2 3.1-2 1.5-.1 3 .5 4 1.5.5.5 1.4.5 1.9 0 .3-.3.4-.6.4-1 0-.3-.1-.6-.3-.9-1.5-1.7-3.7-2.7-5.9-2.5-3.7 0-6 1.9-6 4.8 0 3.6 3.2 4.7 6 5.7 2.1.7 4 1.3 4 2.9 0 2.1-2.4 2.5-3.8 2.5-1.7.1-3.4-.6-4.6-1.8-.3-.3-.6-.4-1-.5-.7 0-1.3.6-1.3 1.3 0 .3.1.6.3.9 1.7 2 4.1 3 6.6 3 4.2 0 6.7-2 6.7-5.2-.2-3.7-3.3-4.7-6.1-5.7zM104.8 9.2c-1.8-.1-3.6.7-4.8 2.1V1.5c0-.8-.6-1.5-1.5-1.5-.8 0-1.4.6-1.4 1.5v24.8c0 .8.6 1.5 1.4 1.5.8 0 1.5-.6 1.5-1.5V17c0-3.4 1.6-5.1 4.8-5.1 3.2 0 4.3 1.4 4.3 4.8v9.6c0 .8.6 1.5 1.5 1.5.8 0 1.4-.6 1.4-1.5V16.2c0-4.6-2.4-7-7.2-7zM124 9.3c-2-.1-3.8.8-5 2.4v-.8c0-.8-.6-1.5-1.5-1.5s-1.5.7-1.5 1.5v15.4c0 .8.6 1.5 1.5 1.5s1.5-.6 1.5-1.5v-8.5c0-3.6 1.9-5.7 5-5.7.8 0 1.4-.6 1.4-1.4 0-.8-.7-1.4-1.4-1.4z"/>
            <path fill-rule="nonzero" d="M141.7 16.9c0-1.7-.5-3.4-1.4-4.8-1.4-1.9-3.7-3-6.1-2.8-5.1 0-8 3.4-8 9.3 0 6.1 2.9 9.4 8.4 9.4 2.2.1 4.4-.7 6.1-2.2.3-.2.5-.6.5-1 0-.7-.6-1.3-1.3-1.3-.3 0-.6.1-.8.3-1.2 1-2.8 1.6-4.4 1.6-3.3 0-5.4-2.2-5.5-5.7H140c1.7-.2 1.7-1.8 1.7-2.8zm-7.4-5c3 0 4.5 1.7 4.6 5h-9.7c.3-3.2 2.1-5 5.1-5z"/>
            <path d="M148.982 25.006c-.632 0-1.28-.228-1.28-1.923V1.45A1.45 1.45 0 0 0 146.255 0c-.772 0-1.45.677-1.45 1.45v21.633c0 3.011 1.484 4.67 4.178 4.67.757 0 1.374-.616 1.374-1.373 0-.758-.617-1.374-1.374-1.374"/>
            <path fill-rule="nonzero" d="M160.006 11.916c2.991 0 4.541 1.689 4.61 5.02h-9.696c.301-3.24 2.1-5.02 5.086-5.02m7.473 4.954c0-.837-.135-2.98-1.386-4.795-1.295-1.878-3.343-2.83-6.087-2.83-5.11 0-8.04 3.4-8.04 9.33 0 6.128 2.911 9.368 8.42 9.368 3.7 0 5.711-1.826 6.077-2.191.246-.246.486-.53.486-1.04 0-.736-.599-1.335-1.335-1.335-.35 0-.542.086-.824.275-1.068.8-2.287 1.582-4.405 1.582-3.309 0-5.392-2.178-5.48-5.702h10.822c1.752 0 1.752-1.602 1.752-2.662M177.019 25.027c-1.862 0-4.082-.518-4.082-2.984 0-2.596 2.462-2.983 3.93-2.983h5.106v1.354c0 3.17-2.568 4.613-4.954 4.613M177.739 9c-3.928 0-5.752 1.944-6.493 3.108-.11.184-.223.419-.223.766 0 .737.599 1.336 1.335 1.336.438 0 .763-.17 1.161-.608l.002-.002c1.181-1.333 2.363-1.853 4.218-1.853 2.651 0 4.234 1.47 4.234 3.931v.786h-5.106c-4.235 0-6.867 2.138-6.867 5.579 0 3.541 2.539 5.655 6.791 5.655 2.192 0 4.1-.817 5.182-2.175v.574c0 .779.633 1.412 1.411 1.412s1.411-.633 1.411-1.412V15.678c0-4.119-2.704-6.678-7.056-6.678"/>
            <path d="M194.6 17.1c-2.2-.8-4-1.4-4-3 0-1.8 2-2 3.1-2 1.5-.1 3 .5 4 1.5.3.3.6.4 1 .4.7 0 1.3-.6 1.3-1.3 0-.3-.1-.6-.3-.9-1.5-1.7-3.7-2.7-5.9-2.5-3.7 0-6 1.9-6 4.8 0 3.6 3.2 4.7 6 5.7 2.1.7 4 1.3 4 2.9 0 2.1-2.4 2.5-3.8 2.5-1.7.1-3.4-.6-4.6-1.8-.3-.3-.6-.4-1-.5-.7 0-1.3.6-1.3 1.3 0 .3.1.6.3.9 1.7 1.9 4.1 2.9 6.7 2.8 4.2 0 6.7-2 6.7-5.2-.3-3.6-3.5-4.6-6.2-5.6z"/>
            <path fill-rule="nonzero" d="M218.5 16.9c0-1.7-.5-3.4-1.4-4.8-1.4-1.9-3.7-3-6.1-2.8-5.1 0-8 3.4-8 9.3 0 6.1 2.9 9.4 8.4 9.4 2.2.1 4.4-.7 6.1-2.2.3-.2.5-.6.5-1 0-.7-.6-1.3-1.3-1.3-.3 0-.6.1-.8.3-1.2 1-2.8 1.6-4.4 1.6-3.3 0-5.4-2.2-5.5-5.7h10.8c1.7-.2 1.7-1.8 1.7-2.8zm-7.5-5c3 0 4.5 1.7 4.6 5h-9.7c.3-3.2 2.1-5 5.1-5z"/>
        </g>
    </g>
</svg>
