<svg width="39" height="35" viewBox="0 0 39 35" fill="none" xmlns="http://www.w3.org/2000/svg">
<path d="M30.6058 30.6027C30.6058 32.732 25.7003 34.4478 19.6522 34.4478C13.6042 34.4478 8.69873 32.7167 8.69873 30.6027C8.69873 28.4733 13.6042 26.7576 19.6522 26.7576C25.7003 26.7576 30.6058 28.4733 30.6058 30.6027Z" fill="#9EDCF2"/>
<path d="M30.6058 30.6027C30.6058 32.732 25.7003 34.4478 19.6522 34.4478C13.6042 34.4478 8.69873 32.7167 8.69873 30.6027C8.69873 28.4733 13.6042 26.7576 19.6522 26.7576C25.7003 26.7576 30.6058 28.4733 30.6058 30.6027Z" fill="#7DBCE7"/>
<path d="M7.14487 19.2818L6.82495 20.3848C6.82495 20.3848 6.74878 20.7831 7.1144 20.8597C7.5105 20.8444 7.48003 20.4767 7.44956 20.3695L7.14487 19.2818Z" fill="#9EDCF2"/>
<path d="M38.9695 14.6401L39 14.5023C35.7855 13.8589 32.4949 13.8435 30.4992 13.9355C30.8191 12.7559 30.9258 11.3772 30.9258 9.8606C30.9258 7.66998 30.1031 5.92361 28.793 4.60618C29.0215 3.85555 29.3262 2.18577 28.4883 0.0564299C28.4883 0.0564299 26.9953 -0.41846 23.598 1.86407C22.2727 1.52706 20.8559 1.35855 19.4391 1.35855C17.8852 1.35855 16.316 1.55769 14.8383 1.95599C11.3344 -0.449098 9.7957 0.0411108 9.7957 0.0411108C8.79023 2.56875 9.41484 4.45299 9.59766 4.91256C8.40938 6.19936 7.69336 7.83849 7.69336 9.84528C7.69336 11.3619 7.86094 12.7253 8.2875 13.9048C6.27656 13.8282 3.10781 13.8589 0 14.4869L0.0304688 14.6248C3.13828 13.9967 6.3375 13.9814 8.3332 14.058C8.42461 14.3031 8.53125 14.5482 8.63789 14.778C6.65742 14.8393 3.29063 15.0997 0.0609375 16.0188L0.106641 16.1567C3.3668 15.2376 6.76406 14.9925 8.7293 14.9312C9.91758 17.1371 12.2332 18.5771 16.377 19.0214C15.7828 19.4197 15.1887 20.0937 14.9449 21.2426C14.1375 21.6256 11.6086 22.5754 10.0852 19.9405C10.0852 19.9405 9.23203 18.378 7.60195 18.2554C7.60195 18.2554 6.01758 18.2248 7.49531 19.2512C7.49531 19.2512 8.54648 19.7567 9.27773 21.6409C9.27773 21.6409 10.2375 24.8579 14.823 23.8162V27.1098C14.823 27.1098 14.7316 28.2894 13.65 28.6724C13.65 28.6724 13.0102 29.1166 13.6957 29.3617C13.6957 29.3617 16.6664 29.6068 16.6664 27.1558V23.5405C16.6664 23.5405 16.5445 22.1005 17.2453 21.6103V27.5541C17.2453 27.5541 17.1996 28.9787 16.4684 29.5149C16.4684 29.5149 15.9809 30.3881 17.0473 30.1583C17.0473 30.1583 19.0887 29.8672 19.1801 27.4622L19.2258 21.4418H19.7133L19.759 27.4622C19.8504 29.8519 21.8918 30.1583 21.8918 30.1583C22.9582 30.4034 22.4707 29.5149 22.4707 29.5149C21.7395 28.9787 21.6937 27.5541 21.6937 27.5541V21.6562C22.3945 22.2077 22.2727 23.5405 22.2727 23.5405V27.1558C22.2727 29.6068 25.2434 29.3617 25.2434 29.3617C25.9289 29.1166 25.2891 28.6724 25.2891 28.6724C24.2227 28.2741 24.116 27.1098 24.116 27.1098V22.3609C24.116 20.5073 23.3391 19.5269 22.5773 19.0214C26.9953 18.5771 29.1129 17.1525 30.0879 14.9159C32.0227 14.9618 35.5113 15.2069 38.8324 16.1567L38.8781 16.0188C35.5723 15.0844 32.1141 14.8393 30.1488 14.778C30.2402 14.5482 30.3164 14.3184 30.3926 14.0733C32.434 13.9967 35.7398 13.9967 38.9695 14.6401Z" fill="#010101"/>
<path d="M26.5991 9.75338C27.5437 10.6266 28.1073 11.6683 28.1073 12.7866C28.1073 18.0563 24.2073 18.1942 19.3933 18.1942C14.5792 18.1942 10.6792 17.4589 10.6792 12.7866C10.6792 11.6683 11.2276 10.6266 12.1722 9.7687C13.7413 8.32872 16.3921 9.09467 19.3933 9.09467C22.3944 9.09467 25.03 8.3134 26.5991 9.75338Z" fill="#F5CCB3"/>
<path d="M16.4988 13.0623C16.4988 14.5177 15.6914 15.6819 14.6859 15.6819C13.6805 15.6819 12.873 14.5023 12.873 13.0623C12.873 11.607 13.6805 10.4428 14.6859 10.4428C15.6914 10.4275 16.4988 11.607 16.4988 13.0623Z" fill="white"/>
<path d="M15.92 13.093C15.92 14.0581 15.3715 14.8394 14.7165 14.8394C14.0461 14.8394 13.5129 14.0581 13.5129 13.093C13.5129 12.1279 14.0614 11.3466 14.7165 11.3466C15.3715 11.3466 15.92 12.1279 15.92 13.093Z" fill="#AF5C51"/>
<path d="M26.2337 13.0623C26.2337 14.5177 25.4263 15.6819 24.4208 15.6819C23.4153 15.6819 22.6079 14.5023 22.6079 13.0623C22.6079 11.607 23.4153 10.4428 24.4208 10.4428C25.411 10.4275 26.2337 11.607 26.2337 13.0623Z" fill="white"/>
<path d="M25.6395 13.093C25.6395 14.0581 25.091 14.8394 24.4359 14.8394C23.7656 14.8394 23.2324 14.0581 23.2324 13.093C23.2324 12.1279 23.7809 11.3466 24.4359 11.3466C25.1062 11.3466 25.6395 12.1279 25.6395 13.093Z" fill="#AF5C51"/>
<path d="M19.8809 15.3908C19.8809 15.6359 19.6828 15.8504 19.4238 15.8504C19.1801 15.8504 18.9668 15.6513 18.9668 15.3908C18.9668 15.1304 19.1648 14.9313 19.4238 14.9313C19.6676 14.9313 19.8809 15.1304 19.8809 15.3908Z" fill="#AF5C51"/>
<path d="M18.3726 16.5398C18.3421 16.4632 18.3878 16.3866 18.464 16.3559C18.5402 16.3253 18.6163 16.3713 18.6468 16.4478C18.7687 16.7849 19.0734 16.9993 19.4238 16.9993C19.7741 16.9993 20.0788 16.7695 20.2007 16.4478C20.2312 16.3713 20.3073 16.3253 20.3835 16.3559C20.4597 16.3866 20.5054 16.4632 20.4749 16.5398C20.3226 16.984 19.896 17.2904 19.4238 17.2904C18.9515 17.2904 18.5249 16.984 18.3726 16.5398Z" fill="#AF5C51"/>
<path d="M8.30269 18.6232C8.30269 18.7458 8.16558 18.8377 7.98276 18.8377C7.81519 18.8377 7.66284 18.7458 7.66284 18.6232C7.66284 18.5007 7.79995 18.4088 7.98276 18.4088C8.16558 18.4088 8.30269 18.5007 8.30269 18.6232Z" fill="#C4E5D9"/>
<path d="M9.18623 19.1134C9.18623 19.236 9.04912 19.3279 8.86631 19.3279C8.69873 19.3279 8.54639 19.236 8.54639 19.1134C8.54639 18.9908 8.6835 18.8989 8.86631 18.8989C9.04912 18.8989 9.18623 18.9908 9.18623 19.1134Z" fill="#C4E5D9"/>
<path d="M9.71943 19.7568C9.71943 19.8794 9.58232 19.9713 9.39951 19.9713C9.23193 19.9713 9.07959 19.8794 9.07959 19.7568C9.07959 19.6343 9.2167 19.5423 9.39951 19.5423C9.58232 19.527 9.71943 19.6343 9.71943 19.7568Z" fill="#C4E5D9"/>
<path d="M10.207 20.4921C10.207 20.6147 10.0699 20.7066 9.88706 20.7066C9.71948 20.7066 9.56714 20.6147 9.56714 20.4921C9.56714 20.3696 9.70425 20.2776 9.88706 20.2776C10.0699 20.2623 10.207 20.3696 10.207 20.4921Z" fill="#C4E5D9"/>
<path d="M10.7402 21.1661C10.7402 21.2887 10.6031 21.3806 10.4203 21.3806C10.2527 21.3806 10.1003 21.2887 10.1003 21.1661C10.1003 21.0436 10.2375 20.9517 10.4203 20.9517C10.6031 20.9517 10.7402 21.0436 10.7402 21.1661Z" fill="#C4E5D9"/>
<path d="M11.4714 21.7636C11.4714 21.8862 11.3343 21.9781 11.1515 21.9781C10.9839 21.9781 10.8315 21.8862 10.8315 21.7636C10.8315 21.6411 10.9687 21.5491 11.1515 21.5491C11.3343 21.5338 11.4714 21.6411 11.4714 21.7636Z" fill="#C4E5D9"/>
<path d="M12.4921 22.1466C12.4921 22.2691 12.355 22.361 12.1722 22.361C12.0046 22.361 11.8523 22.2691 11.8523 22.1466C11.8523 22.024 11.9894 21.9321 12.1722 21.9321C12.355 21.9321 12.4921 22.024 12.4921 22.1466Z" fill="#C4E5D9"/>
<path d="M13.5129 22.1466C13.5129 22.2691 13.3758 22.361 13.193 22.361C13.0254 22.361 12.873 22.2691 12.873 22.1466C12.873 22.024 13.0102 21.9321 13.193 21.9321C13.3758 21.9321 13.5129 22.024 13.5129 22.1466Z" fill="#C4E5D9"/>
<path d="M14.5488 21.9781C14.5488 22.1006 14.4117 22.1925 14.2289 22.1925C14.0613 22.1925 13.9089 22.1006 13.9089 21.9781C13.9089 21.8555 14.046 21.7636 14.2289 21.7636C14.3964 21.7636 14.5488 21.8555 14.5488 21.9781Z" fill="#C4E5D9"/>
</svg>
