<svg width="200" height="34" viewBox="0 0 172 34" fill="none" xmlns="http://www.w3.org/2000/svg">
  <g clip-path="url(#clip0_5:11474)">
    <path d="M10.796 26.1896L5.57354 17.1438C5.37275 16.796 5.26704 16.4015 5.26704 15.9999C5.26704 15.5983 5.37275 15.2038 5.57354 14.856L10.796 5.81043C10.9968 5.4626 11.2856 5.17377 11.6334 4.97296C11.9813 4.77215 12.3758 4.66645 12.7775 4.66647H23.2223C23.6239 4.66648 24.0184 4.7722 24.3662 4.97301C24.714 5.17382 25.0028 5.46263 25.2036 5.81043L30.4261 14.856C30.6269 15.2038 30.7326 15.5984 30.7326 16C30.7326 16.4016 30.6269 16.7962 30.4261 17.144L25.2036 26.1894C25.0028 26.5372 24.714 26.826 24.3662 27.0268C24.0184 27.2276 23.6239 27.3333 23.2223 27.3333H12.7775C12.3758 27.3334 11.9813 27.2277 11.6334 27.0269C11.2856 26.8261 10.9968 26.5372 10.796 26.1894V26.1896Z" fill="url(#paint0_linear_5:11474)"/>
    <path opacity="0.07" d="M15.0779 13.9856L13.6833 15.3763L14.8684 16.5616L13.695 18.6458L22.5751 27.5261L24.727 27.5265L28.9294 19.979L22.2751 13.3241L15.0779 13.9856Z" fill="black"/>
    <path d="M22.1181 13.2684H13.8745C13.7418 13.2684 13.6334 13.3771 13.6334 13.51V15.2142C13.6334 15.3467 13.742 15.4553 13.8745 15.4553H22.1181C22.2508 15.4553 22.3595 15.3467 22.3595 15.2142V13.5096C22.3595 13.3771 22.251 13.2682 22.1183 13.2682L22.1181 13.2684ZM20.8419 14.8551C20.7112 14.8547 20.586 14.8026 20.4936 14.7101C20.4013 14.6176 20.3493 14.4923 20.3491 14.3617C20.349 14.2969 20.3617 14.2328 20.3865 14.173C20.4112 14.1132 20.4475 14.0589 20.4933 14.0131C20.5391 13.9673 20.5934 13.931 20.6532 13.9063C20.7131 13.8815 20.7772 13.8688 20.8419 13.8689C21.1144 13.8689 21.3353 14.0883 21.3353 14.3617C21.3353 14.4265 21.3225 14.4906 21.2977 14.5505C21.2729 14.6103 21.2366 14.6647 21.1908 14.7105C21.145 14.7564 21.0906 14.7927 21.0307 14.8175C20.9708 14.8423 20.9067 14.8551 20.8419 14.8551V14.8551ZM22.1181 16.5443L13.8745 16.5447C13.7418 16.5447 13.6334 16.6534 13.6334 16.7863V18.4902C13.6334 18.6227 13.742 18.7316 13.8745 18.7316H22.1181C22.2508 18.7316 22.3595 18.6227 22.3595 18.4902V16.7859C22.3595 16.6534 22.251 16.5443 22.1183 16.5443H22.1181ZM20.8419 18.1311C20.7112 18.1308 20.5859 18.0787 20.4936 17.9862C20.4012 17.8938 20.3492 17.7685 20.3491 17.6378C20.349 17.573 20.3617 17.5089 20.3865 17.4491C20.4112 17.3893 20.4475 17.3349 20.4933 17.2892C20.5391 17.2434 20.5934 17.2071 20.6532 17.1824C20.7131 17.1576 20.7772 17.1449 20.8419 17.145C20.9083 17.1423 20.9746 17.1531 21.0367 17.1766C21.0988 17.2002 21.1556 17.2361 21.2035 17.2821C21.2514 17.3282 21.2896 17.3834 21.3156 17.4446C21.3417 17.5057 21.3551 17.5715 21.3551 17.638C21.3551 17.7044 21.3417 17.7702 21.3156 17.8313C21.2896 17.8925 21.2514 17.9477 21.2035 17.9938C21.1556 18.0398 21.0988 18.0757 21.0367 18.0993C20.9746 18.1228 20.9083 18.1336 20.8419 18.1309" fill="white"/>
  </g>
  <path d="M52.92 14.96V22.1C52.16 22.4467 51.3067 22.7133 50.36 22.9C49.4267 23.0867 48.4667 23.18 47.48 23.18C45.9333 23.18 44.5867 22.8867 43.44 22.3C42.3067 21.7133 41.4333 20.8733 40.82 19.78C40.2067 18.6733 39.9 17.3667 39.9 15.86C39.9 14.3933 40.2067 13.1133 40.82 12.02C41.4333 10.9133 42.3 10.0667 43.42 9.48C44.54 8.88 45.8467 8.58 47.34 8.58C48.3667 8.58 49.3333 8.71333 50.24 8.98C51.16 9.24667 51.9067 9.61333 52.48 10.08L51.3 12.74C50.6467 12.3133 50.0133 12.0067 49.4 11.82C48.8 11.62 48.1533 11.52 47.46 11.52C46.1933 11.52 45.2467 11.88 44.62 12.6C44.0067 13.3067 43.7 14.3933 43.7 15.86C43.7 17.38 44.02 18.5067 44.66 19.24C45.3133 19.9733 46.3133 20.34 47.66 20.34C48.2867 20.34 48.9133 20.2733 49.54 20.14V17.5H47.06V14.96H52.92ZM60.2195 23.16C59.0862 23.16 58.0995 22.9467 57.2595 22.52C56.4195 22.0933 55.7729 21.48 55.3195 20.68C54.8662 19.88 54.6395 18.94 54.6395 17.86C54.6395 16.78 54.8662 15.84 55.3195 15.04C55.7729 14.24 56.4195 13.6267 57.2595 13.2C58.0995 12.7733 59.0862 12.56 60.2195 12.56C61.3395 12.56 62.3129 12.78 63.1395 13.22C63.9795 13.6467 64.6262 14.26 65.0795 15.06C65.5329 15.8467 65.7595 16.78 65.7595 17.86C65.7595 18.94 65.5329 19.88 65.0795 20.68C64.6262 21.4667 63.9795 22.08 63.1395 22.52C62.3129 22.9467 61.3395 23.16 60.2195 23.16ZM60.2195 20.46C61.5262 20.46 62.1795 19.5933 62.1795 17.86C62.1795 16.98 62.0129 16.3333 61.6795 15.92C61.3595 15.4933 60.8729 15.28 60.2195 15.28C59.5529 15.28 59.0529 15.4933 58.7195 15.92C58.3862 16.3333 58.2195 16.98 58.2195 17.86C58.2195 18.7533 58.3862 19.4133 58.7195 19.84C59.0529 20.2533 59.5529 20.46 60.2195 20.46ZM72.5828 23.16C71.4495 23.16 70.4628 22.9467 69.6228 22.52C68.7828 22.0933 68.1361 21.48 67.6828 20.68C67.2295 19.88 67.0028 18.94 67.0028 17.86C67.0028 16.78 67.2295 15.84 67.6828 15.04C68.1361 14.24 68.7828 13.6267 69.6228 13.2C70.4628 12.7733 71.4495 12.56 72.5828 12.56C73.7028 12.56 74.6761 12.78 75.5028 13.22C76.3428 13.6467 76.9895 14.26 77.4428 15.06C77.8961 15.8467 78.1228 16.78 78.1228 17.86C78.1228 18.94 77.8961 19.88 77.4428 20.68C76.9895 21.4667 76.3428 22.08 75.5028 22.52C74.6761 22.9467 73.7028 23.16 72.5828 23.16ZM72.5828 20.46C73.8895 20.46 74.5428 19.5933 74.5428 17.86C74.5428 16.98 74.3761 16.3333 74.0428 15.92C73.7228 15.4933 73.2361 15.28 72.5828 15.28C71.9161 15.28 71.4161 15.4933 71.0828 15.92C70.7495 16.3333 70.5828 16.98 70.5828 17.86C70.5828 18.7533 70.7495 19.4133 71.0828 19.84C71.4161 20.2533 71.9161 20.46 72.5828 20.46ZM90.6461 12.84V22.36C90.6461 24.0267 90.1461 25.2933 89.1461 26.16C88.1461 27.04 86.6794 27.48 84.7461 27.48C83.0928 27.48 81.6594 27.1867 80.4461 26.6L80.9861 23.96C81.5861 24.2267 82.1994 24.4333 82.8261 24.58C83.4661 24.74 84.0661 24.82 84.6261 24.82C85.4528 24.82 86.0594 24.64 86.4461 24.28C86.8461 23.9333 87.0461 23.3867 87.0461 22.64V21.14C86.7128 21.58 86.2594 21.9533 85.6861 22.26C85.1261 22.5667 84.5261 22.72 83.8861 22.72C83.0194 22.72 82.2394 22.5133 81.5461 22.1C80.8661 21.6733 80.3328 21.08 79.9461 20.32C79.5594 19.5467 79.3661 18.6533 79.3661 17.64C79.3661 16.64 79.5594 15.76 79.9461 15C80.3328 14.2267 80.8661 13.6267 81.5461 13.2C82.2394 12.7733 83.0194 12.56 83.8861 12.56C84.5661 12.56 85.1861 12.7 85.7461 12.98C86.3061 13.26 86.7394 13.64 87.0461 14.12V12.84H90.6461ZM85.0061 20.02C85.6461 20.02 86.1461 19.8133 86.5061 19.4C86.8661 18.9733 87.0461 18.3867 87.0461 17.64C87.0461 16.92 86.8661 16.3533 86.5061 15.94C86.1461 15.5133 85.6461 15.3 85.0061 15.3C84.3661 15.3 83.8594 15.5067 83.4861 15.92C83.1261 16.3333 82.9461 16.9067 82.9461 17.64C82.9461 18.3733 83.1328 18.9533 83.5061 19.38C83.8794 19.8067 84.3794 20.02 85.0061 20.02ZM92.7753 8.28H96.3953V23H92.7753V8.28ZM107.937 18.28H101.557C101.623 19.0667 101.85 19.6333 102.237 19.98C102.623 20.3267 103.19 20.5 103.937 20.5C104.443 20.5 104.95 20.42 105.457 20.26C105.963 20.0867 106.423 19.8533 106.837 19.56L107.757 21.96C107.25 22.3333 106.637 22.6267 105.917 22.84C105.197 23.0533 104.477 23.16 103.757 23.16C102.597 23.16 101.59 22.9467 100.737 22.52C99.8832 22.0933 99.2299 21.4867 98.7766 20.7C98.3232 19.9 98.0966 18.96 98.0966 17.88C98.0966 16.8533 98.3099 15.94 98.7366 15.14C99.1766 14.3267 99.7766 13.6933 100.537 13.24C101.31 12.7867 102.19 12.56 103.177 12.56C104.137 12.56 104.977 12.7733 105.697 13.2C106.417 13.6267 106.97 14.24 107.357 15.04C107.743 15.8267 107.937 16.7467 107.937 17.8V18.28ZM103.277 15.04C102.383 15.04 101.823 15.56 101.597 16.6H104.837C104.703 15.56 104.183 15.04 103.277 15.04ZM122.532 23.18C121.052 23.18 119.759 22.88 118.652 22.28C117.559 21.6667 116.712 20.8067 116.112 19.7C115.525 18.5933 115.232 17.3133 115.232 15.86C115.232 14.42 115.525 13.1533 116.112 12.06C116.712 10.9533 117.559 10.1 118.652 9.5C119.759 8.88667 121.052 8.58 122.532 8.58C123.465 8.58 124.365 8.72 125.232 9C126.112 9.28 126.819 9.66 127.352 10.14L126.212 12.8C125.052 11.96 123.852 11.54 122.612 11.54C121.465 11.54 120.585 11.9067 119.972 12.64C119.359 13.36 119.052 14.4333 119.052 15.86C119.052 17.3 119.359 18.3867 119.972 19.12C120.585 19.8533 121.465 20.22 122.612 20.22C123.852 20.22 125.052 19.8 126.212 18.96L127.352 21.62C126.819 22.1 126.112 22.48 125.232 22.76C124.365 23.04 123.465 23.18 122.532 23.18ZM129.103 8.28H132.723V23H129.103V8.28ZM140.005 23.16C138.871 23.16 137.885 22.9467 137.045 22.52C136.205 22.0933 135.558 21.48 135.105 20.68C134.651 19.88 134.425 18.94 134.425 17.86C134.425 16.78 134.651 15.84 135.105 15.04C135.558 14.24 136.205 13.6267 137.045 13.2C137.885 12.7733 138.871 12.56 140.005 12.56C141.125 12.56 142.098 12.78 142.925 13.22C143.765 13.6467 144.411 14.26 144.865 15.06C145.318 15.8467 145.545 16.78 145.545 17.86C145.545 18.94 145.318 19.88 144.865 20.68C144.411 21.4667 143.765 22.08 142.925 22.52C142.098 22.9467 141.125 23.16 140.005 23.16ZM140.005 20.46C141.311 20.46 141.965 19.5933 141.965 17.86C141.965 16.98 141.798 16.3333 141.465 15.92C141.145 15.4933 140.658 15.28 140.005 15.28C139.338 15.28 138.838 15.4933 138.505 15.92C138.171 16.3333 138.005 16.98 138.005 17.86C138.005 18.7533 138.171 19.4133 138.505 19.84C138.838 20.2533 139.338 20.46 140.005 20.46ZM157.468 12.84V23H153.928V21.64C153.275 22.6533 152.308 23.16 151.028 23.16C149.735 23.16 148.768 22.8 148.128 22.08C147.501 21.36 147.188 20.26 147.188 18.78V12.84H150.808V18.88C150.808 19.88 151.241 20.38 152.108 20.38C152.615 20.38 153.021 20.2 153.328 19.84C153.648 19.48 153.808 19 153.808 18.4V12.84H157.468ZM170.331 8.28V23H166.771V21.62C166.477 22.1 166.051 22.48 165.491 22.76C164.931 23.0267 164.317 23.16 163.651 23.16C162.784 23.16 162.011 22.94 161.331 22.5C160.651 22.0467 160.117 21.42 159.731 20.62C159.357 19.8067 159.171 18.8733 159.171 17.82C159.171 16.78 159.357 15.86 159.731 15.06C160.117 14.26 160.651 13.6467 161.331 13.22C162.011 12.78 162.784 12.56 163.651 12.56C164.291 12.56 164.877 12.6933 165.411 12.96C165.957 13.2267 166.391 13.5867 166.711 14.04V8.28H170.331ZM164.771 20.46C165.411 20.46 165.904 20.24 166.251 19.8C166.597 19.3467 166.771 18.7 166.771 17.86C166.771 17.0467 166.591 16.42 166.231 15.98C165.884 15.5267 165.397 15.3 164.771 15.3C164.117 15.3 163.617 15.52 163.271 15.96C162.924 16.3867 162.751 17.0067 162.751 17.82C162.751 18.66 162.924 19.3133 163.271 19.78C163.631 20.2333 164.131 20.46 164.771 20.46Z" fill="#24292E"/>
  <defs>
    <linearGradient id="paint0_linear_5:11474" x1="17.9999" y1="4.66667" x2="17.9999" y2="27.2981" gradientUnits="userSpaceOnUse">
      <stop stop-color="#4387FD"/>
      <stop offset="1" stop-color="#4683EA"/>
    </linearGradient>
    <clipPath id="clip0_5:11474">
      <rect width="34" height="34" fill="white"/>
    </clipPath>
  </defs>
</svg>
