<svg width="42" height="90" viewBox="0 0 42 90" fill="none" xmlns="http://www.w3.org/2000/svg">
<g clip-path="url(#clip0)">
<path d="M0.652715 12.53H-0.264404V25.5007H0.652715V12.53Z" fill="#535461"/>
<path d="M0.652715 29.9551H-0.264404V37.292H0.652715V29.9551Z" fill="#535461"/>
<path d="M35.4901 -0.178711H6.56152C3.15343 -0.178711 0.390625 2.58409 0.390625 5.99219V83.266C0.390625 86.6741 3.15343 89.4369 6.56152 89.4369H35.4901C38.8981 89.4369 41.661 86.6741 41.661 83.266V5.99219C41.661 2.58409 38.8981 -0.178711 35.4901 -0.178711Z" fill="#535461"/>
<path d="M34.5592 4.01392H7.22205C4.00144 4.01392 1.39062 6.77672 1.39062 10.1848V79.4666C1.39062 82.8747 4.00144 85.6375 7.22205 85.6375H34.5592C37.7798 85.6375 40.3906 82.8747 40.3906 79.4666V10.1848C40.3906 6.77672 37.7798 4.01392 34.5592 4.01392Z" fill="#BEC4DA"/>
<path d="M24.0391 1.78662H18.1434C17.8901 1.78662 17.6848 1.99193 17.6848 2.24518C17.6848 2.49844 17.8901 2.70374 18.1434 2.70374H24.0391C24.2924 2.70374 24.4977 2.49844 24.4977 2.24518C24.4977 1.99193 24.2924 1.78662 24.0391 1.78662Z" fill="#EAEAF3"/>
<path d="M26.856 2.96569C27.2178 2.96569 27.5111 2.6724 27.5111 2.3106C27.5111 1.94881 27.2178 1.65552 26.856 1.65552C26.4942 1.65552 26.2009 1.94881 26.2009 2.3106C26.2009 2.6724 26.4942 2.96569 26.856 2.96569Z" fill="#EAEAF3"/>
</g>
<g clip-path="url(#clip1)">
<path d="M9.18826 66.6437H11.33V57.5265H9.18826V66.6437ZM10.2549 56.3309C10.9257 56.3309 11.4504 55.8148 11.4504 55.1698C11.4504 54.516 10.9257 54 10.2549 54C9.59252 54 9.06787 54.5161 9.06787 55.1698C9.06787 55.8148 9.59252 56.3309 10.2549 56.3309ZM18.4605 54.0257C14.8396 54.0257 12.5688 56.4943 12.5688 60.4423C12.5688 64.3903 14.8394 66.8503 18.4607 66.8503C22.073 66.8503 24.3438 64.3903 24.3438 60.4423C24.3438 56.4943 22.0732 54.0257 18.4607 54.0257H18.4605ZM18.4605 55.918C20.6711 55.918 22.0816 57.6727 22.0816 60.4422C22.0816 63.2032 20.6711 64.9579 18.4607 64.9579C16.2415 64.9579 14.8396 63.2033 14.8396 60.4422C14.8396 57.6727 16.2416 55.918 18.4607 55.918H18.4605ZM25.2474 63.1516C25.342 65.4396 27.217 66.8501 30.0725 66.8501C33.0744 66.8501 34.9667 65.3707 34.9667 63.0139C34.9667 61.1647 33.9002 60.124 31.38 59.5477L29.9522 59.2209C28.4298 58.8597 27.8019 58.378 27.8019 57.5523C27.8019 56.5201 28.7481 55.832 30.15 55.832C31.5692 55.832 32.5411 56.5288 32.6444 57.6899H34.7602C34.7086 55.5052 32.9024 54.0257 30.1672 54.0257C27.4665 54.0257 25.5484 55.5137 25.5484 57.7157C25.5484 59.4875 26.6321 60.5884 28.9199 61.1132L30.5284 61.4915C32.0938 61.8615 32.7303 62.3776 32.7303 63.2721C32.7303 64.3042 31.6895 65.0439 30.193 65.0439C28.6793 65.0439 27.5354 64.2956 27.3978 63.1516H25.2474Z" fill="white"/>
</g>
<path d="M30.9425 40.6129C30.6194 41.366 30.2203 42.0841 29.7513 42.7561C29.1248 43.6509 28.6103 44.2693 28.216 44.6134C27.6035 45.1758 26.9455 45.4651 26.242 45.4814C25.738 45.4814 25.129 45.3379 24.4197 45.0463C23.708 44.7558 23.0547 44.6134 22.4562 44.6134C21.8297 44.6134 21.1577 44.7558 20.4378 45.0463C19.7192 45.3379 19.1382 45.4908 18.6937 45.5048C18.0205 45.5339 17.3473 45.2376 16.6765 44.6134C16.2483 44.2401 15.7128 43.5984 15.07 42.6908C14.3817 41.7236 13.8158 40.5978 13.3725 39.3179C12.8977 37.9331 12.6597 36.5938 12.6597 35.2964C12.6597 33.8113 12.9805 32.5291 13.6233 31.4558C14.1095 30.6128 14.8046 29.9093 15.6417 29.4129C16.467 28.9179 17.4093 28.6513 18.3717 28.6406C18.9083 28.6406 19.6118 28.8063 20.4833 29.1329C21.3548 29.4596 21.9148 29.6253 22.1587 29.6253C22.343 29.6253 22.9625 29.4304 24.0172 29.0443C25.0123 28.6861 25.8523 28.5379 26.5407 28.5963C28.4073 28.7468 29.8085 29.4818 30.7407 30.8071C29.0723 31.8186 28.2475 33.2338 28.2638 35.0503C28.2778 36.4654 28.7923 37.6426 29.8003 38.5771C30.246 39.0036 30.7659 39.3448 31.3345 39.5839C31.2108 39.9421 31.0802 40.2839 30.9425 40.6129ZM26.6643 23.7768C26.6643 24.8851 26.2583 25.9211 25.4522 26.8789C24.4768 28.0176 23.2985 28.6768 22.021 28.5729C22.0043 28.4336 21.9961 28.2933 21.9965 28.1529C21.9965 27.0878 22.4585 25.9491 23.2833 25.0169C23.694 24.5456 24.2167 24.1524 24.8502 23.8398C25.4825 23.5318 26.0798 23.3614 26.6422 23.3323C26.6573 23.4816 26.6643 23.6298 26.6643 23.7768Z" fill="white"/>
<defs>
<clipPath id="clip0">
<rect width="41.6842" height="90" fill="white"/>
</clipPath>
<clipPath id="clip1">
<rect width="26" height="12.9494" fill="white" transform="translate(9 54)"/>
</clipPath>
</defs>
</svg>
