<svg width="81" height="59" viewBox="0 0 81 59" fill="none" xmlns="http://www.w3.org/2000/svg">
<path d="M40.853 58.6212C62.9444 58.6212 80.853 57.5756 80.853 56.2859C80.853 54.9961 62.9444 53.9505 40.853 53.9505C18.7616 53.9505 0.853027 54.9961 0.853027 56.2859C0.853027 57.5756 18.7616 58.6212 40.853 58.6212Z" fill="#F5F5F5"/>
<path d="M69.2635 32.1826C70.1786 31.0027 70.8711 29.3337 70.6204 27.6296C69.125 27.733 67.377 28.6902 66.3584 29.9368C65.4292 31.0676 64.6649 32.7471 64.9629 34.3793C66.5969 34.4302 68.2852 33.4501 69.2635 32.1826Z" fill="#455A64"/>
<path d="M76.5307 37.0406C75.0949 35.2401 73.0769 34.1952 71.1712 34.1952C68.6554 34.1952 67.5912 35.3997 65.8433 35.3997C64.041 35.3997 62.6718 34.1987 60.4961 34.1987C58.359 34.1987 56.0833 35.5048 54.6405 37.7384C52.612 40.8836 52.9591 46.7971 56.2464 51.834C57.4228 53.6363 58.9936 55.663 61.0483 55.6805C62.8769 55.698 63.3924 54.5076 65.8696 54.4953C68.3468 54.4813 68.8167 55.6963 70.6418 55.677C72.6983 55.6612 74.355 53.4154 75.5314 51.6131C76.3747 50.321 76.6885 49.6706 77.3424 48.2119C72.586 46.4009 71.8234 39.6371 76.5307 37.0406Z" fill="#455A64"/>
<path d="M17.262 3.6735C17.3038 4.07916 17.4926 4.45548 17.7929 4.73143C18.0932 5.00737 18.4841 5.16382 18.8918 5.17126H29.5061C29.6979 5.17473 29.8883 5.13731 30.0646 5.06147C30.2409 4.98563 30.399 4.87312 30.5284 4.73142C30.6578 4.58972 30.7555 4.42209 30.8151 4.23968C30.8747 4.05727 30.8947 3.86426 30.8739 3.6735L30.7336 2.0664H17.1279L17.262 3.6735Z" fill="#407BFF"/>
<path d="M33.5269 1.11123H14.217C13.6455 1.10177 13.0785 1.21396 12.5537 1.44035C12.0288 1.66675 11.5581 2.00217 11.1728 2.42437C10.7875 2.84657 10.4963 3.34588 10.3187 3.88918C10.1411 4.43248 10.081 5.00734 10.1425 5.57562L14.2026 51.9627C14.3259 53.1723 14.8877 54.2949 15.782 55.1185C16.6764 55.9421 17.8413 56.4098 19.0569 56.4333H38.3771C38.9486 56.4428 39.5156 56.3306 40.0405 56.1042C40.5653 55.8778 41.036 55.5424 41.4213 55.1202C41.8067 54.698 42.0978 54.1987 42.2754 53.6554C42.453 53.1121 42.5131 52.5372 42.4516 51.9689L38.3771 5.57562C38.2517 4.36822 37.6895 3.24821 36.7964 2.4261C35.9032 1.604 34.7406 1.13641 33.5269 1.11123Z" fill="#407BFF"/>
<g opacity="0.4">
<path opacity="0.4" d="M17.262 3.67351C17.3038 4.07917 17.4926 4.4555 17.7929 4.73144C18.0932 5.00738 18.4841 5.16384 18.8918 5.17127H29.5061C29.6979 5.17475 29.8883 5.13732 30.0646 5.06148C30.2409 4.98565 30.399 4.87313 30.5284 4.73144C30.6578 4.58974 30.7555 4.42211 30.8151 4.23969C30.8747 4.05728 30.8947 3.86427 30.8739 3.67351L30.7336 2.06642H17.1279L17.262 3.67351Z" fill="white"/>
<path opacity="0.4" d="M33.5269 1.11123H14.217C13.6455 1.10177 13.0785 1.21396 12.5537 1.44035C12.0288 1.66675 11.5581 2.00217 11.1728 2.42437C10.7875 2.84657 10.4963 3.34588 10.3187 3.88918C10.1411 4.43248 10.081 5.00734 10.1425 5.57562L14.2026 51.9627C14.3259 53.1723 14.8877 54.2949 15.782 55.1185C16.6764 55.9421 17.8413 56.4098 19.0569 56.4333H38.3771C38.9486 56.4428 39.5156 56.3306 40.0405 56.1042C40.5653 55.8778 41.036 55.5424 41.4213 55.1202C41.8067 54.698 42.0978 54.1987 42.2754 53.6554C42.453 53.1121 42.5131 52.5372 42.4516 51.9689L38.3771 5.57562C38.2517 4.36822 37.6895 3.24821 36.7964 2.4261C35.9032 1.604 34.7406 1.13641 33.5269 1.11123Z" fill="white"/>
</g>
<path d="M34.8015 2.06435H15.4916C15.0392 2.05635 14.5903 2.14484 14.1747 2.32392C13.7591 2.503 13.3865 2.76857 13.0816 3.10294C12.7767 3.43731 12.5466 3.8328 12.4065 4.26308C12.2664 4.69335 12.2196 5.14854 12.2692 5.59831L16.3272 51.9834C16.4244 52.9403 16.869 53.8284 17.5769 54.4796C18.2848 55.1309 19.2068 55.5001 20.1685 55.5173H39.4784C39.9315 55.5265 40.3814 55.4389 40.798 55.2604C41.2145 55.0818 41.5882 54.8164 41.894 54.4819C42.1998 54.1474 42.4307 53.7515 42.5712 53.3206C42.7118 52.8898 42.7588 52.4339 42.7091 51.9834L38.645 5.59831C38.5472 4.6412 38.1022 3.75307 37.394 3.10188C36.6858 2.45068 35.7635 2.08157 34.8015 2.06435Z" fill="#407BFF"/>
<path opacity="0.3" d="M34.8015 2.06435H15.4916C15.0392 2.05635 14.5903 2.14484 14.1747 2.32392C13.7591 2.503 13.3865 2.76857 13.0816 3.10294C12.7767 3.43731 12.5466 3.8328 12.4065 4.26308C12.2664 4.69335 12.2196 5.14854 12.2692 5.59831L16.3272 51.9834C16.4244 52.9403 16.869 53.8284 17.5769 54.4796C18.2848 55.1309 19.2068 55.5001 20.1685 55.5173H39.4784C39.9315 55.5265 40.3814 55.4389 40.798 55.2604C41.2145 55.0818 41.5882 54.8164 41.894 54.4819C42.1998 54.1474 42.4307 53.7515 42.5712 53.3206C42.7118 52.8898 42.7588 52.4339 42.7091 51.9834L38.645 5.59831C38.5472 4.6412 38.1022 3.75307 37.394 3.10188C36.6858 2.45068 35.7635 2.08157 34.8015 2.06435Z" fill="white"/>
<path d="M34.7213 1.14424H15.4114C14.8398 1.13477 14.2728 1.24696 13.748 1.47336C13.2231 1.69975 12.7524 2.03518 12.3671 2.45737C11.9818 2.87957 11.6907 3.37888 11.513 3.92218C11.3354 4.46548 11.2754 5.04034 11.3369 5.60862L15.3949 51.9834C15.5196 53.1921 16.0823 54.3135 16.977 55.1359C17.8716 55.9583 19.0362 56.4249 20.2512 56.4478H39.5611C40.1327 56.4576 40.6997 56.3456 41.2247 56.1193C41.7496 55.893 42.2203 55.5576 42.6055 55.1353C42.9908 54.7129 43.2817 54.2135 43.4589 53.67C43.6362 53.1266 43.6957 52.5516 43.6335 51.9834L39.5756 5.59831C39.449 4.39156 38.8856 3.27271 37.9916 2.45238C37.0975 1.63204 35.9344 1.1668 34.7213 1.14424ZM42.7093 51.9834C42.7589 52.4333 42.7121 52.8887 42.5719 53.3191C42.4317 53.7495 42.2013 54.1451 41.8962 54.4795C41.5911 54.8139 41.2182 55.0795 40.8024 55.2584C40.3866 55.4374 39.9374 55.5256 39.4848 55.5173H20.1749C19.2132 55.5 18.2911 55.1309 17.5833 54.4796C16.8754 53.8284 16.4308 52.9403 16.3335 51.9834L12.2694 5.59831C12.2198 5.14853 12.2666 4.69334 12.4067 4.26307C12.5467 3.83279 12.7769 3.4373 13.0818 3.10293C13.3867 2.76857 13.7593 2.503 14.1749 2.32391C14.5904 2.14483 15.0394 2.05634 15.4918 2.06435H34.8017C35.7637 2.08157 36.6859 2.45068 37.3942 3.10187C38.1024 3.75306 38.5474 4.64119 38.6451 5.59831L42.7093 51.9834Z" fill="#4A73C8"/>
<path d="M18.3159 2.0891C18.3829 2.74622 18.6884 3.35599 19.1747 3.80306C19.6609 4.25013 20.2941 4.50349 20.9545 4.51522H29.7121C30.0227 4.52057 30.3309 4.45974 30.6162 4.33677C30.9015 4.21379 31.1573 4.0315 31.3667 3.80201C31.5761 3.57252 31.7343 3.30108 31.8306 3.00574C31.927 2.7104 31.9594 2.39793 31.9257 2.0891H18.3159Z" fill="#263238"/>
<path d="M42.6085 50.89H16.2306L12.6802 10.2999H39.056L42.6085 50.89Z" fill="white"/>
<path d="M22.3888 8.6227H22.2155L22.0649 6.88976H22.3084L22.82 8.14201L22.7107 6.88976H22.8798L23.0325 8.6227H22.8262L22.2609 7.2219L22.3888 8.6227Z" fill="#263238"/>
<path d="M23.1107 7.30856C23.088 7.0445 23.2035 6.87327 23.4697 6.87327C23.5277 6.86998 23.5858 6.87898 23.6401 6.89969C23.6944 6.92041 23.7437 6.95236 23.7848 6.99345C23.8259 7.03455 23.8578 7.08386 23.8785 7.13817C23.8992 7.19247 23.9083 7.25054 23.905 7.30856L23.9834 8.20392C24.006 8.46798 23.8905 8.63921 23.6244 8.63921C23.5664 8.6425 23.5083 8.6335 23.454 8.61278C23.3997 8.59207 23.3504 8.56012 23.3093 8.51903C23.2682 8.47793 23.2362 8.42861 23.2155 8.37431C23.1948 8.32001 23.1858 8.26194 23.1891 8.20392L23.1107 7.30856ZM23.381 8.21423C23.3954 8.37308 23.4697 8.46386 23.6079 8.46386C23.7461 8.46386 23.8142 8.37308 23.7915 8.21423L23.711 7.29825C23.6987 7.14352 23.6244 7.04862 23.4841 7.04862C23.3438 7.04862 23.2778 7.14352 23.3005 7.29825L23.381 8.21423Z" fill="#263238"/>
<path d="M24.4435 8.6227L24.3074 7.06718H23.9876L23.9731 6.88976H24.7984L24.8128 7.06718H24.493L24.6292 8.6227H24.4435Z" fill="#263238"/>
<path d="M25.6175 7.6572L25.6319 7.8305H25.209L25.2626 8.44941H25.7928L25.8073 8.62476H25.0955L24.9429 6.89182H25.6567L25.6711 7.06924H25.1512L25.2028 7.65927L25.6175 7.6572Z" fill="#263238"/>
<path d="M26.3597 8.6227L26.207 6.88976H26.4113L26.5474 8.44734H27.0302L27.0446 8.6227H26.3597Z" fill="#263238"/>
<path d="M27.2368 6.88976L27.3894 8.6227H27.1955L27.0449 6.88976H27.2368Z" fill="#263238"/>
<path d="M28.2187 7.3065V7.35395H28.0372V7.29618C28.0248 7.14145 27.9567 7.04862 27.8185 7.04862C27.6803 7.04862 27.6287 7.14145 27.6411 7.29412C27.6761 7.68197 28.26 7.7191 28.3033 8.20804C28.326 8.47004 28.2146 8.63921 27.9505 8.63921C27.8935 8.64126 27.8367 8.63148 27.7837 8.61049C27.7307 8.58949 27.6826 8.55774 27.6425 8.51722C27.6024 8.47671 27.5711 8.42832 27.5506 8.3751C27.5301 8.32188 27.5209 8.265 27.5235 8.20804V8.10901H27.703V8.21629C27.7174 8.37308 27.7896 8.46385 27.9278 8.46385C28.066 8.46385 28.1217 8.37308 28.1094 8.21629C28.0743 7.8305 27.4905 7.80368 27.4492 7.3065C27.4265 7.0383 27.5359 6.87326 27.7958 6.87326C28.0557 6.87326 28.196 7.04449 28.2187 7.3065Z" fill="#263238"/>
<path d="M28.755 8.6227L28.6189 7.06718H28.3012L28.2847 6.88976H29.1099L29.1243 7.06718H28.8066L28.9428 8.6227H28.755Z" fill="#263238"/>
<path d="M14.7224 13.0025H14.5677L14.2252 11.8472L14.3263 13.0046H14.186L14.0581 11.5605H14.285L14.6254 12.7199L14.7533 11.5605H14.9803L15.1082 13.0046H14.9535L14.8524 11.8369L14.7224 13.0025Z" fill="#263238"/>
<path d="M15.1639 11.9029C15.1453 11.6801 15.2422 11.5378 15.4651 11.5378C15.5136 11.5357 15.562 11.5438 15.6072 11.5614C15.6524 11.579 15.6935 11.6058 15.7278 11.6402C15.7621 11.6745 15.789 11.7156 15.8066 11.7608C15.8242 11.806 15.8323 11.8544 15.8302 11.9029L15.8962 12.6539C15.9148 12.8746 15.8178 13.019 15.593 13.019C15.5446 13.0208 15.4965 13.0125 15.4515 12.9947C15.4065 12.977 15.3657 12.9501 15.3316 12.9158C15.2975 12.8815 15.2708 12.8405 15.2533 12.7955C15.2358 12.7504 15.2278 12.7022 15.2299 12.6539L15.1639 11.9029ZM15.3908 12.6621C15.3908 12.7941 15.4651 12.8684 15.5806 12.8684C15.6961 12.8684 15.7456 12.79 15.7353 12.6621L15.6672 11.8947C15.6672 11.7647 15.595 11.6884 15.4774 11.6884C15.3598 11.6884 15.3124 11.7688 15.3227 11.8947L15.3908 12.6621Z" fill="#263238"/>
<path d="M16.222 13.0046H16.0776L15.9497 11.5605H16.156L16.5831 12.6105L16.4923 11.5605H16.6346L16.7625 13.0046H16.5934L16.1209 11.8307L16.222 13.0046Z" fill="#263238"/>
<path d="M17.1425 11.5522C17.3674 11.5522 17.4829 11.6884 17.5035 11.9132L17.5675 12.6456C17.586 12.8684 17.4953 13.0046 17.2683 13.0046H16.9217L16.7959 11.5605L17.1425 11.5522ZM17.2539 12.8581C17.3694 12.8581 17.4189 12.7838 17.4086 12.6518L17.3426 11.905C17.3302 11.7729 17.2683 11.6987 17.1507 11.6987H16.9754L17.0765 12.856L17.2539 12.8581Z" fill="#263238"/>
<path d="M17.885 12.7116L17.8562 13.0046H17.7056L17.8562 11.5605H18.0914L18.504 13.0046H18.343L18.2605 12.7116H17.885ZM17.8954 12.5734H18.2172L17.9799 11.7358L17.8954 12.5734Z" fill="#263238"/>
<path d="M18.8341 12.4909L18.4463 11.5584H18.6134L18.9022 12.2722L19.0693 11.5584H19.222L18.9951 12.4909L19.0404 13.0107H18.8795L18.8341 12.4909Z" fill="#263238"/>
<path d="M35.134 12.1525C35.1393 12.1993 35.1346 12.2466 35.1201 12.2913C35.1056 12.336 35.0818 12.3771 35.0501 12.4119C35.0185 12.4467 34.9798 12.4743 34.9366 12.4929C34.8934 12.5115 34.8468 12.5206 34.7998 12.5198C34.6999 12.5174 34.6043 12.4788 34.5307 12.4113C34.4571 12.3438 34.4105 12.2518 34.3996 12.1525C34.3942 12.1057 34.399 12.0582 34.4136 12.0133C34.4282 11.9684 34.4522 11.9272 34.4841 11.8924C34.516 11.8576 34.5549 11.83 34.5984 11.8116C34.6418 11.7931 34.6887 11.7841 34.7358 11.7853C34.8353 11.7882 34.9304 11.827 35.0036 11.8945C35.0768 11.9619 35.1231 12.0536 35.134 12.1525Z" fill="#263238"/>
<path d="M36.5328 12.1525C36.5374 12.1993 36.5322 12.2465 36.5173 12.2911C36.5025 12.3357 36.4784 12.3766 36.4467 12.4113C36.415 12.4459 36.3763 12.4735 36.3332 12.4922C36.2901 12.5109 36.2435 12.5203 36.1965 12.5198C36.0967 12.5174 36.0011 12.4788 35.9275 12.4113C35.8539 12.3438 35.8073 12.2518 35.7963 12.1525C35.7913 12.1057 35.7963 12.0584 35.8111 12.0136C35.8258 11.9689 35.8498 11.9278 35.8816 11.8931C35.9134 11.8584 35.9522 11.8308 35.9955 11.8122C36.0388 11.7936 36.0855 11.7845 36.1326 11.7853C36.2324 11.7877 36.328 11.8263 36.4016 11.8938C36.4752 11.9613 36.5218 12.0533 36.5328 12.1525Z" fill="#263238"/>
<path d="M37.9295 12.1525C37.9345 12.1994 37.9295 12.2467 37.9148 12.2914C37.9001 12.3362 37.876 12.3772 37.8442 12.412C37.8124 12.4467 37.7736 12.4743 37.7303 12.4928C37.6871 12.5114 37.6404 12.5206 37.5933 12.5198C37.4934 12.5174 37.3978 12.4788 37.3242 12.4113C37.2506 12.3438 37.204 12.2518 37.193 12.1525C37.1884 12.1058 37.1937 12.0586 37.2085 12.014C37.2233 11.9694 37.2474 11.9284 37.2791 11.8938C37.3109 11.8591 37.3496 11.8316 37.3927 11.8129C37.4358 11.7942 37.4823 11.7848 37.5293 11.7853C37.6292 11.7877 37.7248 11.8262 37.7984 11.8938C37.872 11.9613 37.9186 12.0532 37.9295 12.1525Z" fill="#263238"/>
<path d="M31.3304 48.9327C32.4193 47.7952 32.2959 45.91 31.0547 44.7218C29.8136 43.5337 27.9247 43.4926 26.8358 44.63C25.747 45.7675 25.8704 47.6527 27.1116 48.8409C28.3527 50.029 30.2416 50.0701 31.3304 48.9327Z" fill="#407BFF"/>
<path d="M29.2525 48.7135C29.1963 48.7123 29.1425 48.6907 29.1011 48.6527C29.0598 48.6148 29.0336 48.563 29.0276 48.5072L28.7326 45.1238C28.7297 45.0976 28.7324 45.071 28.7405 45.0459C28.7486 45.0208 28.762 44.9977 28.7798 44.9782C28.7976 44.9587 28.8193 44.9432 28.8435 44.9327C28.8678 44.9222 28.8939 44.9171 28.9203 44.9175C28.9765 44.9187 29.0303 44.9403 29.0717 44.9783C29.1131 45.0162 29.1392 45.068 29.1452 45.1238L29.4402 48.5072C29.4431 48.5334 29.4405 48.56 29.4323 48.5851C29.4242 48.6102 29.4108 48.6333 29.393 48.6528C29.3753 48.6723 29.3535 48.6878 29.3293 48.6983C29.3051 48.7088 29.2789 48.7139 29.2525 48.7135Z" fill="white"/>
<path d="M30.7442 47.0218H27.3608C27.3046 47.0206 27.2508 46.999 27.2095 46.961C27.1681 46.9231 27.1419 46.8713 27.1359 46.8155C27.133 46.7891 27.1357 46.7623 27.144 46.7371C27.1522 46.7118 27.1658 46.6886 27.1838 46.6691C27.2018 46.6495 27.2238 46.6341 27.2483 46.6237C27.2727 46.6134 27.2992 46.6084 27.3257 46.6092H30.7029C30.759 46.6104 30.8128 46.632 30.8542 46.6699C30.8956 46.7079 30.9218 46.7597 30.9278 46.8155C30.9307 46.8414 30.9281 46.8676 30.9202 46.8924C30.9123 46.9172 30.8993 46.9401 30.8819 46.9596C30.8646 46.979 30.8434 46.9946 30.8197 47.0053C30.7959 47.0161 30.7702 47.0217 30.7442 47.0218Z" fill="white"/>
<path d="M36.5306 19.27H16.6761C16.1255 19.2606 15.5976 19.0497 15.1922 18.677C14.7869 18.3044 14.5324 17.796 14.4769 17.2482C14.4484 16.9908 14.4751 16.7303 14.5553 16.484C14.6354 16.2378 14.7671 16.0114 14.9417 15.8201C15.1162 15.6288 15.3295 15.4768 15.5674 15.3745C15.8053 15.2721 16.0623 15.2216 16.3212 15.2264H36.1758C36.7262 15.2362 37.2539 15.4473 37.6591 15.8199C38.0644 16.1924 38.319 16.7006 38.375 17.2482C38.4035 17.5056 38.3767 17.7661 38.2966 18.0124C38.2164 18.2587 38.0847 18.485 37.9102 18.6763C37.7356 18.8677 37.5223 19.0196 37.2844 19.1219C37.0465 19.2243 36.7896 19.2748 36.5306 19.27Z" fill="#407BFF"/>
<path d="M20.3093 17.8878H20.1546L19.8101 16.749L19.9091 17.8898H19.7709L19.645 16.4581H19.8678L20.2041 17.601L20.3299 16.4581H20.5528L20.6786 17.8898H20.528L20.4269 16.7386L20.3093 17.8878Z" fill="white"/>
<path d="M21.2889 17.0914L21.3012 17.2358H20.9526L20.9959 17.7454H21.4271L21.4395 17.8898H20.8412L20.7153 16.4581H21.3054L21.3177 16.6025H20.8886L20.932 17.0914H21.2889Z" fill="white"/>
<path d="M22.0257 17.0914L22.0381 17.2358H21.6894L21.7328 17.7454H22.1639L22.1763 17.8898H21.5863L21.4604 16.4581H22.0505L22.0629 16.6025H21.6337L21.6771 17.0914H22.0257Z" fill="white"/>
<path d="M22.5286 17.8898L22.4151 16.6025H22.1531L22.1387 16.4581H22.8257L22.838 16.6025H22.574L22.6854 17.8898H22.5286Z" fill="white"/>
<path d="M23.092 16.4581L23.2178 17.8898H23.059L22.9331 16.4581H23.092Z" fill="white"/>
<path d="M23.5231 17.8898H23.3787L23.2549 16.4581H23.4612L23.8738 17.4896L23.783 16.4581H23.9357L24.0615 17.8898H23.8944L23.4282 16.7325L23.5231 17.8898Z" fill="white"/>
<path d="M24.7613 16.8026L24.7716 16.9264H24.621L24.6086 16.7943C24.6086 16.6664 24.5406 16.588 24.423 16.588C24.3054 16.588 24.262 16.6664 24.2744 16.7943L24.3404 17.5515C24.3404 17.6814 24.4106 17.7578 24.5261 17.7578C24.6416 17.7578 24.687 17.6814 24.6767 17.5515L24.6499 17.2647H24.5034L24.491 17.1224H24.7902L24.8273 17.535C24.8459 17.7413 24.7551 17.896 24.5344 17.896C24.487 17.8972 24.4399 17.8886 24.396 17.8708C24.3521 17.8529 24.3124 17.8262 24.2793 17.7924C24.2462 17.7585 24.2204 17.7181 24.2036 17.6739C24.1868 17.6296 24.1793 17.5823 24.1816 17.535L24.1176 16.7943C24.0991 16.5777 24.1878 16.4354 24.4065 16.4354C24.4546 16.4335 24.5026 16.4418 24.5474 16.4598C24.5921 16.4777 24.6325 16.5049 24.666 16.5396C24.6995 16.5743 24.7253 16.6156 24.7417 16.6609C24.7581 16.7063 24.7648 16.7545 24.7613 16.8026Z" fill="white"/>
<path d="M25.6998 17.8898H25.4791L25.1572 16.4581H25.314L25.5884 17.6773L25.642 16.4601H25.7926L26.0567 17.6794L26.1124 16.4581H26.2506L26.1825 17.8898H25.9762L25.7555 16.9181L25.6998 17.8898Z" fill="white"/>
<path d="M26.5457 16.4581L26.6695 17.8898H26.5106L26.3848 16.4581H26.5457Z" fill="white"/>
<path d="M27.0408 17.8898L26.9273 16.6025H26.6633L26.6509 16.4581H27.3358L27.3482 16.6025H27.0862L27.1976 17.8898H27.0408Z" fill="white"/>
<path d="M27.6722 17.2462L27.73 17.8898H27.5691L27.4453 16.4581H27.6042L27.6599 17.1017H28.0126L27.9569 16.4581H28.1158L28.2416 17.8898H28.0807L28.025 17.2462H27.6722Z" fill="white"/>
<path d="M29.2584 16.8026V16.9326H29.1078L29.0954 16.7943C29.0851 16.6664 29.0273 16.588 28.9097 16.588C28.7921 16.588 28.7488 16.6664 28.7591 16.7943L28.8272 17.5515C28.8375 17.6814 28.8974 17.7578 29.0129 17.7578C29.1284 17.7578 29.1738 17.6814 29.1614 17.5515L29.1449 17.3658H29.2996L29.3141 17.5432C29.3327 17.7495 29.2439 17.9042 29.0232 17.9042C28.9758 17.9054 28.9288 17.8968 28.8849 17.879C28.841 17.8612 28.8012 17.8345 28.7681 17.8006C28.735 17.7667 28.7093 17.7264 28.6924 17.6821C28.6756 17.6378 28.6681 17.5905 28.6704 17.5432L28.6044 16.8026C28.5858 16.586 28.6766 16.4436 28.8953 16.4436C28.9434 16.4407 28.9916 16.4479 29.0367 16.4648C29.0818 16.4818 29.1229 16.508 29.1571 16.5419C29.1914 16.5758 29.2181 16.6165 29.2356 16.6614C29.253 16.7064 29.2608 16.7545 29.2584 16.8026Z" fill="white"/>
<path d="M29.5062 17.8898L29.3804 16.4581H29.5413L29.6527 17.7454H30.0653L30.0777 17.8898H29.5062Z" fill="white"/>
<path d="M30.222 16.4581L30.3478 17.8898H30.1869L30.061 16.4581H30.222Z" fill="white"/>
<path d="M30.95 17.0914L30.9624 17.2358H30.6117L30.6571 17.7454H31.0862L31.0986 17.8898H30.5106L30.3848 16.4581H30.9748L30.9872 16.6025H30.5581L30.5993 17.0914H30.95Z" fill="white"/>
<path d="M31.3873 17.8898H31.245L31.1191 16.4581H31.3254L31.7381 17.4896L31.6473 16.4581H31.7876L31.9134 17.8898H31.7484L31.2801 16.7325L31.3873 17.8898Z" fill="white"/>
<path d="M32.2892 17.8898L32.1778 16.6025H31.9137L31.9014 16.4581H32.5863L32.5987 16.6025H32.3346L32.4481 17.8898H32.2892Z" fill="white"/>
<path d="M18.1097 17.176C18.1308 17.3691 18.1106 17.5645 18.0503 17.7491C17.9901 17.9338 17.8912 18.1035 17.7602 18.2469C17.6292 18.3904 17.4692 18.5043 17.2908 18.5811C17.1124 18.6579 16.9196 18.6958 16.7254 18.6923C16.3124 18.6854 15.9163 18.5272 15.6121 18.2477C15.308 17.9682 15.1169 17.5869 15.075 17.176C15.0539 16.9829 15.0741 16.7875 15.1344 16.6029C15.1947 16.4182 15.2936 16.2485 15.4245 16.105C15.5555 15.9616 15.7155 15.8477 15.8939 15.7709C16.0724 15.6941 16.2651 15.6562 16.4593 15.6597C16.8722 15.6671 17.268 15.8254 17.5721 16.1048C17.8762 16.3842 18.0674 16.7652 18.1097 17.176Z" fill="white"/>
<path d="M37.1061 25.8613H17.2515C16.7011 25.8516 16.1734 25.6404 15.7682 25.2679C15.3629 24.8953 15.1082 24.3872 15.0523 23.8396C15.0241 23.5821 15.0512 23.3215 15.1316 23.0752C15.2119 22.829 15.3439 22.6027 15.5186 22.4114C15.6933 22.2201 15.9067 22.0682 16.1447 21.9659C16.3827 21.8635 16.6397 21.8131 16.8987 21.8178H36.7533C37.3035 21.828 37.831 22.0393 38.2362 22.4118C38.6413 22.7842 38.8961 23.2921 38.9525 23.8396C38.9806 24.0971 38.9536 24.3577 38.8732 24.6039C38.7928 24.8502 38.6609 25.0765 38.4862 25.2678C38.3115 25.4591 38.0981 25.6109 37.8601 25.7133C37.6221 25.8156 37.3651 25.8661 37.1061 25.8613Z" fill="#407BFF"/>
<path d="M20.6204 23.3506C20.6645 23.3447 20.7093 23.3487 20.7516 23.3622C20.794 23.3758 20.8328 23.3986 20.8652 23.429C20.8976 23.4595 20.9228 23.4967 20.939 23.5381C20.9552 23.5795 20.9619 23.624 20.9588 23.6683V23.7364C20.9712 23.887 20.9381 23.9819 20.8164 24.0211C20.882 24.0405 20.9393 24.0813 20.9789 24.137C21.0186 24.1927 21.0384 24.2602 21.0351 24.3285L21.0454 24.4482C21.064 24.6545 20.9712 24.7844 20.7483 24.7844H20.4286L20.3027 23.3403L20.6204 23.3506ZM20.6349 23.9695C20.7607 23.9695 20.8226 23.9283 20.8102 23.7797V23.6952C20.7999 23.5693 20.7525 23.5074 20.6369 23.5074H20.4802L20.5194 23.9695H20.6349ZM20.7401 24.6483C20.8577 24.6483 20.9051 24.5884 20.8928 24.4544L20.8824 24.3285C20.868 24.1676 20.7999 24.1222 20.6638 24.1222H20.5235L20.5709 24.6565L20.7401 24.6483Z" fill="white"/>
<path d="M21.3635 24.4956L21.3325 24.7844H21.186L21.3346 23.3403H21.5656L21.9638 24.7844H21.8049L21.7245 24.4956H21.3635ZM21.3635 24.3574H21.6812L21.448 23.5322L21.3635 24.3574Z" fill="white"/>
<path d="M22.6237 23.6972L22.636 23.8272H22.4916L22.4792 23.689C22.4689 23.5611 22.4112 23.4827 22.2936 23.4827C22.176 23.4827 22.1326 23.5611 22.145 23.689L22.211 24.4461C22.2214 24.5761 22.2812 24.6524 22.3967 24.6524C22.5122 24.6524 22.5576 24.5761 22.5473 24.4461L22.5308 24.2604H22.6814L22.6979 24.4378C22.7165 24.6545 22.6257 24.7989 22.405 24.7989C22.3576 24.8001 22.3105 24.7915 22.2666 24.7736C22.2227 24.7558 22.183 24.7291 22.1499 24.6952C22.1168 24.6614 22.091 24.621 22.0742 24.5767C22.0574 24.5324 22.0499 24.4852 22.0522 24.4378L21.9882 23.6972C21.9697 23.4909 22.0584 23.3362 22.2771 23.3362C22.3239 23.3359 22.3703 23.3451 22.4135 23.3633C22.4566 23.3815 22.4956 23.4083 22.5281 23.4421C22.5605 23.4759 22.5857 23.516 22.6021 23.5598C22.6186 23.6037 22.6259 23.6504 22.6237 23.6972Z" fill="white"/>
<path d="M23.0528 24.1614L22.9806 24.3037L23.024 24.7844H22.863L22.7393 23.3403H22.9043L22.9641 24.0335L23.286 23.3403H23.4469L23.1415 23.9943L23.5851 24.7741H23.4201L23.0528 24.1614Z" fill="white"/>
<path d="M24.2249 24.7844L24.1114 23.4971H23.8473L23.835 23.3506H24.5199L24.5323 23.4971H24.2682L24.3817 24.7844H24.2249Z" fill="white"/>
<path d="M24.6458 23.6972C24.6272 23.4785 24.7242 23.3362 24.9429 23.3362C24.9907 23.3345 25.0385 23.3426 25.083 23.3601C25.1276 23.3777 25.1681 23.4042 25.202 23.4381C25.2359 23.472 25.2624 23.5125 25.2799 23.557C25.2975 23.6016 25.3056 23.6493 25.3039 23.6972L25.3678 24.4379C25.3864 24.6545 25.2915 24.7989 25.0708 24.7989C25.0231 24.8003 24.9756 24.792 24.9312 24.7743C24.8869 24.7566 24.8466 24.7301 24.813 24.6962C24.7793 24.6624 24.753 24.622 24.7356 24.5775C24.7182 24.5331 24.7101 24.4855 24.7118 24.4379L24.6458 23.6972ZM24.8686 24.4461C24.881 24.5781 24.9429 24.6524 25.0584 24.6524C25.1739 24.6524 25.2214 24.5781 25.209 24.4461L25.143 23.689C25.143 23.5611 25.0708 23.4827 24.9552 23.4827C24.8397 23.4827 24.7923 23.5611 24.8026 23.689L24.8686 24.4461Z" fill="white"/>
<path d="M26.073 24.7844L25.9596 23.4971H25.6955L25.6831 23.3506H26.368L26.3804 23.4971H26.1163L26.2298 24.7844H26.073Z" fill="white"/>
<path d="M26.7045 24.1387L26.7622 24.7844H26.6013L26.4775 23.3403H26.6364L26.6921 23.986H27.0449L26.9892 23.3403H27.148L27.2739 24.7844H27.1129L27.0572 24.1387H26.7045Z" fill="white"/>
<path d="M27.876 23.986L27.8884 24.1284H27.5376L27.583 24.638H28.0121L28.0245 24.7844H27.4427L27.3169 23.3403H27.9069L27.9193 23.4868H27.484L27.5253 23.9757L27.876 23.986Z" fill="white"/>
<path d="M28.3816 23.6972C28.3631 23.4785 28.46 23.3362 28.6787 23.3362C28.7266 23.3345 28.7743 23.3426 28.8189 23.3601C28.8635 23.3777 28.904 23.4042 28.9378 23.4381C28.9717 23.472 28.9983 23.5125 29.0158 23.557C29.0333 23.6016 29.0415 23.6493 29.0397 23.6972L29.1037 24.4379C29.1223 24.6545 29.0274 24.7989 28.8066 24.7989C28.7589 24.8003 28.7114 24.792 28.6671 24.7743C28.6227 24.7566 28.5825 24.7301 28.5488 24.6962C28.5152 24.6624 28.4888 24.622 28.4714 24.5775C28.454 24.5331 28.4459 24.4855 28.4476 24.4379L28.3816 23.6972ZM28.6044 24.4461C28.6168 24.5781 28.6787 24.6524 28.7942 24.6524C28.9098 24.6524 28.9572 24.5781 28.9448 24.4461L28.8788 23.689C28.8685 23.5611 28.8066 23.4827 28.6911 23.4827C28.5756 23.4827 28.5281 23.5611 28.5384 23.689L28.6044 24.4461Z" fill="white"/>
<path d="M29.7123 24.0191L29.7247 24.1635H29.3946L29.4483 24.7824H29.2894L29.1636 23.3383H29.733L29.7454 23.4847H29.3327L29.3781 24.0067L29.7123 24.0191Z" fill="white"/>
<path d="M30.4033 24.0191L30.4156 24.1635H30.0855L30.1392 24.7824H29.9803L29.8545 23.3383H30.4239L30.4363 23.4847H30.0237L30.069 24.0067L30.4033 24.0191Z" fill="white"/>
<path d="M30.7107 23.3506L30.8345 24.7948H30.6757L30.5498 23.3506H30.7107Z" fill="white"/>
<path d="M31.5362 23.6972V23.8272H31.3856L31.3732 23.689C31.3732 23.5611 31.3052 23.4827 31.1876 23.4827C31.07 23.4827 31.0267 23.5611 31.039 23.689L31.1051 24.4461C31.1051 24.5761 31.1752 24.6524 31.2907 24.6524C31.4063 24.6524 31.4516 24.5761 31.4393 24.4461L31.4228 24.2604H31.5754L31.5899 24.4378C31.6105 24.6545 31.5197 24.7989 31.299 24.7989C31.2516 24.8001 31.2045 24.7915 31.1606 24.7736C31.1168 24.7558 31.077 24.7291 31.0439 24.6952C31.0108 24.6613 30.985 24.621 30.9682 24.5767C30.9514 24.5324 30.9439 24.4852 30.9462 24.4378L30.8822 23.6972C30.8616 23.4909 30.9524 23.3362 31.1711 23.3362C31.2194 23.3332 31.2679 23.3405 31.3133 23.3575C31.3586 23.3746 31.3999 23.401 31.4344 23.4351C31.4688 23.4691 31.4957 23.5101 31.5133 23.5553C31.5308 23.6004 31.5386 23.6488 31.5362 23.6972Z" fill="white"/>
<path d="M32.2147 23.986L32.2271 24.1284H31.8784L31.9217 24.638H32.3529L32.3653 24.7844H31.7753L31.6494 23.3403H32.2394L32.2518 23.4868H31.8227L31.866 23.9757L32.2147 23.986Z" fill="white"/>
<path d="M18.6917 23.8375C18.7131 24.0305 18.6931 24.2258 18.6331 24.4105C18.5731 24.5951 18.4744 24.7649 18.3436 24.9084C18.2128 25.0519 18.0529 25.1658 17.8746 25.2426C17.6962 25.3195 17.5036 25.3574 17.3094 25.3538C16.8963 25.3473 16.4999 25.1893 16.1957 24.9097C15.8914 24.6302 15.7004 24.2486 15.659 23.8375C15.6379 23.6447 15.6581 23.4496 15.7182 23.2652C15.7784 23.0808 15.8771 22.9113 16.0079 22.768C16.1387 22.6247 16.2985 22.511 16.4767 22.4343C16.6548 22.3576 16.8473 22.3197 17.0412 22.3232C17.454 22.3297 17.8501 22.4875 18.1544 22.7666C18.4586 23.0457 18.6498 23.4268 18.6917 23.8375Z" fill="white"/>
<path d="M37.6919 32.5579H17.8374C17.2603 32.5466 16.7072 32.3251 16.2818 31.9351C15.8564 31.545 15.5879 31.0131 15.5268 30.4392C15.4975 30.1687 15.5261 29.8951 15.6106 29.6365C15.6951 29.3779 15.8337 29.1402 16.0171 28.9393C16.2005 28.7383 16.4245 28.5787 16.6743 28.4709C16.9241 28.3632 17.194 28.3098 17.466 28.3143H37.3206C37.8987 28.3253 38.4529 28.5475 38.8785 28.9389C39.3041 29.3304 39.5718 29.864 39.6312 30.4392C39.6595 30.7092 39.6302 30.9821 39.5453 31.24C39.4603 31.4978 39.3216 31.7347 39.1383 31.9349C38.955 32.1352 38.7313 32.2943 38.482 32.4017C38.2327 32.5091 37.9634 32.5623 37.6919 32.5579Z" fill="#407BFF"/>
<path d="M21.46 30.0905V30.1297H21.3094V30.0823C21.2971 29.9544 21.2414 29.876 21.1279 29.876C21.0144 29.876 20.9711 29.9523 20.9814 30.0823C21.0103 30.4041 21.493 30.435 21.5281 30.8373C21.5467 31.054 21.4559 31.1963 21.2372 31.1963C21.19 31.1978 21.1429 31.1895 21.099 31.1719C21.0552 31.1543 21.0154 31.1278 20.9823 31.0941C20.9491 31.0603 20.9233 31.0201 20.9065 30.9759C20.8896 30.9317 20.8821 30.8846 20.8845 30.8373V30.7548H21.0351V30.8456C21.0454 30.9756 21.1052 31.0519 21.2207 31.0519C21.3363 31.0519 21.3816 30.9776 21.3693 30.8456C21.3424 30.5258 20.8597 30.4949 20.8246 30.0926C20.8061 29.8718 20.8968 29.7336 21.1114 29.7336C21.3259 29.7336 21.4477 29.8739 21.46 30.0905Z" fill="white"/>
<path d="M22.1432 30.3814L22.1556 30.5238H21.8069L21.8502 31.0333H22.2855L22.2979 31.1798H21.7079L21.582 29.7357H22.1721L22.1844 29.8822H21.7553L21.7986 30.3711L22.1432 30.3814Z" fill="white"/>
<path d="M22.5807 31.1798H22.4383L22.3125 29.7357H22.5188L22.9314 30.7672L22.8406 29.7357H22.9809L23.1068 31.1798H22.9417L22.4796 30.0266L22.5807 31.1798Z" fill="white"/>
<path d="M23.4861 29.746C23.5336 29.7433 23.5812 29.7507 23.6258 29.7677C23.6703 29.7847 23.7107 29.8109 23.7444 29.8446C23.7781 29.8783 23.8043 29.9187 23.8213 29.9632C23.8383 30.0077 23.8457 30.0553 23.843 30.1029L23.9069 30.825C23.9255 31.0437 23.8347 31.1798 23.6119 31.1798H23.2756L23.1519 29.7357L23.4861 29.746ZM23.5975 31.0333C23.7109 31.0333 23.7604 30.9632 23.7501 30.827L23.6841 30.0905C23.6738 29.9606 23.6119 29.8842 23.4943 29.8842H23.3169L23.418 31.0251L23.5975 31.0333Z" fill="white"/>
<path d="M24.6106 31.1798L24.4971 29.8925H24.2331L24.2207 29.746H24.9056L24.918 29.8925H24.6539L24.7674 31.1798H24.6106Z" fill="white"/>
<path d="M25.2421 30.5341L25.2998 31.1798H25.1389L25.0151 29.7357H25.174L25.2297 30.3814H25.5866L25.5309 29.7357H25.6897L25.8156 31.1798H25.6547L25.599 30.5341H25.2421Z" fill="white"/>
<path d="M26.4115 30.3814L26.4238 30.5238H26.0731L26.1185 31.0333H26.5476L26.56 31.1798H25.972L25.8462 29.7357H26.4362L26.4486 29.8822H26.0195L26.0607 30.3711L26.4115 30.3814Z" fill="white"/>
<path d="M27.2368 29.746C27.2844 29.7433 27.332 29.7507 27.3765 29.7677C27.4211 29.7847 27.4615 29.8109 27.4952 29.8446C27.5289 29.8783 27.5551 29.9187 27.5721 29.9632C27.589 30.0077 27.5964 30.0553 27.5937 30.1029L27.6577 30.825C27.6763 31.0437 27.5855 31.1798 27.3627 31.1798H27.0305L26.9067 29.7357L27.2368 29.746ZM27.3482 31.0333C27.4617 31.0333 27.5112 30.9632 27.4988 30.827L27.4349 30.0905C27.4246 29.9606 27.3627 29.8842 27.2451 29.8842H27.0738L27.1729 31.0251L27.3482 31.0333Z" fill="white"/>
<path d="M27.7298 30.0926C27.7112 29.8739 27.8061 29.7316 28.0248 29.7316C28.0727 29.7298 28.1204 29.738 28.165 29.7555C28.2096 29.7731 28.2501 29.7996 28.284 29.8335C28.3178 29.8673 28.3444 29.9078 28.3619 29.9524C28.3794 29.997 28.3876 30.0447 28.3859 30.0926L28.4519 30.8332C28.4704 31.0499 28.3735 31.1943 28.1527 31.1943C28.105 31.1957 28.0575 31.1873 28.0132 31.1697C27.9688 31.152 27.9286 31.1254 27.895 31.0916C27.8613 31.0578 27.835 31.0174 27.8176 30.9729C27.8001 30.9285 27.792 30.8809 27.7938 30.8332L27.7298 30.0926ZM27.9526 30.8415C27.9629 30.9735 28.0248 31.0478 28.1404 31.0478C28.2559 31.0478 28.3033 30.9735 28.293 30.8415L28.2249 30.0844C28.2249 29.9564 28.1548 29.8781 28.0372 29.8781C27.9196 29.8781 27.8742 29.9564 27.8866 30.0844L27.9526 30.8415Z" fill="white"/>
<path d="M29.1696 30.0926V30.2226H29.019L29.0066 30.0843C29.0066 29.9564 28.9365 29.878 28.821 29.878C28.7054 29.878 28.6601 29.9564 28.6704 30.0843L28.7364 30.8415C28.7488 30.9714 28.8086 31.0478 28.9241 31.0478C29.0397 31.0478 29.085 30.9714 29.0727 30.8415L29.0562 30.6558H29.2088L29.2233 30.8332C29.2418 31.0498 29.1531 31.1943 28.9324 31.1943C28.885 31.1954 28.8379 31.1869 28.794 31.169C28.7502 31.1512 28.7104 31.1245 28.6773 31.0906C28.6442 31.0567 28.6184 31.0164 28.6016 30.9721C28.5848 30.9278 28.5773 30.8805 28.5796 30.8332L28.5136 30.0926C28.495 29.8863 28.5858 29.7316 28.8045 29.7316C28.8528 29.7286 28.9013 29.7359 28.9467 29.7529C28.992 29.77 29.0333 29.7964 29.0678 29.8305C29.1022 29.8645 29.1291 29.9055 29.1467 29.9507C29.1642 29.9958 29.172 30.0442 29.1696 30.0926Z" fill="white"/>
<path d="M29.5306 30.8518C29.543 30.9818 29.6007 31.0581 29.7163 31.0581C29.8318 31.0581 29.8751 30.9818 29.8648 30.8518L29.7679 29.7563H29.9185L30.0134 30.8435C30.0319 31.0602 29.9453 31.2066 29.7245 31.2066C29.5038 31.2066 29.3924 31.0602 29.3718 30.8435L29.2769 29.7563H29.4357L29.5306 30.8518Z" fill="white"/>
<path d="M30.7272 31.1778H30.5746L30.2383 30.0369L30.3373 31.1798H30.1991L30.0732 29.7357H30.296L30.6323 30.8807L30.7582 29.7357H30.981L31.1068 31.1798H30.95L30.8489 30.0266L30.7272 31.1778Z" fill="white"/>
<path d="M31.7093 30.3814L31.7217 30.5238H31.373L31.4164 31.0333H31.8475L31.8599 31.1798H31.2699L31.144 29.7357H31.7341L31.7464 29.8822H31.3173L31.3607 30.3711L31.7093 30.3814Z" fill="white"/>
<path d="M32.1466 31.1798H32.0043L31.8784 29.7357H32.0847L32.5076 30.7672L32.4169 29.7357H32.5572L32.683 31.1798H32.518L32.0455 30.0266L32.1466 31.1798Z" fill="white"/>
<path d="M33.0501 31.1798L32.9366 29.8925H32.6725L32.6602 29.746H33.3451L33.3575 29.8925H33.0934L33.2069 31.1798H33.0501Z" fill="white"/>
<path d="M17.8953 32.0504C17.4545 32.0422 17.032 31.8729 16.7075 31.5746C16.3829 31.2762 16.1787 30.8694 16.1335 30.4309C16.1112 30.225 16.133 30.0166 16.1974 29.8197C16.2618 29.6229 16.3674 29.4419 16.5071 29.2889C16.6468 29.136 16.8174 29.0145 17.0077 28.9325C17.1979 28.8505 17.4035 28.81 17.6106 28.8135C18.051 28.8217 18.4733 28.9907 18.7978 29.2886C19.1223 29.5865 19.3267 29.9928 19.3724 30.4309C19.3947 30.637 19.3729 30.8454 19.3085 31.0424C19.244 31.2394 19.1385 31.4205 18.9989 31.5736C18.8592 31.7267 18.6886 31.8484 18.4983 31.9306C18.3081 32.0128 18.1025 32.0536 17.8953 32.0504Z" fill="white"/>
<path d="M38.27 39.1493H18.4154C17.8358 39.1393 17.2799 38.9174 16.8527 38.5255C16.4255 38.1337 16.1565 37.5989 16.0966 37.0223C16.0673 36.7518 16.0959 36.4782 16.1804 36.2196C16.2649 35.961 16.4035 35.7234 16.5869 35.5224C16.7703 35.3214 16.9943 35.1618 17.2441 35.054C17.494 34.9463 17.7638 34.8929 18.0358 34.8974H37.8904C38.4688 34.9084 39.0232 35.1305 39.4491 35.5219C39.8751 35.9133 40.1432 36.4469 40.203 37.0223C40.2322 37.2924 40.2038 37.5655 40.1197 37.8238C40.0355 38.082 39.8976 38.3195 39.7149 38.5205C39.5322 38.7215 39.3089 38.8815 39.0599 38.9899C38.8108 39.0983 38.5416 39.1526 38.27 39.1493ZM18.0523 35.1037C17.8067 35.0996 17.563 35.1479 17.3375 35.2452C17.1119 35.3425 16.9096 35.4866 16.7439 35.668C16.5783 35.8495 16.4532 36.064 16.3768 36.2975C16.3004 36.531 16.2745 36.7781 16.3008 37.0223C16.3546 37.542 16.5965 38.0242 16.9811 38.3779C17.3656 38.7317 17.8662 38.9327 18.3886 38.943H38.2432C38.4889 38.9467 38.7326 38.8982 38.9582 38.8007C39.1838 38.7032 39.3861 38.5588 39.5517 38.3773C39.7172 38.1957 39.8424 37.981 39.9188 37.7474C39.9951 37.5138 40.021 37.2666 39.9947 37.0223C39.9409 36.5028 39.6989 36.0209 39.3143 35.6674C38.9297 35.314 38.4291 35.1135 37.9069 35.1037H18.0523Z" fill="#407BFF"/>
<path d="M22.1182 36.9295L22.1305 37.0512H21.9779V36.9212C21.9655 36.7912 21.9077 36.7149 21.7922 36.7149C21.6767 36.7149 21.6313 36.7912 21.6416 36.9212L21.7076 37.6783C21.72 37.8062 21.7798 37.8846 21.8933 37.8846C22.0068 37.8846 22.0542 37.8062 22.0439 37.6783L22.0191 37.3916H21.8706L21.8582 37.2492H22.1574L22.1945 37.6618C22.2131 37.8681 22.1223 38.0229 21.9016 38.0229C21.6808 38.0229 21.5694 37.8785 21.5488 37.6618L21.4848 36.9212C21.4663 36.7046 21.555 36.5602 21.7736 36.5602C21.8211 36.5597 21.8682 36.5692 21.9118 36.5879C21.9555 36.6067 21.9948 36.6343 22.0272 36.669C22.0596 36.7037 22.0844 36.7448 22.1001 36.7897C22.1157 36.8345 22.1219 36.8821 22.1182 36.9295Z" fill="#407BFF"/>
<path d="M22.2586 36.9295C22.2379 36.7108 22.3349 36.5684 22.5536 36.5684C22.6015 36.5667 22.6492 36.5748 22.6938 36.5924C22.7384 36.6099 22.7789 36.6364 22.8127 36.6703C22.8466 36.7042 22.8731 36.7447 22.8907 36.7893C22.9082 36.8339 22.9163 36.8816 22.9146 36.9295L22.9786 37.6701C22.9992 37.8764 22.9022 38.0311 22.6815 38.0311C22.6338 38.0326 22.5863 38.0242 22.542 38.0065C22.4976 37.9889 22.4574 37.9623 22.4237 37.9284C22.3901 37.8946 22.3637 37.8542 22.3463 37.8098C22.3289 37.7653 22.3208 37.7178 22.3225 37.6701L22.2586 36.9295ZM22.4814 37.6783C22.4917 37.8083 22.5536 37.8846 22.6691 37.8846C22.7846 37.8846 22.8321 37.8083 22.8197 37.6783L22.7537 36.9212C22.7434 36.7912 22.6836 36.7149 22.566 36.7149C22.4484 36.7149 22.403 36.7912 22.4154 36.9212L22.4814 37.6783Z" fill="#407BFF"/>
<path d="M23.581 37.371L23.6367 38.0167H23.4779L23.3521 36.5829H23.5233L23.579 37.2286H23.9297L23.874 36.5829H24.0329L24.1587 38.0167H23.9998L23.9359 37.371H23.581Z" fill="#407BFF"/>
<path d="M24.2039 36.9295C24.1853 36.7108 24.2823 36.5684 24.501 36.5684C24.5488 36.5667 24.5966 36.5748 24.6412 36.5924C24.6857 36.6099 24.7262 36.6364 24.7601 36.6703C24.794 36.7042 24.8205 36.7447 24.838 36.7893C24.8556 36.8339 24.8637 36.8816 24.862 36.9295L24.926 37.6701C24.9445 37.8764 24.8496 38.0311 24.6289 38.0311C24.5811 38.0329 24.5335 38.0247 24.489 38.0072C24.4445 37.9896 24.4041 37.963 24.3704 37.9291C24.3367 37.8952 24.3104 37.8547 24.2931 37.8101C24.2758 37.7655 24.2679 37.7179 24.2699 37.6701L24.2039 36.9295ZM24.4267 37.6783C24.4391 37.8083 24.501 37.8846 24.6144 37.8846C24.7279 37.8846 24.7795 37.8083 24.7671 37.6783L24.7011 36.9212C24.6887 36.7912 24.6289 36.7149 24.5133 36.7149C24.3978 36.7149 24.3504 36.7912 24.3607 36.9212L24.4267 37.6783Z" fill="#407BFF"/>
<path d="M25.636 38.0146H25.4813L25.145 36.8738L25.244 38.0167H25.1058L24.98 36.5829H25.2028L25.5391 37.7279L25.6649 36.5829H25.8898L26.0136 38.0167H25.863L25.7619 36.8635L25.636 38.0146Z" fill="#407BFF"/>
<path d="M26.6179 37.2183L26.6323 37.3606H26.2816L26.327 37.8702H26.7561L26.7685 38.0167H26.1785L26.0547 36.5829H26.6427L26.655 36.7294H26.2259L26.2692 37.2183H26.6179Z" fill="#407BFF"/>
<path d="M18.4709 38.6418C18.0303 38.6335 17.6081 38.4641 17.2839 38.1658C16.9596 37.8674 16.7559 37.4606 16.7111 37.0223C16.6888 36.8163 16.7106 36.608 16.775 36.4111C16.8395 36.2142 16.945 36.0333 17.0847 35.8803C17.2244 35.7274 17.3951 35.6059 17.5853 35.5239C17.7756 35.4419 17.9811 35.4014 18.1882 35.4049C18.6284 35.4131 19.0504 35.5822 19.3746 35.8801C19.6988 36.1781 19.9027 36.5843 19.948 37.0223C19.9706 37.2284 19.949 37.437 19.8847 37.6341C19.8205 37.8313 19.7149 38.0125 19.5752 38.1657C19.4355 38.3189 19.2647 38.4406 19.0743 38.5227C18.8839 38.6047 18.6782 38.6454 18.4709 38.6418ZM18.2068 35.6112C18.0261 35.6081 17.8467 35.6435 17.6807 35.715C17.5147 35.7865 17.3658 35.8925 17.2438 36.0259C17.1219 36.1594 17.0297 36.3172 16.9735 36.489C16.9172 36.6608 16.8981 36.8426 16.9174 37.0223C16.9566 37.4046 17.1344 37.7594 17.4171 38.0197C17.6998 38.28 18.068 38.4279 18.4523 38.4355C18.6332 38.4386 18.8127 38.4032 18.9789 38.3315C19.1451 38.2599 19.2941 38.1537 19.4161 38.02C19.5381 37.8864 19.6302 37.7283 19.6863 37.5562C19.7425 37.3842 19.7613 37.2022 19.7417 37.0223C19.702 36.6404 19.5241 36.2861 19.2414 36.0262C18.9587 35.7663 18.5907 35.6187 18.2068 35.6112Z" fill="#407BFF"/>
<path d="M22.4918 47.6386C22.1824 47.6346 21.8853 47.517 21.6571 47.3082C21.4288 47.0993 21.2854 46.8138 21.254 46.506C21.2398 46.3623 21.256 46.2172 21.3015 46.0802C21.3469 45.9431 21.4207 45.8171 21.5179 45.7104C21.6151 45.6036 21.7337 45.5185 21.8659 45.4604C21.9982 45.4024 22.1411 45.3727 22.2855 45.3734C22.5947 45.3779 22.8916 45.4956 23.1197 45.7044C23.3479 45.9132 23.4915 46.1984 23.5233 46.506C23.5375 46.6497 23.5213 46.7948 23.4758 46.9319C23.4304 47.0689 23.3566 47.1949 23.2594 47.3017C23.1622 47.4085 23.0436 47.4936 22.9114 47.5516C22.7791 47.6097 22.6362 47.6393 22.4918 47.6386ZM22.3123 45.5756C22.1937 45.5734 22.0759 45.5966 21.9669 45.6435C21.8579 45.6904 21.7601 45.76 21.6801 45.8476C21.6 45.9352 21.5396 46.0389 21.5028 46.1517C21.4659 46.2646 21.4536 46.3839 21.4665 46.5019C21.4921 46.7526 21.6087 46.9853 21.7942 47.156C21.9797 47.3266 22.2212 47.4235 22.4732 47.4282C22.5924 47.4321 22.711 47.4101 22.8208 47.3638C22.9306 47.3175 23.0291 47.2479 23.1095 47.1599C23.1899 47.0718 23.2503 46.9674 23.2864 46.8539C23.3226 46.7403 23.3337 46.6202 23.3191 46.5019C23.2924 46.2512 23.1748 46.019 22.9885 45.8491C22.8023 45.6792 22.5603 45.5834 22.3082 45.5797L22.3123 45.5756Z" fill="#407BFF"/>
<path d="M24.1506 48.3896L23.0469 47.3746L23.181 47.2281L24.2847 48.2431L24.1506 48.3896Z" fill="#407BFF"/>
<path d="M36.378 48.3648L35.3155 47.8326L34.35 48.3648L34.4449 47.2363L33.5537 46.4359L34.6719 46.2708L35.0845 45.2393L35.6807 46.2708L36.8277 46.4359L36.0789 47.2363L36.378 48.3648ZM34.0096 46.5803L34.6595 47.1641L34.5893 47.9894L35.297 47.6015L36.0706 47.9894L35.8643 47.1641L36.4131 46.5803L35.5755 46.4606L35.1299 45.7056L34.8266 46.4565L34.0096 46.5803Z" fill="#407BFF"/>
<path d="M16.4285 22.9607H15.8818L17.1011 24.6256L19.3869 21.5867H19.129L17.0227 23.7447L16.4285 22.9607Z" fill="#263238"/>
<path d="M16.9173 29.3788H16.3706L17.5899 31.0457L19.8757 28.0069H19.6178L17.5135 30.1627L16.9173 29.3788Z" fill="#263238"/>
<path d="M15.8406 16.2394H15.2939L16.5132 17.9063L18.799 14.8675H18.5411L16.4348 17.0254L15.8406 16.2394Z" fill="#263238"/>
<path d="M34.6968 0.0900269H33.2031V0.244753H34.6968V0.0900269Z" fill="#407BFF"/>
<path d="M32.0621 0.0900269H28.2104V0.244753H32.0621V0.0900269Z" fill="#407BFF"/>
</svg>
