<svg width="67" height="25" viewBox="0 0 67 25" fill="none" xmlns="http://www.w3.org/2000/svg">
<path d="M34.106 3.71875H36.5781V16.2661C36.5781 19.5903 35.1236 21.8844 31.7152 21.8844C30.7072 21.8996 29.7042 21.7412 28.75 21.4162V19.0128C29.5639 19.3284 30.4302 19.4873 31.3032 19.481C33.3913 19.481 34.1123 18.2325 34.1123 16.4316L34.106 3.71875Z" fill="#253858"/>
<path d="M41.0855 2.75393C41.306 2.73816 41.5273 2.76997 41.7344 2.84721C41.9415 2.92445 42.1296 3.04531 42.2859 3.20161C42.4422 3.35791 42.563 3.54598 42.6403 3.75308C42.7175 3.96019 42.7493 4.18147 42.7336 4.40195C42.7336 4.83903 42.5599 5.25821 42.2509 5.56727C41.9418 5.87633 41.5226 6.04996 41.0855 6.04996C40.6485 6.04996 40.2293 5.87633 39.9202 5.56727C39.6112 5.25821 39.4375 4.83903 39.4375 4.40195C39.4217 4.18147 39.4536 3.96019 39.5308 3.75308C39.608 3.54598 39.7289 3.35791 39.8852 3.20161C40.0415 3.04531 40.2296 2.92445 40.4367 2.84721C40.6438 2.76997 40.8651 2.73816 41.0855 2.75393ZM39.8776 8.02883H42.2404V21.7623H39.8776V8.02883Z" fill="#253858"/>
<path d="M45.8086 8.02666H48.1152V10.4425C48.9111 8.82258 50.3001 7.66772 52.9781 7.83315V10.1397C49.9567 9.82762 48.1152 10.7453 48.1152 13.6543V21.7695H45.8086V8.02666Z" fill="#253858"/>
<path d="M64.0448 19.2871C63.1646 21.1005 61.5166 22.0338 59.4035 22.0338C55.7517 22.0338 53.9102 18.9313 53.9102 14.8924C53.9102 11.0189 55.8328 7.75098 59.6782 7.75098C61.682 7.75098 63.2208 8.65614 64.0479 10.4415V8.02565H66.4107V21.7591H64.0479L64.0448 19.2871ZM60.034 19.8364C62.1502 19.8364 64.0448 18.4912 64.0448 15.4417V14.3306C64.0448 11.2811 62.3157 9.93584 60.2993 9.93584C57.6338 9.93584 56.2604 11.6931 56.2604 14.8799C56.2729 18.1884 57.5901 19.8364 60.0372 19.8364H60.034Z" fill="#253858"/>
<path d="M22.597 12.0707L12.4217 1.89549L11.4354 0.90918L3.77588 8.5687L0.273845 12.0707C0.0984933 12.2463 0 12.4843 0 12.7324C0 12.9806 0.0984933 13.2186 0.273845 13.3941L7.27167 20.392L11.4354 24.5557L19.0949 16.8962L19.2135 16.7776L22.597 13.3941C22.7723 13.2186 22.8708 12.9806 22.8708 12.7324C22.8708 12.4843 22.7723 12.2463 22.597 12.0707ZM11.4354 16.2282L7.93961 12.7324L11.4354 9.23665L14.9312 12.7324L11.4354 16.2282Z" fill="#2684FF"/>
<path d="M11.4329 9.23688C10.3335 8.13728 9.71373 6.64731 9.70905 5.09234C9.70437 3.53736 10.3151 2.0437 11.408 0.9375L3.75781 8.58454L7.92155 12.7483L11.4329 9.23688Z" fill="url(#paint0_linear)"/>
<path d="M14.9387 12.7227L11.4336 16.2278C11.9806 16.7745 12.4145 17.4236 12.7106 18.138C13.0066 18.8524 13.159 19.6182 13.159 20.3915C13.159 21.1649 13.0066 21.9306 12.7106 22.6451C12.4145 23.3595 11.9806 24.0086 11.4336 24.5553L19.1025 16.8864L14.9387 12.7227Z" fill="url(#paint1_linear)"/>
<defs>
<linearGradient id="paint0_linear" x1="10.8087" y1="5.70051" x2="5.92707" y2="10.5821" gradientUnits="userSpaceOnUse">
<stop offset="0.18" stop-color="#0052CC"/>
<stop offset="1" stop-color="#2684FF"/>
</linearGradient>
<linearGradient id="paint1_linear" x1="308.833" y1="725.993" x2="477.434" y2="616.72" gradientUnits="userSpaceOnUse">
<stop offset="0.18" stop-color="#0052CC"/>
<stop offset="1" stop-color="#2684FF"/>
</linearGradient>
</defs>
</svg>
