<svg version="1.1" id="Layer_1" xmlns="http://www.w3.org/2000/svg" x="0px" y="0px"
             viewBox="0 0 44.1 44" enable-background="new 0 0 44.1 44" xml:space="preserve">
          <g id="Page-1">
            <g id="Test-Sigma-Site-_x2A__x2A_Final_x2A__x2A_" transform="translate(-103.000000, -48.000000)">
              <g id="Group-8" transform="translate(103.000000, 48.000000)">
                <path id="Path-Copy-32" fill="#03a973" d="M43.2,16.5c-0.4-0.6-1-1-1.7-1.1c-0.3,0-0.7-0.1-1-0.2c-0.4-0.1-0.9-0.1-1.3-0.2
                  c-1.2-0.1-1.9-0.6-2.3-1.6c-0.3-0.7-0.3-1.2-0.1-1.8l0.2-0.4c0.3-0.8,0.6-1.5,0.9-2.3c0.2-0.6,0.2-1.3-0.2-2
                  c-0.7-1.3-1.7-2.2-3-2.6c-0.8-0.3-1.6-0.2-2.3,0.2c-0.3,0.2-0.7,0.4-1,0.6c-0.5,0.3-1,0.6-1.4,0.9c-0.3,0.2-0.7,0.3-1.2,0.3l0,0
                  c-1.1,0-2.2-0.7-2.4-1.6c-0.1-0.5-0.3-1-0.5-1.4c-0.1-0.4-0.3-0.8-0.4-1.2c-0.3-0.9-0.8-1.5-1.7-1.8c-0.2-0.1-0.5-0.2-0.8-0.2
                  c-0.1,0-0.2-0.1-0.3-0.1h-0.1h-1.4h-0.1H21h-0.1c-1.4,0.3-2.3,1-2.6,2.3c0,0.6-0.2,1.2-0.4,1.7c-0.1,0.3-0.2,0.6-0.3,0.9
                  c-0.3,0.9-1.3,1.5-2.3,1.5c-0.4,0-0.8-0.1-1.1-0.3C13.6,5.7,13,5.3,12.4,5c-0.3-0.2-0.6-0.3-0.8-0.5C11.1,4.1,10.5,4,9.9,4.2
                  C8.3,4.6,7.2,5.5,6.4,7.1C6.2,7.7,6.1,8.3,6.4,9c0.1,0.3,0.2,0.6,0.4,0.9c0.2,0.5,0.4,0.9,0.6,1.4c0.4,1,0.4,1.8-0.2,2.7
                  c-0.4,0.6-0.8,0.9-1.5,1c-0.9,0.2-1.9,0.3-2.9,0.4c-0.8,0.1-1.5,0.5-2,1.2c-0.6,1-0.9,2.1-0.8,3.4c0.1,1.1,0.6,2,1.6,2.4
                  C2,22.6,2.3,22.8,2.7,23s0.8,0.4,1.2,0.6c0.6,0.3,1,0.9,1.2,1.7c0.2,0.9,0,1.7-0.4,2.2C4,28.2,3.4,29,2.8,29.7
                  c-0.3,0.3-0.5,0.8-0.6,1.2c-0.3,1.7,1.1,4.1,2.6,4.7c0.4,0.1,0.9,0.2,1.3,0.1c0.8-0.1,1.7-0.3,2.6-0.5c1-0.2,1.7,0,2.4,0.7
                  c0.5,0.5,0.8,1.1,0.8,1.8c0,0.9,0,1.9-0.1,2.9c0,0.8,0.2,1.4,0.8,1.9c0.9,0.8,1.9,1.3,3.2,1.5c0.1,0,0.3,0,0.4,0
                  c1,0,1.8-0.4,2.3-1.2c0.2-0.3,0.5-0.6,0.7-0.9c0.3-0.3,0.5-0.7,0.8-1c0.4-0.6,1.2-1,2-1s1.6,0.4,2,0.9c0.3,0.5,0.7,1,1.1,1.4
                  c0.2,0.3,0.4,0.6,0.7,0.8c0.4,0.5,1,0.9,1.6,0.9c1.5,0.1,2.9-0.3,4.1-1.4c0.6-0.5,0.8-1.2,0.8-2c0-0.3,0-0.7,0-1.1
                  c0-0.5,0-0.9-0.1-1.4c-0.1-1.1,0.3-1.9,1.1-2.5c0.5-0.4,1.1-0.5,1.6-0.4c1,0.2,2,0.4,2.8,0.6c0.9,0.2,1.7,0,2.5-0.6
                  c0.9-0.8,1.5-1.8,1.8-3c0.2-1,0-1.9-0.7-2.6c-0.3-0.3-0.5-0.6-0.8-0.9c-0.2-0.3-0.5-0.6-0.8-0.9c-0.7-0.8-1-1.6-0.7-2.6
                  c0.2-0.7,0.5-1.2,1.1-1.5c0.9-0.5,1.7-1,2.6-1.4c0.7-0.3,1.1-0.9,1.3-1.6C44.3,19.2,44.1,17.8,43.2,16.5z"/>
                <path id="Path-Copy-36" fill="#fff" d="M22,16.8L22,16.8l0.1-1.7c0-0.1,0-0.4,0-0.4c0-0.8,0.1-0.8,0.1-2.4
                  c0-0.1,0-0.2-0.1-0.3c-0.1,0-0.3,0-0.4,0c-0.7,0.2-1.5,0.4-2.4,0.5c-0.2,0-0.3,0.2-0.3,0.4c-0.1,1.5-0.1,1.1-0.2,1.8l-0.2,2l0,0
                  l-0.1,1.8l-0.2,4V24c-0.1,1.8-0.1,2.9-0.2,3.2c0,0.3,0,0.5,0,0.7c0,1,0.2,1.8,0.5,2.4c0.3,0.6,0.8,1.1,1.5,1.3
                  c0.6,0.3,1.4,0.4,2.4,0.4c0.4,0,0.8,0,1.2-0.1c0.4,0,1-0.2,1.7-0.3c0.2,0,0.3-0.2,0.3-0.3c0.1-0.4,0.1-0.9,0.2-1.4
                  c0.1-0.6,0.1-1.2,0.2-1.4c0-0.2,0-0.3-0.1-0.4s-0.3-0.1-0.4,0c-0.7,0.4-1.1,0.5-1.7,0.6c-0.2,0-0.4,0-0.6,0h-0.2
                  c-0.3,0-0.7-0.1-1-0.3c-0.3-0.1-0.4-0.2-0.4-0.5c-0.1-0.5-0.1-0.6-0.1-1.1v-0.2v-0.7l0.2-5.1L22,16.8z"/>
                <path id="Path-Copy-35" fill="#fff" d="M30,17.1l-0.7-1.5c-0.1-0.2-0.3-0.4-0.6-0.5c-0.2-0.1-0.5-0.1-0.8,0l-5,2.5v-0.1
                  l-3.6,1.9l-2.1,1.1l-0.8-1.8c-0.1-0.2-0.3-0.4-0.6-0.5c-0.2-0.1-0.5-0.1-0.8,0l-1.4,0.7c-0.5,0.2-0.7,0.8-0.5,1.4l1.9,4.2
                  c0.1,0.2,0.3,0.4,0.6,0.5c0.1,0,0.2,0.1,0.3,0.1s0.3,0,0.4-0.1l2.7-1.3l3.7-1.8l6.8-3.3C30,18.2,30.2,17.6,30,17.1z"/>
              </g>
            </g>
          </g>
          <style>
            #Path-Copy-32 {
              animation: dash 2s ease forwards infinite;
              transform-origin: center;
            }
            @keyframes dash {
              to {
                transform: rotate(360deg);
              }
            }
          </style>
        </svg>