<svg width="151" height="130" viewBox="0 0 151 130" fill="none" xmlns="http://www.w3.org/2000/svg">
<path d="M64.5416 14.4361C83.3295 10.4716 96.3748 0.818888 116.637 6.5537C133.589 11.3353 139.549 23.3379 140.191 39.1028C141.775 77.9548 104.378 97.2563 66.4947 92.214C30.6191 87.4363 8.19338 60.4002 8.3529 27.3336C8.41515 14.8408 13.6092 -3.86156 31.4205 0.702171C44.4892 4.04424 48.551 17.8093 64.5416 14.4361Z" fill="#92E3A9"/>
<path opacity="0.9" d="M64.5416 14.4361C83.3295 10.4716 96.3748 0.818888 116.637 6.5537C133.589 11.3353 139.549 23.3379 140.191 39.1028C141.775 77.9548 104.378 97.2563 66.4947 92.214C30.6191 87.4363 8.19338 60.4002 8.3529 27.3336C8.41515 14.8408 13.6092 -3.86156 31.4205 0.702171C44.4892 4.04424 48.551 17.8093 64.5416 14.4361Z" fill="white"/>
<path d="M75.4357 130C117.098 130 150.871 128.028 150.871 125.596C150.871 123.163 117.098 121.191 75.4357 121.191C33.7737 121.191 0 123.163 0 125.596C0 128.028 33.7737 130 75.4357 130Z" fill="#F5F5F5"/>
<path d="M90.1059 3.85658L90.062 4.24316L92.1032 4.47464L92.147 4.08806L90.1059 3.85658Z" fill="#92E3A9"/>
<path d="M81.2543 2.85658L81.2104 3.24316L87.8327 3.99416L87.8765 3.60757L81.2543 2.85658Z" fill="#92E3A9"/>
<path d="M130.309 9.7908L60.3093 1.85252C59.2631 1.73387 58.3189 2.48579 58.2002 3.53197L52.1506 56.877C52.032 57.9232 52.7839 58.8675 53.8301 58.9861L123.829 66.9244C124.875 67.0431 125.82 66.2911 125.938 65.245L131.988 11.8999C132.107 10.8537 131.355 9.90944 130.309 9.7908Z" fill="#92E3A9"/>
<path d="M53.1732 56.2475L59.052 4.38904C59.0727 4.20584 59.1295 4.02855 59.2191 3.8674C59.3087 3.70626 59.4293 3.56445 59.574 3.45016C59.7187 3.33586 59.8846 3.25134 60.0621 3.20147C60.2396 3.1516 60.4252 3.13737 60.6082 3.1596L129.745 10.9954C129.928 11.0166 130.105 11.0737 130.266 11.1635C130.427 11.2532 130.568 11.3738 130.683 11.5184C130.797 11.663 130.881 11.8286 130.931 12.0059C130.982 12.1832 130.996 12.3687 130.974 12.5516L125.08 64.3906C125.06 64.574 125.003 64.7516 124.914 64.913C124.825 65.0744 124.704 65.2164 124.559 65.3308C124.414 65.4451 124.248 65.5296 124.071 65.5793C123.893 65.6289 123.707 65.6428 123.524 65.62L54.3871 57.7804C54.024 57.7355 53.6931 57.5496 53.4659 57.2627C53.2388 56.9759 53.1337 56.6112 53.1732 56.2475Z" fill="#566C77" stroke="#566C77" stroke-linecap="round" stroke-linejoin="round"/>
<path d="M119.397 23.7765L90.2642 20.4727L90.1015 21.9069L119.235 25.2107L119.397 23.7765Z" fill="#92E3A9"/>
<path d="M123.863 26.5969L92.998 23.0967L92.8354 24.5309L123.7 28.0312L123.863 26.5969Z" fill="#92E3A9"/>
<path d="M118.31 28.2839L92.7368 25.3838L92.5742 26.818L118.147 29.7181L118.31 28.2839Z" fill="#92E3A9"/>
<path d="M115.383 30.2695L92.478 27.6719L92.3154 29.1061L115.221 31.7037L115.383 30.2695Z" fill="#92E3A9"/>
<path d="M107.99 33.2011L89.0625 31.0547L88.8999 32.4889L107.827 34.6354L107.99 33.2011Z" fill="#92E3A9"/>
<path d="M111.601 40.5645L91.2778 38.2598L91.1152 39.694L111.438 41.9987L111.601 40.5645Z" fill="#92E3A9"/>
<path d="M108.377 37.8824L91.5371 35.9727L91.3745 37.4069L108.214 39.3166L108.377 37.8824Z" fill="#92E3A9"/>
<path d="M110.342 35.7876L91.7974 33.6846L91.6347 35.1188L110.179 37.2219L110.342 35.7876Z" fill="#92E3A9"/>
<path d="M106.012 50.6513L87.085 48.5049L86.9223 49.9391L105.85 52.0856L106.012 50.6513Z" fill="#92E3A9"/>
<path d="M109.62 58.0147L89.2974 55.71L89.1347 57.1442L109.458 59.4489L109.62 58.0147Z" fill="#92E3A9"/>
<path d="M106.178 54.6582L89.3994 52.7939L89.2406 54.2229L106.019 56.0872L106.178 54.6582Z" fill="#92E3A9"/>
<path d="M108.361 53.2368L89.8169 51.1338L89.6542 52.568L108.199 54.6711L108.361 53.2368Z" fill="#92E3A9"/>
<path d="M77.6661 8.23433L62.2954 6.49121L62.1328 7.92545L77.5034 9.66857L77.6661 8.23433Z" fill="white"/>
<path d="M80.4473 15.4971L63.9478 13.626L63.7851 15.0602L80.2846 16.9313L80.4473 15.4971Z" fill="white"/>
<path d="M77.8796 12.8925L64.2061 11.3418L64.0434 12.776L77.717 14.3267L77.8796 12.8925Z" fill="white"/>
<path d="M79.519 10.7584L64.4614 9.05078L64.2988 10.485L79.3563 12.1926L79.519 10.7584Z" fill="white"/>
<path d="M110.821 47.4287L90.498 45.124L90.3354 46.5583L110.658 48.863L110.821 47.4287Z" fill="#92E3A9"/>
<path d="M107.597 44.7457L90.7568 42.8359L90.5942 44.2702L107.434 46.1799L107.597 44.7457Z" fill="#92E3A9"/>
<path d="M109.562 42.6519L91.0176 40.5488L90.8549 41.9831L109.399 44.0861L109.562 42.6519Z" fill="#92E3A9"/>
<path d="M67.834 124.043L65.2622 123.985L64.9043 118.017L67.476 118.075L67.834 124.043Z" fill="#FFC3BD"/>
<path d="M65.1684 123.686L67.9774 123.748C68.028 123.749 68.0766 123.768 68.1154 123.8C68.1542 123.833 68.1809 123.877 68.1914 123.927L68.6505 126.226C68.6589 126.282 68.6552 126.339 68.6395 126.393C68.6237 126.447 68.5964 126.497 68.5594 126.54C68.5224 126.582 68.4766 126.616 68.4251 126.64C68.3737 126.663 68.3178 126.674 68.2614 126.674C67.2498 126.635 65.787 126.545 64.5147 126.514C63.0246 126.483 62.7561 126.744 61.0131 126.561C59.9627 126.452 59.7798 125.359 60.235 125.308C62.2815 125.078 62.7717 124.919 64.5147 123.872C64.7098 123.748 64.937 123.683 65.1684 123.686Z" fill="#263238"/>
<path opacity="0.2" d="M64.9043 118.021L65.0911 121.094L67.6628 121.152L67.4799 118.079L64.9043 118.021Z" fill="black"/>
<path d="M63.7639 39.3193C62.908 40.9961 62.0054 42.6185 61.0405 44.237C60.0756 45.8556 59.0952 47.4351 57.928 49.0225C57.7801 49.221 57.6167 49.4116 57.4611 49.6256C57.3949 49.7151 57.2821 49.8435 57.181 49.9563C57.0798 50.0691 56.9747 50.1936 56.8619 50.2987C56.4254 50.7373 55.9289 51.1119 55.3874 51.4114C54.3772 51.9769 53.2574 52.3192 52.1037 52.4152C51.0577 52.5086 50.0038 52.4576 48.9717 52.2634C48.4739 52.1748 47.9816 52.0579 47.4971 51.9133C47.0053 51.7724 46.5231 51.5995 46.0537 51.3958L46.6762 49.431C47.0653 49.4738 47.5088 49.5205 47.929 49.5439C48.3492 49.5672 48.7849 49.5672 49.2051 49.5439C50.0118 49.5353 50.8147 49.4335 51.5979 49.2404C52.2817 49.0831 52.9272 48.7908 53.4965 48.3806C53.7437 48.1974 53.966 47.9829 54.1579 47.7425C54.2076 47.6849 54.2531 47.6238 54.2941 47.5597C54.3408 47.4974 54.3797 47.4468 54.4419 47.3496L54.7843 46.8243C55.6986 45.3614 56.5818 43.7546 57.4572 42.1555L60.0834 37.3545L63.7639 39.3193Z" fill="#FFC3BD"/>
<path d="M66.0714 36.7958C66.4605 39.1302 61.1264 46.1683 61.1264 46.1683L57.2163 41.4646C58.3276 39.5557 59.6034 37.7474 61.0291 36.0604C63.0562 33.7883 65.6396 34.2202 66.0714 36.7958Z" fill="white"/>
<path opacity="0.2" d="M64.8224 38.7915C63.2661 39.1806 60.6438 40.8341 59.3755 44.0478L61.1379 46.1721C61.1379 46.1721 64.301 42.013 65.5772 39.0249C65.4909 38.9128 65.372 38.8302 65.2368 38.7884C65.1017 38.7466 64.9569 38.7477 64.8224 38.7915Z" fill="black"/>
<path d="M63.3131 34.5899C63.3131 34.5899 59.2123 39.819 59.4847 54.9108L73.3392 57.4163C73.8178 55.3076 73.989 46.7287 77.8524 37.08C76.3738 36.5081 74.8598 36.0324 73.3198 35.656C71.3788 35.1859 69.412 34.8299 67.4294 34.5899C66.0593 34.483 64.6831 34.483 63.3131 34.5899Z" fill="white"/>
<path opacity="0.2" d="M74.9183 42.9688C74.3269 43.8052 73.969 46.0813 74.7666 47.6375C74.9533 46.6726 75.1751 45.6611 75.4396 44.6067L74.9183 42.9688Z" fill="black"/>
<path d="M67.429 34.5898C67.429 34.5898 65.7677 37.8541 67.7052 39.5504C71.094 39.2625 73.3194 35.6598 73.3194 35.6598L67.429 34.5898Z" fill="#263238"/>
<path d="M42.0854 48.1289L42.1282 50.0626L43.8012 51.2725L44.556 48.6191L42.0854 48.1289Z" fill="#FFC3BD"/>
<path d="M47.5358 49.6346L44.5556 48.6191L43.8008 51.2726C43.8008 51.2726 45.536 52.0273 46.9133 51.0158L47.5358 49.6346Z" fill="#FFC3BD"/>
<path d="M73.934 28.917C73.2181 30.7456 72.2221 34.1499 73.3193 35.6556C73.3193 35.6556 71.8097 37.418 68.4209 37.706C66.4756 36.0096 67.4288 34.5934 67.4288 34.5934C69.6348 34.4689 69.8605 32.8932 69.7632 31.3525L73.934 28.917Z" fill="#FFC3BD"/>
<path opacity="0.2" d="M72.2337 29.9092L69.7632 31.3487C69.7925 31.7074 69.7925 32.0678 69.7632 32.4264C70.8603 32.9906 71.7552 32.3992 72.2337 31.2125C72.3316 30.7836 72.3316 30.3381 72.2337 29.9092Z" fill="black"/>
<path d="M68.464 26.8164C68.6235 27.9836 72.2223 26.081 72.8293 25.6803C73.4362 25.2796 72.7398 23.8906 71.3742 22.7701C70.0086 21.6496 68.0944 24.089 68.464 26.8164Z" fill="#263238"/>
<path d="M75.8484 27.3522C74.7473 29.7216 74.226 31.1651 72.5102 31.9276C69.9346 33.0948 67.3707 30.7954 67.7403 28.1459C68.071 25.7609 69.814 22.2866 72.5686 22.2477C73.1766 22.2363 73.7775 22.3808 74.3139 22.6673C74.8504 22.9538 75.3046 23.3728 75.6334 23.8844C75.9621 24.3961 76.1545 24.9833 76.1921 25.5903C76.2297 26.1973 76.1114 26.8039 75.8484 27.3522Z" fill="#FFC3BD"/>
<path d="M74.8758 29.5703C73.7086 29.7454 74.5334 25.7575 74.7474 25.065C74.9614 24.3724 76.8133 23.7383 77.8599 25.1622C79.1166 26.9014 77.5992 29.1657 74.8758 29.5703Z" fill="#263238"/>
<path d="M74.5258 21.4584C73.4792 21.2483 73.7788 20.1394 74.5491 20.1978C73.9305 19.4469 70.2694 18.7621 70.071 21.1899C69.8726 23.6177 74.5919 24.9638 75.8681 25.135L77.7706 25.668C80.3345 24.388 77.4905 22.0536 74.5258 21.4584Z" fill="#263238"/>
<path d="M75.9766 30.2204C75.4955 30.669 74.856 30.9083 74.1986 30.8857C73.331 30.8468 73.1637 30.0064 73.6306 29.3294C74.0468 28.7147 75.0078 27.995 75.7743 28.3646C75.9392 28.4488 76.0805 28.5727 76.1856 28.7252C76.2907 28.8776 76.3562 29.0538 76.3763 29.2379C76.3963 29.422 76.3703 29.6081 76.3005 29.7796C76.2308 29.9511 76.1195 30.1026 75.9766 30.2204Z" fill="#FFC3BD"/>
<path d="M60.0059 119.219L57.4809 119.717L56.2437 113.889L58.7687 113.391L60.0059 119.219Z" fill="#FFC3BD"/>
<path d="M57.3212 119.445L60.0796 118.9C60.13 118.891 60.1821 118.899 60.2273 118.923C60.2726 118.947 60.3083 118.986 60.3286 119.033L61.2663 121.176C61.2867 121.228 61.2958 121.284 61.2929 121.34C61.2899 121.395 61.275 121.45 61.2492 121.499C61.2234 121.549 61.1872 121.592 61.1431 121.626C61.0991 121.661 61.0482 121.685 60.9939 121.698C59.994 121.877 58.5467 122.087 57.2978 122.348C55.8349 122.635 55.3525 122.667 53.6523 123.005C52.6135 123.207 52.1194 122.227 52.5357 122.036C54.4265 121.215 55.2591 121.149 56.7531 119.76C56.9088 119.604 57.1058 119.494 57.3212 119.445Z" fill="#263238"/>
<path opacity="0.2" d="M56.2437 113.889L56.8817 116.892L59.4068 116.394L58.7687 113.391L56.2437 113.889Z" fill="black"/>
<path d="M56.3718 120.055C56.2086 120.131 56.0244 120.147 55.8505 120.102C55.7922 120.082 55.7402 120.046 55.6993 120C55.6585 119.954 55.6301 119.898 55.617 119.837C55.6039 119.803 55.6006 119.767 55.6075 119.731C55.6144 119.695 55.6312 119.662 55.6559 119.635C55.8738 119.398 56.8543 119.592 56.9632 119.616C56.9756 119.618 56.9869 119.625 56.9959 119.634C57.0049 119.643 57.0111 119.654 57.0138 119.666C57.0158 119.678 57.0142 119.69 57.0094 119.701C57.0046 119.713 56.9966 119.722 56.9865 119.729C56.7945 119.86 56.5883 119.97 56.3718 120.055ZM55.8193 119.666C55.7932 119.675 55.7693 119.69 55.7493 119.709C55.7493 119.709 55.7221 119.744 55.7493 119.791C55.7574 119.832 55.7759 119.871 55.8032 119.903C55.8305 119.935 55.8655 119.959 55.9049 119.974C56.2276 120 56.5479 119.901 56.7998 119.697C56.4732 119.621 56.1346 119.61 55.8038 119.666H55.8193Z" fill="#92E3A9"/>
<path d="M56.9595 119.717H56.9284C56.621 119.671 55.9285 119.328 55.8779 119.017C55.8706 118.97 55.8799 118.923 55.9041 118.882C55.9282 118.842 55.9657 118.811 56.0102 118.795C56.0534 118.775 56.1006 118.765 56.1483 118.765C56.196 118.765 56.2432 118.775 56.2864 118.795C56.6755 118.924 56.9789 119.616 56.9945 119.643C57.0004 119.653 57.0035 119.664 57.0035 119.675C57.0035 119.686 57.0004 119.696 56.9945 119.706C56.9847 119.714 56.9722 119.718 56.9595 119.717ZM56.0919 118.889H56.0646C55.9946 118.928 55.9985 118.966 56.0024 118.982C56.0296 119.153 56.4965 119.449 56.8194 119.55C56.7144 119.352 56.4848 118.963 56.2475 118.881C56.1962 118.866 56.1414 118.869 56.0919 118.889Z" fill="#92E3A9"/>
<path d="M59.4841 54.9102C59.4841 54.9102 53.333 78.3241 51.555 86.1559C49.7108 94.3068 55.9242 116.332 55.9242 116.332L60.0288 115.523C60.0288 115.523 58.3052 93.0657 58.8927 89.5019C61.2466 80.8724 68.5921 56.5598 68.5921 56.5598L59.4841 54.9102Z" fill="#92E3A9"/>
<path opacity="0.2" d="M60.2622 74.3167C60.0068 77.5773 60.0589 80.8547 60.4178 84.1055C62.1764 77.9855 64.6197 69.7763 66.3783 63.9131C64.6042 64.6795 60.9197 67.1112 60.2622 74.3167Z" fill="black"/>
<path d="M64.2696 55.7773C64.2696 55.7773 61.0482 79.6348 61.3244 87.346C61.624 95.7848 63.6199 120.327 63.6199 120.327L68.4326 120.444C68.4326 120.444 68.3587 97.2399 68.8217 89.0151C69.3041 80.09 73.2181 57.4036 73.2181 57.4036L64.2696 55.7773Z" fill="#92E3A9"/>
<path d="M68.7559 120.542L63.5618 120.429L63.1533 118.461L68.9037 118.426L68.7559 120.542Z" fill="#566C77" stroke="#566C77" stroke-linecap="round" stroke-linejoin="round"/>
<path d="M60.8386 115.468L55.7418 116.472L54.917 114.636L60.5662 113.628L60.8386 115.468Z" fill="#566C77" stroke="#566C77" stroke-linecap="round" stroke-linejoin="round"/>
<path d="M72.051 26.6448C71.9732 26.8432 71.8059 26.9638 71.6619 26.9132C71.518 26.8626 71.4907 26.6603 71.5685 26.4619C71.6463 26.2635 71.8136 26.1468 71.9576 26.1973C72.1015 26.2479 72.1249 26.4502 72.051 26.6448Z" fill="#263238"/>
<path d="M69.8142 25.7732C69.7363 25.9677 69.569 26.0883 69.4251 26.0377C69.2811 25.9872 69.2539 25.7848 69.3317 25.5903C69.4095 25.3958 69.5768 25.2713 69.7208 25.3218C69.8647 25.3724 69.892 25.5747 69.8142 25.7732Z" fill="#263238"/>
<path d="M70.3354 26.0889C69.863 26.6015 69.3223 27.0466 68.7285 27.4117C68.8263 27.5608 68.9551 27.687 69.1062 27.7817C69.2573 27.8764 69.4271 27.9373 69.6039 27.9603L70.3354 26.0889Z" fill="#ED847E"/>
<path d="M69.569 28.9169C69.5606 28.9143 69.5529 28.9099 69.5463 28.904C69.5397 28.8982 69.5345 28.891 69.5309 28.883C69.5273 28.875 69.5254 28.8663 69.5254 28.8575C69.5254 28.8487 69.5272 28.84 69.5308 28.832C69.5344 28.824 69.5397 28.8168 69.5463 28.811C69.5528 28.8052 69.5605 28.8008 69.5689 28.7981C69.5773 28.7955 69.5862 28.7946 69.5949 28.7957C69.6036 28.7967 69.612 28.7996 69.6196 28.8041C69.8595 28.915 70.122 28.9682 70.3862 28.9594C70.6504 28.9507 70.9088 28.8801 71.1408 28.7535C71.1477 28.7484 71.1556 28.7447 71.1639 28.7428C71.1723 28.7409 71.1809 28.7407 71.1894 28.7423C71.1978 28.7439 71.2058 28.7472 71.2129 28.752C71.22 28.7568 71.226 28.763 71.2306 28.7703C71.2352 28.7776 71.2382 28.7857 71.2395 28.7942C71.2407 28.8026 71.2403 28.8113 71.238 28.8196C71.2358 28.8279 71.2319 28.8356 71.2266 28.8423C71.2212 28.849 71.2145 28.8545 71.207 28.8585C70.9589 28.9996 70.6803 29.0785 70.3951 29.0887C70.1099 29.0989 69.8265 29.0399 69.569 28.9169Z" fill="#263238"/>
<path d="M73.2883 26.1969C73.2723 26.1871 73.2585 26.1741 73.2478 26.1587C73.2371 26.1433 73.2297 26.1258 73.226 26.1074C73.2059 25.9506 73.1488 25.8007 73.0596 25.6702C72.9703 25.5397 72.8513 25.4322 72.7124 25.3565C72.6827 25.343 72.6595 25.3182 72.6478 25.2876C72.6362 25.257 72.637 25.2231 72.6502 25.1931C72.6646 25.1631 72.69 25.1398 72.7213 25.1282C72.7525 25.1166 72.787 25.1175 72.8175 25.1309C72.9916 25.2245 73.1408 25.3585 73.2525 25.5216C73.3642 25.6848 73.4352 25.8723 73.4595 26.0685C73.4622 26.0849 73.4617 26.1017 73.4579 26.1178C73.4541 26.134 73.447 26.1492 73.4373 26.1626C73.4275 26.1761 73.4151 26.1874 73.4009 26.1959C73.3866 26.2045 73.3708 26.2101 73.3544 26.2125C73.3314 26.2131 73.3086 26.2078 73.2883 26.1969Z" fill="#263238"/>
<path d="M69.2498 24.4388C69.2333 24.4301 69.2197 24.4165 69.2109 24.3999C69.2018 24.3863 69.1955 24.3709 69.1925 24.3547C69.1895 24.3386 69.1898 24.322 69.1934 24.3059C69.1971 24.2899 69.204 24.2748 69.2137 24.2615C69.2234 24.2482 69.2357 24.2371 69.2498 24.2287C69.416 24.1213 69.6054 24.0551 69.8023 24.0354C69.9992 24.0158 70.1979 24.0434 70.382 24.1159C70.4121 24.1303 70.4354 24.1558 70.447 24.187C70.4586 24.2182 70.4576 24.2527 70.4443 24.2832C70.4372 24.2981 70.4272 24.3114 70.415 24.3224C70.4027 24.3335 70.3884 24.3419 70.3728 24.3473C70.3572 24.3528 70.3408 24.3551 70.3243 24.3541C70.3079 24.3531 70.2918 24.3488 70.277 24.3416C70.1308 24.2858 69.9734 24.2655 69.8178 24.2824C69.6623 24.2993 69.5129 24.3529 69.3821 24.4388C69.3623 24.4513 69.3394 24.4579 69.316 24.4579C69.2926 24.4579 69.2697 24.4513 69.2498 24.4388Z" fill="#263238"/>
<path d="M75.8833 36.2387L75.2374 36.0636C75.2065 36.0547 75.1733 36.0577 75.1444 36.0721C75.1156 36.0866 75.0932 36.1113 75.0818 36.1414C71.4946 45.5879 70.6426 56.151 70.6426 56.151L71.3623 56.2794C72.1784 49.5085 73.7228 42.8454 75.9689 36.406C75.9755 36.3895 75.9785 36.3717 75.9777 36.3539C75.9769 36.3361 75.9723 36.3187 75.9642 36.3028C75.9561 36.287 75.9447 36.2731 75.9307 36.262C75.9167 36.2509 75.9006 36.243 75.8833 36.2387Z" fill="#92E3A9"/>
<g opacity="0.99">
<path opacity="0.99" d="M71.4675 56.2999C71.4731 56.2695 71.4726 56.2383 71.466 56.208C71.4594 56.1778 71.4469 56.1492 71.4291 56.1239C71.4114 56.0985 71.3888 56.077 71.3626 56.0604C71.3365 56.0439 71.3073 56.0327 71.2768 56.0276L70.7788 55.9342C70.7229 55.9259 70.6659 55.9379 70.618 55.9679C70.5701 55.998 70.5346 56.0441 70.5177 56.0981C70.5008 56.152 70.5037 56.2102 70.5259 56.2622C70.5481 56.3142 70.5881 56.3565 70.6388 56.3816L70.5298 57.0002C70.5227 57.0401 70.5234 57.0809 70.5321 57.1205C70.5407 57.1601 70.5571 57.1975 70.5802 57.2308C70.6033 57.264 70.6328 57.2923 70.6668 57.3142C70.7009 57.3361 70.739 57.351 70.7788 57.3582C70.8187 57.3653 70.8596 57.3645 70.8991 57.3559C70.9387 57.3473 70.9761 57.3309 71.0094 57.3078C71.0426 57.2847 71.071 57.2552 71.0928 57.2211C71.1147 57.1871 71.1296 57.149 71.1368 57.1092L71.2496 56.4905C71.3019 56.4873 71.3516 56.4668 71.391 56.4323C71.4304 56.3978 71.4573 56.3513 71.4675 56.2999Z" fill="#263238"/>
</g>
<path d="M64.8887 34.3877H64.2195C64.1926 34.3881 64.1664 34.3969 64.1448 34.413C64.1231 34.429 64.1071 34.4515 64.0989 34.4772C60.9553 44.0093 60.644 54.3195 60.644 54.3195L61.3638 54.4518C62.212 43.6124 64.6164 35.7767 65.0132 34.5316C65.0154 34.5139 65.0138 34.4958 65.0086 34.4786C65.0034 34.4615 64.9946 34.4456 64.9829 34.4321C64.9712 34.4185 64.9567 34.4075 64.9405 34.3999C64.9243 34.3923 64.9067 34.3881 64.8887 34.3877Z" fill="#92E3A9"/>
<path opacity="0.99" d="M61.4687 54.4934C61.4767 54.4302 61.4602 54.3664 61.4225 54.315C61.3849 54.2636 61.329 54.2286 61.2664 54.2172L60.7684 54.1238C60.7381 54.1183 60.707 54.119 60.6771 54.1259C60.6471 54.1328 60.6189 54.1458 60.5941 54.164C60.5693 54.1822 60.5485 54.2053 60.533 54.2318C60.5175 54.2584 60.5075 54.2878 60.5038 54.3183C60.4983 54.3712 60.5096 54.4245 60.5362 54.4706C60.5627 54.5167 60.6031 54.5533 60.6516 54.5751L60.5699 55.1976C60.5596 55.2803 60.5812 55.3638 60.6304 55.431C60.6796 55.4983 60.7526 55.5442 60.8345 55.5594C60.874 55.5672 60.9147 55.5667 60.9541 55.558C60.9934 55.5493 61.0305 55.5325 61.063 55.5088C61.0955 55.485 61.1228 55.4548 61.143 55.42C61.1633 55.3852 61.1762 55.3466 61.1808 55.3066L61.2625 54.684C61.3138 54.6817 61.3627 54.6613 61.4004 54.6264C61.4381 54.5915 61.4623 54.5444 61.4687 54.4934Z" fill="#263238"/>
<path d="M64.0987 124.055C63.9242 124.094 63.7415 124.072 63.5813 123.993C63.5293 123.958 63.4864 123.912 63.4559 123.858C63.4254 123.804 63.4084 123.743 63.4062 123.681C63.4012 123.646 63.4062 123.609 63.4206 123.576C63.435 123.543 63.4583 123.515 63.4879 123.495C63.7563 123.308 64.6551 123.709 64.7718 123.755C64.7828 123.761 64.7922 123.769 64.7991 123.779C64.8059 123.789 64.8099 123.801 64.8107 123.814C64.8089 123.826 64.804 123.837 64.7965 123.847C64.789 123.856 64.7791 123.864 64.7679 123.868C64.5531 123.957 64.3284 124.02 64.0987 124.055ZM63.6396 123.557C63.6117 123.559 63.5848 123.568 63.5618 123.584C63.5493 123.592 63.5397 123.604 63.5341 123.618C63.5286 123.632 63.5274 123.647 63.5307 123.662C63.5315 123.704 63.5426 123.746 63.5629 123.783C63.5832 123.82 63.6122 123.852 63.6474 123.876C63.9563 123.97 64.2895 123.941 64.5773 123.794C64.2828 123.656 63.9645 123.575 63.6396 123.557Z" fill="#92E3A9"/>
<path d="M64.7559 123.872H64.7248C64.433 123.759 63.8339 123.261 63.8494 122.962C63.8531 122.915 63.8724 122.871 63.9041 122.836C63.9358 122.802 63.9782 122.779 64.0245 122.771C64.0713 122.759 64.12 122.758 64.1675 122.766C64.215 122.774 64.2604 122.791 64.3007 122.818C64.6353 123.024 64.8026 123.767 64.8065 123.798C64.8093 123.809 64.809 123.821 64.8056 123.832C64.8022 123.843 64.7957 123.853 64.7871 123.86C64.7829 123.864 64.778 123.867 64.7727 123.869C64.7673 123.871 64.7616 123.872 64.7559 123.872ZM64.0867 122.888H64.0556C63.9778 122.911 63.9778 122.95 63.9739 122.966C63.9739 123.141 64.363 123.526 64.6548 123.693C64.5942 123.398 64.4481 123.128 64.2346 122.915C64.1904 122.888 64.1377 122.878 64.0867 122.888Z" fill="#92E3A9"/>
<path d="M65.8882 63.9521L68.0631 65.4889L69.6932 64.2867L67.6078 61.7461L65.8882 63.9521Z" fill="#FFC3BD"/>
<path d="M70.6854 61.2832L67.6079 61.7462L69.6933 64.2868C69.6933 64.2868 71.8292 63.7654 71.7125 62.0536L70.6854 61.2832Z" fill="#FFC3BD"/>
<path d="M79.7509 41.1064C79.8676 43.1374 79.9299 45.1605 79.9415 47.1992C79.9415 48.2147 79.9415 49.234 79.9415 50.2611C79.9415 50.7708 79.9221 51.2844 79.8948 51.8174L79.8559 52.5955L79.8365 52.9846C79.8365 53.1674 79.7976 53.3737 79.7704 53.5682C79.6534 54.2473 79.4302 54.9038 79.1089 55.5135C78.8298 56.0404 78.5125 56.5463 78.1596 57.027C77.5018 57.906 76.7718 58.7285 75.977 59.4859C74.4547 60.9395 72.7903 62.2364 71.0086 63.357L69.748 61.723C70.425 61.0382 71.1331 60.3262 71.7867 59.5948C72.4404 58.8634 73.0901 58.1358 73.6854 57.3888C74.2684 56.6697 74.8002 55.9104 75.2766 55.1167C75.486 54.7581 75.6694 54.3849 75.8252 54C75.9516 53.6996 76.0341 53.3825 76.0703 53.0585C76.0664 53.0002 76.0664 52.9417 76.0703 52.8834V52.5255L76.0509 51.794L75.9886 50.3117L75.8252 47.3004C75.7241 45.3006 75.6424 43.2852 75.5879 41.2815L79.7509 41.1064Z" fill="#FFC3BD"/>
<path d="M77.852 37.0791C81.1785 38.3163 81.1513 47.2142 81.1513 47.2142L75.5215 48.2491C75.5215 48.2491 74.1598 44.2068 74.8329 41.0242C75.4748 37.9856 75.3231 36.1337 77.852 37.0791Z" fill="white"/>
<path d="M34.9113 48.5269L19.8312 42.8777L17.1816 26.9961L29.6317 16.7598L44.7002 22.4012L47.3497 38.2867L34.9113 48.5269ZM20.4653 42.3563L34.7751 47.7137L46.5677 37.9871L44.0543 22.9187L29.7445 17.5612L17.952 27.2878L20.4653 42.3563Z" fill="#92E3A9"/>
<path d="M31.6466 18.5733C32.422 17.4874 32.1704 15.9785 31.0844 15.203C29.9985 14.4276 28.4896 14.6793 27.7141 15.7652C26.9387 16.8511 27.1904 18.3601 28.2763 19.1355C29.3622 19.9109 30.8712 19.6593 31.6466 18.5733Z" fill="#92E3A9"/>
<path d="M36.8053 49.5235C37.5807 48.4376 37.329 46.9287 36.2431 46.1532C35.1572 45.3778 33.6483 45.6295 32.8728 46.7154C32.0974 47.8013 32.3491 49.3103 33.435 50.0857C34.5209 50.8611 36.0299 50.6094 36.8053 49.5235Z" fill="#92E3A9"/>
<path d="M42.9683 24.6341C42.5794 24.3563 42.2816 23.9694 42.1126 23.5224C41.9436 23.0753 41.911 22.5882 42.0189 22.1226C42.1268 21.657 42.3704 21.2338 42.7188 20.9067C43.0672 20.5795 43.5049 20.3631 43.9763 20.2847C44.4478 20.2063 44.9319 20.2695 45.3675 20.4663C45.803 20.6631 46.1704 20.9846 46.4232 21.3902C46.6759 21.7958 46.8027 22.2673 46.7875 22.745C46.7723 23.2227 46.6157 23.6852 46.3376 24.0739C45.965 24.5947 45.4007 24.9464 44.7689 25.0514C44.1372 25.1565 43.4895 25.0064 42.9683 24.6341Z" fill="#92E3A9"/>
<path d="M16.1582 29.0807C15.769 28.8033 15.4709 28.4167 15.3015 27.9699C15.132 27.523 15.0989 27.036 15.2064 26.5703C15.3138 26.1046 15.5569 25.6813 15.9049 25.3538C16.253 25.0263 16.6903 24.8094 17.1616 24.7304C17.633 24.6515 18.1171 24.7142 18.5529 24.9104C18.9886 25.1067 19.3563 25.4278 19.6096 25.833C19.8628 26.2383 19.9902 26.7096 19.9756 27.1873C19.961 27.6649 19.805 28.1276 19.5275 28.5166C19.1547 29.0372 18.5909 29.3889 17.9593 29.4947C17.3278 29.6004 16.6801 29.4516 16.1582 29.0807Z" fill="#92E3A9"/>
<path d="M45.5521 40.1385C45.1635 39.8607 44.8659 39.474 44.6971 39.0271C44.5282 38.5803 44.4955 38.0935 44.6032 37.6281C44.711 37.1627 44.9542 36.7398 45.3022 36.4126C45.6502 36.0854 46.0874 35.8687 46.5586 35.7899C47.0297 35.7111 47.5136 35.7738 47.9491 35.9699C48.3847 36.166 48.7523 36.4869 49.0056 36.8918C49.2589 37.2968 49.3864 37.7678 49.3721 38.2453C49.3578 38.7227 49.2023 39.1852 48.9253 39.5743C48.741 39.8331 48.5075 40.053 48.2382 40.2214C47.9689 40.3899 47.669 40.5035 47.3556 40.5559C47.0423 40.6083 46.7218 40.5984 46.4123 40.5268C46.1028 40.4552 45.8105 40.3232 45.5521 40.1385Z" fill="#92E3A9"/>
<path d="M18.7452 44.5775C18.3563 44.2997 18.0585 43.9128 17.8895 43.4657C17.7205 43.0187 17.6879 42.5315 17.7958 42.0659C17.9037 41.6003 18.1473 41.1772 18.4957 40.85C18.8441 40.5229 19.2817 40.3064 19.7532 40.228C20.2246 40.1496 20.7088 40.2128 21.1443 40.4096C21.5799 40.6064 21.9472 40.928 22.2 41.3336C22.4528 41.7392 22.5796 42.2107 22.5644 42.6884C22.5491 43.1661 22.3926 43.6285 22.1145 44.0172C21.9303 44.2755 21.6969 44.495 21.4278 44.663C21.1587 44.831 20.859 44.9443 20.5461 44.9964C20.2331 45.0484 19.9129 45.0382 19.6039 44.9663C19.2949 44.8944 19.0031 44.7623 18.7452 44.5775Z" fill="#92E3A9"/>
<path d="M33.8962 35.7293L31.6264 36.015L29.2476 25.66C29.1151 25.083 29.51 24.5178 30.0974 24.4439L32.5224 24.1387C33.1102 24.0647 33.6331 24.5151 33.647 25.1074L33.8962 35.7293ZM31.9501 40.7808C31.8939 40.3344 31.9694 39.947 32.1766 39.6187C32.3916 39.2792 32.7438 39.0787 33.2331 39.0171C33.7224 38.9555 34.1132 39.0625 34.4056 39.3381C34.6968 39.6037 34.8705 39.9598 34.9266 40.4061C34.9828 40.8525 34.9028 41.2405 34.6865 41.57C34.469 41.8896 34.1156 42.0802 33.6264 42.1417C33.1371 42.2033 32.7475 42.1063 32.4575 41.8505C32.1754 41.5837 32.0063 41.2272 31.9501 40.7808Z" fill="#566C77"/>
</svg>
