<svg width="296" height="71" viewBox="0 0 296 71" fill="none" xmlns="http://www.w3.org/2000/svg">
<path d="M96.5496 27.1683C96.5496 26.6754 96.2045 26.3304 95.7116 26.3304H91.2755L92.212 21.2535C92.212 21.2042 92.212 21.1549 92.212 21.1056C92.212 20.7113 91.9163 20.5141 91.522 20.5141C91.4727 20.5141 91.3741 20.5141 91.3248 20.5141L86.5929 21.3028C86.0507 21.4014 85.5578 21.7464 85.4592 22.2886L84.7199 26.3304H80.0866C79.5444 26.3304 79.0515 26.774 78.9529 27.3162L78.5586 29.5343C78.5586 29.5836 78.5586 29.6329 78.5586 29.6821C78.5586 30.1751 78.9036 30.4708 79.3472 30.5201L83.882 31.2101L81.171 46.6873C81.0231 47.5746 80.9245 48.3632 80.9245 49.1026C80.9245 53.0458 83.2905 54.5245 87.628 54.5245C88.7124 54.5245 89.7968 54.3766 91.029 54.1795C91.6698 54.0809 92.0149 53.7851 92.1134 53.2922L92.6556 50.1869C92.6556 50.1376 92.6556 50.0884 92.6556 50.0391C92.6556 49.5462 92.212 49.4476 91.7684 49.4476H89.156C87.9238 49.4476 87.4801 49.2997 87.4801 48.4125C87.4801 48.0182 87.5787 47.4267 87.7266 46.6873L90.4376 31.2101H94.8737C95.4159 31.2101 95.9581 30.7665 96.0567 30.2243L96.5496 27.3162C96.5496 27.2669 96.5496 27.2176 96.5496 27.1683Z" fill="#2D4A60"/>
<path d="M121.193 36.0899C121.193 30.3229 118.088 25.9854 111.532 25.9854C103.991 25.9854 99.1109 29.3864 97.4843 38.6037L96.9421 41.6597C96.7449 42.6948 96.6956 43.7299 96.6956 44.6171C96.6956 52.06 102.019 54.5245 106.406 54.5245C110.842 54.5245 113.011 54.278 116.313 53.6866C117.25 53.5387 117.398 53.1937 117.545 52.405L118.137 49.1518C118.137 49.1026 118.137 49.004 118.137 48.9547C118.137 48.5111 117.792 48.4125 117.398 48.4125C117.348 48.4125 117.25 48.4125 117.2 48.4125C115.081 48.6096 111.68 48.9547 108.082 48.9547C104.434 48.9547 103.054 47.1802 103.054 44.5185C103.054 43.8285 103.202 43.1877 103.301 42.4976H119.369C120.059 42.4976 120.404 42.054 120.552 41.2654L120.946 38.8994C121.094 37.9629 121.193 36.9771 121.193 36.0899ZM114.785 35.9913C114.785 36.6321 114.687 37.2236 114.588 37.8643H104.138C104.779 34.2662 106.603 31.6045 110.546 31.6045C113.257 31.6045 114.785 33.1325 114.785 35.9913Z" fill="#2D4A60"/>
<path d="M145.39 28.0556C145.39 28.0063 145.39 27.957 145.39 27.9077C145.39 27.4641 145.193 27.1683 144.7 27.0205C141.989 26.3304 138.933 25.9854 135.976 25.9854C131.244 25.9854 125.575 27.5627 125.575 34.069C125.575 36.4349 126.906 38.653 128.779 39.9345L134.793 44.0749C135.976 44.9129 136.419 45.6522 136.419 46.4409C136.419 48.7575 134.595 49.2011 132.18 49.2011C130.701 49.2011 126.61 48.9547 124.294 48.6589C124.244 48.6589 124.195 48.6589 124.146 48.6589C123.653 48.6589 123.209 48.9547 123.111 49.4476L122.569 52.405C122.569 52.4543 122.569 52.4543 122.569 52.5036C122.569 52.5529 122.569 52.6022 122.569 52.6515C122.569 53.0951 122.815 53.3908 123.308 53.5387C126.315 54.3766 130.554 54.5245 132.18 54.5245C138.046 54.5245 143.073 51.9121 143.073 45.7508C143.073 43.582 142.383 41.5611 139.426 39.5402L133.659 35.597C132.673 34.9069 132.18 34.2662 132.18 33.5761C132.18 31.5059 134.448 31.3087 135.976 31.3087C138.785 31.3087 142.433 31.7031 143.763 31.9002H143.813C143.862 31.9002 143.911 31.9002 143.961 31.9002C144.453 31.9002 144.798 31.5552 144.897 30.9637L145.39 28.1541C145.39 28.1049 145.39 28.1049 145.39 28.0556Z" fill="#2D4A60"/>
<path d="M166.385 27.1683C166.385 26.6754 166.04 26.3304 165.547 26.3304H161.111L162.048 21.2535C162.048 21.2042 162.048 21.1549 162.048 21.1056C162.048 20.7113 161.752 20.5141 161.357 20.5141C161.308 20.5141 161.21 20.5141 161.16 20.5141L156.428 21.3028C155.886 21.4014 155.393 21.7464 155.295 22.2886L154.555 26.3304H149.922C149.38 26.3304 148.887 26.774 148.788 27.3162L148.394 29.5343C148.394 29.5836 148.394 29.6329 148.394 29.6821C148.394 30.1751 148.739 30.4708 149.183 30.5201L153.717 31.2101L151.006 46.6873C150.859 47.5746 150.76 48.3632 150.76 49.1026C150.76 53.0458 153.126 54.5245 157.464 54.5245C158.548 54.5245 159.632 54.3766 160.865 54.1795C161.505 54.0809 161.85 53.7851 161.949 53.2922L162.491 50.1869C162.491 50.1376 162.491 50.0884 162.491 50.0391C162.491 49.5462 162.048 49.4476 161.604 49.4476H158.992C157.759 49.4476 157.316 49.2997 157.316 48.4125C157.316 48.0182 157.414 47.4267 157.562 46.6873L160.273 31.2101H164.709C165.251 31.2101 165.794 30.7665 165.892 30.2243L166.385 27.3162C166.385 27.2669 166.385 27.2176 166.385 27.1683Z" fill="#2D4A60"/>
<path d="M187.775 28.0556C187.775 28.0063 187.775 27.957 187.775 27.9077C187.775 27.4641 187.578 27.1683 187.085 27.0205C184.374 26.3304 181.318 25.9854 178.361 25.9854C173.629 25.9854 167.961 27.5627 167.961 34.069C167.961 36.4349 169.291 38.653 171.164 39.9345L177.178 44.0749C178.361 44.9129 178.804 45.6522 178.804 46.4409C178.804 48.7575 176.981 49.2011 174.565 49.2011C173.087 49.2011 168.996 48.9547 166.679 48.6589C166.63 48.6589 166.58 48.6589 166.531 48.6589C166.038 48.6589 165.595 48.9547 165.496 49.4476L164.954 52.405C164.954 52.4543 164.954 52.4543 164.954 52.5036C164.954 52.5529 164.954 52.6022 164.954 52.6515C164.954 53.0951 165.2 53.3908 165.693 53.5387C168.7 54.3766 172.939 54.5245 174.565 54.5245C180.431 54.5245 185.459 51.9121 185.459 45.7508C185.459 43.582 184.769 41.5611 181.811 39.5402L176.044 35.597C175.058 34.9069 174.565 34.2662 174.565 33.5761C174.565 31.5059 176.833 31.3087 178.361 31.3087C181.17 31.3087 184.818 31.7031 186.149 31.9002H186.198C186.247 31.9002 186.297 31.9002 186.346 31.9002C186.839 31.9002 187.184 31.5552 187.282 30.9637L187.775 28.1541C187.775 28.1049 187.775 28.1049 187.775 28.0556Z" fill="#2D4A60"/>
<path d="M201.968 17.1624C201.968 16.6695 201.623 16.3245 201.13 16.3245H196.349C195.807 16.3245 195.265 16.7681 195.166 17.3103L194.378 21.6478C194.378 21.6971 194.378 21.7464 194.378 21.7957C194.378 22.2886 194.772 22.6336 195.265 22.6336H200.046C200.588 22.6336 201.081 22.19 201.18 21.6478L201.968 17.3103C201.968 17.261 201.968 17.2117 201.968 17.1624ZM200.046 27.1683C200.046 26.6754 199.701 26.3304 199.208 26.3304H194.673C194.131 26.3304 193.638 26.774 193.54 27.3162L189.005 53.0951C189.005 53.1444 189.005 53.1937 189.005 53.2922C189.005 53.7358 189.301 54.1302 189.794 54.1302H194.328C194.87 54.1302 195.413 53.6373 195.511 53.0951L200.046 27.3162C200.046 27.2669 200.046 27.2176 200.046 27.1683Z" fill="#2D4A60"/>
<path d="M227.563 28.2527C227.563 27.6612 227.169 27.4641 226.43 27.2669C223.817 26.5769 219.923 25.9854 216.769 25.9854C208.833 25.9854 204.347 29.14 202.77 38.3573L202.129 42.1526C201.932 43.237 201.883 44.2228 201.883 45.1593C201.883 51.8135 206.368 54.4752 212.086 54.4752C213.515 54.4752 215.043 54.278 216.571 53.9823L216.522 54.3766C216.128 57.6791 214.846 58.7635 211.1 58.7635C208.833 58.7635 204.249 58.3691 202.08 58.172C202.031 58.172 201.981 58.172 201.981 58.172C201.439 58.172 200.996 58.4677 200.897 59.0099L200.404 61.6223C200.404 61.7209 200.355 61.8688 200.355 61.918C200.355 62.4109 200.651 62.6081 201.193 62.8053C202.376 63.1996 205.432 63.9882 210.213 63.9882C218.79 63.9882 221.747 61.228 223.028 54.0316L227.514 28.5978C227.514 28.4499 227.563 28.3513 227.563 28.2527ZM220.465 31.7523L217.459 48.8068C216.029 49.004 213.86 49.2011 212.678 49.2011C209.375 49.2011 208.291 47.8703 208.291 45.2579C208.291 44.3707 208.439 43.3356 208.636 42.1526L209.276 38.3573C210.065 33.6254 211.79 31.3087 215.832 31.3087C217.607 31.3087 219.578 31.5552 220.465 31.7523Z" fill="#2D4A60"/>
<path d="M267.431 33.1818C267.431 28.7456 265.312 25.9854 260.629 25.9854C257.228 25.9854 254.468 26.774 251.954 28.4006C251.116 27.119 249.489 25.9854 246.68 25.9854C243.772 25.9854 241.652 27.0205 239.385 28.3513L239.582 27.3162C239.582 27.2669 239.582 27.2176 239.582 27.1683C239.582 26.6754 239.237 26.3304 238.744 26.3304H234.456C233.914 26.3304 233.421 26.774 233.322 27.3162L228.787 53.0951C228.787 53.1444 228.787 53.1937 228.787 53.2922C228.787 53.7358 229.083 54.1302 229.576 54.1302H234.111C234.653 54.1302 235.195 53.6373 235.294 53.0951L238.793 33.1818C241.011 32.0974 242.589 31.5552 243.624 31.5552C245.645 31.5552 246.433 32.0974 246.433 33.9211C246.433 34.5619 246.384 35.3505 246.187 36.3363L243.23 53.0951C243.23 53.1444 243.23 53.1937 243.23 53.2922C243.23 53.7358 243.525 54.1302 244.018 54.1302H248.553C249.095 54.1302 249.637 53.6373 249.736 53.0951L252.693 36.3363C252.89 35.1041 252.89 33.8718 252.94 32.7874C254.911 31.8509 256.982 31.5552 257.918 31.5552C260.038 31.5552 260.875 32.1467 260.875 34.069C260.875 34.6605 260.777 35.3998 260.629 36.3363L257.672 53.0951C257.672 53.1444 257.672 53.1937 257.672 53.2922C257.672 53.7358 257.967 54.1302 258.46 54.1302H262.995C263.537 54.1302 264.079 53.6373 264.178 53.0951L267.135 36.3363C267.333 35.2027 267.431 34.1676 267.431 33.1818Z" fill="#2D4A60"/>
<path d="M295.79 28.2034C295.79 27.612 295.396 27.4641 294.656 27.2669C291.748 26.4783 288.15 25.9854 284.996 25.9854C277.06 25.9854 272.377 30.668 270.997 38.3573C270.652 40.181 270.258 42.6455 270.258 42.6455C270.061 43.6313 270.011 44.7157 270.011 45.6029C270.011 51.4685 273.56 54.5245 278.095 54.5245C280.51 54.5245 282.975 53.8344 285.735 51.7149L285.538 53.1444C285.538 53.1937 285.538 53.2429 285.538 53.2922C285.538 53.7851 285.784 54.1302 286.326 54.1302H290.27C290.812 54.1302 291.354 53.6866 291.453 53.1444L295.741 28.5978C295.79 28.4499 295.79 28.3513 295.79 28.2034ZM288.692 31.6538L285.981 47.1309C283.763 48.4125 281.693 49.2011 279.82 49.2011C277.898 49.2011 276.419 48.2646 276.419 45.4551C276.419 44.8636 276.468 44.1735 276.616 43.4342L277.503 38.3573C278.193 34.3154 279.82 31.3087 284.059 31.3087C285.833 31.3087 287.805 31.4566 288.692 31.6538Z" fill="#2D4A60"/>
<path d="M68.6119 26.3047C67.9528 25.3144 67.0189 24.7394 65.8585 24.5884C65.3143 24.5214 64.7461 24.4287 64.2088 24.3429C63.5205 24.2382 62.8132 24.1267 62.1163 24.0511C60.2572 23.8623 59.1173 23.0883 58.429 21.571C57.9569 20.5343 57.9002 19.6092 58.2573 18.6961L58.5234 18.0079C58.9834 16.8116 59.4641 15.5655 59.9739 14.3589C60.4649 13.1901 60.4271 12.0402 59.8623 10.928C58.8255 8.89067 57.1947 7.4764 55.0266 6.7315C53.7992 6.30757 52.5822 6.46719 51.4801 7.1932C50.9531 7.53304 50.4055 7.86258 49.8699 8.18353C49.1232 8.63665 48.3507 9.10693 47.6246 9.61668C47.1165 9.97368 46.4744 10.1625 45.7758 10.1625C44.0317 10.1625 42.3425 9.01253 41.9288 7.55192C41.7125 6.76926 41.4482 5.99691 41.1924 5.25201C40.9675 4.6204 40.7495 3.96132 40.5504 3.31941C40.1453 1.9532 39.2492 1.00921 37.8828 0.509754C37.4879 0.369014 37.0811 0.255735 36.6846 0.161336C36.5249 0.114995 36.3464 0.0669374 36.185 0.0188798L36.1009 0H33.847L33.7612 0.0291779C33.7148 0.0394759 33.677 0.0583557 33.6307 0.0755192C33.5741 0.094399 33.5157 0.113279 33.4522 0.123577C31.1519 0.538932 29.7752 1.70776 29.2636 3.72447C29.0387 4.61182 28.7195 5.50603 28.4173 6.36421C28.256 6.82762 28.0946 7.28932 27.9453 7.75101C27.4921 9.12752 25.8613 10.2123 24.2288 10.2123C23.5799 10.2123 22.9654 10.0338 22.4675 9.68362C21.5526 9.06058 20.6016 8.47703 19.6763 7.92093C19.2334 7.64803 18.7905 7.38372 18.3562 7.11082C17.4979 6.5736 16.5555 6.41226 15.6234 6.64912C13.0896 7.26872 11.234 8.81515 10.0924 11.2386C9.64096 12.2101 9.62036 13.2742 10.0547 14.3298C10.2521 14.8103 10.4409 15.2926 10.6297 15.7818C10.913 16.5267 11.2048 17.2905 11.5344 18.0354C12.2125 19.5629 12.1386 20.9119 11.2786 22.2593C10.695 23.1844 9.93107 23.7302 8.94058 23.919C7.51579 24.1936 5.98972 24.4287 4.3967 24.6175C3.04743 24.7686 2.0003 25.4379 1.27588 26.6068C0.295695 28.191 -0.119726 29.9914 0.0296195 31.9429C0.172099 33.7725 1.04929 35.0821 2.63373 35.8373C3.2088 36.1119 3.77356 36.4414 4.33146 36.7521C4.94258 37.1005 5.56743 37.4592 6.22661 37.7699C7.17075 38.2024 7.87628 39.203 8.10287 40.4182C8.33805 41.6832 8.01876 42.9653 7.25315 43.7462C6.18713 44.8584 5.14171 46.0564 4.15122 47.3007C3.69803 47.8568 3.37702 48.5554 3.25343 49.2248C2.79337 51.8542 4.99923 55.7486 7.47116 56.672C8.08227 56.8985 8.85647 56.9638 9.56371 56.8591C10.8924 56.6514 12.2708 56.3785 13.7694 56.0112C15.3075 55.6336 16.4954 55.9528 17.6353 57.077C18.4918 57.9249 18.8798 58.8397 18.8506 59.9794C18.8146 61.4417 18.7768 63.007 18.7099 64.5912C18.6532 65.7875 19.0686 66.8259 19.9269 67.6652C21.2951 69.0039 23.0117 69.7969 25.0459 70.0131C25.2742 70.0423 25.4888 70.0509 25.7068 70.0509C27.2535 70.0509 28.5066 69.3901 29.4044 68.0891C29.7614 67.5879 30.1494 67.1177 30.5631 66.6182C30.9888 66.0999 31.4214 65.573 31.818 65.0066C32.4668 64.0454 33.665 63.4704 35.004 63.4704C36.3155 63.4704 37.5034 64.0368 38.1729 64.9705C38.7205 65.7429 39.323 66.4878 39.8998 67.2052C40.2568 67.6394 40.6156 68.0822 40.9555 68.5336C41.6147 69.3918 42.5108 69.8913 43.5201 69.9857C45.9715 70.2122 48.1687 69.457 50.0347 67.751C50.9291 66.9306 51.3548 65.875 51.2878 64.6032C51.2518 64.0471 51.2415 63.4618 51.2312 62.9058C51.214 62.1694 51.1934 61.416 51.1368 60.6711C51.0063 58.917 51.5539 57.6537 52.8448 56.7012C53.7014 56.0781 54.5408 55.8516 55.4558 56.0026C57.1054 56.2755 58.5783 56.5776 59.9636 56.9277C61.3953 57.2761 62.7171 56.9466 63.8655 55.9271C65.3092 54.6639 66.2516 53.0522 66.6567 51.1471C66.9966 49.5543 66.6189 48.1778 65.534 47.0553C65.1083 46.6125 64.6946 46.1319 64.2981 45.6702C63.9015 45.1999 63.4878 44.7176 63.0518 44.2645C61.8656 43.0408 61.536 41.7758 61.9789 40.1745C62.2811 39.052 62.8355 38.2985 63.7041 37.8076C65.1272 36.9958 66.4559 36.2698 67.7777 35.5833C68.8334 35.0272 69.5114 34.169 69.7844 33.0293C70.3766 30.6316 69.9801 28.3695 68.6119 26.3047Z" fill="#03A973"/>
<path d="M34.8651 26.8244L34.875 26.683L34.9737 24.1829C34.9556 24.0691 35.0001 23.6243 35.0001 23.557C35.01 22.2225 35.0807 22.3173 35.191 19.7776C35.1976 19.5793 35.1186 19.381 34.9655 19.2465C34.8207 19.1137 34.6199 19.0775 34.4307 19.1241C33.3742 19.3982 32.0626 19.6913 30.5354 19.9948C30.2458 20.0517 30.0549 20.3069 30.0285 20.6017C29.8475 22.9415 29.8739 22.3932 29.7866 23.4898L29.5414 26.6071C29.5414 26.6071 29.5414 26.6158 29.5414 26.6261L29.3867 29.5711L29.056 35.973L28.9375 38.2455C28.7828 41.1732 28.7021 42.8302 28.6857 43.3216C28.6659 43.8061 28.6577 44.1544 28.6577 44.3647C28.6577 45.9372 28.9276 47.2252 29.4624 48.1804C30.0137 49.1546 30.8086 49.8753 31.8305 50.3115C32.7982 50.7391 34.0719 50.946 35.6188 50.946C36.2244 50.946 36.8844 50.9081 37.5624 50.8409C38.2486 50.765 39.1718 50.5857 40.3188 50.3098C40.5624 50.2426 40.7533 50.0357 40.7895 49.7788C40.88 49.1529 40.9804 48.377 41.0627 47.6287C41.1696 46.72 41.2783 45.782 41.3786 45.3355C41.433 45.0889 41.3424 44.832 41.1532 44.682C40.9623 44.5303 40.7089 44.5027 40.4949 44.6165C39.3825 45.2044 38.7588 45.4407 37.7467 45.6389C37.3929 45.7148 37.0851 45.7148 36.7511 45.7148H36.5898C36.1191 45.7148 35.4938 45.5545 34.9886 45.2975C34.5278 45.0596 34.4192 44.9751 34.3369 44.5786C34.1921 43.8302 34.1921 43.6699 34.1921 42.7802V42.3923L34.22 41.2922L34.5821 33.204L34.8651 26.8244Z" fill="white"/>
<path d="M47.6103 27.1644L46.525 24.8048C46.345 24.4217 46.0213 24.1174 45.6318 23.9795C45.2424 23.8309 44.8148 23.8506 44.434 24.0386L36.4094 28.0112L36.4198 27.8644L30.6471 30.863L27.2545 32.5441L25.9528 29.7029C25.7797 29.3198 25.4578 29.0244 25.0683 28.8758C24.6788 28.729 24.2513 28.7487 23.8705 28.9367L21.5891 30.0556C20.8102 30.4387 20.4779 31.4037 20.8483 32.2093L23.8999 38.878C24.0799 39.2611 24.395 39.5654 24.7844 39.7033C24.9575 39.7731 25.1375 39.8018 25.3072 39.8018C25.5443 39.8018 25.7745 39.7534 25.9822 39.6442L30.2992 37.5102L36.1117 34.6351L46.8746 29.3145C47.6484 28.9349 47.9807 27.97 47.6103 27.1644Z" fill="white"/>
</svg>
