<svg width="44" height="88" viewBox="0 0 44 88" fill="none" xmlns="http://www.w3.org/2000/svg">
<g clip-path="url(#clip0)">
<path d="M44.0811 20.981H43.596V7.69158C43.596 6.68151 43.3971 5.68132 43.0106 4.74813C42.624 3.81495 42.0575 2.96703 41.3432 2.2528C40.629 1.53858 39.7811 0.972018 38.8479 0.585481C37.9147 0.198944 36.9145 -2.90069e-06 35.9044 0H7.74897C6.7389 -3.07132e-06 5.73871 0.198944 4.80552 0.585481C3.87233 0.972017 3.02442 1.53857 2.31019 2.2528C1.59596 2.96703 1.0294 3.81495 0.642861 4.74813C0.256322 5.68132 0.0573719 6.68151 0.057373 7.69158V80.5985C0.0573719 81.6086 0.256322 82.6088 0.642861 83.542C1.0294 84.4752 1.59596 85.3231 2.31019 86.0373C3.02442 86.7515 3.87233 87.3181 4.80552 87.7046C5.73871 88.0912 6.7389 88.2901 7.74897 88.2901H35.9044C36.9145 88.2901 37.9147 88.0912 38.8479 87.7046C39.7811 87.3181 40.629 86.7515 41.3432 86.0373C42.0575 85.3231 42.624 84.4752 43.0106 83.542C43.3971 82.6088 43.596 81.6086 43.596 80.5985V30.4407H44.0811V20.981Z" fill="#3F3D56"/>
<path d="M42.028 7.04014V79.2499C42.0277 80.7606 41.4131 82.2093 40.3193 83.2775C39.2255 84.3457 37.7422 84.946 36.1953 84.9463H7.46254C5.91533 84.9465 4.43141 84.3464 3.33714 83.2782C2.24288 82.2099 1.62789 80.7609 1.62744 79.2499V7.04014C1.62789 5.52909 2.24288 4.08008 3.33715 3.01183C4.43141 1.94358 5.91534 1.34356 7.46254 1.34375H10.948C10.7769 1.7548 10.7117 2.20061 10.7583 2.64201C10.8049 3.0834 10.9618 3.50686 11.2152 3.87516C11.4687 4.24346 11.8108 4.54533 12.2117 4.75424C12.6125 4.96315 13.0598 5.07269 13.5141 5.07325H29.8957C30.35 5.0727 30.7973 4.96316 31.1981 4.75425C31.599 4.54535 31.9411 4.24347 32.1945 3.87517C32.448 3.50686 32.6049 3.0834 32.6514 2.64201C32.698 2.20061 32.6329 1.7548 32.4617 1.34375H36.1953C37.7422 1.34406 39.2255 1.94431 40.3193 3.01252C41.4131 4.08073 42.0277 5.52946 42.028 7.04014Z" fill="#BEC4DA"/>
<path d="M36.3215 45.6799H7.33423V74.6672H36.3215V45.6799Z" fill="white"/>
<path d="M30.0849 32.6099H13.7344V33.8388H30.0849V32.6099Z" fill="white"/>
<path d="M32.1241 35.8032H11.5469V37.0322H32.1241V35.8032Z" fill="white"/>
<path d="M26.9707 48.4783H15.687V49.3264H26.9707V48.4783Z" fill="#E6E6E6"/>
<path d="M33.1114 50.968H15.687V51.8161H33.1114V50.968Z" fill="#6C63FF"/>
<path d="M30.0687 53.3391H15.8682V54.1872H30.0687V53.3391Z" fill="#E6E6E6"/>
<path d="M23.977 55.9409H15.687V56.789H23.977V55.9409Z" fill="#E6E6E6"/>
<path d="M28.1988 58.4822H15.687V59.3303H28.1988V58.4822Z" fill="#6C63FF"/>
<path d="M11.9259 48.2114H10.5442V49.5931H11.9259V48.2114Z" fill="#E6E6E6"/>
<path d="M11.9259 50.7012H10.5442V52.0828H11.9259V50.7012Z" fill="#6C63FF"/>
<path d="M11.9259 53.0723H10.5442V54.4539H11.9259V53.0723Z" fill="#E6E6E6"/>
<path d="M11.9259 55.6741H10.5442V57.0557H11.9259V55.6741Z" fill="#E6E6E6"/>
<path d="M11.9259 58.2153H10.5442V59.597H11.9259V58.2153Z" fill="#6C63FF"/>
<path d="M26.9707 61.0393H15.687V61.8874H26.9707V61.0393Z" fill="#E6E6E6"/>
<path d="M33.1114 63.5291H15.687V64.3772H33.1114V63.5291Z" fill="#6C63FF"/>
<path d="M30.0687 65.9004H15.8682V66.7485H30.0687V65.9004Z" fill="#E6E6E6"/>
<path d="M23.977 68.502H15.687V69.3501H23.977V68.502Z" fill="#E6E6E6"/>
<path d="M28.1988 71.0432H15.687V71.8913H28.1988V71.0432Z" fill="#E6E6E6"/>
<path d="M11.9259 60.7725H10.5442V62.1541H11.9259V60.7725Z" fill="#E6E6E6"/>
<path d="M11.9259 63.2625H10.5442V64.6441H11.9259V63.2625Z" fill="#6C63FF"/>
<path d="M11.9259 65.6335H10.5442V67.0152H11.9259V65.6335Z" fill="#E6E6E6"/>
<path d="M11.9259 68.2351H10.5442V69.6168H11.9259V68.2351Z" fill="#E6E6E6"/>
<path d="M11.9259 70.7766H10.5442V72.1583H11.9259V70.7766Z" fill="#E6E6E6"/>
<path d="M21.8277 28.914C27.0472 28.914 31.2785 24.6827 31.2785 19.4632C31.2785 14.2437 27.0472 10.0125 21.8277 10.0125C16.6082 10.0125 12.377 14.2437 12.377 19.4632C12.377 24.6827 16.6082 28.914 21.8277 28.914Z" fill="white"/>
<path d="M21.7497 14.8286C20.8283 14.8286 19.9275 15.1019 19.1614 15.6138C18.3952 16.1257 17.7981 16.8533 17.4455 17.7046C17.0928 18.5559 17.0006 19.4927 17.1803 20.3964C17.3601 21.3001 17.8038 22.1303 18.4554 22.7818C19.1069 23.4334 19.9371 23.8771 20.8408 24.0568C21.7445 24.2366 22.6813 24.1443 23.5326 23.7917C24.3839 23.4391 25.1115 22.842 25.6234 22.0758C26.1353 21.3097 26.4086 20.4089 26.4086 19.4875C26.405 18.253 25.913 17.0701 25.04 16.1972C24.1671 15.3242 22.9842 14.8322 21.7497 14.8286ZM21.7497 16.2263C22.0261 16.2263 22.2964 16.3082 22.5262 16.4618C22.756 16.6154 22.9352 16.8337 23.041 17.0891C23.1468 17.3445 23.1744 17.6255 23.1205 17.8966C23.0666 18.1677 22.9335 18.4168 22.738 18.6122C22.5425 18.8077 22.2935 18.9408 22.0224 18.9947C21.7513 19.0487 21.4702 19.021 21.2148 18.9152C20.9595 18.8094 20.7412 18.6303 20.5876 18.4004C20.434 18.1706 20.352 17.9004 20.352 17.6239C20.3533 17.2536 20.5009 16.8988 20.7628 16.637C21.0246 16.3752 21.3794 16.2275 21.7497 16.2263V16.2263ZM21.7497 22.9548C21.1976 22.9522 20.6544 22.8151 20.1673 22.5551C19.6802 22.2952 19.2638 21.9203 18.9544 21.463C18.9768 20.5312 20.8179 20.0183 21.7497 20.0183C22.6815 20.0183 24.5226 20.5312 24.545 21.463C24.2352 21.9199 23.8188 22.2945 23.3318 22.5545C22.8447 22.8144 22.3017 22.9518 21.7497 22.9548Z" fill="#6C63FF"/>
</g>
<defs>
<clipPath id="clip0">
<rect width="44" height="88" fill="white"/>
</clipPath>
</defs>
</svg>
