<svg width="137" height="116" viewBox="0 0 137 116" fill="none" xmlns="http://www.w3.org/2000/svg">
<path d="M107.509 97.9541C153.527 84.7193 93.5161 62.0151 85.8278 49.4494C80.3108 40.436 93.9327 22.8224 83.8598 11.7294C73.2883 0.0428085 49.0098 -1.58735 33.4823 3.38185C10.0237 10.8898 -11.9851 50.8697 10.1746 67.3418C26.9813 79.8386 53.0934 65.0688 71.7435 75.4336C83.4662 81.9575 82.4559 105.157 107.509 97.9541Z" fill="#407BFF"/>
<path opacity="0.9" d="M107.509 97.9541C153.527 84.7193 93.5161 62.0151 85.8278 49.4494C80.3108 40.436 93.9327 22.8224 83.8598 11.7294C73.2883 0.0428085 49.0098 -1.58735 33.4823 3.38185C10.0237 10.8898 -11.9851 50.8697 10.1746 67.3418C26.9813 79.8386 53.0934 65.0688 71.7435 75.4336C83.4662 81.9575 82.4559 105.157 107.509 97.9541Z" fill="white"/>
<path d="M66.0002 115.24C101.123 115.24 129.596 113.577 129.596 111.527C129.596 109.476 101.123 107.814 66.0002 107.814C30.8772 107.814 2.4043 109.476 2.4043 111.527C2.4043 113.577 30.8772 115.24 66.0002 115.24Z" fill="#F5F5F5"/>
<path d="M123.761 9.34526L123.648 9.65332L130.108 12.0148L130.221 11.7067L123.761 9.34526Z" fill="#407BFF"/>
<path d="M120.06 7.99132L119.947 8.29938L122.008 9.05276L122.121 8.74469L120.06 7.99132Z" fill="#407BFF"/>
<path d="M99.6433 1.75169L133.772 14.2157C134.701 14.5578 135.457 15.2541 135.874 16.1521C136.292 17.0501 136.336 18.0768 135.999 19.0078L109.87 90.5118C109.528 91.441 108.832 92.197 107.934 92.6144C107.036 93.0317 106.009 93.0765 105.078 92.7389L70.9662 80.2749C70.0375 79.932 69.2821 79.2357 68.8649 78.3379C68.4476 77.4402 68.4024 76.4138 68.7391 75.4828L94.8643 3.97881C95.2066 3.05267 95.9007 2.29912 96.7956 1.88205C97.6905 1.46498 98.714 1.41813 99.6433 1.75169Z" fill="#407BFF"/>
<path d="M108.545 89.9706L134.644 18.5715C134.759 18.2586 134.811 17.9262 134.797 17.5933C134.783 17.2603 134.703 16.9334 134.563 16.6312C134.422 16.329 134.224 16.0575 133.978 15.8321C133.733 15.6067 133.445 15.432 133.132 15.3178L98.5445 2.67666C98.2314 2.56216 97.8988 2.51054 97.5657 2.52475C97.2326 2.53896 96.9056 2.61873 96.6033 2.75948C96.3011 2.90024 96.0296 3.09922 95.8044 3.34503C95.5792 3.59084 95.4046 3.87867 95.2908 4.19202L69.1951 75.5878C69.08 75.9007 69.0279 76.2332 69.0417 76.5662C69.0555 76.8993 69.1349 77.2264 69.2754 77.5287C69.4159 77.831 69.6147 78.1026 69.8604 78.3279C70.1061 78.5532 70.3938 78.7277 70.7072 78.8415L105.291 91.4859C105.605 91.6004 105.937 91.6521 106.27 91.6378C106.603 91.6236 106.93 91.5439 107.233 91.4031C107.535 91.2624 107.806 91.0634 108.032 90.8176C108.257 90.5717 108.431 90.2839 108.545 89.9706Z" fill="white"/>
<path d="M119.7 9.90577C119.221 10.5481 118.547 11.019 117.779 11.2488C117.011 11.4786 116.19 11.455 115.436 11.1817L114.748 10.9291C113.994 10.6531 113.349 10.141 112.909 9.46908C112.469 8.79716 112.258 8.00127 112.307 7.19977L119.7 9.90577Z" fill="#407BFF"/>
<path opacity="0.1" d="M107.541 89.6196C107.697 89.6758 107.868 89.6684 108.018 89.599C108.168 89.5296 108.284 89.4038 108.342 89.249L133.975 19.116C134.031 18.9607 134.024 18.7895 133.954 18.6396C133.885 18.4897 133.759 18.3733 133.604 18.3157C133.449 18.2595 133.278 18.2669 133.128 18.3363C132.978 18.4057 132.862 18.5315 132.804 18.6863L107.171 88.816C107.114 88.9717 107.12 89.1438 107.19 89.2944C107.259 89.4451 107.386 89.562 107.541 89.6196Z" fill="#263238"/>
<path opacity="0.1" d="M70.1886 75.965C70.344 76.0212 70.5152 76.0137 70.6651 75.9443C70.815 75.8749 70.9314 75.7491 70.989 75.5943L96.6222 5.46137C96.6783 5.30651 96.6708 5.13573 96.6013 4.98638C96.5318 4.83702 96.4061 4.72124 96.2515 4.66433C96.0962 4.60813 95.925 4.61554 95.7751 4.68496C95.6252 4.75437 95.5088 4.88017 95.4512 5.03497L69.818 75.1679C69.7619 75.3228 69.7694 75.4936 69.8389 75.6429C69.9083 75.7923 70.0341 75.9081 70.1886 75.965Z" fill="#263238"/>
<g opacity="0.9">
<path opacity="0.9" d="M106.871 84.1299L117.422 15.8936C117.681 14.2197 116.534 12.653 114.86 12.3942L82.5359 7.39593C80.862 7.1371 79.2952 8.28421 79.0364 9.95806L68.4851 78.1944C68.2262 79.8682 69.3734 81.435 71.0472 81.6938L103.371 86.6921C105.045 86.9509 106.612 85.8038 106.871 84.1299Z" fill="white"/>
<path opacity="0.9" d="M103.855 86.8972C103.689 86.897 103.523 86.8838 103.36 86.8578L71.0319 81.8624C70.1861 81.7307 69.4269 81.269 68.9209 80.5785C68.4149 79.8881 68.2033 79.0252 68.3324 78.179L78.8809 9.95496C79.0118 9.10873 79.4733 8.34909 80.164 7.84293C80.8547 7.33676 81.718 7.12548 82.5644 7.25551L114.892 12.251C115.739 12.3826 116.498 12.8448 117.004 13.536C117.51 14.2272 117.722 15.0909 117.592 15.9377L107.046 84.1617C106.926 84.9225 106.539 85.6157 105.954 86.117C105.369 86.6183 104.625 86.8949 103.855 86.8972ZM82.0724 7.52776C81.3807 7.53104 80.7128 7.78035 80.1882 8.23107C79.6635 8.68179 79.3164 9.3045 79.2089 9.98775L68.6572 78.2281C68.5403 78.9884 68.7299 79.7639 69.1844 80.3844C69.6389 81.0049 70.321 81.4197 71.0811 81.5377L103.409 86.52C104.169 86.6369 104.945 86.4474 105.566 85.993C106.187 85.5386 106.603 84.8564 106.722 84.0961L106.882 84.1223L106.722 84.0961L117.267 15.8721C117.384 15.1115 117.194 14.3356 116.74 13.7145C116.285 13.0935 115.603 12.678 114.843 12.5593L82.5152 7.56384C82.3687 7.54087 82.2207 7.52881 82.0724 7.52776Z" fill="#407BFF"/>
<path opacity="0.9" d="M109.713 39.3372C109.551 39.3365 109.389 39.3244 109.228 39.3011L79.7931 34.7518C79.3855 34.6898 78.9942 34.5479 78.6416 34.3344C78.289 34.1208 77.982 33.8397 77.7382 33.5073C77.4944 33.1748 77.3187 32.7975 77.221 32.397C77.1233 31.9965 77.1057 31.5806 77.1691 31.1733L79.3273 17.2234C79.3873 16.8161 79.5282 16.4249 79.7417 16.0728C79.9552 15.7207 80.237 15.415 80.5705 15.1734C80.9021 14.9288 81.279 14.7524 81.6793 14.6545C82.0796 14.5565 82.4954 14.5389 82.9025 14.6027L112.337 19.1521C113.159 19.2798 113.896 19.7277 114.388 20.3978C114.879 21.0679 115.086 21.9055 114.961 22.7273L112.806 36.6804C112.692 37.419 112.317 38.0924 111.75 38.5794C111.183 39.0664 110.461 39.3351 109.713 39.3372ZM82.4237 14.8946C81.7544 14.8955 81.1075 15.1356 80.5998 15.5717C80.0921 16.0078 79.7571 16.6111 79.6553 17.2726L77.5004 31.2258C77.4439 31.59 77.4599 31.9618 77.5472 32.3198C77.6345 32.6779 77.7916 33.0152 78.0094 33.3125C78.2272 33.6098 78.5015 33.8613 78.8166 34.0526C79.1316 34.2438 79.4813 34.371 79.8456 34.427L109.297 38.9764C109.661 39.0329 110.033 39.0169 110.391 38.9296C110.749 38.8423 111.086 38.6852 111.383 38.4674C111.681 38.2496 111.932 37.9753 112.123 37.6602C112.315 37.3452 112.442 36.9955 112.498 36.6312L114.653 22.6781C114.765 21.9428 114.581 21.193 114.142 20.5929C113.702 19.9929 113.043 19.5915 112.308 19.4768L82.873 14.9274C82.7244 14.9042 82.5741 14.8933 82.4237 14.8946Z" fill="#407BFF"/>
<path opacity="0.9" d="M105.793 60.5457C105.593 60.5449 105.394 60.5296 105.196 60.4997L77.2376 56.18C76.2202 56.023 75.3069 55.4682 74.6986 54.6378C74.0902 53.8074 73.8367 52.7694 73.9937 51.752C74.1507 50.7346 74.7054 49.8213 75.5358 49.213C76.3663 48.6046 77.4043 48.3511 78.4217 48.5081L106.384 52.8311C107.4 52.9894 108.312 53.5446 108.92 54.3748C109.527 55.205 109.781 56.2423 109.624 57.2591C109.481 58.1733 109.017 59.0064 108.315 59.6089C107.613 60.2113 106.719 60.5435 105.793 60.5457ZM77.828 48.8C76.9304 48.7965 76.0648 49.1328 75.4051 49.7415C74.7454 50.3501 74.3406 51.1859 74.2721 52.0809C74.2035 52.9758 74.4763 53.8636 75.0356 54.5656C75.5949 55.2676 76.3992 55.7319 77.2868 55.8651L105.246 60.1849C106.178 60.327 107.128 60.0931 107.888 59.5346C108.647 58.9761 109.154 58.1387 109.296 57.2066C109.442 56.2781 109.212 55.3298 108.659 54.5702C108.105 53.8106 107.273 53.3019 106.344 53.1558L78.3725 48.8328C78.192 48.809 78.01 48.798 77.828 48.8Z" fill="#407BFF"/>
<path opacity="0.9" d="M104.376 69.733C104.177 69.7339 103.977 69.7185 103.78 69.687L75.8208 65.3673C75.311 65.2968 74.8202 65.1255 74.3772 64.8635C73.9342 64.6015 73.5477 64.254 73.2403 63.8412C72.9329 63.4283 72.7106 62.9585 72.5866 62.459C72.4625 61.9594 72.4391 61.4402 72.5176 60.9315C72.5962 60.4228 72.7751 59.9349 73.0441 59.496C73.313 59.0572 73.6666 58.6762 74.0842 58.3754C74.5018 58.0745 74.9751 57.8597 75.4766 57.7435C75.978 57.6274 76.4975 57.6121 77.0049 57.6986L104.967 62.0184C105.932 62.1683 106.806 62.6768 107.413 63.4425C108.02 64.2082 108.315 65.1746 108.241 66.1488C108.166 67.123 107.727 68.0332 107.01 68.6976C106.294 69.362 105.354 69.7318 104.376 69.733ZM76.4014 57.984C75.5081 57.9875 74.6489 58.3274 73.9951 58.9361C73.3412 59.5447 72.9406 60.3773 72.8732 61.2681C72.8058 62.1588 73.0764 63.0422 73.6312 63.7424C74.186 64.4425 74.9842 64.9079 75.8667 65.0458L103.829 69.3689C104.76 69.5124 105.71 69.2801 106.47 68.7232C107.23 68.1662 107.738 67.3301 107.881 66.3988C108.025 65.4676 107.792 64.5175 107.235 63.7575C106.678 62.9975 105.842 62.4899 104.911 62.3464L76.9524 58.0266C76.7702 57.9978 76.5859 57.9835 76.4014 57.984Z" fill="#407BFF"/>
<path opacity="0.9" d="M102.959 78.9235C102.757 78.9228 102.556 78.9074 102.356 78.8776L74.3972 74.5545C73.3932 74.3833 72.4968 73.8241 71.9014 72.9977C71.306 72.1714 71.0595 71.144 71.2149 70.1374C71.3703 69.1309 71.9153 68.2258 72.7322 67.6174C73.5491 67.0091 74.5724 66.7464 75.5813 66.8859L103.543 71.2057C104.559 71.3648 105.471 71.9202 106.078 72.7502C106.686 73.5801 106.939 74.617 106.784 75.6337L106.623 75.6107L106.784 75.6337C106.64 76.5458 106.177 77.3769 105.476 77.978C104.775 78.5791 103.883 78.9108 102.959 78.9137V78.9235ZM74.9876 67.168C74.09 67.1644 73.2244 67.5008 72.5647 68.1095C71.905 68.7181 71.5002 69.5539 71.4317 70.4489C71.3631 71.3438 71.6359 72.2316 72.1952 72.9336C72.7545 73.6356 73.5588 74.0999 74.4464 74.2331L102.408 78.5529C103.337 78.6964 104.284 78.4664 105.043 77.9131C105.802 77.3599 106.311 76.5285 106.459 75.6009C106.531 75.1397 106.51 74.6691 106.4 74.2158C106.289 73.7625 106.09 73.3354 105.815 72.9589C105.539 72.5824 105.192 72.2639 104.793 72.0216C104.395 71.7793 103.952 71.618 103.491 71.5468L75.5321 67.227C75.3525 67.1928 75.1704 67.1731 74.9876 67.168Z" fill="#407BFF"/>
<path opacity="0.9" d="M107.899 46.0973C107.829 46.1037 107.759 46.1037 107.689 46.0973L93.7035 43.9358C93.5262 43.9086 93.3559 43.8467 93.2026 43.7536C93.0492 43.6606 92.9157 43.5382 92.8097 43.3935C92.7037 43.2488 92.6272 43.0846 92.5847 42.9103C92.5422 42.736 92.5345 42.555 92.562 42.3778C92.6178 42.0192 92.8135 41.6973 93.1061 41.4828C93.3988 41.2682 93.7646 41.1784 94.1233 41.233L108.109 43.3978C108.287 43.4239 108.457 43.4852 108.61 43.5781C108.763 43.6711 108.896 43.7938 109.001 43.939C109.108 44.0836 109.185 44.2479 109.228 44.4225C109.271 44.597 109.278 44.7783 109.251 44.9558C109.197 45.2753 109.032 45.5654 108.784 45.7744C108.537 45.9835 108.223 46.0979 107.899 46.0973ZM93.9134 41.5315C93.6523 41.5325 93.4011 41.6317 93.2097 41.8094C93.0184 41.9871 92.9009 42.2303 92.8807 42.4906C92.8604 42.751 92.9389 43.0094 93.1004 43.2146C93.262 43.4197 93.4948 43.5566 93.7527 43.5979L107.742 45.7594C108.014 45.8001 108.291 45.7317 108.513 45.5692C108.623 45.4892 108.717 45.3879 108.788 45.2713C108.859 45.1548 108.906 45.0252 108.926 44.8902C108.947 44.7554 108.942 44.6176 108.91 44.4848C108.878 44.3521 108.82 44.2269 108.74 44.1166C108.659 44.0062 108.558 43.9129 108.441 43.8419C108.325 43.7709 108.195 43.7237 108.06 43.7029L94.0708 41.5414C94.0186 41.5348 93.966 41.5315 93.9134 41.5315Z" fill="#263238"/>
<path opacity="0.9" d="M107.289 50.053C107.219 50.0577 107.149 50.0577 107.079 50.053L87.2055 46.9829C86.8519 46.9219 86.5365 46.7244 86.3272 46.433C86.1179 46.1416 86.0315 45.7796 86.0865 45.4251C86.1416 45.0706 86.3338 44.7519 86.6216 44.5377C86.9095 44.3236 87.2699 44.2311 87.6253 44.2802L107.496 47.3502C107.854 47.406 108.176 47.6017 108.391 47.8943C108.605 48.187 108.695 48.5528 108.64 48.9115C108.587 49.231 108.421 49.5211 108.174 49.7301C107.926 49.9391 107.613 50.0536 107.289 50.053ZM87.4121 44.5754C87.2226 44.5777 87.0373 44.6317 86.8762 44.7317C86.7152 44.8317 86.5845 44.9738 86.4984 45.1427C86.4123 45.3115 86.374 45.5007 86.3876 45.6898C86.4012 45.8789 86.4663 46.0606 86.5757 46.2154C86.6566 46.3258 86.7586 46.4191 86.8756 46.49C86.9927 46.561 87.1226 46.6081 87.258 46.6287L107.128 49.6987C107.264 49.7224 107.403 49.7188 107.537 49.6883C107.672 49.6577 107.799 49.6007 107.911 49.5207C108.023 49.4406 108.118 49.3391 108.191 49.222C108.263 49.1048 108.312 48.9745 108.333 48.8384C108.355 48.7024 108.35 48.5634 108.317 48.4295C108.285 48.2956 108.226 48.1694 108.144 48.0584C108.063 47.9474 107.96 47.8538 107.842 47.7829C107.724 47.712 107.593 47.6653 107.456 47.6454L87.5827 44.5754C87.5259 44.5699 87.4688 44.5699 87.4121 44.5754Z" fill="#263238"/>
<path opacity="0.9" d="M88.5939 28.3212C90.2675 26.496 90.1446 23.6597 88.3195 21.9861C86.4943 20.3125 83.658 20.4354 81.9844 22.2605C80.3108 24.0857 80.4337 26.922 82.2588 28.5956C84.084 30.2692 86.9203 30.1463 88.5939 28.3212Z" fill="#407BFF"/>
</g>
<g opacity="0.9">
<path opacity="0.9" d="M82.1837 85.8017L84.0402 16.7774C84.0605 15.9647 83.7577 15.1772 83.1981 14.5876C82.6386 13.9979 81.868 13.6542 81.0554 13.6319L48.3538 12.7528C47.5409 12.7308 46.7526 13.0325 46.1621 13.5916C45.5716 14.1507 45.2273 14.9215 45.205 15.7343L43.3682 84.7587C43.3471 85.5719 43.6495 86.3602 44.2091 86.9506C44.7688 87.541 45.5399 87.8852 46.353 87.9075L79.0513 88.7865C79.8617 88.8033 80.6459 88.4989 81.2327 87.9397C81.8195 87.3805 82.1614 86.612 82.1837 85.8017Z" fill="#407BFF"/>
<path opacity="0.1" d="M82.1837 85.8017L84.0402 16.7774C84.0605 15.9647 83.7577 15.1772 83.1981 14.5876C82.6386 13.9979 81.868 13.6542 81.0554 13.6319L48.3538 12.7528C47.5409 12.7308 46.7526 13.0325 46.1621 13.5916C45.5716 14.1507 45.2273 14.9215 45.205 15.7343L43.3682 84.7587C43.3471 85.5719 43.6495 86.3602 44.2091 86.9506C44.7688 87.541 45.5399 87.8852 46.353 87.9075L79.0513 88.7865C79.8617 88.8033 80.6459 88.4989 81.2327 87.9397C81.8195 87.3805 82.1614 86.612 82.1837 85.8017Z" fill="black"/>
<path opacity="0.2" d="M81.0565 69.5552L81.4358 55.4464C81.4799 53.8058 80.1856 52.4401 78.545 52.396L48.7767 51.5957C47.136 51.5516 45.7703 52.8458 45.7262 54.4864L45.3469 68.5952C45.3028 70.2358 46.597 71.6015 48.2376 71.6456L78.006 72.4459C79.6466 72.4901 81.0123 71.1958 81.0565 69.5552Z" fill="#263238"/>
<path opacity="0.9" d="M70.5267 80.8194C70.5068 81.5805 70.7132 82.3305 71.1197 82.9743C71.5262 83.6181 72.1147 84.1268 72.8105 84.436C73.5063 84.7452 74.2782 84.8409 75.0285 84.7112C75.7787 84.5814 76.4736 84.232 77.0252 83.7071C77.5767 83.1822 77.9602 82.5054 78.1269 81.7625C78.2936 81.0196 78.2362 80.2439 77.9618 79.5336C77.6874 78.8234 77.2085 78.2105 76.5856 77.7726C75.9627 77.3346 75.2239 77.0914 74.4627 77.0736C73.4442 77.049 72.4576 77.4296 71.7195 78.132C70.9815 78.8343 70.5525 79.8009 70.5267 80.8194Z" fill="white"/>
<path opacity="0.9" d="M54.0568 83.1011C55.5991 81.6395 55.6646 79.2043 54.203 77.662C52.7414 76.1196 50.3062 76.0542 48.7639 77.5158C47.2215 78.9774 47.156 81.4125 48.6176 82.9549C50.0792 84.4973 52.5144 84.5627 54.0568 83.1011Z" fill="white"/>
<path opacity="0.9" d="M59.0467 80.5111C59.0268 81.2722 59.2332 82.0222 59.6397 82.666C60.0463 83.3098 60.6347 83.8185 61.3305 84.1276C62.0263 84.4368 62.7982 84.5326 63.5485 84.4029C64.2987 84.2731 64.9936 83.9237 65.5452 83.3988C66.0968 82.8739 66.4802 82.1971 66.6469 81.4542C66.8136 80.7112 66.7562 79.9356 66.4818 79.2253C66.2074 78.515 65.7285 77.9021 65.1056 77.4642C64.4827 77.0263 63.7439 76.7831 62.9827 76.7653C61.9642 76.7406 60.9776 77.1213 60.2396 77.8236C59.5015 78.526 59.0725 79.4926 59.0467 80.5111Z" fill="white"/>
<path opacity="0.9" d="M82.2655 24.61C82.2929 23.6257 81.9281 22.6709 81.2515 21.9555C80.5749 21.2401 79.6418 20.8228 78.6575 20.7954L50.3741 20.0344C49.39 20.008 48.4357 20.373 47.7205 21.0494C47.0053 21.7259 46.5878 22.6584 46.5595 23.6424C46.533 24.6265 46.898 25.5808 47.5745 26.296C48.2509 27.0112 49.1835 27.4287 50.1675 27.4571L78.464 28.2246C79.4469 28.2475 80.3989 27.88 81.1114 27.2025C81.8239 26.5251 82.2389 25.5928 82.2655 24.61Z" fill="white"/>
<path opacity="0.9" d="M81.9966 34.6009C82.0231 33.6169 81.6581 32.6625 80.9816 31.9473C80.3052 31.2322 79.3726 30.8146 78.3886 30.7863L50.1085 30.0253C49.1244 29.9988 48.1701 30.3639 47.4549 31.0403C46.7397 31.7167 46.3221 32.6493 46.2938 33.6333C46.2674 34.6173 46.6324 35.5717 47.3088 36.2869C47.9853 37.002 48.9178 37.4196 49.9018 37.4479L78.182 38.2056C79.1655 38.2321 80.1194 37.8675 80.8344 37.1918C81.5495 36.516 81.9675 35.5843 81.9966 34.6009Z" fill="white"/>
<path opacity="0.9" d="M81.7442 44.5918C81.7715 43.6075 81.4068 42.6526 80.7302 41.9373C80.0535 41.2219 79.1205 40.8046 78.1362 40.7771L49.856 40.0162C48.8722 39.9906 47.9184 40.3559 47.2034 41.0322C46.4884 41.7084 46.0706 42.6405 46.0414 43.6242C46.0149 44.6082 46.38 45.5626 47.0564 46.2778C47.7328 46.9929 48.6654 47.4105 49.6494 47.4388L77.9295 48.1965C78.913 48.223 79.8669 47.8584 80.582 47.1827C81.2971 46.5069 81.715 45.5752 81.7442 44.5918Z" fill="white"/>
</g>
<path d="M21.2903 28.5099L20.9032 28.9494L20.4932 29.425L19.6864 30.409C19.1616 31.065 18.6433 31.721 18.1677 32.4098C17.2141 33.7001 16.4097 35.0942 15.77 36.5656C15.6324 36.9037 15.512 37.2485 15.4092 37.5988C15.3185 37.9087 15.2548 38.2258 15.219 38.5467C15.1451 39.31 15.1397 40.0784 15.2026 40.8427C15.3514 42.5374 15.6 44.2219 15.9472 45.8874L13.8184 46.75C13.339 45.933 12.9171 45.0836 12.5556 44.208C12.185 43.3183 11.8792 42.403 11.6405 41.4692C11.3761 40.4727 11.2265 39.4493 11.1944 38.4188C11.1751 37.8419 11.218 37.2645 11.3224 36.6968C11.4223 36.1718 11.5515 35.6527 11.7094 35.1421C12.34 33.2553 13.2226 31.4624 14.3334 29.8121C14.868 29.0085 15.4256 28.2311 16.0226 27.4898C16.3178 27.1159 16.6228 26.7497 16.9377 26.391C17.0952 26.2106 17.2657 26.0302 17.4166 25.8531C17.5675 25.676 17.7446 25.5251 17.9414 25.3054L21.2903 28.5099Z" fill="#263238"/>
<path d="M16.3144 45.9234L17.2 46.727L14.0873 48.367C13.9441 48.105 13.8339 47.8263 13.7593 47.5372C13.7094 47.3295 13.7014 47.1139 13.7358 46.9031C13.7702 46.6922 13.8462 46.4904 13.9595 46.3093C14.0728 46.1282 14.2211 45.9715 14.3957 45.8483C14.5702 45.7252 14.7676 45.6381 14.9762 45.5922C15.2095 45.5368 15.4527 45.538 15.6855 45.5956C15.9182 45.6532 16.1339 45.7656 16.3144 45.9234Z" fill="#FFB573"/>
<path d="M18.394 48.7442L15.7635 49.9775L14.0874 48.3605L17.2001 46.727L18.394 48.7442Z" fill="#FFB573"/>
<path d="M29.7559 16.4953C29.7559 16.715 29.8477 16.8954 29.9887 16.8954C30.1298 16.8954 30.2577 16.7249 30.2708 16.5084C30.2839 16.2919 30.1823 16.1082 30.0379 16.1082C29.8936 16.1082 29.769 16.2788 29.7559 16.4953Z" fill="#263238"/>
<path d="M29.8281 16.8922C30.0453 17.5626 30.3568 18.1987 30.7531 18.7814C30.6008 18.8853 30.4277 18.9547 30.2458 18.9847C30.064 19.0147 29.8778 19.0047 29.7002 18.9553L29.8281 16.8922Z" fill="#FF5652"/>
<path d="M29.0378 15.2686C29.0542 15.2718 29.071 15.2717 29.0874 15.2684C29.1037 15.265 29.1192 15.2584 29.1329 15.2489C29.2636 15.1525 29.4155 15.0887 29.5758 15.0631C29.7362 15.0374 29.9004 15.0505 30.0546 15.1013C30.0869 15.1134 30.1225 15.1127 30.1543 15.0992C30.186 15.0858 30.2114 15.0607 30.2252 15.0291C30.2323 15.0141 30.2363 14.9978 30.237 14.9811C30.2377 14.9645 30.2351 14.9479 30.2293 14.9323C30.2235 14.9167 30.2146 14.9025 30.2032 14.8904C30.1918 14.8783 30.1781 14.8686 30.1629 14.8618C29.9684 14.7986 29.7618 14.7816 29.5597 14.8124C29.3575 14.8431 29.1653 14.9207 28.9984 15.039C28.9839 15.0477 28.9713 15.0592 28.9613 15.0729C28.9512 15.0866 28.944 15.1021 28.9401 15.1186C28.9361 15.1351 28.9355 15.1522 28.9382 15.1689C28.9409 15.1856 28.9469 15.2017 28.9558 15.2161C28.9653 15.2299 28.9774 15.2416 28.9915 15.2507C29.0056 15.2597 29.0213 15.2658 29.0378 15.2686Z" fill="#263238"/>
<path d="M23.4451 17.3284C23.7075 19.3423 23.7961 23.4062 22.3267 24.5444C22.3267 24.5444 22.8055 26.1844 26.4824 26.6469C30.5267 27.1487 28.5455 24.8953 28.5455 24.8953C26.3709 24.095 26.5316 22.478 27.0171 20.9987L23.4451 17.3284Z" fill="#FFB573"/>
<path d="M13.6678 105.905H13.694C13.7442 105.882 13.7866 105.845 13.8157 105.798C13.8449 105.752 13.8596 105.697 13.858 105.642C13.8622 105.6 13.8567 105.557 13.842 105.516C13.8272 105.476 13.8035 105.439 13.7727 105.41C13.4939 105.127 12.5854 105.183 12.5493 105.186C12.5367 105.187 12.5244 105.191 12.514 105.197C12.5035 105.204 12.4953 105.214 12.4902 105.226C12.4838 105.236 12.4805 105.248 12.4805 105.26C12.4805 105.272 12.4838 105.284 12.4902 105.295C12.6936 105.482 13.3332 105.997 13.6678 105.905ZM12.7067 105.301C13.0118 105.301 13.5136 105.328 13.6907 105.495C13.7086 105.512 13.7222 105.533 13.7308 105.556C13.7393 105.58 13.7424 105.605 13.7399 105.629C13.7399 105.751 13.6776 105.77 13.6612 105.777C13.471 105.849 13.0085 105.567 12.7067 105.301Z" fill="#407BFF"/>
<path d="M13.0048 105.236C13.3328 105.15 13.6805 104.986 13.7559 104.803C13.7752 104.759 13.7782 104.71 13.7643 104.664C13.7505 104.618 13.7208 104.579 13.6805 104.553C13.6421 104.523 13.5977 104.501 13.5503 104.488C13.5029 104.476 13.4534 104.474 13.405 104.481C13.0015 104.54 12.5194 105.177 12.4997 105.206C12.4932 105.216 12.4897 105.227 12.4897 105.239C12.4897 105.251 12.4932 105.262 12.4997 105.272C12.5049 105.282 12.5124 105.29 12.5215 105.296C12.5307 105.303 12.5412 105.306 12.5522 105.308C12.7056 105.304 12.8578 105.28 13.0048 105.236ZM13.3722 104.619H13.4181C13.4489 104.613 13.4808 104.613 13.5114 104.621C13.5419 104.628 13.5706 104.642 13.5952 104.662C13.6608 104.714 13.6444 104.75 13.6379 104.767C13.569 104.937 13.0343 105.144 12.6867 105.183C12.8641 104.94 13.0999 104.746 13.3722 104.619Z" fill="#407BFF"/>
<path d="M30.1792 108.903C30.4632 108.94 30.7508 108.867 30.9828 108.699C31.0122 108.658 31.028 108.609 31.028 108.558C31.028 108.508 31.0122 108.458 30.9828 108.417C30.9624 108.38 30.9343 108.348 30.9004 108.322C30.8664 108.297 30.8275 108.279 30.786 108.27C30.34 108.145 29.3724 108.683 29.333 108.706C29.3215 108.713 29.3122 108.724 29.3059 108.736C29.2995 108.748 29.2965 108.761 29.2969 108.775C29.2987 108.788 29.3044 108.799 29.3132 108.809C29.322 108.818 29.3335 108.825 29.3461 108.827C29.6212 108.876 29.8999 108.901 30.1792 108.903ZM30.6319 108.378C30.6722 108.373 30.713 108.373 30.7532 108.378C30.779 108.383 30.8033 108.394 30.8243 108.41C30.8453 108.426 30.8625 108.446 30.8746 108.47C30.9172 108.548 30.9008 108.588 30.8746 108.611C30.7401 108.785 30.0546 108.788 29.5626 108.719C29.8939 108.538 30.2569 108.422 30.6319 108.378Z" fill="#407BFF"/>
<path d="M29.3658 108.824H29.3921C29.7201 108.68 30.3957 108.093 30.3761 107.788C30.3761 107.715 30.3203 107.627 30.1432 107.607C30.0129 107.596 29.8834 107.636 29.7824 107.719C29.4281 108.001 29.3265 108.729 29.3199 108.762C29.3194 108.772 29.3215 108.783 29.3261 108.793C29.3306 108.803 29.3375 108.811 29.3461 108.817C29.3522 108.821 29.3589 108.823 29.3658 108.824ZM30.071 107.725H30.1104C30.2252 107.725 30.2285 107.784 30.2317 107.797C30.2547 107.981 29.7955 108.453 29.4544 108.64C29.4977 108.33 29.6337 108.039 29.8447 107.807C29.909 107.756 29.9888 107.728 30.071 107.728V107.725Z" fill="#407BFF"/>
<path d="M26.394 108.762H29.1L29.6216 102.497H26.9156L26.394 108.762Z" fill="#FFB573"/>
<path d="M9.50537 105.144L12.0802 105.646L14.4549 99.5186L11.8801 99.0168L9.50537 105.144Z" fill="#FFB573"/>
<path d="M12.5523 104.868L10.007 103.307C9.96027 103.28 9.90561 103.269 9.85199 103.277C9.79838 103.285 9.74897 103.31 9.71184 103.35L7.94392 105.137C7.901 105.179 7.86812 105.23 7.84776 105.286C7.8274 105.342 7.8201 105.402 7.82643 105.462C7.83275 105.521 7.85252 105.578 7.88425 105.629C7.91597 105.68 7.95881 105.722 8.00952 105.754C8.90824 106.282 9.374 106.495 10.4925 107.181C11.1813 107.604 12.5982 108.739 13.6249 109.188C14.6515 109.637 15.2649 108.667 14.8942 108.388C13.2083 107.145 13.0542 106.092 12.8246 105.239C12.7841 105.085 12.6868 104.953 12.5523 104.868Z" fill="#263238"/>
<path d="M29.0936 108.45H26.1416C26.0874 108.45 26.0347 108.468 25.9919 108.501C25.9491 108.534 25.9186 108.581 25.9055 108.634L25.2724 111.041C25.2558 111.098 25.2529 111.158 25.2638 111.216C25.2748 111.274 25.2994 111.329 25.3355 111.375C25.3717 111.422 25.4184 111.459 25.4719 111.485C25.5253 111.51 25.584 111.522 25.6431 111.52C26.7091 111.504 28.2671 111.441 29.5791 111.441C31.1436 111.441 31.3995 111.527 33.2363 111.527C34.3482 111.527 34.6991 110.402 34.2399 110.3C32.1407 109.838 31.511 109.788 29.7267 108.66C29.5392 108.533 29.32 108.46 29.0936 108.45Z" fill="#263238"/>
<path d="M32.9899 33.9219C32.9505 34.8403 32.8882 35.8538 32.7898 36.9723C32.534 40.0063 32.0518 43.7882 31.2253 48.4884H16.7539C16.7539 46.4351 18.3152 37.0084 17.1901 27.3226C17.123 26.6698 17.3129 26.0166 17.7196 25.5015C18.1262 24.9865 18.7175 24.6502 19.3681 24.5641C20.1028 24.4689 20.9261 24.3869 21.7329 24.3476C23.7823 24.2294 25.8368 24.2294 27.8862 24.3476C28.7896 24.435 29.6875 24.5719 30.5758 24.7576C31.0856 24.862 31.5534 25.1138 31.9214 25.4817C32.2893 25.8496 32.5411 26.3175 32.6455 26.8273C32.9046 28.136 33.1375 30.3205 32.9899 33.9219Z" fill="#263238"/>
<path opacity="0.3" d="M30.0545 48.531C30.0437 48.5286 30.0343 48.5222 30.0282 48.513C30.022 48.5039 30.0197 48.4927 30.0217 48.4818C30.7793 44.1555 31.3074 40.2818 31.5862 36.969C31.6781 35.9129 31.7437 34.8862 31.783 33.9186C31.9372 30.1925 31.6715 28.0146 31.4222 26.8338C31.4213 26.8286 31.4214 26.8233 31.4226 26.8182C31.4237 26.8131 31.4259 26.8082 31.4289 26.8039C31.432 26.7997 31.4359 26.796 31.4404 26.7933C31.4448 26.7905 31.4498 26.7887 31.455 26.7879C31.4602 26.7864 31.4656 26.786 31.4709 26.7867C31.4763 26.7875 31.4814 26.7893 31.486 26.792C31.4906 26.7948 31.4946 26.7985 31.4978 26.8028C31.5009 26.8072 31.5031 26.8122 31.5042 26.8174C31.8617 28.5066 31.9864 30.9666 31.865 33.9219C31.8257 34.9059 31.7601 35.9194 31.6682 36.9756C31.3894 40.2884 30.8614 44.1653 30.1004 48.4949C30.1 48.5004 30.0985 48.5058 30.0959 48.5106C30.0933 48.5155 30.0898 48.5198 30.0854 48.5232C30.0811 48.5266 30.0761 48.529 30.0708 48.5304C30.0655 48.5317 30.0599 48.5319 30.0545 48.531Z" fill="black"/>
<path opacity="0.2" d="M30.4252 31.7177C30.3891 33.7612 31.442 38.3499 32.4326 40.4458C32.5835 39.1896 32.7048 38.035 32.7934 36.9723C32.8688 36.0637 32.9246 35.2273 32.9639 34.4533L30.4252 31.7177Z" fill="black"/>
<path d="M42.2132 36.7165L44.6306 35.2798L45.0701 38.5861C45.0701 38.5861 43.1546 39.1207 42.082 38.4746L42.2132 36.7165Z" fill="#FFB573"/>
<path d="M47.8092 35.516L47.0121 38.1564L45.0704 38.5861L44.6309 35.2798L47.8092 35.516Z" fill="#FFB573"/>
<path d="M32.2554 26.168C32.38 26.4566 32.462 26.6665 32.544 26.883C32.626 27.0995 32.7015 27.3029 32.7736 27.503L33.1935 28.6969C33.469 29.4808 33.7347 30.2516 34.0168 30.9929C34.2988 31.7341 34.5809 32.4951 34.8925 33.2003C35.174 33.8732 35.5029 34.5254 35.8765 35.1519C36.0227 35.3969 36.1871 35.6304 36.3685 35.8505C36.4374 35.9358 36.4997 35.9949 36.526 36.0244C36.5522 36.0539 36.5456 36.0473 36.526 36.0473C36.5063 36.0473 36.526 36.0473 36.5456 36.0473L36.5948 36.0769C36.8017 36.1814 37.0227 36.2555 37.2508 36.2966C37.5762 36.3516 37.905 36.3834 38.2348 36.3917C39.7824 36.3767 41.3256 36.2253 42.8465 35.9391H42.9252C43.1902 35.8958 43.462 35.9457 43.6943 36.0802C43.9267 36.2147 44.1052 36.4256 44.1996 36.677C44.2939 36.9283 44.2982 37.2046 44.2118 37.4588C44.1254 37.713 43.9536 37.9293 43.7256 38.0711C43.3372 38.3177 42.9365 38.5443 42.5251 38.7501C42.1216 38.9567 41.7084 39.1437 41.282 39.3142C40.4059 39.678 39.4931 39.9464 38.5596 40.1145C38.0456 40.2088 37.5241 40.255 37.0016 40.2523C36.3907 40.2592 35.7824 40.1729 35.1976 39.9965L34.9516 39.9112C34.8591 39.8825 34.7691 39.8463 34.6826 39.8029C34.4961 39.717 34.3163 39.6172 34.1447 39.5045C33.8556 39.3118 33.5854 39.0921 33.3378 38.8485C32.9335 38.4605 32.5677 38.0343 32.2456 37.5758C31.2122 36.0367 30.3551 34.3864 29.6904 32.6558C29.3624 31.8391 29.0541 31.0158 28.772 30.2155L28.3588 29.0183L28.162 28.4476C28.1029 28.2705 28.034 28.0835 27.9947 27.9851L27.9717 27.9195C27.782 27.3636 27.8107 26.7564 28.0519 26.2208C28.2931 25.6852 28.7288 25.2613 29.2708 25.0349C29.8128 24.8086 30.4206 24.7966 30.9711 25.0015C31.5216 25.2064 31.9736 25.6128 32.2357 26.1385L32.2554 26.168Z" fill="#263238"/>
<path opacity="0.2" d="M29.6214 102.497L29.3525 105.728H26.6465L26.9154 102.497H29.6214Z" fill="black"/>
<path opacity="0.2" d="M11.88 99.0201L14.4548 99.5219L13.2281 102.677L10.6533 102.175L11.88 99.0201Z" fill="black"/>
<path d="M22.5137 15.8819C22.5137 18.5649 22.3759 20.1459 23.642 21.5465C25.551 23.6555 28.9326 22.4977 29.733 19.8376C30.4578 17.4399 30.3365 13.4547 27.765 12.3329C25.1934 11.2112 22.5137 13.1989 22.5137 15.8819Z" fill="#FFB573"/>
<path d="M28.5783 17.23C28.8079 16.6002 29.7263 13.8942 28.024 13.048C26.3217 12.2018 24.088 11.9426 22.7006 12.5429C21.3131 13.1431 20.3062 15.344 20.3062 15.344C20.3062 15.344 20.9622 19.9786 23.6649 20.8118C26.3676 21.6449 29.4311 18.4338 28.5783 17.23Z" fill="#263238"/>
<path d="M27.9223 13.3957C28.2139 13.3018 28.4877 13.1599 28.7325 12.9758C29.7165 12.0213 27.9748 11.3817 26.2495 11.2243C24.2815 11.0505 21.5001 11.8278 20.3882 13.2677C21.4411 13.8089 26.4201 13.8319 27.9223 13.3957Z" fill="#263238"/>
<path d="M27.7618 13.1267C28.0215 13.1252 28.279 13.0786 28.5227 12.9889C29.8347 12.333 28.3227 11.4703 26.9713 10.893C25.4395 10.237 22.9763 10.1616 21.7036 11.0669C22.4154 11.7885 26.4334 13.1005 27.7618 13.1267Z" fill="#263238"/>
<path d="M27.4009 16.8594C27.4023 17.4489 27.6021 18.0209 27.9683 18.483C28.457 19.0766 29.031 18.7322 29.1721 18.027C29.3 17.3907 29.2016 16.3149 28.5784 15.977C27.9552 15.6392 27.4074 16.1378 27.4009 16.8594Z" fill="#FFB573"/>
<path d="M26.0924 48.4884C26.0924 48.4884 26.5385 68.9654 23.7964 76.516C19.493 88.488 14.8059 102.356 14.8059 102.356L9.86621 101.257C9.86621 101.257 13.8481 86.1526 16.0097 76.0798C17.9777 67.027 16.4557 55.8815 16.7542 48.4884H26.0924Z" fill="#407BFF"/>
<g opacity="0.3">
<path opacity="0.3" d="M26.0924 48.4884C26.0924 48.4884 26.5385 68.9654 23.7964 76.516C19.493 88.488 14.8059 102.356 14.8059 102.356L9.86621 101.257C9.86621 101.257 13.8481 86.1526 16.0097 76.0798C17.9777 67.027 16.4557 55.8815 16.7542 48.4884H26.0924Z" fill="white"/>
</g>
<path opacity="0.2" d="M26.1152 53.064C24.7671 52.6671 23.6946 52.818 23.3698 54.0316C22.5203 57.2034 24.3538 65.5706 25.269 69.3984C25.9282 63.888 26.0922 57.328 26.1152 53.064Z" fill="black"/>
<path d="M16.1441 100.857C16.1671 100.857 14.9207 102.461 14.9207 102.461L9.51855 101.26L10.1352 99.4071L16.1441 100.857Z" fill="#407BFF"/>
<path d="M31.2319 48.4884C31.2319 48.4884 34.2363 65.6953 34.1839 73.9477C34.1281 83.2006 30.3824 105.108 30.3824 105.108H25.7904C25.7904 105.108 26.3676 83.0924 26.5054 74.6628C26.6563 65.4788 21.7002 48.4949 21.7002 48.4949L31.2319 48.4884Z" fill="#407BFF"/>
<g opacity="0.3">
<path opacity="0.3" d="M31.2319 48.4884C31.2319 48.4884 34.2363 65.6953 34.1839 73.9477C34.1281 83.2006 30.3824 105.108 30.3824 105.108H25.7904C25.7904 105.108 26.3676 83.0924 26.5054 74.6628C26.6563 65.4788 21.7002 48.4949 21.7002 48.4949L31.2319 48.4884Z" fill="white"/>
</g>
<path d="M31.3434 103.278C31.3631 103.278 31.0154 105.18 31.0154 105.18H25.4394L25.3574 103.481L31.3434 103.278Z" fill="#407BFF"/>
<path d="M26.0724 54.376C26.0585 54.3803 26.0436 54.3803 26.0297 54.376L24.1208 53.251C24.1103 53.2439 24.1013 53.2347 24.0946 53.2239C24.0878 53.2132 24.0833 53.2012 24.0814 53.1886L23.6878 50.112C23.6862 50.1003 23.6871 50.0884 23.6905 50.077C23.6939 50.0657 23.6997 50.0553 23.7075 50.0464C23.7155 50.038 23.7252 50.0313 23.7359 50.0268C23.7467 50.0223 23.7582 50.0201 23.7698 50.0202H27.4303C27.4506 50.0192 27.4705 50.0262 27.4858 50.0397C27.5011 50.0532 27.5106 50.072 27.5123 50.0923L27.8632 53.0706C27.8648 53.0857 27.8623 53.101 27.8559 53.1148C27.8496 53.1287 27.8397 53.1406 27.8272 53.1493L26.115 54.3498C26.104 54.3629 26.0891 54.3721 26.0724 54.376ZM24.2388 53.1165L26.0691 54.1956L27.7091 53.0509L27.3811 50.194H23.8649L24.2388 53.1165Z" fill="white"/>
</svg>
