<svg width="166" height="120" viewBox="0 0 166 120" fill="none" xmlns="http://www.w3.org/2000/svg">
<g clip-path="url(#clip0)">
<path d="M25.7137 120C34.2418 120 41.1552 118.872 41.1552 117.48C41.1552 116.088 34.2418 114.96 25.7137 114.96C17.1856 114.96 10.2722 116.088 10.2722 117.48C10.2722 118.872 17.1856 120 25.7137 120Z" fill="#E6E6E6"/>
<path d="M118 106.231L55.8579 93.2241V32.5838L118 0V106.231Z" fill="#E6E6E6"/>
<path d="M117.849 6.36789L55.7071 36.2501V32.7354L117.849 0.206165V6.36789Z" fill="#6C63FF"/>
<path d="M58.5729 33.1911C58.5729 33.9998 58.3017 34.7865 57.9696 34.9471C57.64 35.1064 57.3747 34.5882 57.3747 33.7909C57.3747 32.9935 57.64 32.2098 57.9696 32.0392C58.3017 31.8672 58.5729 32.3824 58.5729 33.1911Z" fill="#E6E6E6"/>
<path d="M60.9862 31.9809C60.9862 32.7672 60.715 33.535 60.3829 33.6948C60.0532 33.8533 59.7878 33.3522 59.7878 32.5766C59.7878 31.801 60.0532 31.036 60.3829 30.8668C60.715 30.6963 60.9862 31.1945 60.9862 31.9809Z" fill="#E6E6E6"/>
<path d="M63.3995 30.7686C63.3995 31.5549 63.1283 32.3228 62.7962 32.4825C62.4665 32.641 62.2011 32.1399 62.2011 31.3644C62.2011 30.5888 62.4665 29.8238 62.7962 29.6545C63.1283 29.484 63.3995 29.9823 63.3995 30.7686Z" fill="#E6E6E6"/>
<path opacity="0.2" d="M101.867 47.289L63.5563 56.0946V44.8644L101.867 31.2567V47.289Z" fill="black"/>
<path d="M101.107 46.5252L62.7961 55.331V44.1006L101.107 30.4929V46.5252Z" fill="white"/>
<path opacity="0.2" d="M69.8887 48.3628C69.8887 50.1721 69.2075 51.814 68.3804 52.0266C67.5675 52.2357 66.9187 50.981 66.9187 49.2276C66.9187 47.4741 67.5675 45.8417 68.3804 45.5773C69.2075 45.3083 69.8887 46.5535 69.8887 48.3628Z" fill="black"/>
<path d="M69.4326 47.9046C69.4326 49.7139 68.7514 51.3558 67.9243 51.5684C67.1114 51.7775 66.4626 50.5228 66.4626 48.7694C66.4626 47.0159 67.1114 45.3835 67.9243 45.1191C68.7514 44.8501 69.4326 46.0953 69.4326 47.9046Z" fill="#6C63FF"/>
<path d="M91.9063 41.4877L73.5051 46.826V44.9365L91.9063 39.2516V41.4877Z" fill="#E6E6E6"/>
<path d="M87.6832 46.8922L76.8233 49.6463V47.6943L87.6832 44.7357V46.8922Z" fill="#E6E6E6"/>
<path opacity="0.2" d="M101.868 87.4465L63.5575 84.2201V61.6851L101.868 55.2593V87.4465Z" fill="black"/>
<path d="M100.956 86.6828L62.6453 83.4563V60.9213L100.956 54.4955V86.6828Z" fill="white"/>
<path opacity="0.2" d="M68.9826 67.2883L67.1895 67.4562V65.4871L68.9826 65.2814V67.2883Z" fill="black"/>
<path d="M68.6786 66.9829L66.8855 67.1507V65.1815L68.6786 64.976V66.9829Z" fill="#6C63FF"/>
<path d="M91.9063 64.7618L70.4885 66.7757V64.9431L91.9063 62.5257V64.7618Z" fill="#E6E6E6"/>
<path d="M91.9063 72.0633L70.4885 72.7597V70.9272L91.9063 69.8272V72.0633Z" fill="#E6E6E6"/>
<path d="M91.9063 79.5496L70.4885 78.8954V77.0627L91.9063 77.3135V79.5496Z" fill="#E6E6E6"/>
<path d="M23.9745 55.3182H19.8755V53.3012H23.3052L24.0581 53.7214L23.9745 55.3182Z" fill="#575A89"/>
<path d="M16.8639 110.872L17.0313 113.898L19.5409 113.394L19.1227 110.368L16.8639 110.872Z" fill="#FFB9B9"/>
<path d="M28.7427 109.276C28.7427 109.276 28.8264 111.797 28.5754 112.469C28.3245 113.142 29.2447 113.478 29.2447 113.478H31.2523L32.4235 113.646V112.385C32.4235 112.385 31.085 110.284 31.085 109.107C31.085 107.931 28.7427 109.276 28.7427 109.276Z" fill="#FFB9B9"/>
<path d="M17.2822 113.394C17.2822 113.394 18.9553 112.6 19.5409 113.081C20.1264 113.562 22.3014 117.68 21.4649 117.932C21.4649 117.932 20.8793 118.941 18.8716 118.268C16.864 117.596 16.864 116.84 16.864 116.84C16.864 116.84 16.2784 116.335 16.2784 116.167C16.2784 115.999 16.5294 114.486 16.5294 114.486C16.5294 114.486 16.715 113.221 16.9986 113.307L17.2822 113.394Z" fill="#2F2E41"/>
<path d="M28.91 112.133C28.91 112.133 28.6591 111.881 28.4918 112.133C28.3245 112.385 27.4043 115.579 28.2408 115.747C29.0773 115.915 30.3321 116.503 30.4995 116.335C30.6393 116.157 30.752 115.959 30.8341 115.747C30.8341 115.747 32.1725 116.335 32.5908 116.84C33.0091 117.344 38.0283 118.437 37.861 116.84C37.6937 115.243 35.184 113.898 35.184 113.898L32.4235 112.049C32.4235 112.049 31.336 112.133 31.085 112.637C30.8341 113.142 29.0773 113.058 28.91 112.133Z" fill="#2F2E41"/>
<path d="M4.3996 79.6075C4.3996 79.6075 3.47941 80.7841 3.64672 80.8682C3.81403 80.9522 7.49478 81.7927 9.50246 81.2884C11.5101 80.7841 15.6928 80.8681 15.9438 80.2798C16.1947 79.6915 19.2899 72.3795 19.2899 72.3795L18.2861 66.8325L17.1986 65.4037L14.689 63.2185L9.66977 72.6317L4.3996 79.6075Z" fill="#575A89"/>
<path opacity="0.1" d="M4.3996 79.6075C4.3996 79.6075 3.47941 80.7841 3.64672 80.8682C3.81403 80.9522 7.49478 81.7927 9.50246 81.2884C11.5101 80.7841 15.6928 80.8681 15.9438 80.2798C16.1947 79.6915 19.2899 72.3795 19.2899 72.3795L18.2861 66.8325L17.1986 65.4037L14.689 63.2185L9.66977 72.6317L4.3996 79.6075Z" fill="black"/>
<path d="M15.0236 77.5904C15.0236 77.5904 13.8524 81.7926 15.0236 87.5918C16.1947 93.3909 15.1072 94.6516 15.3582 94.9038C15.6091 95.1559 15.6928 95.0718 15.6928 95.324C15.6928 95.5761 15.9438 96.7528 15.6928 97.173C15.4418 97.5932 15.4418 110.956 16.1947 111.293C16.9476 111.629 19.1226 112.469 19.5409 111.293C19.9591 110.116 19.6245 101.627 19.7918 101.207C19.9591 100.787 19.9591 99.7784 19.9591 99.5263C19.9591 99.2741 20.461 96.4166 20.5447 95.6602C20.6283 94.9038 20.8793 93.3909 20.8793 93.3909C20.8793 93.3909 20.712 87.4237 21.2139 85.6587C21.7158 83.8938 21.8831 83.7257 21.8831 83.7257L25.8985 94.2314C25.8985 94.2314 25.5639 95.324 25.8985 95.6602C26.2331 95.9964 25.8149 95.9123 26.1495 96.5006C26.4841 97.0889 26.8187 97.257 26.8187 97.5932C26.8187 97.9294 26.4841 97.9294 26.6514 98.1815C26.8187 98.4337 27.0697 99.3582 27.0697 99.3582L26.6514 100.367C26.6514 100.367 26.9024 102.468 27.237 103.729C27.5716 104.989 27.5716 110.116 27.9898 110.2C28.4081 110.284 31.6706 111.209 31.6706 109.276C31.6706 107.343 31.4196 98.9379 31.4196 98.9379C31.4196 98.9379 30.9177 97.6773 30.9177 97.3411C30.9177 97.0049 30.8341 96.8368 31.0014 96.6687C31.1687 96.5006 31.336 96.1644 31.085 95.9123C30.8341 95.6602 30.9177 95.324 30.9177 94.9878C30.9033 94.5353 30.8472 94.0852 30.7504 93.6431C30.6668 93.3069 29.0773 82.8012 29.0773 82.8012C29.0773 82.8012 29.412 81.5405 29.0773 81.4565C28.7427 81.3724 28.7427 80.7 28.7427 80.3639C28.7427 80.0277 29.5793 75.8254 28.5754 75.8254C27.5716 75.8254 15.0236 77.5904 15.0236 77.5904Z" fill="#2F2E41"/>
<path d="M3.98133 72.5476L2.81018 73.1359C2.81018 73.1359 -1.37249 75.4052 0.467884 76.6658C2.30826 77.9265 4.14863 74.9009 4.14863 74.9009L5.90535 73.5561L3.98133 72.5476Z" fill="#FFB9B9"/>
<path d="M20.2938 49.5191C20.2938 49.5191 19.9592 53.3852 18.2024 54.2257C16.4457 55.0661 17.6168 61.3695 17.6168 61.3695L20.0428 63.7228L24.3091 62.4621L24.811 59.6046L25.2293 56.663L24.2255 55.1502C24.2255 55.1502 22.9707 54.814 23.4726 51.4522C23.9745 48.0903 20.2938 49.5191 20.2938 49.5191Z" fill="#FFB9B9"/>
<path d="M17.7841 55.5704C17.7841 55.5704 19.7082 61.9578 21.0466 61.9578C22.3851 61.9578 23.138 60.445 23.3053 58.596C23.4726 56.747 24.5601 54.7299 24.5601 54.7299L27.1533 57.0832C27.1533 57.0832 29.2447 75.6573 29.0774 76.1616C28.9101 76.6658 22.3851 77.2542 19.7918 78.0106C17.1986 78.767 14.6053 78.1787 14.6053 77.7584C14.6053 77.3842 15.9324 74.1432 14.9226 71.7763C14.5537 70.9331 14.3043 70.0421 14.1816 69.1294C14.0253 67.8833 13.8801 66.3755 14.0197 65.908C14.2707 65.0675 15.6092 56.1587 15.6092 56.1587L17.7841 55.5704Z" fill="#6C63FF"/>
<path d="M19.2005 53.2514C19.2005 53.2514 17.7005 54.0576 17.0313 54.3937C16.362 54.7299 12.263 55.7385 12.1794 56.2427C12.0957 56.747 12.7649 63.8068 12.4303 64.5633C12.0957 65.3197 8.74957 72.0433 8.74957 72.0433L8.58226 73.4721C8.58226 73.4721 3.06114 80.1117 3.73036 80.8681C4.39959 81.6245 6.9092 78.5148 6.9092 78.5148C6.9092 78.5148 12.514 69.522 12.6813 69.1858C12.8486 68.8496 16.2784 62.6302 16.7803 62.4621C17.2822 62.294 18.4534 55.2342 18.6207 54.898C18.788 54.5618 19.4458 53.1176 19.2005 53.2514Z" fill="#575A89"/>
<path d="M12.5976 56.1587H12.0957C12.0957 56.1587 10.2553 63.2185 9.75341 64.143C9.25149 65.0675 9.16784 66.5804 9.08419 66.8325C9.00054 67.0846 8.66592 67.0006 8.58227 67.5889C8.49861 68.1772 7.66208 68.9336 6.99285 69.2698C6.32362 69.606 3.3121 72.4636 3.39575 72.5476C3.4794 72.6316 4.39959 75.5732 4.98516 75.5732C5.57074 75.5732 7.91303 72.7157 8.16399 72.7157C8.41496 72.7157 9.50245 71.7071 9.66976 71.6231C9.83706 71.5391 14.1034 63.6388 13.9361 61.7057C13.7688 59.7727 12.5976 56.1587 12.5976 56.1587Z" fill="#575A89"/>
<path d="M33.4703 77.9326L34.5006 78.7444C34.5006 78.7444 38.1472 81.8081 36.0931 82.6736C34.0389 83.5391 32.8379 80.2048 32.8379 80.2048L31.3843 78.5343L33.4703 77.9326Z" fill="#FFB9B9"/>
<path d="M23.3703 53.351C23.3703 53.351 24.4764 53.8895 24.9783 54.3097C25.4802 54.7299 29.3283 55.8225 29.3283 56.1587C29.3283 56.4949 28.91 61.7057 28.91 61.7057L29.4956 70.9507C29.4956 70.9507 30.3321 81.3724 30.4994 81.6245C30.6667 81.8767 30.9177 83.2214 30.4994 83.2214C30.0812 83.2214 27.9898 80.8681 28.0735 79.6915C28.1572 78.5148 28.7427 75.8254 28.1571 75.153C27.5716 74.4807 24.811 63.2185 24.811 62.5462C24.811 61.8738 23.6399 55.1502 23.7235 54.9821C23.8072 54.814 23.3703 53.351 23.3703 53.351Z" fill="#575A89"/>
<path d="M28.0735 56.0747L29.3283 56.1587L32.4235 68.8496C32.4235 68.8496 32.6745 70.4465 32.7581 70.6146C32.8418 70.7827 34.0966 78.0946 33.5946 78.3468C33.0927 78.5989 31.4197 79.5234 31.336 78.9351C31.2523 78.3468 30.4158 75.069 29.5793 74.3126C28.7427 73.5562 27.9062 60.5291 27.9062 60.5291L28.0735 56.0747Z" fill="#575A89"/>
<path d="M23.0543 51.7883C24.9485 51.7883 26.4841 50.2456 26.4841 48.3425C26.4841 46.4393 24.9485 44.8966 23.0543 44.8966C21.1601 44.8966 19.6245 46.4393 19.6245 48.3425C19.6245 50.2456 21.1601 51.7883 23.0543 51.7883Z" fill="#FFB9B9"/>
<path d="M20.6608 48.5941C20.879 48.4815 21.1662 48.5875 21.3676 48.8326C21.4742 48.3202 21.6983 47.8399 22.0222 47.4299C22.3461 47.0198 22.7608 46.6914 23.2332 46.4707C23.7057 46.25 24.2229 46.1432 24.7437 46.1588C25.2645 46.1743 25.7745 46.3117 26.2331 46.5602V46.2099C26.2331 45.4381 25.928 44.6979 25.3847 44.1521C24.8415 43.6063 24.1048 43.2997 23.3366 43.2997H22.6403C21.9257 43.2997 21.2181 43.4411 20.5579 43.7159C19.8976 43.9906 19.2977 44.3934 18.7924 44.901C18.2871 45.4087 17.8863 46.0114 17.6128 46.6748C17.3393 47.3381 17.1986 48.049 17.1986 48.767V49.7428C17.1985 50.6483 17.4481 51.5362 17.9197 52.308C18.3913 53.0797 19.0665 53.705 19.8703 54.1147L23.0026 52.4486C22.549 52.1918 22.1612 51.8322 21.8701 51.3984C21.579 50.9646 21.3927 50.4685 21.3258 49.9497C21.0608 50.066 20.7058 49.8778 20.5211 49.5166C20.3311 49.145 20.3937 48.732 20.6608 48.5941Z" fill="#2F2E41"/>
</g>
<g clip-path="url(#clip1)">
<path d="M142 106.231L79.8579 93.2241V32.5838L142 0V106.231Z" fill="#E6E6E6"/>
<path d="M141.849 6.3679L79.707 36.2501V32.7354L141.849 0.206177V6.3679Z" fill="#6C63FF"/>
</g>
<g clip-path="url(#clip2)">
<path d="M166 106.231L103.858 93.2241V32.5838L166 0V106.231Z" fill="#E6E6E6"/>
<path d="M165.849 6.3679L103.707 36.2501V32.7354L165.849 0.206177V6.3679Z" fill="#6C63FF"/>
</g>
<defs>
<clipPath id="clip0">
<rect width="118" height="120" fill="white"/>
</clipPath>
<clipPath id="clip1">
<rect width="18" height="120" fill="white" transform="translate(124)"/>
</clipPath>
<clipPath id="clip2">
<rect width="18" height="120" fill="white" transform="translate(148)"/>
</clipPath>
</defs>
</svg>
