<svg width="154" height="157" viewBox="0 0 154 157" fill="none" xmlns="http://www.w3.org/2000/svg">
<path d="M137.869 119.358H116.447V119.457H137.869V119.358Z" fill="#E6E6E6"/>
<path d="M114.245 119.358H111.219V119.457H114.245V119.358Z" fill="#E6E6E6"/>
<path d="M148.372 117.631H127.367V117.73H148.372V117.631Z" fill="#E6E6E6"/>
<path d="M100.408 114.696H58.1218C59.9354 107.85 60.4871 100.731 59.7501 93.6874C58.8247 84.5732 55.8026 75.4193 50.6875 66.6307H92.9702C98.0852 75.4113 101.107 84.5732 102.037 93.6874C102.774 100.731 102.222 107.85 100.408 114.696Z" fill="#E0E0E0"/>
<path d="M99.4827 114.696H57.196C59.0096 107.85 59.5613 100.731 58.8243 93.6874C57.899 84.5732 54.8768 75.4193 49.7617 66.6307H92.0444C97.1595 75.4113 100.182 84.5732 101.111 93.6874C101.848 100.731 101.296 107.85 99.4827 114.696Z" fill="#F5F5F5"/>
<path d="M101.111 93.6874H58.8243C57.899 84.5732 54.8768 75.4193 49.7617 66.6307H92.0444C97.1595 75.4113 100.182 84.5732 101.111 93.6874Z" fill="#E0E0E0"/>
<path d="M141.521 1.02466H11C8.7628 1.02466 6.94922 2.83824 6.94922 5.07541V85.5265C6.94922 87.7637 8.7628 89.5772 11 89.5772H141.521C143.759 89.5772 145.572 87.7637 145.572 85.5265V5.07541C145.572 2.83824 143.759 1.02466 141.521 1.02466Z" fill="#E0E0E0"/>
<path d="M140.803 1.02466H10.2812C8.04405 1.02466 6.23047 2.83824 6.23047 5.07541V85.5265C6.23047 87.7637 8.04405 89.5772 10.2812 89.5772H140.803C143.04 89.5772 144.853 87.7637 144.853 85.5265V5.07541C144.853 2.83824 143.04 1.02466 140.803 1.02466Z" fill="#EBEBEB"/>
<path d="M144.853 5.67896H6.23047V75.749H144.853V5.67896Z" fill="white"/>
<path d="M102.025 111.36H53.7579C52.8711 111.36 52.0205 111.712 51.3935 112.339C50.7664 112.966 50.4141 113.817 50.4141 114.704H105.369C105.369 113.817 105.017 112.966 104.39 112.339C103.763 111.712 102.912 111.36 102.025 111.36Z" fill="#F5F5F5"/>
<path d="M47.0174 64.9351L128.735 64.9351C129.689 64.9351 130.463 64.1616 130.463 63.2075V1.72747C130.463 0.773376 129.689 -5.34058e-05 128.735 -5.34058e-05L47.0174 -5.34058e-05C46.0634 -5.34058e-05 45.2899 0.773376 45.2899 1.72747L45.2899 63.2075C45.2899 64.1616 46.0634 64.9351 47.0174 64.9351Z" fill="#E0E0E0"/>
<path d="M46.5604 64.9351L128.278 64.9351C129.232 64.9351 130.006 64.1616 130.006 63.2075V1.72747C130.006 0.773376 129.232 -5.34058e-05 128.278 -5.34058e-05L46.5604 -5.34058e-05C45.6063 -5.34058e-05 44.8329 0.773376 44.8329 1.72747L44.8329 63.2075C44.8329 64.1616 45.6063 64.9351 46.5604 64.9351Z" fill="#EBEBEB"/>
<path d="M130.005 4.47168V63.2076C130.004 63.6661 129.821 64.1055 129.496 64.4293C129.172 64.7532 128.732 64.9351 128.274 64.9351H46.5596C46.1017 64.934 45.6629 64.7517 45.3392 64.4279C45.0154 64.1042 44.8331 63.6654 44.832 63.2076V4.47168H130.005Z" fill="#F0F0F0"/>
<path d="M129.684 6.76721H45.1504V62.6398H129.684V6.76721Z" fill="white"/>
<path d="M126.212 3.16519C126.719 3.16519 127.13 2.75447 127.13 2.24782C127.13 1.74117 126.719 1.33044 126.212 1.33044C125.706 1.33044 125.295 1.74117 125.295 2.24782C125.295 2.75447 125.706 3.16519 126.212 3.16519Z" fill="white"/>
<path d="M122.035 2.24782C122.034 2.43021 122.088 2.60873 122.189 2.76077C122.289 2.91281 122.433 3.03152 122.601 3.10186C122.769 3.1722 122.955 3.19102 123.134 3.15592C123.313 3.12082 123.477 3.03338 123.607 2.90469C123.736 2.77599 123.824 2.61183 123.86 2.433C123.896 2.25417 123.878 2.06871 123.808 1.90013C123.738 1.73154 123.62 1.58741 123.469 1.486C123.317 1.38458 123.139 1.33045 122.957 1.33044C122.713 1.33044 122.479 1.42697 122.306 1.59889C122.134 1.77082 122.036 2.00415 122.035 2.24782Z" fill="white"/>
<path d="M119.701 3.16519C120.207 3.16519 120.618 2.75447 120.618 2.24782C120.618 1.74117 120.207 1.33044 119.701 1.33044C119.194 1.33044 118.783 1.74117 118.783 2.24782C118.783 2.75447 119.194 3.16519 119.701 3.16519Z" fill="white"/>
<path d="M44.8329 4.58301L130.006 4.58301V4.35267L44.8329 4.35267V4.58301Z" fill="#E0E0E0"/>
<path d="M115.17 33.649C112.084 33.649 110.591 30.5037 109.141 27.4657C107.739 24.519 106.417 21.7351 103.832 21.7351C101.246 21.7351 99.9238 24.515 98.5219 27.4657C97.0764 30.5037 95.5792 33.649 92.4935 33.649C89.4078 33.649 87.9145 30.5037 86.469 27.4657C85.0671 24.519 83.7407 21.7351 81.1593 21.7351C78.5779 21.7351 77.2515 24.515 75.8497 27.4657C74.4041 30.5037 72.9069 33.649 69.8251 33.649C66.7434 33.649 65.2422 30.5037 63.7967 27.4657C62.3948 24.519 61.0724 21.7351 58.487 21.7351C55.9017 21.7351 54.5792 24.515 53.1774 27.4657C51.7318 30.5037 50.2386 33.649 47.1529 33.649C44.0671 33.649 42.5739 30.5037 41.1244 27.4657C39.7265 24.519 38.4001 21.7351 35.8187 21.7351C33.2373 21.7351 31.9109 24.515 30.509 27.4657C29.0635 30.5037 27.5703 33.649 24.4845 33.649C21.3988 33.649 19.9056 30.5037 18.46 27.4657C17.0582 24.519 15.7318 21.7351 13.1504 21.7351V20.9408C16.2361 20.9408 17.7293 24.0861 19.1749 27.1241C20.5768 30.0709 21.9032 32.8548 24.4845 32.8548C27.0659 32.8548 28.3923 30.0748 29.7942 27.1241C31.2398 24.0861 32.733 20.9408 35.8187 20.9408C38.9044 20.9408 40.3976 24.0861 41.8432 27.1241C43.2451 30.0709 44.5675 32.8548 47.1529 32.8548C49.7382 32.8548 51.0606 30.0748 52.4625 27.1241C53.9081 24.0861 55.4013 20.9408 58.487 20.9408C61.5727 20.9408 63.066 24.0861 64.5155 27.1241C65.9174 30.0709 67.2398 32.8548 69.8251 32.8548C72.4105 32.8548 73.729 30.0748 75.1308 27.1241C76.5804 24.0861 78.0736 20.9408 81.1593 20.9408C84.245 20.9408 85.7382 24.0861 87.1878 27.1241C88.5897 30.0709 89.9121 32.8548 92.4935 32.8548C95.0748 32.8548 96.4052 30.0748 97.8071 27.1241C99.2527 24.0861 100.746 20.9408 103.832 20.9408C106.917 20.9408 108.414 24.0861 109.86 27.1241C111.262 30.0709 112.588 32.8548 115.17 32.8548V33.649Z" fill="#FAFAFA"/>
<path d="M115.17 51.9211C112.084 51.9211 110.591 48.7798 109.141 45.7378C107.739 42.7911 106.417 40.0072 103.832 40.0072C101.246 40.0072 99.9238 42.7871 98.5219 45.7378C97.0764 48.7798 95.5792 51.9211 92.4935 51.9211C89.4078 51.9211 87.9145 48.7798 86.469 45.7378C85.0671 42.7911 83.7407 40.0072 81.1593 40.0072C78.5779 40.0072 77.2515 42.7871 75.8497 45.7378C74.4041 48.7798 72.9069 51.9211 69.8251 51.9211C66.7434 51.9211 65.2422 48.7798 63.7967 45.7378C62.3948 42.7911 61.0724 40.0072 58.487 40.0072C55.9017 40.0072 54.5792 42.7871 53.1774 45.7378C51.7318 48.7798 50.2386 51.9211 47.1529 51.9211C44.0671 51.9211 42.5739 48.7798 41.1244 45.7378C39.7265 42.7911 38.4001 40.0072 35.8187 40.0072C33.2373 40.0072 31.9109 42.7871 30.509 45.7378C29.0635 48.7798 27.5703 51.9211 24.4845 51.9211C21.3988 51.9211 19.9056 48.7798 18.46 45.7378C17.0582 42.7911 15.7318 40.0072 13.1504 40.0072V39.2129C16.2361 39.2129 17.7293 42.3582 19.1749 45.3962C20.5768 48.343 21.9032 51.1269 24.4845 51.1269C27.0659 51.1269 28.3923 48.3469 29.7942 45.3962C31.2398 42.3582 32.733 39.2129 35.8187 39.2129C38.9044 39.2129 40.3976 42.3582 41.8432 45.3962C43.2451 48.343 44.5675 51.1269 47.1529 51.1269C49.7382 51.1269 51.0606 48.3469 52.4625 45.3962C53.9081 42.3582 55.4013 39.2129 58.487 39.2129C61.5727 39.2129 63.066 42.3582 64.5155 45.3962C65.9174 48.343 67.2398 51.1269 69.8251 51.1269C72.4105 51.1269 73.729 48.3469 75.1308 45.3962C76.5804 42.3582 78.0736 39.2129 81.1593 39.2129C84.245 39.2129 85.7382 42.3582 87.1878 45.3962C88.5897 48.343 89.9121 51.1269 92.4935 51.1269C95.0748 51.1269 96.4052 48.3469 97.8071 45.3962C99.2527 42.3582 100.746 39.2129 103.832 39.2129C106.917 39.2129 108.414 42.3582 109.86 45.3962C111.262 48.343 112.588 51.1269 115.17 51.1269V51.9211Z" fill="#FAFAFA"/>
<path d="M77 156.458C119.526 156.458 154 154.446 154 151.963C154 149.48 119.526 147.467 77 147.467C34.4741 147.467 0 149.48 0 151.963C0 154.446 34.4741 156.458 77 156.458Z" fill="white"/>
<path d="M102.022 6.49304H80.8551C80.1093 6.49321 79.3808 6.71795 78.7646 7.138C78.1483 7.55804 77.6728 8.15392 77.4001 8.84804L75.5137 13.6136H107.368L105.481 8.84804C105.208 8.15329 104.732 7.55697 104.115 7.13687C103.498 6.71678 102.769 6.49241 102.022 6.49304Z" fill="#92E3A9"/>
<path opacity="0.4" d="M102.022 6.49304H80.8551C80.1093 6.49321 79.3808 6.71795 78.7646 7.138C78.1483 7.55804 77.6728 8.15392 77.4001 8.84804L75.5137 13.6136H107.368L105.481 8.84804C105.208 8.15329 104.732 7.55697 104.115 7.13687C103.498 6.71678 102.769 6.49241 102.022 6.49304Z" fill="white"/>
<path d="M41.9266 6.49304H20.7595C20.0131 6.49295 19.284 6.71754 18.6671 7.13756C18.0502 7.55759 17.5739 8.15361 17.3004 8.84804L15.4141 13.6136H47.272L45.3856 8.84804C45.1121 8.15361 44.6359 7.55759 44.019 7.13756C43.4021 6.71754 42.673 6.49295 41.9266 6.49304Z" fill="#92E3A9"/>
<path opacity="0.2" d="M41.9266 6.49304H20.7595C20.0131 6.49295 19.284 6.71754 18.6671 7.13756C18.0502 7.55759 17.5739 8.15361 17.3004 8.84804L15.4141 13.6136H47.272L45.3856 8.84804C45.1121 8.15361 44.6359 7.55759 44.019 7.13756C43.4021 6.71754 42.673 6.49295 41.9266 6.49304Z" fill="black"/>
<path d="M139.246 13.0894H77.1144L75.4385 8.84804C75.1645 8.15392 74.6882 7.55821 74.0714 7.13825C73.4545 6.7183 72.7257 6.4935 71.9795 6.49304H50.8123C50.0658 6.49241 49.3365 6.71678 48.7195 7.13687C48.1024 7.55697 47.6263 8.15329 47.3533 8.84804L45.6774 13.0894H14.7606C13.6103 13.0957 12.5089 13.5554 11.6954 14.3688C10.882 15.1823 10.4223 16.2837 10.416 17.434V100.324C10.4223 101.474 10.882 102.575 11.6954 103.389C12.5089 104.202 13.6103 104.662 14.7606 104.668H139.246C140.396 104.662 141.498 104.202 142.311 103.389C143.124 102.575 143.584 101.474 143.59 100.324V17.434C143.584 16.2837 143.124 15.1823 142.311 14.3688C141.498 13.5554 140.396 13.0957 139.246 13.0894Z" fill="#92E3A9"/>
<path d="M140.812 100.407V25.6111C140.812 24.793 140.149 24.1298 139.331 24.1298L14.6833 24.1298C13.8652 24.1298 13.2019 24.793 13.2019 25.6111V100.407C13.2019 101.225 13.8652 101.888 14.6833 101.888L139.331 101.888C140.149 101.888 140.812 101.225 140.812 100.407Z" fill="white"/>
<path d="M78.3746 44.6932H57.0605V51.0116H78.3746V44.6932Z" fill="#92E3A9"/>
<path d="M96.9424 44.6932H81.9824V51.0116H96.9424V44.6932Z" fill="#92E3A9"/>
<path d="M9.42252 40.1619H9.02539V47.8543H9.42252V40.1619Z" fill="#92E3A9"/>
<path d="M9.42252 50.7732H9.02539V53.5968H9.42252V50.7732Z" fill="#92E3A9"/>
<path d="M31.3453 26.7151H24.5742V28.2242H31.3453V26.7151Z" fill="#92E3A9"/>
<path d="M22.6988 26.7151H15.9277V28.2242H22.6988V26.7151Z" fill="#92E3A9"/>
<path d="M109.767 68.7394H44.2402V56.6825H109.767V68.7394ZM44.6374 68.3423H109.37V57.0796H44.6374V68.3423Z" fill="#92E3A9"/>
<path d="M46.8893 59.6969H46.4922V65.7293H46.8893V59.6969Z" fill="#92E3A9"/>
<path d="M93.9923 72.58H60.0137V74.0891H93.9923V72.58Z" fill="#92E3A9"/>
<path opacity="0.6" d="M109.767 68.7394H44.2402V56.6825H109.767V68.7394ZM44.6374 68.3423H109.37V57.0796H44.6374V68.3423Z" fill="#2C4433"/>
<path opacity="0.6" d="M46.8893 59.6969H46.4922V65.7293H46.8893V59.6969Z" fill="white"/>
<path opacity="0.6" d="M93.9923 72.58H60.0137V74.0891H93.9923V72.58Z" fill="white"/>
<path opacity="0.6" d="M31.3453 26.7151H24.5742V28.2242H31.3453V26.7151Z" fill="white"/>
<path opacity="0.6" d="M22.6988 26.7151H15.9277V28.2242H22.6988V26.7151Z" fill="white"/>
<path d="M123.605 45.4636C123.208 47.4493 122.414 51.4206 123.784 52.751C123.784 52.751 123.248 54.7367 119.578 54.7367C115.544 54.7367 117.652 52.751 117.652 52.751C119.852 52.2268 119.797 50.5946 119.412 49.0577L123.605 45.4636Z" fill="#E4897B"/>
<path d="M117.422 53.3984C116.877 53.4778 117.382 52.2348 117.608 52.1037C118.128 51.7939 124.757 51.1704 124.681 51.8694C124.636 52.2833 124.455 52.6704 124.165 52.9695C123.859 53.1799 122.191 52.6319 117.422 53.3984Z" fill="#92E3A9"/>
<path opacity="0.6" d="M117.422 53.3984C116.877 53.4778 117.382 52.2348 117.608 52.1037C118.128 51.7939 124.757 51.1704 124.681 51.8694C124.636 52.2833 124.455 52.6704 124.165 52.9695C123.859 53.1799 122.191 52.6319 117.422 53.3984Z" fill="white"/>
<path d="M131.008 57.3777C131.215 58.172 131.441 59.0456 131.687 59.8796C131.934 60.7136 132.168 61.5714 132.426 62.4133C132.684 63.2552 132.946 64.1051 133.22 64.9431L133.617 66.2059L133.721 66.5197L133.76 66.6309C133.767 66.654 133.775 66.6765 133.784 66.6984C133.833 66.8123 133.894 66.9202 133.967 67.0201C134.407 67.5861 134.945 68.0689 135.555 68.4458C136.256 68.9075 136.987 69.3215 137.744 69.6848C139.319 70.4425 140.933 71.1146 142.581 71.6983L142.184 73.3384C140.34 73.0588 138.527 72.6095 136.767 71.9961C135.856 71.6784 134.971 71.2934 134.118 70.8444C133.152 70.3473 132.287 69.6739 131.568 68.8588C131.359 68.6068 131.177 68.334 131.024 68.0447C130.981 67.9692 130.945 67.8898 130.905 67.8064L130.822 67.6038L130.687 67.2861C130.508 66.8652 130.329 66.4442 130.162 66.0153C129.829 65.1615 129.495 64.3076 129.201 63.4379C128.907 62.5682 128.614 61.6985 128.348 60.8168L127.974 59.4825C127.851 59.0258 127.748 58.5969 127.641 58.0965L131.008 57.3777Z" fill="#E4897B"/>
<path d="M132.384 58.7833L129.044 61.4441L127.039 63.0326C127.039 63.0326 126.828 62.4727 126.574 61.6704C126.089 60.1216 125.458 57.6674 125.895 56.5395C126.582 54.7524 127.88 53.14 129.525 53.4975C130.907 53.8112 132.384 58.7833 132.384 58.7833Z" fill="#92E3A9"/>
<path opacity="0.2" d="M132.384 58.7833L129.044 61.4441L127.039 63.0326C127.039 63.0326 126.828 62.4727 126.574 61.6704C126.089 60.1216 125.458 57.6674 125.895 56.5395C126.582 54.7524 127.88 53.14 129.525 53.4975C130.907 53.8112 132.384 58.7833 132.384 58.7833Z" fill="white"/>
<path opacity="0.1" d="M129.04 61.4442L127.035 63.0328C127.035 63.0328 126.824 62.4728 126.57 61.6706L127.762 55.7732L129.04 61.4442Z" fill="black"/>
<path d="M112.028 53.6049C112.028 53.6049 110.439 54.1609 113.617 73.68H127.119C126.893 68.1836 126.885 64.7921 129.502 53.5056C127.61 53.1153 125.692 52.8631 123.763 52.7511C121.722 52.604 119.673 52.604 117.632 52.7511C115.014 52.9814 112.028 53.6049 112.028 53.6049Z" fill="#92E3A9"/>
<path opacity="0.2" d="M112.028 53.6049C112.028 53.6049 110.439 54.1609 113.617 73.68H127.119C126.893 68.1836 126.885 64.7921 129.502 53.5056C127.61 53.1153 125.692 52.8631 123.763 52.7511C121.722 52.604 119.673 52.604 117.632 52.7511C115.014 52.9814 112.028 53.6049 112.028 53.6049Z" fill="white"/>
<path d="M144.618 74.1447L143.585 76.2495L142.902 74.0295L144.411 71.9525L144.618 74.1447Z" fill="#E4897B"/>
<path d="M105.858 148.543L102.617 147.793L104.134 140.235L107.375 140.986L105.858 148.543Z" fill="#E4897B"/>
<path d="M127.767 148.567H124.439L124.702 140.863H128.03L127.767 148.567Z" fill="#E4897B"/>
<path d="M104.134 140.239L103.32 144.286L106.593 144.882L107.379 140.99L104.134 140.239Z" fill="#CE6F64"/>
<path d="M128.027 140.863H124.699L124.568 144.834H127.896L128.027 140.863Z" fill="#CE6F64"/>
<path d="M113.618 73.6799C113.618 73.6799 109.869 99.295 108.551 109.358C107.181 119.823 103.178 143.285 103.178 143.285L107.622 143.964C107.622 143.964 114.655 121.586 116.613 111.4C118.749 100.3 123.511 73.672 123.511 73.672L113.618 73.6799Z" fill="#92E3A9"/>
<path opacity="0.7" d="M113.618 73.6799C113.618 73.6799 109.869 99.295 108.551 109.358C107.181 119.823 103.178 143.285 103.178 143.285L107.622 143.964C107.622 143.964 114.655 121.586 116.613 111.4C118.749 100.3 123.511 73.672 123.511 73.672L113.618 73.6799Z" fill="black"/>
<path d="M117.184 73.6798C117.184 73.6798 119.118 96.5109 121.119 109.378C122.736 119.771 124.014 144.067 124.014 144.067H128.55C128.55 144.067 130.71 120.605 129.888 110.311C127.811 84.303 131.457 79.6963 127.128 73.6678L117.184 73.6798Z" fill="#92E3A9"/>
<path opacity="0.7" d="M117.184 73.6798C117.184 73.6798 119.118 96.5109 121.119 109.378C122.736 119.771 124.014 144.067 124.014 144.067H128.55C128.55 144.067 130.71 120.605 129.888 110.311C127.811 84.303 131.457 79.6963 127.128 73.6678L117.184 73.6798Z" fill="black"/>
<path d="M142.068 71.5792L144.411 71.9525L142.922 74.0295C142.922 74.0295 140.626 73.1995 140.717 71.8215L142.068 71.5792Z" fill="#E4897B"/>
<path d="M123.043 148.762C122.817 148.781 122.592 148.719 122.408 148.587C122.352 148.534 122.311 148.468 122.288 148.395C122.265 148.322 122.261 148.245 122.277 148.17C122.281 148.122 122.297 148.077 122.324 148.038C122.352 147.999 122.389 147.968 122.432 147.948C122.829 147.773 123.83 148.424 123.945 148.5C123.958 148.508 123.968 148.52 123.975 148.534C123.981 148.548 123.983 148.564 123.981 148.579C123.977 148.594 123.97 148.608 123.959 148.619C123.949 148.63 123.936 148.638 123.921 148.642C123.634 148.714 123.339 148.754 123.043 148.762ZM122.599 148.075C122.566 148.068 122.532 148.068 122.499 148.075C122.48 148.084 122.464 148.098 122.452 148.115C122.44 148.133 122.433 148.153 122.432 148.174C122.42 148.224 122.422 148.276 122.436 148.326C122.451 148.375 122.478 148.42 122.515 148.456C122.682 148.611 123.119 148.631 123.707 148.515C123.372 148.293 122.995 148.142 122.599 148.075Z" fill="#92E3A9"/>
<path d="M123.9 148.643C123.887 148.646 123.873 148.646 123.86 148.643C123.542 148.46 122.939 147.745 123.014 147.368C123.027 147.307 123.06 147.251 123.109 147.212C123.157 147.172 123.218 147.15 123.28 147.149C123.34 147.142 123.401 147.147 123.458 147.165C123.516 147.182 123.569 147.212 123.614 147.253C123.975 147.574 123.979 148.532 123.979 148.575C123.979 148.589 123.975 148.602 123.968 148.614C123.961 148.626 123.951 148.636 123.94 148.643C123.927 148.646 123.913 148.646 123.9 148.643ZM123.336 147.296H123.3C123.197 147.296 123.177 147.356 123.169 147.392C123.122 147.622 123.499 148.158 123.816 148.412C123.824 148.039 123.716 147.673 123.507 147.364C123.484 147.342 123.457 147.325 123.428 147.313C123.399 147.301 123.367 147.296 123.336 147.296Z" fill="#92E3A9"/>
<path d="M102.33 147.292C101.794 147.185 100.861 146.939 100.654 146.498C100.622 146.437 100.605 146.369 100.605 146.3C100.605 146.23 100.622 146.162 100.654 146.101C100.673 146.062 100.701 146.028 100.737 146.004C100.772 145.98 100.814 145.965 100.857 145.962C101.309 145.906 102.282 147.042 102.394 147.153C102.402 147.166 102.407 147.18 102.408 147.195C102.41 147.209 102.407 147.224 102.4 147.238C102.394 147.251 102.384 147.262 102.372 147.271C102.359 147.279 102.345 147.284 102.33 147.285V147.292ZM100.892 146.101H100.873C100.855 146.103 100.839 146.11 100.825 146.12C100.811 146.131 100.8 146.145 100.793 146.161C100.771 146.201 100.759 146.247 100.759 146.294C100.759 146.34 100.771 146.386 100.793 146.427C100.912 146.673 101.405 146.911 102.132 147.082C101.722 146.645 101.151 146.105 100.892 146.105V146.101Z" fill="#92E3A9"/>
<path d="M102.332 147.292C102.311 147.291 102.291 147.281 102.277 147.265C101.979 146.947 101.53 145.986 101.729 145.676C101.768 145.62 101.826 145.58 101.893 145.563C101.959 145.547 102.029 145.554 102.09 145.585C102.165 145.607 102.235 145.645 102.295 145.695C102.356 145.746 102.405 145.808 102.44 145.879C102.694 146.359 102.42 147.217 102.408 147.253C102.404 147.266 102.397 147.277 102.387 147.286C102.378 147.296 102.365 147.302 102.352 147.304L102.332 147.292ZM101.935 145.704C101.872 145.704 101.856 145.732 101.848 145.744C101.729 145.938 102.003 146.665 102.281 147.046C102.398 146.685 102.398 146.296 102.281 145.934C102.255 145.883 102.219 145.837 102.174 145.8C102.13 145.763 102.078 145.736 102.023 145.72C102 145.712 101.976 145.706 101.951 145.704H101.935Z" fill="#92E3A9"/>
<path d="M115.593 41.2303C115.568 41.2306 115.544 41.225 115.522 41.2139C115.5 41.2029 115.48 41.1867 115.466 41.1667C115.354 41.0028 115.205 40.8677 115.031 40.7724C114.857 40.6771 114.663 40.6245 114.465 40.6187C114.442 40.6223 114.419 40.621 114.397 40.6148C114.375 40.6085 114.354 40.5976 114.337 40.5827C114.32 40.5678 114.305 40.5492 114.296 40.5284C114.286 40.5075 114.281 40.4848 114.281 40.4618C114.281 40.4389 114.286 40.4162 114.296 40.3953C114.305 40.3744 114.32 40.3559 114.337 40.341C114.354 40.3261 114.375 40.3151 114.397 40.3089C114.419 40.3027 114.442 40.3013 114.465 40.305C114.714 40.3102 114.959 40.374 115.179 40.4913C115.399 40.6085 115.589 40.776 115.732 40.9801C115.744 40.997 115.753 41.0162 115.758 41.0366C115.763 41.0569 115.764 41.078 115.76 41.0987C115.757 41.1194 115.75 41.1392 115.739 41.157C115.728 41.1748 115.713 41.1903 115.696 41.2025C115.666 41.2237 115.63 41.2336 115.593 41.2303Z" fill="#263238"/>
<path d="M114.726 43.1245C114.511 43.7466 114.212 44.336 113.836 44.8759C113.976 44.9674 114.135 45.0272 114.301 45.0512C114.467 45.0752 114.636 45.0628 114.797 45.0149L114.726 43.1245Z" fill="#DE5753"/>
<path d="M114.937 42.656C114.937 42.9261 114.813 43.1485 114.635 43.1524C114.456 43.1564 114.309 42.9499 114.301 42.6799C114.293 42.4098 114.424 42.1914 114.599 42.1834C114.774 42.1755 114.925 42.39 114.937 42.656Z" fill="#263238"/>
<path d="M114.677 42.1952L114.025 42.0364C114.025 42.0364 114.375 42.5248 114.677 42.1952Z" fill="#263238"/>
<path d="M124.178 148.182H127.915C127.979 148.18 128.042 148.203 128.091 148.244C128.14 148.286 128.172 148.344 128.181 148.408L128.606 151.363C128.614 151.438 128.606 151.513 128.584 151.585C128.561 151.657 128.523 151.723 128.472 151.778C128.422 151.834 128.361 151.879 128.292 151.909C128.223 151.94 128.149 151.955 128.073 151.955C126.771 151.935 126.143 151.855 124.499 151.855C123.487 151.855 122.009 151.963 120.615 151.963C119.221 151.963 119.146 150.581 119.726 150.458C122.331 149.894 122.744 149.123 123.622 148.385C123.778 148.255 123.974 148.183 124.178 148.182Z" fill="#263238"/>
<path d="M102.681 146.939L106.132 148.372C106.192 148.396 106.241 148.44 106.27 148.497C106.3 148.554 106.307 148.62 106.291 148.682L105.552 151.577C105.531 151.65 105.495 151.716 105.447 151.774C105.398 151.831 105.338 151.877 105.27 151.91C105.202 151.942 105.128 151.959 105.053 151.961C104.977 151.963 104.903 151.948 104.834 151.919C103.642 151.399 103.086 151.089 101.569 150.457C100.636 150.06 98.6621 149.365 97.3714 148.829C96.0807 148.293 96.5454 146.99 97.1292 147.098C99.7502 147.582 100.997 147.26 102.089 146.915C102.283 146.853 102.493 146.862 102.681 146.939Z" fill="#263238"/>
<path d="M113.352 58.1441C112.572 60.1067 111.688 62.0263 110.703 63.8946C110.214 64.8318 109.698 65.7651 109.114 66.6745C108.979 66.9048 108.82 67.1312 108.674 67.3576C108.527 67.5839 108.372 67.8143 108.201 68.0367C108.03 68.2591 107.887 68.4894 107.697 68.7118L107.427 69.0454L107.291 69.2122L107.2 69.3154L107.093 69.4306C106.565 69.9578 105.922 70.3548 105.214 70.5902C104.631 70.7838 104.03 70.9169 103.419 70.9873C102.31 71.1184 101.189 71.1371 100.076 71.0429C97.9489 70.874 95.8443 70.4935 93.793 69.9071L94.1345 68.2551C95.1194 68.3464 96.144 68.4298 97.1448 68.4695C98.1455 68.5092 99.1503 68.537 100.131 68.4973C101.078 68.4743 102.021 68.3707 102.951 68.1876C103.36 68.1055 103.759 67.9818 104.142 67.8182C104.412 67.7116 104.654 67.5445 104.849 67.3298L105.203 66.8373C105.338 66.6586 105.461 66.4402 105.6 66.2496C105.854 65.8524 106.1 65.4275 106.342 65.0026C106.823 64.1487 107.272 63.2512 107.716 62.3577C108.161 61.4641 108.574 60.5388 108.991 59.6175C109.408 58.6961 109.813 57.7589 110.183 56.8375L113.352 58.1441Z" fill="#E4897B"/>
<path d="M94.3154 70.0582L90.9199 69.4744L92.3337 66.9923C92.3337 66.9923 94.6927 67.6238 95.2328 68.8946L94.3154 70.0582Z" fill="#E4897B"/>
<path d="M88.6816 68.6681L89.5672 67.1749L92.3353 66.9843L90.9215 69.4703L88.6816 68.6681Z" fill="#E4897B"/>
<path d="M123.911 41.3812C123.84 44.6814 123.879 46.0793 122.283 47.8346C119.9 50.4756 115.842 49.6654 114.928 46.4089C114.106 43.4781 114.364 38.5735 117.533 37.1359C118.231 36.8159 118.999 36.6797 119.764 36.74C120.53 36.8003 121.267 37.0553 121.906 37.4806C122.545 37.906 123.064 38.4876 123.415 39.1703C123.766 39.853 123.937 40.614 123.911 41.3812Z" fill="#E4897B"/>
<path d="M127.881 41.3215C127.587 38.9388 126.423 36.5957 125.125 35.444C121.995 32.6641 117.793 34.888 115.72 36.5877C113.552 38.3669 115.045 41.1865 116.372 42.6003C116.393 43.1063 116.47 43.6084 116.602 44.0975C116.396 45.4001 115.526 46.6908 114.307 47.7313C118.433 48.9227 124.473 49.0219 126.705 48.1919C129.588 47.1237 128.425 46.2817 127.881 41.3215Z" fill="#263238"/>
<path d="M117.578 42.9101C117.522 43.5317 117.256 44.1158 116.824 44.5661C116.236 45.1737 115.632 44.8242 115.525 44.1054C115.434 43.4581 115.628 42.362 116.343 42.0165C117.058 41.671 117.626 42.1754 117.578 42.9101Z" fill="#E4897B"/>
<path d="M102.521 143.301L108.216 144.27L108.864 142.122L102.768 141.077L102.521 143.301Z" fill="#92E3A9"/>
<path d="M123.391 144.155H129.169L129.471 142.13L123.359 141.923L123.391 144.155Z" fill="#92E3A9"/>
<path d="M127.329 72.8895L127.937 74.0809C127.985 74.1762 127.874 74.2715 127.719 74.2715H113.533C113.414 74.2715 113.311 74.2119 113.303 74.1325L113.184 72.9411C113.184 72.8577 113.279 72.7862 113.414 72.7862H127.095C127.14 72.7793 127.186 72.7854 127.227 72.8037C127.269 72.822 127.304 72.8517 127.329 72.8895Z" fill="#92E3A9"/>
<path opacity="0.6" d="M127.329 72.8895L127.937 74.0809C127.985 74.1762 127.874 74.2715 127.719 74.2715H113.533C113.414 74.2715 113.311 74.2119 113.303 74.1325L113.184 72.9411C113.184 72.8577 113.279 72.7862 113.414 72.7862H127.095C127.14 72.7793 127.186 72.7854 127.227 72.8037C127.269 72.822 127.304 72.8517 127.329 72.8895Z" fill="white"/>
<path d="M125.492 74.4265H125.845C125.917 74.4265 125.972 74.3868 125.968 74.3431L125.794 72.7545C125.794 72.7069 125.726 72.6711 125.655 72.6711H125.285C125.214 72.6711 125.158 72.7069 125.162 72.7545L125.337 74.3431C125.357 74.3788 125.42 74.4265 125.492 74.4265Z" fill="#92E3A9"/>
<path d="M116.613 74.4265H116.978C117.05 74.4265 117.109 74.3868 117.101 74.3431L116.93 72.7545C116.93 72.7069 116.863 72.6711 116.788 72.6711H116.422C116.351 72.6711 116.295 72.7069 116.299 72.7545L116.47 74.3431C116.474 74.3788 116.537 74.4265 116.613 74.4265Z" fill="#92E3A9"/>
<path opacity="0.7" d="M125.492 74.4265H125.845C125.917 74.4265 125.972 74.3868 125.968 74.3431L125.794 72.7545C125.794 72.7069 125.726 72.6711 125.655 72.6711H125.285C125.214 72.6711 125.158 72.7069 125.162 72.7545L125.337 74.3431C125.357 74.3788 125.42 74.4265 125.492 74.4265Z" fill="black"/>
<path opacity="0.7" d="M116.613 74.4265H116.978C117.05 74.4265 117.109 74.3868 117.101 74.3431L116.93 72.7545C116.93 72.7069 116.863 72.6711 116.788 72.6711H116.422C116.351 72.6711 116.295 72.7069 116.299 72.7545L116.47 74.3431C116.474 74.3788 116.537 74.4265 116.613 74.4265Z" fill="black"/>
<path d="M112.029 53.6049C110.373 54.002 108.34 58.5452 108.34 58.5452L112.275 63.5888C112.275 63.5888 116.342 57.8344 115.798 56.079C115.234 54.2483 114.035 53.1164 112.029 53.6049Z" fill="#92E3A9"/>
<path opacity="0.2" d="M112.029 53.6049C110.373 54.002 108.34 58.5452 108.34 58.5452L112.275 63.5888C112.275 63.5888 116.342 57.8344 115.798 56.079C115.234 54.2483 114.035 53.1164 112.029 53.6049Z" fill="white"/>
<path d="M51.8226 64.2935L52.6914 60.043H53.6648L52.3617 65.6897H51.4232L50.3489 61.5671L49.2514 65.6897H48.3089L47.0059 60.043H47.9793L48.8558 64.2858L49.9339 60.043H50.7561L51.8226 64.2935Z" fill="black"/>
<path d="M58.8112 64.2935L59.68 60.043H60.6534L59.3503 65.6897H58.4118L57.3375 61.5671L56.24 65.6897H55.2975L53.9945 60.043H54.9679L55.8444 64.2858L56.9225 60.043H57.7447L58.8112 64.2935Z" fill="black"/>
<path d="M65.7998 64.2935L66.6686 60.043H67.642L66.3389 65.6897H65.4004L64.3261 61.5671L63.2286 65.6897H62.2861L60.9831 60.043H61.9565L62.833 64.2858L63.9111 60.043H64.7333L65.7998 64.2935Z" fill="black"/>
<path d="M68.2974 64.6969C68.4732 64.6969 68.609 64.7473 68.7046 64.8481C68.8003 64.9464 68.8481 65.0705 68.8481 65.2204C68.8481 65.3678 68.8003 65.4906 68.7046 65.5889C68.609 65.6845 68.4732 65.7324 68.2974 65.7324C68.1294 65.7324 67.9962 65.6845 67.898 65.5889C67.7997 65.4932 67.7506 65.3704 67.7506 65.2204C67.7506 65.0705 67.7984 64.9464 67.8941 64.8481C67.9898 64.7473 68.1242 64.6969 68.2974 64.6969Z" fill="black"/>
</svg>
