<svg width="161" height="129" viewBox="0 0 161 129" fill="none" xmlns="http://www.w3.org/2000/svg">
<path d="M80.2689 128.213C124.6 128.213 160.538 126.127 160.538 123.555C160.538 120.982 124.6 118.896 80.2689 118.896C35.9376 118.896 0 120.982 0 123.555C0 126.127 35.9376 128.213 80.2689 128.213Z" fill="#F5F5F5"/>
<path d="M109.704 117.978L106.566 117.122L107.733 109.666L110.871 110.526L109.704 117.978Z" fill="#FFC3BD"/>
<path d="M132.866 120.053H129.608L128.797 112.559H132.055L132.866 120.053Z" fill="#FFC3BD"/>
<path d="M129.344 119.678H133.31C133.375 119.678 133.437 119.7 133.488 119.741C133.538 119.781 133.573 119.837 133.587 119.9L134.233 122.781C134.248 122.851 134.247 122.924 134.23 122.994C134.212 123.064 134.179 123.129 134.133 123.184C134.087 123.24 134.029 123.284 133.963 123.314C133.897 123.344 133.825 123.358 133.753 123.357C132.478 123.336 131.546 123.258 129.936 123.258C128.946 123.258 125.966 123.361 124.6 123.361C123.233 123.361 123.051 122.019 123.61 121.896C126.119 121.353 128.011 120.6 128.814 119.884C128.959 119.752 129.148 119.678 129.344 119.678Z" fill="#263238"/>
<path d="M106.686 116.764L110.114 117.703C110.176 117.72 110.23 117.758 110.268 117.811C110.305 117.863 110.324 117.927 110.321 117.991L110.172 120.933C110.169 121.004 110.15 121.074 110.116 121.137C110.082 121.2 110.034 121.254 109.976 121.296C109.917 121.338 109.85 121.365 109.779 121.377C109.709 121.389 109.636 121.385 109.567 121.365C108.325 121.003 106.57 120.443 105.013 120.019C103.196 119.522 101.598 119.196 99.4699 118.604C98.1824 118.25 98.1824 116.859 98.7537 116.888C101.358 117.028 103.378 117.522 105.858 116.801C106.125 116.713 106.412 116.7 106.686 116.764Z" fill="#263238"/>
<path opacity="0.2" d="M107.733 109.67L107.129 113.509L110.271 114.369L110.871 110.53L107.733 109.67Z" fill="black"/>
<path opacity="0.2" d="M132.055 112.563H128.797L129.219 116.427H132.473L132.055 112.563Z" fill="black"/>
<path d="M93.9559 17.5152L93.6744 14.4124L90.6191 15.8897C90.6191 15.8897 91.4223 18.6428 92.9375 18.3588L93.9559 17.5152Z" fill="#FFC3BD"/>
<path d="M92.9869 12.9513L89.5425 13.6591L90.6271 15.8895L93.6741 14.4122L92.9869 12.9513Z" fill="#FFC3BD"/>
<path d="M114.005 17.9842C112.379 18.6249 110.811 19.4042 109.319 20.3134C109 20.4698 108.681 20.6262 108.358 20.7743C107.572 21.1282 106.773 21.4533 105.97 21.7331C104.468 22.3001 102.884 22.6212 101.279 22.6837C101.105 22.6837 100.927 22.6837 100.762 22.6632H100.642H100.588C100.544 22.6578 100.502 22.6495 100.459 22.6385C100.185 22.586 99.9193 22.4975 99.6687 22.3751C98.9708 22.0151 98.3236 21.5654 97.7437 21.0377C96.4302 19.8563 95.2351 18.5512 94.175 17.1406L92.0513 18.3464C92.8813 20.152 93.9012 21.8652 95.0941 23.4574C95.7505 24.3353 96.5155 25.1275 97.3711 25.8154C97.8864 26.2302 98.4631 26.5633 99.0809 26.803C99.2599 26.8676 99.4423 26.9226 99.6273 26.9676L99.9213 27.0334L100.149 27.0705C100.443 27.124 100.737 27.1569 101.027 27.1857C103.176 27.3122 105.331 27.0785 107.402 26.4944C108.263 26.2721 109.099 26.0129 109.923 25.7289C110.809 25.5438 118.095 23.9388 119.342 21.3422C120.952 17.9801 117.88 16.6098 114.005 17.9842Z" fill="#263238"/>
<path opacity="0.2" d="M112.626 25.0334C113.65 24.7423 114.657 24.3933 115.64 23.9881L115.889 21.338C115.889 21.338 113.943 22.1281 112.626 25.0334Z" fill="black"/>
<path d="M133.26 18.4533C133.355 18.4778 133.444 18.5206 133.523 18.5793C133.601 18.6381 133.667 18.7117 133.716 18.7958C133.766 18.8799 133.798 18.9729 133.812 19.0695C133.825 19.1661 133.819 19.2644 133.794 19.3587C132.943 22.6225 132.316 25.9401 131.919 29.2886C131.612 31.7947 131.426 34.1856 131.314 36.3584C131.041 41.4448 131.153 45.3212 131.004 46.6463C128.458 46.4735 118.866 45.8233 113.616 45.4447C111.252 27.0376 115.769 17.5562 115.769 17.5562C117.137 17.3006 118.52 17.1288 119.909 17.0418C120.203 17.0418 120.501 17.013 120.807 17.0089C123.277 17.0377 125.743 17.2081 128.193 17.5192C128.657 17.5727 129.124 17.6426 129.584 17.7167C131.083 17.9431 132.432 18.2558 133.26 18.4533Z" fill="#263238"/>
<path opacity="0.2" d="M130.912 21.8113C130.569 23.99 130.971 26.2202 132.055 28.1446C132.262 26.6178 132.519 25.0582 132.833 23.4821L130.912 21.8113Z" fill="black"/>
<path d="M128.06 9.19019C127.427 11.5235 126.818 15.6839 128.027 17.5481C126.723 18.7086 125.171 18.4164 123.842 18.2106C122.223 17.9596 122.008 17.5934 122.521 16.8403C122.84 16.4946 122.898 16.1407 123.2 15.3341C123.444 14.4838 123.464 13.5853 123.258 12.7251L128.06 9.19019Z" fill="#FFC3BD"/>
<path d="M122.413 15.8444C122.625 16.902 121.308 17.4657 121.693 17.9266C122.078 18.3875 125.51 19.548 127.021 19.0007C128.532 18.4534 128.371 18.3176 128.263 16.9925C128.155 15.6674 129.008 14.8032 127.907 15.1571C127.344 15.3382 124.421 14.8608 123.581 14.8608C122.74 14.8608 122.244 14.9966 122.413 15.8444Z" fill="#263238"/>
<path opacity="0.2" d="M126.102 10.6345L123.258 12.7209C123.344 13.1562 123.39 13.5983 123.395 14.0419C124.417 13.9678 125.879 12.9596 126.069 11.9143C126.157 11.4931 126.169 11.0597 126.102 10.6345Z" fill="black"/>
<path d="M121.772 1.41655C121.047 1.74988 119.875 3.3054 120.84 4.33419C121.805 5.36298 122.794 0.951538 121.772 1.41655Z" fill="#263238"/>
<path d="M129.013 5.79502C128.479 8.96368 128.326 10.8443 126.529 12.3134C123.834 14.5191 120.029 12.6426 119.599 9.37931C119.214 6.44521 120.153 1.75806 123.428 0.819808C124.149 0.607814 124.912 0.582715 125.646 0.746893C126.379 0.911072 127.058 1.25906 127.618 1.75776C128.177 2.25645 128.599 2.88925 128.844 3.59593C129.088 4.30261 129.146 5.05966 129.013 5.79502Z" fill="#FFC3BD"/>
<path d="M128.06 8.06671C126.868 7.31364 126.818 6.44122 127.179 5.65934C128.325 3.0174 128.007 1.67997 125.97 1.92277C123.933 2.16556 121.031 2.40013 121.391 1.47422C121.751 0.548306 124.31 0.157364 126.483 0.412504C128.657 0.667645 130.987 2.34663 130.524 4.98857C130.077 7.51528 129.534 8.23132 128.06 8.06671Z" fill="#263238"/>
<path d="M130.155 8.78684C129.749 9.48639 129.081 9.99809 128.296 10.2107C127.253 10.4823 126.752 9.55227 127.054 8.56462C127.328 7.69631 128.201 6.50702 129.24 6.65928C130.279 6.81154 130.644 7.92265 130.155 8.78684Z" fill="#FFC3BD"/>
<path d="M106.156 112.468L111.467 113.921C111.467 113.921 115.653 93.0694 115.914 82.9913C115.992 79.9255 117.325 76.3001 118.344 71.7487C119.635 66.0163 121.242 59.8147 122.575 54.9589C123.974 49.8437 125.038 46.2265 125.038 46.2265L113.62 45.4323C113.62 45.4323 107.725 72.3495 107.017 82.2012C106.276 92.4438 106.156 112.468 106.156 112.468Z" fill="#92E3A9"/>
<path opacity="0.4" d="M106.156 112.468L111.467 113.921C111.467 113.921 115.653 93.0694 115.914 82.9913C115.992 79.9255 117.325 76.3001 118.344 71.7487C119.635 66.0163 121.242 59.8147 122.575 54.9589C123.974 49.8437 125.038 46.2265 125.038 46.2265L113.62 45.4323C113.62 45.4323 107.725 72.3495 107.017 82.2012C106.276 92.4438 106.156 112.468 106.156 112.468Z" fill="#86D19B"/>
<path opacity="0.2" d="M118.356 71.7487C119.648 66.0163 121.254 59.8147 122.587 54.9589L121.403 52.4198C118.559 55.7654 117.797 66.1233 118.356 71.7487Z" fill="black"/>
<path d="M119.78 45.8604C119.78 45.8604 120.608 71.6048 121.966 80.9873C123.473 91.2752 127.712 115.678 127.712 115.678H133.674C133.674 115.678 133.355 92.4275 131.488 82.4729C129.36 71.1398 130.987 46.6381 130.987 46.6381L119.78 45.8604Z" fill="#92E3A9"/>
<path opacity="0.4" d="M119.78 45.8604C119.78 45.8604 120.608 71.6048 121.966 80.9873C123.473 91.2752 127.712 115.678 127.712 115.678H133.674C133.674 115.678 133.355 92.4275 131.488 82.4729C129.36 71.1398 130.987 46.6381 130.987 46.6381L119.78 45.8604Z" fill="#75B687"/>
<path d="M127.001 115.806H134.022V113.719L126.173 113.583L127.001 115.806Z" fill="#263238"/>
<path d="M105.452 112.407L111.787 114.143L112.35 112.11L105.299 110.065L105.452 112.407Z" fill="#263238"/>
<path d="M124.471 5.97203C124.446 6.23129 124.284 6.42883 124.115 6.41237C123.945 6.39591 123.825 6.16957 123.854 5.9103C123.883 5.65103 124.04 5.45349 124.214 5.46995C124.388 5.48641 124.5 5.71276 124.471 5.97203Z" fill="#263238"/>
<path d="M121.197 5.86923C121.172 6.12849 121.01 6.32602 120.836 6.30544C120.663 6.28487 120.551 6.06265 120.58 5.8034C120.609 5.54414 120.766 5.35073 120.94 5.36719C121.114 5.38365 121.226 5.60998 121.197 5.86923Z" fill="#263238"/>
<path d="M124.239 7.81974C123.825 7.85031 123.41 7.75611 123.051 7.5494C122.691 7.34269 122.402 7.03305 122.221 6.66079C122.041 6.28853 121.977 5.8709 122.039 5.46228C122.101 5.05366 122.285 4.67297 122.567 4.36979C122.85 4.06661 123.217 3.85498 123.623 3.76245C124.028 3.66993 124.451 3.7008 124.839 3.85104C125.226 4.00127 125.559 4.26393 125.794 4.60479C126.029 4.94566 126.155 5.34895 126.156 5.76215C126.174 6.28704 125.983 6.79773 125.624 7.18308C125.265 7.56843 124.767 7.79725 124.239 7.81974ZM124.239 3.88975C123.862 3.85488 123.482 3.93433 123.151 4.11766C122.82 4.301 122.552 4.57964 122.383 4.917C122.214 5.25436 122.151 5.63465 122.204 6.00794C122.256 6.38123 122.421 6.73005 122.676 7.00859C122.932 7.28714 123.266 7.48238 123.635 7.56868C124.004 7.65498 124.391 7.62829 124.744 7.49213C125.098 7.35598 125.402 7.1167 125.616 6.80575C125.83 6.4948 125.945 6.1267 125.945 5.74981C125.963 5.28056 125.794 4.82322 125.474 4.47721C125.155 4.13121 124.711 3.92453 124.239 3.90209V3.88975Z" fill="white"/>
<path d="M120.012 7.81974C119.598 7.85031 119.183 7.75611 118.823 7.5494C118.464 7.34269 118.175 7.03305 117.994 6.66079C117.814 6.28853 117.75 5.8709 117.812 5.46228C117.874 5.05366 118.058 4.67297 118.34 4.36979C118.623 4.06661 118.99 3.85498 119.396 3.76245C119.801 3.66993 120.224 3.7008 120.612 3.85104C120.999 4.00127 121.332 4.26393 121.567 4.60479C121.802 4.94566 121.928 5.34895 121.929 5.76215C121.947 6.28704 121.756 6.79773 121.397 7.18308C121.038 7.56843 120.54 7.79725 120.012 7.81974ZM120.012 3.88975C119.635 3.85325 119.256 3.93093 118.924 4.11261C118.592 4.29428 118.323 4.57146 118.152 4.90777C117.981 5.24409 117.917 5.62383 117.967 5.99719C118.017 6.37054 118.18 6.72007 118.434 6.9999C118.687 7.27974 119.02 7.47682 119.389 7.56528C119.757 7.65374 120.144 7.62946 120.498 7.49561C120.852 7.36177 121.157 7.12462 121.374 6.81527C121.59 6.50592 121.707 6.13883 121.71 5.76215C121.731 5.29217 121.565 4.83284 121.247 4.48438C120.929 4.13592 120.485 3.9266 120.012 3.90209V3.88975Z" fill="white"/>
<path d="M121.966 6.03784C121.64 6.82929 121.207 7.57278 120.679 8.24768C120.855 8.37737 121.057 8.46738 121.271 8.51145C121.486 8.55551 121.707 8.55257 121.921 8.50283L121.966 6.03784Z" fill="#ED847E"/>
<path d="M125.25 5.17787C125.222 5.18378 125.194 5.1819 125.167 5.17244C125.141 5.16297 125.118 5.14631 125.101 5.12437C124.984 4.96993 124.833 4.84481 124.659 4.75906C124.485 4.6733 124.293 4.62929 124.099 4.63058C124.079 4.6322 124.058 4.62986 124.039 4.62371C124.02 4.61756 124.002 4.6077 123.987 4.59471C123.971 4.58172 123.959 4.56584 123.95 4.54799C123.94 4.53014 123.935 4.51066 123.933 4.49067C123.931 4.47067 123.934 4.45055 123.94 4.43146C123.946 4.41237 123.956 4.39468 123.969 4.37939C123.982 4.36411 123.998 4.35153 124.016 4.34238C124.034 4.33323 124.054 4.32769 124.074 4.32607C124.318 4.31908 124.561 4.37035 124.781 4.47558C125.002 4.58082 125.193 4.73697 125.341 4.93097C125.366 4.96328 125.378 5.00427 125.373 5.04507C125.369 5.08588 125.348 5.12323 125.316 5.14906C125.296 5.16278 125.273 5.17256 125.25 5.17787Z" fill="#263238"/>
<path d="M122.869 9.87732C123.249 9.88273 123.624 9.79779 123.964 9.62956C124.304 9.46134 124.598 9.21473 124.823 8.91032C124.835 8.89177 124.839 8.86921 124.835 8.8476C124.83 8.82599 124.817 8.80711 124.798 8.7951C124.789 8.78916 124.779 8.78509 124.768 8.78311C124.757 8.78113 124.746 8.78129 124.735 8.78359C124.713 8.78822 124.694 8.80124 124.682 8.81979C124.471 9.09915 124.197 9.32546 123.882 9.48053C123.567 9.6356 123.22 9.71513 122.869 9.71273C122.858 9.71273 122.847 9.71485 122.837 9.71899C122.827 9.72312 122.818 9.72919 122.81 9.73683C122.803 9.74447 122.797 9.75354 122.792 9.76353C122.788 9.77351 122.786 9.78422 122.786 9.79502C122.786 9.80583 122.788 9.81653 122.792 9.82652C122.797 9.8365 122.803 9.84557 122.81 9.85322C122.818 9.86086 122.827 9.86692 122.837 9.87105C122.847 9.87519 122.858 9.87732 122.869 9.87732Z" fill="#263238"/>
<path d="M119.391 5.19024C119.358 5.19045 119.325 5.18193 119.296 5.16555C119.262 5.14359 119.238 5.10955 119.229 5.07048C119.22 5.03142 119.226 4.99031 119.246 4.95567C119.371 4.74523 119.545 4.5677 119.753 4.43807C119.961 4.30843 120.198 4.23048 120.443 4.21082C120.484 4.2108 120.523 4.22671 120.552 4.25515C120.582 4.28359 120.599 4.32232 120.6 4.36308C120.599 4.40354 120.583 4.44214 120.554 4.47114C120.526 4.50013 120.487 4.5174 120.447 4.51946C120.254 4.53692 120.068 4.60026 119.906 4.70413C119.743 4.808 119.607 4.94932 119.511 5.11617C119.498 5.13675 119.48 5.15412 119.46 5.16695C119.439 5.17979 119.415 5.18775 119.391 5.19024Z" fill="#263238"/>
<path d="M128.267 120.246C128.045 120.263 127.823 120.205 127.638 120.081C127.579 120.031 127.534 119.967 127.507 119.895C127.479 119.824 127.47 119.746 127.481 119.67C127.48 119.626 127.491 119.582 127.514 119.544C127.537 119.507 127.57 119.476 127.609 119.456C127.973 119.271 129.021 119.913 129.141 119.987C129.153 119.994 129.163 120.006 129.169 120.019C129.174 120.032 129.176 120.046 129.174 120.061C129.173 120.076 129.166 120.091 129.156 120.103C129.145 120.115 129.132 120.123 129.116 120.127C128.839 120.198 128.554 120.238 128.267 120.246ZM127.783 119.575C127.749 119.572 127.714 119.579 127.684 119.596C127.659 119.596 127.638 119.624 127.634 119.686C127.627 119.737 127.632 119.789 127.651 119.837C127.669 119.885 127.698 119.928 127.737 119.962C128.101 120.127 128.514 120.147 128.893 120.02C128.555 119.802 128.178 119.651 127.783 119.575Z" fill="#92E3A9"/>
<path d="M129.12 120.131H129.082C128.747 119.95 128.093 119.238 128.163 118.896C128.175 118.84 128.205 118.789 128.25 118.752C128.294 118.716 128.35 118.695 128.408 118.695C128.467 118.686 128.527 118.691 128.584 118.708C128.641 118.725 128.694 118.754 128.739 118.793C129.116 119.098 129.194 120.028 129.194 120.073C129.196 120.087 129.194 120.101 129.188 120.113C129.182 120.125 129.173 120.136 129.161 120.143C129.146 120.143 129.132 120.139 129.12 120.131ZM128.462 118.818H128.428C128.329 118.818 128.317 118.876 128.317 118.896C128.275 119.106 128.689 119.645 129.025 119.896C129.003 119.528 128.868 119.174 128.64 118.884C128.584 118.837 128.513 118.813 128.441 118.818H128.462Z" fill="#92E3A9"/>
<path d="M106.263 117.11C105.729 117.073 104.798 116.95 104.537 116.551C104.495 116.491 104.469 116.422 104.463 116.35C104.456 116.278 104.469 116.205 104.5 116.139C104.512 116.099 104.534 116.062 104.564 116.034C104.595 116.005 104.633 115.984 104.674 115.974C105.112 115.876 106.201 116.851 106.33 116.962C106.341 116.971 106.35 116.984 106.354 116.998C106.359 117.013 106.358 117.028 106.354 117.042C106.35 117.056 106.341 117.069 106.329 117.078C106.317 117.087 106.303 117.093 106.288 117.094L106.263 117.11ZM104.715 116.139H104.694C104.678 116.143 104.663 116.152 104.651 116.165C104.639 116.177 104.631 116.192 104.628 116.209C104.61 116.251 104.602 116.296 104.606 116.341C104.609 116.386 104.624 116.43 104.649 116.468C104.798 116.69 105.303 116.88 106.027 116.937C105.593 116.563 104.972 116.11 104.715 116.139Z" fill="#92E3A9"/>
<path d="M106.263 117.11C106.254 117.114 106.244 117.116 106.235 117.116C106.225 117.116 106.215 117.114 106.206 117.11C105.874 116.839 105.307 115.958 105.465 115.621C105.502 115.542 105.589 115.456 105.8 115.489C105.876 115.502 105.948 115.531 106.013 115.572C106.078 115.614 106.133 115.668 106.177 115.732C106.483 116.164 106.334 117.028 106.33 117.065C106.328 117.078 106.322 117.091 106.313 117.101C106.305 117.111 106.293 117.119 106.28 117.123L106.263 117.11ZM105.684 115.621C105.622 115.621 105.609 115.658 105.605 115.67C105.51 115.872 105.874 116.538 106.197 116.876C106.261 116.511 106.209 116.136 106.048 115.802C106.017 115.755 105.976 115.715 105.928 115.685C105.88 115.654 105.827 115.634 105.771 115.625C105.741 115.625 105.712 115.629 105.684 115.637V115.621Z" fill="#92E3A9"/>
<path d="M132.345 44.0825L129.033 44.4117L131.008 47.5269C131.008 47.5269 133.691 46.4776 133.289 45.0043L132.345 44.0825Z" fill="#FFC3BD"/>
<path d="M126.855 46.0496L128.892 48.8067L131.024 47.5269L129.05 44.4117L126.855 46.0496Z" fill="#FFC3BD"/>
<path d="M140.091 29.9428C139.793 29.1198 139.453 28.2968 139.093 27.519C138.824 26.6589 136.547 19.5973 133.827 18.6015C130.32 17.3175 129.232 20.4862 130.966 24.194C131.757 25.7456 132.682 27.2258 133.732 28.6178C133.918 28.9182 134.104 29.2186 134.278 29.5231C134.692 30.2721 135.106 31.0334 135.462 31.8029C136.169 33.2354 136.637 34.7725 136.849 36.3542C136.849 36.5312 136.874 36.704 136.874 36.8728V36.9921C136.872 37.0099 136.872 37.0278 136.874 37.0456C136.877 37.088 136.877 37.1307 136.874 37.1732C136.849 37.4549 136.785 37.7319 136.683 37.9962C136.387 38.7195 135.997 39.4015 135.524 40.025C134.461 41.4356 133.262 42.7394 131.943 43.9179L133.351 45.9096C135.083 44.9211 136.706 43.7528 138.19 42.4241C139.01 41.6933 139.734 40.8639 140.347 39.955C140.714 39.4056 140.993 38.8032 141.175 38.169C141.225 37.9864 141.264 37.8009 141.291 37.6135L141.328 37.3172V37.0867C141.353 36.7905 141.357 36.4983 141.362 36.2102C141.295 34.065 140.865 31.9462 140.091 29.9428Z" fill="#263238"/>
<path d="M12.4033 55.7901H81.1632C82.0502 55.7816 82.9002 55.4356 83.5385 54.8233C84.1769 54.211 84.555 53.3789 84.5952 52.498L86.1352 8.9103C86.152 8.48322 86.0816 8.05719 85.9284 7.65784C85.7752 7.25848 85.5423 6.89406 85.2437 6.58651C84.9452 6.27895 84.5871 6.03462 84.191 5.86821C83.795 5.7018 83.3692 5.61675 82.9392 5.61818H14.1751C13.2878 5.62575 12.4372 5.97142 11.7987 6.58393C11.1601 7.19644 10.7823 8.02911 10.7432 8.9103L9.2031 52.4939C9.18635 52.9215 9.2568 53.3481 9.4102 53.748C9.56361 54.1478 9.79682 54.5127 10.0958 54.8206C10.3947 55.1286 10.7533 55.3732 11.1498 55.5398C11.5464 55.7064 11.9727 55.7916 12.4033 55.7901Z" fill="#92E3A9"/>
<path opacity="0.4" d="M11.4033 55.7902H80.1632C81.0502 55.7816 81.9002 55.4356 82.5385 54.8233C83.1769 54.211 83.555 53.3789 83.5952 52.4981L85.1352 8.91031C85.152 8.48323 85.0816 8.05719 84.9284 7.65784C84.7752 7.25848 84.5423 6.89406 84.2437 6.58651C83.9452 6.27895 83.5871 6.03462 83.191 5.86821C82.795 5.7018 82.3692 5.61675 81.9392 5.61818H13.1751C12.2878 5.62575 11.4372 5.97142 10.7987 6.58393C10.1601 7.19644 9.78235 8.02911 9.74315 8.91031L8.2031 52.4939C8.18635 52.9216 8.2568 53.3481 8.4102 53.748C8.56361 54.1478 8.79682 54.5127 9.09578 54.8206C9.39474 55.1286 9.75328 55.3732 10.1498 55.5398C10.5464 55.7065 10.9727 55.7916 11.4033 55.7902Z" fill="black"/>
<path d="M13.057 55.7902H81.821C82.7078 55.7806 83.5572 55.4343 84.1953 54.8222C84.8334 54.2101 85.2119 53.3786 85.253 52.4981L86.7931 8.91032C86.8099 8.4829 86.7394 8.05652 86.5859 7.65689C86.4325 7.25726 86.1992 6.89264 85.9002 6.58503C85.6012 6.27742 85.2426 6.03317 84.8461 5.86701C84.4495 5.70084 84.0232 5.61621 83.5929 5.6182H14.8289C13.9423 5.62682 13.0927 5.97295 12.4551 6.58535C11.8174 7.19775 11.4402 8.02983 11.401 8.91032L9.86098 52.494C9.84366 52.9214 9.91357 53.3479 10.0665 53.7477C10.2195 54.1475 10.4523 54.5125 10.7509 54.8205C11.0495 55.1285 11.4078 55.3732 11.8042 55.5398C12.2005 55.7065 12.6267 55.7917 13.057 55.7902Z" fill="#92E3A9"/>
<path opacity="0.9" d="M81.1634 53.0455C81.5135 53.0417 81.8488 52.9048 82.1005 52.663C82.3522 52.4211 82.5013 52.0927 82.5172 51.7451L83.9951 9.65525C84.0041 9.48767 83.9787 9.32003 83.9203 9.16256C83.8619 9.0051 83.7719 8.86111 83.6556 8.73941C83.5394 8.6177 83.3994 8.52084 83.2442 8.45472C83.0891 8.3886 82.922 8.35462 82.7531 8.35486H15.4877C15.138 8.35969 14.8033 8.49689 14.5517 8.7385C14.3002 8.98011 14.1508 9.30797 14.134 9.65525L12.6478 51.7451C12.6388 51.9127 12.6642 52.0803 12.7226 52.2378C12.781 52.3953 12.871 52.5392 12.9873 52.661C13.1035 52.7827 13.2435 52.8795 13.3986 52.9456C13.5538 53.0118 13.7209 53.0457 13.8897 53.0455H81.1634Z" fill="white"/>
<path opacity="0.3" d="M60.8697 41.6547C63.0442 38.9319 64.3117 35.6037 64.4963 32.1322C64.6756 28.7593 63.7329 25.4216 61.8137 22.6344V22.585C61.7811 22.5372 61.7451 22.4918 61.706 22.4492C60.2819 20.4548 58.3945 18.8315 56.2041 17.7175C54.0138 16.6034 51.5852 16.0314 49.1248 16.0501C46.5813 16.0694 44.0742 16.6536 41.7871 17.7601C39.5 18.8666 37.4906 20.4673 35.9061 22.4451C35.8729 22.4821 35.8398 22.515 35.8108 22.5521C35.8048 22.5662 35.7979 22.5799 35.7901 22.5932C33.6132 25.3165 32.3441 28.6464 32.1594 32.1198C31.9727 35.5044 32.9174 38.8553 34.8462 41.6506C34.8447 41.6629 34.8447 41.6753 34.8462 41.6876L34.8835 41.7329C36.3055 43.7456 38.1979 45.3851 40.398 46.5104C42.5981 47.6358 45.0402 48.2134 47.5144 48.1937C50.0538 48.1739 52.5567 47.5911 54.8407 46.4876C57.1247 45.3841 59.1321 43.7878 60.7166 41.8152C60.7547 41.7745 60.7906 41.7319 60.8242 41.6876C60.8401 41.6776 60.8553 41.6666 60.8697 41.6547ZM47.622 46.2925C45.3078 46.2925 43.3579 43.6053 42.3685 39.6424C44.2153 39.2744 46.0945 39.091 47.9781 39.095C49.844 39.0909 51.7055 39.2756 53.5338 39.6465C52.1511 43.6217 49.9362 46.2925 47.6262 46.2925H47.622ZM48.0733 37.1774C46.0295 37.1732 43.9906 37.3745 41.9876 37.7782C41.7419 36.2282 41.6338 34.6598 41.6647 33.091H54.8917C54.762 34.6725 54.4988 36.2404 54.1051 37.7782C52.1219 37.373 50.1021 37.1716 48.0774 37.1774H48.0733ZM34.0679 33.091H39.7396C39.6993 34.8139 39.8157 36.537 40.0874 38.2391C38.6755 38.6339 37.3131 39.1861 36.0261 39.8851C34.7771 37.8341 34.1025 35.4884 34.0721 33.091H34.0679ZM36.8003 24.3833C38.0282 25.0873 39.3378 25.6401 40.7001 26.0294C40.2636 27.7186 39.9768 29.4426 39.8431 31.1816H34.1714C34.4615 28.7325 35.3654 26.395 36.8003 24.3833ZM49.0337 17.976C51.3479 17.976 53.2937 20.6632 54.2873 24.6261C52.4387 24.9918 50.5584 25.1752 48.6736 25.1734C46.8079 25.1767 44.9466 24.9933 43.1178 24.6261C44.5005 20.6632 46.7361 17.976 49.0296 17.976H49.0337ZM48.5825 27.087C50.6262 27.0908 52.6651 26.8895 54.6682 26.4862C54.912 28.0377 55.0201 29.6074 54.9911 31.1775H41.7682C41.8955 29.5943 42.1587 28.0248 42.5548 26.4862C44.5365 26.8916 46.555 27.0929 48.5783 27.087H48.5825ZM62.5878 31.1775H56.9161C56.9545 29.4532 56.8381 27.729 56.5684 26.0253C57.9797 25.6291 59.342 25.077 60.6296 24.3792C61.8775 26.4323 62.552 28.779 62.5837 31.1775H62.5878ZM56.8209 33.091H62.4926C62.1986 35.5373 61.2934 37.8715 59.8596 39.881C58.6312 39.178 57.3218 38.6253 55.9598 38.235C56.3978 36.5489 56.6846 34.8275 56.8168 33.091H56.8209ZM59.5326 22.8484C58.4641 23.3983 57.3419 23.8382 56.1834 24.1611C55.7557 22.2447 54.9601 20.4283 53.8402 18.8114C56.0629 19.6318 58.026 21.0251 59.5284 22.8484H59.5326ZM44.1403 18.8196C42.8729 20.4206 41.9003 22.2317 41.2672 24.1693C40.1508 23.8474 39.0724 23.4073 38.0505 22.8566C39.7213 21.0421 41.8094 19.6569 44.1362 18.8196H44.1403ZM37.1315 41.4201C38.1994 40.8712 39.3201 40.43 40.4765 40.1033C40.9052 42.0194 41.7007 43.8356 42.8197 45.453C40.5961 44.6342 38.6315 43.2423 37.1273 41.4201H37.1315ZM52.532 45.4447C53.8021 43.8455 54.775 42.0339 55.4051 40.095C56.5219 40.4175 57.6004 40.859 58.6218 41.4119C56.9504 43.2266 54.8605 44.6106 52.532 45.4447Z" fill="#92E3A9"/>
<path opacity="0.3" d="M48.6528 7.05845C48.65 7.12428 48.6607 7.19 48.6842 7.25159C48.7078 7.31318 48.7437 7.36936 48.7898 7.41671C48.8359 7.46407 48.8912 7.5016 48.9523 7.52703C49.0134 7.55246 49.0792 7.56526 49.1454 7.56465C49.2818 7.56369 49.4125 7.51055 49.5104 7.41628C49.6083 7.32201 49.6659 7.19385 49.6712 7.05845C49.674 6.99262 49.6633 6.92692 49.6398 6.86533C49.6162 6.80374 49.5803 6.74755 49.5342 6.7002C49.4882 6.65285 49.4329 6.61531 49.3717 6.58988C49.3106 6.56445 49.2448 6.55165 49.1786 6.55227C49.0422 6.55322 48.9116 6.60636 48.8136 6.70063C48.7157 6.7949 48.6581 6.92305 48.6528 7.05845Z" fill="white"/>
<path d="M91.9066 101.283H23.1384C22.1948 101.239 21.2904 100.895 20.5574 100.303C19.8244 99.7102 19.3014 98.9003 19.0647 97.9912L10.2633 59.7614C9.84927 57.9507 10.996 56.4692 12.8176 56.4692H81.5816C82.525 56.5146 83.4291 56.8585 84.162 57.4508C84.8948 58.043 85.4181 58.8526 85.6553 59.7614L94.4568 97.9912C94.879 99.8019 93.7281 101.283 91.9066 101.283Z" fill="#92E3A9"/>
<path opacity="0.7" d="M90.9066 102.277H22.1384C21.1948 102.233 20.2904 101.889 19.5574 101.297C18.8244 100.704 18.3014 99.8942 18.0647 98.9852L9.26326 60.7554C8.84927 58.9447 9.99603 57.4633 11.8176 57.4633H80.5816C81.525 57.5086 82.4292 57.8525 83.162 58.4448C83.8949 59.037 84.4181 59.8466 84.6553 60.7554L93.4568 98.9852C93.8791 100.796 92.7282 102.277 90.9066 102.277Z" fill="#6A737D"/>
<path d="M92.5646 101.283H23.8005C22.8567 101.239 21.952 100.896 21.2189 100.303C20.4858 99.7109 19.9629 98.9006 19.7268 97.9912L10.9254 59.7572C10.5114 57.9465 11.6581 56.4651 13.4797 56.4651H82.2437C83.1871 56.5105 84.0912 56.8544 84.8241 57.4466C85.557 58.0389 86.0802 58.8485 86.3174 59.7572L95.1189 97.9871C95.537 99.8019 94.3861 101.283 92.5646 101.283Z" fill="#92E3A9"/>
<path opacity="0.3" d="M20.1614 82.2014C19.7889 82.1839 19.4319 82.0482 19.1428 81.8142C18.8537 81.5801 18.6477 81.26 18.5551 80.901L13.8604 60.4939C13.816 60.3421 13.8084 60.1819 13.838 60.0266C13.8677 59.8712 13.9338 59.725 14.031 59.5999C14.1283 59.4747 14.2539 59.3742 14.3976 59.3064C14.5413 59.2387 14.6991 59.2056 14.8582 59.21H82.1194C82.4921 59.2268 82.8494 59.3623 83.1386 59.5964C83.4279 59.8306 83.6337 60.151 83.7257 60.5104L88.4245 80.901C88.4715 81.0548 88.4808 81.2176 88.4516 81.3758C88.4225 81.5339 88.3556 81.6829 88.2568 81.8101C88.1579 81.9374 88.0299 82.0393 87.8833 82.1074C87.7368 82.1754 87.576 82.2077 87.4144 82.2014H20.1614Z" fill="black"/>
<path opacity="0.3" d="M47.8741 98.2423C47.6568 98.2319 47.4485 98.1528 47.2795 98.0166C47.1104 97.8805 46.9895 97.6943 46.9343 97.4851L44.1978 85.5964C44.1708 85.5069 44.1656 85.4122 44.1827 85.3203C44.1998 85.2284 44.2387 85.1418 44.2962 85.0678C44.3536 84.9938 44.428 84.9345 44.5131 84.8947C44.5983 84.855 44.6917 84.8359 44.7857 84.8392H64.0032C64.2221 84.8473 64.4326 84.9253 64.6034 85.0617C64.7742 85.1981 64.8962 85.3856 64.9512 85.5964L67.6919 97.4851C67.7189 97.5746 67.7241 97.6693 67.707 97.7612C67.6898 97.8531 67.651 97.9397 67.5935 98.0137C67.536 98.0877 67.4617 98.147 67.3765 98.1868C67.2914 98.2265 67.198 98.2456 67.104 98.2423H47.8741Z" fill="black"/>
<path d="M94.4398 71.563L96.5097 17.3376C96.5242 16.9983 96.4697 16.6596 96.3495 16.3416C96.2293 16.0237 96.0459 15.7332 95.8101 15.4873C95.5744 15.2415 95.2912 15.0454 94.9775 14.9108C94.6638 14.7762 94.3261 14.7058 93.9844 14.7039L59.2091 14.4117C58.5057 14.412 57.8295 14.6815 57.3207 15.1642C56.8119 15.647 56.5097 16.3059 56.4767 17.0043L54.4068 71.2256C54.3917 71.5652 54.4458 71.9044 54.5657 72.2228C54.6857 72.5412 54.869 72.8323 55.1048 73.0786C55.3406 73.3249 55.624 73.5213 55.938 73.6562C56.2519 73.791 56.5901 73.8615 56.9321 73.8634L91.7074 74.1556C92.4105 74.1543 93.0861 73.8845 93.5947 73.4019C94.1032 72.9194 94.4058 72.2611 94.4398 71.563Z" fill="#92E3A9"/>
<path opacity="0.4" d="M93.4398 71.5631L95.5097 17.3376C95.5242 16.9983 95.4697 16.6596 95.3495 16.3416C95.2293 16.0237 95.0459 15.7332 94.8101 15.4873C94.5744 15.2415 94.2912 15.0454 93.9775 14.9108C93.6638 14.7762 93.3261 14.7058 92.9844 14.7039L58.2091 14.4117C57.5057 14.412 56.8295 14.6815 56.3207 15.1642C55.8119 15.647 55.5097 16.3059 55.4767 17.0043L53.4068 71.2256C53.3917 71.5653 53.4458 71.9045 53.5657 72.2229C53.6857 72.5413 53.869 72.8323 54.1048 73.0786C54.3406 73.3249 54.624 73.5214 54.938 73.6562C55.2519 73.7911 55.5901 73.8615 55.9321 73.8634L90.7074 74.1556C91.4105 74.1543 92.0861 73.8845 92.5947 73.402C93.1032 72.9194 93.4058 72.2611 93.4398 71.5631Z" fill="black"/>
<path d="M95.2054 71.5636L97.2961 17.3382C97.31 16.9986 97.2549 16.6598 97.1343 16.3419C97.0136 16.0239 96.8298 15.7334 96.5937 15.4876C96.3576 15.2419 96.0742 15.0458 95.7603 14.9113C95.4464 14.7767 95.1084 14.7064 94.7666 14.7045L59.983 14.4041C59.2796 14.4043 58.6034 14.6738 58.0946 15.1566C57.5859 15.6393 57.2836 16.2982 57.2506 16.9966L55.1807 71.218C55.1656 71.5576 55.2197 71.8968 55.3397 72.2152C55.4596 72.5336 55.643 72.8247 55.8788 73.0709C56.1145 73.3172 56.3979 73.5137 56.7119 73.6485C57.0259 73.7834 57.364 73.8539 57.706 73.8558L92.4814 74.1479C93.1819 74.1457 93.8549 73.8764 94.3617 73.3956C94.8685 72.9148 95.1704 72.2591 95.2054 71.5636Z" fill="#92E3A9"/>
<path opacity="0.9" d="M95.0818 17.9142C95.0873 17.7804 95.0657 17.6468 95.0181 17.5214C94.9705 17.3961 94.898 17.2816 94.8048 17.1848C94.7117 17.0879 94.5998 17.0108 94.476 16.958C94.3521 16.9051 94.2188 16.8776 94.084 16.8772L60.5052 16.5933C60.2277 16.594 59.9612 16.7009 59.7608 16.8916C59.5604 17.0824 59.4415 17.3424 59.4288 17.6179L57.3837 70.65C57.3781 70.7841 57.3997 70.9179 57.4473 71.0434C57.4948 71.169 57.5673 71.2838 57.6604 71.3809C57.7535 71.4781 57.8653 71.5556 57.9892 71.6089C58.113 71.6622 58.2464 71.6901 58.3814 71.6911L91.9603 71.971C92.2373 71.9713 92.5038 71.8653 92.7043 71.6753C92.9048 71.4852 93.0238 71.2255 93.0366 70.9504L95.0818 17.9142Z" fill="white"/>
<path opacity="0.3" d="M88.7185 53.6009C90.7359 51.0714 91.9121 47.9809 92.0843 44.7574C92.2568 41.6196 91.3837 38.5128 89.6003 35.9181V35.8769C89.5716 35.8301 89.5368 35.7873 89.4969 35.7494C88.1745 33.9052 86.4246 32.4049 84.3953 31.3756C82.366 30.3462 80.117 29.8181 77.8388 29.8359C75.4771 29.8544 73.1493 30.3972 71.0256 31.4246C68.9019 32.452 67.0359 33.938 65.564 35.7741C65.5328 35.8064 65.5037 35.8408 65.477 35.8769L65.4563 35.914C63.4207 38.4362 62.2307 41.5287 62.0533 44.7574C61.8759 47.8984 62.7493 51.0093 64.5373 53.605C64.5388 53.6173 64.5388 53.6298 64.5373 53.6421L64.5745 53.6832C65.8985 55.5546 67.6607 57.0776 69.7091 58.1208C71.7575 59.1639 74.0305 59.6959 76.3319 59.6708C78.6898 59.6532 81.014 59.1124 83.1348 58.0879C85.2556 57.0634 87.1194 55.5811 88.5902 53.7491C88.6269 53.7126 88.6614 53.6742 88.6937 53.6338L88.7185 53.6009ZM76.4188 57.9054C74.2744 57.9054 72.4652 55.4075 71.542 51.7326C73.2568 51.3921 75.0013 51.2212 76.75 51.2224C78.4877 51.2175 80.2215 51.387 81.9249 51.7285C80.625 55.4075 78.5675 57.9054 76.4188 57.9054ZM76.8328 49.4446C74.9352 49.4402 73.0419 49.6264 71.1818 50.0002C70.9535 48.5604 70.8524 47.1036 70.8796 45.6463H83.1669C83.0464 47.1155 82.8012 48.572 82.4341 50.0002C80.5939 49.6247 78.7197 49.4385 76.8411 49.4446H76.8328ZM63.8293 45.6463H69.0912C69.0513 47.2467 69.1594 48.8474 69.4141 50.4281C68.1034 50.7933 66.8383 51.304 65.6426 51.9507C64.4883 50.0459 63.8653 47.8699 63.8376 45.6463H63.8293ZM66.3588 37.5642C67.4994 38.2165 68.7159 38.7279 69.9813 39.0868C69.5734 40.6555 69.306 42.2571 69.1823 43.8727H63.9246C64.1939 41.5996 65.0339 39.4303 66.3671 37.5642H66.3588ZM77.7146 31.6136C79.8633 31.6136 81.6724 34.1074 82.5956 37.7864C80.8797 38.1288 79.1336 38.2997 77.3834 38.2966C75.651 38.3016 73.9226 38.1307 72.2251 37.7864C73.5209 34.1074 75.5743 31.6136 77.7229 31.6136H77.7146ZM77.3006 40.0744C79.2002 40.0767 81.095 39.8864 82.9558 39.5065C83.1825 40.9478 83.2822 42.406 83.2538 43.8645H70.979C71.0965 42.3938 71.3403 40.9359 71.7076 39.5065C73.5485 39.888 75.4243 40.0783 77.3048 40.0744H77.3006ZM90.3041 43.8727H85.0423C85.078 42.271 84.97 40.6693 84.7194 39.0868C86.0307 38.7234 87.296 38.2126 88.4908 37.5642C89.6495 39.4693 90.2768 41.6467 90.3083 43.8727H90.3041ZM84.9512 45.6463H90.2048C89.9316 47.9172 89.092 50.0843 87.7622 51.9507C86.6204 51.301 85.4042 50.7898 84.1398 50.4281C84.5512 48.8609 84.8241 47.2608 84.9554 45.6463H84.9512ZM87.4683 36.1362C86.4767 36.6514 85.435 37.0651 84.3592 37.3707C83.9617 35.5944 83.2238 33.9109 82.1857 32.412C84.2485 33.1665 86.0728 34.4517 87.4724 36.1362H87.4683ZM73.1773 32.3996C71.999 33.8818 71.0962 35.561 70.5112 37.3584C69.4736 37.057 68.4727 36.643 67.5263 36.1238C69.0809 34.4464 71.0213 33.1685 73.1814 32.3996H73.1773ZM66.6693 53.3869C67.6594 52.8717 68.6998 52.458 69.7743 52.1524C70.1749 53.9284 70.9141 55.6116 71.9519 57.1112C69.8911 56.3552 68.0695 55.0686 66.6735 53.3828L66.6693 53.3869ZM80.9603 57.1235C82.1362 55.6397 83.0388 53.961 83.6264 52.1647C84.6631 52.4686 85.6638 52.8825 86.6113 53.3993C85.0596 55.0753 83.1219 56.3518 80.9645 57.1194L80.9603 57.1235Z" fill="#92E3A9"/>
<path opacity="0.3" d="M76.5926 15.9431C76.7024 15.9431 76.8077 15.8998 76.8853 15.8226C76.963 15.7454 77.0066 15.6408 77.0066 15.5316C77.01 15.4788 77.0024 15.4258 76.9844 15.376C76.9664 15.3262 76.9383 15.2806 76.9018 15.242C76.8653 15.2034 76.8212 15.1727 76.7723 15.1517C76.7234 15.1308 76.6707 15.12 76.6174 15.1201C76.5076 15.1201 76.4023 15.1635 76.3247 15.2406C76.2471 15.3178 76.2034 15.4225 76.2034 15.5316C76.2 15.5845 76.2076 15.6374 76.2256 15.6872C76.2436 15.7371 76.2718 15.7827 76.3082 15.8212C76.3447 15.8598 76.3888 15.8905 76.4377 15.9115C76.4866 15.9325 76.5393 15.9432 76.5926 15.9431Z" fill="white"/>
<path opacity="0.4" d="M103.922 86.0982L106.013 43.5393C106.027 43.1998 105.973 42.8608 105.853 42.5427C105.732 42.2245 105.549 41.9337 105.313 41.6875C105.078 41.4414 104.795 41.2449 104.481 41.1098C104.167 40.9748 103.829 40.9039 103.487 40.9015L83.3798 40.6134C82.6771 40.6136 82.0015 40.8825 81.4928 41.3644C80.9841 41.8463 80.6815 42.5042 80.6474 43.2018L78.5775 85.7649C78.563 86.1042 78.6175 86.443 78.7377 86.7609C78.8579 87.0788 79.0414 87.3694 79.2771 87.6152C79.5128 87.861 79.796 88.0571 80.1097 88.1917C80.4234 88.3263 80.7612 88.3967 81.1028 88.3986L101.21 88.6908C101.91 88.6852 102.581 88.4134 103.086 87.9312C103.59 87.449 103.889 86.7931 103.922 86.0982Z" fill="black"/>
<path d="M105.692 86.0982L107.762 43.5393C107.777 43.1996 107.723 42.8604 107.603 42.542C107.483 42.2236 107.3 41.9326 107.064 41.6863C106.828 41.44 106.545 41.2435 106.231 41.1087C105.917 40.9738 105.579 40.9033 105.237 40.9015L85.1293 40.6134C84.427 40.6137 83.7518 40.8827 83.2438 41.3647C82.7358 41.8467 82.434 42.5046 82.401 43.2018L80.3104 85.7649C80.2959 86.1042 80.3504 86.4429 80.4706 86.7608C80.5908 87.0788 80.7743 87.3693 81.01 87.6152C81.2457 87.861 81.5289 88.0571 81.8426 88.1917C82.1563 88.3263 82.4941 88.3967 82.8357 88.3986L102.943 88.6907C103.649 88.6937 104.329 88.4258 104.841 87.9428C105.353 87.4598 105.658 86.7991 105.692 86.0982Z" fill="#92E3A9"/>
<path opacity="0.9" d="M105.568 44.1154C105.573 43.9815 105.551 43.848 105.503 43.7227C105.455 43.5973 105.383 43.4828 105.29 43.3858C105.197 43.2887 105.085 43.2112 104.962 43.1577C104.838 43.1042 104.705 43.0759 104.57 43.0743L85.6507 42.7986C85.3732 42.7993 85.1067 42.9062 84.9063 43.0969C84.706 43.2877 84.5871 43.5478 84.5743 43.8233L82.5375 85.1847C82.5319 85.3188 82.5536 85.4526 82.6011 85.5781C82.6486 85.7037 82.7211 85.8185 82.8142 85.9156C82.9073 86.0127 83.0191 86.0903 83.143 86.1436C83.2668 86.1969 83.4002 86.2249 83.5352 86.2258L102.446 86.5057C102.723 86.506 102.99 86.4001 103.19 86.21C103.391 86.0199 103.51 85.7602 103.523 85.4851L105.568 44.1154Z" fill="white"/>
<path opacity="0.3" d="M101.2 70.3701C102.44 68.8181 103.163 66.9211 103.27 64.9422C103.375 63.0152 102.838 61.1076 101.742 59.5143C101.742 59.5143 101.742 59.5143 101.742 59.4896C101.726 59.4619 101.706 59.4357 101.685 59.4114C100.871 58.2796 99.796 57.3589 98.5494 56.7271C97.3029 56.0954 95.9216 55.7712 94.5224 55.7819C93.0731 55.7928 91.6446 56.126 90.3416 56.7568C89.0386 57.3877 87.8941 58.3004 86.9919 59.4279L86.934 59.4896V59.5143C85.6922 61.0652 84.9686 62.9628 84.864 64.9422C84.7547 66.871 85.292 68.7814 86.3916 70.3742V70.3948C86.3916 70.3948 86.3916 70.3948 86.4123 70.4195C87.2237 71.5608 88.3015 72.4896 89.5532 73.126C90.805 73.7625 92.1933 74.0877 93.5992 74.0737C95.0461 74.0627 96.4722 73.7308 97.7736 73.1022C99.075 72.4735 100.219 71.564 101.121 70.4401C101.146 70.4173 101.168 70.3925 101.188 70.366L101.2 70.3701ZM93.653 73.012C92.3324 73.012 91.2229 71.4812 90.6599 69.222C91.7123 69.0132 92.7828 68.9085 93.8559 68.9092C94.9195 68.9074 95.9805 69.0122 97.023 69.222C96.2322 71.4606 94.9695 72.9914 93.653 72.9914V73.012ZM93.9097 67.8187C92.7447 67.8163 91.5824 67.9307 90.4405 68.1603C90.302 67.2769 90.2411 66.3833 90.2583 65.4895H97.793C97.7214 66.3909 97.5719 67.2844 97.3459 68.1603C96.2228 67.9242 95.0783 67.8028 93.9304 67.7981L93.9097 67.8187ZM85.928 65.4895H89.1612C89.1385 66.4715 89.205 67.4535 89.36 68.4236C88.5543 68.6473 87.7765 68.9606 87.0416 69.3578C86.3283 68.1833 85.9438 66.8407 85.928 65.4689V65.4895ZM87.4804 60.4937C88.1812 60.8924 88.9276 61.206 89.7036 61.4279C89.4538 62.391 89.2903 63.3743 89.2151 64.3661H85.9818C86.1477 62.971 86.663 61.6396 87.4804 60.4937ZM94.4521 56.8395C95.7727 56.8395 96.8822 58.3703 97.4494 60.6295C96.3959 60.84 95.3238 60.9448 94.2492 60.9423C93.1855 60.9461 92.1243 60.8413 91.0822 60.6295C91.8605 58.3826 93.1356 56.8518 94.4521 56.8518V56.8395ZM94.1954 62.0328C95.3604 62.0352 96.5227 61.9207 97.6646 61.6912C97.8032 62.5759 97.8642 63.4709 97.8468 64.3661H90.3121C90.3854 63.4636 90.5349 62.5688 90.7592 61.6912C91.8894 61.9259 93.0408 62.0445 94.1954 62.0451V62.0328ZM102.177 64.3661H98.9439C98.9666 63.3827 98.9001 62.3993 98.7452 61.4279C99.5509 61.2042 100.329 60.8909 101.064 60.4937C101.776 61.667 102.16 63.0081 102.177 64.3784V64.3661ZM98.8983 65.4689H102.132C101.965 66.8626 101.45 68.1925 100.633 69.3372C99.9322 68.9385 99.1858 68.6249 98.4098 68.403C98.6592 67.4412 98.8227 66.4594 98.8983 65.4689ZM100.447 59.6295C99.8376 59.9428 99.1982 60.1937 98.5382 60.3785C98.2934 59.2875 97.8394 58.2535 97.201 57.3333C98.4655 57.8004 99.5827 58.5928 100.438 59.6295H100.447ZM91.6742 57.3333C90.9448 58.2427 90.3841 59.2738 90.0182 60.3785C89.3812 60.1962 88.7662 59.9451 88.1842 59.6295C89.1404 58.5949 90.3352 57.8069 91.6659 57.3333H91.6742ZM87.6791 70.2137C88.2872 69.9015 88.9252 69.6506 89.5835 69.4648C89.8301 70.5552 90.284 71.5888 90.9207 72.51C89.6508 72.0464 88.5287 71.2535 87.6709 70.2137H87.6791ZM96.4475 72.51C97.1769 71.6006 97.7376 70.5694 98.1035 69.4648C98.7399 69.6488 99.3547 69.8999 99.9375 70.2137C98.9766 71.2505 97.7758 72.0388 96.4392 72.51H96.4475Z" fill="#92E3A9"/>
<path opacity="0.3" d="M87.0464 42.2059C87.1562 42.2059 87.2615 42.1625 87.3391 42.0854C87.4167 42.0082 87.4604 41.9036 87.4604 41.7944C87.4605 41.6894 87.4204 41.5883 87.348 41.5118C87.2757 41.4354 87.1766 41.3892 87.0712 41.3829C86.9614 41.3829 86.8561 41.4263 86.7785 41.5035C86.7008 41.5806 86.6572 41.6853 86.6572 41.7944C86.657 41.8994 86.6972 42.0005 86.7696 42.077C86.8419 42.1535 86.9409 42.1996 87.0464 42.2059Z" fill="white"/>
</svg>
