<svg id="e022qy89lbj991" shape-rendering="geometricPrecision"
     text-rendering="geometricPrecision" viewBox="0 0 448 144" xmlns="http://www.w3.org/2000/svg">
  <style>
    #first-element {
    animation: first-element-animation 4000ms linear infinite normal forwards
    }#second-element {
    animation: second-element-animation 4000ms linear infinite normal forwards
    }#third-element {
    animation: third-element-animation 4000ms linear infinite normal forwards
    }#fourth-element {
    animation: fourth-element-animation 4000ms linear infinite normal forwards
    }

  @keyframes first-element-animation {
    0% { opacity: 0.5}
    5% { opacity: 0}
    87.5% { opacity: 0}
    90% { opacity: 0.5}
    100% { opacity: 0.5}
  }
  @keyframes second-element-animation {
    0% { opacity: 0}
    14.5% { opacity: 0}
    17% { opacity: 0.5}
    25% { opacity: 0.5}
    27.5% { opacity: 0}
    100% { opacity: 0}
  }
  @keyframes third-element-animation {
    0% { opacity: 0}
    37.5% { opacity: 0}
    40% { opacity: 0.5}
    50% { opacity: 0.5}
    52.5% {opacity: 0}
    100% { opacity: 0}
  }
  @keyframes fourth-element-animation {
    0% { opacity: 0}
    62.5% { opacity: 0}
    65% { opacity: 0.5}
    75% { opacity: 0.5}
    77.5% {opacity: 0}
    100% { opacity: 0}
  }

  #arrow {
    animation: arrow_animation 4000ms linear infinite normal forwards
  }

  @keyframes arrow_animation {
    10% {
      transform: translate(312.150009px, 111.250000px)
    }
    20% {
      transform: translate(209.450009px, 118.250000px)
    }
    30% {
      transform: translate(209.450009px, 118.250000px)
    }
    40% {
      transform: translate(253.796466px, 48.050000px)
    }
    60% {
      transform: translate(253.796466px, 48.050000px)
    }
    70% {
      transform: translate(306.050009px, 49.750000px)
    }
    80% {
      transform: translate(306.050009px, 49.750000px)
    }
    90% {
      transform: translate(312.150009px, 111.250000px)
    }
    100% {
      transform: translate(312.150009px, 111.250000px)
    }
  }
  </style>
  <path d="M135.600000,39.900000L61,39.900000L61,91.800000L135.600000,91.800000L135.600000,39.900000Z"
        fill="rgb(250,250,250)"
        id="e022qy89lbj992" stroke="none" stroke-width="1"/>
  <path d="M135.600000,39.900000L61,39.900000L61,46.400000L135.600000,46.400000L135.600000,39.900000Z"
        fill="rgb(224,224,224)"
        id="e022qy89lbj993" stroke="none" stroke-width="1"/>
  <path d="M65,43.300000C65,43.500000,64.900000,43.600000,64.900000,43.700000C64.800000,43.800000,64.700000,43.900000,64.500000,44C64.400000,44.100000,64.200000,44.100000,64.100000,44C64,44,63.800000,43.900000,63.700000,43.800000C63.600000,43.700000,63.500000,43.500000,63.500000,43.400000C63.500000,43.200000,63.500000,43.100000,63.600000,43C63.700000,42.900000,63.800000,42.700000,63.900000,42.700000C64,42.600000,64.200000,42.600000,64.300000,42.600000C64.400000,42.600000,64.500000,42.600000,64.600000,42.700000C64.700000,42.700000,64.800000,42.800000,64.900000,42.900000C65,43,65,43.100000,65.100000,43.200000C65,43.100000,65.100000,43.200000,65,43.300000Z"
        fill="rgb(255,255,255)"
        id="e022qy89lbj994" stroke="none" stroke-width="1"/>
  <path d="M68.200000,43.300000C68.200000,43.500000,68.100000,43.600000,68.100000,43.700000C68,43.900000,67.800000,44,67.700000,44C67.600000,44.100000,67.400000,44.100000,67.300000,44C67.200000,44,67,43.900000,66.900000,43.800000C66.800000,43.700000,66.700000,43.500000,66.700000,43.400000C66.700000,43.200000,66.700000,43.100000,66.800000,43C66.900000,42.900000,67,42.700000,67.100000,42.700000C67.200000,42.700000,67.400000,42.600000,67.500000,42.600000C67.600000,42.600000,67.700000,42.600000,67.800000,42.700000C67.900000,42.700000,68,42.800000,68.100000,42.900000C68.200000,43,68.200000,43.100000,68.300000,43.200000C68.200000,43.100000,68.200000,43.200000,68.200000,43.300000Z"
        fill="rgb(255,255,255)"
        id="e022qy89lbj995" stroke="none" stroke-width="1"/>
  <path d="M71.400000,43.300000C71.400000,43.500000,71.300000,43.600000,71.300000,43.700000C71.100000,43.900000,71,44,70.900000,44C70.800000,44,70.600000,44.100000,70.500000,44C70.400000,44,70.200000,43.900000,70.100000,43.800000C70,43.700000,69.900000,43.500000,69.900000,43.400000C69.900000,43.200000,69.900000,43.100000,70,43C70.100000,42.900000,70.200000,42.700000,70.300000,42.700000C70.400000,42.600000,70.600000,42.600000,70.700000,42.600000C70.800000,42.600000,70.900000,42.600000,71,42.700000C71.100000,42.700000,71.200000,42.800000,71.300000,42.900000C71.400000,43,71.400000,43.100000,71.500000,43.200000C71.400000,43.100000,71.400000,43.200000,71.400000,43.300000Z"
        fill="rgb(255,255,255)"
        id="e022qy89lbj996" stroke="none" stroke-width="1"/>
  <path d="M78.700000,52.700000L68.100000,52.700000L68.100000,78.200000L78.700000,78.200000L78.700000,52.700000Z"
        fill="rgb(224,224,224)"
        id="e022qy89lbj997" stroke="none" stroke-width="1"/>
  <path d="M95.100000,52.700000L84.500000,52.700000L84.500000,78.200000L95.100000,78.200000L95.100000,52.700000Z"
        fill="rgb(245,245,245)"
        id="e022qy89lbj998" stroke="none" stroke-width="1"/>
  <path d="M131.300000,81.100000L66.900000,81.100000L66.900000,86.900000L131.300000,86.900000L131.300000,81.100000Z"
        fill="rgb(235,235,235)"
        id="e022qy89lbj999" stroke="none" stroke-width="1"/>
  <path d="M415,73.100000L328.800000,73.100000L328.800000,133.100000L415,133.100000L415,73.100000Z" fill="rgb(245,245,245)"
        id="e022qy89lbj9910" stroke="none" stroke-width="1"/>
  <path d="M405,91L375,91L375,121L405,121L405,91Z" fill="rgb(224,224,224)" id="e022qy89lbj9911" stroke="none"
        stroke-width="1"/>
  <path d="M365,91L335,91L335,121L365,121L365,91Z" fill="rgb(224,224,224)" id="e022qy89lbj9912" stroke="none"
        stroke-width="1"/>
  <path d="M415,73.100000L328.800000,73.100000L328.800000,80.600000L415,80.600000L415,73.100000Z" fill="rgb(224,224,224)"
        id="e022qy89lbj9913" stroke="none" stroke-width="1"/>
  <path d="M400.400000,77C400.400000,77.200000,400.300000,77.300000,400.200000,77.500000C400.100000,77.600000,400,77.800000,399.800000,77.800000C399.600000,77.900000,399.500000,77.900000,399.300000,77.800000C399.100000,77.800000,399,77.700000,398.900000,77.500000C398.800000,77.400000,398.700000,77.200000,398.700000,77C398.700000,76.800000,398.700000,76.600000,398.800000,76.500000C398.900000,76.300000,399,76.200000,399.100000,76.100000C399.200000,76,399.400000,76,399.600000,76C399.800000,76,400.100000,76.100000,400.200000,76.300000C400.400000,76.600000,400.400000,76.800000,400.400000,77Z"
        fill="rgb(250,250,250)"
        id="e022qy89lbj9914" stroke="none" stroke-width="1"/>
  <path d="M404.100000,77C404.100000,77.200000,404,77.300000,403.900000,77.500000C403.800000,77.600000,403.700000,77.800000,403.500000,77.800000C403.300000,77.900000,403.200000,77.900000,403,77.800000C402.800000,77.800000,402.700000,77.700000,402.500000,77.500000C402.400000,77.400000,402.300000,77.200000,402.300000,77C402.300000,76.800000,402.300000,76.600000,402.400000,76.500000C402.500000,76.300000,402.600000,76.200000,402.700000,76.100000C402.800000,76,403,76,403.200000,76C403.400000,76,403.700000,76.100000,403.800000,76.300000C404,76.600000,404.100000,76.800000,404.100000,77Z"
        fill="rgb(250,250,250)"
        id="e022qy89lbj9915" stroke="none" stroke-width="1"/>
  <path d="M407.700000,77C407.700000,77.200000,407.600000,77.300000,407.500000,77.500000C407.400000,77.600000,407.300000,77.800000,407.100000,77.800000C406.900000,77.900000,406.800000,77.900000,406.600000,77.800000C406.400000,77.800000,406.300000,77.700000,406.100000,77.500000C406,77.400000,405.900000,77.200000,405.900000,77C405.900000,76.800000,405.900000,76.600000,406,76.500000C406.100000,76.300000,406.200000,76.200000,406.300000,76.100000C406.400000,76,406.600000,76,406.800000,76C407,76,407.300000,76.100000,407.400000,76.300000C407.600000,76.600000,407.700000,76.800000,407.700000,77Z"
        fill="rgb(250,250,250)"
        id="e022qy89lbj9916" stroke="none" stroke-width="1"/>
  <path d="M56.900000,92.900000L0.500000,92.900000L0.500000,133.800000L56.900000,133.800000L56.900000,92.900000Z"
        fill="rgb(245,245,245)"
        id="e022qy89lbj9917" stroke="none" stroke-width="1"/>
  <path d="M56.900000,92.900000L0.500000,92.900000L0.500000,97L56.900000,97L56.900000,92.900000Z" fill="rgb(224,224,224)"
        id="e022qy89lbj9918" stroke="none" stroke-width="1"/>
  <path d="M16.500000,103.100000L7.500000,103.100000L7.500000,112.100000L16.500000,112.100000L16.500000,103.100000Z"
        fill="rgb(224,224,224)"
        id="e022qy89lbj9919" stroke="none" stroke-width="1"/>
  <path d="M16.500000,116.600000L7.500000,116.600000L7.500000,125.600000L16.500000,125.600000L16.500000,116.600000Z"
        fill="rgb(224,224,224)"
        id="e022qy89lbj9920" stroke="none" stroke-width="1"/>
  <path d="M41.500000,106.400000L21.800000,106.400000L21.800000,108.800000L41.500000,108.800000L41.500000,106.400000Z"
        fill="rgb(224,224,224)"
        id="e022qy89lbj9921" stroke="none" stroke-width="1"/>
  <path d="M41.500000,119.600000L21.800000,119.600000L21.800000,122L41.500000,122L41.500000,119.600000Z"
        fill="rgb(224,224,224)"
        id="e022qy89lbj9922" stroke="none" stroke-width="1"/>
  <path d="M426.900000,22.500000L385.300000,22.500000L385.300000,48.500000L426.900000,48.500000L426.900000,22.500000Z"
        fill="rgb(224,224,224)"
        id="e022qy89lbj9923" stroke="none" stroke-width="1"/>
  <path d="M426.900000,22.500000L385.300000,22.500000L385.300000,27.500000L426.900000,27.500000L426.900000,22.500000Z"
        fill="rgb(235,235,235)"
        id="e022qy89lbj9924" stroke="none" stroke-width="1"/>
  <path d="M401.400000,34.300000L395.500000,34.400000L395.600000,40.300000L401.500000,40.200000L401.400000,34.300000Z"
        fill="rgb(245,245,245)"
        id="e022qy89lbj9925" stroke="none" stroke-width="1"/>
  <path d="M400.300000,34.500000L394.400000,34.600000L394.500000,40.500000L400.400000,40.400000L400.300000,34.500000Z"
        fill="rgb(224,224,224)"
        id="e022qy89lbj9926" stroke="none" stroke-width="1"/>
  <path d="M398.900000,35.600000L393,35.700000L393.100000,41.600000L399,41.500000L398.900000,35.600000Z"
        fill="rgb(245,245,245)"
        id="e022qy89lbj9927" stroke="none" stroke-width="1"/>
  <path d="M421.300000,36.900000L407,36.900000L407,39.100000L421.300000,39.100000L421.300000,36.900000Z"
        fill="rgb(245,245,245)"
        id="e022qy89lbj9928" stroke="none" stroke-width="1"/>
  <path d="M82.900000,14.300000C83.500000,14,84.200000,13.700000,84.900000,13.700000C85.600000,13.600000,86.300000,13.700000,87,13.900000C88.300000,14.300000,89.600000,15,90.600000,16C92.600000,17.800000,94,20.600000,94.800000,23.200000C91.900000,23.900000,88.800000,22.400000,87.200000,21.500000C84.800000,20,81.200000,16,82.900000,14.300000"
        fill="rgb(146,227,169)"
        id="e022qy89lbj9929" stroke="none" stroke-width="1"/>
  <path d="M99.900000,23.500000C99.200000,23.200000,98.600000,22.700000,98.100000,22C97.600000,21.400000,97.400000,20.600000,97.300000,19.800000C97.200000,19,97.300000,18.200000,97.600000,17.500000C97.800000,16.800000,98.200000,16.100000,98.700000,15.500000C98.900000,15.200000,99.200000,14.900000,99.500000,14.800000C99.800000,14.600000,100.200000,14.500000,100.500000,14.500000C100.800000,14.500000,101.200000,14.600000,101.400000,14.800000C101.700000,15,101.900000,15.300000,102,15.600000C102.300000,16.200000,102.400000,16.900000,102.300000,17.600000C102.300000,19.800000,101.700000,22,99.900000,23.500000"
        fill="rgb(146,227,169)"
        id="e022qy89lbj9930" stroke="none" stroke-width="1"/>
  <path d="M105,30.600000C104.900000,30.500000,104.700000,30.400000,104.600000,30.200000L103.500000,29.100000C102.300000,27.900000,101.300000,26.600000,100.500000,25.100000C99.700000,23.600000,99.400000,21.900000,99.500000,20.200000C99.500000,19.700000,99.600000,19.200000,99.800000,18.700000C99.900000,18.500000,99.900000,18.400000,99.900000,18.300000C99.900000,18.200000,100,18.200000,100,18.200000C99.800000,18.900000,99.700000,19.500000,99.600000,20.200000C99.500000,21.900000,99.900000,23.500000,100.600000,25C101.400000,26.500000,102.400000,27.800000,103.500000,29C103.900000,29.500000,104.300000,29.900000,104.500000,30.100000C104.800000,30.300000,104.900000,30.400000,105,30.600000Z"
        fill="rgb(38,50,56)"
        id="e022qy89lbj9931" stroke="none" stroke-width="1"/>
  <path d="M85.900000,17.100000C86,17.100000,86,17.200000,86.100000,17.200000L86.700000,17.600000C87.200000,17.900000,87.900000,18.400000,88.800000,19C90.600000,20.200000,93.100000,21.800000,95.800000,23.700000C98.500000,25.600000,100.900000,27.400000,102.600000,28.700000C103.500000,29.400000,104.200000,29.900000,104.600000,30.300000L105.100000,30.700000C105.200000,30.700000,105.200000,30.800000,105.300000,30.900000C105.200000,30.900000,105.200000,30.800000,105.100000,30.800000L104.500000,30.400000L102.400000,28.900000C100.700000,27.600000,98.300000,25.900000,95.600000,24C92.900000,22.100000,90.500000,20.400000,88.700000,19.200000L86.600000,17.800000L86,17.400000C86,17.200000,85.900000,17.200000,85.900000,17.100000Z"
        fill="rgb(38,50,56)"
        id="e022qy89lbj9932" stroke="none" stroke-width="1"/>
  <path d="M99,27.600000C97.500000,26.900000,95.900000,26.500000,94.200000,26.600000C92.500000,26.600000,90.900000,27.100000,89.500000,27.900000C88.800000,28.300000,88,29,88.100000,29.800000C88.200000,30.600000,89.100000,31.100000,89.900000,31.300000C91.600000,31.700000,93.400000,31.600000,95,30.900000C96.600000,30.300000,98.100000,29.200000,99.100000,27.700000"
        fill="rgb(146,227,169)"
        id="e022qy89lbj9933" stroke="none" stroke-width="1"/>
  <path d="M91.800000,29.100000C91.900000,29,92.100000,28.900000,92.300000,28.800000C92.500000,28.700000,92.700000,28.600000,92.800000,28.500000C93,28.400000,93.300000,28.300000,93.600000,28.200000C93.900000,28.100000,94.200000,28,94.500000,27.900000C94.900000,27.800000,95.200000,27.700000,95.600000,27.700000C97.300000,27.400000,99.100000,27.500000,100.800000,28.100000C101.200000,28.200000,101.500000,28.400000,101.800000,28.500000C102.100000,28.600000,102.400000,28.800000,102.700000,29C102.900000,29.100000,103.200000,29.300000,103.400000,29.400000C103.600000,29.500000,103.800000,29.600000,103.900000,29.800000C104,29.900000,104.200000,30,104.300000,30.100000C104.300000,30.100000,103.700000,29.600000,102.700000,29.100000C102.400000,29,102.100000,28.800000,101.800000,28.700000C101.500000,28.600000,101.100000,28.400000,100.800000,28.300000C100,28,99.100000,27.900000,98.300000,27.800000C97.400000,27.700000,96.600000,27.800000,95.700000,27.900000C95.300000,28,94.900000,28,94.600000,28.100000C94.300000,28.200000,94,28.300000,93.700000,28.400000C92.500000,28.700000,91.800000,29.100000,91.800000,29.100000Z"
        fill="rgb(38,50,56)"
        id="e022qy89lbj9934" stroke="none" stroke-width="1"/>
  <path d="M106.100000,143.200000L106.100000,0.500000L343.900000,0.500000L343.900000,143.300000L106.100000,143.300000Z"
        fill="rgb(255,255,255)"
        id="e022qy89lbj9935" stroke="rgb(0,0,0)" stroke-width="1"/>
  <path d="M344.300000,0.200000L105.600000,0.200000L105.600000,10.600000L344.300000,10.600000L344.300000,0.200000Z"
        fill="rgb(38,50,56)"
        id="e022qy89lbj9936" stroke="none" stroke-width="1"/>
  <path d="M113.200000,4.700000C113.200000,5,113.200000,5.300000,113,5.500000C112.900000,5.700000,112.600000,5.900000,112.400000,6.100000C112.100000,6.200000,111.800000,6.300000,111.600000,6.200000C111.300000,6.200000,111,6,110.800000,5.800000C110.600000,5.600000,110.400000,5.300000,110.400000,5.100000C110.300000,4.800000,110.400000,4.500000,110.500000,4.300000C110.600000,4,110.800000,3.800000,111,3.600000C111.200000,3.400000,111.500000,3.300000,111.800000,3.300000C112.200000,3.300000,112.500000,3.400000,112.800000,3.700000C113.100000,4,113.200000,4.300000,113.200000,4.700000Z"
        fill="rgb(255,255,255)"
        id="e022qy89lbj9937" stroke="none" stroke-width="1"/>
  <path d="M119,4.700000C119,5,118.900000,5.300000,118.800000,5.500000C118.700000,5.700000,118.400000,5.900000,118.200000,6.100000C118,6.300000,117.600000,6.300000,117.400000,6.200000C117.100000,6.200000,116.800000,6,116.600000,5.800000C116.400000,5.600000,116.200000,5.300000,116.200000,5.100000C116.100000,4.800000,116.200000,4.500000,116.300000,4.300000C116.400000,4,116.600000,3.800000,116.800000,3.600000C117,3.400000,117.300000,3.400000,117.600000,3.400000C118,3.400000,118.300000,3.500000,118.600000,3.800000C118.800000,4,119,4.300000,119,4.700000Z"
        fill="rgb(255,255,255)"
        id="e022qy89lbj9938" stroke="none" stroke-width="1"/>
  <path d="M124.700000,4.700000C124.700000,5,124.700000,5.300000,124.500000,5.500000C124.400000,5.700000,124.100000,5.900000,123.900000,6.100000C123.700000,6.300000,123.300000,6.300000,123.100000,6.200000C122.800000,6.200000,122.500000,6,122.300000,5.800000C122.100000,5.600000,121.900000,5.300000,121.900000,5.100000C121.800000,4.800000,121.900000,4.500000,122,4.300000C122.100000,4,122.300000,3.800000,122.500000,3.600000C122.700000,3.400000,123,3.400000,123.300000,3.400000C123.700000,3.400000,124,3.500000,124.300000,3.800000C124.600000,4,124.700000,4.300000,124.700000,4.700000Z"
        fill="rgb(255,255,255)"
        id="e022qy89lbj9939" stroke="none" stroke-width="1"/>
  <path d="M128,27L322,27C324.200000,27,326,28.800000,326,31L326,45C326,47.200000,324.200000,49,322,49L128,49C125.800000,49,124,47.200000,124,45L124,31C124,28.800000,125.800000,27,128,27Z"
        fill="rgb(224,224,224)"
        id="e022qy89lbj9940" stroke="none" stroke-width="1"/>
  <path d="M128,27L322,27C324.200000,27,326,28.800000,326,31L326,45C326,47.200000,324.200000,49,322,49L128,49C125.800000,49,124,47.200000,124,45L124,31C124,28.800000,125.800000,27,128,27Z"
        fill="rgb(224,224,224)"
        id="third-element" stroke="rgb(29,203,139)" stroke-width="1"/>
  <path d="M129,66L220,66C222.200000,66,224,67.800000,224,70L224,116C224,118.200000,222.200000,120,220,120L129,120C126.800000,120,125,118.200000,125,116L125,70C125,67.800000,126.800000,66,129,66Z"
        fill="rgb(255,255,255)"
        id="e022qy89lbj9941" stroke="rgb(224,224,224)" stroke-width="2"/>
  <path d="M236,65L324,65C325.100000,65,326,65.900000,326,67L326,71C326,72.100000,325.100000,73,324,73L236,73C234.900000,73,234,72.100000,234,71L234,67C234,65.900000,234.900000,65,236,65Z"
        fill="rgb(224,224,224)"
        id="e022qy89lbj9942" opacity="0.5" stroke="none" stroke-width="1"/>
  <path d="M236,81L324,81C325.100000,81,326,81.900000,326,83L326,87C326,88.100000,325.100000,89,324,89L236,89C234.900000,89,234,88.100000,234,87L234,83C234,81.900000,234.900000,81,236,81Z"
        fill="rgb(224,224,224)"
        id="e022qy89lbj9943" opacity="0.5" stroke="none" stroke-width="1"/>
  <path d="M236,113L324,113C325.100000,113,326,113.900000,326,115L326,119C326,120.100000,325.100000,121,324,121L236,121C234.900000,121,234,120.100000,234,119L234,115C234,113.900000,234.900000,113,236,113Z"
        fill="rgb(224,224,224)"
        id="e022qy89lbj9944" opacity="0.5" stroke="none" stroke-width="1"/>
  <rect fill="rgb(224,224,224)" height="12" id="e022qy89lbj9945" rx="0" ry="0" stroke="none"
        stroke-width="1" transform="matrix(1 0 0 1 176 100)" width="40"/>
  <rect fill="rgb(224,224,224)" height="12" id="second-element" opacity="0" rx="0" ry="0" stroke="rgb(29,203,139)"
        stroke-width="1" transform="matrix(1 0 0 1 176 100)" width="40"/>
  <path d="M281,32L318,32C319.100000,32,320,32.900000,320,34L320,42C320,43.100000,319.100000,44,318,44L281,44C279.900000,44,279,43.100000,279,42L279,34C279,32.900000,279.900000,32,281,32Z"
        fill="rgb(255,255,255)"
        id="e022qy89lbj9947" stroke="none" stroke-width="1"/>
  <path d="M281,32L318,32C319.100000,32,320,32.900000,320,34L320,42C320,43.100000,319.100000,44,318,44L281,44C279.900000,44,279,43.100000,279,42L279,34C279,32.900000,279.900000,32,281,32Z"
        fill="rgb(255,255,255)"
        id="fourth-element" stroke="rgb(29,203,139)" stroke-width="1"/>
  <rect fill="rgb(224,224,224)" height="11" id="e022qy89lbj9948" rx="0" ry="0" stroke="none"
        stroke-width="1" transform="matrix(1 0 0 1 16 58)" width="16"/>
  <rect fill="rgb(245,245,245)" height="11" id="e022qy89lbj9949" rx="0" ry="0" stroke="none"
        stroke-width="1" transform="matrix(1 0 0 1 432 78)" width="16"/>
  <path d="M236,97.100000L324,97.100000C325.100000,97.100000,326,98,326,99.100000L326,103.100000C326,104.200000,325.100000,105.100000,324,105.100000L236,105.100000C234.900000,105.100000,234,104.200000,234,103.100000L234,99.100000C234,98,234.900000,97.100000,236,97.100000Z"
        fill="rgb(224,224,224)"
        id="e022qy89lbj9950" opacity="0.5" stroke="none" stroke-width="1"/>
  <path d="M236,97.100000L324,97.100000C325.100000,97.100000,326,98,326,99.100000L326,103.100000C326,104.200000,325.100000,105.100000,324,105.100000L236,105.100000C234.900000,105.100000,234,104.200000,234,103.100000L234,99.100000C234,98,234.900000,97.100000,236,97.100000Z"
        fill="rgb(224,224,224)"
        id="first-element" opacity="0.5" stroke="rgb(29,203,139)" stroke-width="1"/>
  <g id="arrow" transform="translate(312.150009,111.250000)">
    <path d="M305.600000,101.800000L308.500000,117.300000L310.900000,113L316.100000,120.700000L318.700000,119L313.500000,111.300000L318.200000,110.600000L305.600000,101.800000Z"
          fill="rgb(38,50,56)"
          id="e022qy89lbj9952" stroke="none" stroke-width="1" transform="translate(-312.150009,-111.250000)"/>
  </g>
</svg>
