<svg width="427" height="144" viewBox="0 0 427 144" fill="none" xmlns="http://www.w3.org/2000/svg">
<path d="M135.597 39.8853H61V91.831H135.597V39.8853Z" fill="#FAFAFA"/>
<path d="M135.597 39.8853H61V46.3785H135.597V39.8853Z" fill="#E0E0E0"/>
<path d="M65.0482 43.3156C65.0421 43.4689 64.991 43.617 64.9014 43.7414C64.8117 43.8658 64.6873 43.9611 64.5438 44.0153C64.4004 44.0696 64.2441 44.0804 64.0945 44.0464C63.9449 44.0124 63.8087 43.9352 63.7027 43.8242C63.5967 43.7133 63.5258 43.5737 63.4986 43.4227C63.4715 43.2718 63.4894 43.1161 63.5502 42.9753C63.6109 42.8344 63.7117 42.7146 63.8401 42.6306C63.9685 42.5467 64.1188 42.5024 64.2721 42.5033C64.3765 42.5053 64.4795 42.528 64.5751 42.57C64.6708 42.6119 64.7571 42.6724 64.8293 42.7479C64.9014 42.8234 64.9579 42.9125 64.9955 43.0099C65.033 43.1073 65.051 43.2112 65.0482 43.3156Z" fill="white"/>
<path d="M68.2025 43.3156C68.1964 43.4689 68.1453 43.617 68.0556 43.7414C67.966 43.8658 67.8416 43.9611 67.6981 44.0153C67.5547 44.0696 67.3984 44.0804 67.2488 44.0464C67.0992 44.0124 66.963 43.9352 66.857 43.8242C66.751 43.7133 66.6801 43.5737 66.6529 43.4227C66.6258 43.2718 66.6437 43.1161 66.7044 42.9753C66.7652 42.8344 66.866 42.7146 66.9944 42.6306C67.1228 42.5467 67.2731 42.5024 67.4264 42.5033C67.5308 42.5053 67.6338 42.528 67.7294 42.57C67.8251 42.6119 67.9114 42.6724 67.9836 42.7479C68.0557 42.8234 68.1122 42.9125 68.1498 43.0099C68.1873 43.1073 68.2053 43.2112 68.2025 43.3156Z" fill="white"/>
<path d="M71.3842 43.3156C71.3781 43.4689 71.327 43.617 71.2373 43.7414C71.1476 43.8658 71.0233 43.9611 70.8798 44.0153C70.7363 44.0696 70.58 44.0804 70.4304 44.0464C70.2809 44.0124 70.1446 43.9352 70.0386 43.8242C69.9327 43.7133 69.8617 43.5737 69.8346 43.4227C69.8075 43.2718 69.8254 43.1161 69.8861 42.9753C69.9468 42.8344 70.0477 42.7146 70.176 42.6306C70.3044 42.5467 70.4547 42.5024 70.6081 42.5033C70.7125 42.5053 70.8155 42.528 70.9111 42.57C71.0067 42.6119 71.0931 42.6724 71.1652 42.7479C71.2373 42.8234 71.2938 42.9125 71.3314 43.0099C71.369 43.1073 71.3869 43.2112 71.3842 43.3156Z" fill="white"/>
<path d="M78.7261 52.7372H68.0938V78.2444H78.7261V52.7372Z" fill="#E0E0E0"/>
<path d="M95.1128 52.7372H84.4805V78.2444H95.1128V52.7372Z" fill="#F5F5F5"/>
<path d="M111.519 52.7372H100.887V78.2444H111.519V52.7372Z" fill="white"/>
<path d="M127.904 52.939H117.271V78.4462H127.904V52.939Z" fill="#EBEBEB"/>
<path d="M131.295 81.059H66.8594V86.8848H131.295V81.059Z" fill="#EBEBEB"/>
<path d="M414.953 73.083H328.762V133.105H414.953V73.083Z" fill="#F5F5F5"/>
<path d="M405 91H375V121H405V91Z" fill="#E0E0E0"/>
<path d="M365 91H335V121H365V91Z" fill="#E0E0E0"/>
<path d="M414.953 73.083H328.762V80.5851H414.953V73.083Z" fill="#E0E0E0"/>
<path d="M400.44 77.0463C400.432 77.2223 400.372 77.3921 400.269 77.5346C400.165 77.6771 400.022 77.7861 399.857 77.8479C399.692 77.9097 399.512 77.9218 399.34 77.8825C399.168 77.8432 399.012 77.7544 398.89 77.627C398.768 77.4996 398.687 77.3392 398.655 77.1658C398.624 76.9924 398.644 76.8136 398.713 76.6515C398.782 76.4894 398.897 76.3511 399.044 76.2539C399.191 76.1567 399.364 76.1048 399.54 76.1046C399.784 76.1114 400.015 76.2141 400.184 76.3904C400.352 76.5667 400.444 76.8024 400.44 77.0463Z" fill="#FAFAFA"/>
<path d="M404.087 77.0463C404.079 77.2223 404.019 77.3921 403.915 77.5346C403.812 77.6771 403.668 77.7861 403.503 77.8479C403.338 77.9097 403.159 77.9218 402.987 77.8825C402.815 77.8432 402.658 77.7544 402.537 77.627C402.415 77.4996 402.333 77.3392 402.302 77.1658C402.27 76.9924 402.29 76.8136 402.359 76.6515C402.429 76.4894 402.544 76.3511 402.691 76.2539C402.838 76.1567 403.01 76.1048 403.186 76.1046C403.43 76.1114 403.662 76.2141 403.83 76.3904C403.999 76.5667 404.091 76.8024 404.087 77.0463Z" fill="#FAFAFA"/>
<path d="M407.735 77.0463C407.727 77.2223 407.667 77.3921 407.564 77.5346C407.46 77.6771 407.317 77.7861 407.152 77.8479C406.987 77.9097 406.807 77.9218 406.635 77.8825C406.463 77.8432 406.307 77.7544 406.185 77.627C406.063 77.4996 405.982 77.3392 405.95 77.1658C405.919 76.9924 405.939 76.8136 406.008 76.6515C406.077 76.4894 406.192 76.3511 406.339 76.2539C406.486 76.1567 406.659 76.1048 406.835 76.1046C407.079 76.1114 407.31 76.2141 407.479 76.3904C407.647 76.5667 407.739 76.8024 407.735 77.0463Z" fill="#FAFAFA"/>
<path d="M56.8695 92.8878H0.515625V133.829H56.8695V92.8878Z" fill="#F5F5F5"/>
<path d="M56.8695 92.8878H0.515625V97.0476H56.8695V92.8878Z" fill="#E0E0E0"/>
<path d="M16.4869 103.08H7.48438V112.083H16.4869V103.08Z" fill="#E0E0E0"/>
<path d="M16.4869 116.584H7.48438V125.587H16.4869V116.584Z" fill="#E0E0E0"/>
<path d="M41.5166 106.36H21.8145V108.802H41.5166V106.36Z" fill="#E0E0E0"/>
<path d="M41.5166 119.637H21.8145V122.079H41.5166V119.637Z" fill="#E0E0E0"/>
<path d="M426.87 22.4994H385.293V48.5447H426.87V22.4994Z" fill="#E0E0E0"/>
<path d="M426.87 22.4994H385.293V27.5077H426.87V22.4994Z" fill="#EBEBEB"/>
<path d="M401.417 34.308L395.52 34.4048L395.616 40.3022L401.514 40.2054L401.417 34.308Z" fill="#F5F5F5"/>
<path d="M400.324 34.4809L394.426 34.5989L394.544 40.4971L400.442 40.3791L400.324 34.4809Z" fill="#E0E0E0"/>
<path d="M398.914 35.6474L393.016 35.7654L393.134 41.6636L399.032 41.5456L398.914 35.6474Z" fill="#F5F5F5"/>
<path d="M421.341 36.8983H407.082V39.1438H421.341V36.8983Z" fill="#F5F5F5"/>
<path d="M82.9059 14.2903C83.516 13.9439 84.1899 13.7245 84.887 13.6454C85.5841 13.5662 86.29 13.629 86.9623 13.8299C88.3117 14.2341 89.5506 14.9421 90.584 15.8994C92.607 17.6896 93.9573 20.499 94.7748 23.0756C91.8568 23.7999 88.7317 22.2478 87.2003 21.363C84.7737 19.9609 81.24 15.9615 82.9266 14.2748" fill="#92E3A9"/>
<path d="M99.9018 23.479C99.18 23.164 98.5551 22.6625 98.0913 22.026C97.6276 21.3895 97.3417 20.6409 97.2632 19.8573C97.1943 19.0775 97.281 18.2918 97.5181 17.5457C97.7552 16.7997 98.1381 16.1082 98.6446 15.5112C98.8488 15.2121 99.1156 14.9609 99.4265 14.7751C99.7373 14.5893 100.085 14.4732 100.445 14.4351C100.783 14.4558 101.11 14.5671 101.39 14.7573C101.67 14.9476 101.894 15.2098 102.039 15.5164C102.321 16.1329 102.437 16.8125 102.375 17.4876C102.256 19.8055 101.718 22.02 99.9018 23.4531" fill="#92E3A9"/>
<path d="M104.99 30.588C104.842 30.4731 104.705 30.345 104.581 30.2051L103.515 29.1238C102.298 27.9628 101.278 26.6121 100.493 25.1244C99.7199 23.6156 99.3627 21.9279 99.4586 20.2351C99.4996 19.727 99.5986 19.2254 99.7535 18.7398C99.8053 18.5639 99.8674 18.4397 99.8984 18.3518C99.9295 18.2638 99.9605 18.2173 99.9657 18.2224C99.7758 18.8828 99.6528 19.5605 99.5983 20.2454C99.5323 21.9059 99.8883 23.556 100.633 25.0416C101.413 26.5104 102.406 27.8548 103.582 29.0307C104.012 29.5015 104.363 29.8844 104.617 30.1534C104.752 30.2883 104.877 30.4336 104.99 30.588Z" fill="#263238"/>
<path d="M85.8809 17.0999C85.9565 17.1314 86.0292 17.1695 86.0982 17.2137L86.688 17.581C87.2054 17.8966 87.9349 18.3675 88.8351 18.9573C90.6408 20.1369 93.1088 21.7977 95.7992 23.6965C98.4896 25.5954 100.88 27.37 102.592 28.679C103.446 29.3309 104.145 29.8638 104.61 30.2312L105.128 30.6658C105.193 30.713 105.254 30.7667 105.309 30.8261C105.235 30.7913 105.165 30.7479 105.102 30.6968L104.543 30.2932L102.473 28.7773C100.74 27.4993 98.3344 25.7454 95.6491 23.8466C92.9639 21.9478 90.5373 20.2766 88.7472 19.0763L86.6362 17.6431L86.0619 17.2499C85.9976 17.2049 85.937 17.1547 85.8809 17.0999Z" fill="#263238"/>
<path d="M98.9966 27.6286C97.5054 26.9178 95.8662 26.5729 94.2151 26.6223C92.5639 26.6718 90.9484 27.1143 89.5025 27.9131C88.7678 28.3219 88.0072 28.9996 88.1159 29.8326C88.2245 30.6656 89.1507 31.1313 89.9423 31.3279C91.6535 31.7143 93.4407 31.5853 95.0788 30.9574C96.7168 30.3294 98.1322 29.2306 99.1466 27.7993" fill="#92E3A9"/>
<path d="M91.793 29.0721C91.9343 28.9686 92.085 28.8785 92.2431 28.803C92.4186 28.6963 92.602 28.6029 92.7915 28.5236C93.0358 28.4036 93.2862 28.2966 93.5417 28.2029C93.8502 28.085 94.1645 27.9831 94.4834 27.8976C94.8476 27.7946 95.2172 27.7117 95.5906 27.6493C97.3191 27.3423 99.0967 27.4685 100.764 28.0166C101.117 28.1362 101.463 28.2761 101.799 28.4357C102.102 28.5657 102.396 28.7161 102.679 28.8858C102.915 29.0191 103.145 29.1641 103.367 29.3204C103.547 29.4317 103.72 29.5544 103.884 29.6878C104.025 29.792 104.156 29.908 104.278 30.0344C104.278 30.0706 103.683 29.5791 102.632 28.9996C102.368 28.8651 102.079 28.7047 101.753 28.5754C101.415 28.4281 101.069 28.2986 100.718 28.1873C99.9003 27.9336 99.0569 27.7722 98.2034 27.7062C97.3498 27.6531 96.493 27.6913 95.6475 27.82C95.2543 27.8873 94.8869 27.9545 94.5506 28.0476C94.2339 28.1267 93.9213 28.2217 93.6142 28.3322C92.4604 28.7306 91.8137 29.1135 91.793 29.0721Z" fill="#263238"/>
<path d="M106.059 143.25V0.5H343.829V143.25H106.059Z" fill="white" stroke="black"/>
<path d="M344.307 0.155029H105.631V10.5597H344.307V0.155029Z" fill="#263238"/>
<path d="M113.234 4.67707C113.252 4.96581 113.184 5.25349 113.037 5.5028C112.89 5.75211 112.672 5.95154 112.41 6.07521C112.149 6.19888 111.856 6.24109 111.57 6.19635C111.284 6.15162 111.018 6.02202 110.807 5.82435C110.596 5.62669 110.449 5.37008 110.385 5.08784C110.321 4.80559 110.344 4.51072 110.45 4.24148C110.556 3.97225 110.74 3.74107 110.979 3.57795C111.218 3.41483 111.501 3.32729 111.79 3.32669C112.16 3.31551 112.52 3.45124 112.79 3.70424C113.061 3.95725 113.22 4.30697 113.234 4.67707Z" fill="white"/>
<path d="M118.986 4.67707C119.004 4.96602 118.936 5.25392 118.789 5.50336C118.641 5.75279 118.423 5.95223 118.161 6.07576C117.899 6.19929 117.606 6.2412 117.32 6.19605C117.034 6.1509 116.768 6.02078 116.557 5.82258C116.346 5.62439 116.199 5.36728 116.136 5.08468C116.073 4.80207 116.097 4.50703 116.203 4.23787C116.31 3.96872 116.495 3.7379 116.735 3.57541C116.975 3.41291 117.258 3.32625 117.547 3.32669C117.917 3.31553 118.276 3.45142 118.546 3.70456C118.815 3.9577 118.973 4.30743 118.986 4.67707Z" fill="white"/>
<path d="M124.722 4.67707C124.741 4.96602 124.672 5.25392 124.525 5.50336C124.378 5.75279 124.159 5.95223 123.897 6.07576C123.635 6.19929 123.342 6.2412 123.056 6.19605C122.77 6.1509 122.504 6.02078 122.293 5.82258C122.082 5.62439 121.936 5.36728 121.873 5.08468C121.809 4.80207 121.833 4.50703 121.94 4.23787C122.046 3.96872 122.232 3.7379 122.471 3.57541C122.711 3.41291 122.994 3.32625 123.284 3.32669C123.653 3.31553 124.012 3.45142 124.282 3.70456C124.552 3.9577 124.71 4.30743 124.722 4.67707Z" fill="white"/>
<path d="M305.594 101.812L308.512 117.302L310.913 112.982L316.066 120.701L318.642 118.963L313.489 111.244L318.223 110.514L305.594 101.812Z" fill="#263238"/>
</svg>
