<svg width="27" height="32" viewBox="0 0 27 32" fill="none" xmlns="http://www.w3.org/2000/svg">
<path d="M13.3371 32L0.275096 24.4501V12.908L0 12.75V8.89868L13.3371 16.5997V32Z" fill="#EB0505"/>
<path opacity="0.1" d="M13.3371 32L0.275096 24.4501V12.908L0 12.75V8.89868L13.3371 16.5997V32Z" fill="black"/>
<path opacity="0.15" d="M13.3374 20.4493L8.66074 17.7493L8.65904 13.8929L8.3381 13.7129L8.3364 17.5625L0.275391 12.908V13.4615L8.3364 18.1144L8.3347 29.1115L8.66244 29.3L8.66074 18.3012L13.3374 21.0012V20.4493Z" fill="black"/>
<path d="M13.3374 32L26.3281 24.5045V12.9487L26.6745 12.75V8.89868L13.3374 16.5997V32Z" fill="#EB0505"/>
<path opacity="0.1" d="M26.3281 12.9487L18.3384 17.5625L18.3367 13.7129L18.0157 13.8929V17.7493L13.3374 20.4493V21.0012L18.014 18.3029L18.0123 29.3L18.3401 29.1115L18.3384 18.1178L26.3281 13.5091V12.9487Z" fill="black"/>
<path d="M26.6742 8.89868L13.3371 1.19937L0 8.89868L13.3371 16.5997L26.6742 8.89868Z" fill="#EB0505"/>
<path opacity="0.4" d="M26.6742 8.89868L13.3371 1.19937L0 8.89868L13.3371 16.5997L26.6742 8.89868Z" fill="white"/>
<path opacity="0.15" d="M11.0921 9.05149L4.71729 6.18165L5.00087 6.01184L11.43 8.90035" fill="black"/>
<path opacity="0.15" d="M15.5803 9.05149L21.9551 6.18165L21.6698 6.01184L15.2407 8.90035" fill="black"/>
<path opacity="0.15" d="M18.3364 13.7129L13.6038 10.1995V10.1978L13.3372 9.99908L13.3355 10.0008V9.99908L13.0672 10.1978L13.0689 10.1995L8.33447 13.7129L8.65712 13.8929L13.3355 10.3981L18.0155 13.8929L18.3364 13.7129Z" fill="black"/>
<path d="M21.6732 11.7872V27.5696L18.3398 29.4953L18.3364 13.7129L21.6732 11.7872Z" fill="#37474F"/>
<path d="M18.3399 29.4953L18.0122 29.3L18.3399 29.1115V29.4953Z" fill="#263238"/>
<path d="M5.00098 11.7872V27.5696L8.3344 29.4953L8.33779 13.7129L5.00098 11.7872Z" fill="#263238"/>
<path d="M8.33447 29.4953L8.66221 29.3L8.33447 29.1115V29.4953Z" fill="black"/>
<path d="M8.33779 13.7129L13.3388 10.0008L15.2458 8.89867L21.6732 6.01186L18.3398 4.08618L13.3388 7.79829L11.4335 8.90037L5.00098 11.7872L8.33779 13.7129Z" fill="#455A64"/>
<path d="M11.4334 8.90036L11.0938 9.05149L12.2162 9.54905L13.0704 10.1977L13.3387 9.99905L12.5049 9.38093L11.4334 8.90036Z" fill="#263238"/>
<path d="M18.3364 13.7129L12.505 9.38094L5.00098 6.01186L8.3361 4.08618L14.1726 8.4181L21.6732 11.7872L18.3364 13.7129Z" fill="#455A64"/>
<path d="M12.291 8.26697C12.291 8.26697 8.37341 11.5189 1.97656 10.7785C1.97656 10.7785 4.69357 12.5564 8.0151 12.154C8.0151 12.154 7.53793 13.3664 4.73941 14.8421C4.73941 14.8421 11.7306 14.9066 13.5374 9.10245L12.291 8.26697Z" fill="#37474F"/>
<path d="M8.60742 14.0984C10.5433 13.3716 12.6558 11.9384 13.532 9.10757L12.2856 8.27209C11.5282 8.84623 10.7 9.32051 9.82158 9.68324C9.82158 9.68324 11.1801 10.2776 12.5658 9.91079C12.2517 10.8554 11.7346 11.7199 11.0507 12.4433C10.3669 13.1668 9.53292 13.7317 8.60742 14.0984Z" fill="#263238"/>
<path d="M3.60545 4.01317C3.60545 4.01317 4.3832 3.10297 6.76906 3.51392C8.20908 3.76355 10.6544 5.44129 11.8634 8.23641C12.0163 8.58962 12.3593 8.70849 12.5427 8.94623C12.5853 8.99946 12.6318 9.04942 12.6819 9.09566L13.4376 9.10415C13.4376 6.49243 11.9721 3.85694 10.5865 2.33202C9.20078 0.807106 6.9185 0.0616288 5.29169 0.00389246C4.7148 -0.0227667 4.13981 0.0878089 3.61394 0.326537C3.17073 1.56107 2.98733 2.78542 3.60545 4.01317Z" fill="#37474F"/>
<path d="M11.6968 7.88488C11.6968 7.88488 13.0553 7.42639 12.4966 5.24939C13.0828 6.45241 13.402 7.76794 13.4323 9.10584L12.6766 9.09735C12.6265 9.0511 12.5799 9.00115 12.5373 8.94791C12.354 8.71017 12.0109 8.5913 11.8581 8.23809C11.8089 8.11583 11.7528 8.00036 11.6968 7.88488Z" fill="#263238"/>
<path d="M4.9976 5.68582C4.42522 5.22738 3.95156 4.65783 3.60514 4.01147C2.98532 2.78373 3.16872 1.55938 3.60514 0.321442C2.20588 0.93956 1.3704 2.75825 1.05795 4.22713C0.888137 5.04903 0.867759 5.75545 1.00701 6.09507C1.39927 7.01885 3.69684 10.7513 13.5375 9.10755L13.5273 8.07339C11.0633 7.92056 6.76026 7.16999 4.9976 5.68582Z" fill="#37474F"/>
<path d="M3.60545 4.01317C3.60545 4.01317 3.48828 1.13654 5.29169 0.00389246C4.7148 -0.0227667 4.13981 0.0878089 3.61394 0.326537C3.17073 1.56108 2.98733 2.78542 3.60545 4.01317Z" fill="#263238"/>
<path d="M14.3831 8.26697C14.3831 8.26697 18.3007 11.5189 24.6976 10.7785C24.6976 10.7785 21.9806 12.5564 18.659 12.154C18.659 12.154 19.1362 13.3664 21.9347 14.8421C21.9347 14.8421 14.9435 14.9066 13.1367 9.10245L14.3831 8.26697Z" fill="#37474F"/>
<path d="M14.1078 9.90738C15.4867 10.2742 16.852 9.67983 16.852 9.67983L16.5955 9.56436L16.5565 9.54738L16.3289 9.4404L16.278 9.41662L16.0708 9.31304C16.0533 9.305 16.0363 9.29593 16.0199 9.28587C15.9537 9.2536 15.8908 9.21964 15.828 9.18738L15.7771 9.16021L15.6072 9.06341L15.558 9.03624L15.3984 8.94454L15.3542 8.91907L15.2048 8.83417L15.164 8.81039L15.035 8.72888L14.9976 8.70511L14.8838 8.63039L14.8499 8.60831L14.7514 8.54209L14.7225 8.52171L14.6393 8.46397L14.6138 8.4453L14.5476 8.39775L14.5255 8.38077L14.4763 8.34341L14.4542 8.32642L14.4236 8.30435L14.4033 8.28907L14.3931 8.27888L14.3812 8.27039L13.9736 8.54378L13.1348 9.10587C14.9399 14.9101 21.9311 14.8455 21.9328 14.8455C18.3361 14.6757 14.5578 11.9468 14.1078 9.90738Z" fill="#263238"/>
<path d="M23.069 4.01317C23.069 4.01317 22.2912 3.10297 19.9054 3.51392C18.4653 3.76355 16.02 5.44129 14.811 8.23641C14.6581 8.58962 14.3151 8.70849 14.1317 8.94623C14.0891 8.99946 14.0426 9.04942 13.9925 9.09566L13.2368 9.10415C13.2368 6.49243 14.7023 3.85694 16.088 2.33202C17.4736 0.807106 19.7559 0.0616288 21.3827 0.00389246C21.9596 -0.0227667 22.5346 0.0878089 23.0605 0.326537C23.5037 1.56107 23.6956 2.78542 23.069 4.01317Z" fill="#37474F"/>
<path d="M14.9777 7.88488C14.9777 7.88488 13.6192 7.42639 14.1779 5.24939C13.5917 6.45241 13.2725 7.76794 13.2422 9.10584L13.9979 9.09735C14.048 9.0511 14.0945 9.00115 14.1371 8.94791C14.3205 8.71017 14.6635 8.5913 14.8163 8.23809C14.8656 8.11583 14.9216 8.00036 14.9777 7.88488Z" fill="#263238"/>
<path d="M21.6766 5.68582C22.249 5.22738 22.7226 4.65783 23.0691 4.01147C23.6889 2.78373 23.5055 1.55938 23.0691 0.321442C24.4683 0.93956 25.3038 2.75825 25.6163 4.22713C25.7861 5.04903 25.8064 5.75545 25.6672 6.09507C25.2749 7.01885 22.9774 10.7513 13.1367 9.10755L13.1469 8.07339C15.6109 7.92056 19.9139 7.16999 21.6766 5.68582Z" fill="#37474F"/>
<path d="M23.0691 4.01317C23.0691 4.01317 23.1862 1.13654 21.3828 0.00389246C21.9597 -0.0227667 22.5347 0.0878089 23.0606 0.326537C23.5038 1.56108 23.6957 2.78542 23.0691 4.01317Z" fill="#263238"/>
<path d="M14.6952 8.42153C14.6845 8.32161 14.6474 8.22635 14.5877 8.14549C14.528 8.06463 14.4479 8.00107 14.3556 7.96133C14.0288 7.84659 13.6826 7.79698 13.3367 7.81529C12.9811 7.79697 12.6256 7.85487 12.2941 7.98511C12.2091 8.02597 12.1362 8.08809 12.0824 8.16545C12.0285 8.24281 11.9956 8.33278 11.9867 8.42662C11.9511 8.73568 11.929 9.2587 12.1328 9.55588C12.4685 9.84344 12.8982 9.99755 13.3401 9.9889C13.7802 9.99844 14.2081 9.84411 14.5407 9.55588C14.7428 9.25361 14.7224 8.73059 14.6952 8.42153Z" fill="#455A64"/>
</svg>
