<svg width="310" height="164" viewBox="0 0 310 164" fill="none" xmlns="http://www.w3.org/2000/svg">
<path d="M243.734 2.00183C243.734 2.00183 243.539 5.52685 246.161 7.48819L248.904 6.65243C248.904 6.65243 247.071 5.77623 246.161 2.00183H243.734Z" fill="#455A64"/>
<path d="M266.596 36.5826C266.596 36.5826 266.401 40.1076 269.023 42.069L271.766 41.2332C271.766 41.2332 269.932 40.357 269.023 36.5826H266.596Z" fill="#455A64"/>
<path d="M295.026 98.3097C295.026 98.3097 293.428 101.457 290.18 101.848L288.218 99.7453C288.218 99.7453 290.24 99.9071 292.936 97.0965L295.026 98.3097Z" fill="#455A64"/>
<path d="M199.776 19.418C199.776 19.418 198.179 22.5656 194.923 22.9565L192.962 20.8469C192.962 20.8469 194.984 21.0086 197.68 18.1981L199.776 19.418Z" fill="#455A64"/>
<path d="M0.831543 8.93054C0.831543 8.93054 2.42892 12.0849 5.68434 12.469L7.61198 10.3729C7.61198 10.3729 5.58998 10.5279 2.89398 7.71734L0.831543 8.93054Z" fill="#455A64"/>
<path d="M3.76999 94.0905C3.76999 94.0905 5.37411 97.238 8.62279 97.6222L10.5774 95.5261C10.5774 95.5261 8.55539 95.6811 5.85939 92.8705L3.76999 94.0905Z" fill="#455A64"/>
<path d="M87.7817 19.8291C87.7817 19.8291 89.3791 22.9835 92.6346 23.3676L94.5892 21.2715C94.5892 21.2715 92.5672 21.4265 89.8711 18.6159L87.7817 19.8291Z" fill="#455A64"/>
<path d="M181.632 0.208978C178.781 -0.0741016 174.939 4.6776 177.723 6.94898C179.266 8.22284 182.643 7.67016 182.603 5.29768C182.595 5.23286 182.566 5.17228 182.521 5.12492C182.477 5.07756 182.418 5.04596 182.353 5.03482C180.116 4.52258 177.898 5.47966 178.276 8.09478C178.479 9.2149 179.056 10.2329 179.913 10.9822C180.77 11.7315 181.856 12.1678 182.994 12.2197C183.128 12.2197 183.081 11.9838 182.994 11.9635C181.046 11.5524 179.206 10.3392 178.821 8.25654C178.736 7.88785 178.729 7.50525 178.801 7.13364C178.873 6.76204 179.022 6.40977 179.239 6.09974C179.507 5.77919 179.863 5.54475 180.264 5.42574C180.594 5.3179 181.794 5.12918 182.057 5.42574C182.589 5.97168 181.16 6.89506 180.709 7.0366C180.287 7.1904 179.837 7.24843 179.391 7.20646C178.944 7.16449 178.513 7.02358 178.127 6.79396C176.948 5.97168 177.238 4.408 177.81 3.30264C178.153 2.54078 178.692 1.88352 179.371 1.39801C180.051 0.912494 180.847 0.616144 181.679 0.539238C181.841 0.539238 181.76 0.235939 181.632 0.229199V0.208978Z" fill="#BA68C8"/>
<path d="M230.806 41.5278C230.806 38.8857 229.728 36.6345 232.269 34.6597C233.388 33.7902 236.232 32.1996 237.661 32.9073C237.944 33.107 238.149 33.3994 238.24 33.7341C238.331 34.0688 238.303 34.4247 238.16 34.7406C237.708 35.7246 236.812 35.1719 236.306 34.5519C235.869 33.9631 235.626 33.2526 235.611 32.5192C235.597 31.7859 235.811 31.0663 236.225 30.4607C237.081 29.1452 238.399 28.1986 239.919 27.808C241.439 27.4174 243.05 27.6112 244.434 28.3511C244.596 28.4387 244.637 28.223 244.536 28.1286C240.148 24.0375 231.143 32.1322 236.63 35.5022C238.294 36.5267 239.541 34.444 238.523 33.0421C237.398 31.4919 234.479 32.8534 233.246 33.5004C231.934 34.0751 230.88 35.1145 230.287 36.4188C229.613 38.0432 230.287 39.8899 230.665 41.5008C230.665 41.5749 230.799 41.6423 230.799 41.5008L230.806 41.5278Z" fill="#BA68C8"/>
<path d="M284.244 12.3491C288.888 10.9346 295.281 11.3589 299.184 14.5414C302.177 16.9743 303.897 22.2926 299.463 24.103C297.715 24.8244 291.994 24.8244 291.294 22.4199C290.819 20.7508 292.595 19.7607 294.008 19.591C298.204 18.9403 302.079 23.3817 301.981 27.3421C301.841 33.2969 294.987 35.263 290.133 35.3196C289.812 35.3196 289.896 35.9136 290.133 35.9419C298.386 36.7481 307.59 29.0253 300.261 21.2742C298.288 19.1949 295.197 17.7098 292.357 18.8555C290.749 19.5061 289.476 20.9771 290.273 22.7452C291.56 25.5741 296.75 26.0691 299.253 25.3336C299.919 25.1568 300.542 24.8435 301.083 24.413C301.624 23.9826 302.072 23.4442 302.399 22.8313C302.725 22.2185 302.924 21.5443 302.982 20.8506C303.04 20.1569 302.957 19.4585 302.736 18.7989C300.708 11.2599 290.287 9.6899 284.105 11.953C283.923 11.953 283.993 12.4622 284.202 12.3915L284.244 12.3491Z" fill="#BA68C8"/>
<path d="M306.565 104.342C310.218 104.639 309.557 111.561 306.612 112.497C306.253 112.62 305.861 112.596 305.52 112.43C305.299 112.27 305.121 112.058 305.003 111.812C304.886 111.565 304.831 111.294 304.846 111.021C305.196 109.828 307.158 111.338 307.414 111.803C307.798 112.41 307.979 113.124 307.929 113.84C307.879 114.557 307.602 115.239 307.137 115.787C305.634 117.431 302.77 117.492 300.89 116.548C300.788 116.494 300.775 116.676 300.842 116.723C302.864 118.017 306.234 117.829 307.744 115.78C308.944 114.142 308.115 109.795 305.5 110.179C303.067 110.536 304.752 113.306 306.598 112.942C308.445 112.578 309.106 110.125 309.294 108.608C309.523 106.701 308.951 104.12 306.598 104.167C306.524 104.167 306.531 104.329 306.598 104.335L306.565 104.342Z" fill="#BA68C8"/>
<path d="M219.922 9.51693C219.922 9.51693 216.417 9.94829 214.28 7.49493L214.954 4.70457C214.954 4.70457 215.959 6.47045 219.78 7.12423L219.922 9.51693Z" fill="#BA68C8"/>
<path d="M153.229 26.2836C153.229 26.2836 149.724 26.7217 147.588 24.2616L148.262 21.4645C148.262 21.4645 149.266 23.2304 153.094 23.8842L153.229 26.2836Z" fill="#BA68C8"/>
<path d="M307.865 80.2937C307.865 80.2937 304.361 80.7318 302.224 78.2717L302.898 75.4746C302.898 75.4746 303.902 77.2472 307.731 77.901L307.865 80.2937Z" fill="#BA68C8"/>
<path d="M126.661 3.81489C130.064 3.47789 134.668 9.16645 131.338 11.9029C129.491 13.4261 125.454 12.7656 125.495 9.92807C125.506 9.85025 125.541 9.7779 125.595 9.72111C125.65 9.66432 125.721 9.62592 125.798 9.61129C128.494 8.99795 131.129 10.1438 130.671 13.2711C130.432 14.6101 129.745 15.8281 128.722 16.7247C127.699 17.6213 126.402 18.1433 125.043 18.2048C124.881 18.2048 124.935 17.9284 125.043 17.9015C127.375 17.4095 129.579 15.9604 130.037 13.4666C130.14 13.025 130.148 12.5666 130.061 12.1217C129.974 11.6767 129.794 11.2553 129.532 10.8851C129.213 10.5001 128.789 10.2167 128.312 10.0696C127.914 9.94829 126.479 9.71913 126.162 10.0696C125.528 10.7436 127.24 11.822 127.746 11.9973C128.249 12.1786 128.786 12.2467 129.318 12.1966C129.851 12.1465 130.365 11.9795 130.826 11.7074C132.241 10.7167 131.891 8.84967 131.21 7.52863C130.287 5.74253 128.662 4.28669 126.58 4.21929C126.391 4.21929 126.492 3.86207 126.64 3.84859L126.661 3.81489Z" fill="#BA68C8"/>
<path d="M33.0419 8.51268C31.121 7.95326 28.4789 8.10828 26.8613 9.4091C25.6212 10.4066 24.9135 12.5769 26.7467 13.325C27.4679 13.6149 29.8404 13.6149 30.1167 12.651C30.3189 11.977 29.5843 11.5659 28.9979 11.4783C27.2725 11.2087 25.6616 13.0285 25.6953 14.6528C25.756 17.086 28.5935 17.8948 30.602 17.915C30.7301 17.915 30.6964 18.1644 30.602 18.1711C27.1848 18.5014 23.3767 15.3403 26.4097 12.1658C27.2185 11.33 28.5059 10.6897 29.6719 11.1615C30.3459 11.4244 30.8649 12.0242 30.5346 12.7521C30.0022 13.9114 27.8386 14.1001 26.8141 13.8103C26.5364 13.738 26.2766 13.6088 26.0513 13.431C25.826 13.2531 25.64 13.0305 25.5051 12.7771C25.3702 12.5238 25.2893 12.2452 25.2675 11.959C25.2457 11.6728 25.2835 11.3852 25.3785 11.1143C26.2143 8.04762 30.5279 7.40732 33.0891 8.3307C33.1632 8.3307 33.1363 8.53964 33.0419 8.51268Z" fill="#BA68C8"/>
<path d="M72.3159 52.2081C75.0119 53.0034 77.472 57.6944 75.0119 59.8378C72.9023 61.6576 68.6426 61.2397 69.3503 57.7753C69.3579 57.7366 69.3756 57.7006 69.4017 57.671C69.4277 57.6414 69.4612 57.6192 69.4986 57.6068C72.2957 56.9328 73.2191 60.2017 72.6327 62.3653C71.7161 65.7353 68.3393 65.6746 65.8927 63.9222C65.8118 63.8615 65.8523 63.6324 65.9669 63.6863C67.9889 64.6906 70.7657 65.5735 71.9857 63.0123C72.6597 61.6643 72.6597 59.3929 71.3993 58.3415C71.0721 58.0352 70.641 57.8642 70.1928 57.8629C69.2627 57.9775 69.4245 58.9885 69.9502 59.6221C70.786 60.6466 72.4709 60.5387 73.5965 60.1411C77.4383 58.7931 74.7963 53.7987 72.289 52.3968C72.2148 52.3564 72.2351 52.1609 72.3362 52.1946L72.3159 52.2081Z" fill="#BA68C8"/>
<path d="M6.19908 34.2598C0.640785 34.6968 1.63864 45.0554 6.13311 46.4554C6.40777 46.5537 6.69985 46.5965 6.99179 46.5812C7.28373 46.5659 7.5695 46.4928 7.83194 46.3664C8.16556 46.1262 8.43247 45.8077 8.60824 45.4402C8.78401 45.0726 8.86302 44.6676 8.83804 44.2623C8.31025 42.4819 5.31668 44.7317 4.92084 45.4276C4.34272 46.3378 4.07286 47.4042 4.14989 48.474C4.22692 49.5439 4.64688 50.5624 5.34967 51.3838C7.63402 53.8116 12.0048 53.933 14.8664 52.5168C15.0148 52.444 15.0396 52.7191 14.9406 52.7839C11.8646 54.7261 6.69389 54.4024 4.42604 51.3757C2.59526 48.9479 3.85701 42.4172 7.84019 42.9917C11.5512 43.5339 8.98648 47.6774 6.19084 47.1271C3.39519 46.5768 2.36435 42.9189 2.06747 40.653C1.72935 37.7963 2.59526 33.9361 6.19084 34.0008C6.30629 34.0008 6.29805 34.2517 6.19084 34.2598H6.19908Z" fill="#BA68C8"/>
<path d="M30.3123 34.8526C30.3123 34.8526 33.8171 35.2907 35.9537 32.8306L35.2797 30.0335C35.2797 30.0335 34.2754 31.8061 30.4471 32.4531L30.3123 34.8526Z" fill="#BA68C8"/>
<path d="M90.0286 5.5875C90.0286 5.5875 93.5334 6.0256 95.67 3.5655L94.996 0.768402C94.996 0.768402 93.9985 2.54102 90.1702 3.18806L90.0286 5.5875Z" fill="#BA68C8"/>
<g opacity="0.4">
<path opacity="0.4" d="M181.632 0.208978C178.781 -0.0741016 174.939 4.6776 177.723 6.94898C179.266 8.22284 182.643 7.67016 182.603 5.29768C182.595 5.23286 182.566 5.17228 182.521 5.12492C182.477 5.07756 182.418 5.04596 182.353 5.03482C180.116 4.52258 177.898 5.47966 178.276 8.09478C178.479 9.2149 179.056 10.2329 179.913 10.9822C180.77 11.7315 181.856 12.1678 182.993 12.2197C183.128 12.2197 183.081 11.9838 182.993 11.9635C181.046 11.5524 179.206 10.3392 178.821 8.25654C178.736 7.88785 178.729 7.50525 178.801 7.13364C178.873 6.76204 179.022 6.40977 179.239 6.09974C179.507 5.77919 179.863 5.54475 180.264 5.42574C180.594 5.3179 181.794 5.12918 182.057 5.42574C182.589 5.97168 181.16 6.89506 180.709 7.0366C180.287 7.1904 179.837 7.24843 179.391 7.20646C178.944 7.16449 178.512 7.02358 178.127 6.79396C176.948 5.97168 177.238 4.408 177.81 3.30264C178.153 2.54078 178.692 1.88352 179.371 1.39801C180.051 0.912494 180.847 0.616144 181.679 0.539238C181.841 0.539238 181.76 0.235939 181.632 0.229199V0.208978Z" fill="white"/>
<path opacity="0.4" d="M306.565 104.342C310.218 104.639 309.557 111.561 306.612 112.497C306.253 112.62 305.861 112.596 305.52 112.43C305.299 112.27 305.121 112.058 305.003 111.812C304.886 111.565 304.831 111.294 304.846 111.021C305.196 109.828 307.158 111.338 307.414 111.803C307.798 112.41 307.979 113.124 307.929 113.84C307.879 114.557 307.602 115.239 307.137 115.787C305.634 117.431 302.77 117.492 300.89 116.548C300.788 116.494 300.775 116.676 300.842 116.723C302.864 118.017 306.234 117.829 307.744 115.78C308.944 114.142 308.115 109.795 305.5 110.179C303.067 110.536 304.752 113.306 306.598 112.942C308.445 112.578 309.106 110.125 309.294 108.608C309.523 106.701 308.951 104.12 306.598 104.167C306.524 104.167 306.531 104.329 306.598 104.335L306.565 104.342Z" fill="white"/>
<path opacity="0.4" d="M219.922 9.51693C219.922 9.51693 216.417 9.94829 214.28 7.49493L214.954 4.70457C214.954 4.70457 215.959 6.47045 219.78 7.12423L219.922 9.51693Z" fill="white"/>
<path opacity="0.4" d="M307.865 80.2937C307.865 80.2937 304.361 80.7318 302.224 78.2717L302.898 75.4746C302.898 75.4746 303.902 77.2472 307.731 77.901L307.865 80.2937Z" fill="white"/>
<path opacity="0.4" d="M126.661 3.81489C130.064 3.47789 134.668 9.16645 131.338 11.9029C129.491 13.4261 125.454 12.7656 125.495 9.92807C125.506 9.85025 125.541 9.7779 125.595 9.72111C125.65 9.66432 125.721 9.62592 125.798 9.61129C128.494 8.99795 131.129 10.1438 130.671 13.2711C130.432 14.6101 129.745 15.8281 128.722 16.7247C127.699 17.6213 126.402 18.1433 125.043 18.2048C124.881 18.2048 124.935 17.9284 125.043 17.9015C127.375 17.4095 129.579 15.9604 130.037 13.4666C130.14 13.025 130.148 12.5666 130.061 12.1217C129.974 11.6767 129.794 11.2553 129.532 10.8851C129.213 10.5001 128.789 10.2167 128.312 10.0696C127.914 9.94829 126.479 9.71913 126.162 10.0696C125.528 10.7436 127.24 11.822 127.746 11.9973C128.249 12.1786 128.786 12.2467 129.318 12.1966C129.851 12.1465 130.365 11.9795 130.826 11.7074C132.241 10.7167 131.891 8.84967 131.21 7.52863C130.287 5.74253 128.662 4.28669 126.58 4.21929C126.391 4.21929 126.492 3.86207 126.64 3.84859L126.661 3.81489Z" fill="white"/>
<path opacity="0.4" d="M72.3159 52.2081C75.0119 53.0034 77.472 57.6944 75.0119 59.8378C72.9023 61.6576 68.6426 61.2397 69.3503 57.7753C69.3579 57.7366 69.3756 57.7006 69.4017 57.671C69.4277 57.6414 69.4612 57.6192 69.4986 57.6068C72.2957 56.9328 73.2191 60.2017 72.6327 62.3653C71.7161 65.7353 68.3393 65.6746 65.8927 63.9222C65.8118 63.8615 65.8523 63.6324 65.9669 63.6863C67.9889 64.6906 70.7657 65.5735 71.9857 63.0123C72.6597 61.6643 72.6597 59.3929 71.3993 58.3415C71.0721 58.0352 70.641 57.8642 70.1928 57.8629C69.2627 57.9775 69.4245 58.9885 69.9502 59.6221C70.786 60.6466 72.4709 60.5387 73.5965 60.1411C77.4383 58.7931 74.7963 53.7987 72.289 52.3968C72.2148 52.3564 72.2351 52.1609 72.3362 52.1946L72.3159 52.2081Z" fill="white"/>
<path opacity="0.4" d="M30.3123 34.8526C30.3123 34.8526 33.8171 35.2907 35.9537 32.8306L35.2797 30.0335C35.2797 30.0335 34.2754 31.8061 30.4471 32.4531L30.3123 34.8526Z" fill="white"/>
<path opacity="0.4" d="M90.0286 5.5875C90.0286 5.5875 93.5334 6.0256 95.67 3.5655L94.996 0.768402C94.996 0.768402 93.9985 2.54102 90.1702 3.18806L90.0286 5.5875Z" fill="white"/>
</g>
<path d="M60.231 13.3833C60.231 13.3833 61.8283 16.5309 65.077 16.9151L67.0384 14.8189C67.0384 14.8189 64.6389 15.1896 61.9631 12.379L60.231 13.3833Z" fill="#455A64"/>
<path d="M24.3982 62.9416C24.3982 62.9416 22.4037 65.8508 23.6176 68.8892L26.4003 69.6023C25.7108 67.8062 25.6093 65.8376 26.1104 63.9802L24.3982 62.9416Z" fill="#37474F"/>
<path d="M257.995 158.444C256.952 156.658 255.71 154.981 254.622 153.22C254.363 152.796 254.123 152.367 253.889 151.917C253.383 150.804 252.979 149.646 252.681 148.46C251.214 143.261 252.357 138.266 253.145 133.072C253.475 130.916 253.395 128.626 251.888 126.915C251.758 126.765 251.673 127.049 251.748 127.149C253.115 129.07 252.881 131.5 252.477 133.69C252.073 135.881 251.618 138.061 251.429 140.287C251.128 143.277 251.411 146.296 252.262 149.178C253.23 151.992 254.628 154.638 256.408 157.022L256.723 157.456C257.656 158.718 258.664 159.976 259.148 161.473C259.342 161.238 259.238 160.884 259.113 160.599C258.781 159.86 258.408 159.141 257.995 158.444V158.444Z" fill="#E0E0E0"/>
<path d="M261.867 131.934C260.615 126.525 258.16 121.501 256.409 116.257C254.598 110.736 253.813 104.931 254.093 99.1276C254.368 92.3917 255.785 85.8304 256.898 79.2092C256.898 79.0695 256.773 78.9597 256.728 79.1344C255.223 85.0156 254.187 91.0069 253.629 97.052C253.13 102.99 253.46 108.962 255.181 114.69C256.748 119.909 259.143 124.844 260.625 130.093C261.403 132.684 261.814 135.371 261.847 138.076C261.754 141.034 261.271 143.967 260.41 146.798C258.719 152.95 256.952 157.246 259.412 163.553C259.487 163.738 259.632 163.553 259.602 163.413C258.105 157.426 259.233 153.933 260.864 148.185C261.727 145.425 262.297 142.582 262.566 139.703C262.717 137.093 262.482 134.475 261.867 131.934V131.934Z" fill="#E0E0E0"/>
<path d="M269.501 99.1326C269.112 101.428 267.885 103.523 267.051 105.689C266.256 107.669 265.788 109.766 265.664 111.896C265.465 116.007 266.438 120.274 267.326 124.27C268.214 128.267 269.192 132.109 268.823 136.245C268.566 138.4 268.055 140.517 267.301 142.552C266.574 144.635 265.662 146.649 264.577 148.569C263.524 150.441 262.291 152.167 261.214 154.018C260.658 154.982 260.168 155.982 259.747 157.012C259.485 157.601 259.286 158.217 259.153 158.848C259.012 159.361 258.93 159.888 258.908 160.42C258.908 161.173 259.173 160.969 259.228 160.709C259.39 159.9 259.611 159.105 259.891 158.329C260.246 157.322 260.678 156.345 261.184 155.405C262.182 153.544 263.374 151.813 264.482 150.021C265.619 148.172 266.578 146.219 267.346 144.189C267.73 143.191 268.069 142.143 268.394 141.105C268.728 140.088 268.993 139.049 269.187 137.997C269.866 133.97 269.152 129.883 268.294 125.932C267.411 121.88 266.298 117.824 266.188 113.662C266.113 111.552 266.384 109.443 266.992 107.42C267.67 105.21 268.728 103.119 269.312 100.879C269.449 100.327 269.554 99.7669 269.626 99.2025C269.636 99.1127 269.521 99.0328 269.501 99.1326Z" fill="#E0E0E0"/>
<path d="M255.794 80.0125C255.761 80.4418 255.572 80.8442 255.264 81.1445C254.955 81.4448 254.548 81.6224 254.118 81.6441C253.904 81.6513 253.692 81.6031 253.503 81.5044C253.313 81.4056 253.152 81.2595 253.035 81.0803C252.965 80.9356 252.94 80.756 253.105 80.6662C253.235 80.6137 253.38 80.6137 253.509 80.6662C253.759 80.7397 253.971 80.908 254.098 81.1352C254.183 81.3119 254.23 81.5039 254.238 81.6996C254.245 81.8954 254.213 82.0906 254.142 82.2733C254.072 82.456 253.965 82.6223 253.827 82.7621C253.69 82.9019 253.526 83.0121 253.345 83.0861C253.157 83.1482 252.957 83.162 252.762 83.1262C252.568 83.0905 252.385 83.0063 252.232 82.8815C252.094 82.7681 251.995 82.6147 251.948 82.4425C251.898 82.2179 251.982 81.8637 252.302 82.0134C252.494 82.1332 252.637 82.3175 252.706 82.5333C252.774 82.749 252.764 82.9822 252.676 83.1909C252.552 83.4514 252.332 83.6534 252.062 83.754C251.792 83.8546 251.493 83.8459 251.229 83.7298C251.069 83.6649 251.074 83.9543 251.184 84.0142C251.455 84.1643 251.77 84.2117 252.073 84.1475C252.375 84.0833 252.645 83.9119 252.831 83.6649C252.988 83.4243 253.066 83.1408 253.054 82.8537C253.043 82.5667 252.942 82.2904 252.766 82.0633C252.691 81.9444 252.59 81.8444 252.471 81.7708C252.352 81.6973 252.217 81.6522 252.077 81.6391C251.958 81.6429 251.843 81.6875 251.752 81.7656C251.661 81.8437 251.6 81.9505 251.578 82.0682C251.434 82.6371 251.938 83.1859 252.422 83.3955C253.669 83.9294 254.831 82.672 254.522 81.4346C254.448 81.1153 254.271 80.8291 254.019 80.62C253.767 80.4109 253.453 80.2904 253.125 80.277C252.993 80.277 252.866 80.3296 252.772 80.4231C252.679 80.5167 252.626 80.6436 252.626 80.7759C252.625 80.933 252.661 81.088 252.731 81.2285C252.802 81.3689 252.904 81.4908 253.03 81.5843C253.284 81.8003 253.594 81.9402 253.924 81.9879C254.255 82.0356 254.591 81.989 254.896 81.8537C255.234 81.687 255.514 81.4241 255.702 81.0983C255.891 80.7724 255.978 80.3981 255.954 80.0225C255.954 79.8928 255.794 79.8728 255.775 80.0225L255.794 80.0125Z" fill="#E0E0E0"/>
<path d="M254.472 79.7431C254.542 78.9797 256.308 77.0288 256.613 77.0537C256.917 77.0787 258.155 79.2591 258.08 80.0475C258.05 80.2045 257.98 80.3509 257.876 80.4719C257.772 80.5929 257.637 80.684 257.486 80.736C257.073 80.9021 256.627 80.9679 256.184 80.928C255.74 80.8881 255.313 80.7436 254.936 80.5065C254.796 80.4283 254.679 80.314 254.597 80.1754C254.516 80.0368 254.472 79.879 254.472 79.7181V79.7431Z" fill="#BA68C8"/>
<path opacity="0.2" d="M254.472 79.7431C254.542 78.9797 256.308 77.0288 256.613 77.0537C256.917 77.0787 258.155 79.2591 258.08 80.0475C258.05 80.2045 257.98 80.3509 257.876 80.4719C257.772 80.5929 257.637 80.684 257.486 80.736C257.073 80.9021 256.627 80.9679 256.184 80.928C255.74 80.8881 255.313 80.7436 254.936 80.5065C254.796 80.4283 254.679 80.314 254.597 80.1754C254.516 80.0368 254.472 79.879 254.472 79.7181V79.7431Z" fill="white"/>
<path d="M247.283 62.3843C246.749 68.2271 250.661 76.0159 256.528 77.9568C262.71 76.8292 267.9 70.1481 268.429 64.3053C268.957 58.4625 265.694 52.6696 258.878 52.0509C252.063 51.4322 247.812 56.5465 247.283 62.3843Z" fill="#BA68C8"/>
<path opacity="0.3" d="M247.283 62.3843C246.749 68.2271 250.661 76.0159 256.528 77.9568C262.71 76.8292 267.9 70.1481 268.429 64.3053C268.957 58.4625 265.694 52.6696 258.878 52.0509C252.063 51.4322 247.812 56.5465 247.283 62.3843Z" fill="#A985F4"/>
<path opacity="0.1" d="M267.7 67.314C267.7 67.314 265.615 72.7776 258.639 72.598C251.918 72.4234 247.163 64.6147 247.792 59.7498C247.535 60.6084 247.368 61.4913 247.293 62.3843C246.759 68.2271 250.671 76.0159 256.539 77.9568C261.653 77.0138 266.094 72.2687 267.77 67.349L267.7 67.314Z" fill="black"/>
<path d="M251.379 129.265C251.418 129.583 251.375 129.905 251.255 130.202C251.134 130.499 250.939 130.759 250.689 130.959C250.439 131.159 250.142 131.292 249.826 131.345C249.51 131.398 249.186 131.369 248.884 131.261C248.41 131.066 247.727 130.377 248.33 129.908C248.468 129.836 248.621 129.798 248.777 129.798C248.932 129.798 249.086 129.836 249.223 129.908C249.54 130.019 249.805 130.243 249.967 130.537C250.111 130.803 250.181 131.102 250.17 131.404C250.16 131.705 250.068 131.999 249.906 132.253C249.744 132.508 249.516 132.715 249.247 132.851C248.978 132.988 248.677 133.051 248.375 133.032C248.094 133.013 247.825 132.906 247.607 132.727C247.389 132.549 247.232 132.306 247.158 132.034C247.125 131.907 247.133 131.772 247.181 131.65C247.23 131.528 247.315 131.425 247.427 131.354C247.538 131.284 247.668 131.252 247.799 131.261C247.931 131.27 248.055 131.32 248.156 131.405C248.425 131.594 248.614 131.876 248.688 132.197C248.762 132.517 248.714 132.854 248.555 133.142C248.381 133.422 248.111 133.63 247.795 133.726C247.479 133.823 247.139 133.801 246.838 133.666C246.694 133.596 246.898 133.381 247.018 133.416C247.224 133.492 247.45 133.501 247.661 133.441C247.873 133.381 248.06 133.255 248.196 133.082C248.306 132.917 248.365 132.724 248.365 132.525C248.365 132.327 248.306 132.134 248.196 131.969C248.101 131.804 247.891 131.56 247.697 131.59C247.582 131.59 247.577 131.59 247.557 131.715C247.549 131.763 247.549 131.811 247.557 131.859C247.562 131.976 247.597 132.089 247.657 132.189C247.763 132.344 247.907 132.47 248.074 132.557C248.241 132.644 248.426 132.689 248.615 132.688C249.513 132.688 249.977 131.63 249.707 130.871C249.639 130.657 249.507 130.468 249.329 130.331C249.151 130.193 248.934 130.114 248.709 130.103C248.365 130.103 248.53 130.507 248.665 130.667C248.832 130.849 249.048 130.979 249.288 131.041C250.366 131.335 251.159 130.357 251.219 129.365C251.219 129.28 251.409 129.14 251.424 129.28L251.379 129.265Z" fill="#E0E0E0"/>
<path d="M253.919 129.34C253.919 128.576 252.278 126.5 251.978 126.505C251.679 126.51 250.282 128.591 250.297 129.409C250.315 129.569 250.375 129.72 250.47 129.849C250.566 129.978 250.693 130.079 250.841 130.143C251.241 130.337 251.682 130.433 252.126 130.425C252.571 130.416 253.008 130.302 253.4 130.093C253.543 130.023 253.664 129.916 253.751 129.784C253.839 129.651 253.89 129.498 253.899 129.34H253.919Z" fill="#BA68C8"/>
<g opacity="0.2">
<path opacity="0.2" d="M253.919 129.34C253.919 128.576 252.278 126.5 251.978 126.505C251.679 126.51 250.282 128.591 250.297 129.409C250.315 129.569 250.375 129.72 250.47 129.849C250.566 129.978 250.693 130.079 250.841 130.143C251.241 130.337 251.682 130.433 252.126 130.425C252.571 130.416 253.008 130.302 253.4 130.093C253.543 130.023 253.664 129.916 253.751 129.784C253.839 129.651 253.89 129.498 253.899 129.34H253.919Z" fill="white"/>
</g>
<path d="M262.336 112.545C262.446 118.407 257.985 125.897 251.993 127.414C245.91 125.832 241.215 118.807 241.105 112.944C240.996 107.081 244.668 101.533 251.509 101.403C258.349 101.273 262.226 106.682 262.336 112.545Z" fill="#BA68C8"/>
<path opacity="0.3" d="M262.336 112.545C262.446 118.407 257.985 125.897 251.993 127.414C245.91 125.832 241.215 118.807 241.105 112.944C240.996 107.081 244.668 101.533 251.509 101.403C258.349 101.273 262.226 106.682 262.336 112.545Z" fill="#A985F4"/>
<path opacity="0.1" d="M241.619 115.997C241.619 115.997 243.306 121.591 250.276 121.915C256.992 122.219 262.311 114.755 262.017 109.88C262.214 110.755 262.321 111.648 262.336 112.545C262.446 118.407 257.985 125.897 251.993 127.414C246.953 126.101 242.867 121.052 241.549 116.022L241.619 115.997Z" fill="black"/>
<path d="M269.092 104.461C268.883 104.707 268.741 105.002 268.68 105.319C268.619 105.636 268.641 105.963 268.744 106.268C268.847 106.574 269.028 106.847 269.268 107.062C269.508 107.277 269.8 107.426 270.115 107.495C270.589 107.59 271.467 107.45 271.342 106.772C271.218 106.093 270.18 106.038 269.691 106.273C269.417 106.4 269.182 106.599 269.012 106.849C268.842 107.098 268.742 107.389 268.724 107.691C268.705 107.993 268.769 108.294 268.907 108.562C269.046 108.831 269.255 109.057 269.511 109.217C269.747 109.357 270.017 109.427 270.291 109.419C270.565 109.411 270.831 109.325 271.058 109.172C271.169 109.1 271.253 108.995 271.3 108.872C271.347 108.749 271.353 108.614 271.318 108.488C271.283 108.361 271.208 108.248 271.105 108.167C271.002 108.085 270.875 108.039 270.744 108.034C270.401 108.019 270.066 108.137 269.809 108.364C269.552 108.591 269.393 108.91 269.367 109.251C269.361 109.58 269.474 109.901 269.684 110.153C269.895 110.406 270.19 110.575 270.514 110.629C270.689 110.654 270.629 110.374 270.514 110.339C270.305 110.295 270.116 110.185 269.974 110.025C269.832 109.865 269.745 109.664 269.726 109.451C269.707 109.239 269.757 109.025 269.868 108.843C269.98 108.66 270.147 108.519 270.345 108.438C270.484 108.378 270.993 108.234 271.018 108.528C271.018 108.708 270.769 108.907 270.629 108.967C270.453 109.041 270.262 109.068 270.072 109.047C269.883 109.026 269.702 108.958 269.546 108.847C268.858 108.348 269.022 107.296 269.596 106.797C269.759 106.647 269.959 106.544 270.175 106.497C270.312 106.472 270.454 106.475 270.59 106.506C270.726 106.537 270.855 106.595 270.968 106.677C271.218 106.926 270.734 107.151 270.549 107.176C270.328 107.214 270.1 107.192 269.89 107.111C268.863 106.737 268.768 105.504 269.247 104.661C269.297 104.566 269.192 104.367 269.097 104.481L269.092 104.461Z" fill="#E0E0E0"/>
<path d="M266.273 104.137C266.403 103.384 268.329 101.582 268.628 101.642C268.927 101.702 269.98 103.963 269.84 104.766C269.799 104.921 269.717 105.062 269.603 105.175C269.489 105.288 269.347 105.369 269.192 105.41C268.766 105.541 268.315 105.569 267.876 105.492C267.437 105.414 267.023 105.234 266.667 104.965C266.533 104.877 266.426 104.753 266.356 104.608C266.287 104.463 266.258 104.302 266.273 104.142V104.137Z" fill="#BA68C8"/>
<path opacity="0.3" d="M266.273 104.137C266.403 103.384 268.329 101.582 268.628 101.642C268.927 101.702 269.98 103.963 269.84 104.766C269.799 104.921 269.717 105.062 269.603 105.175C269.489 105.288 269.347 105.369 269.192 105.41C268.766 105.541 268.315 105.569 267.876 105.492C267.437 105.414 267.023 105.234 266.667 104.965C266.533 104.877 266.426 104.753 266.356 104.608C266.287 104.463 266.258 104.302 266.273 104.142V104.137Z" fill="black"/>
<path d="M260.53 86.2495C259.532 92.0225 262.775 100.111 268.458 102.531C274.715 101.907 280.433 95.6848 281.431 89.9069C282.429 84.1289 279.665 78.0865 272.949 76.904C266.233 75.7215 261.538 80.4716 260.53 86.2495Z" fill="#A684EE"/>
<path opacity="0.1" d="M280.468 92.8458C280.468 92.8458 277.943 98.1148 270.988 97.3613C264.307 96.6328 260.196 88.435 261.238 83.6599C260.911 84.4966 260.668 85.3642 260.515 86.2495C259.517 92.0225 262.76 100.111 268.443 102.531C273.627 102.032 278.422 97.6507 280.518 92.8807L280.468 92.8458Z" fill="black"/>
</svg>
