<svg width="175" height="126" viewBox="0 0 175 126" fill="none" xmlns="http://www.w3.org/2000/svg">
<path opacity="0.8" d="M136.079 78.4553L116.323 78.3642C115.758 78.3629 115.198 78.2506 114.677 78.0337C114.155 77.8169 113.682 77.4997 113.284 77.1005C112.886 76.7012 112.571 76.2278 112.357 75.7073C112.144 75.1868 112.036 74.6295 112.04 74.0675L112.25 24.9718C112.253 24.4107 112.367 23.8557 112.586 23.3385C112.805 22.8213 113.124 22.352 113.525 21.9575C113.927 21.563 114.403 21.251 114.925 21.0394C115.448 20.8277 116.008 20.7205 116.572 20.724L136.328 20.8118C137.467 20.8162 138.559 21.2696 139.362 22.0726C140.166 22.8757 140.616 23.9628 140.614 25.0955L140.405 74.1945C140.403 74.7568 140.29 75.3133 140.071 75.832C139.853 76.3507 139.534 76.8215 139.132 77.2174C138.73 77.6132 138.253 77.9263 137.73 78.1387C137.206 78.3511 136.645 78.4587 136.079 78.4553Z" fill="#669F76"/>
<path opacity="0.8" d="M137.079 78.4553L117.323 78.3642C116.758 78.3629 116.198 78.2506 115.677 78.0337C115.155 77.8169 114.682 77.4997 114.284 77.1005C113.886 76.7012 113.571 76.2278 113.357 75.7073C113.144 75.1868 113.036 74.6295 113.04 74.0675L113.25 24.9718C113.253 24.4107 113.367 23.8557 113.586 23.3385C113.805 22.8213 114.124 22.352 114.525 21.9575C114.927 21.563 115.403 21.251 115.925 21.0394C116.448 20.8277 117.008 20.7205 117.572 20.724L137.328 20.8118C138.467 20.8162 139.559 21.2696 140.362 22.0726C141.166 22.8757 141.616 23.9628 141.614 25.0955L141.405 74.1945C141.403 74.7568 141.29 75.3133 141.071 75.832C140.853 76.3507 140.534 76.8215 140.132 77.2174C139.73 77.6132 139.253 77.9263 138.73 78.1387C138.206 78.3511 137.645 78.4587 137.079 78.4553Z" fill="#92E3A9"/>
<path d="M137.302 22.5208H133.471C133.346 22.5225 133.223 22.5486 133.109 22.5977C132.994 22.6467 132.891 22.7177 132.804 22.8067C132.718 22.8956 132.649 23.0006 132.604 23.1158C132.558 23.2309 132.535 23.354 132.538 23.4778V24.1678C132.54 24.4177 132.444 24.6586 132.269 24.8383C132.094 25.018 131.856 25.1221 131.604 25.1281L124.135 25.0923C124.009 25.0893 123.886 25.0617 123.771 25.0108C123.657 24.96 123.553 24.887 123.468 24.7961C123.382 24.7053 123.315 24.5983 123.271 24.4815C123.227 24.3647 123.207 24.2404 123.211 24.1158V23.4192C123.216 23.2947 123.195 23.1705 123.151 23.0539C123.107 22.9373 123.04 22.8305 122.954 22.7398C122.868 22.649 122.765 22.576 122.651 22.525C122.537 22.474 122.413 22.446 122.288 22.4427H120.939H117.586C117.19 22.4405 116.799 22.5158 116.433 22.6641C116.067 22.8125 115.734 23.031 115.453 23.3073C115.172 23.5836 114.948 23.9121 114.795 24.2743C114.642 24.6364 114.562 25.0249 114.56 25.4178L114.354 73.3417C114.352 74.1354 114.667 74.8973 115.23 75.46C115.793 76.0227 116.558 76.3403 117.356 76.3428L137.073 76.434C137.871 76.4375 138.638 76.1263 139.206 75.5686C139.774 75.0109 140.096 74.2523 140.102 73.4589L140.305 25.535C140.308 25.1408 140.233 24.7499 140.083 24.3847C139.934 24.0196 139.713 23.6874 139.434 23.4073C139.155 23.1272 138.823 22.9047 138.457 22.7525C138.091 22.6004 137.699 22.5216 137.302 22.5208Z" fill="white"/>
<path d="M136.978 55.1296H117.468V56.4284H136.978V55.1296Z" fill="#75B687"/>
<path d="M136.283 60.2368C136.283 60.2824 132.118 60.3214 126.983 60.3214C121.849 60.3214 117.68 60.2824 117.68 60.2368C117.68 60.1913 121.846 60.1522 126.983 60.1522C132.121 60.1522 136.283 60.1913 136.283 60.2368Z" fill="#75B687"/>
<path d="M136.283 29.4735C136.283 29.5223 132.118 29.5581 126.983 29.5581C121.849 29.5581 117.68 29.5223 117.68 29.4735C117.68 29.4247 121.846 29.3889 126.983 29.3889C132.121 29.3889 136.283 29.4182 136.283 29.4735Z" fill="#75B687"/>
<path d="M136.283 62.6C136.283 62.6456 132.118 62.6846 126.983 62.6846C121.849 62.6846 117.68 62.6456 117.68 62.6C117.68 62.5544 121.846 62.5154 126.983 62.5154C132.121 62.5154 136.283 62.5512 136.283 62.6Z" fill="#75B687"/>
<path d="M136.283 64.9534C136.283 64.999 132.118 65.038 126.983 65.038C121.849 65.038 117.68 64.999 117.68 64.9534C117.68 64.9078 121.846 64.8688 126.983 64.8688C132.121 64.8688 136.283 64.9143 136.283 64.9534Z" fill="#75B687"/>
<path d="M136.283 67.3232C136.283 67.3687 132.118 67.4078 126.983 67.4078C121.849 67.4078 117.68 67.3687 117.68 67.3232C117.68 67.2776 121.846 67.2385 126.983 67.2385C132.121 67.2385 136.283 67.2743 136.283 67.3232Z" fill="#75B687"/>
<path d="M136.283 69.683C136.283 69.7318 132.118 69.7676 126.983 69.7676C121.849 69.7676 117.68 69.7318 117.68 69.683C117.68 69.6342 121.846 69.5984 126.983 69.5984C132.121 69.5984 136.283 69.6374 136.283 69.683Z" fill="#75B687"/>
<path d="M136.549 72.3619C136.549 72.4074 132.384 72.4465 127.249 72.4465C122.114 72.4465 117.946 72.4074 117.946 72.3619C117.946 72.3163 122.111 72.2772 127.249 72.2772C132.387 72.2772 136.549 72.313 136.549 72.3619Z" fill="#75B687"/>
<path opacity="0.3" d="M119.196 49.3585L124.609 39.678L129.033 45.8658L131.722 42.5782L135.723 49.3585H119.196Z" fill="black"/>
<path d="M130.92 37.7966C130.92 38.0735 130.837 38.3441 130.682 38.5743C130.528 38.8044 130.308 38.9838 130.05 39.0898C129.793 39.1957 129.51 39.2234 129.237 39.1694C128.964 39.1154 128.713 38.9821 128.516 38.7864C128.319 38.5906 128.185 38.3412 128.131 38.0697C128.076 37.7982 128.104 37.5168 128.211 37.261C128.317 37.0053 128.498 36.7867 128.729 36.6329C128.961 36.4791 129.233 36.397 129.512 36.397C129.885 36.3978 130.242 36.5456 130.506 36.8079C130.77 37.0702 130.919 37.4257 130.92 37.7966Z" fill="#92E3A9"/>
<path d="M135.723 49.4106C135.723 49.4106 135.723 49.3846 135.723 49.3325C135.723 49.2804 135.723 49.2055 135.723 49.1144C135.723 48.9126 135.723 48.6327 135.723 48.2681C135.723 47.5227 135.723 46.442 135.701 45.0716C135.701 42.3244 135.678 38.4119 135.661 33.7148L135.74 33.793H119.216C119.193 33.8125 119.39 33.6172 119.308 33.7018V37.9334C119.308 39.3168 119.308 40.6708 119.308 41.9859C119.308 44.6225 119.308 47.1126 119.308 49.4041L119.226 49.3227L131.175 49.365L134.548 49.3846H135.442H135.671H135.753H135.681H135.458H134.581L131.227 49.4041L119.226 49.4464H119.144V49.365C119.144 47.0865 119.144 44.5834 119.144 41.9468C119.144 40.6448 119.144 39.2777 119.144 37.8943V33.6628C119.059 33.7441 119.255 33.5456 119.239 33.5684H135.763H135.796V33.7051C135.776 38.4249 135.763 42.3537 135.753 45.114C135.753 46.4746 135.753 47.5487 135.733 48.2909C135.733 48.6489 135.733 48.9256 135.733 49.1209C135.733 49.2088 135.733 49.2771 135.733 49.3325C135.734 49.3589 135.731 49.3852 135.723 49.4106Z" fill="#75B687"/>
<path opacity="0.8" d="M32.4263 4.07787V47.4415C32.4263 49.5178 34.1196 51.201 36.2085 51.201L102.107 51.201C104.196 51.201 105.889 49.5178 105.889 47.4415V4.07787C105.889 2.00151 104.196 0.318298 102.107 0.318298L36.2085 0.318298C34.1196 0.318298 32.4263 2.00151 32.4263 4.07787Z" fill="#669F76"/>
<path d="M34.4263 4.07787V47.4415C34.4263 49.5178 36.1196 51.201 38.2085 51.201L104.107 51.201C106.196 51.201 107.889 49.5178 107.889 47.4415V4.07787C107.889 2.00151 106.196 0.318298 104.107 0.318298L38.2085 0.318298C36.1196 0.318298 34.4263 2.00151 34.4263 4.07787Z" fill="#92E3A9"/>
<path d="M39.4492 1.923V49.5963L100.799 49.5963V1.923L39.4492 1.923Z" fill="white"/>
<path d="M104.195 23.8066C104.584 23.8066 104.964 23.9212 105.287 24.1358C105.61 24.3504 105.862 24.6554 106.01 25.0123C106.159 25.3691 106.198 25.7618 106.122 26.1407C106.046 26.5195 105.859 26.8675 105.585 27.1407C105.31 27.4138 104.96 27.5998 104.579 27.6752C104.197 27.7505 103.802 27.7118 103.443 27.564C103.084 27.4162 102.777 27.1659 102.562 26.8447C102.346 26.5235 102.23 26.1459 102.23 25.7597C102.23 25.2417 102.437 24.7449 102.806 24.3787C103.174 24.0124 103.674 23.8066 104.195 23.8066Z" fill="white"/>
<path d="M36.5415 18.4944V33.0249C36.5415 33.2442 36.7204 33.422 36.941 33.422H36.9541C37.1748 33.422 37.3536 33.2442 37.3536 33.0249V18.4944C37.3536 18.2751 37.1748 18.0973 36.9541 18.0973H36.941C36.7204 18.0973 36.5415 18.2751 36.5415 18.4944Z" fill="white"/>
<path d="M86.9448 5.50366H67.4346V6.8024H86.9448V5.50366Z" fill="#75B687"/>
<path d="M61.5302 27.8103H42.02V29.1091H61.5302V27.8103Z" fill="#75B687"/>
<path d="M91.6959 10.334C91.6959 10.3828 86.2665 10.4186 79.5797 10.4186C72.893 10.4186 67.4473 10.3828 67.4473 10.334C67.4473 10.2852 72.8766 10.2494 79.5797 10.2494C86.2829 10.2494 91.6959 10.2884 91.6959 10.334Z" fill="#75B687"/>
<path d="M91.6959 13.1691C91.6959 13.2147 86.2665 13.2537 79.5797 13.2537C72.893 13.2537 67.4473 13.2147 67.4473 13.1691C67.4473 13.1235 72.8766 13.0845 79.5797 13.0845C86.2829 13.0845 91.6959 13.1203 91.6959 13.1691Z" fill="#75B687"/>
<path d="M91.6959 16.001C91.6959 16.0466 86.2665 16.0856 79.5797 16.0856C72.893 16.0856 67.4473 16.0466 67.4473 16.001C67.4473 15.9554 72.8766 15.9164 79.5797 15.9164C86.2829 15.9164 91.6959 15.9554 91.6959 16.001Z" fill="#75B687"/>
<path d="M91.6959 18.8329C91.6959 18.8817 86.2665 18.9175 79.5797 18.9175C72.893 18.9175 67.4473 18.8817 67.4473 18.8329C67.4473 18.7841 72.8766 18.7483 79.5797 18.7483C86.2829 18.7483 91.6959 18.7873 91.6959 18.8329Z" fill="#75B687"/>
<path d="M91.6959 21.6615C91.6959 21.7071 86.2665 21.7462 79.5797 21.7462C72.893 21.7462 67.4473 21.7071 67.4473 21.6615C67.4473 21.616 72.8766 21.5769 79.5797 21.5769C86.2829 21.5769 91.6959 21.6192 91.6959 21.6615Z" fill="#75B687"/>
<path d="M86.375 24.4999C86.375 24.5455 82.1344 24.5846 76.9048 24.5846C71.6752 24.5846 67.4346 24.5455 67.4346 24.4999C67.4346 24.4543 71.6719 24.4153 76.9048 24.4153C82.1376 24.4153 86.375 24.4543 86.375 24.4999Z" fill="#75B687"/>
<path d="M74.0623 32.9174C74.0623 32.963 66.9367 33.0021 58.1476 33.0021C49.3585 33.0021 42.2329 32.963 42.2329 32.9174C42.2329 32.8718 49.3585 32.8328 58.1476 32.8328C66.9367 32.8328 74.0623 32.8686 74.0623 32.9174Z" fill="#75B687"/>
<path d="M74.0623 35.2774C74.0623 35.3262 66.9367 35.362 58.1476 35.362C49.3585 35.362 42.2329 35.3262 42.2329 35.2774C42.2329 35.2285 49.3585 35.1927 58.1476 35.1927C66.9367 35.1927 74.0623 35.2318 74.0623 35.2774Z" fill="#75B687"/>
<path d="M74.0623 37.6405C74.0623 37.6861 66.9367 37.7252 58.1476 37.7252C49.3585 37.7252 42.2329 37.6861 42.2329 37.6405C42.2329 37.595 49.3585 37.5559 58.1476 37.5559C66.9367 37.5559 74.0623 37.5917 74.0623 37.6405Z" fill="#75B687"/>
<path d="M74.0623 40.0004C74.0623 40.0492 66.9367 40.085 58.1476 40.085C49.3585 40.085 42.2329 40.0492 42.2329 40.0004C42.2329 39.9516 49.3585 39.9158 58.1476 39.9158C66.9367 39.9158 74.0623 39.9548 74.0623 40.0004Z" fill="#75B687"/>
<path d="M74.0623 42.3636C74.0623 42.4091 66.9367 42.4482 58.1476 42.4482C49.3585 42.4482 42.2329 42.4091 42.2329 42.3636C42.2329 42.318 49.3585 42.2789 58.1476 42.2789C66.9367 42.2789 74.0623 42.318 74.0623 42.3636Z" fill="#75B687"/>
<path opacity="0.3" d="M43.749 22.0391L49.162 12.3586L53.586 18.5432L56.2744 15.2589L60.276 22.0391H43.749Z" fill="black"/>
<path d="M55.4724 10.4739C55.4731 10.7509 55.391 11.0219 55.2367 11.2525C55.0824 11.4831 54.8627 11.663 54.6054 11.7694C54.3482 11.8758 54.065 11.904 53.7916 11.8504C53.5183 11.7968 53.2671 11.6637 53.0698 11.4681C52.8726 11.2725 52.7381 11.0231 52.6835 10.7515C52.6289 10.4799 52.6566 10.1983 52.7631 9.94232C52.8696 9.68637 53.0501 9.46758 53.2817 9.31363C53.5133 9.15969 53.7857 9.07752 54.0643 9.07751C54.4372 9.07751 54.7949 9.22453 55.0588 9.48632C55.3228 9.74811 55.4715 10.1033 55.4724 10.4739Z" fill="#92E3A9"/>
<path opacity="0.3" d="M79.5278 42.4775L83.3559 35.6289L86.4897 40.0069L88.3922 37.6796L91.2215 42.4775H79.5278Z" fill="black"/>
<path d="M87.8222 34.2944C87.8222 34.4875 87.7646 34.6763 87.6566 34.8369C87.5487 34.9975 87.3953 35.1227 87.2158 35.1966C87.0362 35.2705 86.8387 35.2898 86.6482 35.2521C86.4576 35.2145 86.2826 35.1215 86.1452 34.9849C86.0078 34.8483 85.9142 34.6743 85.8763 34.4849C85.8384 34.2955 85.8578 34.0991 85.9322 33.9207C86.0066 33.7423 86.1325 33.5897 86.294 33.4824C86.4556 33.3751 86.6455 33.3179 86.8398 33.3179C87.1004 33.3179 87.3502 33.4208 87.5345 33.6039C87.7187 33.787 87.8222 34.0354 87.8222 34.2944Z" fill="#92E3A9"/>
<path opacity="0.8" d="M101.26 56.344H8.11341C5.47839 56.344 3.34229 58.4673 3.34229 61.0866V119.101C3.34229 121.72 5.47839 123.844 8.11341 123.844H101.26C103.895 123.844 106.031 121.72 106.031 119.101V61.0866C106.031 58.4673 103.895 56.344 101.26 56.344Z" fill="#669F76"/>
<path opacity="0.8" d="M102.26 56.344H9.11341C6.47839 56.344 4.34229 58.4673 4.34229 61.0866V119.101C4.34229 121.72 6.47839 123.844 9.11341 123.844H102.26C104.895 123.844 107.031 121.72 107.031 119.101V61.0866C107.031 58.4673 104.895 56.344 102.26 56.344Z" fill="#92E3A9"/>
<path d="M0.0493164 118.854H111.305V118.968C111.305 120.504 110.691 121.978 109.597 123.065C108.504 124.151 107.022 124.762 105.476 124.762H5.87814C4.33224 124.762 2.84965 124.151 1.75654 123.065C0.663419 121.978 0.0493164 120.504 0.0493164 118.968V118.854Z" fill="#92E3A9"/>
<path d="M103.989 59.0261H7.09961V116.028H103.989V59.0261Z" fill="white"/>
<path d="M45.5635 118.854L46.9454 121.038H66.3704L67.6541 118.854H45.5635Z" fill="white"/>
<path d="M99.5356 62.8247H10.3315V116.009H99.5356V62.8247Z" fill="white"/>
<path d="M14.1399 65.445C14.1405 65.5926 14.0971 65.737 14.0151 65.86C13.9331 65.983 13.8162 66.079 13.6792 66.136C13.5423 66.1929 13.3914 66.2081 13.2457 66.1797C13.1001 66.1513 12.9661 66.0806 12.8609 65.9765C12.7557 65.8724 12.684 65.7396 12.6548 65.5949C12.6256 65.4502 12.6402 65.3002 12.6969 65.1638C12.7536 65.0274 12.8497 64.9108 12.9731 64.8287C13.0964 64.7467 13.2416 64.7029 13.39 64.7029C13.5883 64.7029 13.7786 64.781 13.9191 64.92C14.0596 65.0591 14.139 65.2479 14.1399 65.445Z" fill="#75B687"/>
<path d="M17.1922 65.4451C17.1928 65.5928 17.1493 65.7374 17.0672 65.8604C16.985 65.9835 16.8679 66.0796 16.7308 66.1364C16.5936 66.1932 16.4426 66.2082 16.2968 66.1796C16.151 66.1509 16.0171 66.0799 15.912 65.9754C15.8069 65.871 15.7355 65.7379 15.7066 65.593C15.6778 65.448 15.6929 65.2979 15.7501 65.1616C15.8073 65.0252 15.9039 64.9088 16.0277 64.8272C16.1515 64.7455 16.297 64.7022 16.4456 64.7029C16.6436 64.7029 16.8335 64.7811 16.9735 64.9203C17.1135 65.0595 17.1922 65.2482 17.1922 65.4451Z" fill="#75B687"/>
<path d="M20.2474 65.445C20.248 65.5926 20.2046 65.737 20.1226 65.86C20.0406 65.9831 19.9237 66.0791 19.7867 66.136C19.6497 66.1929 19.4989 66.2082 19.3532 66.1798C19.2075 66.1514 19.0736 66.0806 18.9684 65.9765C18.8632 65.8724 18.7914 65.7396 18.7622 65.5949C18.733 65.4502 18.7477 65.3002 18.8043 65.1638C18.861 65.0274 18.9571 64.9108 19.0805 64.8287C19.2039 64.7467 19.349 64.7029 19.4975 64.7029C19.5958 64.7025 19.6932 64.7213 19.7842 64.7584C19.8752 64.7955 19.9578 64.8501 20.0275 64.9191C20.0972 64.9881 20.1525 65.07 20.1902 65.1603C20.228 65.2505 20.2474 65.3473 20.2474 65.445Z" fill="#75B687"/>
<path d="M99.5356 68.7001C99.5356 68.7489 79.5604 68.7847 54.9352 68.7847C30.31 68.7847 10.3315 68.7489 10.3315 68.7001C10.3315 68.6513 30.3068 68.6155 54.9352 68.6155C79.5637 68.6155 99.5356 68.6545 99.5356 68.7001Z" fill="#75B687"/>
<path d="M37.1537 94.5417H17.6436V95.8405H37.1537V94.5417Z" fill="#75B687"/>
<path d="M62.3555 76.5284H42.8452V77.8272H62.3555V76.5284Z" fill="#75B687"/>
<path d="M91.3752 81.3621C91.3752 81.4077 80.51 81.4467 67.1102 81.4467C53.7104 81.4467 42.8452 81.4077 42.8452 81.3621C42.8452 81.3165 53.7072 81.2742 67.1102 81.2742C80.5132 81.2742 91.3752 81.3132 91.3752 81.3621Z" fill="#75B687"/>
<path d="M91.3752 84.194C91.3752 84.2396 80.51 84.2787 67.1102 84.2787C53.7104 84.2787 42.8452 84.2396 42.8452 84.194C42.8452 84.1484 53.7072 84.1094 67.1102 84.1094C80.5132 84.1094 91.3752 84.1582 91.3752 84.194Z" fill="#75B687"/>
<path d="M91.3752 87.0259C91.3752 87.0747 80.51 87.1105 67.1102 87.1105C53.7104 87.1105 42.8452 87.0747 42.8452 87.0259C42.8452 86.9771 53.7072 86.9413 67.1102 86.9413C80.5132 86.9413 91.3752 86.9803 91.3752 87.0259Z" fill="#75B687"/>
<path d="M91.3752 89.8611C91.3752 89.9066 80.51 89.9457 67.1102 89.9457C53.7104 89.9457 42.8452 89.9066 42.8452 89.8611C42.8452 89.8155 53.7072 89.7732 67.1102 89.7732C80.5132 89.7732 91.3752 89.8123 91.3752 89.8611Z" fill="#75B687"/>
<path d="M91.3752 92.693C91.3752 92.7386 80.51 92.7776 67.1102 92.7776C53.7104 92.7776 42.8452 92.7386 42.8452 92.693C42.8452 92.6475 53.7072 92.6084 67.1102 92.6084C80.5132 92.6084 91.3752 92.6442 91.3752 92.693Z" fill="#75B687"/>
<path d="M61.7889 95.5248C61.7889 95.5704 57.5483 95.6095 52.3187 95.6095C47.0891 95.6095 42.8452 95.5704 42.8452 95.5248C42.8452 95.4793 47.1022 95.4402 52.3187 95.4402C57.5352 95.4402 61.7889 95.4793 61.7889 95.5248Z" fill="#75B687"/>
<path d="M91.0184 101.023C91.0184 101.071 83.8765 101.107 75.071 101.107C66.2655 101.107 59.1235 101.071 59.1235 101.023C59.1235 100.974 66.2622 100.938 75.071 100.938C83.8797 100.938 91.0184 100.977 91.0184 101.023Z" fill="#75B687"/>
<path d="M91.0184 104.03C91.0184 104.076 83.8765 104.115 75.071 104.115C66.2655 104.115 59.1235 104.076 59.1235 104.03C59.1235 103.985 66.2622 103.946 75.071 103.946C83.8797 103.946 91.0184 103.985 91.0184 104.03Z" fill="#75B687"/>
<path d="M91.0184 107.038C91.0184 107.084 83.8765 107.124 75.071 107.124C66.2655 107.124 59.1235 107.084 59.1235 107.038C59.1235 106.993 66.2622 106.953 75.071 106.953C83.8797 106.953 91.0184 106.989 91.0184 107.038Z" fill="#75B687"/>
<path d="M91.0184 110.046C91.0184 110.091 83.8765 110.13 75.071 110.13C66.2655 110.13 59.1235 110.091 59.1235 110.046C59.1235 110 66.2622 109.961 75.071 109.961C83.8797 109.961 91.0184 109.997 91.0184 110.046Z" fill="#75B687"/>
<path d="M37.2032 100.736C37.2032 100.782 32.9462 100.821 27.7068 100.821C22.4675 100.821 18.2104 100.782 18.2104 100.736C18.2104 100.691 22.4675 100.651 27.7068 100.651C32.9462 100.651 37.2032 100.687 37.2032 100.736Z" fill="#75B687"/>
<path d="M37.2032 103.096C37.2032 103.145 32.9462 103.181 27.7068 103.181C22.4675 103.181 18.2104 103.145 18.2104 103.096C18.2104 103.047 22.4675 103.011 27.7068 103.011C32.9462 103.011 37.2032 103.037 37.2032 103.096Z" fill="#75B687"/>
<path d="M37.2032 105.459C37.2032 105.505 32.9462 105.544 27.7068 105.544C22.4675 105.544 18.2104 105.505 18.2104 105.459C18.2104 105.414 22.4675 105.375 27.7068 105.375C32.9462 105.375 37.2032 105.414 37.2032 105.459Z" fill="#75B687"/>
<path d="M37.2032 107.819C37.2032 107.868 32.9462 107.904 27.7068 107.904C22.4675 107.904 18.2104 107.868 18.2104 107.819C18.2104 107.77 22.4675 107.734 27.7068 107.734C32.9462 107.734 37.2032 107.774 37.2032 107.819Z" fill="#75B687"/>
<path d="M37.2032 110.199C37.2032 110.244 32.9462 110.283 27.7068 110.283C22.4675 110.283 18.2104 110.244 18.2104 110.199C18.2104 110.153 22.4675 110.114 27.7068 110.114C32.9462 110.114 37.2032 110.137 37.2032 110.199Z" fill="#75B687"/>
<path opacity="0.3" d="M19.1602 89.4899L24.5731 79.8094L28.9971 85.9973L31.6889 82.7129L35.6872 89.4899H19.1602Z" fill="black"/>
<path d="M30.8831 77.9281C30.8831 78.2049 30.8005 78.4755 30.6458 78.7057C30.491 78.9359 30.2711 79.1153 30.0138 79.2212C29.7565 79.3272 29.4734 79.3549 29.2003 79.3009C28.9271 79.2469 28.6762 79.1136 28.4793 78.9178C28.2824 78.7221 28.1483 78.4727 28.094 78.2012C28.0396 77.9297 28.0675 77.6482 28.1741 77.3925C28.2807 77.1367 28.4611 76.9181 28.6927 76.7643C28.9242 76.6105 29.1965 76.5284 29.475 76.5284C29.8484 76.5284 30.2066 76.6759 30.4706 76.9384C30.7347 77.2009 30.8831 77.5569 30.8831 77.9281Z" fill="#92E3A9"/>
<path d="M35.687 89.5421C35.6856 89.5172 35.6856 89.4922 35.687 89.4672C35.687 89.4086 35.687 89.337 35.687 89.2459C35.687 89.0473 35.687 88.7641 35.687 88.3996C35.687 87.6542 35.687 86.5767 35.664 85.2064C35.664 82.4591 35.6411 78.5465 35.6248 73.8463L35.7033 73.9276H19.1796C19.1567 73.9472 19.3532 73.7519 19.2713 73.8365V78.0681C19.2713 79.4482 19.2713 80.8023 19.2713 82.1206C19.2713 84.7539 19.2713 87.244 19.2713 89.5356L19.1894 89.4575L31.1385 89.4965L34.5114 89.5193H35.4053H35.7164C35.7164 89.5193 35.6935 89.5193 35.6444 89.5193H35.4217H34.5441L31.1909 89.5421L19.1894 89.5811H19.1108V89.4998C19.1108 87.2212 19.1108 84.7181 19.1108 82.0848C19.1108 80.7665 19.1108 79.4124 19.1108 78.0322V73.8007L19.2058 73.7063H35.7295H35.8114V73.7844C35.8114 78.5042 35.7787 82.4331 35.7688 85.1933C35.7688 86.5572 35.7688 87.6281 35.7492 88.3703C35.7492 88.7283 35.7492 89.005 35.7492 89.2036C35.7492 89.2914 35.7492 89.3598 35.7492 89.4119C35.7492 89.464 35.6902 89.5453 35.687 89.5421Z" fill="#75B687"/>
<path opacity="0.3" d="M43.9062 111.761L47.7343 104.912L50.8681 109.29L52.7706 106.963L55.6031 111.761H43.9062Z" fill="black"/>
<path d="M52.2011 103.578C52.2011 103.771 52.1435 103.96 52.0356 104.12C51.9276 104.281 51.7742 104.406 51.5947 104.48C51.4152 104.554 51.2176 104.573 51.0271 104.536C50.8365 104.498 50.6615 104.405 50.5241 104.268C50.3867 104.132 50.2931 103.958 50.2552 103.768C50.2173 103.579 50.2368 103.382 50.3111 103.204C50.3855 103.026 50.5114 102.873 50.6729 102.766C50.8345 102.658 51.0244 102.601 51.2187 102.601C51.4793 102.601 51.7291 102.704 51.9134 102.887C52.0976 103.07 52.2011 103.319 52.2011 103.578Z" fill="#92E3A9"/>
<path d="M55.6031 111.8C55.6019 111.782 55.6019 111.763 55.6031 111.745C55.6031 111.706 55.6031 111.654 55.6031 111.588C55.6031 111.448 55.6031 111.263 55.6031 110.989C55.6031 110.462 55.6031 109.687 55.5868 108.727C55.5868 106.774 55.5868 104.014 55.5606 100.69L55.6162 100.746H43.9193C43.9193 100.746 44.0437 100.622 43.9848 100.684V106.543C43.9848 108.408 43.9848 110.169 43.9848 111.793L43.9258 111.735L52.3842 111.764L54.7681 111.78H55.4001H54.7779H52.4071L43.9127 111.81H43.857V111.754C43.857 110.127 43.857 108.369 43.857 106.504C43.857 105.573 43.857 104.613 43.857 103.636V100.655C43.7981 100.71 43.9356 100.57 43.9225 100.586H55.6195H55.6752V100.642C55.6752 103.981 55.6522 106.761 55.6457 108.717C55.6457 109.694 55.6457 110.439 55.6457 110.963C55.6457 111.217 55.6457 111.413 55.6457 111.553C55.6457 111.614 55.6457 111.663 55.6457 111.702C55.638 111.737 55.6235 111.77 55.6031 111.8Z" fill="#75B687"/>
<path d="M172.258 118.987L168.984 118.6L168.214 124.7L173.005 125.315L173.077 124.941C173.385 123.267 174.515 116.419 174.312 115.25C174.086 113.948 172.258 118.987 172.258 118.987Z" fill="#263238"/>
<path d="M174.027 114.814C174.086 114.814 173.86 117.112 173.522 119.928C173.185 122.743 172.868 125.022 172.809 125.015C172.75 125.009 172.979 122.737 173.313 119.902C173.647 117.067 173.968 114.808 174.027 114.814Z" fill="white"/>
<path d="M172.94 118.701C172.907 118.746 172.737 118.681 172.58 118.531C172.423 118.382 172.357 118.206 172.403 118.177C172.449 118.147 172.586 118.242 172.73 118.382C172.875 118.522 172.976 118.662 172.94 118.701Z" fill="white"/>
<path d="M173.202 118.336C173.175 118.388 172.982 118.336 172.792 118.193C172.602 118.05 172.498 117.867 172.54 117.835C172.583 117.802 172.743 117.89 172.92 118.024C173.097 118.157 173.231 118.284 173.202 118.336Z" fill="white"/>
<path d="M173.008 123.173C173.008 123.199 172.927 123.28 172.763 123.398C172.555 123.539 172.361 123.699 172.183 123.876C172.016 124.053 171.894 124.267 171.83 124.501C171.784 124.683 171.797 124.804 171.764 124.81C171.731 124.817 171.672 124.696 171.682 124.485C171.705 124.207 171.82 123.945 172.01 123.739C172.197 123.545 172.419 123.387 172.665 123.274C172.871 123.183 172.992 123.147 173.008 123.173Z" fill="white"/>
<path d="M172.327 118.61C172.38 118.587 172.485 118.707 172.524 118.886C172.563 119.065 172.524 119.212 172.465 119.212C172.406 119.212 172.354 119.082 172.318 118.922C172.282 118.763 172.272 118.632 172.327 118.61Z" fill="white"/>
<path d="M172 118.662C172.056 118.662 172.085 118.831 172.066 119.039C172.046 119.247 171.977 119.404 171.922 119.391C171.866 119.378 171.833 119.212 171.856 119.016C171.879 118.821 171.941 118.662 172 118.662Z" fill="white"/>
<path d="M170.261 125.185L152.11 123.355L114.471 124.192L124.478 116.171L149.598 114.974L171.561 117.981L170.261 125.185Z" fill="#62A374"/>
<path d="M139.581 120.175C139.581 120.224 136.048 120.26 131.689 120.26C127.331 120.26 123.801 120.224 123.801 120.175C123.801 120.126 127.331 120.091 131.689 120.091C136.048 120.091 139.581 120.13 139.581 120.175Z" fill="white"/>
<path opacity="0.3" d="M137.826 115.534L139.116 123.603H141.592L139.709 115.446L137.826 115.534Z" fill="black"/>
<path d="M147.408 123.71L147.041 120.455L140.888 121.106L141.363 125.871H141.746C143.455 125.787 150.42 125.325 151.517 124.862C152.755 124.332 147.408 123.71 147.408 123.71Z" fill="#263238"/>
<path d="M151.645 124.521C151.645 124.579 149.353 124.882 146.52 125.198C143.687 125.513 141.382 125.722 141.376 125.663C141.369 125.605 143.668 125.305 146.497 124.989C149.326 124.674 151.638 124.475 151.645 124.521Z" fill="white"/>
<path d="M147.584 124.365C147.529 124.342 147.555 124.163 147.666 123.977C147.778 123.792 147.932 123.688 147.974 123.723C148.017 123.759 147.951 123.915 147.85 124.085C147.748 124.254 147.643 124.387 147.584 124.365Z" fill="white"/>
<path d="M148.007 124.521C147.951 124.521 147.958 124.309 148.056 124.091C148.154 123.873 148.298 123.736 148.347 123.766C148.396 123.795 148.347 123.971 148.249 124.172C148.151 124.374 148.062 124.55 148.007 124.521Z" fill="white"/>
<path d="M143.223 125.445C143.203 125.465 143.098 125.39 142.948 125.26C142.762 125.091 142.562 124.939 142.348 124.807C142.137 124.685 141.898 124.617 141.654 124.609C141.467 124.609 141.35 124.644 141.327 124.609C141.304 124.573 141.415 124.495 141.631 124.456C141.913 124.416 142.199 124.473 142.443 124.618C142.676 124.757 142.88 124.938 143.046 125.152C143.183 125.318 143.246 125.426 143.223 125.445Z" fill="white"/>
<path d="M147.538 123.749C147.574 123.795 147.479 123.922 147.312 124.003C147.145 124.085 146.985 124.078 146.985 124.023C146.985 123.967 147.086 123.886 147.234 123.814C147.381 123.743 147.506 123.7 147.538 123.749Z" fill="white"/>
<path d="M147.407 123.443C147.407 123.502 147.26 123.567 147.054 123.593C146.847 123.619 146.677 123.593 146.674 123.534C146.671 123.476 146.831 123.411 147.028 123.385C147.224 123.359 147.394 123.388 147.407 123.443Z" fill="white"/>
<path d="M111.407 86.4759L116.646 86.3815C116.718 85.7793 116.82 83.4324 116.82 83.4324C116.82 83.4324 119.014 83.2273 119.174 81.0725C119.335 78.9176 119.266 73.9309 119.266 73.9309C118.063 73.3276 116.721 73.0542 115.377 73.1388C114.033 73.2235 112.736 73.6633 111.619 74.4126L111.292 74.6405L111.407 86.4759Z" fill="#B78876"/>
<path d="M118.542 77.6124C118.484 77.552 118.453 77.4722 118.453 77.3894C118.453 77.3065 118.484 77.2268 118.542 77.1664C118.586 77.1189 118.645 77.0859 118.709 77.0716C118.773 77.0574 118.84 77.0627 118.901 77.0867C118.962 77.1108 119.014 77.1525 119.051 77.2064C119.088 77.2604 119.108 77.3241 119.108 77.3894C119.108 77.4546 119.088 77.5183 119.051 77.5723C119.014 77.6263 118.962 77.668 118.901 77.692C118.84 77.716 118.773 77.7213 118.709 77.7071C118.645 77.6929 118.586 77.6599 118.542 77.6124Z" fill="#263238"/>
<path d="M119.095 77.1501C119.059 77.1859 118.856 77.0102 118.558 76.9906C118.26 76.9711 118.031 77.1111 118.001 77.072C117.972 77.033 118.024 76.9874 118.123 76.9223C118.256 76.8387 118.414 76.7999 118.571 76.8116C118.728 76.8214 118.878 76.8819 118.997 76.9841C119.095 77.0655 119.118 77.1339 119.095 77.1501Z" fill="#263238"/>
<path d="M115.637 77.1988C115.684 77.254 115.711 77.323 115.714 77.3951C115.717 77.4673 115.696 77.5384 115.654 77.5973C115.612 77.6561 115.552 77.6995 115.482 77.7205C115.413 77.7415 115.338 77.7389 115.27 77.7132C115.224 77.6955 115.182 77.6674 115.148 77.6311C115.113 77.5947 115.088 77.5511 115.074 77.5036C115.059 77.4561 115.056 77.4059 115.064 77.3569C115.072 77.3078 115.091 77.2613 115.12 77.2208C115.149 77.1802 115.187 77.1468 115.23 77.1231C115.274 77.0993 115.323 77.0859 115.373 77.0838C115.423 77.0817 115.473 77.0909 115.518 77.1109C115.564 77.1308 115.605 77.1609 115.637 77.1988Z" fill="#263238"/>
<path d="M115.821 77.2118C115.785 77.2476 115.582 77.0719 115.28 77.0524C114.979 77.0329 114.756 77.1728 114.724 77.1337C114.691 77.0947 114.747 77.0491 114.848 76.984C114.982 76.9004 115.139 76.8615 115.296 76.8733C115.454 76.885 115.603 76.9466 115.723 77.0491C115.821 77.1272 115.85 77.1988 115.821 77.2118Z" fill="#263238"/>
<path d="M116.882 79.7411C117.039 79.6898 117.204 79.6656 117.37 79.6695C117.448 79.6695 117.514 79.65 117.52 79.6109C117.528 79.5325 117.513 79.4534 117.478 79.3831L117.278 78.7646C117.086 78.2373 116.947 77.692 116.865 77.1371C117.111 77.6401 117.304 78.1669 117.442 78.7093C117.507 78.9241 117.566 79.1292 117.628 79.331C117.673 79.4337 117.681 79.5486 117.651 79.6565C117.638 79.6856 117.618 79.7113 117.593 79.7316C117.568 79.7519 117.538 79.7663 117.507 79.7737C117.462 79.7797 117.417 79.7797 117.373 79.7737C117.208 79.7899 117.042 79.7789 116.882 79.7411Z" fill="#263238"/>
<path d="M115.889 80.0113C115.588 79.8062 116.718 80.5158 117.33 80.5223C117.219 80.6724 117.059 80.7808 116.878 80.8298C116.697 80.8788 116.504 80.8657 116.332 80.7925C115.696 80.5158 115.889 80.0113 115.889 80.0113Z" fill="white"/>
<path d="M116.832 83.3999C115.828 83.356 114.859 83.0161 114.049 82.4233C114.049 82.4233 114.622 84.0183 116.803 83.9565L116.832 83.3999Z" fill="#A36957"/>
<path d="M119.422 73.1529C119.547 73.1488 119.669 73.1164 119.779 73.0581C119.889 72.9999 119.984 72.9173 120.057 72.8169C120.13 72.7164 120.178 72.6006 120.199 72.4785C120.22 72.3564 120.212 72.2312 120.177 72.1124C120.142 71.9937 120.079 71.8846 119.995 71.7935C119.91 71.7024 119.806 71.6318 119.69 71.5871C119.574 71.5423 119.449 71.5247 119.325 71.5354C119.2 71.5462 119.08 71.5851 118.974 71.6491C119.234 71.4362 119.446 71.1711 119.596 70.8711C119.668 70.7204 119.692 70.5512 119.664 70.3865C119.637 70.2218 119.559 70.0695 119.442 69.95C119.305 69.8566 119.146 69.8019 118.98 69.7916C118.815 69.7813 118.65 69.8158 118.502 69.8914C118.04 70.0899 117.677 70.4773 117.192 70.64C116.708 70.8028 116.19 70.7214 115.683 70.7442C115.117 70.7548 114.569 70.9428 114.117 71.2813C113.895 71.4522 113.716 71.6726 113.595 71.9247C113.474 72.1768 113.414 72.4537 113.42 72.733C112.709 72.6484 111.924 72.6386 111.364 73.078C111.138 73.2774 110.96 73.5237 110.842 73.7994C110.724 74.0751 110.668 74.3734 110.679 74.673C110.734 75.2712 110.877 75.858 111.105 76.4144C111.145 76.5775 111.218 76.7306 111.321 76.8636L111.586 78.413L112.552 78.3935L112.49 75.171C112.49 75.171 112.392 73.8104 113.571 73.9309C114.749 74.0513 116.344 75.3696 118.633 75.0343C119.007 75.0147 119.372 74.9112 119.701 74.7316C119.86 74.6321 119.989 74.4921 120.076 74.3261C120.162 74.1601 120.202 73.9742 120.192 73.7876C120.172 73.6031 120.08 73.4335 119.937 73.315C119.793 73.1964 119.609 73.1383 119.422 73.1529Z" fill="#263238"/>
<path d="M111.708 76.5545C111.659 76.5382 110.093 76.3364 110.241 78.182C110.388 80.0276 112.206 79.2627 112.206 79.2106C112.206 79.1585 111.708 76.5545 111.708 76.5545Z" fill="#B78876"/>
<path d="M111.59 78.6019C111.59 78.6019 111.557 78.6247 111.504 78.654C111.431 78.6925 111.346 78.7018 111.265 78.68C111.14 78.614 111.035 78.5163 110.96 78.3969C110.886 78.2774 110.844 78.1403 110.84 77.9997C110.821 77.8426 110.839 77.6834 110.892 77.5342C110.905 77.4751 110.931 77.4198 110.97 77.3733C111.009 77.3268 111.059 77.2904 111.115 77.2673C111.151 77.2548 111.191 77.2555 111.227 77.2692C111.263 77.2829 111.293 77.3087 111.311 77.3422C111.341 77.391 111.331 77.4268 111.341 77.4301C111.351 77.4333 111.38 77.3975 111.357 77.3226C111.344 77.277 111.315 77.2376 111.275 77.212C111.249 77.1949 111.219 77.1832 111.188 77.1776C111.158 77.172 111.126 77.1726 111.095 77.1794C111.017 77.2005 110.945 77.2417 110.888 77.2988C110.83 77.3559 110.789 77.427 110.768 77.5049C110.701 77.6699 110.677 77.8491 110.699 78.0257C110.702 78.1896 110.755 78.3488 110.849 78.4832C110.943 78.6176 111.076 78.7212 111.229 78.7809C111.28 78.7917 111.333 78.7908 111.383 78.7784C111.434 78.766 111.481 78.7424 111.521 78.7093C111.59 78.6442 111.596 78.6051 111.59 78.6019Z" fill="#A36957"/>
<path d="M107.156 118.662C108.138 120.117 114.095 129.029 121.207 122.548C130.268 114.3 137.433 107.074 137.433 107.074L140.125 123.398L148.56 122.942C148.56 122.942 145.285 98.6366 143.196 96.4264C140.875 93.9591 138.739 94.1674 120.506 108.47L107.156 118.662Z" fill="#86D19B"/>
<path d="M137.328 90.9808L145.207 85.2649L145.593 85.8801L137.767 91.6644L137.328 90.9808Z" fill="#263238"/>
<path d="M139.277 90.805C139.277 90.805 140.331 88.0707 140.587 87.4881C140.842 86.9054 141.225 85.8899 141.376 85.8606C141.527 85.8313 142.077 85.9257 141.376 87.6639C140.675 89.402 142.227 88.3409 142.227 88.3409L143.743 87.2602C143.743 87.2602 144.942 90.8212 144.261 91.8954C143.725 92.6975 143.124 93.4541 142.463 94.1577L139.277 90.805Z" fill="#B78876"/>
<path d="M139.306 90.2123C139.153 89.8542 129.374 98.7305 127.428 99.0327L121.727 91.4015C121.727 91.4015 120.545 89.4698 118.005 86.165C116.362 84.033 111.837 84.4765 110.655 87.075C108.635 91.4902 108.61 96.3981 107.533 105.948L107.063 112.406C106.962 113.781 106.982 115.162 107.124 116.532C107.297 118.132 106.811 119.343 107.533 119.104L121.411 108.497L121.83 103.464C124.571 106.322 125.425 106.92 126.85 106.69C130.438 106.119 143 94.5059 143 94.5059C143 94.5059 139.456 90.5736 139.306 90.2123Z" fill="#263238"/>
<path d="M121.5 108.648L122 106.148L118.5 102.148L121.5 108.648Z" fill="#75B687"/>
<path d="M144.343 120.641C144.329 120.595 144.32 120.548 144.316 120.501C144.303 120.403 144.284 120.266 144.257 120.091C144.212 119.723 144.14 119.192 144.051 118.515C143.864 117.148 143.599 115.166 143.203 112.728C142.807 110.29 142.28 107.396 141.53 104.219C141.453 103.82 141.322 103.434 141.14 103.07C140.934 102.711 140.668 102.39 140.354 102.119C139.687 101.571 138.834 101.296 137.97 101.351C137.529 101.376 137.099 101.492 136.706 101.693C136.312 101.914 135.936 102.167 135.583 102.448L133.33 104.112C130.298 106.374 127.459 108.59 124.924 110.67C122.389 112.75 120.179 114.697 118.329 116.347C117.392 117.148 116.394 117.789 115.382 117.893C114.918 117.946 114.448 117.889 114.01 117.727C113.645 117.591 113.302 117.403 112.991 117.171C112.565 116.849 112.171 116.488 111.812 116.093L111.534 115.787C111.5 115.753 111.469 115.716 111.442 115.677C111.48 115.705 111.514 115.738 111.544 115.774L111.835 116.071C112.204 116.452 112.604 116.803 113.031 117.119C113.34 117.341 113.678 117.52 114.036 117.653C114.464 117.804 114.921 117.854 115.372 117.799C116.354 117.692 117.337 117.057 118.254 116.256C120.091 114.599 122.294 112.63 124.829 110.55C127.364 108.47 130.196 106.237 133.232 103.975L135.485 102.311C135.846 102.025 136.231 101.768 136.634 101.543C137.047 101.332 137.5 101.21 137.964 101.185C138.87 101.128 139.764 101.418 140.462 101.996C140.793 102.278 141.071 102.617 141.284 102.995C141.472 103.371 141.607 103.771 141.687 104.183C142.43 107.37 142.941 110.27 143.324 112.708C143.707 115.146 143.953 117.135 144.12 118.505C144.195 119.186 144.254 119.716 144.297 120.087C144.297 120.263 144.326 120.413 144.336 120.501C144.343 120.547 144.345 120.594 144.343 120.641Z" fill="white"/>
<path d="M148.167 120.458C148.061 120.491 147.951 120.508 147.84 120.51C147.627 120.533 147.319 120.559 146.939 120.585C146.176 120.637 145.125 120.693 143.963 120.742L140.986 120.869L140.082 120.901C139.974 120.914 139.864 120.914 139.755 120.901C139.861 120.866 139.971 120.847 140.082 120.842C140.295 120.816 140.603 120.787 140.983 120.755C141.746 120.693 142.797 120.631 143.959 120.579L146.939 120.471L147.843 120.452C147.951 120.441 148.06 120.443 148.167 120.458Z" fill="white"/>
<path d="M139.774 104.528C139.029 105.735 138.057 106.788 136.912 107.63C136.88 107.591 137.567 106.956 138.366 106.1C139.165 105.244 139.725 104.499 139.774 104.528Z" fill="white"/>
<path d="M140.092 105.518C139.651 105.853 139.184 106.154 138.697 106.419C138.239 106.736 137.758 107.016 137.256 107.259C137.662 106.877 138.115 106.549 138.605 106.283C139.066 105.965 139.566 105.708 140.092 105.518Z" fill="white"/>
<path d="M167.681 121.298C167.614 121.305 167.547 121.305 167.481 121.298L166.904 121.266L164.809 121.067L157.903 120.351C155.204 120.071 152.768 119.759 150.996 119.671C150.112 119.625 149.392 119.628 148.897 119.648L148.328 119.671C148.26 119.679 148.192 119.679 148.125 119.671C148.19 119.655 148.257 119.644 148.324 119.638C148.452 119.619 148.652 119.602 148.894 119.58C149.596 119.534 150.3 119.524 151.003 119.55C152.784 119.609 155.224 119.902 157.919 120.182L164.825 120.94L166.918 121.191L167.484 121.266C167.551 121.269 167.617 121.28 167.681 121.298Z" fill="white"/>
<path d="M167.265 124.937C167.219 124.937 167.366 123.31 167.592 121.288C167.818 119.267 168.047 117.656 168.093 117.662C168.139 117.669 167.992 119.29 167.766 121.308C167.54 123.326 167.311 124.941 167.265 124.937Z" fill="#75B687"/>
</svg>
