<?xml version="1.0" encoding="utf-8"?>
<!-- Generator: Adobe Illustrator 24.3.0, SVG Export Plug-In . SVG Version: 6.00 Build 0)  -->
<svg version="1.1" id="Layer_1" xmlns="http://www.w3.org/2000/svg" xmlns:xlink="http://www.w3.org/1999/xlink" x="0px" y="0px"
	 viewBox="0 0 515.7 327.9" style="enable-background:new 0 0 515.7 327.9;" xml:space="preserve">
<style type="text/css">
	.st0{fill-rule:evenodd;clip-rule:evenodd;fill:#FFFFFF;}
	.st1{fill-rule:evenodd;clip-rule:evenodd;fill:#FFFFFF;filter:url(#Adobe_OpacityMaskFilter);}
	.st2{mask:url(#path-1-inside-1_1_);fill:#6C63FF;}
	.st3{fill:#263238;}
	.st4{fill:#FFB573;}
	.st5{opacity:0.2;enable-background:new    ;}
	.st6{fill:#ED893E;}
	.st7{opacity:0.2;}
	.st8{fill:#407BFF;}
	.st9{opacity:0.6;fill:#EBE2E2;enable-background:new    ;}
	.st10{opacity:0.2;fill:#407BFF;enable-background:new    ;}
	.st11{opacity:0.6;fill:#E0D4D4;enable-background:new    ;}
	.st12{opacity:0.6;}
	.st13{opacity:0.6;fill:#FFFFFF;enable-background:new    ;}
	.st14{fill:#CE7A63;}
	.st15{opacity:0.3;enable-background:new    ;}
	.st16{fill:#CF7A64;}
	.st17{fill:#BA4D3C;}
	.st18{fill:#ECA8A1;}
	.st19{fill:#FFFFFF;}
	.st20{fill:#A02724;}
</style>
<path class="st0" d="M88,32.2c0-5.5,4.5-10,10-10h327c5.5,0,10,4.5,10,10v11h36l-36,30.3v198.7c0,5.5-4.5,10-10,10H98
	c-5.5,0-10-4.5-10-10v-23H59l29-24.4V32.2z"/>
<defs>
	<filter id="Adobe_OpacityMaskFilter" filterUnits="userSpaceOnUse" x="50.8" y="0" width="428.4" height="327.9">
		<feColorMatrix  type="matrix" values="1 0 0 0 0  0 1 0 0 0  0 0 1 0 0  0 0 0 1 0"/>
	</filter>
</defs>
<mask maskUnits="userSpaceOnUse" x="50.8" y="0" width="428.4" height="327.9" id="path-1-inside-1_1_">
	<path class="st1" d="M88,16c0-6.8,4.5-12.3,10-12.3h327c5.5,0,10,5.5,10,12.3v13.6h36l-36,37.4v244.9c0,6.8-4.5,12.3-10,12.3H98
		c-5.5,0-10-5.5-10-12.3v-28.3H59l29-30.1V16z"/>
</mask>
<path class="st2" d="M435,29.6h-3v3.7h3V29.6z M471,29.6l1.9,2.8l6.3-6.5H471V29.6z M435,66.9l-1.9-2.8l-1.1,1.1v1.7H435z M88,283.5
	h3v-3.7h-3V283.5z M59,283.5l-1.9-2.8l-6.3,6.5H59V283.5z M88,253.4l1.9,2.8l1.1-1.1v-1.7H88z M98,0c-7.2,0-13,7.2-13,16h6
	c0-4.8,3.1-8.6,7-8.6V0z M425,0H98v7.4h327V0z M438,16c0-8.8-5.8-16-13-16v7.4c3.9,0,7,3.9,7,8.6H438z M438,29.6V16h-6v13.6H438z
	 M471,25.9h-36v7.4h36V25.9z M436.9,69.8l36-37.4l-3.9-5.7l-36,37.4L436.9,69.8z M438,311.8V66.9h-6v244.9H438z M425,327.9
	c7.2,0,13-7.2,13-16h-6c0,4.8-3.1,8.6-7,8.6V327.9z M98,327.9h327v-7.4H98V327.9z M85,311.8c0,8.8,5.8,16,13,16v-7.4
	c-3.9,0-7-3.9-7-8.6H85z M85,283.5v28.3h6v-28.3H85z M59,287.2h29v-7.4H59V287.2z M86.1,250.6l-29,30.1l3.9,5.7l29-30.1L86.1,250.6z
	 M85,16v237.4h6V16H85z"/>
<path class="st3" d="M478.2,82.1c2.4,2.7,5.5,10.8-3.9,9.2C464.9,89.6,478.2,82.1,478.2,82.1z"/>
<path class="st4" d="M460.1,108.8c0.1,0.6,0.1,1.2,0.2,1.9c0,0.6,0.1,1.3,0.1,2c0,1.3,0.1,2.6,0,3.9c-0.1,2.6-0.3,5.2-0.7,7.8
	c-0.1,0.7-0.2,1.3-0.4,1.9l0,0.2c0,0,0,0,0,0.1c0,0,0,0,0,0.1s-0.3,0.2-0.8,0.3c-0.5,0.1-1.1,0.1-1.6,0c-2.5-0.4-5-1.1-7.4-2.1
	l-1.3,2.3c0.6,0.4,1.2,0.8,1.8,1.2c0.6,0.4,1.2,0.7,1.9,1c1.3,0.7,2.7,1.2,4.2,1.6c0.8,0.2,1.7,0.3,2.5,0.4c1.1,0,2.2-0.2,3.2-0.8
	c0.6-0.4,1.1-0.8,1.4-1.4c0.2-0.3,0.3-0.5,0.4-0.8c0.1-0.1,0.1-0.3,0.2-0.4l0.1-0.2l0-0.1c0.2-0.7,0.4-1.4,0.5-2.1
	c0.6-2.8,1-5.7,1.1-8.6c0.1-1.4,0.1-2.9,0-4.3c0-0.7-0.1-1.4-0.1-2.2c-0.1-0.7-0.1-1.4-0.2-2.2L460.1,108.8z"/>
<path class="st3" d="M460.8,102.6c-2,0.9-2,9.8-2,9.8l9,4.1c0,0,1.5-10.8-0.5-12.8S463.7,101.3,460.8,102.6z"/>
<path class="st5" d="M461.3,104.5l-1.3,8.4l4.9,2.2L461.3,104.5z"/>
<path class="st4" d="M450.7,125.9l-3.7-4.1l-1.2,4.5c0,0,2.4,2.3,4.4,1.6L450.7,125.9z"/>
<path class="st4" d="M444.6,121.7l-0.6,2.2c0,0.2,0,0.4,0,0.5c0.1,0.2,0.1,0.3,0.3,0.5l1.5,1.4l1.2-4.5l-0.7-0.7
	c-0.1-0.1-0.3-0.2-0.5-0.2c-0.2,0-0.4,0-0.5,0c-0.2,0.1-0.3,0.2-0.4,0.3C444.7,121.4,444.6,121.5,444.6,121.7z"/>
<path class="st3" d="M459.7,104.7c0.2,3,1.8,10.4,7.9,28.2l20.6-3.6c-1.7-7.9-2.6-13-1.8-28.8c0-0.4,0-0.7-0.2-1
	c-0.1-0.3-0.3-0.6-0.6-0.9c-0.2-0.3-0.5-0.5-0.9-0.6c-0.3-0.1-0.7-0.2-1-0.2c-2.1,0-4.1,0.1-6.2,0.4c-3.2,0.3-6.3,0.8-9.4,1.6
	c-2.5,0.7-5.2,1.6-6.8,2.2c-0.5,0.2-1,0.6-1.3,1.1C459.7,103.5,459.6,104.1,459.7,104.7z"/>
<path class="st5" d="M486,104.9c-1.8,0.8-3.2,3.1-2.3,6.9c0.4,1.7,1.3,3.2,2.5,4.4c-0.2-3-0.2-6.4-0.1-10.9L486,104.9z"/>
<path class="st4" d="M474.8,87.8c-0.1,3.1,0.3,8.8,2.8,10.4c0,0-1.8,2.2-6.8,6.1c-4.8-2.6-2.6-4.5-2.6-4.5c3.2-1.4,2.7-3.9,1.7-6.1
	L474.8,87.8z"/>
<path class="st5" d="M472.8,90.2l-2.9,3.5c0.2,0.5,0.4,1.1,0.6,1.6c1.3-0.4,3.1-1.9,3.1-3.3C473.6,91.3,473,90.5,472.8,90.2z"/>
<path class="st4" d="M477.3,82c-0.3,5.1-0.3,7.3-2.9,9.9c-3.9,4-10.1,2.5-11.3-2.6c-1.1-4.6-0.5-12.2,4.5-14.2
	c1.1-0.5,2.3-0.6,3.5-0.5c1.2,0.1,2.3,0.6,3.3,1.3c1,0.7,1.7,1.6,2.3,2.7C477.1,79.6,477.4,80.8,477.3,82z"/>
<path class="st3" d="M477.3,85.4c-2.2,0.1-4.7-4.1-3.7-6.1c-1.2-0.3-6.1,0.3-6.1-1.5c-2.2,1.6-7.1,1.6-7.9-0.5
	c-0.8-2.1,1-4.1,3.4-3.3c1.7-4.5,10.1-5.4,13.2-1.1C480.2,72.8,488.8,79.3,477.3,85.4z"/>
<path class="st3" d="M468.4,83.4c0,0.4-0.2,0.8-0.5,0.8c-0.3,0-0.5-0.3-0.5-0.7c0-0.4,0.2-0.8,0.5-0.8S468.4,83,468.4,83.4z"/>
<path class="st3" d="M463.7,83.5c0,0.4-0.2,0.8-0.5,0.8c-0.3,0-0.5-0.3-0.5-0.8c0-0.4,0.2-0.8,0.5-0.8
	C463.5,82.7,463.7,83,463.7,83.5z"/>
<path class="st3" d="M463.4,82.7l-1-0.3C462.4,82.4,462.9,83.3,463.4,82.7z"/>
<path class="st6" d="M465.2,84.2c-0.4,0.9-0.9,1.8-1.5,2.6c0.2,0.2,0.5,0.3,0.7,0.3c0.3,0,0.5,0,0.8,0L465.2,84.2z"/>
<path class="st3" d="M467.6,88.7c-0.2,0-0.4,0-0.6,0c0,0,0,0,0,0c0,0,0,0,0,0s0,0,0,0c0,0,0,0,0,0c0,0,0-0.1,0-0.1c0,0,0.1,0,0.1,0
	c0.5,0,1-0.1,1.5-0.3c0.5-0.2,0.9-0.6,1.2-1c0,0,0,0,0,0c0,0,0,0,0,0c0,0,0,0,0,0c0,0,0,0,0,0c0,0,0,0.1,0,0.1c0,0,0,0.1,0,0.1
	c-0.3,0.4-0.6,0.7-1,0.9C468.5,88.5,468.1,88.7,467.6,88.7z"/>
<path class="st3" d="M468.3,89.4c-0.2,0.1-0.4,0.2-0.5,0.3c0,0,0,0,0,0c0,0,0,0,0,0c0,0,0,0,0,0c0,0,0,0,0,0c0,0,0,0,0,0
	c0,0,0,0,0,0c0,0,0,0,0,0c0,0,0,0,0,0c0.5-0.2,0.9-0.5,1.3-0.9c0.3-0.4,0.6-0.8,0.7-1.3c0,0,0,0,0,0c0,0,0,0,0,0c0,0,0,0,0,0
	c0,0,0,0,0,0c0,0,0.1,0,0.1,0s0,0.1,0,0.1c-0.1,0.4-0.3,0.9-0.6,1.2C469,88.9,468.7,89.2,468.3,89.4z"/>
<path class="st4" d="M478.8,86c-0.3,0.9-0.9,1.7-1.8,2.2c-1.2,0.6-2-0.3-1.9-1.6c0.1-1.1,0.8-2.8,2-2.9c0.3,0,0.6,0,0.8,0.2
	c0.3,0.1,0.5,0.3,0.6,0.5c0.2,0.2,0.3,0.5,0.3,0.8C479,85.5,478.9,85.7,478.8,86z"/>
<path class="st3" d="M470.6,81.1c0,0-0.1,0-0.2,0c-0.1,0-0.1,0-0.1-0.1c-0.8-0.8-2.2-0.6-2.2-0.6c-0.1,0-0.1,0-0.2,0
	c-0.1,0-0.1-0.1-0.1-0.2c0,0,0-0.1,0-0.1c0,0,0-0.1,0-0.1c0,0,0,0,0.1-0.1c0,0,0.1,0,0.1,0c0.1,0,1.7-0.3,2.7,0.7c0,0,0,0,0.1,0.1
	c0,0,0,0.1,0,0.1s0,0.1,0,0.1S470.6,81,470.6,81.1L470.6,81.1z"/>
<path class="st3" d="M462.1,81.2c0,0-0.1,0-0.1,0s-0.1,0-0.1-0.1c0,0-0.1-0.1-0.1-0.2c0-0.1,0-0.1,0.1-0.2c0.3-0.3,0.6-0.4,1-0.5
	c0.4-0.1,0.8-0.1,1.1,0c0.1,0,0.1,0.1,0.1,0.1c0,0.1,0,0.1,0,0.2c0,0,0,0.1,0,0.1c0,0,0,0-0.1,0.1c0,0-0.1,0-0.1,0c0,0-0.1,0-0.1,0
	c-0.3-0.1-0.6-0.1-0.9,0c-0.3,0.1-0.6,0.2-0.8,0.4C462.2,81.2,462.2,81.2,462.1,81.2z"/>
<path class="st4" d="M469.5,247.2h-5.2l0.3-12h5.2L469.5,247.2z"/>
<path class="st3" d="M464.1,246.6h5.8c0.1,0,0.2,0,0.3,0.1c0.1,0.1,0.1,0.2,0.1,0.3l0.4,4.6c0,0.1,0,0.2-0.1,0.3
	c0,0.1-0.1,0.2-0.2,0.3c-0.1,0.1-0.2,0.2-0.3,0.2c-0.1,0-0.2,0.1-0.3,0.1c-2,0-3-0.2-5.5-0.2c-1.6,0-4.8,0.2-7,0.2
	c-2.2,0-2.2-2.1-1.3-2.3c4.1-0.9,5.7-2.1,7.2-3.2C463.4,246.7,463.8,246.6,464.1,246.6z"/>
<g class="st7">
	<path class="st5" d="M464.7,235.2l-0.2,6.2h5.2l0.2-6.2H464.7z"/>
</g>
<path class="st8" d="M467.6,132.8c0,0-3.2,32.2-4.2,47.9c-1,16.3,0.3,59.4,0.3,59.4h7c0,0,4.3-48.5,4.3-58.2
	c2.7-17.5,10.3-35.7,7.7-51.8L467.6,132.8z"/>
<path class="st9" d="M467.6,132.8c0,0-3.2,32.2-4.2,47.9c-1,16.3,0.3,59.4,0.3,59.4h7c0,0,4.3-48.5,4.3-58.2
	c2.7-17.5,10.3-35.7,7.7-51.8L467.6,132.8z"/>
<path class="st10" d="M478.5,145.6c1.5,0.4,2.8,1.2,3.7,2.4c-1.1,6.7-2.9,13.5-4.5,20.4C476.6,161,477.3,148.4,478.5,145.6z"/>
<path class="st3" d="M471.2,240.4H463l-0.6-2.6l9.2-0.3L471.2,240.4z"/>
<path class="st8" d="M462.1,247.5c-0.4,0-0.9-0.1-1.3-0.3c-0.1-0.1-0.1-0.2-0.2-0.3c0-0.1,0-0.2,0-0.3c0-0.1,0-0.1,0.1-0.2
	c0-0.1,0.1-0.1,0.1-0.1c0.7-0.3,2.7,0.7,2.9,0.8c0,0,0,0,0.1,0.1c0,0,0,0,0,0.1c0,0,0,0,0,0.1c0,0,0,0-0.1,0
	C463.2,247.4,462.6,247.5,462.1,247.5z M461.2,246.4c-0.1,0-0.2,0-0.2,0c0,0,0,0-0.1,0.1c0,0,0,0.1,0,0.1c0,0.1,0,0.1,0,0.2
	c0,0.1,0.1,0.1,0.1,0.2c0.3,0.3,1.2,0.3,2.3,0.1C462.7,246.8,461.9,246.5,461.2,246.4L461.2,246.4z"/>
<path class="st8" d="M463.7,247.3L463.7,247.3c-0.7-0.3-1.9-1.4-1.8-2c0-0.1,0.1-0.3,0.5-0.3c0.1,0,0.2,0,0.4,0
	c0.1,0,0.2,0.1,0.3,0.2c0.7,0.5,0.8,1.9,0.8,2C463.8,247.2,463.8,247.2,463.7,247.3C463.8,247.2,463.8,247.3,463.7,247.3
	C463.8,247.3,463.7,247.3,463.7,247.3z M462.5,245.2L462.5,245.2c-0.3,0-0.3,0.1-0.3,0.1c-0.1,0.4,0.8,1.2,1.4,1.6
	c0-0.6-0.3-1.1-0.7-1.6C462.8,245.3,462.6,245.2,462.5,245.2z"/>
<path class="st4" d="M512.3,239.1l-4.8,2l-4.9-10.9l4.8-2L512.3,239.1z"/>
<path class="st3" d="M507.1,241l5-2.9c0.1-0.1,0.2-0.1,0.3,0c0.1,0,0.2,0.1,0.2,0.2l2.8,3.6c0.1,0.1,0.1,0.2,0.1,0.3s0,0.2,0,0.3
	c0,0.1-0.1,0.2-0.1,0.3c-0.1,0.1-0.2,0.2-0.3,0.2c-1.8,1-2.7,1.3-4.9,2.6c-1.4,0.8-4.1,2.5-6,3.6c-1.9,1.1-3-0.7-2.4-1.3
	c3.1-2.8,3.9-4.6,4.5-6.2C506.6,241.4,506.9,241.1,507.1,241z"/>
<g class="st7">
	<path class="st5" d="M502.6,230.1l2.5,5.6l4.8-2l-2.5-5.6L502.6,230.1z"/>
</g>
<path class="st8" d="M473.4,131.8c0,0,14.4,37,15.9,52.7c3.6,14.6,14.4,50.5,14.4,50.5l6.5-2.6c0,0-5.1-38.4-10.7-49
	c-0.5-17.5-5.4-38.6-11-54.2L473.4,131.8z"/>
<path class="st11" d="M473.4,131.8c0,0,14.4,37,15.9,52.7c3.6,14.6,14.4,50.5,14.4,50.5l6.5-2.6c0,0-4.1-38.4-9.7-49
	c-0.5-17.5-6.4-38.6-12-54.2L473.4,131.8z"/>
<path class="st3" d="M510.8,232.4l-7.6,3.1l-1.5-2.2l8.4-3.8L510.8,232.4z"/>
<path class="st8" d="M505.9,242.7c-0.4,0.3-0.8,0.4-1.2,0.3c-0.1,0-0.2-0.1-0.3-0.1c-0.1-0.1-0.1-0.2-0.2-0.3c0-0.1,0-0.1,0-0.2
	s0-0.1,0-0.2c0.4-0.6,2.7-0.7,2.9-0.7c0,0,0,0,0.1,0c0,0,0,0,0,0.1c0,0,0,0,0,0.1c0,0,0,0.1,0,0.1
	C506.8,242.1,506.4,242.4,505.9,242.7z M504.6,242.2c-0.1,0-0.1,0.1-0.2,0.2c0,0,0,0.1,0,0.1s0,0.1,0,0.1c0,0.1,0.1,0.1,0.1,0.2
	c0.1,0,0.1,0.1,0.2,0.1c0.4,0.1,1.2-0.3,2.1-1C506,241.8,505.3,242,504.6,242.2L504.6,242.2z"/>
<path class="st8" d="M507.2,241.8C507.2,241.8,507.2,241.8,507.2,241.8c-0.7,0.1-2.3-0.3-2.5-0.9c0-0.1,0-0.3,0.2-0.5
	c0.1-0.1,0.2-0.1,0.3-0.1c0.1,0,0.2,0,0.3,0c0.8,0.1,1.6,1.3,1.6,1.3c0,0,0,0,0,0.1S507.2,241.6,507.2,241.8
	C507.2,241.7,507.2,241.7,507.2,241.8C507.2,241.7,507.2,241.7,507.2,241.8z M505.1,240.6C505.1,240.6,505.1,240.6,505.1,240.6
	c-0.2,0.2-0.2,0.3-0.2,0.3c0.1,0.3,1.3,0.7,2,0.7c-0.3-0.5-0.8-0.9-1.4-1.1C505.4,240.5,505.2,240.5,505.1,240.6z"/>
<path class="st3" d="M468,82.7l-1-0.3C467,82.4,467.6,83.2,468,82.7z"/>
<path class="st3" d="M488.3,128l0.8,1.8c0.1,0.1,0,0.3-0.3,0.4l-21.2,3.7c-0.2,0-0.4,0-0.4-0.2l-0.5-1.8c0-0.1,0.1-0.3,0.3-0.3
	l20.9-3.6c0.1,0,0.1,0,0.2,0C488.2,127.9,488.2,128,488.3,128z"/>
<path class="st8" d="M485.8,130.8l0.6-0.1c0.1,0,0.2-0.1,0.2-0.2l-0.7-2.4c0-0.1-0.1-0.1-0.2-0.1l-0.6,0.1c-0.1,0-0.2,0.1-0.2,0.2
	l0.7,2.4C485.6,130.8,485.7,130.9,485.8,130.8z"/>
<g class="st12">
	<path class="st13" d="M485.8,130.8l0.6-0.1c0.1,0,0.2-0.1,0.2-0.2l-0.7-2.4c0-0.1-0.1-0.1-0.2-0.1l-0.6,0.1c-0.1,0-0.2,0.1-0.2,0.2
		l0.7,2.4C485.6,130.8,485.7,130.9,485.8,130.8z"/>
</g>
<path class="st8" d="M469.2,133.7l0.6-0.1c0.1,0,0.2-0.1,0.2-0.2l-0.7-2.4c0-0.1-0.1-0.1-0.2-0.1l-0.6,0.1c-0.1,0-0.2,0.1-0.2,0.2
	l0.7,2.4C469,133.7,469.1,133.7,469.2,133.7z"/>
<g class="st12">
	<path class="st13" d="M469.2,133.7l0.6-0.1c0.1,0,0.2-0.1,0.2-0.2l-0.7-2.4c0-0.1-0.1-0.1-0.2-0.1l-0.6,0.1c-0.1,0-0.2,0.1-0.2,0.2
		l0.7,2.4C469,133.7,469.1,133.7,469.2,133.7z"/>
</g>
<path class="st8" d="M477.5,132.3l0.6-0.1c0.1,0,0.2-0.1,0.2-0.2l-0.7-2.4c0-0.1-0.1-0.1-0.2-0.1l-0.6,0.1c-0.1,0-0.2,0.1-0.2,0.2
	l0.7,2.4C477.3,132.3,477.4,132.3,477.5,132.3z"/>
<g class="st12">
	<path class="st13" d="M477.5,132.3l0.6-0.1c0.1,0,0.2-0.1,0.2-0.2l-0.7-2.4c0-0.1-0.1-0.1-0.2-0.1l-0.6,0.1c-0.1,0-0.2,0.1-0.2,0.2
		l0.7,2.4C477.3,132.3,477.4,132.3,477.5,132.3z"/>
</g>
<path class="st4" d="M490.6,132l-3.9,4l5.2,0.3c0,0,1.8-2.8,0.7-4.7L490.6,132z"/>
<path class="st4" d="M485,104.8c1.5,2.4,3,4.7,4.6,7.1c1.5,2.3,3.1,4.7,4.5,7l0.2,0.4c0,0,0,0,0.1,0.1c0.1,0.2,0.1,0.3,0.1,0.5
	c0,0.5,0,1-0.1,1.6c-0.2,1.3-0.5,2.5-1,3.7c-0.4,1.3-0.9,2.5-1.5,3.8c-0.5,1.3-1.1,2.5-1.7,3.8l2.2,1.4c1.8-2.3,3.3-4.8,4.6-7.4
	c0.7-1.4,1.2-2.8,1.6-4.3c0.2-0.9,0.3-1.7,0.4-2.6c0-0.5-0.1-1.1-0.2-1.6c-0.1-0.3-0.2-0.6-0.3-0.9l-0.2-0.3l-0.1-0.3
	c-0.7-1.3-1.4-2.5-2.1-3.8c-0.7-1.2-1.5-2.4-2.2-3.6c-1.5-2.4-3-4.8-4.6-7.2L485,104.8z"/>
<path class="st3" d="M483.6,97.9c5.1-0.9,8.9,6.9,8.9,6.9l-5.9,7.3c0,0-3.8-4.3-4.6-7C481,102.3,481.1,98.3,483.6,97.9z"/>
<path class="st4" d="M486.2,140.4l4.4,0.1l1.3-4l-5.2-0.3L486.2,140.4z"/>
<path class="st8" d="M44.4,220.8c0.6,0,1.2-0.1,1.4-0.4c0.1-0.1,0.1-0.2,0.1-0.2c0-0.1,0-0.2-0.1-0.2c0-0.1-0.1-0.1-0.2-0.2
	c-0.1,0-0.1-0.1-0.2-0.1c-0.8-0.2-2.4,0.7-2.5,0.8c0,0,0,0,0,0.1c0,0,0,0,0,0.1c0,0,0,0,0,0.1c0,0,0,0,0.1,0
	C43.5,220.7,43.9,220.8,44.4,220.8z M45.1,219.9c0.1,0,0.1,0,0.2,0c0.1,0,0.2,0.1,0.2,0.2c0.1,0.1,0.1,0.2,0,0.2
	c-0.2,0.3-1.4,0.3-2.3,0.2C43.9,220.1,44.5,220,45.1,219.9L45.1,219.9z"/>
<path class="st8" d="M43,220.6L43,220.6c0.6-0.3,1.7-1.3,1.6-1.8c0-0.1-0.1-0.3-0.4-0.3c-0.1,0-0.2,0-0.3,0c-0.1,0-0.2,0.1-0.3,0.2
	c-0.6,0.5-0.7,1.8-0.7,1.8c0,0,0,0,0,0.1C42.9,220.6,42.9,220.6,43,220.6C43,220.6,43,220.6,43,220.6z M44.1,218.7L44.1,218.7
	c0.3,0,0.3,0.1,0.3,0.1c0.1,0.3-0.7,1.1-1.2,1.5c0-0.5,0.2-1,0.6-1.4C43.8,218.8,43.9,218.7,44.1,218.7z"/>
<path class="st14" d="M37.8,220.5h4.7l0.1-10.9h-4.7L37.8,220.5z"/>
<path class="st3" d="M42.5,220h-5.1c-0.1,0-0.2,0-0.2,0.1c-0.1,0.1-0.1,0.1-0.1,0.2l-0.8,4.2c0,0.1,0,0.2,0,0.3
	c0,0.1,0.1,0.2,0.1,0.3c0.1,0.1,0.2,0.1,0.2,0.2c0.1,0,0.2,0.1,0.3,0.1c1.8,0,4.5-0.1,6.8-0.1c2.7,0,3,0.2,6.2,0.2
	c1.9,0,2.4-1.9,1.6-2.1c-3.7-0.8-4.7-0.9-7.9-2.8C43.3,220.1,42.9,220,42.5,220z"/>
<path class="st5" d="M42.6,209.7l0,5.6h-4.7l0-5.6H42.6z"/>
<path class="st8" d="M6.8,219.1c0-0.5-0.1-1-0.4-1.4c-0.1-0.1-0.2-0.1-0.2-0.1c-0.1,0-0.2,0-0.2,0.1c-0.1,0-0.1,0.1-0.2,0.1
	c0,0.1-0.1,0.1-0.1,0.2c-0.2,0.8,0.9,2.4,0.9,2.5c0,0,0,0,0.1,0s0,0,0.1,0c0,0,0,0,0.1,0c0,0,0,0,0-0.1
	C6.8,220.1,6.8,219.6,6.8,219.1z M5.8,218.4c0-0.1,0-0.1,0-0.2c0,0,0-0.1,0-0.1c0,0,0.1-0.1,0.1-0.1c0.1-0.1,0.2,0,0.2,0
	c0.3,0.2,0.4,1.4,0.3,2.3C6.2,219.7,6,219,5.8,218.4z"/>
<path class="st8" d="M6.7,220.5C6.7,220.5,6.7,220.5,6.7,220.5c-0.3-0.6-1.4-1.7-1.9-1.7c-0.1,0-0.3,0.1-0.3,0.4
	c0,0.2,0.1,0.4,0.2,0.6c0.5,0.4,1.2,0.7,1.8,0.7C6.7,220.6,6.7,220.6,6.7,220.5C6.7,220.6,6.7,220.6,6.7,220.5
	C6.7,220.6,6.7,220.6,6.7,220.5z M4.8,219.4L4.8,219.4c0-0.3,0.1-0.3,0.1-0.3c0.3-0.1,1.2,0.7,1.5,1.3c-0.5-0.1-1.1-0.3-1.5-0.6
	C4.8,219.7,4.8,219.5,4.8,219.4L4.8,219.4z"/>
<path class="st14" d="M6.7,220.6l4.6,0.3l1.9-10.9l-4.6-0.3L6.7,220.6z"/>
<path class="st3" d="M6.6,219.5l5.1-0.4c0.1,0,0.2,0,0.3,0.1c0.1,0.1,0.1,0.1,0.2,0.2l1.5,4.1c0,0.1,0,0.2,0,0.3
	c0,0.1,0,0.2-0.1,0.3c-0.1,0.1-0.1,0.2-0.2,0.2c-0.1,0.1-0.2,0.1-0.3,0.1c-1.8,0.1-4.5,0.3-6.8,0.5c-2.7,0.2-0.9,0.2-4.1,0.5
	c-1.9,0.2-2.7-1.7-2-2c3.5-1.1,4.1-1.9,5.3-3.3c0.1-0.1,0.3-0.3,0.5-0.3C6.2,219.6,6.4,219.5,6.6,219.5z"/>
<path class="st5" d="M13.2,210l-1,5.6l-4.6-0.3l1-5.6L13.2,210z"/>
<path class="st3" d="M44.3,101.2c0,0-8.6,36-11.8,49.4c-3.6,14.6-17.6,63.2-17.6,63.2L6.5,212c0,0,9.1-41.8,12.7-62.2
	c2.8-15.7,9-48.7,9-48.7H44.3z"/>
<path class="st8" d="M16.1,211.3l-0.6,3.2l-10-1.1l-0.1-3L16.1,211.3z"/>
<path class="st15" d="M39.3,117.9c-5.9,0.8-7,21.6-7.1,33.8l0.3-1.1c1.8-7.3,5.1-21.4,7.8-32.6C40,117.9,39.6,117.8,39.3,117.9z"/>
<path class="st3" d="M53.2,101.2c0,0-2.3,35.1-3.3,49.4c-1.1,14.9-5.3,63.6-5.3,63.6h-8c0,0-0.8-47.9-1.1-62.5
	c-0.3-15.9,1.1-50.5,1.1-50.5H53.2z"/>
<path class="st8" d="M45.7,211c0,0-0.3,3.3-0.3,3.3h-9.7l-0.4-2.9L45.7,211z"/>
<path class="st16" d="M31,67.4c-1.3,2.6-2.6,5.3-3.8,8c-1.2,2.7-2.4,5.4-3.3,8.1l-0.4,1l-0.3,1L23.1,86c0-0.1,0-0.2,0-0.3
	c0-0.4-0.3-0.9-0.6-1.1c-0.3-0.2-0.3-0.1-0.2,0c0.2,0.1,0.4,0.1,0.6,0.2c0.6,0.1,1.2,0.2,1.8,0.2c2.9,0.1,5.8,0,8.7-0.3h0.1
	c0.4,0,0.8,0.1,1.2,0.3c0.3,0.3,0.6,0.6,0.7,1c0.1,0.4,0,0.9-0.2,1.2c-0.2,0.4-0.5,0.7-0.9,0.8c-3,1.2-6.1,2-9.3,2.4
	c-0.9,0.1-1.8,0.1-2.8,0c-0.6,0-1.1-0.1-1.6-0.3c-0.8-0.2-1.5-0.6-2.2-1.1c-0.5-0.4-0.8-0.9-1.1-1.4c-0.3-0.5-0.4-1.1-0.5-1.8
	c0-0.5,0-1,0.1-1.5l0.1-0.7l0.3-1.2l0.3-1.2c0.9-3,1.9-6,3.1-8.9c1.2-2.9,2.5-5.7,4-8.5c0.4-0.8,1.2-1.4,2.1-1.7
	c0.9-0.3,1.9-0.2,2.7,0.2c0.8,0.4,1.5,1.2,1.8,2C31.5,65.5,31.4,66.5,31,67.4L31,67.4z"/>
<path class="st14" d="M33.5,84.8l2.9-1.1l-0.1,5.4C35.1,89,33.9,88.6,33,88c-0.2-0.2-0.4-0.4-0.5-0.7c-0.1-0.3-0.1-0.6,0-0.9
	l0.2-0.6c0.1-0.2,0.2-0.4,0.3-0.6C33.1,85,33.3,84.9,33.5,84.8z"/>
<path class="st14" d="M41.2,83.1l-1,4.7l-3.9,1.3l0.1-5.4L41.2,83.1z"/>
<path class="st3" d="M46.6,43.1c0.1,0.4,0.3,0.6,0.6,0.6c0.2,0,0.4-0.4,0.3-0.8c-0.1-0.4-0.3-0.7-0.6-0.6
	C46.7,42.5,46.6,42.8,46.6,43.1z"/>
<path class="st17" d="M46.9,43.8c0.7,1,1.5,2,2.4,2.8c-0.2,0.2-0.5,0.4-0.8,0.5c-0.3,0.1-0.6,0.2-0.9,0.2L46.9,43.8z"/>
<path class="st3" d="M44.9,41.4c-0.1,0-0.1,0-0.2-0.1c0,0,0,0,0-0.1c0,0,0-0.1,0-0.1s0-0.1,0-0.1c0,0,0-0.1,0-0.1
	c0.2-0.3,0.5-0.5,0.9-0.6c0.3-0.1,0.7-0.2,1-0.1c0.1,0,0.1,0,0.1,0.1c0,0,0,0.1,0,0.2c0,0,0,0.1,0,0.1c0,0,0,0-0.1,0.1
	c0,0,0,0-0.1,0c0,0-0.1,0-0.1,0c-0.3,0-0.6,0-0.8,0.1c-0.3,0.1-0.5,0.3-0.7,0.5C45,41.3,45,41.3,44.9,41.4
	C44.9,41.4,44.9,41.4,44.9,41.4z"/>
<path class="st14" d="M36.3,49.9c0.7,3.4,1.1,8.2-1.3,10.5c0,0,0.9,3.5,7.3,3.5c7,0,3.4-3.1,3.4-3.1c-2.9-0.9-2.9-4.2-2.2-6.9
	L36.3,49.9z"/>
<path class="st8" d="M26.6,60.4c-4.4,1-7.3,12.9-7.3,12.9l7.4,5.5c2.7-2,4.7-4.8,5.4-8.1C33.6,64.8,31.1,59.4,26.6,60.4z"/>
<path class="st5" d="M30.4,68.6c-2.5,2.7-4,6.2-4.1,9.8l0.4,0.3c2.7-2,4.7-4.8,5.4-8.1c0.1-0.3,0.2-0.7,0.2-1L30.4,68.6z"/>
<path class="st8" d="M54.4,65.1c0.9,5,2.4,16.9-0.3,37.2c0,0.2-0.1,0.3-0.2,0.4c-0.1,0.1-0.3,0.2-0.4,0.2c-2.3,0.3-4.6,0.2-6.9-0.1
	c-4.6-0.7-8.4-0.4-12.9,0c-2,0.2-4,0.2-5.9,0.1c-0.1,0-0.2,0-0.3-0.1c-0.1,0-0.2-0.1-0.2-0.2c-0.1-0.1-0.1-0.2-0.1-0.3
	c0-0.1,0-0.2,0-0.3c0.7-5.2,3.2-24.6-0.3-41.7c2.8-0.5,5.6-0.9,8.4-1.1c3.6-0.2,7.1-0.2,10.7,0c1.2,0.1,2.3,0.3,3.4,0.5
	c1.3,0.2,2.5,0.9,3.5,1.8S54.1,63.8,54.4,65.1z"/>
<path class="st14" d="M34.1,44.9c1.2,4.5,1.7,7.2,4.5,9.1c4.2,2.8,9.4-0.4,9.5-5.2c0.1-4.3-1.8-10.9-6.7-11.8
	c-1.1-0.2-2.2-0.1-3.2,0.2c-1,0.3-2,0.9-2.7,1.7c-0.7,0.8-1.3,1.8-1.5,2.8C33.8,42.7,33.8,43.8,34.1,44.9z"/>
<path class="st3" d="M44.6,46.2c1.4,3.1,1,5.9-0.8,7.3c-2,1.5-7.5,1.7-9.6-0.4c0.8-0.8,1.2-1.8,0.2-3.2c-1-1.4-4.8-3.6-4.8-6.7
	c-0.1-3,1.9-3.4,1.8-3.4c-1.8-0.8-1.7-3.6,0.3-5.2c2.1-1.7,5.4-2.1,9.4-1.3c2.5,0.5,5,0.5,4.6-1.1c3,1.7,1.5,8-1.4,8.9
	c0.5,1.1,2.4,3,2.4,3S46.3,45.9,44.6,46.2z"/>
<path class="st3" d="M31.7,39.3c0,0-1.1,0.7-3.9-0.2c0.8,1.4,3.6,1.5,4.3,1.1C32.7,39.9,31.7,39.3,31.7,39.3z"/>
<path class="st14" d="M42.8,45.1c0.3,1.1,0.9,2,1.7,2.7c1.1,0.9,2,0.1,2-1.2c0-1.2-0.7-3-1.9-3.4C43.3,42.7,42.5,43.8,42.8,45.1z"/>
<path class="st16" d="M61.2,70.1c1.3,0.7,2.6,1.5,3.9,2.2c1.3,0.7,2.6,1.5,3.9,2.2l3.3,1.9c1.3,0.7,2.5,1.5,3.8,2.1l0.9,0.5l0.2,0.1
	l0,0c0,0,0,0-0.1,0c-0.2-0.1-0.4-0.1-0.5-0.2c-0.4-0.1-0.7-0.1-1.1,0c-0.3,0-0.5,0.1-0.8,0.2c-0.2,0.1-0.3,0.2-0.4,0.3
	c-0.1,0.1-0.2,0.1-0.2,0.2c-0.1,0.1-0.1,0.1-0.2,0.2c0,0-0.1,0.1-0.1,0.1c0.1-0.2,0.2-0.3,0.3-0.5c0.1-0.3,0.3-0.6,0.4-0.9
	c0.5-1.3,1.1-2.6,1.6-4c0.5-1.4,1.1-2.7,1.7-4.1l0,0c0.2-0.4,0.5-0.7,0.8-0.9c0.4-0.2,0.8-0.2,1.2-0.1c0.4,0.1,0.8,0.3,1,0.7
	c0.3,0.3,0.4,0.7,0.4,1.2c-0.1,3.1-0.5,6.2-1.2,9.2c-0.1,0.4-0.2,0.8-0.3,1.2c-0.2,0.5-0.4,1-0.6,1.5c-0.1,0.2-0.2,0.4-0.4,0.6
	c-0.1,0.2-0.2,0.3-0.4,0.4c-0.1,0.1-0.2,0.2-0.4,0.3c-0.2,0.1-0.4,0.2-0.6,0.3c-0.3,0.1-0.6,0.2-0.9,0.3c-0.4,0.1-0.8,0.1-1.2,0
	c-0.2,0-0.4-0.1-0.6-0.2l-0.1-0.1l-0.1,0l-0.3-0.1c-0.4-0.2-0.7-0.3-1.1-0.5c-1.4-0.6-2.8-1.3-4.1-2c-2.7-1.4-0.9-0.2-3.5-1.6
	c-1.3-0.7-2.6-1.5-3.9-2.2c-1.3-0.7-2.6-1.5-3.9-2.2c-0.8-0.5-1.4-1.2-1.7-2.2c-0.2-0.9-0.1-1.9,0.3-2.7c0.5-0.8,1.2-1.4,2.2-1.7
	C59.4,69.6,60.3,69.7,61.2,70.1L61.2,70.1z"/>
<path class="st14" d="M79.5,65.6c-0.6,0.8-1,1.7-1.2,2.6c-0.2,0.9-0.2,1.9-0.1,2.9l2.4,1.2l2.8-2.5c0.2-0.2,0.4-0.5,0.4-0.8l0.5-3.2
	c0-0.3,0-0.6-0.2-0.9c-0.1-0.3-0.4-0.5-0.6-0.6l-2.8-1.5L79.5,65.6z"/>
<path class="st8" d="M48.6,71.1c2.7,4.5,10.9,8,10.9,8l4.5-9.1c0,0-4.4-6-10-7.7C47.2,60.3,46,66.9,48.6,71.1z"/>
<path class="st3" d="M46.9,59.3c-0.8-2.2-9.4-2.6-14.6-2.1c-5.2,0.5-2.6,4.6-1.7,5.2c-2.4,0.9-1.1,5,3.3,7.1
	C38.2,71.6,47.8,62,46.9,59.3z"/>
<path class="st3" d="M67.5,121.5c-2.4,2.7-5.5,10.8,3.9,9.2C80.8,129,67.5,121.5,67.5,121.5z"/>
<path class="st3" d="M70.5,114.1c0.6-3.6-6-11.8-8.6-6.7C58.7,113.4,70.5,114.1,70.5,114.1z"/>
<path class="st3" d="M70.5,116.2c3-2.1,4.3-12.5-1.2-10.9C62.8,107.4,70.5,116.2,70.5,116.2z"/>
<path class="st4" d="M85.6,148.3c-0.1,0.6-0.1,1.2-0.2,1.9c0,0.6-0.1,1.3-0.1,2c0,1.3-0.1,2.6,0,3.9c0.1,2.6,0.3,5.2,0.7,7.8
	c0.1,0.7,0.2,1.3,0.4,1.9l0,0.2c0,0,0,0,0,0.1c0,0,0,0,0,0.1s0.3,0.2,0.8,0.3c0.5,0.1,1.1,0.1,1.6,0c2.5-0.4,5-1.1,7.4-2.1l1.3,2.3
	c-0.6,0.4-1.2,0.8-1.8,1.2c-0.6,0.4-1.2,0.7-1.9,1c-1.3,0.7-2.7,1.2-4.2,1.6c-0.8,0.2-1.7,0.3-2.5,0.4c-1.1,0-2.2-0.2-3.2-0.8
	c-0.6-0.4-1.1-0.8-1.4-1.4c-0.2-0.3-0.3-0.5-0.4-0.8c-0.1-0.1-0.1-0.3-0.2-0.4l-0.1-0.2l0-0.1c-0.2-0.7-0.4-1.4-0.5-2.1
	c-0.6-2.8-1-5.7-1.1-8.6c-0.1-1.4-0.1-2.9,0-4.3c0-0.7,0.1-1.4,0.1-2.2c0.1-0.7,0.1-1.4,0.2-2.2L85.6,148.3z"/>
<path class="st3" d="M84.9,142c2,0.9,2,9.8,2,9.8l-9,4.1c0,0-1.5-10.8,0.5-12.8C80.4,141,82,140.7,84.9,142z"/>
<path class="st5" d="M84.4,143.9l1.3,8.4l-4.9,2.2L84.4,143.9z"/>
<path class="st4" d="M94.9,165.4l3.7-4.1l1.2,4.5c0,0-2.4,2.3-4.4,1.6L94.9,165.4z"/>
<path class="st4" d="M101.1,161.1l0.6,2.2c0,0.2,0,0.4,0,0.5c-0.1,0.2-0.1,0.3-0.3,0.5l-1.5,1.4l-1.2-4.5l0.7-0.7
	c0.1-0.1,0.3-0.2,0.5-0.2c0.2,0,0.4,0,0.5,0c0.2,0.1,0.3,0.2,0.4,0.3C101,160.8,101.1,161,101.1,161.1z"/>
<path class="st3" d="M86,144.1c-0.3,3-1.8,10.4-7.9,28.2l-20.6-3.6c1.7-7.9,2.6-13,1.8-28.8c0-0.4,0-0.7,0.2-1
	c0.1-0.3,0.3-0.6,0.6-0.9c0.2-0.3,0.5-0.5,0.9-0.6c0.3-0.1,0.7-0.2,1-0.2c2.1,0,4.1,0.1,6.2,0.4c3.2,0.3,6.3,0.8,9.4,1.6
	c2.5,0.7,5.2,1.6,6.8,2.2c0.5,0.2,1,0.6,1.3,1.1C85.9,142.9,86.1,143.5,86,144.1z"/>
<path class="st5" d="M59.7,144.4c1.8,0.8,3.2,3.1,2.3,6.9c-0.4,1.7-1.3,3.2-2.5,4.4c0.2-3,0.2-6.4,0.1-10.9L59.7,144.4z"/>
<path class="st4" d="M70.9,127.2c0.1,3.1-0.3,8.8-2.8,10.4c0,0,1.8,2.2,6.8,6.1c4.8-2.6,2.6-4.5,2.6-4.5c-3.2-1.4-2.7-3.9-1.7-6.1
	L70.9,127.2z"/>
<path class="st5" d="M72.9,129.6l2.9,3.5c-0.2,0.5-0.4,1.1-0.6,1.6c-1.3-0.4-3.1-1.9-3.1-3.3C72,130.7,72.7,129.9,72.9,129.6z"/>
<path class="st4" d="M68.4,121.4c0.3,5.1,0.3,7.3,2.9,9.9c3.9,4,10.1,2.5,11.3-2.6c1.1-4.6,0.5-12.2-4.5-14.2
	c-1.1-0.5-2.3-0.6-3.5-0.5c-1.2,0.1-2.3,0.6-3.3,1.3c-1,0.7-1.7,1.6-2.3,2.7C68.5,119.1,68.3,120.2,68.4,121.4z"/>
<path class="st3" d="M68.4,124.9c2.2,0.1,4.7-4.1,3.7-6.1c1.2-0.3,6.1,0.3,6.1-1.5c2.2,1.6,7.1,1.6,7.9-0.5c0.8-2.1-1-4.1-3.4-3.3
	c-1.7-4.5-10.1-5.4-13.2-1.1C65.5,112.3,56.9,118.7,68.4,124.9z"/>
<path class="st3" d="M77.2,122.9c0,0.4,0.2,0.8,0.5,0.8c0.3,0,0.5-0.3,0.5-0.7c0-0.4-0.2-0.8-0.5-0.8
	C77.5,122.1,77.2,122.4,77.2,122.9z"/>
<path class="st3" d="M81.9,122.9c0,0.4,0.2,0.8,0.5,0.8c0.3,0,0.5-0.3,0.5-0.8s-0.2-0.8-0.5-0.8C82.2,122.1,81.9,122.5,81.9,122.9z"
	/>
<path class="st3" d="M82.3,122.2l1-0.3C83.3,121.9,82.8,122.7,82.3,122.2z"/>
<path class="st6" d="M80.5,123.6c0.4,0.9,0.9,1.8,1.5,2.6c-0.2,0.1-0.5,0.3-0.7,0.3c-0.3,0-0.5,0-0.8,0L80.5,123.6z"/>
<path class="st3" d="M78.1,128.2c0.2,0,0.4,0,0.6,0c0,0,0,0,0,0c0,0,0,0,0,0c0,0,0,0,0,0c0,0,0,0,0,0c0,0,0-0.1,0-0.1
	c0,0-0.1,0-0.1,0c-0.5,0-1-0.1-1.5-0.3c-0.5-0.2-0.9-0.6-1.2-1c0,0,0,0,0,0c0,0,0,0,0,0c0,0,0,0,0,0c0,0,0,0,0,0c0,0,0,0.1,0,0.1
	c0,0,0,0.1,0,0.1c0.3,0.4,0.6,0.7,1,0.9C77.2,127.9,77.6,128.1,78.1,128.2z"/>
<path class="st3" d="M77.4,128.9c0.2,0.1,0.4,0.2,0.5,0.3c0,0,0,0,0,0s0,0,0,0c0,0,0,0,0,0c0,0,0,0,0,0c0,0,0,0,0,0c0,0,0,0,0,0
	c0,0,0,0,0,0c0,0,0,0,0,0c-0.5-0.2-0.9-0.5-1.3-0.9c-0.3-0.4-0.6-0.8-0.7-1.3c0,0,0,0,0,0c0,0,0,0,0,0c0,0,0,0,0,0s0,0,0,0
	c0,0-0.1,0-0.1,0.1c0,0,0,0.1,0,0.1c0.1,0.4,0.3,0.9,0.6,1.2C76.6,128.3,77,128.6,77.4,128.9z"/>
<path class="st4" d="M66.8,125.4c0.3,0.9,0.9,1.7,1.8,2.2c1.2,0.6,2-0.3,1.9-1.6c-0.1-1.1-0.8-2.8-2-2.9c-0.3,0-0.6,0-0.8,0.2
	s-0.5,0.3-0.6,0.5c-0.2,0.2-0.3,0.5-0.3,0.8C66.7,124.9,66.7,125.2,66.8,125.4z"/>
<path class="st3" d="M75.1,120.5c0,0,0.1,0,0.2,0c0.1,0,0.1,0,0.1-0.1c0.8-0.8,2.2-0.6,2.2-0.6c0.1,0,0.1,0,0.2,0
	c0.1,0,0.1-0.1,0.1-0.2c0,0,0-0.1,0-0.1c0,0,0-0.1,0-0.1c0,0,0,0-0.1-0.1c0,0-0.1,0-0.1,0c-0.1,0-1.7-0.3-2.7,0.7c0,0,0,0-0.1,0.1
	c0,0,0,0.1,0,0.1s0,0.1,0,0.1C75,120.4,75,120.5,75.1,120.5L75.1,120.5z"/>
<path class="st3" d="M83.5,120.6c0,0,0.1,0,0.1,0s0.1,0,0.1-0.1c0,0,0.1-0.1,0.1-0.2c0-0.1,0-0.1-0.1-0.2c-0.3-0.3-0.6-0.4-1-0.5
	c-0.4-0.1-0.8-0.1-1.1,0c-0.1,0-0.1,0.1-0.1,0.1c0,0.1,0,0.1,0,0.2c0,0,0,0.1,0,0.1c0,0,0,0,0.1,0.1c0,0,0.1,0,0.1,0
	c0,0,0.1,0,0.1,0c0.3-0.1,0.6-0.1,0.9,0c0.3,0.1,0.6,0.2,0.8,0.4C83.4,120.6,83.5,120.6,83.5,120.6z"/>
<path class="st4" d="M76.1,286.6h5.2l-0.3-12h-5.2L76.1,286.6z"/>
<path class="st3" d="M81.6,286h-5.8c-0.1,0-0.2,0-0.3,0.1c-0.1,0.1-0.1,0.2-0.1,0.3l-0.4,4.6c0,0.1,0,0.2,0.1,0.3s0.1,0.2,0.2,0.3
	c0.1,0.1,0.2,0.2,0.3,0.2c0.1,0,0.2,0.1,0.3,0.1c2,0,3-0.2,5.5-0.2c1.6,0,4.8,0.2,7,0.2c2.2,0,2.2-2.1,1.3-2.3
	c-4.1-0.9-5.7-2.1-7.2-3.2C82.2,286.1,81.9,286,81.6,286z"/>
<g class="st7">
	<path class="st5" d="M81,274.6l0.2,6.2H76l-0.2-6.2H81z"/>
</g>
<path class="st8" d="M78.1,172.3c0,0,3.2,32.2,4.2,47.9c1,16.3-0.3,59.4-0.3,59.4h-7c0,0-4.3-48.5-4.3-58.2
	c-2.7-17.5-10.3-35.7-7.7-51.8L78.1,172.3z"/>
<path class="st13" d="M78.1,172.3c0,0,3.2,32.2,4.2,47.9c1,16.3-0.3,59.4-0.3,59.4h-7c0,0-4.3-48.5-4.3-58.2
	c-2.7-17.5-10.3-35.7-7.7-51.8L78.1,172.3z"/>
<path class="st10" d="M67.2,185c-1.5,0.4-2.8,1.2-3.7,2.4c1.1,6.7,2.9,13.5,4.5,20.4C69.1,200.4,68.4,187.8,67.2,185z"/>
<path class="st3" d="M74.4,279.9h8.2l0.6-2.6l-9.2-0.3L74.4,279.9z"/>
<path class="st8" d="M83.6,286.9c0.4,0,0.9-0.1,1.3-0.3c0.1-0.1,0.1-0.2,0.2-0.3c0-0.1,0-0.2,0-0.3c0-0.1,0-0.1-0.1-0.2
	c0-0.1-0.1-0.1-0.1-0.1c-0.7-0.3-2.7,0.7-2.9,0.8c0,0,0,0-0.1,0.1c0,0,0,0,0,0.1c0,0,0,0,0,0.1c0,0,0,0,0.1,0
	C82.5,286.8,83,286.9,83.6,286.9z M84.5,285.8c0.1,0,0.2,0,0.2,0c0,0,0,0,0.1,0.1c0,0,0,0.1,0,0.1c0,0.1,0,0.1,0,0.2
	s-0.1,0.1-0.1,0.2c-0.3,0.3-1.2,0.3-2.3,0.1C83,286.2,83.7,285.9,84.5,285.8L84.5,285.8z"/>
<path class="st8" d="M82,286.7L82,286.7c0.7-0.3,1.9-1.4,1.8-2c0-0.1-0.1-0.3-0.5-0.3c-0.1,0-0.2,0-0.4,0c-0.1,0-0.2,0.1-0.3,0.2
	c-0.7,0.5-0.8,1.9-0.8,2C81.9,286.6,81.9,286.6,82,286.7C81.9,286.7,81.9,286.7,82,286.7C81.9,286.7,81.9,286.7,82,286.7z
	 M83.2,284.6L83.2,284.6c0.3,0,0.3,0.1,0.3,0.1c0.1,0.4-0.8,1.2-1.4,1.6c0-0.6,0.3-1.1,0.7-1.6C82.9,284.7,83,284.6,83.2,284.6z"/>
<path class="st4" d="M33.4,278.5l4.8,2l4.9-10.9l-4.8-2L33.4,278.5z"/>
<path class="st3" d="M38.5,280.4l-5-2.9c-0.1-0.1-0.2-0.1-0.3,0c-0.1,0-0.2,0.1-0.2,0.2l-2.8,3.6c-0.1,0.1-0.1,0.2-0.1,0.3
	c0,0.1,0,0.2,0,0.3c0,0.1,0.1,0.2,0.1,0.3c0.1,0.1,0.2,0.2,0.3,0.2c1.8,1,2.7,1.3,4.9,2.6c1.4,0.8,4.1,2.5,6,3.6s3-0.7,2.4-1.3
	c-3.1-2.8-3.9-4.6-4.5-6.2C39,280.8,38.8,280.6,38.5,280.4z"/>
<g class="st7">
	<path class="st5" d="M43,269.6l-2.5,5.6l-4.8-2l2.5-5.6L43,269.6z"/>
</g>
<path class="st8" d="M72.3,171.3c0,0-8.4,37-9.9,52.7C58.9,238.6,42,274.5,42,274.5l-6.5-2.6c0,0,10.1-38.4,15.7-49
	c0.5-17.5,0.4-38.6,6-54.2L72.3,171.3z"/>
<path class="st13" d="M72.3,171.3c0,0-8.4,37-9.9,52.7C58.9,238.6,42,274.5,42,274.5l-6.5-2.6c0,0,10.1-38.4,15.7-49
	c0.5-17.5,0.4-38.6,6-54.2L72.3,171.3z"/>
<path class="st3" d="M34.9,271.8l7.6,3.1l1.5-2.2l-8.3-3.8L34.9,271.8z"/>
<path class="st8" d="M39.8,282.1c0.4,0.3,0.8,0.4,1.2,0.3c0.1,0,0.2-0.1,0.3-0.1c0.1-0.1,0.1-0.2,0.2-0.3c0-0.1,0-0.1,0-0.2
	c0-0.1,0-0.1,0-0.2c-0.4-0.6-2.7-0.7-2.9-0.7c0,0-0.1,0-0.1,0c0,0,0,0,0,0.1c0,0,0,0,0,0.1c0,0,0,0,0,0.1
	C38.9,281.5,39.3,281.9,39.8,282.1z M41.1,281.7c0.1,0,0.1,0.1,0.2,0.2c0,0,0,0.1,0,0.1c0,0,0,0.1,0,0.1c0,0.1-0.1,0.1-0.1,0.2
	c-0.1,0-0.1,0.1-0.2,0.1c-0.4,0.1-1.2-0.3-2.1-1C39.6,281.2,40.4,281.4,41.1,281.7L41.1,281.7z"/>
<path class="st8" d="M38.5,281.2C38.5,281.2,38.5,281.2,38.5,281.2c0.7,0.1,2.3-0.3,2.5-0.9c0-0.1,0-0.3-0.2-0.5
	c-0.1-0.1-0.2-0.1-0.3-0.1c-0.1,0-0.2,0-0.3,0c-0.8,0.1-1.6,1.3-1.6,1.3c0,0,0,0,0,0.1C38.5,281,38.5,281.1,38.5,281.2
	C38.5,281.1,38.5,281.1,38.5,281.2C38.5,281.2,38.5,281.2,38.5,281.2z M40.6,280C40.6,280,40.6,280,40.6,280
	c0.2,0.2,0.2,0.3,0.2,0.3c-0.1,0.3-1.3,0.7-2,0.7c0.3-0.5,0.8-0.9,1.4-1.1C40.3,279.9,40.4,279.9,40.6,280z"/>
<path class="st3" d="M77.6,122.1l1-0.3C78.6,121.8,78.1,122.6,77.6,122.1z"/>
<path class="st3" d="M57.4,167.4l-0.8,1.8c-0.1,0.1,0,0.3,0.3,0.3l21.2,3.7c0.2,0,0.4,0,0.4-0.2l0.5-1.8c0-0.1-0.1-0.3-0.3-0.3
	l-20.9-3.6c-0.1,0-0.1,0-0.2,0C57.5,167.4,57.4,167.4,57.4,167.4z"/>
<path class="st8" d="M59.8,170.3l-0.6-0.1c-0.1,0-0.2-0.1-0.2-0.2l0.7-2.4c0-0.1,0.1-0.1,0.2-0.1l0.6,0.1c0.1,0,0.2,0.1,0.2,0.2
	l-0.7,2.4C60.1,170.3,60,170.3,59.8,170.3z"/>
<g class="st12">
	<path class="st13" d="M59.8,170.3l-0.6-0.1c-0.1,0-0.2-0.1-0.2-0.2l0.7-2.4c0-0.1,0.1-0.1,0.2-0.1l0.6,0.1c0.1,0,0.2,0.1,0.2,0.2
		l-0.7,2.4C60.1,170.3,60,170.3,59.8,170.3z"/>
</g>
<path class="st8" d="M76.5,173.1l-0.6-0.1c-0.1,0-0.2-0.1-0.2-0.2l0.7-2.4c0-0.1,0.1-0.1,0.2-0.1l0.6,0.1c0.1,0,0.2,0.1,0.2,0.2
	l-0.7,2.4C76.7,173.1,76.6,173.2,76.5,173.1z"/>
<g class="st12">
	<path class="st13" d="M76.5,173.1l-0.6-0.1c-0.1,0-0.2-0.1-0.2-0.2l0.7-2.4c0-0.1,0.1-0.1,0.2-0.1l0.6,0.1c0.1,0,0.2,0.1,0.2,0.2
		l-0.7,2.4C76.7,173.1,76.6,173.2,76.5,173.1z"/>
</g>
<path class="st8" d="M68.2,171.7l-0.6-0.1c-0.1,0-0.2-0.1-0.2-0.2l0.7-2.4c0-0.1,0.1-0.1,0.2-0.1l0.6,0.1c0.1,0,0.2,0.1,0.2,0.2
	l-0.7,2.4C68.4,171.7,68.3,171.7,68.2,171.7z"/>
<g class="st12">
	<path class="st13" d="M68.2,171.7l-0.6-0.1c-0.1,0-0.2-0.1-0.2-0.2l0.7-2.4c0-0.1,0.1-0.1,0.2-0.1l0.6,0.1c0.1,0,0.2,0.1,0.2,0.2
		l-0.7,2.4C68.4,171.7,68.3,171.7,68.2,171.7z"/>
</g>
<path class="st4" d="M55.1,171.5l3.9,4l-5.2,0.4c0,0-1.8-2.8-0.7-4.7L55.1,171.5z"/>
<path class="st4" d="M60.7,144.2c-1.5,2.4-3,4.7-4.6,7.1c-1.5,2.3-3.1,4.7-4.5,7l-0.2,0.4c0,0,0,0-0.1,0.1c-0.1,0.2-0.1,0.3-0.1,0.5
	c0,0.5,0,1,0.1,1.6c0.2,1.3,0.5,2.5,1,3.7c0.4,1.3,0.9,2.5,1.5,3.8c0.5,1.3,1.1,2.5,1.7,3.8l-2.2,1.4c-1.8-2.3-3.3-4.8-4.6-7.4
	c-0.7-1.4-1.2-2.8-1.6-4.4c-0.2-0.9-0.3-1.7-0.4-2.6c0-0.5,0.1-1.1,0.2-1.6c0.1-0.3,0.2-0.6,0.3-0.9l0.2-0.3l0.1-0.3
	c0.7-1.3,1.4-2.5,2.1-3.8c0.7-1.2,1.5-2.4,2.2-3.6c1.5-2.4,3-4.8,4.6-7.2L60.7,144.2z"/>
<path class="st3" d="M62.1,137.3c-5.1-0.9-8.9,6.9-8.9,6.9l5.9,7.3c0,0,3.8-4.3,4.6-7C64.7,141.8,64.5,137.7,62.1,137.3z"/>
<path class="st4" d="M59.4,179.8l-4.4,0.1l-1.3-4l5.2-0.4L59.4,179.8z"/>
<path class="st3" d="M439.2,107.3c1.6-5.3-15-6.5-19.1,3c-5.6,13.3,2.6,20.8,2.6,20.8c4.8-2.6,14.1-3,19.2-1.3L439.2,107.3z"/>
<path class="st18" d="M440.5,276.9l-5.1,0.2l0-5.6l5.1-0.2L440.5,276.9z"/>
<path class="st8" d="M435.2,276.1h5.8c0.1,0,0.2,0,0.3,0.1c0.1,0.1,0.1,0.2,0.2,0.3l1.3,4.6c0,0.1,0,0.2,0,0.3
	c0,0.1-0.1,0.2-0.1,0.3c-0.1,0.1-0.2,0.2-0.3,0.2c-0.1,0-0.2,0.1-0.3,0.1c-2,0-3-0.2-5.6-0.2c-1.6,0-5.6,0.2-7.8,0.2
	c-2.2,0-2.6-2.2-1.7-2.3c4-0.9,6.2-2.1,7.4-3.2C434.6,276.2,434.9,276.1,435.2,276.1z"/>
<path class="st5" d="M435.3,271.6l0,2.9l5.1,0l0-3.1L435.3,271.6z"/>
<path class="st3" d="M423.6,168.6c-0.8,6.3,2,36.4,4.4,49.5c3.2,17.4,6.2,55.2,6.2,55.2l6.9-0.4c0,0,0.8-41.4-1.3-55.4
	c-0.1-18.4,0.2-50.7,0.2-50.7L423.6,168.6z"/>
<path class="st5" d="M439.9,186.8c0-4.7-3.5-8.4-4.3,0.6c-0.5,5.7,1.7,15.2,4.3,21.8C439.9,202,439.9,193.9,439.9,186.8z"/>
<path class="st18" d="M471.1,277.5l-4.7,0.1l-2.2-6.4l4.7-0.1L471.1,277.5z"/>
<path class="st8" d="M471,276.1h-5.8c0,0-0.1,0-0.1,0c0,0-0.1,0-0.1,0.1c0,0-0.1,0.1-0.1,0.1c0,0,0,0.1,0,0.1l0.4,4.6
	c0,0.2,0.2,0.5,0.4,0.6c0.2,0.2,0.4,0.3,0.7,0.3c2,0,3-0.2,5.5-0.2c1.6,0,3.6,0.2,5.8,0.2c2.2,0,1.8-2.2,0.8-2.3
	c-4.3-0.9-4.9-2.1-6.6-3.2C471.7,276.2,471.3,276.1,471,276.1z"/>
<path class="st5" d="M464.2,271.2l1.1,3.3l4.8,0.1l-1.2-3.6L464.2,271.2z"/>
<path class="st3" d="M431.5,167.7c0,0,10.7,39.2,16.1,50.7c3.5,17.9,16,55.3,16,55.3l7.3-0.5c0,0-7.9-37.9-12.8-55.4
	c-2.6-16.3-4.4-43.6-11.9-51.7L431.5,167.7z"/>
<path class="st18" d="M421.1,139.4c-0.1,3.3-0.4,6.5-0.8,9.7c-0.4,3.2-0.9,6.4-1.5,9.7l-0.2,1.2l-0.1,0.7c-0.1,0.4-0.2,0.8-0.4,1.1
	c-0.3,0.6-0.6,1.1-1.1,1.4c-0.6,0.5-1.4,0.7-2.1,0.7c-0.5,0-1-0.1-1.4-0.3c-0.3-0.1-0.6-0.3-0.9-0.5c-0.8-0.6-1.6-1.2-2.2-2
	c-0.6-0.7-1.1-1.3-1.7-2c-2-2.6-3.8-5.4-5.3-8.4c-0.2-0.3-0.2-0.7-0.1-1c0.1-0.3,0.3-0.6,0.6-0.8c0.3-0.2,0.6-0.3,1-0.2
	c0.3,0,0.7,0.2,0.9,0.5c2,2.4,4.1,4.9,6.2,7c0.5,0.5,1.1,1.1,1.6,1.5c0.4,0.4,0.9,0.8,1.5,1.1c0.1,0,0.2,0.1,0.2,0.1
	c0,0,0,0-0.3-0.1c-0.4,0-0.7,0.1-1,0.3c-0.2,0.1-0.3,0.3-0.4,0.5c0,0.1,0,0,0,0l0.1-0.5l0.2-1.2c0.4-3.1,0.7-6.2,1-9.4
	c0.3-3.1,0.5-6.3,0.7-9.4v0c0-0.8,0.4-1.5,0.9-2c0.6-0.5,1.3-0.8,2.1-0.7c0.8,0,1.5,0.4,2,0.9S421.2,138.7,421.1,139.4L421.1,139.4z
	"/>
<path class="st8" d="M418.7,135c-4.9,2.4-4.1,8.7-4.1,8.7l7.8,5.5c0,0,2.9-6.9,2.3-10.2C424.1,135.7,422.4,133.3,418.7,135z"/>
<path class="st5" d="M417.9,140.4c1.1-1.8,3.1-1.4,5.4,0.1c0.5,0.5,1,1,1.3,1.6c-0.5,2.5-1.2,4.9-2.2,7.3l-5.5-3.9
	C416.7,143.7,417.1,141.9,417.9,140.4z"/>
<path class="st18" d="M406,150.2l-1.2-4.5l-4,3.6c0,0,1.4,2.4,3.7,2.7L406,150.2z"/>
<path class="st18" d="M401.8,143.9l-0.8,0.8c-0.6,0.6-1,1.4-1,2.3c0,0.9,0.3,1.7,0.9,2.3l4-3.6l-1.1-1.6c-0.1-0.2-0.2-0.3-0.4-0.4
	c-0.2-0.1-0.3-0.2-0.5-0.2c-0.2,0-0.4,0-0.5,0.1C402.1,143.6,401.9,143.7,401.8,143.9z"/>
<path class="st18" d="M403.8,144.2c-1-1.3-1.9-2.8-2.7-4.2c-0.3-0.5-1.1,0.2-0.7,0.9c0.4,0.7,1.1,3.1,1.9,4
	C403.2,145.7,403.8,144.2,403.8,144.2z"/>
<path class="st8" d="M416.9,138.7c1.4,12.8,5.5,21.6,6.7,29.9l22.5-2.5c-1.3-8.3-1.9-13.7-0.3-29c0.1-0.7,0-1.3-0.2-2
	c-0.2-0.6-0.5-1.2-1-1.7c-0.4-0.5-1-0.9-1.6-1.2c-0.6-0.3-1.3-0.4-1.9-0.4c-1.4,0-2.9,0-4.4,0.1c-3.4,0.1-6.8,0.5-10.2,1.1
	c-2.4,0.5-4.9,1.2-6.7,1.7c-0.9,0.2-1.6,0.8-2.1,1.5C417.1,136.9,416.8,137.8,416.9,138.7z"/>
<path class="st19" d="M426.4,132.9c0,0-3.6,3.9,1.8,9.2c2-4.1,4.9-7.6,8.4-10.4L426.4,132.9z"/>
<path class="st18" d="M434.3,120.4c-0.3,3.4-0.2,9.5,2.3,11.4c0,0-5.6,3.1-8.7,8.4c-4-4-1.6-7.3-1.6-7.3c3.6-1.3,3.2-4,2.2-6.5
	L434.3,120.4z"/>
<path class="st5" d="M433.7,121c0.2,2-0.1,3.9-0.7,5.8c-0.5,1.3-2,2-3.7,2.3c-0.1-0.9-0.3-1.9-0.7-2.7L433.7,121z"/>
<path class="st18" d="M439.1,115.7c-1,5.5-1.3,7.8-4.4,10.3c-4.7,3.7-11.1,1.4-11.8-4.3c-0.6-5.1,1.1-13.1,6.7-14.7
	c1.2-0.3,2.5-0.4,3.8-0.1c1.3,0.3,2.4,0.9,3.4,1.8c0.9,0.9,1.7,2,2.1,3.2C439.3,113.1,439.3,114.4,439.1,115.7z"/>
<path class="st3" d="M434.9,111.3c-1.3,2.9-0.2,7.9,4,7.6c-3.4,3.9-2.6,12.3-2.6,12.3c2.1,0.2,4.2-0.3,6.1-1.3c0,0-1.3-8,0.1-13.6
	c1.1-4.6,1-13.4-8.9-11.5c-1.2,0.2-8.7,2.2-9.4,6.2C424.1,111.2,432.2,113.6,434.9,111.3z"/>
<path class="st18" d="M440.3,118.7c-0.1,0.5-0.3,1-0.6,1.4c-0.3,0.4-0.7,0.8-1.1,1.1c-1.2,0.7-2.2-0.2-2.2-1.6c0-1.2,0.7-3.1,2-3.3
	c0.3,0,0.6,0,0.9,0.1c0.3,0.1,0.5,0.3,0.7,0.5c0.2,0.2,0.3,0.5,0.4,0.8C440.4,118.1,440.4,118.5,440.3,118.7z"/>
<path class="st5" d="M442.2,140.7c-0.1,1.1,0.1,2.3,0.6,3.3s1.2,1.9,2.2,2.5c0.1-2.3,0.3-4.8,0.6-7.8
	C444.5,137.5,442.5,138.5,442.2,140.7z"/>
<path class="st3" d="M446.3,164.7l1.2,1.9c0.1,0.2-0.1,0.3-0.3,0.4l-23.6,2.6c-0.2,0-0.4-0.1-0.4-0.2l-0.4-2c0-0.1,0.1-0.3,0.4-0.3
	l22.8-2.6c0.1,0,0.1,0,0.2,0C446.2,164.6,446.2,164.6,446.3,164.7z"/>
<path class="st8" d="M443.5,167.6l0.6-0.1c0.1,0,0.2-0.1,0.2-0.2l-0.6-2.6c0-0.1-0.1-0.1-0.3-0.1l-0.6,0.1c-0.1,0-0.2,0.1-0.2,0.2
	l0.6,2.6C443.3,167.5,443.4,167.6,443.5,167.6z"/>
<path class="st8" d="M425.3,169.6l0.6-0.1c0.1,0,0.2-0.1,0.2-0.2l-0.6-2.6c0-0.1-0.1-0.1-0.3-0.1l-0.6,0.1c-0.1,0-0.2,0.1-0.2,0.2
	l0.6,2.6C425.1,169.6,425.2,169.6,425.3,169.6z"/>
<path class="st8" d="M434.4,168.6l0.6-0.1c0.1,0,0.2-0.1,0.2-0.2l-0.6-2.6c0-0.1-0.1-0.1-0.3-0.1l-0.6,0.1c-0.1,0-0.2,0.1-0.2,0.2
	l0.6,2.6C434.2,168.6,434.3,168.6,434.4,168.6z"/>
<path class="st3" d="M429.8,116.2c-0.1,0.4-0.3,0.8-0.6,0.8c-0.3,0-0.5-0.4-0.4-0.9c0.1-0.4,0.3-0.8,0.6-0.8
	S429.9,115.8,429.8,116.2z"/>
<path class="st3" d="M424.8,115.6c-0.1,0.4-0.3,0.8-0.6,0.8c-0.3,0-0.5-0.4-0.4-0.9s0.3-0.8,0.7-0.8
	C424.7,114.8,424.8,115.2,424.8,115.6z"/>
<path class="st3" d="M424.5,114.8l-1-0.4C423.4,114.3,423.9,115.2,424.5,114.8z"/>
<path class="st20" d="M426,116.6c-0.5,1-1.2,1.9-1.9,2.6c0.2,0.2,0.5,0.3,0.7,0.4c0.3,0.1,0.6,0.1,0.8,0.1L426,116.6z"/>
<path class="st3" d="M426.9,121.3C426.9,121.2,426.8,121.2,426.9,121.3c-0.1-0.1-0.1-0.1-0.1-0.1c0,0,0,0,0,0c0,0,0,0,0,0
	c0,0,0,0,0,0c0,0,0,0,0.1,0c0.6,0.1,1.1,0.1,1.7-0.1c0.5-0.2,1-0.5,1.4-0.8c0,0,0,0,0,0c0,0,0,0,0,0s0,0,0.1,0c0,0,0,0,0,0
	c0,0,0,0,0,0c0,0,0,0,0,0.1c0,0,0,0,0,0.1c0,0,0,0,0,0c-0.4,0.4-1,0.7-1.5,0.9C428.2,121.3,427.5,121.4,426.9,121.3L426.9,121.3z"/>
<path class="st3" d="M432.2,113.9C432.2,113.8,432.1,113.8,432.2,113.9c-0.3-0.4-0.5-0.6-0.8-0.8c-0.3-0.2-0.6-0.3-0.9-0.3
	c-0.1,0-0.1,0-0.2-0.1c0,0-0.1-0.1-0.1-0.2c0-0.1,0-0.1,0.1-0.2c0,0,0.1-0.1,0.2-0.1c0.4,0,0.8,0.2,1.2,0.4c0.3,0.2,0.6,0.5,0.8,0.9
	c0,0,0,0.1,0,0.1c0,0,0,0.1,0,0.1c0,0,0,0.1,0,0.1c0,0,0,0.1-0.1,0.1c0,0-0.1,0-0.1,0C432.3,113.9,432.2,113.9,432.2,113.9z"/>
<path class="st3" d="M423.4,113L423.4,113c-0.1-0.1-0.1-0.1-0.1-0.1c0,0,0-0.1,0-0.1s0-0.1,0-0.1c0,0,0-0.1,0.1-0.1
	c0.3-0.3,0.6-0.6,1-0.8c0.4-0.2,0.8-0.2,1.2-0.2c0.1,0,0.1,0,0.2,0.1c0,0.1,0.1,0.1,0.1,0.2s0,0.1-0.1,0.2c-0.1,0-0.1,0.1-0.2,0.1
	c-0.3,0-0.7,0-1,0.2c-0.3,0.1-0.6,0.3-0.8,0.6c0,0.1-0.1,0.1-0.2,0.1C423.5,113,423.5,113,423.4,113z"/>
<path class="st18" d="M445.5,135.2c1.9,2,3.8,4,5.6,6.1c0.9,1,1.8,2.1,2.6,3.2c0.9,1.1,1.8,2.3,2.5,3.6c0.2,0.4,0.5,0.8,0.7,1.2
	c0.1,0.3,0.2,0.6,0.3,1c0,0.1,0.1,0.3,0.1,0.4v0.3c0,0.1,0,0.2,0,0.3v0.2v0.1v0.1l0,0.1c-0.2,0.7-0.3,1.4-0.5,2.1
	c-0.4,1.4-0.9,2.8-1.6,4.2c-0.7,1.4-1.5,2.6-2.4,3.8c-0.5,0.6-1,1.1-1.6,1.7c-0.3,0.3-0.6,0.5-0.9,0.7c-0.2,0.1-0.3,0.2-0.5,0.3
	c-0.2,0.1-0.3,0.2-0.6,0.3l-1.4-2.4c0,0,0.1-0.2,0.2-0.2l0.3-0.3c0.2-0.2,0.4-0.4,0.5-0.7c0.3-0.5,0.6-1,0.9-1.5
	c0.6-1.1,1-2.2,1.4-3.3c0.2-0.6,0.4-1.2,0.5-1.8s0.3-1.2,0.4-1.8c0.1-0.6,0.2-1.2,0.3-1.8v-0.1v-0.1v0.1c0,0.1,0,0.2,0,0.2
	c0,0,0,0.1,0,0.1v0.2c0,0.1,0,0.1,0,0c0-0.1-0.2-0.3-0.4-0.6c-0.7-0.9-1.5-1.9-2.3-2.9s-1.7-2-2.6-2.9l-5.4-5.8L445.5,135.2z"/>
<path class="st18" d="M450.6,163.9l-4,3.7l-2.6-4.2c0,0,2.5-1.8,4.7-1.1L450.6,163.9z"/>
<path class="st18" d="M443.6,168.4l-1.3-1.4c-0.2-0.3-0.4-0.6-0.4-1c0-0.4,0.2-0.7,0.4-1l1.7-1.7l2.6,4.2l-1.1,0.9
	c-0.3,0.2-0.6,0.3-1,0.3C444.2,168.8,443.9,168.6,443.6,168.4z"/>
<path class="st8" d="M436.6,135c-0.3,2.4,6,9.2,6,9.2l5.9-7.4c0,0-2.7-3.8-4.8-4.7C440.2,130.7,436.9,132.3,436.6,135z"/>
<path class="st3" d="M429.5,115.4l-1-0.4C428.5,114.9,428.9,115.8,429.5,115.4z"/>
</svg>
