<svg xmlns="http://www.w3.org/2000/svg"  viewBox="0 0 48 48" width="96px" height="96px"><linearGradient id="SVGID_1_" x1="4.035" x2="41.312" y1="6.946" y2="40.563" gradientUnits="userSpaceOnUse"><stop offset="0" stop-color="#6e6e6e"/><stop offset=".999" stop-color="#4d4d4d"/></linearGradient><path fill="url(#SVGID_1_)" d="M6,11c0-2.2,1.8-4,4-4h27c2.2,0,4,1.8,4,4v27c0,2.2-1.8,4-4,4H10c-2.2,0-4-1.8-4-4V11z"/><path d="M26.9,40c-1.7,0-3.2-0.5-4.3-1.6c-1.1-1.1-1.7-2.5-1.7-4.2V34c0-1.1,0.2-2.2,0.6-3c0.4-0.9,1.1-1.7,2-2.2	c0.8-0.5,1.9-0.8,3-0.8c1.6,0,3,0.5,3.9,1.6c1,1,1.4,2.4,1.4,4.2V36h-1.1l1.1,1.3l-0.5,0.6c-0.5,0.7-1.1,1.2-2,1.6	C28.8,39.8,27.9,40,26.9,40z M14.8,40c-1.3,0-2.4-0.2-3.5-0.7c-1.1-0.5-1.9-1.1-2.5-2C8.2,36.4,8,34.9,8,34v-1h3.1	c-1.8-1-2.7-2.4-2.7-4.2c0-1,0.3-1.9,0.9-2.6c0.6-0.7,1.3-1.3,2.3-1.7c0.9-0.4,2-0.5,3.1-0.5c1.1,0,2.2,0.2,3.1,0.6	c1,0.4,1.7,1,2.3,1.8c0.5,0.7,0.8,1.5,0.8,2.5v1h-4.5c0.7,0.2,1.3,0.5,1.8,0.8c1.8,1,2.8,2.5,2.8,4.4c0,1.5-0.6,2.7-1.8,3.6	C18.1,39.6,16.6,40,14.8,40z M13.4,34c0,0.7,0.2,1.2,0.3,1.3c0.1,0,0.3,0.3,1.2,0.3c0.3,0,0.6-0.1,0.7-0.2c0,0,0.1-0.1,0.1-0.2	c0-0.2-0.1-0.3-0.1-0.3c-0.1-0.1-0.5-0.3-1.5-0.7C13.8,34.1,13.6,34,13.4,34L13.4,34z M13.8,28.8c0,0,0,0.1,0.2,0.2	c0.2,0.1,0.6,0.4,1.7,0.7V29c0-0.1,0-0.1,0-0.2c0,0-0.1-0.1-0.2-0.2c-0.2-0.1-0.4-0.2-0.8-0.2c-0.4,0-0.7,0.1-0.8,0.2	C13.8,28.8,13.8,28.8,13.8,28.8L13.8,28.8z" opacity=".05"/><path d="M26.9,39.5C25.3,39.5,24,39,23,38c-1-1-1.5-2.3-1.5-3.8V34c0-1.1,0.2-2,0.6-2.8c0.4-0.8,1-1.5,1.8-2	c0.8-0.5,1.7-0.7,2.7-0.7c1.5,0,2.7,0.5,3.6,1.4c0.9,0.9,1.3,2.2,1.3,3.9v1.7h-1.6l1.5,1.8l-0.2,0.3c-0.4,0.6-1,1.1-1.8,1.4	C28.6,39.3,27.8,39.5,26.9,39.5z M25.8,35.5c0.1,0.1,0.2,0.2,0.3,0.3c0.3,0.2,0.6,0.3,1.1,0.3c0.7,0,1.3-0.2,1.7-0.7H25.8z M27.5,32.5c0-0.2-0.1-0.3-0.2-0.4c-0.2-0.2-0.4-0.2-0.7-0.2c-0.4,0-0.7,0.1-0.9,0.7H27.5z M14.8,39.5c-1.2,0-2.3-0.2-3.3-0.6	c-1-0.4-1.8-1-2.3-1.8c-0.5-0.8-0.8-2.1-0.8-3.1v-0.5h4.4V34c0,0.8,0.2,1.5,0.4,1.6c0.3,0.3,0.8,0.4,1.5,0.4c0.4,0,0.8-0.1,1-0.3	c0.2-0.1,0.3-0.3,0.3-0.6c0-0.3-0.1-0.6-0.3-0.7c-0.2-0.2-0.7-0.4-1.7-0.8c-0.9-0.3-1.6-0.6-2.2-0.9c-2-1-3-2.3-3-4	c0-0.9,0.3-1.6,0.8-2.3c0.5-0.6,1.2-1.2,2.1-1.5c0.9-0.3,1.9-0.5,3-0.5c1.1,0,2,0.2,2.9,0.6c0.9,0.4,1.6,0.9,2.1,1.7	c0.5,0.7,0.7,1.3,0.7,2.3v0.5h-4.4V29c0-0.4-0.1-0.4-0.4-0.7c-0.3-0.2-0.6-0.3-1.1-0.3c-0.5,0-0.9,0.1-1.1,0.3	c-0.2,0.2-0.3,0.3-0.3,0.6c0,0.1,0,0.3,0.4,0.5c0.2,0.2,0.7,0.5,1.9,0.8c1,0.3,1.8,0.7,2.5,1c1.7,0.9,2.5,2.3,2.5,3.9	c0,1.4-0.5,2.4-1.6,3.2C17.9,39.1,16.5,39.5,14.8,39.5z" opacity=".07"/><path fill="#fff" d="M16.6,35.2c0-0.5-0.2-0.9-0.5-1.1c-0.3-0.3-1-0.5-1.8-0.8c-0.9-0.3-1.6-0.6-2.1-0.8c-1.8-0.9-2.7-2.1-2.7-3.6	c0-0.8,0.2-1.4,0.7-2s1.1-1,1.9-1.3c0.8-0.3,1.8-0.5,2.8-0.5c1,0,1.9,0.2,2.7,0.5c0.8,0.3,1.4,0.8,1.9,1.5c0.4,0.6,0.7,1.2,0.7,2	h-3.4c0-0.6-0.2-0.8-0.5-1.1s-0.8-0.5-1.4-0.5c-0.6,0-1.1,0.1-1.4,0.4c-0.3,0.3-0.5,0.6-0.5,1c0,0.4,0.2,0.7,0.6,0.9	c0.4,0.3,1.1,0.6,2,0.9c1,0.3,1.8,0.6,2.4,1c1.5,0.8,2.3,2,2.3,3.5c0,1.2-0.5,2.1-1.4,2.8c-0.9,0.7-2.2,1-3.8,1	c-1.1,0-2.2-0.2-3.1-0.6c-0.9-0.4-1.6-0.9-2.1-1.6S9,34.9,9,34h3.4c0,0.7,0.2,1.7,0.6,2c0.4,0.3,1,0.5,1.9,0.5c0.6,0,1-0.1,1.3-0.4	C16.5,35.9,16.6,35.6,16.6,35.2z M26.9,39c-1.5,0-2.7-0.4-3.6-1.3c-0.9-0.9-1.4-2-1.4-3.4V34c0-1,0.2-1.9,0.5-2.6	c0.4-0.8,0.9-1.3,1.6-1.8c0.7-0.4,1.5-0.6,2.5-0.6c1.4,0,2.4,0.4,3.2,1.3c0.8,0.8,1.2,2,1.2,3.5V35h-6c0.1,0.5,0.3,0.9,0.7,1.2	c0.4,0.3,0.8,0.5,1.4,0.5c0.9,0,1.7-0.3,2.2-1l1.4,1.6c-0.4,0.5-0.9,0.9-1.6,1.2C28.5,38.8,27.7,39,26.9,39z M26.6,31.3	c-0.9,0-1.4,0.5-1.6,1.7h3v-0.2c0-0.5-0.1-0.9-0.4-1.1S27.1,31.3,26.6,31.3z"/><path d="M41,11c0-1.8-1.2-3.3-2.8-3.8l-8.6,7.9L25,10.6L20.6,15l8.3,9.5L41,13.9V11z" opacity=".05"/><path d="M41,11c0-1.6-1-3-2.3-3.6l-9.1,8.4L25,11.3L21.3,15l7.6,8.7l12-10.4V11z" opacity=".07"/><path fill="#21a366" d="M22,15l3-3l4.5,4.5L42,5l2,5L29,23L22,15z"/></svg>