<svg width="260" height="260" viewBox="0 0 260 260" fill="none" xmlns="http://www.w3.org/2000/svg">
<path d="M42.5672 229.32C89.9964 254.654 166.899 254.654 214.334 229.32C261.768 203.986 261.768 162.911 214.334 137.571C166.899 112.232 89.9964 112.237 42.562 137.571C-4.87243 162.906 -4.86723 203.991 42.5672 229.32Z" fill="url(#paint0_linear)"/>
<path d="M216.107 206.814C227.557 206.814 236.839 201.455 236.839 194.844C236.839 188.233 227.557 182.874 216.107 182.874C204.657 182.874 195.375 188.233 195.375 194.844C195.375 201.455 204.657 206.814 216.107 206.814Z" fill="#E0E0E0"/>
<path d="M88.1347 208.946C99.5849 208.946 108.867 203.587 108.867 196.976C108.867 190.365 99.5849 185.005 88.1347 185.005C76.6846 185.005 67.4023 190.365 67.4023 196.976C67.4023 203.587 76.6846 208.946 88.1347 208.946Z" fill="#E0E0E0"/>
<path d="M19.578 115.367C19.6111 114.732 19.7937 114.114 20.1108 113.563C20.428 113.011 20.8708 112.543 21.4032 112.195L115.003 58.1463C115.568 57.8628 116.191 57.7151 116.823 57.7151C117.455 57.7151 118.078 57.8628 118.643 58.1463L120.723 59.3371C121.256 59.6841 121.699 60.1517 122.017 60.7019C122.335 61.2521 122.519 61.8694 122.554 62.5039V134.264C122.517 134.899 122.333 135.517 122.015 136.067C121.697 136.618 121.255 137.087 120.723 137.436L27.1232 191.485C26.5577 191.766 25.9347 191.912 25.3032 191.912C24.6716 191.912 24.0486 191.766 23.4832 191.485L21.4032 190.294C20.8707 189.946 20.4275 189.477 20.1096 188.926C19.7916 188.375 19.6077 187.757 19.5728 187.122L19.578 115.367Z" fill="#92E3A9"/>
<path d="M118.68 58.1464L72.4308 34.9544C71.8781 34.6142 71.2623 34.3895 70.6204 34.2938C69.9785 34.1982 69.3239 34.2335 68.6961 34.3978C68.0682 34.562 67.4802 34.8518 66.9674 35.2495C66.4546 35.6472 66.0277 36.1447 65.7124 36.712L20.1084 113.563L22.5264 114.956L121.056 59.5504L118.68 58.1464Z" fill="#92E3A9"/>
<path opacity="0.1" d="M118.68 58.1464L72.4308 34.9544C71.8781 34.6142 71.2623 34.3895 70.6204 34.2938C69.9785 34.1982 69.3239 34.2335 68.6961 34.3978C68.0682 34.562 67.4802 34.8518 66.9674 35.2495C66.4546 35.6472 66.0277 36.1447 65.7124 36.712L20.1084 113.563L22.5264 114.956L121.056 59.5504L118.68 58.1464Z" fill="black"/>
<path opacity="0.1" d="M19.5728 115.362V187.122C19.6079 187.757 19.7924 188.375 20.1114 188.925C20.4303 189.475 20.8747 189.943 21.4084 190.289L23.4884 191.485C23.6552 191.573 23.8292 191.648 24.0083 191.708C24.253 191.792 24.5057 191.849 24.7624 191.88C25.2437 191.943 25.7324 191.926 26.208 191.828C26.3275 191.828 26.4472 191.771 26.5616 191.734C26.6351 191.711 26.7064 191.682 26.7747 191.646C26.6372 191.707 26.4884 191.739 26.338 191.739C26.1875 191.739 26.0387 191.707 25.9012 191.646C25.7059 191.517 25.5501 191.337 25.4509 191.125C25.3518 190.913 25.3133 190.677 25.3396 190.445V118.685C25.3209 118.359 25.402 118.035 25.572 117.756C25.742 117.478 25.9928 117.257 26.2912 117.125L25.3396 116.574L20.1396 113.578C19.8041 114.116 19.6092 114.729 19.5728 115.362Z" fill="black"/>
<path opacity="0.1" d="M122.143 60.892L79.9551 128.404L77.8751 127.998C76.2834 127.688 74.6361 127.838 73.1271 128.433C71.6181 129.027 70.3103 130.04 69.3575 131.352L66.7991 134.878L26.2391 117.109L22.5107 114.956L121.061 59.5504C121.511 59.9172 121.88 60.3742 122.143 60.892Z" fill="black"/>
<path d="M121.056 59.5504C120.803 59.3584 120.538 59.1846 120.26 59.0304L74.88 36.348C74.3258 36.001 73.7065 35.7708 73.0602 35.6715C72.4139 35.5722 71.7542 35.6058 71.1213 35.7703C70.4885 35.9349 69.8959 36.2269 69.3798 36.6284C68.8637 37.0299 68.435 37.5326 68.12 38.1056L22.5264 114.956L121.056 59.5504Z" fill="#92E3A9"/>
<path opacity="0.2" d="M121.711 136.547C122.219 135.905 122.519 135.123 122.569 134.306L79.9292 128.404L121.711 136.547Z" fill="black"/>
<path opacity="0.2" d="M66.8046 134.878L25.7246 191.511C25.5843 191.37 25.4763 191.2 25.4081 191.013C25.3399 190.827 25.313 190.627 25.3294 190.429V189.649L66.8046 134.878Z" fill="black"/>
<path d="M205.457 113.968C211.817 108.503 217.76 96.0544 216.065 92.17C213.138 92.0192 210.995 93.132 209.113 96.5952C209.113 96.5952 203.767 106.995 200.767 110.058C198.202 112.777 194.978 114.787 191.407 115.892C190.627 116.025 189.83 116.009 189.056 115.846C187.73 115.44 186.976 115.788 185.713 115.726C184.709 115.679 184.189 115.352 184.075 115.57C183.969 115.837 183.967 116.135 184.072 116.403C184.176 116.671 184.378 116.89 184.636 117.016C185.114 117.274 185.625 117.464 186.155 117.582C185.113 117.906 184.032 118.081 182.941 118.102C180.341 118.18 179.239 119.038 181.506 121.467C182.624 122.663 185.583 123.391 189.602 122.314C191.313 121.759 192.989 121.101 194.62 120.344C198.511 118.732 202.159 116.587 205.457 113.968Z" fill="#FFA8A7"/>
<path d="M225.862 190.128V189.472C225.602 190.242 224.411 193.534 222.602 195.192C221.161 196.503 219.196 198.021 218.696 199.482C218.197 200.944 221.432 201.516 222.773 201.276C224.333 201.001 226.356 200.117 227.453 198.765C228.228 197.813 228.717 196.685 229.273 195.941C229.83 195.198 231.099 194.355 231.395 193.492C231.561 193.019 231.364 191.979 231.135 191.1C230.906 190.221 230.693 189.405 230.417 189.478V189.998C229.77 190.51 228.965 190.782 228.14 190.767C227.474 190.767 225.857 190.637 225.862 190.128Z" fill="#263238"/>
<path d="M221.297 196.342L222.602 195.182C223.865 194.028 224.827 192.062 225.384 190.736C225.7 189.975 225.863 189.158 225.862 188.334V185.734H230.423V189.966V190.081C230.204 191.032 228.109 193.554 226.918 195.198C226.122 196.3 224.604 197.704 222.794 197.943C221.057 198.182 220.184 197.642 221.297 196.342Z" fill="#FFA8A7"/>
<path d="M208.062 185.64V184.985C207.808 185.754 206.612 189.046 204.802 190.705C203.362 192.015 201.401 193.534 200.902 194.995C200.403 196.456 203.632 197.028 204.979 196.789C206.539 196.513 208.562 195.629 209.659 194.277C210.428 193.326 210.922 192.197 211.474 191.454C212.025 190.71 213.299 189.894 213.6 189.004C213.762 188.531 213.569 187.491 213.34 186.612C213.112 185.734 212.898 184.917 212.623 184.99V185.51C211.974 186.022 211.167 186.294 210.34 186.28C209.68 186.269 208.057 186.16 208.062 185.64Z" fill="#263238"/>
<path d="M203.502 191.844C203.944 191.443 204.397 191.053 204.802 190.684C206.066 189.53 207.033 187.564 207.584 186.238C207.901 185.477 208.064 184.66 208.063 183.836V181.236H212.628V185.468V185.583C212.41 186.534 210.32 189.056 209.129 190.7C208.328 191.802 206.815 193.206 205.005 193.445C203.263 193.684 202.384 193.144 203.502 191.844Z" fill="#FFA8A7"/>
<path d="M229.518 119.22C233.054 126.942 229.388 154.159 229.388 154.159C229.497 155.412 230.948 157.877 231.468 163.4C232.097 169.915 230.48 186.28 230.48 186.28C229.784 186.682 229 186.909 228.196 186.941C227.392 186.973 226.593 186.808 225.867 186.462C225.867 186.462 221.52 161.803 220.699 155.324C219.986 149.666 218.619 137.228 218.619 137.228L214.724 155.293C215.292 157.116 215.705 158.984 215.956 160.878C216.325 164.689 212.633 182.442 212.633 182.442C212.633 182.442 211.073 183.019 208.068 182.577C208.068 182.577 206.763 159.021 206.419 154.424C205.842 146.713 207.891 122.642 209.305 118.076L229.518 119.22Z" fill="#92E3A9"/>
<path opacity="0.15" d="M218.613 137.238L217.464 130.062C217.464 130.062 212.607 129.054 210.402 126.984C210.402 126.984 212.711 129.86 216.148 130.801L217.438 136.323L215.181 153.052L218.613 137.238Z" fill="black"/>
<path d="M223.278 92.3781C227.812 92.6901 228.129 94.8793 229.263 97.2765C230.091 99.1227 230.169 101.218 229.481 103.121L226.32 112.263C226.32 112.263 227.797 115.84 229.518 119.22C221.588 123.646 211.682 121.3 209.3 118.087C209.196 117.4 209.82 112.044 210.189 108.55C208.791 105.045 208.421 102.83 209.014 100.506C210.106 96.2105 214.355 92.0193 216.232 92.1857L223.278 92.3781Z" fill="#F0F0F0"/>
<path d="M225.669 91.0885H209.128V79.3469C209.128 76.8755 210.11 74.5053 211.858 72.7578C213.605 71.0103 215.975 70.0285 218.447 70.0285H220.105C222.577 70.0285 224.947 71.0103 226.695 72.7578C228.442 74.5053 229.424 76.8755 229.424 79.3469V87.3341C229.424 88.3298 229.028 89.2848 228.324 89.9889C227.62 90.6929 226.665 91.0885 225.669 91.0885Z" fill="#263238"/>
<path d="M228.072 71.24L226.72 73.4448C226.86 73.542 227.019 73.6098 227.186 73.6442C227.353 73.6786 227.525 73.6787 227.692 73.6447C227.86 73.6107 228.018 73.5432 228.158 73.4463C228.299 73.3494 228.418 73.225 228.509 73.0808C228.688 72.7768 228.742 72.4157 228.66 72.0727C228.579 71.7297 228.368 71.4314 228.072 71.24Z" fill="#263238"/>
<path d="M229.965 73.2576L227.396 73.6424C227.412 73.812 227.463 73.9765 227.545 74.1259C227.627 74.2753 227.739 74.4065 227.873 74.5115C228.007 74.6165 228.161 74.6932 228.326 74.7369C228.491 74.7805 228.663 74.7903 228.831 74.7656C229.178 74.7079 229.489 74.5191 229.7 74.2383C229.911 73.9576 230.006 73.6064 229.965 73.2576Z" fill="#263238"/>
<path d="M212.982 74.1365C211.91 74.7709 210.584 77.4645 210.714 83.1169C210.829 87.9113 212.378 89.0917 213.158 89.4349C213.938 89.7781 215.441 89.5649 216.902 89.3257V92.2013C216.902 92.2013 214.885 94.5465 215.01 95.8413C215.134 97.1361 217.927 97.4741 219.82 96.1845C221.05 95.3018 222.108 94.2001 222.94 92.9345V86.0081C222.94 86.0081 223.922 87.3237 225.54 86.2525C227.157 85.1813 227.214 82.5293 226.273 81.5725C225.332 80.6157 223.314 80.9225 222.94 82.2381C222.94 82.2381 220.605 82.3213 217.5 80.6157C216.291 79.9669 215.251 79.0421 214.466 77.9164C213.681 76.7906 213.173 75.4956 212.982 74.1365Z" fill="#FFA8A7"/>
<path d="M216.601 81.9157C216.591 81.9983 216.597 82.0822 216.621 82.1621C216.644 82.242 216.684 82.3162 216.737 82.38C216.791 82.4438 216.857 82.4958 216.931 82.5328C217.006 82.5697 217.088 82.5909 217.171 82.5948C217.254 82.5988 217.337 82.5855 217.415 82.5558C217.492 82.526 217.563 82.4805 217.623 82.4221C217.682 82.3637 217.728 82.2936 217.759 82.2163C217.79 82.139 217.805 82.0561 217.802 81.9729C217.809 81.8925 217.799 81.8117 217.774 81.7351C217.749 81.6586 217.709 81.5877 217.656 81.5268C217.603 81.4658 217.539 81.4159 217.467 81.38C217.394 81.3442 217.316 81.323 217.235 81.3177C217.072 81.3135 216.914 81.374 216.795 81.486C216.676 81.598 216.607 81.7525 216.601 81.9157Z" fill="#263238"/>
<path d="M215.904 85.9768L214.505 86.424C214.528 86.5196 214.57 86.6095 214.629 86.6882C214.688 86.7669 214.762 86.8327 214.848 86.8814C214.933 86.9302 215.027 86.9609 215.125 86.9716C215.223 86.9824 215.322 86.973 215.415 86.944C215.608 86.8798 215.767 86.7422 215.859 86.561C215.95 86.3799 215.967 86.1699 215.904 85.9768Z" fill="#F28F8F"/>
<path d="M211.64 80.08L212.862 79.2376C212.811 79.1553 212.744 79.0842 212.664 79.0288C212.585 78.9734 212.495 78.9348 212.4 78.9153C212.305 78.8958 212.207 78.8959 212.112 78.9156C212.017 78.9352 211.927 78.974 211.848 79.0296C211.685 79.1443 211.572 79.3174 211.533 79.5131C211.495 79.7088 211.533 79.9118 211.64 80.08Z" fill="#263238"/>
<path d="M211.942 81.4788C211.938 81.5581 211.95 81.6372 211.977 81.7119C212.003 81.7865 212.045 81.8551 212.098 81.9138C212.151 81.9724 212.216 82.02 212.288 82.0538C212.359 82.0876 212.437 82.1069 212.516 82.1107C212.595 82.1144 212.675 82.1025 212.749 82.0757C212.824 82.0488 212.892 82.0076 212.951 81.9542C213.01 81.9009 213.057 81.8365 213.091 81.7647C213.125 81.693 213.144 81.6153 213.148 81.5361C213.152 81.4568 213.14 81.3777 213.113 81.303C213.086 81.2284 213.045 81.1598 212.992 81.1011C212.938 81.0425 212.874 80.9949 212.802 80.9611C212.73 80.9273 212.653 80.908 212.573 80.9042C212.494 80.9005 212.415 80.9124 212.34 80.9392C212.266 80.9661 212.197 81.0073 212.138 81.0607C212.08 81.114 212.032 81.1784 211.998 81.2502C211.965 81.3219 211.945 81.3996 211.942 81.4788Z" fill="#263238"/>
<path d="M214.885 81.1356L214.791 84.76L212.877 84.1724L214.885 81.1356Z" fill="#F28F8F"/>
<path d="M216.902 89.3256C218.462 89.1228 221.613 88.2128 222.102 86.9596C221.906 87.5914 221.521 88.1483 221 88.556C220.054 89.3672 216.908 90.2824 216.908 90.2824L216.902 89.3256Z" fill="#F28F8F"/>
<path d="M221.25 120.078C221.871 119.936 222.458 119.671 222.975 119.298C223.492 118.926 223.93 118.453 224.262 117.909C224.595 117.365 224.815 116.76 224.91 116.13C225.005 115.5 224.974 114.857 224.817 114.239C224.795 114.154 224.769 114.071 224.739 113.989C224.629 113.657 224.411 113.372 224.12 113.178C223.828 112.985 223.481 112.895 223.132 112.923C223.64 112.585 224.077 112.151 224.417 111.644C224.757 111.137 224.993 110.568 225.113 109.97L226.075 104.25C226.192 103.315 226.109 102.367 225.831 101.468L229.018 97.7808L229.611 98.1916C230.091 99.8106 230.046 101.54 229.481 103.132L226.32 112.273C226.32 112.273 227.796 115.851 229.518 119.231C226.937 120.617 224.089 121.435 221.166 121.629C218.243 121.822 215.312 121.388 212.571 120.354C215.455 120.807 218.399 120.713 221.25 120.078Z" fill="#E6E6E6"/>
<path d="M237.64 115.133C233.522 98.3061 230.474 92.6953 225.472 92.7733C224.016 94.5205 224.432 99.7933 226.725 102.991C226.725 102.991 231.868 113.844 232.69 117.702C233.412 121.092 234.25 125.356 234.177 128.274C234.162 128.789 233.958 129.281 233.605 129.657C232.669 130.697 232.664 131.498 232.045 132.626C231.566 133.505 231.046 133.838 231.192 134.035C231.388 134.25 231.659 134.381 231.949 134.403C232.239 134.424 232.527 134.333 232.752 134.15C233.193 133.831 233.589 133.453 233.927 133.026C233.764 134.105 233.451 135.155 232.996 136.146C231.956 138.528 232.196 139.745 235.414 138.897C237.427 138.377 238.69 136.687 238.992 131.846C239.139 130.063 239.156 128.271 239.044 126.485C238.607 121.878 238.295 117.842 237.64 115.133Z" fill="#FFA8A7"/>
<path d="M121.472 103.516C120.682 104.172 119.777 104.504 118.737 105.518C118.079 106.266 117.249 106.842 116.319 107.198C115.118 107.671 113.99 107.531 110.662 107C106.585 106.345 104.832 105.664 103.075 104.161C101.021 102.409 96.4292 97.1256 94.2036 95.0456C91.8584 92.8512 88.624 93.6988 88.624 93.6988C89.6239 96.9528 91.1107 100.037 93.0336 102.846C94.812 105.378 98.1348 107.801 99.6428 109.054C102.045 111.056 103.324 111.847 108.613 112.242C112.601 112.544 113.132 112.642 116.413 112.544C117.593 112.507 118.332 112.497 120.261 112.336C121.101 112.286 121.933 112.141 122.741 111.904C123.656 111.692 124.533 111.341 125.341 110.864C126.397 110.179 127.249 109.221 127.806 108.092C128.114 107.474 128.271 106.792 128.264 106.101C128.258 105.406 128.003 104.736 127.546 104.213C127.459 104.103 127.344 104.019 127.213 103.969C126.964 103.924 126.706 103.978 126.496 104.12C125.242 104.764 123.984 105.643 122.679 106.148C121.571 106.574 120.734 106.72 120.812 106.496C120.89 106.272 121.561 106.07 122.247 105.295C122.934 104.52 123.105 103.444 122.663 103.111C122.221 102.778 122.268 102.861 121.472 103.516Z" fill="#B16668"/>
<path d="M87.6772 93.6832C88.9343 93.0792 90.3606 92.925 91.7177 93.2464C93.7977 93.834 95.4253 95.1808 97.3857 97.2816C99.3461 99.3824 102.653 102.794 102.653 102.794C102.653 102.794 101.026 106.917 97.3649 108.378L89.6896 101.28L87.6772 93.6832Z" fill="#6A6A6A"/>
<path d="M76.3987 195.874H81.0527V187.907H76.3987V195.874Z" fill="#B16668"/>
<path d="M89.2788 189.914L93.9276 190.076L94.1616 181.646L89.2788 181.485V189.914Z" fill="#B16668"/>
<path d="M74.4226 128.44C74.4226 132.881 75.2078 158.725 75.2078 158.725C75.0986 160.004 73.8662 162.276 73.7726 166.884C73.6322 173.56 76.2062 191.896 76.2062 191.896C77.0121 192.294 77.8958 192.51 78.7946 192.528C79.6934 192.546 80.5851 192.366 81.4062 192C81.4062 192 83.5174 167.144 84.3494 160.534C85.0774 154.762 86.3098 139.09 86.3098 139.09L88.5042 157.924C87.9657 160.35 87.7713 162.839 87.927 165.318C88.1454 168.376 89.0034 187.309 89.0034 187.309C89.8138 187.768 90.7151 188.042 91.6435 188.113C92.5718 188.184 93.5044 188.05 94.375 187.72C94.375 187.72 97.6562 160.732 97.7134 157.924C97.7758 154.726 96.4966 122.08 96.4966 122.08L74.4226 128.44Z" fill="#6A6A6A"/>
<path d="M77.4805 95.7477C76.4546 96.2014 75.6479 97.0399 75.2341 98.0825C74.7576 99.3679 74.5266 100.731 74.5529 102.102V111.223L74.4229 128.435C81.0997 131.955 89.5913 132.189 96.7153 126.989C96.7153 126.989 96.3149 104.832 96.3149 101.208C96.3149 101.041 96.3149 100.875 96.3149 100.688C96.0549 95.4877 90.9589 91.9569 85.9409 93.2465L81.7237 94.3333L77.4805 95.7477Z" fill="#F0F0F0"/>
<path d="M95.6453 80.2567C96.4567 76.8187 94.3275 73.3739 90.8895 72.5625C87.4515 71.7511 84.0067 73.8803 83.1953 77.3182C82.3839 80.7562 84.5131 84.201 87.951 85.0124C91.389 85.8239 94.8338 83.6947 95.6453 80.2567Z" fill="#263238"/>
<path d="M78.3696 83.3405C78.3696 83.3405 79.4096 88.2077 79.8256 89.0085C80.0977 89.5086 80.5551 89.882 81.0996 90.0485L81.0268 86.6269L78.3696 83.3405Z" fill="#263238"/>
<path d="M79.6692 76.3672C79.3077 76.3246 78.9412 76.3653 78.5978 76.486C78.2545 76.6068 77.9432 76.8045 77.688 77.064C76.8352 77.9376 77.3084 80.6677 78.3692 83.3405L80.3244 83.5641L79.6692 76.3672Z" fill="#263238"/>
<path d="M80.9073 83.5641C80.5173 83.7981 79.9609 83.0441 79.4773 82.5241C78.9937 82.0041 77.3973 81.3333 76.6329 82.9869C75.8685 84.6405 77.3245 86.9025 78.5673 87.2925C80.7045 87.9633 81.0269 86.5957 81.0269 86.5957L81.1829 94.5413C83.8401 97.9473 91.2189 97.6613 88.1457 94.0993V91.7541C89.0995 91.9076 90.067 91.9581 91.0317 91.9049C92.5917 91.6605 93.5901 90.4177 94.0685 88.7173C94.8329 85.9821 95.1085 83.7773 94.4741 78.4005C93.7617 72.5089 86.9081 72.4465 83.2109 74.7605C79.5137 77.0745 80.9073 83.5641 80.9073 83.5641Z" fill="#B16668"/>
<path d="M80.9068 84.24C80.7092 84.24 79.9656 83.0024 79.4768 82.5552C78.8008 81.9416 79.6692 76.3828 79.6692 76.3828C79.4935 75.9009 79.4619 75.3783 79.5782 74.8787C79.6946 74.3791 79.9539 73.9243 80.3244 73.5696C81.25 72.5296 82.2536 71.9056 84.9212 71.7652C86.7443 71.7582 88.5666 71.8432 90.3812 72.02C93.0176 72.1968 93.9848 71.552 95.498 71.1256C96.6576 70.8032 96.7876 74.9788 93.8652 76.362C93.8652 76.362 92.9136 76.9756 90.4072 77.2824C88.096 77.4569 85.7735 77.4134 83.4704 77.1524C82.7476 77.0536 82.5916 77.7556 82.1964 79.6796C81.8532 81.3488 81.5724 84.2088 80.9068 84.24Z" fill="#263238"/>
<path d="M79.6746 76.7988L77.3086 75.5248C77.3847 75.3656 77.4923 75.2235 77.6248 75.107C77.7574 74.9906 77.9122 74.9022 78.0799 74.8473C78.2476 74.7924 78.4247 74.772 78.6005 74.7875C78.7762 74.8029 78.9471 74.8539 79.1026 74.9372C79.4192 75.1142 79.6554 75.4065 79.7619 75.7533C79.8685 76.1 79.8372 76.4745 79.6746 76.7988Z" fill="#263238"/>
<path d="M88.135 91.7697C88.135 91.7697 84.6302 91.0625 83.403 90.4125C82.6817 90.0343 82.0897 89.4495 81.7026 88.7329C81.8908 89.4508 82.2196 90.1242 82.6698 90.7141C83.5642 91.8581 88.135 92.7057 88.135 92.7057V91.7697Z" fill="#9A4A4D"/>
<path d="M87.9636 82.68C87.9636 82.7722 87.9454 82.8635 87.9102 82.9487C87.8749 83.0338 87.8232 83.1112 87.758 83.1764C87.6928 83.2416 87.6154 83.2933 87.5302 83.3286C87.4451 83.3639 87.3538 83.382 87.2616 83.382C87.1694 83.382 87.0781 83.3639 86.9929 83.3286C86.9078 83.2933 86.8304 83.2416 86.7652 83.1764C86.7 83.1112 86.6483 83.0338 86.613 82.9487C86.5777 82.8635 86.5596 82.7722 86.5596 82.68C86.5596 82.5878 86.5777 82.4966 86.613 82.4114C86.6483 82.3262 86.7 82.2488 86.7652 82.1836C86.8304 82.1185 86.9078 82.0667 86.9929 82.0315C87.0781 81.9962 87.1694 81.978 87.2616 81.978C87.3538 81.978 87.4451 81.9962 87.5302 82.0315C87.6154 82.0667 87.6928 82.1185 87.758 82.1836C87.8232 82.2488 87.8749 82.3262 87.9102 82.4114C87.9454 82.4966 87.9636 82.5878 87.9636 82.68Z" fill="#263238"/>
<path d="M87.2199 80.0333L85.7171 80.8652C85.608 80.6589 85.5834 80.4183 85.6484 80.1942C85.7134 79.9701 85.863 79.78 86.0655 79.6641C86.1651 79.6105 86.2745 79.5775 86.3871 79.5672C86.4998 79.5568 86.6133 79.5692 86.7211 79.6036C86.8288 79.6381 86.9285 79.6939 87.0142 79.7677C87.0999 79.8415 87.1698 79.9318 87.2199 80.0333Z" fill="#263238"/>
<path d="M87.8177 87.5472L89.4245 88.1452C89.3884 88.2521 89.3312 88.3507 89.2563 88.435C89.1814 88.5194 89.0904 88.5878 88.9885 88.6363C88.8867 88.6848 88.7761 88.7124 88.6634 88.7174C88.5507 88.7223 88.4382 88.7046 88.3325 88.6653C88.1207 88.5792 87.9496 88.4157 87.8539 88.2081C87.7583 88.0004 87.7454 87.7641 87.8177 87.5472Z" fill="#9A4A4D"/>
<path d="M94.0319 80.6001L92.6592 79.5601C92.7242 79.4676 92.8072 79.3892 92.9033 79.3296C92.9994 79.2701 93.1065 79.2306 93.2183 79.2136C93.33 79.1966 93.4441 79.2024 93.5535 79.2307C93.663 79.259 93.7656 79.3091 93.8551 79.3781C94.0339 79.5215 94.1516 79.7274 94.1844 79.9543C94.2172 80.1811 94.1627 80.4119 94.0319 80.6001Z" fill="#263238"/>
<path d="M93.6004 82.4877C93.5953 82.6266 93.5494 82.7609 93.4684 82.8738C93.3874 82.9867 93.275 83.0733 93.1451 83.1227C93.0152 83.1721 92.8737 83.1821 92.7381 83.1516C92.6025 83.121 92.479 83.0511 92.3829 82.9508C92.2868 82.8504 92.2224 82.7239 92.1977 82.5872C92.1731 82.4504 92.1893 82.3094 92.2443 82.1818C92.2993 82.0542 92.3906 81.9456 92.507 81.8696C92.6233 81.7936 92.7595 81.7536 92.8984 81.7545C92.9929 81.7559 93.0861 81.776 93.1727 81.8137C93.2593 81.8514 93.3376 81.906 93.4029 81.9742C93.4682 82.0424 93.5193 82.1229 93.5532 82.2111C93.5871 82.2993 93.6032 82.3933 93.6004 82.4877Z" fill="#263238"/>
<path d="M90.0278 81.822L90.2566 86.0497L92.4666 85.2956L90.0278 81.822Z" fill="#9A4A4D"/>
<path d="M81.0581 193.58V192.92C81.5001 193.112 82.5349 197.08 84.3809 198.744C85.8472 200.08 87.8492 201.625 88.3588 203.117C88.8684 204.61 85.5716 205.53 84.1988 205.286C82.6077 205.005 79.8465 203.882 79.1549 202.842C78.4633 201.802 78.1149 200.268 77.5949 199.508C77.0749 198.749 75.7333 197.891 75.4265 197.012C75.2601 196.529 75.4577 195.452 75.6917 194.568C75.9257 193.684 76.1441 192.842 76.4249 192.92V193.44C77.0855 193.963 77.907 194.24 78.7493 194.225C79.4097 194.23 81.0633 194.1 81.0581 193.58Z" fill="#263238"/>
<path d="M93.9799 188.64C94.2191 188.64 94.4167 188.989 94.9471 189.566C95.7446 190.371 96.6708 191.037 97.6875 191.537C99.4295 192.41 102.815 193.752 104.349 194.438C105.305 194.87 105.259 196.03 104.271 196.685C103.283 197.34 100.891 197.818 98.0307 197.179C96.4707 196.83 94.4323 195.385 93.1427 195.463C91.8531 195.541 89.4455 195.52 88.4939 194.865C87.5423 194.21 87.9271 192.811 88.1923 191.61C88.4887 190.294 88.8527 188.25 89.2895 188.339V188.791C89.8459 189.639 92.7319 189.982 93.9695 189.358L93.9799 188.64Z" fill="#263238"/>
<path d="M86.2891 139.084C88.6945 138.336 90.9063 137.068 92.7683 135.372C92.7683 135.372 91.5203 137.712 87.8023 139.89L88.3223 156.338L86.2891 139.084Z" fill="#606060"/>
<path d="M177.019 40.5184C176.941 39.936 176.467 39.7228 175.906 40.0504L114.79 75.3428C114.459 75.5529 114.185 75.8425 113.995 76.1852L111.883 74.9632C112.073 74.6207 112.346 74.3325 112.679 74.126L173.795 38.8336C174.104 38.6294 174.463 38.5118 174.834 38.493C175.205 38.4742 175.574 38.555 175.903 38.7269C176.231 38.8988 176.508 39.1556 176.705 39.4706C176.901 39.7856 177.009 40.1474 177.019 40.5184Z" fill="#FAFAFA"/>
<path d="M114.577 187.642C114.364 187.721 114.142 187.775 113.917 187.803C113.467 187.864 113.01 187.786 112.606 187.58C112.296 187.365 112.04 187.08 111.86 186.749C111.679 186.417 111.579 186.048 111.566 185.671V76.0761C111.564 76.031 111.564 75.9859 111.566 75.9409C111.577 75.8465 111.593 75.7527 111.613 75.6601C111.676 75.4164 111.77 75.1821 111.894 74.9633L114.005 76.1853C113.804 76.5206 113.691 76.9018 113.678 77.2929V186.888C113.678 187.408 113.932 187.694 114.296 187.694C114.345 187.699 114.394 187.699 114.442 187.694C114.489 187.681 114.534 187.664 114.577 187.642Z" fill="#C4C4C4"/>
<path d="M113.667 77.298V186.893C113.667 187.611 114.187 187.902 114.79 187.538L175.906 152.251C176.233 152.036 176.505 151.748 176.7 151.41C176.895 151.071 177.008 150.691 177.029 150.301V40.7056C177.029 39.988 176.509 39.6968 175.906 40.0556L114.79 75.348C114.462 75.5608 114.189 75.8486 113.994 76.1876C113.798 76.5267 113.686 76.9072 113.667 77.298Z" fill="#FAFAFA"/>
<path d="M125.248 91.3952C125.142 91.2437 125.096 91.0586 125.118 90.8752V79.8668C125.108 79.6311 125.153 79.3965 125.248 79.1804C125.335 78.991 125.481 78.8343 125.664 78.7332L126.563 78.2132C126.768 78.0988 126.908 78.0832 126.984 78.1664C127.09 78.3296 127.134 78.5249 127.109 78.7176V89.7156C127.118 89.9457 127.075 90.1748 126.984 90.3864C126.895 90.575 126.747 90.7298 126.563 90.8284L125.664 91.3484C125.471 91.4576 125.32 91.4732 125.248 91.3952Z" fill="#606060"/>
<path d="M128.763 89.362C128.66 89.2094 128.616 89.0247 128.638 88.842V77.8128C128.631 77.5811 128.673 77.3506 128.763 77.1368C128.857 76.9499 129.006 76.7959 129.189 76.6948L129.938 76.2684C129.974 76.2295 130.019 76.2004 130.069 76.1838C130.12 76.1673 130.173 76.1637 130.225 76.1736C130.277 76.1835 130.326 76.2065 130.367 76.2403C130.407 76.2742 130.439 76.3179 130.458 76.3672L133.833 81.7492V74.828C133.826 74.593 133.869 74.3592 133.958 74.1416C134.046 73.9537 134.191 73.7988 134.374 73.6996L135.278 73.1796C135.476 73.06 135.616 73.0444 135.7 73.1276C135.799 73.2931 135.841 73.4869 135.819 73.6788V84.682C135.826 84.9115 135.785 85.1398 135.7 85.3528C135.608 85.5386 135.461 85.6912 135.278 85.7896L134.519 86.2264C134.483 86.2651 134.437 86.2937 134.386 86.3095C134.335 86.3254 134.281 86.328 134.229 86.317C134.177 86.3061 134.128 86.282 134.088 86.247C134.048 86.212 134.017 86.1673 133.999 86.1172L130.614 80.7664V87.6824C130.621 87.9136 130.581 88.1438 130.494 88.3584C130.404 88.5452 130.257 88.6983 130.073 88.7952L129.168 89.3152C128.986 89.44 128.846 89.44 128.763 89.362Z" fill="#606060"/>
<path d="M140.4 82.732C140.307 82.6465 140.243 82.5336 140.218 82.4096L137.171 72.7064C137.15 72.616 137.138 72.5237 137.135 72.4308C137.126 72.3441 137.142 72.2565 137.18 72.1783C137.219 72.1001 137.279 72.0344 137.353 71.9888L138.799 71.1516C138.913 71.0892 138.996 71.0736 139.059 71.1152C139.129 71.176 139.176 71.2584 139.194 71.3492L141.123 78.1976L143.052 69.1236C143.067 68.9897 143.111 68.8608 143.182 68.7464C143.253 68.6321 143.349 68.5353 143.463 68.4632L144.909 67.626C145.049 67.5428 145.122 67.626 145.122 67.8184C145.12 67.9251 145.108 68.0314 145.086 68.1356L142.054 81.3488C142.016 81.53 141.953 81.705 141.867 81.8688C141.795 81.9873 141.692 82.0842 141.57 82.1496L140.692 82.6696C140.556 82.7476 140.458 82.7684 140.4 82.732Z" fill="#606060"/>
<path d="M146.546 79.0973C146.443 78.9447 146.397 78.7605 146.416 78.5773V67.5689C146.41 67.3334 146.455 67.0993 146.546 66.8825C146.634 66.693 146.78 66.5364 146.962 66.4353L147.862 65.9153C148.065 65.8009 148.205 65.7853 148.289 65.8685C148.389 66.0336 148.431 66.2277 148.408 66.4197V77.4177C148.416 77.6472 148.375 77.8758 148.289 78.0885C148.194 78.2754 148.045 78.4294 147.862 78.5305L146.962 79.0505C146.77 79.1597 146.64 79.1753 146.546 79.0973Z" fill="#606060"/>
<path d="M152.064 75.9201C151.961 75.7674 151.917 75.5828 151.939 75.4001V65.8269L149.963 66.9709C149.771 67.0801 149.635 67.0957 149.563 67.0229C149.473 66.8652 149.435 66.6834 149.453 66.5029V65.8165C149.444 65.5861 149.481 65.3562 149.563 65.1405C149.649 64.9629 149.789 64.8172 149.963 64.7245L155.912 61.2925C156.104 61.1781 156.239 61.1625 156.317 61.2405C156.413 61.4074 156.453 61.6005 156.432 61.7917V62.4729C156.439 62.6986 156.4 62.9233 156.317 63.1333C156.229 63.3126 156.088 63.4599 155.912 63.5545L153.936 64.6933V74.2457C153.945 74.4775 153.902 74.7084 153.811 74.9217C153.719 75.1104 153.57 75.2651 153.385 75.3637L152.49 75.8837C152.287 75.9721 152.147 75.9929 152.064 75.9201Z" fill="#606060"/>
<path d="M157.607 72.7116C157.501 72.5601 157.455 72.375 157.477 72.1916V61.1832C157.468 60.9475 157.512 60.7129 157.607 60.4968C157.693 60.3078 157.84 60.1525 158.023 60.0548L163.02 57.1636C163.213 57.0544 163.348 57.0388 163.421 57.1116C163.506 57.2709 163.542 57.4518 163.525 57.6316V58.318C163.533 58.5479 163.498 58.7773 163.421 58.994C163.335 59.1716 163.194 59.3173 163.02 59.41L159.469 61.4588V64.3916L161.949 62.9564C162.141 62.8472 162.271 62.8264 162.344 62.9044C162.434 63.0621 162.472 63.2439 162.453 63.4244V64.0744C162.463 64.3031 162.426 64.5314 162.344 64.7452C162.262 64.9237 162.123 65.07 161.949 65.1612L159.469 66.5964V69.5448L163.01 67.5012C163.202 67.3868 163.332 67.3764 163.405 67.4544C163.498 67.6222 163.536 67.815 163.514 68.0056V68.6712C163.525 68.8983 163.488 69.125 163.405 69.3368C163.321 69.5113 163.182 69.6536 163.01 69.7424L158.023 72.6232C157.831 72.8 157.69 72.8 157.607 72.7116Z" fill="#606060"/>
<path d="M125.352 100.688L165.36 77.5996C165.984 77.2356 166.489 77.5268 166.489 78.2496V79.2896C166.466 79.6802 166.353 80.0602 166.157 80.3988C165.961 80.7375 165.688 81.0255 165.36 81.2396L125.367 104.333C124.743 104.692 124.239 104.4 124.239 103.683V102.643C124.257 102.252 124.368 101.872 124.561 101.532C124.755 101.192 125.025 100.903 125.352 100.688Z" fill="#E0E0E0"/>
<path d="M131.69 108.571L159.006 92.7992C159.63 92.4404 160.134 92.7316 160.134 93.4492V94.4892C160.113 94.8802 160 95.2606 159.804 95.5994C159.608 95.9383 159.334 96.226 159.006 96.4392L131.69 112.206C131.066 112.564 130.562 112.273 130.562 111.556V110.516C130.584 110.126 130.698 109.746 130.894 109.408C131.09 109.07 131.363 108.783 131.69 108.571Z" fill="#E6E6E6"/>
<path d="M131.69 115.986L159.006 100.22C159.64 99.84 160.16 100.152 160.16 100.88V101.92C160.139 102.311 160.026 102.691 159.83 103.03C159.634 103.369 159.36 103.657 159.032 103.87L131.716 119.642C131.092 120 130.588 119.709 130.588 118.992V117.952C130.604 117.56 130.712 117.178 130.904 116.837C131.095 116.495 131.365 116.204 131.69 115.986Z" fill="#E6E6E6"/>
<path d="M131.69 123.406L159.006 107.64C159.63 107.281 160.134 107.572 160.134 108.29V109.33C160.113 109.721 160 110.101 159.804 110.44C159.608 110.779 159.334 111.067 159.006 111.28L131.69 127.046C131.066 127.405 130.562 127.114 130.562 126.396V125.356C130.583 124.966 130.697 124.585 130.893 124.246C131.089 123.907 131.362 123.62 131.69 123.406Z" fill="#E6E6E6"/>
<path d="M125.352 138.762L165.36 115.669C165.984 115.31 166.489 115.601 166.489 116.319V117.359C166.466 117.749 166.353 118.129 166.157 118.468C165.961 118.807 165.688 119.095 165.36 119.309L125.367 142.402C124.743 142.761 124.239 142.47 124.239 141.752V140.712C124.258 140.322 124.369 139.943 124.562 139.604C124.756 139.265 125.026 138.977 125.352 138.762Z" fill="#E0E0E0"/>
<path d="M131.69 146.676L159.006 130.905C159.63 130.546 160.134 130.837 160.134 131.555V132.595C160.113 132.986 160 133.366 159.804 133.705C159.608 134.044 159.334 134.332 159.006 134.545L131.69 150.332C131.066 150.691 130.562 150.4 130.562 149.682V148.642C130.581 148.248 130.693 147.865 130.889 147.523C131.085 147.181 131.36 146.891 131.69 146.676Z" fill="#E6E6E6"/>
<path d="M131.69 154.092L159.006 138.32C159.63 137.961 160.134 138.247 160.134 138.97V140.01C160.113 140.401 160 140.781 159.804 141.12C159.608 141.459 159.334 141.747 159.006 141.96L131.69 157.732C131.066 158.09 130.562 157.799 130.562 157.082V156.042C130.583 155.651 130.697 155.27 130.893 154.931C131.089 154.593 131.362 154.305 131.69 154.092Z" fill="#E6E6E6"/>
<path d="M131.69 161.512L159.006 145.74C159.63 145.382 160.134 145.673 160.134 146.39V147.43C160.113 147.821 160 148.202 159.804 148.541C159.608 148.879 159.334 149.167 159.006 149.38L131.69 165.147C131.066 165.506 130.562 165.214 130.562 164.497V163.457C130.584 163.067 130.698 162.687 130.894 162.35C131.09 162.012 131.363 161.725 131.69 161.512Z" fill="#E6E6E6"/>
<path d="M110.796 115.211C109.923 115.731 108.976 115.955 107.806 116.813C106.766 117.567 106.319 117.572 105.16 117.853C103.906 118.16 93.9692 115.222 92.2324 113.693C89.5284 111.332 84.7392 102.814 82.9504 100.771C81.4788 99.086 79.4352 96.8032 77.6204 96.7928C74.62 97.7028 75.3012 102.164 77.8076 106.179C79.8876 109.502 84.162 116.137 88.6236 119.064C90.7868 120.484 101.364 122.985 104.676 123.198C105.68 123.266 107.463 123.718 109.044 123.802C110.594 123.946 112.155 123.679 113.568 123.027C114.709 122.497 115.687 121.669 116.397 120.63C116.785 120.057 117.036 119.402 117.13 118.716C117.216 118.026 117.056 117.329 116.678 116.745C116.605 116.626 116.503 116.528 116.381 116.459C116.139 116.381 115.876 116.399 115.648 116.511C114.322 116.974 112.954 117.671 111.587 117.988C110.432 118.253 109.58 118.284 109.694 118.076C109.808 117.868 110.495 117.754 111.28 117.083C111.376 117.003 111.467 116.916 111.55 116.823V114.743C111.29 114.885 111.039 115.041 110.796 115.211Z" fill="#B16668"/>
<path d="M77.4335 95.7528C75.2131 96.8344 74.3135 98.488 75.3015 102.175C76.1855 105.482 79.5759 111.119 82.2435 113.88C82.2435 113.88 86.8039 111.717 89.2375 108.909C86.8299 105.227 85.6755 103.064 83.4135 99.9492C81.1515 96.8344 78.7855 95.3784 77.4335 95.7528Z" fill="#6A6A6A"/>
<defs>
<linearGradient id="paint0_linear" x1="128.449" y1="118.568" x2="128.449" y2="248.321" gradientUnits="userSpaceOnUse">
<stop stop-color="#F0F0F0" stop-opacity="0"/>
<stop offset="1" stop-color="#F0F0F0"/>
</linearGradient>
</defs>
</svg>
