<svg width="118" height="120" viewBox="0 0 118 120" fill="none" xmlns="http://www.w3.org/2000/svg">
<g clip-path="url(#clip0)">
<path d="M25.7137 120C34.2418 120 41.1553 118.872 41.1553 117.48C41.1553 116.088 34.2418 114.96 25.7137 114.96C17.1856 114.96 10.2722 116.088 10.2722 117.48C10.2722 118.872 17.1856 120 25.7137 120Z" fill="#E6E6E6"/>
<path d="M118 106.231L55.8579 93.2241V32.5838L118 0V106.231Z" fill="#E6E6E6"/>
<path d="M117.849 6.36778L55.707 36.25V32.7353L117.849 0.206055V6.36778Z" fill="#6C63FF"/>
<path d="M58.5729 33.1911C58.5729 33.9999 58.3018 34.7865 57.9696 34.9471C57.64 35.1064 57.3748 34.5883 57.3748 33.7909C57.3748 32.9935 57.64 32.2098 57.9696 32.0392C58.3018 31.8672 58.5729 32.3824 58.5729 33.1911Z" fill="#E6E6E6"/>
<path d="M60.9862 31.9807C60.9862 32.7671 60.7151 33.5349 60.3829 33.6946C60.0533 33.8532 59.7878 33.3521 59.7878 32.5765C59.7878 31.8009 60.0533 31.0359 60.3829 30.8667C60.7151 30.6962 60.9862 31.1944 60.9862 31.9807Z" fill="#E6E6E6"/>
<path d="M63.3995 30.7686C63.3995 31.5549 63.1283 32.3228 62.7961 32.4825C62.4665 32.641 62.201 32.1399 62.201 31.3644C62.201 30.5888 62.4665 29.8238 62.7961 29.6545C63.1283 29.484 63.3995 29.9823 63.3995 30.7686Z" fill="#E6E6E6"/>
<path opacity="0.2" d="M101.867 47.2889L63.5564 56.0945V44.8643L101.867 31.2566V47.2889Z" fill="black"/>
<path d="M101.107 46.5253L62.796 55.331V44.1007L101.107 30.4929V46.5253Z" fill="white"/>
<path opacity="0.2" d="M69.8888 48.3628C69.8888 50.1721 69.2076 51.814 68.3804 52.0266C67.5675 52.2357 66.9187 50.981 66.9187 49.2276C66.9187 47.4741 67.5675 45.8417 68.3804 45.5773C69.2076 45.3083 69.8888 46.5535 69.8888 48.3628Z" fill="black"/>
<path d="M69.4327 47.9046C69.4327 49.7139 68.7515 51.3557 67.9244 51.5684C67.1115 51.7774 66.4626 50.5228 66.4626 48.7693C66.4626 47.0159 67.1115 45.3834 67.9244 45.1191C68.7515 44.8501 69.4327 46.0953 69.4327 47.9046Z" fill="#6C63FF"/>
<path d="M91.9064 41.4878L73.5051 46.8261V44.9366L91.9064 39.2517V41.4878Z" fill="#E6E6E6"/>
<path d="M87.6831 46.8923L76.8232 49.6464V47.6944L87.6831 44.7358V46.8923Z" fill="#E6E6E6"/>
<path opacity="0.2" d="M101.868 87.4464L63.5575 84.2201V61.6851L101.868 55.2593V87.4464Z" fill="black"/>
<path d="M100.956 86.6827L62.6453 83.4562V60.9212L100.956 54.4954V86.6827Z" fill="white"/>
<path opacity="0.2" d="M68.9826 67.2884L67.1896 67.4562V65.4871L68.9826 65.2815V67.2884Z" fill="black"/>
<path d="M68.6786 66.983L66.8855 67.1508V65.1816L68.6786 64.9761V66.983Z" fill="#6C63FF"/>
<path d="M91.9064 64.7617L70.4885 66.7757V64.943L91.9064 62.5256V64.7617Z" fill="#E6E6E6"/>
<path d="M91.9064 72.0632L70.4885 72.7597V70.9271L91.9064 69.8271V72.0632Z" fill="#E6E6E6"/>
<path d="M91.9064 79.5497L70.4885 78.8954V77.0627L91.9064 77.3136V79.5497Z" fill="#E6E6E6"/>
<path d="M23.9744 55.3183H19.8755V53.3013H23.3052L24.0581 53.7215L23.9744 55.3183Z" fill="#575A89"/>
<path d="M16.8639 110.872L17.0313 113.898L19.5409 113.394L19.1227 110.368L16.8639 110.872Z" fill="#FFB9B9"/>
<path d="M28.7428 109.276C28.7428 109.276 28.8264 111.797 28.5755 112.469C28.3245 113.142 29.2447 113.478 29.2447 113.478H31.2524L32.4235 113.646V112.385C32.4235 112.385 31.0851 110.284 31.0851 109.107C31.0851 107.931 28.7428 109.276 28.7428 109.276Z" fill="#FFB9B9"/>
<path d="M17.2823 113.394C17.2823 113.394 18.9553 112.6 19.5409 113.081C20.1265 113.562 22.3015 117.68 21.465 117.932C21.465 117.932 20.8794 118.941 18.8717 118.268C16.864 117.596 16.864 116.84 16.864 116.84C16.864 116.84 16.2784 116.335 16.2784 116.167C16.2784 115.999 16.5294 114.486 16.5294 114.486C16.5294 114.486 16.715 113.221 16.9986 113.307L17.2823 113.394Z" fill="#2F2E41"/>
<path d="M28.91 112.133C28.91 112.133 28.6591 111.881 28.4917 112.133C28.3244 112.385 27.4043 115.579 28.2408 115.747C29.0773 115.915 30.3321 116.503 30.4994 116.335C30.6392 116.157 30.752 115.959 30.834 115.747C30.834 115.747 32.1725 116.335 32.5908 116.84C33.009 117.344 38.0282 118.436 37.8609 116.84C37.6936 115.243 35.184 113.898 35.184 113.898L32.4235 112.049C32.4235 112.049 31.336 112.133 31.085 112.637C30.834 113.142 29.0773 113.058 28.91 112.133Z" fill="#2F2E41"/>
<path d="M4.39956 79.6074C4.39956 79.6074 3.47937 80.7841 3.64668 80.8681C3.81398 80.9522 7.49473 81.7926 9.50241 81.2883C11.5101 80.7841 15.6928 80.8681 15.9437 80.2798C16.1947 79.6915 19.2899 72.3795 19.2899 72.3795L18.286 66.8325L17.1985 65.4037L14.6889 63.2185L9.66972 72.6316L4.39956 79.6074Z" fill="#575A89"/>
<path opacity="0.1" d="M4.39956 79.6074C4.39956 79.6074 3.47937 80.7841 3.64668 80.8681C3.81398 80.9522 7.49473 81.7926 9.50241 81.2883C11.5101 80.7841 15.6928 80.8681 15.9437 80.2798C16.1947 79.6915 19.2899 72.3795 19.2899 72.3795L18.286 66.8325L17.1985 65.4037L14.6889 63.2185L9.66972 72.6316L4.39956 79.6074Z" fill="black"/>
<path d="M15.0236 77.5904C15.0236 77.5904 13.8524 81.7927 15.0236 87.5918C16.1947 93.391 15.1072 94.6517 15.3582 94.9038C15.6091 95.1559 15.6928 95.0719 15.6928 95.324C15.6928 95.5762 15.9437 96.7528 15.6928 97.173C15.4418 97.5933 15.4418 110.957 16.1947 111.293C16.9476 111.629 19.1226 112.469 19.5408 111.293C19.9591 110.116 19.6245 101.627 19.7918 101.207C19.9591 100.787 19.9591 99.7784 19.9591 99.5263C19.9591 99.2742 20.461 96.4166 20.5447 95.6602C20.6283 94.9038 20.8793 93.391 20.8793 93.391C20.8793 93.391 20.712 87.4237 21.2139 85.6588C21.7158 83.8938 21.8831 83.7257 21.8831 83.7257L25.8985 94.2314C25.8985 94.2314 25.5639 95.324 25.8985 95.6602C26.2331 95.9964 25.8149 95.9123 26.1495 96.5007C26.4841 97.089 26.8187 97.2571 26.8187 97.5933C26.8187 97.9294 26.4841 97.9294 26.6514 98.1816C26.8187 98.4337 27.0697 99.3582 27.0697 99.3582L26.6514 100.367C26.6514 100.367 26.9023 102.468 27.237 103.729C27.5716 104.989 27.5716 110.116 27.9898 110.2C28.4081 110.284 31.6706 111.209 31.6706 109.276C31.6706 107.343 31.4196 98.938 31.4196 98.938C31.4196 98.938 30.9177 97.6773 30.9177 97.3411C30.9177 97.0049 30.8341 96.8368 31.0014 96.6688C31.1687 96.5007 31.336 96.1645 31.085 95.9123C30.8341 95.6602 30.9177 95.324 30.9177 94.9878C30.9032 94.5354 30.8472 94.0852 30.7504 93.6431C30.6667 93.3069 29.0773 82.8012 29.0773 82.8012C29.0773 82.8012 29.4119 81.5405 29.0773 81.4565C28.7427 81.3724 28.7427 80.7001 28.7427 80.3639C28.7427 80.0277 29.5793 75.8254 28.5754 75.8254C27.5716 75.8254 15.0236 77.5904 15.0236 77.5904Z" fill="#2F2E41"/>
<path d="M3.98133 72.5476L2.81018 73.1359C2.81018 73.1359 -1.37249 75.4052 0.467884 76.6659C2.30826 77.9265 4.14863 74.9009 4.14863 74.9009L5.90535 73.5562L3.98133 72.5476Z" fill="#FFB9B9"/>
<path d="M20.2937 49.5191C20.2937 49.5191 19.9591 53.3852 18.2024 54.2257C16.4456 55.0662 17.6168 61.3696 17.6168 61.3696L20.0427 63.7228L24.3091 62.4622L24.811 59.6046L25.2292 56.663L24.2254 55.1502C24.2254 55.1502 22.9706 54.814 23.4725 51.4522C23.9744 48.0904 20.2937 49.5191 20.2937 49.5191Z" fill="#FFB9B9"/>
<path d="M17.7841 55.5704C17.7841 55.5704 19.7081 61.9579 21.0466 61.9579C22.385 61.9579 23.1379 60.4451 23.3052 58.5961C23.4725 56.7471 24.56 54.73 24.56 54.73L27.1533 57.0833C27.1533 57.0833 29.2446 75.6574 29.0773 76.1616C28.91 76.6659 22.385 77.2542 19.7918 78.0106C17.1985 78.7671 14.6053 78.1787 14.6053 77.7585C14.6053 77.3842 15.9324 74.1433 14.9225 71.7764C14.5537 70.9332 14.3043 70.0422 14.1815 69.1295C14.0252 67.8834 13.8801 66.3756 14.0197 65.9081C14.2706 65.0676 15.6091 56.1588 15.6091 56.1588L17.7841 55.5704Z" fill="#6C63FF"/>
<path d="M19.2005 53.2514C19.2005 53.2514 17.7005 54.0576 17.0312 54.3937C16.362 54.7299 12.263 55.7385 12.1793 56.2427C12.0957 56.747 12.7649 63.8068 12.4303 64.5633C12.0957 65.3197 8.74955 72.0433 8.74955 72.0433L8.58224 73.4721C8.58224 73.4721 3.06112 80.1117 3.73034 80.8681C4.39957 81.6245 6.90917 78.5148 6.90917 78.5148C6.90917 78.5148 12.514 69.5219 12.6813 69.1858C12.8486 68.8496 16.2784 62.6302 16.7803 62.4621C17.2822 62.294 18.4533 55.2342 18.6207 54.898C18.788 54.5618 19.4457 53.1176 19.2005 53.2514Z" fill="#575A89"/>
<path d="M12.5976 56.1587H12.0957C12.0957 56.1587 10.2553 63.2185 9.75341 64.143C9.25149 65.0675 9.16784 66.5803 9.08419 66.8325C9.00054 67.0846 8.66592 67.0006 8.58227 67.5889C8.49861 68.1772 7.66208 68.9336 6.99285 69.2698C6.32362 69.606 3.3121 72.4635 3.39575 72.5476C3.4794 72.6316 4.39959 75.5732 4.98516 75.5732C5.57074 75.5732 7.91303 72.7157 8.16399 72.7157C8.41496 72.7157 9.50245 71.7071 9.66976 71.6231C9.83706 71.539 14.1034 63.6388 13.9361 61.7057C13.7688 59.7726 12.5976 56.1587 12.5976 56.1587Z" fill="#575A89"/>
<path d="M33.4703 77.9326L34.5007 78.7443C34.5007 78.7443 38.1472 81.8081 36.0931 82.6735C34.039 83.539 32.838 80.2047 32.838 80.2047L31.3844 78.5342L33.4703 77.9326Z" fill="#FFB9B9"/>
<path d="M23.3704 53.3511C23.3704 53.3511 24.4764 53.8895 24.9784 54.3097C25.4803 54.73 29.3283 55.8226 29.3283 56.1588C29.3283 56.4949 28.9101 61.7058 28.9101 61.7058L29.4957 70.9508C29.4957 70.9508 30.3322 81.3724 30.4995 81.6246C30.6668 81.8767 30.9178 83.2214 30.4995 83.2214C30.0812 83.2214 27.9899 80.8682 28.0735 79.6915C28.1572 78.5149 28.7428 75.8254 28.1572 75.1531C27.5716 74.4807 24.8111 63.2186 24.8111 62.5462C24.8111 61.8739 23.6399 55.1502 23.7236 54.9821C23.8072 54.814 23.3704 53.3511 23.3704 53.3511Z" fill="#575A89"/>
<path d="M28.0736 56.0747L29.3284 56.1588L32.4235 68.8496C32.4235 68.8496 32.6745 70.4465 32.7581 70.6146C32.8418 70.7827 34.0966 78.0947 33.5947 78.3468C33.0928 78.5989 31.4197 79.5234 31.336 78.9351C31.2524 78.3468 30.4158 75.069 29.5793 74.3126C28.7428 73.5562 27.9062 60.5291 27.9062 60.5291L28.0736 56.0747Z" fill="#575A89"/>
<path d="M23.0543 51.7882C24.9485 51.7882 26.4841 50.2455 26.4841 48.3424C26.4841 46.4393 24.9485 44.8965 23.0543 44.8965C21.1601 44.8965 19.6245 46.4393 19.6245 48.3424C19.6245 50.2455 21.1601 51.7882 23.0543 51.7882Z" fill="#FFB9B9"/>
<path d="M20.6608 48.5942C20.8791 48.4816 21.1662 48.5876 21.3677 48.8327C21.4742 48.3203 21.6984 47.84 22.0222 47.4299C22.3461 47.0199 22.7608 46.6915 23.2333 46.4708C23.7057 46.2501 24.223 46.1433 24.7438 46.1588C25.2646 46.1744 25.7746 46.3118 26.2332 46.5602V46.21C26.2332 45.4381 25.928 44.6979 25.3848 44.1522C24.8416 43.6064 24.1048 43.2998 23.3366 43.2998H22.6404C21.9257 43.2998 21.2181 43.4412 20.5579 43.716C19.8977 43.9907 19.2978 44.3934 18.7925 44.9011C18.2872 45.4088 17.8863 46.0115 17.6128 46.6748C17.3394 47.3382 17.1986 48.0491 17.1986 48.7671V49.7429C17.1985 50.6484 17.4481 51.5363 17.9197 52.308C18.3914 53.0797 19.0665 53.7051 19.8704 54.1148L23.0027 52.4487C22.549 52.1919 22.1612 51.8323 21.8701 51.3985C21.579 50.9647 21.3927 50.4686 21.3259 49.9498C21.0608 50.066 20.7058 49.8778 20.5212 49.5167C20.3312 49.1451 20.3937 48.7321 20.6608 48.5942Z" fill="#2F2E41"/>
</g>
<defs>
<clipPath id="clip0">
<rect width="118" height="120" fill="white"/>
</clipPath>
</defs>
</svg>
