<svg width="24" height="24" viewBox="0 0 24 24" fill="none" xmlns="http://www.w3.org/2000/svg">
<g clip-path="url(#clip0)">
<path d="M15.5592 1.48484C15.1945 0.362148 13.9888 -0.252213 12.8663 0.112705C11.7436 0.477426 11.1293 1.68313 11.4942 2.80562L17.0205 19.8086C17.3999 20.8574 18.5329 21.4467 19.6203 21.1338C20.7546 20.8072 21.4461 19.6025 21.0841 18.4884C21.0704 18.446 15.5592 1.48484 15.5592 1.48484Z" fill="#DFA22F"/>
<path d="M6.99619 4.26709C6.63127 3.1446 5.42557 2.53024 4.30307 2.89496C3.18038 3.25968 2.56602 4.46539 2.93094 5.58808L8.45724 22.5911C8.83671 23.6398 9.96963 24.2292 11.0571 23.916C12.1914 23.5896 12.8829 22.3849 12.5209 21.2707C12.5071 21.2284 6.99619 4.26709 6.99619 4.26709Z" fill="#3CB187"/>
<path d="M22.5153 15.5667C23.638 15.202 24.2521 13.9963 23.8874 12.8736C23.5227 11.7511 22.317 11.1367 21.1945 11.5015L4.19148 17.028C3.14276 17.4072 2.55338 18.5402 2.86636 19.6276C3.19292 20.7619 4.39764 21.4534 5.51167 21.0914C5.55417 21.0777 22.5153 15.5667 22.5153 15.5667Z" fill="#CE1E5B"/>
<path d="M7.73509 20.3691C8.84185 20.0095 10.2683 19.546 11.799 19.0487C11.4394 17.9419 10.9759 16.5153 10.4784 14.9844L6.41431 16.3054L7.73509 20.3691Z" fill="#392538"/>
<path d="M16.2983 17.5867C17.8347 17.0876 19.2627 16.6235 20.3621 16.2663C20.0025 15.1595 19.5389 13.7325 19.0414 12.2012L14.9773 13.5222L16.2983 17.5867Z" fill="#BB242A"/>
<path d="M19.7329 7.00366C20.8554 6.63894 21.4698 5.43324 21.105 4.31055C20.7403 3.18806 19.5346 2.5737 18.4119 2.93842L1.4089 8.46491C0.360177 8.84419 -0.2292 9.97711 0.0839799 11.0646C0.410341 12.1989 1.61506 12.8904 2.72929 12.5284C2.77159 12.5146 19.7329 7.00366 19.7329 7.00366Z" fill="#72C5CD"/>
<path d="M4.95184 11.8062C6.0586 11.4466 7.48542 10.9829 9.01631 10.4856C8.51722 8.949 8.05316 7.521 7.69591 6.42133L3.63086 7.74251L4.95184 11.8062Z" fill="#248C73"/>
<path d="M13.5148 9.02396C15.0516 8.52468 16.4798 8.06061 17.5795 7.70317C17.0802 6.16639 16.6161 4.73799 16.2587 3.63812L12.1938 4.9593L13.5148 9.02396Z" fill="#62803A"/>
</g>
<defs>
<clipPath id="clip0">
<rect width="24" height="24" fill="white"/>
</clipPath>
</defs>
</svg>
