<svg width="24" height="24" viewBox="0 0 24 24" fill="none" xmlns="http://www.w3.org/2000/svg">
<path d="M23.507 9.0122C23.2812 8.67291 22.9612 8.47592 22.5636 8.42417C22.3772 8.40124 22.1825 8.36948 21.9985 8.34008C21.7626 8.30421 21.5203 8.26599 21.2815 8.24011C20.6446 8.17543 20.2541 7.91023 20.0182 7.39041C19.8565 7.03523 19.8371 6.71828 19.9594 6.40545L20.0506 6.16965C20.2082 5.75979 20.3729 5.33288 20.5475 4.91949C20.7158 4.51904 20.7028 4.12506 20.5093 3.74401C20.1541 3.04601 19.5954 2.56147 18.8526 2.30627C18.4321 2.16102 18.0151 2.21571 17.6375 2.46445C17.4569 2.58088 17.2693 2.69378 17.0858 2.80374C16.83 2.95898 16.5653 3.12011 16.3166 3.29475C16.1425 3.41706 15.9225 3.48175 15.6831 3.48175C15.0856 3.48175 14.5069 3.08776 14.3652 2.58735C14.2911 2.3192 14.2005 2.05459 14.1128 1.79938C14.0358 1.58299 13.9611 1.35718 13.8929 1.13726C13.7541 0.669182 13.4471 0.345764 12.9789 0.174646C12.8437 0.126427 12.7043 0.087617 12.5684 0.0552752C12.5137 0.0393982 12.4526 0.0229333 12.3973 0.00646837L12.3685 0H11.5963L11.5668 0.00999657C11.551 0.0135248 11.538 0.0199931 11.5221 0.0258735C11.5027 0.0323418 11.4827 0.0388102 11.461 0.0423384C10.6729 0.184643 10.2012 0.585093 10.026 1.27603C9.94891 1.58005 9.83952 1.88641 9.73601 2.18043C9.68072 2.3392 9.62544 2.49738 9.57427 2.65556C9.41901 3.12716 8.86028 3.4988 8.30098 3.4988C8.07866 3.4988 7.86811 3.43764 7.69756 3.31769C7.38409 3.10423 7.05826 2.9043 6.74126 2.71377C6.58953 2.62028 6.43779 2.52972 6.28899 2.43622C5.99493 2.25217 5.67205 2.19689 5.35269 2.27804C4.48462 2.49032 3.84885 3.02014 3.45775 3.85044C3.30307 4.18327 3.29601 4.54785 3.44481 4.90949C3.51244 5.07414 3.57714 5.23938 3.64183 5.40697C3.73887 5.66217 3.83886 5.92385 3.95178 6.17906C4.18409 6.70241 4.1588 7.1646 3.86415 7.62621C3.66418 7.94316 3.40247 8.13015 3.06312 8.19484C2.57497 8.28892 2.05213 8.36948 1.50634 8.43417C1.04408 8.48591 0.685318 8.71525 0.437128 9.1157C0.101308 9.65845 -0.0410192 10.2753 0.0101479 10.9439C0.0589624 11.5707 0.359495 12.0194 0.902337 12.2781C1.09936 12.3722 1.29285 12.4851 1.48399 12.5916C1.69337 12.7109 1.90745 12.8338 2.13329 12.9403C2.45676 13.0885 2.69848 13.4313 2.77611 13.8476C2.85668 14.281 2.74729 14.7202 2.48499 14.9878C2.11976 15.3688 1.76159 15.7793 1.42224 16.2056C1.26698 16.3961 1.157 16.6355 1.11465 16.8648C0.957033 17.7657 1.71278 19.0999 2.55968 19.4163C2.76905 19.4939 3.0343 19.5162 3.27661 19.4804C3.73182 19.4092 4.20408 19.3157 4.71752 19.1899C5.24448 19.0605 5.65146 19.1699 6.04198 19.5551C6.33545 19.8455 6.46837 20.159 6.45837 20.5494C6.44602 21.0504 6.43308 21.5867 6.41015 22.1295C6.39074 22.5393 6.53307 22.8951 6.82713 23.1826C7.29587 23.6413 7.88399 23.913 8.58092 23.9871C8.65915 23.9971 8.73266 24 8.80735 24C9.33726 24 9.76659 23.7736 10.0742 23.3279C10.1965 23.1562 10.3294 22.9951 10.4712 22.8239C10.617 22.6463 10.7652 22.4658 10.9011 22.2718C11.1234 21.9425 11.5339 21.7455 11.9927 21.7455C12.442 21.7455 12.849 21.9395 13.0783 22.2594C13.2659 22.524 13.4724 22.7792 13.67 23.025C13.7923 23.1738 13.9152 23.3255 14.0317 23.4802C14.2575 23.7742 14.5645 23.9453 14.9103 23.9777C15.7502 24.0553 16.503 23.7965 17.1423 23.212C17.4487 22.931 17.5946 22.5693 17.5716 22.1336C17.5593 21.9431 17.5557 21.7425 17.5522 21.552C17.5463 21.2998 17.5393 21.0416 17.5199 20.7864C17.4752 20.1854 17.6628 19.7526 18.1051 19.4263C18.3985 19.2128 18.6861 19.1352 18.9996 19.1869C19.5648 19.2804 20.0694 19.3839 20.544 19.5039C21.0345 19.6233 21.4874 19.5104 21.8808 19.1611C22.3754 18.7283 22.6983 18.1761 22.8371 17.5234C22.9536 16.9777 22.8242 16.5061 22.4525 16.1215C22.3066 15.9698 22.1649 15.8052 22.029 15.647C21.8932 15.4859 21.7514 15.3206 21.6021 15.1654C21.1957 14.7461 21.0827 14.3127 21.2345 13.7641C21.338 13.3795 21.528 13.1214 21.8255 12.9532C22.3131 12.6751 22.7683 12.4263 23.2212 12.1911C23.5829 12.0006 23.8152 11.7066 23.9087 11.3161C24.1116 10.4946 23.9757 9.71961 23.507 9.0122Z" fill="url(#paint0_linear)"/>
<path d="M11.9445 9.19047L11.9478 9.14203L11.9817 8.28548C11.9755 8.24649 11.9907 8.09408 11.9907 8.07104C11.9941 7.61382 12.0183 7.64631 12.0561 6.77617C12.0584 6.70823 12.0313 6.6403 11.9789 6.59422C11.9292 6.54874 11.8605 6.53633 11.7956 6.55228C11.4336 6.64621 10.9843 6.74663 10.4611 6.8506C10.3618 6.87009 10.2964 6.95752 10.2874 7.05853C10.2254 7.86015 10.2344 7.6723 10.2045 8.048L10.1205 9.11604C10.1205 9.11604 10.1205 9.11899 10.1205 9.12254L10.0675 10.1315L9.95419 12.3249L9.9136 13.1034C9.8606 14.1065 9.83297 14.6742 9.82733 14.8425C9.82057 15.0085 9.81775 15.1279 9.81775 15.1999C9.81775 15.7387 9.91021 16.18 10.0935 16.5072C10.2823 16.841 10.5547 17.0879 10.9048 17.2374C11.2363 17.3839 11.6727 17.4547 12.2027 17.4547C12.4102 17.4547 12.6363 17.4417 12.8686 17.4187C13.1037 17.3927 13.42 17.3313 13.8129 17.2368C13.8964 17.2137 13.9618 17.1428 13.9742 17.0548C14.0052 16.8404 14.0396 16.5746 14.0678 16.3182C14.1044 16.0069 14.1417 15.6855 14.176 15.5325C14.1947 15.448 14.1636 15.36 14.0988 15.3086C14.0334 15.2566 13.9466 15.2472 13.8733 15.2862C13.4921 15.4876 13.2784 15.5686 12.9317 15.6365C12.8105 15.6625 12.705 15.6625 12.5906 15.6625H12.5353C12.3741 15.6625 12.1598 15.6075 11.9867 15.5195C11.8289 15.438 11.7917 15.4091 11.7635 15.2732C11.7139 15.0168 11.7139 14.9619 11.7139 14.6571V14.5241L11.7234 14.1473L11.8475 11.3762L11.9445 9.19047Z" fill="white"/>
<path d="M16.3118 9.307L15.94 8.4986C15.8783 8.36734 15.7674 8.26307 15.634 8.21584C15.5006 8.16493 15.3541 8.17168 15.2236 8.23608L12.4743 9.59712L12.4779 9.54682L10.5001 10.5742L9.33778 11.1501L8.89182 10.1767C8.83252 10.0455 8.72222 9.94428 8.58878 9.89337C8.45535 9.84307 8.30887 9.84982 8.1784 9.91422L7.39679 10.2976C7.12992 10.4288 7.01606 10.7594 7.14297 11.0354L8.18849 13.3202C8.25016 13.4514 8.35809 13.5557 8.49153 13.6029C8.55083 13.6269 8.6125 13.6367 8.67062 13.6367C8.75187 13.6367 8.83074 13.6201 8.9019 13.5827L10.3809 12.8516L12.3723 11.8665L16.0598 10.0436C16.3249 9.91361 16.4388 9.58301 16.3118 9.307Z" fill="white"/>
<defs>
<linearGradient id="paint0_linear" x1="29.8268" y1="16.944" x2="15.7148" y2="-3.28776" gradientUnits="userSpaceOnUse">
<stop stop-color="#0CA940"/>
<stop offset="1" stop-color="#4AC144"/>
</linearGradient>
</defs>
</svg>
