<?xml version="1.0" encoding="utf-8"?>
<!-- Generator: Adobe Illustrator 19.0.0, SVG Export Plug-In . SVG Version: 6.00 Build 0)  -->
<svg version="1.1" id="Layer_1" xmlns="http://www.w3.org/2000/svg" xmlns:xlink="http://www.w3.org/1999/xlink" x="0px" y="0px"
	 viewBox="0 0 96 96" style="enable-background:new 0 0 96 96;" xml:space="preserve">
<style type="text/css">
	.st0{fill:#2C3E50;}
	.st1{fill:#34495E;}
	.st2{fill:#ECF0F1;}
</style>
<g id="XMLID_1_">
	<path id="XMLID_3_" class="st0" d="M21.4,18.5c-3.3,0-5.9,2.7-5.9,5.9V45V51v20.7c0,3.2,2.6,5.9,5.9,5.9H48h26.6
		c3.3,0,5.9-2.7,5.9-5.9V51V45V24.4c0-3.2-2.6-5.9-5.9-5.9H48H21.4z"/>
	<path id="XMLID_4_" class="st1" d="M21.4,18.5c-3.3,0-5.9,2.6-5.9,5.9v8.9v8.9v3v3v3v8.9v8.9c0,3.3,2.6,5.9,5.9,5.9H48h26.6
		c3.3,0,5.9-2.6,5.9-5.9v-8.9V48v-5.9v-8.9v-8.9c0-3.3-2.6-5.9-5.9-5.9H48H21.4z"/>
	<path id="XMLID_7_" class="st2" d="M24.4,27.7V31l8.9,5.2l-8.9,5.2v3.3l14.8-8.5L24.4,27.7z M39.1,42.1v3h14.8v-3H39.1z"/>
</g>
</svg>
