<svg width="182" height="29" viewBox="0 0 182 29" fill="none" xmlns="http://www.w3.org/2000/svg">
  <path fill-rule="evenodd" clip-rule="evenodd" d="M81.1826 8.87917L81.5061 7.1001V7.03945C81.5061 6.81033 81.3915 6.69577 81.1624 6.69577H79.2014C79.0935 6.69577 78.9925 6.7362 78.8981 6.81707C78.8038 6.89794 78.7431 6.99228 78.7162 7.1001L78.3927 8.87917V8.93982C78.3927 9.04765 78.4264 9.13188 78.4938 9.19253C78.5612 9.25318 78.6488 9.28351 78.7566 9.28351H80.7176C80.8254 9.28351 80.9231 9.24307 81.0107 9.16221C81.0984 9.08134 81.1556 8.987 81.1826 8.87917ZM38.2939 11.2038L38.0917 12.3966C38.0647 12.5044 38.0041 12.5988 37.9097 12.6796C37.8154 12.7605 37.7143 12.8009 37.6065 12.8009H35.787L34.6751 19.149C34.6077 19.4859 34.574 19.7218 34.574 19.8565C34.574 20.0452 34.6245 20.1632 34.7256 20.2103C34.8267 20.2575 35.0053 20.2811 35.2614 20.2811H36.3328C36.4272 20.2811 36.5114 20.2946 36.5855 20.3215C36.6597 20.3485 36.6967 20.4159 36.6967 20.5237V20.5843L36.4744 21.858C36.4339 22.0602 36.2857 22.1815 36.0296 22.2219C35.7735 22.2623 35.5343 22.296 35.3119 22.323C35.0895 22.3499 34.8638 22.3634 34.6346 22.3634C33.7451 22.3634 33.0645 22.1949 32.5927 21.858C32.121 21.521 31.8852 20.9482 31.8852 20.1396C31.8852 19.9913 31.8953 19.8363 31.9155 19.6746C31.9357 19.5129 31.9593 19.3376 31.9862 19.149L33.0982 12.8009L31.2382 12.5179C31.0226 12.4909 30.9148 12.3764 30.9148 12.1742V12.1136L31.0765 11.2038C31.1035 11.096 31.1607 11.0016 31.2483 10.9208C31.3359 10.8399 31.4337 10.7995 31.5415 10.7995H33.4419L33.7451 9.1417C33.7721 9.03388 33.8293 8.94627 33.9169 8.87888C34.0045 8.81149 34.1023 8.76432 34.2101 8.73736L36.1509 8.4139H36.2318C36.4204 8.4139 36.5148 8.49476 36.5148 8.6565V8.71715L36.1307 10.7995H37.9502C38.1793 10.7995 38.2939 10.914 38.2939 11.1432V11.2038ZM48.3962 14.8024C48.3962 14.9911 48.3861 15.1832 48.3659 15.3786C48.3457 15.574 48.3221 15.7661 48.2951 15.9548L48.1334 16.9252C48.066 17.2621 47.9043 17.4306 47.6482 17.4306H41.0575C41.0306 17.5788 41.007 17.717 40.9868 17.845C40.9666 17.9731 40.9565 18.1112 40.9565 18.2595C40.9565 18.8121 41.1114 19.2535 41.4214 19.5837C41.7314 19.9139 42.2638 20.079 43.0186 20.079C43.7598 20.079 44.4607 20.052 45.1211 19.9981C45.7815 19.9442 46.3274 19.897 46.7586 19.8566H46.8395C46.9204 19.8566 46.9911 19.8701 47.0518 19.897C47.1124 19.924 47.1428 19.9846 47.1428 20.079V20.1598L46.9002 21.4941C46.8732 21.6559 46.8294 21.7772 46.7688 21.858C46.7081 21.9389 46.5834 21.9928 46.3947 22.0198C46.0578 22.0737 45.7411 22.1242 45.4446 22.1714C45.148 22.2186 44.8448 22.2556 44.5348 22.2826C44.2248 22.3096 43.8946 22.3298 43.5442 22.3432C43.1938 22.3567 42.7894 22.3635 42.3312 22.3635C41.8864 22.3635 41.4282 22.2961 40.9565 22.1613C40.4847 22.0265 40.0568 21.8008 39.6727 21.484C39.2886 21.1673 38.9719 20.7495 38.7225 20.2306C38.4732 19.7117 38.3485 19.0681 38.3485 18.2999C38.3485 18.1112 38.3552 17.9158 38.3687 17.7136C38.3822 17.5115 38.4092 17.3026 38.4496 17.0869L38.672 15.8335C38.8337 14.89 39.083 14.0881 39.42 13.4277C39.7569 12.7673 40.168 12.2315 40.6532 11.8205C41.1384 11.4094 41.6977 11.1129 42.3312 10.9309C42.9647 10.749 43.6655 10.658 44.4337 10.658C45.1076 10.658 45.6939 10.7625 46.1926 10.9714C46.6913 11.1803 47.1023 11.47 47.4258 11.8407C47.7493 12.2113 47.9919 12.6493 48.1536 13.1548C48.3153 13.6602 48.3962 14.2094 48.3962 14.8024ZM45.3233 13.4176C45.6198 13.7208 45.7681 14.169 45.7681 14.762C45.7681 14.8968 45.7614 15.0248 45.7479 15.1461C45.7344 15.2674 45.7142 15.3955 45.6872 15.5302H41.4013C41.5361 14.789 41.8056 14.1757 42.21 13.6905C42.6143 13.2053 43.2208 12.9627 44.0295 12.9627C44.5955 12.9627 45.0268 13.1143 45.3233 13.4176ZM58.3161 11.5475L58.114 12.6999C58.0735 12.956 57.9455 13.084 57.7298 13.084H57.649C57.5142 13.0571 57.3255 13.0301 57.0829 13.0031C56.8403 12.9762 56.5741 12.9526 56.2843 12.9324C55.9946 12.9122 55.688 12.8919 55.3645 12.8717C55.041 12.8515 54.7378 12.8414 54.4547 12.8414C54.293 12.8414 54.1212 12.8515 53.9392 12.8717C53.7573 12.8919 53.5888 12.9324 53.4338 12.993C53.2788 13.0537 53.1508 13.1447 53.0497 13.266C52.9486 13.3873 52.8981 13.5557 52.8981 13.7714C52.8981 14.0409 53.1002 14.3172 53.5046 14.6003L55.8699 16.2176C56.4764 16.6354 56.8774 17.0532 57.0728 17.471C57.2682 17.8888 57.3659 18.3201 57.3659 18.7649C57.3659 19.3984 57.2446 19.9408 57.002 20.3923C56.7594 20.8438 56.436 21.2179 56.0316 21.5144C55.6273 21.8109 55.1556 22.0265 54.6165 22.1613C54.0774 22.2961 53.5046 22.3635 52.8981 22.3635C52.7363 22.3635 52.5106 22.3601 52.2208 22.3534C51.931 22.3466 51.621 22.3264 51.2908 22.2927C50.9606 22.259 50.6169 22.2152 50.2598 22.1613C49.9026 22.1074 49.569 22.04 49.2591 21.9591C49.0569 21.8917 48.9558 21.7704 48.9558 21.5952V21.4941L49.1782 20.2811C49.2051 20.1733 49.2557 20.0925 49.3298 20.0385C49.4039 19.9846 49.4949 19.9577 49.6027 19.9577H49.6634C49.906 19.9846 50.1823 20.0116 50.4923 20.0385C50.8023 20.0655 51.1089 20.0891 51.4121 20.1093C51.7154 20.1295 52.0018 20.1464 52.2713 20.1598C52.5409 20.1733 52.7498 20.1801 52.8981 20.1801C53.3967 20.1801 53.8112 20.1093 54.1414 19.9678C54.4716 19.8263 54.6367 19.5197 54.6367 19.0479C54.6367 18.8862 54.5861 18.7278 54.4851 18.5728C54.384 18.4178 54.2121 18.2527 53.9695 18.0775L51.5031 16.3793C51.1122 16.1098 50.7955 15.7627 50.5529 15.3382C50.3103 14.9136 50.189 14.4587 50.189 13.9735C50.189 13.2996 50.3204 12.7504 50.5832 12.3259C50.8461 11.9013 51.183 11.5644 51.5941 11.315C52.0052 11.0657 52.4634 10.8939 52.9688 10.7995C53.4742 10.7052 53.9695 10.658 54.4547 10.658C55.0612 10.658 55.6677 10.6917 56.2742 10.7591C56.8807 10.8265 57.467 10.9343 58.0331 11.0826C58.2218 11.1365 58.3161 11.2578 58.3161 11.4465V11.5475ZM66.72 12.3966L66.9222 11.2038V11.1432C66.9222 10.914 66.8076 10.7995 66.5785 10.7995H64.759L65.1431 8.71715V8.6565C65.1431 8.49476 65.0488 8.4139 64.8601 8.4139H64.7792L62.8384 8.73736C62.7306 8.76432 62.6329 8.81149 62.5453 8.87888C62.4577 8.94627 62.4004 9.03388 62.3734 9.1417L62.0702 10.7995H60.1698C60.062 10.7995 59.9643 10.8399 59.8767 10.9208C59.7891 11.0016 59.7318 11.096 59.7048 11.2038L59.5431 12.1136V12.1742C59.5431 12.3764 59.6509 12.4909 59.8666 12.5179L61.7265 12.8009L60.6146 19.149C60.5876 19.3376 60.564 19.5129 60.5438 19.6746C60.5236 19.8363 60.5135 19.9913 60.5135 20.1396C60.5135 20.9482 60.7493 21.521 61.2211 21.858C61.6928 22.1949 62.3734 22.3634 63.263 22.3634C63.4921 22.3634 63.7178 22.3499 63.9402 22.323C64.1626 22.296 64.4018 22.2623 64.6579 22.2219C64.914 22.1815 65.0622 22.0602 65.1027 21.858L65.3251 20.5843V20.5237C65.3251 20.4159 65.288 20.3485 65.2139 20.3215C65.1397 20.2946 65.0555 20.2811 64.9612 20.2811H63.8897C63.6336 20.2811 63.455 20.2575 63.3539 20.2103C63.2528 20.1632 63.2023 20.0452 63.2023 19.8565C63.2023 19.7218 63.236 19.4859 63.3034 19.149L64.4153 12.8009H66.2348C66.3426 12.8009 66.4437 12.7605 66.5381 12.6796C66.6324 12.5988 66.6931 12.5044 66.72 12.3966ZM75.6901 11.5475L75.4879 12.6999C75.4475 12.956 75.3194 13.084 75.1038 13.084H75.0229C74.8881 13.0571 74.6994 13.0301 74.4568 13.0031C74.2142 12.9762 73.9481 12.9526 73.6583 12.9324C73.3685 12.9122 73.0619 12.8919 72.7384 12.8717C72.415 12.8515 72.1117 12.8414 71.8287 12.8414C71.6669 12.8414 71.4951 12.8515 71.3131 12.8717C71.1312 12.8919 70.9627 12.9324 70.8077 12.993C70.6527 13.0537 70.5247 13.1447 70.4236 13.266C70.3225 13.3873 70.272 13.5557 70.272 13.7714C70.272 14.0409 70.4742 14.3172 70.8785 14.6003L73.2438 16.2176C73.8503 16.6354 74.2513 17.0532 74.4467 17.471C74.6422 17.8888 74.7399 18.3201 74.7399 18.7649C74.7399 19.3984 74.6186 19.9408 74.376 20.3923C74.1334 20.8438 73.8099 21.2179 73.4056 21.5144C73.0012 21.8109 72.5295 22.0265 71.9904 22.1613C71.4513 22.2961 70.8785 22.3635 70.272 22.3635C70.1103 22.3635 69.8845 22.3601 69.5947 22.3534C69.305 22.3466 68.995 22.3264 68.6648 22.2927C68.3346 22.259 67.9909 22.2152 67.6337 22.1613C67.2765 22.1074 66.943 22.04 66.633 21.9591C66.4308 21.8917 66.3297 21.7704 66.3297 21.5952V21.4941L66.5521 20.2811C66.5791 20.1733 66.6296 20.0925 66.7037 20.0385C66.7779 19.9846 66.8688 19.9577 66.9767 19.9577H67.0373C67.2799 19.9846 67.5562 20.0116 67.8662 20.0385C68.1762 20.0655 68.4828 20.0891 68.7861 20.1093C69.0893 20.1295 69.3757 20.1464 69.6453 20.1598C69.9148 20.1733 70.1237 20.1801 70.272 20.1801C70.7707 20.1801 71.1851 20.1093 71.5153 19.9678C71.8455 19.8263 72.0106 19.5197 72.0106 19.0479C72.0106 18.8862 71.9601 18.7278 71.859 18.5728C71.7579 18.4178 71.5861 18.2527 71.3435 18.0775L68.877 16.3793C68.4862 16.1098 68.1695 15.7627 67.9268 15.3382C67.6842 14.9136 67.563 14.4587 67.563 13.9735C67.563 13.2996 67.6944 12.7504 67.9572 12.3259C68.22 11.9013 68.5569 11.5644 68.968 11.315C69.3791 11.0657 69.8373 10.8939 70.3427 10.7995C70.8482 10.7052 71.3435 10.658 71.8287 10.658C72.4352 10.658 73.0417 10.6917 73.6482 10.7591C74.2547 10.8265 74.841 10.9343 75.407 11.0826C75.5957 11.1365 75.6901 11.2578 75.6901 11.4465V11.5475ZM80.7177 11.2039L78.8578 21.7773C78.8308 21.8851 78.7702 21.9828 78.6758 22.0704C78.5815 22.158 78.4804 22.2018 78.3726 22.2018H76.5127C76.4048 22.2018 76.324 22.1681 76.2701 22.1007C76.2161 22.0333 76.1892 21.9525 76.1892 21.8581V21.7773L78.0491 11.2039C78.0761 11.0961 78.1334 11.0018 78.221 10.9209C78.3086 10.84 78.4063 10.7996 78.5141 10.7996H80.374C80.6032 10.7996 80.7177 10.9142 80.7177 11.1433V11.2039ZM92.0028 11.6587C92.0095 11.6385 92.0129 11.6149 92.0129 11.588C92.0129 11.4667 91.9725 11.3791 91.8916 11.3252C91.8107 11.2712 91.6962 11.2241 91.5479 11.1836C91.0088 11.0354 90.3754 10.9107 89.6476 10.8096C88.9198 10.7085 88.2324 10.658 87.5855 10.658C86.7768 10.658 86.0524 10.7456 85.4122 10.9208C84.772 11.096 84.2126 11.3824 83.7342 11.78C83.2557 12.1776 82.8615 12.6999 82.5515 13.3468C82.2415 13.9938 82.0057 14.7889 81.8439 15.7324L81.5811 17.2891C81.5407 17.5182 81.5137 17.7338 81.5002 17.936C81.4868 18.1382 81.48 18.3336 81.48 18.5223C81.48 19.2097 81.5878 19.7926 81.8035 20.271C82.0191 20.7495 82.3156 21.1437 82.693 21.4537C83.0704 21.7637 83.5152 21.9895 84.0273 22.131C84.5395 22.2725 85.0853 22.3432 85.6649 22.3432C85.9614 22.3432 86.2646 22.3264 86.5746 22.2927C86.8846 22.259 87.1946 22.2085 87.5046 22.1411L87.4844 22.3028C87.4035 22.9767 87.2047 23.4451 86.888 23.7079C86.5713 23.9707 86.0288 24.1021 85.2605 24.1021C85.0314 24.1021 84.7518 24.092 84.4215 24.0718C84.0913 24.0516 83.751 24.0313 83.4006 24.0111C83.0502 23.9909 82.7132 23.9673 82.3898 23.9404C82.0663 23.9134 81.79 23.8865 81.5609 23.8595H81.5205C81.2644 23.8595 81.1161 23.9741 81.0757 24.2032L80.8735 25.2747C80.8735 25.3016 80.8701 25.3252 80.8634 25.3454C80.8567 25.3656 80.8533 25.3825 80.8533 25.396C80.8533 25.5038 80.8836 25.5813 80.9443 25.6285C81.0049 25.6756 81.0892 25.7194 81.197 25.7599C81.4396 25.8407 81.8709 25.9418 82.4909 26.0631C83.1108 26.1844 83.9128 26.2451 84.8966 26.2451C85.7727 26.2451 86.5173 26.1709 87.1306 26.0227C87.7438 25.8744 88.2526 25.6386 88.6569 25.3151C89.0613 24.9916 89.378 24.5705 89.6071 24.0516C89.8363 23.5327 90.0182 22.9026 90.153 22.1613L91.9927 11.7295C91.9927 11.7025 91.9961 11.6789 92.0028 11.6587ZM89.1016 13.0233C88.9129 12.9829 88.64 12.9425 88.2828 12.902C87.9257 12.8616 87.5651 12.8414 87.2012 12.8414C86.3656 12.8414 85.749 13.0806 85.3514 13.5591C84.9538 14.0375 84.6741 14.762 84.5124 15.7324L84.2496 17.2891C84.2091 17.5317 84.1755 17.7574 84.1485 17.9663C84.1215 18.1752 84.1081 18.374 84.1081 18.5627C84.1081 19.1018 84.2361 19.5061 84.4922 19.7757C84.7483 20.0453 85.22 20.18 85.9074 20.18C86.15 20.18 86.4633 20.1632 86.8474 20.1295C87.2315 20.0958 87.5719 20.0587 87.8684 20.0183L89.1016 13.0233ZM108.24 14.9035C108.321 14.4318 108.362 14.0005 108.362 13.6096C108.362 12.6931 108.139 11.9721 107.694 11.4465C107.25 10.9208 106.542 10.658 105.572 10.658C104.871 10.658 104.231 10.7389 103.651 10.9006C103.071 11.0623 102.526 11.3117 102.013 11.6486C101.838 11.3791 101.579 11.1466 101.235 10.9511C100.891 10.7557 100.43 10.658 99.8503 10.658C99.2438 10.658 98.7114 10.7523 98.2532 10.941C97.7949 11.1297 97.3299 11.3588 96.8582 11.6284L96.9391 11.2039V11.1432C96.9391 10.9141 96.8245 10.7995 96.5954 10.7995H94.8365C94.7287 10.7995 94.631 10.84 94.5434 10.9208C94.4558 11.0017 94.3985 11.096 94.3716 11.2039L92.5116 21.7772V21.858C92.5116 21.9524 92.5386 22.0333 92.5925 22.1006C92.6464 22.168 92.7273 22.2017 92.8351 22.2017H94.695C94.8028 22.2017 94.9039 22.1579 94.9983 22.0703C95.0926 21.9827 95.1533 21.885 95.1802 21.7772L96.6156 13.6096C97.5321 13.1649 98.1925 12.9425 98.5968 12.9425C99.0147 12.9425 99.3112 13.0099 99.4864 13.1447C99.6616 13.2794 99.7492 13.5355 99.7492 13.9129C99.7492 14.0477 99.7425 14.1959 99.729 14.3577C99.7155 14.5194 99.6885 14.7013 99.6481 14.9035L98.4351 21.7772V21.858C98.4351 21.9524 98.4621 22.0333 98.516 22.1006C98.5699 22.168 98.6508 22.2017 98.7586 22.2017H100.619C100.726 22.2017 100.827 22.1579 100.922 22.0703C101.016 21.9827 101.077 21.885 101.104 21.7772L102.317 14.9035C102.357 14.6474 102.381 14.3981 102.387 14.1555C102.394 13.9129 102.404 13.677 102.418 13.4479C102.822 13.2592 103.216 13.1278 103.6 13.0537C103.985 12.9796 104.271 12.9425 104.46 12.9425C104.891 12.9425 105.201 13.0166 105.39 13.1649C105.578 13.3131 105.673 13.5827 105.673 13.9735C105.673 14.0948 105.663 14.233 105.642 14.388C105.622 14.543 105.599 14.7148 105.572 14.9035L104.359 21.7772V21.858C104.359 21.9524 104.386 22.0333 104.439 22.1006C104.493 22.168 104.574 22.2017 104.682 22.2017H106.542C106.65 22.2017 106.751 22.1579 106.845 22.0703C106.94 21.9827 107 21.885 107.027 21.7772L108.24 14.9035ZM120 11.5678C120 11.6351 119.993 11.6891 119.98 11.7295L118.221 21.7974C118.194 21.9052 118.133 21.9996 118.039 22.0804C117.945 22.1613 117.844 22.2017 117.736 22.2017H116.118C115.903 22.2017 115.795 22.0872 115.795 21.858V21.7974L115.876 21.2111C115.31 21.6424 114.771 21.9423 114.258 22.1108C113.746 22.2792 113.241 22.3635 112.742 22.3635C112.284 22.3635 111.853 22.286 111.448 22.131C111.044 21.976 110.69 21.7435 110.387 21.4335C110.084 21.1235 109.848 20.7428 109.679 20.2913C109.511 19.8397 109.427 19.3107 109.427 18.7042C109.427 18.5156 109.433 18.3168 109.447 18.1079C109.46 17.8989 109.487 17.6934 109.528 17.4912C109.555 17.2891 109.588 17.0869 109.629 16.8847C109.656 16.7095 109.69 16.5208 109.73 16.3187C109.77 16.1165 109.804 15.9211 109.831 15.7324C110.114 14.142 110.734 12.8987 111.691 12.0024C112.648 11.1061 113.942 10.658 115.573 10.658C116.22 10.658 116.89 10.7052 117.584 10.7995C118.278 10.8939 118.929 11.0219 119.535 11.1836C119.683 11.2241 119.798 11.2679 119.879 11.315C119.96 11.3622 120 11.4465 120 11.5678ZM116.27 12.8818C116.627 12.9088 116.9 12.9425 117.089 12.9829L115.977 19.3309C115.519 19.6005 115.081 19.8094 114.663 19.9577C114.245 20.1059 113.841 20.18 113.45 20.18C113.059 20.18 112.729 20.0688 112.459 19.8465C112.19 19.6241 112.055 19.2231 112.055 18.6436C112.055 18.5223 112.062 18.3909 112.075 18.2493C112.089 18.1078 112.109 17.9629 112.136 17.8147L112.5 15.7324C112.567 15.3146 112.665 14.9304 112.793 14.58C112.921 14.2296 113.089 13.9263 113.298 13.6703C113.507 13.4142 113.767 13.212 114.077 13.0638C114.387 12.9155 114.757 12.8414 115.188 12.8414C115.552 12.8414 115.913 12.8549 116.27 12.8818Z" fill="#2D4A60"/>
  <path d="M28.1415 10.789C27.8712 10.3828 27.4881 10.147 27.0122 10.085C26.789 10.0576 26.5559 10.0196 26.3356 9.98437C26.0532 9.94143 25.7632 9.89567 25.4773 9.8647C24.7148 9.78726 24.2473 9.46977 23.9649 8.84746C23.7713 8.42227 23.7481 8.04283 23.8945 7.66832L24.0037 7.38603C24.1924 6.89536 24.3895 6.38428 24.5986 5.88939C24.8 5.40999 24.7845 4.93833 24.5528 4.48216C24.1276 3.64655 23.4587 3.06648 22.5694 2.76096C22.066 2.58708 21.5668 2.65255 21.1148 2.95033C20.8987 3.08971 20.6741 3.22488 20.4544 3.35652C20.1481 3.54236 19.8313 3.73525 19.5335 3.94433C19.3251 4.09076 19.0617 4.16819 18.7752 4.16819V4.16819C18.0598 4.16819 17.367 3.69653 17.1973 3.09746C17.1086 2.77645 17.0002 2.45966 16.8953 2.15414C16.803 1.89508 16.7136 1.62476 16.6319 1.36147C16.4658 0.801115 16.0983 0.413933 15.5378 0.209078C15.3759 0.151353 15.209 0.104891 15.0464 0.0661729C14.9809 0.0471658 14.9077 0.0274547 14.8415 0.00774364L14.807 0H13.8825L13.8473 0.0119674C13.8283 0.0161913 13.8128 0.0239349 13.7938 0.0309746C13.7706 0.0387182 13.7466 0.0464619 13.7206 0.0506857C12.7771 0.221046 12.2124 0.700448 12.0026 1.52761C11.9104 1.89156 11.7794 2.25833 11.6555 2.61031C11.5893 2.80038 11.5231 2.98975 11.4619 3.17912C11.276 3.7437 10.6071 4.18861 9.93756 4.18861C9.67142 4.18861 9.41936 4.11539 9.21517 3.97178C8.8399 3.71624 8.44984 3.4769 8.07034 3.24881C7.88869 3.13688 7.70703 3.02847 7.5289 2.91654C7.17686 2.6962 6.79032 2.63002 6.40801 2.72717C5.36879 2.9813 4.60768 3.61558 4.13946 4.60958C3.95429 5.00802 3.94584 5.44448 4.12397 5.87742C4.20494 6.07454 4.28239 6.27235 4.35984 6.47298C4.47601 6.7785 4.59571 7.09177 4.73089 7.39729C5.009 8.02382 4.97873 8.57714 4.62598 9.12975C4.38659 9.50919 4.07328 9.73305 3.66703 9.81049C3.08264 9.92313 2.45671 10.0196 1.80333 10.097C1.24992 10.159 0.820432 10.4335 0.52331 10.9129C0.121281 11.5627 -0.0491063 12.3011 0.0121486 13.1015C0.0705872 13.852 0.430372 14.3891 1.08024 14.6988C1.3161 14.8115 1.54775 14.9466 1.77657 15.0741C2.02722 15.217 2.28351 15.3641 2.55388 15.4915C2.94112 15.6689 3.2305 16.0793 3.32343 16.5777C3.41989 17.0966 3.28893 17.6224 2.97492 17.9427C2.53768 18.3989 2.1089 18.8903 1.70264 19.4006C1.51677 19.6287 1.3851 19.9152 1.33441 20.1898C1.14572 21.2683 2.05046 22.8656 3.06433 23.2443C3.31499 23.3372 3.63253 23.364 3.92261 23.321C4.46756 23.2359 5.03294 23.1239 5.6476 22.9733C6.27846 22.8184 6.76568 22.9493 7.23319 23.4104C7.58452 23.7582 7.74365 24.1334 7.73168 24.6008C7.71689 25.2006 7.7014 25.8426 7.67394 26.4924C7.65071 26.9831 7.82109 27.409 8.17313 27.7532C8.73429 28.3023 9.43837 28.6275 10.2727 28.7162C10.3663 28.7282 10.4544 28.7317 10.5438 28.7317C11.1781 28.7317 11.6921 28.4607 12.0604 27.9271C12.2068 27.7215 12.3659 27.5286 12.5356 27.3238C12.7102 27.1112 12.8877 26.8951 13.0503 26.6628C13.3164 26.2685 13.8079 26.0327 14.3571 26.0327C14.895 26.0327 15.3822 26.265 15.6568 26.648C15.8814 26.9648 16.1285 27.2703 16.3651 27.5646C16.5115 27.7427 16.6587 27.9243 16.7981 28.1094C17.0685 28.4614 17.436 28.6663 17.85 28.705C18.8554 28.7979 19.7567 28.4882 20.522 27.7884C20.8888 27.4519 21.0634 27.019 21.036 26.4973C21.0212 26.2693 21.017 26.0292 21.0127 25.8011C21.0057 25.4991 20.9972 25.1901 20.974 24.8845C20.9205 24.1651 21.1451 23.647 21.6746 23.2563C22.0259 23.0007 22.3702 22.9078 22.7455 22.9698C23.4221 23.0817 24.0262 23.2056 24.5944 23.3492C25.1816 23.4921 25.7237 23.3569 26.1948 22.9388C26.7869 22.4207 27.1734 21.7596 27.3396 20.9782C27.479 20.325 27.3241 19.7604 26.8791 19.3C26.7045 19.1183 26.5348 18.9212 26.3722 18.7319C26.2095 18.539 26.0399 18.3412 25.861 18.1553C25.3745 17.6534 25.2393 17.1346 25.421 16.4778C25.5449 16.0174 25.7723 15.7083 26.1286 15.507C26.7123 15.174 27.2572 14.8762 27.7994 14.5947C28.2324 14.3666 28.5105 14.0146 28.6224 13.5472C28.8653 12.5637 28.7027 11.6359 28.1415 10.789Z" fill="#03A973"/>
  <path d="M14.3 11.0021L14.304 10.9441L14.3445 9.91865C14.3371 9.87198 14.3553 9.68952 14.3553 9.66194C14.3594 9.11457 14.3884 9.15347 14.4336 8.11178C14.4363 8.03045 14.4039 7.94912 14.3411 7.89396C14.2817 7.83951 14.1994 7.82465 14.1218 7.84375C13.6884 7.95619 13.1505 8.07642 12.5241 8.20088C12.4053 8.22422 12.327 8.32888 12.3162 8.44981C12.242 9.40947 12.2528 9.18459 12.217 9.63436L12.1164 10.913C12.1164 10.913 12.1164 10.9165 12.1164 10.9207L12.053 12.1286L11.9173 14.7544L11.8687 15.6865C11.8053 16.8873 11.7722 17.5669 11.7654 17.7685C11.7573 17.9672 11.754 18.1101 11.754 18.1963C11.754 18.8413 11.8647 19.3696 12.084 19.7614C12.3101 20.1609 12.6362 20.4565 13.0553 20.6354C13.4522 20.8108 13.9746 20.8957 14.6091 20.8957C14.8575 20.8957 15.1282 20.8801 15.4063 20.8526C15.6877 20.8214 16.0664 20.7479 16.5368 20.6347C16.6367 20.6072 16.715 20.5223 16.7299 20.4169C16.767 20.1602 16.8082 19.842 16.8419 19.5351C16.8858 19.1624 16.9303 18.7776 16.9715 18.5945C16.9938 18.4934 16.9567 18.388 16.8791 18.3265C16.8008 18.2642 16.6968 18.2529 16.6091 18.2996C16.1528 18.5407 15.897 18.6376 15.4819 18.719C15.3367 18.7501 15.2105 18.7501 15.0735 18.7501H15.0073C14.8143 18.7501 14.5578 18.6843 14.3506 18.5789C14.1616 18.4813 14.1171 18.4467 14.0833 18.284C14.0239 17.9771 14.0239 17.9113 14.0239 17.5464V17.3873L14.0354 16.9361L14.1839 13.6187L14.3 11.0021Z" fill="white"/>
  <path d="M19.5277 11.1415L19.0825 10.1738C19.0087 10.0166 18.8759 9.89179 18.7162 9.83525C18.5565 9.77431 18.3811 9.78238 18.2249 9.85948L14.9336 11.4889L14.9378 11.4286L12.5701 12.6586L11.1786 13.3481L10.6447 12.1827C10.5737 12.0256 10.4417 11.9045 10.282 11.8435C10.1222 11.7833 9.94686 11.7914 9.79067 11.8685L8.85495 12.3274C8.53547 12.4845 8.39916 12.8803 8.55109 13.2107L9.80274 15.9459C9.87657 16.1031 10.0058 16.2279 10.1655 16.2844C10.2365 16.3131 10.3104 16.3248 10.3799 16.3248C10.4772 16.3248 10.5716 16.305 10.6568 16.2602L12.4274 15.3849L14.8115 14.2057L19.2259 12.0234C19.5433 11.8677 19.6796 11.472 19.5277 11.1415Z" fill="white"/>
  <path d="M132.2 23.18C130.72 23.18 129.427 22.88 128.32 22.28C127.227 21.6667 126.38 20.8067 125.78 19.7C125.193 18.5933 124.9 17.3133 124.9 15.86C124.9 14.42 125.193 13.1533 125.78 12.06C126.38 10.9533 127.227 10.1 128.32 9.5C129.427 8.88667 130.72 8.58 132.2 8.58C133.133 8.58 134.033 8.72 134.9 9C135.78 9.28 136.487 9.66 137.02 10.14L135.88 12.8C134.72 11.96 133.52 11.54 132.28 11.54C131.133 11.54 130.253 11.9067 129.64 12.64C129.027 13.36 128.72 14.4333 128.72 15.86C128.72 17.3 129.027 18.3867 129.64 19.12C130.253 19.8533 131.133 20.22 132.28 20.22C133.52 20.22 134.72 19.8 135.88 18.96L137.02 21.62C136.487 22.1 135.78 22.48 134.9 22.76C134.033 23.04 133.133 23.18 132.2 23.18ZM138.771 8.28H142.391V23H138.771V8.28ZM149.673 23.16C148.539 23.16 147.553 22.9467 146.713 22.52C145.873 22.0933 145.226 21.48 144.773 20.68C144.319 19.88 144.093 18.94 144.093 17.86C144.093 16.78 144.319 15.84 144.773 15.04C145.226 14.24 145.873 13.6267 146.713 13.2C147.553 12.7733 148.539 12.56 149.673 12.56C150.793 12.56 151.766 12.78 152.593 13.22C153.433 13.6467 154.079 14.26 154.533 15.06C154.986 15.8467 155.213 16.78 155.213 17.86C155.213 18.94 154.986 19.88 154.533 20.68C154.079 21.4667 153.433 22.08 152.593 22.52C151.766 22.9467 150.793 23.16 149.673 23.16ZM149.673 20.46C150.979 20.46 151.633 19.5933 151.633 17.86C151.633 16.98 151.466 16.3333 151.133 15.92C150.813 15.4933 150.326 15.28 149.673 15.28C149.006 15.28 148.506 15.4933 148.173 15.92C147.839 16.3333 147.673 16.98 147.673 17.86C147.673 18.7533 147.839 19.4133 148.173 19.84C148.506 20.2533 149.006 20.46 149.673 20.46ZM167.136 12.84V23H163.596V21.64C162.943 22.6533 161.976 23.16 160.696 23.16C159.403 23.16 158.436 22.8 157.796 22.08C157.169 21.36 156.856 20.26 156.856 18.78V12.84H160.476V18.88C160.476 19.88 160.909 20.38 161.776 20.38C162.283 20.38 162.689 20.2 162.996 19.84C163.316 19.48 163.476 19 163.476 18.4V12.84H167.136ZM179.999 8.28V23H176.439V21.62C176.145 22.1 175.719 22.48 175.159 22.76C174.599 23.0267 173.985 23.16 173.319 23.16C172.452 23.16 171.679 22.94 170.999 22.5C170.319 22.0467 169.785 21.42 169.399 20.62C169.025 19.8067 168.839 18.8733 168.839 17.82C168.839 16.78 169.025 15.86 169.399 15.06C169.785 14.26 170.319 13.6467 170.999 13.22C171.679 12.78 172.452 12.56 173.319 12.56C173.959 12.56 174.545 12.6933 175.079 12.96C175.625 13.2267 176.059 13.5867 176.379 14.04V8.28H179.999ZM174.439 20.46C175.079 20.46 175.572 20.24 175.919 19.8C176.265 19.3467 176.439 18.7 176.439 17.86C176.439 17.0467 176.259 16.42 175.899 15.98C175.552 15.5267 175.065 15.3 174.439 15.3C173.785 15.3 173.285 15.52 172.939 15.96C172.592 16.3867 172.419 17.0067 172.419 17.82C172.419 18.66 172.592 19.3133 172.939 19.78C173.299 20.2333 173.799 20.46 174.439 20.46Z" fill="#24292E"/>
</svg>
