<svg width="145" height="29" viewBox="0 0 145 29" fill="none" xmlns="http://www.w3.org/2000/svg">
  <path d="M28.1415 10.789C27.8712 10.3828 27.4881 10.147 27.0122 10.085C26.789 10.0576 26.5559 10.0196 26.3356 9.98437C26.0532 9.94143 25.7632 9.89567 25.4773 9.8647C24.7148 9.78726 24.2473 9.46977 23.9649 8.84746C23.7713 8.42227 23.7481 8.04283 23.8945 7.66832L24.0037 7.38603C24.1924 6.89536 24.3895 6.38428 24.5986 5.88939C24.8 5.40999 24.7845 4.93833 24.5528 4.48216C24.1276 3.64655 23.4587 3.06648 22.5694 2.76096C22.066 2.58708 21.5668 2.65255 21.1148 2.95033C20.8987 3.08971 20.6741 3.22488 20.4544 3.35652C20.1481 3.54236 19.8313 3.73525 19.5335 3.94433C19.3251 4.09076 19.0617 4.16819 18.7752 4.16819V4.16819C18.0598 4.16819 17.367 3.69653 17.1973 3.09746C17.1086 2.77645 17.0002 2.45966 16.8953 2.15414C16.803 1.89508 16.7136 1.62476 16.6319 1.36147C16.4658 0.801115 16.0983 0.413933 15.5378 0.209078C15.3759 0.151353 15.209 0.104891 15.0464 0.0661729C14.9809 0.0471658 14.9077 0.0274547 14.8415 0.00774364L14.807 0H13.8825L13.8473 0.0119674C13.8283 0.0161913 13.8128 0.0239349 13.7938 0.0309746C13.7706 0.0387182 13.7466 0.0464619 13.7206 0.0506857C12.7771 0.221046 12.2124 0.700448 12.0026 1.52761C11.9104 1.89156 11.7794 2.25833 11.6555 2.61031C11.5893 2.80038 11.5231 2.98975 11.4619 3.17912C11.276 3.7437 10.6071 4.18861 9.93756 4.18861C9.67142 4.18861 9.41936 4.11539 9.21517 3.97178C8.8399 3.71624 8.44984 3.4769 8.07034 3.24881C7.88869 3.13688 7.70703 3.02847 7.5289 2.91654C7.17686 2.6962 6.79032 2.63002 6.40801 2.72717C5.36879 2.9813 4.60768 3.61558 4.13946 4.60958C3.95429 5.00802 3.94584 5.44448 4.12397 5.87742C4.20494 6.07454 4.28239 6.27235 4.35984 6.47298C4.47601 6.7785 4.59571 7.09177 4.73089 7.39729C5.009 8.02382 4.97873 8.57714 4.62598 9.12975C4.38659 9.50919 4.07328 9.73305 3.66703 9.81049C3.08264 9.92313 2.45671 10.0196 1.80333 10.097C1.24992 10.159 0.820432 10.4335 0.52331 10.9129C0.121281 11.5627 -0.0491063 12.3011 0.0121486 13.1015C0.0705872 13.852 0.430372 14.3891 1.08024 14.6988C1.3161 14.8115 1.54775 14.9466 1.77657 15.0741C2.02722 15.217 2.28351 15.3641 2.55388 15.4915C2.94112 15.6689 3.2305 16.0793 3.32343 16.5777C3.41989 17.0966 3.28893 17.6224 2.97492 17.9427C2.53768 18.3989 2.1089 18.8903 1.70264 19.4006C1.51677 19.6287 1.3851 19.9152 1.33441 20.1898C1.14572 21.2683 2.05046 22.8656 3.06433 23.2443C3.31499 23.3372 3.63253 23.364 3.92261 23.321C4.46756 23.2359 5.03294 23.1239 5.6476 22.9733C6.27846 22.8184 6.76568 22.9493 7.23319 23.4104C7.58452 23.7582 7.74365 24.1334 7.73168 24.6008C7.71689 25.2006 7.7014 25.8426 7.67394 26.4924C7.65071 26.9831 7.82109 27.409 8.17313 27.7532C8.73429 28.3023 9.43837 28.6275 10.2727 28.7162C10.3663 28.7282 10.4544 28.7317 10.5438 28.7317C11.1781 28.7317 11.6921 28.4607 12.0604 27.9271C12.2068 27.7215 12.3659 27.5286 12.5356 27.3238C12.7102 27.1112 12.8877 26.8951 13.0503 26.6628C13.3164 26.2685 13.8079 26.0327 14.3571 26.0327C14.895 26.0327 15.3822 26.265 15.6568 26.648C15.8814 26.9648 16.1285 27.2703 16.3651 27.5646C16.5115 27.7427 16.6587 27.9243 16.7981 28.1094C17.0685 28.4614 17.436 28.6663 17.85 28.705C18.8554 28.7979 19.7567 28.4882 20.522 27.7884C20.8888 27.4519 21.0634 27.019 21.036 26.4973C21.0212 26.2693 21.017 26.0292 21.0127 25.8011C21.0057 25.4991 20.9972 25.1901 20.974 24.8845C20.9205 24.1651 21.1451 23.647 21.6746 23.2563C22.0259 23.0007 22.3702 22.9078 22.7455 22.9698C23.4221 23.0817 24.0262 23.2056 24.5944 23.3492C25.1816 23.4921 25.7237 23.3569 26.1948 22.9388C26.7869 22.4207 27.1734 21.7596 27.3396 20.9782C27.479 20.325 27.3241 19.7604 26.8791 19.3C26.7045 19.1183 26.5348 18.9212 26.3722 18.7319C26.2095 18.539 26.0399 18.3412 25.861 18.1553C25.3745 17.6534 25.2393 17.1346 25.421 16.4778C25.5449 16.0174 25.7723 15.7083 26.1286 15.507C26.7123 15.174 27.2572 14.8762 27.7994 14.5947C28.2324 14.3666 28.5105 14.0146 28.6224 13.5472C28.8653 12.5637 28.7027 11.6359 28.1415 10.789Z" fill="#03A973"/>
  <path d="M14.3 11.0021L14.304 10.9441L14.3445 9.91865C14.3371 9.87198 14.3553 9.68952 14.3553 9.66194C14.3594 9.11457 14.3884 9.15347 14.4336 8.11178C14.4363 8.03045 14.4039 7.94912 14.3411 7.89396C14.2817 7.83951 14.1994 7.82465 14.1218 7.84375C13.6884 7.95619 13.1505 8.07642 12.5241 8.20088C12.4053 8.22422 12.327 8.32888 12.3162 8.44981C12.242 9.40947 12.2528 9.18459 12.217 9.63436L12.1164 10.913C12.1164 10.913 12.1164 10.9165 12.1164 10.9207L12.053 12.1286L11.9173 14.7544L11.8687 15.6865C11.8053 16.8873 11.7722 17.5669 11.7654 17.7685C11.7573 17.9672 11.754 18.1101 11.754 18.1963C11.754 18.8413 11.8647 19.3696 12.084 19.7614C12.3101 20.1609 12.6362 20.4565 13.0553 20.6354C13.4522 20.8108 13.9746 20.8957 14.6091 20.8957C14.8575 20.8957 15.1282 20.8801 15.4063 20.8526C15.6877 20.8214 16.0664 20.7479 16.5368 20.6347C16.6367 20.6072 16.715 20.5223 16.7299 20.4169C16.767 20.1602 16.8082 19.842 16.8419 19.5351C16.8858 19.1624 16.9303 18.7776 16.9715 18.5945C16.9938 18.4934 16.9567 18.388 16.8791 18.3265C16.8008 18.2642 16.6968 18.2529 16.6091 18.2996C16.1528 18.5407 15.897 18.6376 15.4819 18.719C15.3367 18.7501 15.2105 18.7501 15.0735 18.7501H15.0073C14.8143 18.7501 14.5578 18.6843 14.3506 18.5789C14.1616 18.4813 14.1171 18.4467 14.0833 18.284C14.0239 17.9771 14.0239 17.9113 14.0239 17.5464V17.3873L14.0354 16.9361L14.1839 13.6187L14.3 11.0021Z" fill="white"/>
  <path d="M19.5277 11.1415L19.0825 10.1738C19.0087 10.0166 18.8759 9.89179 18.7162 9.83525C18.5565 9.77431 18.3811 9.78238 18.2249 9.85948L14.9336 11.4889L14.9378 11.4286L12.5701 12.6586L11.1786 13.3481L10.6447 12.1827C10.5737 12.0256 10.4417 11.9045 10.282 11.8435C10.1222 11.7833 9.94686 11.7914 9.79067 11.8685L8.85495 12.3274C8.53547 12.4845 8.39916 12.8803 8.55109 13.2107L9.80274 15.9459C9.87657 16.1031 10.0058 16.2279 10.1655 16.2844C10.2365 16.3131 10.3104 16.3248 10.3799 16.3248C10.4772 16.3248 10.5716 16.305 10.6568 16.2602L12.4274 15.3849L14.8115 14.2057L19.2259 12.0234C19.5433 11.8677 19.6796 11.472 19.5277 11.1415Z" fill="white"/>
  <path d="M40.06 23.18C38.6067 23.18 37.34 22.8867 36.26 22.3C35.18 21.7 34.3467 20.8467 33.76 19.74C33.1867 18.6333 32.9 17.34 32.9 15.86C32.9 14.38 33.1933 13.0933 33.78 12C34.3667 10.9067 35.1933 10.0667 36.26 9.48C37.34 8.88 38.6067 8.58 40.06 8.58C41.5133 8.58 42.7733 8.88 43.84 9.48C44.92 10.0667 45.7467 10.9067 46.32 12C46.8933 13.0933 47.18 14.38 47.18 15.86C47.18 17.34 46.8933 18.6333 46.32 19.74C45.7467 20.8467 44.92 21.7 43.84 22.3C42.7733 22.8867 41.5133 23.18 40.06 23.18ZM40.06 20.32C41.1267 20.32 41.96 19.94 42.56 19.18C43.1733 18.42 43.48 17.3133 43.48 15.86C43.48 14.42 43.1733 13.3267 42.56 12.58C41.96 11.82 41.1267 11.44 40.06 11.44C38.9933 11.44 38.16 11.8133 37.56 12.56C36.96 13.3067 36.66 14.4067 36.66 15.86C36.66 17.3267 36.96 18.44 37.56 19.2C38.16 19.9467 38.9933 20.32 40.06 20.32ZM55.9738 12.56C57.1738 12.56 58.0671 12.9267 58.6537 13.66C59.2538 14.38 59.5538 15.4733 59.5538 16.94V23H55.9338V17.1C55.9338 16.4733 55.8271 16.0267 55.6138 15.76C55.4004 15.48 55.0671 15.34 54.6138 15.34C54.0671 15.34 53.6271 15.5267 53.2938 15.9C52.9604 16.26 52.7938 16.74 52.7938 17.34V23H49.1738V15.76C49.1738 14.6667 49.1204 13.6933 49.0138 12.84H52.4138L52.5938 14.34C52.9804 13.7667 53.4604 13.3267 54.0338 13.02C54.6071 12.7133 55.2538 12.56 55.9738 12.56ZM67.655 8.76H74.435C76.0617 8.76 77.3217 9.15333 78.215 9.94C79.1083 10.7133 79.555 11.7667 79.555 13.1C79.555 14.42 79.1017 15.4733 78.195 16.26C77.2883 17.0467 76.035 17.44 74.435 17.44H71.415V23H67.655V8.76ZM73.935 14.64C75.3483 14.64 76.055 14.14 76.055 13.14C76.055 12.6333 75.8817 12.2533 75.535 12C75.2017 11.7333 74.6683 11.6 73.935 11.6H71.415V14.64H73.935ZM87.3711 12.6C87.8644 12.6 88.2444 12.6733 88.5111 12.82V16.12C87.9378 15.8533 87.3844 15.72 86.8511 15.72C85.3311 15.72 84.5711 16.4467 84.5711 17.9V23H80.9511V15.76C80.9511 14.6667 80.8978 13.6933 80.7911 12.84H84.1911L84.4111 14.54C84.6511 13.9133 85.0378 13.4333 85.5711 13.1C86.1044 12.7667 86.7044 12.6 87.3711 12.6ZM98.7295 18.28H92.3495C92.4162 19.0667 92.6429 19.6333 93.0295 19.98C93.4162 20.3267 93.9829 20.5 94.7295 20.5C95.2362 20.5 95.7429 20.42 96.2495 20.26C96.7562 20.0867 97.2162 19.8533 97.6295 19.56L98.5495 21.96C98.0429 22.3333 97.4295 22.6267 96.7095 22.84C95.9895 23.0533 95.2695 23.16 94.5495 23.16C93.3895 23.16 92.3829 22.9467 91.5295 22.52C90.6762 22.0933 90.0229 21.4867 89.5695 20.7C89.1162 19.9 88.8895 18.96 88.8895 17.88C88.8895 16.8533 89.1029 15.94 89.5295 15.14C89.9695 14.3267 90.5695 13.6933 91.3295 13.24C92.1029 12.7867 92.9829 12.56 93.9695 12.56C94.9295 12.56 95.7695 12.7733 96.4895 13.2C97.2095 13.6267 97.7629 14.24 98.1495 15.04C98.5362 15.8267 98.7295 16.7467 98.7295 17.8V18.28ZM94.0695 15.04C93.1762 15.04 92.6162 15.56 92.3895 16.6H95.6295C95.4962 15.56 94.9762 15.04 94.0695 15.04ZM113.344 12.56C114.518 12.56 115.384 12.92 115.944 13.64C116.518 14.36 116.804 15.46 116.804 16.94V23H113.184V17.04C113.184 16.44 113.091 16.0067 112.904 15.74C112.731 15.4733 112.431 15.34 112.004 15.34C111.498 15.34 111.104 15.5267 110.824 15.9C110.544 16.2733 110.404 16.8 110.404 17.48V23H106.784V17.04C106.784 16.44 106.691 16.0067 106.504 15.74C106.318 15.4733 106.018 15.34 105.604 15.34C105.098 15.34 104.704 15.5267 104.424 15.9C104.158 16.2733 104.024 16.8 104.024 17.48V23H100.404V15.76C100.404 14.6667 100.351 13.6933 100.244 12.84H103.644L103.824 14.26C104.131 13.7133 104.558 13.2933 105.104 13C105.664 12.7067 106.304 12.56 107.024 12.56C108.478 12.56 109.464 13.1733 109.984 14.4C110.344 13.84 110.818 13.3933 111.404 13.06C112.004 12.7267 112.651 12.56 113.344 12.56ZM118.9 12.84H122.52V23H118.9V12.84ZM122.58 7.86V11.12H118.8V7.86H122.58ZM128.782 23.16C126.755 23.16 125.155 22.7533 123.982 21.94L124.902 19.48C125.448 19.8533 126.068 20.1467 126.762 20.36C127.455 20.56 128.135 20.66 128.802 20.66C129.215 20.66 129.535 20.6 129.762 20.48C129.988 20.36 130.102 20.1933 130.102 19.98C130.102 19.7933 130.015 19.6467 129.842 19.54C129.682 19.42 129.368 19.3133 128.902 19.22L127.262 18.84C126.222 18.6267 125.468 18.2933 125.002 17.84C124.548 17.3733 124.322 16.7333 124.322 15.92C124.322 15.2667 124.515 14.6867 124.902 14.18C125.288 13.6733 125.822 13.28 126.502 13C127.195 12.7067 127.988 12.56 128.882 12.56C129.615 12.56 130.335 12.6667 131.042 12.88C131.748 13.0933 132.408 13.3933 133.022 13.78L132.062 16.18C131.528 15.8333 130.982 15.5667 130.422 15.38C129.862 15.1933 129.335 15.1 128.842 15.1C128.442 15.1 128.128 15.1667 127.902 15.3C127.675 15.42 127.562 15.6 127.562 15.84C127.562 15.9867 127.628 16.1067 127.762 16.2C127.895 16.28 128.148 16.3667 128.522 16.46L130.222 16.84C131.302 17.0933 132.075 17.4667 132.542 17.96C133.022 18.44 133.262 19.1 133.262 19.94C133.262 20.94 132.862 21.7267 132.062 22.3C131.275 22.8733 130.182 23.16 128.782 23.16ZM144.198 18.28H137.818C137.885 19.0667 138.112 19.6333 138.498 19.98C138.885 20.3267 139.452 20.5 140.198 20.5C140.705 20.5 141.212 20.42 141.718 20.26C142.225 20.0867 142.685 19.8533 143.098 19.56L144.018 21.96C143.512 22.3333 142.898 22.6267 142.178 22.84C141.458 23.0533 140.738 23.16 140.018 23.16C138.858 23.16 137.852 22.9467 136.998 22.52C136.145 22.0933 135.492 21.4867 135.038 20.7C134.585 19.9 134.358 18.96 134.358 17.88C134.358 16.8533 134.572 15.94 134.998 15.14C135.438 14.3267 136.038 13.6933 136.798 13.24C137.572 12.7867 138.452 12.56 139.438 12.56C140.398 12.56 141.238 12.7733 141.958 13.2C142.678 13.6267 143.232 14.24 143.618 15.04C144.005 15.8267 144.198 16.7467 144.198 17.8V18.28ZM139.538 15.04C138.645 15.04 138.085 15.56 137.858 16.6H141.098C140.965 15.56 140.445 15.04 139.538 15.04Z" fill="#24292E"/>
</svg>
