<?xml version="1.0" encoding="utf-8"?>
<!-- Generator: Adobe Illustrator 19.0.0, SVG Export Plug-In . SVG Version: 6.00 Build 0)  -->
<svg version="1.1" id="Layer_1" xmlns="http://www.w3.org/2000/svg" xmlns:xlink="http://www.w3.org/1999/xlink" x="0px" y="0px"
	 viewBox="0 0 500 500" style="enable-background:new 0 0 500 500;" xml:space="preserve">
<style type="text/css">
	.st0{fill:#0E0F0D;}
	.st1{fill:#E1C5A2;}
	.st2{fill:#A89983;}
	.st3{fill:#FFFFFF;}
	.st4{fill:#E0D896;}
	.st5{fill:#D7C184;}
	.st6{fill:#9F8F78;}
	.st7{fill:#6E6A67;}
	.st8{fill:#93232C;}
	.st9{fill:#731B2A;}
</style>
<g id="XMLID_1_">
	<path id="XMLID_2_" class="st0" d="M431.6,196.1c-0.2-1.3-0.4-2.7-0.6-4c-0.3-1.3-0.5-2.6-0.9-4.1l-1-1.6c-4.2-3.3-8.7-5.8-13.3-8
		c-3.8-1.8-7.6-3.3-11.5-4.8c-10.8-30.1-29.5-56.8-54-75.4C324.8,79.2,295,69,264,69c-31,0-60.8,10.2-86.2,29.4
		c-24.5,18.6-43.2,45.3-54,75.4c-3.9,1.4-7.7,3-11.5,4.8c-4.6,2.2-9.1,4.7-13.3,8l-1,1.6c-0.4,1.5-0.7,2.7-0.9,4.1
		c-0.3,1.3-0.5,2.6-0.6,4c-0.4,2.6-0.6,5.3-0.8,7.9c-0.3,5.3-0.1,10.6,0.5,15.9c0.6,5.3,1.5,10.5,3,15.7c0.7,2.6,1.6,5.1,2.6,7.7
		c0.5,1.3,1,2.5,1.6,3.8c0.3,0.6,0.6,1.2,0.9,1.9c0.7,1.3,0.9,1.5,1.2,2l1.4,1.3c0.9,0.5,1.6,0.8,2.5,1.2l2.4,1.1
		c0.4,0.2,0.9,0.4,1.3,0.5c-10.8,9.9-22.4,22.9-32.6,38.8l-12.8,20.2l17.9-15.7c0.3-0.3,15.3-13.3,40.4-28l0.4,2.9
		c-1.6,0.9-9.5,5-11.9,7c-3.9,3.2-4.1,8.2-3,17.6c0.5,4.8,2.3,14.1,4.8,22.6c4.2,14.7,7.2,17.3,9.9,17.9c1.2,0.3,2.8,0.4,4.5,0.4
		c4.8,0,11-0.9,15-2.1c4.7,14.7,11.4,27.9,19.5,39.5c-0.4,0.1-0.8,0.2-1.2,0.3c-4.9-2.3-22-10.2-27.8-12.8l-12-5.4l7.1,11.1
		c0.5,0.8,12.8,19.9,22.8,32.8c9.4,12,22.2,24.3,46.4,24.3c2.9,0,6-0.2,9.1-0.5c7.2-0.8,12.6-1.5,16.8-2c25.4,9.3,53.4,9.9,80-0.2
		c7.3-2.8,13.9-6.1,20-9.9c10.3-2.5,21.5-5.1,27-6.7c0.9-0.2,2-0.5,3.2-0.8c7.7-1.8,20.6-4.8,27.5-18.5
		c6.9-13.9,18.2-35.2,18.4-35.4l5.3-9.9l-10.3,4.5c-0.6,0.3-13.6,5.9-20.4,9.5c4.7-10.8,7.5-19.8,8.5-23.3c3.8,0.9,9.4,0.8,13.6,0.8
		c2,0,4.1-0.4,5.5-0.7c2.7-0.7,4.8-2.5,8.7-17.6c2.3-8.8,3.9-18.4,4.4-23.3c0.9-9.6,0.6-14.7-3.3-18c-1.9-1.6-7.7-4.7-10.6-6.2
		c1.6-0.7,2.4-0.5,2.5-0.5l2.6-10c0.9-0.4,1.9-0.8,3-1.2c1.6-0.6,3.2-1.3,4.8-2l2.4-1.1c0.8-0.4,1.6-0.7,2.5-1.2l1.4-1.3
		c0.3-0.5,0.5-0.7,0.6-1c0.9-1.6,1.2-2.2,1.5-2.8c0.6-1.3,1.1-2.5,1.6-3.8c1-2.5,1.8-5.1,2.6-7.7c1.4-5.2,2.4-10.4,3-15.7
		c0.6-5.3,0.7-10.6,0.5-15.9C432.2,201.4,432,198.8,431.6,196.1z"/>
	<path id="XMLID_3_" class="st1" d="M280.6,402.3c-1.9,0.3-3.9,0.5-5.8,0.7c-1.3,0.1-2.6,0.2-3.8,0.2l-0.4,0
		c1.5-3.3,2.6-5.9,3.5-7.9C275.9,397.3,278.1,399.7,280.6,402.3"/>
	<path id="XMLID_4_" class="st2" d="M278.3,252.7c-3,2.5-6.2,4.8-9.6,6.8l-11.1,6.7c-7,0.9-13,2.6-13.4,2.7c-0.2,0-0.4,0.1-0.6,0.2
		c-0.5,0.3-1,0.8-1.2,1.5L231.1,308l-60.6,13.5l-19.1-13.4l-5.5-45c10.8-2,25.3-4.3,42.7-6.2c-1.9,2.2-3.7,4.6-5.4,7l-10.4,14.9
		l15.1-10.1c0.2-0.2,9.8-6.5,25.5-14.2c15.7-1.2,32.9-1.9,51.4-1.9C269.5,252.6,273.9,252.7,278.3,252.7z M184,303.4
		c4.3-2.3,9.2-2,16.8-2c0.8,0,1.7,0,2.5,0c0.8,0,1.5,0,2.3,0c7.8-0.1,14.4,0.7,14.2-11.6c-0.1-12.3-5.6-22.3-13.4-22.2
		c-7.8,0.1-15.4,10.2-15,22.5c0.1,3.2,0.6,5.5,1.4,7.2C186,298.9,184.1,303.1,184,303.4z"/>
	<path id="XMLID_7_" class="st2" d="M383.3,263l-5.5,38.2l-19.2,13.5l-60.5-6.9l-11.3-37.2c-0.3-0.8-0.9-1.5-1.7-1.7
		c-0.4-0.1-7.9-2.3-15.8-2.9l1.5-0.1c1.3-0.1,22.1-2.6,47-11.2C345.3,256.8,367.9,260.2,383.3,263z M344.6,298.3
		c-0.1-0.3-1.7-5.2-9-4.4c0.8-1.8,1.2-4.3,0.9-7.7c-1-12.3-8.1-22-15.9-21.8c-7.8,0.3-12.9,10.5-12.4,22.8
		c0.4,12.3,7,12.2,14.8,11.9C333.5,299,339.3,295.8,344.6,298.3z"/>
	<path id="XMLID_10_" class="st3" d="M323.9,276.2c0,2.2-1.7,4-3.9,4.1c-2.2,0-4-1.7-4.1-3.9c0-2.2,1.7-4,3.9-4.1
		C322.1,272.3,323.9,274,323.9,276.2"/>
	<path id="XMLID_11_" class="st3" d="M211.6,279.2c0.1,2.2-1.7,4-3.9,4.1c-2.2,0.1-4.1-1.7-4.1-3.9c-0.1-2.2,1.7-4.1,3.9-4.1
		C209.7,275.2,211.6,277,211.6,279.2"/>
	<path id="XMLID_12_" class="st1" d="M409.7,279.8c-0.9-0.8-4.1-2.6-7.2-4.3l-5.1,35.5c-0.1,0.7-0.5,1.3-1.1,1.7l-7.3,5.1
		c-0.2,0.9-0.3,1.6-0.4,2.2c7.1,1.8,14-3.4,17.9-7.1c1.8-7,3.4-15.3,3.9-21.3C411.3,282.5,410.6,280.5,409.7,279.8"/>
	<path id="XMLID_13_" class="st1" d="M297.6,414.8c-4.7-1.7-9-4.4-12.8-8.1c-0.3-0.3-0.6-0.6-0.9-0.9c-2.9,0.6-5.9,1-8.9,1.3
		c-1.3,0.1-2.5,0.2-3.8,0.2l-2,0l-0.8,0c-4.5,6.7-12.1,10.4-18,12.3C268.1,422.5,287.5,417.9,297.6,414.8"/>
	<path id="XMLID_14_" class="st1" d="M142.7,327.7c-0.2-0.5-0.3-1.1-0.5-1.6l-9.4-6.6c-0.6-0.4-1-1.1-1.1-1.8l-4.6-37.3
		c-3.4,1.8-7.3,4.1-8.4,4.9c-0.9,0.8-1.6,2.7-0.6,11.6c0.7,6.7,3.1,17,5.5,24.6C128.4,325.2,135.4,329.1,142.7,327.7"/>
	<path id="XMLID_15_" class="st1" d="M283.6,326c-1-0.1-1.8-0.8-2.1-1.8l-11.6-38.3c-2-0.3-3.7-0.4-5.1-0.4c-1.5,0-3.2,0.1-5.1,0.4
		l-11.3,37.2c-0.3,0.9-1,1.5-1.9,1.7l-5.4,1.2c-0.5,1.9-2,4.7-7,6.2c-8.1,2.5-59.3,17.7-65.1,16.9c-3.4-0.5-9.9-4.1-14.7-7
		c-1.9-4.5-3-7.6-3.2-8.3v0l0,0c0.7,2,7.4,21.2,20.9,40c14.6-4.3,27.1-8.3,31.1-9.6c8.2-12.6,19.8-25.1,28.1-25.6
		c1.4-0.1,2.9-0.1,4.4-0.1c4.1,0,7.9,0.3,11.5,0.7c-3.1-2.8-3.7-6-4.1-7.5c0,0,10.6,8.3,24,6.5c13.5-1.7,21.8-9.5,21.8-9.5l0.3-2.4
		L283.6,326"/>
	<path id="XMLID_16_" class="st1" d="M294.5,330.9c-2.8-0.7-4.5-1.9-5.7-3.1l-0.1,1.2c0,0,0,5.7-5.9,10c11.3-3.4,15.9-4.6,19.1-4.6
		c3.5,0,5.3,1.5,6.8,2.8c0.3,0.2,0.6,0.5,0.9,0.8c8.7,6.8,19.1,15.1,22.2,17.6c3.5,0.4,14.7,1.7,21.8,2.3c4.1,0.4,7.7,0.7,11.3,0.7
		c1.2,0,2.2,0,3.3-0.1c3.7-7.1,7.1-15,10.2-23.7c-4.2,2.9-13.7,9.3-18.1,10.2C354.5,346,302.7,333,294.5,330.9"/>
	<path id="XMLID_17_" class="st4" d="M424.9,196.9c-0.1-1.2-0.2-2.5-0.4-3.7c-0.1-0.9-0.2-1.8-0.4-2.6c-3.3-2.8-7-5.2-10.9-7.4
		c-4.2-2.5-8.6-4.7-13.1-6.7c-4.4-2.1-9-4-13.6-5.9c-2.3-0.9-4.6-1.8-6.9-2.7c-2.3-0.9-4.6-1.7-7-2.6c4.9,0.8,9.8,1.9,14.6,3.2
		c3.1,0.8,6.3,1.7,9.4,2.7c-22.1-57.8-75-95.4-132.7-95.4c-57.7,0-110.5,37.6-132.6,95.4c3.1-1,6.2-1.9,9.4-2.7
		c4.8-1.2,9.7-2.4,14.6-3.2c-2.4,0.9-4.7,1.7-7,2.6c-2.3,0.9-4.6,1.8-6.9,2.7c-4.6,1.9-9.2,3.8-13.6,5.9c-4.5,2-8.9,4.2-13.1,6.7
		c-3.9,2.2-7.6,4.7-10.9,7.4c-0.1,0.8-0.3,1.7-0.4,2.6c-0.1,1.2-0.3,2.4-0.4,3.7c-0.2,2.5-0.3,4.9-0.3,7.4c-0.1,5,0.3,9.9,0.9,14.8
		c0.7,4.9,1.6,9.8,2.9,14.5c0.7,2.4,1.4,4.7,2.3,6.9c0.4,1.1,0.9,2.2,1.4,3.3c0.2,0.5,0.5,1.1,0.8,1.6l0.3,0.6
		c0.4,0.2,0.7,0.4,1.1,0.5l2.2,1c1.2,0.6,2.9,1.4,4.3,2l0.2-0.2l-4.1-15.5c0.9-0.2,8.6-2.2,22-4.8c-1.1-0.2-2.2-0.4-3.2-0.7
		c-3-0.8-6-1.7-8.9-2.9c-1.4-0.6-2.9-1.3-4.2-2c-1.4-0.8-2.7-1.7-3.7-2.8c14.7,4.8,45,2.6,71.9-0.2c24.6-2.5,49.3-4.2,74.2-4.2
		c24.8,0.1,49.5,1.7,74.1,4.2c26.9,2.8,57.3,5,71.9,0.2c-1,1.2-2.4,2-3.7,2.8c-1.4,0.8-2.8,1.4-4.2,2c-2.9,1.2-5.9,2.1-8.9,2.9
		c-0.5,0.1-0.9,0.2-1.4,0.3c14.6,2.7,23.2,4.9,24.1,5.2l-3.9,14.8c0.8-0.3,1.6-0.7,2.4-1l2.2-1c0.4-0.2,0.7-0.4,1.1-0.5l0.3-0.6
		c0.3-0.5,0.5-1,0.8-1.6c0.5-1.1,1-2.2,1.4-3.3c0.9-2.3,1.6-4.6,2.3-6.9c1.3-4.7,2.2-9.6,2.9-14.5c0.6-4.9,1-9.8,0.9-14.8
		C425.2,201.8,425.1,199.4,424.9,196.9"/>
	<path id="XMLID_18_" class="st5" d="M324.7,168.2c0.2,6.6,0.1,18.6-3,29.8c-0.1,0.4-0.1,0.9,0,1.3c-3.9-0.4-7.8-0.8-11.8-1.1
		c4.4-9.2,5.4-19,5.6-22.5C318.9,173.3,322.2,170.4,324.7,168.2"/>
	<path id="XMLID_19_" class="st5" d="M212.5,175.7c0.2,3.5,1.2,13.3,5.6,22.5c-3.9,0.3-7.8,0.7-11.8,1.1c0.1-0.4,0.1-0.8,0-1.3
		c-3.1-11.2-3.2-23.2-3-29.8C205.8,170.4,209.1,173.3,212.5,175.7"/>
	<path id="XMLID_20_" class="st5" d="M372.9,208.4l-0.1,0.3c0.4,0.1,0.9,0.3,1.3,0.4c3.6,1.2,7.3,2.4,10.7,4
		c-5.8-3.8-9.5-14.6-11.5-22.9C373.9,201.1,372.9,208,372.9,208.4"/>
	<path id="XMLID_21_" class="st5" d="M198.5,166.1L161,176.7c-2.2,14.6-1.6,25.7-1.2,29.5l0.2-0.1c0,0,1.2-15.9,3.7-22
		c1.3-3.1,9.1-5.1,15.1-6.5c6-1.4,15.5-4.3,17.4,4.1c1.1,5.2,2.7,9.5,4.2,12.7C198,182.9,198.2,171.6,198.5,166.1"/>
	<path id="XMLID_22_" class="st5" d="M329.5,166.1c0.3,5.8,0.4,17.8-2.3,29.8c1.7-3.3,3.6-8.1,4.9-14c1.9-8.4,11.4-5.6,17.4-4.1
		c6,1.4,13.8,3.4,15.1,6.5c2.1,5.2,3.3,17.3,3.6,20.9c0.4-4.6,0.7-15.1-1.3-28.4L329.5,166.1"/>
	<path id="XMLID_23_" class="st5" d="M212.2,169.3c1.3,1.1,2.7,2.1,4.1,3c0.7,0.5,1.1,1.2,1.1,2c0,0.1,0.3,12.5,5.7,23
		c0.1,0.2,0.1,0.3,0.2,0.5c13.6-0.9,27.2-1.3,40.7-1.3c13.6,0,27.2,0.4,40.7,1.3c0.1-0.2,0.1-0.4,0.2-0.5c5.4-10.5,5.7-22.8,5.7-23
		c0-0.8,0.4-1.5,1.1-2c1.3-0.9,2.6-1.9,3.9-2.9l0.2-0.5c2.8-27.6-2.4-53-5.7-65.6c-0.2,8.6-2.2,82.2-20.5,82.2h-23.3h-3.9h-23.3
		c-19.4,0-21-83-21-83l-1,2.9C214,118.7,209.5,143.1,212.2,169.3"/>
	<path id="XMLID_24_" class="st5" d="M155.2,208.7l-0.1-0.3c-0.1-0.4-1-7.3-0.4-18.2c-2,8.3-5.7,19.2-11.5,22.9
		c3.5-1.6,7.1-2.9,10.7-4C154.3,209,154.8,208.9,155.2,208.7"/>
	<path id="XMLID_25_" class="st6" d="M388.7,320.1c-0.3,1.6-0.6,2.9-1.1,4.9c4.2,1,11,1.7,14.2,1.1c1.4-1.5,3.2-6.8,4.8-13.1
		C402.7,316.7,395.8,321.8,388.7,320.1"/>
	<path id="XMLID_26_" class="st6" d="M239.7,421.9c9.9,2.7,20.1,3.9,30.1,3.2c10-0.7,23-2.8,36.9-8.5c-3.1-0.2-6.1-0.9-8.9-1.9
		c-10.2,3.1-29.5,7.7-47.1,4.7c-4.7,1.5-8.3,2-8.7,2.1C241.1,421.6,240.5,421.7,239.7,421.9"/>
	<path id="XMLID_27_" class="st6" d="M143.3,330c-0.2-0.7-0.4-1.5-0.7-2.2c-7.3,1.3-14.3-2.5-19.1-6.2c1.5,4.9,3.1,8.8,4.3,10
		C131.5,332.2,139.4,331.1,143.3,330"/>
	<path id="XMLID_28_" class="st6" d="M154.1,342.3c4.8,2.9,11.3,6.5,14.7,7c5.8,0.8,57-14.4,65.1-16.9c5-1.5,6.6-4.3,7-6.2
		l-73.9,16.4c-0.2,0-0.4,0.1-0.6,0.1h0h0c-0.5,0-1-0.2-1.5-0.5l-2.9-2l-8.6-6v0l-3.5-2.4c0.1,0.2,0.1,0.4,0.2,0.6
		c0.2,0.6,0.4,1.2,0.6,1.7v0C151.1,334.7,152.2,337.8,154.1,342.3"/>
	<path id="XMLID_29_" class="st6" d="M380.6,328.1c0.5-1.7,0.9-3.5,1.4-5.3l-2.6,1.8l-6.9,4.8l-7.5,5.2c-0.4,0.3-0.8,0.4-1.3,0.5
		c-0.2,0-0.3,0-0.5,0l-74.4-8.5l-0.1,1.2c1.1,1.2,2.9,2.4,5.7,3.1c8.2,2.1,60,15.1,65.8,14.1c4.5-0.8,14-7.2,18.1-10.2l0.1-0.3
		c0.3-0.9,0.6-1.9,1-2.8C379.9,330.5,380.3,329.3,380.6,328.1"/>
	<path id="XMLID_30_" class="st7" d="M302,227.9c-0.6,0.8-1.2,1.6-1.9,2.5c-3.5,4.5-8.4,10.2-14.2,15.7c-6.8-0.2-13.7-0.3-20.8-0.3
		c-11.8,0-23.1,0.3-33.8,0.8c15.2-6.3,33.4-12.4,53.1-16.1C290.1,229.4,296,228.5,302,227.9"/>
	<path id="XMLID_31_" class="st7" d="M213.2,234.7c-5.4,3.8-11.5,8.7-17.5,14.5c-15.2,1.5-28.4,3.4-39.4,5.1
		C173.2,246.6,192.3,239.5,213.2,234.7"/>
	<path id="XMLID_32_" class="st7" d="M398.7,266l-6.2,43.2L362.9,330l-77.2-8.8l-11.6-38.3c-0.3-0.9-1.1-1.6-2-1.8
		c-2.9-0.5-5.4-0.7-7.5-0.7c-2.1,0-4.6,0.2-7.5,0.7c-0.9,0.2-1.7,0.8-2,1.8l-11.3,37.3L167,337.3L136.6,316l-6-48.5
		c1.3-0.7,2.6-1.5,4-2.2c1.9-0.4,4-0.8,6.3-1.3l5.6,45.8c0.1,0.7,0.5,1.3,1.1,1.8l20.9,14.7c0.4,0.3,0.9,0.5,1.4,0.5
		c0.2,0,0.4,0,0.6-0.1l63.1-14c0.2-0.1,0.4-0.1,0.6-0.2c0.6-0.3,1-0.8,1.2-1.5l11.4-37.4c3-0.8,10.9-2.6,17.7-2.6
		c6.8,0,14.7,1.8,17.7,2.6l11.4,37.4c0.3,1,1.1,1.7,2.1,1.8l63.1,7.2c0.6,0.1,1.2-0.1,1.7-0.4l20.9-14.6c0.6-0.4,1-1,1-1.7l5.6-39.1
		C392.4,264.7,395.9,265.4,398.7,266"/>
	<path id="XMLID_33_" class="st7" d="M406.5,238.9l-5.4,20.6c-11.1-2.5-35.5-7.3-68.7-10.5c10.8-4.6,21.9-10.4,32-17.7
		C384.1,234.1,398.6,237.1,406.5,238.9"/>
	<path id="XMLID_34_" class="st7" d="M123.5,238.9l1.5,5.7c4.2-3.4,8.1-6.2,11.4-8.4C131.1,237.3,126.7,238.2,123.5,238.9"/>
	<path id="XMLID_35_" class="st8" d="M336.6,227.4c-8.3-0.5-16.6-0.9-24.9-1.2c-0.5,0.7-1.5,2.1-2.9,4.1c-4.5,6-13.2,17-24.5,26.5
		c8.5-2.7,42.1-14,59.1-28.9C341.1,227.7,338.8,227.6,336.6,227.4"/>
	<path id="XMLID_36_" class="st8" d="M275.6,225.2L275.6,225.2c-4.2-0.1-8.4-0.1-12.6-0.1h0c-6.2,0-12.4,0.1-18.6,0.2l-11.4,5.4
		l-0.2,0.1c-1.7,0.8-16.7,8.4-30.9,21.9c1.2-0.7,2.5-1.3,3.9-2c7.7-5.2,28.4-17.5,60.4-25.6C269.4,225.2,272.5,225.2,275.6,225.2"/>
	<path id="XMLID_37_" class="st8" d="M205.3,226.6c-5.3,0.2-10.6,0.5-15.9,0.8c-6.1,0.3-12.3,0.8-18.4,1.2c-3,0.2-6.1,0.5-9.1,0.8
		c-0.9,0.1-1.7,0.2-2.6,0.3c-8,4.8-38.6,24-59.6,49.1c0.4-0.4,0.7-0.9,1.1-1.3C139.8,244.4,182.4,231.5,205.3,226.6"/>
	<path id="XMLID_38_" class="st8" d="M381.2,363c-0.2,0.1-0.5,0.2-0.7,0.4c-3.9,2-9,3.1-15.6,3.1c-3.9,0-7.8-0.3-12.1-0.7
		c-8.5-0.8-23-2.5-23.1-2.5l-1.1-0.1l-0.9-0.7c-0.1-0.1-12.8-10.2-23-18.2c-0.4-0.3-0.8-0.7-1.1-0.9c-1.1-0.9-1.1-0.9-1.7-0.9
		c-3.3,0-12.8,3-33.7,9.4l-1.3,0.4l-1.3-0.5c-0.1,0-13.8-5.1-30.3-5.1c-1.3,0-2.7,0-4,0.1c-1.6,0.1-10.9,4.5-22.7,23.1L208,371
		l-1.4,0.4c-0.2,0.1-20.5,6.6-42.1,12.8l-1.4,0.4l-1.3-0.6c-0.1,0-8.6-4-16.6-7.6c0.6,0.3,1.2,0.5,1.8,0.8
		c7.9,6.8,23.1,20,24.8,21.8c0.2,0.3,0.6,0.6,0.9,0.9c-0.4-0.4-0.8-0.9-1.1-1.4l0,0l0,0l0,0c3.5,3.3,7.4,6.2,11.6,8.2
		c2.1,1,4.4,1.8,6.6,2.1c1.1,0.2,2.3,0.3,3.4,0.3c1.2,0,2.4,0,3.6-0.1c4.7-0.2,9.5-0.6,14.3-1.1c4.8-0.4,9.5-0.9,14.3-1.5
		c4.8-0.5,9.5-1.1,14.2-1.8c2.4-0.3,4.7-0.7,7-1.2c1.1-0.3,2.3-0.6,3.2-1c0.8-0.4,1.8-1.2,2.7-1.9c1.8-1.5,3.5-3.2,5.2-4.9
		c1.7-1.7,3.4-3.4,5-5.2c2.8-2.9,5.2-6,7.9-9c0.3-0.4,0.7-0.8,1.1-1.2l0,0l0,0c0.6,0.4,1.1,0.8,1.7,1.2c3.3,2.4,6.6,5,9.8,7.3
		c4.2,2.9,8.4,5.9,12.8,8.3c1.1,0.6,2.2,1.2,3.3,1.5c0.1,0.1,0.3,0.1,0.4,0.1l0.4,0.1c0.2,0,0.5,0,0.8,0.1c0.6,0,1.2,0,1.8,0
		c2.5-0.2,5-0.5,7.5-0.9c5-0.8,10-1.7,15-2.7c5-1,10-2,14.9-3.1c5-1.1,9.9-2.2,14.9-3.5c2.4-0.7,4.9-1.3,7.1-2.3
		c2.2-1,4.3-2.5,6.2-4.1c3.8-3.3,7.1-7.3,9.8-11.8l0,0C379.5,367.6,380.6,364.9,381.2,363"/>
	<polyline id="XMLID_39_" class="st8" points="288,128.1 296.8,128.1 296.8,110.2 232.5,110.2 232.5,128.1 241.3,128.1 241.3,119 
		259.5,119 259.5,174.2 252,174.2 252,184.4 277.3,184.4 277.3,174.2 269.9,174.2 269.9,119 288,119 288,128.1 	"/>
	<path id="XMLID_40_" class="st9" d="M354.6,228.6L354.6,228.6c-3.7-0.3-7.3-0.5-11-0.8l-0.2,0c-17,14.9-50.7,26.2-59.1,28.9
		c-0.2,0.1-0.3,0.3-0.5,0.4c10.9-2,27.2-5.9,44.1-13.4c8.3-3.7,16.8-8.2,24.8-13.9C353.4,229.5,354,229.1,354.6,228.6"/>
	<path id="XMLID_41_" class="st9" d="M266.3,225.1c-32.1,8.1-52.7,20.4-60.4,25.6c6.2-3.2,13.5-6.6,21.8-10.1l0.1-0.1
		c0.8-0.3,1.7-0.7,2.6-1.1c0.3-0.1,0.6-0.2,0.8-0.3c0.7-0.3,1.5-0.6,2.2-0.9c0.4-0.2,0.8-0.3,1.3-0.5c0.7-0.3,1.4-0.5,2.1-0.8
		c0.5-0.2,1-0.4,1.6-0.6c0.6-0.2,1.3-0.5,1.9-0.7c0.6-0.2,1.2-0.4,1.8-0.7c0.6-0.2,1.2-0.4,1.8-0.6c0.7-0.2,1.4-0.5,2.1-0.7
		c0.5-0.2,1.1-0.4,1.6-0.6c0.8-0.3,1.6-0.5,2.4-0.8c0.5-0.1,0.9-0.3,1.3-0.4c1.3-0.4,2.6-0.8,3.9-1.2c2.8-0.9,5.8-1.7,8.7-2.5
		c3.9-1,7.8-2,11.8-2.9C272.5,225.2,269.4,225.2,266.3,225.1"/>
	<path id="XMLID_42_" class="st9" d="M205.3,226.6c-22.9,4.8-65.5,17.7-104.4,50.9c-0.4,0.4-0.7,0.9-1.1,1.3
		c19.8-13.7,53.7-34.2,95.7-46.6c1.4-0.4,2.7-0.8,4.1-1.2c7-2,14.2-3.7,21.5-5.1C215.9,226.2,210.6,226.4,205.3,226.6"/>
	<path id="XMLID_43_" class="st9" d="M388.8,359.4c-0.1,0.1-0.3,0.1-0.4,0.2c-0.3,0.1-0.5,0.3-0.8,0.4c-0.2,0.1-0.4,0.2-0.6,0.3
		c-0.2,0.1-0.3,0.2-0.5,0.2c-0.3,0.1-0.5,0.3-0.8,0.4l-0.3,0.2c-0.3,0.1-0.6,0.3-0.9,0.4l-0.2,0.1c-0.3,0.2-0.6,0.3-0.9,0.5l-0.1,0
		c-0.7,0.3-1.3,0.7-1.9,1c-0.6,1.8-1.7,4.6-3.4,7.6l0,0l0,0l0,0c-2.7,4.4-5.9,8.5-9.7,11.7c-1.9,1.6-4,3.1-6.2,4.1
		c-2.2,1-4.6,1.7-7.1,2.3c-4.9,1.2-9.9,2.4-14.9,3.5c-5,1.1-9.9,2.1-14.9,3.1c-5,1-10,1.9-15,2.7c-2.5,0.4-5,0.8-7.5,0.9
		c-0.6,0-1.2,0.1-1.8,0c-0.3,0-0.6,0-0.8-0.1l-0.4-0.1c-0.1,0-0.2,0-0.4-0.1c-1.1-0.4-2.2-0.9-3.3-1.5c-4.4-2.4-8.6-5.4-12.8-8.3
		c-3.2-2.3-6.6-4.9-9.8-7.3L273,382l0,0c0.2,0.2,0.4,0.4,0.6,0.5l0,0c-0.1-0.1-0.3-0.2-0.4-0.3l2.7,3.2c0,0,0.1,0.1,0.3,0.4
		c1.4,1.6,7.2,8.4,14.1,15.2c5.3,5.2,11.6,7.8,18.9,7.8c2.5,0,5.1-0.3,7.7-1c2.4-0.6,5.1-1.2,7.8-1.9c8.1-1.9,17-4.1,22.9-5.6
		c0.4-0.1,0.8-0.2,1.1-0.3c0.8-0.2,1.6-0.4,2.3-0.6c1.1-0.3,2.2-0.6,3.5-0.9c7.2-1.7,17-4,22.2-14.4c1.4-2.9,3.1-6.1,4.7-9.3
		c2.3-4.5,4.7-9.2,6.9-13.3c0.3-0.7,0.7-1.3,1-1.9l0,0c0.2-0.3,0.4-0.7,0.5-1C389.6,359,389.2,359.2,388.8,359.4"/>
	<path id="XMLID_44_" class="st9" d="M271,381.9l-0.5-0.4c-2.7,3-5.1,6.1-7.9,9c-1.7,1.8-3.3,3.5-5,5.2c-1.7,1.7-3.4,3.4-5.2,4.9
		c-0.9,0.7-1.9,1.5-2.7,1.9c-0.9,0.4-2.1,0.7-3.2,1c-2.3,0.5-4.6,0.9-7,1.2c-4.7,0.7-9.5,1.3-14.2,1.8c-4.8,0.6-9.5,1.1-14.3,1.5
		c-4.8,0.5-9.5,0.8-14.3,1.1c-1.2,0.1-2.4,0.1-3.6,0.1c-1.2,0-2.3-0.1-3.4-0.3c-2.3-0.4-4.5-1.2-6.6-2.1c-4.3-2-8.2-4.9-11.6-8.2
		l0,0c0.5,0.6,1,1.1,1.5,1.7l-0.3-0.3c-0.4-0.4-0.7-0.7-0.9-0.9c-1.7-1.8-16.8-15-24.8-21.8c-0.6-0.3-1.2-0.5-1.8-0.8
		c1.4,2.1,2.9,4.3,4.5,6.6c2.3,3.3,4.8,6.8,7.1,10c1.1,1.5,2.2,2.9,3.2,4.2c8.6,11.1,19.4,21.3,40.2,21.3c2.6,0,5.4-0.2,8.2-0.5
		c0.7-0.1,1.3-0.1,1.9-0.2c0.6-0.1,1.2-0.1,1.8-0.2c18.1-2.1,23-3,25.8-3.4c0.7-0.1,1.3-0.2,2-0.3c0.3,0,0.5-0.1,0.8-0.1
		c0.1,0,6.2-0.8,12.2-3.7c4.1-2,8.2-5,10.1-9.4c5-11.2,6-13.9,6.1-14L271,381.9"/>
	<path id="XMLID_45_" class="st0" d="M320,280.3c2.2,0,4-1.9,3.9-4.1c0-2.2-1.9-4-4.1-3.9c-2.2,0-4,1.9-3.9,4.1
		C315.9,278.6,317.8,280.4,320,280.3z M344.6,298.3c-5.3-2.6-11.1,0.7-21.6,0.9c-7.8,0.3-14.4,0.4-14.8-11.9
		c-0.4-12.3,4.6-22.5,12.4-22.8c7.8-0.3,15,9.5,15.9,21.8c0.3,3.4-0.1,5.9-0.9,7.7C342.9,293.1,344.5,298,344.6,298.3z"/>
	<path id="XMLID_48_" class="st0" d="M207.8,283.3c2.2-0.1,3.9-1.9,3.9-4.1c-0.1-2.2-1.9-4-4.1-3.9c-2.2,0-4,1.9-3.9,4.1
		C203.7,281.6,205.5,283.3,207.8,283.3z M219.9,289.7c0.1,12.3-6.4,11.6-14.2,11.6c-0.8,0-1.5,0-2.3,0c-0.9,0-1.7,0-2.5,0
		c-7.6,0-12.5-0.4-16.8,2c0.1-0.3,2-4.5,8.8-6.2c-0.8-1.7-1.2-4-1.4-7.2c-0.5-12.3,7.1-22.4,15-22.5
		C214.3,267.5,219.7,277.4,219.9,289.7z"/>
	<path id="XMLID_51_" class="st0" d="M368.3,205.1c-0.1,1.1-0.2,1.9-0.2,2.3c-3.1-0.8-6.2-1.6-9.4-2.3c-10.4-2.3-20.8-4-31.4-5.2
		c-0.4,0-0.7-0.1-1.1-0.1c0.1-0.2,0.1-0.3,0.2-0.5c0.3-1.1,0.6-2.3,0.9-3.5c2.7-12,2.6-24,2.3-29.8l37.4,10.6
		C369,190,368.6,200.5,368.3,205.1z M321.7,198c-0.1,0.4-0.1,0.9,0,1.3c-3.9-0.4-7.8-0.8-11.8-1.1c4.4-9.2,5.4-19,5.6-22.5
		c3.4-2.4,6.7-5.3,9.2-7.5C324.9,174.8,324.8,186.8,321.7,198z M206.3,199.2c0.1-0.4,0.1-0.8,0-1.3c-3.1-11.2-3.2-23.2-3-29.8
		c2.5,2.2,5.8,5.1,9.2,7.5c0.2,3.5,1.2,13.3,5.6,22.5C214.1,198.5,210.2,198.8,206.3,199.2z M200.7,199.9
		c-5.3,0.6-10.5,1.3-15.7,2.2c-5.2,0.9-10.4,1.8-15.6,3c-3.1,0.7-6.2,1.5-9.4,2.3c0-0.2-0.1-0.6-0.1-1.1c-0.4-3.9-1-15,1.2-29.5
		l37.4-10.6c-0.3,5.6-0.4,16.9,2,28.4c0.3,1.6,0.7,3.2,1.2,4.8c0,0.2,0.1,0.3,0.2,0.5C201.4,199.8,201,199.8,200.7,199.9z
		 M388.3,215c-0.3-0.2-0.6-0.3-0.9-0.5c-0.5-0.2-1-0.5-1.6-0.8l-0.1,0c-0.3-0.2-0.7-0.4-1-0.6c-3.5-1.6-7.1-2.8-10.7-4
		c-0.4-0.1-0.9-0.3-1.3-0.4l0.1-0.3c0.1-0.4,1-7.3,0.4-18.2c-0.2-4.6-0.8-10-1.7-15.9c-0.2-0.9-0.8-1.7-1.7-2l-5.3-1.5
		c-1.1-41.3-18.2-60.7-18.7-61.3c15.2,24.5,15.1,53.4,14.8,60.2l-33.1-9.4l-0.1,0c-0.1,0-0.3,0-0.4-0.1l-0.1,0c-0.2,0-0.4,0-0.5,0
		l-0.1,0c-0.1,0-0.3,0.1-0.4,0.1l-0.1,0.1l-0.3,0.2l-0.1,0.1l-0.1,0.1l-0.1,0.1c0,0-0.9,0.9-2.3,2.2c0.1-3.1,0.1-7.8-0.2-13.6
		c0-0.5-0.1-1.1-0.1-1.7c-1-14.5-4.5-34.9-14.7-52.8c0.1,0.3,1.1,3.2,2.4,8.2c3.3,12.6,8.5,38,5.7,65.6l0,0.4l-0.1,0.1
		c-1.3,1-2.6,2-3.9,2.9c-0.7,0.5-1.1,1.2-1.1,2c0,0.1-0.3,12.5-5.7,23c-0.1,0.2-0.1,0.3-0.2,0.5c-13.5-0.9-27.1-1.3-40.7-1.3
		c-13.6,0-27.2,0.4-40.7,1.3c-0.1-0.2-0.1-0.3-0.2-0.5c-5.5-10.5-5.7-22.8-5.7-23c0-0.8-0.4-1.5-1.1-2c-1.4-0.9-2.7-2-4.1-3
		c-2.8-26.2,1.8-50.6,5.1-63.8c1.6-6.3,2.9-10.1,3-10.4c-14.9,25.9-15.4,57.2-15.1,68.1c-1.4-1.3-2.3-2.2-2.3-2.2l-0.1-0.1l-0.1-0.1
		l-0.1-0.1l-0.3-0.2l-0.2-0.1c-0.1-0.1-0.3-0.1-0.4-0.1l-0.1,0c-0.2,0-0.4-0.1-0.5,0l-0.1,0c-0.1,0-0.3,0-0.4,0.1l-0.1,0l-33.1,9.4
		c-0.3-6.8-0.4-35.8,14.8-60.2c-0.5,0.6-17.5,20-18.7,61.3l-5.3,1.5c-0.9,0.3-1.6,1-1.8,2c-1,5.9-1.5,11.2-1.7,15.9
		c-0.6,10.9,0.4,17.8,0.4,18.2l0.1,0.3c-0.4,0.1-0.9,0.3-1.3,0.4c-3.6,1.2-7.3,2.4-10.7,4c-0.3,0.2-0.6,0.4-1,0.6l-0.1,0
		c-0.6,0.3-1.1,0.5-1.6,0.8c-0.3,0.1-0.5,0.3-0.8,0.4c-0.2,0.1-0.3,0.2-0.5,0.3c2.5-1,5-1.7,7.5-2.3c2.5-0.6,5.1-1.2,7.7-1.7
		c5.2-1,10.3-1.8,15.5-2.4c5.2-0.7,10.4-1.2,15.6-1.7c5.2-0.4,10.4-0.9,15.6-1.2c20.9-1.2,41.8-1.6,62.8-1.6c21,0,41.9,0.3,62.8,1.6
		c5.2,0.3,10.4,0.7,15.7,1.2c5.2,0.4,10.4,1,15.6,1.7c5.2,0.6,10.4,1.5,15.5,2.4c2.6,0.5,5.1,1,7.7,1.7c2.6,0.6,5.1,1.3,7.5,2.3
		C388.6,215.1,388.5,215.1,388.3,215z"/>
	<path id="XMLID_57_" class="st0" d="M269.9,119v55.2h7.5v10.2H252v-10.2h7.5V119h-18.2v9.1h-8.8v-17.9h64.3v17.9H288V119L269.9,119
		L269.9,119z M303.5,134.7v-31.1h-77.5v31.1h22v-9.1h4.9v41.9h-7.5V191H284v-23.4h-7.5v-41.9h5v9.1H303.5z"/>
</g>
</svg>
