<svg width="32" height="27" viewBox="0 0 32 27" fill="none" xmlns="http://www.w3.org/2000/svg">
<path d="M31.5941 3.1015C30.4316 3.62752 29.1824 3.98303 27.8712 4.14297C29.2096 3.3244 30.2373 2.02816 30.7212 0.483711C29.4489 1.25416 28.0568 1.79698 26.6052 2.08874C25.4228 0.803331 23.7383 0 21.8739 0C18.2941 0 15.3918 2.96146 15.3918 6.61404C15.3918 7.13251 15.4492 7.63725 15.5596 8.12146C10.1726 7.84554 5.39642 5.2124 2.19937 1.21073C1.64154 2.18759 1.32189 3.32389 1.32189 4.53588C1.32189 6.83064 2.46632 8.85503 4.20547 10.0412C3.17613 10.0083 2.16944 9.72461 1.26944 9.21381C1.26907 9.24152 1.26907 9.26922 1.26907 9.29706C1.26907 12.5017 3.50337 15.175 6.46853 15.7826C5.51402 16.0475 4.51281 16.0863 3.54138 15.896C4.36616 18.5237 6.76003 20.4359 9.59634 20.4894C7.37797 22.2633 4.583 23.3208 1.54626 23.3208C1.02298 23.3208 0.50711 23.2894 0 23.2283C2.86852 25.105 6.27563 26.2 9.9361 26.2C21.8588 26.2 28.3784 16.1214 28.3784 7.3811C28.3784 7.09422 28.3723 6.80898 28.3597 6.52538C29.6287 5.5893 30.7239 4.42986 31.5941 3.1015Z" fill="#55ACEE"/>
</svg>
