<svg width="159" height="153" viewBox="0 0 159 153" fill="none" xmlns="http://www.w3.org/2000/svg">
<path opacity="0.7" d="M49.784 9.32573C49.784 9.32573 22.7658 23.1621 9.29052 44.4628C-4.18471 65.7635 -3.11853 93.1747 13.2557 113.512C29.63 133.849 60.9272 131.184 87.1324 144.072C113.338 156.959 142.249 154.308 154.64 127.001C167.032 99.6935 148.347 89.4962 145.138 57.9051C141.928 26.314 113.569 -19.9731 49.784 9.32573Z" fill="#D8C6E0"/>
<path d="M16.0968 139.971C16.0968 139.971 6.67346 123.344 8.84698 119.115C11.0205 114.887 16.5806 122.493 16.5806 122.493C16.5806 122.493 11.7462 106.992 14.4071 100.226C17.068 93.4596 21.6533 100.226 21.8775 105.019C22.1016 109.812 20.9134 117.982 20.9134 117.982C20.9134 117.982 22.8451 101.073 27.434 106.145C32.0229 111.216 21.6356 128.13 21.6356 128.13C21.6356 128.13 28.6435 124.198 28.3945 129.259C28.1455 134.32 19.9387 138.842 19.9387 138.842" fill="#92E3A9"/>
<path fill-rule="evenodd" clip-rule="evenodd" d="M23.5655 105.044C23.0187 104.578 22.3075 104.348 21.3773 104.451C19.545 104.652 18.4174 106.191 17.7774 108.51C17.1397 110.821 17.0096 113.836 17.1238 116.841C17.2379 119.842 17.595 122.819 17.924 125.046C18.0884 126.16 18.2457 127.085 18.3618 127.732C18.4199 128.055 18.4677 128.309 18.5009 128.482C18.5175 128.568 18.5305 128.635 18.5393 128.679L18.5493 128.729L18.5519 128.742L18.5526 128.746C18.5527 128.746 18.5527 128.746 18.3739 128.782L18.5526 128.746L18.1996 128.833L18.1991 128.833L18.1988 128.832L18.1977 128.828L18.1929 128.813C18.1886 128.799 18.1821 128.778 18.1734 128.751C18.156 128.697 18.1297 128.618 18.0946 128.518C18.0245 128.319 17.9193 128.037 17.7795 127.71C17.4994 127.055 17.0835 126.226 16.5374 125.514C15.9891 124.8 15.3263 124.225 14.5583 124.04C13.8028 123.858 12.9013 124.044 11.8441 124.943C10.8161 125.818 10.5668 126.958 10.7848 128.209C11.0045 129.468 11.698 130.824 12.5384 132.081C13.3769 133.335 14.3519 134.476 15.1185 135.305C15.5016 135.719 15.832 136.054 16.0664 136.286C16.1836 136.402 16.2767 136.491 16.3404 136.552C16.3523 136.563 16.3631 136.574 16.3729 136.583C16.3894 136.599 16.4029 136.611 16.4132 136.621L16.4318 136.638L16.4374 136.644C16.4375 136.644 16.4377 136.644 16.4096 136.674L16.3133 136.776C16.189 136.908 16.1889 136.908 16.1888 136.908L16.1884 136.908L16.1871 136.907L16.182 136.902L16.1624 136.883C16.1453 136.867 16.1201 136.844 16.0875 136.813C16.0224 136.75 15.9277 136.659 15.8088 136.542C15.5712 136.307 15.237 135.968 14.8497 135.549C14.0757 134.712 13.0872 133.556 12.2344 132.28C11.3835 131.008 10.6578 129.602 10.4254 128.27C10.1915 126.929 10.4573 125.647 11.6066 124.669C12.7267 123.716 13.7449 123.473 14.6443 123.689C15.5311 123.902 16.2583 124.553 16.8278 125.295C17.2537 125.851 17.6008 126.469 17.8684 127.025C17.7761 126.481 17.6711 125.83 17.5631 125.099C17.2331 122.864 16.8741 119.874 16.7593 116.854C16.6447 113.839 16.773 110.78 17.4257 108.415C18.076 106.058 19.2708 104.318 21.3371 104.091C22.3563 103.979 23.1715 104.231 23.8034 104.77C24.4294 105.304 24.8589 106.105 25.1437 107.065C25.7124 108.983 25.7234 111.603 25.4932 114.226C25.2626 116.854 24.7877 119.507 24.3709 121.502C24.1625 122.499 23.9684 123.333 23.8264 123.917C23.8212 123.939 23.8161 123.96 23.811 123.98C23.9549 123.799 24.1229 123.591 24.309 123.367C24.9275 122.625 25.7526 121.707 26.5679 121.02C26.975 120.677 27.387 120.385 27.7752 120.202C28.1593 120.022 28.5502 119.935 28.8966 120.051C29.2534 120.17 29.5064 120.484 29.6549 120.976C29.8027 121.465 29.8564 122.158 29.7998 123.093C29.5713 126.869 26.9477 130.333 24.416 132.837C23.1462 134.092 21.8912 135.114 20.9537 135.823C20.4848 136.177 20.0951 136.453 19.8222 136.64C19.6857 136.734 19.5784 136.806 19.5051 136.854C19.4684 136.878 19.4402 136.897 19.4211 136.909L19.3993 136.923L19.3936 136.927L19.3921 136.928L19.3917 136.928C19.3916 136.928 19.3915 136.928 19.293 136.776C19.1945 136.624 19.1945 136.624 19.1945 136.624L19.196 136.623L19.201 136.62L19.2216 136.607C19.2398 136.595 19.2672 136.577 19.3029 136.553C19.3745 136.506 19.4798 136.436 19.6143 136.343C19.8833 136.158 20.2686 135.886 20.7326 135.535C21.661 134.834 22.903 133.822 24.1584 132.581C26.6769 130.091 29.2157 126.708 29.4358 123.072C29.4913 122.154 29.4354 121.51 29.3055 121.079C29.1762 120.651 28.9835 120.462 28.78 120.394C28.5662 120.322 28.2825 120.364 27.9313 120.529C27.5842 120.692 27.2 120.961 26.8042 121.295C26.0134 121.962 25.2044 122.861 24.5902 123.597C24.2839 123.965 24.0274 124.29 23.8476 124.524C23.7577 124.641 23.687 124.734 23.6389 124.799C23.6148 124.831 23.5964 124.856 23.5841 124.873L23.5701 124.891L23.5667 124.896L23.5659 124.897C23.5658 124.897 23.5656 124.898 23.4178 124.792C23.2416 124.745 23.2416 124.745 23.2416 124.745L23.2426 124.742L23.2456 124.73L23.2576 124.685C23.2681 124.645 23.2836 124.585 23.3036 124.507C23.3435 124.352 23.4012 124.123 23.4718 123.833C23.6131 123.251 23.8062 122.422 24.0138 121.428C24.429 119.441 24.901 116.803 25.1299 114.195C25.3592 111.58 25.3424 109.017 24.7938 107.167C24.5198 106.243 24.1182 105.515 23.5655 105.044ZM23.4178 124.792L23.2416 124.745L22.9881 125.69L23.5656 124.898L23.4178 124.792Z" fill="#263238"/>
<path fill-rule="evenodd" clip-rule="evenodd" d="M14.8658 128.408L20.6931 134.859L20.4347 135.102L14.6074 128.652L14.8658 128.408Z" fill="#263238"/>
<path fill-rule="evenodd" clip-rule="evenodd" d="M21.3023 116.876L19.8087 135.711L19.4766 135.68L20.9701 116.845L21.3023 116.876Z" fill="#263238"/>
<path fill-rule="evenodd" clip-rule="evenodd" d="M24.9529 127.408L19.1776 134.494L18.8672 134.277L24.6424 127.191L24.9529 127.408Z" fill="#263238"/>
<path d="M26.779 133.277H10.3477L11.9901 152.142H25.1366L26.779 133.277Z" fill="#263238"/>
<path d="M132.544 35.3059L113.874 36.4531C112.818 36.518 111.828 36.9822 111.108 37.7496C110.389 38.5171 109.995 39.5289 110.01 40.5754L110.103 47.9969L104.676 48.567L110.146 51.3603C110.154 51.8971 110.268 52.4271 110.484 52.92C110.699 53.4128 111.01 53.8588 111.4 54.2322C111.79 54.6057 112.251 54.8992 112.755 55.0961C113.26 55.2929 113.799 55.3891 114.342 55.3792L132.468 55.0514C133.52 55.0322 134.525 54.6154 135.276 53.8867C136.028 53.158 136.469 52.1724 136.509 51.1322L136.927 39.5315C136.95 38.961 136.851 38.3921 136.637 37.8618C136.424 37.3314 136.1 36.8515 135.686 36.453C135.273 36.0545 134.78 35.7465 134.238 35.5489C133.697 35.3512 133.12 35.2685 132.544 35.3059Z" fill="white"/>
<path d="M117.875 45.3711H115.41V47.3867H118.273V48H114.66V42.3125H118.234V42.9297H115.41V44.7578H117.875V45.3711ZM119.777 43.7734L119.801 44.3047C120.124 43.8984 120.546 43.6953 121.066 43.6953C121.96 43.6953 122.41 44.1992 122.418 45.207V48H121.695V45.2031C121.693 44.8984 121.622 44.6732 121.484 44.5273C121.349 44.3815 121.137 44.3086 120.848 44.3086C120.613 44.3086 120.408 44.3711 120.23 44.4961C120.053 44.6211 119.915 44.7852 119.816 44.9883V48H119.094V43.7734H119.777ZM124.488 42.75V43.7734H125.277V44.332H124.488V46.9531C124.488 47.1224 124.523 47.25 124.594 47.3359C124.664 47.4193 124.784 47.4609 124.953 47.4609C125.036 47.4609 125.151 47.4453 125.297 47.4141V48C125.107 48.0521 124.922 48.0781 124.742 48.0781C124.419 48.0781 124.176 47.9805 124.012 47.7852C123.848 47.5898 123.766 47.3125 123.766 46.9531V44.332H122.996V43.7734H123.766V42.75H124.488ZM127.879 48.0781C127.306 48.0781 126.84 47.8906 126.48 47.5156C126.121 47.138 125.941 46.6341 125.941 46.0039V45.8711C125.941 45.4518 126.021 45.0781 126.18 44.75C126.341 44.4193 126.565 44.1615 126.852 43.9766C127.141 43.7891 127.453 43.6953 127.789 43.6953C128.339 43.6953 128.766 43.8763 129.07 44.2383C129.375 44.6003 129.527 45.1185 129.527 45.793V46.0938H126.664C126.674 46.5104 126.796 46.8477 127.027 47.1055C127.262 47.3607 127.559 47.4883 127.918 47.4883C128.173 47.4883 128.389 47.4362 128.566 47.332C128.743 47.2279 128.898 47.0898 129.031 46.918L129.473 47.2617C129.118 47.806 128.587 48.0781 127.879 48.0781ZM127.789 44.2891C127.497 44.2891 127.253 44.3958 127.055 44.6094C126.857 44.8203 126.734 45.1172 126.688 45.5H128.805V45.4453C128.784 45.0781 128.685 44.7943 128.508 44.5938C128.331 44.3906 128.091 44.2891 127.789 44.2891ZM132.41 44.4219C132.301 44.4036 132.182 44.3945 132.055 44.3945C131.581 44.3945 131.259 44.5964 131.09 45V48H130.367V43.7734H131.07L131.082 44.2617C131.319 43.8841 131.655 43.6953 132.09 43.6953C132.23 43.6953 132.337 43.7135 132.41 43.75V44.4219Z" fill="black"/>
<path fill-rule="evenodd" clip-rule="evenodd" d="M132.377 34.6978C132.975 34.6583 133.574 34.7458 134.136 34.9546C134.698 35.1634 135.21 35.4889 135.639 35.9099C136.068 36.3309 136.404 36.8381 136.626 37.3985C136.847 37.9588 136.95 38.5598 136.926 39.1625C136.926 39.1626 136.926 39.1625 136.926 39.1625L136.51 50.9059L136.51 50.9064C136.469 52.0055 136.011 53.0468 135.231 53.8168C134.451 54.5867 133.409 55.0271 132.317 55.0474L114.294 55.3792C113.731 55.3897 113.171 55.288 112.648 55.08C112.124 54.8721 111.646 54.5619 111.241 54.1673C110.836 53.7728 110.513 53.3016 110.29 52.7808C110.081 52.2934 109.963 51.7716 109.943 51.2417L104.066 48.1868L109.895 47.5635L109.804 40.2148C109.789 39.109 110.198 38.0399 110.944 37.2291C111.691 36.4183 112.718 35.9278 113.814 35.8592L132.377 34.6978C132.377 34.6978 132.378 34.6978 132.377 34.6978ZM132.389 34.8778L132.4 35.0578L113.836 36.2192C112.832 36.282 111.891 36.7314 111.207 37.4744C110.523 38.2173 110.149 39.1968 110.162 40.21L110.257 47.8875L105.293 48.4184L110.297 51.0197L110.298 51.1279C110.305 51.6476 110.414 52.1607 110.619 52.6378C110.823 53.1149 111.119 53.5467 111.49 53.9082C111.861 54.2697 112.299 54.5539 112.779 54.7445C113.259 54.935 113.772 55.0282 114.287 55.0186L132.31 54.6868C133.311 54.6681 134.266 54.2647 134.98 53.5592C135.695 52.8537 136.114 51.8996 136.153 50.8926L136.568 39.1491L136.568 39.1484C136.59 38.5961 136.496 38.0454 136.293 37.532C136.09 37.0186 135.782 36.554 135.389 36.1682C134.996 35.7825 134.527 35.4843 134.012 35.293C133.497 35.1017 132.948 35.0215 132.401 35.0578L132.389 34.8778Z" fill="#263238"/>
<path d="M54.7715 44.3625L47.4695 42.3632L49.1187 31.3958C49.1967 30.8759 49.1576 30.3448 49.0043 29.8424C48.851 29.34 48.5876 28.8793 48.2336 28.4946C47.8797 28.11 47.4445 27.8115 46.9605 27.6214C46.4766 27.4314 45.9565 27.3547 45.4392 27.3971L29.9339 28.6963C29.4843 28.7332 29.0463 28.8595 28.645 29.0679C28.2436 29.2763 27.8867 29.5628 27.5946 29.911C27.3025 30.2592 27.081 30.6623 26.9427 31.0972C26.8044 31.5322 26.7521 31.9905 26.7886 32.4459L27.9285 46.831C27.9958 47.68 28.3679 48.4746 28.9744 49.0645C29.5809 49.6544 30.3797 49.9986 31.2197 50.032L43.1524 50.5084C43.9968 50.5438 44.8245 50.2621 45.4766 49.7174C46.1287 49.1726 46.5593 48.403 46.6859 47.5563L46.9957 45.5029L54.7715 44.3625Z" fill="white"/>
<path d="M36.332 43H35.6094V38.7734H36.332V43ZM35.5508 37.6523C35.5508 37.5352 35.5859 37.4362 35.6562 37.3555C35.7292 37.2747 35.8359 37.2344 35.9766 37.2344C36.1172 37.2344 36.224 37.2747 36.2969 37.3555C36.3698 37.4362 36.4062 37.5352 36.4062 37.6523C36.4062 37.7695 36.3698 37.8672 36.2969 37.9453C36.224 38.0234 36.1172 38.0625 35.9766 38.0625C35.8359 38.0625 35.7292 38.0234 35.6562 37.9453C35.5859 37.8672 35.5508 37.7695 35.5508 37.6523ZM37.8477 43V39.332H37.1797V38.7734H37.8477V38.3398C37.8477 37.8867 37.9688 37.5365 38.2109 37.2891C38.4531 37.0417 38.7956 36.918 39.2383 36.918C39.4049 36.918 39.5703 36.9401 39.7344 36.9844L39.6953 37.5703C39.5729 37.5469 39.4427 37.5352 39.3047 37.5352C39.0703 37.5352 38.8893 37.6042 38.7617 37.7422C38.6341 37.8776 38.5703 38.0729 38.5703 38.3281V38.7734H39.4727V39.332H38.5703V43H37.8477Z" fill="black"/>
<path fill-rule="evenodd" clip-rule="evenodd" d="M45.7071 27.3975C46.2542 27.3536 46.8043 27.433 47.3161 27.6298C47.8279 27.8266 48.2882 28.1358 48.6625 28.5341C49.0368 28.9324 49.3155 29.4096 49.4776 29.9299C49.6397 30.4502 49.681 31.0001 49.5985 31.5385L47.9643 42.1806L55.9887 44.332L47.4438 45.5592L47.1522 47.4507C47.0184 48.3276 46.5629 49.1247 45.8732 49.689C45.1834 50.2532 44.308 50.545 43.4147 50.5083L31.4164 50.0393C30.5279 50.0046 29.683 49.6481 29.0416 49.0372C28.4001 48.4263 28.0066 47.6034 27.9354 46.7241L26.7893 32.5603C26.7893 32.5602 26.7893 32.5603 26.7893 32.5603C26.7506 32.0886 26.806 31.6139 26.9523 31.1634C27.0985 30.7129 27.3328 30.2954 27.6417 29.9348C27.9507 29.5742 28.3282 29.2775 28.7527 29.0616C29.1772 28.8458 29.6404 28.715 30.1158 28.6768C30.1159 28.6768 30.1157 28.6768 30.1158 28.6768L45.7071 27.3975ZM45.736 27.7517C45.736 27.7517 45.7361 27.7517 45.736 27.7517L30.1452 29.0309C29.7166 29.0654 29.2987 29.1833 28.9161 29.3778C28.5334 29.5724 28.1931 29.8399 27.9147 30.1649C27.6362 30.49 27.425 30.8663 27.2932 31.2724C27.1613 31.6784 27.1114 32.1063 27.1463 32.5315L28.2924 46.6956C28.3566 47.4883 28.7114 48.2302 29.2896 48.7809C29.8679 49.3316 30.6295 49.653 31.4305 49.6842L43.4292 50.1532L43.4295 50.1533C44.2346 50.1863 45.0236 49.9234 45.6453 49.4148C46.267 48.9062 46.6775 48.1879 46.7981 47.3975L47.1298 45.2452L54.2226 44.2266L47.562 42.4408L49.2444 31.4851C49.2444 31.4851 49.2444 31.4851 49.2444 31.4851C49.3188 30.9997 49.2815 30.5039 49.1354 30.0348C48.9892 29.5657 48.738 29.1355 48.4005 28.7764C48.0631 28.4173 47.6481 28.1386 47.1867 27.9611C46.7253 27.7837 46.2293 27.7121 45.736 27.7517Z" fill="#263238"/>
<path d="M138.225 62.6828H128.768C126.856 62.6828 125.022 63.4606 123.67 64.8453C122.318 66.23 121.558 68.108 121.558 70.0662V72.7936L116.846 72.6084L121.573 75.7681V77.8128C121.573 79.7713 122.332 81.6497 123.684 83.0349C125.036 84.4201 126.87 85.1988 128.782 85.1998H138.239C140.152 85.1988 141.985 84.4201 143.337 83.0349C144.689 81.6497 145.448 79.7713 145.448 77.8128V70.0662C145.448 69.0953 145.262 68.134 144.898 67.2373C144.535 66.3406 144.003 65.526 143.332 64.8402C142.661 64.1544 141.865 63.6108 140.988 63.2406C140.112 62.8704 139.173 62.6808 138.225 62.6828Z" fill="white"/>
<path d="M125.414 76.3867H128.109V77H124.66V71.3125H125.414V76.3867ZM128.66 74.8477C128.66 74.4336 128.741 74.0612 128.902 73.7305C129.066 73.3997 129.293 73.1445 129.582 72.9648C129.874 72.7852 130.206 72.6953 130.578 72.6953C131.154 72.6953 131.618 72.8945 131.973 73.293C132.329 73.6914 132.508 74.2214 132.508 74.8828V74.9336C132.508 75.3451 132.428 75.7148 132.27 76.043C132.113 76.3685 131.888 76.6224 131.594 76.8047C131.302 76.987 130.966 77.0781 130.586 77.0781C130.013 77.0781 129.548 76.8789 129.191 76.4805C128.837 76.082 128.66 75.5547 128.66 74.8984V74.8477ZM129.387 74.9336C129.387 75.4023 129.495 75.7786 129.711 76.0625C129.93 76.3464 130.221 76.4883 130.586 76.4883C130.953 76.4883 131.245 76.3451 131.461 76.0586C131.677 75.7695 131.785 75.3659 131.785 74.8477C131.785 74.3841 131.674 74.0091 131.453 73.7227C131.234 73.4336 130.943 73.2891 130.578 73.2891C130.221 73.2891 129.934 73.431 129.715 73.7148C129.496 73.9987 129.387 74.4049 129.387 74.9336ZM133.242 74.8516C133.242 74.1927 133.395 73.6693 133.699 73.2812C134.004 72.8906 134.408 72.6953 134.91 72.6953C135.426 72.6953 135.828 72.8776 136.117 73.2422L136.152 72.7734H136.812V76.8984C136.812 77.4453 136.65 77.8763 136.324 78.1914C136.001 78.5065 135.566 78.6641 135.02 78.6641C134.715 78.6641 134.417 78.599 134.125 78.4688C133.833 78.3385 133.611 78.1602 133.457 77.9336L133.832 77.5C134.142 77.8828 134.521 78.0742 134.969 78.0742C135.32 78.0742 135.594 77.9753 135.789 77.7773C135.987 77.5794 136.086 77.3008 136.086 76.9414V76.5781C135.797 76.9115 135.402 77.0781 134.902 77.0781C134.408 77.0781 134.007 76.8789 133.699 76.4805C133.395 76.082 133.242 75.5391 133.242 74.8516ZM133.969 74.9336C133.969 75.4102 134.066 75.7852 134.262 76.0586C134.457 76.3294 134.73 76.4648 135.082 76.4648C135.538 76.4648 135.872 76.2578 136.086 75.8438V73.9141C135.865 73.5104 135.533 73.3086 135.09 73.3086C134.738 73.3086 134.464 73.4453 134.266 73.7188C134.068 73.9922 133.969 74.3971 133.969 74.9336ZM138.691 77H137.969V72.7734H138.691V77ZM137.91 71.6523C137.91 71.5352 137.945 71.4362 138.016 71.3555C138.089 71.2747 138.195 71.2344 138.336 71.2344C138.477 71.2344 138.583 71.2747 138.656 71.3555C138.729 71.4362 138.766 71.5352 138.766 71.6523C138.766 71.7695 138.729 71.8672 138.656 71.9453C138.583 72.0234 138.477 72.0625 138.336 72.0625C138.195 72.0625 138.089 72.0234 138.016 71.9453C137.945 71.8672 137.91 71.7695 137.91 71.6523ZM140.535 72.7734L140.559 73.3047C140.882 72.8984 141.303 72.6953 141.824 72.6953C142.717 72.6953 143.168 73.1992 143.176 74.207V77H142.453V74.2031C142.451 73.8984 142.38 73.6732 142.242 73.5273C142.107 73.3815 141.895 73.3086 141.605 73.3086C141.371 73.3086 141.165 73.3711 140.988 73.4961C140.811 73.6211 140.673 73.7852 140.574 73.9883V77H139.852V72.7734H140.535Z" fill="black"/>
<path fill-rule="evenodd" clip-rule="evenodd" d="M138.1 62.6828C139.064 62.6809 140.02 62.872 140.911 63.2453C141.803 63.6185 142.613 64.1666 143.296 64.8581C143.979 65.5497 144.52 66.371 144.89 67.2752C145.259 68.1795 145.45 69.1488 145.45 70.1277V77.7513C145.45 79.7261 144.677 81.6201 143.301 83.0169C141.926 84.4137 140.06 85.1988 138.114 85.1998H128.722C126.776 85.1988 124.91 84.4137 123.534 83.0169C122.159 81.6201 121.386 79.7261 121.386 77.7513V75.8358L116.238 72.4262L121.372 72.6262V70.1277C121.372 68.1532 122.145 66.2595 123.52 64.8633C124.896 63.4671 126.762 62.6828 128.707 62.6828H138.1ZM138.1 63.0402H128.707C126.855 63.0402 125.079 63.7869 123.769 65.116C122.46 66.4452 121.724 68.248 121.724 70.1277V72.9975L117.497 72.8329L121.738 75.6423V77.7513C121.738 79.6314 122.474 81.4345 123.783 82.7642C125.093 84.094 126.869 84.8415 128.722 84.8424H138.114C139.966 84.8415 141.743 84.094 143.052 82.7642C144.362 81.4345 145.097 79.6314 145.097 77.7513V70.1277C145.097 69.1958 144.916 68.273 144.565 67.4122C144.213 66.5514 143.697 65.7694 143.047 65.1111C142.397 64.4528 141.626 63.931 140.777 63.5757C139.928 63.2203 139.018 63.0383 138.1 63.0402Z" fill="#263238"/>
<path d="M128.108 67.5513L128.2 67.752L128.409 67.7834L128.259 67.9403L128.292 68.1598L128.108 68.0532L127.919 68.1598L127.951 67.9403L127.801 67.7834L128.01 67.752L128.108 67.5513Z" fill="white"/>
<path d="M128.108 68.1599L128.2 68.3607L128.409 68.392L128.259 68.5489L128.292 68.7685L128.108 68.6681L127.919 68.7685L127.951 68.5489L127.801 68.392L128.01 68.3607L128.108 68.1599Z" fill="white"/>
<path d="M128.714 66.3342L128.812 66.535L129.019 66.5664L128.863 66.7232L128.902 66.9428L128.714 66.8424L128.527 66.9428L128.566 66.7232L128.41 66.5664L128.624 66.535L128.714 66.3342Z" fill="white"/>
<path d="M128.714 66.9427L128.812 67.1435L129.019 67.1749L128.863 67.3317L128.902 67.5513L128.714 67.4447L128.527 67.5513L128.566 67.3317L128.41 67.1749L128.624 67.1435L128.714 66.9427Z" fill="white"/>
<path d="M128.714 69.3771L128.812 69.5778L129.019 69.6092L128.863 69.7661L128.902 69.9856L128.714 69.879L128.527 69.9856L128.566 69.7661L128.41 69.6092L128.624 69.5778L128.714 69.3771Z" fill="white"/>
<path d="M129.323 67.5513L129.415 67.752L129.624 67.7834L129.474 67.9403L129.506 68.1598L129.323 68.0532L129.133 68.1598L129.166 67.9403L129.016 67.7834L129.225 67.752L129.323 67.5513Z" fill="white"/>
<path d="M129.323 68.1599L129.415 68.3607L129.624 68.392L129.474 68.5489L129.506 68.7685L129.323 68.6681L129.133 68.7685L129.166 68.5489L129.016 68.392L129.225 68.3607L129.323 68.1599Z" fill="white"/>
<path d="M129.933 66.3342L130.024 66.535L130.234 66.5664L130.083 66.7232L130.122 66.9428L129.933 66.8424L129.743 66.9428L129.776 66.7232L129.625 66.5664L129.834 66.535L129.933 66.3342Z" fill="white"/>
<path d="M129.933 66.9427L130.024 67.1435L130.234 67.1749L130.083 67.3317L130.122 67.5513L129.933 67.4447L129.743 67.5513L129.776 67.3317L129.625 67.1749L129.834 67.1435L129.933 66.9427Z" fill="white"/>
<path d="M129.933 69.3771L130.024 69.5778L130.234 69.6092L130.083 69.7661L130.122 69.9856L129.933 69.879L129.743 69.9856L129.776 69.7661L129.625 69.6092L129.834 69.5778L129.933 69.3771Z" fill="white"/>
<path d="M132.368 67.5513L132.46 67.752L132.669 67.7834L132.519 67.9403L132.558 68.1598L132.368 68.0532L132.178 68.1598L132.211 67.9403L132.061 67.7834L132.27 67.752L132.368 67.5513Z" fill="white"/>
<path d="M132.368 68.1599L132.46 68.3607L132.669 68.392L132.519 68.5489L132.558 68.7685L132.368 68.6681L132.178 68.7685L132.211 68.5489L132.061 68.392L132.27 68.3607L132.368 68.1599Z" fill="white"/>
<path d="M132.969 66.3342L133.067 66.535L133.277 66.5664L133.126 66.7232L133.159 66.9428L132.969 66.8424L132.779 66.9428L132.818 66.7232L132.668 66.5664L132.877 66.535L132.969 66.3342Z" fill="white"/>
<path d="M132.969 66.9427L133.067 67.1435L133.277 67.1749L133.126 67.3317L133.159 67.5513L132.969 67.4447L132.779 67.5513L132.818 67.3317L132.668 67.1749L132.877 67.1435L132.969 66.9427Z" fill="white"/>
<path d="M132.969 69.3771L133.067 69.5778L133.277 69.6092L133.126 69.7661L133.159 69.9856L132.969 69.879L132.779 69.9856L132.818 69.7661L132.668 69.6092L132.877 69.5778L132.969 69.3771Z" fill="white"/>
<path d="M48.6863 73.7918H42.3722C41.4241 70.7977 39.3918 68.2754 36.6819 66.7296C33.972 65.1838 30.7843 64.7284 27.7563 65.4543C24.7283 66.1803 22.0832 68.0343 20.3502 70.6453C18.6171 73.2564 17.9237 76.4321 18.4088 79.5373C18.8939 82.6424 20.5216 85.4482 22.9664 87.3933C25.4112 89.3385 28.4929 90.2796 31.5951 90.0285C34.6973 89.7774 37.5913 88.3526 39.6983 86.0391C41.8053 83.7255 42.97 80.6937 42.9593 77.5501C42.9593 77.4556 42.9593 77.3646 42.9593 77.27L48.6863 73.7918Z" fill="white"/>
<path d="M26.8438 78.1953C26.7734 78.7969 26.5508 79.2617 26.1758 79.5898C25.8034 79.9154 25.3073 80.0781 24.6875 80.0781C24.0156 80.0781 23.4766 79.8372 23.0703 79.3555C22.6667 78.8737 22.4648 78.2292 22.4648 77.4219V76.875C22.4648 76.3464 22.5586 75.8815 22.7461 75.4805C22.9362 75.0794 23.2044 74.7721 23.5508 74.5586C23.8971 74.3424 24.2982 74.2344 24.7539 74.2344C25.3581 74.2344 25.8424 74.4036 26.207 74.7422C26.5716 75.0781 26.7839 75.5443 26.8438 76.1406H26.0898C26.0247 75.6875 25.8828 75.3594 25.6641 75.1562C25.4479 74.9531 25.1445 74.8516 24.7539 74.8516C24.2747 74.8516 23.8984 75.0286 23.625 75.3828C23.3542 75.737 23.2188 76.2409 23.2188 76.8945V77.4453C23.2188 78.0625 23.3477 78.5534 23.6055 78.918C23.8633 79.2826 24.224 79.4648 24.6875 79.4648C25.1042 79.4648 25.4232 79.3711 25.6445 79.1836C25.8685 78.9935 26.0169 78.6641 26.0898 78.1953H26.8438ZM28.543 80H27.8203V74H28.543V80ZM30.4883 80H29.7656V75.7734H30.4883V80ZM29.707 74.6523C29.707 74.5352 29.7422 74.4362 29.8125 74.3555C29.8854 74.2747 29.9922 74.2344 30.1328 74.2344C30.2734 74.2344 30.3802 74.2747 30.4531 74.3555C30.526 74.4362 30.5625 74.5352 30.5625 74.6523C30.5625 74.7695 30.526 74.8672 30.4531 74.9453C30.3802 75.0234 30.2734 75.0625 30.1328 75.0625C29.9922 75.0625 29.8854 75.0234 29.8125 74.9453C29.7422 74.8672 29.707 74.7695 29.707 74.6523ZM33.3438 79.4883C33.6016 79.4883 33.8268 79.4102 34.0195 79.2539C34.2122 79.0977 34.319 78.9023 34.3398 78.668H35.0234C35.0104 78.9102 34.9271 79.1406 34.7734 79.3594C34.6198 79.5781 34.4141 79.7526 34.1562 79.8828C33.901 80.013 33.6302 80.0781 33.3438 80.0781C32.7682 80.0781 32.3099 79.8867 31.9688 79.5039C31.6302 79.1185 31.4609 78.5924 31.4609 77.9258V77.8047C31.4609 77.3932 31.5365 77.0273 31.6875 76.707C31.8385 76.3867 32.0547 76.138 32.3359 75.9609C32.6198 75.7839 32.9544 75.6953 33.3398 75.6953C33.8138 75.6953 34.207 75.8372 34.5195 76.1211C34.8346 76.4049 35.0026 76.7734 35.0234 77.2266H34.3398C34.319 76.9531 34.2148 76.7292 34.0273 76.5547C33.8424 76.3776 33.6133 76.2891 33.3398 76.2891C32.9727 76.2891 32.6875 76.4219 32.4844 76.6875C32.2839 76.9505 32.1836 77.332 32.1836 77.832V77.9688C32.1836 78.4557 32.2839 78.8307 32.4844 79.0938C32.6849 79.3568 32.9714 79.4883 33.3438 79.4883ZM37.0156 78.043L36.5625 78.5156V80H35.8398V74H36.5625V77.6289L36.9492 77.1641L38.2656 75.7734H39.1445L37.5 77.5391L39.3359 80H38.4883L37.0156 78.043Z" fill="black"/>
<path fill-rule="evenodd" clip-rule="evenodd" d="M27.8268 65.4543C30.8773 64.7284 34.0887 65.1838 36.8187 66.7296C39.5107 68.2539 41.5389 70.7277 42.5107 73.6671H49.2949L43.1427 77.376V77.5501C43.1534 80.6937 41.9801 83.7255 39.8575 86.0391C37.7348 88.3526 34.8193 89.7774 31.6941 90.0285C28.5689 90.2796 25.4643 89.3385 23.0014 87.3933C20.5384 85.4482 18.8986 82.6424 18.4099 79.5372C17.9212 76.4321 18.6197 73.2564 20.3657 70.6453C22.1116 68.0343 24.7763 66.1803 27.8268 65.4543ZM36.6428 67.0419C33.9913 65.5405 30.8722 65.0981 27.9094 65.8032C24.9466 66.5084 22.3585 68.309 20.6627 70.845C18.967 73.381 18.2886 76.4654 18.7632 79.4814C19.2378 82.4973 20.8305 85.2224 23.2227 87.1116C25.6148 89.0009 28.6302 89.915 31.6656 89.6711C34.701 89.4272 37.5326 88.0434 39.5942 85.7963C41.6559 83.5492 42.7954 80.6046 42.785 77.5514V77.1732L48.006 74.0257H42.2504L42.2106 73.9011C41.2828 70.993 39.2943 68.5433 36.6428 67.0419Z" fill="#263238"/>
<path d="M25.8643 69.3771L26.1496 69.9808L26.7788 70.0748L26.3215 70.5448L26.4316 71.2028L25.8643 70.8919L25.3004 71.2028L25.4104 70.5448L24.9531 70.0748L25.5823 69.9808L25.8643 69.3771Z" fill="white"/>
<path d="M27.691 69.3771L27.7865 69.5784L27.9953 69.6111L27.8443 69.7656L27.8798 69.9856L27.691 69.8827L27.5044 69.9856L27.54 69.7656L27.3867 69.6111L27.5977 69.5784L27.691 69.3771Z" fill="white"/>
<path d="M28.3004 71.2028L28.3937 71.4041L28.6047 71.4345L28.4514 71.5913L28.4869 71.8113L28.3004 71.7083L28.1116 71.8113L28.1471 71.5913L27.9961 71.4345L28.2049 71.4041L28.3004 71.2028Z" fill="white"/>
<path d="M27.3859 71.8113L27.5725 72.2092L27.9945 72.2747L27.6924 72.5884L27.7635 73.0284L27.3859 72.8178L27.0128 73.0284L27.0839 72.5884L26.7773 72.2747L27.1993 72.2092L27.3859 71.8113Z" fill="white"/>
<path d="M25.8648 72.4199L25.9581 72.6189L26.1691 72.6516L26.0181 72.8085L26.0536 73.0285L25.8648 72.9255L25.6783 73.0285L25.7138 72.8085L25.5605 72.6516L25.7715 72.6189L25.8648 72.4199Z" fill="white"/>
<path fill-rule="evenodd" clip-rule="evenodd" d="M67.795 34.2981C70.6775 31.4308 74.5871 29.8199 78.6637 29.8199H83.8278C85.8463 29.8199 87.8451 30.2154 89.71 30.9838C91.5748 31.7521 93.2693 32.8783 94.6966 34.2981C96.1239 35.7178 97.2561 37.4033 98.0285 39.2582C98.801 41.1132 99.1986 43.1014 99.1986 45.1092C99.1986 45.4039 98.9584 45.6428 98.6621 45.6428C98.3659 45.6428 98.1257 45.4039 98.1257 45.1092C98.1257 43.2415 97.7559 41.3921 97.0373 39.6666C96.3188 37.9411 95.2656 36.3733 93.9379 35.0527C92.6103 33.732 91.0341 32.6844 89.2994 31.9697C87.5647 31.255 85.7054 30.8871 83.8278 30.8871H78.6637C74.8717 30.8871 71.235 32.3855 68.5536 35.0527C65.8722 37.7198 64.3658 41.3372 64.3658 45.1092C64.3658 45.4039 64.1257 45.6428 63.8294 45.6428C63.5331 45.6428 63.293 45.4039 63.293 45.1092C63.293 41.0542 64.9124 37.1653 67.795 34.2981Z" fill="#263238"/>
<path fill-rule="evenodd" clip-rule="evenodd" d="M98.5882 43.817C99.2604 43.817 99.8054 44.3067 99.8054 44.9109V56.1117C99.8054 56.7158 99.2604 57.2055 98.5882 57.2055C97.916 57.2055 97.3711 56.7158 97.3711 56.1117V44.9109C97.3711 44.3067 97.916 43.817 98.5882 43.817Z" fill="#263238"/>
<path fill-rule="evenodd" clip-rule="evenodd" d="M63.9007 43.817C64.5729 43.817 65.1179 44.3067 65.1179 44.9109V56.1117C65.1179 56.7158 64.5729 57.2055 63.9007 57.2055C63.2285 57.2055 62.6836 56.7158 62.6836 56.1117V44.9109C62.6836 44.3067 63.2285 43.817 63.9007 43.817Z" fill="#263238"/>
<path d="M74.7241 72.4269C74.7241 72.4269 75.6493 78.873 75.4636 80.53C75.2778 82.1869 74.9099 83.8439 70.2946 82.0016C65.6793 80.1594 57.3738 83.4768 52.0191 89.9194C46.6643 96.3619 36.5156 117.909 36.5156 120.486C36.5156 123.062 38.5446 126.543 42.2312 127.114C45.9177 127.684 54.5982 117.172 54.5982 117.172C54.5982 117.172 58.2883 137.978 58.2883 139.621C58.2883 141.264 56.6344 152.142 56.6344 152.142H108.875L106.842 138.701L110.536 109.054C110.536 109.054 125.857 129.861 129.179 130.791C132.501 131.721 137.67 130.053 138.963 126.187C140.257 122.321 138.224 118.269 135.638 115.322C133.051 112.376 116.812 86.413 113.847 84.022C110.882 81.631 102.587 81.4422 99.6332 82.1798C96.679 82.9174 91.6958 84.022 90.4026 83.2844C89.1095 82.5468 89.113 75.552 90.4026 72.4198C90.4133 72.4269 79.1537 75.3738 74.7241 72.4269Z" fill="#92E3A9"/>
<path fill-rule="evenodd" clip-rule="evenodd" d="M90.051 72.4276C90.1024 72.4119 90.158 72.4201 90.2027 72.4498C90.2439 72.5158 90.2454 72.5921 90.2339 72.652L90.269 72.6664C89.6355 74.206 89.312 76.7187 89.3115 78.9488C89.3113 80.0615 89.3916 81.0936 89.5503 81.8892C89.6297 82.2874 89.7276 82.6201 89.8414 82.872C89.9573 83.1287 90.0793 83.2777 90.1922 83.3422C90.4701 83.5008 90.9808 83.5731 91.6766 83.5617C92.3617 83.5505 93.1911 83.4596 94.0779 83.3217C95.8508 83.0459 97.8337 82.5855 99.313 82.2159C100.821 81.8391 103.663 81.7028 106.493 81.9584C107.91 82.0864 109.332 82.3132 110.589 82.6604C111.843 83.0067 112.947 83.4765 113.717 84.0983C114.108 84.4133 114.699 85.0993 115.432 86.0445C116.169 86.9952 117.061 88.2234 118.054 89.6369C120.04 92.4642 122.436 96.0387 124.818 99.629C125.732 101.005 126.643 102.384 127.529 103.723C128.954 105.88 130.314 107.936 131.508 109.721C133.449 112.621 134.945 114.791 135.583 115.519C138.188 118.489 140.28 122.62 138.952 126.592C138.283 128.594 136.616 130.013 134.71 130.813C132.806 131.613 130.636 131.805 128.926 131.326C128.689 131.259 128.415 131.11 128.114 130.902C127.81 130.692 127.468 130.415 127.096 130.082C126.35 129.416 125.473 128.519 124.517 127.473C122.605 125.381 120.37 122.681 118.241 120.013C116.112 117.344 114.087 114.704 112.594 112.732C111.848 111.746 111.235 110.927 110.808 110.354C110.647 110.138 110.513 109.957 110.408 109.815L106.763 139.087L108.797 152.546C108.805 152.597 108.79 152.649 108.756 152.689C108.722 152.728 108.672 152.751 108.62 152.751H56.253C56.2008 152.751 56.1512 152.728 56.1172 152.689C56.0832 152.649 56.0681 152.597 56.076 152.545L56.253 152.572C56.076 152.545 56.076 152.546 56.076 152.545L56.0946 152.423C56.1067 152.342 56.1245 152.224 56.1472 152.074C56.1925 151.772 56.2572 151.339 56.3349 150.815C56.4903 149.767 56.6975 148.351 56.9047 146.885C57.1119 145.418 57.319 143.901 57.4742 142.647C57.6302 141.388 57.7319 140.41 57.7319 140.011C57.7319 139.82 57.6765 139.328 57.5747 138.595C57.4737 137.868 57.3295 136.919 57.1561 135.825C56.8095 133.638 56.3473 130.875 55.8849 128.163C55.4226 125.452 54.9602 122.792 54.6135 120.809C54.4401 119.818 54.2956 118.996 54.1945 118.422C54.1579 118.215 54.1269 118.039 54.1023 117.9C54.0618 117.948 54.0167 118.001 53.967 118.059C53.7212 118.347 53.366 118.758 52.9282 119.249C52.053 120.231 50.8468 121.534 49.5241 122.82C48.2024 124.106 46.7596 125.379 45.4116 126.295C44.7377 126.754 44.0826 127.126 43.4743 127.366C42.8681 127.606 42.2936 127.719 41.7873 127.641C37.9878 127.053 35.9062 123.47 35.9062 120.816C35.9062 120.631 35.9506 120.378 36.0272 120.073C36.1046 119.765 36.2181 119.392 36.3633 118.964C36.6538 118.108 37.0738 117.022 37.5934 115.775C38.6328 113.28 40.0739 110.13 41.6822 106.86C44.8958 100.327 48.7893 93.2891 51.4886 90.0391C54.1909 86.7856 57.6377 84.3206 60.9945 82.9007C64.3448 81.4836 67.6364 81.0953 70.0129 82.0446C71.1619 82.5036 72.0359 82.7401 72.7019 82.8157C73.3678 82.8912 73.8114 82.8043 74.1141 82.6332C74.4137 82.4638 74.5992 82.1982 74.7224 81.8643C74.8471 81.5261 74.9035 81.1302 74.95 80.7144C74.9945 80.3174 74.973 79.6172 74.9121 78.7758C74.8516 77.9393 74.7535 76.978 74.6493 76.0669C74.5452 75.1561 74.4352 74.297 74.3512 73.6655C74.3093 73.3498 74.2738 73.0911 74.2489 72.9113C74.2364 72.8214 74.2265 72.7513 74.2198 72.7037L74.2095 72.6313C74.2095 72.6312 74.2095 72.631 74.3867 72.6057L74.2095 72.6313C74.1995 72.5615 74.2315 72.4921 74.2913 72.4545C74.351 72.4169 74.4273 72.4179 74.4861 72.457C75.5591 73.1714 77.0615 73.5371 78.7319 73.6746C80.3988 73.8117 82.2132 73.7202 83.8946 73.5357C85.5753 73.3513 87.1181 73.0745 88.2404 72.8433C88.8014 72.7278 89.2569 72.6237 89.5715 72.5483C89.7288 72.5107 89.8507 72.4802 89.9329 72.4592C89.974 72.4486 90.0049 72.4405 90.0251 72.435C90.0345 72.4325 90.041 72.4307 90.045 72.4296C90.047 72.4289 90.049 72.4282 90.051 72.4276ZM89.8124 72.8578C89.7646 72.8695 89.7121 72.8823 89.655 72.8959C89.337 72.9721 88.8778 73.077 88.3128 73.1934C87.183 73.4261 85.6286 73.705 83.9338 73.891C82.2397 74.0769 80.4005 74.1706 78.7025 74.0308C77.1649 73.9043 75.7268 73.5852 74.6166 72.9565C74.6403 73.1286 74.671 73.3535 74.7062 73.6185C74.7904 74.2514 74.9006 75.1128 75.0051 76.0264C75.1095 76.9397 75.2083 77.9066 75.2693 78.75C75.33 79.5886 75.3545 80.32 75.3059 80.7541C75.2594 81.1694 75.1998 81.6046 75.0584 81.9878C74.9155 82.3753 74.6848 82.7213 74.2906 82.9442C73.8994 83.1654 73.3717 83.2514 72.6614 83.1708C71.9512 83.0902 71.0441 82.8415 69.8799 82.3765C67.6298 81.4777 64.4454 81.8293 61.1342 83.2299C57.8297 84.6276 54.4298 87.0581 51.7643 90.2673C49.0958 93.4802 45.2188 100.481 42.0037 107.018C40.3977 110.283 38.9599 113.425 37.9241 115.912C37.4061 117.155 36.9894 118.233 36.7025 119.079C36.559 119.502 36.4488 119.865 36.3745 120.16C36.2994 120.459 36.2643 120.677 36.2643 120.816C36.2643 123.33 38.2507 126.732 41.8422 127.288C42.2598 127.353 42.7656 127.262 43.3426 127.034C43.9176 126.807 44.5485 126.45 45.21 126C46.533 125.1 47.9585 123.844 49.2742 122.564C50.5888 121.286 51.789 119.989 52.6608 119.011C53.0965 118.523 53.45 118.114 53.6945 117.828C53.8167 117.684 53.9116 117.572 53.9759 117.495C54.0081 117.457 54.0326 117.427 54.049 117.408L54.0676 117.385L54.0733 117.378L54.0736 117.378C54.0737 117.378 54.0737 117.378 54.2119 117.491C54.3882 117.46 54.3882 117.46 54.3882 117.461L54.4297 117.695C54.4568 117.849 54.4966 118.074 54.5472 118.361C54.6483 118.935 54.7928 119.756 54.9662 120.748C55.313 122.73 55.7755 125.391 56.2379 128.103C56.7003 130.816 57.1629 133.58 57.5098 135.769C57.6833 136.864 57.828 137.816 57.9294 138.546C58.0298 139.27 58.09 139.79 58.09 140.011C58.09 140.437 57.9845 141.44 57.8296 142.691C57.674 143.947 57.4666 145.467 57.2593 146.935C57.0519 148.402 56.8446 149.818 56.6892 150.867C56.6114 151.392 56.5466 151.825 56.5013 152.127C56.4854 152.232 56.4719 152.322 56.4611 152.394H108.412L106.406 139.116C106.403 139.1 106.403 139.083 106.405 139.067L110.108 109.327C110.117 109.254 110.169 109.194 110.24 109.176C110.311 109.157 110.386 109.184 110.43 109.243L110.285 109.349C110.43 109.243 110.43 109.243 110.43 109.243L110.43 109.244L110.474 109.303C110.503 109.342 110.546 109.401 110.603 109.477C110.716 109.63 110.882 109.855 111.095 110.141C111.522 110.713 112.134 111.531 112.88 112.517C114.371 114.487 116.394 117.124 118.521 119.79C120.648 122.456 122.877 125.149 124.781 127.232C125.734 128.274 126.602 129.161 127.334 129.815C127.701 130.143 128.03 130.409 128.317 130.608C128.607 130.808 128.843 130.931 129.023 130.981C130.643 131.435 132.729 131.257 134.572 130.484C136.413 129.711 137.985 128.355 138.612 126.479C139.878 122.693 137.894 118.696 135.314 115.754C134.656 115.004 133.144 112.809 131.211 109.92C130.016 108.134 128.655 106.076 127.229 103.919C126.343 102.579 125.432 101.201 124.52 99.8264C122.137 96.2362 119.744 92.6652 117.761 89.8422C116.769 88.4306 115.881 87.2075 115.149 86.2633C114.412 85.3135 113.845 84.661 113.492 84.3763C112.777 83.7989 111.727 83.3455 110.493 83.0049C109.263 82.665 107.863 82.441 106.46 82.3144C103.65 82.0606 100.853 82.1995 99.3999 82.5626C97.9177 82.933 95.9223 83.3966 94.133 83.6749C93.2388 83.814 92.3912 83.9076 91.6825 83.9192C90.9846 83.9306 90.3848 83.8639 90.0145 83.6525C89.8034 83.532 89.6418 83.2999 89.5149 83.019C89.3859 82.7333 89.2814 82.3718 89.1991 81.959C89.0343 81.1327 88.9532 80.0754 88.9534 78.9487C88.9539 76.8472 89.2373 74.4682 89.8124 72.8578ZM54.2119 117.491L54.3882 117.461C54.376 117.392 54.3249 117.336 54.2574 117.319C54.1898 117.301 54.118 117.324 54.0736 117.378L54.2119 117.491Z" fill="#263238"/>
<path fill-rule="evenodd" clip-rule="evenodd" d="M66.9588 128.554C66.9985 128.437 67.1142 128.378 67.2172 128.424C67.8771 128.714 68.5497 128.966 69.2322 129.177C69.3387 129.211 69.4015 129.336 69.3725 129.457C69.3435 129.579 69.2337 129.65 69.1272 129.617C68.4315 129.401 67.746 129.145 67.0733 128.849C66.9703 128.803 66.919 128.672 66.9588 128.554Z" fill="#263238"/>
<path fill-rule="evenodd" clip-rule="evenodd" d="M58.1713 116.999C58.1713 116.999 58.1713 116.999 58.1713 116.999L58.1713 116.999L58.1714 117L58.1718 117.003L58.1736 117.017C58.1752 117.029 58.1778 117.048 58.1815 117.073C58.1889 117.123 58.2007 117.198 58.2181 117.295C58.253 117.489 58.3105 117.771 58.4004 118.121C58.5802 118.822 58.8896 119.796 59.4074 120.882C60.443 123.054 62.3094 125.674 65.6363 127.475C65.7222 127.521 65.7531 127.627 65.7053 127.71C65.6576 127.794 65.5492 127.824 65.4632 127.778C62.0537 125.932 60.1425 123.247 59.0845 121.028C58.5555 119.918 58.2392 118.923 58.0549 118.205C57.9628 117.846 57.9037 117.556 57.8674 117.355C57.8493 117.254 57.837 117.176 57.8291 117.122C57.8251 117.096 57.8223 117.075 57.8204 117.061L57.8183 117.045L57.8178 117.04L57.8177 117.039L57.8176 117.039C57.8176 117.039 57.8176 117.038 57.9944 117.019L57.8176 117.038C57.8064 116.943 57.8765 116.857 57.9742 116.846C58.0718 116.836 58.1601 116.904 58.1713 116.999Z" fill="#263238"/>
<path fill-rule="evenodd" clip-rule="evenodd" d="M78.5897 95.576C78.6775 95.5216 78.7973 95.542 78.8574 95.6215L82.7322 100.75C82.7922 100.829 82.7698 100.938 82.682 100.992C82.5942 101.047 82.4744 101.026 82.4143 100.947L78.5395 95.8185C78.4795 95.739 78.5019 95.6304 78.5897 95.576Z" fill="#263238"/>
<path fill-rule="evenodd" clip-rule="evenodd" d="M115.535 98.6068C115.618 98.6512 115.653 98.7624 115.613 98.8551L114.728 100.917C114.689 101.01 114.589 101.049 114.506 101.004C114.424 100.96 114.389 100.849 114.429 100.756L115.313 98.694C115.353 98.6013 115.452 98.5623 115.535 98.6068Z" fill="#263238"/>
<path fill-rule="evenodd" clip-rule="evenodd" d="M113.045 97.9843C113.149 98.0067 113.214 98.105 113.19 98.2039L110.91 107.811L113.437 102.784C113.483 102.693 113.598 102.654 113.694 102.698C113.79 102.742 113.831 102.851 113.785 102.943L110.519 109.438C110.476 109.523 110.374 109.563 110.282 109.532C110.189 109.502 110.135 109.41 110.157 109.318L112.815 98.1228C112.838 98.024 112.941 97.9619 113.045 97.9843Z" fill="#263238"/>
<path fill-rule="evenodd" clip-rule="evenodd" d="M123.714 117.872L123.619 117.712C123.538 117.769 123.515 117.887 123.567 117.975C123.619 118.063 123.727 118.089 123.808 118.032L123.808 118.032L123.81 118.031L123.818 118.025C123.825 118.021 123.835 118.013 123.849 118.004C123.877 117.985 123.919 117.957 123.974 117.921C124.084 117.849 124.246 117.746 124.452 117.623C124.864 117.376 125.452 117.046 126.157 116.716C127.569 116.055 129.434 115.4 131.276 115.4C131.372 115.4 131.45 115.315 131.45 115.21C131.45 115.105 131.372 115.02 131.276 115.02C129.366 115.02 127.45 115.696 126.019 116.366C125.302 116.702 124.703 117.038 124.283 117.29C124.074 117.416 123.908 117.521 123.795 117.595C123.738 117.632 123.695 117.661 123.665 117.681C123.65 117.691 123.639 117.699 123.632 117.704L123.623 117.71L123.62 117.712L123.62 117.712C123.62 117.712 123.619 117.712 123.714 117.872Z" fill="#263238"/>
<path d="M115.903 125.442C118.374 124.081 120.735 122.522 122.964 120.781C126.167 118.277 130.188 117.117 134.204 117.539C137.882 117.942 139.873 122.603 139.97 127.267C140.066 131.93 137.583 134.762 133.108 135.471C128.634 136.18 123.36 135.169 120.081 134.359C118.346 133.91 116.585 133.571 114.808 133.345C114.808 133.345 110.533 126.656 115.903 125.442Z" fill="white"/>
<path fill-rule="evenodd" clip-rule="evenodd" d="M134.085 117.893C130.167 117.484 126.244 118.609 123.119 121.036L123.119 121.036C120.912 122.749 118.574 124.282 116.127 125.621C116.113 125.629 116.098 125.634 116.082 125.638C114.799 125.926 114.122 126.53 113.8 127.25C113.472 127.982 113.495 128.869 113.688 129.746C113.88 130.62 114.235 131.463 114.544 132.09C114.698 132.402 114.84 132.66 114.944 132.838C114.995 132.928 115.037 132.998 115.066 133.045C115.067 133.045 115.067 133.046 115.067 133.046C116.799 133.269 118.517 133.599 120.209 134.034C123.442 134.828 128.617 135.811 132.995 135.122C135.173 134.779 136.847 133.926 137.966 132.613C139.084 131.301 139.664 129.51 139.618 127.257C139.571 124.992 139.06 122.736 138.12 121.004C137.18 119.271 135.823 118.082 134.085 117.893ZM114.963 133.213L114.941 133.389C116.687 133.611 118.418 133.941 120.124 134.38L120.124 134.38L120.125 134.38C123.364 135.176 128.597 136.175 133.05 135.474C135.287 135.122 137.046 134.238 138.233 132.846C139.42 131.453 140.018 129.569 139.97 127.249C139.922 124.941 139.402 122.626 138.429 120.832C137.455 119.038 136.014 117.744 134.122 117.538L134.122 117.538C130.114 117.12 126.101 118.27 122.905 120.753C120.719 122.45 118.404 123.968 115.981 125.295C114.63 125.605 113.854 126.265 113.479 127.103C113.106 127.936 113.144 128.912 113.344 129.823C113.544 130.737 113.913 131.609 114.229 132.249C114.387 132.57 114.533 132.834 114.64 133.018C114.693 133.111 114.737 133.183 114.767 133.233C114.782 133.257 114.794 133.276 114.802 133.289L114.812 133.304L114.814 133.308L114.815 133.309L114.815 133.31C114.815 133.31 114.815 133.31 114.963 133.213Z" fill="#263238"/>
<path d="M139.97 127.168C139.873 122.551 137.866 117.937 134.157 117.538C130.11 117.12 126.056 118.269 122.828 120.748L122.324 121.133C126.64 121.28 135.366 123.044 133.999 135.102C137.912 134.163 140.063 131.446 139.97 127.168Z" fill="#92E3A9"/>
<path fill-rule="evenodd" clip-rule="evenodd" d="M122.887 120.718C126.086 118.262 130.104 117.123 134.115 117.537L134.116 117.537C136.01 117.741 137.452 119.021 138.427 120.796C139.402 122.571 139.922 124.862 139.97 127.146C140.016 129.273 139.505 131.029 138.481 132.372C137.456 133.716 135.932 134.63 133.983 135.098C133.928 135.111 133.869 135.096 133.826 135.058C133.782 135.02 133.761 134.963 133.767 134.906C134.431 129.046 132.643 125.726 130.202 123.843C127.747 121.949 124.596 121.484 122.494 121.412C122.42 121.409 122.355 121.36 122.333 121.289C122.31 121.218 122.334 121.141 122.393 121.096L122.887 120.718C122.887 120.718 122.887 120.718 122.887 120.718ZM134.079 117.888C130.157 117.484 126.229 118.596 123.101 120.998L122.991 121.082C125.106 121.209 128.061 121.746 130.417 123.564C132.938 125.508 134.741 128.89 134.145 134.693C135.913 134.225 137.277 133.369 138.2 132.158C139.166 130.892 139.663 129.22 139.617 127.154C139.57 124.913 139.059 122.681 138.118 120.966C137.177 119.252 135.819 118.076 134.079 117.888Z" fill="#263238"/>
<path d="M74.7302 72.4376C74.7302 72.4376 75.6556 78.8811 75.4698 80.5374C75.3305 81.7805 75.0875 83.0307 73.0293 82.7885C75.9737 87.5864 84.5244 98.8491 92.5035 83.5009C91.5745 83.5579 90.8241 83.5009 90.4239 83.28C89.134 82.5427 89.134 75.5507 90.4239 72.4198C90.4239 72.4376 79.161 75.3833 74.7302 72.4376Z" fill="white"/>
<path fill-rule="evenodd" clip-rule="evenodd" d="M90.2528 72.4231C90.3376 72.4393 90.3987 72.5111 90.3987 72.5946C90.3945 72.6158 90.3862 72.6375 90.3762 72.6575L90.3851 72.661C89.7451 74.1667 89.419 76.6241 89.419 78.8051C89.419 79.8933 89.5002 80.9027 89.6604 81.6809C89.7406 82.0703 89.8393 82.3957 89.9541 82.6421C90.0707 82.8925 90.1932 83.038 90.3067 83.1013C90.4775 83.1924 90.7397 83.2572 91.0877 83.2903C91.4331 83.3231 91.848 83.3235 92.3126 83.2959C92.3777 83.292 92.4398 83.3222 92.4754 83.375C92.5109 83.4277 92.5144 83.4949 92.4844 83.5508C90.4561 87.3321 88.3779 89.5012 86.3367 90.5332C84.2863 91.5698 82.2954 91.448 80.4801 90.6962C78.6719 89.9474 77.0366 88.574 75.6711 87.102C74.3039 85.6283 73.1973 84.045 72.4485 82.8624C72.4123 82.8053 72.4131 82.7332 72.4504 82.6769C72.4878 82.6205 72.5552 82.5897 72.624 82.5976C73.6276 82.712 74.1357 82.4709 74.4234 82.107C74.7281 81.7217 74.8231 81.1592 74.8944 80.5423C74.9394 80.1541 74.9176 79.4693 74.8561 78.6464C74.795 77.8284 74.6958 76.8881 74.5905 75.9971C74.4853 75.1064 74.3742 74.2662 74.2894 73.6486C74.2469 73.3399 74.2111 73.0868 74.1859 72.911C74.1733 72.8231 74.1633 72.7545 74.1565 72.7079L74.1462 72.6371C74.1461 72.6371 74.1461 72.6369 74.3252 72.6121L74.1462 72.6371C74.136 72.5689 74.1684 72.501 74.2287 72.4642C74.2891 72.4274 74.3662 72.4284 74.4256 72.4667C75.5099 73.1653 77.0281 73.523 78.7162 73.6573C80.4007 73.7913 82.2345 73.7014 83.9343 73.5203C85.6332 73.3393 87.1933 73.0677 88.3288 72.8401C88.8964 72.7264 89.3575 72.6237 89.6763 72.5491C89.8357 72.5118 89.9593 72.4815 90.0427 72.4604C90.0845 72.4498 90.1157 72.4416 90.136 72.4361C90.1437 72.434 90.1493 72.4325 90.153 72.4314C90.1839 72.4199 90.2184 72.4166 90.2528 72.4231ZM74.5575 72.9552C74.5815 73.1235 74.6125 73.3435 74.6481 73.6026C74.7331 74.2216 74.8445 75.064 74.9501 75.9575C75.0556 76.8507 75.1554 77.7963 75.2171 78.6212C75.2784 79.4413 75.3032 80.1566 75.2541 80.5812C75.1843 81.1844 75.0856 81.8455 74.711 82.3192C74.3653 82.7564 73.8128 83.0052 72.9447 82.9728C73.6784 84.1051 74.7024 85.534 75.9405 86.8687C77.2897 88.323 78.8833 89.6546 80.6226 90.3749C82.3548 91.0922 84.23 91.2037 86.1689 90.2235C88.0699 89.2624 90.0528 87.2415 92.0168 83.6597C91.6641 83.6714 91.3389 83.6655 91.0522 83.6382C90.6846 83.6032 90.3646 83.5319 90.1301 83.4065L90.1278 83.4052C89.9149 83.2873 89.7521 83.0603 89.6242 82.7856C89.494 82.5062 89.3886 82.1528 89.3055 81.7491C89.1392 80.9409 89.0571 79.907 89.0571 78.8051C89.0571 76.7509 89.3424 74.4255 89.9229 72.8506C89.8739 72.8623 89.8201 72.8751 89.7615 72.8888C89.4391 72.9643 88.974 73.0679 88.4023 73.1824C87.259 73.4115 85.6873 73.6853 83.9739 73.8678C82.2614 74.0503 80.4025 74.1422 78.6865 74.0057C77.1326 73.8821 75.6794 73.57 74.5575 72.9552Z" fill="#263238"/>
<path d="M74.2461 72.4198C74.2461 72.4198 74.4875 74.1129 74.7 75.9932C76.86 77.1371 79.2473 77.7868 81.6892 77.8952C84.3873 77.9383 87.0364 77.1716 89.2943 75.6942C89.4146 74.5747 89.6748 73.4746 90.0689 72.4198C90.0689 72.4198 78.7134 75.3988 74.2461 72.4198Z" fill="#263238"/>
<path fill-rule="evenodd" clip-rule="evenodd" d="M74.3283 72.4458C74.3871 72.4103 74.4621 72.4112 74.5199 72.4482C75.5754 73.1237 77.0533 73.4695 78.6966 73.5996C80.3364 73.7294 82.1215 73.6431 83.7762 73.469C85.4301 73.295 86.9488 73.034 88.0543 72.8163C88.6069 72.7075 89.056 72.6096 89.3666 72.539C89.5219 72.5037 89.6425 72.4752 89.7243 72.4556C89.7651 72.4458 89.7962 72.4382 89.817 72.433L89.8405 72.4272L89.8477 72.4254C89.8477 72.4254 90.0004 72.455 90.0689 72.5888C90.0689 72.609 90.0651 72.629 90.0578 72.6479C89.6776 73.6244 89.4266 74.6428 89.3106 75.6792C89.3049 75.7296 89.2761 75.7748 89.2319 75.8026C86.9947 77.2073 84.37 77.9363 81.6967 77.8953L81.6917 77.8951C79.2782 77.7923 76.9186 77.1761 74.7836 76.091C74.7322 76.0649 74.6975 76.0161 74.691 75.9607C74.5873 75.0799 74.4764 74.2428 74.3916 73.6257C74.3491 73.3173 74.3132 73.0639 74.2878 72.8877C74.2752 72.7996 74.2652 72.7308 74.2583 72.684L74.2479 72.6129C74.2381 72.5469 74.2695 72.4813 74.3283 72.4458ZM74.6481 72.9204C74.6724 73.0906 74.7042 73.3157 74.7408 73.5815C74.823 74.1791 74.9295 74.983 75.0305 75.8338C77.097 76.8693 79.3752 77.4577 81.7049 77.5574C84.2793 77.5964 86.8072 76.902 88.9696 75.5631C89.08 74.6316 89.2967 73.7149 89.6155 72.8293C89.5651 72.841 89.5091 72.8539 89.4478 72.8679C89.1342 72.9392 88.6816 73.0378 88.1251 73.1474C87.0124 73.3665 85.4824 73.6296 83.8146 73.805C82.1476 73.9803 80.3381 74.0687 78.6677 73.9365C77.1549 73.8167 75.7402 73.5149 74.6481 72.9204Z" fill="#263238"/>
<path d="M64.1005 49.9028H63.0954C61.8605 49.9028 60.8594 50.9316 60.8594 52.2007V60.9935C60.8594 62.2626 61.8605 63.2914 63.0954 63.2914H64.1005C65.3354 63.2914 66.3365 62.2626 66.3365 60.9935V52.2007C66.3365 50.9316 65.3354 49.9028 64.1005 49.9028Z" fill="#263238"/>
<path fill-rule="evenodd" clip-rule="evenodd" d="M63.3776 50.2557C62.1901 50.2557 61.2275 51.1784 61.2275 52.3166V60.8776C61.2275 62.0158 62.1901 62.9385 63.3776 62.9385H64.4269C65.6143 62.9385 66.5769 62.0158 66.5769 60.8776V52.3166C66.5769 51.1784 65.6143 50.2557 64.4269 50.2557H63.3776ZM60.8594 52.3166C60.8594 50.9835 61.9868 49.9028 63.3776 49.9028H64.4269C65.8176 49.9028 66.9451 50.9835 66.9451 52.3166V60.8776C66.9451 62.2107 65.8176 63.2914 64.4269 63.2914H63.3776C61.9868 63.2914 60.8594 62.2107 60.8594 60.8776V52.3166Z" fill="#263238"/>
<path d="M64.5101 49.9028C64.4221 49.9028 64.3302 49.9028 64.2384 49.9028H63.5647C63.4729 49.9028 63.3848 49.9028 63.293 49.9028V63.2914C63.3848 63.2914 63.4729 63.2914 63.5647 63.2914H64.2384C64.3302 63.2914 64.4221 63.2914 64.5101 63.2914V49.9028Z" fill="white"/>
<path fill-rule="evenodd" clip-rule="evenodd" d="M63.293 50.0796C63.293 49.982 63.3582 49.9028 63.4386 49.9028H64.3645C64.4449 49.9028 64.5101 49.982 64.5101 50.0796V63.1146C64.5101 63.2122 64.4449 63.2914 64.3645 63.2914H63.4386C63.3582 63.2914 63.293 63.2122 63.293 63.1146V50.0796ZM63.5841 50.2563V62.9379H64.2187L64.2189 50.2563H63.5841Z" fill="#263238"/>
<path d="M99.3974 49.9028H98.3922C97.1573 49.9028 96.1562 50.9316 96.1562 52.2007V60.9935C96.1562 62.2626 97.1573 63.2914 98.3922 63.2914H99.3974C100.632 63.2914 101.633 62.2626 101.633 60.9935V52.2007C101.633 50.9316 100.632 49.9028 99.3974 49.9028Z" fill="#263238"/>
<path fill-rule="evenodd" clip-rule="evenodd" d="M98.0651 50.2557C96.8776 50.2557 95.915 51.1784 95.915 52.3166V60.8776C95.915 62.0158 96.8776 62.9385 98.0651 62.9385H99.1144C100.302 62.9385 101.264 62.0158 101.264 60.8776V52.3166C101.264 51.1784 100.302 50.2557 99.1144 50.2557H98.0651ZM95.5469 52.3166C95.5469 50.9835 96.6743 49.9028 98.0651 49.9028H99.1144C100.505 49.9028 101.633 50.9835 101.633 52.3166V60.8776C101.633 62.2107 100.505 63.2914 99.1144 63.2914H98.0651C96.6743 63.2914 95.5469 62.2107 95.5469 60.8776V52.3166Z" fill="#263238"/>
<path d="M99.1976 49.9028C99.1096 49.9028 99.0177 49.9028 98.9259 49.9028H98.2522C98.1604 49.9028 98.0685 49.9028 97.9805 49.9028V63.2914C98.0685 63.2914 98.1604 63.2914 98.2522 63.2914H98.9259C99.0177 63.2914 99.1096 63.2914 99.1976 63.2914V49.9028Z" fill="white"/>
<path fill-rule="evenodd" clip-rule="evenodd" d="M97.9805 50.0796C97.9805 49.982 98.0457 49.9028 98.1261 49.9028H99.052C99.1324 49.9028 99.1976 49.982 99.1976 50.0796V63.1146C99.1976 63.2122 99.1324 63.2914 99.052 63.2914H98.1261C98.0457 63.2914 97.9805 63.2122 97.9805 63.1146V50.0796ZM98.2717 50.2563V62.9379H98.9062L98.9064 50.2563H98.2717Z" fill="#263238"/>
<path d="M55.2226 60.3273C54.7907 60.3667 54.3753 60.5141 54.0144 60.7561C53.6535 60.9981 53.3585 61.327 53.1562 61.7129C52.3282 63.0984 49.7121 68.2241 49.9869 69.7496C50.2617 71.2751 61.6968 82.0794 61.6968 82.7721C61.6968 83.4649 52.6066 95.9346 46.5428 101.477C40.4791 107.019 35.661 113.25 34.833 118.239C34.005 123.229 36.8994 127.382 39.9331 128.215C42.9667 129.047 46.682 127.245 50.9505 121.84C55.2191 116.434 66.9325 92.8836 68.7241 84.8684C68.7241 84.8684 69.1346 81.2789 67.4821 79.1863C65.8297 77.0936 61.6968 72.2587 61.6968 72.2587C61.6968 72.2587 62.5248 62.7 61.836 62.0072C61.1472 61.3144 60.4583 62.8399 60.4583 62.8399C60.4583 62.8399 59.8195 59.6346 58.9415 59.7889C57.9815 59.9612 57.7031 61.1744 57.7031 61.1744C57.7031 61.1744 57.0143 58.3854 55.2226 60.3273Z" fill="white"/>
<path fill-rule="evenodd" clip-rule="evenodd" d="M57.6469 60.8166C57.6756 60.7565 57.7083 60.6936 57.7453 60.6297C57.945 60.2858 58.2877 59.8898 58.8357 59.7909C59.003 59.7614 59.1557 59.8156 59.2833 59.9077C59.4083 59.998 59.5183 60.1297 59.6151 60.2777C59.8089 60.5739 59.9752 60.975 60.11 61.3682C60.2457 61.7641 60.3533 62.1635 60.4269 62.463C60.4308 62.4791 60.4347 62.495 60.4385 62.5105C60.5018 62.4127 60.5769 62.3081 60.6614 62.2112C60.797 62.0557 60.9739 61.8996 61.1828 61.8402C61.4105 61.7756 61.6454 61.8342 61.8561 62.0472C61.9314 62.1233 61.9781 62.2374 62.0113 62.3509C62.0464 62.4708 62.074 62.6184 62.0961 62.786C62.1402 63.1217 62.1643 63.5574 62.1738 64.0542C62.193 65.0487 62.1542 66.3068 62.0943 67.5397C62.0344 68.7734 61.9532 69.9851 61.8869 70.8882C61.8538 71.3399 61.8244 71.7144 61.8033 71.9762C61.7928 72.107 61.7843 72.2097 61.7785 72.2797L61.7757 72.3121L61.9064 72.4661C62.0215 72.6017 62.1877 72.7978 62.3923 73.0396C62.8014 73.5232 63.3639 74.1897 63.9776 74.9213C65.2043 76.3836 66.6374 78.1087 67.4572 79.1522C68.3069 80.2339 68.6186 81.6891 68.7226 82.8541C68.7748 83.4396 68.7751 83.9586 68.7624 84.3314C68.7561 84.518 68.7464 84.6682 68.7383 84.7722C68.7343 84.8243 68.7306 84.8648 68.7279 84.8925C68.7266 84.9063 68.7255 84.917 68.7247 84.9244L68.7238 84.9328L68.7236 84.9351C68.7236 84.9351 68.7234 84.9361 68.548 84.9157L68.7236 84.9351C68.7228 84.9414 68.7217 84.9487 68.7203 84.9549C67.8285 88.9653 64.4775 96.834 60.8311 104.357C57.1845 111.881 53.2227 119.1 51.0968 121.806C46.866 127.192 43.1226 129.068 40.0086 128.209C36.9035 127.352 34.0021 123.121 34.8337 118.084C35.2499 115.563 36.6644 112.746 38.716 109.877C40.7695 107.005 43.4708 104.068 46.4777 101.306C49.4665 98.5597 53.2082 94.0901 56.2062 90.215C57.7043 88.2787 59.0145 86.4936 59.9496 85.1505C60.4174 84.4787 60.7902 83.919 61.0455 83.5069C61.1734 83.3005 61.2702 83.1337 61.3345 83.0096C61.3667 82.9473 61.3893 82.8987 61.4033 82.8629C61.4078 82.8515 61.4108 82.8428 61.4129 82.8364C61.411 82.8323 61.4084 82.8272 61.4052 82.821C61.3889 82.7902 61.3621 82.7475 61.3228 82.6921C61.2444 82.5816 61.1268 82.4349 60.973 82.2548C60.666 81.8956 60.2254 81.4159 59.6932 80.8522C58.9383 80.0525 58.0036 79.0885 57.0126 78.0664C56.6066 77.6478 56.1912 77.2193 55.7748 76.7884C54.3433 75.3071 52.901 73.7975 51.7992 72.5627C51.2485 71.9456 50.7806 71.3946 50.441 70.9486C50.2713 70.7258 50.1315 70.5265 50.029 70.3565C49.9296 70.1916 49.8543 70.0369 49.8311 69.9074C49.7919 69.6886 49.806 69.4198 49.8536 69.1242C49.9017 68.826 49.9861 68.4886 50.0962 68.1274C50.3163 67.405 50.6431 66.5752 51.0023 65.7537C51.7191 64.1143 52.5725 62.4915 52.9874 61.7929C53.2013 61.3846 53.5124 61.0366 53.8927 60.7803C54.2555 60.5358 54.6703 60.3821 55.1029 60.3315C55.5426 59.867 55.9437 59.6541 56.3115 59.6406C56.6975 59.6264 56.9958 59.8329 57.2114 60.0815C57.4091 60.3096 57.5515 60.5881 57.6469 60.8166ZM68.3735 84.8863C68.3742 84.88 68.3752 84.8704 68.3764 84.8578C68.3789 84.8322 68.3823 84.7939 68.3862 84.7442C68.3939 84.6449 68.4033 84.4999 68.4094 84.3191C68.4218 83.9574 68.4214 83.4536 68.3708 82.8862C68.269 81.7453 67.9661 80.3743 67.1806 79.3742C66.3649 78.336 64.9354 76.6152 63.7082 75.1522C63.0949 74.4211 62.5327 73.755 62.1239 73.2717C61.9194 73.03 61.7533 72.8341 61.6383 72.6986L61.4597 72.4882C61.4597 72.4882 61.4595 72.488 61.5934 72.3716C61.4175 72.3561 61.4175 72.356 61.4175 72.356L61.4177 72.3544L61.4198 72.329L61.4265 72.2496C61.4323 72.1799 61.4408 72.0776 61.4513 71.9471C61.4724 71.6862 61.5017 71.3125 61.5347 70.8618C61.6008 69.9605 61.6818 68.7519 61.7416 67.5222C61.8013 66.2917 61.8396 65.0433 61.8207 64.0611C61.8112 63.5694 61.7875 63.1492 61.7459 62.833C61.7251 62.6747 61.7004 62.5473 61.6726 62.4522C61.643 62.3507 61.6162 62.3097 61.6063 62.2997C61.4761 62.1681 61.3702 62.1579 61.2783 62.184C61.1677 62.2154 61.0464 62.3095 60.9264 62.4473C60.8095 62.5814 60.7097 62.7382 60.6382 62.8643C60.6028 62.9268 60.575 62.9804 60.5562 63.0182C60.5469 63.0371 60.5397 63.0519 60.5351 63.0618L60.53 63.0728L60.5288 63.0753M61.5934 72.3716L61.4175 72.356C61.4134 72.4039 61.4287 72.4517 61.4597 72.4882L61.5934 72.3716ZM68.3735 84.8863C67.489 88.8525 64.1598 96.678 60.5139 104.2C56.8651 111.728 52.9187 118.912 50.8202 121.584C46.6025 126.953 42.9922 128.662 40.1016 127.864C37.2023 127.064 34.3748 123.033 35.1821 118.143C35.5853 115.7 36.9646 112.936 39.0022 110.086C41.0379 107.24 43.7212 104.321 46.7152 101.57C49.7273 98.8025 53.4842 94.313 56.4844 90.435C57.9854 88.4949 59.2993 86.7049 60.2385 85.356C60.7079 84.6818 61.0847 84.1162 61.3448 83.6965C61.4747 83.4869 61.577 83.3112 61.6474 83.1752C61.6825 83.1074 61.7112 83.0466 61.7316 82.9946C61.7494 82.9493 61.77 82.8887 61.77 82.8304C61.77 82.7609 61.7391 82.6953 61.7168 82.6529C61.6902 82.6024 61.6534 82.5454 61.6098 82.484C61.5222 82.3605 61.3965 82.2042 61.2403 82.0214C60.9273 81.6551 60.4817 81.1701 59.9487 80.6056C59.1921 79.8042 58.2548 78.8375 57.2631 77.8147C56.8574 77.3963 56.4427 76.9686 56.0275 76.5389C54.5958 75.0574 53.158 73.5524 52.0614 72.3235C51.5129 71.7088 51.0521 71.1658 50.7208 70.7308C50.5551 70.5131 50.4238 70.3252 50.3306 70.1707C50.2344 70.0111 50.1894 69.904 50.1786 69.8438C50.1499 69.6832 50.1572 69.4608 50.2022 69.1816C50.2469 68.905 50.3265 68.5844 50.4337 68.2326C50.6482 67.529 50.9689 66.7134 51.3253 65.8981C52.0384 64.2673 52.8872 62.6546 53.2927 61.9726C53.2944 61.9698 53.296 61.9669 53.2975 61.9639C53.484 61.6064 53.7559 61.3016 54.0886 61.0774C54.4213 60.8532 54.8041 60.7166 55.2023 60.6801C55.2457 60.6761 55.2862 60.6561 55.3158 60.6238C55.7445 60.1566 56.0785 60.0065 56.3244 59.9974C56.5648 59.9886 56.7694 60.1134 56.9458 60.3169C57.123 60.5213 57.2547 60.7866 57.3431 61.0084C57.3867 61.118 57.4187 61.2141 57.4397 61.2824C57.4501 61.3166 57.4578 61.3436 57.4628 61.3619C57.4653 61.371 57.4671 61.3779 57.4683 61.3823L57.4695 61.3871C57.4892 61.4672 57.5609 61.5242 57.6426 61.5235C57.7243 61.5229 57.7948 61.4656 57.8132 61.3852L57.8135 61.3837L57.8155 61.3757C57.8174 61.3683 57.8204 61.3568 57.8246 61.3417C57.8331 61.3116 57.8465 61.2674 57.8654 61.2135C57.9034 61.1052 57.9632 60.9599 58.0499 60.8105C58.2254 60.5082 58.4955 60.2152 58.8974 60.1425" fill="#263238"/>
<path fill-rule="evenodd" clip-rule="evenodd" d="M60.135 62.6882C60.216 62.7124 60.2652 62.8106 60.245 62.9076L60.0983 62.8637L59.9516 62.8198C59.9718 62.7229 60.0539 62.664 60.135 62.6882ZM60.0983 62.8637C59.9516 62.8198 59.9516 62.8198 59.9516 62.8198L59.9327 62.9106C59.9205 62.9698 59.9025 63.0568 59.8798 63.168C59.8342 63.3902 59.7693 63.7092 59.692 64.0962C59.5374 64.8701 59.3328 65.9163 59.1333 67.0051C58.9339 68.0935 58.7392 69.2263 58.6045 70.1728C58.5372 70.6459 58.4846 71.0745 58.4539 71.4289C58.4237 71.7781 58.4132 72.0713 58.4366 72.2648C58.4485 72.3637 58.5252 72.4322 58.6078 72.418C58.6905 72.4037 58.7478 72.3119 58.7359 72.2131C58.7184 72.0682 58.7246 71.8147 58.7547 71.4662C58.7844 71.1228 58.8359 70.7028 58.9027 70.2335C59.0362 69.2952 59.2297 68.1688 59.4287 67.0826C59.6277 65.9967 59.8318 64.9529 59.9861 64.1803C60.0633 63.7941 60.128 63.4758 60.1735 63.2541C60.1962 63.1433 60.2141 63.0566 60.2263 62.9976L60.245 62.9076C60.245 62.9075 60.245 62.9076 60.0983 62.8637Z" fill="#263238"/>
<path fill-rule="evenodd" clip-rule="evenodd" d="M57.6733 60.8635C57.7766 60.8902 57.8376 60.9915 57.8094 61.0897L57.6224 61.0413L57.4353 60.9929C57.4635 60.8947 57.57 60.8367 57.6733 60.8635ZM54.8678 70.0488C55.014 69.493 55.6562 67.2279 56.261 65.1048C56.5637 64.0422 56.8573 63.0142 57.0752 62.2519C57.1841 61.8708 57.2742 61.556 57.337 61.3365L57.4353 60.9929C57.4354 60.9928 57.4353 60.9929 57.6224 61.0413C57.8094 61.0897 57.8094 61.0896 57.8094 61.0897L57.7111 61.4333C57.6483 61.6527 57.5583 61.9675 57.4493 62.3486C57.2314 63.1108 56.9379 64.1387 56.6352 65.2011C56.0296 67.3273 55.3886 69.588 55.2438 70.1386L55.2436 70.1394C55.1534 70.4765 55.137 70.8278 55.1954 71.1712C55.2539 71.5147 55.3859 71.8431 55.5834 72.136C55.6412 72.2217 55.615 72.3357 55.5248 72.3906C55.4347 72.4455 55.3148 72.4206 55.257 72.3349C55.0309 71.9994 54.8796 71.6234 54.8127 71.2301C54.7458 70.8369 54.7646 70.4348 54.8678 70.0488Z" fill="#263238"/>
<path fill-rule="evenodd" clip-rule="evenodd" d="M55.2516 60.2591C55.3538 60.2928 55.4069 60.3962 55.3703 60.4902L55.1853 60.4292C55.3703 60.4902 55.3703 60.4901 55.3703 60.4902L55.3338 60.5841C55.3099 60.6454 55.275 60.7355 55.2305 60.8506C55.1414 61.0807 55.0142 61.4104 54.8615 61.8088C54.5562 62.6056 54.1492 63.6771 53.7422 64.776C53.3351 65.8752 52.9285 67.0006 52.6238 67.9057C52.4714 68.3584 52.3451 68.7542 52.2571 69.0634C52.2131 69.2181 52.1791 69.3493 52.1563 69.4542C52.1327 69.5624 52.1235 69.6318 52.1235 69.6678C52.1235 70.0697 52.2942 70.532 52.4759 70.9062C52.5655 71.0907 52.6552 71.2486 52.7224 71.3603C52.756 71.4161 52.7838 71.4602 52.8031 71.49C52.8128 71.5049 52.8202 71.5163 52.8252 71.5238L52.8308 71.5321L52.832 71.5339L52.8323 71.5343C52.8323 71.5343 52.8323 71.5343 52.8323 71.5343C52.89 71.6188 52.8624 71.7304 52.7705 71.7835C52.6786 71.8366 52.5573 71.8112 52.4995 71.7267L52.6658 71.6305C52.4995 71.7267 52.4996 71.7267 52.4995 71.7267L52.4993 71.7263L52.4987 71.7255L52.4968 71.7227L52.49 71.7125C52.4842 71.7037 52.4758 71.691 52.4652 71.6746C52.4441 71.6419 52.4142 71.5947 52.3785 71.5354C52.3072 71.4169 52.2122 71.2495 52.117 71.0536C51.9293 70.6669 51.7305 70.1478 51.7305 69.6678C51.7305 69.5936 51.7467 69.4943 51.7709 69.3833C51.7958 69.2688 51.8318 69.1301 51.8769 68.9719C51.967 68.6552 52.0953 68.2535 52.2484 67.7988C52.5547 66.8889 52.9626 65.7597 53.3701 64.6595C53.7777 63.559 54.1852 62.4862 54.4908 61.6886C54.6437 61.2898 54.771 60.9598 54.8602 60.7294C54.9047 60.6142 54.9398 60.5239 54.9637 60.4624L55.0002 60.3686C55.0002 60.3685 55.0003 60.3682 55.1767 60.4263L55.0003 60.3682C55.037 60.2742 55.1495 60.2254 55.2516 60.2591Z" fill="#263238"/>
<path d="M52.3766 94.9369C50.5157 97.2172 48.5206 99.3799 46.4024 101.413C40.407 106.965 35.6495 113.214 34.8313 118.215C34.0131 123.217 36.8732 127.379 39.8709 128.214C42.8686 129.049 46.5399 127.243 50.7579 121.824C53.1878 118.708 58.0476 109.57 62.0751 100.837C55.9386 99.1752 53.4064 96.5847 52.3766 94.9369Z" fill="#92E3A9"/>
<path fill-rule="evenodd" clip-rule="evenodd" d="M52.729 94.9372C52.7857 94.9408 52.8372 94.9713 52.8678 95.0192C53.8786 96.6049 56.3927 99.1452 62.5514 100.781C62.6024 100.794 62.6447 100.83 62.667 100.877C62.6893 100.925 62.6892 100.981 62.6667 101.028C60.633 105.351 58.389 109.774 56.3463 113.503C54.3057 117.229 52.46 120.272 51.2233 121.827C46.9598 127.196 43.1876 129.066 40.0497 128.209C36.9206 127.355 33.9968 123.137 34.8348 118.116C35.2542 115.603 36.6787 112.794 38.7457 109.934C40.8144 107.071 43.536 104.143 46.5675 101.391C48.6996 99.3851 50.7078 97.251 52.5809 95.001C52.6173 94.9573 52.6723 94.9337 52.729 94.9372ZM52.701 95.4125C50.8622 97.6065 48.8952 99.69 46.8102 101.652L46.8079 101.654L46.8079 101.654C43.7891 104.394 41.0851 107.304 39.0342 110.142C36.9813 112.983 35.5922 115.74 35.1859 118.175C34.3723 123.049 37.2217 127.068 40.1434 127.866C43.0562 128.661 46.6943 126.958 50.9446 121.605L50.9447 121.605C52.1603 120.077 53.9931 117.058 56.0341 113.332C58.0427 109.666 60.2472 105.324 62.254 101.069C56.417 99.4796 53.8323 97.0682 52.701 95.4125Z" fill="#263238"/>
<path d="M66.3744 43.2745C66.3744 43.2745 66.1326 62.4917 66.8616 66.097C67.5906 69.7022 74.1336 75.8254 81.6582 76.065C89.1828 76.3047 95.1123 69.459 95.8377 65.8537C96.5631 62.2485 95.8377 47.8382 95.7186 42.0727C95.5995 36.3072 87.234 31.1425 78.7566 32.4623C70.2793 33.7821 65.8908 38.7071 66.3744 43.2745Z" fill="white"/>
<path fill-rule="evenodd" clip-rule="evenodd" d="M90.3533 34.6159C93.5096 36.4644 95.6632 39.2218 95.7238 42.167C95.7504 43.4597 95.8076 45.1914 95.8721 47.1402C95.8788 47.3446 95.8857 47.5514 95.8925 47.7602C95.9651 49.9603 96.0433 52.3958 96.0955 54.7645C96.1477 57.133 96.1738 59.4362 96.142 61.3718C96.1103 63.3027 96.0208 64.8818 95.838 65.7938C95.4691 67.6345 93.7946 70.2584 91.2934 72.3883C88.7871 74.5225 85.422 76.1857 81.6476 76.065C77.8844 75.9447 74.3747 74.3485 71.7176 72.3371C70.3883 71.3308 69.2686 70.2178 68.4345 69.1279C67.6021 68.0404 67.0462 66.9655 66.8588 66.0352C66.6753 65.1242 66.5551 63.2469 66.4763 60.9606C66.3974 58.6682 66.3597 55.9484 66.3445 53.3415C66.3294 50.7343 66.3367 48.2391 66.3479 46.3958C66.3534 45.4741 66.36 44.7153 66.3651 44.1869C66.3676 43.9227 66.3699 43.7161 66.3714 43.5756L66.3738 43.3707C65.8889 38.7029 70.3502 33.7769 78.7587 32.4628C82.9894 31.8015 87.1913 32.7642 90.3533 34.6159ZM66.5522 43.3626L66.7305 43.3648C66.7306 43.3579 66.7303 43.351 66.7295 43.3441C66.2666 38.9543 70.4768 34.1163 78.8141 32.8132C82.9594 32.1653 87.0782 33.1096 90.1724 34.9217C93.2722 36.7371 95.3102 39.4006 95.3673 42.1742C95.3939 43.4693 95.4513 45.2032 95.5156 47.151C95.5224 47.3557 95.5293 47.5627 95.5362 47.7719C95.6087 49.972 95.6869 52.4057 95.739 54.7723C95.7911 57.1391 95.8172 59.4371 95.7855 61.366C95.7537 63.2997 95.6639 64.8483 95.4884 65.7244C95.1406 67.4597 93.5275 70.0189 91.0615 72.1188C88.6007 74.2143 85.3192 75.8274 81.659 75.7104C77.9875 75.593 74.5475 74.0335 71.9335 72.0547C70.6272 71.0659 69.531 69.9751 68.7181 68.913C67.9035 67.8485 67.3812 66.8232 67.2084 65.9655C67.0318 65.0885 66.9117 63.242 66.8327 60.9485C66.7539 58.661 66.7162 55.9449 66.7011 53.3394C66.6859 50.7341 66.6933 48.2404 66.7044 46.3979C66.71 45.4767 66.7165 44.7184 66.7216 44.1904C66.7242 43.9264 66.7264 43.7199 66.728 43.5795L66.7305 43.3648C66.7305 43.3647 66.7305 43.3648 66.5522 43.3626Z" fill="#263238"/>
<path fill-rule="evenodd" clip-rule="evenodd" d="M84.6509 51.1216C84.7464 51.1085 84.8349 51.1724 84.8485 51.2644L84.6756 51.2882L84.5026 51.3119C84.489 51.2199 84.5554 51.1347 84.6509 51.1216ZM84.6756 51.2882C84.5026 51.3119 84.5026 51.3119 84.5026 51.3119L84.504 51.3213L84.5081 51.3482C84.5117 51.3718 84.5169 51.4063 84.5238 51.4505C84.5376 51.5388 84.5579 51.6656 84.5836 51.8198C84.6351 52.1281 84.7087 52.5465 84.7971 52.9865C84.8855 53.4261 84.9892 53.8895 85.101 54.2869C85.2106 54.6763 85.3343 55.0268 85.4705 55.2221C85.5074 55.275 85.545 55.3275 85.5827 55.3801C85.6712 55.5036 85.76 55.6275 85.8401 55.7576C85.9531 55.9415 86.0348 56.1171 86.0593 56.2828C86.0827 56.4416 86.0544 56.5943 85.9379 56.7463C85.8169 56.904 85.5917 57.0724 85.1973 57.2352C84.4164 57.5575 83.7319 57.5249 83.2511 57.3321C82.7616 57.1359 82.5057 56.7887 82.5057 56.4846C82.5057 56.3916 82.4275 56.3163 82.331 56.3163C82.2345 56.3163 82.1562 56.3916 82.1562 56.4846C82.1562 56.9713 82.5485 57.415 83.1169 57.6428C83.6939 57.8742 84.477 57.8987 85.3349 57.5446C85.7598 57.3692 86.047 57.1703 86.2189 56.9462C86.3952 56.7164 86.4403 56.4729 86.4052 56.2354C86.3711 56.0047 86.2624 55.784 86.1407 55.5861C86.0542 55.4454 85.9541 55.3057 85.8629 55.1784C85.8269 55.1283 85.7923 55.08 85.7605 55.0344C85.6608 54.8914 85.5491 54.5929 85.4383 54.1988C85.3296 53.8128 85.2278 53.3584 85.1402 52.9225C85.0526 52.4871 84.9797 52.0724 84.9286 51.7663C84.9031 51.6134 84.883 51.4877 84.8694 51.4004C84.8626 51.3567 84.8573 51.3226 84.8538 51.2995L84.8498 51.2732L84.8485 51.2644L84.6756 51.2882Z" fill="#263238"/>
<path d="M86.4176 62.973C86.4176 62.973 80.0973 63.8373 77.2891 60.8569C77.2891 60.8569 77.9859 65.4877 80.0973 66.2402C82.2087 66.9927 86.4176 62.973 86.4176 62.973Z" fill="white"/>
<path fill-rule="evenodd" clip-rule="evenodd" d="M77.3808 60.8762C77.4458 60.8417 77.525 60.8544 77.5769 60.9076C78.8923 62.2563 81.0506 62.7486 82.9151 62.8945C83.842 62.9671 84.6854 62.9533 85.2972 62.9213C85.6029 62.9053 85.8504 62.8848 86.0212 62.8683C86.1065 62.8601 86.1726 62.8528 86.2172 62.8477C86.2395 62.8451 86.2564 62.8431 86.2676 62.8417L86.2802 62.8401L86.2832 62.8397L86.2839 62.8396L86.3054 63.0126C86.3268 63.1856 86.3268 63.1856 86.3267 63.1856L86.3254 63.1858L86.3217 63.1863L86.3078 63.188C86.2957 63.1895 86.2779 63.1917 86.2547 63.1944C86.2082 63.1997 86.14 63.2072 86.0526 63.2156C85.9777 63.2228 85.8886 63.2308 85.7868 63.2388C85.6509 63.2495 85.4922 63.2604 85.3143 63.2697C84.6924 63.3022 83.8343 63.3163 82.8896 63.2424C81.173 63.108 79.1336 62.6804 77.7217 61.5079C77.7332 61.5618 77.7459 61.6192 77.7598 61.6798C77.854 62.0926 78.0004 62.6491 78.2095 63.2262C78.419 63.8043 78.6891 64.3968 79.0283 64.8853C79.3683 65.3749 79.7681 65.7462 80.2331 65.9063C80.6896 66.0635 81.2832 65.9767 81.9421 65.7273C82.5956 65.4798 83.2855 65.083 83.9182 64.66C84.5499 64.2377 85.1191 63.7929 85.5307 63.4534C85.6247 63.3758 85.7105 63.3038 85.7868 63.2388M77.4579 61.0313L77.2912 61.0591C77.2796 60.9845 77.3158 60.9107 77.3808 60.8762M77.4579 61.0313C77.2912 61.0591 77.2912 61.059 77.2912 61.0591L77.2914 61.0601L77.2918 61.0628L77.2934 61.0728C77.2948 61.0814 77.2969 61.0941 77.2997 61.1105C77.3053 61.1433 77.3137 61.1912 77.3252 61.2522C77.348 61.3741 77.3828 61.5485 77.4311 61.7598C77.5275 62.1821 77.6777 62.7536 77.8933 63.3485C78.1085 63.9424 78.3909 64.5659 78.7539 65.0886C79.1161 65.6102 79.5681 66.045 80.1263 66.2372C80.693 66.4323 81.3767 66.3128 82.0583 66.0548C82.7451 65.7947 83.4588 65.3827 84.1017 64.9528C84.7456 64.5223 85.3242 64.0701 85.7414 63.726C85.9501 63.5538 86.1188 63.4084 86.2355 63.3058C86.2939 63.2545 86.3392 63.214 86.3701 63.1861C86.3856 63.1722 86.3974 63.1614 86.4054 63.1541L86.4146 63.1457L86.417 63.1435L86.4176 63.143C86.4177 63.1429 86.4179 63.1427 86.3054 63.0126" fill="#263238"/>
<path fill-rule="evenodd" clip-rule="evenodd" d="M78.0578 51.1264C78.1774 51.1028 78.3048 51.1449 78.3423 51.2204L79.1052 52.7595C79.1426 52.835 79.0759 52.9154 78.9563 52.939C78.8366 52.9626 78.7092 52.9206 78.6718 52.845L77.9089 51.306C77.8714 51.2305 77.9381 51.1501 78.0578 51.1264Z" fill="#263238"/>
<path fill-rule="evenodd" clip-rule="evenodd" d="M75.2499 52.6912C75.0377 52.9897 75.0379 52.9899 75.0381 52.99L75.0386 52.9902L75.0397 52.9909L75.0423 52.9924L75.0497 52.9965C75.0556 52.9997 75.0633 53.0038 75.0729 53.0088C75.092 53.0188 75.1184 53.0322 75.1522 53.0482C75.2198 53.0802 75.3166 53.1227 75.4421 53.1695C75.6933 53.2631 76.0594 53.374 76.5359 53.4525C77.4912 53.6101 78.8794 53.6363 80.662 53.1467C80.8703 53.0895 80.9875 52.8915 80.9238 52.7045C80.8601 52.5175 80.6396 52.4122 80.4313 52.4694C78.7708 52.9254 77.5106 52.8932 76.6784 52.7559C76.2611 52.6871 75.9485 52.5914 75.7446 52.5154C75.6425 52.4773 75.5676 52.4442 75.5204 52.4218C75.4967 52.4106 75.48 52.4021 75.4703 52.397C75.4654 52.3945 75.4623 52.3928 75.4609 52.392M75.4604 52.3917C75.277 52.2878 75.0343 52.3363 74.9175 52.5007C74.8003 52.6655 74.8541 52.8845 75.0377 52.9897L75.2499 52.6912" fill="#263238"/>
<path fill-rule="evenodd" clip-rule="evenodd" d="M89.6203 51.1264C89.7399 51.1028 89.8673 51.1449 89.9047 51.2204L90.6677 52.7595C90.7051 52.835 90.6384 52.9154 90.5188 52.939C90.3991 52.9626 90.2717 52.9206 90.2343 52.845L89.4714 51.306C89.4339 51.2305 89.5006 51.1501 89.6203 51.1264Z" fill="#263238"/>
<path fill-rule="evenodd" clip-rule="evenodd" d="M87.3821 52.6912C87.1913 52.9897 87.1914 52.9899 87.1916 52.99L87.1921 52.9902L87.193 52.9909L87.1954 52.9924L87.2021 52.9965C87.2074 52.9997 87.2143 53.0038 87.2229 53.0088C87.2401 53.0188 87.2639 53.0322 87.2943 53.0482C87.355 53.0802 87.4421 53.1227 87.5551 53.1695C87.7811 53.2632 88.1104 53.374 88.5392 53.4526C89.3989 53.6101 90.6483 53.6363 92.2533 53.1468C92.4406 53.0896 92.5461 52.8917 92.4889 52.7046C92.4317 52.5176 92.2334 52.4123 92.046 52.4694C90.5507 52.9255 89.4163 52.8932 88.6673 52.7559C88.2918 52.6871 88.0105 52.5914 87.827 52.5154C87.7352 52.4773 87.6679 52.4442 87.6253 52.4218C87.6041 52.4106 87.5891 52.4021 87.5803 52.397C87.5759 52.3945 87.5731 52.3928 87.5719 52.392M87.5714 52.3917C87.4064 52.2878 87.1882 52.3363 87.0831 52.5007C86.9777 52.6655 87.0261 52.8845 87.1913 52.9897L87.3821 52.6912" fill="#263238"/>
<path fill-rule="evenodd" clip-rule="evenodd" d="M79.9537 45.7065C78.9782 45.7064 78.0159 45.9084 77.1434 46.2964C76.2708 46.6845 75.5118 47.2481 74.9265 47.9424C74.8013 48.0909 74.5644 48.1211 74.3974 48.0097C74.2303 47.8983 74.1965 47.6875 74.3217 47.539C74.9773 46.7611 75.8277 46.1298 76.8053 45.695C77.7829 45.2602 78.8609 45.0339 79.9539 45.0341C80.1626 45.0341 80.3318 45.1846 80.3318 45.3703C80.3318 45.556 80.1625 45.7065 79.9537 45.7065Z" fill="#263238"/>
<path fill-rule="evenodd" clip-rule="evenodd" d="M86.1622 44.4255C85.906 44.5163 85.7555 44.8574 85.826 45.1873C85.8964 45.5171 86.1611 45.7109 86.4172 45.6204" fill="#263238"/>
<path fill-rule="evenodd" clip-rule="evenodd" d="M78.5889 48.4556C78.5888 48.4556 78.5889 48.4556 78.5889 48.4556L75.2771 48.6793C74.6587 48.721 74.0634 48.9478 73.5584 49.334C73.0534 49.7203 72.6587 50.2506 72.4188 50.8653C72.2193 51.3765 72.1327 51.9306 72.1659 52.4839C72.199 53.0373 72.351 53.5748 72.6098 54.0543C72.9658 54.7142 73.4767 55.2619 74.0912 55.6427C74.7058 56.0235 75.4025 56.224 76.1116 56.2241C76.1117 56.2241 76.1116 56.2241 76.1116 56.2241H76.8392C77.7299 56.2242 78.6059 55.98 79.3846 55.5148C80.1633 55.0495 80.8189 54.3784 81.2896 53.5648L81.2903 53.5636L81.3552 53.4533C81.3554 53.4531 81.3555 53.4528 81.3557 53.4526C81.647 52.9467 81.8046 52.3649 81.8115 51.7699C81.8184 51.1746 81.6743 50.5885 81.3946 50.0747L81.5441 49.9805L81.3942 50.0741C81.1121 49.551 80.7003 49.1226 80.2049 48.8368C79.7095 48.551 79.1499 48.4191 78.5889 48.4556ZM81.6936 49.8865C81.3792 49.3039 80.9205 48.8267 80.3686 48.5083C79.8166 48.1898 79.1931 48.0428 78.5679 48.0836L78.5675 48.0836L75.2554 48.3072C75.2554 48.3072 75.2554 48.3072 75.2554 48.3072C74.5726 48.3533 73.9153 48.6037 73.3577 49.0302C72.8 49.4567 72.3642 50.0423 72.0993 50.721C71.8791 51.2854 71.7835 51.8971 71.8201 52.5079C71.8567 53.1188 72.0245 53.7122 72.3102 54.2415M81.6936 49.8865C82.0051 50.4587 82.1656 51.1115 82.1579 51.7746C82.1502 52.4377 81.9745 53.086 81.6497 53.6497L81.6488 53.6512L81.5837 53.7618C81.5836 53.762 81.5835 53.7622 81.5834 53.7624C81.0816 54.6295 80.3827 55.3447 79.5528 55.8406C78.7227 56.3367 77.7888 56.5969 76.8392 56.5969H76.1116C75.3418 56.5967 74.5855 56.3791 73.9183 55.9657C73.2512 55.5524 72.6967 54.9578 72.3102 54.2415" fill="#263238"/>
<path fill-rule="evenodd" clip-rule="evenodd" d="M86.9927 48.5084C87.5451 48.19 88.1689 48.0429 88.7944 48.0835L88.7949 48.0835L92.1031 48.3072C92.1031 48.3072 92.1031 48.3072 92.1031 48.3072C92.7859 48.3533 93.4431 48.6037 94.0007 49.0302C94.5582 49.4566 94.994 50.0422 95.2588 50.7209C95.4799 51.2852 95.5759 51.897 95.5393 52.508C95.5027 53.1191 95.3344 53.7126 95.0479 54.2417C94.6614 54.9579 94.107 55.5524 93.4401 55.9657C92.773 56.3791 92.0168 56.5967 91.247 56.5969H90.5196C89.5701 56.5969 88.6363 56.3367 87.8063 55.8406C86.9764 55.3447 86.2777 54.6295 85.7759 53.7624L85.7096 53.6497C85.3848 53.086 85.2092 52.4377 85.2014 51.7745C85.1937 51.1115 85.3542 50.4587 85.6657 49.8865C85.9809 49.3038 86.4403 48.8267 86.9927 48.5084ZM85.8152 49.9805L85.9647 50.0747C85.685 50.5884 85.5409 51.1745 85.5478 51.7699C85.5548 52.3649 85.7123 52.9467 86.0036 53.4525L86.0697 53.5648C86.5403 54.3784 87.1959 55.0495 87.9744 55.5147C88.753 55.98 89.6289 56.2242 90.5195 56.2241H91.247C91.247 56.2241 91.247 56.2241 91.247 56.2241C91.9561 56.224 92.6527 56.0235 93.2672 55.6427C93.8816 55.2619 94.3924 54.7142 94.7484 54.0543C95.0079 53.5752 95.1604 53.0374 95.1936 52.484C95.2267 51.9306 95.1397 51.3765 94.9395 50.8655C94.6997 50.2508 94.3049 49.7202 93.7999 49.334C93.295 48.9477 92.6998 48.721 92.0814 48.6792L88.7736 48.4556C88.7735 48.4556 88.7736 48.4556 88.7736 48.4556C88.2121 48.4192 87.6521 48.5512 87.1562 48.837C86.6603 49.1227 86.2479 49.5511 85.9649 50.0742L85.8152 49.9805Z" fill="#263238"/>
<path fill-rule="evenodd" clip-rule="evenodd" d="M82.4089 51.0568L82.4087 51.057L82.4085 51.0573L82.4084 51.0576C82.4084 51.0576 82.4086 51.0572 82.409 51.0567C82.4099 51.0554 82.4116 51.0529 82.4143 51.0494C82.4196 51.0422 82.4284 51.0306 82.4407 51.0156C82.4654 50.9855 82.5041 50.9418 82.5566 50.8923C82.6616 50.7933 82.8219 50.6713 83.0364 50.5895C83.4636 50.4266 84.1148 50.4196 84.9834 51.0976C85.0633 51.16 85.1546 51.0873 85.1874 50.9352C85.2201 50.7831 85.1819 50.6092 85.102 50.5469C84.1786 49.826 83.4648 49.819 82.975 50.0058C82.731 50.0988 82.5447 50.2391 82.4178 50.3588C82.3544 50.4186 82.3058 50.4732 82.2721 50.5142C82.2553 50.5347 82.2422 50.5518 82.2329 50.5644C82.2282 50.5707 82.2245 50.5759 82.2217 50.5799L82.2183 50.5849L82.2171 50.5867L82.2166 50.5874L82.2164 50.5877C82.2163 50.5878 82.2162 50.5879 82.3126 50.8222L82.2162 50.5879C82.1482 50.6893 82.1363 50.8764 82.1895 51.0058C82.2427 51.1351 82.3409 51.1579 82.4089 51.0568Z" fill="#263238"/>
<path fill-rule="evenodd" clip-rule="evenodd" d="M80.332 48.99C80.332 48.8219 80.4101 48.6857 80.5063 48.6857H86.2435C86.3397 48.6857 86.4177 48.8219 86.4177 48.99C86.4177 49.158 86.3397 49.2942 86.2435 49.2942H80.5063C80.4101 49.2942 80.332 49.158 80.332 48.99Z" fill="#263238"/>
<path fill-rule="evenodd" clip-rule="evenodd" d="M66.3359 50.8156C66.3359 50.6476 66.4175 50.5114 66.518 50.5114H72.2395C72.3401 50.5114 72.4216 50.6476 72.4216 50.8156C72.4216 50.9837 72.3401 51.1199 72.2395 51.1199H66.518C66.4175 51.1199 66.3359 50.9837 66.3359 50.8156Z" fill="#263238"/>
<path d="M87.7527 38.1338C87.7527 38.1338 90.8477 47.9696 95.5473 50.5112C95.4441 47.1388 95.3231 43.9705 95.2805 41.9181C95.1595 36.2434 86.9166 31.16 78.5599 32.459C70.2032 33.758 65.895 38.6055 66.3717 43.101C66.3717 43.101 66.3326 46.1883 66.3362 50.1064C70.3704 48.385 80.9933 43.5903 87.7527 38.1338Z" fill="#263238"/>
<path fill-rule="evenodd" clip-rule="evenodd" d="M90.0185 32.3093C90.087 32.3818 90.0862 32.4985 90.0166 32.5699C85.7898 36.9112 79.7747 40.7846 74.8255 43.5698C72.3492 44.9633 70.1365 46.0863 68.5427 46.8609C67.7457 47.2482 67.1034 47.5485 66.6601 47.752C66.4385 47.8538 66.2666 47.9314 66.15 47.9836C66.0917 48.0097 66.0472 48.0294 66.0173 48.0427L65.9833 48.0577L65.9747 48.0615L65.9719 48.0627C65.9718 48.0627 65.9717 48.0628 65.9033 47.8928C65.835 47.7228 65.835 47.7228 65.8351 47.7227L65.8377 47.7216L65.846 47.718L65.8792 47.7033C65.9087 47.6902 65.9527 47.6707 66.0106 47.6448C66.1262 47.5931 66.2971 47.5159 66.5177 47.4146C66.9589 47.212 67.5989 46.9128 68.3933 46.5267C69.9823 45.7544 72.1887 44.6348 74.6576 43.2454C79.5988 40.4647 85.5782 36.6111 89.7686 32.3073C89.8381 32.2358 89.95 32.2367 90.0185 32.3093ZM65.7403 47.9641C65.7026 47.8702 65.7451 47.7621 65.8351 47.7227L65.9033 47.8928L65.9719 48.0627C65.8819 48.102 65.7781 48.0579 65.7403 47.9641Z" fill="#737373"/>
<path fill-rule="evenodd" clip-rule="evenodd" d="M90.6231 28.6512C90.694 28.7182 90.6969 28.8297 90.6296 28.9002C85.8825 33.8708 79.4028 37.2935 74.1202 39.4725C71.4773 40.5627 69.1303 41.3431 67.4437 41.851C66.6003 42.105 65.9219 42.2909 65.4539 42.4134C65.22 42.4747 65.0386 42.5201 64.9155 42.5502C64.854 42.5653 64.807 42.5765 64.7753 42.584L64.7394 42.5925L64.7301 42.5946L64.7271 42.5953C64.7269 42.5954 64.7268 42.5954 64.687 42.4237C64.6471 42.2521 64.6472 42.2521 64.6473 42.2521L64.6498 42.2515L64.6584 42.2495L64.6932 42.2413C64.724 42.234 64.7701 42.223 64.8308 42.2081C64.9521 42.1784 65.1316 42.1335 65.3637 42.0727C65.8278 41.9512 66.5021 41.7665 67.3409 41.5138C69.0188 41.0085 71.3544 40.232 73.9844 39.1471C79.2477 36.976 85.675 33.5763 90.3726 28.6577C90.4399 28.5871 90.5521 28.5842 90.6231 28.6512ZM64.5143 42.4634C64.4923 42.3686 64.5519 42.274 64.6473 42.2521L64.687 42.4237L64.7271 42.5953C64.6317 42.6172 64.5363 42.5582 64.5143 42.4634Z" fill="#737373"/>
<path fill-rule="evenodd" clip-rule="evenodd" d="M90.9722 33.4718C91.1401 33.4591 91.2816 33.7107 91.2883 34.0337C91.2883 34.0338 91.2883 34.0339 91.2883 34.034L90.9841 34.057C91.2883 34.034 91.2883 34.0338 91.2883 34.0337M90.9841 34.057L90.6799 34.0799C90.6733 33.7567 90.8042 33.4844 90.9722 33.4718" fill="#737373"/>
<path d="M89.3681 74.0646C89.3681 74.0646 89.3681 78.4068 86.0804 85.3265C82.7927 92.2462 82.6523 99.1659 84.8453 104.321C87.0382 109.476 92.933 111.515 99.2491 109.209C105.565 106.902 106.375 96.5884 105.691 90.346C105.007 84.1037 98.8494 76.7776 97.4666 73.1127C96.0838 69.4479 95.1368 67.5513 95.1368 67.5513C95.1368 67.5513 91.5718 72.4354 89.3752 73.5191L89.3681 74.0646Z" fill="#263238"/>
<path fill-rule="evenodd" clip-rule="evenodd" d="M91.3403 69.3785C91.4408 69.3657 91.533 69.4338 91.5463 69.5306C92.3582 75.437 91.5452 81.4454 89.1887 86.9536L89.1885 86.9543C87.2472 91.4436 87.0212 96.0885 87.8452 99.857C88.6719 103.637 90.5431 106.491 92.7472 107.461C97.2637 109.448 101.591 108.687 103.739 106.006C103.8 105.929 103.916 105.915 103.996 105.975C104.076 106.034 104.091 106.145 104.029 106.223C101.743 109.075 97.21 109.813 92.5948 107.782C90.2331 106.743 88.3221 103.753 87.4861 99.93C86.6475 96.0953 86.8784 91.3773 88.8495 86.8186C91.1814 81.3677 91.9859 75.422 91.1825 69.5771C91.1692 69.4802 91.2398 69.3913 91.3403 69.3785Z" fill="#737373"/>
<path fill-rule="evenodd" clip-rule="evenodd" d="M93.2195 66.9569C93.3081 66.9184 93.4104 66.9606 93.4481 67.0512L93.2876 67.1209L93.1272 67.1906C93.0896 67.1 93.1309 66.9954 93.2195 66.9569ZM108.153 102.087C108.289 102.199 108.289 102.199 108.289 102.199L108.288 102.2L108.286 102.203L108.278 102.212C108.272 102.22 108.262 102.231 108.25 102.246C108.226 102.275 108.19 102.316 108.142 102.367C108.047 102.47 107.907 102.614 107.722 102.78C107.353 103.111 106.807 103.532 106.094 103.893C104.664 104.617 102.571 105.096 99.9197 104.137C97.2264 103.162 95.7223 100.195 95.1001 96.5831C94.476 92.9597 94.7261 88.6253 95.5966 84.8076C96.4535 81.05 95.8418 76.6515 95.0075 73.1776C94.591 71.4434 94.1205 69.9456 93.7542 68.8814C93.571 68.3494 93.414 67.926 93.3029 67.6359C93.2474 67.4909 93.2033 67.3792 93.1732 67.3039C93.1581 67.2663 93.1466 67.2378 93.1388 67.2188L93.13 67.1974L93.1279 67.1922L93.1274 67.1909C93.1273 67.1909 93.1272 67.1906 93.2876 67.1209C93.4481 67.0512 93.448 67.0511 93.4481 67.0512L93.4489 67.0533L93.4513 67.0591L93.4605 67.0815C93.4686 67.1013 93.4805 67.1306 93.4959 67.169C93.5266 67.2458 93.5713 67.3592 93.6275 67.506C93.74 67.7995 93.8984 68.2268 94.083 68.7631C94.4522 69.8355 94.9263 71.3447 95.3461 73.0926C96.1843 76.5826 96.812 81.0477 95.9362 84.8885C95.074 88.6693 94.8291 92.9543 95.4435 96.5213C96.0598 100.099 97.5278 102.893 100.036 103.801C102.587 104.724 104.581 104.261 105.939 103.574C106.619 103.229 107.141 102.827 107.492 102.512C107.668 102.354 107.8 102.218 107.888 102.123C107.933 102.075 107.965 102.037 107.987 102.012C107.992 102.006 107.996 102.001 108 101.996C108.005 101.991 108.008 101.987 108.011 101.983L108.016 101.977L108.018 101.975C108.018 101.975 108.018 101.975 108.018 101.975C108.018 101.975 108.018 101.975 108.153 102.087ZM108.153 102.087L108.289 102.199C108.349 102.123 108.338 102.01 108.263 101.948C108.188 101.887 108.078 101.899 108.018 101.975" fill="#737373"/>
<path fill-rule="evenodd" clip-rule="evenodd" d="M98.1152 73.6428C98.2117 73.6177 98.3105 73.6744 98.336 73.7694L98.1612 73.8148L97.9865 73.8601C97.961 73.7651 98.0187 73.6678 98.1152 73.6428ZM98.1612 73.8148C97.9865 73.8601 97.9865 73.86 97.9865 73.8601L97.9971 73.8999C98.0041 73.9263 98.0145 73.9656 98.0281 74.0173C98.0553 74.1207 98.0952 74.2733 98.146 74.4701C98.2477 74.8639 98.393 75.4345 98.5673 76.1419C98.916 77.5567 99.3809 79.5181 99.8457 81.7042C100.777 86.0815 101.703 91.3425 101.703 94.9245C101.703 96.7408 101.986 98.0519 102.444 98.9378C102.903 99.8275 103.545 100.298 104.252 100.395C104.952 100.491 105.672 100.215 106.283 99.7009C106.895 99.1857 107.411 98.4219 107.709 97.5087C107.739 97.4151 107.687 97.3149 107.592 97.2848C107.497 97.2548 107.395 97.3062 107.365 97.3997C107.085 98.2566 106.604 98.9623 106.048 99.4304C105.491 99.8997 104.87 100.121 104.302 100.043C103.74 99.9653 103.186 99.5898 102.766 98.7766C102.344 97.9595 102.065 96.7106 102.065 94.9245C102.065 91.3015 101.13 86.0076 100.199 81.6313C99.7337 79.4406 99.2679 77.4755 98.9185 76.058C98.7439 75.3493 98.5983 74.7773 98.4963 74.3825C98.4454 74.1851 98.4053 74.0319 98.378 73.9281C98.3643 73.8762 98.3538 73.8366 98.3468 73.8099L98.336 73.7694C98.3359 73.7693 98.336 73.7694 98.1612 73.8148Z" fill="#737373"/>
<path fill-rule="evenodd" clip-rule="evenodd" d="M95.2877 67.6511L95.1289 67.7306L94.9852 67.6256C95.0216 67.5746 95.0817 67.5467 95.1436 67.5519C95.2055 67.5571 95.2602 67.5948 95.2877 67.6511ZM89.6281 74.2845L89.6281 74.2864L89.628 74.2971C89.6279 74.3062 89.6277 74.3196 89.6273 74.3372C89.6265 74.3723 89.6249 74.4241 89.6216 74.4921C89.6152 74.628 89.6023 74.8288 89.5767 75.091C89.5256 75.6154 89.4235 76.3852 89.2199 77.3727C88.8127 79.3479 87.9995 82.1933 86.3754 85.6867C83.1572 92.609 83.0268 99.5159 85.1627 104.647C87.2749 109.721 92.9627 111.761 99.1151 109.465C102.139 108.336 103.871 105.238 104.758 101.588C105.644 97.9454 105.676 93.8041 105.341 90.6788C105.009 87.5806 103.343 84.1975 101.574 81.1098C101.024 80.1495 100.467 79.2234 99.9384 78.3445C99.6172 77.8104 99.3065 77.2937 99.0141 76.7973C98.2446 75.4909 97.6026 74.3262 97.256 73.3875C96.5766 71.5473 96.0045 70.1517 95.6026 69.2168C95.4016 68.7493 95.2431 68.397 95.1351 68.1618C95.1213 68.1319 95.1084 68.1039 95.0963 68.0777C94.9966 68.2132 94.8577 68.4001 94.6873 68.6245C94.3234 69.1037 93.8153 69.7543 93.2392 70.4394C92.6633 71.1242 92.0177 71.8455 91.3788 72.4651C90.7787 73.0472 90.1748 73.549 89.6338 73.8433L89.6282 74.2827L89.6282 74.2835L89.6281 74.2845ZM89.2737 74.2821L89.2737 74.2843L89.2736 74.2928C89.2736 74.3006 89.2734 74.3126 89.273 74.3287C89.2722 74.361 89.2707 74.4098 89.2676 74.4749C89.2614 74.6049 89.249 74.7997 89.224 75.0558C89.1741 75.5679 89.0739 76.325 88.873 77.2995C88.4712 79.2484 87.6665 82.067 86.0547 85.5341C82.801 92.5327 82.655 99.5465 84.836 104.786C87.0407 110.083 92.9569 112.145 99.2378 109.801C102.43 108.61 104.206 105.361 105.103 101.674C106.001 97.9793 106.032 93.7939 105.693 90.6401C105.352 87.4593 103.65 84.0182 101.881 80.9299C101.329 79.9676 100.768 79.0339 100.237 78.1518C99.9168 77.6185 99.6074 77.1041 99.3186 76.6137C98.5479 75.3053 97.9219 74.1664 97.588 73.262C96.9064 71.4157 96.3319 70.0143 95.9276 69.0737C95.7254 68.6035 95.5657 68.2484 95.4565 68.0107C95.4018 67.8918 95.3598 67.8022 95.3314 67.7422C95.3171 67.7122 95.3063 67.6896 95.299 67.6744L95.2907 67.6572L95.2885 67.6527L95.288 67.6516L95.2877 67.6511C95.2877 67.6511 95.2877 67.6511 95.1289 67.7306C94.9852 67.6256 94.9852 67.6255 94.9852 67.6256L94.9828 67.6289L94.9754 67.6392L94.9459 67.6801C94.9199 67.716 94.8814 67.769 94.8316 67.8369C94.7319 67.9727 94.587 68.168 94.4063 68.406C94.0448 68.882 93.5405 69.5277 92.9692 70.2071C92.3976 70.8868 91.7606 71.5981 91.1336 72.2062C90.5038 72.817 89.8948 73.313 89.379 73.5731C89.3196 73.603 89.2817 73.664 89.2808 73.7312L89.2737 74.2799L89.2737 74.2821Z" fill="#263238"/>
<path d="M106.03 112.607L82.8404 111.672C81.8175 111.63 80.9548 112.426 80.9136 113.449L79.622 145.468C79.5807 146.491 80.3765 147.353 81.3994 147.395L104.589 148.33C105.612 148.371 106.475 147.576 106.516 146.553L107.807 114.534C107.849 113.511 107.053 112.648 106.03 112.607Z" fill="#263238"/>
<path fill-rule="evenodd" clip-rule="evenodd" d="M82.8326 111.85C81.9082 111.813 81.1287 112.532 81.0914 113.456L79.7998 145.475C79.7625 146.399 80.4816 147.179 81.406 147.216L104.596 148.152C105.52 148.189 106.299 147.47 106.337 146.546L107.628 114.527C107.666 113.603 106.947 112.823 106.022 112.786L82.8326 111.85ZM80.7345 113.442C80.7797 112.321 81.7255 111.448 82.847 111.493L106.037 112.429C107.158 112.474 108.03 113.42 107.985 114.541L106.694 146.56C106.648 147.681 105.703 148.554 104.581 148.509L81.3916 147.573C80.2701 147.528 79.3977 146.582 79.4429 145.461L80.7345 113.442Z" fill="#263238"/>
<path d="M117.974 125.462C117.974 125.462 105.941 121.76 103.889 121.137C101.836 120.514 90.0127 129.246 89.5421 130.492C89.0715 131.738 90.8019 131.741 90.8019 131.741C90.8019 131.741 90.0778 132.987 91.1639 133.61C91.5064 133.838 91.87 134.034 92.2499 134.194C92.2499 134.194 91.62 135.597 92.8798 136.066C94.1396 136.535 95.8773 135.286 95.8773 135.286L98.7154 133.259C98.7154 133.259 95.3053 137.387 96.0329 138.25C97.0357 139.432 97.6764 138.164 97.6764 138.164L101.597 133.571L105.536 131.699C105.536 131.699 108.689 133.571 113.735 133.725C118.782 133.879 119.889 131.699 119.889 131.699" fill="white"/>
<path fill-rule="evenodd" clip-rule="evenodd" d="M103.382 121.127C103.592 121.096 103.787 121.095 103.95 121.144C104.965 121.45 108.445 122.509 111.672 123.493C113.285 123.984 114.835 124.457 115.981 124.807L117.871 125.383C117.871 125.383 117.871 125.383 117.818 125.551C117.765 125.718 117.765 125.718 117.765 125.718L115.875 125.142C114.729 124.792 113.179 124.32 111.566 123.828C108.339 122.844 104.859 121.785 103.845 121.48C103.755 121.452 103.621 121.447 103.436 121.474C103.254 121.502 103.036 121.559 102.785 121.646C102.283 121.82 101.667 122.104 100.977 122.47C99.5977 123.201 97.9387 124.247 96.3251 125.353C94.712 126.459 93.1483 127.621 91.96 128.583C91.3656 129.063 90.8672 129.492 90.504 129.837C90.3223 130.01 90.1765 130.16 90.0702 130.283C89.9599 130.411 89.905 130.496 89.8875 130.542C89.7845 130.813 89.8112 130.987 89.8756 131.104C89.9436 131.227 90.0724 131.321 90.2379 131.389C90.4018 131.458 90.5834 131.493 90.728 131.512C90.7994 131.521 90.86 131.525 90.9022 131.528C90.9233 131.529 90.9398 131.529 90.9506 131.53L90.9626 131.53L90.9651 131.53C90.9652 131.53 90.9651 131.53 90.9651 131.53M103.382 121.127C103.171 121.159 102.929 121.224 102.666 121.315L103.382 121.127ZM102.666 121.315C102.139 121.497 101.505 121.791 100.807 122.161L102.666 121.315ZM100.807 122.161C99.4108 122.901 97.7393 123.956 96.1202 125.066L100.807 122.161ZM96.1202 125.066C94.5005 126.176 92.9291 127.344 91.7324 128.312L96.1202 125.066ZM91.7324 128.312C91.1343 128.796 90.6278 129.231 90.255 129.585L91.7324 128.312ZM90.255 129.585C90.0688 129.762 89.9138 129.921 89.7969 130.057L90.255 129.585ZM89.7969 130.057C89.684 130.188 89.5931 130.312 89.5524 130.419L89.7969 130.057ZM117.989 125.603C117.96 125.695 117.859 125.747 117.765 125.718L117.818 125.551L117.871 125.383C117.965 125.412 118.018 125.51 117.989 125.603ZM89.5524 130.419C89.4229 130.759 89.4355 131.043 89.561 131.271L89.5524 130.419ZM89.561 131.271C89.6829 131.492 89.8944 131.628 90.0983 131.713L89.561 131.271ZM90.0983 131.713C90.3037 131.798 90.5206 131.839 90.6821 131.86L90.0983 131.713ZM90.6821 131.86C90.6866 131.86 90.6911 131.861 90.6955 131.861L90.6821 131.86ZM91.1201 131.793L91.1193 131.794L91.1148 131.802C91.1107 131.81 91.1044 131.822 91.0966 131.837C91.081 131.868 91.0593 131.914 91.0361 131.971C90.9896 132.085 90.9391 132.242 90.9191 132.412C90.8991 132.583 90.9103 132.761 90.9795 132.927C91.0475 133.089 91.1763 133.251 91.4125 133.385C91.4159 133.387 91.4193 133.389 91.4226 133.392C91.7517 133.609 92.1011 133.795 92.4661 133.948L92.396 134.109C92.5595 134.18 92.5595 134.18 92.5595 134.18L92.5587 134.182L92.5548 134.191C92.5513 134.2 92.5459 134.213 92.5393 134.23C92.5262 134.265 92.5083 134.316 92.4904 134.379C92.4543 134.505 92.4192 134.675 92.4192 134.854C92.4192 135.034 92.4542 135.215 92.55 135.374C92.6441 135.53 92.8048 135.678 93.0815 135.78C93.6349 135.984 94.3185 135.818 94.8953 135.573C95.1783 135.453 95.4244 135.318 95.6 135.214C95.6876 135.161 95.7572 135.117 95.8046 135.085C95.8283 135.07 95.8464 135.058 95.8584 135.049L95.8718 135.04L95.8749 135.038L95.8755 135.037L98.6808 133.051C98.7536 132.999 98.8541 133.009 98.9157 133.073C98.9773 133.137 98.9809 133.236 98.924 133.304L98.9218 133.307L98.9148 133.315L98.8871 133.349C98.8629 133.378 98.8273 133.422 98.7823 133.478C98.6921 133.589 98.564 133.75 98.4125 133.945C98.1092 134.336 97.713 134.864 97.3396 135.419C96.9651 135.974 96.6185 136.549 96.4101 137.032C96.3057 137.274 96.2401 137.484 96.2196 137.653C96.1987 137.824 96.228 137.921 96.2717 137.972C96.5046 138.244 96.6992 138.355 96.8478 138.389C96.992 138.423 97.1165 138.391 97.2263 138.326C97.3398 138.26 97.4335 138.16 97.501 138.072C97.534 138.028 97.5592 137.989 97.5759 137.962C97.5842 137.948 97.5903 137.937 97.5942 137.93L97.5982 137.923L97.5988 137.922M97.9078 138.099C97.902 138.11 97.8938 138.124 97.8833 138.141C97.8615 138.177 97.8295 138.227 97.7877 138.281C97.7054 138.39 97.5789 138.528 97.4102 138.627C97.2379 138.729 97.0183 138.79 96.765 138.731C96.5162 138.673 96.26 138.504 95.9975 138.197L95.9972 138.197C95.8612 138.037 95.8386 137.822 95.8644 137.611C95.8906 137.396 95.9703 137.151 96.0806 136.895C96.3019 136.382 96.663 135.786 97.0411 135.225C97.3277 134.8 97.6268 134.39 97.888 134.045L96.0858 135.321L96.0854 135.322L96.084 135.323L96.0797 135.326L96.0638 135.337C96.05 135.346 96.03 135.36 96.0043 135.377C95.953 135.41 95.8787 135.458 95.7859 135.513C95.6005 135.624 95.3396 135.767 95.0376 135.895C94.4445 136.147 93.647 136.364 92.9555 136.108C92.6097 135.981 92.3813 135.784 92.242 135.553C92.1044 135.325 92.0615 135.076 92.0615 134.854C92.0615 134.633 92.1043 134.43 92.1459 134.284C92.1542 134.255 92.1625 134.228 92.1705 134.203C91.8425 134.056 91.5271 133.883 91.2277 133.686C90.9303 133.515 90.7476 133.297 90.6486 133.06C90.5501 132.825 90.5389 132.583 90.5637 132.372C90.5871 132.172 90.6436 131.993 90.6955 131.861M97.9078 138.099L101.745 133.64L105.518 131.861C105.537 131.872 105.559 131.883 105.584 131.897C105.681 131.948 105.825 132.022 106.013 132.111C106.388 132.288 106.94 132.524 107.648 132.766C109.065 133.248 111.109 133.749 113.623 133.825C116.144 133.901 117.699 133.399 118.63 132.864C119.096 132.597 119.403 132.323 119.595 132.112C119.691 132.006 119.758 131.917 119.802 131.852C119.825 131.82 119.841 131.794 119.852 131.775C119.857 131.766 119.862 131.758 119.865 131.753L119.868 131.746L119.87 131.744L119.87 131.743L119.87 131.742C119.87 131.742 119.87 131.742 119.711 131.663L119.87 131.742C119.915 131.656 119.879 131.55 119.791 131.507C119.703 131.463 119.596 131.498 119.551 131.584C119.551 131.584 119.551 131.584 119.551 131.584C119.551 131.584 119.551 131.584 119.551 131.584C119.551 131.584 119.551 131.584 119.551 131.584L119.55 131.586C119.549 131.587 119.549 131.589 119.547 131.59C119.546 131.593 119.544 131.596 119.542 131.599C119.535 131.612 119.523 131.631 119.505 131.657C119.47 131.709 119.413 131.785 119.328 131.878C119.16 132.063 118.881 132.313 118.449 132.562C117.587 133.057 116.101 133.549 113.634 133.474C111.162 133.399 109.154 132.907 107.766 132.434C107.072 132.198 106.532 131.966 106.168 131.794C105.986 131.708 105.847 131.637 105.754 131.588C105.708 131.564 105.674 131.544 105.651 131.532C105.639 131.525 105.631 131.52 105.625 131.517L105.619 131.514L105.618 131.513C105.618 131.513 105.618 131.513 105.618 131.513" fill="#263238"/>
<path fill-rule="evenodd" clip-rule="evenodd" d="M101.119 128.207C99.9644 128.918 98.8209 129.759 98.29 130.294C97.7314 130.857 96.3479 131.903 95.1188 132.799C94.5012 133.249 93.9179 133.665 93.489 133.968C93.2746 134.12 93.0987 134.243 92.9764 134.329C92.9153 134.371 92.8675 134.405 92.835 134.427L92.7854 134.462C92.7854 134.462 92.7852 134.462 92.6836 134.312C92.5819 134.162 92.5819 134.162 92.5819 134.162L92.6312 134.128C92.6635 134.106 92.7111 134.072 92.772 134.03C92.8939 133.944 93.0693 133.821 93.2832 133.67C93.7111 133.368 94.2929 132.953 94.9087 132.504C96.1463 131.602 97.5026 130.575 98.0363 130.037C98.5977 129.471 99.77 128.612 100.932 127.897C101.514 127.538 102.1 127.212 102.611 126.976C102.866 126.857 103.105 126.76 103.318 126.692C103.528 126.625 103.724 126.582 103.887 126.582C103.986 126.582 104.067 126.664 104.067 126.764C104.067 126.864 103.986 126.946 103.887 126.946C103.777 126.946 103.623 126.975 103.426 127.038C103.232 127.1 103.007 127.191 102.76 127.306C102.266 127.535 101.694 127.853 101.119 128.207ZM92.5354 134.415C92.4793 134.332 92.5001 134.219 92.5819 134.162L92.6836 134.312L92.7854 134.462C92.7036 134.519 92.5916 134.498 92.5354 134.415Z" fill="#263238"/>
<path fill-rule="evenodd" clip-rule="evenodd" d="M104.05 129.719C104.093 129.8 104.052 129.896 103.959 129.933L103.882 129.787L103.805 129.64C103.898 129.603 104.007 129.638 104.05 129.719ZM103.245 130.219C102.835 130.383 102.321 130.587 101.903 130.75C101.723 130.82 101.447 131.002 101.12 131.254C100.8 131.501 100.448 131.802 100.12 132.094C99.7922 132.386 99.4904 132.668 99.2703 132.878C99.1603 132.982 99.0708 133.069 99.0089 133.129C98.978 133.159 98.9539 133.182 98.9376 133.198L98.9192 133.216L98.9131 133.222L98.7746 133.116C98.6362 133.009 98.6362 133.009 98.6363 133.009L98.6428 133.002L98.6618 132.984C98.6784 132.967 98.7028 132.943 98.7341 132.913C98.7967 132.852 98.887 132.765 98.998 132.66C99.2198 132.449 99.5245 132.164 99.8557 131.869C100.187 131.573 100.546 131.266 100.876 131.012C101.2 130.762 101.514 130.548 101.752 130.456C102.169 130.293 102.682 130.089 103.091 129.926C103.296 129.844 103.474 129.773 103.601 129.722L103.805 129.64L103.882 129.787L103.959 129.933L103.756 130.015C103.628 130.066 103.45 130.138 103.245 130.219ZM98.6521 133.236C98.5757 133.177 98.5686 133.075 98.6363 133.009L98.7746 133.116L98.9131 133.222C98.8454 133.289 98.7286 133.295 98.6521 133.236Z" fill="#263238"/>
<path fill-rule="evenodd" clip-rule="evenodd" d="M103.443 124.258C103.483 124.349 103.439 124.454 103.345 124.492C101.97 125.056 100.639 125.718 99.3649 126.474L99.3644 126.474C98.298 127.103 96.2012 128.489 94.3661 129.722C93.4497 130.338 92.6001 130.914 91.9797 131.336C91.6695 131.548 91.4166 131.72 91.2412 131.84C91.1535 131.9 91.0853 131.947 91.0389 131.978L90.9684 132.027C90.9684 132.027 90.9682 132.027 90.8619 131.881C90.7557 131.734 90.7557 131.734 90.7558 131.734L90.8267 131.686C90.8731 131.654 90.9415 131.607 91.0292 131.547C91.2048 131.427 91.4579 131.254 91.7683 131.043C92.3892 130.621 93.2394 130.044 94.1566 129.428C95.9889 128.197 98.0954 126.804 99.1732 126.168C100.463 125.403 101.81 124.733 103.202 124.162C103.296 124.124 103.404 124.167 103.443 124.258ZM90.7114 131.984C90.6528 131.903 90.6727 131.791 90.7558 131.734L90.8619 131.881L90.9684 132.027C90.8853 132.084 90.7701 132.065 90.7114 131.984Z" fill="#263238"/>
</svg>
