<svg width="110" height="62" viewBox="0 0 110 62" fill="none" xmlns="http://www.w3.org/2000/svg">
<g clip-path="url(#clip0)">
<path d="M101.8 0.797452H63.1096V0H45.5657V0.797452H6.71529C6.3716 0.797452 6.03128 0.865148 5.71375 0.996672C5.39623 1.1282 5.10771 1.32097 4.86469 1.564C4.62166 1.80702 4.42889 2.09553 4.29737 2.41306C4.16584 2.73059 4.09814 3.07091 4.09814 3.4146V56.3943C4.09814 57.0884 4.37388 57.7541 4.86469 58.2449C5.3555 58.7357 6.02118 59.0115 6.71529 59.0115H101.8C102.144 59.0115 102.484 58.9438 102.802 58.8122C103.12 58.6807 103.408 58.4879 103.651 58.2449C103.894 58.0019 104.087 57.7134 104.218 57.3958C104.35 57.0783 104.418 56.738 104.418 56.3943V3.4146C104.418 3.07091 104.35 2.73059 104.218 2.41306C104.087 2.09553 103.894 1.80702 103.651 1.564C103.408 1.32097 103.12 1.12819 102.802 0.99667C102.484 0.865146 102.144 0.797451 101.8 0.797452Z" fill="#3F3D56"/>
<path d="M101.909 4.42261H6.60693V58.0544H101.909V4.42261Z" fill="#BEC4DA"/>
<path d="M54.1779 3.98737C54.7064 3.98737 55.1348 3.55893 55.1348 3.03043C55.1348 2.50192 54.7064 2.07349 54.1779 2.07349C53.6494 2.07349 53.2209 2.50192 53.2209 3.03043C53.2209 3.55893 53.6494 3.98737 54.1779 3.98737Z" fill="#6C63FF"/>
<path d="M95.5524 12.1212H91.1296V7.69849H95.5524V12.1212ZM91.3219 11.9289H95.3601V7.89078H91.3219V11.9289Z" fill="#3F3D56"/>
<path d="M107.037 57.7252H97.9316V57.38C97.9316 57.371 97.9282 57.3621 97.9217 57.3538C97.9152 57.3455 97.9056 57.3379 97.8935 57.3316C97.8814 57.3252 97.8671 57.3202 97.8513 57.3167C97.8355 57.3133 97.8186 57.3115 97.8015 57.3115H94.6796C94.6625 57.3115 94.6456 57.3133 94.6298 57.3167C94.614 57.3202 94.5997 57.3252 94.5876 57.3316C94.5755 57.3379 94.5659 57.3455 94.5594 57.3538C94.5529 57.3621 94.5495 57.371 94.5495 57.38V57.7252H92.5983V57.38C92.5983 57.371 92.5949 57.3621 92.5884 57.3538C92.5819 57.3455 92.5723 57.3379 92.5602 57.3316C92.5481 57.3252 92.5338 57.3202 92.518 57.3167C92.5022 57.3133 92.4853 57.3115 92.4682 57.3115H89.3463C89.3292 57.3115 89.3123 57.3133 89.2965 57.3167C89.2807 57.3202 89.2664 57.3252 89.2543 57.3316C89.2422 57.3379 89.2326 57.3455 89.2261 57.3538C89.2196 57.3621 89.2162 57.371 89.2162 57.38V57.7252H87.265V57.38C87.265 57.371 87.2616 57.3621 87.2551 57.3538C87.2485 57.3455 87.239 57.3379 87.2269 57.3316C87.2148 57.3252 87.2005 57.3202 87.1847 57.3167C87.1689 57.3133 87.152 57.3115 87.1349 57.3115H84.013C83.9959 57.3115 83.979 57.3133 83.9632 57.3167C83.9474 57.3202 83.9331 57.3252 83.921 57.3316C83.9089 57.3379 83.8993 57.3455 83.8928 57.3538C83.8862 57.3621 83.8829 57.371 83.8829 57.38V57.7252H81.9317V57.38C81.9317 57.371 81.9283 57.3621 81.9218 57.3538C81.9152 57.3455 81.9056 57.3379 81.8936 57.3316C81.8815 57.3252 81.8671 57.3202 81.8514 57.3167C81.8356 57.3133 81.8187 57.3115 81.8016 57.3115H78.6796C78.6626 57.3115 78.6456 57.3133 78.6299 57.3167C78.6141 57.3202 78.5997 57.3252 78.5877 57.3316C78.5756 57.3379 78.566 57.3455 78.5595 57.3538C78.5529 57.3621 78.5496 57.371 78.5496 57.38V57.7252H76.5984V57.38C76.5984 57.371 76.595 57.3621 76.5885 57.3538C76.5819 57.3455 76.5723 57.3379 76.5603 57.3316C76.5482 57.3252 76.5338 57.3202 76.5181 57.3167C76.5023 57.3133 76.4854 57.3115 76.4683 57.3115H73.3463C73.3293 57.3115 73.3123 57.3133 73.2966 57.3167C73.2808 57.3202 73.2664 57.3252 73.2544 57.3316C73.2423 57.3379 73.2327 57.3455 73.2262 57.3538C73.2196 57.3621 73.2163 57.371 73.2163 57.38V57.7252H71.265V57.38C71.265 57.371 71.2617 57.3621 71.2551 57.3538C71.2486 57.3455 71.239 57.3379 71.2269 57.3316C71.2149 57.3252 71.2005 57.3202 71.1847 57.3167C71.169 57.3133 71.152 57.3115 71.135 57.3115H68.013C67.9959 57.3115 67.979 57.3133 67.9632 57.3167C67.9475 57.3202 67.9331 57.3252 67.921 57.3316C67.909 57.3379 67.8994 57.3455 67.8928 57.3538C67.8863 57.3621 67.8829 57.371 67.8829 57.38V57.7252H65.9317V57.38C65.9317 57.371 65.9284 57.3621 65.9218 57.3538C65.9153 57.3455 65.9057 57.3379 65.8936 57.3316C65.8816 57.3252 65.8672 57.3202 65.8514 57.3167C65.8356 57.3133 65.8187 57.3115 65.8017 57.3115H41.3465C41.3294 57.3115 41.3125 57.3133 41.2967 57.3167C41.2809 57.3202 41.2666 57.3252 41.2545 57.3316C41.2424 57.3379 41.2328 57.3455 41.2263 57.3538C41.2197 57.3621 41.2164 57.371 41.2164 57.38V57.7252H39.2652V57.38C39.2652 57.371 39.2618 57.3621 39.2553 57.3538C39.2487 57.3455 39.2391 57.3379 39.2271 57.3316C39.215 57.3252 39.2006 57.3202 39.1849 57.3167C39.1691 57.3133 39.1522 57.3115 39.1351 57.3115H36.0131C35.9961 57.3115 35.9791 57.3133 35.9634 57.3167C35.9476 57.3202 35.9332 57.3252 35.9212 57.3316C35.9091 57.3379 35.8995 57.3455 35.893 57.3538C35.8864 57.3621 35.8831 57.371 35.8831 57.38V57.7252H33.9319V57.38C33.9319 57.371 33.9285 57.3621 33.9219 57.3538C33.9154 57.3455 33.9058 57.3379 33.8937 57.3316C33.8817 57.3252 33.8673 57.3202 33.8515 57.3167C33.8358 57.3133 33.8188 57.3115 33.8018 57.3115H30.6798C30.6627 57.3115 30.6458 57.3133 30.63 57.3167C30.6143 57.3202 30.5999 57.3252 30.5878 57.3316C30.5758 57.3379 30.5662 57.3455 30.5596 57.3538C30.5531 57.3621 30.5497 57.371 30.5497 57.38V57.7252H28.5985V57.38C28.5985 57.371 28.5952 57.3621 28.5886 57.3538C28.5821 57.3455 28.5725 57.3379 28.5604 57.3316C28.5484 57.3252 28.534 57.3202 28.5182 57.3167C28.5025 57.3133 28.4855 57.3115 28.4685 57.3115H25.3465C25.3294 57.3115 25.3125 57.3133 25.2967 57.3167C25.281 57.3202 25.2666 57.3252 25.2545 57.3316C25.2425 57.3379 25.2329 57.3455 25.2263 57.3538C25.2198 57.3621 25.2164 57.371 25.2164 57.38V57.7252H23.2652V57.38C23.2652 57.371 23.2619 57.3621 23.2553 57.3538C23.2488 57.3455 23.2392 57.3379 23.2271 57.3316C23.215 57.3252 23.2007 57.3202 23.1849 57.3167C23.1691 57.3133 23.1522 57.3115 23.1351 57.3115H20.0132C19.9961 57.3115 19.9792 57.3133 19.9634 57.3167C19.9476 57.3202 19.9333 57.3252 19.9212 57.3316C19.9091 57.3379 19.8996 57.3455 19.893 57.3538C19.8865 57.3621 19.8831 57.371 19.8831 57.38V57.7252H17.9319V57.38C17.9319 57.371 17.9285 57.3621 17.922 57.3538C17.9155 57.3455 17.9059 57.3379 17.8938 57.3316C17.8817 57.3252 17.8674 57.3202 17.8516 57.3167C17.8358 57.3133 17.8189 57.3115 17.8018 57.3115H14.6799C14.6628 57.3115 14.6459 57.3133 14.6301 57.3167C14.6143 57.3202 14.6 57.3252 14.5879 57.3316C14.5758 57.3379 14.5662 57.3455 14.5597 57.3538C14.5532 57.3621 14.5498 57.371 14.5498 57.38V57.7252H12.5986V57.38C12.5986 57.371 12.5952 57.3621 12.5887 57.3538C12.5822 57.3455 12.5726 57.3379 12.5605 57.3316C12.5484 57.3252 12.5341 57.3202 12.5183 57.3167C12.5025 57.3133 12.4856 57.3115 12.4685 57.3115H9.34658C9.32949 57.3115 9.31258 57.3133 9.2968 57.3167C9.28101 57.3202 9.26667 57.3252 9.25459 57.3316C9.24251 57.3379 9.23293 57.3455 9.2264 57.3538C9.21986 57.3621 9.21649 57.371 9.21649 57.38V57.7252H3.23278C2.40479 57.7252 1.61071 57.8982 1.02523 58.2063C0.439758 58.5143 0.11084 58.9321 0.11084 59.3678V60.1106C0.110842 60.5462 0.43976 60.964 1.02524 61.2721C1.61071 61.5801 2.40479 61.7532 3.23278 61.7532H107.037C107.865 61.7532 108.659 61.5801 109.245 61.2721C109.83 60.964 110.159 60.5462 110.159 60.1106V59.3678C110.159 58.9321 109.83 58.5143 109.245 58.2063C108.659 57.8982 107.865 57.7252 107.037 57.7252Z" fill="#3F3D56"/>
<path d="M95.1411 34.7501H65.1008V17.6479H95.1411V34.7501ZM65.3983 34.4526H94.8436V17.9454H65.3983V34.4526Z" fill="#3F3D56"/>
<path d="M40.1169 38.1706H13.3484V21.5146H40.1169V38.1706ZM13.6458 37.8732H39.8195V21.8121H13.6458V37.8732Z" fill="#3F3D56"/>
<path d="M25.8542 31.7759L25.8286 31.4433C25.7519 30.7527 25.9821 29.9981 26.6215 29.2309C27.1971 28.553 27.5168 28.0543 27.5168 27.4787C27.5168 26.8265 27.1075 26.3917 26.3018 26.3789C25.841 26.377 25.3905 26.5153 25.0101 26.7754L24.7031 25.9696C25.1252 25.6626 25.8542 25.458 26.532 25.458C28.0028 25.458 28.6678 26.3661 28.6678 27.338C28.6678 28.2078 28.1818 28.8344 27.5679 29.5633C27.0052 30.2283 26.8006 30.7911 26.8389 31.4433L26.8517 31.7759L25.8542 31.7759ZM25.5728 33.5664C25.5659 33.4621 25.5808 33.3574 25.6164 33.2591C25.652 33.1608 25.7076 33.0709 25.7797 32.9952C25.8519 32.9195 25.9389 32.8596 26.0354 32.8192C26.1318 32.7788 26.2356 32.7589 26.3401 32.7607C26.7878 32.7607 27.0947 33.0931 27.0947 33.5664C27.099 33.669 27.0824 33.7713 27.0461 33.8673C27.0097 33.9634 26.9544 34.051 26.8833 34.1251C26.8122 34.1992 26.7269 34.2581 26.6325 34.2984C26.538 34.3386 26.4364 34.3594 26.3338 34.3594C26.2311 34.3594 26.1295 34.3386 26.0351 34.2984C25.9407 34.2581 25.8554 34.1992 25.7843 34.1251C25.7132 34.051 25.6578 33.9634 25.6215 33.8673C25.5852 33.7713 25.5686 33.669 25.5728 33.5664Z" fill="#D0CDE1"/>
<path d="M79.2426 28.0579L79.217 27.7253C79.1403 27.0347 79.3705 26.2801 80.0099 25.5129C80.5855 24.835 80.9052 24.3362 80.9052 23.7607C80.9052 23.1085 80.496 22.6737 79.6902 22.6609C79.2294 22.659 78.7789 22.7973 78.3985 23.0574L78.0916 22.2516C78.5137 21.9446 79.2426 21.74 79.9204 21.74C81.3912 21.74 82.0562 22.6481 82.0562 23.62C82.0562 24.4897 81.5702 25.1164 80.9563 25.8453C80.3936 26.5103 80.189 27.0731 80.2274 27.7253L80.2401 28.0579L79.2426 28.0579ZM78.9613 29.8484C78.9544 29.744 78.9692 29.6394 79.0048 29.5411C79.0404 29.4428 79.0961 29.3529 79.1682 29.2772C79.2403 29.2015 79.3273 29.1415 79.4238 29.1012C79.5202 29.0608 79.624 29.0409 79.7286 29.0427C80.1762 29.0427 80.4832 29.3751 80.4832 29.8484C80.4874 29.951 80.4709 30.0533 80.4345 30.1493C80.3982 30.2453 80.3428 30.333 80.2717 30.4071C80.2007 30.4812 80.1153 30.5401 80.0209 30.5803C79.9265 30.6206 79.8249 30.6414 79.7222 30.6414C79.6196 30.6414 79.518 30.6206 79.4235 30.5803C79.3291 30.5401 79.2438 30.4812 79.1727 30.4071C79.1016 30.333 79.0463 30.2453 79.0099 30.1493C78.9736 30.0533 78.957 29.951 78.9613 29.8484Z" fill="#D0CDE1"/>
<path d="M54.7831 51.6247C61.8705 51.6247 67.6159 45.8793 67.6159 38.7919C67.6159 31.7045 61.8705 25.959 54.7831 25.959C47.6957 25.959 41.9502 31.7045 41.9502 38.7919C41.9502 45.8793 47.6957 51.6247 54.7831 51.6247Z" fill="#2F2E41"/>
<path d="M49.8269 56.3652L45.9905 55.6707L47.2348 47.6604L51.071 48.3549L49.8269 56.3652Z" fill="#2F2E41"/>
<path d="M58.7435 49.7438L54.9072 49.0493L53.663 55.9226L57.4992 56.6171L58.7435 49.7438Z" fill="#2F2E41"/>
<path d="M60.0634 56.9914C60.1965 56.3319 58.8787 55.5094 57.1199 55.1543C55.3611 54.7993 53.8274 55.0461 53.6942 55.7057C53.5611 56.3652 54.8789 57.1877 56.6377 57.5428C58.3965 57.8978 59.9302 57.651 60.0634 56.9914Z" fill="#2F2E41"/>
<path d="M52.073 56.7845C52.1614 56.1175 50.7911 55.3857 49.0124 55.1501C47.2336 54.9144 45.72 55.2641 45.6317 55.9312C45.5433 56.5982 46.9136 57.3299 48.6924 57.5656C50.4711 57.8012 51.9847 57.4515 52.073 56.7845Z" fill="#2F2E41"/>
<path d="M55.6818 40.0389C58.1041 40.0389 60.0677 38.0753 60.0677 35.653C60.0677 33.2307 58.1041 31.2671 55.6818 31.2671C53.2595 31.2671 51.2959 33.2307 51.2959 35.653C51.2959 38.0753 53.2595 40.0389 55.6818 40.0389Z" fill="white"/>
<path d="M57.4844 35.5428C58.2918 35.5428 58.9464 34.8883 58.9464 34.0809C58.9464 33.2734 58.2918 32.6189 57.4844 32.6189C56.677 32.6189 56.0225 33.2734 56.0225 34.0809C56.0225 34.8883 56.677 35.5428 57.4844 35.5428Z" fill="#3F3D56"/>
<path d="M44.6599 24.831C44.4669 20.0801 48.5615 16.056 53.8054 15.843C59.0494 15.63 63.4569 19.3087 63.6499 24.0596C63.8429 28.8106 60.1977 29.89 54.9537 30.103C49.7098 30.316 44.8529 29.5819 44.6599 24.831Z" fill="white"/>
<path d="M67.0825 38.4173C70.5366 37.6256 73.1353 36.1047 72.8867 35.0203C72.6382 33.936 69.6366 33.6988 66.1825 34.4905C62.7283 35.2822 60.1297 36.8031 60.3783 37.8875C60.6268 38.9718 63.6284 39.209 67.0825 38.4173Z" fill="#2F2E41"/>
<path d="M41.8921 42.6065C45.3462 41.8148 47.9449 40.2939 47.6963 39.2095C47.4478 38.1252 44.4462 37.888 40.992 38.6797C37.5379 39.4714 34.9393 40.9923 35.1878 42.0767C35.4364 43.161 38.438 43.3982 41.8921 42.6065Z" fill="#2F2E41"/>
<path d="M51.2587 43.8493C51.1903 44.2271 51.197 44.6147 51.2784 44.9899C51.3598 45.3652 51.5143 45.7207 51.7331 46.0363C51.9519 46.3518 52.2307 46.6212 52.5536 46.8289C52.8765 47.0367 53.2372 47.1789 53.615 47.2473C53.9928 47.3157 54.3804 47.309 54.7557 47.2276C55.1309 47.1462 55.4865 46.9917 55.802 46.7729C56.1176 46.5541 56.3869 46.2753 56.5947 45.9524C56.8025 45.6295 56.9446 45.2688 57.013 44.891C57.3007 43.3019 56.0721 42.7396 54.4831 42.452C52.8941 42.1643 51.5463 42.2602 51.2587 43.8493Z" fill="white"/>
<path d="M37.1184 30.8159H16.0178V50.8875H37.1184V30.8159Z" fill="#D0CDE1"/>
<path d="M34.7205 33.2136H18.4155V45.6821H34.7205V33.2136Z" fill="white"/>
<path d="M27.7195 35.2627H22.0034V40.9788H27.7195V35.2627Z" fill="#6C63FF"/>
<path d="M24.1917 36.6921V43.6331H31.1327V36.6921H24.1917ZM30.8316 43.3321H24.4927V36.9932H30.8316V43.3321Z" fill="#3F3D56"/>
<path d="M27.2682 46.9197H18.3994V47.3865H27.2682V46.9197Z" fill="#F2F2F2"/>
<path d="M26.5681 42.9164C27.0837 42.9164 27.5016 42.4985 27.5016 41.9829C27.5016 41.4673 27.0837 41.0493 26.5681 41.0493C26.0525 41.0493 25.6345 41.4673 25.6345 41.9829C25.6345 42.4985 26.0525 42.9164 26.5681 42.9164Z" fill="#3F3D56"/>
<path d="M92.0557 34.8069H70.9551V54.8784H92.0557V34.8069Z" fill="#D0CDE1"/>
<path d="M89.6576 37.2048H73.3525V49.6734H89.6576V37.2048Z" fill="white"/>
<path d="M83.2591 46.9658H79.7515V48.0053H83.2591V46.9658Z" fill="#3F3D56"/>
<path d="M87.4996 38.8728H75.5107V39.3183H87.4996V38.8728Z" fill="#3F3D56"/>
<path d="M87.4996 40.2834H75.5107V40.7289H87.4996V40.2834Z" fill="#3F3D56"/>
<path d="M87.4996 41.6941H75.5107V42.1396H87.4996V41.6941Z" fill="#3F3D56"/>
<path d="M87.4996 43.105H75.5107V43.5505H87.4996V43.105Z" fill="#3F3D56"/>
<path d="M87.4996 44.5156H75.5107V44.9611H87.4996V44.5156Z" fill="#3F3D56"/>
<path d="M82.2053 50.9109H73.3364V51.3777H82.2053V50.9109Z" fill="#F2F2F2"/>
<path d="M85.7061 52.0779H73.3364V52.5447H85.7061V52.0779Z" fill="#F2F2F2"/>
<path d="M81.5053 36.9074C82.0209 36.9074 82.4389 36.4894 82.4389 35.9738C82.4389 35.4583 82.0209 35.0403 81.5053 35.0403C80.9897 35.0403 80.5718 35.4583 80.5718 35.9738C80.5718 36.4894 80.9897 36.9074 81.5053 36.9074Z" fill="#3F3D56"/>
</g>
<defs>
<clipPath id="clip0">
<rect width="110" height="62" fill="white"/>
</clipPath>
</defs>
</svg>
