<svg width="90" height="84" viewBox="0 0 90 84" fill="none" xmlns="http://www.w3.org/2000/svg">
<g clip-path="url(#clip0)">
<path d="M76.9306 83.7146C83.5396 83.7146 88.8973 83.306 88.8973 82.8019C88.8973 82.2978 83.5396 81.8892 76.9306 81.8892C70.3216 81.8892 64.9639 82.2978 64.9639 82.8019C64.9639 83.306 70.3216 83.7146 76.9306 83.7146Z" fill="#E6E6E6"/>
<path d="M38.6354 83.7146C45.2445 83.7146 50.6021 83.306 50.6021 82.8019C50.6021 82.2978 45.2445 81.8892 38.6354 81.8892C32.0264 81.8892 26.6687 82.2978 26.6687 82.8019C26.6687 83.306 32.0264 83.7146 38.6354 83.7146Z" fill="#E6E6E6"/>
<path d="M18.0439 5.83813C17.9079 5.83828 17.7775 5.89236 17.6814 5.98851C17.5852 6.08466 17.5312 6.21502 17.531 6.35099V27.5492C17.5312 27.6852 17.5852 27.8155 17.6814 27.9117C17.7775 28.0078 17.9079 28.0619 18.0439 28.062H39.2421C39.378 28.0619 39.5084 28.0078 39.6045 27.9117C39.7007 27.8155 39.7548 27.6852 39.7549 27.5492V6.35099C39.7548 6.21502 39.7007 6.08466 39.6045 5.98851C39.5084 5.89236 39.378 5.83828 39.2421 5.83813H18.0439Z" fill="#E6E6E6"/>
<path d="M49.3865 13.1812C49.224 13.1839 49.069 13.2504 48.955 13.3663C48.841 13.4822 48.7771 13.6383 48.7771 13.8009C48.7771 13.9634 48.841 14.1195 48.955 14.2354C49.069 14.3513 49.224 14.4178 49.3865 14.4205H78.5986C78.6801 14.422 78.7611 14.4075 78.837 14.3777C78.9129 14.3479 78.9821 14.3034 79.0408 14.2468C79.0994 14.1902 79.1463 14.1225 79.1788 14.0478C79.2113 13.973 79.2287 13.8926 79.23 13.8111C79.2313 13.7296 79.2166 13.6486 79.1866 13.5728C79.1566 13.497 79.1119 13.4279 79.0552 13.3694C78.9984 13.3109 78.9307 13.2641 78.8558 13.2319C78.781 13.1996 78.7005 13.1824 78.619 13.1812C78.6122 13.1811 78.6054 13.1811 78.5986 13.1812H49.3865Z" fill="#E6E6E6"/>
<path d="M49.3865 7.53988C49.224 7.54258 49.069 7.60905 48.955 7.72496C48.841 7.84086 48.7771 7.99693 48.7771 8.1595C48.7771 8.32208 48.841 8.47814 48.955 8.59404C49.069 8.70995 49.224 8.77642 49.3865 8.77912H57.7424C57.8239 8.78066 57.9049 8.76612 57.9807 8.73631C58.0566 8.7065 58.1258 8.66202 58.1845 8.60541C58.2431 8.5488 58.29 8.48117 58.3225 8.40641C58.355 8.33164 58.3724 8.2512 58.3737 8.1697C58.3751 8.08819 58.3603 8.00723 58.3303 7.93144C58.3003 7.85565 58.2556 7.78652 58.1989 7.72802C58.1421 7.66951 58.0744 7.62278 57.9995 7.5905C57.9247 7.55821 57.8442 7.54101 57.7627 7.53988C57.7559 7.53977 57.7491 7.53977 57.7424 7.53988H49.3865Z" fill="#E6E6E6"/>
<path d="M49.3865 18.9937C49.224 18.9964 49.069 19.0629 48.955 19.1788C48.841 19.2947 48.7771 19.4508 48.7771 19.6134C48.7771 19.7759 48.841 19.932 48.955 20.0479C49.069 20.1638 49.224 20.2303 49.3865 20.233H78.5986C78.7627 20.2353 78.921 20.1724 79.0387 20.0581C79.1565 19.9439 79.2242 19.7876 79.2269 19.6235C79.2296 19.4594 79.1671 19.301 79.0531 19.183C78.9392 19.0649 78.783 18.9968 78.619 18.9937C78.6122 18.9936 78.6054 18.9936 78.5986 18.9937H49.3865Z" fill="#E6E6E6"/>
<path d="M55.9546 62.5802H15.8083C15.0257 62.5802 14.3915 62.1284 14.3906 61.5716V52.8458C14.3915 52.289 15.0257 51.8372 15.8083 51.8372H55.9546C56.7373 51.8372 57.3715 52.289 57.3723 52.8458V61.5714C57.3717 62.1282 56.7373 62.5795 55.9546 62.5802Z" fill="#E6E6E6"/>
<path d="M43.8438 67.3871H3.6975C2.91488 67.3871 2.28064 66.9353 2.27979 66.3785V57.6527C2.28064 57.0959 2.91488 56.644 3.6975 56.644H43.8438C44.6264 56.644 45.2607 57.0959 45.2615 57.6527V66.3783C45.2608 66.9351 44.6264 67.3864 43.8438 67.3871ZM3.6975 57.0472C3.22789 57.0472 2.84735 57.3183 2.84683 57.6523V66.3779C2.84683 66.712 3.22789 66.9828 3.6975 66.9831H43.8438C44.3134 66.9831 44.694 66.712 44.6945 66.3779V57.6527C44.6945 57.3186 44.3134 57.0478 43.8438 57.0475L3.6975 57.0472Z" fill="#3F3D56"/>
<path d="M38.295 43.4825C40.0889 43.4825 41.5431 42.0283 41.5431 40.2344C41.5431 38.4406 40.0889 36.9863 38.295 36.9863C36.5011 36.9863 35.0469 38.4406 35.0469 40.2344C35.0469 42.0283 36.5011 43.4825 38.295 43.4825Z" fill="#6C63FF"/>
<path d="M9.57331 65.1937C11.3672 65.1937 12.8214 63.7395 12.8214 61.9456C12.8214 60.1517 11.3672 58.6975 9.57331 58.6975C7.77942 58.6975 6.3252 60.1517 6.3252 61.9456C6.3252 63.7395 7.77942 65.1937 9.57331 65.1937Z" fill="#6C63FF"/>
<path d="M45.3111 37.9054C45.1485 37.9081 44.9935 37.9745 44.8795 38.0904C44.7655 38.2063 44.7017 38.3624 44.7017 38.525C44.7017 38.6876 44.7655 38.8436 44.8795 38.9595C44.9935 39.0754 45.1485 39.1419 45.3111 39.1446H68.5398C68.7039 39.1469 68.8622 39.084 68.98 38.9697C69.0977 38.8555 69.1654 38.6992 69.1681 38.5351C69.1708 38.3711 69.1083 38.2126 68.9943 38.0946C68.8804 37.9765 68.7242 37.9085 68.5602 37.9054C68.5534 37.9052 68.5466 37.9052 68.5398 37.9054H45.3111Z" fill="#3F3D56"/>
<path d="M45.3111 41.3243C45.1485 41.327 44.9935 41.3935 44.8795 41.5094C44.7655 41.6253 44.7017 41.7813 44.7017 41.9439C44.7017 42.1065 44.7655 42.2626 44.8795 42.3785C44.9935 42.4944 45.1485 42.5608 45.3111 42.5635H68.5398C68.7039 42.5658 68.8622 42.5029 68.98 42.3887C69.0977 42.2744 69.1654 42.1181 69.1681 41.9541C69.1708 41.79 69.1083 41.6316 68.9943 41.5135C68.8804 41.3955 68.7242 41.3274 68.5602 41.3243C68.5534 41.3242 68.5466 41.3242 68.5398 41.3243H45.3111Z" fill="#3F3D56"/>
<path d="M16.5894 59.6163C16.4268 59.619 16.2719 59.6855 16.1579 59.8014C16.0439 59.9173 15.98 60.0733 15.98 60.2359C15.98 60.3985 16.0439 60.5545 16.1579 60.6705C16.2719 60.7864 16.4268 60.8528 16.5894 60.8555H39.8182C39.9822 60.8578 40.1405 60.7949 40.2583 60.6807C40.376 60.5664 40.4437 60.4101 40.4464 60.2461C40.4491 60.082 40.3866 59.9236 40.2726 59.8055C40.1587 59.6875 40.0026 59.6194 39.8385 59.6163C39.8317 59.6162 39.825 59.6162 39.8182 59.6163H16.5894Z" fill="#3F3D56"/>
<path d="M16.5894 63.0355C16.4268 63.0382 16.2719 63.1047 16.1579 63.2206C16.0439 63.3365 15.98 63.4925 15.98 63.6551C15.98 63.8177 16.0439 63.9738 16.1579 64.0897C16.2719 64.2056 16.4268 64.2721 16.5894 64.2748H39.8182C39.9822 64.277 40.1405 64.2141 40.2583 64.0999C40.376 63.9856 40.4437 63.8293 40.4464 63.6653C40.4491 63.5012 40.3866 63.3428 40.2726 63.2247C40.1587 63.1066 40.0026 63.0386 39.8385 63.0355C39.8317 63.0354 39.825 63.0354 39.8182 63.0355H16.5894Z" fill="#3F3D56"/>
<path d="M77.2678 79.7243C81.334 79.7243 84.6303 76.428 84.6303 72.3618C84.6303 68.2956 81.334 64.9993 77.2678 64.9993C73.2016 64.9993 69.9053 68.2956 69.9053 72.3618C69.9053 76.428 73.2016 79.7243 77.2678 79.7243Z" fill="#2F2E41"/>
<path d="M80.6229 78.1399H78.3862V82.1473H80.6229V78.1399Z" fill="#2F2E41"/>
<path d="M76.1493 78.1399H73.9126V82.1473H76.1493V78.1399Z" fill="#2F2E41"/>
<path d="M78.7589 82.8931C79.7884 82.8931 80.6229 82.5801 80.6229 82.1941C80.6229 81.8081 79.7884 81.4951 78.7589 81.4951C77.7295 81.4951 76.895 81.8081 76.895 82.1941C76.895 82.5801 77.7295 82.8931 78.7589 82.8931Z" fill="#2F2E41"/>
<path d="M74.2853 82.7998C75.3147 82.7998 76.1492 82.4868 76.1492 82.1008C76.1492 81.7148 75.3147 81.4019 74.2853 81.4019C73.2559 81.4019 72.4214 81.7148 72.4214 82.1008C72.4214 82.4868 73.2559 82.7998 74.2853 82.7998Z" fill="#2F2E41"/>
<path d="M77.0812 73.0143C78.4709 73.0143 79.5975 71.8877 79.5975 70.498C79.5975 69.1083 78.4709 67.9817 77.0812 67.9817C75.6915 67.9817 74.5649 69.1083 74.5649 70.498C74.5649 71.8877 75.6915 73.0143 77.0812 73.0143Z" fill="white"/>
<path d="M77.0814 71.3367C77.5447 71.3367 77.9202 70.9612 77.9202 70.498C77.9202 70.0347 77.5447 69.6592 77.0814 69.6592C76.6182 69.6592 76.2427 70.0347 76.2427 70.498C76.2427 70.9612 76.6182 71.3367 77.0814 71.3367Z" fill="#3F3D56"/>
<path d="M84.4097 65.5148C85.0042 62.8524 83.1038 60.1622 80.1651 59.506C77.2265 58.8498 74.3623 60.4762 73.7678 63.1386C73.1733 65.801 75.1209 66.7829 78.0595 67.4391C80.9982 68.0953 83.8152 68.1772 84.4097 65.5148Z" fill="#E6E6E6"/>
<path d="M21.8577 31.4742C21.8595 32.6031 21.6003 33.7171 21.1004 34.7292C21.0439 34.8454 20.9841 34.9583 20.9209 35.0711H8.07031C8.00706 34.9583 7.94723 34.8454 7.89081 34.7292C7.4002 33.7344 7.14067 32.6417 7.13159 31.5325C7.12252 30.4234 7.36414 29.3265 7.83841 28.3239C8.31268 27.3212 9.00735 26.4387 9.87053 25.7421C10.7337 25.0456 11.7431 24.553 12.8233 24.3013C13.9036 24.0495 15.0267 24.0451 16.1089 24.2883C17.1911 24.5315 18.2043 25.016 19.073 25.7057C19.9417 26.3954 20.6433 27.2724 21.1255 28.2713C21.6077 29.2702 21.858 30.3651 21.8577 31.4742Z" fill="#2F2E41"/>
<path d="M14.6823 32.1259C16.072 32.1259 17.1986 30.9993 17.1986 29.6096C17.1986 28.2198 16.072 27.0933 14.6823 27.0933C13.2926 27.0933 12.166 28.2198 12.166 29.6096C12.166 30.9993 13.2926 32.1259 14.6823 32.1259Z" fill="white"/>
<path d="M14.6823 30.4483C15.1455 30.4483 15.521 30.0728 15.521 29.6095C15.521 29.1463 15.1455 28.7708 14.6823 28.7708C14.219 28.7708 13.8435 29.1463 13.8435 29.6095C13.8435 30.0728 14.219 30.4483 14.6823 30.4483Z" fill="#3F3D56"/>
<path d="M7.35396 24.6266C6.75948 21.9642 8.65982 19.274 11.5985 18.6178C14.5372 17.9616 17.4014 19.588 17.9958 22.2504C18.5903 24.9128 16.6428 25.8947 13.7041 26.5509C10.7654 27.2071 7.94846 27.289 7.35396 24.6266Z" fill="#BEC4DA"/>
<path d="M25.053 12.1633H3.85477C3.62809 12.1634 3.41073 12.2535 3.25045 12.4138C3.09016 12.5741 3.00008 12.7914 3 13.0181V34.2163C3.00008 34.443 3.09016 34.6603 3.25045 34.8206C3.41073 34.9809 3.62809 35.071 3.85477 35.0711H25.053C25.2796 35.071 25.497 34.9809 25.6573 34.8206C25.8176 34.6603 25.9076 34.443 25.9077 34.2163V13.0181C25.9076 12.7914 25.8176 12.5741 25.6573 12.4138C25.497 12.2535 25.2796 12.1634 25.053 12.1633ZM25.5658 34.2163C25.5654 34.3522 25.5113 34.4824 25.4152 34.5785C25.3191 34.6746 25.1889 34.7287 25.053 34.7291H3.85477C3.71887 34.7287 3.58865 34.6746 3.49256 34.5785C3.39647 34.4824 3.3423 34.3522 3.34191 34.2163V13.0181C3.3423 12.8822 3.39647 12.752 3.49256 12.6559C3.58865 12.5598 3.71887 12.5056 3.85477 12.5052H25.053C25.1889 12.5056 25.3191 12.5598 25.4152 12.6559C25.5113 12.752 25.5654 12.8822 25.5658 13.0181V34.2163Z" fill="#3F3D56"/>
<path d="M45.3205 67.2147C46.0463 65.3156 46.1515 63.5913 45.5553 63.3635C44.9591 63.1356 43.8874 64.4904 43.1615 66.3895C42.4356 68.2886 42.3305 70.0129 42.9267 70.2407C43.5228 70.4686 44.5946 69.1138 45.3205 67.2147Z" fill="#2F2E41"/>
<path d="M44.7035 73.5412C45.3548 69.5275 42.6291 65.7458 38.6154 65.0944C34.6017 64.4431 30.8199 67.1688 30.1686 71.1825C29.5173 75.1962 32.243 78.978 36.2567 79.6293C40.2704 80.2806 44.0521 77.5549 44.7035 73.5412Z" fill="#2F2E41"/>
<path d="M36.3178 78.1399H34.0811V82.1473H36.3178V78.1399Z" fill="#2F2E41"/>
<path d="M40.7909 78.1399H38.5542V82.1473H40.7909V78.1399Z" fill="#2F2E41"/>
<path d="M35.945 82.8931C36.9744 82.8931 37.8089 82.5801 37.8089 82.1941C37.8089 81.8081 36.9744 81.4951 35.945 81.4951C34.9156 81.4951 34.0811 81.8081 34.0811 82.1941C34.0811 82.5801 34.9156 82.8931 35.945 82.8931Z" fill="#2F2E41"/>
<path d="M40.4181 82.7998C41.4475 82.7998 42.282 82.4869 42.282 82.1008C42.282 81.7148 41.4475 81.4019 40.4181 81.4019C39.3887 81.4019 38.5542 81.7148 38.5542 82.1008C38.5542 82.4869 39.3887 82.7998 40.4181 82.7998Z" fill="#2F2E41"/>
<path d="M30.2939 65.5148C29.6994 62.8524 31.5998 60.1622 34.5384 59.506C37.4771 58.8498 40.3413 60.4762 40.9358 63.1386C41.5303 65.801 39.5827 66.7829 36.644 67.4391C33.7054 68.0953 30.8884 68.1772 30.2939 65.5148Z" fill="#BEC4DA"/>
<path d="M32.4695 70.5232C32.743 69.9466 31.4756 68.7728 29.6386 67.9015C27.8016 67.0303 26.0908 66.7915 25.8173 67.3682C25.5437 67.9449 26.8112 69.1186 28.6481 69.9899C30.4851 70.8611 32.196 71.0999 32.4695 70.5232Z" fill="#2F2E41"/>
<path d="M79.4893 57.0999C83.4559 57.0999 86.6714 53.8843 86.6714 49.9177C86.6714 45.9511 83.4559 42.7356 79.4893 42.7356C75.5227 42.7356 72.3071 45.9511 72.3071 49.9177C72.3071 53.8843 75.5227 57.0999 79.4893 57.0999Z" fill="#2F2E41"/>
<path d="M82.7883 55.5392L80.6064 55.5493L80.6246 59.4586L82.8065 59.4484L82.7883 55.5392Z" fill="#2F2E41"/>
<path d="M78.4246 55.5594L76.2427 55.5696L76.2608 59.4788L78.4427 59.4687L78.4246 55.5594Z" fill="#2F2E41"/>
<path d="M77.2426 60.4738C78.1099 59.9676 78.6592 59.2937 78.4694 58.9684C78.2796 58.6432 77.4226 58.7898 76.5553 59.296C75.688 59.8021 75.1387 60.4761 75.3285 60.8013C75.5183 61.1266 76.3753 60.9799 77.2426 60.4738Z" fill="#2F2E41"/>
<path d="M81.5156 60.454C82.3829 59.9479 82.9321 59.2739 82.7423 58.9487C82.5525 58.6234 81.6956 58.77 80.8282 59.2762C79.9609 59.7823 79.4117 60.4563 79.6015 60.7815C79.7913 61.1068 80.6483 60.9601 81.5156 60.454Z" fill="#2F2E41"/>
<path d="M79.2989 50.5551C80.6546 50.5551 81.7536 49.4561 81.7536 48.1004C81.7536 46.7447 80.6546 45.6458 79.2989 45.6458C77.9432 45.6458 76.8442 46.7447 76.8442 48.1004C76.8442 49.4561 77.9432 50.5551 79.2989 50.5551Z" fill="white"/>
<path d="M78.4581 47.8769C78.91 47.8769 79.2763 47.5106 79.2763 47.0587C79.2763 46.6068 78.91 46.2405 78.4581 46.2405C78.0062 46.2405 77.6399 46.6068 77.6399 47.0587C77.6399 47.5106 78.0062 47.8769 78.4581 47.8769Z" fill="#3F3D56"/>
<path d="M86.4252 43.2063C86.9931 40.6065 85.1271 37.9908 82.2575 37.364C79.3878 36.7372 76.6012 38.3367 76.0333 40.9366C75.4655 43.5364 77.3698 44.4854 80.2394 45.1122C83.1091 45.739 85.8574 45.8061 86.4252 43.2063Z" fill="#BEC4DA"/>
<path d="M75.2966 47.6792C75.5389 47.1057 74.2543 46.015 72.4274 45.2431C70.6005 44.4712 68.923 44.3104 68.6807 44.8839C68.4384 45.4574 69.723 46.5481 71.5499 47.32C73.3768 48.0919 75.0542 48.2527 75.2966 47.6792Z" fill="#2F2E41"/>
<path d="M89.9706 53.6316C90.2129 53.0581 88.9284 51.9674 87.1015 51.1955C85.2746 50.4236 83.5971 50.2628 83.3548 50.8363C83.1125 51.4098 84.397 52.5005 86.2239 53.2724C88.0508 54.0443 89.7283 54.2051 89.9706 53.6316Z" fill="#2F2E41"/>
<path d="M80.9408 53.0475C80.9422 53.2625 80.9012 53.4757 80.8202 53.6749C80.7391 53.874 80.6196 54.0552 80.4685 54.2082C80.3174 54.3611 80.1376 54.4828 79.9395 54.5663C79.7413 54.6497 79.5286 54.6933 79.3136 54.6945C79.0986 54.6957 78.8855 54.6545 78.6864 54.5733C78.4873 54.4921 78.3062 54.3725 78.1533 54.2212C78.0005 54.07 77.879 53.8901 77.7957 53.6919C77.7124 53.4936 77.669 53.2809 77.668 53.0659L77.668 53.0627C77.6638 52.159 78.3956 51.9684 79.2993 51.9642C80.2031 51.96 80.9366 52.1437 80.9408 53.0475Z" fill="white"/>
<path d="M73.5804 45.6478H33.4341C32.6514 45.6478 32.0172 45.196 32.0164 44.6392V35.9134C32.0172 35.3566 32.6514 34.9048 33.4341 34.9048H73.5804C74.363 34.9048 74.9972 35.3566 74.9981 35.9134V44.639C74.9974 45.1958 74.363 45.6471 73.5804 45.6478ZM33.4341 35.3079C32.9645 35.3079 32.5839 35.579 32.5834 35.9131V44.6387C32.5834 44.9727 32.9645 45.2435 33.4341 45.2439H73.5804C74.05 45.2439 74.4305 44.9727 74.431 44.6387V35.9134C74.431 35.5794 74.05 35.3086 73.5804 35.3082L33.4341 35.3079Z" fill="#3F3D56"/>
</g>
<defs>
<clipPath id="clip0">
<rect width="90" height="84" fill="white"/>
</clipPath>
</defs>
</svg>
