<svg width="81" height="67" viewBox="0 0 81 67" fill="none" xmlns="http://www.w3.org/2000/svg">
<path d="M39.8859 66.57C61.427 66.57 78.8895 65.5504 78.8895 64.2928C78.8895 63.0351 61.427 62.0156 39.8859 62.0156C18.3448 62.0156 0.882324 63.0351 0.882324 64.2928C0.882324 65.5504 18.3448 66.57 39.8859 66.57Z" fill="#F5F5F5"/>
<path d="M75.9724 0.0310669H3.80092C3.28851 0.0326555 2.79751 0.236775 2.43499 0.598916C2.07248 0.961057 1.86784 1.45184 1.86572 1.96425V50.1349C1.86732 50.6474 2.07178 51.1385 2.43441 51.5008C2.79704 51.863 3.28835 52.067 3.80092 52.0681H75.9724C76.4846 52.0665 76.9754 51.8623 77.3376 51.5001C77.6998 51.1379 77.904 50.6471 77.9055 50.1349V1.96425C77.9034 1.45219 77.6991 0.961707 77.337 0.599624C76.9749 0.23754 76.4844 0.0331851 75.9724 0.0310669Z" fill="#407BFF"/>
<path opacity="0.3" d="M75.9724 0.0310669H3.80092C3.28851 0.0326555 2.79751 0.236775 2.43499 0.598916C2.07248 0.961057 1.86784 1.45184 1.86572 1.96425V50.1349C1.86732 50.6474 2.07178 51.1385 2.43441 51.5008C2.79704 51.863 3.28835 52.067 3.80092 52.0681H75.9724C76.4846 52.0665 76.9754 51.8623 77.3376 51.5001C77.6998 51.1379 77.904 50.6471 77.9055 50.1349V1.96425C77.9034 1.45219 77.6991 0.961707 77.337 0.599624C76.9749 0.23754 76.4844 0.0331851 75.9724 0.0310669Z" fill="white"/>
<path d="M16.237 3.25774H6.02194C5.83521 3.25774 5.65613 3.18356 5.52409 3.05152C5.39205 2.91948 5.31787 2.7404 5.31787 2.55367C5.31787 2.36694 5.39205 2.18785 5.52409 2.05581C5.65613 1.92377 5.83521 1.84959 6.02194 1.84959H16.237C16.4238 1.84959 16.6028 1.92377 16.7349 2.05581C16.8669 2.18785 16.9411 2.36694 16.9411 2.55367C16.9411 2.7404 16.8669 2.91948 16.7349 3.05152C16.6028 3.18356 16.4238 3.25774 16.237 3.25774ZM6.02194 2.05076C5.88856 2.05076 5.76065 2.10374 5.66633 2.19806C5.57202 2.29237 5.51903 2.42029 5.51903 2.55367C5.51903 2.68705 5.57202 2.81496 5.66633 2.90928C5.76065 3.00359 5.88856 3.05658 6.02194 3.05658H16.237C16.3704 3.05658 16.4983 3.00359 16.5926 2.90928C16.6869 2.81496 16.7399 2.68705 16.7399 2.55367C16.7399 2.42029 16.6869 2.29237 16.5926 2.19806C16.4983 2.10374 16.3704 2.05076 16.237 2.05076H6.02194Z" fill="#FAFAFA"/>
<path d="M19.552 3.25774H18.8701C18.6834 3.25774 18.5043 3.18356 18.3722 3.05152C18.2402 2.91948 18.166 2.7404 18.166 2.55367C18.166 2.36694 18.2402 2.18785 18.3722 2.05581C18.5043 1.92377 18.6834 1.84959 18.8701 1.84959H19.552C19.7388 1.84959 19.9178 1.92377 20.0499 2.05581C20.1819 2.18785 20.2561 2.36694 20.2561 2.55367C20.2561 2.7404 20.1819 2.91948 20.0499 3.05152C19.9178 3.18356 19.7388 3.25774 19.552 3.25774ZM18.8701 2.05076C18.7367 2.05076 18.6088 2.10374 18.5145 2.19806C18.4202 2.29237 18.3672 2.42029 18.3672 2.55367C18.3672 2.68705 18.4202 2.81496 18.5145 2.90928C18.6088 3.00359 18.7367 3.05658 18.8701 3.05658H19.552C19.6854 3.05658 19.8133 3.00359 19.9076 2.90928C20.002 2.81496 20.0549 2.68705 20.0549 2.55367C20.0549 2.42029 20.002 2.29237 19.9076 2.19806C19.8133 2.10374 19.6854 2.05076 19.552 2.05076H18.8701Z" fill="#FAFAFA"/>
<path d="M22.4026 3.25774H21.7207C21.5339 3.25774 21.3549 3.18356 21.2228 3.05152C21.0908 2.91948 21.0166 2.7404 21.0166 2.55367C21.0166 2.36694 21.0908 2.18785 21.2228 2.05581C21.3549 1.92377 21.5339 1.84959 21.7207 1.84959H22.4026C22.5894 1.84959 22.7684 1.92377 22.9005 2.05581C23.0325 2.18785 23.1067 2.36694 23.1067 2.55367C23.1067 2.7404 23.0325 2.91948 22.9005 3.05152C22.7684 3.18356 22.5894 3.25774 22.4026 3.25774ZM21.7207 2.05076C21.5873 2.05076 21.4594 2.10374 21.3651 2.19806C21.2708 2.29237 21.2178 2.42029 21.2178 2.55367C21.2178 2.68705 21.2708 2.81496 21.3651 2.90928C21.4594 3.00359 21.5873 3.05658 21.7207 3.05658H22.4026C22.536 3.05658 22.6639 3.00359 22.7582 2.90928C22.8525 2.81496 22.9055 2.68705 22.9055 2.55367C22.9055 2.42029 22.8525 2.29237 22.7582 2.19806C22.6639 2.10374 22.536 2.05076 22.4026 2.05076H21.7207Z" fill="#FAFAFA"/>
<path d="M1.86572 5.03201V50.1349C1.86732 50.6475 2.07178 51.1386 2.43441 51.5008C2.79704 51.8631 3.28835 52.067 3.80092 52.0681H75.9724C76.4846 52.0665 76.9754 51.8623 77.3376 51.5001C77.6998 51.1379 77.904 50.6471 77.9055 50.1349V5.03201H1.86572Z" fill="#407BFF"/>
<path opacity="0.6" d="M1.86572 5.03201V50.1349C1.86732 50.6475 2.07178 51.1386 2.43441 51.5008C2.79704 51.8631 3.28835 52.067 3.80092 52.0681H75.9724C76.4846 52.0665 76.9754 51.8623 77.3376 51.5001C77.6998 51.1379 77.904 50.6471 77.9055 50.1349V5.03201H1.86572Z" fill="white"/>
<path d="M2.22363 5.03201V48.3989C2.22337 48.543 2.25153 48.6858 2.30651 48.819C2.36149 48.9523 2.4422 49.0734 2.54403 49.1754C2.64586 49.2774 2.76681 49.3583 2.89996 49.4136C3.0331 49.4688 3.17583 49.4972 3.31998 49.4972H76.451C76.5951 49.4972 76.7378 49.4688 76.871 49.4136C77.0041 49.3583 77.1251 49.2774 77.2269 49.1754C77.3287 49.0734 77.4095 48.9523 77.4644 48.819C77.5194 48.6858 77.5476 48.543 77.5473 48.3989V5.03201H2.22363Z" fill="#FAFAFA"/>
<path d="M5.68799 7.58478V15.6313H57.387V7.58478H5.68799Z" fill="#407BFF"/>
<path opacity="0.9" d="M5.68799 7.58478V15.6313H57.387V7.58478H5.68799Z" fill="white"/>
<path d="M57.1859 17.9648V39.3284H5.88915V17.9648H57.1859ZM57.387 17.7636H5.68799V39.5295H57.387V17.7636Z" fill="#407BFF"/>
<path opacity="0.9" d="M57.1859 17.9648V39.3284H5.88915V17.9648H57.1859ZM57.387 17.7636H5.68799V39.5295H57.387V17.7636Z" fill="white"/>
<path d="M63.1848 62.4219H61.668L61.2637 58.9076H62.7825L63.1848 62.4219Z" fill="#FF8B7B"/>
<path d="M72.3895 62.4219H70.8728L69.6899 58.9076H71.2067L72.3895 62.4219Z" fill="#FF8B7B"/>
<path d="M70.664 62.2449H72.5147C72.5449 62.2451 72.574 62.2556 72.5974 62.2746C72.6208 62.2936 72.6371 62.3201 72.6435 62.3495L72.9432 63.6973C72.9505 63.7302 72.9502 63.7644 72.9425 63.7971C72.9347 63.8299 72.9196 63.8605 72.8983 63.8867C72.877 63.9128 72.8501 63.9338 72.8195 63.948C72.789 63.9622 72.7556 63.9694 72.7219 63.9689C72.1184 63.9588 71.692 63.9226 70.9416 63.9226C70.481 63.9226 69.5335 63.9709 68.8938 63.9709C68.2541 63.9709 68.1736 63.3413 68.4331 63.2849C69.6039 63.0274 70.0424 62.6814 70.4186 62.3395C70.4859 62.2786 70.5733 62.2449 70.664 62.2449Z" fill="#263238"/>
<path d="M61.6779 62.2449H63.3355C63.3659 62.2451 63.3954 62.2555 63.4191 62.2745C63.4428 62.2934 63.4595 62.3199 63.4663 62.3495L63.766 63.6973C63.7733 63.7301 63.773 63.764 63.7654 63.7966C63.7577 63.8293 63.7428 63.8598 63.7217 63.8859C63.7007 63.912 63.674 63.933 63.6437 63.9473C63.6134 63.9617 63.5803 63.9691 63.5467 63.9689C62.9432 63.9588 62.0843 63.9226 61.3339 63.9226C60.4548 63.9226 59.6965 63.9709 58.6665 63.9709C58.0429 63.9709 57.8619 63.3413 58.1314 63.2849C59.3183 63.0234 60.2879 62.9973 61.3138 62.3636C61.4218 62.291 61.5479 62.2499 61.6779 62.2449Z" fill="#263238"/>
<path d="M64.0554 24.7661C63.9045 25.9409 63.7396 27.1218 63.5645 28.2966L63.0395 31.8692C62.9581 32.3036 62.7838 32.7153 62.5286 33.0762C62.2975 33.4007 62.018 33.6877 61.6998 33.9271C61.1387 34.3361 60.5151 34.6513 59.8531 34.8605C59.2452 35.0598 58.6213 35.2065 57.9883 35.2991C57.6765 35.3473 57.3667 35.3795 57.0549 35.4057C56.7431 35.4318 56.4413 35.4479 56.1094 35.4479L56.0068 34.3134C56.548 34.1886 57.1213 34.0438 57.6584 33.8648C58.1905 33.6992 58.7107 33.4976 59.2154 33.2613C59.6749 33.0533 60.1012 32.7788 60.4807 32.4466C60.6292 32.3118 60.756 32.1551 60.8569 31.9819C60.933 31.8461 60.9802 31.6962 60.9957 31.5413L61.054 30.6944C61.0741 30.3927 61.1023 30.0909 61.1285 29.7932C61.1808 29.1937 61.2404 28.5956 61.3075 27.9988C61.4382 26.8059 61.5931 25.6211 61.7782 24.4322L64.0554 24.7661Z" fill="#FF8B7B"/>
<path d="M64.5563 24.0118C65.0673 25.3696 63.8422 29.922 63.8422 29.922L60.4707 28.2362C60.4707 28.2362 60.6296 25.9671 61.4001 24.2129C62.1705 22.4588 63.9951 22.5151 64.5563 24.0118Z" fill="#407BFF"/>
<path opacity="0.3" d="M64.5563 24.0118C65.0673 25.3696 63.8422 29.922 63.8422 29.922L60.4707 28.2362C60.4707 28.2362 60.6296 25.9671 61.4001 24.2129C62.1705 22.4588 63.9951 22.5151 64.5563 24.0118Z" fill="black"/>
<path d="M56.8138 34.1746L55.1582 34.2852L55.9327 36.0615C56.2436 36.0528 56.5435 35.9447 56.7885 35.7533C57.0336 35.5618 57.2109 35.2969 57.2946 34.9973L56.8138 34.1746Z" fill="#FF8B7B"/>
<path d="M53.6631 34.9832L54.5824 36.2264L55.9302 36.0615L55.1577 34.2852L53.6631 34.9832Z" fill="#FF8B7B"/>
<path d="M61.2651 58.9076L61.4985 60.9474L63.0072 60.8569L62.7819 58.9076H61.2651Z" fill="#EA7063"/>
<path d="M71.2087 58.9076H69.6899L70.4825 61.2612L71.8947 60.9454L71.2087 58.9076Z" fill="#EA7063"/>
<path d="M62.7539 22.9657C62.7539 22.9657 60.9635 27.5483 62.6634 36.0836H70.7803C70.8366 34.8364 70.0541 28.7593 71.2551 22.8873C70.3583 22.7142 69.4511 22.5999 68.5394 22.5453C67.3897 22.4779 66.2371 22.4779 65.0874 22.5453C64.2998 22.6243 63.5195 22.7648 62.7539 22.9657Z" fill="#407BFF"/>
<path opacity="0.3" d="M62.7539 22.9657C62.7539 22.9657 60.9635 27.5483 62.6634 36.0836H70.7803C70.8366 34.8364 70.0541 28.7593 71.2551 22.8873C70.3583 22.7142 69.4511 22.5999 68.5394 22.5453C67.3897 22.4779 66.2371 22.4779 65.0874 22.5453C64.2998 22.6243 63.5195 22.7648 62.7539 22.9657Z" fill="black"/>
<path d="M65.7193 27.2545C65.6107 28.2724 65.0515 29.0489 64.4681 28.9866C63.8847 28.9242 63.5005 28.0491 63.6071 27.0292C63.7137 26.0093 64.277 25.2349 64.8584 25.2952C65.4397 25.3556 65.836 26.2346 65.7193 27.2545Z" fill="#407BFF"/>
<path opacity="0.1" d="M65.7193 27.2545C65.6107 28.2724 65.0515 29.0489 64.4681 28.9866C63.8847 28.9242 63.5005 28.0491 63.6071 27.0292C63.7137 26.0093 64.277 25.2349 64.8584 25.2952C65.4397 25.3556 65.836 26.2346 65.7193 27.2545Z" fill="white"/>
<path d="M69.6017 25.6935C69.8672 24.3537 70.3822 24.5851 70.8731 25.2449C70.6633 27.0213 70.5665 28.8092 70.5834 30.5978C70.2495 30.0306 69.1592 27.9385 69.6017 25.6935Z" fill="#407BFF"/>
<path opacity="0.4" d="M69.6017 25.6935C69.8672 24.3537 70.3822 24.5851 70.8731 25.2449C70.6633 27.0213 70.5665 28.8092 70.5834 30.5978C70.2495 30.0306 69.1592 27.9385 69.6017 25.6935Z" fill="black"/>
<path d="M68.1977 18.6588C67.9805 19.7692 67.7632 21.803 68.5397 22.5453C68.5397 22.5453 68.2359 23.6698 66.172 23.6698C63.9049 23.6698 65.0877 22.5453 65.0877 22.5453C66.3269 22.2496 66.2947 21.3383 66.0795 20.4673L68.1977 18.6588Z" fill="#FF8B7B"/>
<path d="M67.3324 19.3971L66.0791 20.4673C66.1325 20.6649 66.1682 20.8668 66.1857 21.0708C66.6585 21.0024 67.3082 20.4834 67.3585 19.9885C67.3869 19.7915 67.378 19.5908 67.3324 19.3971Z" fill="#EA7063"/>
<path d="M65.0312 14.5028C64.1964 15.1525 64.2024 17.7455 65.4677 17.7998C66.7331 17.8542 66.6184 13.2757 65.0312 14.5028Z" fill="#263238"/>
<path d="M68.5194 17.3472C68.0789 18.7876 67.8938 19.6526 66.9745 20.2259C65.5945 21.0889 63.957 19.9865 63.957 18.4436C63.957 17.0535 64.6792 14.9333 66.2503 14.6939C66.5959 14.6408 66.9493 14.6767 67.277 14.7984C67.6048 14.92 67.8961 15.1233 68.1233 15.389C68.3506 15.6547 68.5062 15.974 68.5755 16.3167C68.6448 16.6594 68.6255 17.0141 68.5194 17.3472Z" fill="#FF8B7B"/>
<path d="M68.0725 18.7554C67.2256 18.8881 66.7629 14.5309 68.7826 15.4945C71.6532 16.8685 69.4445 18.5421 68.0725 18.7554Z" fill="#263238"/>
<path d="M68.1534 15.8948C67.1093 15.8043 65.5986 15.8486 65.2707 14.5591C64.8141 12.7607 66.9645 12.4952 67.4956 13.8711C68.775 13.4507 72.2993 15.6474 69.9518 16.7619L68.1534 15.8948Z" fill="#263238"/>
<path d="M68.7933 19.1175C68.5209 19.3802 68.1559 19.5248 67.7774 19.5198C67.2765 19.5097 67.174 19.0269 67.4274 18.6286C67.6628 18.2686 68.2059 17.8421 68.6505 18.0453C69.0951 18.2484 69.1212 18.7815 68.7933 19.1175Z" fill="#FF8B7B"/>
<path d="M62.6634 36.0816C62.6634 36.0816 56.7452 44.283 56.9122 48.9098C57.0831 53.7236 60.9032 60.3761 60.9032 60.3761L63.3715 59.8108C63.3715 59.8108 60.9153 54.0153 61.03 49.288C61.1547 44.1342 68.0003 40.0666 68.0003 36.0916L62.6634 36.0816Z" fill="#263238"/>
<path d="M65.5441 36.0816C65.5441 36.0816 62.5267 44.5305 63.4742 48.8776C64.5082 53.6351 69.7102 60.6658 69.7102 60.6658L72.1946 59.9818C72.1946 59.9818 68.8312 53.9328 68.2417 49.2216C67.6 44.11 70.7885 39.8836 70.7885 36.0816H65.5441Z" fill="#263238"/>
<path d="M69.3322 61.0118L72.9049 60.348L72.7259 59.3884L68.7207 60.0663L69.3322 61.0118Z" fill="#407BFF"/>
<path opacity="0.4" d="M69.3322 61.0118L72.9049 60.348L72.7259 59.3884L68.7207 60.0663L69.3322 61.0118Z" fill="white"/>
<path d="M60.3884 60.5833L64.0033 60.2272L63.9068 59.2415L59.8594 59.5896L60.3884 60.5833Z" fill="#407BFF"/>
<path opacity="0.4" d="M60.3884 60.5833L64.0033 60.2272L63.9068 59.2415L59.8594 59.5896L60.3884 60.5833Z" fill="white"/>
<path d="M66.2041 17.2245C66.1759 17.3432 66.0894 17.4257 66.0029 17.4056C65.9164 17.3854 65.8842 17.2748 65.9144 17.1561C65.9446 17.0374 66.029 16.955 66.1055 16.9751C66.1819 16.9952 66.2383 17.1058 66.2041 17.2245Z" fill="#263238"/>
<path d="M64.8585 16.9006C64.8303 17.0193 64.7438 17.1018 64.6573 17.0837C64.5708 17.0656 64.5407 16.953 64.5688 16.8343C64.597 16.7156 64.6835 16.6331 64.77 16.6512C64.8565 16.6693 64.8867 16.782 64.8585 16.9006Z" fill="#263238"/>
<path d="M65.2705 17.0636C65.044 17.3929 64.7732 17.6893 64.4658 17.9447C64.5332 18.0223 64.6167 18.0844 64.7105 18.1264C64.8043 18.1684 64.9062 18.1895 65.009 18.1881L65.2705 17.0636Z" fill="#FF5652"/>
<path d="M65.5382 18.6327C65.4474 18.6321 65.357 18.6213 65.2686 18.6005C65.2596 18.5977 65.2519 18.5916 65.247 18.5834C65.2422 18.5752 65.2406 18.5655 65.2425 18.5562C65.2437 18.5516 65.2457 18.5472 65.2486 18.5434C65.2515 18.5396 65.2551 18.5364 65.2592 18.5339C65.2633 18.5315 65.2678 18.5299 65.2726 18.5292C65.2773 18.5286 65.2821 18.5289 65.2867 18.5301C65.4341 18.569 65.5885 18.5726 65.7374 18.5404C65.8864 18.5082 66.0256 18.4413 66.1437 18.345C66.1505 18.3385 66.1595 18.3348 66.1689 18.3348C66.1782 18.3348 66.1872 18.3385 66.194 18.345C66.1975 18.3482 66.2002 18.3521 66.2021 18.3564C66.204 18.3607 66.205 18.3654 66.205 18.3701C66.205 18.3749 66.204 18.3795 66.2021 18.3839C66.2002 18.3882 66.1975 18.3921 66.194 18.3953C66.0107 18.5501 65.7781 18.6343 65.5382 18.6327Z" fill="#263238"/>
<path d="M66.7289 16.8886C66.7152 16.8885 66.7019 16.8845 66.6904 16.877C66.679 16.8695 66.67 16.8589 66.6645 16.8463C66.6306 16.7627 66.5774 16.6883 66.5092 16.6292C66.4411 16.5701 66.3599 16.528 66.2723 16.5064C66.2533 16.5032 66.2364 16.4926 66.2253 16.4769C66.2142 16.4613 66.2097 16.4418 66.2129 16.4229C66.2161 16.4039 66.2267 16.387 66.2424 16.3759C66.258 16.3648 66.2775 16.3603 66.2964 16.3635C66.4075 16.389 66.5109 16.4409 66.5977 16.5148C66.6846 16.5887 66.7523 16.6824 66.7953 16.788C66.7993 16.7965 66.8015 16.8058 66.8019 16.8153C66.8022 16.8247 66.8006 16.8341 66.7972 16.8429C66.7939 16.8518 66.7887 16.8598 66.7822 16.8666C66.7756 16.8734 66.7678 16.8788 66.7591 16.8825C66.7498 16.8874 66.7393 16.8895 66.7289 16.8886Z" fill="#263238"/>
<path d="M64.3976 16.2992C64.3808 16.2997 64.3643 16.294 64.3514 16.2831C64.344 16.2772 64.3378 16.2699 64.3333 16.2616C64.3288 16.2534 64.326 16.2443 64.3251 16.2349C64.3241 16.2255 64.3251 16.216 64.3279 16.207C64.3307 16.198 64.3352 16.1897 64.3413 16.1825C64.4123 16.0915 64.5043 16.0191 64.6094 15.9715C64.7145 15.9238 64.8296 15.9023 64.9448 15.9089C64.9637 15.9114 64.9808 15.9213 64.9925 15.9363C65.0042 15.9514 65.0094 15.9704 65.0072 15.9894C65.0047 16.0079 64.9951 16.0247 64.9805 16.0363C64.9658 16.0479 64.9473 16.0534 64.9287 16.0517C64.8384 16.0494 64.7488 16.0681 64.6671 16.1066C64.5854 16.145 64.5138 16.202 64.458 16.273C64.4509 16.2821 64.4417 16.2892 64.4312 16.2938C64.4206 16.2984 64.4091 16.3002 64.3976 16.2992Z" fill="#263238"/>
<path d="M44.6098 45.3941L39.1646 46.0425L39.1883 46.2422L44.6336 45.5939L44.6098 45.3941Z" fill="#407BFF"/>
<path d="M48.7952 44.8906L46.5522 45.1601L46.5762 45.3598L48.8192 45.0904L48.7952 44.8906Z" fill="#407BFF"/>
<path d="M79.8645 32.0237L31.5693 37.7826L32.5871 46.3178L80.8823 40.559L79.8645 32.0237Z" fill="#407BFF"/>
<path d="M72.7339 35.2135L50.5479 37.859L51.0154 41.78L73.2015 39.1345L72.7339 35.2135Z" fill="#407BFF"/>
<path opacity="0.2" d="M72.7339 35.2135L50.5479 37.859L51.0154 41.78L73.2015 39.1345L72.7339 35.2135Z" fill="white"/>
<path d="M38.8598 43.3756C39.9387 42.5119 40.1132 40.937 39.2494 39.8581C38.3856 38.7792 36.8108 38.6048 35.7319 39.4685C34.653 40.3323 34.4785 41.9071 35.3423 42.9861C36.2061 44.065 37.7809 44.2394 38.8598 43.3756Z" fill="#407BFF"/>
<path opacity="0.2" d="M38.8598 43.3756C39.9387 42.5119 40.1132 40.937 39.2494 39.8581C38.3856 38.7792 36.8108 38.6048 35.7319 39.4685C34.653 40.3323 34.4785 41.9071 35.3423 42.9861C36.2061 44.065 37.7809 44.2394 38.8598 43.3756Z" fill="white"/>
<path d="M46.3569 42.1155C47.1993 41.0198 46.9938 39.4486 45.8981 38.6063C44.8023 37.764 43.2312 37.9695 42.3889 39.0652C41.5466 40.1609 41.752 41.7321 42.8478 42.5744C43.9435 43.4167 45.5146 43.2112 46.3569 42.1155Z" fill="#407BFF"/>
<path opacity="0.2" d="M46.3569 42.1155C47.1993 41.0198 46.9938 39.4486 45.8981 38.6063C44.8023 37.764 43.2312 37.9695 42.3889 39.0652C41.5466 40.1609 41.752 41.7321 42.8478 42.5744C43.9435 43.4167 45.5146 43.2112 46.3569 42.1155Z" fill="white"/>
<path d="M71.8347 24.0681C71.9675 24.3497 72.0761 24.5992 72.1807 24.8727C72.2853 25.1463 72.3819 25.4018 72.4865 25.6774C72.6877 26.2105 72.8546 26.7516 73.0055 27.3048C73.1619 27.8606 73.2902 28.4239 73.3897 28.9926L73.4622 29.4251L73.5145 29.8656C73.5346 30.0125 73.5426 30.1633 73.5527 30.3122L73.5688 30.5375V30.5938V30.6864C73.5688 30.7588 73.5688 30.8211 73.5688 30.8875C73.5293 31.2831 73.4145 31.6675 73.2308 32.0201C73.089 32.3038 72.9277 32.5774 72.748 32.8388C72.4155 33.3168 72.0519 33.7724 71.6597 34.2027C70.9025 35.0347 70.082 35.8067 69.2055 36.5121L68.4009 35.7074C69.0567 34.8686 69.7125 34.0015 70.3059 33.1406C70.5972 32.7221 70.8658 32.2883 71.1106 31.841C71.2227 31.6405 71.3202 31.4321 71.4022 31.2174C71.4598 31.0799 71.4938 30.9337 71.5028 30.7849C71.5028 30.7849 71.5028 30.7749 71.5028 30.7849C71.5028 30.795 71.5028 30.797 71.5028 30.7849V30.7387L71.4747 30.5576C71.4566 30.4349 71.4405 30.3162 71.4123 30.1915L71.3399 29.8254L71.2534 29.4552C71.1307 28.9624 70.9919 28.4675 70.8329 27.9747C70.674 27.4818 70.501 26.989 70.318 26.4981C70.2274 26.2527 70.1349 26.0093 70.0384 25.7659L69.7426 25.0176L71.8347 24.0681Z" fill="#FF8B7B"/>
<path d="M71.573 22.9879C72.9268 23.5089 73.8984 28.4615 73.8984 28.4615L70.6798 29.7309C70.6798 29.7309 69.5996 27.2425 69.2355 25.4018C68.8533 23.4646 70.0361 22.4025 71.573 22.9879Z" fill="#407BFF"/>
<path opacity="0.3" d="M71.573 22.9879C72.9268 23.5089 73.8984 28.4615 73.8984 28.4615L70.6798 29.7309C70.6798 29.7309 69.5996 27.2425 69.2355 25.4018C68.8533 23.4646 70.0361 22.4025 71.573 22.9879Z" fill="black"/>
<path d="M70.1688 62.5105C70.0651 62.5181 69.9619 62.4912 69.8751 62.434C69.8482 62.4105 69.8274 62.3809 69.8144 62.3476C69.8014 62.3143 69.7967 62.2784 69.8007 62.2429C69.8005 62.222 69.8062 62.2014 69.8173 62.1836C69.8283 62.1658 69.8442 62.1515 69.863 62.1423C70.032 62.0558 70.5208 62.3556 70.5751 62.3918C70.5815 62.3952 70.5865 62.4006 70.5894 62.4071C70.5923 62.4137 70.593 62.421 70.5912 62.428C70.5902 62.4348 70.5872 62.4411 70.5825 62.4461C70.5778 62.4511 70.5718 62.4546 70.5651 62.4562C70.4355 62.4894 70.3025 62.5076 70.1688 62.5105ZM69.9435 62.1967C69.9268 62.1953 69.91 62.1987 69.8952 62.2067C69.8852 62.2067 69.8751 62.2208 69.8731 62.249C69.8697 62.2727 69.8723 62.297 69.8807 62.3195C69.8892 62.342 69.9031 62.362 69.9214 62.3777C70.0908 62.456 70.2838 62.4661 70.4605 62.4059C70.3031 62.3037 70.1276 62.2327 69.9435 62.1967Z" fill="#407BFF"/>
<path d="M70.5573 62.4581C70.5514 62.4599 70.5452 62.4599 70.5392 62.4581C70.3823 62.3737 70.0786 62.0417 70.1108 61.8728C70.1159 61.8461 70.1302 61.8221 70.1511 61.8049C70.172 61.7876 70.1983 61.7782 70.2254 61.7782C70.2527 61.7751 70.2804 61.7776 70.3067 61.7855C70.333 61.7935 70.3573 61.8067 70.3783 61.8245C70.5553 61.9673 70.5915 62.4058 70.5936 62.428C70.5937 62.4345 70.5923 62.441 70.5895 62.447C70.5868 62.4529 70.5826 62.4581 70.5775 62.4622C70.5705 62.4627 70.5636 62.4613 70.5573 62.4581ZM70.2616 61.8426H70.2435C70.1973 61.8426 70.1932 61.8708 70.1912 61.8788C70.1731 61.9794 70.3662 62.2308 70.5231 62.3495C70.5122 62.1763 70.4498 62.0104 70.3441 61.8728C70.3208 61.8538 70.2917 61.8432 70.2616 61.8426Z" fill="#407BFF"/>
<path d="M61.0484 62.5104C60.9181 62.5223 60.7876 62.4897 60.6782 62.4179C60.6538 62.3963 60.635 62.3691 60.6234 62.3386C60.6119 62.3081 60.6079 62.2753 60.6118 62.2429C60.6126 62.2232 60.6184 62.204 60.6286 62.1871C60.6388 62.1702 60.6531 62.1562 60.6702 62.1463C60.8552 62.0438 61.4648 62.3475 61.5352 62.3897C61.5415 62.3933 61.5465 62.3986 61.5498 62.4051C61.553 62.4115 61.5542 62.4188 61.5533 62.4259C61.5525 62.4334 61.5494 62.4403 61.5443 62.4458C61.5392 62.4512 61.5325 62.4548 61.5251 62.4561C61.3683 62.4893 61.2086 62.5075 61.0484 62.5104ZM60.7728 62.1966C60.7498 62.1951 60.7268 62.2 60.7064 62.2107C60.6993 62.2143 60.6933 62.2198 60.6891 62.2265C60.6848 62.2332 60.6825 62.241 60.6822 62.2489C60.6802 62.2702 60.6831 62.2916 60.6908 62.3115C60.6984 62.3314 60.7107 62.3493 60.7265 62.3636C60.819 62.4461 61.0705 62.4622 61.4044 62.4058C61.2074 62.3005 60.9937 62.2298 60.7728 62.1966Z" fill="#407BFF"/>
<path d="M61.5168 62.4582H61.5028C61.3197 62.3757 60.9576 62.0558 60.9838 61.8768C60.9838 61.8366 61.02 61.7863 61.1185 61.7762C61.1544 61.7716 61.1909 61.7746 61.2256 61.785C61.2602 61.7953 61.2923 61.8129 61.3197 61.8366C61.5209 61.9955 61.5531 62.4038 61.5551 62.422C61.5561 62.4281 61.5553 62.4344 61.5528 62.4401C61.5503 62.4459 61.5462 62.4507 61.541 62.4541C61.5335 62.4578 61.5251 62.4592 61.5168 62.4582ZM61.1467 61.8426H61.1266C61.0602 61.8426 61.0562 61.8748 61.0562 61.8828C61.0381 61.9874 61.2855 62.2449 61.4726 62.3576C61.4552 62.1844 61.3849 62.0208 61.2714 61.8889C61.237 61.8585 61.1926 61.842 61.1467 61.8426Z" fill="#407BFF"/>
<path d="M68.7528 35.4781L67.2642 35.8804L68.4973 37.3751C68.4973 37.3751 69.6902 36.7575 69.4327 36.0876L68.7528 35.4781Z" fill="#FF8B7B"/>
<path d="M66.186 37.1216L67.2643 38.2924L68.4974 37.3731L67.2643 35.8784L66.186 37.1216Z" fill="#FF8B7B"/>
<path d="M18.0851 19.385C17.7492 19.727 17.3891 20.1072 17.0572 20.4854C16.7252 20.8636 16.3933 21.2518 16.0815 21.6501C15.7697 22.0484 15.478 22.4548 15.1904 22.8571L14.9892 23.1689L14.788 23.4847C14.7217 23.5913 14.6633 23.6979 14.605 23.8066L14.4461 24.0983C14.3806 24.2652 14.3439 24.4421 14.3374 24.6213C14.3213 24.8517 14.3213 25.0829 14.3374 25.3133C14.3725 25.8107 14.4363 26.3058 14.5285 26.7959C14.615 27.2968 14.7297 27.8017 14.8444 28.3006C14.959 28.7995 15.0918 29.3064 15.2226 29.8033L14.4863 30.0789C14.038 29.1026 13.6641 28.094 13.3678 27.0614C13.2147 26.5335 13.0978 25.9959 13.0178 25.4521C12.9761 25.1609 12.9553 24.8671 12.9554 24.573C12.9499 24.2259 13.0085 23.8809 13.1284 23.5551C13.1727 23.4445 13.1988 23.4002 13.229 23.3338L13.3195 23.1447C13.3799 23.018 13.4423 22.8933 13.5086 22.7726L13.7098 22.4065L13.911 22.0504C14.1922 21.5817 14.4985 21.1285 14.8283 20.6926C15.1542 20.258 15.4921 19.8316 15.8482 19.4252C16.2042 19.0189 16.5643 18.6206 16.9767 18.2343L18.0851 19.385Z" fill="#B55B52"/>
<path d="M18.17 16.9892C17.0937 17.0374 16.0698 18.8258 16.0698 18.8258L17.3432 21.4248C17.3432 21.4248 19.4212 20.1253 19.4474 18.5462C19.4635 17.5202 19.2301 16.9409 18.17 16.9892Z" fill="#407BFF"/>
<path opacity="0.5" d="M18.17 16.9892C17.0937 17.0374 16.0698 18.8258 16.0698 18.8258L17.3432 21.4248C17.3432 21.4248 19.4212 20.1253 19.4474 18.5462C19.4635 17.5202 19.2301 16.9409 18.17 16.9892Z" fill="black"/>
<path d="M15.0195 29.5015L16.3311 29.8918L15.4581 30.7749C15.4581 30.7749 14.5146 30.4832 14.3818 29.8415L15.0195 29.5015Z" fill="#B55B52"/>
<path d="M17.1236 30.8996L16.9044 31.7445L15.458 30.7749L16.3311 29.8918L17.1236 30.8996Z" fill="#B55B52"/>
<path d="M47.1889 22.1545L15.3779 22.9153L15.6648 34.9092L47.4757 34.1485L47.1889 22.1545Z" fill="#407BFF"/>
<path opacity="0.6" d="M47.1889 22.1545L15.3779 22.9153L15.6648 34.9092L47.4757 34.1485L47.1889 22.1545Z" fill="white"/>
<path d="M45.5897 23.1482L33.7305 23.4319L33.8374 27.9025L45.6966 27.6188L45.5897 23.1482Z" fill="#407BFF"/>
<path opacity="0.7" d="M45.5897 23.1482L33.7305 23.4319L33.8374 27.9025L45.6966 27.6188L45.5897 23.1482Z" fill="white"/>
<path d="M39.2313 28.714L27.3721 28.9976L27.479 33.4682L39.3382 33.1846L39.2313 28.714Z" fill="#407BFF"/>
<path opacity="0.7" d="M39.2313 28.714L27.3721 28.9976L27.479 33.4682L39.3382 33.1846L39.2313 28.714Z" fill="white"/>
<path d="M25.6027 13.0263C25.5826 13.149 25.6309 13.2616 25.7113 13.2757C25.7918 13.2898 25.8743 13.2053 25.8964 13.0745C25.9185 12.9438 25.8662 12.8392 25.7858 12.8231C25.7053 12.807 25.6128 12.9015 25.6027 13.0263Z" fill="#263238"/>
<path d="M25.7393 12.8311L26.049 12.8029C26.049 12.8029 25.86 13.0041 25.7393 12.8311Z" fill="#263238"/>
<path d="M25.677 13.165C25.7415 13.468 25.8463 13.761 25.9888 14.0361C25.9175 14.0688 25.84 14.0857 25.7615 14.0857C25.683 14.0857 25.6055 14.0688 25.5342 14.0361L25.677 13.165Z" fill="#A02724"/>
<path d="M25.8948 12.2377C25.8827 12.2374 25.8709 12.2339 25.8606 12.2276C25.7791 12.1804 25.6878 12.1529 25.5938 12.1473C25.4999 12.1418 25.4059 12.1582 25.3195 12.1954C25.3109 12.1999 25.3015 12.2026 25.2919 12.2034C25.2823 12.2042 25.2726 12.2031 25.2634 12.2001C25.2542 12.1971 25.2457 12.1923 25.2384 12.186C25.2311 12.1796 25.2251 12.1719 25.2209 12.1632C25.216 12.1549 25.213 12.1456 25.2119 12.136C25.2108 12.1264 25.2117 12.1166 25.2145 12.1074C25.2173 12.0981 25.222 12.0896 25.2283 12.0822C25.2346 12.0749 25.2424 12.0689 25.2511 12.0647C25.3587 12.0164 25.4763 11.9943 25.5941 12.0002C25.712 12.0062 25.8267 12.04 25.929 12.0989C25.9375 12.1033 25.945 12.1094 25.9511 12.1168C25.9573 12.1242 25.9619 12.1327 25.9647 12.1419C25.9675 12.151 25.9684 12.1607 25.9675 12.1702C25.9665 12.1797 25.9637 12.189 25.9592 12.1974C25.9534 12.2096 25.9443 12.2199 25.9329 12.227C25.9214 12.2341 25.9082 12.2378 25.8948 12.2377Z" fill="#263238"/>
<path d="M21.6621 14.0401C21.6922 14.9795 21.5957 16.6733 20.8574 17.1521C20.8574 17.1521 20.954 18.1197 22.6458 18.4456C24.5045 18.8057 23.6858 17.7013 23.6858 17.7013C22.7101 17.2627 22.861 16.5204 23.1547 15.8506L21.6621 14.0401Z" fill="#B55B52"/>
<path d="M26.7274 19.5218C26.8441 19.9905 26.9909 20.5035 27.1518 20.9863C27.3128 21.4691 27.4938 21.9519 27.697 22.4166C27.8953 22.8739 28.1266 23.3163 28.389 23.7402C28.6287 24.1427 28.9202 24.5119 29.256 24.8386C29.4114 24.9842 29.5828 25.1118 29.767 25.2188C29.8526 25.2698 29.9421 25.3142 30.0345 25.3515L30.119 25.3837C30.1413 25.3902 30.1642 25.3943 30.1874 25.3958C30.3487 25.3994 30.5086 25.3649 30.6541 25.2952C30.8581 25.2036 31.0528 25.0925 31.2355 24.9633C32.0538 24.349 32.7966 23.64 33.4483 22.8511L34.104 23.2876C33.9652 23.5411 33.8224 23.7724 33.6715 24.0078C33.5207 24.2431 33.3597 24.4684 33.1888 24.6917C32.8461 25.1539 32.4571 25.5798 32.028 25.9631C31.7922 26.1707 31.5345 26.3521 31.2596 26.5042C30.9299 26.6912 30.5601 26.7961 30.1814 26.81C30.0701 26.8104 29.959 26.801 29.8494 26.7818C29.7468 26.7624 29.6459 26.7348 29.5477 26.6993C29.3885 26.6442 29.2339 26.577 29.085 26.4982C28.7965 26.3476 28.5264 26.164 28.2804 25.951C27.3248 25.1202 26.7415 24.0943 26.2687 23.0683C26.0311 22.5565 25.8236 22.0312 25.6471 21.4952C25.4637 20.9591 25.3106 20.4131 25.1885 19.8598L26.7274 19.5218Z" fill="#B55B52"/>
<path d="M33.3599 22.9295L33.8165 22.0927L35.0838 22.4286C35.0838 22.4286 34.3234 23.5853 33.6757 23.5873L33.3599 22.9295Z" fill="#B55B52"/>
<path d="M34.8484 21.7909L35.812 22.4286H35.0838L33.8145 22.0927L34.8484 21.7909Z" fill="#B55B52"/>
<path d="M17.6167 62.3133L19.1697 62.426L19.6303 58.8614L18.0774 58.7467L17.6167 62.3133Z" fill="#B55B52"/>
<path d="M5.39795 54.645L6.47015 55.7976L9.38099 53.7136L8.30677 52.5609L5.39795 54.645Z" fill="#B55B52"/>
<path d="M6.94089 55.6186L6.0437 54.0897C6.02952 54.0633 6.00613 54.0429 5.97795 54.0325C5.94978 54.0221 5.91878 54.0225 5.89081 54.0334L4.61544 54.5484C4.58347 54.563 4.555 54.5844 4.53192 54.6109C4.50884 54.6374 4.49168 54.6686 4.48159 54.7023C4.4715 54.736 4.46871 54.7714 4.47341 54.8063C4.4781 54.8412 4.49018 54.8746 4.50882 54.9044C4.82867 55.4315 5.00972 55.6709 5.404 56.3428C5.64539 56.7451 5.95921 57.3848 6.29314 57.9521C6.62707 58.5194 7.19435 58.2317 7.09779 57.9641C6.69547 56.7672 6.89663 56.4192 6.98514 55.8881C7.00112 55.7959 6.98553 55.7009 6.94089 55.6186Z" fill="#263238"/>
<path d="M19.2662 62.2067H17.5221C17.4919 62.2058 17.4624 62.2159 17.4391 62.2352C17.4158 62.2544 17.4003 62.2815 17.3954 62.3113L17.154 63.6933C17.1494 63.7277 17.1522 63.7627 17.1623 63.7959C17.1723 63.8291 17.1893 63.8598 17.2122 63.8859C17.235 63.912 17.2632 63.9329 17.2948 63.9472C17.3264 63.9615 17.3607 63.9689 17.3954 63.9689C17.9989 63.9588 18.2986 63.9226 19.0671 63.9226C19.5398 63.9226 20.5154 63.9729 21.1672 63.9729C21.819 63.9729 21.8693 63.3272 21.5997 63.2688C20.3927 63.0073 19.92 62.6452 19.5177 62.3012C19.4472 62.2419 19.3584 62.2085 19.2662 62.2067Z" fill="#263238"/>
<path d="M19.6302 58.8613L19.3747 60.8448L17.8398 60.5873L18.0772 58.7487L19.6302 58.8613Z" fill="#9E4541"/>
<path d="M8.30667 52.5609L9.38088 53.7136L8.17591 54.5766L7.06348 53.4501L8.30667 52.5609Z" fill="#9E4541"/>
<path d="M17.7334 26.4479L23.9695 27.6549C26.9044 18.9827 26.2064 18.7111 26.2064 18.7111C25.7506 18.4639 25.2804 18.2442 24.7983 18.0533L24.7138 18.0231C24.3114 17.8763 24.231 17.8562 23.6979 17.6993C22.7806 17.484 21.9256 17.2969 20.8695 17.1541L20.6684 17.126C20.4773 17.1018 20.2882 17.0817 20.1051 17.0636C19.9804 17.0495 19.8577 17.0415 19.739 17.0334L19.3367 17.0113C18.6567 16.9791 18.1699 16.9892 18.1699 16.9892C18.5139 22.4025 18.2544 23.9494 17.7334 26.4479Z" fill="#407BFF"/>
<path opacity="0.5" d="M17.7334 26.4479L23.9695 27.6549C26.9044 18.9827 26.2064 18.7111 26.2064 18.7111C25.7506 18.4639 25.2804 18.2442 24.7983 18.0533L24.7138 18.0231C24.3114 17.8763 24.231 17.8562 23.6979 17.6993C22.7806 17.484 21.9256 17.2969 20.8695 17.1541L20.6684 17.126C20.4773 17.1018 20.2882 17.0817 20.1051 17.0636C19.9804 17.0495 19.8577 17.0415 19.739 17.0334L19.3367 17.0113C18.6567 16.9791 18.1699 16.9892 18.1699 16.9892C18.5139 22.4025 18.2544 23.9494 17.7334 26.4479Z" fill="black"/>
<path d="M24.9407 21.3464C24.762 22.2526 24.8251 23.19 25.1238 24.0641C25.6407 22.3703 25.9284 21.2116 26.0934 20.419C25.6166 20.3566 25.1077 20.5115 24.9407 21.3464Z" fill="#407BFF"/>
<path opacity="0.6" d="M24.9407 21.3464C24.762 22.2526 24.8251 23.19 25.1238 24.0641C25.6407 22.3703 25.9284 21.2116 26.0934 20.419C25.6166 20.3566 25.1077 20.5115 24.9407 21.3464Z" fill="black"/>
<path d="M26.148 18.6809C27.188 19.3589 27.8498 20.8696 28.0248 21.7326L25.6109 23.698C25.6109 23.698 24.2973 20.765 24.7278 20.0167C25.1804 19.2361 25.7557 18.4255 26.148 18.6809Z" fill="#407BFF"/>
<path opacity="0.5" d="M26.148 18.6809C27.188 19.3589 27.8498 20.8696 28.0248 21.7326L25.6109 23.698C25.6109 23.698 24.2973 20.765 24.7278 20.0167C25.1804 19.2361 25.7557 18.4255 26.148 18.6809Z" fill="black"/>
<path d="M21.509 11.8856C21.3541 13.4145 21.2535 14.0582 21.8932 14.9815C22.8548 16.3716 24.7739 16.2851 25.3854 14.8468C25.9366 13.5533 26.0995 11.2701 24.7115 10.3809C24.4162 10.1801 24.0737 10.0597 23.7177 10.0316C23.3617 10.0034 23.0045 10.0685 22.6813 10.2203C22.3581 10.3722 22.08 10.6056 21.8744 10.8976C21.6689 11.1896 21.5429 11.5301 21.509 11.8856Z" fill="#B55B52"/>
<path d="M21.5313 8.76559C20.5919 9.46162 21.1934 9.62859 20.793 10.3306C20.3646 11.083 19.914 10.226 19.061 11.0528C18.5078 11.5899 19.4634 12.1592 18.7653 13.1047C18.2302 13.8389 17.6509 13.2033 17.8762 14.714C18.0311 15.7419 17.4014 15.6132 16.977 16.1946C16.3735 17.0274 16.9146 17.6248 18.4676 17.9387C20.0206 18.2525 18.9142 19.8135 20.3746 19.8598C21.9678 19.9121 21.5977 17.8361 22.3742 18.341C23.1507 18.8459 24.5649 18.3852 24.4784 17.1441C24.4019 16.0055 23.1366 16.0457 24.1605 15.2672C24.9652 14.6637 25.2086 14.6637 24.6413 13.3682C24.1605 12.2658 25.9267 12.4348 25.8946 11.4793C25.8342 9.75532 24.6413 10.2723 24.2651 9.3892C24.0217 8.80985 22.7343 7.87243 21.5313 8.76559Z" fill="#263238"/>
<path d="M24.4805 12.6822C24.4884 12.9679 24.5847 13.2441 24.7561 13.4728C24.9934 13.7967 25.2731 13.7122 25.3414 13.4145C25.4038 13.1469 25.3555 12.6561 25.0518 12.4308C24.748 12.2055 24.4825 12.3624 24.4805 12.6822Z" fill="#B55B52"/>
<path d="M22.3177 27.337C22.3177 27.337 19.2841 37.4978 17.8016 43.3496C16.2365 49.5254 8.77333 54.5564 8.77333 54.5564L7.18213 52.9793C7.18213 52.9793 12.171 48.769 13.6857 43.0056C16.7615 31.31 15.281 28.8317 17.7332 26.4539L22.3177 27.337Z" fill="#407BFF"/>
<path opacity="0.8" d="M22.3177 27.337C22.3177 27.337 19.2841 37.4978 17.8016 43.3496C16.2365 49.5254 8.77333 54.5564 8.77333 54.5564L7.18213 52.9793C7.18213 52.9793 12.171 48.769 13.6857 43.0056C16.7615 31.31 15.281 28.8317 17.7332 26.4539L22.3177 27.337Z" fill="white"/>
<path d="M8.91236 54.7878L6.92285 52.8103L7.46398 52.2109L9.88398 54.2708L8.91236 54.7878Z" fill="#407BFF"/>
<path d="M20.8935 29.5015C18.902 31.0364 18.7692 36.8863 18.8155 39.5295C19.8213 35.8342 21.0283 31.7244 21.7243 29.3466C21.5332 29.1857 21.2596 29.2179 20.8935 29.5015Z" fill="#407BFF"/>
<path opacity="0.6" d="M20.8935 29.5015C18.902 31.0364 18.7692 36.8863 18.8155 39.5295C19.8213 35.8342 21.0283 31.7244 21.7243 29.3466C21.5332 29.1857 21.2596 29.2179 20.8935 29.5015Z" fill="white"/>
<path d="M7.26288 56.4474C7.24423 56.4505 7.2252 56.4505 7.20655 56.4474C7.01746 56.3891 6.88268 56.0451 6.81831 55.8439C6.81634 55.837 6.81643 55.8298 6.81858 55.823C6.82072 55.8162 6.82483 55.8101 6.83038 55.8057C6.83623 55.8014 6.84327 55.7991 6.8505 55.7991C6.85772 55.7991 6.86477 55.8014 6.87061 55.8057C6.92895 55.8338 7.43186 56.0974 7.45197 56.2945C7.45381 56.3165 7.44997 56.3386 7.44081 56.3587C7.43165 56.3788 7.41749 56.3961 7.39967 56.4092C7.35971 56.437 7.31149 56.4505 7.26288 56.4474ZM6.91889 55.8982C7.01143 56.1638 7.12005 56.3368 7.22667 56.3689C7.24927 56.3747 7.27295 56.3746 7.29549 56.3686C7.31802 56.3626 7.33865 56.3509 7.35541 56.3347C7.36342 56.3297 7.36978 56.3225 7.37371 56.3139C7.37765 56.3053 7.37898 56.2958 7.37754 56.2865C7.36748 56.1819 7.11603 56.0089 6.91889 55.8982Z" fill="#407BFF"/>
<path d="M23.8685 27.6549C23.8685 27.6549 24.2568 39.95 23.3877 44.5808C22.4845 49.3966 19.7326 60.354 19.7326 60.354L17.4937 60.0643C17.4937 60.0643 18.9018 49.0003 19.5053 44.2106C20.1591 38.9924 19.3041 26.7718 19.3041 26.7718L23.8685 27.6549Z" fill="#407BFF"/>
<path opacity="0.8" d="M23.8685 27.6549C23.8685 27.6549 24.2568 39.95 23.3877 44.5808C22.4845 49.3966 19.7326 60.354 19.7326 60.354L17.4937 60.0643C17.4937 60.0643 18.9018 49.0003 19.5053 44.2106C20.1591 38.9924 19.3041 26.7718 19.3041 26.7718L23.8685 27.6549Z" fill="white"/>
<path d="M20.2096 60.4807L17.0171 60.0703L17.0553 59.312L20.5294 59.4628L20.2096 60.4807Z" fill="#407BFF"/>
<path d="M7.31328 55.9626C7.14771 55.9614 6.98437 55.9244 6.83451 55.8539C6.82935 55.8502 6.82507 55.8454 6.82194 55.8398C6.81882 55.8343 6.81693 55.8281 6.81641 55.8218C6.81685 55.8151 6.81892 55.8088 6.82243 55.8031C6.82594 55.7975 6.83078 55.7929 6.83652 55.7896C6.85262 55.7795 7.23885 55.5602 7.44001 55.6306C7.4677 55.6393 7.49318 55.6539 7.5147 55.6733C7.53623 55.6928 7.5533 55.7166 7.56474 55.7433C7.57962 55.769 7.58515 55.7991 7.58038 55.8284C7.57562 55.8578 7.56085 55.8845 7.53858 55.9042C7.47214 55.9484 7.3928 55.9689 7.31328 55.9626ZM6.93509 55.8197C7.11011 55.8901 7.41386 55.9203 7.49433 55.8479C7.50841 55.8378 7.52048 55.8177 7.49433 55.7735C7.48782 55.7561 7.47733 55.7405 7.46371 55.7279C7.45008 55.7154 7.4337 55.7062 7.41587 55.701C7.24725 55.6906 7.07946 55.732 6.93509 55.8197Z" fill="#407BFF"/>
<path d="M19.8436 62.4783C19.6799 62.4748 19.5169 62.4559 19.3568 62.4219C19.3493 62.4205 19.3425 62.4168 19.3371 62.4115C19.3317 62.4061 19.3281 62.3992 19.3266 62.3918C19.3254 62.3841 19.3267 62.3762 19.3303 62.3693C19.334 62.3624 19.3397 62.3569 19.3467 62.3535C19.4171 62.3173 20.0468 61.9995 20.2338 62.1061C20.2512 62.1159 20.2658 62.1298 20.2764 62.1467C20.2869 62.1636 20.293 62.1828 20.2942 62.2027C20.2981 62.2362 20.2935 62.2702 20.2809 62.3015C20.2682 62.3327 20.2479 62.3603 20.2218 62.3817C20.1105 62.4564 19.977 62.4905 19.8436 62.4783ZM19.4795 62.3696C19.8215 62.426 20.083 62.4119 20.1735 62.3274C20.1904 62.313 20.2035 62.2946 20.2115 62.2739C20.2196 62.2532 20.2224 62.2308 20.2198 62.2087C20.2199 62.2007 20.2179 62.1927 20.214 62.1857C20.2102 62.1786 20.2045 62.1727 20.1976 62.1685C20.095 62.1121 19.739 62.2469 19.4795 62.3696Z" fill="#407BFF"/>
<path d="M19.3669 62.4219C19.3603 62.4237 19.3534 62.4237 19.3468 62.4219C19.3414 62.4181 19.337 62.413 19.3342 62.407C19.3314 62.401 19.3302 62.3943 19.3307 62.3877C19.3307 62.3596 19.4132 61.6857 19.7833 61.7259C19.8839 61.736 19.9141 61.7883 19.9201 61.8285C19.9483 62.0035 19.5721 62.3415 19.383 62.432L19.3669 62.4219ZM19.7551 61.7923C19.5298 61.7923 19.4413 62.1624 19.4152 62.3193C19.6163 62.2047 19.8638 61.9391 19.8477 61.8345C19.8477 61.8345 19.8477 61.8003 19.7753 61.7943L19.7551 61.7923Z" fill="#407BFF"/>
<path d="M17.7011 26.0677L17.3289 26.5665C17.2988 26.6068 17.343 26.6591 17.4154 26.6732L23.9472 27.9385C24.0035 27.9506 24.0558 27.9385 24.0639 27.8962L24.2128 27.3531C24.2128 27.3149 24.1786 27.2746 24.1182 27.2626L17.8097 26.0395C17.7907 26.0341 17.7707 26.0338 17.7516 26.0388C17.7325 26.0437 17.715 26.0537 17.7011 26.0677Z" fill="#407BFF"/>
<path d="M18.4311 26.9327L18.2622 26.9005C18.23 26.9005 18.2058 26.8703 18.2119 26.8502L18.413 26.1461C18.413 26.126 18.4513 26.1139 18.4834 26.12L18.6524 26.1522C18.6866 26.1522 18.7087 26.1823 18.7027 26.2025L18.5015 26.9065C18.4975 26.9266 18.4653 26.9387 18.4311 26.9327Z" fill="#407BFF"/>
<path opacity="0.8" d="M18.4311 26.9327L18.2622 26.9005C18.23 26.9005 18.2058 26.8703 18.2119 26.8502L18.413 26.1461C18.413 26.126 18.4513 26.1139 18.4834 26.12L18.6524 26.1522C18.6866 26.1522 18.7087 26.1823 18.7027 26.2025L18.5015 26.9065C18.4975 26.9266 18.4653 26.9387 18.4311 26.9327Z" fill="white"/>
<path d="M22.6978 27.7695L22.5288 27.7353C22.4946 27.7353 22.4725 27.7072 22.4785 27.6871L22.6797 26.981C22.6797 26.9609 22.7179 26.9488 22.7521 26.9568L22.9211 26.989C22.9553 26.989 22.9774 27.0172 22.9714 27.0393L22.7702 27.7434C22.7642 27.7635 22.732 27.7756 22.6978 27.7695Z" fill="#407BFF"/>
<path opacity="0.8" d="M22.6978 27.7695L22.5288 27.7353C22.4946 27.7353 22.4725 27.7072 22.4785 27.6871L22.6797 26.981C22.6797 26.9609 22.7179 26.9488 22.7521 26.9568L22.9211 26.989C22.9553 26.989 22.9774 27.0172 22.9714 27.0393L22.7702 27.7434C22.7642 27.7635 22.732 27.7756 22.6978 27.7695Z" fill="white"/>
</svg>
