<svg width="152" height="108" viewBox="0 0 152 108" fill="none" xmlns="http://www.w3.org/2000/svg">
<path d="M150.144 5.54156V99.5201C150.144 100.097 150.03 100.669 149.809 101.202C149.588 101.736 149.264 102.22 148.856 102.628C148.447 103.036 147.962 103.36 147.429 103.581C146.896 103.801 146.324 103.915 145.747 103.914H5.73389C4.56852 103.914 3.45087 103.451 2.62683 102.627C1.80279 101.803 1.33984 100.685 1.33984 99.5201V5.54156C1.33984 5.47846 1.33984 5.41536 1.33984 5.35513C1.38556 4.26146 1.83783 3.22424 2.60813 2.44652C3.37842 1.6688 4.41126 1.2066 5.50443 1.15039H5.72815H145.747H145.973C147.066 1.2066 148.099 1.6688 148.87 2.44652C149.64 3.22424 150.092 4.26146 150.138 5.35513C150.141 5.40963 150.144 5.47846 150.144 5.54156Z" fill="white" stroke="#C4C4C4" stroke-linecap="round" stroke-linejoin="round"/>
<path d="M150.152 5.35513H1.35938C1.40509 4.26146 1.85736 3.22424 2.62766 2.44652C3.39795 1.6688 4.43078 1.2066 5.52396 1.15039H5.74768H145.76H145.987C147.08 1.2066 148.113 1.6688 148.883 2.44652C149.654 3.22424 150.106 4.26146 150.152 5.35513Z" fill="#92E3A9" stroke="#678391" stroke-miterlimit="10"/>
<path d="M8.96657 3.2538C8.96657 3.38994 8.9262 3.52303 8.85056 3.63623C8.77492 3.74943 8.66741 3.83766 8.54163 3.88976C8.41585 3.94186 8.27744 3.95549 8.14391 3.92893C8.01038 3.90237 7.88773 3.83681 7.79146 3.74054C7.69519 3.64427 7.62963 3.52162 7.60307 3.38809C7.57651 3.25456 7.59014 3.11615 7.64224 2.99037C7.69434 2.86459 7.78257 2.75708 7.89577 2.68145C8.00897 2.60581 8.14206 2.56544 8.27821 2.56544C8.36871 2.56506 8.45839 2.5826 8.54208 2.61706C8.62576 2.65152 8.7018 2.70221 8.7658 2.76621C8.82979 2.8302 8.88048 2.90624 8.91494 2.98992C8.9494 3.07361 8.96694 3.16329 8.96657 3.2538Z" fill="#263238"/>
<path d="M11.6775 3.2538C11.6775 3.38994 11.6371 3.52303 11.5615 3.63623C11.4859 3.74943 11.3783 3.83766 11.2526 3.88976C11.1268 3.94186 10.9884 3.95549 10.8549 3.92893C10.7213 3.90237 10.5987 3.83681 10.5024 3.74054C10.4061 3.64427 10.3406 3.52162 10.314 3.38809C10.2874 3.25456 10.3011 3.11615 10.3532 2.99037C10.4053 2.86459 10.4935 2.75708 10.6067 2.68145C10.7199 2.60581 10.853 2.56544 10.9891 2.56544C11.0796 2.56506 11.1693 2.5826 11.253 2.61706C11.3367 2.65152 11.4127 2.70221 11.4767 2.76621C11.5407 2.8302 11.5914 2.90624 11.6259 2.98992C11.6603 3.07361 11.6779 3.16329 11.6775 3.2538Z" fill="#263238"/>
<path d="M14.3746 3.2538C14.3752 3.39063 14.3352 3.52455 14.2595 3.6386C14.1839 3.75265 14.0762 3.84169 13.9499 3.89445C13.8237 3.94721 13.6846 3.96131 13.5503 3.93496C13.4161 3.90861 13.2926 3.84301 13.1957 3.74646C13.0987 3.6499 13.0326 3.52674 13.0057 3.39258C12.9788 3.25841 12.9923 3.11928 13.0445 2.99281C13.0968 2.86634 13.1854 2.75821 13.2991 2.68213C13.4128 2.60605 13.5466 2.56544 13.6834 2.56544C13.774 2.56506 13.8639 2.58258 13.9477 2.61701C14.0316 2.65143 14.1078 2.70208 14.172 2.76604C14.2362 2.82999 14.2872 2.90601 14.322 2.98971C14.3567 3.07341 14.3746 3.16316 14.3746 3.2538Z" fill="#263238"/>
<path d="M88.9609 98.3807V96.2754H90.0336L91.6685 94.6836V99.6714L90.3147 98.2946L88.9609 98.3807Z" fill="#263238"/>
<path d="M93.2658 97.1888C93.2665 97.5055 93.1724 97.8152 92.9955 98.0779C92.8186 98.3407 92.5671 98.5445 92.2734 98.663V95.7002C92.5694 95.8197 92.8225 96.0256 92.9995 96.2912C93.1766 96.5568 93.2694 96.8696 93.2658 97.1888Z" fill="#263238"/>
<path d="M92.0977 94.6787C92.6716 94.7793 93.1934 95.0745 93.5752 95.5147C93.957 95.9549 94.1756 96.5131 94.1941 97.0955C94.2126 97.6779 94.03 98.249 93.6769 98.7125C93.3238 99.176 92.8218 99.5038 92.2554 99.6407" stroke="#263238" stroke-miterlimit="10"/>
<path d="M71.1199 99.5296C70.9959 99.5296 70.877 99.4803 70.7893 99.3927C70.7016 99.305 70.6523 99.1861 70.6523 99.0621V95.5945C70.6523 95.4705 70.7016 95.3516 70.7893 95.2639C70.877 95.1762 70.9959 95.127 71.1199 95.127C71.2438 95.127 71.3628 95.1762 71.4504 95.2639C71.5381 95.3516 71.5874 95.4705 71.5874 95.5945V99.0621C71.5874 99.1861 71.5381 99.305 71.4504 99.3927C71.3628 99.4803 71.2438 99.5296 71.1199 99.5296Z" fill="#263238"/>
<path d="M73.0027 99.5296C72.8787 99.5296 72.7598 99.4803 72.6721 99.3927C72.5844 99.305 72.5352 99.1861 72.5352 99.0621V95.5945C72.5352 95.4705 72.5844 95.3516 72.6721 95.2639C72.7598 95.1762 72.8787 95.127 73.0027 95.127C73.1267 95.127 73.2456 95.1762 73.3333 95.2639C73.4209 95.3516 73.4702 95.4705 73.4702 95.5945V99.0621C73.4702 99.1861 73.4209 99.305 73.3333 99.3927C73.2456 99.4803 73.1267 99.5296 73.0027 99.5296Z" fill="#263238"/>
<path d="M61.822 95.1855C61.9465 95.1863 62.0657 95.2361 62.1537 95.3242C62.2418 95.4122 62.2916 95.5314 62.2923 95.6559V99.1522C62.2923 99.277 62.2428 99.3966 62.1546 99.4848C62.0663 99.5731 61.9467 99.6226 61.822 99.6226C61.7601 99.623 61.6987 99.6111 61.6415 99.5876C61.5843 99.5641 61.5322 99.5294 61.4885 99.4857C61.4447 99.4419 61.4101 99.3899 61.3866 99.3327C61.3631 99.2754 61.3512 99.2141 61.3516 99.1522V95.6416C61.3553 95.5193 61.4065 95.4033 61.4943 95.3182C61.5821 95.2331 61.6996 95.1855 61.822 95.1855Z" fill="#263238"/>
<path d="M65.3187 95.5439V99.1979C65.3187 99.2339 65.3086 99.2691 65.2896 99.2996C65.2706 99.3301 65.2435 99.3547 65.2112 99.3705C65.1789 99.3863 65.1429 99.3928 65.1071 99.3892C65.0714 99.3855 65.0374 99.3719 65.0089 99.35L62.5882 97.434C62.5644 97.4161 62.5452 97.3929 62.5319 97.3663C62.5186 97.3397 62.5117 97.3103 62.5117 97.2806C62.5117 97.2508 62.5186 97.2215 62.5319 97.1948C62.5452 97.1682 62.5644 97.145 62.5882 97.1271L65.0089 95.3775C65.0383 95.3546 65.0737 95.3408 65.1108 95.3376C65.148 95.3345 65.1852 95.3422 65.218 95.3598C65.2508 95.3774 65.2778 95.4042 65.2957 95.4369C65.3136 95.4696 65.3216 95.5067 65.3187 95.5439Z" fill="#263238"/>
<path d="M82.2732 99.4245C82.1487 99.4222 82.0301 99.3709 81.9431 99.2818C81.8562 99.1927 81.8078 99.0729 81.8086 98.9483L81.8516 95.452C81.852 95.3901 81.8646 95.329 81.8888 95.272C81.913 95.215 81.9483 95.1635 81.9926 95.1202C82.0369 95.077 82.0893 95.043 82.1469 95.0202C82.2044 94.9974 82.2659 94.9862 82.3277 94.9874C82.3896 94.9878 82.4508 95.0004 82.5078 95.0246C82.5647 95.0488 82.6163 95.0841 82.6595 95.1284C82.7028 95.1726 82.7368 95.2251 82.7596 95.2826C82.7824 95.3401 82.7935 95.4016 82.7924 95.4635L82.7522 98.9598C82.7492 99.0846 82.6974 99.2032 82.6078 99.2901C82.5182 99.377 82.3981 99.4252 82.2732 99.4245Z" fill="#263238"/>
<path d="M78.7892 99.0027L78.8323 95.3372C78.8329 95.3012 78.8436 95.2662 78.8632 95.236C78.8827 95.2059 78.9104 95.1818 78.943 95.1665C78.9755 95.1513 79.0117 95.1455 79.0474 95.1498C79.0831 95.1541 79.1169 95.1684 79.1449 95.1909L81.5427 97.1355C81.5659 97.1535 81.5847 97.1765 81.5976 97.2029C81.6106 97.2292 81.6173 97.2582 81.6173 97.2875C81.6173 97.3169 81.6106 97.3459 81.5976 97.3722C81.5847 97.3986 81.5659 97.4216 81.5427 97.4396L79.1019 99.1605C79.0731 99.1837 79.0383 99.1981 79.0015 99.202C78.9648 99.2059 78.9277 99.1991 78.8947 99.1824C78.8617 99.1658 78.8342 99.14 78.8155 99.1081C78.7968 99.0762 78.7877 99.0396 78.7892 99.0027Z" fill="#263238"/>
<path d="M131.698 85.4316H20.2107C18.2865 85.4316 16.7266 86.5885 16.7266 88.0155V88.871C16.7266 90.298 18.2865 91.4548 20.2107 91.4548H131.698C133.622 91.4548 135.182 90.298 135.182 88.871V88.0155C135.182 86.5885 133.622 85.4316 131.698 85.4316Z" fill="white" stroke="#678390" stroke-linecap="round" stroke-linejoin="round"/>
<path d="M132.28 88.3577C132.281 88.4457 132.258 88.533 132.212 88.6144C132.165 88.6958 132.097 88.7698 132.01 88.832C131.924 88.8942 131.821 88.9434 131.708 88.9767C131.595 89.01 131.474 89.0268 131.351 89.026H20.7335C20.4872 89.026 20.2509 88.9556 20.0767 88.8303C19.9025 88.705 19.8047 88.535 19.8047 88.3577C19.8047 88.1805 19.9025 88.0105 20.0767 87.8852C20.2509 87.7599 20.4872 87.6895 20.7335 87.6895H131.351C131.598 87.6895 131.834 87.7599 132.008 87.8852C132.182 88.0105 132.28 88.1805 132.28 88.3577Z" fill="#678390"/>
<path d="M40.5961 87.6895L40.5502 89.026H20.473C20.2957 89.026 20.1257 88.9556 20.0004 88.8303C19.8751 88.705 19.8047 88.535 19.8047 88.3577C19.8047 88.1805 19.8751 88.0105 20.0004 87.8852C20.1257 87.7599 20.2957 87.6895 20.473 87.6895H40.5961Z" fill="#92E3A9"/>
<path d="M42.0371 88.2207C42.0371 88.5809 41.9303 88.933 41.7302 89.2326C41.53 89.5321 41.2456 89.7655 40.9128 89.9034C40.58 90.0412 40.2138 90.0773 39.8605 90.007C39.5072 89.9367 39.1827 89.7633 38.928 89.5085C38.6733 89.2538 38.4998 88.9293 38.4295 88.576C38.3593 88.2227 38.3953 87.8565 38.5332 87.5237C38.671 87.1909 38.9045 86.9065 39.204 86.7064C39.5035 86.5062 39.8556 86.3994 40.2158 86.3994C40.6989 86.3994 41.1621 86.5913 41.5037 86.9329C41.8452 87.2744 42.0371 87.7377 42.0371 88.2207Z" fill="#263238"/>
<path d="M40.9761 88.1981C40.9766 88.3445 40.9337 88.4879 40.8528 88.61C40.7718 88.732 40.6564 88.8273 40.5213 88.8838C40.3861 88.9402 40.2372 88.9553 40.0935 88.9271C39.9497 88.8988 39.8176 88.8286 39.7139 88.7252C39.6101 88.6218 39.5393 88.49 39.5105 88.3464C39.4817 88.2027 39.4962 88.0538 39.5521 87.9184C39.6081 87.783 39.7029 87.6673 39.8247 87.5859C39.9464 87.5044 40.0896 87.4609 40.2361 87.4609C40.4318 87.4609 40.6196 87.5385 40.7583 87.6767C40.897 87.8148 40.9753 88.0023 40.9761 88.1981Z" fill="white"/>
<rect x="17" y="19" width="118" height="60" rx="4" fill="#EBF5F8"/>
<path d="M83.607 45.203C83.4931 44.7804 83.2705 44.395 82.9614 44.0852C82.6522 43.7753 82.2673 43.5519 81.845 43.437C80.279 43.007 74.014 43 74.014 43C74.014 43 67.75 42.993 66.183 43.404C65.7609 43.5242 65.3768 43.7508 65.0676 44.0621C64.7583 44.3735 64.5343 44.7591 64.417 45.182C64.004 46.748 64 49.996 64 49.996C64 49.996 63.996 53.26 64.406 54.81C64.636 55.667 65.311 56.344 66.169 56.575C67.751 57.005 73.999 57.012 73.999 57.012C73.999 57.012 80.264 57.019 81.83 56.609C82.2525 56.4943 82.6377 56.2714 82.9477 55.9622C83.2576 55.653 83.4814 55.2682 83.597 54.846C84.011 53.281 84.014 50.034 84.014 50.034C84.014 50.034 84.034 46.769 83.607 45.203ZM72.01 53.005L72.015 47.005L77.222 50.01L72.01 53.005Z" fill="#6C91AE"/>
<rect x="143" width="9" height="108" fill="white"/>
</svg>
