<svg width="153" height="172" viewBox="0 0 153 172" fill="none" xmlns="http://www.w3.org/2000/svg">
<path opacity="0.7" d="M152.952 70.7757C153.63 52.3725 147.033 33.7472 132.492 24.8833C125.315 20.5068 116.923 17.9432 108.526 18.3209C99.5177 18.7252 91.037 22.3996 82.5429 25.4298C74.0488 28.4599 64.8498 30.8814 56.0942 28.731C49.7591 27.1759 44.1865 23.3326 37.9179 21.5821C13.2204 14.6909 -8.28525 42.7755 3.79975 65.1019C6.76559 70.5758 11.3363 74.9655 15.1799 79.8662C19.0235 84.7669 22.2465 90.6851 21.7278 96.892C21.2844 102.033 18.3762 106.609 17.166 111.621C14.8518 121.222 19.4446 131.783 27.3846 137.635C35.3245 143.486 46.0352 144.85 55.611 142.442C65.1868 140.034 73.6099 134.143 80.2465 126.847C83.7931 122.937 87.2687 118.37 92.3714 117.041C97.2701 115.771 102.32 117.841 107.289 118.792C111.884 119.644 116.603 119.547 121.159 118.508C125.715 117.469 130.012 115.51 133.787 112.749C145.779 103.859 152.34 87.4061 152.952 70.7757Z" fill="#EBF5F8"/>
<path d="M74.5601 172.001C107.413 172.001 134.046 166.815 134.046 160.419C134.046 154.023 107.413 148.838 74.5601 148.838C41.707 148.838 15.0742 154.023 15.0742 160.419C15.0742 166.815 41.707 172.001 74.5601 172.001Z" fill="#92E3A9"/>
<path opacity="0.5" d="M74.5601 172.001C107.413 172.001 134.046 166.815 134.046 160.419C134.046 154.023 107.413 148.838 74.5601 148.838C41.707 148.838 15.0742 154.023 15.0742 160.419C15.0742 166.815 41.707 172.001 74.5601 172.001Z" fill="white"/>
<path d="M137.699 0.385742H94.5994C93.1271 0.385742 91.9336 1.59851 91.9336 3.09454V51.3722C91.9336 52.8682 93.1271 54.081 94.5994 54.081H137.699C139.171 54.081 140.365 52.8682 140.365 51.3722V3.09454C140.365 1.59851 139.171 0.385742 137.699 0.385742Z" fill="white" stroke="#496E81" stroke-width="0.4" stroke-linecap="round" stroke-linejoin="round"/>
<path d="M94.6004 0.385781H137.711C138.415 0.385781 139.09 0.711496 139.587 1.29127C140.085 1.87105 140.365 2.65739 140.365 3.47732V6.70283H91.9336V3.49278C91.9319 3.08419 91.9996 2.67925 92.133 2.30136C92.2664 1.92348 92.4628 1.58015 92.7108 1.29123C92.9588 1.00231 93.2534 0.773531 93.5778 0.618115C93.9021 0.462699 94.2497 0.383733 94.6004 0.385781Z" fill="#7090A0" stroke="#495E68" stroke-width="0.4" stroke-linecap="round" stroke-linejoin="round"/>
<path d="M97 43H137" stroke="#495E68" stroke-width="0.4" stroke-linecap="round" stroke-linejoin="round"/>
<path d="M97 38H137" stroke="#495E68" stroke-width="0.4" stroke-linecap="round" stroke-linejoin="round"/>
<path d="M97 48H137" stroke="#495E68" stroke-width="0.4" stroke-linecap="round" stroke-linejoin="round"/>
<path d="M110.289 17.2443C110.383 16.9656 110.433 16.6749 110.437 16.3821C110.437 15.3135 109.29 15.2517 108.164 15.2517H107.88V15H112.793V15.2517C111.514 15.2517 111.048 16.0231 110.651 17.1659L108.033 24.5548C107.837 25.1035 107.671 25.512 107.056 25.512H107.004L104.7 18.4531L102.558 24.5713C102.357 25.12 102.192 25.5285 101.576 25.5285H101.528L98.1779 15.2517H97V15H101.31V15.2517H100.084L102.571 23.346H102.671L104.547 17.9704L103.675 15.2723H102.497V15H106.812V15.2517H105.586L108.072 23.346H108.168L110.289 17.2443Z" fill="#92E3A9"/>
<path d="M137.207 11.7559H117.203V30.7071H137.207V11.7559Z" fill="#92E3A9" stroke="#487084" stroke-width="0.4" stroke-linecap="round" stroke-linejoin="round"/>
<path d="M137.207 19.125C136.537 19.1671 135.87 19.2693 135.215 19.4308C132.178 20.1589 131.384 24.9594 127.95 24.9594C124.909 24.9594 124.648 20.4501 120.289 19.8676C119.228 19.6837 118.142 19.8955 117.203 20.4695V30.7063H137.207V19.125Z" fill="#7090A0" stroke="#495E68" stroke-width="0.4" stroke-linecap="round" stroke-linejoin="round"/>
<path d="M123.52 16.4883C123.521 17.0093 123.398 17.5189 123.167 17.9526C122.936 18.3862 122.607 18.7244 122.222 18.9242C121.837 19.1241 121.413 19.1766 121.005 19.0752C120.596 18.9738 120.22 18.7231 119.925 18.3546C119.631 17.9862 119.43 17.5167 119.349 17.0057C119.268 16.4946 119.31 15.965 119.47 15.4838C119.63 15.0026 119.9 14.5916 120.247 14.3028C120.594 14.0139 121.002 13.8603 121.418 13.8613C121.976 13.8613 122.51 14.1381 122.904 14.6308C123.299 15.1234 123.52 15.7916 123.52 16.4883Z" fill="white" stroke="#496E81" stroke-width="0.4" stroke-linecap="round" stroke-linejoin="round"/>
<path d="M138.261 2.49219H92.9883V3.54504H138.261V2.49219Z" fill="white" stroke="#496E81" stroke-width="0.4" stroke-linecap="round" stroke-linejoin="round"/>
<path d="M135.397 64.6094H116.02C115.258 64.6094 114.527 64.902 113.989 65.4229C113.45 65.9438 113.147 66.6502 113.147 67.3869V77.4082C113.147 78.1449 113.45 78.8513 113.989 79.3722C114.527 79.8931 115.258 80.1858 116.02 80.1858H116.614C116.011 81.4716 114.841 83.4433 112.992 84.6135C112.992 84.6135 116.924 84.3477 121.02 80.1858H135.388C136.15 80.1858 136.88 79.8931 137.419 79.3722C137.958 78.8513 138.261 78.1449 138.261 77.4082V67.3869C138.261 66.6517 137.959 65.9466 137.422 65.4259C136.886 64.9053 136.157 64.6116 135.397 64.6094Z" fill="#7090A0" stroke="#495E68" stroke-width="0.4" stroke-linecap="round" stroke-linejoin="round"/>
<path d="M122.467 71.9828C122.468 71.7743 122.376 71.5703 122.203 71.3966C122.03 71.223 121.783 71.0876 121.494 71.0075C121.206 70.9274 120.888 70.9063 120.581 70.9468C120.274 70.9874 119.992 71.0877 119.771 71.2351C119.55 71.3826 119.399 71.5705 119.339 71.775C119.278 71.9795 119.31 72.1915 119.43 72.384C119.55 72.5765 119.753 72.7409 120.013 72.8563C120.274 72.9718 120.58 73.0331 120.893 73.0324C121.31 73.0316 121.71 72.9208 122.005 72.7241C122.3 72.5274 122.466 72.2609 122.467 71.9828Z" fill="#92E3A9" stroke="#487084" stroke-width="0.4" stroke-linecap="round" stroke-linejoin="round"/>
<path d="M126.676 71.9796C126.676 71.7714 126.614 71.5678 126.499 71.3947C126.383 71.2215 126.218 71.0866 126.026 71.0069C125.834 70.9272 125.622 70.9064 125.418 70.947C125.214 70.9876 125.026 71.0879 124.879 71.2351C124.731 71.3824 124.631 71.57 124.591 71.7742C124.55 71.9784 124.571 72.1901 124.65 72.3825C124.73 72.5749 124.865 72.7393 125.038 72.855C125.211 72.9707 125.415 73.0325 125.623 73.0325C125.902 73.0316 126.169 72.9204 126.367 72.7232C126.564 72.5259 126.675 72.2586 126.676 71.9796Z" fill="#92E3A9" stroke="#487084" stroke-width="0.4" stroke-linecap="round" stroke-linejoin="round"/>
<path d="M131.942 71.9828C131.942 71.7744 131.881 71.5705 131.766 71.397C131.65 71.2234 131.486 71.088 131.294 71.0078C131.102 70.9276 130.89 70.9063 130.685 70.9466C130.481 70.9869 130.293 71.0869 130.145 71.234C129.998 71.3811 129.897 71.5687 129.856 71.773C129.816 71.9774 129.836 72.1892 129.916 72.3818C129.995 72.5743 130.13 72.739 130.304 72.8548C130.477 72.9706 130.68 73.0325 130.889 73.0325C131.167 73.0316 131.434 72.9209 131.631 72.7243C131.828 72.5277 131.94 72.2612 131.942 71.9828Z" fill="#92E3A9" stroke="#487084" stroke-width="0.4" stroke-linecap="round" stroke-linejoin="round"/>
<path d="M28.4764 6.70312H60.6237C61.3886 6.70312 62.1223 7.00821 62.6632 7.55127C63.2041 8.09433 63.508 8.83088 63.508 9.59888V31.9715H25.6055V9.59888C25.6055 8.8332 25.9075 8.09869 26.4455 7.55601C26.9835 7.01334 27.7137 6.70668 28.4764 6.70312Z" fill="#92E3A9" stroke="#487084" stroke-width="0.4" stroke-linecap="round" stroke-linejoin="round"/>
<path d="M63.508 27.7598H25.6055V31.9712H63.508V27.7598Z" fill="#7090A0" stroke="#495E68" stroke-width="0.4" stroke-linecap="round" stroke-linejoin="round"/>
<path d="M62.4549 29.8662H27.7109V30.9191H62.4549V29.8662Z" fill="white" stroke="#496E81" stroke-width="0.4" stroke-linecap="round" stroke-linejoin="round"/>
<path d="M44.5533 23.549C47.4607 23.549 49.8175 21.1921 49.8175 18.2847C49.8175 15.3774 47.4607 13.0205 44.5533 13.0205C41.6459 13.0205 39.2891 15.3774 39.2891 18.2847C39.2891 21.1921 41.6459 23.549 44.5533 23.549Z" fill="#7090A0" stroke="#495E68" stroke-width="0.4" stroke-linecap="round" stroke-linejoin="round"/>
<path d="M42.4492 15.125L47.7135 18.2835L42.4492 21.4421V15.125Z" fill="white" stroke="#496E81" stroke-width="0.4" stroke-linecap="round" stroke-linejoin="round"/>
<path d="M47.5293 41.4463H12.1076C11.4225 41.4463 10.8672 41.9951 10.8672 42.6722V56.0131C10.8672 56.6902 11.4225 57.239 12.1076 57.239H47.5293C48.2144 57.239 48.7697 56.6902 48.7697 56.0131V42.6722C48.7697 41.9951 48.2144 41.4463 47.5293 41.4463Z" fill="#7090A0" stroke="#495E68" stroke-width="0.4" stroke-linecap="round" stroke-linejoin="round"/>
<path d="M14.5796 43.5527L14.7465 43.857C13.9913 44.3178 13.2879 45.1264 13.2879 46.074C13.2782 46.2368 13.2983 46.4001 13.3471 46.5543C13.3959 46.7084 13.4723 46.8504 13.5718 46.9719C13.6714 47.0933 13.7921 47.1918 13.927 47.2616C14.0618 47.3314 14.208 47.371 14.357 47.3782C14.4683 47.3782 14.5438 47.3173 14.5438 47.1956C14.5438 47.0739 14.4882 47.0347 14.3769 47.013C14.2268 46.9685 14.096 46.8672 14.008 46.7271C13.9199 46.5869 13.8802 46.4171 13.896 46.2479C13.8988 46.1129 13.9268 45.98 13.9782 45.8572C14.0295 45.7345 14.1031 45.6244 14.1946 45.5337C14.286 45.443 14.3934 45.3736 14.5101 45.3298C14.6269 45.2859 14.7506 45.2685 14.8737 45.2785C15.0076 45.279 15.14 45.3089 15.2632 45.3664C15.3864 45.4239 15.4978 45.5078 15.5908 45.6131C15.6838 45.7185 15.7565 45.8432 15.8047 45.9799C15.8529 46.1165 15.8755 46.2624 15.8713 46.4088C15.8693 46.5927 15.8335 46.7744 15.7659 46.9429C15.6984 47.1114 15.6005 47.2633 15.478 47.3895C15.3556 47.5157 15.2112 47.6136 15.0534 47.6773C14.8956 47.7411 14.7277 47.7695 14.5597 47.7607C14.3508 47.7755 14.1414 47.7421 13.945 47.6627C13.7487 47.5834 13.5698 47.4598 13.4199 47.2999C13.27 47.1401 13.1525 46.9476 13.075 46.7349C12.9975 46.5222 12.9617 46.2941 12.9699 46.0653C12.958 44.9655 13.733 44.0787 14.5796 43.5527ZM17.9936 43.5527L18.1606 43.857C17.4014 44.3178 16.7019 45.1264 16.7019 46.074C16.6917 46.237 16.7115 46.4005 16.76 46.5549C16.8086 46.7093 16.885 46.8515 16.9846 46.9731C17.0843 47.0947 17.2053 47.1932 17.3403 47.2628C17.4754 47.3323 17.6219 47.3716 17.7711 47.3782C17.8823 47.3782 17.9579 47.3173 17.9579 47.1956C17.9579 47.0739 17.9022 47.0347 17.7909 47.013C17.6409 46.9685 17.5101 46.8672 17.422 46.7271C17.3339 46.5869 17.2942 46.4171 17.31 46.2479C17.3123 46.1127 17.3399 45.9795 17.3911 45.8564C17.4422 45.7334 17.5159 45.623 17.6074 45.5322C17.699 45.4414 17.8066 45.3721 17.9236 45.3284C18.0406 45.2848 18.1645 45.2678 18.2877 45.2785C18.4217 45.279 18.5541 45.3089 18.6773 45.3664C18.8005 45.4239 18.9118 45.5078 19.0048 45.6131C19.0979 45.7185 19.1706 45.8432 19.2188 45.9799C19.267 46.1165 19.2896 46.2624 19.2853 46.4088C19.2828 46.5926 19.2466 46.7739 19.1789 46.9422C19.1111 47.1104 19.0132 47.262 18.8909 47.3881C18.7686 47.5141 18.6244 47.6121 18.4669 47.6761C18.3093 47.7401 18.1417 47.7689 17.9738 47.7607C17.765 47.7748 17.5559 47.741 17.3598 47.6613C17.1637 47.5817 16.9851 47.4581 16.8353 47.2984C16.6856 47.1387 16.5681 46.9465 16.4903 46.7341C16.4126 46.5218 16.3764 46.2939 16.384 46.0653C16.3681 44.9655 17.1431 44.0787 17.9936 43.5527Z" fill="#92E3A9"/>
<path d="M22.4453 48.8164H44.5551" stroke="white" stroke-width="0.4" stroke-linecap="round" stroke-linejoin="round"/>
<path d="M22.4453 51.9756H44.5551" stroke="white" stroke-width="0.4" stroke-linecap="round" stroke-linejoin="round"/>
<path d="M40.299 82.106C44.7888 81.3732 47.8344 77.1394 47.1016 72.6496C46.3688 68.1598 42.135 65.1141 37.6452 65.8469C33.1553 66.5798 30.1097 70.8135 30.8425 75.3034C31.5753 79.7932 35.8091 82.8388 40.299 82.106Z" fill="#7090A0" stroke="#495E68" stroke-width="0.4" stroke-linecap="round" stroke-linejoin="round"/>
<path d="M44.196 78.5726C46.7291 75.6882 46.4443 71.2965 43.5599 68.7634C40.6755 66.2302 36.2838 66.515 33.7507 69.3994C31.2176 72.2838 31.5023 76.6756 34.3867 79.2087C37.2711 81.7418 41.6629 81.457 44.196 78.5726Z" fill="white" stroke="#496E81" stroke-width="0.4" stroke-linecap="round" stroke-linejoin="round"/>
<path d="M39.2891 68.8203V74.0846H42.4476" stroke="#495E68" stroke-width="0.4" stroke-linecap="round" stroke-linejoin="round"/>
<path d="M90.8349 74.2432C90.8349 74.2432 95.3063 83.9451 95.3063 84.4573C95.3063 84.9695 91.3387 87.1634 90.583 87.6244C89.9969 87.9638 89.3928 88.2702 88.7734 88.542L89.2269 93.0366C89.2269 93.0366 96.0578 91.453 98.9212 89.8695C101.785 88.286 101.684 86.4975 101.02 83.8426C100.357 81.1878 95.9445 70.9268 95.9445 70.9268L90.8349 74.2432Z" fill="white"/>
<g style="mix-blend-mode:multiply" opacity="0.5">
<path d="M99.0364 90.2326C102.062 88.5869 101.955 86.7283 101.254 83.9693C100.553 81.2103 95.8915 70.5469 95.8915 70.5469L95.1374 71.0259L94.8979 71.4695C94.8979 71.4695 99.2493 82.1507 99.511 85.7081C99.6885 88.099 94.8757 91.0798 91.6953 92.7831C94.0551 92.1577 97.2666 91.1951 99.0364 90.2326Z" fill="#92E3A9"/>
</g>
<path d="M90.8349 74.2432C90.8349 74.2432 95.3063 83.9451 95.3063 84.4573C95.3063 84.9695 91.3387 87.1634 90.583 87.6244C89.9969 87.9638 89.3928 88.2702 88.7734 88.542L89.2269 93.0366C89.2269 93.0366 96.0578 91.453 98.9212 89.8695C101.785 88.286 101.684 86.4975 101.02 83.8426C100.357 81.1878 95.9445 70.9268 95.9445 70.9268L90.8349 74.2432Z" stroke="#495E68" stroke-width="0.4" stroke-linecap="round" stroke-linejoin="round"/>
<path d="M56.6935 70.9268C56.6935 70.9268 53.0883 83.7561 52.9816 86.0227C52.8749 88.2893 60.1408 92.7595 60.4053 93.0299C60.6698 93.3003 59.9924 85.2341 59.9924 85.2341L62.4561 73.5179L56.6935 70.9268Z" fill="white"/>
<g style="mix-blend-mode:multiply" opacity="0.5">
<path d="M57.9999 72.8001L57.9245 72.4586L56.4208 71.7666C56.4208 71.7666 52.9742 84.3951 52.8722 86.6262C52.7702 88.8574 59.7165 93.2576 59.9693 93.5238C60.0714 93.6302 60.0314 92.4414 59.9472 90.9732C57.8801 89.2211 54.9126 86.7549 54.5666 85.7169" fill="#92E3A9"/>
</g>
<path d="M56.6935 70.9268C56.6935 70.9268 53.0883 83.7561 52.9816 86.0227C52.8749 88.2893 60.1408 92.7595 60.4053 93.0299C60.6698 93.3003 59.9924 85.2341 59.9924 85.2341L62.4561 73.5179L56.6935 70.9268Z" stroke="#495E68" stroke-width="0.4" stroke-linecap="round" stroke-linejoin="round"/>
<path d="M72.7157 59.2694C72.7157 59.2694 71.3845 60.2235 68.7889 60.3296C66.1932 60.4356 66.069 58.5626 62.8432 58.5626C58.9342 58.5626 54.0312 70.8737 54.0312 70.8737C54.0312 70.8737 56.4716 73.2547 58.8632 74.2574C60.1862 74.8344 61.5771 75.2426 63.003 75.4722L63.3757 83.5603H89.7051L90.0201 75.4722L98.2509 70.1581C98.2509 70.1581 94.2132 62.9711 92.252 60.2765C90.2908 57.582 86.9941 58.5847 85.9869 59.2694C84.9797 59.9541 81.9935 60.1175 80.8931 59.9585C79.4576 59.6422 78.039 59.2545 76.6424 58.7967C76.6424 58.7967 74.9475 57.392 72.7157 59.2694Z" fill="#92E3A9" stroke="#487084" stroke-width="0.4" stroke-linecap="round" stroke-linejoin="round"/>
<path d="M62.4531 62.5039V75.1381" stroke="#495E68" stroke-width="0.4" stroke-linecap="round" stroke-linejoin="round"/>
<path d="M88.7757 63.5566C88.7757 63.5566 87.0939 68.6419 85.6172 70.9266" stroke="#495E68" stroke-width="0.4" stroke-linecap="round" stroke-linejoin="round"/>
<path d="M89.8281 75.1379V64.6094" stroke="#495E68" stroke-width="0.4" stroke-linecap="round" stroke-linejoin="round"/>
<path d="M70.8789 59.3447C70.8789 59.3447 71.5776 63.99 72.5715 66.3646C73.5655 68.7392 75.308 69.2267 76.8011 68.527C78.2941 67.8272 79.3878 64.3647 79.2963 59.9497" stroke="#495E68" stroke-width="0.4" stroke-linecap="round" stroke-linejoin="round"/>
<path d="M67.0442 50.9611C67.0442 50.9611 66.334 49.2356 65.7764 50.1246C65.2188 51.0137 66.2249 53.0588 66.7825 53.7376C67.3401 54.4164 67.7512 54.0004 67.717 53.269C67.6827 52.5377 67.0442 50.9611 67.0442 50.9611Z" fill="#92E3A9" stroke="#487084" stroke-width="0.4" stroke-linecap="round" stroke-linejoin="round"/>
<path opacity="0.5" d="M67.0442 50.9611C67.0442 50.9611 66.334 49.2356 65.7764 50.1246C65.2188 51.0137 66.2249 53.0588 66.7825 53.7376C67.3401 54.4164 67.7512 54.0004 67.717 53.269C67.6827 52.5377 67.0442 50.9611 67.0442 50.9611Z" fill="white"/>
<path d="M67.0442 50.9611C67.0442 50.9611 66.334 49.2356 65.7764 50.1246C65.2188 51.0137 66.2249 53.0588 66.7825 53.7376C67.3401 54.4164 67.7512 54.0004 67.717 53.269C67.6827 52.5377 67.0442 50.9611 67.0442 50.9611Z" stroke="#495E68" stroke-width="0.4" stroke-linecap="round" stroke-linejoin="round"/>
<path d="M83.469 50.9611C83.469 50.9611 84.5289 49.2356 85.3693 50.1246C86.2097 51.0137 84.697 53.0588 83.8612 53.7376C83.0255 54.4164 82.4045 54.0004 82.4605 53.269C82.5166 52.5377 83.469 50.9611 83.469 50.9611Z" fill="#92E3A9" stroke="#487084" stroke-width="0.4" stroke-linecap="round" stroke-linejoin="round"/>
<path opacity="0.5" d="M83.469 50.9611C83.469 50.9611 84.5289 49.2356 85.3693 50.1246C86.2097 51.0137 84.697 53.0588 83.8612 53.7376C83.0255 54.4164 82.4045 54.0004 82.4605 53.269C82.5166 52.5377 83.469 50.9611 83.469 50.9611Z" fill="white"/>
<path d="M83.469 50.9611C83.469 50.9611 84.5289 49.2356 85.3693 50.1246C86.2097 51.0137 84.697 53.0588 83.8612 53.7376C83.0255 54.4164 82.4045 54.0004 82.4605 53.269C82.5166 52.5377 83.469 50.9611 83.469 50.9611Z" stroke="#495E68" stroke-width="0.4" stroke-linecap="round" stroke-linejoin="round"/>
<path d="M71.9297 58.292C72.4861 60.5109 73.1952 62.6978 74.053 64.8407C75.1171 67.1786 77.1172 67.1786 77.9449 65.6707C78.7725 64.1628 79.2996 58.544 79.2996 58.544C79.2996 58.544 73.7574 59.2263 71.9297 58.292Z" fill="white" stroke="#496E81" stroke-width="0.4" stroke-linecap="round" stroke-linejoin="round"/>
<path d="M66.9265 51.2046C66.9265 51.2046 68.3318 56.1606 70.9932 59.0755C73.6546 61.9905 74.608 62.6798 76.0223 62.4681C77.4366 62.2563 78.9413 60.4226 81.047 56.6111C83.1526 52.7995 83.3062 49.8756 83.4825 49.6052C83.6587 49.3349 83.0306 43.9465 80.0213 41.6262C77.0119 39.306 73.6411 38.2877 70.7221 40.8198C67.8031 43.3518 65.9505 47.4832 66.9265 51.2046Z" fill="white"/>
<g style="mix-blend-mode:multiply" opacity="0.5">
<path d="M80.3033 41.4626C77.3314 39.1827 74.0401 38.1758 71.1746 40.6686C68.3092 43.1615 66.5038 47.2468 67.4619 50.9107C67.4619 50.9107 67.7236 51.8511 68.2426 53.1285C68.2411 52.965 68.2635 52.8021 68.3092 52.645C68.9435 50.6357 70.8153 46.7456 77.114 48.5287C82.1175 49.9393 81.5054 54.3395 81.0396 56.686L81.3102 56.1981C83.3817 52.4321 83.5281 49.5667 83.7011 49.3005C83.8741 49.0344 83.2752 43.747 80.3033 41.4626Z" fill="#92E3A9"/>
</g>
<path d="M66.9265 51.2046C66.9265 51.2046 68.3318 56.1606 70.9932 59.0755C73.6546 61.9905 74.608 62.6798 76.0223 62.4681C77.4366 62.2563 78.9413 60.4226 81.047 56.6111C83.1526 52.7995 83.3062 49.8756 83.4825 49.6052C83.6587 49.3349 83.0306 43.9465 80.0213 41.6262C77.0119 39.306 73.6411 38.2877 70.7221 40.8198C67.8031 43.3518 65.9505 47.4832 66.9265 51.2046Z" stroke="#495E68" stroke-width="0.4" stroke-linecap="round" stroke-linejoin="round"/>
<path d="M76.1427 54.0811C76.0171 55.0238 75.9492 55.9763 75.9396 56.9308C75.9802 57.8955 76.2239 58.1861 75.8583 58.283C75.4927 58.3798 75.0898 57.7017 75.0898 57.7017" stroke="#495E68" stroke-width="0.4" stroke-linecap="round" stroke-linejoin="round"/>
<path d="M70.8789 54.0811C71.1836 54.0811 71.5478 54.0811 71.9236 54.0811C72.2994 54.0811 72.6692 54.0811 72.9846 54.0811" stroke="#495E68" stroke-width="0.4" stroke-linecap="round" stroke-linejoin="round"/>
<path d="M78.2461 54.0811C78.3984 54.0811 78.5805 54.0811 78.7684 54.0811C78.9563 54.0811 79.1413 54.0811 79.2989 54.0811" stroke="#495E68" stroke-width="0.4" stroke-linecap="round" stroke-linejoin="round"/>
<path d="M75.0903 53.0285C75.0903 53.0285 74.1115 49.8243 70.8789 51.3211" stroke="#495E68" stroke-width="0.4" stroke-linecap="round" stroke-linejoin="round"/>
<path d="M77.1914 51.9757C77.1914 51.9757 78.1128 50.2152 81.4028 51.2472" stroke="#495E68" stroke-width="0.4" stroke-linecap="round" stroke-linejoin="round"/>
<path d="M75.0887 54.8765C75.0887 56.1827 73.4411 57.2387 71.4061 57.2387C69.371 57.2387 67.7188 56.1827 67.7188 54.8765C67.7188 53.5702 69.259 53.0273 71.294 53.0273C73.329 53.0273 75.0887 53.5744 75.0887 54.8765Z" stroke="#495E68" stroke-width="0.4" stroke-linecap="round" stroke-linejoin="round"/>
<path d="M83.5145 54.8765C83.5145 56.1827 81.8622 57.2387 79.8272 57.2387C77.7921 57.2387 76.1445 56.1827 76.1445 54.8765C76.1445 53.5702 77.6801 53.0273 79.7152 53.0273C81.7502 53.0273 83.5145 53.5744 83.5145 54.8765Z" stroke="#495E68" stroke-width="0.4" stroke-linecap="round" stroke-linejoin="round"/>
<path d="M38.4828 97.2471L38.2383 151.352C38.2383 151.523 38.314 151.686 38.4487 151.807C38.5835 151.927 38.7662 151.995 38.9568 151.995C39.1426 151.995 39.3212 151.93 39.4544 151.815C39.5877 151.699 39.6652 151.541 39.6704 151.375L41.3968 97.3229L38.4828 97.2471Z" fill="white" stroke="#496E81" stroke-width="0.4" stroke-linecap="round" stroke-linejoin="round"/>
<path d="M35.2345 109.882L35.0781 165.049C35.0777 165.132 35.0898 165.215 35.1137 165.292C35.1376 165.369 35.1729 165.439 35.2175 165.498C35.262 165.557 35.315 165.604 35.3733 165.636C35.4316 165.667 35.4941 165.683 35.5572 165.683C35.6808 165.683 35.7997 165.62 35.889 165.507C35.9783 165.393 36.031 165.239 36.0362 165.075L37.1838 109.952L35.2345 109.882Z" fill="white" stroke="#496E81" stroke-width="0.4" stroke-linecap="round" stroke-linejoin="round"/>
<path d="M112.746 97.2471L112.991 151.352C112.991 151.437 112.973 151.52 112.938 151.598C112.902 151.676 112.849 151.747 112.783 151.807C112.717 151.866 112.638 151.914 112.551 151.946C112.464 151.979 112.37 151.995 112.276 151.995C112.089 151.995 111.91 151.931 111.776 151.815C111.641 151.699 111.563 151.541 111.556 151.375L109.832 97.3229L112.746 97.2471Z" fill="white" stroke="#496E81" stroke-width="0.4" stroke-linecap="round" stroke-linejoin="round"/>
<path d="M116.957 109.882L117.201 165.049C117.202 165.132 117.184 165.215 117.148 165.292C117.112 165.369 117.059 165.439 116.993 165.498C116.926 165.557 116.846 165.604 116.759 165.636C116.671 165.667 116.578 165.683 116.483 165.683C116.298 165.683 116.12 165.62 115.987 165.506C115.854 165.393 115.776 165.238 115.769 165.075L114.043 109.952L116.957 109.882Z" fill="white" stroke="#496E81" stroke-width="0.4" stroke-linecap="round" stroke-linejoin="round"/>
<path d="M59.527 111.988L59.2985 160.948C59.2735 161.071 59.3343 161.193 59.468 161.291C59.6018 161.389 59.7981 161.454 60.0158 161.472C60.2283 161.456 60.4215 161.395 60.5563 161.301C60.691 161.208 60.757 161.09 60.741 160.97L62.4515 112.046L59.527 111.988Z" fill="white" stroke="#496E81" stroke-width="0.4" stroke-linecap="round" stroke-linejoin="round"/>
<path d="M91.7641 109.882L91.9311 153.651C91.9454 153.757 91.9033 153.862 91.8135 153.946C91.7237 154.03 91.5931 154.086 91.4486 154.101C91.3047 154.086 91.1747 154.03 91.0859 153.946C90.9971 153.862 90.9564 153.756 90.9724 153.651L89.8281 109.918L91.7641 109.882Z" fill="white" stroke="#496E81" stroke-width="0.4" stroke-linecap="round" stroke-linejoin="round"/>
<path d="M59.2102 109.882L59.2937 153.651C59.3008 153.757 59.2798 153.862 59.2349 153.946C59.19 154.03 59.1247 154.086 59.0524 154.101C58.9805 154.086 58.9155 154.03 58.8711 153.946C58.8267 153.862 58.8063 153.756 58.8143 153.651L58.2422 109.918L59.2102 109.882Z" fill="white" stroke="#496E81" stroke-width="0.4" stroke-linecap="round" stroke-linejoin="round"/>
<path d="M90.7126 111.988L90.8755 160.948C90.8921 161.071 90.8516 161.193 90.7624 161.291C90.6732 161.389 90.5424 161.454 90.3973 161.472C90.2561 161.455 90.128 161.393 90.0384 161.3C89.9488 161.207 89.9043 161.09 89.9138 160.97L88.7734 112.046L90.7126 111.988Z" fill="white" stroke="#496E81" stroke-width="0.4" stroke-linecap="round" stroke-linejoin="round"/>
<path d="M75.0861 115.147C86.1341 115.147 95.0903 113.025 95.0903 110.409C95.0903 107.792 86.1341 105.671 75.0861 105.671C64.0382 105.671 55.082 107.792 55.082 110.409C55.082 113.025 64.0382 115.147 75.0861 115.147Z" fill="white" stroke="#496E81" stroke-width="0.4" stroke-linecap="round" stroke-linejoin="round"/>
<path d="M65.0592 149.936C65.0592 149.936 63.9524 151.377 64.7456 152.093C65.5389 152.809 66.3274 152.524 66.2467 153.245C66.1659 153.965 64.9024 156.407 63.7956 158.996C62.6889 161.584 64.9832 164.173 67.1207 163.457C69.2582 162.741 69.0207 155.544 69.3342 154.25C69.6477 152.956 69.89 152.74 69.8092 151.519C69.7285 150.298 69.6525 149.004 68.6217 148.857C67.5909 148.71 65.5342 149.435 65.0592 149.936Z" fill="white" stroke="#496E81" stroke-width="0.4" stroke-linecap="round" stroke-linejoin="round"/>
<path d="M68.7721 161.787C67.2222 161.369 64.8458 161.453 63.5078 161.549C63.9573 162.931 65.6776 163.903 67.3204 163.474C68.0075 163.294 68.4569 162.641 68.7721 161.787Z" fill="#92E3A9" stroke="#487084" stroke-width="0.4" stroke-linecap="round" stroke-linejoin="round"/>
<path d="M62.4531 145.746C62.4531 145.746 64.8804 149.407 65.5488 150.374C66.2172 151.342 68.4837 151.046 68.735 149.702C68.9863 148.358 67.8103 144.626 67.8103 144.626L62.7848 145.746H62.4531Z" fill="white" stroke="#496E81" stroke-width="0.4" stroke-linecap="round" stroke-linejoin="round"/>
<path d="M58.6188 139.972C58.6188 139.972 58.0304 140.983 58.3246 141.682C58.6188 142.381 59.4224 144.398 59.9361 145.409C60.4499 146.42 62.7904 147.04 65.4953 146.574C68.2003 146.108 69.7416 144.785 69.8162 143.62C69.8909 142.456 69.3771 140.904 69.0082 139.041C68.6394 137.177 67.6909 137.256 66.3736 137.256C65.0562 137.256 59.7166 138.887 58.6188 139.972Z" fill="#92E3A9" stroke="#487084" stroke-width="0.4" stroke-linecap="round" stroke-linejoin="round"/>
<path d="M65.3787 118.481C65.4173 116.643 66.434 115.737 66.5112 114.478C66.6322 112.813 66.5005 111.138 66.1208 109.515L64.1647 106.723C58.5365 106.799 54.504 106.897 54.4397 106.92C54.2252 106.992 54.0793 108.265 53.9378 109.309C53.9378 109.309 51.5483 109.627 51.9773 116.576C52.0374 117.544 54.4483 128.746 54.6242 130.024C55.6966 137.828 58.086 141.737 58.086 141.737C58.086 141.737 58.3005 142.71 61.0889 142.486C63.8773 142.262 66.6657 140.321 66.6657 140.321C66.6657 140.321 65.2329 125.129 65.3787 118.481Z" fill="#7090A0" stroke="#495E68" stroke-width="0.4" stroke-linecap="round" stroke-linejoin="round"/>
<path d="M53.6559 108.146C53.6559 108.146 50.4806 108.6 48.5357 110.788C46.5909 112.976 48.2408 114.42 52.0198 114.03C55.7989 113.639 60.1587 109.83 60.3431 109.626C60.5274 109.422 56.4027 106.834 53.6559 108.146Z" fill="white" stroke="#496E81" stroke-width="0.4" stroke-linecap="round" stroke-linejoin="round"/>
<path d="M59.3232 109.638C61.2947 109.748 63.2509 110.074 65.1618 110.61C67.7084 111.422 72.1996 113.04 73.2461 113.04C74.2926 113.04 73.9961 108.827 73.9961 108.02C73.9961 107.213 60.5224 106.723 58.8741 106.723C57.2258 106.723 59.3232 109.638 59.3232 109.638Z" fill="white" stroke="#496E81" stroke-width="0.4" stroke-linecap="round" stroke-linejoin="round"/>
<path d="M73.1445 107.779C73.1445 107.779 71.9438 108.357 71.4942 110.529C71.0445 112.701 70.4464 113.861 71.3458 114.439C72.2451 115.017 76.1438 115.452 76.7418 114.874C77.3399 114.296 78.9902 111.398 79.2915 109.517C79.5927 107.636 73.1445 107.779 73.1445 107.779Z" fill="#92E3A9" stroke="#487084" stroke-width="0.4" stroke-linecap="round" stroke-linejoin="round"/>
<path d="M78.4925 109.379C77.8096 110.124 77.2645 110.974 76.8802 111.892C76.5688 112.853 76.3231 113.833 76.1445 114.824C77.55 115.19 78.924 115.658 80.2546 116.223C82.607 117.199 86.5716 117.898 90.3865 118.736C94.2014 119.573 95.2322 120.411 96.5538 120.411C97.8754 120.411 99.4921 119.431 101.549 117.06C103.607 114.69 101.84 109.66 99.7872 108.123C97.7344 106.586 86.717 105.334 85.2501 105.753C83.7832 106.171 78.4925 109.379 78.4925 109.379Z" fill="#7090A0" stroke="#495E68" stroke-width="0.4" stroke-linecap="round" stroke-linejoin="round"/>
<path d="M50.8734 114.093C50.5573 112.555 49.917 111.114 49.0015 109.882C48.8527 110.031 48.7087 110.185 48.5695 110.355C46.7888 112.525 47.9024 114.068 50.8734 114.093Z" fill="#92E3A9" stroke="#487084" stroke-width="0.4" stroke-linecap="round" stroke-linejoin="round"/>
<path d="M65.6098 115.146C65.6098 115.146 64.2248 131.545 61.3984 134.098" stroke="white" stroke-width="0.4" stroke-linecap="round" stroke-linejoin="round"/>
<path d="M64.559 130.938C64.559 130.938 63.3966 136.212 60.3477 138.308" stroke="white" stroke-width="0.4" stroke-linecap="round" stroke-linejoin="round"/>
<path d="M84.2911 111.988C84.2911 111.988 79.1964 112.314 82.5387 114.578C85.8811 116.843 91.9308 118.305 91.9308 118.305" stroke="white" stroke-width="0.4" stroke-linecap="round" stroke-linejoin="round"/>
<path d="M118.222 106.438L116.643 105.052L112.993 97.3535C112.82 97.0033 112.548 96.7083 112.21 96.5031C111.871 96.2979 111.479 96.1908 111.081 96.1945H40.1926C39.7931 96.19 39.4006 96.2967 39.0611 96.5019C38.7215 96.7072 38.4491 97.0026 38.2756 97.3535L33.7267 106.943L32.9766 106.673V108.867L33.0117 108.842C33.0563 109.134 33.2087 109.401 33.4404 109.593C33.672 109.784 33.9671 109.886 34.2706 109.881H116.998C117.318 109.888 117.628 109.774 117.863 109.563C118.098 109.351 118.239 109.059 118.257 108.748L118.222 106.438Z" fill="#7090A0" stroke="#495E68" stroke-width="0.4" stroke-linecap="round" stroke-linejoin="round"/>
<path d="M116.998 107.776H34.2359C34.0309 107.784 33.8273 107.741 33.644 107.651C33.4607 107.561 33.3038 107.428 33.188 107.263C33.0722 107.098 33.0013 106.907 32.982 106.708C32.9626 106.509 32.9954 106.308 33.0773 106.125L38.2426 95.2491C38.4152 94.8975 38.6876 94.6016 39.0275 94.3962C39.3673 94.1908 39.7604 94.0845 40.1603 94.09H111.078C111.477 94.0854 111.869 94.192 112.208 94.3973C112.547 94.6027 112.819 94.8982 112.991 95.2491L118.156 106.125C118.238 106.308 118.271 106.509 118.252 106.708C118.232 106.907 118.162 107.098 118.046 107.263C117.93 107.428 117.773 107.561 117.59 107.651C117.407 107.741 117.203 107.784 116.998 107.776Z" fill="white" stroke="#496E81" stroke-width="0.4" stroke-linecap="round" stroke-linejoin="round"/>
<g style="mix-blend-mode:multiply" opacity="0.5">
<path d="M38.2618 100.523C38.2618 100.523 36.404 101.817 37.5657 102.289C38.7273 102.762 52.0799 102.408 53.7071 101.936C55.3343 101.463 57.1877 97.1049 57.1877 96.3983C57.1877 95.6918 54.847 95.1839 53.9855 95.1442C53.1241 95.1045 41.7424 95.8066 41.7424 95.8066L38.2618 100.523Z" fill="#92E3A9"/>
</g>
<g style="mix-blend-mode:multiply" opacity="0.5">
<path d="M105.618 102.512C107.944 102.512 109.829 101.569 109.829 100.406C109.829 99.2435 107.944 98.3008 105.618 98.3008C103.292 98.3008 101.406 99.2435 101.406 100.406C101.406 101.569 103.292 102.512 105.618 102.512Z" fill="#92E3A9"/>
</g>
<g style="mix-blend-mode:multiply" opacity="0.5">
<path d="M75.6142 105.671C85.2085 105.671 92.9862 104.021 92.9862 101.986C92.9862 99.9506 85.2085 98.3008 75.6142 98.3008C66.0199 98.3008 58.2422 99.9506 58.2422 101.986C58.2422 104.021 66.0199 105.671 75.6142 105.671Z" fill="#92E3A9"/>
</g>
<path d="M101.408 92.8116C101.408 92.8116 101.26 91.6832 100.766 92.0606C100.272 92.4381 100.322 94.9308 100.419 96.3423C100.516 97.7538 101.185 97.0933 101.185 97.0933V96.2479C101.185 96.2479 100.939 96.6214 100.815 96.1064C100.691 95.5913 100.716 93.0003 100.84 93.0475C100.964 93.0947 101.21 93.8928 101.21 93.8928C101.21 93.8928 101.284 93.8024 101.408 92.8116Z" fill="#92E3A9" stroke="#487084" stroke-width="0.4" stroke-linecap="round" stroke-linejoin="round"/>
<path d="M101.406 93.0361V99.9793C101.406 100.796 103.291 101.459 105.62 101.459C107.948 101.459 109.829 100.796 109.829 99.9793V93.0361H101.406Z" fill="#92E3A9" stroke="#487084" stroke-width="0.4" stroke-linecap="round" stroke-linejoin="round"/>
<path d="M109.829 93.0363C109.829 93.6191 107.944 94.0891 105.62 94.0891C103.296 94.0891 101.406 93.6191 101.406 93.0363C101.406 92.4534 103.291 91.9834 105.62 91.9834C107.948 91.9834 109.829 92.457 109.829 93.0363Z" fill="white" stroke="#496E81" stroke-width="0.4" stroke-linecap="round" stroke-linejoin="round"/>
<path d="M109.829 93.0363C109.829 93.6193 107.941 94.0891 105.62 94.0891C103.299 94.0891 101.406 93.6193 101.406 93.0363C101.406 92.4532 103.294 91.9834 105.62 91.9834C107.947 91.9834 109.829 92.4532 109.829 93.0363Z" fill="white" stroke="#496E81" stroke-width="0.4" stroke-linecap="round" stroke-linejoin="round"/>
<path d="M102.461 93.5626C104.524 94.2645 106.715 94.2645 108.778 93.5626C106.715 92.8607 104.524 92.8607 102.461 93.5626Z" fill="#7090A0" stroke="#495E68" stroke-width="0.4" stroke-linecap="round" stroke-linejoin="round"/>
<path d="M37.1836 96.3568L37.2392 98.1782L54.0292 98.3V96.1943L37.1836 96.3568Z" fill="white" stroke="#496E81" stroke-width="0.4" stroke-linecap="round" stroke-linejoin="round"/>
<path d="M54.123 98.3004L56.1369 94.235V93.0361L54.0312 96.4609L54.123 98.3004Z" fill="white" stroke="#496E81" stroke-width="0.4" stroke-linecap="round" stroke-linejoin="round"/>
<path d="M37.1836 98.5394L37.2392 101.277L54.0292 101.459V98.3008L37.1836 98.5394Z" fill="white" stroke="#496E81" stroke-width="0.4" stroke-linecap="round" stroke-linejoin="round"/>
<path d="M54.123 101.46L56.1369 95.7671V94.0898L54.0312 98.8813L54.123 101.46Z" fill="white" stroke="#496E81" stroke-width="0.4" stroke-linecap="round" stroke-linejoin="round"/>
<path d="M44.2985 89.9475C44.2985 89.9475 44.6854 89.2163 44.1327 88.9011C43.58 88.5859 42.9767 89.3389 42.645 89.5797C42.3134 89.8205 35.3724 94.19 35.1513 94.873C34.9302 95.556 35.1513 97.0621 36.639 97.2285C38.1267 97.3949 39.4486 96.4448 40.1118 96.2872C40.775 96.1296 41.033 96.077 41.033 96.077L45.6066 90.2102L44.2985 89.9475Z" fill="white" stroke="#496E81" stroke-width="0.4" stroke-linecap="round" stroke-linejoin="round"/>
<path d="M36.6944 97.2339C38.2281 97.3621 39.5909 96.5963 40.2746 96.4681C40.9584 96.3399 41.2243 96.2971 41.2243 96.2971L41.3952 96.1226L36.965 95.4459C36.7242 95.2757 36.4145 95.1707 36.0851 95.1475C35.7557 95.1242 35.4253 95.1841 35.1464 95.3177C34.9328 95.8662 35.1607 97.1021 36.6944 97.2339Z" fill="white" stroke="#496E81" stroke-width="0.4" stroke-linecap="round" stroke-linejoin="round"/>
<path d="M37.1836 95.1422H49.0414C52.7427 95.1422 53.8565 94.9245 53.8565 94.9245L56.1349 89.8779C56.1349 89.8779 48.9355 90.3676 46.7122 90.2044C45.7934 90.176 44.8784 90.0669 43.9764 89.8779L37.1836 95.1422Z" fill="white" stroke="#496E81" stroke-width="0.4" stroke-linecap="round" stroke-linejoin="round"/>
<path d="M37.1836 95.4865L37.3872 96.9956C37.3872 96.9956 47.0271 97.0798 49.5633 97.0798C52.0995 97.0798 54.0292 97.2483 54.0292 97.2483L53.8765 95.1426L37.1836 95.4865Z" fill="white" stroke="#496E81" stroke-width="0.4" stroke-linecap="round" stroke-linejoin="round"/>
<path d="M54.1722 97.2479L56.1369 91.2507V89.8779L54.0312 95.6872L54.1722 97.2479Z" fill="white" stroke="#496E81" stroke-width="0.4" stroke-linecap="round" stroke-linejoin="round"/>
<path d="M90.3658 102.512H59.81C59.7423 102.512 59.6752 102.499 59.6125 102.473C59.5498 102.447 59.4927 102.408 59.4447 102.359C59.3966 102.31 59.3584 102.252 59.3324 102.188C59.3064 102.124 59.293 102.055 59.293 101.985C59.293 101.916 59.3064 101.847 59.3324 101.783C59.3584 101.719 59.3966 101.661 59.4447 101.612C59.4927 101.563 59.5498 101.524 59.6125 101.498C59.6752 101.472 59.7423 101.458 59.81 101.459H90.3658C90.4333 101.458 90.5002 101.472 90.5627 101.498C90.6251 101.524 90.6819 101.563 90.7296 101.612C90.7773 101.661 90.815 101.719 90.8406 101.783C90.8661 101.847 90.879 101.916 90.8784 101.985C90.879 102.055 90.8661 102.123 90.8406 102.188C90.815 102.252 90.7773 102.31 90.7296 102.359C90.6819 102.408 90.6251 102.447 90.5627 102.473C90.5002 102.499 90.4333 102.512 90.3658 102.512Z" fill="white" stroke="#496E81" stroke-width="0.4" stroke-linecap="round" stroke-linejoin="round"/>
<path d="M90.815 101.459H59.3523C59.2372 101.46 59.1264 101.415 59.0425 101.333C58.9586 101.252 58.908 101.141 58.9011 101.023L57.1908 79.8697C57.1831 79.8042 57.189 79.7378 57.2082 79.6749C57.2274 79.6119 57.2595 79.5539 57.3021 79.5047C57.3448 79.4555 57.3972 79.4162 57.4558 79.3895C57.5145 79.3627 57.5779 79.3491 57.642 79.3496H92.5298C92.5939 79.3491 92.6574 79.3627 92.716 79.3895C92.7746 79.4162 92.827 79.4555 92.8697 79.5047C92.9124 79.5539 92.9444 79.6119 92.9636 79.6749C92.9828 79.7378 92.9888 79.8042 92.9811 79.8697L91.2708 101.023C91.2638 101.142 91.2126 101.254 91.1277 101.335C91.0429 101.416 90.9309 101.461 90.815 101.459Z" fill="white" stroke="#496E81" stroke-width="0.4" stroke-linecap="round" stroke-linejoin="round"/>
<path d="M78.2468 90.9287C78.2468 92.0941 76.8318 93.0366 75.0906 93.0366C73.3495 93.0366 71.9297 92.0941 71.9297 90.9287C71.9297 89.7634 73.3447 88.8252 75.0906 88.8252C76.8366 88.8252 78.2468 89.7677 78.2468 90.9287Z" fill="white" stroke="#496E81" stroke-width="0.4" stroke-linecap="round" stroke-linejoin="round"/>
<path d="M107.727 75.138C108.22 74.7218 108.567 74.1354 108.709 73.4764C108.813 72.9822 108.802 72.4679 108.677 71.9795" stroke="#495E68" stroke-width="0.4" stroke-linecap="round" stroke-linejoin="round"/>
<path d="M103.86 90.9304C103.86 90.9304 107.105 89.0811 106.046 86.9684C104.987 84.8556 101.406 83.4548 101.406 80.1631C101.406 77.3244 104.592 76.275 106.67 75.1377" stroke="#495E68" stroke-width="0.4" stroke-linecap="round" stroke-linejoin="round"/>
<path d="M106.982 90.9305C106.982 90.9305 108.78 89.7145 108.78 87.7846C108.78 86.4898 107.418 85.643 105.621 83.5605" stroke="#495E68" stroke-width="0.4" stroke-linecap="round" stroke-linejoin="round"/>
<path d="M105.619 83.5609C105.619 83.5609 103.648 82.464 105.1 80.4023" stroke="#495E68" stroke-width="0.4" stroke-linecap="round" stroke-linejoin="round"/>
<path d="M79.8561 36.8103C80.3728 36.7013 81.4801 36.2741 82.2269 34.5346C82.2384 34.5083 82.2446 34.4799 82.2452 34.4512C82.2457 34.4225 82.2406 34.3939 82.2301 34.3672C82.2196 34.3404 82.204 34.316 82.184 34.2954C82.1641 34.2747 82.1403 34.2583 82.114 34.2469C82.061 34.2247 82.0014 34.2242 81.9479 34.2453C81.8944 34.2665 81.8512 34.3077 81.8274 34.3602C81.1414 35.9559 80.16 36.309 79.7519 36.3875C80.4823 35.4999 80.8856 34.3867 80.8939 33.2355C80.8939 30.2099 78.1018 27.7598 74.6585 27.7598C71.2151 27.7598 68.4231 30.2099 68.4231 33.2355C68.4254 34.3403 68.7919 35.4133 69.4652 36.2872C68.8095 36.2523 67.7023 36.5313 66.2997 38.1749C66.2597 38.2164 66.2373 38.2719 66.2373 38.3297C66.2373 38.3874 66.2597 38.4429 66.2997 38.4844C66.34 38.518 66.3907 38.5365 66.443 38.5368C66.4746 38.5368 66.5058 38.5298 66.5344 38.5162C66.5629 38.5026 66.5881 38.4828 66.608 38.4583C68.4014 36.3613 69.5868 36.7144 69.8256 36.8103C69.4202 37.0342 69.0401 37.3018 68.6923 37.6081C66.6905 39.4174 65.4704 42.8397 65.6267 45.6909C65.8024 47.5819 66.4852 49.3898 67.6024 50.9224C69.0563 49.8777 70.2619 48.5229 71.1326 46.9552C71.7815 45.8036 72.3615 44.6142 72.8695 43.3934C72.8695 44.6707 73.0345 46.214 73.7032 47.317C74.1856 48.1882 74.8923 48.9133 75.7493 49.4164C76.6064 49.9195 77.5824 50.1822 78.5751 50.1769C78.9179 50.1819 79.2602 50.1482 79.5956 50.0767C79.625 50.0693 79.6526 50.0557 79.6766 50.037C79.7005 50.0182 79.7202 49.9946 79.7345 49.9677C81.4106 50.3252 83.078 50.2946 83.3342 49.9372C83.7467 49.366 84.3329 47.583 84.5283 45.4032C84.8844 41.7062 82.5656 38.4975 79.8561 36.8103ZM74.107 47.0511C73.2646 45.6691 73.2907 43.4152 73.3906 42.1204L73.447 41.9721C73.4871 43.3038 73.8252 44.6094 74.4363 45.792C75.0474 46.9746 75.9159 48.004 76.9772 48.8037C77.5635 49.2105 78.2138 49.5156 78.9008 49.7061C77.837 49.7802 75.6485 49.5753 74.107 47.0511Z" fill="#405B68"/>
<path d="M74.0461 40.3945C74.0461 40.3945 73.6914 43.1764 77.0222 45.9032C80.353 48.6301 83.5108 47.5559 83.5108 47.5559" stroke="white" stroke-width="0.4" stroke-linecap="round" stroke-linejoin="round"/>
<path d="M75.0898 39.3408C75.0898 39.3408 78.6273 44.7221 83.5126 43.3187" stroke="white" stroke-width="0.4" stroke-linecap="round" stroke-linejoin="round"/>
<path d="M72.9812 37.6371C72.427 37.3296 71.8063 37.1944 71.1866 37.2461C70.567 37.2979 69.9722 37.5347 69.4673 37.9306C67.5999 39.2895 66.6641 42.4996 66.6641 42.4996" stroke="white" stroke-width="0.4" stroke-linecap="round" stroke-linejoin="round"/>
<path d="M72.9828 39.4297C72.9828 39.4297 71.6578 39.0147 70.8378 39.9785C70.4382 40.4042 70.0964 40.8992 69.8242 41.4465" stroke="white" stroke-width="0.4" stroke-linecap="round" stroke-linejoin="round"/>
</svg>
