<svg width="126" height="137" viewBox="0 0 126 137" fill="none" xmlns="http://www.w3.org/2000/svg">
<rect x="77.5" y="0.5" width="19.5714" height="17" rx="3.5" fill="white"/>
<rect x="77.5" y="0.5" width="19.5714" height="17" rx="3.5" stroke="#B6CBD8"/>
<rect x="77.5" y="0.5" width="19.5714" height="17" rx="3.5" stroke="#DAE5EB"/>
<path fill-rule="evenodd" clip-rule="evenodd" d="M83.8789 13.0497C83.8789 12.8962 83.9399 12.7491 84.0484 12.6406C84.1569 12.532 84.304 12.4711 84.4575 12.4711H91.4003C91.5538 12.4711 91.7009 12.532 91.8094 12.6406C91.918 12.7491 91.9789 12.8962 91.9789 13.0497C91.9789 13.2031 91.918 13.3503 91.8094 13.4588C91.7009 13.5673 91.5538 13.6282 91.4003 13.6282H84.4575C84.304 13.6282 84.1569 13.5673 84.0484 13.4588C83.9399 13.3503 83.8789 13.2031 83.8789 13.0497ZM85.7841 8.59061C85.8926 8.48215 86.0398 8.42122 86.1932 8.42122C86.3466 8.42122 86.4937 8.48215 86.6022 8.59061L87.3503 9.33871V4.94967C87.3503 4.79622 87.4113 4.64906 87.5198 4.54055C87.6283 4.43205 87.7755 4.37109 87.9289 4.37109C88.0824 4.37109 88.2295 4.43205 88.338 4.54055C88.4465 4.64906 88.5075 4.79622 88.5075 4.94967V9.33871L89.2556 8.59061C89.3089 8.53536 89.3728 8.49128 89.4434 8.46096C89.514 8.43063 89.5899 8.41467 89.6667 8.41401C89.7435 8.41334 89.8197 8.42798 89.8908 8.45707C89.9619 8.48616 90.0265 8.52912 90.0808 8.58344C90.1352 8.63777 90.1781 8.70237 90.2072 8.77347C90.2363 8.84457 90.2509 8.92076 90.2503 8.99758C90.2496 9.0744 90.2337 9.15032 90.2033 9.22091C90.173 9.2915 90.1289 9.35534 90.0737 9.40871L88.338 11.1444C88.2295 11.2529 88.0823 11.3138 87.9289 11.3138C87.7755 11.3138 87.6284 11.2529 87.5199 11.1444L85.7841 9.40871C85.6757 9.30022 85.6147 9.15308 85.6147 8.99966C85.6147 8.84625 85.6757 8.69911 85.7841 8.59061Z" fill="#606060"/>
<rect x="105.5" y="0.5" width="19.5714" height="17" rx="3.5" fill="white"/>
<rect x="105.5" y="0.5" width="19.5714" height="17" rx="3.5" stroke="#B6CBD8"/>
<rect x="105.5" y="0.5" width="19.5714" height="17" rx="3.5" stroke="#DAE5EB"/>
<g clip-path="url(#clip0)">
<path fill-rule="evenodd" clip-rule="evenodd" d="M116.168 5.06278C116.168 4.70774 116.456 4.41992 116.811 4.41992H119.222C119.577 4.41992 119.864 4.70774 119.864 5.06278V7.47349C119.864 7.82853 119.577 8.11635 119.222 8.11635C118.866 8.11635 118.579 7.82853 118.579 7.47349V5.70564H116.811C116.456 5.70564 116.168 5.41782 116.168 5.06278Z" fill="#606060"/>
<path fill-rule="evenodd" clip-rule="evenodd" d="M111.991 9.24121C112.346 9.24121 112.633 9.52903 112.633 9.88407V11.6519H114.401C114.756 11.6519 115.044 11.9397 115.044 12.2948C115.044 12.6498 114.756 12.9376 114.401 12.9376H111.991C111.635 12.9376 111.348 12.6498 111.348 12.2948V9.88407C111.348 9.52903 111.635 9.24121 111.991 9.24121Z" fill="#606060"/>
<path fill-rule="evenodd" clip-rule="evenodd" d="M119.676 4.60821C119.927 4.85926 119.927 5.2663 119.676 5.51735L116.863 8.32985C116.612 8.5809 116.205 8.5809 115.954 8.32985C115.703 8.0788 115.703 7.67176 115.954 7.42071L118.766 4.60821C119.017 4.35716 119.425 4.35716 119.676 4.60821Z" fill="#606060"/>
<path fill-rule="evenodd" clip-rule="evenodd" d="M115.258 9.02813C115.509 9.27918 115.509 9.68622 115.258 9.93727L112.445 12.7498C112.194 13.0008 111.787 13.0008 111.536 12.7498C111.285 12.4987 111.285 12.0917 111.536 11.8406L114.348 9.02813C114.599 8.77708 115.007 8.77708 115.258 9.02813Z" fill="#606060"/>
</g>
<path d="M4.43848 11.1689C4.43848 10.8564 4.3278 10.6156 4.10645 10.4463C3.88835 10.277 3.49284 10.1061 2.91992 9.93359C2.34701 9.76107 1.89128 9.56901 1.55273 9.35742C0.904948 8.95052 0.581055 8.41992 0.581055 7.76562C0.581055 7.19271 0.813802 6.7207 1.2793 6.34961C1.74805 5.97852 2.35514 5.79297 3.10059 5.79297C3.59538 5.79297 4.03646 5.88411 4.42383 6.06641C4.8112 6.2487 5.11556 6.50911 5.33691 6.84766C5.55827 7.18294 5.66895 7.55566 5.66895 7.96582H4.43848C4.43848 7.59473 4.32129 7.30501 4.08691 7.09668C3.85579 6.88509 3.52376 6.7793 3.09082 6.7793C2.68717 6.7793 2.37305 6.86556 2.14844 7.03809C1.92708 7.21061 1.81641 7.4515 1.81641 7.76074C1.81641 8.02116 1.93685 8.23926 2.17773 8.41504C2.41862 8.58757 2.81576 8.75684 3.36914 8.92285C3.92253 9.08561 4.36686 9.27279 4.70215 9.48438C5.03743 9.69271 5.2832 9.93359 5.43945 10.207C5.5957 10.4772 5.67383 10.7946 5.67383 11.1592C5.67383 11.7516 5.44596 12.2236 4.99023 12.5752C4.53776 12.9235 3.92253 13.0977 3.14453 13.0977C2.63021 13.0977 2.15658 13.0033 1.72363 12.8145C1.29395 12.6224 0.958659 12.3587 0.717773 12.0234C0.480143 11.6882 0.361328 11.2975 0.361328 10.8516H1.59668C1.59668 11.2552 1.73014 11.5677 1.99707 11.7891C2.264 12.0104 2.64648 12.1211 3.14453 12.1211C3.57422 12.1211 3.89648 12.0348 4.11133 11.8623C4.32943 11.6865 4.43848 11.4554 4.43848 11.1689ZM8.81348 12.1504C9.1097 12.1504 9.35547 12.0641 9.55078 11.8916C9.74609 11.7191 9.85026 11.5059 9.86328 11.252H10.9814C10.9684 11.5807 10.8659 11.8883 10.6738 12.1748C10.4818 12.458 10.2214 12.6826 9.89258 12.8486C9.5638 13.0146 9.20898 13.0977 8.82812 13.0977C8.08919 13.0977 7.50326 12.8584 7.07031 12.3799C6.63737 11.9014 6.4209 11.2406 6.4209 10.3975V10.2754C6.4209 9.47135 6.63574 8.82845 7.06543 8.34668C7.49512 7.86165 8.08105 7.61914 8.82324 7.61914C9.4515 7.61914 9.96257 7.80306 10.3564 8.1709C10.7536 8.53548 10.9619 9.01562 10.9814 9.61133H9.86328C9.85026 9.30859 9.74609 9.05957 9.55078 8.86426C9.35872 8.66895 9.11296 8.57129 8.81348 8.57129C8.42936 8.57129 8.13314 8.71126 7.9248 8.99121C7.71647 9.2679 7.61068 9.68945 7.60742 10.2559V10.4463C7.60742 11.0192 7.70996 11.4473 7.91504 11.7305C8.12337 12.0104 8.42285 12.1504 8.81348 12.1504ZM13.0469 8.29297C13.4342 7.84375 13.9242 7.61914 14.5166 7.61914C15.6429 7.61914 16.2142 8.26204 16.2305 9.54785V13H15.0439V9.5918C15.0439 9.22721 14.9642 8.97005 14.8047 8.82031C14.6484 8.66732 14.4173 8.59082 14.1113 8.59082C13.6361 8.59082 13.2812 8.80241 13.0469 9.22559V13H11.8604V5.5H13.0469V8.29297ZM20.2002 8.80078C20.0439 8.77474 19.8828 8.76172 19.7168 8.76172C19.1732 8.76172 18.807 8.97005 18.6182 9.38672V13H17.4316V7.7168H18.5645L18.5938 8.30762C18.8802 7.84863 19.2773 7.61914 19.7852 7.61914C19.9544 7.61914 20.0944 7.64193 20.2051 7.6875L20.2002 8.80078ZM23.1787 13.0977C22.4268 13.0977 21.8164 12.8617 21.3477 12.3896C20.8822 11.9144 20.6494 11.2829 20.6494 10.4951V10.3486C20.6494 9.82129 20.7503 9.35091 20.9521 8.9375C21.1572 8.52083 21.4437 8.19694 21.8115 7.96582C22.1794 7.7347 22.5895 7.61914 23.042 7.61914C23.7614 7.61914 24.3164 7.84863 24.707 8.30762C25.1009 8.7666 25.2979 9.41602 25.2979 10.2559V10.7344H21.8457C21.8815 11.1706 22.0264 11.5156 22.2803 11.7695C22.5374 12.0234 22.8597 12.1504 23.2471 12.1504C23.7907 12.1504 24.2334 11.9307 24.5752 11.4912L25.2148 12.1016C25.0033 12.4173 24.7201 12.6631 24.3652 12.8389C24.0137 13.0114 23.6182 13.0977 23.1787 13.0977ZM23.0371 8.57129C22.7116 8.57129 22.4479 8.68522 22.2461 8.91309C22.0475 9.14095 21.9206 9.45833 21.8652 9.86523H24.126V9.77734C24.0999 9.38021 23.9941 9.08073 23.8086 8.87891C23.623 8.67383 23.3659 8.57129 23.0371 8.57129ZM28.5498 13.0977C27.7979 13.0977 27.1875 12.8617 26.7188 12.3896C26.2533 11.9144 26.0205 11.2829 26.0205 10.4951V10.3486C26.0205 9.82129 26.1214 9.35091 26.3232 8.9375C26.5283 8.52083 26.8148 8.19694 27.1826 7.96582C27.5505 7.7347 27.9606 7.61914 28.4131 7.61914C29.1325 7.61914 29.6875 7.84863 30.0781 8.30762C30.472 8.7666 30.6689 9.41602 30.6689 10.2559V10.7344H27.2168C27.2526 11.1706 27.3975 11.5156 27.6514 11.7695C27.9085 12.0234 28.2308 12.1504 28.6182 12.1504C29.1618 12.1504 29.6045 11.9307 29.9463 11.4912L30.5859 12.1016C30.3743 12.4173 30.0911 12.6631 29.7363 12.8389C29.3848 13.0114 28.9893 13.0977 28.5498 13.0977ZM28.4082 8.57129C28.0827 8.57129 27.819 8.68522 27.6172 8.91309C27.4186 9.14095 27.2917 9.45833 27.2363 9.86523H29.4971V9.77734C29.471 9.38021 29.3652 9.08073 29.1797 8.87891C28.9941 8.67383 28.737 8.57129 28.4082 8.57129ZM32.6953 7.7168L32.7295 8.32715C33.1201 7.85514 33.6328 7.61914 34.2676 7.61914C35.3678 7.61914 35.9277 8.24902 35.9473 9.50879V13H34.7607V9.57715C34.7607 9.24186 34.6875 8.99447 34.541 8.83496C34.3978 8.6722 34.1618 8.59082 33.833 8.59082C33.3545 8.59082 32.998 8.80729 32.7637 9.24023V13H31.5771V7.7168H32.6953ZM40.1221 11.5645C40.1221 11.3529 40.0342 11.1917 39.8584 11.0811C39.6859 10.9704 39.3978 10.8727 38.9941 10.7881C38.5905 10.7035 38.2536 10.596 37.9834 10.4658C37.391 10.1794 37.0947 9.76432 37.0947 9.2207C37.0947 8.76497 37.2868 8.38411 37.6709 8.07812C38.055 7.77214 38.5433 7.61914 39.1357 7.61914C39.7673 7.61914 40.2767 7.77539 40.6641 8.08789C41.0547 8.40039 41.25 8.80566 41.25 9.30371H40.0635C40.0635 9.07585 39.9788 8.88704 39.8096 8.7373C39.6403 8.58431 39.4157 8.50781 39.1357 8.50781C38.8753 8.50781 38.6621 8.56803 38.4961 8.68848C38.3333 8.80892 38.252 8.97005 38.252 9.17188C38.252 9.35417 38.3285 9.49577 38.4814 9.59668C38.6344 9.69759 38.9437 9.80013 39.4092 9.9043C39.8747 10.0052 40.2393 10.1273 40.5029 10.2705C40.7699 10.4105 40.9668 10.5798 41.0938 10.7783C41.224 10.9769 41.2891 11.2178 41.2891 11.501C41.2891 11.9762 41.0921 12.362 40.6982 12.6582C40.3044 12.9512 39.7884 13.0977 39.1504 13.0977C38.7174 13.0977 38.3317 13.0195 37.9932 12.8633C37.6546 12.707 37.391 12.4922 37.2021 12.2188C37.0133 11.9453 36.9189 11.6507 36.9189 11.335H38.0713C38.0876 11.6149 38.1934 11.8314 38.3887 11.9844C38.584 12.1341 38.8428 12.209 39.165 12.209C39.4775 12.209 39.7152 12.1504 39.8779 12.0332C40.0407 11.9128 40.1221 11.7565 40.1221 11.5645ZM43.4961 8.29297C43.8835 7.84375 44.3734 7.61914 44.9658 7.61914C46.0921 7.61914 46.6634 8.26204 46.6797 9.54785V13H45.4932V9.5918C45.4932 9.22721 45.4134 8.97005 45.2539 8.82031C45.0977 8.66732 44.8665 8.59082 44.5605 8.59082C44.0853 8.59082 43.7305 8.80241 43.4961 9.22559V13H42.3096V5.5H43.4961V8.29297ZM47.6611 10.3096C47.6611 9.79199 47.7637 9.3265 47.9688 8.91309C48.1738 8.49642 48.4619 8.17741 48.833 7.95605C49.2041 7.73145 49.6305 7.61914 50.1123 7.61914C50.8252 7.61914 51.403 7.84863 51.8457 8.30762C52.2917 8.7666 52.5326 9.37533 52.5684 10.1338L52.5732 10.4121C52.5732 10.9329 52.4723 11.3984 52.2705 11.8086C52.0719 12.2188 51.7855 12.5361 51.4111 12.7607C51.04 12.9854 50.6104 13.0977 50.1221 13.0977C49.3766 13.0977 48.7793 12.8503 48.3301 12.3555C47.8841 11.8574 47.6611 11.195 47.6611 10.3682V10.3096ZM48.8477 10.4121C48.8477 10.9557 48.96 11.3822 49.1846 11.6914C49.4092 11.9974 49.7217 12.1504 50.1221 12.1504C50.5225 12.1504 50.8333 11.9941 51.0547 11.6816C51.2793 11.3691 51.3916 10.9118 51.3916 10.3096C51.3916 9.77572 51.276 9.35254 51.0449 9.04004C50.8171 8.72754 50.5062 8.57129 50.1123 8.57129C49.7249 8.57129 49.4173 8.72591 49.1895 9.03516C48.9616 9.34115 48.8477 9.80013 48.8477 10.4121ZM55.0635 6.43262V7.7168H55.9961V8.5957H55.0635V11.5449C55.0635 11.7467 55.1025 11.8932 55.1807 11.9844C55.262 12.0723 55.4053 12.1162 55.6104 12.1162C55.7471 12.1162 55.8854 12.0999 56.0254 12.0674V12.9854C55.7552 13.0602 55.4948 13.0977 55.2441 13.0977C54.3327 13.0977 53.877 12.5947 53.877 11.5889V8.5957H53.0078V7.7168H53.877V6.43262H55.0635ZM59.8682 11.5645C59.8682 11.3529 59.7803 11.1917 59.6045 11.0811C59.432 10.9704 59.1439 10.8727 58.7402 10.7881C58.3366 10.7035 57.9997 10.596 57.7295 10.4658C57.137 10.1794 56.8408 9.76432 56.8408 9.2207C56.8408 8.76497 57.0329 8.38411 57.417 8.07812C57.8011 7.77214 58.2894 7.61914 58.8818 7.61914C59.5133 7.61914 60.0228 7.77539 60.4102 8.08789C60.8008 8.40039 60.9961 8.80566 60.9961 9.30371H59.8096C59.8096 9.07585 59.7249 8.88704 59.5557 8.7373C59.3864 8.58431 59.1618 8.50781 58.8818 8.50781C58.6214 8.50781 58.4082 8.56803 58.2422 8.68848C58.0794 8.80892 57.998 8.97005 57.998 9.17188C57.998 9.35417 58.0745 9.49577 58.2275 9.59668C58.3805 9.69759 58.6898 9.80013 59.1553 9.9043C59.6208 10.0052 59.9854 10.1273 60.249 10.2705C60.516 10.4105 60.7129 10.5798 60.8398 10.7783C60.9701 10.9769 61.0352 11.2178 61.0352 11.501C61.0352 11.9762 60.8382 12.362 60.4443 12.6582C60.0505 12.9512 59.5345 13.0977 58.8965 13.0977C58.4635 13.0977 58.0778 13.0195 57.7393 12.8633C57.4007 12.707 57.137 12.4922 56.9482 12.2188C56.7594 11.9453 56.665 11.6507 56.665 11.335H57.8174C57.8337 11.6149 57.9395 11.8314 58.1348 11.9844C58.3301 12.1341 58.5889 12.209 58.9111 12.209C59.2236 12.209 59.4613 12.1504 59.624 12.0332C59.7868 11.9128 59.8682 11.7565 59.8682 11.5645Z" fill="#333333"/>
<path d="M125.63 27.3574H2.27344V136.915H125.63V27.3574Z" fill="white"/>
<path d="M125.628 136.915C125.628 136.915 125.628 136.727 125.628 136.379C125.628 136.031 125.628 135.514 125.628 134.846C125.628 133.483 125.628 131.489 125.628 128.894C125.628 123.684 125.628 116.076 125.546 106.446C125.546 87.1864 125.45 59.8298 125.382 27.3574L125.697 27.5737H2.35384L2.70987 27.3291C2.70987 68.002 2.70987 105.75 2.70987 136.878L2.42229 136.68L91.9583 136.784L116.934 136.84H123.506H125.779H123.574H117.043L92.15 136.897L2.42229 137H2.12109V136.793C2.12109 105.665 2.12109 67.9173 2.12109 27.2445V27H2.49074H125.834H125.998V27.3762C125.93 59.905 125.875 87.318 125.834 106.606C125.834 116.217 125.765 123.806 125.752 128.997C125.752 131.583 125.752 133.567 125.752 134.912C125.752 135.571 125.752 136.078 125.752 136.426C125.752 136.774 125.628 136.915 125.628 136.915Z" fill="#678390"/>
<path d="M3 37.6925H92.7896V33.9591H125.631V27.3574H3.27165L3 37.6925Z" fill="#92E3A9"/>
<path d="M80.9598 42.7705H13.6094C11.4002 42.7705 9.60938 44.5614 9.60938 46.7705V95.8065C9.60938 98.0156 11.4002 99.8065 13.6094 99.8065H80.9598C83.169 99.8065 84.9598 98.0156 84.9598 95.8065V46.7705C84.9598 44.5614 83.169 42.7705 80.9598 42.7705Z" fill="#EBF5F8"/>
<path d="M119.985 49.6357H105.348V52.015H119.985V49.6357Z" fill="#7A909B"/>
<path d="M119.985 59.623H105.348V62.0023H119.985V59.623Z" fill="#7A909B"/>
<path d="M119.985 69.8828H105.348V72.2621H119.985V69.8828Z" fill="#7A909B"/>
<path d="M112.948 104.678H10.6914V111.035H112.948V104.678Z" fill="#CCCCCC"/>
<path d="M112.948 114.731H10.6914V121.089H112.948V114.731Z" fill="#E0E0E0"/>
<path d="M112.948 124.512H10.6914V130.869H112.948V124.512Z" fill="#EBEBEB"/>
<path d="M99.856 47.5957H90.4492V54.0563H99.856V47.5957Z" fill="#E0E0E0"/>
<path d="M99.856 57.4316H90.4492V63.8923H99.856V57.4316Z" fill="#EBEBEB"/>
<path d="M99.856 67.4004H90.4492V73.861H99.856V67.4004Z" fill="#F5F5F5"/>
<path d="M14.2649 32.8594C14.2649 33.1756 14.1284 33.4847 13.8726 33.7476C13.6168 34.0105 13.2533 34.2155 12.828 34.3365C12.4026 34.4575 11.9346 34.4891 11.483 34.4274C11.0315 34.3657 10.6167 34.2135 10.2912 33.9899C9.96564 33.7663 9.74392 33.4815 9.6541 33.1713C9.56429 32.8612 9.61038 32.5398 9.78657 32.2476C9.96275 31.9555 10.2611 31.7058 10.6439 31.5302C11.0267 31.3545 11.4768 31.2607 11.9372 31.2607C12.5545 31.2607 13.1466 31.4292 13.5831 31.729C14.0197 32.0288 14.2649 32.4354 14.2649 32.8594Z" fill="white"/>
<path d="M11.9411 34.4852C11.4721 34.4871 11.0127 34.3933 10.6214 34.2156C10.23 34.038 9.92431 33.7846 9.74292 33.4875C9.56153 33.1904 9.51259 32.8629 9.60244 32.5467C9.69228 32.2305 9.9168 31.9398 10.2475 31.7113C10.5783 31.4828 11.0004 31.3269 11.4603 31.2634C11.9201 31.1999 12.3971 31.2315 12.8308 31.3544C13.2644 31.4772 13.6352 31.6858 13.8961 31.9535C14.157 32.2212 14.2962 32.5362 14.2962 32.8583C14.2927 33.2874 14.0438 33.6984 13.6033 34.0027C13.1628 34.307 12.5659 34.4803 11.9411 34.4852ZM11.9411 31.2784C11.4856 31.2766 11.0395 31.3676 10.6594 31.5401C10.2793 31.7126 9.98231 31.9587 9.8061 32.2472C9.62989 32.5357 9.58242 32.8537 9.66963 33.1608C9.75684 33.4678 9.97485 33.7502 10.296 33.9721C10.6172 34.194 11.027 34.3454 11.4736 34.4071C11.9202 34.4689 12.3834 34.4381 12.8045 34.3188C13.2257 34.1995 13.5858 33.9971 13.8392 33.737C14.0925 33.477 14.2278 33.1712 14.2278 32.8583C14.2278 32.4409 13.9873 32.0405 13.5589 31.7445C13.1304 31.4485 12.5489 31.2809 11.9411 31.2784Z" fill="#263238"/>
<path d="M21.7805 32.8594C21.7832 33.1779 21.6482 33.4897 21.3926 33.7554C21.137 34.0211 20.7723 34.2287 20.3447 34.3518C19.9171 34.475 19.4458 34.5082 18.9907 34.4472C18.5356 34.3862 18.1172 34.2338 17.7883 34.0093C17.4595 33.7848 17.2351 33.4982 17.1436 33.186C17.0522 32.8739 17.0978 32.55 17.2746 32.2556C17.4514 31.9613 17.7515 31.7095 18.1368 31.5324C18.5222 31.3553 18.9754 31.2607 19.4391 31.2607C20.0577 31.2607 20.6512 31.4289 21.0899 31.7284C21.5286 32.028 21.7769 32.4346 21.7805 32.8594Z" fill="white"/>
<path d="M19.4392 34.4853C18.9707 34.4853 18.5127 34.3899 18.1231 34.2111C17.7336 34.0323 17.4299 33.7782 17.2506 33.481C17.0713 33.1837 17.0244 32.8566 17.1158 32.541C17.2072 32.2254 17.4329 31.9355 17.7642 31.708C18.0955 31.4804 18.5175 31.3255 18.977 31.2627C19.4365 31.1999 19.9128 31.2322 20.3457 31.3553C20.7785 31.4784 21.1485 31.687 21.4088 31.9545C21.6691 32.222 21.808 32.5366 21.808 32.8584C21.808 33.2898 21.5585 33.7037 21.1142 34.0088C20.67 34.3139 20.0674 34.4853 19.4392 34.4853ZM19.4392 31.2785C18.9842 31.2785 18.5395 31.3711 18.1612 31.5447C17.7829 31.7183 17.488 31.9651 17.3139 32.2538C17.1398 32.5425 17.0943 32.8601 17.183 33.1666C17.2718 33.4731 17.4909 33.7546 17.8126 33.9755C18.1343 34.1965 18.5441 34.3469 18.9904 34.4079C19.4366 34.4689 19.8992 34.4376 20.3195 34.318C20.7399 34.1984 21.099 33.9959 21.3518 33.7361C21.6046 33.4763 21.7395 33.1708 21.7395 32.8584C21.7395 32.4393 21.4971 32.0375 21.0657 31.7412C20.6343 31.4449 20.0493 31.2785 19.4392 31.2785Z" fill="#263238"/>
<path d="M29.3391 32.8594C29.3418 33.1779 29.2068 33.4897 28.9512 33.7554C28.6956 34.0211 28.3308 34.2287 27.9032 34.3518C27.4756 34.475 27.0044 34.5082 26.5493 34.4472C26.0942 34.3862 25.6758 34.2338 25.3469 34.0093C25.0181 33.7848 24.7937 33.4982 24.7023 33.186C24.6108 32.8739 24.6563 32.55 24.8331 32.2556C25.0099 31.9613 25.3101 31.7095 25.6954 31.5324C26.0808 31.3553 26.534 31.2607 26.9977 31.2607C27.6163 31.2607 28.2098 31.4289 28.6485 31.7284C29.0872 32.028 29.3354 32.4346 29.3391 32.8594Z" fill="white"/>
<path d="M26.9978 34.4853C26.5292 34.4853 26.0713 34.3899 25.6817 34.2111C25.2922 34.0323 24.9885 33.7782 24.8092 33.481C24.6299 33.1837 24.583 32.8566 24.6744 32.541C24.7658 32.2254 24.9914 31.9355 25.3227 31.708C25.654 31.4804 26.0761 31.3255 26.5356 31.2627C26.9951 31.1999 27.4714 31.2322 27.9043 31.3553C28.3371 31.4784 28.707 31.687 28.9673 31.9545C29.2276 32.222 29.3665 32.5366 29.3665 32.8584C29.3665 33.2898 29.117 33.7037 28.6727 34.0088C28.2285 34.3139 27.626 34.4853 26.9978 34.4853ZM26.9978 31.2785C26.5428 31.2785 26.098 31.3711 25.7198 31.5447C25.3415 31.7183 25.0466 31.9651 24.8725 32.2538C24.6984 32.5425 24.6529 32.8601 24.7416 33.1666C24.8304 33.4731 25.0495 33.7546 25.3712 33.9755C25.6929 34.1965 26.1027 34.3469 26.549 34.4079C26.9952 34.4689 27.4577 34.4376 27.878 34.318C28.2984 34.1984 28.6576 33.9959 28.9104 33.7361C29.1632 33.4763 29.2981 33.1708 29.2981 32.8584C29.2981 32.4393 29.0557 32.0375 28.6243 31.7412C28.1929 31.4449 27.6078 31.2785 26.9978 31.2785Z" fill="#263238"/>
<defs>
<clipPath id="clip0">
<rect width="9.64286" height="9.64286" fill="white" transform="translate(110.785 4.5)"/>
</clipPath>
</defs>
</svg>
