<svg width="62" height="62" viewBox="0 0 62 62" fill="none" xmlns="http://www.w3.org/2000/svg">
<path d="M35.9098 30.4885L29.0314 27.279C28.4312 27.0004 27.9381 27.3127 27.9381 27.9773V34.0227C27.9381 34.6872 28.4312 34.9996 29.0314 34.7209L35.9067 31.5114C36.51 31.2297 36.51 30.7703 35.9098 30.4885ZM31.0006 1.59998C14.7632 1.59998 1.60059 14.7626 1.60059 31C1.60059 47.2374 14.7632 60.4 31.0006 60.4C47.238 60.4 60.4006 47.2374 60.4006 31C60.4006 14.7626 47.238 1.59998 31.0006 1.59998ZM31.0006 42.9437C15.9515 42.9437 15.6881 41.587 15.6881 31C15.6881 20.4129 15.9515 19.0562 31.0006 19.0562C46.0497 19.0562 46.3131 20.4129 46.3131 31C46.3131 41.587 46.0497 42.9437 31.0006 42.9437Z" fill="#F23D3D"/>
</svg>
