<svg width="60" height="69" viewBox="0 0 60 69" fill="none" xmlns="http://www.w3.org/2000/svg">
<g clip-path="url(#clip0)">
<path d="M8.81961 26.4237V44.1548C8.81961 46.5128 6.96688 48.3962 4.60886 48.3962C2.26615 48.3962 0 46.4975 0 44.1548V26.4237C0 24.1116 2.26615 22.213 4.60886 22.213C6.92094 22.213 8.81961 24.1116 8.81961 26.4237ZM10.4733 50.4633C10.4733 52.9744 12.4944 54.9956 15.0056 54.9956H18.0526L18.0986 64.3511C18.0986 70.0012 26.5507 69.9552 26.5507 64.3511V54.9956H32.2467V64.3511C32.2467 69.9705 40.7447 69.9858 40.7447 64.3511V54.9956H43.8377C46.3182 54.9956 48.3394 52.9744 48.3394 50.4633V22.9939H10.4733V50.4633ZM48.4466 21.5086H10.3049C10.3049 14.9552 14.2247 9.25918 20.0432 6.28868L17.1186 0.883613C16.6899 0.133334 17.777 -0.341332 18.1445 0.301764L21.115 5.75277C26.4588 3.37944 32.5989 3.50193 37.6977 5.75277L40.6529 0.317076C41.0357 -0.341332 42.1075 0.148646 41.6788 0.898925L38.7542 6.28868C44.5268 9.25918 48.4466 14.9552 48.4466 21.5086ZM22.3093 13.0106C22.3093 12.1378 21.605 11.4028 20.7016 11.4028C19.8288 11.4028 19.1398 12.1378 19.1398 13.0106C19.1398 13.8833 19.8441 14.6183 20.7016 14.6183C21.605 14.6183 22.3093 13.8833 22.3093 13.0106ZM39.6729 13.0106C39.6729 12.1378 38.9686 11.4028 38.1111 11.4028C37.2077 11.4028 36.5034 12.1378 36.5034 13.0106C36.5034 13.8833 37.2077 14.6183 38.1111 14.6183C38.9686 14.6183 39.6729 13.8833 39.6729 13.0106ZM54.1885 22.213C51.8764 22.213 49.9778 24.0657 49.9778 26.4237V44.1548C49.9778 46.5128 51.8764 48.3962 54.1885 48.3962C56.5465 48.3962 58.7974 46.4975 58.7974 44.1548V26.4237C58.7974 24.0657 56.5312 22.213 54.1885 22.213Z" fill="#A4C639"/>
</g>
<defs>
<clipPath id="clip0">
<rect width="60" height="68.5714" fill="white"/>
</clipPath>
</defs>
</svg>
