<svg width="36" height="36" xmlns="http://www.w3.org/2000/svg">
 <title>unity_logo</title>

 <desc>Created with Sketch.</desc>
 <g>
  <title>background</title>
  <rect fill="none" id="canvas_background" height="402" width="582" y="-1" x="-1"/>
 </g>
 <g>
  <title>Layer 1</title>
  <path id="svg_4" fill="#03a973" d="m17.971,35.943c-9.9371,0 -17.971,-8.0343 -17.971,-17.971c0,-9.9371 8.0343,-17.971 17.971,-17.971l13.531,0c2.5371,0 4.5457,2.0086 4.5457,4.5457l0,13.426c0,9.9371 -8.0343,17.971 -18.077,17.971"/>
  <path id="svg_5" fill="#fff" d="m24.314,15.962l-10.571,0c-0.52857,0 -0.84571,-0.4218 -0.84571,-0.84571c0,-0.52857 0.42286,-0.84571 0.84571,-0.84571l10.571,0c0.52857,0 0.84571,0.42286 0.84571,0.84571c0,0.42391 -0.42286,0.84571 -0.84571,0.84571m-4.0171,4.2286l-6.5543,0c-0.52857,0 -0.84571,-0.4218 -0.84571,-0.84571c0,-0.4218 0.42286,-0.84571 0.84571,-0.84571l6.5543,0c0.52857,0 0.84571,0.42391 0.84571,0.84571c0,0.42391 -0.31714,0.84571 -0.84571,0.84571m3.2771,-9.62l-8.9857,0c-2.5371,0 -4.5457,2.0086 -4.5457,4.5457l0,7.7171c0,0.52857 0.42286,0.95143 0.95143,0.95143l12.474,0c2.5371,0 4.5457,-2.0086 4.5457,-4.5447l0,-4.1239c0,-2.5371 -2.0086,-4.5457 -4.44,-4.5457"/>
 </g>
</svg>