<?xml version="1.0" encoding="UTF-8"?>
<svg width="60px" height="60px" viewBox="0 0 60 60" version="1.1" xmlns="http://www.w3.org/2000/svg" xmlns:xlink="http://www.w3.org/1999/xlink">
    <!-- Generator: Sketch 59 (86127) - https://sketch.com -->
    <title>cloud-svgrepo-com</title>
    <desc>Created with Sketch.</desc>
    <g id="Page-1" stroke="none" stroke-width="1" fill="none" fill-rule="evenodd">
        <g id="cloud-svgrepo-com" fill-rule="nonzero">
            <path d="M50.3802339,24.4196571 C50.3880702,24.1872 50.4040936,23.958 50.4040936,23.7226286 C50.4040936,16.0182857 46.142924,9.7728 40.8866667,9.7728 C39.8418713,9.7728 38.8392982,10.0287429 37.8987135,10.4845714 C35.1252632,4.98497143 30.682807,1.40297143 25.6585965,1.40297143 C17.2484211,1.40297143 10.4306433,11.3960571 10.4306433,23.7228 C10.4306433,23.8400571 10.4415205,23.9533714 10.4426901,24.0704571 C5.00666667,25.6796571 0.913216374,32.7183429 0.913216374,41.1603429 C0.913216374,50.7908571 6.23953216,58.5977143 12.8100585,58.5977143 L47.0730994,58.5977143 C53.6436257,58.5977143 58.9699415,50.7906857 58.9699415,41.1603429 C58.9699415,33.2136 55.3397661,26.5215429 50.3802339,24.4196571 Z" id="Path" fill="#36A9E1"></path>
            <path d="M37.8988304,10.4844 C35.1253801,4.9848 30.682924,1.4028 25.6587135,1.4028 C17.248538,1.4028 10.4307602,11.3958857 10.4307602,23.7226286 C10.4307602,23.8398857 10.4416374,23.9532 10.442807,24.0702857 C5.00666667,25.6794857 0.913216374,32.7181714 0.913216374,41.1601714 C0.913216374,50.7906857 6.23953216,58.5975429 12.8100585,58.5975429" id="Path" fill="#5EBAE7"></path>
            <path d="M47.0729825,59.9358857 L12.8100585,59.9358857 C5.74654971,59.9358857 0,51.5130857 0,41.1601714 C0,32.6297143 3.96233918,25.1676 9.52479532,23.0101714 C9.78233918,10.2927429 16.9209357,0.0642857143 25.6587135,0.0642857143 C28.2608187,0.0642857143 30.7451462,0.948514286 33.042807,2.69262857 C35.0391813,4.20788571 36.8243275,6.35674286 38.2397661,8.94034286 C39.1088889,8.60417143 39.9964912,8.43428571 40.8869006,8.43428571 C46.577193,8.43428571 51.2180117,15.1474286 51.3159064,23.4541714 C53.6557895,24.6625714 55.7471345,26.8830857 57.2605848,29.7853714 C58.9763743,33.0756 59.8832749,37.0088571 59.8832749,41.16 C59.8832749,51.5130857 54.1364912,59.9358857 47.0729825,59.9358857 Z M25.6585965,2.74114286 C17.7653801,2.74114286 11.3437427,12.1532571 11.3437427,23.7226286 C11.3437427,23.7524571 11.3460819,23.7817714 11.3473684,23.8109143 C11.3512281,23.8896 11.3546199,23.9682857 11.3555556,24.0483429 L11.3680702,25.1617714 L10.6232749,25.3822286 C5.52596491,26.8913143 1.82619883,33.5268 1.82619883,41.1603429 C1.82619883,50.0372571 6.75345029,57.2592 12.8098246,57.2592 L47.0728655,57.2592 C53.1292398,57.2592 58.0564912,50.0372571 58.0564912,41.1603429 C58.0564912,37.6016571 57.2792982,34.2305143 55.8091228,31.4112 C54.3859649,28.6818857 52.3676023,26.6556 50.1264327,25.7058857 L49.4328655,25.4117143 L49.4679532,24.3548571 C49.4708772,24.2667429 49.4748538,24.1793143 49.4789474,24.0913714 C49.4850292,23.9581714 49.4908772,23.8323429 49.4908772,23.7228 C49.4908772,16.7688 45.6311111,11.1113143 40.8865497,11.1113143 C39.9757895,11.1113143 39.0670175,11.328 38.1852632,11.7553714 L37.5573099,12.0598286 L37.1642105,11.2803429 C34.4277193,5.85325714 30.2340351,2.74114286 25.6585965,2.74114286 Z" id="Shape" fill="#1D1D1B"></path>
            <path d="M19.6864327,20.2699429 L17.860117,20.2699429 C17.860117,14.2269143 21.214386,9.31068571 25.337193,9.31068571 L25.337193,11.9875429 C22.2212865,11.9877143 19.6864327,15.7030857 19.6864327,20.2699429 Z" id="Path" fill="#FFFFFF"></path>
        </g>
    </g>
</svg>