<?xml version="1.0" encoding="utf-8"?>
<!-- Generator: Adobe Illustrator 23.0.2, SVG Export Plug-In . SVG Version: 6.00 Build 0)  -->
<svg version="1.1" xmlns="http://www.w3.org/2000/svg" xmlns:xlink="http://www.w3.org/1999/xlink" x="0px" y="0px"
	 viewBox="0 0 789 493" style="enable-background:new 0 0 789 493;" xml:space="preserve">
<style type="text/css">
	.st0{fill:none;stroke:#FFFFFF;stroke-linecap:round;stroke-linejoin:bevel;stroke-miterlimit:10;}
	.st1{fill:none;stroke:#FFFFFF;stroke-linecap:square;stroke-linejoin:round;stroke-miterlimit:10;}
	.st2{fill:none;stroke:#A1A1A1;stroke-linecap:round;stroke-linejoin:round;stroke-miterlimit:10;}
	.st3{fill:none;stroke:#A1A1A1;stroke-linecap:square;stroke-linejoin:round;stroke-miterlimit:10;}
	.st4{fill:none;stroke:#FFFFFF;stroke-linecap:round;stroke-linejoin:round;stroke-miterlimit:10;}
	.st5{fill:none;stroke:#757575;stroke-linecap:round;stroke-linejoin:round;stroke-miterlimit:10;}
	.st6{display:none;}
	.st7{display:inline;fill:none;stroke:#757575;stroke-linecap:square;stroke-linejoin:round;stroke-miterlimit:10;}
	.st8{display:inline;fill:#FFFFFF;stroke:#757575;stroke-miterlimit:10;}
	.st9{display:inline;fill:#FFFFFF;stroke:#757575;stroke-linecap:round;stroke-linejoin:round;stroke-miterlimit:10;}
	.st10{display:none;fill:none;stroke:#757575;stroke-linecap:square;stroke-linejoin:round;stroke-miterlimit:10;}
	.st11{fill:#FFFFFF;stroke:#FFFFFF;stroke-miterlimit:10;}
	.st12{display:inline;fill:none;stroke:#FFFFFF;stroke-width:5;stroke-linejoin:round;stroke-miterlimit:10;}
	.st13{display:inline;fill:none;stroke:#757575;stroke-width:2;stroke-linejoin:round;stroke-miterlimit:10;}
	.st14{display:inline;fill:#FFFFFF;}
	.st15{display:none;fill:none;stroke:#FFFFFF;stroke-width:5;stroke-linejoin:round;stroke-miterlimit:10;}
	.st16{display:none;fill:none;stroke:#757575;stroke-width:2;stroke-linejoin:round;stroke-miterlimit:10;}
	.st17{fill:#FFFFFF;}
	.st18{display:none;fill-rule:evenodd;clip-rule:evenodd;fill:#FFFFFF;}
	.st19{fill-rule:evenodd;clip-rule:evenodd;fill:#FFFFFF;}
	.st20{font-family:'MyriadPro-Regular';}
	.st21{font-size:7px;}
	.st22{display:none;fill:#E1C3A0;}
	.st23{display:none;fill:#EFF2FA;}
	.st24{display:none;fill:#C7CFE2;}
	.st25{display:none;fill:#AFB9D2;}
	.st26{fill:none;stroke:#FFFFFF;stroke-width:2;stroke-miterlimit:10;}
	.st27{fill:none;stroke:#FFFFFF;stroke-width:2;stroke-linecap:round;stroke-linejoin:round;stroke-miterlimit:10;}
	.st28{fill:none;stroke:#FFFFFF;stroke-width:2;stroke-linecap:round;stroke-miterlimit:10;}
	.st29{fill:none;stroke:#FFFFFF;stroke-width:1.5;stroke-linecap:round;stroke-miterlimit:10;}
	.st30{fill:none;stroke:#FFFFFF;stroke-miterlimit:10;}
</style>
<g id="Layer_2">
</g>
<g id="Layer_1">
	<g>
		<g>
			<title>cloud</title>
			<path class="st0" d="M583,220.3c8.3-2.2,16.8-3,25.3-2.7c23.4,0.9,45.4,12.4,61,30.3l7.5,10.1c2.9,4.3,5.2,8.5,7.5,13.1
				c4.2,9.3,7,19.3,8.2,29.4c2.3,20.6-2,40.5-12.4,58.9c-3.6,5.9-7.5,11.4-12.1,16.3c-5.6,6.5-11.4,11.4-18.6,16
				c-11.1,6.5-22.2,11.1-34.7,12.8c-132.4,0.7-264.8,0.7-397,0c-18.6-1.6-35.3-8.5-51-19.6c-1-1,7,4.7,6.1,4.1
				c-3.3-1.6-14.9-11.3-17.5-13.5c-3.6-3.3-6.5-7.2-9.8-10.8c-2.3-2.6-3.9-5.6-6.2-8.5c-4.3-6.4-7.8-13.3-10.5-20.6
				c-2.9-7.2-5.2-14.4-6.5-22.2c-3.3-19.6-3.3-38.9,3.6-57.6c0.3-1.3,0.7-2.9,1-4.3c8.5-25.2,26.2-45.8,48.4-59.3l-0.8,0.3
				c19.2-10,41.1-16.2,62.9-14.2l-0.4,0.2c0.4-20.8,6.5-41.2,17.6-58.8c5.3-8.4,11.6-16,18.9-22.7c7.3-6.6,15.4-12.2,24.2-16.7
				c9-4.6,18.5-8.1,28.4-9.9c10.6-1.9,21.4-2.1,32.1-0.7c10.1,1.4,20,4.3,29.2,8.6c8.9,4.2,17.4,9.5,24.9,16
				c7.4,6.5,14,13.9,19.4,22.1c5.6,8.3,10.5,17.2,13.7,26.7c0.8,2.5,1.5,5,2.1,7.5l0,0c9.6-6.8,20.6-11.5,32.2-13.7
				c20.3-4.1,41.2,0.1,59.2,10.6l1,1c7.5,4.3,13.4,9.5,19.3,15.7c1.3,1.3,2.3,2.9,3.6,4.3C574.6,183.9,581.4,201.5,583,220.3
				C583.3,220.2,582.8,218.7,583,220.3"/>
		</g>
		<line class="st1" x1="298" y1="222.1" x2="298" y2="404"/>
		<path class="st2" d="M298,219.1"/>
		<line class="st1" x1="298" y1="133.6" x2="298" y2="204"/>
		<path class="st2" d="M298,132.6"/>
		<line class="st3" x1="298" y1="114.7" x2="298" y2="115"/>
		<line class="st4" x1="298" y1="80" x2="298" y2="114.7"/>
		<line class="st4" x1="259.8" y1="275" x2="298" y2="275"/>
		<path class="st2" d="M260.8,275"/>
		<line class="st4" x1="121" y1="275" x2="243.2" y2="275"/>
		<line class="st4" x1="198" y1="364.7" x2="198" y2="401"/>
		<path class="st2" d="M198,361.7"/>
		<line class="st4" x1="198" y1="275" x2="198" y2="347.7"/>
		<line class="st1" x1="529.3" y1="352" x2="684" y2="352"/>
		<line class="st4" x1="340.9" y1="352" x2="514.1" y2="352"/>
		<path class="st4" d="M340.9,352"/>
		<line class="st4" x1="298" y1="352" x2="324.7" y2="352"/>
		<line class="st4" x1="371.3" y1="154" x2="447" y2="154"/>
		<path class="st2" d="M372.6,154"/>
		<path class="st5" d="M352.2,154"/>
		<line class="st4" x1="298" y1="154" x2="353.6" y2="154"/>
		<line class="st4" x1="298" y1="281" x2="448" y2="281"/>
		<line class="st4" x1="447.3" y1="198.3" x2="448" y2="281"/>
		<path class="st4" d="M447.3,195.3"/>
		<line class="st4" x1="447" y1="151" x2="447.2" y2="181.4"/>
		<line class="st4" x1="528.9" y1="221" x2="582" y2="221"/>
		<path class="st4" d="M528.9,221"/>
		<line class="st4" x1="448" y1="221" x2="513.7" y2="221"/>
		<line class="st4" x1="582" y1="384.6" x2="582" y2="404"/>
		<path class="st4" d="M582,386.6"/>
		<line class="st4" x1="582" y1="369.1" x2="582" y2="368.5"/>
		<line class="st4" x1="582" y1="316.3" x2="582" y2="369.1"/>
		<path class="st4" d="M582,316.3"/>
		<line class="st4" x1="582" y1="249.6" x2="582" y2="296.8"/>
		<path class="st4" d="M582,249.2"/>
		<path class="st4" d="M582,235.7"/>
		<line class="st1" x1="582" y1="221" x2="582" y2="233.2"/>
		<line class="st4" x1="634.7" y1="265" x2="681" y2="265"/>
		<path class="st4" d="M634.7,265"/>
		<path class="st4" d="M620.6,265"/>
		<line class="st4" x1="582" y1="265" x2="618.9" y2="265"/>
		<line class="st4" x1="373" y1="327.3" x2="373" y2="352"/>
		<path class="st2" d="M372,324.3"/>
		<line class="st4" x1="373" y1="310.5" x2="373" y2="310.7"/>
		<line class="st4" x1="373" y1="281" x2="373" y2="310.5"/>
		<line class="st4" x1="472" y1="352" x2="472" y2="405"/>
		<line class="st5" x1="582.5" y1="220.5" x2="582.2" y2="221"/>
	</g>
	<g id="Layer_42">
	</g>
	<g id="puzzle" class="st6">
		<line class="st7" x1="309.7" y1="127.2" x2="298.3" y2="127.2"/>
		<line class="st7" x1="309.7" y1="118.7" x2="298.3" y2="118.7"/>
		<path class="st8" d="M298.2,124.5"/>
		<path class="st9" d="M298,129.6c0-0.6,0.5-1.2,1.1-1.4h0.1c0.5-0.2,2.1-0.1,2.6,0.3c0.1,0.1,0.3,0.3,0.4,0.4
			c1.2,0.9,2.6,1.4,4.1,1.4c3.9,0,7.1-3.4,7.1-7.6s-3.2-7.6-7.1-7.6c-1.5,0-2.8,0.5-4,1.3c-0.2,0.2-0.4,0.3-0.6,0.5
			c-0.4,0.4-1.9,0.5-2.4,0.4l0,0c-0.7-0.2-1.2-0.8-1.2-1.5"/>
		<path class="st8" d="M298.2,128.5"/>
	</g>
	<g id="puzzle_copy_27">
	</g>
	<g id="puzzle_copy_31">
	</g>
	<g id="puzzle_copy_30">
	</g>
	<g id="puzzle_copy_28">
	</g>
	<g id="puzzle_copy_38" class="st6">
		<line class="st7" x1="361.1" y1="169.1" x2="361.1" y2="157.7"/>
		<line class="st7" x1="369.7" y1="169.1" x2="369.7" y2="157.7"/>
		<path class="st8" d="M363.9,158.6"/>
		<path class="st9" d="M358.8,154c0.6,0,1.2,0.5,1.4,1.1v0.1c0.2,0.5,0.1,2.1-0.3,2.6c-0.1,0.1-0.3,0.3-0.4,0.4
			c-0.9,1.2-1.4,2.6-1.4,4.1c0,3.9,3.4,7.1,7.6,7.1s7.6-3.2,7.6-7.1c0-1.5-0.5-2.8-1.3-4c-0.2-0.2-0.3-0.4-0.5-0.6
			c-0.4-0.4-0.5-1.9-0.4-2.4l0,0c0.2-0.7,0.8-1.2,1.5-1.2"/>
		<path class="st8" d="M359.9,158.6"/>
	</g>
	<g id="puzzle_copy_29">
	</g>
	<g id="puzzle_copy_33">
		<line class="st10" x1="517.1" y1="366.1" x2="517.1" y2="354.7"/>
		<line class="st10" x1="525.7" y1="366.1" x2="525.7" y2="354.7"/>
		<path class="st11" d="M519.9,355.6"/>
		<path class="st11" d="M515.9,355.6"/>
	</g>
	<g id="puzzle_copy_35">
		<line class="st10" x1="623.1" y1="279.1" x2="623.1" y2="267.7"/>
		<line class="st10" x1="631.7" y1="279.1" x2="631.7" y2="267.7"/>
		<path class="st11" d="M625.9,268.6"/>
		<path class="st11" d="M621.9,268.6"/>
	</g>
	<g id="puzzle_copy_34">
	</g>
	<g id="puzzle_copy_26" class="st6">
		<line class="st7" x1="285.3" y1="218.2" x2="296.7" y2="218.2"/>
		<line class="st7" x1="285.3" y1="209.7" x2="296.7" y2="209.7"/>
		<path class="st8" d="M296.8,215.5"/>
		<path class="st9" d="M298,218.6c0-0.6-0.5-1.2-1.1-1.4h-0.1c-0.5-0.2-2.1-0.1-2.6,0.3c-0.1,0.1-0.3,0.3-0.4,0.4
			c-1.2,0.9-2.6,1.4-4.1,1.4c-3.9,0-7.1-3.4-7.1-7.6s3.2-7.6,7.1-7.6c1.5,0,2.8,0.5,4,1.3c0.2,0.2,0.4,0.3,0.6,0.5
			c0.4,0.4,1.9,0.5,2.4,0.4l0,0c0.7-0.2,1.2-0.8,1.2-1.5"/>
		<path class="st8" d="M296.8,219.5"/>
	</g>
	<g id="puzzle_copy_37" class="st6">
		<line class="st7" x1="432.3" y1="195.2" x2="443.7" y2="195.2"/>
		<line class="st7" x1="432.3" y1="186.7" x2="443.7" y2="186.7"/>
		<path class="st8" d="M442.8,192.5"/>
		<path class="st9" d="M447.2,195.6c0-0.6-0.5-1.2-1.1-1.4H446c-0.5-0.2-2.1-0.1-2.6,0.3c-0.1,0.1-0.3,0.3-0.4,0.4
			c-1.2,0.9-2.6,1.4-4.1,1.4c-3.9,0-7.1-3.4-7.1-7.6s3.2-7.6,7.1-7.6c1.5,0,2.8,0.5,4,1.3c0.2,0.2,0.4,0.3,0.6,0.5
			c0.4,0.4,1.9,0.5,2.4,0.4l0,0c0.7-0.2,1.2-0.8,1.2-1.5"/>
		<path class="st8" d="M442.8,196.5"/>
	</g>
	<g id="puzzle_copy_22">
	</g>
	<g id="puzzle_copy_20">
	</g>
	<g id="puzzle_copy_17">
	</g>
	<g id="puzzle_copy_24">
	</g>
	<g id="puzzle_copy_14">
	</g>
	<g id="puzzle_copy_16">
	</g>
	<g id="puzzle_copy_19">
	</g>
	<g id="puzzle_copy_21">
	</g>
	<g id="puzzle_copy_23">
	</g>
	<g id="puzzle_copy_15">
	</g>
	<g id="puzzle_copy_25">
	</g>
	<g id="puzzle_copy_18">
	</g>
	<g id="puzzle_copy" class="st6">
		<line class="st12" x1="373" y1="311.1" x2="373" y2="318.1"/>
		<line class="st13" x1="386" y1="317.5" x2="372" y2="317.5"/>
		<line class="st13" x1="386" y1="311.5" x2="372" y2="311.5"/>
		<ellipse class="st13" cx="392.5" cy="314.5" rx="7" ry="7.5"/>
		<rect x="384.5" y="312.5" class="st14" width="13" height="4.1"/>
	</g>
	<g id="puzzle_copy_5" class="st6">
		<line class="st12" x1="582" y1="240.1" x2="582" y2="247.1"/>
		<line class="st13" x1="595" y1="246.5" x2="581" y2="246.5"/>
		<line class="st13" x1="595" y1="240.5" x2="581" y2="240.5"/>
		<ellipse class="st13" cx="601.5" cy="243.5" rx="7" ry="7.5"/>
		<rect x="593.5" y="241.5" class="st14" width="13" height="4.1"/>
	</g>
	<g id="puzzle_copy_8" class="st6">
		<line class="st12" x1="582" y1="374.1" x2="582" y2="381.1"/>
		<line class="st13" x1="595" y1="380.5" x2="581" y2="380.5"/>
		<line class="st13" x1="595" y1="374.5" x2="581" y2="374.5"/>
		<ellipse class="st13" cx="601.5" cy="377.5" rx="7" ry="7.5"/>
		<rect x="593.5" y="375.5" class="st14" width="13" height="4.1"/>
	</g>
	<g id="puzzle_copy_2" class="st6">
		<line class="st12" x1="369.1" y1="154" x2="362.1" y2="154"/>
		<line class="st13" x1="362.8" y1="167" x2="362.8" y2="153"/>
		<line class="st13" x1="368.8" y1="167" x2="368.8" y2="153"/>
		<ellipse class="st13" cx="365.8" cy="173.5" rx="7.5" ry="7"/>
		<rect x="363.6" y="165.5" class="st14" width="4.1" height="13"/>
	</g>
	<g id="puzzle_copy_7">
		<line class="st15" x1="635.1" y1="265" x2="628.1" y2="265"/>
		<line class="st16" x1="628.8" y1="275" x2="628.8" y2="264"/>
		<line class="st16" x1="634.8" y1="275" x2="634.8" y2="264"/>
		<path class="st16" d="M631.8,287.5c-4.1,0-7.5-2.1-7.5-6s3.4-7,7.5-7s7.5,3.1,7.5,7S635.9,287.5,631.8,287.5z"/>
		<g>
			<g>
				<g>
					<path class="st17" d="M521.9,257.4l3-1v-12.6c0-1.1-0.9-2-2-2H502c-1.1,0-2,0.9-2,2v31.4c0,1.1,0.9,2,2,2h18.9 M510.5,244.4
						c0.1-0.2,0.3-0.4,0.5-0.4h2.8c0.3,0,0.6,0.3,0.6,0.6s-0.3,0.6-0.6,0.6H511C510.7,245.2,510.4,244.8,510.5,244.4z M509,244.2
						c0.2-0.2,0.6-0.2,0.8,0c0.1,0.1,0.2,0.2,0.2,0.4c0,0.1-0.1,0.3-0.2,0.4c-0.1,0.1-0.2,0.2-0.4,0.2c-0.1,0-0.3-0.1-0.4-0.2
						c-0.1-0.1-0.2-0.2-0.2-0.4C508.9,244.5,508.9,244.3,509,244.2z M512.3,276.1c-0.9,0-1.7-0.7-1.7-1.7c0-0.9,0.7-1.7,1.7-1.7
						c0.9,0,1.7,0.7,1.7,1.7S513.3,276.1,512.3,276.1z M501.4,270.6V246h22.1v11.6l-2.2,1.2l0.2,11.8h-0.6H501.4z"/>
				</g>
			</g>
		</g>
		<g>
			<g>
				<g>
					<path class="st17" d="M513,283.2h-38.2c-1.7,0-3.2,1.4-3.2,3.2v14.3v-0.3c0,1.7,1.4,1.2,3.2,1.2l1,14h11.5v3.2h-2.4
						c-0.2,0-0.3,0.2-0.3,0.3v1.4c0,0.2,0.2,0.4,0.4,0.4h18c0.2,0,0.4-0.2,0.4-0.4V319c0-0.2-0.2-0.4-0.4-0.4h-2.4v-3.2H513
						c1.7,0,3.2-1.4,3.2-3.2v-26C516.2,284.6,514.8,283.2,513,283.2z M493.9,313.1c-0.6,0-1-0.5-1-1c0-0.6,0.5-1,1-1
						c0.6,0,1,0.5,1,1S494.4,313.1,493.9,313.1z M513.3,308.6h-38.9V286h38.9V308.6z"/>
				</g>
			</g>
		</g>
		<g>
			<g>
				<g>
					<path class="st17" d="M532,255.7h-8.8c-1.5,0-2.7,1.2-2.7,2.7v20.5c0,1.5,1.2,2.7,2.7,2.7h8.8c1.5,0,2.7-1.2,2.7-2.7v-20.5
						C534.7,256.9,533.5,255.7,532,255.7z M526,257.6c0.1-0.2,0.2-0.3,0.4-0.3h2.6c0.2,0,0.4,0.2,0.4,0.4s-0.2,0.4-0.4,0.4h-2.6
						C526.1,258.1,525.9,257.9,526,257.6z M524.9,257.4c0.1-0.1,0.4-0.2,0.6,0c0.1,0.1,0.1,0.2,0.1,0.3c0,0.1,0,0.2-0.1,0.3
						c-0.1,0.1-0.2,0.1-0.3,0.1s-0.2,0-0.3-0.1s-0.1-0.2-0.1-0.3C524.8,257.6,524.8,257.5,524.9,257.4z M527.6,280.8
						c-0.7,0-1.2-0.5-1.2-1.2s0.5-1.2,1.2-1.2s1.2,0.5,1.2,1.2C528.8,280.2,528.3,280.8,527.6,280.8z M533.5,277.5H522v-18h11.5
						V277.5L533.5,277.5z"/>
				</g>
			</g>
		</g>
		<g>
			<g>
				<g>
					<path class="st17" d="M478.5,324.7h-2.1v-22.9c0-1.5-1.2-2.7-2.7-2.7h-33.9c-1.6,0-2.8,1.3-2.8,2.8v22.8h-2.3
						c-0.1,0-0.2,0.1-0.2,0.2v0.3c0,1.8,1.5,3.3,3.3,3.3h37.9c1.7,0,3.2-1.4,3.2-3.2v-0.4C478.8,324.7,478.7,324.7,478.5,324.7z
						 M456.1,300.2c0.3-0.3,0.7-0.3,1,0c0.1,0.1,0.2,0.3,0.2,0.5s-0.1,0.4-0.2,0.5s-0.3,0.2-0.5,0.2s-0.4-0.1-0.5-0.2
						s-0.2-0.3-0.2-0.5S456,300.3,456.1,300.2z M474.3,323.3H439v-21.1h35.3V323.3z"/>
				</g>
			</g>
		</g>
		<g>
			<path class="st17" d="M533.6,376.5c-4.3,0-7.5,2-9.4,5.3l-1.9,4c-1.2,3.1-3.1,5.1-6.7,5.1c-3.2,0-5.9-1.7-5.9-4.9
				c0-3.4,3.1-4.8,6-4.8c2.7,0,4.7,1.2,6,3l1.5-2.9c-2.2-2.8-5.2-3.8-8-3.8c-4.6,0-9.1,2.7-9.1,8.2c0,4.9,4,8.7,9.9,8.7
				c2.4,0,4.7-0.7,6.6-2.4l4-6.8c1.4-3,3.6-4.9,7.6-4.9c3.8,0,6.6,2.2,6.6,5.6c0,3.7-3.3,5.9-7.1,5.7c-3.2,0-5.9-1.5-7.2-4.3
				l-1.5,3.2c1.9,3.1,5.1,5,9.5,5c5.4,0,10-3.6,10-9.5C544.4,380.7,540,376.5,533.6,376.5z"/>
			<g>
				<title>user</title>
				<path class="st18" d="M375.5,380.2l1.6-1l1.5,1c-0.3,2-0.4,1.2-0.4,4c0.1,2.8-0.2,2.8-0.2,4.8h-13.2c-0.1-7.5,0.9-9.4,5.1-10.7
					c2.2-0.7,2.2-1.1,4-1.8c0,3.8-0.7,6.3,1.5,9.3C376.7,383.6,375.8,382.4,375.5,380.2z M403.7,379.4l1.3-1
					c1.3,0.4,0.8,0.4,1.9,1.3c-1.2,5.2,0,3.1-0.1,8.7C402,388.4,405.3,383.9,403.7,379.4z M399.6,379.4c0.1-2,0.9-2.3,2.5-3
					C402.2,378.6,401.6,379.2,399.6,379.4z M408.4,376.5c0.1,0,6.3,2.3,6.9,3.2c0.5,1.2,0.9,2.5,1.2,3.7c0.6,3,0.4,4-0.1,4.9
					c-2.6-0.6-0.6-4.3-2.4-7.3C412.2,378.1,408.4,381.2,408.4,376.5z M380.2,376.5c2.8,0.4,3,1.9,2.9,5.2l-3.1,1.4
					c0.2-1.1,0.4-2.1,0.5-3.2C380.6,378.2,380.2,378.3,380.2,376.5z M379.7,393.6c-0.1-6.9-1.6-7.5,3.6-10.4
					c3.5-1.9-0.6-5.7,0.9-11.1c2-7.7,14.4-7,14.4,2.3c0,3-1.2,5-0.7,8c1.6,1,3.7,1.4,4.6,3.3s0.4,5.4,0.3,7.1h-8.7v-3.1
					c-2.6,0.6-2.9,0.6-5.8,0.1l0.1,3.7h-8.7V393.6z M401,373c-5.5-8.8,11.7-12.6,9.2-0.4l-0.2-0.4c-1.9-3.2-0.4-3.1-4.7-2.2
					S401.7,368,401,373z M372.5,372.7c-2.4-3.8,0.6-8,4.6-8s6.6,4,4.6,8l-1-2.8c-3.9,0.9-2.6,0-5.5-0.3S373.1,371.8,372.5,372.7z"/>
				<path class="st19" d="M375.5,380.2c0.3,2.2,1.2,3.4-0.1,5.8c-2.2-3.1-1.5-5.5-1.5-9.3c-1.8,0.7-1.7,1-4,1.8
					c-4.2,1.3-5.2,3.2-5.1,10.7H378c0-1.9,0.3-3,0.2-4.8s0.1-2,0.4-4l-1.5-1L375.5,380.2z"/>
				<path class="st18" d="M393,372.1l2.2,0.2c1.9,5.8-1.3,6.5-1.1,8.8c0.1,2.3-0.1,0.4,0.5,1.1l1.1,1l-1,4.3
					c-1.6,1.1-3.6,1.3-5.4,0.7c-1.8-0.7-1.6-2.8-2.2-5.1c0-0.1,0.1-0.4,0.2-0.3s2.1-1.1,0.5-4.1s-1.1-3-0.7-5.5
					c1.3-0.2,3.9,0.8,7.2,0.4C394,372.9,393.7,373.1,393,372.1z"/>
				<path class="st19" d="M402.5,385.6c-1-1.9-3-2.2-4.6-3.3c-0.4-3,0.7-5,0.7-8c0-9.3-12.4-9.9-14.4-2.2c-1.5,5.4,2.6,9.1-0.9,11.1
					c-5.1,2.9-3.7,3.5-3.6,9.6h8.7l-0.1-3.1c3,0.5,3.2,0.5,5.8-0.1v3.9h8.7C402.9,391,403.5,387.5,402.5,385.6z M394.6,382.3l1.1,1
					l-1,4.3c-1.6,1-3.6,1.3-5.4,0.7c-1.8-0.8-1.6-2.9-2.2-5.1c0-0.2,0.1-0.4,0.2-0.3c0.1,0.2,1.4-2.1,0.5-4.1s-1.1-3-0.7-5.5
					c1.4-0.2,3.9,0.8,7.2,0.4c-0.3-0.9-0.6-0.6-1.3-1.6l2.2,0.3c1.9,5.7-1.3,6.6-1.1,8.8C394.3,383.3,394,381.6,394.6,382.3z"/>
				<path class="st19" d="M372.5,372.7c0.6-1,0.1-3.4,2.8-3.1s1.6,1.2,5.5,0.3l1,2.8c2-4-0.5-8-4.6-8S370.1,368.9,372.5,372.7z"/>
				<path class="st19" d="M401,373c0.7-5,0.3-2.1,4.3-2.9s2.8-1,4.7,2.2l0.2,0.4C412.7,360.3,395.5,364.1,401,373z"/>
				<path class="st19" d="M415.3,379.8c-0.6-0.9-6.8-3.2-6.9-3.2c-0.1,4.6,3.7,1.6,5.5,4.6s-0.2,6.7,2.4,7.3
					c0.5-0.9,0.7-1.9,0.1-4.9C416.2,382.2,415.8,381,415.3,379.8z"/>
				<path class="st19" d="M406.8,388.4c0.1-5.5-1.1-3.4,0.1-8.7c-1-0.9-0.5-1-1.9-1.3l-1.3,1C405.3,383.9,402,388.4,406.8,388.4z"/>
				<path class="st19" d="M383.1,381.7c0.1-3.2-0.1-4.7-2.9-5.2c0,1.7,0.4,1.6,0.4,3.4c-0.1,1.1-0.3,2.2-0.5,3.2L383.1,381.7z"/>
				<path class="st19" d="M399.6,379.4c1.9-0.2,2.5-0.8,2.5-3C400.5,377.1,399.7,377.4,399.6,379.4z"/>
			</g>
		</g>
	</g>
	<g id="puzzle_copy_9" class="st6">
		<line class="st12" x1="527.1" y1="352" x2="520.1" y2="352"/>
		<line class="st13" x1="520.8" y1="365" x2="520.8" y2="351"/>
		<line class="st13" x1="526.8" y1="365" x2="526.8" y2="351"/>
		<ellipse class="st13" cx="523.8" cy="371.5" rx="7.5" ry="7"/>
		<rect x="521.7" y="363.6" class="st14" width="4.1" height="13"/>
	</g>
	<g id="puzzle_copy_10" class="st6">
		<line class="st12" x1="341.1" y1="352" x2="334.1" y2="352"/>
		<line class="st13" x1="334.8" y1="365" x2="334.8" y2="351"/>
		<line class="st13" x1="340.8" y1="365" x2="340.8" y2="351"/>
		<ellipse class="st13" cx="337.8" cy="371.5" rx="7.5" ry="7"/>
		<rect x="335.7" y="363.6" class="st14" width="4.1" height="13"/>
	</g>
	<g id="puzzle_copy_11" class="st6">
		<line class="st12" x1="255.1" y1="275" x2="248.1" y2="275"/>
		<line class="st13" x1="248.8" y1="288" x2="248.8" y2="274"/>
		<line class="st13" x1="254.8" y1="288" x2="254.8" y2="274"/>
		<ellipse class="st13" cx="251.8" cy="294.5" rx="7.5" ry="7"/>
		<rect x="249.7" y="286.6" class="st14" width="4.1" height="13"/>
	</g>
	<g id="puzzle_copy_12" class="st6">
		<line class="st12" x1="198" y1="346.4" x2="198" y2="353.4"/>
		<line class="st13" x1="211" y1="352.8" x2="197" y2="352.8"/>
		<line class="st13" x1="211" y1="346.8" x2="197" y2="346.8"/>
		<ellipse class="st13" cx="217.5" cy="349.8" rx="7" ry="7.5"/>
		<rect x="209.5" y="347.8" class="st14" width="13" height="4.1"/>
	</g>
	<g id="puzzle_copy_4" class="st6">
		<line class="st12" x1="503.4" y1="220.9" x2="510.4" y2="220.9"/>
		<line class="st13" x1="509.8" y1="207.9" x2="509.8" y2="221.9"/>
		<line class="st13" x1="503.8" y1="207.9" x2="503.8" y2="221.9"/>
		<ellipse class="st13" cx="506.8" cy="201.4" rx="7.5" ry="7"/>
		<rect x="504.7" y="196.4" class="st14" width="4.1" height="13"/>
	</g>
	<g id="puzzle_copy_13">
		<line class="st15" x1="169.4" y1="275" x2="176.4" y2="275"/>
		<line class="st16" x1="175.8" y1="262" x2="175.8" y2="276"/>
		<line class="st16" x1="169.8" y1="262" x2="169.8" y2="276"/>
		<ellipse class="st16" cx="172.8" cy="255.4" rx="7.5" ry="7"/>
		<g>
			<g>
				<g>
					<path class="st17" d="M225.4,230.1l-1.9,1.9c-0.1,0.1-0.2,0.3-0.2,0.4c0,0.2,0.1,0.3,0.2,0.4l1.9,1.9c0.1,0.1,0.3,0.2,0.4,0.2
						c0.2,0,0.3-0.1,0.4-0.2c0.2-0.2,0.2-0.6,0-0.8l-1.5-1.5l1.5-1.5c0.2-0.2,0.2-0.6,0-0.8C226,229.8,225.6,229.8,225.4,230.1z"/>
					<path class="st17" d="M230.2,230.9l1.5,1.5l-1.5,1.5c-0.2,0.2-0.2,0.6,0,0.8c0.1,0.1,0.3,0.2,0.4,0.2s0.3-0.1,0.4-0.2l1.9-1.9
						c0.1-0.1,0.2-0.3,0.2-0.4c0-0.2-0.1-0.3-0.2-0.4l-1.9-1.9c-0.2-0.2-0.6-0.2-0.8,0C229.9,230.3,229.9,230.7,230.2,230.9z"/>
					<path class="st17" d="M227,236.4h0.1c0.2,0,0.3-0.1,0.4-0.3l2.2-7.2c0.1-0.2-0.1-0.4-0.3-0.5s-0.4,0.1-0.5,0.3l-2.2,7.2
						C226.7,236.1,226.8,236.3,227,236.4z"/>
					<path class="st17" d="M241,200l10.5,11.2V244h-35v-44H241z M241.4,203.2v8.6h8.8L241.4,203.2z M218.4,241.8h31.1v-28.3h-9.9
						v-11.3h-21.2L218.4,241.8L218.4,241.8z"/>
				</g>
			</g>
		</g>
		<text transform="matrix(1 0 0 1 221.8086 215.2979)" class="st17 st20 st21">ABC</text>
		<g>
			<path class="st22" d="M262.6,322.4h8.6c1.9,0,3.4,1.5,3.5,3.4l0.1,43.1c0,1.9-1.5,3.4-3.4,3.5l-34.5,0.1c-1.9,0-3.4-1.5-3.5-3.4
				l-0.1-43.1c0-1.9,1.5-3.4,3.4-3.5h8.7"/>
			<polyline class="st23" points="266,325.9 271.2,325.9 271.3,369 236.8,369 236.7,326 242,326 			"/>
			<path class="st24" d="M259.1,320.7h-2.7c-0.4-1-1.3-1.7-2.4-1.7c-1.1,0-2.4,1.7-2.4,1.7h-2.7c-1.9,0-3.4,1.5-3.4,3.5v3.5h17.1
				l0.1-1.8v-1.7C262.6,322.3,261,320.7,259.1,320.7z"/>
			<rect x="245.4" y="325" class="st25" width="17.2" height="2.7"/>
			<path class="st17" d="M275.4,325.9c0-2.3-1.9-4.2-4.2-4.2l0,0h-8.6l0,0c-0.8-1.1-2-1.8-3.4-1.8H257c0,0-1.7-1.6-2.9-1.6
				s-2.9,1.7-2.9,1.7h-2.3c-1.1,0-2.2,0.4-3,1.2c-0.2,0.2-0.3,0.3-0.4,0.5l0,0l0,0H237c-1.1,0-2.2,0.4-3,1.2c-0.8,0.8-1.2,1.9-1.2,3
				l0.1,43.1c0,1.1,0.4,2.2,1.3,3c0.8,0.8,1.9,1.2,3,1.2l0,0l34.4-0.1c2.3,0,4.2-1.9,4.2-4.3L275.4,325.9z M247.1,322.2
				c0.5-0.4,1.1-0.6,1.8-0.6h2.7c0,0,0.6-0.2,0.8-0.5c0.3-0.7,0.9-1.2,1.7-1.2c0.7,0,1.4,0.5,1.7,1.2c0.1,0.3,0.4,0.5,0.8,0.6l0,0
				h2.7c1.5-0.1,2.6,2.5,2.6,2.5v2.6h-15.6v-2.6C246.1,323.4,246.5,322.7,247.1,322.2z M271.2,371.6l-34.4,0.1
				c-0.7,0-1.4-0.3-1.9-0.8s-0.8-1.2-0.8-1.9l-0.1-43.1c0-0.7,0.3-1.4,0.8-1.9s1.2-0.8,1.9-0.8h7.9c-0.1,0.3-0.1,0.6-0.1,0.9v3.5
				c0,0.4,0.4,0.8,0.8,0.8l0,0h17.2c0.4,0,0.8-0.4,0.8-0.8v-3.4c0,0,0-0.6-0.1-1l7.9,0.1l0,0c1.5,0,2.6,2.6,2.6,2.6l0.1,43
				C273.9,370.4,272.7,371.6,271.2,371.6z"/>
			<path class="st17" d="M271.2,325.1L271.2,325.1h-5.1c-0.5,0-0.9,0.5-0.8,1.1c0.1,0.3,0.4,0.5,0.8,0.5l0,0h4.4l0.1,41.4l-32.9,0.1
				l-0.1-41.4h4.4c0.4,0,0.8-0.3,0.8-0.7c0.1-0.5-0.3-0.9-0.8-0.9l0,0h-5.2c-0.2,0-0.4,0.1-0.6,0.2c-0.2,0.2-0.2,0.4-0.2,0.6v43
				c0,0.2,0.1,0.4,0.2,0.6c0.2,0.2,0.4,0.2,0.6,0.2l0,0l34.4-0.1c0.2,0,0.4-0.1,0.6-0.2c0.2-0.2,0.2-0.4,0.2-0.6l-0.1-43
				C272,325.5,271.6,325.1,271.2,325.1z"/>
			<path class="st17" d="M254,323.3c0.2,0,0.4-0.1,0.6-0.2c0.2-0.1,0.2-0.4,0.2-0.6s-0.1-0.4-0.2-0.6c-0.1-0.1-0.4-0.2-0.6-0.2
				c-0.2,0-0.4,0.1-0.6,0.2c-0.2,0.2-0.2,0.4-0.2,0.6s0.1,0.4,0.2,0.6C253.5,323.2,253.8,323.3,254,323.3z"/>
			<path class="st17" d="M240.5,338.3c-0.3,0.3-0.3,0.8,0,1.1l2.6,2.6c0.2,0.2,0.4,0.2,0.6,0.2l0,0c0.2,0,0.4-0.1,0.6-0.2l4.3-4.3
				c0.3-0.3,0.3-0.8,0-1.1c-0.3-0.3-0.8-0.3-1.1,0l-3.7,3.7l-2-2C241.3,337.9,240.8,337.9,240.5,338.3z"/>
			<path class="st17" d="M247.4,346l-3.7,3.7l-2-2c-0.3-0.3-0.8-0.3-1.1,0s-0.3,0.8,0,1.1l2.6,2.6c0.2,0.2,0.4,0.2,0.6,0.2
				c0.2,0,0.4-0.1,0.6-0.2l4.3-4.3c0.3-0.3,0.3-0.8,0-1.1C248.2,345.7,247.7,345.7,247.4,346z"/>
			<path class="st17" d="M247.4,355.5l-3.7,3.7l-2-2c-0.3-0.3-0.8-0.3-1.1-0.1c-0.4,0.3-0.4,0.9-0.1,1.2l2.6,2.6
				c0.2,0.2,0.4,0.2,0.6,0.2l0,0c0.2,0,0.4-0.1,0.6-0.2l4.3-4.3c0.3-0.3,0.3-0.8,0-1.1S247.7,355.2,247.4,355.5z"/>
			<path class="st17" d="M251.7,339.1c0.1,0.3,0.4,0.5,0.8,0.5l0,0h14.4c0.5,0,0.9-0.5,0.8-1.1c-0.1-0.3-0.4-0.5-0.8-0.5l0,0h-14.4
				C251.9,338,251.5,338.5,251.7,339.1z"/>
			<path class="st17" d="M267.6,348c-0.1-0.3-0.4-0.5-0.8-0.5l0,0h-14.4c-0.5,0-0.9,0.5-0.8,1.1c0.1,0.3,0.4,0.5,0.8,0.5l0,0h14.4
				C267.3,349.1,267.7,348.6,267.6,348z"/>
			<path class="st17" d="M266.8,356.9h-14.4c-0.5,0-0.9,0.5-0.8,1.1c0.1,0.3,0.4,0.5,0.8,0.5l0,0h14.4c0.5,0,0.9-0.5,0.8-1.1
				C267.5,357.1,267.2,356.9,266.8,356.9L266.8,356.9z"/>
		</g>
		<g>
			<g>
				<g transform="translate(0.000000,511.000000) scale(0.100000,-0.100000)">
					<path class="st17" d="M3262.7,2109.6c-3.9-2.3-4.5-5.5-4.5-26.7v-20.1h-7c-5.6,0-7.5-0.4-10.1-2.1c-5.7-3.9-7.1-6.8-7.5-15.1
						l-0.3-7.5h-20.4c-26.7,0-27.5-0.4-27.5-14.3c0-7.4,0.2-7.9,2.8-10.6l2.8-2.8h21.1h21.1V2000v-10.4l-21.5-0.3l-22-0.3l-2.3-2.7
						c-2-2.4-2.3-3.7-2.3-10.9c0-7.8,0.1-8.4,2.8-11.1l2.8-2.8h21.3h21.3v-10.3v-10.6h-21.2h-21.2l-2.8-2.8c-2.7-2.7-2.8-3.3-2.8-11
						c0-7.2,0.3-8.5,2.3-10.9l2.3-2.7l21.9-0.3l21.5-0.3v-10.5v-10.4h-21h-21l-2.8-2.8c-2.6-2.7-2.8-3.2-2.8-10.6
						c0-13.9,0.8-14.3,27.6-14.3h20v-7.1c0-5.6,0.4-7.5,2.2-10.1c3.8-5.7,6.7-7.2,15-7.5l7.5-0.3v-20c0-26.8,0.5-27.5,15.1-27.5
						c6.8,0,7.5,0.2,10.1,2.8l2.8,2.8v21.1v21.1h10.3h10.5l0.3-21.7l0.3-21.6l2.7-2.3c2.4-2,3.7-2.3,10.9-2.3
						c7.8,0,8.4,0.1,11.1,2.8l2.8,2.8v21.1v21.1h10.4h10.4v-21.1V1797l2.8-2.8c2.7-2.7,3.2-2.8,10.9-2.8c7.1,0,8.4,0.3,10.7,2.3
						l2.7,2.3l0.3,21.6v21.7h11.1h10.4v-21.1v-21.1l2.8-2.8c2.6-2.6,3.3-2.8,10-2.8c14.4,0,14.9,0.8,14.9,27.5v20l7.5,0.3
						c8.1,0.4,10.9,1.7,14.8,7c1.5,2,2.1,4.4,2.4,10.2l0.3,7.5h20c26.7,0,27.4,0.5,27.4,14.9c0,6.7-0.2,7.5-2.8,10l-2.8,2.8H3478
						h-21v10.5v10.4l21.6,0.3l21.9,0.3l2.3,2.7c2,2.4,2.3,3.7,2.3,10.9c0,7.8-0.1,8.4-2.8,11.1l-2.8,2.8h-21.3H3457v10.3v10.6h21.2
						h21.2l2.8,2.8c2.7,2.7,2.8,3.3,2.8,11c0,7.2-0.3,8.5-2.3,10.9l-2.3,2.7l-21.8,0.3H3457v10.8v10.4h21.1h21.1l2.8,2.8
						c2.6,2.7,2.8,3.2,2.8,10.6c0,13.9-0.8,14.3-27.7,14.3H3457v7.1c0,5.7-0.4,7.6-2.2,10.3c-3.9,5.8-7.7,7.6-15.7,7.6h-6.8v19.9
						c-0.1,27-0.5,27.7-14.5,27.7c-7.4,0-7.9-0.2-10.6-2.8l-2.6-2.8v-21.1v-21.3H3394h-10.6v21.8l-0.3,21.5l-2.7,2.3
						c-2.4,2-3.7,2.3-10.9,2.3c-7.8,0-8.4-0.1-11.1-2.8l-2.8-2.8V2084v-21.1h-10.3h-10.6v21.1v21.1l-2.8,2.8
						c-2.7,2.7-3.3,2.8-11,2.8c-7.2,0-8.4-0.3-10.9-2.3l-2.7-2.3l-0.3-21.5v-21.8h-10.8h-10.4v21.1v21.1l-2.8,2.8
						c-2.7,2.6-3.2,2.8-10.8,2.8C3268,2110.7,3263.7,2110.2,3262.7,2109.6z M3338.2,2000.3c0.5-1.5,7.9-21.8,16.5-45.3
						s15.8-43.4,16.1-44.2c0.4-1.6-0.8-1.7-14.5-1.7h-14.8l-2,6.7l-2.1,6.8l-14.9-0.3l-14.9-0.3l-2.1-6.2l-2.1-6.2l-14.6-0.3
						c-13.7-0.2-14.6-0.1-13.9,1.4c0.6,1.4,32.3,87.6,33.5,91.1c0.3,0.9,4.1,1.1,14.7,1.1h14.3L3338.2,2000.3z M3406.5,1956.2v-46.5
						h-15h-14.3l-0.3,46.5v46.7h14.6h14.7L3406.5,1956.2z"/>
					<path class="st17" d="M3318.5,1957.6c-2.2-7-4-13.3-4-13.9c0-0.8,2.7-1.1,8.7-1.1c6.6,0,8.6,0.3,8.2,1.2c-0.2,0.6-2,6.9-4,13.9
						c-2.1,6.9-4,12.6-4.3,12.6C3322.7,1970.3,3320.7,1964.5,3318.5,1957.6z"/>
				</g>
			</g>
		</g>
		<g>
			<title>bar-expo</title>
			<path class="st19" d="M370,100.7h4.8l-0.2,27.7h-4.7L370,100.7z M363.3,109.7h4.2v18.8h-4.1L363.3,109.7z M355.2,115.4h4.1v13.1
				h-4.1V115.4z M347.1,120.3h4.9v6.5l-0.2,1.7h-4.7L347.1,120.3L347.1,120.3z M338.8,122.7h5v5.7h-4.9L338.8,122.7z M342.6,118.4
				c16.5-3.6,20.1-16.1,23.4-19.7c-1.8-1.6,0.4,0.2-2.7-1.3l5.1-0.7l-0.9,5.5l-0.7-2.9c-1.3,2.8-2.8,5.4-4.6,7.9
				c-3.8,5-8.9,8.8-14.8,11.1c-1.6,0.6-3.3,1-5,1.5c-6,1.6-3.7,1.1-4.6,0.5C338.4,118.7,337.3,119.6,342.6,118.4z"/>
		</g>
		<g>
			<title>clock</title>
			<path class="st19" d="M642.2,311.8l3.4-0.1c-0.1,2.2-0.8,4.4-2,6.2c-1.3-0.3-2-1-3.1-1.6L642.2,311.8z M641,305.6
				c0.9-0.9,1.5-1.8,3.2-2c0.5,1.6,1.4,3,1.3,5l-3.5,0.3L641,305.6z M631.5,308.2c1.5,1.3,3.8,0.6,5.6,1.3v2
				c-2.2,0.5-4.5,0.8-6.7,0.9c-1.9-1.8,0.1-0.9-2.7-4.5s-0.8-4,0.5-3.6C629.4,304.5,630.4,307.2,631.5,308.2z M638.7,298.4
				c1.3,0.4,2.4,1.2,3.1,2.4c-0.5,1.2-1.5,2-2.7,2.3c-0.7-0.5-1.3-1-2-1.5L638.7,298.4z M641.5,320.5c-2,3.2-8.2,5.5-13.2,4.4
				c-17.7-4.2-13.6-28.1,1.4-28.9v3.6c-3.2,1.8-3.4,0.8-6.1,3.4s-2.5,3.1-3.1,6.1l0.3,0.1l0.3,0.1l0.8,0.4c0.7,0.4,0.5,0.1,0.8,0.9
				c-1,1.5-0.5,0.5-2.1,1.1c0.4,5,4.4,9,9.4,9.5c0.7-1.6-0.4-1.2,1.1-2.1c1.1,0.5,0.9,1.3,1.5,2.1c3.7-0.7,3.6-1.5,6.1-2.8
				C640.1,319.2,640.5,319.4,641.5,320.5z M632.9,299.7c-0.6-1.2-0.4-2.2-0.2-3.6c1.2-0.2,2.3,0.2,3.2,0.9l-1.4,3.1L632.9,299.7z"/>
			<path class="st19" d="M641.5,320.5c-0.9-1.1-1.3-1.3-2.8-2c-2.5,1.3-2.4,2-6.1,2.8c-0.7-0.7-0.4-1.6-1.5-2.1
				c-1.5,0.9-0.5,0.5-1.1,2.1c-5-0.4-9.1-4.4-9.5-9.5c1.5-0.7,1.1,0.3,2.1-1.1c-0.3-0.7-0.1-0.5-0.8-0.9l-0.8-0.4l-0.3-0.1l-0.3-0.1
				c0.6-3,1.3-4.4,3.1-6.1s3-1.7,6.1-3.4V296c-15,0.7-19.1,24.6-1.4,28.9C633.3,326,639.6,323.7,641.5,320.5z"/>
			<path class="st19" d="M630.4,312.4c2.3-0.1,4.5-0.4,6.7-0.9v-2c-1.8-0.7-4-0.1-5.6-1.3c-1.5-1.3-2-3.6-3.4-4
				c-1.3-0.4-2.8,0.7-0.5,3.6S628.5,310.5,630.4,312.4z"/>
			<path class="st19" d="M640.5,316.3c1.1,0.6,1.8,1.3,3.1,1.6c1.3-1.8,2-4,2-6.2l-3.4,0.1L640.5,316.3z"/>
			<path class="st19" d="M641,305.6l1,3.3l3.5-0.3c0.1-2-0.9-3.4-1.3-5C642.5,303.9,641.9,304.7,641,305.6z"/>
			<path class="st19" d="M637.2,301.5c0.6,0.6,1.3,1.1,2,1.5c1.2-0.3,2.2-1.1,2.7-2.3c-0.7-1.1-1.8-2-3.1-2.4L637.2,301.5z"/>
			<path class="st19" d="M632.9,299.7l1.6,0.4l1.4-3.1c-0.9-0.7-2.1-1-3.2-0.9C632.5,297.5,632.3,298.5,632.9,299.7z"/>
		</g>
	</g>
	<g id="Layer_16">
		<g>
			<path class="st17" d="M518,164c0.6,0,1,0.5,1,1v22c0,0.6-0.5,1-1,1h-22c-0.6,0-1-0.5-1-1v-22c0-0.6,0.5-1,1-1H518 M518,161h-22
				c-2.2,0-4,1.8-4,4v22c0,2.2,1.8,4,4,4h22c2.2,0,4-1.8,4-4v-22C522,162.8,520.2,161,518,161L518,161z"/>
		</g>
		<line class="st26" x1="492" y1="168.5" x2="521.1" y2="168.5"/>
		<rect x="511.7" y="178.8" class="st27" width="5.6" height="5.6"/>
		<line class="st28" x1="499.5" y1="176.9" x2="507.9" y2="176.9"/>
		<line class="st29" x1="502.3" y1="165.7" x2="509.8" y2="165.7"/>
		<line class="st28" x1="499.5" y1="184.4" x2="507.9" y2="184.4"/>
		<line class="st28" x1="499.5" y1="180.7" x2="507.9" y2="180.7"/>
		<line class="st29" x1="497.6" y1="165.7" x2="499.5" y2="165.7"/>
		<g>
			<g>
				<g transform="translate(0.000000,511.000000) scale(0.100000,-0.100000)">
					<path class="st17" d="M1409.5,2100.1c-2.3-1-4.3-3.2-5.1-5.4c-0.5-1.2-0.7-43.8-0.7-140.7c0-153.5-0.3-141.5,4-144.8l2.3-1.8
						h140.7h90.4h0.3l52.1,121.7c4.3,3.2,4,6,4.1-22.2c0,13.9,0,29.8-0.1,48l-0.2,140l-1.3,1.7c-0.7,0.9-2,2.3-2.9,2.9l-1.7,1.3
						l-140.1,0.1C1435.6,2100.9,1411,2100.8,1409.5,2100.1z M1673.3,2079.7c0.9-0.7,2.3-2,2.9-2.9c1.2-1.6,1.3-2.5,1.5-27.9
						l0.2-26.2h-127.4H1423v25.3c0,16.5,0.2,26,0.7,27.1c0.9,2.3,2.9,4.5,5.1,5.4c1.5,0.7,22.8,0.8,122.3,0.7l120.5-0.1
						L1673.3,2079.7z M1678,1918l0-15l-0.2-10l-51.7-32.1c-2.6-3.3,52.8-34,3.9-34.1c-18.2,0-43.8,0-80.2,0.1l-120.5,0.2l-1.7,1.3
						c-0.9,0.7-2.3,2-2.9,2.9c-1.3,1.7-1.3,1.9-1.5,86.8l-0.1,85.1h127.3H1678V1918z"/>
					<path class="st17" d="M1442.8,2051.9v-9.7h9.7h9.7v9.7v9.7h-9.7h-9.7V2051.9z"/>
					<path class="st17" d="M1482.1,2051.9v-9.7h9.7h9.7v9.7v9.7h-9.7h-9.7V2051.9z"/>
					<path class="st17" d="M1521.1,2051.9v-9.7h9.7h9.7v9.7v9.7h-9.7h-9.7V2051.9z"/>
					<path class="st17" d="M1454,1938.6v-9.7h49h49v9.7v9.7h-49h-49V1938.6z"/>
					<path class="st17" d="M1454,1970.4v-9.7h49h49v9.7v9.7h-49h-49V1970.4z"/>
					<path class="st17" d="M1454,1875.1v-9.7h49h49v9.7v9.7h-49h-49V1875.1z"/>
					<path class="st17" d="M1454,1906.9v-9.7h49h49v9.7v9.7h-49h-49V1906.9z"/>
				</g>
			</g>
		</g>
		<g>
			<g>
				<path class="st17" d="M179.6,330.4c0.1-0.3,0.6-0.5,1.1-0.5h0.7c0.5,0,1-0.4,1-1v-1.4c0-0.5-0.4-1-1-1h-0.7
					c-0.5,0-1-0.2-1.1-0.5s0.1-1.2,0.6-1.5l0.6-0.3c0.5-0.3,0.6-0.9,0.4-1.3l-0.7-1.2c-0.3-0.5-0.9-0.6-1.3-0.4l-0.6,0.4
					c-0.5,0.3-1,0.3-1.2,0.1c-0.2-0.2-0.5-1.1-0.3-1.6l0.3-0.6c0.3-0.5,0.1-1.1-0.4-1.3l-1.2-0.7c-0.5-0.3-1.1-0.1-1.3,0.4l-0.4,0.6
					c-0.3,0.5-0.7,0.8-1,0.7c-0.3-0.1-1-0.7-1-1.2v-0.7c0-0.5-0.4-1-1-1h-1.4c-0.5,0-1,0.4-1,1v0.7c0,0.5-0.2,1-0.5,1.1
					s-1.2-0.1-1.5-0.6l-0.3-0.6c-0.3-0.5-0.9-0.6-1.3-0.4l-1.2,0.7c-0.5,0.3-0.6,0.9-0.4,1.3l0.4,0.6c0.3,0.5,0.3,1,0.1,1.2
					s-1.1,0.5-1.6,0.3l-0.6-0.3c-0.5-0.3-1.1-0.1-1.3,0.4l-0.7,1.2c-0.3,0.5-0.1,1.1,0.4,1.3l0.6,0.4c0.5,0.3,0.8,0.7,0.7,1
					s-0.7,1-1.2,1h-0.7c-0.5,0-1,0.4-1,1v1.4c0,0.5,0.4,1,1,1h0.7c0.5,0,1,0.2,1.1,0.5s-0.1,1.2-0.6,1.5l-0.6,0.3
					c-0.5,0.3-0.6,0.9-0.4,1.3l0.7,1.2c0.3,0.5,0.9,0.6,1.3,0.4l0.6-0.4c0.5-0.3,1-0.3,1.2-0.1c0.2,0.2,0.5,1.1,0.3,1.6l-0.3,0.6
					c-0.3,0.5-0.1,1.1,0.4,1.3l1.2,0.7c0.5,0.3,1.1,0.1,1.3-0.4l0.4-0.6c0.3-0.5,0.7-0.8,1-0.7c0.3,0.1,1,0.7,1,1.2v0.7
					c0,0.5,0.4,1,1,1h1.4c0.5,0,1-0.4,1-1v-0.7c0-0.5,0.2-1,0.5-1.1s1.2,0.1,1.5,0.6l0.3,0.6c0.3,0.5,0.9,0.6,1.3,0.4l1.2-0.7
					c0.5-0.3,0.6-0.9,0.4-1.3l-0.4-0.6c-0.3-0.5-0.3-1-0.1-1.2s1.1-0.5,1.6-0.3l0.6,0.3c0.5,0.3,1.1,0.1,1.3-0.4l0.7-1.2
					c0.3-0.5,0.1-1.1-0.4-1.3l-0.6-0.3C179.7,331.6,179.5,330.7,179.6,330.4L179.6,330.4z M165.4,328.3c0-2.8,2.3-5.1,5.1-5.1
					s5.1,2.3,5.1,5.1c0,2.8-2.3,5.1-5.1,5.1S165.4,331.1,165.4,328.3z"/>
			</g>
		</g>
		<g>
			<g>
				<path class="st17" d="M373.6,210.2c0.1-0.3,0.6-0.5,1.1-0.5h0.7c0.5,0,1-0.4,1-1v-1.4c0-0.5-0.4-1-1-1h-0.7
					c-0.5,0-1-0.2-1.1-0.5s0.1-1.2,0.6-1.5l0.6-0.3c0.5-0.3,0.6-0.9,0.4-1.3l-0.7-1.2c-0.3-0.5-0.9-0.6-1.4-0.4l-0.6,0.4
					c-0.5,0.3-1,0.3-1.2,0.1s-0.5-1.1-0.3-1.6l0.3-0.6c0.3-0.5,0.1-1.1-0.4-1.3l-1.2-0.7c-0.5-0.3-1.1-0.1-1.4,0.4l-0.4,0.6
					c-0.3,0.5-0.7,0.8-1,0.7s-1-0.7-1-1.2V197c0-0.5-0.4-1-1-1h-1.4c-0.5,0-1,0.4-1,1v0.7c0,0.5-0.2,1-0.5,1.1s-1.2-0.1-1.5-0.6
					l-0.3-0.6c-0.3-0.5-0.9-0.6-1.3-0.4l-1.2,0.7c-0.5,0.3-0.6,0.9-0.4,1.4l0.4,0.6c0.3,0.5,0.3,1,0.1,1.2c-0.2,0.2-1.1,0.5-1.6,0.3
					l-0.6-0.3c-0.5-0.3-1.1-0.1-1.3,0.4l-0.7,1.2c-0.3,0.5-0.1,1.1,0.4,1.4l0.6,0.4c0.5,0.3,0.8,0.7,0.7,1c-0.1,0.3-0.7,1-1.2,1
					h-0.7c-0.5,0-1,0.4-1,1v1.4c0,0.5,0.4,1,1,1h0.7c0.5,0,1,0.2,1.1,0.5s-0.1,1.2-0.6,1.5l-0.6,0.3c-0.5,0.3-0.6,0.9-0.4,1.3
					l0.7,1.2c0.3,0.5,0.9,0.6,1.4,0.4l0.6-0.4c0.5-0.3,1-0.3,1.2-0.1s0.5,1.1,0.3,1.6l-0.3,0.6c-0.3,0.5-0.1,1.1,0.4,1.3l1.2,0.7
					c0.5,0.3,1.1,0.1,1.4-0.4l0.4-0.6c0.3-0.5,0.7-0.8,1-0.7s1,0.7,1,1.2v0.7c0,0.5,0.4,1,1,1h1.4c0.5,0,1-0.4,1-1v-0.7
					c0-0.5,0.2-1,0.5-1.1s1.2,0.1,1.5,0.6l0.3,0.6c0.3,0.5,0.9,0.6,1.3,0.4l1.2-0.7c0.5-0.3,0.6-0.9,0.4-1.4l-0.4-0.6
					c-0.3-0.5-0.3-1-0.1-1.2c0.2-0.2,1.1-0.5,1.6-0.3l0.6,0.3c0.5,0.3,1.1,0.1,1.3-0.4l0.7-1.2c0.3-0.5,0.1-1.1-0.4-1.4l-0.6-0.4
					C373.7,211.4,373.5,210.4,373.6,210.2L373.6,210.2z M359.3,208c0-2.8,2.3-5.1,5.1-5.1c2.8,0,5.1,2.3,5.1,5.1s-2.3,5.1-5.1,5.1
					S359.3,210.8,359.3,208z"/>
			</g>
		</g>
		<g>
			<g>
				<path class="st17" d="M354.4,230.9c0.1-0.3,0.6-0.5,1.1-0.5h0.7c0.5,0,1-0.4,1-1V228c0-0.5-0.4-1-1-1h-0.7c-0.5,0-1-0.2-1.1-0.5
					s0.1-1.2,0.6-1.5l0.6-0.3c0.5-0.3,0.6-0.9,0.4-1.3l-0.7-1.2c-0.3-0.5-0.9-0.6-1.4-0.4l-0.6,0.4c-0.5,0.3-1,0.3-1.2,0.1
					s-0.5-1.1-0.3-1.6l0.3-0.6c0.3-0.5,0.1-1.1-0.4-1.3l-1.2-0.7c-0.5-0.3-1.1-0.1-1.4,0.4l-0.4,0.6c-0.3,0.5-0.7,0.8-1,0.7
					s-1-0.7-1-1.2v-0.7c0-0.5-0.4-1-1-1h-1.4c-0.5,0-1,0.4-1,1v0.7c0,0.5-0.2,1-0.5,1.1s-1.2-0.1-1.5-0.6l-0.3-0.6
					c-0.3-0.5-0.9-0.6-1.3-0.4l-1.2,0.7c-0.5,0.3-0.6,0.9-0.4,1.4l0.4,0.6c0.3,0.5,0.3,1,0.1,1.2c-0.2,0.2-1.1,0.5-1.6,0.3l-0.6-0.3
					c-0.5-0.3-1.1-0.1-1.3,0.4l-0.7,1.2c-0.3,0.5-0.1,1.1,0.4,1.4l0.6,0.4c0.5,0.3,0.8,0.7,0.7,1c-0.1,0.3-0.7,1-1.2,1h-0.7
					c-0.5,0-1,0.4-1,1v1.4c0,0.5,0.4,1,1,1h0.7c0.5,0,1,0.2,1.1,0.5s-0.1,1.2-0.6,1.5l-0.6,0.3c-0.5,0.3-0.6,0.9-0.4,1.3l0.7,1.2
					c0.3,0.5,0.9,0.6,1.4,0.4l0.6-0.4c0.5-0.3,1-0.3,1.2-0.1s0.5,1.1,0.3,1.6l-0.3,0.6c-0.3,0.5-0.1,1.1,0.4,1.3l1.2,0.7
					c0.5,0.3,1.1,0.1,1.4-0.4l0.4-0.6c0.3-0.5,0.7-0.8,1-0.7s1,0.7,1,1.2v0.7c0,0.5,0.4,1,1,1h1.4c0.5,0,1-0.4,1-1V239
					c0-0.5,0.2-1,0.5-1.1s1.2,0.1,1.5,0.6l0.3,0.6c0.3,0.5,0.9,0.6,1.3,0.4l1.2-0.7c0.5-0.3,0.6-0.9,0.4-1.4l-0.4-0.6
					c-0.3-0.5-0.3-1-0.1-1.2c0.2-0.2,1.1-0.5,1.6-0.3l0.6,0.3c0.5,0.3,1.1,0.1,1.3-0.4l0.7-1.2c0.3-0.5,0.1-1.1-0.4-1.4l-0.6-0.4
					C354.5,232.1,354.4,231.2,354.4,230.9L354.4,230.9z M340.2,228.8c0-2.8,2.3-5.1,5.1-5.1c2.8,0,5.1,2.3,5.1,5.1s-2.3,5.1-5.1,5.1
					S340.2,231.6,340.2,228.8z"/>
			</g>
		</g>
		<g>
			<g>
				<path class="st17" d="M383.2,234.9c0.1-0.3,0.6-0.5,1.1-0.5h0.7c0.5,0,1-0.4,1-1V232c0-0.5-0.4-1-1-1h-0.7c-0.5,0-1-0.2-1.1-0.5
					s0.1-1.2,0.6-1.5l0.6-0.3c0.5-0.3,0.6-0.9,0.4-1.3l-0.7-1.2c-0.3-0.5-0.9-0.6-1.4-0.4l-0.6,0.4c-0.5,0.3-1,0.3-1.2,0.1
					s-0.5-1.1-0.3-1.6l0.3-0.6c0.3-0.5,0.1-1.1-0.4-1.3l-1.2-0.7c-0.5-0.3-1.1-0.1-1.4,0.4l-0.4,0.6c-0.3,0.5-0.7,0.8-1,0.7
					s-1-0.7-1-1.2v-0.7c0-0.5-0.4-1-1-1h-1.4c-0.5,0-1,0.4-1,1v0.7c0,0.5-0.2,1-0.5,1.1s-1.2-0.1-1.5-0.6l-0.3-0.6
					c-0.3-0.5-0.9-0.6-1.3-0.4l-1.2,0.7c-0.5,0.3-0.6,0.9-0.4,1.4l0.4,0.6c0.3,0.5,0.3,1,0.1,1.2c-0.2,0.2-1.1,0.5-1.6,0.3l-0.6-0.3
					c-0.5-0.3-1.1-0.1-1.3,0.4l-0.7,1.2c-0.3,0.5-0.1,1.1,0.4,1.4l0.6,0.4c0.5,0.3,0.8,0.7,0.7,1c-0.1,0.3-0.7,1-1.2,1H363
					c-0.5,0-1,0.4-1,1v1.4c0,0.5,0.4,1,1,1h0.7c0.5,0,1,0.2,1.1,0.5s-0.1,1.2-0.6,1.5l-0.6,0.3c-0.5,0.3-0.6,0.9-0.4,1.3l0.7,1.2
					c0.3,0.5,0.9,0.6,1.4,0.4l0.6-0.4c0.5-0.3,1-0.3,1.2-0.1s0.5,1.1,0.3,1.6l-0.3,0.6c-0.3,0.5-0.1,1.1,0.4,1.3l1.2,0.7
					c0.5,0.3,1.1,0.1,1.4-0.4l0.4-0.6c0.3-0.5,0.7-0.8,1-0.7s1,0.7,1,1.2v0.7c0,0.5,0.4,1,1,1h1.4c0.5,0,1-0.4,1-1V243
					c0-0.5,0.2-1,0.5-1.1s1.2,0.1,1.5,0.6l0.3,0.6c0.3,0.5,0.9,0.6,1.3,0.4l1.2-0.7c0.5-0.3,0.6-0.9,0.4-1.4l-0.4-0.6
					c-0.3-0.5-0.3-1-0.1-1.2c0.2-0.2,1.1-0.5,1.6-0.3l0.6,0.3c0.5,0.3,1.1,0.1,1.3-0.4l0.7-1.2c0.3-0.5,0.1-1.1-0.4-1.4l-0.6-0.4
					C383.3,236.1,383.1,235.2,383.2,234.9L383.2,234.9z M370.4,232.8c0-2,1.6-3.6,3.6-3.6s3.6,1.6,3.6,3.6s-1.6,3.6-3.6,3.6
					S370.4,234.7,370.4,232.8z"/>
			</g>
		</g>
		<g>
			<g>
				<path class="st17" d="M384.3,191.7c0-0.2,0.3-0.3,0.7-0.3h0.4c0.3,0,0.6-0.3,0.6-0.6V190c0-0.3-0.3-0.6-0.6-0.6H385
					c-0.3,0-0.6-0.1-0.7-0.3s0.1-0.7,0.3-0.9l0.4-0.2c0.3-0.2,0.4-0.5,0.2-0.8l-0.4-0.7c-0.2-0.3-0.5-0.4-0.8-0.2l-0.4,0.2
					c-0.3,0.2-0.6,0.2-0.7,0.1c-0.1-0.1-0.3-0.7-0.2-0.9l0.2-0.4c0.2-0.3,0.1-0.6-0.2-0.8L382,184c-0.3-0.2-0.6-0.1-0.8,0.2
					l-0.2,0.4c-0.2,0.3-0.4,0.5-0.6,0.4c-0.2,0-0.6-0.4-0.6-0.7v-0.4c0-0.3-0.3-0.6-0.6-0.6h-0.8c-0.3,0-0.6,0.3-0.6,0.6v0.4
					c0,0.3-0.1,0.6-0.3,0.7c-0.2,0-0.7-0.1-0.9-0.3l-0.2-0.4c-0.2-0.3-0.5-0.4-0.8-0.2l-0.7,0.4c-0.3,0.2-0.4,0.5-0.2,0.8l0.2,0.4
					c0.2,0.3,0.2,0.6,0.1,0.7c-0.1,0.1-0.7,0.3-0.9,0.2l-0.4-0.2c-0.3-0.2-0.6-0.1-0.8,0.2l-0.4,0.7c-0.2,0.3-0.1,0.6,0.2,0.8
					l0.4,0.2c0.3,0.2,0.5,0.4,0.4,0.6c0,0.2-0.4,0.6-0.7,0.6h-0.4c-0.3,0-0.6,0.3-0.6,0.6v0.8c0,0.3,0.3,0.6,0.6,0.6h0.4
					c0.3,0,0.6,0.1,0.7,0.3s-0.1,0.7-0.3,0.9l-0.4,0.2c-0.3,0.2-0.4,0.5-0.2,0.8l0.4,0.7c0.2,0.3,0.5,0.4,0.8,0.2l0.4-0.2
					c0.3-0.2,0.6-0.2,0.7-0.1c0.1,0.1,0.3,0.7,0.2,0.9l-0.2,0.4c-0.2,0.3-0.1,0.6,0.2,0.8l0.7,0.4c0.3,0.2,0.6,0.1,0.8-0.2l0.2-0.4
					c0.2-0.3,0.4-0.5,0.6-0.4c0.2,0,0.6,0.4,0.6,0.7v0.4c0,0.3,0.3,0.6,0.6,0.6h0.8c0.3,0,0.6-0.3,0.6-0.6v-0.4
					c0-0.3,0.1-0.6,0.3-0.7c0.2,0,0.7,0.1,0.9,0.3l0.2,0.4c0.2,0.3,0.5,0.4,0.8,0.2l0.7-0.4c0.3-0.2,0.4-0.5,0.2-0.8l-0.2-0.4
					c-0.2-0.3-0.2-0.6-0.1-0.7s0.7-0.3,0.9-0.2l0.4,0.2c0.3,0.2,0.6,0.1,0.8-0.2l0.4-0.7c0.2-0.3,0.1-0.6-0.2-0.8l-0.4-0.2
					C384.3,192.5,384.2,191.9,384.3,191.7L384.3,191.7z M376.6,190.5c0-1.2,1-2.2,2.2-2.2s2.2,1,2.2,2.2s-1,2.2-2.2,2.2
					S376.6,191.7,376.6,190.5z"/>
			</g>
		</g>
		<g>
			<g>
				<path class="st17" d="M404.9,212.2c0.1-0.3,0.7-0.6,1.3-0.6h0.9c0.7,0,1.2-0.5,1.2-1.2v-1.7c0-0.7-0.5-1.2-1.2-1.2h-0.8
					c-0.7,0-1.3-0.3-1.3-0.6s0.1-1.4,0.7-1.8l0.7-0.4c0.6-0.3,0.8-1.1,0.4-1.6l-0.8-1.5c-0.3-0.6-1.1-0.8-1.6-0.4l-0.7,0.4
					c-0.6,0.3-1.2,0.4-1.5,0.1c-0.2-0.2-0.6-1.3-0.3-1.9l0.4-0.7c0.3-0.6,0.1-1.3-0.4-1.6l-1.5-0.8c-0.6-0.3-1.3-0.1-1.6,0.4
					l-0.4,0.7c-0.3,0.6-0.9,0.9-1.2,0.8c-0.3-0.1-1.2-0.8-1.2-1.5v-0.9c0-0.7-0.5-1.2-1.2-1.2H393c-0.7,0-1.2,0.5-1.2,1.2v0.8
					c0,0.7-0.3,1.3-0.6,1.3s-1.4-0.1-1.8-0.7l-0.4-0.7c-0.3-0.6-1.1-0.8-1.6-0.4l-1.5,0.8c-0.6,0.3-0.8,1.1-0.4,1.6l0.4,0.7
					c0.3,0.6,0.4,1.2,0.1,1.5c-0.2,0.2-1.3,0.6-1.9,0.3l-0.7-0.4c-0.6-0.3-1.3-0.1-1.6,0.4l-0.8,1.5c-0.3,0.6-0.1,1.3,0.4,1.6
					l0.7,0.4c0.6,0.3,0.9,0.9,0.8,1.2s-0.8,1.2-1.5,1.2h-0.9c-0.7,0-1.2,0.5-1.2,1.2v1.7c0,0.7,0.5,1.2,1.2,1.2h0.8
					c0.7,0,1.3,0.3,1.3,0.6s-0.1,1.4-0.7,1.8l-0.7,0.4c-0.6,0.3-0.8,1.1-0.4,1.6l0.8,1.5c0.3,0.6,1.1,0.8,1.6,0.4l0.7-0.4
					c0.6-0.3,1.2-0.4,1.5-0.1c0.2,0.2,0.6,1.3,0.3,1.9l-0.4,0.7c-0.3,0.6-0.1,1.3,0.4,1.6l1.5,0.8c0.6,0.3,1.3,0.1,1.6-0.4l0.4-0.7
					c0.3-0.6,0.9-0.9,1.2-0.8c0.3,0.1,1.2,0.8,1.2,1.5v0.9c0,0.7,0.5,1.2,1.2,1.2h1.7c0.7,0,1.2-0.5,1.2-1.2v-0.8
					c0-0.7,0.3-1.3,0.6-1.3c0.3-0.1,1.4,0.1,1.8,0.7l0.4,0.7c0.3,0.6,1.1,0.8,1.6,0.4l1.5-0.8c0.6-0.3,0.8-1.1,0.4-1.6l-0.4-0.7
					c-0.3-0.6-0.4-1.2-0.1-1.4c0.2-0.2,1.3-0.6,1.9-0.3l0.7,0.4c0.6,0.3,1.3,0.1,1.6-0.4l0.8-1.5c0.3-0.6,0.1-1.3-0.4-1.6l-0.7-0.4
					C405.1,213.6,404.9,212.5,404.9,212.2L404.9,212.2z M389.6,209.6c0-2.4,1.9-4.3,4.3-4.3s4.3,1.9,4.3,4.3c0,2.4-1.9,4.3-4.3,4.3
					S389.6,212,389.6,209.6z"/>
			</g>
		</g>
	</g>
	<g id="puzzle_copy_3" class="st6">
		<line class="st12" x1="298" y1="208.1" x2="298" y2="201.1"/>
		<line class="st13" x1="285" y1="201.8" x2="299" y2="201.8"/>
		<line class="st13" x1="285" y1="207.8" x2="299" y2="207.8"/>
		<ellipse class="st13" cx="278.5" cy="204.8" rx="7" ry="7.5"/>
		<rect x="273.5" y="202.7" class="st14" width="13" height="4.1"/>
	</g>
	<g id="puzzle_copy_6" class="st6">
		<line class="st12" x1="582" y1="314.1" x2="582" y2="307.1"/>
		<line class="st13" x1="569" y1="307.8" x2="583" y2="307.8"/>
		<line class="st13" x1="569" y1="313.8" x2="583" y2="313.8"/>
		<ellipse class="st13" cx="562.5" cy="310.8" rx="7" ry="7.5"/>
		<rect x="557.5" y="308.7" class="st14" width="13" height="4.1"/>
	</g>
	<g id="knob">
		<g>
			<title>knob</title>
			<path class="st30" d="M298,224.5c0-2.9,0.7-12.2-5.5-10.6c-1.5,0.3-1.4,1.3-2.9,2.5c-3.1,2.4-7.5,1.8-9.9-1.3
				c-1.1-1.5-1.6-3.4-1.4-5.2c0.4-4.4,6.4-9.4,12.5-3.5c2.3,2.1,6.9,1.4,7.1-1.8"/>
		</g>
	</g>
	<g id="knob_copy_9">
		<g>
			<title>knob</title>
			<path class="st30" d="M509.5,221c2.9,0,12.2,0.7,10.6-5.5c-0.3-1.5-1.3-1.4-2.5-2.9c-2.4-3.1-1.8-7.5,1.3-9.9
				c1.5-1.1,3.4-1.6,5.2-1.4c4.4,0.4,9.4,6.4,3.5,12.5c-2.1,2.3-1.4,6.9,1.8,7.1"/>
		</g>
	</g>
	<g id="knob_copy_10">
		<g>
			<title>knob</title>
			<path class="st30" d="M582,230.1c0,2.9-0.7,12.2,5.5,10.6c1.5-0.3,1.4-1.3,2.9-2.5c3.1-2.4,7.5-1.8,9.9,1.3
				c1.1,1.5,1.6,3.4,1.4,5.2c-0.4,4.4-6.4,9.4-12.5,3.5c-2.3-2.1-6.9-1.4-7.1,1.8"/>
		</g>
	</g>
	<g id="knob_copy_11">
		<g>
			<title>knob</title>
			<path class="st30" d="M582,365.1c0,2.9-0.7,12.2,5.5,10.6c1.5-0.3,1.4-1.3,2.9-2.5c3.1-2.4,7.5-1.8,9.9,1.3
				c1.1,1.5,1.6,3.4,1.4,5.2c-0.4,4.4-6.4,9.4-12.5,3.5c-2.3-2.1-6.9-1.4-7.1,1.8"/>
		</g>
	</g>
	<g id="knob_copy_12">
		<g>
			<title>knob</title>
			<path class="st30" d="M581.9,296.1c0,2.9,0.7,12.2-5.5,10.6c-1.5-0.3-1.4-1.3-2.9-2.5c-3.1-2.4-7.5-1.8-9.9,1.3
				c-1.1,1.5-1.6,3.4-1.4,5.2c0.4,4.4,6.4,9.4,12.5,3.5c2.3-2.1,6.9-1.4,7.1,1.8"/>
		</g>
	</g>
	<g id="knob_copy_13">
		<g>
			<title>knob</title>
			<path class="st30" d="M615.3,265c2.9,0,12.2-0.7,10.6,5.5c-0.3,1.5-1.3,1.4-2.5,2.9c-2.4,3.1-1.8,7.5,1.3,9.9
				c1.5,1.1,3.4,1.6,5.2,1.4c4.4-0.4,9.4-6.4,3.5-12.5c-2.1-2.3-1.4-6.9,1.8-7.1"/>
		</g>
	</g>
	<g id="knob_copy_14">
		<g>
			<title>knob</title>
			<path class="st30" d="M509.3,352c2.9,0,12.2-0.7,10.6,5.5c-0.3,1.5-1.3,1.4-2.5,2.9c-2.4,3.1-1.8,7.5,1.3,9.9
				c1.5,1.1,3.4,1.6,5.2,1.4c4.4-0.4,9.4-6.4,3.5-12.5c-2.1-2.3-1.4-6.9,1.8-7.1"/>
		</g>
	</g>
	<g id="knob_copy_8">
	</g>
	<g id="knob_copy_2">
		<g>
			<title>knob</title>
			<path class="st30" d="M298,135.5c0-2.9-0.7-12.2,5.5-10.6c1.5,0.3,1.4,1.3,2.9,2.5c3.1,2.4,7.5,1.8,9.9-1.3
				c1.1-1.5,1.6-3.4,1.4-5.2c-0.4-4.4-6.4-9.4-12.5-3.5c-2.3,2.1-6.9,1.4-7.1-1.8"/>
		</g>
	</g>
	<g id="knob_copy_3">
		<g>
			<title>knob</title>
			<path class="st30" d="M351.3,154c2.9,0,12.2-0.7,10.6,5.5c-0.3,1.5-1.3,1.4-2.5,2.9c-2.4,3.1-1.8,7.5,1.3,9.9
				c1.5,1.1,3.4,1.6,5.2,1.4c4.4-0.4,9.4-6.4,3.5-12.5c-2.1-2.3-1.4-6.9,1.8-7.1"/>
		</g>
	</g>
	<g id="knob_copy_4">
		<g>
			<title>knob</title>
			<path class="st30" d="M321.3,352c2.9,0,12.2-0.7,10.6,5.5c-0.3,1.5-1.3,1.4-2.5,2.9c-2.4,3.1-1.8,7.5,1.3,9.9
				c1.5,1.1,3.4,1.6,5.2,1.4c4.4-0.4,9.4-6.4,3.5-12.5c-2.1-2.3-1.4-6.9,1.8-7.1"/>
		</g>
	</g>
	<g id="knob_copy_7">
		<g>
			<title>knob</title>
			<path class="st30" d="M240.3,275c2.9,0,12.2-0.7,10.6,5.5c-0.3,1.5-1.3,1.4-2.5,2.9c-2.4,3.1-1.8,7.5,1.3,9.9
				c1.5,1.1,3.4,1.6,5.2,1.4c4.4-0.4,9.4-6.4,3.5-12.5c-2.1-2.3-1.4-6.9,1.8-7.1"/>
		</g>
	</g>
	<g id="knob_copy_5">
		<g>
			<title>knob</title>
			<path class="st30" d="M373,330.6c0-2.9-0.7-12.2,5.5-10.6c1.5,0.3,1.4,1.3,2.9,2.5c3.1,2.4,7.5,1.8,9.9-1.3
				c1.1-1.5,1.6-3.4,1.4-5.2c-0.4-4.4-6.4-9.4-12.5-3.5c-2.3,2.1-6.9,1.4-7.1-1.8"/>
		</g>
	</g>
	<g id="knob_copy_6">
		<g>
			<title>knob</title>
			<path class="st30" d="M198,367.6c0-2.9-0.7-12.2,5.5-10.6c1.5,0.3,1.4,1.3,2.9,2.5c3.1,2.4,7.5,1.8,9.9-1.3
				c1.1-1.5,1.6-3.4,1.4-5.2c-0.4-4.4-6.4-9.4-12.5-3.5c-2.3,2.1-6.9,1.4-7.1-1.8"/>
		</g>
	</g>
	<g id="knob_copy">
		<g>
			<title>knob</title>
			<path class="st30" d="M447.4,201.5c0-2.9,0.5-12.2-5.7-10.6c-1.5,0.3-1.4,1.3-2.9,2.5c-3.1,2.4-7.5,1.8-9.9-1.3
				c-1.1-1.5-1.6-3.4-1.4-5.2c0.4-4.4,6.4-9.4,12.5-3.5c2.3,2.1,6.9,1.4,7.1-1.8"/>
		</g>
	</g>
</g>
</svg>
