<svg width="154" height="93" viewBox="0 0 154 93" fill="none" xmlns="http://www.w3.org/2000/svg">
<path fill-rule="evenodd" clip-rule="evenodd" d="M47 35.6221C47.8107 32.7096 48.5748 29.7337 49.7778 26.9347C50.5307 25.1831 51.3285 23.4474 52.1276 21.7136C52.2384 21.4729 52.2852 21.2409 52.5009 21.121C52.7888 20.9609 53.3846 20.9644 53.7095 20.9094C58.3251 20.1272 62.9888 19.5303 67.6677 19.1945C73.0073 18.8113 78.2128 18.9865 83.4963 19.7904C88.0147 20.4779 92.4885 21.4255 96.9135 22.5105C97.564 22.6699 98.2136 22.8328 98.8618 23.0002C99.1638 23.0783 99.6652 23.1181 99.9285 23.2809C100.491 23.6289 100.682 25.055 100.893 25.6591C101.176 26.4689 101.34 27.5814 101.885 28.2703C102.696 29.2958 103.931 30.1853 104.937 31.0378C108.446 34.013 112.293 36.727 116.825 38.198C123.836 40.4735 131.23 41.8998 138.493 43.3098C138.662 43.3426 138.831 43.3753 139 43.4076C137.12 45.3314 135.239 47.2551 133.359 49.1788C132.299 50.2632 131.239 51.3477 130.179 52.4321C129.634 52.9897 129.694 53.0892 128.923 52.9339C125.061 52.1553 121.206 51.3066 117.414 50.272C115.554 49.7649 113.664 49.2384 111.934 48.417C109.553 47.2864 107.319 45.889 105.144 44.4536C103.2 43.1704 101.301 41.828 99.4373 40.4476C99.0697 40.1755 97.7436 38.8637 97.3136 38.9492C96.9426 39.0229 96.3005 39.8028 96.0288 40.0299C95.3104 40.6307 94.5891 41.2287 93.8633 41.8219C92.7082 42.7655 91.5285 43.9214 90.1793 44.6317C88.7575 45.3803 87.128 45.8903 85.6274 46.4864C84.7903 46.8188 83.9524 47.15 83.1144 47.4803C82.8955 47.5665 82.5901 47.7541 82.3541 47.7589C81.6555 47.7725 80.6411 47.2479 79.9933 47.0436C78.3289 46.5186 76.6767 45.9604 75.0416 45.3619C71.5504 44.0838 67.7134 42.6952 64.84 40.3953C64.3388 39.9942 63.8489 39.5452 63.5172 39.0092C63.4022 38.8233 63.2311 38.5645 63.2193 38.3452C63.2006 37.9953 63.4135 37.9266 63.7301 37.7079C65.3644 36.5794 67.1266 35.5958 68.8597 34.604C69.2669 34.371 69.6749 34.139 70.0843 33.9093L49.8343 35.4118C48.8896 35.4819 47.9448 35.5519 47 35.6221Z" fill="#42D58E"/>
<path fill-rule="evenodd" clip-rule="evenodd" d="M77.4544 0.0871973C79.5897 0.177736 81.7787 0.270003 83.8954 0.549393C86.0052 0.827775 87.9742 1.53985 89.8812 2.40206C93.3194 3.95662 96.8337 5.84629 99.0452 8.83652C100.079 10.2346 100.923 11.6985 102.35 12.7991C102.684 13.0564 103.048 13.3658 103.491 13.4445C103.843 13.5071 104.154 13.3746 104.499 13.3587C105.157 13.3283 105.407 13.6511 105.407 14.2592C105.901 14.0758 106.439 13.9099 106.978 13.9772C107.429 14.0337 107.787 14.2863 108.22 14.3925C109.001 14.5842 109.765 14.2975 110.508 14.0839C112.383 13.5444 114.443 13.1359 116.414 13.3283C117.712 13.4552 119.285 13.9784 118.613 15.5327C118.055 16.8219 115.971 17.4746 114.655 17.7953C113.535 18.0682 112.029 17.8246 112.124 19.261C112.19 20.2636 112.353 21.3391 113.499 21.6644C114.128 21.8428 116.354 22.1085 115.054 23.0131C114.094 23.6812 113.759 24.857 113.028 25.7401C112.097 26.8657 110.835 27.7757 109.36 28.1865C107.709 28.6463 105.963 28.558 104.267 28.7364C105.462 30.2685 107.186 31.3223 108.755 32.4874C110.406 33.7124 111.998 35.0512 113.908 35.9245C115.619 36.7073 117.469 37.2508 119.237 37.9145C121.094 38.6116 122.964 39.3007 124.881 39.8438C128.747 40.9391 132.814 41.7043 136.789 42.3763C138.751 42.7079 140.675 42.6592 142.656 42.6888C144.689 42.7191 146.72 43.0505 148.715 43.3908C149.682 43.5559 150.659 43.6599 151.626 43.8243C152.09 43.9032 153.927 44.0771 153.993 44.709C154.101 45.7381 152.903 46.3151 152.026 46.6021C151.652 46.7247 151.049 46.7069 150.725 46.8754C150.374 47.0578 150.511 47.3263 150.471 47.6793C150.412 48.1925 150.117 48.5617 149.664 48.8464C149.291 49.0806 148.842 49.0714 149.099 49.5149C149.218 49.7194 149.514 49.8482 149.65 50.064C149.807 50.31 149.878 50.5799 149.847 50.863C149.791 51.3588 149.439 51.737 148.947 51.9124C148.162 52.1926 147.24 51.9943 146.436 51.9033C145.09 51.7511 143.724 51.7359 142.395 51.4621C141.011 51.1767 139.663 50.7368 138.277 50.4444C137.566 50.2946 136.853 50.1689 136.159 49.9611C135.706 49.8259 135.053 49.4749 134.572 49.5848C134.121 49.6877 133.768 50.194 133.473 50.4878C133.066 50.8931 132.672 51.3095 132.259 51.7091C131.985 51.9738 131.704 52.2331 131.405 52.4733C131.307 52.5513 130.707 52.8927 130.698 52.9844C130.675 53.2434 131.331 53.2389 131.471 53.3418C132.287 53.9415 131.061 54.3209 130.532 54.2908C129.312 54.2218 128.086 54.0826 126.878 53.916C124.002 53.5193 121.133 53.0911 118.383 52.1955C115.663 51.3095 113.008 50.3672 110.492 49.0466C108.077 47.7792 105.741 46.3463 103.46 44.8817C102.353 44.1709 101.238 43.4345 100.304 42.5291C99.3896 41.6436 98.6444 40.6269 97.8864 39.6264C96.071 41.2562 94.324 42.9702 92.374 44.4643C90.519 45.8855 88.289 46.6448 86.1314 47.5679C86.2013 47.9874 88.3102 48.2385 88.6954 48.3475C90.4545 48.8451 92.1425 49.6436 93.8534 50.2697C96.6996 51.3114 99.4003 52.667 100.348 55.5601C101.28 58.4045 100.199 61.2678 98.8809 63.8374C97.3248 66.8709 95.4767 69.6805 93.2423 72.3249C92.2919 73.45 91.2681 74.4857 90.2251 75.5333C89.3353 76.4271 88.5724 77.486 88.9453 78.7564C89.6614 78.5484 89.7927 79.0677 89.3244 79.5075C88.9083 79.8983 88.189 79.9741 87.6333 80.0389C85.9487 80.2352 84.2087 80.1659 82.5222 80.0199C79.4516 79.754 76.3741 79.0336 73.5942 77.794C72.2111 77.1772 71.7105 78.1717 70.7594 78.9419C70.0109 79.5478 68.9805 79.9406 68.4117 80.7246C67.9438 81.3696 68.2492 82.3887 69.2211 82.1471C69.9773 81.9589 70.5848 81.1747 71.3858 81.1445C72.8074 81.091 70.1252 82.9763 69.782 83.2065C70.4614 83.7713 71.2317 82.9968 71.9168 82.8675C72.5739 82.7434 72.7574 83.0596 72.4073 83.5688C72.1343 83.9658 71.2766 84.2469 71.847 84.7298C72.3196 85.1298 73.3674 85.3404 73.9477 85.5157C75.7579 86.0628 77.5588 86.4521 79.4433 86.7019C80.052 86.7825 81.0276 86.731 81.521 87.132C82.1717 87.661 81.858 88.5376 81.5286 89.1436C80.2808 91.439 77.6866 92.5674 75.0222 92.7326C73.3814 92.8343 71.7251 92.7358 70.0789 92.8181C68.2751 92.9084 66.4672 93.0424 64.6593 92.987C61.7527 92.898 59.9036 90.9452 58.4545 88.7977C57.534 87.4333 56.6855 86.0293 55.8886 84.5997C55.5773 84.0412 54.9254 83.4625 54.8145 82.835C54.7144 82.27 55.1022 81.8169 55.479 81.4171C56.4704 80.3652 57.6633 79.5623 58.8288 78.6931C59.4943 78.1969 59.7501 77.7859 60.0464 77.0636C60.2959 76.4556 60.7755 76.1957 61.1978 75.7106C61.6622 75.1769 61.5164 75.0824 61.1541 74.6463C60.775 74.1896 60.924 73.5166 61.0832 72.9999C61.3115 72.2584 61.8013 72.0952 62.5327 71.8563C63.1997 71.6386 63.7651 71.2565 64.3565 70.9019C67.2777 69.1509 70.0301 67.1695 72.9874 65.4673C75.905 63.7879 78.9543 62.3045 81.7389 60.4305C79.4777 60.148 77.4842 59.013 75.3511 58.3409C74.2565 57.996 73.1723 57.6277 72.1132 57.196C71.7087 57.0312 71.2374 56.8847 70.8766 56.6423C70.5141 56.3987 70.2355 56.0783 69.8554 55.8479C68.9537 55.3009 67.8815 54.9895 66.9118 54.5632C65.8645 54.1027 64.8307 53.5995 63.8576 53.0135C62.949 52.4664 62.0766 51.8411 61.3212 51.1185C60.7194 50.5429 60.1342 49.7927 59.2821 49.5283C59.3715 50.6313 60.8415 51.5446 61.6471 52.2084C62.9543 53.2856 64.3132 54.2009 65.7745 55.0904C64.1356 56.3957 62.1378 57.2457 60.2186 58.1273C58.0606 59.1185 55.9629 60.2173 53.8136 61.2239C51.9929 62.0766 50.0774 62.7337 48.2267 63.526C46.2301 64.3808 44.175 65.0977 42.0918 65.748C40.2065 66.3366 38.4316 66.9641 36.6527 67.7902C34.9233 68.5934 33.073 69.2076 31.223 69.7231C29.1445 70.3021 27.1614 70.853 25.1623 71.647C23.3597 72.3628 21.5496 72.8204 19.6419 73.2096C19.0117 73.3381 18.2026 73.5741 17.7612 73.0069C17.4267 72.5771 17.3764 71.9144 17.2804 71.4089C16.9126 69.4746 16.8834 67.5094 16.5527 65.5721C15.2969 65.9243 14.1075 66.3577 12.7827 66.4136C11.9498 66.4487 11.4437 66.5286 11.2362 67.3738C11.718 67.4243 13.4394 67.4465 13.4859 68.0808C13.528 68.653 12.4864 68.6589 12.1171 68.6746C11.4561 68.7025 10.8571 68.6018 10.5043 69.2032C11.024 69.3816 12.1764 69.0563 12.4065 69.7061C12.7031 70.5442 11.3564 70.5422 10.8718 70.6097C10.0264 70.7275 10.1133 71.3446 10.1712 72.0042C10.2474 72.8722 10.3052 73.7413 10.4312 74.6048C10.7007 76.45 11.1622 78.2673 11.3807 80.1192C11.5696 81.7206 11.6755 83.2586 10.4442 84.5346C9.94912 85.0478 9.26091 85.6384 8.48288 85.6994C7.69323 85.7613 7.70763 85.2473 7.21609 84.8688C6.91488 84.6371 6.51596 84.5897 6.16116 84.4647C5.72956 84.3127 5.31081 84.09 4.92303 83.8592C4.20834 83.434 3.58362 82.9062 3.0783 82.2719C1.10208 79.7897 0.395595 76.0815 0.199848 73.072C0.0753375 71.1583 0.199538 69.242 0.388471 67.3358C0.490217 66.3091 0.592582 65.2819 0.726229 64.2583C0.767578 63.9412 0.836802 63.6236 0.862509 63.3054C0.877221 63.1234 0.782754 62.7553 0.882796 62.5807C0.755034 62.8034 0.528778 62.6387 0.304071 62.4634C-0.159745 62.1012 -0.0169612 61.4059 0.23113 60.9298C0.978656 59.4949 3.21891 59.439 4.67633 59.3275C8.59391 59.0275 12.3157 58.0512 16.0662 57.0082C15.5369 56.2715 16.3695 55.7851 17.0148 55.5319C18.0099 55.1415 19.0376 54.7982 20.042 54.4254C22.3103 53.5834 24.5314 52.7983 26.9067 52.261C29.0582 51.7745 31.14 50.9667 33.2627 50.3745C35.4559 49.7626 37.6095 49.0633 39.7667 48.3507C44.0392 46.9392 48.3156 45.497 52.4619 43.7849C53.5101 43.352 54.5113 42.8503 55.5227 42.3496C56.3444 41.943 57.3087 41.6447 58.0053 41.0573C58.6704 40.4964 59.0687 39.7164 59.7918 39.207C60.4428 38.7482 61.3336 38.7419 61.873 38.172C62.6024 37.4016 63.4734 37.0631 64.4636 36.6113C64.7816 36.4662 66.8759 35.7329 66.8333 35.3168C65.3367 35.3168 63.8004 35.7306 62.3204 35.9234C60.755 36.1272 59.1909 36.3539 57.6141 36.4666C55.059 36.6491 52.5052 36.5998 49.9609 36.3424C49.5807 36.304 48.0555 36.0129 47.7925 36.3919C47.5921 36.6808 48.0903 37.0247 48.0953 37.335C48.1027 37.7904 47.7078 38.0347 47.2605 37.8765C46.3899 37.5688 46.5175 36.2647 46.5988 35.6028C46.7544 34.3369 47.1007 33.0826 47.4033 31.8422C45.6071 32.692 43.9014 33.7831 42.3546 34.9823C41.1564 35.911 40.0746 37.1703 38.6686 37.8325C37.3186 38.4684 36.516 37.9259 36.5712 36.5259C36.5966 35.8845 36.7365 35.2758 36.9754 34.6784C37.0883 34.3962 37.5522 33.5973 37.3349 33.2966C36.1011 34.2111 34.8755 35.128 33.5804 35.9674C32.6648 36.5609 31.3375 37.4864 30.1421 37.2509C29.0864 37.0429 29.1897 35.9631 29.5243 35.2356C29.8146 34.6046 30.3361 34.0439 30.8531 33.562C31.2805 33.1637 31.8882 32.8068 32.1022 32.2546C30.6843 32.8469 29.2244 33.2952 27.7389 33.7114C26.6826 34.0074 25.9442 35.2366 24.7158 35.055C23.4862 34.8732 23.9759 33.4607 24.4666 32.8465C24.8101 32.4168 25.2853 32.0384 25.7461 31.7209C26.1955 31.4111 26.8793 31.1412 27.1004 30.6258C25.6639 30.8764 24.2196 31.3121 22.7415 31.2318C21.8637 31.184 20.3984 30.8277 20.5717 29.7309C20.7471 28.6202 22.3382 28.5352 23.2329 28.328C24.4527 28.0455 25.6201 27.515 26.7972 27.1106C29.1717 26.2944 31.5925 25.6398 34.0221 24.9892L34.7895 24.7838C37.5319 24.0491 40.2897 23.4234 43.0661 22.8131C44.4383 22.5114 45.8058 22.1823 47.1888 21.9249C48.5269 21.6759 49.8864 21.5317 51.2142 21.234C50.0952 19.6639 51.4502 18.3736 52.9135 17.6264C51.9854 17.452 51.0417 17.347 50.1216 17.1356C49.3359 16.9551 48.5786 16.6777 47.7871 16.5179C46.4268 16.2434 45.0681 16.0991 43.907 15.316C41.7124 13.8363 41.5258 11.4816 43.3749 9.69973C45.241 7.90133 47.9799 7.05928 50.6158 6.97565C53.5661 6.88209 56.9229 7.41366 59.6837 8.38469C61.0398 8.86171 62.4519 9.46813 63.6144 10.2805C64.4052 10.8331 65.6557 11.892 66.7171 11.892C65.4459 10.4629 63.8858 8.98507 63.6563 7.04963C63.4388 5.21726 64.333 3.26959 65.8335 2.08438C68.8315 -0.283163 73.7789 -0.0688349 77.4544 0.0871973ZM60.3623 78.6232C59.5797 79.7544 58.4975 80.673 57.4757 81.6119C57.1233 81.9357 56.4158 82.3477 56.3818 82.8549C56.3542 83.2691 56.9008 83.7349 57.1395 84.0604C58.4017 85.7816 59.4412 87.6826 60.9831 89.2112C62.7259 90.9388 64.7149 91.2746 67.1828 91.2795C69.9229 91.2851 72.6996 91.6037 75.4349 91.4694C77.7521 91.3557 80.0361 90.3966 81.1883 88.447C80.4376 88.0873 79.3695 88.2588 78.556 88.2669C77.4467 88.2777 76.3639 88.2591 75.268 88.0798C74.2748 87.9173 73.2931 87.6735 72.3589 87.3174C71.8755 87.1332 71.3974 86.9225 70.9523 86.6665C70.6263 86.4791 70.3813 86.1923 70.0611 86.0084C68.8802 85.3306 67.5165 87.4857 66.2543 87.4443C65.4812 87.419 65.761 86.7122 66.0828 86.3168C66.6635 85.6027 67.6764 85.162 68.4413 84.6415C67.7292 84.0322 66.9247 84.6712 66.2467 84.9896C65.3991 85.3876 64.5184 85.8762 63.5713 86.0257C63.6423 84.8912 65.3025 84.283 66.2185 83.8215C66.6261 83.6162 67.1369 83.4257 67.2373 82.974C67.3128 82.6343 67.1836 82.1513 67.1453 81.8083C67.0968 81.3722 67.0609 81.2329 66.5614 81.1099C65.9556 80.9607 65.3455 81.0039 64.7386 80.8177C63.0777 80.3079 61.7858 79.5511 60.3623 78.6232ZM6.38467 60.7441C5.97909 60.8486 5.56932 60.9391 5.15738 61.0199C4.34202 61.1798 3.52558 61.3459 2.70743 61.491C2.29704 61.5637 1.84137 61.5176 1.72044 61.8816C1.65827 62.0683 1.8147 62.4038 1.84153 62.5976C1.88974 62.9471 1.89284 63.3016 1.89734 63.6537C1.94013 66.8977 1.21051 70.1229 1.53176 73.3666C1.80308 76.108 2.43812 79.5745 4.6045 81.6162C5.53955 82.4974 6.68995 83.4544 7.86733 84.0566C8.79028 84.5286 10.0796 83.344 10.2681 82.524C10.4032 81.9363 10.1779 81.3161 10.0312 80.7496C9.84316 80.0237 9.65261 79.2981 9.46641 78.5719C9.06873 77.0216 8.70718 75.4569 8.59291 73.8632C8.55539 73.3397 8.56346 72.8353 8.59524 72.314C8.61245 72.0309 8.75586 71.3488 8.54284 71.1063C8.26733 70.7927 7.63787 70.9976 7.26515 71.0244C6.85646 71.0538 6.45754 71.0311 6.05831 70.9342C5.10792 70.7033 4.9414 70.0011 5.97909 69.6759C6.70359 69.4488 8.02795 69.7778 8.63664 69.3408C9.35184 68.8274 7.9064 68.7569 7.56887 68.7435C7.11941 68.7258 5.6287 68.8351 5.70482 68.0563C5.7611 67.4792 7.04437 67.4408 7.49337 67.4162C8.4526 67.3638 9.66626 67.6977 10.0808 66.6227C10.247 66.1921 9.24656 65.9734 8.99555 65.7598C8.38547 65.2408 8.18547 64.3508 8.13306 63.6217C8.08144 62.9047 8.84067 60.4193 7.68391 60.3536C7.32871 60.3334 6.73832 60.6529 6.38467 60.7441ZM63.2778 75.0879C62.597 75.8414 62.0085 76.6667 61.3745 77.4543C62.8616 78.2171 64.3827 78.8306 65.9205 79.4865C66.6198 79.7848 67.11 80.0213 67.7868 79.569C68.2723 79.2446 68.6363 78.7835 69.1101 78.446C69.7911 77.9615 70.5027 77.5171 71.2008 77.0552C69.141 76.3565 67.0497 75.7435 64.9904 75.0434C64.2203 74.7816 63.8338 74.4722 63.2778 75.0879ZM46.3169 72.6945C46.7574 73.1096 45.9094 74.2599 45.7424 74.6536C47.1082 74.5528 48.4626 74.3527 49.8038 74.095C50.2606 74.0074 50.0922 74.5243 49.9213 74.6947C49.71 74.9057 49.2873 74.9695 49.0047 75.0448C47.9652 75.3217 46.8988 75.4551 45.832 75.6029C46.3202 76.1612 47.4949 77.0347 47.1167 77.8744C46.4344 77.328 45.9438 76.6007 45.1892 76.1281C44.9712 76.4306 44.5188 77.4972 44.0231 77.4319C43.2448 77.3293 44.0332 76.0828 44.196 75.7827C43.6719 75.7827 41.7026 76.2102 41.4278 75.6106C41.1467 74.9971 43.0471 75.0169 43.3984 74.872L43.3329 74.7977L43.2672 74.724C43.0044 74.4297 42.7522 74.1395 42.7166 73.7353C43.3043 73.9235 43.6966 74.7793 44.3424 74.7917C44.9549 74.8035 45.2282 73.9483 45.4464 73.5432C45.5704 73.3129 45.9918 72.3878 46.3169 72.6945ZM112.584 64.627C113.901 65.6594 113.006 67.7416 112.01 68.6777C110.894 69.7264 108.408 70.6897 106.993 69.6207C106.219 69.0357 106.498 68.143 106.689 67.3648C106.901 66.4999 107.033 65.7708 107.804 65.1773C109.002 64.2539 111.248 63.5798 112.584 64.627ZM109.911 65.227C108.626 65.4809 107.325 66.6739 107.019 67.9035C106.619 69.5158 108.42 69.6337 109.606 69.3913C111.098 69.0865 112.684 68.0694 112.76 66.4739C112.825 65.097 110.909 65.0297 109.911 65.227ZM16.431 58.256C14.5073 58.9215 12.699 59.8321 10.6807 60.2271C10.0647 60.3475 9.81175 60.4794 9.65947 61.0127C9.44612 61.7592 9.24396 62.5158 9.39624 63.2956C9.71246 64.915 12.1368 64.7166 13.4831 64.6531C14.1743 64.6204 15.5036 64.7378 16.1032 64.337C16.5413 64.0443 16.3575 63.4952 16.2892 63.0679C16.0339 61.4701 16.3124 59.8528 16.431 58.256ZM121.315 42.8249C120.606 42.949 119.382 43.4856 120.397 44.1583C121.075 44.6069 122.083 44.6614 122.879 44.7722C124.434 44.9887 126.093 45.1757 127.442 45.9909C129.942 47.5013 129.636 50.3517 128.888 52.6844C129.427 52.9792 131.009 51.0517 131.307 50.7383C132.515 49.4667 133.729 48.199 134.948 46.9356C135.469 46.3952 131.194 44.5287 130.809 44.3606C128.778 43.4725 126.882 42.8876 124.604 42.7352C123.524 42.6629 122.384 42.6376 121.315 42.8249ZM112.496 38.097C112.302 38.5518 112.642 38.758 112.954 39.0722C114.701 40.8284 115.931 43.3142 116.903 45.4944C117.388 46.5816 117.728 47.6778 118.028 48.8169C118.323 49.9345 119.259 50.2332 120.38 50.5504C122.963 51.2813 125.682 51.5259 128.273 52.2477C128.968 52.4411 129.104 51.022 129.148 50.662C129.272 49.6381 129.156 48.5694 128.577 47.6668C127.483 45.9605 125.289 45.5978 123.332 45.3071C122.213 45.141 120.739 44.9694 119.853 44.2582C119.409 43.9013 119.346 43.4918 119.693 43.0483C120.325 42.2395 121.438 42.1356 122.432 42.0696C122.916 42.0374 125.915 42.3192 126.013 41.9894C124.52 41.5372 122.987 41.2389 121.516 40.7217C120.368 40.3182 119.212 39.9371 118.054 39.5594L116.895 39.1821C115.717 38.7982 114.639 38.3312 113.509 37.8689C113.085 37.6955 112.695 37.631 112.496 38.097ZM137.823 45.4968C137.45 45.9643 137.079 46.3567 136.798 46.8819C136.471 47.4946 135.929 47.8854 135.475 48.4115C137.831 48.7979 140.078 49.2886 142.348 49.9964C143.513 50.3599 144.717 50.5394 145.909 50.7998C146.909 51.018 147.974 51.3567 149.01 51.1564C147.831 49.6458 144.685 50.0635 143.857 48.2339C143.294 46.9894 144.678 45.9967 145.811 45.7806C147.789 45.4034 149.897 45.3743 151.906 45.2399C151.927 44.5255 144.635 44.1556 143.914 44.0978C142.634 43.9948 141.298 43.7717 140.02 43.7305C138.834 43.6922 138.446 44.7187 137.823 45.4968ZM109.997 40.2717C109.295 40.9028 108.607 41.5477 107.906 42.1796C107.444 42.5951 106.819 43.0376 106.456 43.5326C105.992 44.1645 106.805 44.4683 107.347 44.7674C108.714 45.5225 110.128 46.2274 111.52 46.9456C112.77 47.5909 114.071 48.4123 115.451 48.7898C116.189 48.9916 116.882 49.3051 117.594 49.57C117.251 46.7048 115.481 44.1024 113.849 41.7137C113.474 41.1652 113.087 40.6243 112.712 40.0759C112.523 39.7999 112.173 39.1484 111.777 39.0921C111.192 39.0088 110.352 39.9529 109.997 40.2717ZM145.785 47.5642C146.64 48.0198 147.498 48.2514 148.463 47.9071C148.7 47.8171 148.935 47.7219 149.167 47.6216C148.524 46.8065 146.623 47.3033 145.785 47.5642ZM74.9229 37.5929C73.4062 38.2284 71.784 38.8616 70.4651 39.8205C69.9782 40.1745 68.8901 40.9181 69.1448 41.5926C69.3626 42.1701 70.567 42.6619 71.1389 42.8379C74.1474 43.7636 77.5716 43.0901 80.3417 44.789C81.0915 45.2487 81.3359 45.8496 81.8928 46.4541C82.3965 47.0008 83.0338 46.9329 83.7107 46.7061C84.5995 46.4082 85.4185 45.9519 86.3108 45.6595C86.767 45.5099 87.5423 45.4108 87.5897 44.8385C87.8129 42.1409 87.1938 38.7041 84.6356 37.0535C81.7639 35.2007 77.8023 36.3863 74.9229 37.5929ZM73.2964 43.8792C73.223 44.2213 76.0695 44.8405 76.3787 44.9197C78.0975 45.3598 79.7032 46.4061 81.4836 46.5749C81.7932 45.9331 79.3271 44.9113 78.937 44.7796C77.1572 44.1787 75.1656 44.0697 73.2964 43.8792ZM129.192 42.6812C131.35 43.5032 133.442 44.5098 135.251 45.9093C135.875 46.392 137.391 44.1014 137.73 43.7502C134.856 43.6392 132.023 43.1294 129.192 42.6812ZM88.859 26.5682C86.8584 27.7967 85.1161 29.4031 82.9197 30.3449C83.607 30.4454 84.3573 30.0318 85.0136 29.8867C85.6528 29.7455 86.2992 29.6523 86.9215 29.4523C87.3037 29.3295 88.8822 28.5364 89.1784 29.0739C89.6413 29.9136 86.3814 30.4945 85.9179 30.6378C84.3525 31.1213 82.7976 31.6278 81.2483 32.154C79.7477 32.6637 78.2482 33.2122 76.6975 33.5782C75.1226 33.95 73.4527 34.0458 71.9387 34.6232C70.5998 35.1337 69.449 35.9787 68.1576 36.575C66.8624 37.1731 65.3904 37.543 64.2741 38.4329C65.488 39.6372 66.9236 40.6456 68.4942 41.4133C68.7458 39.5768 71.0614 38.5312 72.6456 37.8252C76.0993 36.2863 81.2863 33.9657 84.8065 36.5736C87.3792 38.4796 87.7278 42.0962 87.7278 44.9275C88.4247 44.7212 89.061 44.3931 89.7083 44.0834C90.1567 43.8688 90.1618 43.2712 90.2181 42.8721C90.3105 42.2185 90.5006 41.5855 90.719 40.9585C91.202 39.5715 91.8066 38.2183 92.3829 36.8633C93.3154 34.6715 94.4648 32.5097 95.038 30.2038C95.4121 28.6989 95.857 26.1122 93.9051 25.3652C92.2164 24.7191 90.2302 25.7262 88.859 26.5682ZM80.1224 20.4428C79.7962 20.646 79.9179 21.2556 79.9401 21.5615C80.0211 22.6738 79.9704 23.7906 80.0104 24.9049C80.0591 26.2625 80.0698 28.7522 81.5759 29.5135C82.6061 30.0341 83.8872 29.2539 84.7092 28.7227C86.1002 27.8241 87.3762 26.7806 88.7864 25.9034C90.4582 24.8634 93.6259 23.4248 95.2257 25.3812C96.0914 26.44 95.9699 28.0177 95.754 29.2496C95.4689 30.875 94.8029 32.4166 94.1412 33.9355C92.7746 37.0721 91.3482 40.2597 90.5883 43.5797C92.321 42.6224 93.6686 41.2427 95.1808 40.0307C96.3017 39.1323 97.9665 38.1005 98.2252 36.6365C98.2837 36.3058 98.6281 36.0702 98.865 35.849C99.1732 35.5611 99.3904 35.2694 99.5857 34.9022C100.017 34.0909 100.297 33.2147 100.473 32.327C100.844 30.4646 100.667 28.6108 100.326 26.7593C100.171 25.9219 100.398 25.0236 100.188 24.2074C100.042 23.6407 99.612 23.6743 99.0396 23.5454C96.9785 23.0812 94.9134 22.6311 92.8511 22.1713C92.0134 21.9843 91.1025 21.6338 90.2328 21.6455C89.5189 21.6551 88.9192 22.0507 88.303 22.3373C87.2915 22.8078 85.6835 23.631 84.522 23.1631C83.1684 22.6179 84.7458 21.3868 84.067 20.8044C83.6016 20.405 82.2106 20.6445 81.5798 20.5453C81.2338 20.491 80.4396 20.2452 80.1224 20.4428ZM101.422 36.5265C100.437 36.6707 99.8675 37.0676 99.3254 37.8464C98.7745 38.6379 98.7088 39.0299 99.4944 39.6493C100.342 40.3173 101.228 40.977 102.128 41.5786C103.268 42.3411 104.532 42.9183 105.659 43.6994C106.152 44.0415 108.392 41.3596 108.781 40.9918C109.317 40.4845 109.867 39.9757 110.442 39.5087C110.652 39.3381 111.311 38.9424 111.312 38.6521C111.312 37.9185 109.562 37.2621 108.999 37.0602C107.738 36.6078 106.415 36.4252 105.07 36.4063C103.879 36.3896 102.602 36.3534 101.422 36.5265ZM105.808 33.2993C104.884 33.7554 103.919 34.1398 102.989 34.5865C102.659 34.7449 100.579 35.5572 100.684 36.0428C103.025 35.9049 105.356 35.5366 107.689 35.9579C108.737 36.1472 109.736 36.4644 110.612 37.0497C111.275 37.4928 111.781 38.3442 112.439 37.5864C111.095 36.8781 109.884 35.9393 108.692 35.0278C108.17 34.6287 107.633 34.2535 107.103 33.8653C106.788 33.6345 106.268 33.0724 105.808 33.2993ZM50.4333 22.6944C49.7009 22.79 48.9871 22.9703 48.2679 23.1252C45.3541 23.7525 42.4293 24.3158 39.5233 24.9797C33.7269 26.3038 27.7571 27.5805 22.2301 29.7019C22.6948 30.1794 23.9262 29.8335 24.503 29.7399C25.6319 29.5565 26.7275 29.2361 27.8429 28.9942C28.9338 28.7578 30.0287 28.4758 31.1286 28.2787C31.6353 28.188 32.5289 28.0684 32.5493 28.7745C32.5782 29.7754 30.4863 30.5239 29.7185 30.8897C28.8974 31.281 28.1025 31.7134 27.3209 32.1682C26.7031 32.5279 25.5635 33.0073 25.3632 33.7221C27.3683 32.9325 29.3746 32.146 31.3674 31.3297C32.118 31.0222 32.8786 30.7325 33.5932 30.3573C34.0696 30.1071 34.6829 29.6682 35.2471 29.6287C36.011 29.5753 36.1376 30.2201 35.8157 30.7404C35.4129 31.3917 34.5817 31.7591 33.9703 32.2148C33.1909 32.796 32.501 33.4816 31.7993 34.1395C31.2167 34.6855 30.4665 35.2231 30.1624 35.9614C31.2097 36.287 32.3997 35.2433 33.1692 34.7275C34.3785 33.9168 35.5048 33.035 36.6586 32.1589C37.2488 31.7108 37.9524 30.9849 38.7292 30.8512C39.7136 30.6814 39.6321 31.7277 39.3933 32.3044C38.8598 33.5935 37.6106 34.6683 37.5213 36.1216C37.4663 37.0163 38.2815 36.6756 38.8254 36.3168C39.7413 35.7124 40.3612 34.7915 41.1925 34.0983C43.1942 32.4289 45.4856 31.0047 47.9618 30.0158C48.4049 29.8388 48.5643 29.2034 48.6991 28.8215C48.9001 28.2515 49.1315 27.6988 49.3732 27.1417C49.9027 25.9214 50.3369 24.6025 51.0789 23.4753C51.2858 23.1609 51.8196 22.8405 51.378 22.6555C51.138 22.5552 50.6812 22.662 50.4333 22.6944ZM71.5713 20.6301C70.8212 20.7115 70.0621 20.7041 69.3106 20.7777C68.0842 20.8979 68.6191 22.2848 68.4216 23.1204C67.8398 25.5804 65.0349 26.045 62.9093 24.8844C61.7135 24.2313 60.9955 23.2954 60.3526 22.2005C59.986 21.5763 59.7128 21.4759 58.9544 21.6321C58.434 21.7394 57.9604 21.7167 57.4309 21.7523C56.7646 21.7972 56.7065 21.9285 56.6928 22.518C56.6809 23.0415 56.5999 23.4041 56.2249 23.8282C55.5104 24.6359 54.3122 25.1677 53.2915 25.5736C52.2689 25.9803 51.1106 26.2826 50.549 27.2438C50.2659 27.7286 49.9626 28.3071 49.8806 28.858C49.7911 29.4599 50.0108 29.8333 49.6332 30.3886C48.8483 31.5428 48.4885 32.8042 48.0917 34.116C47.9624 34.5433 47.9112 34.7191 48.4131 34.8366C49.133 35.0053 50.1556 34.7493 50.8945 34.7224C51.4216 34.7033 51.7295 33.8393 51.9008 33.4892C52.2339 32.8085 52.6423 32.164 53.0514 31.5198C53.9784 30.0604 54.9695 28.6107 56.1803 27.3355C57.0943 26.3732 58.4434 25.1751 59.6137 26.5275C60.7542 27.8454 61.5761 29.3891 62.9477 30.5379C64.1541 31.5484 65.3971 31.5646 66.6482 30.6069C67.8799 29.6641 68.8161 28.3778 69.5816 27.0943C70.4096 25.7065 71.034 24.2247 71.8409 22.8286C72.0937 22.3909 73.2618 21.2071 72.9059 20.7C72.6656 20.3576 71.9086 20.5936 71.5713 20.6301ZM77.8528 20.3274C77.1925 20.3564 76.5282 20.2874 75.868 20.2752C74.673 20.2532 73.6737 20.292 73.0736 21.3565C72.5439 22.2959 72.0927 23.2952 71.6093 24.2571C70.5592 26.3468 69.5289 28.4849 67.9167 30.263C66.4883 31.8384 64.643 32.632 62.7848 31.1271C61.961 30.4598 61.3351 29.599 60.7439 28.7528C60.2699 28.0744 59.729 26.8806 58.9349 26.4851C58.0496 26.0442 57.036 27.0556 56.4948 27.6044C55.5849 28.527 54.8244 29.6121 54.0939 30.6598C53.5642 31.4197 53.057 32.1956 52.5421 32.9644C52.3335 33.2762 51.4833 34.2959 51.7663 34.6843C52.05 35.0737 53.4349 34.8075 53.8356 34.7719C54.7923 34.687 55.7478 34.6565 56.705 34.5798C59.6824 34.3418 62.6157 33.7337 65.6007 33.5714C67.5669 33.4643 69.5044 33.111 71.4399 32.79C73.3219 32.4779 75.216 32.265 77.0779 31.8525C78.1727 31.61 79.2694 31.3672 80.362 31.1156C80.7401 31.0286 82.527 30.7912 82.6381 30.3345C81.4076 30.1348 80.7616 29.6912 80.3253 28.5752C79.7789 27.1776 79.7153 25.62 79.6687 24.1474C79.6508 23.581 79.6479 23.0142 79.6475 22.4475L79.6475 21.7675C79.6474 21.3611 79.8362 20.6236 79.4421 20.3417C79.0774 20.0808 78.2754 20.3086 77.8528 20.3274ZM102.279 29.3527C102.331 31.1942 101.977 33.0503 101.163 34.7328C102.014 34.8596 103.027 33.8668 103.741 33.5343C104.016 33.4061 105.837 32.7909 105.227 32.3206C104.105 31.4555 103.37 30.247 102.279 29.3527ZM126.689 30.8502C126.939 31.3082 126.631 31.8894 126.464 32.3238C127.763 32.6139 129.056 32.8989 130.365 33.1452C131.351 33.3308 131.007 33.8807 130.151 33.8428C128.96 33.7901 127.853 33.3212 126.668 33.2603C125.539 33.2023 125.406 34.1183 124.444 34.2947C124.477 33.7907 124.915 33.4407 125.23 33.0627C124.711 32.8149 124.181 32.5847 123.677 32.3118C123.416 32.1705 122.695 31.5777 122.973 31.2628C123.253 30.9449 123.987 31.5407 124.249 31.6718C124.62 31.8584 125.362 32.2695 125.799 32.1516C126.398 31.99 126.274 31.1908 126.689 30.8502ZM107.974 18.8512C107.447 18.8852 106.874 18.7204 106.375 18.9359C105.877 19.1509 105.283 19.6216 104.867 19.948C104.464 20.264 104.264 20.6477 103.763 20.8342C103.262 21.0207 102.75 21.0042 102.557 21.573C103.011 21.6887 103.902 21.5352 104.257 21.8454C104.775 22.2968 103.872 22.7935 103.498 22.9356C102.961 23.1393 102.522 23.0732 101.973 23.035C101.734 23.0185 101.736 22.9502 101.541 23.0602C100.815 23.4679 101.317 24.9184 101.552 25.4475C102.704 28.0373 106.639 27.1652 108.908 26.9C108.186 26.2237 107.004 25.4777 106.944 24.4156C106.926 24.0993 107.01 23.534 107.447 23.5077C107.797 23.4867 108.216 23.9772 108.433 24.1705C109.078 24.7434 109.912 25.6936 110.845 25.7758C112.091 25.8857 113.05 24.009 113.567 23.1905C112.932 23.0796 112.236 23.0861 111.866 22.5066C111.427 21.8179 111.42 20.7627 111.427 19.9874C111.434 19.3272 111.66 18.6049 110.711 18.5725C109.836 18.5427 108.857 18.7943 107.974 18.8512ZM24.2772 20.5445C24.0955 20.9127 23.3064 21.0571 22.9599 21.1556C21.6421 21.5298 20.3552 22.0051 19.0704 22.4712C16.4765 23.4125 13.911 24.4521 11.5425 25.8353C11.0998 26.094 11.3167 25.5951 11.4317 25.4152C11.6894 25.0119 12.231 24.7265 12.6355 24.4795C13.73 23.8107 14.8894 23.341 16.0996 22.8936C18.5214 21.9987 20.9801 21.0497 23.4638 20.3247C23.752 20.2407 24.5212 20.0497 24.2772 20.5445ZM54.3602 22.3681C53.8787 22.4144 53.3147 22.3126 52.8516 22.4587C52.2482 22.649 52.3477 23.0341 52.1691 23.5077C51.8662 24.3115 51.542 25.1086 51.2259 25.9082C52.396 25.8575 53.5165 24.9965 54.5081 24.5009C55.0694 24.2203 57.0209 23.2892 56.4325 22.4367C56.0599 21.8972 54.8948 22.3165 54.3602 22.3681ZM67.6759 20.9667C66.9514 20.9546 66.1548 21.1584 65.4215 21.1923C64.4384 21.2377 63.4702 21.4116 62.4883 21.4536C61.8423 21.4813 61.2081 21.6047 60.569 21.6856C61.2048 23.055 62.4459 24.2528 64.0053 24.7488C65.2356 25.1401 66.9573 25.2065 67.7979 24.1238C68.2815 23.5009 69.0715 20.9901 67.6759 20.9667ZM105.401 15.3103C104.611 15.7981 103.978 16.4972 103.318 17.121C101.665 18.6831 99.9546 20.3556 99.239 22.4969C99.1408 22.7903 99.886 23.0495 100.088 23.0609C100.514 23.0848 100.601 22.8849 100.768 22.5501C101.182 21.7211 101.341 20.7949 102.004 20.088C102.811 19.2261 103.783 18.3858 104.721 17.6454C105.357 17.1423 106.918 16.4338 107.101 15.602C107.318 14.6187 105.88 15.0149 105.401 15.3103ZM85.0229 21.0005C84.5762 21.1213 84.5406 21.5056 84.4385 21.9196C84.0279 23.5832 88.1811 21.7682 88.7594 21.4962C88.5671 20.9621 86.6742 21.0595 86.2359 21.0386C85.8945 21.0224 85.3529 20.9113 85.0229 21.0005ZM109.556 21.8646C108.941 21.8867 109.224 19.5497 109.924 19.7847C110.524 19.9865 109.951 21.8503 109.556 21.8646ZM23.0356 19.1776C22.0932 19.9338 20.6137 20.0352 19.442 20.2779C17.7154 20.6356 16.004 21.0914 14.2914 21.5027C13.21 21.7625 13.8188 21.1431 14.3603 20.9104C15.2912 20.5102 16.3453 20.2969 17.3403 20.0767C18.4176 19.8384 19.5184 19.6792 20.5895 19.4192C21.3312 19.239 22.2877 18.7782 23.0356 19.1776ZM52.3534 2.92546C53.4006 3.10424 54.4461 3.41561 55.3642 3.92565C56.1242 4.34787 56.0941 5.0048 55.1305 4.62363C50.6361 2.84522 45.0592 3.9225 40.6704 5.49724C40.1862 5.67088 40.2222 5.292 40.3686 4.99993C40.57 4.5976 41.0007 4.36403 41.4141 4.17723C42.6562 3.61571 44.0881 3.29819 45.4388 3.06491C47.6897 2.67616 50.0919 2.53957 52.3534 2.92546ZM53.0102 0.371064C53.5812 0.515067 54.2373 0.872239 54.5866 1.32532C54.9954 1.85555 54.6703 2.12655 54.1031 1.81472C53.47 1.4667 52.8911 1.1197 52.1646 0.935884C51.781 0.838962 51.7965 0.615331 52.072 0.419017C52.3299 0.2352 52.7302 0.300444 53.0102 0.371064Z" fill="#183E46"/>
</svg>
