<svg width="102" height="96" viewBox="0 0 102 96" fill="none" xmlns="http://www.w3.org/2000/svg">
<path fill-rule="evenodd" clip-rule="evenodd" d="M53.0833 6C52.6307 7.17925 52.1785 8.35864 51.726 9.53789C51.4359 10.2936 51.1461 11.0491 50.8562 11.8048C50.7532 12.0728 50.6961 12.3476 50.4972 12.5336C50.0285 12.9715 49.1872 13.2503 48.6238 13.5584C48.2464 13.7648 47.8689 13.9713 47.4916 14.1777C47.2969 14.2843 46.8655 14.418 46.7291 14.5948C46.579 14.7896 46.65 15.1474 46.65 15.4167V17.7424V22.1245C48.5994 21.8845 50.549 21.6447 52.4984 21.4047C49.9011 24.3556 47.304 27.3064 44.7067 30.2573C44.0665 30.9845 43.2894 31.6845 42.8125 32.5306C41.7975 34.3316 40.8053 36.1456 39.802 37.953C38.868 39.6353 37.934 41.3177 37 43L45.4026 42.6479C47.5781 42.5567 49.8129 42.6938 51.909 42.0867C53.637 41.5862 55.3647 41.0859 57.0927 40.5855C57.3225 40.5188 58.0384 40.4435 58.2013 40.2614C58.3538 40.0908 58.3505 39.4463 58.3937 39.228C59.2092 35.1004 60.2475 30.5519 62.6278 26.9989C64.3344 24.4519 66.6372 22.222 68.7462 20.001C69.5693 19.1341 70.4068 18.2777 71.2008 17.3845C71.4041 17.1557 71.6979 16.8961 71.8324 16.6183C71.9192 16.4388 72.0406 16.0967 71.9867 15.9373C71.9633 15.8682 71.4207 15.6203 71.3429 15.5711C70.793 15.2231 70.2479 14.8678 69.7017 14.5142C68.1667 13.5205 66.6333 12.5244 65.0896 11.544C63.8861 10.7795 62.686 9.96893 61.4166 9.312C60.1008 8.63103 58.6517 8.15176 57.2722 7.61375C55.8782 7.06998 54.4816 6.5324 53.0833 6Z" fill="#42D58E"/>
<path fill-rule="evenodd" clip-rule="evenodd" d="M99.8832 69.5485C99.2201 70.1758 98.0126 71.0176 97.0582 70.6348C96.5788 70.4426 96.1694 70.0205 95.7327 69.7483C95.2197 69.4284 94.7374 69.1084 94.3025 68.6821C93.4348 67.8313 92.7779 66.5883 91.753 65.9222C91.4086 65.6983 90.7363 65.6504 90.4973 65.2928C90.3903 65.1325 90.3803 64.8892 90.4 64.7038C90.4429 64.3046 90.6577 64.3281 90.2988 64.035H90.8562C90.867 63.8188 90.652 63.8009 90.4918 63.8288C90.5663 63.4862 90.6422 62.1452 90.02 62.7529C89.4806 63.2797 89.7505 64.1537 89.3685 64.7242C89.0761 65.1611 88.3001 64.8074 88.1954 64.3267C88.1483 64.1108 88.3853 63.7736 88.4135 63.5619C88.4755 63.0924 88.2666 62.6865 87.9634 62.331C87.298 62.776 87.6752 63.6971 87.296 64.2819C86.9529 64.811 86.1888 64.5641 85.6663 64.4711C85.0401 64.3594 84.332 64.4724 83.7328 64.3239C82.8281 64.0997 83.166 63.0334 83.0765 62.3451C82.9804 61.6078 82.2382 60.5845 82.4612 59.8407C82.7008 59.042 84.1012 58.8694 84.7706 58.6756C86.3004 58.2326 88.4826 58.1474 89.6199 56.9072C90.5246 57.92 91.2522 59.0797 92.201 60.0547C93.2258 61.1078 94.3205 62.08 95.3043 63.1756C96.3283 64.3158 97.3852 65.434 98.372 66.6072C98.8026 67.119 99.1806 67.6705 99.6259 68.17C100.022 68.6141 100.439 69.0226 99.8832 69.5485ZM54.4114 49.8514C54.8815 49.6005 54.9413 49.7578 54.9412 50.2747C54.8059 50.0265 54.6717 49.9601 54.4114 49.8514ZM50.4257 59.8991V58.9881C50.8788 58.9761 50.6002 59.7555 50.4257 59.8991ZM50.3149 61.2559C50.3149 60.8525 50.304 60.4683 50.4199 60.0759C50.4807 60.5035 50.5968 60.8737 50.3149 61.2559ZM52.2634 88.9714C52.6797 89.0105 53.3211 88.7226 53.6712 89.0505C54.0308 89.3874 54.002 90.3679 54.0871 90.823C54.2279 91.5752 54.3526 92.3297 54.4712 93.0855C54.549 93.581 54.6452 94.0842 54.0871 94.2738C53.2625 94.5539 52.0841 94.1542 51.2245 94.1178C49.5265 94.0461 47.8293 93.9464 46.1298 93.9118C44.4826 93.8783 42.8317 93.9048 41.1921 94.0768C40.4514 94.1545 39.7271 94.2917 38.994 94.4159C38.6075 94.4814 37.5721 94.7555 37.2231 94.4285C36.5664 93.8129 37.6582 92.3757 38.1277 91.9697C38.9992 91.2165 40.2385 90.6733 41.3312 90.3461C41.9152 90.1712 42.8888 89.6802 43.3487 90.2294C43.7017 90.6506 43.6877 91.2128 44.1934 91.532C45.3652 92.2714 44.6796 90.1503 43.9473 89.8891C44.439 88.7338 45.3762 90.365 45.765 90.7569C45.9033 90.8963 46.3531 91.356 46.5485 91.1249C46.6948 90.9518 46.4027 90.3319 46.3485 90.1632C46.2662 89.907 46.0581 89.5174 46.1179 89.2395C46.2263 88.7367 46.9287 88.5998 47.3494 88.5579C48.0019 88.4931 48.6419 88.7007 49.287 88.77C50.2762 88.8765 51.2731 88.8781 52.2634 88.9714ZM45.7124 41.6147C44.4244 41.7176 43.1283 41.5199 41.8434 41.6817C40.6276 41.8349 39.482 42.2831 38.336 42.6947C40.0398 38.6831 42.2441 35.0312 44.9309 31.6102C46.2688 29.9063 47.7079 28.2142 49.1536 26.6016C49.8263 25.8514 50.5221 25.126 51.2167 24.3969C51.8363 23.7464 52.2802 22.6416 53.0238 22.1559C53.6584 21.7412 54.7676 22.0369 55.4709 22.0627C56.2658 22.0918 57.2333 22.1643 58.0086 21.8987C58.5704 21.7062 58.7249 21.1925 58.0216 21.1755C57.1922 21.1553 56.3763 21.2421 55.536 21.164C53.3588 20.962 51.26 20.6301 49.0651 20.8184C48.5622 20.8614 47.9004 21.0765 47.4069 21.0119C47.0521 20.9652 47.2854 21.1444 47.0388 20.8585C46.9443 20.7492 46.8305 20.4921 46.8025 20.3469C46.6454 19.5311 47.0916 18.3653 47.1984 17.544C47.2971 16.7838 47.2097 15.9484 47.3945 15.2082C47.5628 14.5346 48.0758 14.4447 48.7075 14.3727C50.4358 14.1757 52.1995 14.0709 53.9356 13.9225C57.8977 13.5837 61.9855 13.0726 65.9206 13.9098C67.3415 14.2121 69.0742 14.6795 70.3435 15.428C70.7404 15.662 71.1409 15.9375 70.9965 16.4222C70.8467 16.9254 70.1125 17.457 69.7488 17.7885C67.0609 20.2381 64.4647 22.7367 62.5766 25.8799C60.1686 29.888 58.7868 34.2168 57.976 38.8097C57.8016 39.7978 57.6397 40.315 56.627 40.5994C55.5399 40.9049 54.4906 41.1033 53.3634 41.1962C50.8152 41.4063 48.2593 41.4107 45.7124 41.6147ZM46.5754 15.0714C46.3802 16.5304 46.1159 17.9862 46.0898 19.4568C46.08 20.0122 46.0276 20.2905 45.4392 20.4143C44.7456 20.5603 44.0405 20.6691 43.3437 20.8206C39.9808 21.5522 36.6816 22.4507 33.3916 23.4621C30.1941 24.4453 27.0493 25.5513 23.78 26.2796C22.3737 26.5929 20.7281 26.804 19.4472 27.4977C18.0693 28.2442 18.2506 29.4679 18.1269 30.8121C17.9617 32.608 17.4311 34.347 17.2446 36.1422C17.1554 37 17.0741 37.8629 17.0876 38.7261C17.099 39.462 17.2041 40.2756 16.7113 40.8948C15.7229 39.5682 15.2543 37.8997 15.0595 36.2737C14.9648 35.4834 15.0023 34.6866 14.9752 33.8926C14.9534 33.2533 14.9676 32.2364 14.5528 31.7025C13.651 30.5423 12.4783 35.192 12.3668 35.6885C12.1793 36.5243 12.0246 37.367 11.8378 38.2028C11.7549 38.5733 11.6486 39.9201 11.1542 40.0543C10.1295 40.3326 10.3544 37.442 10.3382 37.0019C10.3057 36.1135 10.2837 35.2241 10.3044 34.335C10.3195 33.6933 10.4432 32.9968 10.3697 32.3548C10.1894 30.7782 9.30639 32.4392 9.05815 33.026C8.43088 34.5075 8.14716 36.0932 7.58463 37.5983C7.49107 37.8487 7.27122 38.6915 6.9229 38.7072C6.53533 38.7245 6.53837 37.854 6.51621 37.5997C6.3876 36.1256 5.95325 34.6617 6.08432 33.1723C6.2167 31.6683 6.74186 30.1222 7.48499 28.8141C9.05612 26.0484 11.8934 24.4604 14.611 23.0139C17.7211 21.3587 21.0046 20.051 24.3581 18.9857C28.3914 17.7045 32.5327 16.6678 36.699 15.9301C38.8186 15.5548 40.9709 15.2864 43.1122 15.0712C43.8648 14.9956 44.6176 14.9514 45.3605 14.8076C45.6408 14.7532 46.6525 14.4949 46.5754 15.0714ZM48.742 10.3497C47.6794 10.3581 46.5938 9.84093 45.5586 9.6272C44.3261 9.37246 43.1224 9.00389 41.892 8.73796C39.4828 8.2173 37.0722 7.70958 34.6651 7.17744C33.6201 6.9464 32.5701 6.74532 31.5292 6.49713C30.4156 6.23164 29.2125 5.93562 28.0726 6.22161C26.3449 6.65518 25.6151 8.55273 24.9808 10.0336C24.5327 11.0795 24.1816 12.2455 23.4828 13.1556C23.234 13.4802 22.8803 13.8672 22.4291 13.7621C21.591 13.567 21.7241 12.4535 21.8308 11.8381C21.9855 10.9449 22.2047 10.0622 22.38 9.17313C22.4507 8.81429 22.9985 6.46573 22.0206 6.82936C21.2951 7.09907 20.9113 8.87551 20.6367 9.51001C20.4326 9.98152 20.2164 10.45 19.9874 10.9099C19.6818 11.5233 18.8099 13.5729 17.8446 13.3086C16.4632 12.9303 17.7883 9.2845 18.0237 8.51609C18.1528 8.0943 19.557 4.89546 18.3718 5.15688C17.8671 5.2684 17.3754 6.20954 17.118 6.59964C16.6617 7.29157 16.2067 7.98845 15.7772 8.6974C15.3353 9.42655 15.1096 10.2565 14.6714 10.975C14.4408 11.3532 13.9703 11.8571 13.5108 11.507C12.7947 10.9616 13.2192 9.06452 13.3446 8.34714C13.5779 7.01343 14.1575 5.64614 14.9528 4.55582C16.1478 2.91751 18.4027 2.38813 20.2988 2.06986C22.7463 1.65897 25.2279 1.77136 27.6857 2.01446C30.4498 2.28795 33.1717 2.58078 35.8963 3.13996C38.6422 3.70352 41.3895 4.26256 44.093 5.00785C45.3667 5.35898 46.6586 5.67027 47.9141 6.08247C49.2489 6.52054 50.5515 7.06577 51.9235 7.38143C51.4409 8.59039 50.9582 9.79934 50.4756 11.0084C50.0137 10.5497 49.3833 10.3444 48.742 10.3497ZM72.3963 13.6811C72.8195 13.4488 73.287 13.3391 73.4414 12.8256C73.578 12.3718 73.3447 11.8577 73.2331 11.4221C72.9212 10.2025 72.8391 8.93919 73.1151 7.70522C73.379 8.10956 74.3667 9.66485 74.9675 8.72328C75.3299 8.15536 74.3589 7.33839 74.0755 6.93914C74.6974 6.55384 75.5856 5.51979 76.3023 6.14339C76.7654 6.54657 76.9615 6.93477 77.5856 7.13077C78.3432 7.36878 79.0565 7.31425 79.8302 7.24854C80.3719 7.20259 80.5024 7.13004 80.714 7.54878C80.8801 7.87795 80.966 8.28535 81.063 8.6388C81.2542 9.33568 81.697 10.7088 81.1727 11.3616C80.7134 11.9335 78.9311 11.4432 78.6836 12.1814C78.5486 12.5839 79.1928 12.5983 79.439 12.7975C79.7439 13.0441 79.996 13.4365 80.1617 13.7871C80.2844 14.0463 80.4709 14.4747 80.2621 14.7397C79.9736 15.1064 79.4389 14.8283 79.2063 14.5618C78.8975 14.2077 78.7973 13.7237 78.5396 13.3381C78.0667 12.6306 78.0385 13.1934 77.9097 13.7015C77.7761 14.2292 77.4598 14.1929 76.9753 14.2606C76.1253 14.3797 75.2663 14.5477 74.4389 14.7764C74.0148 14.8935 73.6038 15.0429 73.1998 15.2173C72.9396 15.3296 72.4884 15.6697 72.206 15.6729C71.6827 15.6788 71.3199 14.8002 71.0498 14.4337C71.4983 14.1823 71.9456 13.9286 72.3963 13.6811ZM100.498 67.4806C99.1909 65.9057 98.059 64.1947 96.7696 62.6059C95.4978 61.039 94.0265 59.6689 92.5991 58.2497C91.9255 57.5799 91.2802 56.8451 90.5366 56.2516C89.9819 55.8087 89.5551 55.8019 88.8878 55.998C86.992 56.5555 85.0615 57.2265 83.2673 58.0583C81.5967 58.8329 80.075 59.8276 78.2631 60.2595C76.4138 60.7005 74.4909 60.8421 72.5954 60.7328C70.6512 60.6207 68.8175 60.2146 66.9686 59.6178C65.2176 59.0525 63.3918 58.5589 61.8943 57.4384C60.3243 56.2639 59.1113 54.5746 57.9874 52.9857C57.4184 52.1814 56.8536 51.3367 56.4702 50.425C56.1375 49.6339 55.9201 48.7002 55.3231 48.0554C55.1767 48.2637 54.9945 48.4424 54.9201 48.6871C54.8862 48.7983 55.0858 48.7949 55.0653 48.8833C55.0267 49.0497 54.8059 49.2196 54.6776 49.3101C54.2166 49.6358 54.2139 49.3766 54.3348 49.9856C54.4052 50.3407 54.2719 51.1417 53.6952 50.88C53.9075 51.1351 53.5702 51.4572 53.46 51.6674C53.3843 51.58 53.29 51.5497 53.1773 51.576C53.3882 51.9976 53.2636 52.0088 53.0593 52.3437C53.0219 52.4049 52.8897 52.7252 52.9086 52.6981C52.6998 52.9968 52.4585 53.0719 52.3367 53.4439C52.2366 53.7493 52.2623 54.0852 52.1507 54.3902C52.0159 54.2031 51.8811 54.016 51.7462 53.829C51.7737 53.9762 51.8288 54.194 51.8928 54.3274C51.9331 54.4109 52.1057 54.6057 52.1034 54.6512C52.094 54.8213 51.8825 54.7805 51.8223 54.9272C51.7092 55.2024 51.8727 55.243 51.811 55.5115C51.7403 55.8198 51.5506 55.6965 51.4603 55.9592C51.4432 56.0091 51.5765 56.2053 51.5553 56.3129C51.5256 56.465 51.3883 56.5501 51.3398 56.6853C51.2164 57.0293 51.2613 57.2811 51.09 57.611C51.0237 57.739 50.9271 57.8242 50.8803 57.9696C50.8393 58.0975 50.9275 58.3698 50.8484 58.4844C50.4663 59.0368 50.5201 58.0853 50.549 57.8493C50.7922 55.868 51.5724 53.8232 52.2864 51.9713C52.6413 51.0512 52.9867 50.1024 53.4315 49.2212C53.6105 48.8662 53.8172 48.5 54.1131 48.2285C54.4873 47.8851 55.0183 47.7477 55.3572 47.3642C55.3037 47.4247 55.7246 47.0248 55.6573 47.1563C55.7175 47.0388 55.6124 46.8797 55.6497 46.766C55.6962 46.6248 55.7841 46.5952 55.882 46.4716C56.058 46.2497 56.267 46.1392 55.9907 45.8566C56.4008 45.7656 56.5969 45.6319 56.6789 45.191C56.7387 44.8683 56.6179 44.8894 56.8288 44.6744C57.0404 44.4583 57.1476 44.627 57.281 44.2529C57.4404 43.8052 57.5463 43.1964 57.6419 42.728C57.7253 42.319 57.5228 41.7175 57.8662 41.4287C58.3012 41.063 58.6903 41.2179 58.6124 40.4825C58.5364 39.7655 58.7582 39.3312 58.9813 38.6528C59.4264 37.2985 59.5984 35.8685 59.9886 34.498C60.8215 31.5733 62.2929 28.9362 63.875 26.3617C65.3369 23.9828 67.3808 21.956 69.3544 20.004C69.8948 19.4694 70.4292 18.9271 70.9144 18.341C71.3324 17.8363 71.5233 17.1492 71.925 16.6701C72.1691 16.3792 72.6234 16.2547 72.9642 16.1005C73.5325 15.8431 74.2097 15.5074 74.8512 15.5595C74.5963 16.4221 74.5132 17.4301 75.2654 18.077C76.178 18.8617 77.0051 18.0464 77.8417 17.5991C79.3665 16.7835 81.5472 17.5322 82.8767 16.3098C83.1935 16.0188 83.2818 15.5536 83.6109 15.2818C83.8525 15.0824 84.1962 15.0318 84.4681 14.8832C85.2944 14.4318 85.6954 13.6053 85.3738 12.6924C85.0798 11.8578 84.6228 11.5684 85.6398 11.1454C86.4654 10.8023 86.7792 10.2853 86.4056 9.36476C86.0493 8.48716 85.3967 8.38611 84.7791 7.8118C84.181 7.25551 84.868 6.60807 85.3161 6.1905C85.894 5.65181 86.0045 5.16633 85.3345 4.60613C84.633 4.0196 83.6315 4.0401 82.8136 4.33017C81.8887 4.65803 81.2794 5.20312 80.8881 6.08639C80.4895 6.98566 79.5016 6.73471 78.7015 6.48405C77.9364 6.24444 77.7373 5.72741 77.2348 5.1707C76.6761 4.55146 75.5373 5.08099 74.8783 5.36393C73.255 6.06037 71.6419 7.15955 71.5774 9.10654C71.539 10.2675 72.0281 11.2543 72.2825 12.344C72.5151 13.3406 70.9203 13.2621 70.6441 14.226C67.6981 12.6604 64.4172 12.1814 61.1241 12.0748C57.6239 11.9614 54.0734 11.8705 50.6031 12.4247C51.4086 11.0159 51.834 9.4709 52.5348 8.02349C52.7366 7.60679 52.8235 7.64241 53.2687 7.76832C54.1239 8.01011 54.9728 8.28069 55.8263 8.52976C58.9442 9.43964 62.0009 10.5359 65.0157 11.7366C65.3087 11.8533 65.9629 12.1774 66.2197 11.825C66.516 11.4186 65.8305 10.9176 65.553 10.7132C64.339 9.81912 62.8347 9.2765 61.4751 8.64927C58.5028 7.27834 55.2113 6.62755 52.1099 5.60935C45.4145 3.41084 38.4878 1.74112 31.5298 0.638298C29.8318 0.369172 28.1157 0.32977 26.4103 0.129998C24.8997 -0.0469481 23.3863 -0.0428771 21.8759 0.139884C19.0861 0.477637 15.8519 1.20636 14.2763 3.76996C12.8539 6.08465 11.9044 8.68707 12.2673 11.4327C12.3764 12.2574 12.7243 13.234 13.7379 13.0214C14.4411 12.874 14.8145 12.2743 15.1409 11.6889C15.6342 10.8046 16.1214 9.92031 16.656 9.05972C16.8543 10.3501 16.1337 11.619 16.247 12.9335C16.3241 13.8255 16.815 15.2348 17.9686 14.9822C19.5497 14.6362 20.2005 12.1565 20.9607 10.9669C20.9992 11.8831 20.6793 12.7862 20.7772 13.7045C20.8738 14.6116 21.5798 15.468 22.5715 15.3437C23.5068 15.2265 24.1147 14.2205 24.512 13.4632C25.0648 12.4092 25.4619 11.2792 26.0018 10.2182C26.5079 9.22373 27.1073 8.03978 28.3155 7.85294C29.3938 7.68603 30.6295 8.07234 31.6946 8.2317C34.649 8.6737 37.5439 9.42626 40.466 10.0343C43.5992 10.6861 46.8063 11.082 49.8428 12.1338C48.7752 13.5927 45.9811 13.2775 44.3905 13.4341C41.9869 13.6708 39.5524 13.8489 37.1624 14.1981C34.8019 14.543 32.4909 15.1553 30.1488 15.5997C27.819 16.0419 25.4933 16.4848 23.239 17.2388C19.0536 18.6388 14.7983 20.4106 11.1106 22.8533C9.39474 23.99 7.87053 25.2891 6.81065 27.0833C5.74397 28.8887 5.23141 30.9302 5.03589 33.0069C4.91423 34.3 5.1209 35.4191 5.37045 36.6776C5.5512 37.5888 5.60971 39.1145 6.33749 39.7817C7.72657 41.0552 8.87986 35.8896 9.13636 35.2657C9.32102 36.2881 9.01904 42.0481 11.2479 41.5796C12.2426 41.3707 12.4682 40.0001 12.6332 39.1745C12.9341 37.6695 13.2037 36.1343 13.7184 34.6849C14.0488 36.6378 14.1865 38.6725 14.8982 40.5377C15.3709 41.7765 16.7197 43.9746 17.6601 41.8538C18.3655 40.2634 18.1234 38.4379 18.208 36.7493C18.3017 34.8781 18.8369 33.0732 19.0263 31.2202C19.0998 30.5024 19.0333 29.6934 19.7518 29.3018C20.3686 28.9656 21.2706 28.8561 21.9441 28.6684C23.9389 28.1124 25.9467 27.6014 27.932 27.0115C29.9182 26.4212 31.8769 25.7316 33.8366 25.0585C35.7109 24.4149 37.6246 24.0489 39.5216 23.4977C40.6001 23.1843 41.6657 22.8564 42.7593 22.5947C43.2682 22.473 43.7834 22.3782 44.2912 22.2521C44.6676 22.1588 45.1635 21.8065 45.5505 21.8127C45.9488 21.8193 46.0985 22.1578 46.5552 22.1844C47.0469 22.2129 47.5468 22.104 48.0358 22.0663C49.227 21.9746 50.4933 21.8263 51.6818 21.992C50.9675 22.8426 50.0027 23.4306 49.1572 24.1351C48.1821 24.9478 47.2383 25.8252 46.4054 26.7848C44.7294 28.7157 43.1454 30.7566 41.6738 32.8484C40.2221 34.912 39.0533 37.1701 38.0372 39.4772C37.5309 40.6269 37.0393 41.8017 36.6895 43.01C36.5459 43.5064 36.4286 44.0047 36.1692 44.4561C35.9312 44.8702 35.5959 45.2272 35.8772 45.7272C36.0708 45.6055 36.2448 45.4543 36.4199 45.3081C36.2175 46.739 35.7809 48.1231 35.5564 49.5496C35.3351 50.955 35.3441 52.4004 35.3584 53.8197C35.3885 56.7922 35.6087 59.6973 36.2093 62.6129C36.8167 65.5611 37.5971 68.4869 38.581 71.3309C39.5282 74.0693 40.4788 76.941 41.8009 79.5219C43.213 82.2786 44.8929 85.1769 46.9369 87.5103C45.6017 88.0594 43.9026 87.9567 42.4887 88.1778C41.0109 88.409 39.7324 88.8454 38.473 89.6663C37.1988 90.497 36.5071 91.5666 36.3309 93.0813C36.2058 94.1594 35.834 95.652 37.2429 95.9352C38.2563 96.1389 39.3892 95.8044 40.4046 95.7217C42.1808 95.5771 43.9596 95.4869 45.7398 95.4089C47.5153 95.3311 49.2912 95.2627 51.0673 95.2074C51.9026 95.1814 52.7385 95.1683 53.5736 95.1382C53.9478 95.1248 54.1748 95.119 54.5103 95.2276C54.7757 95.3135 54.7563 95.4919 55.0517 95.2714C55.5282 94.9156 55.4302 93.7939 55.4168 93.3007C55.3966 92.5396 55.3247 91.7697 55.1768 91.0229C55.0891 90.5792 54.0237 87.7188 54.8521 87.5984C53.8897 86.5368 53.5053 85.0207 53.073 83.6901C52.5314 82.023 52.0559 80.3605 51.6826 78.6459C50.8853 74.9833 50.533 71.2806 50.533 67.5331C54.2288 69.82 58.1391 71.0588 62.4921 71.1969C66.82 71.3343 71.5747 70.9775 75.6843 69.5321C77.5874 68.8627 79.292 67.9837 80.9237 66.7994C81.5085 66.375 82.1351 65.4137 82.9027 65.4301C83.8187 65.4499 84.8446 65.7979 85.7543 65.9468C87.494 66.2315 89.7646 66.3922 91.2376 67.4724C92.0376 68.0593 92.611 68.8806 93.325 69.5567C93.8682 70.0711 94.5864 70.3504 95.1254 70.8648C95.7071 71.4198 95.4761 72.1448 96.4405 72.1898C97.2649 72.228 98.1688 71.8951 98.8797 71.5042C100.298 70.7245 101.809 69.0602 100.498 67.4806Z" fill="#183E46"/>
<path fill-rule="evenodd" clip-rule="evenodd" d="M86.6572 30.6335C88.7577 32.0717 91.1669 33.0542 93.3618 34.3494C93.9112 34.6736 95.6229 35.3467 95.6063 35.9481C95.5966 36.2997 95.0823 36.7405 94.857 36.9842C94.4712 37.4016 94.1082 37.8235 93.7521 38.265C92.1222 40.2872 90.5873 42.3285 88.8208 44.2491C88.5549 44.5379 87.7537 45.9174 87.495 45.2322C87.3778 44.9216 87.4744 44.5726 87.1688 44.283C87.0116 44.1338 86.4039 44.0516 86.5809 43.7316C86.6989 43.7828 86.817 43.834 86.9351 43.885C86.8434 43.6293 86.8501 43.3492 86.7126 43.1075C86.6272 42.9574 86.4603 42.8863 86.4024 42.7172C86.3224 42.4836 86.4581 42.2121 86.4354 41.9712C86.413 41.7311 86.2839 41.504 86.2068 41.2775C85.7497 39.9343 85.5857 38.5803 85.3517 37.1946C85.1201 35.8233 84.7595 34.495 84.6179 33.1085C84.4683 31.6441 84.285 30.1826 84.0404 28.7298C84.477 28.7889 84.8125 29.2461 85.1213 29.5047C85.6067 29.9109 86.1336 30.275 86.6572 30.6335ZM85.0107 44.8116C84.9104 44.7357 84.832 44.6425 84.7755 44.532C85.8049 44.0404 85.1837 44.8791 85.0107 44.8116ZM84.3846 43.7631C83.9359 43.8823 83.6135 43.9065 83.2675 43.7285C83.2347 43.7117 83.2725 43.5816 83.2133 43.5549C83.1616 43.5317 83.0826 43.5604 83.0383 43.5387C82.8877 43.4648 82.6239 43.6267 82.5982 43.3439C83.1709 43.1749 83.7341 42.8631 84.3388 42.8106C85.179 42.7377 85.1402 43.5622 84.3846 43.7631ZM82.4186 42.1329C81.8063 42.271 81.3019 42.5933 80.6514 42.5091C80.0408 42.4303 79.5101 42.125 79.0284 41.7733C80.2335 41.4444 81.4971 41.3851 82.7011 41.067C83.0931 40.9634 83.6082 40.6904 84.0307 40.8004C84.5001 40.9228 84.5297 41.3465 84.6704 41.7322C83.9192 41.8624 83.1623 41.9654 82.4186 42.1329ZM78.5892 40.4966C78.001 40.632 77.3997 40.9283 76.9079 40.417C76.8285 40.3345 76.759 40.4169 76.7684 40.1628C76.7782 39.8948 77.0306 39.7222 77.2476 39.6278C77.7579 39.406 78.4732 39.5494 79.0151 39.5168C79.8796 39.4649 80.7594 39.2917 81.6145 39.1584C82.2065 39.0661 82.8181 38.8613 83.4232 38.9017C83.8903 38.9329 84.4539 39.3167 83.7731 39.5967C83.1531 39.8518 82.2234 39.8127 81.5516 39.9232C80.5586 40.0865 79.5692 40.2708 78.5892 40.4966ZM78.0146 37.829C78.0527 37.8664 78.0908 37.9038 78.1289 37.9413C78.1226 37.9399 78.3545 37.7589 78.4159 37.7537C78.7141 37.7287 79.0141 37.7484 79.3127 37.7322C80.0009 37.6948 80.6945 37.5792 81.3704 37.4519C81.9209 37.3482 82.4817 37.1696 83.0484 37.2143C83.5391 37.253 83.5907 37.3499 83.6227 37.8064C82.3704 37.8064 81.0803 37.7809 79.8495 38.0365C79.0482 38.2027 78.1651 38.698 77.7637 37.8052C77.8474 37.8131 77.931 37.8211 78.0146 37.829ZM78.7976 35.8966C79.1081 36.1246 79.9547 35.7455 80.327 35.7076C80.7311 35.6664 81.1114 35.6236 81.5031 35.5265C81.8504 35.4404 82.9995 35.0101 83.2659 35.4216C83.6743 36.052 82.0206 36.1677 81.7584 36.1989C80.6589 36.3299 79.518 36.446 78.4481 36.724C78.5646 36.4483 78.6811 36.1725 78.7976 35.8966ZM80.3059 33.7552C80.3862 34.0467 82.8727 32.9728 82.918 33.7533C82.9529 34.3521 80.4578 34.6504 80.0092 34.5979C80.1143 34.3221 80.3938 34.0752 80.3059 33.7552ZM81.1407 31.9235C81.1936 31.3357 81.2754 31.3391 81.7644 31.2837C82.1374 31.2415 82.65 31.0307 82.553 31.6715C82.4699 32.2201 81.0875 32.5166 81.1407 31.9235ZM82.0295 29.901C82.1472 29.5855 82.412 30.0102 82.4176 30.1707C82.4324 30.5977 82.0965 30.5054 81.7732 30.5054C81.8632 30.3059 81.9488 30.1042 82.0295 29.901ZM86.1221 27.5322C86.0561 27.4556 85.6859 27.4264 85.5806 27.3892C85.3215 27.2977 85.3583 27.1026 85.0268 27.295C85.0102 27.2789 85.0417 27.1343 85.0237 27.1276C85.0146 27.1242 84.7824 27.0398 84.7069 26.9931C84.5247 26.8807 84.3606 26.7707 84.1932 26.6295C84.0153 26.4797 83.8371 26.2621 83.6339 26.1427C83.5482 26.0925 83.4781 26.0211 83.3748 26.0057C83.1068 25.9659 83.1836 26.1459 82.9492 26.1816C82.8049 26.2036 82.6998 26.0412 82.5111 26.1112C82.348 26.1717 82.2533 26.3922 82.1806 26.5234C81.9164 27.0011 81.7125 27.5151 81.4539 27.9978C80.1312 30.4661 78.6278 32.8407 77.3465 35.332C76.7294 36.5322 76.0855 37.7407 75.6512 39.0161C75.338 39.936 74.6308 41.2799 75.2392 42.1991C75.6816 42.8674 76.5675 43.156 77.2743 43.4789C78.3378 43.9648 79.3181 44.6 80.3933 45.0711C81.6755 45.6329 82.9205 46.2205 84.1702 46.8479C84.7032 47.1154 85.1842 47.5008 85.7154 47.7542C86.0403 47.9092 86.5421 47.6447 86.6479 48C87.0551 47.5245 87.7143 47.8415 88.1854 47.5067C88.4625 47.3098 88.6651 46.9219 88.8962 46.6793C89.2429 46.3157 89.6192 45.9784 89.973 45.6211C91.377 44.2022 92.6735 42.7243 93.9509 41.2002C95.1711 39.7448 96.5965 38.3697 97.6272 36.7766C98.0364 36.1441 98.1106 35.4809 97.8405 34.7822C97.6433 34.2725 97.1682 33.5029 96.4895 33.8404C96.7469 33.4285 95.7542 32.9886 95.453 32.9081C95.4485 32.907 95.3891 33.2234 95.3051 33.2155C95.335 33.2183 95.0528 32.5144 94.9288 32.4241C94.5607 32.1556 94.1129 31.8423 93.7112 31.6212C93.3428 31.4185 92.954 31.318 92.5971 31.0912C92.1645 30.8163 91.7674 30.4902 91.3332 30.2172C90.9139 29.9536 90.4466 29.642 89.9832 29.4607C89.5814 29.3035 89.2206 29.2727 88.8591 29.015C88.4118 28.6962 88.0217 28.4799 87.5059 28.2603C87.0597 28.0703 86.4412 27.9043 86.1221 27.5322Z" fill="#183E46"/>
<path fill-rule="evenodd" clip-rule="evenodd" d="M25.8851 66.7179C25.9661 66.5299 26.0469 66.342 26.1279 66.1542C26.228 66.4818 26.2561 66.6447 25.8851 66.7179ZM25.9929 67.5861C25.8174 67.6171 25.8866 67.0732 25.8866 66.9785C26.1897 67.148 25.9387 67.3512 25.9929 67.5861ZM25.7193 66.0171C25.8689 65.9298 26.0185 65.8426 26.1681 65.7552C25.9598 66.1366 26.0415 65.8983 26.1275 66.153C25.9703 66.1976 25.8175 66.1456 25.7193 66.0171ZM24.8327 68.9976C24.2719 71.0076 22.4906 72.5929 20.6093 73.4141C19.5282 73.8858 18.4653 74.0038 17.2978 73.9512C16.8475 73.9309 16.3177 73.7864 15.8844 73.8133C15.5507 73.834 15.5658 73.8483 15.2894 74.1273C15.1671 73.9049 15.2557 73.7488 15.0104 73.6193C14.7044 73.4578 14.5774 73.6459 14.4256 73.8696C14.227 73.6662 14.1457 73.56 13.8883 73.4392C13.8964 73.4431 13.6419 73.4335 13.6523 73.4367C13.6063 73.4227 13.3295 73.2468 13.2428 73.2148C12.8872 73.083 12.476 73.0289 12.1478 72.8398C11.8608 72.6747 11.6243 72.2111 11.2959 72.5673C11.2956 71.9722 10.4841 71.7253 10.1037 71.4136C9.5093 70.9264 9.03676 70.2052 8.74044 69.5075C8.42444 68.7636 8.31896 68.0503 8.17109 67.2836C8.06779 66.7479 7.39123 65.9735 7.79751 65.4329C7.89431 65.6596 7.84888 65.8917 8.00962 66.0973C8.15431 65.8218 8.23389 65.5137 8.29929 65.2122C8.33141 65.0646 8.51748 64.6312 8.49635 64.5026C8.45338 64.2393 8.12349 64.225 8.30638 63.9022C8.68575 64.31 8.9919 63.5939 8.70528 63.3085C8.56377 63.4662 8.51183 63.6452 8.44658 63.8405C8.07358 63.0967 9.10592 63.3362 8.88006 62.6647C9.25683 62.5931 9.47342 62.4993 9.61666 62.1316C9.77596 61.7224 9.65877 61.6332 10.0205 61.3627C10.1449 61.2698 10.4968 61.1362 10.5612 60.9832C10.6858 60.6878 10.3687 60.6002 10.6464 60.3233C10.7402 60.4858 11.1056 60.8076 11.3057 60.5014C11.3458 60.4404 11.1775 60.3971 11.2999 60.2564C11.4812 60.0483 11.6841 59.8442 11.9907 59.8879C11.7479 59.2883 13.2992 59.2409 13.6965 59.0994C14.0947 58.9577 14.4326 58.8647 14.8548 58.8318C15.2765 58.7989 15.2975 58.6769 15.6546 58.426C15.6848 58.7849 15.7722 58.706 16.0305 58.7693C16.0926 58.6641 16.1562 58.6523 16.2213 58.7339C16.2862 58.7948 16.3654 58.8234 16.4589 58.8199C16.6007 58.8272 16.7616 58.8089 16.9102 58.8119C17.259 58.8187 17.6189 58.7899 17.961 58.7972C18.0493 58.7826 18.1318 58.7523 18.209 58.7062C18.2413 58.7662 18.2737 58.8264 18.3058 58.8865C18.4871 58.909 18.5012 59.1334 18.7241 58.888C18.7901 59.2 18.9796 59.0376 19.1799 59.1222C19.3625 59.1996 19.3916 59.3231 19.5601 59.4093C19.671 59.498 19.7897 59.5097 19.9168 59.4447C20.0376 59.5332 20.1603 59.6191 20.2847 59.7024C20.514 59.8303 20.7843 59.9087 21.0259 60.0097C21.1867 60.0752 21.3464 60.1434 21.5049 60.214C21.5096 60.4029 21.5954 60.4697 21.7621 60.4141C21.9127 60.5386 21.9551 60.5337 22.1013 60.7457C22.4323 61.2261 22.726 61.5993 23.1442 62.0287C24.9616 63.8954 25.5199 66.5345 24.8327 68.9976ZM25.3904 61.0599C24.5699 59.9744 23.4085 58.7315 22.3649 58.046C21.8359 57.6983 21.0934 57.0744 20.4465 56.8906C20.2931 56.847 20.1344 56.8442 19.9836 56.7984C19.8672 56.7631 19.8038 56.6451 19.671 56.6238C19.5781 56.6089 19.5678 56.8143 19.4691 56.7954C19.2628 56.7557 19.132 56.5534 18.9863 56.4269C18.6733 56.9597 18.5035 56.0637 18.044 56.6661C17.497 55.8189 16.2122 56.0041 15.3389 56.0469C15.0799 56.0595 14.9582 56.1505 14.7286 56.218C14.5149 56.2807 14.4938 56.2646 14.2604 56.2629C13.6792 56.2584 13.1632 56.3306 12.626 56.5827C11.7234 57.0063 10.895 57.6662 10.0377 58.1766C9.07958 58.747 8.21595 59.4731 7.48296 60.3075C4.83317 63.3242 4.12463 67.7276 6.2375 71.2249C9.59351 76.7795 18.2503 77.3731 23.1556 73.6042C26.9454 70.6922 28.3876 65.024 25.3904 61.0599Z" fill="#183E46"/>
<path fill-rule="evenodd" clip-rule="evenodd" d="M67.1737 44.4139C67.0861 44.6343 66.2675 44.5601 66.2496 44.3002C66.2229 43.912 67.326 44.0309 67.1737 44.4139ZM68.0432 44.2697C68.5071 44.3094 69.2693 44.6415 69.7164 44.4408C70.3987 44.1346 69.6822 43.6646 69.3162 43.5241C68.9437 43.3812 68.3889 43.4571 68.1974 43.0468C68.0533 42.7381 68.4094 41.8764 67.9677 42.0149C67.5042 42.1603 67.639 43.3946 66.9117 42.9785C66.5648 42.78 66.7063 41.5706 66.1253 42.1885C65.9662 42.3575 65.9524 42.6679 65.7418 42.7939C65.5268 42.9226 65.2572 42.7885 65.0303 42.7997C64.4296 42.8294 64.2383 43.4215 64.8469 43.6564C65.0722 43.7434 65.9214 43.8495 65.407 44.2375C65.0829 44.4819 64.3628 43.969 64.0845 44.3944C63.7019 44.9788 64.7267 44.992 65.0019 45.1668C65.4684 45.4629 65.0831 46.1544 65.1203 46.6468C65.1773 47.3992 65.592 47.242 65.7427 46.6052C65.8705 46.065 65.7121 45.2873 66.4849 45.502C67.7435 45.8517 65.7851 47.5354 66.707 47.9662C67.2948 48.241 67.378 46.7559 67.4237 46.5002C67.5926 45.5564 68.0957 45.7766 68.8579 45.8056C69.7483 45.8393 69.9632 45.1453 69.0203 44.9465C68.7195 44.883 68.3057 44.9632 68.0444 44.7613C67.8898 44.6419 67.6774 44.2385 68.0432 44.2697Z" fill="#183E46"/>
<path fill-rule="evenodd" clip-rule="evenodd" d="M33.0497 76.102C32.2515 75.8153 30.9162 75.8772 30.7188 76.9113C30.6361 77.3441 30.7971 77.802 31.0951 78.1165C31.4407 78.4811 31.9911 78.5149 31.9617 77.8799C31.9413 77.4405 31.5244 77.0588 32.2573 76.9702C32.7135 76.9152 33.3881 77.2574 33.4108 77.7628C33.4621 78.902 31.4962 78.9914 30.7717 78.7943C29.3338 78.4035 29.7245 76.8927 30.7119 76.2032C30.967 76.025 31.6989 75.7506 31.7323 75.3806C31.7767 74.8898 31.1718 74.9901 30.8752 75.0547C28.6956 75.5307 28.2205 79.1935 30.498 79.884C31.5323 80.1975 32.9888 79.8738 33.6122 78.9342C34.1966 78.0532 34.2045 76.5167 33.0497 76.102Z" fill="#183E46"/>
<path fill-rule="evenodd" clip-rule="evenodd" d="M4.69983 51.0045C4.00633 51.3286 3.31283 51.6526 2.61948 51.9767C2.39023 51.5006 2.00295 50.1998 1.42148 50.0337C0.480215 49.7648 1.07959 51.1827 1.24204 51.5069C1.37548 51.7732 1.68504 52.1858 1.60989 52.5032C1.50908 52.9308 0.887542 53.0823 0.562197 53.3029C-0.242892 53.8491 -0.236516 54.996 0.929443 54.51C1.58924 54.2348 2.40617 53.472 2.91188 54.3381C3.14537 54.7378 3.6986 56.9706 4.27641 55.5104C4.63394 54.6063 2.91309 53.6671 3.76145 52.9023C4.03457 52.6562 4.3543 52.6354 4.62711 52.4939C5.286 52.1522 4.9145 51.5207 4.69983 51.0045Z" fill="#183E46"/>
<path fill-rule="evenodd" clip-rule="evenodd" d="M101.688 19.0471C101.269 18.9025 100.751 18.6202 100.285 18.7164C99.7901 18.8186 99.5909 19.2864 99.2311 19.5676C98.2529 20.3322 97.6831 19.1926 97.1456 18.5681C96.6379 17.9784 96.0186 17.8353 95.3023 18.1976C95.017 18.342 93.8147 19.0039 94.0244 19.4279C94.1752 19.733 94.7691 19.4591 94.9717 19.3925C95.4115 19.248 95.82 19.1216 96.2698 19.3322C97.1136 19.7271 97.3325 20.8099 98.3533 20.9787C99.4089 21.1534 99.4436 20.2054 100.197 19.8486C100.702 19.6095 101.054 20.0328 101.541 19.9485C102.005 19.8682 102.22 19.2306 101.688 19.0471Z" fill="#183E46"/>
<path fill-rule="evenodd" clip-rule="evenodd" d="M93.2383 22.876C93.5971 22.9418 93.8313 22.3542 94.0559 22.2051C94.4285 21.9581 95.0744 21.9082 95.4538 22.1569C96.1947 22.6423 95.9393 23.6903 96.9942 23.9634C97.9371 24.2076 98.3812 23.1591 99.1748 22.898C99.6363 22.7462 100.143 22.6468 99.9627 22.1021C99.8384 21.7255 99.472 21.6287 99.0737 21.7734C98.3892 22.0219 98.1568 23.034 97.3452 23.0521C96.5056 23.0708 96.4145 22.0487 96.0541 21.6035C95.5045 20.925 94.3748 20.7611 93.7328 21.4099C93.539 21.6056 92.5549 22.7511 93.2383 22.876Z" fill="#183E46"/>
<path fill-rule="evenodd" clip-rule="evenodd" d="M77.2392 9.75051C77.6536 10.1036 78.4795 10.0913 78.8613 9.65346C79.2499 9.20795 78.7312 9.13948 78.4147 9.15308C78.1713 9.16363 77.7156 9.31387 77.8543 8.79041C77.9775 8.32595 78.6542 8.56238 78.7107 8.05253C78.2014 7.93882 77.6403 7.97978 77.2636 8.47817C76.9912 8.8384 76.8512 9.41993 77.2392 9.75051Z" fill="#183E46"/>
</svg>
