<svg width="107" height="93" viewBox="0 0 107 93" fill="none" xmlns="http://www.w3.org/2000/svg">
<path fill-rule="evenodd" clip-rule="evenodd" d="M27 51.361C27.613 56.5189 28.2258 61.6767 28.8387 66.8345L29.3336 70.9997C29.3961 71.5253 29.3371 72.562 29.5751 73.0325C29.6592 73.1985 29.8802 73.2773 30.0427 73.3751C30.6019 73.7121 31.1612 74.049 31.7205 74.3859C36.4513 77.2358 41.1821 80.0857 45.9126 82.9356C50.4528 85.6706 54.9929 88.4057 59.533 91.1407C60.0028 91.4239 60.7628 92.1624 61.2699 91.9678C61.7521 91.7828 62.2448 91.3267 62.6825 91.039C63.5227 90.4864 64.3629 89.934 65.2031 89.3815C70.2873 86.0383 75.3713 82.6949 80.4554 79.3517C82.5531 77.9724 84.6507 76.5931 86.7483 75.2137C87.3222 74.8363 87.8962 74.4589 88.4702 74.0814C88.7703 73.8841 88.8093 73.891 88.9275 73.556C89.3692 72.3035 89.5738 70.8687 89.8863 69.5691C90.2308 68.1369 90.5752 66.7047 90.9196 65.2725C91.0732 64.6334 91.0011 64.5509 90.7506 63.934C90.2549 62.713 89.7592 61.4921 89.2635 60.2711C88.1633 57.5612 87.0632 54.8513 85.9628 52.1414C85.5179 51.0455 84.4462 50.2745 83.6747 49.4684L71.695 36.9537C71.3907 36.6357 71.0865 36.3179 70.7822 36C70.7321 37.9106 70.3956 39.9644 70.8891 41.8101C71.699 44.839 72.5088 47.8678 73.3186 50.8967C73.71 52.3608 74.1014 53.8247 74.4928 55.2887C74.5655 55.5607 75.0083 56.6393 74.89 56.8785C74.8243 57.0111 74.2651 57.1453 74.144 57.1969C73.6236 57.4191 73.1033 57.6412 72.5828 57.8634C71.133 58.4823 69.6831 59.1012 68.2333 59.72C66.9292 60.2768 65.6252 60.8334 64.3211 61.39C63.8789 61.5789 63.3596 61.9284 62.8926 61.8993C62.4748 61.8732 61.9998 61.6412 61.5955 61.5244C60.8848 61.319 60.174 61.1135 59.4633 60.9081C58.0671 60.5046 56.6709 60.1012 55.2748 59.6976C53.704 59.2436 52.3775 57.9102 51.0342 56.9233C48.7253 55.2269 46.4163 53.5306 44.1075 51.8343C43.5789 51.4459 43.5769 51.2244 43.3663 50.5153C42.8929 48.9218 42.4195 47.3283 41.9461 45.7348C41.6934 44.884 41.3825 44.0296 41.1916 43.1585C40.8768 41.721 40.69 40.2328 40.4406 38.7793C40.3654 38.3408 40.2902 37.9022 40.215 37.4636C39.248 37.9039 38.2811 38.3443 37.314 38.7847C37.1739 38.8485 36.4909 39.0387 36.4302 39.1951C36.3917 39.2939 36.5949 39.7424 36.6239 39.8388C37.4257 42.5034 38.2275 45.1678 39.0294 47.8322C39.2816 48.6704 39.5337 49.5084 39.7859 50.3466C39.1833 49.284 38.5806 48.2211 37.9778 47.1585C37.5044 48.9457 37.0308 50.7331 36.5572 52.5204C35.4379 51.0712 34.3186 49.622 33.1992 48.1729C32.8118 49.622 32.4243 51.0712 32.0369 52.5204C30.8315 50.7331 29.6262 48.9457 28.4207 47.1585C28.2774 48.0912 28.1341 49.0238 27.9907 49.9565C27.9475 50.2381 27.9561 51.0457 27.7891 51.2686C27.6516 51.452 27.2556 51.361 27 51.361Z" fill="#42D58E"/>
<path fill-rule="evenodd" clip-rule="evenodd" d="M102.722 62.5849C102.655 64.989 102.701 68.1099 101.523 70.2238C101.333 70.5649 100.688 71.6276 100.616 70.6927C100.546 69.7749 100.748 68.866 100.548 67.9376C100.44 67.4408 100.08 66.3557 99.4636 66.8044C99.1496 67.0331 99.0668 67.5978 98.9439 67.9542C98.7622 68.4816 98.5586 69.0006 98.3672 69.5239C97.6988 71.3508 97.0063 73.5309 95.5206 74.7399C95.715 73.1646 96.245 71.4825 95.8887 69.8901C95.7674 69.3474 95.3995 68.3564 94.7662 68.6744C94.149 68.9842 93.749 70.3667 93.4577 70.9823C92.5746 72.8487 91.6714 74.68 90.6772 76.4768C90.1771 77.3805 89.637 78.2065 88.9826 78.9795C88.5735 79.4631 88.0633 80.2803 87.4185 80.3523C87.4185 78.9743 87.8247 77.643 88.1955 76.3453C88.5943 74.95 88.9579 73.5427 89.3494 72.1448C89.689 70.9321 89.9678 69.7287 90.1939 68.4852C90.2876 67.9709 90.3616 67.4384 90.7543 67.1062C91.1073 66.8077 91.6648 66.6656 92.0584 66.4462C93.0918 65.8698 94.1546 65.2479 95.1147 64.5314C95.5089 64.2372 95.8482 63.8573 96.2609 63.5934C96.7312 63.2927 97.1703 63.0398 97.6054 62.6734C99.4827 61.0925 101.175 59.1478 102.315 56.833C102.501 57.763 102.746 58.6717 102.773 59.6304C102.801 60.6134 102.75 61.6025 102.722 62.5849ZM87.2712 73.6354C86.9709 73.0693 86.5135 73.3012 86.1104 73.5741C85.485 73.9976 84.8578 74.418 84.2292 74.8362C82.9499 75.6871 81.6943 76.5825 80.4444 77.486C77.9001 79.3246 75.2671 80.8294 72.5847 82.3858C69.9922 83.8898 67.5022 85.6796 65.0731 87.4888C64.4893 87.9236 63.9097 88.3686 63.3491 88.8401C62.8516 89.2587 62.4536 89.8465 61.9299 90.2191C61.3844 90.6072 61.0094 90.2923 60.4877 90.0062C59.8353 89.6483 59.1553 89.3484 58.4884 89.0257C55.797 87.723 53.098 86.3709 50.4799 84.8923C47.8776 83.4229 45.4119 81.7296 42.9185 80.048C41.731 79.2471 40.5638 78.3955 39.3925 77.5652C38.146 76.6817 36.8554 76.0199 35.5478 75.2687C34.9693 74.9362 34.4568 74.4849 33.8626 74.1827C33.2379 73.8651 32.578 73.6373 32.0187 73.1791C31.7679 72.9736 31.5563 72.7281 31.2697 72.5827C31.0344 72.4635 30.7673 72.4434 30.5349 72.3167C30.0621 72.0589 29.9268 71.5359 29.8353 70.9919C29.2465 67.4996 28.9335 63.9106 28.5922 60.3795C28.4005 58.3938 28.1865 56.4158 27.9214 54.4406C27.8019 53.5501 28.0422 52.8601 28.1685 51.9938C28.3158 50.982 28.374 49.949 28.4727 48.9303C28.9385 49.8938 29.3413 50.9048 29.934 51.784C30.3709 52.4319 31.1171 53.3507 31.9216 53.3291C33.172 53.2953 33.1148 50.9011 33.1652 49.9507C33.7347 50.5183 33.9075 51.4428 34.3802 52.102C34.8118 52.7039 35.3992 53.4506 36.0621 53.7201C37.4577 54.2876 37.3234 51.3955 37.2466 50.5752C37.2081 50.1638 37 49.5129 37.4937 49.7005C37.9483 49.8732 38.3907 50.5894 38.7728 50.9179C39.4334 51.4859 40.1579 51.9578 40.8355 52.4999C41.6763 53.1727 42.5834 53.6588 43.4406 54.2853C43.9767 54.6772 44.5616 54.7652 45.146 55.0533C46.0023 55.4756 46.7587 56.105 47.5737 56.6113C49.1877 57.6133 50.9782 58.5119 52.7436 59.116C53.3148 59.3114 54.076 59.8625 54.5093 59.2962C54.7761 58.9478 54.9514 58.4156 55.1779 58.025C55.4644 57.5305 55.7686 57.0491 56.0846 56.5774C57.2077 54.9012 58.4541 53.3185 59.8382 51.9047C61.4486 50.2601 63.2095 48.7801 65.0931 47.5475C65.9023 47.0178 69.2814 44.6439 70.0242 46.3147C69.4138 46.2722 68.8848 46.5215 68.3628 46.8336C68.2354 46.9098 67.5785 47.4335 67.7322 46.9719C67.5414 47.0118 67.374 47.2896 67.2295 47.4131C66.9798 47.6267 66.601 47.8732 66.3118 48.05C66.026 48.2246 65.6727 48.2674 65.4122 48.4792C65.3171 48.5565 65.2594 48.6819 65.1686 48.7656L64.9085 48.7679C64.8695 48.9287 64.8306 49.0895 64.7917 49.2503C64.6446 48.7241 64.4348 49.4085 64.1892 49.6307C64.0415 49.7643 63.8077 49.9019 63.6338 49.9882C63.5039 50.0526 63.4838 49.9028 63.3576 50.0167C63.2455 50.1179 63.1741 50.3408 63.0535 50.4676C62.9056 50.6229 62.7162 50.7436 62.5513 50.8761C62.2354 51.1301 61.9012 51.3296 61.5812 51.5704C61.1506 51.8944 60.9247 52.4516 60.5067 52.7904C60.3087 52.9508 60.0011 52.9696 59.8939 53.0724C59.6251 53.3304 59.7137 53.7212 59.2124 53.7385C59.258 53.82 59.2854 53.9084 59.2948 54.0038C59.1754 53.9808 59.0692 53.9256 58.9763 53.8379C58.9971 54.3961 58.5055 54.5954 58.2108 54.9391C58.0408 55.1371 57.8291 55.4157 57.7094 55.654C57.6894 55.6939 57.6514 56.012 57.6432 56.0163C57.5977 56.0407 57.3207 55.7691 57.3469 55.7918C57.2696 56.3075 56.8226 56.7951 56.6268 57.2725C56.5238 57.524 56.419 57.9284 56.2158 58.1053C56.1605 58.1534 55.9905 58.1032 55.85 58.2704C55.7469 58.3929 55.628 58.6195 55.5861 58.7821C55.5582 58.8907 55.5918 59.1717 55.5517 59.2368C55.4781 59.3559 55.3637 59.2362 55.2486 59.3244C55.0357 59.4871 55.0303 59.7414 54.7189 59.7748C54.9335 60.3571 56.2297 60.5366 56.7008 60.7022C58.033 61.1703 59.4307 61.6378 60.676 62.3547C60.9981 62.5401 61.3029 62.6929 61.3599 63.1201C61.4395 63.7145 61.1682 64.5049 61.1164 65.1053C60.9761 66.7266 60.9475 68.3958 60.9768 70.024C61.0046 71.5663 61.0493 73.1231 61.1137 74.6636C61.1733 76.0918 61.4313 77.4917 61.5705 78.9099C61.6087 79.2992 61.5832 81.0545 62.1827 80.9661C62.6832 80.8923 62.3671 79.6934 62.3578 79.3497C62.3368 78.589 62.4802 77.8124 62.4742 77.045C62.4714 76.6761 62.6158 76.3582 62.6297 76.0052C62.6435 75.6564 62.4882 75.3807 62.5347 75.0191C62.5795 74.6722 63.4982 72.6764 62.6158 72.9102C62.6675 72.6249 62.7128 72.3372 62.781 72.0561C62.8754 72.1508 62.9514 72.2614 63.0088 72.3877C63.0873 71.7747 63.0611 71.1628 63.1098 70.5495C63.1316 70.2716 63.2325 69.9672 63.1981 69.6871C63.2047 69.571 63.1914 69.4571 63.1585 69.3454C63.1043 69.2813 63.037 69.2476 62.9572 69.2443C62.9152 69.0909 62.9044 69.0487 62.9789 68.8981C63.011 68.7961 63.0744 68.7324 63.1694 68.7072C63.3504 68.6832 63.3711 68.5671 63.2314 68.3589C63.3043 67.9479 63.3137 67.6885 63.2611 67.2784C63.2169 66.9338 63.3795 66.2667 63.2138 65.9599C63.0203 65.6013 62.9242 65.9492 62.8882 65.4521C62.8805 65.3469 62.8743 65.1276 62.9122 65.0227C62.9538 64.9085 63.0786 64.9553 63.0945 64.9147C63.2029 64.6385 63.2101 64.0946 62.8266 64.1418C62.8417 63.9445 62.8567 63.7472 62.8716 63.5499C63.1486 63.9059 63.0518 63.6046 63.2089 63.4067C63.4205 63.1401 63.6274 63.0941 63.9298 62.9887C64.7359 62.708 65.5125 62.2857 66.3001 61.943C67.968 61.2174 69.6668 60.5695 71.2858 59.7119C74.691 57.908 78.0286 55.9503 81.4547 54.1941C81.2099 53.687 81.3621 53.6623 81.5411 53.1861C81.7799 53.3713 81.7296 53.2421 81.8995 53.2308C81.8841 53.0719 81.9283 53.024 82.0322 53.087C82.1148 53.1153 82.1995 53.1253 82.2864 53.117C82.4985 53.1576 82.6718 53.2879 82.8646 53.3374C82.9278 53.3895 82.9973 53.4285 83.0732 53.4548C83.1413 53.4374 83.1994 53.3998 83.2475 53.3418C83.5595 53.4064 83.6647 53.6689 83.6784 54.0488C83.6807 54.115 83.4995 54.1827 83.5514 54.2716C83.6421 54.4268 83.886 54.3898 84.0256 54.4096C83.995 54.5709 83.9644 54.732 83.934 54.8932C84.5464 54.5776 84.3867 55.5653 84.5724 55.8898C84.6242 55.9803 84.7395 55.908 84.7995 56.0129C84.8776 56.1498 84.8541 56.3436 84.9208 56.48C85.0716 56.7883 85.2225 56.7509 85.3728 57.104C86.158 58.9478 87.2026 60.6656 87.9563 62.549C88.3151 63.4454 88.6388 64.3572 89.0135 65.2457C89.3582 66.0635 89.5552 66.7588 89.3095 67.6517C88.7395 69.7234 88.13 71.8328 87.3831 73.8339C87.3459 73.7677 87.3086 73.7015 87.2712 73.6354ZM47.5168 89.0989C47.4633 89.2005 47.4099 89.3021 47.3564 89.4038C47.2376 88.6411 47.5541 88.9948 47.5168 89.0989ZM45.003 87.6708C44.8316 87.6135 44.9057 87.3011 44.9112 87.1675C45.0195 87.3184 45.1258 87.472 45.2161 87.6376C45.145 87.6487 45.0739 87.6597 45.003 87.6708ZM38.1132 84.7389C38.2931 84.6262 38.4226 84.5453 38.6266 84.4176C38.4192 84.8687 38.4192 84.8687 38.1132 84.7389ZM27.2741 44.9994C26.9992 45.7527 27.8375 50.4043 27.057 50.5561C26.9451 50.1479 26.9311 49.0237 26.4677 48.8896C25.8928 48.723 25.9495 49.8803 25.8709 50.2382C24.6906 49.3214 24.1663 47.5509 23.6025 46.1478C22.8837 44.3594 22.3182 42.4992 21.7781 40.6358C21.3162 39.0426 20.9344 37.4212 20.4677 35.8305C20.1745 34.8315 19.8584 33.8301 19.6612 32.8003C19.6184 32.5766 19.4499 32.0094 19.5931 31.7967C19.8012 31.4875 20.5503 31.8416 20.7917 31.9228C22.3576 32.4489 23.982 32.6753 25.5909 32.981C27.3784 33.3204 29.1619 33.6712 30.9602 33.9344C31.4096 34.0001 31.8592 34.0624 32.309 34.1229C32.6008 34.1622 33.0424 34.1229 33.3196 34.269C33.8805 34.5645 33.9999 35.6952 34.2082 36.2818C34.9855 38.4704 35.9002 40.5899 36.7186 42.7587C37.4559 44.7124 38.0147 46.7909 39.0745 48.5699C38.2841 48.1787 37.2825 46.1106 36.3993 47.3026C36.0196 47.8152 36.1154 48.4905 36.1457 49.104C36.1897 49.9908 36.2035 50.8842 36.2035 51.7724C35.3392 51.5217 34.7585 50.4264 34.3048 49.6505C33.685 48.5908 33.2946 47.5922 33.0202 46.3774C32.9013 45.8513 32.5861 45.8383 32.3061 45.5234C32.1261 45.3211 32.0356 45.0485 31.7775 45.3428C31.4531 45.7127 31.6689 46.7371 31.725 47.1739C31.858 48.2133 32.2944 49.8128 31.8702 50.7895C31.2977 52.1075 29.7637 48.7911 29.584 48.3121C29.4926 48.0683 27.8605 43.3925 27.2741 44.9994ZM26.2024 22.4116C26.2991 22.4281 26.3956 22.4446 26.4923 22.4611C26.4144 22.5379 26.2523 22.8071 26.1199 22.7359C26.1474 22.6279 26.1749 22.5198 26.2024 22.4116ZM31.3219 21.1851C31.2917 21.2223 31.2612 21.2593 31.2309 21.2965C31.0923 21.1031 31.1414 20.8211 31.1414 20.5974C31.3246 20.7209 31.3693 20.968 31.3219 21.1851ZM31.7356 23.3313V23.9635C31.3518 23.7778 31.3443 23.682 31.7356 23.3313ZM32.2017 24.1351C31.9328 24.0528 31.9007 23.9863 31.9385 23.525C32.0499 23.7834 32.1233 23.9538 32.2017 24.1351ZM33.7495 28.8174C33.6368 29.1412 32.978 28.3697 33.0022 28.1388C33.0252 27.9186 33.1264 27.8529 33.266 27.9945C33.3121 28.0414 33.2436 28.2109 33.273 28.2697C33.3793 28.4827 33.5936 28.6569 33.7495 28.8174ZM33.7568 30.7678C33.5918 31.2279 33.2976 30.5034 33.7288 30.4836C33.7571 30.5761 33.7665 30.6708 33.7568 30.7678ZM33.4366 30.0425C33.3728 29.9473 33.3107 29.8509 33.2504 29.7527C33.4725 29.8028 33.6489 30.1641 33.8832 29.9231C33.8554 30.2907 33.6215 30.3009 33.4366 30.0425ZM19.0737 24.0667C18.7165 23.6315 21.0457 23.326 21.3266 23.2512C23.3657 22.7084 25.2909 21.9229 27.1974 20.959C28.1069 20.4992 29.0118 20.0339 29.8999 19.5242C30.2835 19.3042 30.8092 19.1176 31.1295 18.7873C31.3581 18.5516 31.349 18.3732 31.6462 18.2327C31.8985 18.1137 31.9111 18.2261 32.0266 18.0109C32.0961 17.8817 32.1746 17.4085 32.134 17.2684C32.0233 16.8863 31.8597 17.1961 31.63 16.9328C31.4646 16.7429 31.5047 16.2031 31.5498 15.9795C31.6084 16.086 31.6421 16.2017 31.6511 16.3262C31.9003 16.189 31.7998 15.7179 32.0724 15.6407C32.3597 15.5595 32.33 15.8093 32.4049 16.0648C32.622 15.7089 32.448 15.4054 32.3305 15.0578C32.9278 14.933 33.5696 14.812 34.1616 15.0339C34.5897 15.1942 34.9562 15.5884 35.4082 15.6645C35.8509 15.739 35.936 15.5047 36.2623 15.2669C36.5272 15.0739 36.7547 15.3012 36.8911 15.1554C36.807 15.6476 36.0843 15.5803 36.1732 16.1953C36.2134 16.4721 36.5172 16.7208 36.6555 16.9362C36.8291 17.2066 36.9676 17.5055 37.0858 17.8101C37.5459 18.9951 37.7425 20.3702 37.9356 21.6374C38.4119 24.7654 38.4722 27.955 38.9203 31.093C39.1337 32.5877 39.3478 34.0832 39.4587 35.5925C39.4864 35.9699 39.6929 36.8258 39.524 37.1889C39.3812 37.4954 39.0634 37.4962 38.7845 37.5704C38.2388 37.7152 37.7263 37.9119 37.2028 38.1299C36.7335 38.3252 36.5971 38.445 36.2959 37.9521C36.0045 37.4751 35.8604 36.9066 35.6519 36.3837C35.3864 35.7175 35.0656 35.0746 34.7576 34.4319C35.3626 34.4319 35.7108 34.0673 35.6947 33.3809C35.6772 32.6207 35.1172 32.4403 34.8864 31.8155C34.6618 32.1411 34.6429 32.1503 34.4829 31.8412C34.2999 31.4878 34.1764 30.841 34.0644 30.4401C34.1445 30.5355 34.2246 30.6309 34.3046 30.7262C34.5066 30.416 34.1902 29.9269 34.0845 29.6348C33.9212 29.1836 33.8924 28.6959 33.7375 28.246C33.6531 28.0005 33.4575 27.8072 33.4095 27.5511C33.3775 27.3796 33.5058 27.2164 33.4753 27.0424C33.4224 26.7393 33.1153 26.4142 33.0198 26.1059C32.8729 25.6318 32.7134 25.2144 32.5311 24.7525C32.2845 24.1273 32.3418 23.4712 32.2967 22.8058C32.2499 22.1159 32.052 21.4558 31.982 20.7689C31.9337 20.2943 32.085 19.6968 31.7634 19.3167C31.7257 19.9485 31.888 19.9387 31.3562 20.0524C30.7508 20.1817 30.3118 20.6852 29.7394 20.8354C29.6214 20.8664 29.5354 20.291 29.5814 21.0759C29.3069 20.8496 28.7209 21.1306 28.9395 21.2649C28.7739 21.4628 28.4475 21.3259 28.393 21.6224C27.8299 21.0112 26.927 23.0915 26.2564 22.0064C26.1457 22.7418 25.6688 23.1766 25.0284 23.2739C24.7064 23.3227 24.508 23.4425 24.2222 23.5503C24.1643 23.5719 24.1429 23.6651 24.0743 23.6902C23.9694 23.7283 23.8154 23.6131 23.7399 23.6355C23.586 23.6811 23.4149 23.9071 23.2001 23.952C22.9539 24.0036 22.6852 23.9799 22.4387 23.948C22.1305 23.9081 21.9949 23.8674 21.6931 23.9807C21.4216 24.0828 21.1309 24.3685 20.879 24.0574C20.4832 24.8218 19.5397 24.6349 19.0737 24.0667ZM37.3696 14.8423C37.0701 14.8023 37.2781 14.5147 37.4168 14.4283C37.7937 14.1939 37.693 14.8856 37.3696 14.8423ZM20.7863 17.5854C22.5441 14.7542 25.5508 12.809 28.1962 11.1722C29.6412 10.2783 31.1161 9.41169 32.6333 8.68C33.3877 8.31638 34.1508 7.96682 34.9211 7.6474C35.3324 7.47678 35.7487 7.32166 36.1653 7.16726C36.2804 7.12464 36.49 6.99377 36.6105 7.00655C36.5897 7.00425 36.9101 7.10154 36.8471 7.1321C37.0536 7.0318 37.1518 6.77021 37.3944 6.6656C37.6672 6.54793 38.0146 6.49929 38.3068 6.48867C38.5652 6.4792 38.789 6.59844 39.0353 6.60777C39.1971 6.6138 39.3346 6.52798 39.4931 6.51536C39.5742 6.50904 39.567 6.6445 39.6159 6.6524C39.6371 6.65584 39.853 6.56529 39.8551 6.56687C39.9337 6.62327 40.0034 6.84339 40.0745 6.92934C40.2783 7.17587 40.5776 7.34764 40.8494 7.47736C41.1803 7.6352 41.9873 7.79391 41.6133 8.37794C41.879 8.33532 42.0026 8.60337 41.67 8.67125C41.4898 8.70813 41.4128 8.52388 41.279 8.39817C40.9698 8.10831 40.2195 7.69562 39.7742 7.71427C39.5237 7.72474 39.3302 7.93698 39.0992 8.01403C38.8718 8.0898 38.7592 7.97228 38.5597 7.99093C38.3266 8.0126 38.1764 8.23287 37.9542 8.27204C37.7461 8.30878 37.6302 8.15036 37.4442 8.1614C37.2231 8.17446 37.009 8.38885 36.7979 8.46088C36.4622 8.57539 36.2157 8.65345 35.8879 8.8433C35.2527 9.21137 34.5433 9.35113 33.8887 9.66797C33.3653 9.92125 32.7719 10.0546 32.2876 10.3347C31.749 10.6459 31.208 10.956 30.6806 11.2942C30.2997 11.5386 29.5251 11.6227 29.1051 11.5605C29.099 12.4241 28.7183 11.8187 28.3347 12.197C28.4254 12.2864 28.5285 12.3521 28.6435 12.3941C28.2277 12.5795 27.8434 12.8103 27.4406 13.0234C27.0243 13.2438 26.5801 13.2923 26.3065 13.7091C26.0546 14.0933 26.14 13.8951 25.764 14.0463C25.5915 14.1158 25.4415 14.3276 25.3172 14.4698C25.1036 14.7143 25.0563 15.0845 24.9343 14.582C24.8987 14.6433 24.7586 15.0335 24.7314 15.0434C24.5785 14.8623 24.5566 15.0769 24.4711 15.1537C24.5161 15.3206 24.4518 15.4299 24.2783 15.4817C24.1905 15.5546 24.1015 15.6261 24.0117 15.696C23.6857 15.9484 23.2708 16.1649 23.0413 16.541C22.872 16.4295 22.8093 16.2371 22.9124 16.0407C22.5888 16.3736 22.2029 16.7155 22.1153 17.2279C22.0751 17.1846 22.0282 17.1533 21.975 17.1341C21.8436 17.2331 22.0147 17.5281 22.098 17.5946C22.4612 17.437 22.0072 17.4941 22.2513 17.5195C22.3209 17.5267 22.3923 17.5848 22.469 17.5858C22.6941 17.5891 22.9055 17.5771 23.1287 17.5388C23.6207 17.4541 24.1042 17.2964 24.5806 17.1383C25.0994 16.9661 25.6182 16.7942 26.1256 16.5829C26.5433 16.409 26.9541 16.2151 27.3647 16.022C27.5288 15.9448 27.6926 15.8666 27.8569 15.79C28.1688 15.6445 28.3334 15.4054 28.2898 15.8149C28.5383 15.7689 28.7535 15.3768 28.9443 15.2168C29.2127 14.992 29.5145 14.8242 29.8325 14.7094C29.9612 14.6629 30.0558 14.6038 30.189 14.6034C30.2543 14.6032 30.2934 14.8087 30.3345 14.7975C30.6198 14.7203 30.4898 14.5438 30.618 14.2896C30.8986 13.7338 31.6544 13.4264 32.1185 13.1107C32.4131 12.9103 32.6223 12.6406 32.8942 12.4187C33.0215 12.3149 33.1139 12.269 33.2472 12.2251C33.3492 12.1914 33.4744 12.4531 33.5406 12.1901C33.3032 12.0817 33.1075 11.9481 32.8791 11.8691C32.7175 11.813 32.9113 11.6211 32.6553 11.7353C32.5525 11.7812 32.5171 12.0034 32.4793 12.0964C32.1934 11.8112 31.3892 12.1067 31.0499 12.2261C31.0265 12.2343 30.9218 12.1726 30.8724 12.1763C30.6765 12.1909 30.5402 12.4852 30.4112 12.6121C30.0684 12.9492 29.6966 13.0901 29.2745 13.2825C29.3868 12.5973 30.2124 12.3166 30.6943 12.0542C31.3986 11.6705 32.0544 11.1807 32.8256 10.9744C33.3392 10.8368 34.0198 10.7261 34.2417 11.3928C34.3744 11.7924 34.3911 12.7853 33.9419 12.9697C33.8945 12.7831 34.0464 12.6237 34.0922 12.4619C33.645 12.6524 33.5714 13.2521 33.2318 13.5651C33.0409 13.7408 32.9726 13.7972 32.8804 13.9671C32.7887 14.1359 32.7448 14.2933 32.53 14.4728C32.179 13.6404 32.2383 14.7806 32.0603 14.9237C32.1319 14.8661 31.7702 15.0342 31.8134 15.0164C31.7967 15.0233 31.6391 14.7383 31.5369 14.7443C31.3509 14.7552 31.3867 14.9838 31.2971 15.0989C30.9934 15.4883 30.601 15.7438 30.1121 15.6825C30.1007 15.9596 30.1773 16.2906 29.8384 16.3159L29.7939 15.7016C29.6094 15.9099 29.3666 16.1078 29.2165 16.349C29.0457 16.6235 29.064 16.7926 28.7805 16.9755C28.4844 17.1668 27.8543 17.5436 27.5019 17.5762C27.589 17.4382 27.5736 17.3135 27.4559 17.2024C27.2786 17.4065 27.0169 17.4265 26.8283 17.6108C27.4833 17.9163 26.325 17.9005 26.1781 17.9351C26.0798 17.9583 25.9939 18.0584 25.8943 18.0809C25.7621 18.1109 25.745 17.9556 25.6311 18.0048C25.4645 18.0769 25.5321 18.2802 25.3578 18.3824C25.2326 18.4558 25.0203 18.4548 24.879 18.5246C24.5424 18.691 23.8253 19.0597 23.5978 18.6125C23.4825 19.3797 22.305 18.9127 21.8692 18.8611C21.2723 18.7903 20.2326 18.4775 20.7863 17.5854ZM23.2935 9.73642C23.3779 9.65592 23.4625 9.6618 23.5471 9.75422C23.4293 9.05998 24.34 8.72291 24.7373 8.42773C25.2643 8.03628 25.8846 7.27675 26.5741 7.33687C26.4565 7.43417 26.3392 7.53145 26.2217 7.62875C26.3894 7.653 26.557 7.67725 26.7245 7.7015C26.6301 7.85647 26.5355 8.01131 26.4407 8.16614C26.286 7.2139 25.4785 8.41611 25.2449 8.59132C25.0095 8.76768 24.7748 8.89912 24.5657 9.11422C24.3585 9.32731 24.1715 9.71102 23.8289 9.51931C23.7977 10.0632 23.4061 9.91565 23.1352 10.2168C23.1239 10.0279 23.2208 9.89427 23.2935 9.73642ZM26.8711 7.02161C27.7046 6.67306 28.4303 6.02862 29.2158 5.56828C29.966 5.12846 30.7314 4.73356 31.4941 4.3233C31.881 4.11509 32.5897 3.57669 33.032 3.85106C33.6288 4.22157 32.8072 4.3411 32.5939 4.46938C32.5149 3.89884 32.2385 4.41572 32.4036 4.73313C31.9482 4.51358 30.9551 5.37255 30.5206 5.60946C30.4223 5.66313 30.4664 5.69413 30.3546 5.75726C30.327 5.77276 30.042 5.84523 29.9603 5.87579C29.5514 6.02862 29.2818 5.90722 29.1056 6.45839C29.0687 6.32867 29.0318 6.1988 28.9949 6.06894C28.7389 6.7108 27.9606 6.99176 27.4629 7.37131C27.3347 7.46918 26.9683 7.84873 26.8056 7.77023C26.5792 7.66089 26.67 7.10556 26.8711 7.02161ZM41.9078 8.95681C42.2597 8.98278 41.9203 9.16602 42.017 9.28714C42.0061 9.2735 42.229 9.48573 42.1998 9.42747C42.2391 9.50582 42.3336 9.50295 42.3819 9.66223C42.5484 10.21 41.8215 10.7759 41.5764 11.0867C41.0998 11.6913 40.8243 12.4568 40.3277 13.042C40.1034 13.3063 39.8803 13.4889 39.5693 13.5874C39.3517 13.6565 39.1215 13.5826 38.9215 13.8162C38.7605 14.0043 38.797 14.1112 38.619 14.2112C38.3054 14.3876 38.1672 14.2329 37.862 14.614C37.5995 13.817 38.3539 13.8183 38.7476 13.3729C39.2911 12.758 39.8866 12.1377 40.3962 11.4799C40.8489 10.8954 41.0303 10.383 41.2452 9.673C41.3129 9.44914 41.3867 8.96915 41.5734 8.82866C41.8643 8.60998 41.6898 8.94059 41.9078 8.95681ZM43.6383 29.6605C44.5613 28.5079 45.7063 27.473 46.9474 26.7788C47.391 26.5305 48.0225 26.2048 48.4822 26.5869C48.9331 26.9615 48.8361 27.7086 48.6543 28.2169C48.4802 28.1406 48.6446 27.4262 48.5542 27.2497C48.357 26.8646 47.9316 27.0691 47.6421 27.1982C47.3031 27.3495 47.0005 27.5165 46.732 27.791C46.623 27.9022 46.4144 28.0019 46.3446 28.0784C46.2397 28.0298 46.1779 28.0652 46.1594 28.1846C46.181 28.2578 46.1784 28.3298 46.1515 28.4007C46.1362 28.4233 45.9999 28.3308 45.9804 28.3494C45.892 28.4339 45.8092 28.5333 45.7222 28.6118C45.5476 28.7695 45.399 28.8441 45.2382 29.064C44.9276 29.4889 44.5168 29.7378 44.2049 30.1426C44.1345 30.2342 44.05 30.4688 44.0342 30.4893C43.8765 30.6948 43.6427 30.8574 43.4648 31.0749C43.1572 31.4507 42.8288 31.703 42.4739 32.0253C42.3211 32.1639 42.1428 32.3133 42.0412 32.5062C41.9949 32.5941 41.9688 33.0763 41.9671 33.0783C41.6191 33.5042 41.6868 32.6481 41.713 32.5407C41.9957 31.3857 42.9513 30.5186 43.6383 29.6605ZM41.7385 37.4706C41.7818 37.6519 41.8174 37.8019 41.8613 37.986C41.5854 37.7333 41.5854 37.7333 41.7385 37.4706ZM41.4404 38.0646C41.339 38.1787 41.2371 38.2921 41.1344 38.4047C40.9085 38.1382 41.4818 38.019 41.4404 38.0646ZM41.2971 33.4782C41.1891 33.9658 40.7939 34.5569 40.5222 34.9417C40.5521 34.8992 40.2903 34.9846 40.2605 35.004C40.1637 35.0666 40.3954 35.4721 40.0601 35.2908C39.9411 35.366 40.1754 35.6723 40.0137 35.8093C39.5463 34.6204 40.8224 33.5904 41.3165 32.7079C41.5581 32.9556 41.3578 33.2048 41.2971 33.4782ZM38.2615 39.906C38.6023 40.0038 38.7795 39.9423 39.0096 39.5686C39.1479 39.3442 39.1984 38.9467 39.5147 39.2825L39.5705 38.8507C40.022 39.0575 39.9841 39.8048 40.1814 40.2189C40.2774 39.7504 40.5048 38.4416 41.2011 38.6515C41.9827 38.8873 40.6818 40.388 40.561 40.7556C40.2953 40.2953 40.3998 40.7235 40.1971 40.7883C40.0232 40.8442 39.7515 40.7012 39.5402 40.7141C38.8972 40.7532 38.3325 41.076 37.7452 41.3494C37.5965 40.9018 37.4479 40.4543 37.2992 40.0067C37.645 40.0364 38.3599 39.009 38.4614 39.7557C38.205 39.7059 38.1327 39.7186 38.0078 39.9792C38.0876 39.934 38.1722 39.9096 38.2615 39.906ZM39.7047 45.7479C39.7037 45.7443 40.3697 45.7902 40.4291 45.7659C40.8849 45.5801 40.7164 45.003 40.8096 44.595C40.9975 44.7879 40.8979 45.1399 40.9558 45.3894C41.0238 45.6827 41.2207 45.9327 41.239 46.2464C41.2805 46.9551 40.7596 46.7978 40.3647 47.0271C40.0273 47.2232 39.9899 47.4697 39.7049 46.9415C39.6278 46.7985 39.462 46.4262 39.479 46.2434C39.4957 46.0623 39.7526 45.9117 39.7047 45.7479ZM40.2415 48.8147L40.0573 48.5844C40.6061 48.7719 40.2825 48.4899 40.4087 48.1044C40.8299 48.4175 41.1734 48.7393 41.5067 48.1124L42.0826 50.7054C41.6958 50.807 41.1968 50.1399 40.9315 49.9107C40.7783 49.7782 39.9281 49.2681 40.4386 49.1195C40.3728 49.0179 40.3071 48.9163 40.2415 48.8147ZM44.0003 40.6724C43.6806 41.0118 43.3586 41.2018 43.0106 41.4685C42.7053 41.7027 42.8104 41.9715 42.5458 42.2326C42.3701 42.4063 41.9581 42.583 41.741 42.7155C41.3543 42.9514 41.0079 42.9963 40.6101 42.7323C40.7183 43.7053 40.1214 43.7815 39.3784 43.9742C39.024 44.0662 38.8142 44.2067 38.5588 43.8444C38.3839 43.5964 38.3154 43.1474 38.533 42.9206C38.8786 42.5601 39.7994 42.6845 40.2429 42.4578C40.5794 42.2859 40.9222 41.3171 41.3373 41.6697C41.1231 41.2887 41.3725 41.1861 41.5588 40.9145C41.7628 40.6167 41.8881 40.2686 42.0991 39.9733C42.5002 39.4119 43.1158 38.8473 43.6854 38.5088C44.1865 38.211 44.4496 38.4218 44.5247 39.0472C44.5625 39.3616 44.5611 39.8299 44.4034 40.1089C44.3531 40.1978 44.1872 40.1989 44.1369 40.2824C44.0494 40.4283 44.1297 40.5349 44.0003 40.6724ZM49.881 33.1255C50.2809 33.471 50.242 34.1971 50.3049 34.6916C50.3938 35.3886 50.3294 36.063 50.3199 36.7729C50.3098 37.5166 49.983 38.0011 49.8291 38.6982C49.6582 39.4736 49.4375 39.8843 49.0539 40.5351C49.4699 40.6081 48.8508 41.9949 48.7488 42.1744C48.638 42.3692 47.7446 43.2672 48.1276 43.2672C47.9163 43.5783 47.6862 43.8976 47.4757 44.2001C47.3928 44.3192 47.2474 44.366 47.1821 44.4501C47.0491 44.621 47.041 44.7734 46.9457 44.9728C46.8011 45.2755 46.7536 45.1947 46.5635 45.4142C46.4322 45.5659 46.3461 45.7661 46.2172 45.9115C45.8018 46.3797 45.7488 45.9961 45.5166 45.6355C45.481 45.7321 45.4177 45.7926 45.3269 45.8172C45.2541 45.4091 45.7549 44.9968 45.9654 44.7488C46.3103 44.3425 46.6254 43.8948 46.9303 43.4503C47.5833 42.4981 48.17 41.4864 48.633 40.4028C49.1255 39.2495 49.519 38.0013 49.7233 36.7432C49.8791 35.7842 50.0272 34.1391 48.8794 33.8952C48.0446 33.7178 47.1243 34.2841 46.4361 34.7425C46.0167 35.0218 45.595 35.2995 45.1955 35.6136C44.7618 35.9542 44.387 36.4364 43.9163 36.7097C44.1738 36.5602 43.3243 37.0102 43.4544 36.8837C43.3935 36.9428 43.446 37.1234 43.4058 37.2049C43.3534 37.311 43.1711 37.4157 43.0894 37.4843C42.8734 37.6654 42.5284 37.8507 42.4302 38.1497C41.0606 37.0589 43.7843 35.1222 44.4825 34.629C45.8675 33.6508 48.2773 31.7395 49.881 33.1255ZM53.5756 22.5164C53.5625 21.7309 54.1355 20.6585 54.5225 20.0179C54.7118 19.7044 55.0143 19.7169 55.1252 19.3471C55.1892 19.1342 55.1053 18.9109 55.1243 18.6971C55.15 18.4079 55.2623 18.176 55.3919 17.9275C56.5632 15.6808 57.9863 13.6922 59.5021 11.732C60.2496 10.7657 60.9582 9.76225 61.7642 8.85449C62.1009 8.47537 63.0059 7.11245 63.5237 7.24877C63.7978 7.32095 63.9573 7.78803 64.0811 8.02637C64.2857 8.42056 64.5108 8.78978 64.7595 9.15225C65.4159 10.1092 66.1731 10.9493 67.0673 11.6276C67.6257 12.0515 68.1898 12.4634 68.7358 12.9076C69.1853 13.273 69.8649 13.6909 70.1858 14.204C70.5069 14.7173 70.0354 15.152 69.7777 15.5782C69.3772 16.241 69.0088 16.9277 68.6066 17.5898C68.4469 17.4616 68.4881 17.201 68.3786 17.0367C68.2815 16.891 68.1441 16.8317 68.0099 16.7418C67.7527 16.5697 67.5002 16.3594 67.268 16.6476C66.8614 17.1522 67.4204 18.3448 68.023 18.2139C68.0939 18.7118 66.8907 19.5319 66.5892 19.806C65.6638 20.6466 64.7091 21.3774 63.4867 21.4535C62.9919 21.4842 62.4772 21.4423 62.0071 21.2575C61.7819 21.1689 61.533 21.0474 61.3603 20.8544C61.1537 20.6234 61.101 20.2795 60.9004 20.0508C60.7265 19.8523 60.4877 19.8218 60.3139 19.6226C60.1399 19.4233 60.0539 19.1085 59.9834 18.8503C59.8453 18.3459 59.8192 17.814 59.6866 17.3084C59.6068 17.0044 59.5412 16.5979 59.2809 16.89C58.9029 17.3145 59.0928 18.6491 59.1895 19.1577C59.328 19.8832 59.6525 20.4681 59.9925 21.0923C60.3611 21.7695 60.4972 22.3975 60.5633 23.181C60.6869 24.6477 61.0639 26.0551 61.6506 27.3747C61.8975 27.9303 62.1932 28.4528 62.4598 28.9957C62.5844 29.2489 62.8634 30.1131 63.2021 30.1085C63.7432 30.101 62.9724 28.3393 62.8655 28.0436C62.2727 26.4055 61.7065 24.6839 61.5795 22.9103C62.4292 23.1546 63.3554 23.3865 64.2354 23.2317C63.6674 24.6497 64.2607 26.0616 64.1881 27.5212C64.1518 28.2532 64.1256 28.9285 64.1391 29.6583C64.151 30.2983 63.8922 30.938 63.6684 31.5167C63.2239 32.666 62.6644 34.0838 61.839 34.9641C61.1489 35.7001 60.2258 35.7576 59.3241 35.5882C57.273 35.2025 55.9253 33.4422 55.0645 31.443C54.5114 30.1587 54.0887 28.7877 53.8262 27.3929C53.5224 25.7788 53.6026 24.1537 53.5756 22.5164ZM56.2393 11.6378C54.3252 10.0916 57.1067 8.33575 58.5225 8.57482C58.8546 8.63078 59.4656 8.78404 59.4345 9.26791C59.4091 9.66338 58.8182 10.1042 58.5913 10.3483C57.9444 11.0448 57.2861 12.4831 56.2393 11.6378ZM70.1638 45.9932C70.0981 45.9275 69.5624 46.0888 69.7746 45.7349C69.951 45.4409 70.4399 45.8094 70.6175 45.885C70.4711 45.998 70.3438 46.1729 70.1638 45.9932ZM62.1936 64.6936C62.0291 64.7162 61.8571 64.2209 62.4502 64.591C62.3647 64.6251 62.2791 64.6594 62.1936 64.6936ZM62.1766 72.7668C62.1971 72.9888 62.2579 73.1352 62.1166 73.2966C61.9972 73.1323 61.9818 72.9006 62.1766 72.7668ZM62.4174 76.1025C62.3999 76.2234 62.3824 76.3442 62.3652 76.4649C62.2282 76.3875 62.0914 76.3102 61.9544 76.2327C62.1087 76.1893 62.2631 76.146 62.4174 76.1025ZM62.585 73.2897C62.7891 73.375 62.6941 73.1025 62.8423 73.0641C62.8954 73.3478 62.83 73.5908 62.6841 73.8248C62.6702 73.7694 62.5954 73.2939 62.585 73.2897ZM67.8014 53.1607C67.515 53.12 67.4717 53.4578 67.2582 53.5888C67.1204 53.6735 66.7009 53.6099 66.6226 53.7719C66.7259 53.8052 66.8294 53.8386 66.9328 53.8719C66.6961 54.0143 66.4595 54.1568 66.2229 54.2991C66.792 54.2991 67.3851 53.9956 67.9503 54.0847C68.1893 54.1225 68.3645 54.2126 68.5144 54.4295C68.6054 54.5613 68.6853 54.7732 68.7 54.9345C68.7158 55.109 68.5939 55.2295 68.6155 55.3128C68.8703 55.3205 68.8402 55.787 68.783 55.9772C68.659 56.3894 68.1663 57.035 67.7248 56.7736C67.9095 57.0661 67.8624 57.2332 67.5893 57.4029C67.6141 57.3062 67.6324 57.137 67.4928 57.1538C67.4569 57.316 67.4707 57.5731 67.352 57.6954C67.2193 57.8321 67.1008 57.6723 66.9738 57.7612C66.8232 57.8669 66.8685 58.0326 66.7501 58.1471C66.5936 58.2983 66.5712 58.1909 66.3841 58.2203C66.1006 58.2651 66.2815 58.0685 66.0545 58.3248C65.976 58.4131 65.9892 58.6432 65.8619 58.7726C65.6175 59.021 64.9652 59.2799 64.731 58.9613C64.1679 59.9576 62.4801 60.1967 61.6945 59.4102C60.4416 58.1559 62.7778 55.6049 63.5491 54.7965C64.3233 53.9851 65.1832 53.2843 66.0532 52.6079C66.5475 52.2236 67.0549 51.8747 67.5729 51.5324C67.8924 51.321 68.2937 50.9351 68.6863 50.9721C69.0385 51.0054 69.3394 51.3105 69.7102 51.3709C69.9784 51.4145 70.4993 51.4866 70.161 51.8927C70.0028 52.0824 69.3814 52.3892 69.1699 52.4354C69.0456 52.4625 68.9146 52.4106 68.7915 52.4387C68.583 52.4865 68.4398 52.6829 68.2129 52.6579C68.2848 53.0338 68.1537 53.2107 67.8014 53.1607ZM71.5094 39.2086C71.5096 39.5026 71.0289 39.4293 70.9285 39.3294C70.7632 39.1651 70.7574 38.6738 70.6961 38.4503C70.9755 38.5288 71.5092 38.8161 71.5094 39.2086ZM67.637 29.5085C68.6467 28.582 69.7084 27.7325 70.8308 26.9843C71.2327 26.7164 71.8002 26.176 72.2994 26.2434C72.5088 26.2718 72.9417 26.5403 72.784 26.8363C72.7545 26.8917 72.5215 26.914 72.4495 26.9541C72.3679 26.9996 72.3039 27.125 72.2282 27.187C71.7038 27.6165 71.0737 27.8804 70.5476 28.3202C70.1152 28.6814 69.712 29.0855 69.2466 29.3954C68.8001 29.6926 68.3335 29.8807 67.9096 30.2099C67.918 30.2033 67.3582 30.428 67.468 30.4689C66.9766 30.2854 67.4956 29.6384 67.637 29.5085ZM74.3693 29.1634C74.9692 28.8965 75.556 28.5726 76.1841 28.3933C76.4974 28.3037 76.8191 28.2364 77.1436 28.2767C77.1987 28.169 77.2721 28.1452 77.3639 28.2053C77.4355 28.3281 77.5298 28.4224 77.647 28.4883C77.8259 28.6418 78.4847 28.8425 78.3531 29.1816C78.266 29.4059 77.6055 29.4246 77.4243 29.4749C76.8779 29.6269 76.3684 29.9687 75.8055 30.0527C75.7527 30.0605 75.5802 29.9891 75.5783 29.9895C75.3586 30.043 75.1758 30.2975 74.9871 30.4194C74.581 30.6819 73.9975 30.7259 73.7058 31.179C74.6503 31.8937 75.4697 31.1848 76.3 30.6451C76.7974 30.322 77.3313 30.0888 77.8749 29.8816C78.159 29.7734 78.4456 29.6609 78.7335 29.5659C78.8527 29.5174 78.9751 29.4825 79.1008 29.4612C79.2178 29.4352 79.3015 29.4827 79.352 29.6038C79.7001 29.5909 79.7299 29.3471 79.9394 29.8018C80.2348 30.443 79.7829 30.4104 79.3582 30.4892C78.7692 30.5982 78.1703 30.8439 77.5899 31.0068C77.4561 31.0444 76.2825 31.3481 76.2811 31.3589C76.2279 31.7725 79.5962 31.3895 79.8854 31.3275C80.3957 31.2178 80.943 30.9066 81.4713 30.9816C81.8769 31.0392 82.8009 31.7036 82.1539 32.145C82.0265 31.4642 81.5892 32.0264 81.361 32.2562C81.0569 32.562 80.6211 32.5326 80.2041 32.6524C79.6336 32.816 78.1734 33.4298 77.7682 32.6472C77.8964 33.3331 75.5686 32.9846 75.2486 32.9619C74.9366 32.9397 74.5339 33.0137 74.2324 32.9144C74.0357 32.8497 73.9264 32.7069 73.7413 32.6748C73.6959 32.7293 73.6415 32.7665 73.5783 32.7861C73.4845 32.7332 73.3998 32.6657 73.3242 32.5841C72.7008 32.2642 71.7363 32.0874 72.0827 31.0685C72.4094 30.1075 73.5769 29.5161 74.3693 29.1634ZM80.2123 29.7573C80.2278 29.6975 80.2434 29.6377 80.2588 29.5777C80.2607 29.7612 80.6528 29.8396 80.6075 30.0773C80.5071 30.6038 80.0547 29.8127 80.0159 29.7265C80.0814 29.7368 80.1467 29.747 80.2123 29.7573ZM82.6058 30.6321C82.6512 30.8478 83.1725 31.307 83.0434 31.4129C82.8378 31.1009 82.2697 31.2425 82.6058 30.6321ZM73.812 50.3112C74.0028 49.8886 74.5798 50.6082 74.5189 49.8867C74.8327 49.9184 74.6368 50.1849 75.0127 50.0678C75.1536 50.0239 75.2488 49.8496 75.4206 49.8094C75.4663 49.7986 75.6641 49.8161 75.7324 49.8138C75.9585 49.8061 76.8446 49.778 76.2347 49.4469C76.5761 49.1949 76.6181 49.3228 76.9262 49.5537C76.8472 49.0764 77.3005 49.3473 77.5115 49.4069C77.361 49.1347 77.7345 48.8451 77.8557 48.6611C77.8123 48.9445 77.8352 49.2618 78.2025 49.0806C78.294 49.0355 78.2735 48.8352 78.3461 48.8025C78.479 48.7426 78.5533 48.8515 78.601 48.8454C78.6479 48.8395 78.7467 48.8689 78.8453 48.8274C78.9735 48.7736 78.9117 48.5816 79.0741 48.5531C79.1799 48.5346 79.2571 48.7082 79.3863 48.7096C79.4526 48.7103 79.5633 48.6352 79.6137 48.6392C79.6226 48.6399 79.6857 48.47 79.7632 48.4658C79.8766 48.4597 79.9227 48.7987 79.9641 48.8646C80.1625 49.1789 80.4264 49.3838 80.7308 49.5514C80.1802 50.115 79.0694 50.0553 78.377 50.2453C78.0019 50.3484 77.682 50.4969 77.3388 50.6883C77.256 50.7484 77.1847 50.8222 77.125 50.9096C77.0765 50.8736 77.0277 50.8375 76.9792 50.8015C76.7911 50.8144 76.6132 50.7105 76.4015 50.7504C75.7477 50.8736 75.2357 51.4204 74.5712 51.5423C74.2726 51.5971 74.0273 51.6736 73.8328 51.3846C73.6621 51.1311 73.6904 50.5807 73.812 50.3112ZM72.9155 46.9429C73.0637 47.0828 72.8854 47.5383 73.1723 47.4888C73.3759 47.4536 73.3352 47.101 73.4951 47.0263C73.7052 46.9283 73.8319 47.1609 74.0293 47.1393C74.3973 47.0989 74.3762 46.7401 74.0653 46.5826C74.3886 46.4873 74.4922 46.9141 74.7784 46.9102C75.1544 46.9052 75.0647 46.41 75.3846 46.3279C75.5231 46.2923 75.4769 46.5194 75.5667 46.5477C75.7467 46.6041 75.872 46.5072 76.0311 46.422C76.1735 46.3458 76.2749 46.1986 76.4306 46.1487C76.5014 46.1258 76.6814 46.1676 76.7333 46.1253C76.838 46.04 76.9319 45.708 77.0349 45.6641C77.0139 45.673 77.3519 45.8621 77.4004 45.8799C77.3707 46.0201 77.3019 46.0367 77.1939 45.93C77.1939 46.2464 77.9816 46.345 77.82 45.9539C78.246 46.1508 77.9288 46.2521 77.8862 46.5269C77.8692 46.6374 77.8117 46.6344 77.8288 46.7512C77.8366 46.805 78.0599 46.7587 78.0571 46.832C78.0383 47.3042 76.6901 47.4494 76.4347 47.4911C75.9059 47.5773 75.4055 47.7224 74.8958 47.901C74.5162 48.034 73.862 48.415 73.4581 48.3914C72.8773 48.3573 72.8016 47.5113 72.9155 46.9429ZM71.6177 42.124C71.476 41.5987 71.9304 40.5135 72.5221 40.6491C72.6676 40.6824 72.7035 40.817 72.8164 40.8767C72.9739 40.9602 73.2302 40.9163 73.3669 41.0026C73.6732 41.1962 73.5188 41.6894 73.8257 41.8676C73.3412 41.9987 71.8427 42.959 71.6177 42.124ZM72.1784 44.1651C72.3872 44.0398 72.7256 44.0238 72.8679 43.7828C72.9389 43.8376 73.0729 44.1704 73.2 44.1195C73.2594 44.0958 73.3207 43.9154 73.3165 43.9156C73.4297 43.912 73.4522 43.7408 73.6253 43.76C73.7842 43.7778 73.9621 43.991 74.1036 44.0705C74.0793 43.5419 74.2007 43.4914 74.5846 43.2084C74.6688 43.1464 74.7391 42.9137 74.8167 42.8195C74.7424 43.3743 74.9297 43.3773 75.3265 43.4607C75.8239 43.5651 76.1338 43.8633 76.3331 44.3999C75.9092 44.3076 75.3625 44.4187 75.1954 44.9274C74.8571 44.2373 73.6275 45.1895 73.2297 45.3845C72.9345 45.5293 72.591 45.7239 72.3435 45.3865C72.1692 45.1489 72.2691 44.8631 72.2728 44.652C72.2738 44.5857 72.3351 44.5818 72.3295 44.4831C72.3223 44.3571 72.1754 44.3067 72.1784 44.1651ZM76.7041 55.0164C76.5921 55.0638 76.0159 55.0903 76.0122 54.8773C76.0091 54.689 77.0292 54.8787 76.7041 55.0164ZM75.7681 54.3271C75.3321 54.6271 74.8444 53.5699 74.6841 53.2654C75.1414 53.3306 75.3647 52.9036 75.6341 52.579C75.8904 53.206 76.2795 52.8746 76.6889 52.6653C77.1717 52.4183 77.7007 52.4164 78.1953 52.2183C78.3497 52.1564 78.492 52.0644 78.6426 51.9937C78.764 51.943 78.8849 51.8911 79.0054 51.8379C79.0908 51.7518 79.1213 51.6457 79.0964 51.52C79.0559 51.4144 79.0835 51.3477 79.1793 51.3201C79.2931 51.358 79.4093 51.3801 79.5281 51.386C79.7187 51.3438 79.9926 51.143 79.7625 50.9267C80.0091 50.6767 80.256 50.9252 80.4934 51.0347C80.437 50.8552 80.3808 50.6757 80.3244 50.4962C80.4421 50.552 80.7917 51.0973 80.8273 51.0943C81.0533 51.0753 81.0297 50.7368 81.1596 50.6002C81.2345 50.7034 81.256 51.4727 81.5506 51.2135C81.6765 51.1027 81.4053 50.7253 81.3385 50.6394C81.6755 50.7243 81.9697 51.1735 82.0608 51.5222C81.9008 51.548 81.7529 51.5121 81.617 51.4143C81.5301 51.8998 82.3353 51.7031 82.4656 51.9568C82.7209 52.4535 81.0605 52.7984 80.8441 52.8445C80.4112 52.9366 79.9003 52.9709 79.5035 53.1851C79.1233 53.3902 79.0334 53.4489 78.5892 53.4873C78.0821 53.5313 77.5874 53.7178 77.0969 53.863C76.6711 53.989 76.1456 54.0674 75.7681 54.3271ZM85.0354 36.5492C85.4357 36.3883 86.7843 35.5536 87.1276 35.9248C87.0914 35.8855 87.3752 36.5401 87.3722 36.4989C87.3966 36.8395 87.3892 36.9765 87.0137 37.1397C86.7448 37.2565 86.5107 37.0082 86.2688 37.1068C86.0031 37.2151 86.1889 37.4068 86.0522 37.5407C85.9023 37.6875 85.6134 37.7509 85.4269 37.8152C84.9703 37.9727 84.5102 38.1042 84.0558 38.2738C83.1313 38.619 82.1522 38.9401 81.2021 39.1842C80.4921 39.3666 79.287 39.8199 78.6327 39.2845C78.5689 39.5889 78.4128 39.5472 78.1961 39.5916C78.0261 39.6263 77.7186 39.7203 77.5675 39.7252C77.3159 39.7334 76.6166 39.6597 76.7128 39.2658C76.6864 39.3743 77.2568 39.003 77.1581 38.9799C77.4004 39.0368 77.3218 38.9006 77.5203 38.8249C77.7795 38.726 78.0505 38.7313 78.3151 38.6266C78.9824 38.3625 79.542 38.0199 80.2462 37.8544C81.8548 37.4766 83.4835 37.1727 85.0354 36.5492ZM20.5507 77.2436C20.4204 77.2475 20.3189 76.8341 20.7155 77.1292C20.6606 77.1674 20.6057 77.2054 20.5507 77.2436ZM17.4183 76.7087C17.2411 76.7593 17.1704 76.6488 17.2065 76.3775C17.4537 76.2684 17.5243 76.3788 17.4183 76.7087ZM15.0001 76.1549C14.9548 75.913 15.1154 75.8584 15.261 75.7498C15.2464 76.0704 15.2464 76.0704 15.0001 76.1549ZM8.91562 74.164C8.67051 74.1039 8.34391 73.8363 8.28774 74.2856C8.24674 74.1815 8.03748 73.6922 8.12733 73.579C8.17424 73.5197 8.35188 73.7938 8.33298 73.7667C8.5475 73.2823 8.91729 73.8669 9.12397 74.0398C9.05457 74.0812 8.98503 74.1227 8.91562 74.164ZM72.6444 20.6261C72.729 20.4263 72.8288 20.3629 72.9435 20.436C72.7633 20.9032 72.153 21.1564 72.6444 20.6261ZM76.8847 16.2403C77.0358 16.5567 76.8085 16.6904 76.6461 16.9534C76.7411 16.6697 76.8069 16.4732 76.8847 16.2403ZM95.3136 47.127C95.8589 47.1269 97.0203 46.8056 97.3491 47.5014C97.5667 47.0286 97.814 47.9152 98.0028 48.0574C98.024 48.0735 98.16 47.9574 98.2232 48.0002C98.3186 48.0646 98.4009 48.2401 98.4555 48.3444C98.6201 48.659 98.691 49.0329 98.7822 49.379C97.8299 49.379 96.8535 49.1315 95.9019 49.0415C95.2774 48.9824 94.6651 48.9807 94.0396 49.0183C93.9153 49.0258 93.6685 48.98 93.5622 49.0061C93.4543 49.0326 93.2585 49.2782 93.1395 49.2387C93.3244 49.6263 95.6932 50.5646 95.8739 50.1354C95.6598 49.9908 95.1842 49.8797 95.1846 49.5301C95.185 49.1385 95.6307 49.1393 95.867 49.1507C96.3837 49.176 97.249 49.368 97.4608 49.9678C97.5515 50.225 97.5794 50.8724 97.4797 51.1207C97.4153 51.2809 97.3063 51.4737 97.1335 51.5062C97.0627 51.5196 96.9607 51.4144 96.9499 51.417C96.5954 51.5009 95.9392 51.8188 95.5526 51.3706C95.2738 51.7734 93.9309 51.3335 93.5197 51.1815C92.8007 50.9157 91.8106 50.5508 91.3738 49.8018C90.8414 48.8889 91.9238 48.1173 92.5453 47.7462C93.3948 47.2391 94.3653 47.1274 95.3136 47.127ZM98.9422 49.2378C99.1095 49.2905 99.2766 49.3433 99.4437 49.396C99.3989 49.7231 98.7395 49.4643 98.9422 49.2378ZM103.995 61.1304C104.046 59.8196 103.707 58.6651 103.511 57.3973C103.462 57.0831 103.512 56.5336 103.298 56.2752C103.094 56.0281 102.638 56.229 102.62 55.7922C102.418 56.0552 102.439 56.1102 102.191 55.8077C102.236 55.9374 102.243 56.0693 102.21 56.2036C102.057 56.1052 101.499 55.7783 101.546 56.2253C101.087 56.112 101.22 55.7919 100.959 55.5475C100.922 55.5128 100.772 55.6361 100.714 55.5835C100.609 55.4884 100.557 55.402 100.468 55.2795C100.355 55.4316 100.202 55.5415 100.064 55.6618C99.9841 55.467 99.8282 55.3241 99.6408 55.2767C99.816 55.686 100.249 56.2161 99.6551 56.449C99.3005 56.5879 98.7196 56.4175 98.3441 56.45C96.952 56.5705 95.4274 56.2317 94.0815 55.8615C92.6989 55.4812 91.3007 54.9444 90.0573 54.1598C89.7922 53.9925 89.6253 53.7944 89.397 53.5869C89.1751 53.3852 89.0138 53.3533 88.7471 53.2243C88.2671 52.9921 87.828 52.6198 87.4628 52.2048C86.6776 51.3124 85.9481 50.1453 86.1667 48.8388C86.3847 47.5365 87.1865 46.5189 88.0444 45.6613C89.0577 44.6485 90.2017 43.8029 91.4159 43.1212C91.9588 42.8165 93.3475 41.6717 93.8838 42.3415C94.2266 42.7694 94.0338 43.3155 93.5655 43.4106C93.4499 43.4341 93.3292 43.3476 93.2124 43.4069C93.044 43.4924 93.1032 43.5934 93.0337 43.6647C92.913 43.7886 92.7847 43.9817 92.6044 44.089C91.975 44.4637 91.3665 44.7606 90.7648 45.2169C90.4875 45.4271 90.2205 45.5176 89.976 45.7011C89.7329 45.8835 89.6776 46.1854 89.3506 45.9991C89.467 46.5301 88.7678 47.0986 88.4938 47.4239C88.0692 47.9276 87.5603 48.5704 87.7583 49.3156C88.1461 50.7744 89.8981 51.8823 91.0193 52.5236C92.4185 53.3238 93.9616 53.9607 95.5195 54.2243C96.2941 54.3554 97.0946 54.4363 97.8749 54.5194C98.4825 54.5841 99.4149 54.3472 99.852 54.958C99.8655 54.2457 101.858 54.3086 102.282 54.2175C101.432 50.9723 99.7623 48.087 97.9772 45.3913C97.1011 44.068 96.2407 42.707 95.2422 41.4939C94.1489 40.1659 92.8998 38.979 91.713 37.757C89.3853 35.3602 86.7527 33.2211 84.0738 31.3367C81.4011 29.4567 78.6331 27.6065 75.705 26.2661C72.3607 24.7352 68.8398 23.7283 65.315 22.8708C65.7932 22.1906 66.5709 21.8589 67.1831 21.3612C67.3975 21.187 67.6872 20.7689 67.9656 20.7117C68.2672 20.6498 68.5046 21.0119 68.7192 21.1938C69.3353 21.7155 69.7614 21.4939 70.467 21.4625C70.8893 21.4437 71.8891 21.7062 72.0671 21.0686C72.3039 21.4205 71.9606 21.7026 71.7849 21.9606C71.9128 22.1598 72.0159 21.9531 72.1422 21.922C72.1811 21.886 72.22 21.8498 72.2589 21.8138C72.3216 21.7125 72.3782 21.7119 72.4284 21.8118C72.5038 21.9384 72.5796 21.9104 72.6559 21.7277C72.6769 21.7131 72.6977 21.6983 72.7187 21.6837C72.8099 21.6294 72.898 21.5436 72.9828 21.476C73.6241 20.9644 74.1955 20.5286 74.9034 20.1518C75.4978 19.8356 75.1782 19.2304 75.5701 18.8031C75.6587 18.7064 75.808 18.7549 75.9028 18.673C75.9956 18.5925 76.0096 18.5012 76.0774 18.4149C76.2402 18.2076 76.0464 17.967 76.4618 18.2208L76.3119 17.2793C77.1265 18.1615 77.1232 15.6228 77.2345 15.2471C77.2199 15.2968 77.3077 14.9123 77.3076 14.9156C77.3315 14.1538 77.4247 13.6016 76.6254 13.5574C76.928 13.3449 77.0205 13.7599 77.1603 13.3303C77.2302 13.115 77.0118 12.7451 77.3599 12.8839C77.4333 12.4264 77.3608 12.0562 77.2695 11.6116C77.1759 11.1566 77.231 10.853 77.2352 10.3979C77.24 9.88178 77.0235 9.36304 76.9542 8.85478C76.9 8.45672 76.9559 7.82892 76.495 7.97515C76.4302 7.86193 76.6578 7.51366 76.6486 7.34147C76.6342 7.07399 76.3742 6.80221 76.3005 6.54535C76.1922 6.67019 76.0395 6.7118 75.892 6.65541C76.0305 6.30643 75.9005 6.18919 75.768 5.88828C75.692 5.71594 75.7379 5.52566 75.5753 5.40211C75.4821 5.33122 75.3233 5.45061 75.2503 5.36753C75.0937 5.18959 75.1515 4.95354 75.0438 4.71907C74.9087 4.42504 74.6001 4.20047 74.3875 3.97977C73.1921 2.73925 71.8936 1.79117 70.3034 1.30644C68.6992 0.817399 66.8289 0.64219 65.2301 1.20627C64.591 1.43171 64.0237 1.4086 63.4485 1.82962C63.262 1.96623 63.2419 1.92964 63.1472 2.15737C63.1253 2.21046 63.3239 2.35181 63.2023 2.43862C63.0702 2.5329 62.9243 2.34119 62.857 2.18205C62.0248 2.85448 61.2452 3.7509 60.7713 4.77876C60.3003 5.80017 60.2571 7.00009 60.0773 8.11003C59.2479 7.05218 58.1261 6.54506 56.9064 7.05361C55.8433 7.49673 55.0195 8.47078 54.8116 9.73269C54.6847 10.502 54.8233 11.281 55.1362 11.9751C55.2716 12.275 55.4355 12.6071 55.6843 12.809C55.8811 12.9685 56.2181 12.9462 56.3108 13.234C56.4528 13.675 55.6325 14.6274 55.4195 15.0134C55.0343 15.7119 54.6764 16.4333 54.4039 17.1962C53.4269 15.6555 52.4917 13.9727 51.3808 12.5521C50.3323 11.2113 49.0825 10.0088 47.8566 8.87544C45.3125 6.52325 42.667 4.3134 39.821 2.43948C37.1711 0.694567 33.9701 -0.274178 30.8817 0.0683478C27.8641 0.403125 25.5538 2.53376 23.6098 4.99114C19.8718 9.71605 17.5823 16.4505 17.3587 22.7401C17.2915 24.6295 17.4204 26.4942 17.8384 28.3268C18.0375 29.1994 18.0086 30.0577 18.1242 30.9415C18.2548 31.9385 18.4807 32.9319 18.699 33.9085C19.5309 37.629 20.5908 41.3465 21.7801 44.9437C22.3985 46.8143 23.1467 48.643 24.1589 50.2925C24.6264 51.0545 25.232 51.6506 25.7351 52.3741C26.2231 53.0758 26.352 53.9371 26.4594 54.798C26.7167 56.8625 26.8874 58.9358 27.0421 61.0123C27.1078 61.8924 27.1845 62.7647 27.2889 63.6386C27.3799 64.4005 27.151 64.3631 26.5768 64.6218C26.6933 63.9372 23.9501 64.403 23.6911 64.4498C23.4093 64.5006 23.1108 64.5013 22.8888 64.5417C22.6406 64.5868 22.3977 64.6521 22.1119 64.6429C21.6917 64.6294 20.9049 64.5096 20.7445 65.1084C20.6341 64.4142 19.9048 65.1733 20.4444 65.0444C19.8905 65.1136 19.3254 64.9985 18.7649 65.0567C18.1224 65.1233 17.4745 65.1868 16.8366 65.2947C16.3925 65.3697 15.9687 65.5607 15.5239 65.6161C14.9546 65.6871 14.3605 65.6805 13.7857 65.7371C11.6656 65.9458 9.46806 66.4622 7.40716 67.0534C6.94033 67.1872 6.40396 67.2824 5.95795 67.4973C5.83854 67.5547 5.73109 67.6833 5.61669 67.7327C5.42492 67.8153 5.45114 67.7582 5.28084 67.7961C4.26041 68.0238 3.20773 68.3958 2.18743 68.6876C1.6215 68.8496 0.700945 68.9957 0.239254 69.4367C0.0323159 69.6341 -0.14853 69.9844 0.183085 70.2088C0.447992 70.3881 0.826136 70.1019 1.04053 69.9473C0.849529 70.503 0.489251 70.78 0.68385 71.4122C0.837447 71.9119 1.18423 72.5276 1.71777 72.2053C1.78923 72.3909 1.81815 72.7599 2.02856 72.8281C2.21764 72.8894 2.35452 72.6219 2.53974 72.6849C2.60606 72.7074 2.58087 72.8473 2.64025 72.8839C2.74256 72.9468 2.84629 72.9735 2.96351 73.0178C3.06428 73.056 3.22649 73.1343 3.33163 73.1426C3.39834 73.1479 3.55554 73.0205 3.55502 73.0205C3.70823 73.0465 3.79062 73.3738 3.9009 73.4684C4.04409 73.5912 4.16234 73.6192 4.34164 73.6637C4.71439 73.7561 5.19485 73.9145 5.44086 73.4885C5.38456 73.7927 5.75512 73.7628 5.91862 73.8014C5.90049 73.6411 5.82119 73.4943 5.69883 73.4064C6.06437 73.4334 5.91617 73.839 6.18635 73.9462C6.37889 74.0224 6.35704 73.8287 6.50434 73.8072C6.69843 73.7789 6.84573 73.9362 7.14881 73.7911C7.21449 74.117 7.23852 74.4456 7.597 74.4942C7.80741 74.5228 8.29802 74.0986 8.27026 74.4516C8.7403 74.2978 8.91871 74.4018 9.16433 74.8643C9.20585 74.5803 9.40675 74.6627 9.59106 74.6452C9.88322 74.6173 9.89067 74.6436 10.1171 74.4589C10.1378 74.4421 10.316 73.9865 10.3952 74.2697C10.4308 74.3965 10.1954 74.695 10.1083 74.7709C10.2165 74.832 10.5711 75.046 10.7075 75.0066C10.8255 74.9726 10.8259 74.7475 10.9677 74.7359C10.9329 74.8653 10.8984 74.9949 10.8635 75.1243C11.1394 75.1691 11.3698 74.963 11.5877 74.8121C11.7954 75.3984 12.3891 75.0681 12.712 75.5093C12.8828 75.7428 12.8908 75.9201 13.2162 75.9811C13.5492 76.0436 13.8401 75.8804 14.1231 76.1871C14.0334 75.9968 13.8099 75.8389 14.032 75.6344C14.1832 75.8739 14.2612 76.1624 14.4355 76.3851C14.4595 76.2719 14.4835 76.1586 14.5076 76.0453C14.9619 76.5878 15.5339 76.5926 16.1159 76.8933V76.4963C16.5326 77.2063 16.5549 76.757 17.0527 76.467C17.0189 76.6758 16.9849 76.8846 16.9511 77.0932C17.3093 77.0631 17.644 77.5369 17.9381 77.1344C18.1158 77.467 18.3311 77.3033 18.6222 77.4089C18.7877 77.4691 18.911 77.651 19.072 77.7169C19.3136 77.8156 19.3857 77.811 19.613 77.897C19.8152 77.9733 19.9301 78.122 20.1832 78.1696C20.3476 78.2006 20.4967 78.1983 20.654 78.1898C20.7148 78.1865 20.6948 78.0338 20.8299 78.0694C21.0387 78.1247 21.1943 78.4171 21.3446 78.5671C21.5709 77.9323 22.2043 78.7826 22.5104 78.8958C22.5397 78.7331 22.5345 78.537 22.64 78.4032C22.7639 78.7063 22.8112 78.961 23.0684 79.1561C23.2169 79.2688 23.4348 79.3494 23.6063 79.3906C23.7147 79.4166 23.9116 79.3854 23.9797 79.4228C24.0959 79.4863 24.1387 79.6561 24.256 79.672C24.3251 79.6813 24.4274 79.4786 24.4791 79.4944C24.7156 79.5664 24.8469 79.8871 25.0857 80.0606C25.7964 80.5768 26.6907 80.6268 27.4825 80.7401C27.6812 80.7683 27.71 80.7078 27.8714 80.8379C27.9575 80.9075 27.9185 81.119 28.0244 81.1783C28.4235 81.4016 28.4237 80.9252 28.5074 80.6291C28.6394 80.8236 28.6622 81.0803 28.8427 81.235C28.9413 81.2318 29.04 81.2343 29.1385 81.2424C29.194 81.3132 29.2305 81.3948 29.2475 81.4874C29.4866 81.6676 29.7574 81.6049 30.0043 81.7402C30.0853 81.7846 30.2287 82.0528 30.3285 82.1298C30.507 82.2679 30.7831 82.3416 30.9871 82.4016C31.4148 82.5273 32.0282 82.3603 32.2827 82.8589C32.6206 82.4545 32.4899 82.9374 32.7193 83.0389C32.8548 83.0987 33.0585 82.8606 33.2088 82.8843C33.4793 82.9268 33.5768 83.2538 33.6634 83.4916C33.8282 83.4506 33.7151 82.9301 33.7104 82.816C33.9152 82.789 33.9607 83.391 33.996 83.5233C34.3193 83.3495 33.7887 82.8087 34.1363 82.6352C34.1044 83.096 34.4333 83.4754 33.8459 83.5414C33.927 83.8189 35.8216 84.1271 35.9532 83.8822C35.9824 84.3351 36.2549 83.912 36.3554 83.7571C36.3667 84.0212 36.2861 84.3962 36.5516 84.519C36.7321 84.6024 37.139 84.3867 37.2099 84.1893C37.2907 84.4909 37.4262 84.4811 37.5946 84.6727C37.7102 84.8043 37.7865 85.0325 37.9078 85.1427C38.1311 85.3454 38.5464 85.3144 38.8065 85.2691C39.3155 85.1804 39.2553 85.0715 39.4367 85.6621C39.4777 85.438 39.6062 84.9692 39.8304 85.3177C39.9731 85.5391 39.6693 86.0272 39.5816 86.2216C39.7777 86.1014 39.9724 85.9587 40.1956 85.9069C40.208 85.9837 40.2195 86.1466 40.1866 86.2176C40.1932 86.2033 40.4313 86.3815 40.5196 86.4308C40.4984 86.4189 40.5894 85.9752 40.5868 85.9897C40.9008 86.2061 40.683 86.6198 40.9611 86.8332C41.033 86.8884 41.2016 86.824 41.2885 86.8576C41.4398 86.9161 41.5706 87.0744 41.7051 87.167C41.5977 87.0063 41.6132 86.7365 41.6205 86.5509C41.6889 86.5931 41.7377 86.751 41.8067 86.7635C41.8328 86.7682 42.1034 86.8082 42.1016 86.8068C42.3832 87.0269 42.3252 87.0546 42.0835 87.3194C42.1698 87.4709 42.5309 87.2076 42.6286 87.1638C42.649 87.2231 42.6543 87.4383 42.6927 87.4768C42.716 87.5405 42.7394 87.6042 42.7628 87.6679C42.8349 87.6079 42.9122 87.5878 42.9948 87.6078C43.0469 87.628 43.4543 87.813 43.4819 87.7497C43.3928 87.7176 43.312 87.6682 43.2397 87.6018C43.4748 87.3659 43.6295 87.2404 43.846 87.5811C43.8733 87.624 43.7796 87.7781 43.8073 87.8341C43.9108 88.0424 44.1234 88.2082 44.2677 88.3779C44.3275 88.1436 44.1884 87.5569 44.5203 87.5782C44.7855 87.5952 44.9871 88.3124 44.8954 88.5353C45.0008 88.4066 45.6301 88.2788 45.7488 88.319C46.0847 88.4326 45.9905 88.7793 46.4037 88.2713C46.6855 88.4884 46.4371 88.5707 46.4879 88.8353C46.5623 88.8526 46.6328 88.8321 46.6995 88.7737C46.6496 89.8983 47.3929 89.039 47.8755 89.2108C48.065 89.2782 48.1135 89.5183 48.3168 89.5885C48.4244 89.6255 48.544 89.5378 48.6487 89.5592C48.7325 89.5459 48.8158 89.5294 48.8985 89.5097C49.0034 89.451 49.0526 89.5166 49.0462 89.7066C49.2149 89.8042 49.1511 89.8423 49.3483 89.8613C49.4753 89.8736 49.5921 89.7261 49.7364 89.7512C49.9854 89.7948 49.9525 90.0082 50.1116 90.1197C50.2548 90.2201 50.4163 90.2168 50.5926 90.1975C50.6824 90.1876 50.9348 90.0583 50.9651 90.0579C51.1535 90.055 51.0513 90.0102 51.2776 90.1909C51.4536 90.3318 51.5276 90.423 51.7437 90.4879C51.9917 90.5621 52.4315 90.7244 52.5984 90.5244C52.8237 90.9015 53.0002 90.6247 53.2976 90.6496C53.4498 90.6625 53.4739 90.7287 53.6094 90.7551C53.8289 90.7979 54.1028 90.7608 54.3364 90.8445C54.7044 90.9765 54.7459 91.0428 55.122 91.0606C55.1898 91.031 55.2577 91.0013 55.3254 90.9718C55.3458 91.0982 55.3991 91.2014 55.4856 91.2813C55.696 91.3305 55.8342 91.212 56.0077 91.0821C56.137 91.5317 56.5565 91.571 56.9154 91.6301C57.4944 91.7256 58.0482 91.7777 58.6065 91.9902C59.0781 92.1696 59.5506 92.371 60.0042 92.6008C60.4034 92.8029 60.7801 93.1053 61.2318 92.9634C62.2552 92.6416 63.2469 91.4689 64.1031 90.7954C65.1172 89.9979 66.2109 89.3407 67.2705 88.6236C71.489 85.7689 75.9456 83.354 80.105 80.3931C82.3757 78.7766 84.4828 76.8559 86.9215 75.5481C86.5743 77.1496 85.9833 78.7754 86.0901 80.4522C86.133 81.1279 86.3113 81.9262 86.7807 82.3979C87.361 82.9812 88.0074 82.6098 88.5624 82.1931C89.7517 81.3004 90.5448 79.9977 91.4349 78.7746C92.4877 77.3276 93.3043 75.7729 94.0774 74.1237C94.2626 74.414 94.1217 74.9003 94.1244 75.2222C94.128 75.6329 94.2273 76.0286 94.3978 76.3953C94.8382 77.3415 95.6762 77.5709 96.4334 76.9226C97.8907 75.6749 98.7365 73.4529 99.5173 71.6635C99.9627 72.5884 100.595 73.7528 101.664 73.0921C102.547 72.547 103.065 71.3288 103.335 70.2971C104.123 67.2854 103.874 64.2176 103.995 61.1304Z" fill="#183E46"/>
<path fill-rule="evenodd" clip-rule="evenodd" d="M102.681 43.4925C102.584 43.2201 102.541 43.2647 102.719 43.0006C102.858 43.1588 102.747 43.2896 102.681 43.4925ZM106.968 59.9776C106.696 59.0811 106.864 58.1076 106.699 57.1881C106.623 56.7662 106.503 56.3569 106.46 55.9274C106.441 55.7368 106.294 54.8788 106.394 54.7438C106.087 54.5284 106.086 54.369 106.015 53.9467C106.125 53.8122 106.111 53.6975 105.974 53.6023C105.885 53.4768 105.795 53.3512 105.706 53.2258C106.097 53.4476 105.865 52.8798 105.825 52.5526C105.794 52.2939 105.773 52.0241 105.698 51.7762C105.607 51.4715 105.403 51.3174 105.827 51.3174C105.687 51.1337 105.479 50.9441 105.409 50.7191C105.31 50.3953 105.474 49.9674 105.271 49.6814C105.157 49.5219 104.572 49.4594 104.674 49.1149C104.727 48.9393 104.964 49.0703 105.037 48.9473C105.326 48.4638 104.474 48.2635 104.432 48.0578C104.378 47.7912 104.686 47.7316 104.705 47.4823C104.723 47.2383 104.396 46.8373 104.309 46.619C104.192 46.6522 104.062 46.8683 103.927 46.7651C103.902 46.7456 103.94 45.9008 103.91 45.7887C103.879 45.6784 103.818 45.386 103.796 45.3319C103.708 45.1169 103.458 45.0122 103.419 44.7583C103.395 44.6068 103.907 44.3774 103.32 44.3702C103.531 43.9392 103.144 43.6772 103.004 43.3089C102.823 42.8353 102.716 42.3238 102.53 41.8478C102.35 41.385 102.148 40.946 101.887 40.5368C101.651 40.1663 101.55 39.81 101.361 39.4188C101.323 39.3844 101.286 39.3501 101.248 39.3157C101.091 39.342 101.04 39.2591 101.097 39.0668C100.977 38.8604 100.887 38.6402 100.781 38.4246C100.658 38.1742 100.492 37.97 100.365 37.7264C100.196 37.4034 100.146 37.0393 99.955 36.7153C99.7203 36.3168 99.4564 35.9653 99.2389 35.5519C98.9663 35.0339 98.6645 34.712 98.3215 34.3108C98.1583 34.1198 98.1386 33.6426 97.9386 33.3714C97.7208 33.076 97.5057 32.9959 97.3547 32.6081C97.1583 32.1036 96.87 31.8627 96.5894 31.4266C96.3579 31.0669 96.2448 30.6535 95.9898 30.3055C95.7705 30.0066 95.5216 29.7335 95.2874 29.4501C94.9919 29.0922 94.7737 28.6573 94.4661 28.317C94.5104 28.3661 94.1983 28.0794 94.214 28.0886C94.145 28.0478 93.9221 28.015 93.9546 28.0372C93.4903 27.7208 92.9085 26.563 92.2098 27.1765C91.8422 27.4991 92.0185 28.0909 92.2751 28.4122C92.3853 28.5503 92.958 29.2308 93.0817 28.9438C93.2152 29.1632 93.6265 30.2238 93.9687 29.9199C93.9338 30.2824 94.1149 30.1621 94.2345 30.4071C94.3132 30.5688 94.2749 30.6482 94.3323 30.9005C94.49 31.5942 95.092 32.2717 95.4126 32.8766C96.2106 34.3822 97.0909 35.8101 97.8897 37.3174C98.6509 38.7539 99.5034 40.1169 100.234 41.5728C101.064 43.2283 102.099 44.791 102.725 46.5756C102.746 46.6356 102.92 46.7306 102.963 46.8207C103.038 46.9772 103.022 47.2478 103.071 47.4251C103.238 48.0398 103.511 48.6448 103.821 49.154C104.093 49.6006 104.113 50.2077 104.3 50.7317C104.564 51.4702 104.843 52.201 105.099 52.9432C105.498 54.0985 105.769 55.2058 106.045 56.4119C106.223 57.1935 106.366 57.9747 106.423 58.7818C106.475 59.5241 106.488 60.2973 106.725 61C106.886 60.7107 107.077 60.3359 106.968 59.9776Z" fill="#183E46"/>
<path fill-rule="evenodd" clip-rule="evenodd" d="M11.7084 75.6607C11.4347 75.5784 11.1771 75.4684 11.1191 75C11.0793 75.2208 11.0397 75.4417 11 75.6625C11.3333 75.7749 11.6667 75.8876 12 76C11.9222 75.7957 11.8654 75.708 11.7084 75.6607Z" fill="#183E46"/>
<path fill-rule="evenodd" clip-rule="evenodd" d="M12.533 12.659C12.5573 12.5549 12.5889 12.4529 12.6277 12.3533C12.6541 12.4504 12.7836 12.6603 12.7082 12.7518C12.6122 12.8679 12.5152 12.8022 12.533 12.659ZM14.1071 9.66064C14.2125 9.70715 14.4405 9.71615 14.5713 9.75547C14.232 10.0477 14.1722 9.96175 13.7335 9.92783C13.714 9.63212 13.834 9.54033 14.1071 9.66064ZM11.1657 16.9812C11.2111 16.9824 11.2568 16.9835 11.3026 16.9846C11.3053 16.8559 11.302 16.7273 11.2923 16.5988C11.755 16.7 11.4931 15.8905 11.3478 15.7227C11.7991 15.7378 12.019 14.3072 12.162 14.0315C12.2889 13.7868 12.4327 13.6921 12.5255 13.3936C12.6067 13.1323 12.6945 12.8973 12.8116 12.6502C13.0807 12.082 13.4338 11.566 13.3687 10.9038C13.5967 11.4007 13.7972 10.9047 13.9418 10.6671C14.1749 10.2843 14.7433 9.79589 14.8038 9.34125C14.8571 8.94101 14.5601 8.91983 14.7355 8.54867C14.9127 8.17294 15.0585 8.21059 15.3691 8.09043C15.5757 8.01041 15.6167 8.10759 15.7625 7.84649C15.8569 7.67745 15.8236 7.55147 15.9446 7.41289C15.9945 7.45636 16.0514 7.47436 16.115 7.46688C16.2132 7.33716 16.2776 7.19263 16.3082 7.03328C16.3882 6.81814 16.427 6.62059 16.5475 6.41569C16.6619 6.2216 16.8649 5.7023 16.9725 5.60872C17.0867 5.50931 17.7346 5.55985 17.7318 5.56344C17.9994 5.22648 17.5083 4.89076 18.1883 4.96178C18.054 4.71147 18.5257 4.40081 18.6626 4.26154C19.0046 3.91391 19.0318 3.75304 19.104 3.31584C19.1406 3.09295 18.9014 3.1187 19.2221 3.06789C19.3547 3.04698 19.4819 3.21671 19.5776 3.19179C20.0001 3.08215 19.5581 3.10305 19.6747 2.93069C19.7115 2.87601 19.8994 2.65533 19.8976 2.65769C19.8885 2.66876 19.9399 2.46567 19.9825 2.41347C20.0633 2.40655 20.1428 2.39243 20.2209 2.37111C20.2606 2.29081 20.2957 2.20858 20.3262 2.12441C20.6319 1.86912 21.0893 1.7549 21.3008 1.47442C21.4375 1.29306 21.3966 1.11544 21.5733 0.934636C21.7416 0.762414 21.9643 0.88715 21.9976 0.498128C22.04 0.00319792 21.509 -0.217063 21.2918 0.282435C20.7027 -0.44397 18.2404 2.22118 17.956 2.56936C16.7204 4.08087 15.506 5.62976 14.4925 7.30117C13.505 8.9298 12.6945 10.6434 12.061 12.4397C11.7556 13.3058 11.5696 14.168 11.383 15.0639C11.3204 15.3639 10.8523 16.7008 11.0471 17C11.0866 16.9938 11.1261 16.9874 11.1657 16.9812Z" fill="#183E46"/>
<path fill-rule="evenodd" clip-rule="evenodd" d="M102.06 56C102.86 55.6539 102.86 55.6539 103 55C101.928 55.1269 101.928 55.1269 102.06 56Z" fill="#183E46"/>
<path fill-rule="evenodd" clip-rule="evenodd" d="M65.0078 18.4642C65.1167 19.3882 66.3261 18.9512 66.5981 18.3922C66.7962 17.9853 67.2965 16.3773 66.7582 16.0376C66.3592 15.7858 66.274 16.8711 66.1756 17.1136C66.0108 17.5196 65.882 17.2319 65.5156 17.3361C65.1111 17.451 64.9627 18.081 65.0078 18.4642Z" fill="#183E46"/>
<path fill-rule="evenodd" clip-rule="evenodd" d="M62.732 16.9263C63.4301 17.09 64.1145 17.0056 64.6103 16.4235C64.885 16.1013 65.2504 15.4619 64.7559 15.15C64.3078 14.8676 63.7997 15.5291 63.3278 15.3923C62.686 15.2062 63.0164 14.4798 62.7962 14C61.9871 14.4918 61.5357 16.6458 62.732 16.9263Z" fill="#183E46"/>
<path fill-rule="evenodd" clip-rule="evenodd" d="M63.523 20C62.8922 19.9992 62.8871 20.4879 63.2164 20.6973C63.5314 20.8977 64.3283 21.1006 64.7554 20.9447C65.5981 20.6371 64.0335 20.0317 63.523 20Z" fill="#183E46"/>
<path fill-rule="evenodd" clip-rule="evenodd" d="M34.1682 46.616C34.3285 46.7029 34.8009 47.1501 35 46.9482C34.719 46.6321 34.4379 46.3161 34.1569 46C34.0016 46.1901 33.8951 46.468 34.1682 46.616Z" fill="#183E46"/>
<path fill-rule="evenodd" clip-rule="evenodd" d="M65.7303 56.3411C65.6402 56.1957 65.47 56.4638 65.3549 56.5074C65.1677 56.5782 65.014 56.203 65.0677 56.6528C64.6445 56.4786 64.3876 56.8781 64.1146 57.0862C63.7289 57.3802 63.2572 57.5397 63 57.9572C64.2109 58.2117 65.5413 57.2738 66.4442 56.6577C66.5915 56.5571 67.3279 56.0496 66.8288 56.0005C66.6247 55.9805 65.8817 56.5854 65.7303 56.3411Z" fill="#183E46"/>
<path fill-rule="evenodd" clip-rule="evenodd" d="M64.3415 55.8217C64.601 55.6943 65.3247 55.2965 64.8324 55C64.3877 55.2225 64.0697 55.5857 64 56C64.1138 55.9406 64.2276 55.8812 64.3415 55.8217Z" fill="#183E46"/>
</svg>
