<svg width="62" height="62" viewBox="0 0 62 62" fill="none" xmlns="http://www.w3.org/2000/svg">
<circle cx="31" cy="31" r="29" stroke="#C4D3DD" stroke-opacity="0.5" stroke-width="4"/>
<mask id="path-2-inside-1" fill="white">
<path d="M52.9203 52.9203C57.2557 48.5849 60.2082 43.0612 61.4043 37.0478C62.6005 31.0344 61.9866 24.8013 59.6403 19.1368C57.2939 13.4723 53.3206 8.63077 48.2227 5.22444C43.1248 1.81812 37.1312 4.62894e-07 31 0V3.88451C36.3629 3.88451 41.6054 5.4748 46.0646 8.45429C50.5237 11.4338 53.9991 15.6686 56.0514 20.6234C58.1038 25.5781 58.6407 31.0301 57.5945 36.29C56.5482 41.5499 53.9657 46.3814 50.1735 50.1735L52.9203 52.9203Z"/>
</mask>
<path d="M52.9203 52.9203C57.2557 48.5849 60.2082 43.0612 61.4043 37.0478C62.6005 31.0344 61.9866 24.8013 59.6403 19.1368C57.2939 13.4723 53.3206 8.63077 48.2227 5.22444C43.1248 1.81812 37.1312 4.62894e-07 31 0V3.88451C36.3629 3.88451 41.6054 5.4748 46.0646 8.45429C50.5237 11.4338 53.9991 15.6686 56.0514 20.6234C58.1038 25.5781 58.6407 31.0301 57.5945 36.29C56.5482 41.5499 53.9657 46.3814 50.1735 50.1735L52.9203 52.9203Z" stroke="#1AA874" stroke-width="8" mask="url(#path-2-inside-1)"/>
<path d="M27.6737 37.2318L25.7578 39.1464L31.5028 44.8914L37.2478 39.1464L35.3319 37.2318L31.5028 41.0623L27.6737 37.2318Z" fill="black"/>
<path d="M35.3319 24.1849L37.2478 22.2704L31.5028 16.5254L25.7578 22.2704L27.6737 24.1849L31.5028 20.3558L35.3319 24.1849Z" fill="black"/>
<path fill-rule="evenodd" clip-rule="evenodd" d="M31.5056 26.6465C32.5829 26.6465 33.6161 27.0744 34.3778 27.8362C35.1396 28.598 35.5676 29.6312 35.5676 30.7085C35.5676 31.7858 35.1396 32.819 34.3778 33.5807C33.6161 34.3425 32.5829 34.7705 31.5056 34.7705C30.4283 34.7705 29.3951 34.3425 28.6333 33.5807C27.8716 32.819 27.4436 31.7858 27.4436 30.7085C27.4436 29.6312 27.8716 28.598 28.6333 27.8362C29.3951 27.0744 30.4283 26.6465 31.5056 26.6465ZM31.5056 29.3545C31.8647 29.3545 32.2091 29.4971 32.463 29.7511C32.7169 30.005 32.8596 30.3494 32.8596 30.7085C32.8596 31.0676 32.7169 31.412 32.463 31.6659C32.2091 31.9198 31.8647 32.0625 31.5056 32.0625C31.1465 32.0625 30.8021 31.9198 30.5482 31.6659C30.2942 31.412 30.1516 31.0676 30.1516 30.7085C30.1516 30.3494 30.2942 30.005 30.5482 29.7511C30.8021 29.4971 31.1465 29.3545 31.5056 29.3545Z" fill="black"/>
</svg>
