<?xml version="1.0" encoding="UTF-8"?>
<svg width="18px" height="12px" viewBox="0 0 18 12" version="1.1" xmlns="http://www.w3.org/2000/svg" xmlns:xlink="http://www.w3.org/1999/xlink">
    <!-- Generator: Sketch 55.2 (78181) - https://sketchapp.com -->
    <title>view_simple [#815]</title>
    <desc>Created with Sketch.</desc>
    <g id="Page-1" stroke="none" stroke-width="1" fill="none" fill-rule="evenodd">
        <g id="Test-case-5-Copy-2" transform="translate(-1187.000000, -148.000000)" fill="#03A973">
            <g id="Row" transform="translate(334.000000, 127.000000)">
                <g id="Group-5" transform="translate(18.000000, 9.000000)">
                    <g id="Group-3" transform="translate(822.000000, 0.000000)">
                        <path d="M23.8,18.0005191 C23.8,19.1476771 22.9945,20.0768233 22,20.0768233 C21.0055,20.0768233 20.2,19.1476771 20.2,18.0005191 C20.2,16.853361 21.0055,15.9242149 22,15.9242149 C22.9945,15.9242149 23.8,16.853361 23.8,18.0005191 M22,21.9236958 C19.3099,21.9236958 16.7755,20.4474436 15.1591,18.0005191 C16.7755,15.5535946 19.3099,14.0763042 22,14.0763042 C24.6901,14.0763042 27.2245,15.5535946 28.8409,18.0005191 C27.2245,20.4474436 24.6901,21.9236958 22,21.9236958 M22,12 C18.1516,12 14.7991,14.4168181 13,18.0005191 C14.7991,21.5842201 18.1516,24 22,24 C25.8484,24 29.2009,21.5842201 31,18.0005191 C29.2009,14.4168181 25.8484,12 22,12" id="view_simple-[#815]"></path>
                    </g>
                </g>
            </g>
        </g>
    </g>
</svg>