<?xml version="1.0" encoding="UTF-8"?>
<svg width="24px" height="24px" viewBox="0 0 24 24" version="1.1" xmlns="http://www.w3.org/2000/svg" xmlns:xlink="http://www.w3.org/1999/xlink">
    <!-- Generator: Sketch 58 (84663) - https://sketch.com -->
    <title>iconfinder_logo_brand_brands_logos_firefox_2993692</title>
    <desc>Created with Sketch.</desc>
    <defs>
        <radialGradient cx="26.8229167%" cy="-2.34375%" fx="26.8229167%" fy="-2.34375%" r="87.8484646%" id="radialGradient-1">
            <stop stop-color="#15BEF0" offset="0%"></stop>
            <stop stop-color="#0D91CE" offset="26.80316%"></stop>
            <stop stop-color="#066DB1" offset="53.03907%"></stop>
            <stop stop-color="#0257A0" offset="74.24976%"></stop>
            <stop stop-color="#004E9A" offset="87.7771%"></stop>
        </radialGradient>
        <linearGradient x1="50%" y1="0%" x2="50%" y2="100%" id="linearGradient-2">
            <stop stop-color="#000000" stop-opacity="0" offset="0%"></stop>
            <stop stop-color="#000000" stop-opacity="0.4" offset="100%"></stop>
        </linearGradient>
        <radialGradient cx="73.4374926%" cy="19.3782602%" fx="73.4374926%" fy="19.3782602%" r="72.3290196%" gradientTransform="translate(0.734375,0.193783),scale(0.959132,1.000000),rotate(141.761240),translate(-0.734375,-0.193783)" id="radialGradient-3">
            <stop stop-color="#FFF203" offset="0%"></stop>
            <stop stop-color="#FBC40D" offset="29.84279%"></stop>
            <stop stop-color="#F47E1C" offset="77.65047%"></stop>
            <stop stop-color="#F26322" offset="100%"></stop>
        </radialGradient>
        <linearGradient x1="39.1441599%" y1="35.5753429%" x2="59.4605117%" y2="64.3954942%" id="linearGradient-4">
            <stop stop-color="#FFFFFF" stop-opacity="0.5" offset="0%"></stop>
            <stop stop-color="#FFFFFF" stop-opacity="0.2" offset="100%"></stop>
        </linearGradient>
        <linearGradient x1="41.9187135%" y1="37.6883284%" x2="55.8073464%" y2="62.3116734%" id="linearGradient-5">
            <stop stop-color="#FFFFFF" stop-opacity="0.5" offset="0%"></stop>
            <stop stop-color="#FFFFFF" stop-opacity="0.2" offset="100%"></stop>
        </linearGradient>
        <linearGradient x1="-0.584415833%" y1="26.3752121%" x2="95.3114033%" y2="71.0921683%" id="linearGradient-6">
            <stop stop-color="#FFFFFF" stop-opacity="0.2" offset="0%"></stop>
            <stop stop-color="#FFFFFF" stop-opacity="0" offset="100%"></stop>
        </linearGradient>
    </defs>
    <g id="Page-1" stroke="none" stroke-width="1" fill="none" fill-rule="evenodd">
        <g id="Test-case-11-Copy-8" transform="translate(-916.000000, -478.000000)" fill-rule="nonzero">
            <g id="iconfinder_logo_brand_brands_logos_firefox_2993692" transform="translate(916.000000, 478.000000)">
                <circle id="Oval" fill="url(#radialGradient-1)" cx="12" cy="12" r="12"></circle>
                <circle id="Oval" fill="url(#linearGradient-2)" cx="12" cy="11.864563" r="11.864563"></circle>
                <path d="M20.6663208,6.8831787 L20.184021,6.798645 L20.5560303,6.2068481 C20.5546265,6.2037963 19.7963257,6.685791 19.7949829,6.6828002 C19.6629028,6.3898314 19.3162842,6.5176391 19.0873413,6.3686523 C19.1566772,6.2600708 19.1843262,6.1466064 19.2283935,6.0614624 C19.2954101,5.9320679 19.5302123,5.7216797 19.4904785,5.6034546 L19.5404663,5.3070679 L19.6230469,5.1271973 L19.1171875,5.0914307 L18.8377686,5.0330811 L18.5005494,4.8995362 L18.4489747,5.5007325 L18.3192139,5.630127 C18.3165284,5.6281128 18.3131714,5.624939 18.3105469,5.6229859 C18.017273,5.4052735 17.8897705,4.8493043 17.5299683,4.9779664 C17.170105,5.1066285 17.0314942,4.7788087 16.5733033,4.9869996 C16.1151734,5.1951295 16.2177735,5.0579835 16.0372926,5.2744142 C15.8567506,5.4907838 15.9072267,5.8381349 15.8787233,6.0573121 C15.8532716,6.2528687 15.7104494,6.5340577 15.7406007,6.7496339 C15.7119752,6.7424928 15.6848146,6.7382814 15.6544191,6.7268068 C15.4312746,6.64209 15.539612,6.42334 15.2927248,6.3343507 C15.1410524,6.2796022 15.1448366,6.5225221 15.2003176,6.7831422 C15.1929323,6.789795 15.0559695,6.9115602 14.8262942,6.9454347 C14.5901492,6.9802247 14.5782473,6.7363893 14.3192752,6.7788698 C14.060303,6.8212892 14.5433353,7.3517458 14.7951663,7.5341188 C15.0469363,7.7164308 15.1126712,8.1772462 15.4591067,8.0736696 C15.6078494,8.029175 15.7108767,8.0541994 15.8150637,8.0836794 C16.0080569,8.1980593 16.0501711,8.3968508 16.4343874,8.4537356 C16.6289675,8.4825442 16.7158815,8.506592 16.7706911,8.5212405 L16.7865602,8.5433963 L17.0145265,9.0208133 L17.2700197,8.337952 C17.30011,8.3071292 17.3204958,8.2793582 17.3472292,8.2469486 C17.4515993,8.6765751 17.5866701,9.2287601 17.5833132,9.2291263 C17.0414431,9.2833255 17.0598757,9.9090579 16.6971438,10.1965335 C16.5600588,10.0266116 16.3927615,9.9210208 16.2797244,9.8042606 C16.1080325,9.6268314 15.8966678,9.1362918 15.685303,9.1362918 L15.236145,8.8962402 L14.9917603,8.666626 L14.661499,9.4598389 L14.4171142,9.8773194 L14.0208129,10.3469849 L14.9587401,10.7540284 L15.0966185,11.0321656 C15.0919188,11.0354005 15.0850218,11.0391236 15.0805052,11.0422974 C14.5726317,11.3960572 13.6107176,11.3010865 13.6234129,11.9484253 C13.6361082,12.5958252 13.0347899,12.6417847 13.1221312,13.4900513 C13.2094725,14.3382569 13.0444945,14.0994873 13.2947997,14.5061035 C13.5451049,14.9127197 14.1301879,15.0189819 14.4669188,15.1829223 C14.7673949,15.3292236 15.1420897,15.7103271 15.5046385,15.7780761 C15.477661,15.8202514 15.4563597,15.8615722 15.4214476,15.9042358 C15.1650999,16.217041 14.8721312,15.9250488 14.5960081,16.2736206 C14.4262693,16.4877319 14.8185423,16.6126709 15.2670896,16.6640625 C15.2738645,16.6795654 15.3956296,16.9651489 15.3261716,17.352417 C15.2546994,17.7504883 14.8566281,17.6381836 14.785217,18.0770874 C14.7137448,18.5159912 15.8262937,18.026062 16.2550046,17.7198486 C16.6836545,17.4136352 17.4593503,17.5565185 17.4797971,16.9441528 C17.4885251,16.6812744 17.5842283,16.5292968 17.6877439,16.3777466 C17.9755857,16.1293945 18.3176267,16.1689453 18.6161497,15.5823975 C18.7673338,15.2853394 18.852844,15.1586914 18.9058836,15.0786133 L18.9500731,15.0650025 L19.8399046,14.9562989 L18.8807371,14.1776124 C18.7749632,13.9713746 18.6327513,13.788025 18.549011,13.628296 C18.4664304,13.4707643 18.4104002,13.2244264 18.3298948,13.0062867 C18.4539793,12.980774 18.5730589,12.9067384 18.6854246,12.7149049 C19.002014,12.1743776 19.2839964,12.3197023 19.6683348,11.5899659 C20.0526121,10.8602296 20.0049437,11.1084596 20.0993651,10.6950684 C20.1937865,10.2816772 19.9945067,10.0151978 19.9309691,9.7765503 C19.8674315,9.5379639 19.9218138,9.0065918 19.7371825,8.9036255 L19.461853,8.4752197 L19.4906616,8.348938 C19.7026977,8.3081665 19.8170776,8.1734009 19.9295654,8.0990601 C20.0511474,8.0186768 20.3586425,7.9493409 20.3815918,7.8267212 L20.5695801,7.5922241 L20.7805176,7.5711059 L20.7875977,7.2445068 L20.895813,6.9487915 L20.6663208,6.8831787 Z M17.4941406,8.0738525 C17.5004883,8.0667724 17.508789,8.0557251 17.5150757,8.0491943 C17.5877075,7.9733886 17.7150269,7.895813 17.8219605,7.8098144 C17.8594971,7.8744506 17.9232789,7.927124 18.0516968,7.9539794 C18.1699829,7.9786986 18.2438965,8.0164184 18.3101807,8.0569457 L17.979187,8.666626 L17.4941406,8.0738525 Z" id="Shape" fill="#000000" opacity="0.1"></path>
                <path d="M24,11.9791317 C24,18.6051922 18.6260624,24 12,24 C5.3739376,24 0,18.6051922 0,11.9791317 C0,9.8503952 0.5634553,7.8469343 1.5338825,6.1147885 C0.9182659,5.2382388 0.6991126,3.5060928 2.0869565,2.0660877 C2.0869565,2.6190982 2.4208772,3.5686991 2.796514,4.2782564 C3.0990998,4.841712 3.4229586,5.2500696 3.652174,5.1965227 C4.1746602,5.0744648 6,5.0713105 6.2608695,5.1965227 C6.6886678,4.6434484 7.7321458,3.109566 9.391304,3.109566 C8.4625931,4.0382772 5.8017363,7.283479 10.434783,7.283479 C10.956522,7.283479 11.478261,7.283479 11.478261,7.283479 L8.347826,9.3704357 C8.347826,9.3704357 8.7026367,10.059103 8.347826,10.4139137 C7.9512992,10.0173874 6.2608695,10.841712 6.2608695,11.9791317 C6.2608695,13.1164866 7.4712763,14.5878267 9.913043,14.5878267 C12.3548097,14.5878267 11.73913,13.5443487 13.043478,13.5443487 C14.347826,13.5443487 14.608696,14.5878267 14.608696,14.5878267 C12.8139439,14.5878267 11.5095959,16.6747837 9.391304,16.6747837 C10.434783,17.4469471 11.1234503,17.7182617 12.521739,17.7182617 C15.9756498,17.7182617 18.782608,14.9113025 18.782608,11.4573917 C18.782608,10.059103 18.3234749,8.7756452 17.5513115,7.7321672 C18.9495373,8.7756452 19.8886929,10.3825788 20.0556221,12.2086658 C20.2435036,11.478218 20.347826,10.69561 20.347826,9.8921747 C20.347826,6.7617402 19.0956402,2.5669369 16.7895927,0.9808292 C21.0364933,2.8278065 24,7.0538807 24,11.9791317 Z" id="XMLID_1317_" fill="url(#radialGradient-3)"></path>
                <path d="M6.2608643,11.979126 C6.2608643,10.8416748 7.951294,10.017395 8.3478394,10.4138794 C8.6384277,10.123291 8.454834,9.614563 8.3781738,9.4378662 C8.3580322,9.5455933 8.3158569,9.6487427 8.2317505,9.7328491 C7.8226318,9.3237304 6.0784912,10.1741943 6.0784912,11.3477783 C6.0784912,11.6217651 6.1533203,11.9143677 6.2897339,12.2022095 C6.2799683,12.1276855 6.2608643,12.0514526 6.2608643,11.979126 Z" id="Path" fill="#000000" opacity="0.1"></path>
                <path d="M20.3478394,9.8921509 C20.3478394,10.3302002 20.2549019,11.5756541 20.0588227,12.2078428 C20.0796357,12.3423643 20.1052705,12.4753599 20.1177827,12.6123838 C20.3116304,11.8587217 20.6130983,10.0234985 20.6130983,9.194519 C20.6130983,6.9282836 19.9747316,4.1246948 18.7733156,2.0862426 C18.1505739,1.6600341 17.4896242,1.2852782 16.789612,0.9808349 C19.0956421,2.5668945 20.3478394,6.7617188 20.3478394,9.8921509 Z" id="Path" fill="url(#linearGradient-4)"></path>
                <path d="M17.5513306,7.7321777 C18.3234864,8.7756347 18.7825928,10.059082 18.7825928,11.4573974 C18.7825928,12.0745239 18.6895142,12.6696166 18.522583,13.2330932 C18.8269043,12.4839477 18.9981689,11.6669311 18.9981689,10.8094482 C18.9981689,10.118103 18.8834838,9.4564209 18.6824951,8.8336792 C18.3514404,8.4227905 17.975708,8.0488892 17.5513306,7.7321777 Z" id="Path" fill="url(#linearGradient-5)"></path>
                <path d="M14.6087036,14.5878296 C14.6087036,14.5878296 14.5443115,14.3416138 14.3320923,14.0887451 C12.6613159,14.3390503 10.8178349,16.2577076 8.778101,16.2577076 C8.9970341,16.4197559 9.1991825,16.555193 9.3970585,16.6764698 C11.2205887,16.7617645 12.9724731,14.5878296 14.6087036,14.5878296 Z" id="Path" fill="#000000" opacity="0.1"></path>
                <path d="M2.2022705,2.7539673 C2.1359253,2.4976807 2.0869751,2.255127 2.0869751,2.0661011 C2.0490112,2.1055298 2.0245361,2.1470337 1.9889526,2.1868897 C2.050415,2.3743896 2.1237793,2.5654907 2.2022705,2.7539673 Z" id="Path" fill="#000000" opacity="0.1"></path>
                <path d="M1.1771851,5.3471069 C1.1860962,5.3309936 1.1922608,5.3131103 1.201294,5.2970581 C1.1796876,5.2662353 1.1629639,5.2268066 1.142334,5.1940308 C1.1542969,5.2451172 1.1628418,5.2978516 1.1771851,5.3471069 Z" id="Path" fill="#000000" opacity="0.1"></path>
                <path d="M12,23.729126 C8.1650391,23.729126 4.6986365,21.9761791 2.4273348,19.2374096 C4.6200843,22.1097851 8.1083984,24 12,24 C15.8916016,24 19.3543091,22.1459045 21.5470581,19.2735291 C19.2757568,22.0122986 15.8349609,23.729126 12,23.729126 Z" id="Path" fill="#000000" opacity="0.1"></path>
                <path d="M10.300293,7.2771606 L8.2317505,8.656189 C8.2317505,8.656189 8.4084473,9.0073243 8.3886109,9.3432618 L11.4782715,7.2834473 C11.4782715,7.2834473 10.956543,7.2834473 10.4347534,7.2834473 C10.3851929,7.2834473 10.3482056,7.2778931 10.300293,7.2771606 Z" id="Path" fill="#000000" opacity="0.1"></path>
                <path d="M7.8188362,6.183661 C7.66126872,4.964706 8.9056396,3.5952149 9.3912964,3.1095581 C9.017395,3.1095581 8.6792603,3.1950684 8.3679199,3.3220825 C7.8348999,4.0883789 7.4230843,5.5279603 7.8188362,6.183661 Z" id="Path" fill="#000000" opacity="0.1"></path>
                <path d="M16.7896118,0.980835 C16.8290405,1.0079346 16.8656616,1.041626 16.9044189,1.0702515 C15.4081421,0.3892212 13.7511597,0 12,0 C8.3057861,0 5.0067749,1.6890869 2.8307495,4.3363037 C2.819397,4.3157349 2.8078003,4.2993164 2.7965088,4.2782593 C2.4208984,3.5686646 2.0869751,2.6190796 2.0869751,2.0661011 C0.6990967,3.5061035 0.9182739,5.2382202 1.5338745,6.1147461 C0.5634766,7.8469238 0,9.8504028 0,11.979126 C0,18.6051636 5.3739624,24 12,24 C18.6260376,24 24,18.6051636 24,11.979126 C24,7.053894 21.036499,2.8278198 16.7896118,0.980835 Z" id="Path" fill="url(#linearGradient-6)"></path>
            </g>
        </g>
    </g>
</svg>