<?xml version="1.0" encoding="utf-8"?>
<!-- Generator: Adobe Illustrator 23.0.2, SVG Export Plug-In . SVG Version: 6.00 Build 0)  -->
<svg version="1.1" id="Layer_1" xmlns="http://www.w3.org/2000/svg" xmlns:xlink="http://www.w3.org/1999/xlink" x="0px" y="0px"
	 viewBox="0 0 329 109" style="enable-background:new 0 0 329 109;" xml:space="preserve">
<style type="text/css">
	.st0{fill-rule:evenodd;clip-rule:evenodd;fill:url(#SVGID_1_);}
	.st1{filter:url(#Adobe_OpacityMaskFilter);}
	.st2{fill-rule:evenodd;clip-rule:evenodd;fill:#FFFFFF;}
	.st3{opacity:0.2;mask:url(#mask-3_1_);fill-rule:evenodd;clip-rule:evenodd;fill:#BEF7F6;enable-background:new    ;}
	.st4{filter:url(#Adobe_OpacityMaskFilter_1_);}
	.st5{mask:url(#mask-3_2_);}
	.st6{fill-rule:evenodd;clip-rule:evenodd;fill:#ABD5E2;}
	.st7{fill-rule:evenodd;clip-rule:evenodd;fill:#F4BB7B;}
	.st8{fill-rule:evenodd;clip-rule:evenodd;fill:#20282E;}
	.st9{fill-rule:evenodd;clip-rule:evenodd;fill:#F9F8F6;}
	.st10{fill-rule:evenodd;clip-rule:evenodd;fill:#DEDEDA;}
	.st11{fill-rule:evenodd;clip-rule:evenodd;fill:#68BAD8;}
	.st12{fill-rule:evenodd;clip-rule:evenodd;fill:#0097CB;}
	.st13{fill-rule:evenodd;clip-rule:evenodd;fill:#DB8080;}
	.st14{fill-rule:evenodd;clip-rule:evenodd;fill:#F8F6F4;}
	.st15{fill-rule:evenodd;clip-rule:evenodd;fill:#9ECD8E;}
	.st16{fill-rule:evenodd;clip-rule:evenodd;fill:#DAD9D3;}
	.st17{fill-rule:evenodd;clip-rule:evenodd;fill:#EFEDE9;}
	.st18{fill:none;stroke:#83C170;stroke-width:0.99;stroke-dasharray:1.98,0.33;}
	.st19{filter:url(#Adobe_OpacityMaskFilter_2_);}
	.st20{mask:url(#mask-3_3_);}
	.st21{filter:url(#filter-5);}
	.st22{enable-background:new    ;}
	.st23{fill:#FFFFFF;}
	.st24{filter:url(#Adobe_OpacityMaskFilter_3_);}
	.st25{mask:url(#mask-3_4_);}
	.st26{filter:url(#filter-7);}
	.st27{filter:url(#Adobe_OpacityMaskFilter_4_);}
	.st28{mask:url(#mask-3_5_);fill-rule:evenodd;clip-rule:evenodd;fill:#138893;}
	.st29{filter:url(#Adobe_OpacityMaskFilter_5_);}
	.st30{mask:url(#mask-3_6_);enable-background:new    ;}
</style>
<filter  filterUnits="objectBoundingBox" height="141.2%" id="filter-7" width="108.0%" x="-4.0%" y="-14.7%">
	<feOffset  dx="0" dy="1" in="SourceAlpha" result="shadowOffsetOuter1"></feOffset>
	<feGaussianBlur  in="shadowOffsetOuter1" result="shadowBlurOuter1" stdDeviation="1"></feGaussianBlur>
	
		<feColorMatrix  in="shadowBlurOuter1" type="matrix" values="0 0 0 0 0.0242279581   0 0 0 0 0.444330542   0 0 0 0 0.568387681  0 0 0 1 0">
		</feColorMatrix>
</filter>
<filter  filterUnits="objectBoundingBox" height="124.1%" id="filter-5" width="104.1%" x="-2.0%" y="-8.6%">
	<feOffset  dx="0" dy="1" in="SourceAlpha" result="shadowOffsetOuter1"></feOffset>
	<feGaussianBlur  in="shadowOffsetOuter1" result="shadowBlurOuter1" stdDeviation="1"></feGaussianBlur>
	
		<feColorMatrix  in="shadowBlurOuter1" type="matrix" values="0 0 0 0 0.0242279581   0 0 0 0 0.444330542   0 0 0 0 0.568387681  0 0 0 1 0">
		</feColorMatrix>
</filter>
<title>Group 4</title>
<desc>Created with Sketch.</desc>
<g id="Page-1">
	<g id="Group-4">
		<g id="Rectangle">
			
				<linearGradient id="SVGID_1_" gradientUnits="userSpaceOnUse" x1="-813.1568" y1="253.1697" x2="-812.0104" y2="253.1697" gradientTransform="matrix(287 0 0 -109 233376 27650)">
				<stop  offset="0" style="stop-color:#2FCCA2"/>
				<stop  offset="0.519" style="stop-color:#00A9A6"/>
				<stop  offset="1" style="stop-color:#008ECB"/>
			</linearGradient>
			<path class="st0" d="M13.8,0h301.5c7.6,0,13.8,5.4,13.8,12v85c0,6.6-6.2,12-13.8,12H13.8C6.2,109,0,103.6,0,97V12
				C0,5.4,6.2,0,13.8,0z"/>
		</g>
		<defs>
			<filter id="Adobe_OpacityMaskFilter" filterUnits="userSpaceOnUse" x="166" y="38" width="163" height="79">
				<feColorMatrix  type="matrix" values="1 0 0 0 0  0 1 0 0 0  0 0 1 0 0  0 0 0 1 0"/>
			</filter>
		</defs>
		<mask maskUnits="userSpaceOnUse" x="166" y="38" width="163" height="79" id="mask-3_1_">
			<g class="st1">
				<path id="path-2_1_" class="st2" d="M54,0h263c6.6,0,12,5.4,12,12v85c0,6.6-5.4,12-12,12H54c-6.6,0-12-5.4-12-12V12
					C42,5.4,47.4,0,54,0z"/>
			</g>
		</mask>
		<path id="Fill-1" class="st3" d="M265,48.7c-13.9,13.4-9.5,15.7-21.3,28.3c-11,11.7-34.1,5.3-53.6,10.7
			c-13.5,3.7-27,18.8-23.5,29.4h159.8h2.6V48.9C322,36.2,281.4,32.8,265,48.7"/>
		<defs>
			<filter id="Adobe_OpacityMaskFilter_1_" filterUnits="userSpaceOnUse" x="227.2" y="4.1" width="88.6" height="111.3">
				<feColorMatrix  type="matrix" values="1 0 0 0 0  0 1 0 0 0  0 0 1 0 0  0 0 0 1 0"/>
			</filter>
		</defs>
		<mask maskUnits="userSpaceOnUse" x="227.2" y="4.1" width="88.6" height="111.3" id="mask-3_2_">
			<g class="st4">
				<path id="path-2_2_" class="st2" d="M54,0h263c6.6,0,12,5.4,12,12v85c0,6.6-5.4,12-12,12H54c-6.6,0-12-5.4-12-12V12
					C42,5.4,47.4,0,54,0z"/>
			</g>
		</mask>
		<g id="person" class="st5">
			<g transform="translate(185.000000, 4.000226)">
				<path id="Fill-81" class="st6" d="M42.3,72.9c0.7-0.3,1.5-0.4,2.3-0.4c0,0-0.1-0.1-0.1-0.1c-0.3,0.8-0.5,1.5-0.7,2.3
					c0,0.1,0.1,0.2,0.2,0c0.2-0.8,0.5-1.5,0.7-2.3c0-0.1,0-0.1-0.1-0.1C43.7,72.4,43,72.6,42.3,72.9C42.2,72.9,42.2,73,42.3,72.9"/>
				<path id="Fill-149" class="st6" d="M62.3,60.2c1.4,0,2.8,0.2,4.1,0.1c0.2,0,0.2-0.3,0-0.3c-1.4-0.1-2.8,0-4.1,0.1
					C62.2,60,62.2,60.2,62.3,60.2"/>
				<path id="Fill-150" class="st6" d="M63.9,61.7c-0.1,0.2-0.1,0.4-0.1,0.7c0,0.3,0,0.6,0,0.9c0,0.1,0.2,0.2,0.2,0
					c0.1-0.3,0.3-0.6,0.5-0.9c0.2-0.3,0.5-0.5,0.7-0.7c0.1-0.1,0-0.3-0.2-0.2c-0.6,0.4-1,1.1-1.2,1.8c0.1,0,0.2,0,0.2,0
					c0-0.3,0-0.6,0-0.9C64,62.1,64,61.9,63.9,61.7C63.9,61.7,63.9,61.7,63.9,61.7"/>
				<path id="Fill-151" class="st6" d="M64.4,62.8c0.3,0.1,0.6,0.2,0.8,0.4c0.2,0.1,0.4,0.3,0.6,0.4c0.1,0,0.1-0.1,0.1-0.1
					c-0.2-0.2-0.4-0.4-0.7-0.5c-0.3-0.1-0.6-0.2-0.9-0.3C64.4,62.6,64.3,62.7,64.4,62.8"/>
				<path id="Fill-186" class="st7" d="M92.9,50.2c11.6,1.5,22.7,7.6,30.3,16.5c3.2,3.7,4.3,6.7,6.2,12c0.8,2.2,1.7,9,1.3,11.3
					c-0.3,1.6-1.1,7.8-2.2,9.1c-1.8,2.1-7.1,4.6-14.3,6.4c-6.7,1.7-16.6,1.5-23-1.1c-3.4-1.4-7-2-7.3-4.4c-4.1,0.5-6.6,0.8-10.7,0.9
					c-1.8,0-3.7,0-5.5-0.1c-5.6-0.2-11.2-0.3-16.9-0.5l0.2,0.2c-2.3,0.2-4.6-0.7-6.1-2.5c-1.7-2-2-4.8-1.9-7.4
					c0.2-3.2,1-6.3,2.4-9.2c0.7-1.5,1.9-4.8,2.8-6.2c5.9-8.8,9.7-12.2,19-18.5c3.3-2.3,10.9-5.1,14.8-6.1c3.9-1,8-1.1,11.8,0.1"/>
				<path id="Fill-187" class="st8" d="M87.6,92.2c5.1,1.3,10.7,0.1,15.4-2.2c2-1,3.4-2.6,4.6-4.4c1.1-1.8,2.4-4,1.9-6.1
					c0-0.2-0.4-0.2-0.4,0c0,4.4-3.4,8.9-7.4,10.6C97.3,92,92.6,93.1,87.6,92.2C87.6,92.2,87.6,92.2,87.6,92.2"/>
				<path id="Fill-188" class="st8" d="M67.3,65.8c-0.3,1.8-0.9,3.7-0.9,5.5c0,0.2,0.2,0.2,0.3,0c0.6-1.7,0.7-3.7,0.9-5.4
					C67.7,65.6,67.4,65.5,67.3,65.8"/>
				<path id="Fill-189" class="st8" d="M96.4,69.1c0.1,0.3,0.1,0.6,0.1,0.9c0,0.2,0,0.5,0,0.7c0,0.2,0.3,0.1,0.3,0
					c0.2-0.5,0-1.2-0.1-1.7C96.6,68.8,96.4,68.9,96.4,69.1"/>
				<path id="Fill-190" class="st8" d="M99.8,66.9c0,0.5-0.1,1.1,0,1.6c0.1,0.2,0.4,0.2,0.4,0c0.1-0.5,0-1.1,0-1.6
					C100.2,66.6,99.8,66.6,99.8,66.9"/>
				<path id="Fill-191" class="st8" d="M99.4,74.5c0,0.1,0,0.3,0,0.4c0,0.1,0,0.2,0,0.4c0.1,0.1,0.2,0.1,0.3,0c0.1-0.1,0-0.2,0-0.4
					c0-0.1,0-0.3,0-0.4C99.7,74.3,99.4,74.3,99.4,74.5"/>
				<path id="Fill-192" class="st9" d="M62.1,101l-5.3-25.7c0,0,19.8-13.9,19.3-3.2L82,98.1L62.1,101"/>
				<path id="Fill-193" class="st10" d="M62.3,101l-5.5-25.4c0,0,22.1-11.8,22.1-2.5l3.9,25.1L62.3,101"/>
				<path id="Fill-194" class="st9" d="M62.4,101L56.8,76c0.4-1.2,22.8-9.8,22.6-2l4,24.3L62.4,101"/>
				<path id="Fill-195" class="st9" d="M57.4,99.5l-0.7-23.3c1.9-1.2-11.6-10.8-10-3.2C48.2,80.1,57.4,99.5,57.4,99.5"/>
				<path id="Fill-196" class="st11" d="M65.8,104.6l19.1-3.6c0.7-0.1,1.2-1,1-1.9l-5.6-26.4c-0.2-0.8-0.8-1.2-1.4-1.1
					c-6.4,1.3-12.9,2.3-19.5,2.7L65.8,104.6"/>
				<path id="Fill-197" class="st11" d="M61.2,104.4l-11.5-5.3c-0.3-0.1-0.5-0.5-0.6-0.8l-5-25.9c-0.2-0.9,0.6-1.7,1.3-1.4
					c3.3,1.7,6.5,3,9.4,3.5L61.2,104.4"/>
				<path id="Fill-198" class="st12" d="M64.1,105.8l-2.5-0.2c-0.5,0-0.9-0.5-1.1-1.1l-6.3-29.3c-0.2-0.9,0.1-1.2,0.6-1.1
					c0.3,1,4,1.6,4.6,0.1c0.3,0.2,0.3,0.1,0.5,0.7l6.3,29.3C66.4,105,64.9,105.8,64.1,105.8"/>
				<path id="Fill-199" class="st13" d="M88.2,93.1c-0.1-0.1-0.3-0.2-0.5-0.3c0-0.8-0.2-1.6-0.5-2.1c-0.5-1.2-1.5-2.7-2.9-2.8
					c-0.3,0-0.5,0.3-0.5,0.6c0.1,0.7,0.6,1.4,0.9,2.1c0.1,0.3,0.2,0.6,0.3,0.9c-0.3-0.1-0.6-0.2-0.9-0.3c-0.3-0.3-0.6-0.5-0.9-0.7
					c-0.8-0.6-1.6-1.2-2.4-1.8c-0.8-0.6-1.6-1.4-2.5-1.7c-0.2-0.1-0.5,0.1-0.5,0.4c0,1.2,0.9,2.3,1.8,3.2c-1.3-0.9-2.5-1.8-3.9-2.6
					c-0.6-0.3-1.4,0.4-1,1c0.8,1.3,1.7,2.5,2.7,3.6c-0.9-0.8-1.9-1.6-3-1.9c-0.4-0.1-0.9,0.3-0.7,0.7c0.5,1.8,2.4,3.6,3.8,4.8
					c0.5,0.4,1.2,1,2,1.4c0.1,0.1,0.1,0.1,0.2,0.2c0.8,1.1,1.8,2,3.1,2.5c0.2,0.1,0.4,0.1,0.5,0c0.4,0.1,0.8-0.2,0.9-0.6
					c0.6-2.2,2-4.1,3.9-5.4C88.6,94.1,88.7,93.4,88.2,93.1"/>
				<path id="Fill-200" class="st13" d="M50.7,89.4c-0.1-0.2-0.3-0.3-0.5-0.3c-0.3,0-0.5,0.1-0.8,0.3c0.1-0.4,0.2-0.8,0.2-1.3
					c0-0.3-0.3-0.6-0.6-0.6c-0.7,0-1.3,0.4-1.7,1c-0.1-0.8,0-1.6,0.5-2.3c0.2-0.3-0.1-0.7-0.4-0.7c-1.7-0.1-2.1,1.6-2.2,3.1
					c-0.1,1.2-0.1,2.9,1,3.6c0,0.1,0,0.1,0,0.2c0.1,1.3,0.8,2.3,1.6,3.2c0.8,0.9,2.2,0.2,2.3-1c0-1,0.2-1.9,0.5-2.8
					C50.7,91,51.1,90.2,50.7,89.4"/>
				<path id="Fill-201" class="st7" d="M82.3,100.1c0,1.9,10.7,5.3,13.1,5.3c2.4,0-3.7-7-3.7-9.4s-1.6-3.4-3.9-3.4
					C85.5,92.6,82.3,97.7,82.3,100.1"/>
				<path id="Fill-202" class="st13" d="M88.2,8.3c2.2,0.1,4.4,0.7,6.4,1.6c1,0.5,1.9,1,2.6,1.8c0.8,0.9,1.3,2.1,1.7,3.3
					c2,5.6,2.5,11.8,1.6,17.7l-0.1-0.1c1.5-0.2,2.9-0.1,4.2,0.8c1.3,0.9,1.8,2.7,1.4,4.3c-0.3,1.2-0.9,2.1-1.9,2.9
					c-0.9,0.7-2,1.3-3.2,1c-0.3-0.1-0.8-0.3-1.1-0.6c-1,3-4.1,5.4-7.2,6c-0.1,2,0.2,5.8,0,6.2l-0.2,0.4c-0.8,1.2-1.1,1.3-2.1,2.2
					c-1,0.9-2.3,1.7-3.7,1.8c-1.4,0.1-2.9-0.6-3.5-1.8c-0.4-0.8-0.5-1.7-0.5-2.5c-0.1-2.2,0.2-4.1,0.4-6.4v-0.3
					c-0.9-0.2-1.2-0.4-2.1-0.8c-1.3-0.5-3.1-2.1-3.8-3.3C73.4,36.3,74.4,29,76.1,22c0.8-3.3,1.9-6.7,4-9.4C82.3,9.9,85.6,8,89,8.4"
					/>
				<path id="Fill-203" class="st8" d="M79.8,13.1c-0.7,0.6-1.9-0.2-2.6-0.5c-0.7-0.3-1.9-2.3-2-2.9c-0.3-1.1-0.2-3,0.4-4.5
					c0.5-1.4,0.6-1.8,2.7-3.3C79.3,1,80,1,80.9,0.8c1.1-0.3,2.9-0.6,3.9-0.6c6.6-0.2,11.2,1,15.2,6.1c0.7,0.9,0.9,1.5,1.5,2.7
					l0.9,2.5c1.9-0.2,3.4,1.9,4.1,2.9c2,3,2.4,6.3,1.1,10.4c-0.9,2.8-2.7,5.3-3.5,8.1l-0.1,0.2c-0.8-0.4-1.7-0.6-2.4-0.1
					c-0.7,0.5-1.1,1.4-1.3,2.2c-0.5,1.7,0.1,4.2-0.3,5.9c-0.3,1.7-1.3,2.9-2.7,4c-0.5,0.4-1.5,0.9-2.1,1.2c-1.3,0.6-2.4,1-4.1,1.2
					c-2.7,0.3-5.5,0.4-8.2,0c-2.5-0.4-5.1-0.9-7-2.6c-2.2-2-2.8-5.2-2.7-8.1c0.1-2.2,0.7-4.1,1.4-6.2l0.1-0.1
					c3.6,2.1,7.6,2.2,11.8,2.2c4.2-0.1,8.6,0.6,11-0.5l1.6-0.8c0.4-0.6,0.7-1.6,0.9-1.9c0.3-0.7,0.3-1.3,0.4-1.9
					c0.5-3.2,0-4.7-1.1-7.7c-0.3-0.9-0.9-2.2-1.4-3.1c-0.7-1.2-1.9-2.5-3-3.4c-1.4-1.1-2.9-1.7-4.7-2.1c-1.9-0.4-3.3-0.2-5.5,0.2
					C82.8,11.9,81.3,11.9,79.8,13.1"/>
				<path id="Fill-204" class="st8" d="M92.9,27.6c0,0.6-0.5,1.1-1.2,1.1c-0.6,0-1.1-0.5-1.1-1.2c0-0.6,0.5-1.1,1.2-1.1
					S92.9,27,92.9,27.6"/>
				<path id="Fill-205" class="st8" d="M80.9,27.3c0,0.6-0.5,1.1-1.2,1.1c-0.6,0-1.1-0.5-1.1-1.2c0-0.6,0.5-1.1,1.2-1.1
					C80.4,26.2,80.9,26.7,80.9,27.3"/>
				<path id="Fill-206" class="st8" d="M94.8,20.5c-0.1,0.6-1.6,0.7-2.6,0.6c-1.1-0.2-2.7,0.2-2.4-1.3c0.2-1.3,1.7-1,2.8-0.8
					C93.6,19.2,94.9,20,94.8,20.5"/>
				<path id="Fill-207" class="st8" d="M81.3,20.1c0,1.6-1.6,1.1-2.7,1.1c-1,0-2.1-0.5-2.1-1.1c0-0.6,1-1.1,2.1-1.1
					C79.7,19,81.3,19,81.3,20.1"/>
				<path id="Fill-208" class="st13" d="M83.9,31.2c-0.3-0.4-1.4-1.6-1.7-2.1c-0.3-0.8-0.2-0.9-0.2-1.6l0.1-1.1
					c1.1-3.2,0.7-2.8,2.6-5.9"/>
				<path id="Fill-209" class="st8" d="M84.1,31.1c-0.6-0.8-1.5-1.5-1.7-2.5c-0.2-0.7,0-1.6,0.2-2.3c0.5-2,1.5-3.7,2.5-5.6
					c0.2-0.4-0.3-0.7-0.6-0.3c-1.3,1.8-2.2,4-2.6,6.2c-0.4,2.3,0.6,3.2,1.9,4.8C83.9,31.6,84.2,31.3,84.1,31.1"/>
				<path id="Fill-210" class="st9" d="M86.8,34.2c0,1-1.2,1.7-2.2,1.7c-1,0-1.8-0.7-1.8-1.7s0.8-0.6,1.8-0.6
					C85.7,33.6,86.8,33.2,86.8,34.2"/>
				<path id="Fill-211" class="st8" d="M104.2,36.2c-0.6,0.2-1.1,0.6-1.6,1c-0.4,0.4-0.9,0.9-0.9,1.5c0,0.1,0.1,0.2,0.2,0.1
					c0.4-0.3,0.6-0.8,1-1.2c0.4-0.4,0.9-0.8,1.4-1.2C104.5,36.4,104.4,36.2,104.2,36.2"/>
				<path id="Fill-212" class="st8" d="M84.5,29.5c0.1,0.2,0.3,0.4,0.4,0.6c0.1,0.2,0.3,0.5,0.6,0.4c0.1,0,0.2-0.1,0.2-0.2
					c0-0.3-0.3-0.4-0.4-0.5c-0.2-0.2-0.3-0.3-0.5-0.5C84.7,29.1,84.4,29.3,84.5,29.5"/>
				<path id="Fill-213" class="st8" d="M66.6,79.9c3-0.2,6.3-0.4,9.2-1.1c0.2,0,0.1-0.3,0-0.3C72.7,78.5,69.5,79.3,66.6,79.9
					C66.5,79.9,66.5,79.9,66.6,79.9"/>
				<path id="Fill-214" class="st8" d="M68.6,83.2c1.4,0.1,3.3-0.3,4.6-0.7c0.1,0,0.1-0.2,0-0.2c-0.7,0.1-1.4,0.2-2.1,0.4
					C70.3,82.8,69.4,82.8,68.6,83.2C68.6,83.1,68.6,83.2,68.6,83.2"/>
				<path id="Fill-215" class="st8" d="M62.8,102.1c-0.7-5.7-1.8-11.7-3.4-17.3c0-0.1-0.3-0.1-0.2,0C59.8,90.6,61.2,96.6,62.8,102.1
					C62.8,102.2,62.8,102.1,62.8,102.1"/>
				<path id="Fill-216" class="st8" d="M59,81.1c0.3,0,0.3-0.5,0-0.5C58.7,80.6,58.7,81.1,59,81.1"/>
				<path id="Fill-256" class="st14" d="M120,111.4h-7.2c-0.8,0-1.5-0.6-1.6-1.5l-1.1-16.5c-0.1-0.9,0.7-1.7,1.6-1.7h9.6
					c0.9,0,1.7,0.8,1.6,1.7l-1.3,16.5C121.5,110.8,120.8,111.4,120,111.4"/>
				<polyline id="Fill-257" class="st15" points="122.1,105.6 110.7,105.6 110.1,98.8 122.9,98.8 122.1,105.6 				"/>
				<polyline id="Fill-258" class="st16" points="122.8,93 110.1,92.8 110.3,96.4 122.7,96.2 122.8,93 				"/>
				<path id="Fill-259" class="st17" d="M122.4,94.4h-12c-0.8,0-1.4-0.6-1.4-1.4v-0.6c0-2.8,2.3-5.1,5.1-5.1h4.6
					c2.8,0,5.1,2.3,5.1,5.1V93C123.8,93.8,123.1,94.4,122.4,94.4"/>
				<path id="Stroke-260" class="st18" d="M117.8,102.2c0,1.1-0.9,2-1.9,2c-1.1,0-1.9-0.9-1.9-2c0-1.1,0.9-2,1.9-2
					C117,100.2,117.8,101.1,117.8,102.2z"/>
				<path id="Fill-261" class="st8" d="M120.4,105.2c0.5-1.8,0.9-3.8,0.9-5.7c0-0.2-0.2-0.2-0.3,0
					C120.5,101.2,120.4,103.3,120.4,105.2C120.4,105.2,120.4,105.2,120.4,105.2"/>
				<path id="Fill-262" class="st8" d="M119.3,104.6c0-1.2,0-2.4-0.2-3.7c0-0.1-0.2-0.1-0.2,0C119,102.1,119.1,103.3,119.3,104.6
					C119.3,104.6,119.3,104.6,119.3,104.6"/>
				<path id="Fill-263" class="st8" d="M110.3,91.4c3.7,0.8,7.6,1.1,11.4,0.7c0.1,0,0.1-0.2,0-0.2C117.9,91.9,114.1,91.8,110.3,91.4
					C110.2,91.3,110.2,91.4,110.3,91.4"/>
			</g>
		</g>
		<defs>
			<filter id="Adobe_OpacityMaskFilter_2_" filterUnits="userSpaceOnUse" x="10.4" y="36.9" width="176" height="28">
				<feColorMatrix  type="matrix" values="1 0 0 0 0  0 1 0 0 0  0 0 1 0 0  0 0 0 1 0"/>
			</filter>
		</defs>
		<mask maskUnits="userSpaceOnUse" x="10.4" y="36.9" width="176" height="28" id="mask-3_3_">
			<g class="st19">
				<path id="path-2_3_" class="st2" d="M12,0h263c6.6,0,12,5.4,12,12v85c0,6.6-5.4,12-12,12H12c-6.6,0-12-5.4-12-12V12
					C0,5.4,5.4,0,12,0z"/>
			</g>
		</mask>
		<g id="Knowledge-base" class="st20">
			<g class="st21">
				<g class="st22">
					<path class="st23" d="M13.8,56V38.8H16v8.5l8.5-8.5h3.1l-7.2,7L28,56h-3l-6.1-8.7L16,50v6H13.8z"/>
					<path class="st23" d="M28.9,56V43.6h1.9v1.8c0.9-1.4,2.2-2.1,4-2.1c0.8,0,1.4,0.1,2.1,0.4s1.1,0.6,1.4,1.1s0.5,1,0.7,1.6
						c0.1,0.4,0.1,1.1,0.1,2.1V56h-2.1v-7.6c0-0.9-0.1-1.5-0.2-1.9s-0.5-0.8-0.9-1s-0.9-0.4-1.5-0.4c-0.9,0-1.7,0.3-2.3,0.9
						s-1,1.7-1,3.2V56H28.9z"/>
					<path class="st23" d="M40.9,49.8c0-2.3,0.6-4,1.9-5.1c1.1-0.9,2.4-1.4,3.9-1.4c1.7,0,3.1,0.6,4.2,1.7s1.6,2.7,1.6,4.6
						c0,1.6-0.2,2.9-0.7,3.8s-1.2,1.6-2.1,2.1s-1.9,0.8-3,0.8c-1.7,0-3.2-0.6-4.2-1.7S40.9,51.9,40.9,49.8z M43,49.8
						c0,1.6,0.3,2.8,1,3.6s1.6,1.2,2.6,1.2c1,0,1.9-0.4,2.6-1.2s1-2,1-3.6c0-1.5-0.3-2.7-1-3.5S47.7,45,46.7,45
						c-1.1,0-1.9,0.4-2.6,1.2S43,48.2,43,49.8z"/>
					<path class="st23" d="M56.6,56l-3.8-12.4H55l2,7.2l0.7,2.7c0-0.1,0.2-1,0.6-2.6l2-7.3h2.2l1.9,7.2l0.6,2.4l0.7-2.4l2.1-7.2h2.1
						L66,56h-2.2l-2-7.5l-0.5-2.1L58.8,56H56.6z"/>
					<path class="st23" d="M71,56V38.8h2.1V56H71z"/>
					<path class="st23" d="M84.2,52l2.2,0.3c-0.3,1.3-1,2.3-1.9,3s-2.1,1.1-3.6,1.1c-1.8,0-3.3-0.6-4.3-1.7S75,51.9,75,49.9
						c0-2.1,0.5-3.7,1.6-4.9s2.5-1.7,4.2-1.7c1.7,0,3,0.6,4.1,1.7s1.6,2.7,1.6,4.8c0,0.1,0,0.3,0,0.6h-9.3c0.1,1.4,0.5,2.4,1.2,3.1
						s1.6,1.1,2.6,1.1c0.8,0,1.4-0.2,2-0.6S83.9,52.9,84.2,52z M77.3,48.6h6.9c-0.1-1-0.4-1.8-0.8-2.4c-0.7-0.8-1.5-1.2-2.6-1.2
						c-1,0-1.8,0.3-2.4,1S77.4,47.5,77.3,48.6z"/>
					<path class="st23" d="M96.5,56v-1.6c-0.8,1.2-1.9,1.9-3.5,1.9c-1,0-1.9-0.3-2.7-0.8s-1.5-1.3-1.9-2.3s-0.7-2.1-0.7-3.4
						c0-1.2,0.2-2.4,0.6-3.4s1-1.8,1.9-2.3s1.8-0.8,2.8-0.8c0.8,0,1.4,0.2,2,0.5s1.1,0.7,1.4,1.2v-6.2h2.1V56H96.5z M89.8,49.8
						c0,1.6,0.3,2.8,1,3.6s1.5,1.2,2.4,1.2c0.9,0,1.7-0.4,2.3-1.1s1-1.9,1-3.5c0-1.7-0.3-3-1-3.8S94.1,45,93.1,45
						c-0.9,0-1.7,0.4-2.3,1.1S89.8,48.1,89.8,49.8z"/>
					<path class="st23" d="M100.7,57l2.1,0.3c0.1,0.6,0.3,1.1,0.7,1.4c0.5,0.4,1.2,0.6,2.1,0.6c1,0,1.7-0.2,2.3-0.6s0.9-0.9,1.1-1.6
						c0.1-0.4,0.2-1.3,0.2-2.7c-0.9,1.1-2.1,1.6-3.4,1.6c-1.7,0-3-0.6-4-1.9s-1.4-2.7-1.4-4.4c0-1.2,0.2-2.3,0.6-3.3
						s1.1-1.8,1.9-2.3s1.8-0.8,2.9-0.8c1.5,0,2.7,0.6,3.6,1.8v-1.5h1.9v10.8c0,1.9-0.2,3.3-0.6,4.1s-1,1.4-1.9,1.9s-1.9,0.7-3.2,0.7
						c-1.5,0-2.7-0.3-3.6-1S100.7,58.4,100.7,57z M102.5,49.6c0,1.6,0.3,2.8,1,3.6s1.5,1.1,2.4,1.1c1,0,1.8-0.4,2.4-1.1s1-1.9,1-3.5
						c0-1.5-0.3-2.7-1-3.4s-1.5-1.2-2.4-1.2c-0.9,0-1.7,0.4-2.4,1.1S102.5,48.1,102.5,49.6z"/>
					<path class="st23" d="M122.3,52l2.2,0.3c-0.3,1.3-1,2.3-1.9,3s-2.1,1.1-3.6,1.1c-1.8,0-3.3-0.6-4.3-1.7s-1.6-2.7-1.6-4.7
						c0-2.1,0.5-3.7,1.6-4.9s2.5-1.7,4.2-1.7c1.7,0,3,0.6,4.1,1.7s1.6,2.7,1.6,4.8c0,0.1,0,0.3,0,0.6h-9.3c0.1,1.4,0.5,2.4,1.2,3.1
						s1.6,1.1,2.6,1.1c0.8,0,1.4-0.2,2-0.6S122,52.9,122.3,52z M115.4,48.6h6.9c-0.1-1-0.4-1.8-0.8-2.4c-0.7-0.8-1.5-1.2-2.6-1.2
						c-1,0-1.8,0.3-2.4,1S115.5,47.5,115.4,48.6z"/>
					<path class="st23" d="M132.7,56V38.8h6.4c1.3,0,2.4,0.2,3.2,0.5s1.4,0.9,1.9,1.6c0.4,0.7,0.7,1.5,0.7,2.3
						c0,0.7-0.2,1.4-0.6,2.1c-0.4,0.6-1,1.2-1.8,1.6c1,0.3,1.8,0.8,2.4,1.6s0.8,1.6,0.8,2.6c0,0.8-0.2,1.6-0.5,2.2s-0.8,1.2-1.3,1.6
						c-0.5,0.4-1.1,0.7-1.9,0.8s-1.7,0.3-2.8,0.3H132.7z M135,46h3.7c1,0,1.7-0.1,2.2-0.2c0.6-0.2,1-0.5,1.3-0.9s0.4-0.9,0.4-1.5
						c0-0.6-0.1-1.1-0.4-1.5s-0.7-0.7-1.2-0.9s-1.4-0.2-2.6-0.2H135V46z M135,54h4.3c0.7,0,1.3,0,1.5-0.1c0.5-0.1,1-0.3,1.3-0.5
						s0.6-0.5,0.9-1s0.3-0.9,0.3-1.4c0-0.6-0.2-1.2-0.5-1.7s-0.8-0.8-1.4-1s-1.4-0.3-2.5-0.3h-4V54z"/>
					<path class="st23" d="M156,54.5c-0.8,0.7-1.5,1.1-2.3,1.4s-1.5,0.4-2.3,0.4c-1.4,0-2.4-0.3-3.2-1s-1.1-1.5-1.1-2.6
						c0-0.6,0.1-1.2,0.4-1.7s0.6-0.9,1.1-1.2s1-0.5,1.5-0.7c0.4-0.1,1-0.2,1.9-0.3c1.7-0.2,3-0.4,3.8-0.7c0-0.3,0-0.5,0-0.6
						c0-0.9-0.2-1.5-0.6-1.8c-0.5-0.5-1.3-0.7-2.4-0.7c-1,0-1.7,0.2-2.2,0.5s-0.8,1-1,1.8l-2.1-0.3c0.2-0.9,0.5-1.6,0.9-2.1
						s1.1-1,1.9-1.3s1.8-0.4,2.8-0.4c1.1,0,1.9,0.1,2.6,0.4s1.2,0.6,1.5,0.9s0.5,0.9,0.7,1.4c0.1,0.4,0.1,1,0.1,1.9v2.8
						c0,2,0,3.2,0.1,3.7s0.3,1,0.5,1.5h-2.2C156.2,55.6,156.1,55.1,156,54.5z M155.8,49.8c-0.8,0.3-1.9,0.6-3.4,0.8
						c-0.9,0.1-1.5,0.3-1.8,0.4s-0.6,0.4-0.8,0.7s-0.3,0.6-0.3,1c0,0.6,0.2,1,0.6,1.4s1,0.6,1.9,0.6c0.8,0,1.5-0.2,2.2-0.5
						s1.1-0.8,1.4-1.5c0.2-0.5,0.3-1.2,0.3-2.1V49.8z"/>
					<path class="st23" d="M159.7,52.3l2.1-0.3c0.1,0.8,0.4,1.5,1,1.9s1.3,0.7,2.2,0.7c1,0,1.7-0.2,2.2-0.6s0.7-0.9,0.7-1.4
						c0-0.5-0.2-0.9-0.6-1.1c-0.3-0.2-1-0.4-2.2-0.7c-1.5-0.4-2.6-0.7-3.2-1s-1.1-0.7-1.4-1.2s-0.5-1.1-0.5-1.7
						c0-0.6,0.1-1.1,0.4-1.5s0.6-0.9,1-1.2c0.3-0.2,0.8-0.4,1.3-0.6s1.2-0.3,1.8-0.3c1,0,1.8,0.1,2.6,0.4s1.3,0.7,1.6,1.1
						s0.6,1.1,0.7,1.9l-2.1,0.3c-0.1-0.6-0.4-1.1-0.8-1.5s-1.1-0.5-1.9-0.5c-1,0-1.7,0.2-2.1,0.5s-0.6,0.7-0.6,1.1
						c0,0.3,0.1,0.5,0.3,0.7c0.2,0.2,0.4,0.4,0.8,0.6c0.2,0.1,0.8,0.3,1.9,0.5c1.5,0.4,2.5,0.7,3.1,1s1.1,0.6,1.4,1.1
						s0.5,1.1,0.5,1.8c0,0.7-0.2,1.4-0.6,2s-1,1.1-1.8,1.4s-1.6,0.5-2.6,0.5c-1.6,0-2.8-0.3-3.7-1S160,53.6,159.7,52.3z"/>
					<path class="st23" d="M180.5,52l2.2,0.3c-0.3,1.3-1,2.3-1.9,3s-2.1,1.1-3.6,1.1c-1.8,0-3.3-0.6-4.3-1.7s-1.6-2.7-1.6-4.7
						c0-2.1,0.5-3.7,1.6-4.9s2.5-1.7,4.2-1.7c1.7,0,3,0.6,4.1,1.7s1.6,2.7,1.6,4.8c0,0.1,0,0.3,0,0.6h-9.3c0.1,1.4,0.5,2.4,1.2,3.1
						s1.6,1.1,2.6,1.1c0.8,0,1.4-0.2,2-0.6S180.1,52.9,180.5,52z M173.5,48.6h6.9c-0.1-1-0.4-1.8-0.8-2.4c-0.7-0.8-1.5-1.2-2.6-1.2
						c-1,0-1.8,0.3-2.4,1S173.6,47.5,173.5,48.6z"/>
				</g>
			</g>
			<g>
				<g class="st22">
					<path class="st23" d="M13.8,56V38.8H16v8.5l8.5-8.5h3.1l-7.2,7L28,56h-3l-6.1-8.7L16,50v6H13.8z"/>
					<path class="st23" d="M28.9,56V43.6h1.9v1.8c0.9-1.4,2.2-2.1,4-2.1c0.8,0,1.4,0.1,2.1,0.4s1.1,0.6,1.4,1.1s0.5,1,0.7,1.6
						c0.1,0.4,0.1,1.1,0.1,2.1V56h-2.1v-7.6c0-0.9-0.1-1.5-0.2-1.9s-0.5-0.8-0.9-1s-0.9-0.4-1.5-0.4c-0.9,0-1.7,0.3-2.3,0.9
						s-1,1.7-1,3.2V56H28.9z"/>
					<path class="st23" d="M40.9,49.8c0-2.3,0.6-4,1.9-5.1c1.1-0.9,2.4-1.4,3.9-1.4c1.7,0,3.1,0.6,4.2,1.7s1.6,2.7,1.6,4.6
						c0,1.6-0.2,2.9-0.7,3.8s-1.2,1.6-2.1,2.1s-1.9,0.8-3,0.8c-1.7,0-3.2-0.6-4.2-1.7S40.9,51.9,40.9,49.8z M43,49.8
						c0,1.6,0.3,2.8,1,3.6s1.6,1.2,2.6,1.2c1,0,1.9-0.4,2.6-1.2s1-2,1-3.6c0-1.5-0.3-2.7-1-3.5S47.7,45,46.7,45
						c-1.1,0-1.9,0.4-2.6,1.2S43,48.2,43,49.8z"/>
					<path class="st23" d="M56.6,56l-3.8-12.4H55l2,7.2l0.7,2.7c0-0.1,0.2-1,0.6-2.6l2-7.3h2.2l1.9,7.2l0.6,2.4l0.7-2.4l2.1-7.2h2.1
						L66,56h-2.2l-2-7.5l-0.5-2.1L58.8,56H56.6z"/>
					<path class="st23" d="M71,56V38.8h2.1V56H71z"/>
					<path class="st23" d="M84.2,52l2.2,0.3c-0.3,1.3-1,2.3-1.9,3s-2.1,1.1-3.6,1.1c-1.8,0-3.3-0.6-4.3-1.7S75,51.9,75,49.9
						c0-2.1,0.5-3.7,1.6-4.9s2.5-1.7,4.2-1.7c1.7,0,3,0.6,4.1,1.7s1.6,2.7,1.6,4.8c0,0.1,0,0.3,0,0.6h-9.3c0.1,1.4,0.5,2.4,1.2,3.1
						s1.6,1.1,2.6,1.1c0.8,0,1.4-0.2,2-0.6S83.9,52.9,84.2,52z M77.3,48.6h6.9c-0.1-1-0.4-1.8-0.8-2.4c-0.7-0.8-1.5-1.2-2.6-1.2
						c-1,0-1.8,0.3-2.4,1S77.4,47.5,77.3,48.6z"/>
					<path class="st23" d="M96.5,56v-1.6c-0.8,1.2-1.9,1.9-3.5,1.9c-1,0-1.9-0.3-2.7-0.8s-1.5-1.3-1.9-2.3s-0.7-2.1-0.7-3.4
						c0-1.2,0.2-2.4,0.6-3.4s1-1.8,1.9-2.3s1.8-0.8,2.8-0.8c0.8,0,1.4,0.2,2,0.5s1.1,0.7,1.4,1.2v-6.2h2.1V56H96.5z M89.8,49.8
						c0,1.6,0.3,2.8,1,3.6s1.5,1.2,2.4,1.2c0.9,0,1.7-0.4,2.3-1.1s1-1.9,1-3.5c0-1.7-0.3-3-1-3.8S94.1,45,93.1,45
						c-0.9,0-1.7,0.4-2.3,1.1S89.8,48.1,89.8,49.8z"/>
					<path class="st23" d="M100.7,57l2.1,0.3c0.1,0.6,0.3,1.1,0.7,1.4c0.5,0.4,1.2,0.6,2.1,0.6c1,0,1.7-0.2,2.3-0.6s0.9-0.9,1.1-1.6
						c0.1-0.4,0.2-1.3,0.2-2.7c-0.9,1.1-2.1,1.6-3.4,1.6c-1.7,0-3-0.6-4-1.9s-1.4-2.7-1.4-4.4c0-1.2,0.2-2.3,0.6-3.3
						s1.1-1.8,1.9-2.3s1.8-0.8,2.9-0.8c1.5,0,2.7,0.6,3.6,1.8v-1.5h1.9v10.8c0,1.9-0.2,3.3-0.6,4.1s-1,1.4-1.9,1.9s-1.9,0.7-3.2,0.7
						c-1.5,0-2.7-0.3-3.6-1S100.7,58.4,100.7,57z M102.5,49.6c0,1.6,0.3,2.8,1,3.6s1.5,1.1,2.4,1.1c1,0,1.8-0.4,2.4-1.1s1-1.9,1-3.5
						c0-1.5-0.3-2.7-1-3.4s-1.5-1.2-2.4-1.2c-0.9,0-1.7,0.4-2.4,1.1S102.5,48.1,102.5,49.6z"/>
					<path class="st23" d="M122.3,52l2.2,0.3c-0.3,1.3-1,2.3-1.9,3s-2.1,1.1-3.6,1.1c-1.8,0-3.3-0.6-4.3-1.7s-1.6-2.7-1.6-4.7
						c0-2.1,0.5-3.7,1.6-4.9s2.5-1.7,4.2-1.7c1.7,0,3,0.6,4.1,1.7s1.6,2.7,1.6,4.8c0,0.1,0,0.3,0,0.6h-9.3c0.1,1.4,0.5,2.4,1.2,3.1
						s1.6,1.1,2.6,1.1c0.8,0,1.4-0.2,2-0.6S122,52.9,122.3,52z M115.4,48.6h6.9c-0.1-1-0.4-1.8-0.8-2.4c-0.7-0.8-1.5-1.2-2.6-1.2
						c-1,0-1.8,0.3-2.4,1S115.5,47.5,115.4,48.6z"/>
					<path class="st23" d="M132.7,56V38.8h6.4c1.3,0,2.4,0.2,3.2,0.5s1.4,0.9,1.9,1.6c0.4,0.7,0.7,1.5,0.7,2.3
						c0,0.7-0.2,1.4-0.6,2.1c-0.4,0.6-1,1.2-1.8,1.6c1,0.3,1.8,0.8,2.4,1.6s0.8,1.6,0.8,2.6c0,0.8-0.2,1.6-0.5,2.2s-0.8,1.2-1.3,1.6
						c-0.5,0.4-1.1,0.7-1.9,0.8s-1.7,0.3-2.8,0.3H132.7z M135,46h3.7c1,0,1.7-0.1,2.2-0.2c0.6-0.2,1-0.5,1.3-0.9s0.4-0.9,0.4-1.5
						c0-0.6-0.1-1.1-0.4-1.5s-0.7-0.7-1.2-0.9s-1.4-0.2-2.6-0.2H135V46z M135,54h4.3c0.7,0,1.3,0,1.5-0.1c0.5-0.1,1-0.3,1.3-0.5
						s0.6-0.5,0.9-1s0.3-0.9,0.3-1.4c0-0.6-0.2-1.2-0.5-1.7s-0.8-0.8-1.4-1s-1.4-0.3-2.5-0.3h-4V54z"/>
					<path class="st23" d="M156,54.5c-0.8,0.7-1.5,1.1-2.3,1.4s-1.5,0.4-2.3,0.4c-1.4,0-2.4-0.3-3.2-1s-1.1-1.5-1.1-2.6
						c0-0.6,0.1-1.2,0.4-1.7s0.6-0.9,1.1-1.2s1-0.5,1.5-0.7c0.4-0.1,1-0.2,1.9-0.3c1.7-0.2,3-0.4,3.8-0.7c0-0.3,0-0.5,0-0.6
						c0-0.9-0.2-1.5-0.6-1.8c-0.5-0.5-1.3-0.7-2.4-0.7c-1,0-1.7,0.2-2.2,0.5s-0.8,1-1,1.8l-2.1-0.3c0.2-0.9,0.5-1.6,0.9-2.1
						s1.1-1,1.9-1.3s1.8-0.4,2.8-0.4c1.1,0,1.9,0.1,2.6,0.4s1.2,0.6,1.5,0.9s0.5,0.9,0.7,1.4c0.1,0.4,0.1,1,0.1,1.9v2.8
						c0,2,0,3.2,0.1,3.7s0.3,1,0.5,1.5h-2.2C156.2,55.6,156.1,55.1,156,54.5z M155.8,49.8c-0.8,0.3-1.9,0.6-3.4,0.8
						c-0.9,0.1-1.5,0.3-1.8,0.4s-0.6,0.4-0.8,0.7s-0.3,0.6-0.3,1c0,0.6,0.2,1,0.6,1.4s1,0.6,1.9,0.6c0.8,0,1.5-0.2,2.2-0.5
						s1.1-0.8,1.4-1.5c0.2-0.5,0.3-1.2,0.3-2.1V49.8z"/>
					<path class="st23" d="M159.7,52.3l2.1-0.3c0.1,0.8,0.4,1.5,1,1.9s1.3,0.7,2.2,0.7c1,0,1.7-0.2,2.2-0.6s0.7-0.9,0.7-1.4
						c0-0.5-0.2-0.9-0.6-1.1c-0.3-0.2-1-0.4-2.2-0.7c-1.5-0.4-2.6-0.7-3.2-1s-1.1-0.7-1.4-1.2s-0.5-1.1-0.5-1.7
						c0-0.6,0.1-1.1,0.4-1.5s0.6-0.9,1-1.2c0.3-0.2,0.8-0.4,1.3-0.6s1.2-0.3,1.8-0.3c1,0,1.8,0.1,2.6,0.4s1.3,0.7,1.6,1.1
						s0.6,1.1,0.7,1.9l-2.1,0.3c-0.1-0.6-0.4-1.1-0.8-1.5s-1.1-0.5-1.9-0.5c-1,0-1.7,0.2-2.1,0.5s-0.6,0.7-0.6,1.1
						c0,0.3,0.1,0.5,0.3,0.7c0.2,0.2,0.4,0.4,0.8,0.6c0.2,0.1,0.8,0.3,1.9,0.5c1.5,0.4,2.5,0.7,3.1,1s1.1,0.6,1.4,1.1
						s0.5,1.1,0.5,1.8c0,0.7-0.2,1.4-0.6,2s-1,1.1-1.8,1.4s-1.6,0.5-2.6,0.5c-1.6,0-2.8-0.3-3.7-1S160,53.6,159.7,52.3z"/>
					<path class="st23" d="M180.5,52l2.2,0.3c-0.3,1.3-1,2.3-1.9,3s-2.1,1.1-3.6,1.1c-1.8,0-3.3-0.6-4.3-1.7s-1.6-2.7-1.6-4.7
						c0-2.1,0.5-3.7,1.6-4.9s2.5-1.7,4.2-1.7c1.7,0,3,0.6,4.1,1.7s1.6,2.7,1.6,4.8c0,0.1,0,0.3,0,0.6h-9.3c0.1,1.4,0.5,2.4,1.2,3.1
						s1.6,1.1,2.6,1.1c0.8,0,1.4-0.2,2-0.6S180.1,52.9,180.5,52z M173.5,48.6h6.9c-0.1-1-0.4-1.8-0.8-2.4c-0.7-0.8-1.5-1.2-2.6-1.2
						c-1,0-1.8,0.3-2.4,1S173.6,47.5,173.5,48.6z"/>
				</g>
			</g>
		</g>
		<defs>
			<filter id="Adobe_OpacityMaskFilter_3_" filterUnits="userSpaceOnUse" x="9.6" y="18.3" width="93" height="15">
				<feColorMatrix  type="matrix" values="1 0 0 0 0  0 1 0 0 0  0 0 1 0 0  0 0 0 1 0"/>
			</filter>
		</defs>
		<mask maskUnits="userSpaceOnUse" x="9.6" y="18.3" width="93" height="15" id="mask-3_4_">
			<g class="st24">
				<path id="path-2_4_" class="st2" d="M12,0h263c6.6,0,12,5.4,12,12v85c0,6.6-5.4,12-12,12H12c-6.6,0-12-5.4-12-12V12
					C0,5.4,5.4,0,12,0z"/>
			</g>
		</mask>
		<g id="Learn-from-our-Knowl" class="st25">
			<g class="st26">
				<g class="st22">
					<path class="st23" d="M13,30V20h1.3v8.8h4.9V30H13z"/>
					<path class="st23" d="M25.3,27.7l1.3,0.2c-0.2,0.7-0.6,1.3-1.1,1.7s-1.2,0.6-2.1,0.6c-1.1,0-1.9-0.3-2.5-1
						c-0.6-0.7-0.9-1.6-0.9-2.8c0-1.2,0.3-2.2,0.9-2.8s1.4-1,2.4-1c1,0,1.8,0.3,2.4,1s0.9,1.6,0.9,2.8c0,0.1,0,0.2,0,0.3h-5.4
						c0,0.8,0.3,1.4,0.7,1.8s0.9,0.6,1.5,0.6c0.5,0,0.8-0.1,1.2-0.4S25.1,28.2,25.3,27.7z M21.3,25.7h4.1c-0.1-0.6-0.2-1.1-0.5-1.4
						c-0.4-0.5-0.9-0.7-1.5-0.7c-0.6,0-1,0.2-1.4,0.6S21.3,25,21.3,25.7z"/>
					<path class="st23" d="M32.5,29.1c-0.5,0.4-0.9,0.7-1.3,0.8s-0.9,0.2-1.4,0.2c-0.8,0-1.4-0.2-1.8-0.6c-0.4-0.4-0.6-0.9-0.6-1.5
						c0-0.4,0.1-0.7,0.2-1c0.2-0.3,0.4-0.5,0.6-0.7s0.6-0.3,0.9-0.4c0.2-0.1,0.6-0.1,1.1-0.2c1-0.1,1.7-0.3,2.2-0.4
						c0-0.2,0-0.3,0-0.3c0-0.5-0.1-0.9-0.3-1.1c-0.3-0.3-0.8-0.4-1.4-0.4c-0.6,0-1,0.1-1.3,0.3c-0.3,0.2-0.5,0.6-0.6,1.1l-1.2-0.2
						c0.1-0.5,0.3-0.9,0.5-1.2c0.3-0.3,0.6-0.6,1.1-0.7c0.5-0.2,1-0.3,1.6-0.3c0.6,0,1.1,0.1,1.5,0.2s0.7,0.3,0.9,0.6
						c0.2,0.2,0.3,0.5,0.4,0.8c0,0.2,0.1,0.6,0.1,1.1V27c0,1.1,0,1.9,0.1,2.2c0.1,0.3,0.2,0.6,0.3,0.9h-1.3
						C32.6,29.7,32.5,29.4,32.5,29.1z M32.4,26.4c-0.4,0.2-1.1,0.3-2,0.5c-0.5,0.1-0.9,0.2-1.1,0.2s-0.4,0.2-0.5,0.4
						c-0.1,0.2-0.2,0.4-0.2,0.6c0,0.3,0.1,0.6,0.4,0.8s0.6,0.3,1.1,0.3c0.5,0,0.9-0.1,1.3-0.3c0.4-0.2,0.6-0.5,0.8-0.9
						c0.1-0.3,0.2-0.7,0.2-1.2V26.4z"/>
					<path class="st23" d="M35.1,30v-7.3h1.1v1.1c0.3-0.5,0.5-0.9,0.8-1s0.5-0.2,0.8-0.2c0.4,0,0.8,0.1,1.3,0.4l-0.4,1.1
						c-0.3-0.2-0.6-0.3-0.9-0.3c-0.3,0-0.5,0.1-0.7,0.2c-0.2,0.2-0.4,0.4-0.5,0.7c-0.1,0.4-0.2,0.9-0.2,1.4V30H35.1z"/>
					<path class="st23" d="M39.4,30v-7.3h1.1v1c0.5-0.8,1.3-1.2,2.3-1.2c0.4,0,0.8,0.1,1.2,0.2c0.4,0.2,0.6,0.4,0.8,0.6
						s0.3,0.6,0.4,0.9c0,0.2,0.1,0.6,0.1,1.2V30h-1.2v-4.4c0-0.5,0-0.9-0.1-1.1c-0.1-0.2-0.3-0.4-0.5-0.6c-0.2-0.1-0.5-0.2-0.9-0.2
						c-0.5,0-1,0.2-1.4,0.5s-0.6,1-0.6,1.9v4H39.4z"/>
					<path class="st23" d="M50.6,30v-6.3h-1.1v-1h1.1V22c0-0.5,0-0.8,0.1-1.1c0.1-0.3,0.3-0.6,0.6-0.8c0.3-0.2,0.7-0.3,1.3-0.3
						c0.3,0,0.7,0,1.1,0.1L53.6,21c-0.3,0-0.5-0.1-0.7-0.1c-0.4,0-0.6,0.1-0.8,0.2s-0.2,0.5-0.2,0.9v0.7h1.4v1h-1.4V30H50.6z"/>
					<path class="st23" d="M53.8,30v-7.3H55v1.1c0.3-0.5,0.5-0.9,0.8-1s0.5-0.2,0.8-0.2c0.4,0,0.8,0.1,1.3,0.4l-0.4,1.1
						c-0.3-0.2-0.6-0.3-0.9-0.3c-0.3,0-0.5,0.1-0.7,0.2c-0.2,0.2-0.4,0.4-0.5,0.7c-0.1,0.4-0.2,0.9-0.2,1.4V30H53.8z"/>
					<path class="st23" d="M57.7,26.4c0-1.3,0.4-2.3,1.1-3c0.6-0.5,1.4-0.8,2.3-0.8c1,0,1.8,0.3,2.4,1c0.6,0.7,1,1.6,1,2.7
						c0,0.9-0.1,1.7-0.4,2.2c-0.3,0.5-0.7,1-1.2,1.2s-1.1,0.4-1.8,0.4c-1,0-1.8-0.3-2.5-1S57.7,27.6,57.7,26.4z M59,26.4
						c0,0.9,0.2,1.6,0.6,2.1c0.4,0.5,0.9,0.7,1.5,0.7c0.6,0,1.1-0.2,1.5-0.7s0.6-1.2,0.6-2.1c0-0.9-0.2-1.6-0.6-2
						c-0.4-0.5-0.9-0.7-1.5-0.7c-0.6,0-1.1,0.2-1.5,0.7S59,25.4,59,26.4z"/>
					<path class="st23" d="M65.6,30v-7.3h1.1v1c0.2-0.4,0.5-0.6,0.9-0.9c0.4-0.2,0.8-0.3,1.3-0.3c0.5,0,1,0.1,1.3,0.3
						s0.6,0.5,0.7,0.9c0.6-0.8,1.3-1.3,2.2-1.3c0.7,0,1.3,0.2,1.7,0.6c0.4,0.4,0.6,1,0.6,1.8v5h-1.2v-4.6c0-0.5,0-0.8-0.1-1.1
						c-0.1-0.2-0.2-0.4-0.4-0.5s-0.5-0.2-0.7-0.2c-0.5,0-0.9,0.2-1.3,0.5c-0.3,0.3-0.5,0.9-0.5,1.6V30h-1.2v-4.7
						c0-0.5-0.1-1-0.3-1.2s-0.5-0.4-1-0.4c-0.3,0-0.7,0.1-1,0.3s-0.5,0.4-0.6,0.8s-0.2,0.9-0.2,1.5V30H65.6z"/>
					<path class="st23" d="M79.9,26.4c0-1.3,0.4-2.3,1.1-3c0.6-0.5,1.4-0.8,2.3-0.8c1,0,1.8,0.3,2.4,1c0.6,0.7,1,1.6,1,2.7
						c0,0.9-0.1,1.7-0.4,2.2c-0.3,0.5-0.7,1-1.2,1.2s-1.1,0.4-1.8,0.4c-1,0-1.8-0.3-2.5-1S79.9,27.6,79.9,26.4z M81.2,26.4
						c0,0.9,0.2,1.6,0.6,2.1c0.4,0.5,0.9,0.7,1.5,0.7c0.6,0,1.1-0.2,1.5-0.7s0.6-1.2,0.6-2.1c0-0.9-0.2-1.6-0.6-2
						c-0.4-0.5-0.9-0.7-1.5-0.7c-0.6,0-1.1,0.2-1.5,0.7S81.2,25.4,81.2,26.4z"/>
					<path class="st23" d="M92.5,30v-1.1c-0.6,0.8-1.3,1.2-2.3,1.2c-0.4,0-0.8-0.1-1.2-0.2s-0.6-0.4-0.8-0.6
						c-0.2-0.2-0.3-0.6-0.4-0.9c-0.1-0.2-0.1-0.6-0.1-1.1v-4.5H89v4c0,0.6,0,1.1,0.1,1.3c0.1,0.3,0.2,0.6,0.5,0.8
						c0.3,0.2,0.6,0.3,0.9,0.3s0.7-0.1,1-0.3c0.3-0.2,0.6-0.4,0.7-0.8c0.1-0.3,0.2-0.8,0.2-1.4v-3.9h1.2V30H92.5z"/>
					<path class="st23" d="M95.2,30v-7.3h1.1v1.1c0.3-0.5,0.5-0.9,0.8-1s0.5-0.2,0.8-0.2c0.4,0,0.8,0.1,1.3,0.4l-0.4,1.1
						c-0.3-0.2-0.6-0.3-0.9-0.3c-0.3,0-0.5,0.1-0.7,0.2c-0.2,0.2-0.4,0.4-0.5,0.7c-0.1,0.4-0.2,0.9-0.2,1.4V30H95.2z"/>
				</g>
			</g>
			<g>
				<g class="st22">
					<path class="st23" d="M13,30V20h1.3v8.8h4.9V30H13z"/>
					<path class="st23" d="M25.3,27.7l1.3,0.2c-0.2,0.7-0.6,1.3-1.1,1.7s-1.2,0.6-2.1,0.6c-1.1,0-1.9-0.3-2.5-1
						c-0.6-0.7-0.9-1.6-0.9-2.8c0-1.2,0.3-2.2,0.9-2.8s1.4-1,2.4-1c1,0,1.8,0.3,2.4,1s0.9,1.6,0.9,2.8c0,0.1,0,0.2,0,0.3h-5.4
						c0,0.8,0.3,1.4,0.7,1.8s0.9,0.6,1.5,0.6c0.5,0,0.8-0.1,1.2-0.4S25.1,28.2,25.3,27.7z M21.3,25.7h4.1c-0.1-0.6-0.2-1.1-0.5-1.4
						c-0.4-0.5-0.9-0.7-1.5-0.7c-0.6,0-1,0.2-1.4,0.6S21.3,25,21.3,25.7z"/>
					<path class="st23" d="M32.5,29.1c-0.5,0.4-0.9,0.7-1.3,0.8s-0.9,0.2-1.4,0.2c-0.8,0-1.4-0.2-1.8-0.6c-0.4-0.4-0.6-0.9-0.6-1.5
						c0-0.4,0.1-0.7,0.2-1c0.2-0.3,0.4-0.5,0.6-0.7s0.6-0.3,0.9-0.4c0.2-0.1,0.6-0.1,1.1-0.2c1-0.1,1.7-0.3,2.2-0.4
						c0-0.2,0-0.3,0-0.3c0-0.5-0.1-0.9-0.3-1.1c-0.3-0.3-0.8-0.4-1.4-0.4c-0.6,0-1,0.1-1.3,0.3c-0.3,0.2-0.5,0.6-0.6,1.1l-1.2-0.2
						c0.1-0.5,0.3-0.9,0.5-1.2c0.3-0.3,0.6-0.6,1.1-0.7c0.5-0.2,1-0.3,1.6-0.3c0.6,0,1.1,0.1,1.5,0.2s0.7,0.3,0.9,0.6
						c0.2,0.2,0.3,0.5,0.4,0.8c0,0.2,0.1,0.6,0.1,1.1V27c0,1.1,0,1.9,0.1,2.2c0.1,0.3,0.2,0.6,0.3,0.9h-1.3
						C32.6,29.7,32.5,29.4,32.5,29.1z M32.4,26.4c-0.4,0.2-1.1,0.3-2,0.5c-0.5,0.1-0.9,0.2-1.1,0.2s-0.4,0.2-0.5,0.4
						c-0.1,0.2-0.2,0.4-0.2,0.6c0,0.3,0.1,0.6,0.4,0.8s0.6,0.3,1.1,0.3c0.5,0,0.9-0.1,1.3-0.3c0.4-0.2,0.6-0.5,0.8-0.9
						c0.1-0.3,0.2-0.7,0.2-1.2V26.4z"/>
					<path class="st23" d="M35.1,30v-7.3h1.1v1.1c0.3-0.5,0.5-0.9,0.8-1s0.5-0.2,0.8-0.2c0.4,0,0.8,0.1,1.3,0.4l-0.4,1.1
						c-0.3-0.2-0.6-0.3-0.9-0.3c-0.3,0-0.5,0.1-0.7,0.2c-0.2,0.2-0.4,0.4-0.5,0.7c-0.1,0.4-0.2,0.9-0.2,1.4V30H35.1z"/>
					<path class="st23" d="M39.4,30v-7.3h1.1v1c0.5-0.8,1.3-1.2,2.3-1.2c0.4,0,0.8,0.1,1.2,0.2c0.4,0.2,0.6,0.4,0.8,0.6
						s0.3,0.6,0.4,0.9c0,0.2,0.1,0.6,0.1,1.2V30h-1.2v-4.4c0-0.5,0-0.9-0.1-1.1c-0.1-0.2-0.3-0.4-0.5-0.6c-0.2-0.1-0.5-0.2-0.9-0.2
						c-0.5,0-1,0.2-1.4,0.5s-0.6,1-0.6,1.9v4H39.4z"/>
					<path class="st23" d="M50.6,30v-6.3h-1.1v-1h1.1V22c0-0.5,0-0.8,0.1-1.1c0.1-0.3,0.3-0.6,0.6-0.8c0.3-0.2,0.7-0.3,1.3-0.3
						c0.3,0,0.7,0,1.1,0.1L53.6,21c-0.3,0-0.5-0.1-0.7-0.1c-0.4,0-0.6,0.1-0.8,0.2s-0.2,0.5-0.2,0.9v0.7h1.4v1h-1.4V30H50.6z"/>
					<path class="st23" d="M53.8,30v-7.3H55v1.1c0.3-0.5,0.5-0.9,0.8-1s0.5-0.2,0.8-0.2c0.4,0,0.8,0.1,1.3,0.4l-0.4,1.1
						c-0.3-0.2-0.6-0.3-0.9-0.3c-0.3,0-0.5,0.1-0.7,0.2c-0.2,0.2-0.4,0.4-0.5,0.7c-0.1,0.4-0.2,0.9-0.2,1.4V30H53.8z"/>
					<path class="st23" d="M57.7,26.4c0-1.3,0.4-2.3,1.1-3c0.6-0.5,1.4-0.8,2.3-0.8c1,0,1.8,0.3,2.4,1c0.6,0.7,1,1.6,1,2.7
						c0,0.9-0.1,1.7-0.4,2.2c-0.3,0.5-0.7,1-1.2,1.2s-1.1,0.4-1.8,0.4c-1,0-1.8-0.3-2.5-1S57.7,27.6,57.7,26.4z M59,26.4
						c0,0.9,0.2,1.6,0.6,2.1c0.4,0.5,0.9,0.7,1.5,0.7c0.6,0,1.1-0.2,1.5-0.7s0.6-1.2,0.6-2.1c0-0.9-0.2-1.6-0.6-2
						c-0.4-0.5-0.9-0.7-1.5-0.7c-0.6,0-1.1,0.2-1.5,0.7S59,25.4,59,26.4z"/>
					<path class="st23" d="M65.6,30v-7.3h1.1v1c0.2-0.4,0.5-0.6,0.9-0.9c0.4-0.2,0.8-0.3,1.3-0.3c0.5,0,1,0.1,1.3,0.3
						s0.6,0.5,0.7,0.9c0.6-0.8,1.3-1.3,2.2-1.3c0.7,0,1.3,0.2,1.7,0.6c0.4,0.4,0.6,1,0.6,1.8v5h-1.2v-4.6c0-0.5,0-0.8-0.1-1.1
						c-0.1-0.2-0.2-0.4-0.4-0.5s-0.5-0.2-0.7-0.2c-0.5,0-0.9,0.2-1.3,0.5c-0.3,0.3-0.5,0.9-0.5,1.6V30h-1.2v-4.7
						c0-0.5-0.1-1-0.3-1.2s-0.5-0.4-1-0.4c-0.3,0-0.7,0.1-1,0.3s-0.5,0.4-0.6,0.8s-0.2,0.9-0.2,1.5V30H65.6z"/>
					<path class="st23" d="M79.9,26.4c0-1.3,0.4-2.3,1.1-3c0.6-0.5,1.4-0.8,2.3-0.8c1,0,1.8,0.3,2.4,1c0.6,0.7,1,1.6,1,2.7
						c0,0.9-0.1,1.7-0.4,2.2c-0.3,0.5-0.7,1-1.2,1.2s-1.1,0.4-1.8,0.4c-1,0-1.8-0.3-2.5-1S79.9,27.6,79.9,26.4z M81.2,26.4
						c0,0.9,0.2,1.6,0.6,2.1c0.4,0.5,0.9,0.7,1.5,0.7c0.6,0,1.1-0.2,1.5-0.7s0.6-1.2,0.6-2.1c0-0.9-0.2-1.6-0.6-2
						c-0.4-0.5-0.9-0.7-1.5-0.7c-0.6,0-1.1,0.2-1.5,0.7S81.2,25.4,81.2,26.4z"/>
					<path class="st23" d="M92.5,30v-1.1c-0.6,0.8-1.3,1.2-2.3,1.2c-0.4,0-0.8-0.1-1.2-0.2s-0.6-0.4-0.8-0.6
						c-0.2-0.2-0.3-0.6-0.4-0.9c-0.1-0.2-0.1-0.6-0.1-1.1v-4.5H89v4c0,0.6,0,1.1,0.1,1.3c0.1,0.3,0.2,0.6,0.5,0.8
						c0.3,0.2,0.6,0.3,0.9,0.3s0.7-0.1,1-0.3c0.3-0.2,0.6-0.4,0.7-0.8c0.1-0.3,0.2-0.8,0.2-1.4v-3.9h1.2V30H92.5z"/>
					<path class="st23" d="M95.2,30v-7.3h1.1v1.1c0.3-0.5,0.5-0.9,0.8-1s0.5-0.2,0.8-0.2c0.4,0,0.8,0.1,1.3,0.4l-0.4,1.1
						c-0.3-0.2-0.6-0.3-0.9-0.3c-0.3,0-0.5,0.1-0.7,0.2c-0.2,0.2-0.4,0.4-0.5,0.7c-0.1,0.4-0.2,0.9-0.2,1.4V30H95.2z"/>
				</g>
			</g>
		</g>
		<defs>
			<filter id="Adobe_OpacityMaskFilter_4_" filterUnits="userSpaceOnUse" x="13" y="67" width="110" height="23">
				<feColorMatrix  type="matrix" values="1 0 0 0 0  0 1 0 0 0  0 0 1 0 0  0 0 0 1 0"/>
			</filter>
		</defs>
		<mask maskUnits="userSpaceOnUse" x="13" y="67" width="110" height="23" id="mask-3_5_">
			<g class="st27">
				<path id="path-2_5_" class="st2" d="M12,0h263c6.6,0,12,5.4,12,12v85c0,6.6-5.4,12-12,12H12c-6.6,0-12-5.4-12-12V12
					C0,5.4,5.4,0,12,0z"/>
			</g>
		</mask>
		<path class="st28" d="M24.5,67h87c6.4,0,11.5,5.1,11.5,11.5l0,0c0,6.4-5.1,11.5-11.5,11.5h-87C18.1,90,13,84.9,13,78.5l0,0
			C13,72.1,18.1,67,24.5,67z"/>
		<defs>
			<filter id="Adobe_OpacityMaskFilter_5_" filterUnits="userSpaceOnUse" x="22.6" y="73.3" width="91.1" height="11.1">
				<feColorMatrix  type="matrix" values="1 0 0 0 0  0 1 0 0 0  0 0 1 0 0  0 0 0 1 0"/>
			</filter>
		</defs>
		<mask maskUnits="userSpaceOnUse" x="22.6" y="73.3" width="91.1" height="11.1" id="mask-3_6_">
			<g class="st29">
				<path id="path-2_6_" class="st2" d="M12,0h263c6.6,0,12,5.4,12,12v85c0,6.6-5.4,12-12,12H12c-6.6,0-12-5.4-12-12V12
					C0,5.4,5.4,0,12,0z"/>
			</g>
		</mask>
		<g class="st30">
			<path class="st23" d="M26.9,78.6v-1l3.6,0v3.2c-0.6,0.4-1.1,0.8-1.7,1s-1.2,0.3-1.8,0.3c-0.8,0-1.6-0.2-2.3-0.5s-1.2-0.9-1.6-1.6
				s-0.5-1.4-0.5-2.3c0-0.8,0.2-1.6,0.5-2.3s0.9-1.3,1.5-1.6s1.4-0.5,2.3-0.5c0.6,0,1.2,0.1,1.7,0.3s0.9,0.5,1.2,0.8
				s0.5,0.8,0.7,1.4l-1,0.3c-0.1-0.4-0.3-0.8-0.5-1s-0.5-0.5-0.8-0.6s-0.8-0.2-1.2-0.2c-0.5,0-1,0.1-1.3,0.2s-0.7,0.4-0.9,0.6
				s-0.4,0.5-0.5,0.8c-0.2,0.5-0.3,1.1-0.3,1.7c0,0.8,0.1,1.4,0.4,1.9s0.6,0.9,1.2,1.1s1,0.4,1.6,0.4c0.5,0,1-0.1,1.4-0.3
				s0.8-0.4,1.1-0.6v-1.6H26.9z"/>
			<path class="st23" d="M31.4,78.9c0-1.2,0.3-2,1-2.6c0.5-0.5,1.2-0.7,2-0.7c0.9,0,1.6,0.3,2.1,0.8s0.8,1.3,0.8,2.3
				c0,0.8-0.1,1.4-0.4,1.9s-0.6,0.8-1,1.1s-1,0.4-1.5,0.4c-0.9,0-1.6-0.3-2.1-0.8S31.4,79.9,31.4,78.9z M32.5,78.9
				c0,0.8,0.2,1.4,0.5,1.8s0.8,0.6,1.3,0.6c0.5,0,1-0.2,1.3-0.6s0.5-1,0.5-1.8c0-0.8-0.2-1.4-0.5-1.7s-0.8-0.6-1.3-0.6
				c-0.5,0-1,0.2-1.3,0.6S32.5,78.1,32.5,78.9z"/>
			<path class="st23" d="M43.5,81.1l0.2,0.9c-0.3,0.1-0.6,0.1-0.8,0.1c-0.4,0-0.7-0.1-0.9-0.2s-0.4-0.3-0.4-0.5s-0.1-0.6-0.1-1.2
				v-3.6h-0.8v-0.8h0.8v-1.5l1-0.6v2.2h1.1v0.8h-1.1v3.6c0,0.3,0,0.5,0.1,0.6s0.1,0.2,0.2,0.2s0.2,0.1,0.4,0.1
				C43.1,81.1,43.3,81.1,43.5,81.1z"/>
			<path class="st23" d="M43.8,78.9c0-1.2,0.3-2,1-2.6c0.5-0.5,1.2-0.7,2-0.7c0.9,0,1.6,0.3,2.1,0.8s0.8,1.3,0.8,2.3
				c0,0.8-0.1,1.4-0.4,1.9s-0.6,0.8-1,1.1s-1,0.4-1.5,0.4c-0.9,0-1.6-0.3-2.1-0.8S43.8,79.9,43.8,78.9z M44.9,78.9
				c0,0.8,0.2,1.4,0.5,1.8s0.8,0.6,1.3,0.6c0.5,0,1-0.2,1.3-0.6s0.5-1,0.5-1.8c0-0.8-0.2-1.4-0.5-1.7s-0.8-0.6-1.3-0.6
				c-0.5,0-1,0.2-1.3,0.6S44.9,78.1,44.9,78.9z"/>
			<path class="st23" d="M53.7,82v-8.6h1.1v3.5h4.5v-3.5h1.1V82h-1.1v-4h-4.5v4H53.7z"/>
			<path class="st23" d="M66.1,80l1.1,0.1c-0.2,0.6-0.5,1.1-1,1.5s-1.1,0.5-1.8,0.5c-0.9,0-1.6-0.3-2.2-0.8s-0.8-1.3-0.8-2.4
				c0-1,0.3-1.9,0.8-2.4s1.2-0.9,2.1-0.9c0.8,0,1.5,0.3,2,0.8s0.8,1.4,0.8,2.4c0,0.1,0,0.2,0,0.3h-4.6c0,0.7,0.2,1.2,0.6,1.6
				s0.8,0.5,1.3,0.5c0.4,0,0.7-0.1,1-0.3S66,80.4,66.1,80z M62.7,78.3h3.5c0-0.5-0.2-0.9-0.4-1.2c-0.3-0.4-0.8-0.6-1.3-0.6
				c-0.5,0-0.9,0.2-1.2,0.5S62.7,77.7,62.7,78.3z"/>
			<path class="st23" d="M68.2,82v-8.6h1.1V82H68.2z"/>
			<path class="st23" d="M70.6,84.4v-8.6h1v0.8c0.2-0.3,0.5-0.6,0.8-0.7s0.6-0.2,1-0.2c0.5,0,1,0.1,1.4,0.4s0.7,0.7,0.9,1.2
				s0.3,1,0.3,1.6c0,0.6-0.1,1.2-0.3,1.7s-0.6,0.9-1,1.2s-0.9,0.4-1.4,0.4c-0.4,0-0.7-0.1-0.9-0.2s-0.5-0.3-0.7-0.6v3H70.6z
				 M71.5,78.9c0,0.8,0.2,1.4,0.5,1.8s0.7,0.6,1.2,0.6c0.5,0,0.9-0.2,1.2-0.6s0.5-1,0.5-1.8c0-0.8-0.2-1.4-0.5-1.8s-0.7-0.6-1.2-0.6
				c-0.4,0-0.8,0.2-1.2,0.6S71.5,78.1,71.5,78.9z"/>
			<path class="st23" d="M86.2,79l1.1,0.3c-0.2,0.9-0.7,1.6-1.3,2.1s-1.4,0.7-2.3,0.7c-0.9,0-1.7-0.2-2.3-0.6s-1-0.9-1.3-1.6
				s-0.5-1.5-0.5-2.3c0-0.9,0.2-1.7,0.5-2.3s0.8-1.2,1.5-1.5s1.3-0.5,2.1-0.5c0.9,0,1.6,0.2,2.2,0.7s1,1.1,1.2,1.8L86.1,76
				c-0.2-0.6-0.5-1.1-0.9-1.4s-0.9-0.4-1.4-0.4c-0.7,0-1.2,0.2-1.7,0.5s-0.8,0.7-0.9,1.3s-0.3,1.1-0.3,1.6c0,0.7,0.1,1.4,0.3,1.9
				s0.5,1,1,1.2s0.9,0.4,1.5,0.4c0.6,0,1.2-0.2,1.6-0.6S86,79.7,86.2,79z"/>
			<path class="st23" d="M92.5,80l1.1,0.1c-0.2,0.6-0.5,1.1-1,1.5s-1.1,0.5-1.8,0.5c-0.9,0-1.6-0.3-2.2-0.8s-0.8-1.3-0.8-2.4
				c0-1,0.3-1.9,0.8-2.4s1.2-0.9,2.1-0.9c0.8,0,1.5,0.3,2,0.8s0.8,1.4,0.8,2.4c0,0.1,0,0.2,0,0.3H89c0,0.7,0.2,1.2,0.6,1.6
				s0.8,0.5,1.3,0.5c0.4,0,0.7-0.1,1-0.3S92.4,80.4,92.5,80z M89.1,78.3h3.5c0-0.5-0.2-0.9-0.4-1.2c-0.3-0.4-0.8-0.6-1.3-0.6
				c-0.5,0-0.9,0.2-1.2,0.5S89.1,77.7,89.1,78.3z"/>
			<path class="st23" d="M94.6,82v-6.2h0.9v0.9c0.5-0.7,1.1-1,2-1c0.4,0,0.7,0.1,1,0.2s0.5,0.3,0.7,0.5s0.3,0.5,0.3,0.8
				c0,0.2,0.1,0.5,0.1,1V82h-1.1v-3.8c0-0.4,0-0.8-0.1-1s-0.2-0.4-0.4-0.5s-0.5-0.2-0.7-0.2c-0.4,0-0.8,0.1-1.2,0.4
				s-0.5,0.8-0.5,1.6V82H94.6z"/>
			<path class="st23" d="M103.3,81.1l0.2,0.9c-0.3,0.1-0.6,0.1-0.8,0.1c-0.4,0-0.7-0.1-0.9-0.2s-0.4-0.3-0.4-0.5s-0.1-0.6-0.1-1.2
				v-3.6h-0.8v-0.8h0.8v-1.5l1-0.6v2.2h1.1v0.8h-1.1v3.6c0,0.3,0,0.5,0.1,0.6s0.1,0.2,0.2,0.2s0.2,0.1,0.4,0.1
				C102.9,81.1,103.1,81.1,103.3,81.1z"/>
			<path class="st23" d="M108.2,80l1.1,0.1c-0.2,0.6-0.5,1.1-1,1.5s-1.1,0.5-1.8,0.5c-0.9,0-1.6-0.3-2.2-0.8s-0.8-1.3-0.8-2.4
				c0-1,0.3-1.9,0.8-2.4s1.2-0.9,2.1-0.9c0.8,0,1.5,0.3,2,0.8s0.8,1.4,0.8,2.4c0,0.1,0,0.2,0,0.3h-4.6c0,0.7,0.2,1.2,0.6,1.6
				s0.8,0.5,1.3,0.5c0.4,0,0.7-0.1,1-0.3S108.1,80.4,108.2,80z M104.8,78.3h3.5c0-0.5-0.2-0.9-0.4-1.2c-0.3-0.4-0.8-0.6-1.3-0.6
				c-0.5,0-0.9,0.2-1.2,0.5S104.8,77.7,104.8,78.3z"/>
			<path class="st23" d="M110.3,82v-6.2h0.9v0.9c0.2-0.4,0.5-0.7,0.7-0.9s0.4-0.2,0.7-0.2c0.4,0,0.7,0.1,1.1,0.3l-0.4,1
				c-0.3-0.2-0.5-0.2-0.8-0.2c-0.2,0-0.4,0.1-0.6,0.2s-0.3,0.3-0.4,0.6c-0.1,0.4-0.2,0.8-0.2,1.2V82H110.3z"/>
		</g>
	</g>
</g>
</svg>
