<?xml version="1.0" encoding="UTF-8"?>
<svg width="18px" height="18px" viewBox="0 0 18 18" version="1.1" xmlns="http://www.w3.org/2000/svg" xmlns:xlink="http://www.w3.org/1999/xlink">
    <!-- Generator: Sketch 58 (84663) - https://sketch.com -->
    <title>iconfinder_Google_Chrome_1298719</title>
    <desc>Created with Sketch.</desc>
    <g id="Page-1" stroke="none" stroke-width="1" fill="none" fill-rule="evenodd">
        <g id="Test-case-11-Copy-13" transform="translate(-1112.000000, -127.000000)">
            <g id="iconfinder_Google_Chrome_1298719" transform="translate(1112.000000, 127.000000)">
                <rect id="Rectangle" x="0" y="0" width="17.92" height="17.92"></rect>
                <g id="Google_Chrome_1_">
                    <path d="M2.16356,3.12158 C6.32884,-1.72606 14.05194,-0.76916 16.93916,4.89342 C14.90678,4.89412 11.72416,4.89286 10.00048,4.89342 C8.75028,4.89384 7.94318,4.86542 7.06902,5.3256 C6.04142,5.86656 5.26596,6.86924 4.99534,8.04706 L2.16356,3.12158 Z" id="Path" fill="#EA4335"></path>
                    <path d="M5.97912,8.95972 C5.97912,10.60262 7.315,11.93934 8.95706,11.93934 C10.59898,11.93934 11.93486,10.60276 11.93486,8.95972 C11.93486,7.31682 10.59898,5.9801 8.95706,5.9801 C7.315,5.9801 5.97912,7.31682 5.97912,8.95972 Z" id="Path" fill="#4285F4"></path>
                    <path d="M10.11276,12.8597 C8.4413,13.35642 6.48536,12.80552 5.41394,10.95612 C4.59606,9.5445 2.43516,5.78004 1.45306,4.0684 C-1.98674,9.34066 0.9779,16.52532 7.22274,17.75158 L10.11276,12.8597 Z" id="Path" fill="#34A853"></path>
                    <path d="M11.72318,5.9801 C13.11534,7.27482 13.41858,9.37146 12.47554,10.99714 C11.76504,12.222 9.4976,16.04904 8.3986,17.90222 C14.83272,18.29884 19.52314,11.99296 17.40452,5.9801 L11.72318,5.9801 Z" id="Path" fill="#FBBC05"></path>
                </g>
            </g>
        </g>
    </g>
</svg>