<?xml version="1.0" encoding="UTF-8"?>
<svg width="46px" height="38px" viewBox="0 0 46 38" version="1.1" xmlns="http://www.w3.org/2000/svg" xmlns:xlink="http://www.w3.org/1999/xlink">
    <!-- Generator: Sketch 59 (86127) - https://sketch.com -->
    <title>hydrid</title>
    <desc>Created with Sketch.</desc>
    <g id="Page-1" stroke="none" stroke-width="1" fill="none" fill-rule="evenodd">
        <g id="hydrid" fill-rule="nonzero">
            <g id="iconfinder_windows_1220364" transform="translate(23.000000, 15.000000)">
                <path d="M22.9953917,5.46203991 C22.9953917,7.18197976 22.9907834,8.90191961 23,10.6170146 C23,10.8495698 22.9447005,10.9464678 22.7235023,10.9173984 C22.6866359,10.9125535 22.6451613,10.9173984 22.6082949,10.9173984 C19.7695853,10.9319331 16.9308756,10.9464678 14.0875576,10.9658474 C13.1612903,10.9706923 12.2304147,10.9803821 11.3041475,10.9997617 C11.078341,11.0046066 11,10.936778 11,10.6848432 C11.0092166,7.81181689 11.0092166,4.9387906 11,2.06576432 C11,1.81867437 11.0506912,1.71693145 11.3087558,1.68786205 C12.3456221,1.55704972 13.3732719,1.40201289 14.40553,1.25182096 C15.8341014,1.03864532 17.2580645,0.81577987 18.6820276,0.602604227 C20.0414747,0.399118386 21.4009217,0.210167248 22.7603687,0.0066814067 C22.9769585,-0.0272329002 23,0.0696651195 23,0.258616258 C22.9953917,1.98824591 22.9953917,3.72756536 22.9953917,5.46203991 Z" id="Path" fill="#00ACEE"></path>
                <path d="M8.99968789,6.47157171 C8.99968789,7.8594642 8.99968789,9.25209352 8.99968789,10.639986 C8.99968789,10.9431434 8.99968789,10.9431434 8.69756205,10.9431434 C8.13908701,10.9478803 7.58518964,10.9478803 7.0267146,10.9526171 C4.79281445,10.9668276 2.55891431,10.9810381 0.325014161,11 C0,11 0,11.0047223 0,10.6731439 C0,8.3142003 0,5.95525675 0,3.59157637 C0,3.26473479 0.00457766424,3.2789453 0.315858832,3.23157695 C1.12152774,3.11789293 1.92719664,2.9899984 2.73286555,2.87157754 C3.35085022,2.78157768 3.97341256,2.70578833 4.59139723,2.62052531 C5.8365219,2.44526244 7.08164657,2.26052589 8.32219358,2.08052619 C8.50072248,2.05210518 8.67925139,2 8.86235796,2 C8.95848891,2 9.00426555,2.03315784 8.99968789,2.1373682 C8.99511022,2.21789438 8.99968789,2.29368374 8.99968789,2.37420992 C8.99968789,3.73841824 8.99968789,5.10262656 8.99968789,6.47157171 Z M8.8577803,6.4431507 C8.8577803,5.08841605 8.85320263,3.72894457 8.86235796,2.37420992 C8.86235796,2.17526287 8.793693,2.13263136 8.62431942,2.14210503 C8.48241183,2.1515787 8.37254789,2.23684172 8.2306403,2.24631539 C7.92851446,2.26526273 7.63096628,2.32210474 7.32884044,2.36473625 C6.73832175,2.44999927 6.1432254,2.52578862 5.55728438,2.62052531 C5.20022657,2.67736732 4.82943577,2.67263049 4.48611095,2.81947236 C4.42660132,2.84315653 4.36709168,2.86210387 4.30758205,2.8384197 C4.11532015,2.75789351 3.91848059,2.82894603 3.74910701,2.87157754 C3.31880657,2.98526156 2.87477314,3.01368257 2.43531737,3.07526142 C2.06910423,3.1273666 1.7028911,3.20315595 1.33210029,3.21736645 C1.02081912,3.22684012 0.741581606,3.39262932 0.42114511,3.37841882 C0.146485256,3.36420832 0.109863942,3.4163135 0.109863942,3.70999723 C0.109863942,5.98367776 0.109863942,8.25262146 0.109863942,10.526302 C0.109863942,10.8341962 0.141907591,10.8578804 0.439455767,10.8626172 C1.89973066,10.8863014 3.36458321,10.7915647 4.8248581,10.8105121 C6.04251679,10.8247226 7.26475314,10.8152489 8.48241183,10.8105121 C8.83489197,10.8105121 8.85320263,10.7963015 8.85320263,10.4173548 C8.8577803,9.09104115 8.8577803,7.76946434 8.8577803,6.4431507 Z" id="Shape" fill="#35ABD5"></path>
                <path d="M8.99512404,16.551471 C8.99512404,17.9475854 8.99055103,19.3436998 8.99969706,20.7398143 C8.99969706,20.9527809 8.95853991,21.0285023 8.7390351,20.9906416 C8.08052068,20.881792 7.41743325,20.7871402 6.75434581,20.6924884 C6.06839329,20.5931039 5.38244077,20.5126499 4.69648825,20.4085329 C3.72700869,20.2665551 2.75752913,20.1103796 1.78347655,19.9684019 C1.27129867,19.8926804 0.759120789,19.816959 0.246942907,19.7601679 C0.0640222352,19.7412375 0,19.6797138 0,19.4856776 C0.0045730168,17.0815212 0.0045730168,14.6773648 0,12.2684759 C0,12.0649745 0.0503031848,11.9703226 0.260661958,12.0081834 C0.35669531,12.0223811 0.45730168,12.0129159 0.557908049,12.0129159 C3.2925721,12.0271137 6.02723614,12.0460441 8.76190019,12.0555093 C8.95853991,12.0555093 9.00427008,12.1217655 8.99969706,12.3110692 C8.99055103,13.726114 8.99512404,15.1364262 8.99512404,16.551471 Z M8.85336052,16.5562036 C8.85336052,15.231078 8.84421449,13.9059525 8.85793354,12.5855595 C8.86250656,12.2400803 8.711597,12.1880218 8.4646541,12.1880218 C8.08966672,12.1880218 7.71925236,12.2069522 7.33969196,12.197487 C5.66596781,12.1501611 3.99224367,12.2306151 2.31851952,12.1454285 C1.6874432,12.1123004 1.05636688,12.1406959 0.420717546,12.1406959 C0.141763521,12.1406959 0.109752403,12.1785566 0.109752403,12.4719773 C0.109752403,14.7483537 0.109752403,17.0294627 0.109752403,19.3058391 C0.109752403,19.6134575 0.155482571,19.6418531 0.448155646,19.6702486 C0.900884309,19.712842 1.35361297,19.7507027 1.7971956,19.8406219 C2.35510365,19.9494715 2.91758472,20.0109952 3.48006578,20.0914493 C3.77273886,20.1340426 4.07455797,20.1435078 4.35351199,20.2144966 C4.75136445,20.3091485 5.15378993,20.337544 5.55164239,20.4038003 C5.98607899,20.4795218 6.43423464,20.5363128 6.87781727,20.5836388 C7.44487135,20.649895 8.01649845,20.7161513 8.57897952,20.8439313 C8.76190019,20.8865246 8.84878751,20.8297335 8.84878751,20.6025691 C8.84878751,19.249048 8.85336052,17.9002595 8.85336052,16.5562036 Z" id="Shape" fill="#35ABD5"></path>
                <path d="M23,17.5483806 C23,19.24836 23,20.9483394 23,22.6531347 C23,23.0239517 23,23.0287675 22.6365031,22.9757937 C21.7714724,22.8457669 20.9110429,22.7109244 20.0460123,22.5857134 C18.8542945,22.4123444 17.6625767,22.248607 16.4754601,22.0704222 C15.3481595,21.9066848 14.2162577,21.7381316 13.0889571,21.5599468 C12.4631902,21.4588149 11.8282209,21.405841 11.202454,21.2854459 C11.0046012,21.2469194 11,21.1554191 11,21.0013133 C11,19.4361764 11,17.8710396 11,16.3059027 C11,14.9719245 11,13.6427621 11,12.3087839 C11,12.0150197 11.0092025,11.9957565 11.303681,12.0005723 C15.1273006,12.0679936 18.9509202,12.0679936 22.7745399,12.0872568 C22.9677914,12.0872568 23,12.1691255 23,12.3424945 C23,14.0810004 23,15.8146905 23,17.5483806 C23,17.5483806 23,17.5483806 23,17.5483806 Z M22.9217791,17.5002225 C22.9217791,16.1855075 22.9217791,14.8659768 22.9217791,13.5512618 C22.9217791,13.1756289 22.9217791,12.7951803 22.9217791,12.4195474 C22.9217791,12.3232313 22.940184,12.2220994 22.797546,12.2124678 C22.6365031,12.2028362 22.4800613,12.1739413 22.3190184,12.1691255 C20.7177914,12.1402307 19.1165644,12.1691255 17.5153374,12.1305991 C15.4861963,12.082441 13.452454,12.1161517 11.4187117,12.1161517 C11.0966258,12.1161517 11.0966258,12.1161517 11.0966258,12.4436264 C11.0966258,15.106767 11.0966258,17.7699076 11.0966258,20.437864 C11.0966258,20.6304963 11.101227,20.8231285 11.0966258,21.0157607 C11.0920245,21.1602349 11.1518405,21.208393 11.2898773,21.2180246 C11.5107362,21.232472 11.7269939,21.2854459 11.9478528,21.2902617 C12.3297546,21.2998933 12.6932515,21.4395516 13.0797546,21.4588149 C13.452454,21.4780781 13.8205521,21.5310519 14.1886503,21.57921 C14.6257669,21.6418155 15.0582822,21.7718422 15.4953988,21.776658 C15.9877301,21.7814738 16.4570552,21.9403954 16.9447853,21.9692903 C17.4003067,21.9981851 17.8466258,22.1089486 18.297546,22.1763699 C18.8312883,22.2534228 19.3696319,22.3112125 19.9033742,22.4027128 C20.3174847,22.4749499 20.7315951,22.5086605 21.1457055,22.5664502 C21.5782209,22.6290557 22.0015337,22.7350034 22.4386503,22.7109244 C22.4708589,22.7109244 22.5076687,22.744635 22.5398773,22.7590824 C22.8067485,22.8794776 22.9217791,22.8024247 22.9217791,22.4942131 C22.9217791,20.8375759 22.9217791,19.1713071 22.9217791,17.5002225 Z" id="Shape" fill="#35ABD5"></path>
                <path d="M8.99058577,6.43814425 C8.99058577,7.80637338 8.99058577,9.17460252 8.99058577,10.5379451 C8.99058577,10.9288677 8.97646444,10.9435273 8.60930962,10.9435273 C7.35721757,10.9435273 6.10041841,10.9581869 4.84832636,10.9435273 C3.34205021,10.9239812 1.84048117,11.0168253 0.338912134,10.9972792 C0.0329497908,10.9923927 0,10.9630735 0,10.6503354 C0,8.30479971 0,5.96415058 0,3.61861491 C0,3.31564989 0.0376569038,3.26189803 0.320083682,3.27655763 C0.644874477,3.29610376 0.936715481,3.12018859 1.25679916,3.11041552 C1.63807531,3.10064246 2.01464435,3.0175714 2.39121339,2.96381954 C2.83838912,2.90029462 3.29497908,2.87586195 3.74215481,2.75369864 C3.91631799,2.70483331 4.11872385,2.63642185 4.31642259,2.71949291 C4.37761506,2.74392557 4.43880753,2.72437944 4.5,2.69994678 C4.85303347,2.54846427 5.23430962,2.5533508 5.60146444,2.49471241 C6.20868201,2.39698176 6.81589958,2.3139107 7.42311715,2.23083965 C7.7290795,2.18686085 8.03974895,2.12822246 8.35041841,2.10867633 C8.49633891,2.09890326 8.61401674,2.01094568 8.75523013,2.00117261 C8.93410042,1.99139955 9,2.04026487 9,2.24061271 C8.99058577,3.63816105 8.99058577,5.03570938 8.99058577,6.43814425 Z" id="Path" fill="#00ACEE"></path>
                <path d="M8.98578223,16.5698695 C8.98578223,17.9607517 8.98107763,19.3516338 8.99048683,20.7376357 C8.99048683,20.9718895 8.90109947,21.030453 8.71291555,20.9865304 C8.13424999,20.8547626 7.54617524,20.7815583 6.96280508,20.7181145 C6.50645907,20.6644314 6.04540847,20.6058679 5.59847165,20.5326636 C5.18917162,20.4643396 4.775167,20.4350578 4.36586697,20.3374521 C4.07888649,20.269128 3.76838302,20.2544872 3.46728875,20.2105646 C2.88862319,20.1275997 2.30995763,20.0641559 1.73599667,19.9519093 C1.27965066,19.8591838 0.813895459,19.8201415 0.348140254,19.7762189 C0.0423413822,19.7469372 0,19.7225357 0,19.4004367 C0,17.053018 0,14.7007191 0,12.3533004 C0,12.0458423 0.0329321862,12.0116802 0.319912666,12.0116802 C0.969147194,12.0116802 1.62308632,11.9823985 2.27232085,12.0165605 C3.99420373,12.1044057 5.7160866,12.0165605 7.43796948,12.0702437 C7.82374652,12.0800043 8.20952356,12.0653634 8.5953006,12.0604831 C8.84934889,12.0604831 9.00460062,12.1141663 8.99989603,12.4704273 C8.97637304,13.8369081 8.98578223,15.2033888 8.98578223,16.5698695 Z" id="Path" fill="#00ACEE"></path>
                <path d="M22.9992142,17.5275542 C22.9992142,19.2441215 22.9992142,20.9557419 22.9992142,22.6723092 C22.9992142,22.9889095 22.8824903,23.0680596 22.6116909,22.9443876 C22.5743393,22.9295469 22.5416566,22.8949188 22.5089739,22.8949188 C22.0654232,22.9196532 21.6312104,22.8108218 21.1969976,22.7465124 C20.7767916,22.6871498 20.3565857,22.6525217 19.9363797,22.5783185 C19.394781,22.4793809 18.8485132,22.4249652 18.3069145,22.3458151 C17.8493569,22.2765588 17.3917993,22.1627806 16.9342417,22.1330993 C16.4393325,22.0984711 15.967768,21.940171 15.4635209,21.9352241 C15.0199702,21.9302772 14.5810884,21.7967115 14.1375377,21.732402 C13.7640213,21.6779863 13.385836,21.6285175 13.0123196,21.60873 C12.6247963,21.5889425 12.2559489,21.445483 11.8637567,21.4355892 C11.6396468,21.4306423 11.4202059,21.3762267 11.1960961,21.361386 C11.0606964,21.3514923 11,21.2970766 11,21.1536171 C11.004669,20.9557419 11,20.7578667 11,20.5599915 C11,17.824367 11,15.0887424 11,12.348171 C11,12.0117832 11,12.0117832 11.3268268,12.0117832 C13.3905049,12.0117832 15.449514,11.977155 17.5131921,12.0266238 C19.1379884,12.0661989 20.7627848,12.0365176 22.3875811,12.0661989 C22.5509945,12.0711458 22.709739,12.100827 22.8731524,12.1107208 C23.01789,12.1156677 22.9992142,12.224499 22.9992142,12.3234366 C22.9992142,12.7092932 22.9992142,13.1000968 22.9992142,13.4859534 C22.9992142,14.8265578 22.9992142,16.177056 22.9992142,17.5275542 Z" id="Path" fill="#00ACEE"></path>
            </g>
            <g id="iconfinder_Apple_367618" transform="translate(0.000000, 19.000000)" fill="#000000">
                <path d="M7.90956223,3.80897222 C7.66195044,3.88072222 7.31193352,3.93613889 6.86436894,3.97541667 C6.88451552,3.00039444 7.14482841,2.15938333 7.64920952,1.45355 C8.14431365,0.752266667 8.98067533,0.267711111 10.1597279,0 C10.1670539,0.0187444444 10.17653,0.0562722222 10.1856079,0.108383333 C10.1947654,0.160494444 10.2038831,0.196233333 10.2112888,0.215911111 C10.2112888,0.241811111 10.2130805,0.274905556 10.2167435,0.314183333 C10.2186148,0.353811111 10.2204065,0.385972222 10.2204065,0.413038889 C10.2204065,0.812116667 10.1231376,1.25646111 9.928958,1.74723889 C9.7289654,2.23801667 9.41705179,2.68947778 8.99532738,3.10166111 C8.6340029,3.45426667 8.2708469,3.69071111 7.90956223,3.80897222 Z M12.4117251,10.6892333 C11.9497871,10.0423944 11.7186987,9.31155556 11.7186987,8.50033333 C11.7186987,7.76058889 11.9352147,7.08333889 12.3715115,6.46901111 C12.606263,6.13398333 12.987734,5.74886667 13.517597,5.31023889 C13.1691328,4.89093889 12.8209076,4.56512778 12.4724435,4.32864444 C11.8415291,3.90397778 11.1281173,3.69075 10.330496,3.69075 C9.85541901,3.69075 9.27578685,3.80181667 8.59370974,4.02398889 C7.93731354,4.24795 7.45670221,4.35785 7.15585727,4.35785 C6.92839206,4.35785 6.46641431,4.26047222 5.76940644,4.06361667 C5.06539106,3.86707222 4.47297816,3.76965556 3.99061495,3.76965556 C2.83712385,3.76965556 1.8870893,4.24048333 1.13517603,5.18276111 C0.37780805,6.13756111 0,7.36275556 0,8.85297778 C0,10.4385167 0.493352255,12.0827 1.47818544,13.7915167 C2.475879,15.4860611 3.48448196,16.3333333 4.50224246,16.3333333 C4.84342037,16.3333333 5.28708304,16.2222278 5.82829337,16.0000944 C6.37101669,15.7836 6.84784556,15.6757611 7.2567096,15.6757611 C7.69157308,15.6757611 8.19766625,15.7805667 8.77335669,15.9893222 C9.38225315,16.1990111 9.85179582,16.3035444 10.180193,16.3035444 C11.0384929,16.3035444 11.8983059,15.6626556 12.7639318,14.3799833 C13.3252489,13.5621889 13.737776,12.7447056 14,11.9269111 C13.4020528,11.7494611 12.8740213,11.33755 12.4117251,10.6892333 Z" id="Shape"></path>
            </g>
            <path d="M12.0579081,6.16553532 L12.0579081,10.3027881 C12.0579081,10.8529927 11.6256045,11.2924418 11.0753999,11.2924418 C10.5287681,11.2924418 10,10.8494199 10,10.3027881 L10,6.16553532 C10,5.62604898 10.5287681,5.18302709 11.0753999,5.18302709 C11.6148862,5.18302709 12.0579081,5.62604898 12.0579081,6.16553532 Z M12.4437659,11.774764 C12.4437659,12.3606962 12.9153698,12.8323001 13.501302,12.8323001 L14.2122807,12.8323001 L14.2229989,15.0152547 C14.2229989,16.3336021 16.1951609,16.3228838 16.1951609,15.0152547 L16.1951609,12.8323001 L17.5242265,12.8323001 L17.5242265,15.0152547 C17.5242265,16.3264566 19.5071067,16.3300293 19.5071067,15.0152547 L19.5071067,12.8323001 L20.2288037,12.8323001 C20.8075903,12.8323001 21.2791943,12.3606962 21.2791943,11.774764 L21.2791943,5.36523772 L12.4437659,5.36523772 L12.4437659,11.774764 Z M21.3042036,5.01868027 L12.4044655,5.01868027 C12.4044655,3.48954023 13.3190914,2.16047457 14.6767391,1.46735969 L13.9943425,0.20617642 C13.8943053,0.0311113223 14.147971,-0.0796441486 14.2337172,0.0704116507 L14.9268321,1.34231319 C16.1737243,0.788535835 17.6063999,0.81711789 18.7961281,1.34231319 L19.4856702,0.0739844079 C19.5749891,-0.0796441486 19.8250821,0.0346840795 19.7250449,0.20974918 L19.0426483,1.46735969 C20.3895777,2.16047457 21.3042036,3.48954023 21.3042036,5.01868027 L21.3042036,5.01868027 Z M15.2055071,3.03580005 C15.2055071,2.83215292 15.0411603,2.66066056 14.8303676,2.66066056 C14.6267205,2.66066056 14.4659464,2.83215292 14.4659464,3.03580005 C14.4659464,3.23944721 14.6302932,3.41093955 14.8303676,3.41093955 C15.0411603,3.41093955 15.2055071,3.23944721 15.2055071,3.03580005 Z M19.2570137,3.03580005 C19.2570137,2.83215292 19.0926669,2.66066056 18.8925925,2.66066056 C18.6817998,2.66066056 18.517453,2.83215292 18.517453,3.03580005 C18.517453,3.23944721 18.6817998,3.41093955 18.8925925,3.41093955 C19.0926669,3.41093955 19.2570137,3.23944721 19.2570137,3.03580005 Z M22.6439875,5.18302709 C22.1045012,5.18302709 21.6614793,5.61533071 21.6614793,6.16553532 L21.6614793,10.3027881 C21.6614793,10.8529927 22.1045012,11.2924418 22.6439875,11.2924418 C23.1941921,11.2924418 23.7193874,10.8494199 23.7193874,10.3027881 L23.7193874,6.16553532 C23.7193874,5.61533071 23.1906193,5.18302709 22.6439875,5.18302709 Z" id="Shape" fill="#A4C639"></path>
        </g>
    </g>
</svg>