<?xml version="1.0" encoding="UTF-8"?>
<svg width="60px" height="60px" viewBox="0 0 60 60" version="1.1" xmlns="http://www.w3.org/2000/svg" xmlns:xlink="http://www.w3.org/1999/xlink">
    <!-- Generator: Sketch 59 (86127) - https://sketch.com -->
    <title>internet-explorer</title>
    <desc>Created with Sketch.</desc>
    <g id="Page-1" stroke="none" stroke-width="1" fill="none" fill-rule="evenodd">
        <g id="internet-explorer" fill="#1EBBEE" fill-rule="nonzero">
            <path d="M59.8995349,31.5084906 C59.8995349,26.7062264 58.6752558,22.1946226 56.5283721,18.2742453 C65.6793488,-2.72943396 46.7229767,0.346981132 45.6675349,0.556415094 C41.6514419,1.35339623 37.935907,2.63292453 34.5086512,4.25490566 C34.0032558,4.22603774 33.4947907,4.21018868 32.9824186,4.21018868 C20.191814,4.21018868 9.48530233,13.2577358 6.74511628,25.3865094 C13.4866047,17.7164151 18.2045581,14.6216038 21.0298605,13.3831132 C20.5788837,13.7917925 20.1373953,14.205 19.7031628,14.6213208 C19.5586047,14.759717 19.4193488,14.9000943 19.2767442,15.0393396 C18.9904186,15.3186792 18.7046512,15.5983019 18.4255814,15.8804717 C18.2595349,16.0483019 18.0979535,16.2175472 17.9344186,16.3865094 C17.6868837,16.6420755 17.439907,16.8973585 17.1982326,17.1543396 C17.0266047,17.3368868 16.8591628,17.52 16.6906047,17.7028302 C16.4648372,17.9479245 16.2404651,18.1933019 16.0202791,18.4395283 C15.8492093,18.6308491 15.6809302,18.8221698 15.5129302,19.0140566 C15.304186,19.2523585 15.0973953,19.4906604 14.8933953,19.7295283 C14.7242791,19.9276415 14.5565581,20.1257547 14.3907907,20.3241509 C14.1973953,20.5556604 14.0065116,20.7871698 13.8175814,21.0186792 C13.6504186,21.2235849 13.483814,21.4282075 13.3202791,21.6328302 C13.1433488,21.8541509 12.9703256,22.0751887 12.7975814,22.2959434 C12.6301395,22.5099057 12.4626977,22.7235849 12.2991628,22.9372642 C12.1434419,23.1407547 11.992186,23.3433962 11.839814,23.5463208 C11.667907,23.775566 11.4946047,24.0048113 11.3271628,24.2329245 C11.2074419,24.3962264 11.0924651,24.5578302 10.9749767,24.720566 C9.91144186,26.1922642 8.93972093,27.6356604 8.06204651,29.0221698 C8.05981395,29.025566 8.0575814,29.0289623 8.05562791,29.0323585 C7.82455814,29.3974528 7.6015814,29.7571698 7.38306977,30.1137736 C7.37134884,30.1330189 7.35906977,30.1525472 7.34734884,30.1720755 C7.12855814,30.5300943 6.91730233,30.8818868 6.71134884,31.23 C6.70409302,31.2421698 6.69655814,31.2546226 6.68930233,31.2667925 C6.13562791,32.2038679 5.62213953,33.1072642 5.15972093,33.9571698 C2.73544186,38.4127358 1.55525581,41.5256604 1.50418605,41.7104717 C-6.15125581,69.4666981 17.7415814,57.7454717 21.0756279,55.9958491 C24.6655814,57.794434 28.7070698,58.8067925 32.9824186,58.8067925 C44.6866047,58.8067925 54.6446512,51.2300943 58.3512558,40.649434 L44.208,40.649434 C42.1152558,44.235 38.0863256,46.6635849 33.4576744,46.6635849 C26.676,46.6635849 21.1786047,41.4526415 21.1786047,35.024434 L59.6790698,35.024434 C59.8250233,33.8731132 59.9006512,32.699717 59.9006512,31.5084906 L59.8995349,31.5084906 Z M54.8712558,4.6454717 C57.1892093,6.23207547 59.0483721,8.72377358 55.8555349,17.115 C52.7933023,12.120566 48.1861395,8.20273585 42.7102326,6.04924528 C45.2012093,4.82915094 51.3700465,2.24858491 54.8712558,4.6454717 L54.8712558,4.6454717 Z M5.60986047,55.9398113 C3.72195349,53.9762264 3.38818605,49.1937736 7.55413953,40.4790566 C9.65665116,46.6095283 13.852186,51.7463208 19.2750698,55.0064151 C16.5781395,56.5117925 9.41832558,59.9012264 5.60986047,55.9398113 Z M21.1180465,27.5586792 C21.3332093,21.3110377 26.6946977,16.3086792 33.2821395,16.3086792 C39.8693023,16.3086792 45.2310698,21.3110377 45.4462326,27.5586792 L21.1180465,27.5586792 L21.1180465,27.5586792 Z" id="svg"></path>
        </g>
    </g>
</svg>