<svg xmlns="http://www.w3.org/2000/svg" width="24" height="24" viewBox="0 0 24 24"><path d="M13 23c0-.552-.448-1-1-1s-1 .448-1 1 .448 1 1 1 1-.448 1-1zm4.084-.834c0-.483-.393-.875-.875-.875s-.875.392-.875.875.393.875.875.875.875-.392.875-.875zm3.443-2.387c0-.414-.336-.75-.75-.75s-.75.336-.75.75.336.75.75.75.75-.336.75-.75zm2.343-3.568c0-.391-.317-.708-.708-.708s-.708.317-.708.708.317.708.708.708.708-.317.708-.708zm.796-4.209c0-.368-.298-.667-.666-.667s-.666.298-.666.667.298.667.666.667.666-.298.666-.667zm-.879-4.209c0-.345-.28-.625-.625-.625s-.625.28-.625.625.28.625.625.625.625-.279.625-.625zm-2.427-3.568c0-.322-.262-.583-.583-.583s-.583.261-.583.583.262.583.583.583.583-.261.583-.583zm-3.609-2.385c0-.299-.242-.542-.541-.542s-.541.242-.541.542.242.542.541.542.541-.243.541-.542zm-3.751-.84c0-.552-.448-1-1-1s-1 .448-1 1 .448 1 1 1 1-.448 1-1zm-4.21.838c0-.552-.448-1-1-1s-1 .448-1 1 .448 1 1 1 1-.448 1-1zm-3.569 2.385c0-.552-.448-1-1-1s-1 .448-1 1 .448 1 1 1 1-.448 1-1zm-2.384 3.57c0-.552-.448-1-1-1s-1 .448-1 1 .448 1 1 1 1-.447 1-1zm-.837 4.209c0-.552-.448-1-1-1s-1 .448-1 1 .448 1 1 1 1-.448 1-1zm.837 4.209c0-.552-.448-1-1-1s-1 .448-1 1 .448 1 1 1 1-.447 1-1zm2.384 3.569c0-.552-.448-1-1-1s-1 .448-1 1 .448 1 1 1 1-.447 1-1zm3.571 2.383c0-.552-.448-1-1-1s-1 .448-1 1 .448 1 1 1 1-.448 1-1z"/></svg>
