<svg width="31" height="34" viewBox="0 0 31 34" fill="none" xmlns="http://www.w3.org/2000/svg">
<path d="M1.9987 17.0833C1.9987 17.3043 1.9109 17.5163 1.75462 17.6726C1.59834 17.8289 1.38638 17.9167 1.16536 17.9167C0.944351 17.9167 0.732389 17.8289 0.576109 17.6726C0.419829 17.5163 0.332031 17.3043 0.332031 17.0833V13.3333C0.332031 13.1123 0.419829 12.9004 0.576109 12.7441C0.732389 12.5878 0.944351 12.5 1.16536 12.5C1.38638 12.5 1.59834 12.5878 1.75462 12.7441C1.9109 12.9004 1.9987 13.1123 1.9987 13.3333V17.0833Z" fill="#7CB342"/>
<path d="M13.6667 17.0833C13.6667 17.3043 13.5789 17.5163 13.4226 17.6726C13.2663 17.8289 13.0543 17.9167 12.8333 17.9167C12.6123 17.9167 12.4004 17.8289 12.2441 17.6726C12.0878 17.5163 12 17.3043 12 17.0833V13.3333C12 13.1123 12.0878 12.9004 12.2441 12.7441C12.4004 12.5878 12.6123 12.5 12.8333 12.5C13.0543 12.5 13.2663 12.5878 13.4226 12.7441C13.5789 12.9004 13.6667 13.1123 13.6667 13.3333V17.0833Z" fill="#7CB342"/>
<path d="M6.16667 21.6663C6.16667 21.8874 6.07887 22.0993 5.92259 22.2556C5.76631 22.4119 5.55435 22.4997 5.33333 22.4997C5.11232 22.4997 4.90036 22.4119 4.74408 22.2556C4.5878 22.0993 4.5 21.8874 4.5 21.6663V17.9163C4.5 17.6953 4.5878 17.4834 4.74408 17.3271C4.90036 17.1708 5.11232 17.083 5.33333 17.083C5.55435 17.083 5.76631 17.1708 5.92259 17.3271C6.07887 17.4834 6.16667 17.6953 6.16667 17.9163V21.6663Z" fill="#7CB342"/>
<path d="M9.4987 21.6663C9.4987 21.8874 9.4109 22.0993 9.25462 22.2556C9.09834 22.4119 8.88638 22.4997 8.66536 22.4997C8.44435 22.4997 8.23239 22.4119 8.07611 22.2556C7.91983 22.0993 7.83203 21.8874 7.83203 21.6663V17.9163C7.83203 17.6953 7.91983 17.4834 8.07611 17.3271C8.23239 17.1708 8.44435 17.083 8.66536 17.083C8.88638 17.083 9.09834 17.1708 9.25462 17.3271C9.4109 17.4834 9.4987 17.6953 9.4987 17.9163V21.6663Z" fill="#7CB342"/>
<path d="M2.83203 12.5V18.7496C2.83203 18.9706 2.91983 19.1826 3.07611 19.3388C3.23239 19.4951 3.44435 19.5829 3.66536 19.5829H10.332C10.553 19.5829 10.765 19.4951 10.9213 19.3388C11.0776 19.1826 11.1654 18.9706 11.1654 18.7496V12.5H2.83203Z" fill="#7CB342"/>
<path d="M6.9987 8.33301C4.4987 8.33301 2.97578 9.85176 2.83203 11.6663H11.1654C11.0212 9.85176 9.4987 8.33301 6.9987 8.33301ZM5.33203 10.6655C5.22152 10.6655 5.11554 10.6216 5.0374 10.5435C4.95926 10.4653 4.91536 10.3593 4.91536 10.2488C4.91536 10.1383 4.95926 10.0324 5.0374 9.95421C5.11554 9.87607 5.22152 9.83217 5.33203 9.83217C5.44254 9.83217 5.54852 9.87607 5.62666 9.95421C5.7048 10.0324 5.7487 10.1383 5.7487 10.2488C5.7487 10.3593 5.7048 10.4653 5.62666 10.5435C5.54852 10.6216 5.44254 10.6655 5.33203 10.6655ZM8.66536 10.6655C8.55486 10.6655 8.44888 10.6216 8.37074 10.5435C8.2926 10.4653 8.2487 10.3593 8.2487 10.2488C8.2487 10.1383 8.2926 10.0324 8.37074 9.95421C8.44888 9.87607 8.55486 9.83217 8.66536 9.83217C8.77587 9.83217 8.88185 9.87607 8.95999 9.95421C9.03813 10.0324 9.08203 10.1383 9.08203 10.2488C9.08203 10.3593 9.03813 10.4653 8.95999 10.5435C8.88185 10.6216 8.77587 10.6655 8.66536 10.6655Z" fill="#7CB342"/>
<path d="M9.49885 7.91699L8.80469 8.95824" stroke="#7CB342" stroke-width="2" stroke-linecap="round"/>
<path d="M4.5 7.91699L5.05542 8.78449" stroke="#7CB342" stroke-width="2" stroke-linecap="round"/>
<path d="M15 19.2723L21.5388 18.3819L21.5416 24.689L15.0059 24.7262L15 19.2724V19.2723ZM21.5356 25.4156L21.5406 31.7282L15.0051 30.8297L15.0047 25.3733L21.5356 25.4156H21.5356ZM22.3282 18.2653L30.998 17V24.6087L22.3282 24.6775V18.2654V18.2653ZM31 25.475L30.9979 33.0494L22.3282 31.8258L22.3161 25.4608L31 25.475Z" fill="#00ADEF"/>
<path d="M27.1114 10.2077C26.9268 10.638 26.6987 11.0484 26.4307 11.4323C26.0727 11.9437 25.7787 12.297 25.5534 12.4937C25.2034 12.815 24.8274 12.9803 24.4254 12.9897C24.1374 12.9897 23.7894 12.9077 23.3841 12.741C22.9774 12.575 22.6041 12.4937 22.2621 12.4937C21.9041 12.4937 21.5201 12.575 21.1087 12.741C20.6981 12.9077 20.3661 12.995 20.1121 13.003C19.7274 13.0197 19.3427 12.8503 18.9594 12.4937C18.7147 12.2803 18.4087 11.9137 18.0414 11.395C17.6481 10.8423 17.3247 10.199 17.0714 9.46768C16.8001 8.67634 16.6641 7.91101 16.6641 7.16968C16.6641 6.32101 16.8474 5.58834 17.2147 4.97501C17.4926 4.49332 17.8898 4.0913 18.3681 3.80767C18.8397 3.52479 19.3781 3.37247 19.9281 3.36634C20.2347 3.36634 20.6367 3.46101 21.1347 3.64767C21.6327 3.83434 21.9527 3.92901 22.0921 3.92901C22.1974 3.92901 22.5514 3.81767 23.1541 3.59701C23.7227 3.39234 24.2027 3.30767 24.5961 3.34101C25.6627 3.42701 26.4634 3.84701 26.9961 4.60434C26.0427 5.18234 25.5714 5.99101 25.5807 7.02901C25.5887 7.83768 25.8827 8.51034 26.4587 9.04434C26.7134 9.28803 27.0105 9.48303 27.3354 9.61968C27.2647 9.82434 27.1901 10.0197 27.1114 10.2077V10.2077ZM24.6667 0.587008C24.6667 1.22034 24.4347 1.81234 23.9741 2.35967C23.4167 3.01034 22.7434 3.38701 22.0134 3.32767C22.0038 3.24803 21.9992 3.16789 21.9994 3.08767C21.9994 2.47901 22.2634 1.82834 22.7347 1.29567C22.9694 1.02634 23.2681 0.801675 23.6301 0.623008C23.9914 0.447008 24.3327 0.349674 24.6541 0.333008C24.6627 0.418341 24.6667 0.503008 24.6667 0.587008V0.587008Z" fill="#6A737D"/>
</svg>
