<?xml version="1.0" encoding="UTF-8"?>
<svg width="184px" height="44px" viewBox="0 0 184 44" version="1.1" xmlns="http://www.w3.org/2000/svg" xmlns:xlink="http://www.w3.org/1999/xlink">
    <!-- Generator: Sketch 55.2 (78181) - https://sketchapp.com -->
    <title>Group 8</title>
    <desc>Created with Sketch.</desc>
    <g id="Page-1" stroke="none" stroke-width="1" fill="none" fill-rule="evenodd">
        <g id="Test-Sigma-Site-**Final**" transform="translate(-103.000000, -48.000000)" fill-rule="nonzero">
            <g id="Group-8" transform="translate(103.000000, 48.000000)">
                <path d="M58.64408,17.15776 L58.33448,18.9844 C58.2931998,19.1495208 58.2003207,19.2939994 58.05584,19.41784 C57.9113593,19.5416806 57.7565608,19.6036 57.59144,19.6036 L54.80504,19.6036 L53.10224,29.32504 C52.9990395,29.8410426 52.94744,30.202239 52.94744,30.40864 C52.94744,30.6976014 53.0248392,30.8781996 53.17964,30.95044 C53.3344408,31.0226804 53.607918,31.0588 54.00008,31.0588 L55.64096,31.0588 C55.7854407,31.0588 55.9144394,31.0794398 56.02796,31.12072 C56.1414806,31.1620002 56.19824,31.2651992 56.19824,31.43032 L56.19824,31.5232 L55.85768,33.47368 C55.7957597,33.7832815 55.568722,33.9690397 55.17656,34.03096 C54.784398,34.0928803 54.4180417,34.1444798 54.07748,34.18576 C53.7369183,34.2270402 53.3912018,34.24768 53.04032,34.24768 C51.6780732,34.24768 50.6357636,33.9896826 49.91336,33.47368 C49.1909564,32.9576774 48.82976,32.0804862 48.82976,30.84208 C48.82976,30.6150389 48.8452398,30.3776812 48.8762,30.13 C48.9071602,29.8823188 48.9432798,29.6140014 48.98456,29.32504 L50.68736,19.6036 L47.83904,19.17016 C47.5087983,19.1288798 47.34368,18.9534415 47.34368,18.64384 L47.34368,18.55096 L47.59136,17.15776 C47.6326402,16.9926392 47.7203593,16.8481606 47.85452,16.72432 C47.9886807,16.6004794 48.1383192,16.53856 48.30344,16.53856 L51.21368,16.53856 L51.67808,13.99984 C51.7193602,13.8347192 51.8070793,13.7005605 51.94124,13.59736 C52.0754007,13.4941595 52.2250392,13.4219202 52.39016,13.38064 L55.36232,12.88528 L55.48616,12.88528 C55.7751214,12.88528 55.9196,13.0091188 55.9196,13.2568 L55.9196,13.34968 L55.33136,16.53856 L58.11776,16.53856 C58.4686418,16.53856 58.64408,16.7139982 58.64408,17.06488 L58.64408,17.15776 Z M74.1144754,22.66864 C74.1144754,22.9576014 74.0989955,23.2517185 74.0680354,23.551 C74.0370752,23.8502815 74.0009556,24.1443986 73.9596754,24.43336 L73.7119954,25.91944 C73.6087949,26.4354426 73.3611173,26.69344 72.9689554,26.69344 L62.8759954,26.69344 C62.8347152,26.9204811 62.7985955,27.132039 62.7676354,27.32812 C62.7366752,27.524201 62.7211954,27.7357589 62.7211954,27.9628 C62.7211954,28.8090442 62.958553,29.4849975 63.4332754,29.99068 C63.9079977,30.4963625 64.7232696,30.7492 65.8791154,30.7492 C67.0143211,30.7492 68.0875903,30.7079204 69.0989554,30.62536 C70.1103204,30.5427996 70.9462321,30.4705603 71.6067154,30.40864 L71.7305554,30.40864 C71.854396,30.40864 71.9627549,30.4292798 72.0556354,30.47056 C72.1485158,30.5118402 72.1949554,30.6047193 72.1949554,30.7492 L72.1949554,30.87304 L71.8234354,32.9164 C71.7821552,33.1640812 71.7150758,33.3498394 71.6221954,33.47368 C71.5293149,33.5975206 71.3383968,33.6800798 71.0494354,33.72136 C70.5334328,33.8039204 70.0483976,33.8813196 69.5943154,33.95356 C69.1402331,34.0258004 68.6758377,34.0825598 68.2011154,34.12384 C67.726393,34.1651202 67.2207181,34.1960799 66.6840754,34.21672 C66.1474327,34.2373601 65.5282389,34.24768 64.8264754,34.24768 C64.145352,34.24768 63.443599,34.144481 62.7211954,33.93808 C61.9987918,33.731679 61.3434783,33.3859624 60.7552354,32.90092 C60.1669924,32.4158776 59.6819573,31.776044 59.3001154,30.9814 C58.9182735,30.186756 58.7273554,29.2012059 58.7273554,28.02472 C58.7273554,27.7357586 58.7376753,27.4364815 58.7583154,27.12688 C58.7789555,26.8172785 58.8202351,26.4973617 58.8821554,26.16712 L59.2227154,24.2476 C59.4703966,22.8027928 59.8522328,21.5747251 60.3682354,20.56336 C60.884238,19.5519949 61.5137517,18.7315631 62.2567954,18.10204 C62.9998391,17.4725169 63.8563905,17.0184414 64.8264754,16.7398 C65.7965602,16.4611586 66.8698295,16.32184 68.0463154,16.32184 C69.0783205,16.32184 69.9761516,16.4817984 70.7398354,16.80172 C71.5035192,17.1216416 72.1330329,17.5653972 72.6283954,18.133 C73.1237579,18.7006028 73.4952741,19.3713961 73.7429554,20.1454 C73.9906366,20.9194039 74.1144754,21.7604755 74.1144754,22.66864 Z M70.0896754,22.60672 C70.0896754,21.6985555 69.8626376,21.0122823 69.4085554,20.54788 C68.9544731,20.0834777 68.2939997,19.85128 67.4271154,19.85128 C66.1887092,19.85128 65.2599185,20.2227963 64.6407154,20.96584 C64.0215123,21.7088837 63.6087164,22.6479943 63.4023154,23.7832 L69.9658354,23.7832 C70.0071156,23.576799 70.0380753,23.3807209 70.0587154,23.19496 C70.0793555,23.0091991 70.0896754,22.813121 70.0896754,22.60672 Z M89.3062307,17.68408 L88.9966307,19.4488 C88.9347104,19.840962 88.7386324,20.03704 88.4083907,20.03704 L88.2845507,20.03704 C88.0781497,19.9957598 87.7891926,19.9544802 87.4176707,19.9132 C87.0461489,19.8719198 86.638513,19.8358002 86.1947507,19.80484 C85.7509885,19.7738798 85.2814332,19.7429202 84.7860707,19.71196 C84.2907083,19.6809998 83.8263129,19.66552 83.3928707,19.66552 C83.1451895,19.66552 82.8820321,19.6809998 82.6033907,19.71196 C82.3247494,19.7429202 82.0667519,19.8048395 81.8293907,19.89772 C81.5920296,19.9906005 81.3959515,20.1299191 81.2411507,20.31568 C81.08635,20.5014409 81.0089507,20.7594383 81.0089507,21.08968 C81.0089507,21.5024821 81.3185477,21.9255978 81.9377507,22.35904 L85.5600707,24.83584 C86.4888754,25.4756832 87.1029093,26.1155168 87.4021907,26.75536 C87.7014722,27.3952032 87.8511107,28.0556766 87.8511107,28.7368 C87.8511107,29.7068849 87.6653526,30.5376365 87.2938307,31.22908 C86.9223089,31.9205235 86.4269538,32.4932777 85.8077507,32.94736 C85.1885477,33.4014423 84.4661549,33.731679 83.6405507,33.93808 C82.8149466,34.144481 81.9377554,34.24768 81.0089507,34.24768 C80.7612695,34.24768 80.415553,34.2425201 79.9717907,34.2322 C79.5280285,34.2218799 79.0533133,34.1909203 78.5476307,34.13932 C78.0419482,34.0877197 77.5156335,34.0206404 76.9686707,33.93808 C76.421708,33.8555196 75.9108731,33.7523206 75.4361507,33.62848 C75.1265492,33.5252795 74.9717507,33.3395213 74.9717507,33.0712 L74.9717507,32.9164 L75.3123107,31.0588 C75.353591,30.8936792 75.4309902,30.7698404 75.5445107,30.68728 C75.6580313,30.6047196 75.7973499,30.56344 75.9624707,30.56344 L76.0553507,30.56344 C76.4268726,30.6047202 76.8499884,30.6459998 77.3247107,30.68728 C77.7994331,30.7285602 78.2689884,30.7646798 78.7333907,30.79564 C79.1977931,30.8266002 79.6363887,30.8523999 80.0491907,30.87304 C80.4619928,30.8936801 80.7819096,30.904 81.0089507,30.904 C81.7726346,30.904 82.4073082,30.7956411 82.9129907,30.57892 C83.4186733,30.3621989 83.6715107,29.8926436 83.6715107,29.17024 C83.6715107,28.9225588 83.5941115,28.6800412 83.4393107,28.44268 C83.28451,28.2053188 83.0213526,27.9524813 82.6498307,27.68416 L78.8727107,25.08352 C78.2741478,24.6707179 77.7891126,24.1392433 77.4175907,23.48908 C77.0460689,22.8389167 76.8603107,22.1423237 76.8603107,21.39928 C76.8603107,20.3672748 77.0615487,19.5262033 77.4640307,18.87604 C77.8665128,18.2258767 78.3825076,17.7098819 79.0120307,17.32804 C79.6415539,16.9461981 80.3433069,16.6830407 81.1173107,16.53856 C81.8913146,16.3940793 82.649827,16.32184 83.3928707,16.32184 C84.3216754,16.32184 85.2504661,16.3734395 86.1792707,16.47664 C87.1080754,16.5798405 88.0059064,16.7449589 88.8727907,16.972 C89.1617522,17.0545604 89.3062307,17.2403186 89.3062307,17.52928 L89.3062307,17.68408 Z M102.485586,17.15776 L102.175986,18.9844 C102.134706,19.1495208 102.041827,19.2939994 101.897346,19.41784 C101.752865,19.5416806 101.598067,19.6036 101.432946,19.6036 L98.6465461,19.6036 L96.9437461,29.32504 C96.8405456,29.8410426 96.7889461,30.202239 96.7889461,30.40864 C96.7889461,30.6976014 96.8663453,30.8781996 97.0211461,30.95044 C97.1759469,31.0226804 97.4494242,31.0588 97.8415861,31.0588 L99.4824661,31.0588 C99.6269468,31.0588 99.7559456,31.0794398 99.8694661,31.12072 C99.9829867,31.1620002 100.039746,31.2651992 100.039746,31.43032 L100.039746,31.5232 L99.6991861,33.47368 C99.6372658,33.7832815 99.4102281,33.9690397 99.0180661,34.03096 C98.6259042,34.0928803 98.2595478,34.1444798 97.9189861,34.18576 C97.5784244,34.2270402 97.2327079,34.24768 96.8818261,34.24768 C95.5195793,34.24768 94.4772697,33.9896826 93.7548661,33.47368 C93.0324625,32.9576774 92.6712661,32.0804862 92.6712661,30.84208 C92.6712661,30.6150389 92.686746,30.3776812 92.7177061,30.13 C92.7486663,29.8823188 92.7847859,29.6140014 92.8260661,29.32504 L94.5288661,19.6036 L91.6805461,19.17016 C91.3503045,19.1288798 91.1851861,18.9534415 91.1851861,18.64384 L91.1851861,18.55096 L91.4328661,17.15776 C91.4741463,16.9926392 91.5618655,16.8481606 91.6960261,16.72432 C91.8301868,16.6004794 91.9798253,16.53856 92.1449461,16.53856 L95.0551861,16.53856 L95.5195861,13.99984 C95.5608663,13.8347192 95.6485855,13.7005605 95.7827461,13.59736 C95.9169068,13.4941595 96.0665453,13.4219202 96.2316661,13.38064 L99.2038261,12.88528 L99.3276661,12.88528 C99.6166276,12.88528 99.7611061,13.0091188 99.7611061,13.2568 L99.7611061,13.34968 L99.1728661,16.53856 L101.959266,16.53856 C102.310148,16.53856 102.485586,16.7139982 102.485586,17.06488 L102.485586,17.15776 Z M115.912621,17.68408 L115.603021,19.4488 C115.541101,19.840962 115.345023,20.03704 115.014781,20.03704 L114.890941,20.03704 C114.68454,19.9957598 114.395583,19.9544802 114.024061,19.9132 C113.65254,19.8719198 113.244904,19.8358002 112.801141,19.80484 C112.357379,19.7738798 111.887824,19.7429202 111.392461,19.71196 C110.897099,19.6809998 110.432704,19.66552 109.999261,19.66552 C109.75158,19.66552 109.488423,19.6809998 109.209781,19.71196 C108.93114,19.7429202 108.673143,19.8048395 108.435781,19.89772 C108.19842,19.9906005 108.002342,20.1299191 107.847541,20.31568 C107.692741,20.5014409 107.615341,20.7594383 107.615341,21.08968 C107.615341,21.5024821 107.924938,21.9255978 108.544141,22.35904 L112.166461,24.83584 C113.095266,25.4756832 113.7093,26.1155168 114.008581,26.75536 C114.307863,27.3952032 114.457501,28.0556766 114.457501,28.7368 C114.457501,29.7068849 114.271743,30.5376365 113.900221,31.22908 C113.5287,31.9205235 113.033345,32.4932777 112.414141,32.94736 C111.794938,33.4014423 111.072546,33.731679 110.246941,33.93808 C109.421337,34.144481 108.544146,34.24768 107.615341,34.24768 C107.36766,34.24768 107.021944,34.2425201 106.578181,34.2322 C106.134419,34.2218799 105.659704,34.1909203 105.154021,34.13932 C104.648339,34.0877197 104.122024,34.0206404 103.575061,33.93808 C103.028099,33.8555196 102.517264,33.7523206 102.042541,33.62848 C101.73294,33.5252795 101.578141,33.3395213 101.578141,33.0712 L101.578141,32.9164 L101.918701,31.0588 C101.959982,30.8936792 102.037381,30.7698404 102.150901,30.68728 C102.264422,30.6047196 102.403741,30.56344 102.568861,30.56344 L102.661741,30.56344 C103.033263,30.6047202 103.456379,30.6459998 103.931101,30.68728 C104.405824,30.7285602 104.875379,30.7646798 105.339781,30.79564 C105.804184,30.8266002 106.242779,30.8523999 106.655581,30.87304 C107.068384,30.8936801 107.3883,30.904 107.615341,30.904 C108.379025,30.904 109.013699,30.7956411 109.519381,30.57892 C110.025064,30.3621989 110.277901,29.8926436 110.277901,29.17024 C110.277901,28.9225588 110.200502,28.6800412 110.045701,28.44268 C109.890901,28.2053188 109.627743,27.9524813 109.256221,27.68416 L105.479101,25.08352 C104.880539,24.6707179 104.395503,24.1392433 104.023981,23.48908 C103.65246,22.8389167 103.466701,22.1423237 103.466701,21.39928 C103.466701,20.3672748 103.667939,19.5262033 104.070421,18.87604 C104.472904,18.2258767 104.988898,17.7098819 105.618421,17.32804 C106.247945,16.9461981 106.949698,16.6830407 107.723701,16.53856 C108.497705,16.3940793 109.256218,16.32184 109.999261,16.32184 C110.928066,16.32184 111.856857,16.3734395 112.785661,16.47664 C113.714466,16.5798405 114.612297,16.7449589 115.479181,16.972 C115.768143,17.0545604 115.912621,17.2403186 115.912621,17.52928 L115.912621,17.68408 Z M124.819497,10.87288 L124.324137,13.59736 C124.282857,13.7624808 124.195138,13.9069594 124.060977,14.0308 C123.926816,14.1546406 123.777178,14.21656 123.612057,14.21656 L120.608937,14.21656 C120.443816,14.21656 120.309657,14.1701205 120.206457,14.07724 C120.103256,13.9843595 120.051657,13.8553608 120.051657,13.69024 L120.051657,13.59736 L120.547017,10.87288 C120.588297,10.7077592 120.681176,10.5632806 120.825657,10.43944 C120.970138,10.3155994 121.124936,10.25368 121.290057,10.25368 L124.293177,10.25368 C124.644059,10.25368 124.819497,10.4291182 124.819497,10.78 L124.819497,10.87288 Z M123.612057,17.15776 L120.763737,33.34984 C120.722457,33.5149608 120.629578,33.6645993 120.485097,33.79876 C120.340616,33.9329207 120.185818,34 120.020697,34 L117.172377,34 C117.007256,34 116.883417,33.9484005 116.800857,33.8452 C116.718296,33.7419995 116.677017,33.6181607 116.677017,33.47368 L116.677017,33.34984 L119.525337,17.15776 C119.566617,16.9926392 119.654336,16.8481606 119.788497,16.72432 C119.922658,16.6004794 120.072296,16.53856 120.237417,16.53856 L123.085737,16.53856 C123.436619,16.53856 123.612057,16.7139982 123.612057,17.06488 L123.612057,17.15776 Z M140.909092,17.746 C140.909092,17.7872802 140.903932,17.8233998 140.893612,17.85436 C140.883292,17.8853202 140.878132,17.9214398 140.878132,17.96272 L138.060772,33.93808 C137.854371,35.0732857 137.575734,36.038196 137.224852,36.83284 C136.87397,37.627484 136.388935,38.2724775 135.769732,38.76784 C135.150529,39.2632025 134.371377,39.6243989 133.432252,39.85144 C132.493128,40.0784811 131.352779,40.192 130.011172,40.192 C128.504445,40.192 127.276377,40.0991209 126.326932,39.91336 C125.377488,39.7275991 124.717014,39.5728006 124.345492,39.44896 C124.180371,39.3870397 124.051373,39.3199604 123.958492,39.24772 C123.865612,39.1754796 123.819172,39.0568008 123.819172,38.89168 C123.819172,38.8710399 123.824332,38.8452402 123.834652,38.81428 C123.844972,38.7833198 123.850132,38.7472002 123.850132,38.70592 L124.159732,37.06504 C124.221653,36.7141582 124.44869,36.53872 124.840852,36.53872 L124.902772,36.53872 C125.253654,36.5800002 125.67677,36.6212798 126.172132,36.66256 C126.667495,36.7038402 127.18349,36.7399598 127.720132,36.77092 C128.256775,36.8018802 128.77793,36.8328398 129.283612,36.8638 C129.789295,36.8947602 130.21757,36.91024 130.568452,36.91024 C131.744938,36.91024 132.57569,36.709002 133.060732,36.30652 C133.545775,35.904038 133.850212,35.1868052 133.974052,34.1548 L134.005012,33.90712 C133.53029,34.0103205 133.055575,34.0877197 132.580852,34.13932 C132.10613,34.1909203 131.641735,34.21672 131.187652,34.21672 C130.300128,34.21672 129.464216,34.1083611 128.679892,33.89164 C127.895568,33.6749189 127.214455,33.3292024 126.636532,32.85448 C126.058609,32.3797576 125.604534,31.7760437 125.274292,31.04332 C124.944051,30.3105963 124.778932,29.4179253 124.778932,28.36528 C124.778932,28.0763186 124.789252,27.7770415 124.809892,27.46744 C124.830532,27.1578385 124.871812,26.8276018 124.933732,26.47672 L125.336212,24.0928 C125.583893,22.6479928 125.94509,21.430245 126.419812,20.43952 C126.894535,19.448795 127.498249,18.649003 128.230972,18.04012 C128.963696,17.431237 129.820247,16.9926413 130.800652,16.72432 C131.781057,16.4559987 132.890446,16.32184 134.128852,16.32184 C135.119577,16.32184 136.172207,16.3992392 137.286772,16.55404 C138.401338,16.7088408 139.371408,16.8997589 140.197012,17.1268 C140.424053,17.1887203 140.599492,17.2609596 140.723332,17.34352 C140.847173,17.4260804 140.909092,17.5602391 140.909092,17.746 Z M136.450852,19.94416 C136.161891,19.8822397 135.743935,19.8203203 135.196972,19.7584 C134.65001,19.6964797 134.097895,19.66552 133.540612,19.66552 C132.260926,19.66552 131.316655,20.0318763 130.707772,20.7646 C130.098889,21.4973237 129.670613,22.6067126 129.422932,24.0928 L129.020452,26.47672 C128.958532,26.8482419 128.906932,27.1939584 128.865652,27.51388 C128.824372,27.8338016 128.803732,28.1382386 128.803732,28.4272 C128.803732,29.2528041 128.99981,29.8719979 129.391972,30.2848 C129.784134,30.6976021 130.506527,30.904 131.559172,30.904 C131.930694,30.904 132.410569,30.8782003 132.998812,30.8266 C133.587055,30.7749997 134.10821,30.7182403 134.562292,30.65632 L136.450852,19.94416 Z M165.946128,20.842 C165.946128,21.440563 165.884208,22.1010364 165.760368,22.82344 L163.902768,33.34984 C163.861487,33.5149608 163.768608,33.6645993 163.624128,33.79876 C163.479647,33.9329207 163.324848,34 163.159728,34 L160.311408,34 C160.146287,34 160.022448,33.9484005 159.939888,33.8452 C159.857327,33.7419995 159.816048,33.6181607 159.816048,33.47368 L159.816048,33.34984 L161.673648,22.82344 C161.714928,22.5344786 161.751047,22.2713212 161.782008,22.03396 C161.812968,21.7965988 161.828448,21.5850409 161.828448,21.39928 C161.828448,20.800717 161.683969,20.3879211 161.395008,20.16088 C161.106046,19.9338389 160.631331,19.82032 159.970848,19.82032 C159.681886,19.82032 159.243291,19.8770794 158.655048,19.9906 C158.066805,20.1041206 157.463091,20.3053586 156.843888,20.59432 C156.823248,20.9452018 156.807768,21.3063981 156.797448,21.67792 C156.787128,22.0494419 156.751008,22.431278 156.689088,22.82344 L154.831488,33.34984 C154.790207,33.5149608 154.697328,33.6645993 154.552848,33.79876 C154.408367,33.9329207 154.253568,34 154.088448,34 L151.240128,34 C151.075007,34 150.951168,33.9484005 150.868608,33.8452 C150.786047,33.7419995 150.744768,33.6181607 150.744768,33.47368 L150.744768,33.34984 L152.602368,22.82344 C152.664288,22.5138385 152.705568,22.2352012 152.726208,21.98752 C152.746848,21.7398388 152.757168,21.512801 152.757168,21.3064 C152.757168,20.7284771 152.623009,20.336321 152.354688,20.12992 C152.086366,19.923519 151.632291,19.82032 150.992448,19.82032 C150.373245,19.82032 149.361895,20.1608766 147.958368,20.842 L145.760208,33.34984 C145.718927,33.5149608 145.626048,33.6645993 145.481568,33.79876 C145.337087,33.9329207 145.182288,34 145.017168,34 L142.168848,34 C142.003727,34 141.879888,33.9484005 141.797328,33.8452 C141.714767,33.7419995 141.673488,33.6181607 141.673488,33.47368 L141.673488,33.34984 L144.521808,17.15776 C144.563088,16.9926392 144.650807,16.8481606 144.784968,16.72432 C144.919128,16.6004794 145.068767,16.53856 145.233888,16.53856 L147.927408,16.53856 C148.278289,16.53856 148.453728,16.7139982 148.453728,17.06488 L148.453728,17.15776 L148.329888,17.80792 C149.052291,17.3951179 149.764364,17.0442414 150.466128,16.75528 C151.167891,16.4663186 151.983163,16.32184 152.911968,16.32184 C153.799492,16.32184 154.506405,16.4714785 155.032728,16.77076 C155.55905,17.0700415 155.956366,17.4260779 156.224688,17.83888 C157.009012,17.3228774 157.844923,16.9410412 158.732448,16.69336 C159.619972,16.4456788 160.600362,16.32184 161.673648,16.32184 C163.159735,16.32184 164.243324,16.724316 164.924448,17.52928 C165.605571,18.334244 165.946128,19.438473 165.946128,20.842 Z M183.769483,17.71504 C183.769483,17.8182405 183.759163,17.9007997 183.738523,17.96272 L181.045003,33.3808 C181.003723,33.5459208 180.910844,33.6903994 180.766363,33.81424 C180.621882,33.9380806 180.467084,34 180.301963,34 L177.825163,34 C177.494921,34 177.329803,33.8245618 177.329803,33.47368 L177.329803,33.3808 L177.453643,32.48296 C176.586759,33.1434433 175.761167,33.6026787 174.976843,33.86068 C174.192519,34.1186813 173.418527,34.24768 172.654843,34.24768 C171.953079,34.24768 171.292606,34.1290012 170.673403,33.89164 C170.0542,33.6542788 169.512405,33.2982424 169.048003,32.82352 C168.583601,32.3487976 168.222404,31.7657235 167.964403,31.07428 C167.706402,30.3828365 167.577403,29.5727246 167.577403,28.64392 C167.577403,28.3549586 167.587723,28.0505216 167.608363,27.7306 C167.629003,27.4106784 167.670283,27.0959215 167.732203,26.78632 C167.773483,26.4767185 167.825083,26.1671215 167.887003,25.85752 C167.928283,25.5891987 167.979883,25.3002415 168.041803,24.99064 C168.103723,24.6810385 168.155323,24.3817614 168.196603,24.0928 C168.630045,21.6572678 169.579476,19.7532469 171.044923,18.38068 C172.51037,17.0081131 174.491791,16.32184 176.989243,16.32184 C177.979968,16.32184 179.006798,16.3940793 180.069763,16.53856 C181.132728,16.6830407 182.128598,16.8791188 183.057403,17.1268 C183.284444,17.1887203 183.459882,17.2557996 183.583723,17.32804 C183.707564,17.4002804 183.769483,17.5292791 183.769483,17.71504 Z M179.311243,19.88224 C179.022282,19.8203197 178.604326,19.7687202 178.057363,19.72744 C177.5104,19.6861598 176.958286,19.66552 176.401003,19.66552 C175.74052,19.66552 175.172925,19.7790389 174.698203,20.00608 C174.223481,20.2331211 173.826165,20.542718 173.506243,20.93488 C173.186321,21.327042 172.928324,21.7914373 172.732243,22.32808 C172.536162,22.8647227 172.386524,23.4529568 172.283323,24.0928 L171.726043,27.28168 C171.684763,27.5087211 171.653803,27.7305989 171.633163,27.94732 C171.612523,28.1640411 171.602203,28.3652791 171.602203,28.55104 C171.602203,29.4385644 171.808601,30.0525983 172.221403,30.39316 C172.634205,30.7337217 173.13988,30.904 173.738443,30.904 C174.337006,30.904 174.9562,30.7904811 175.596043,30.56344 C176.235886,30.3363989 176.906679,30.0164821 177.608443,29.60368 L179.311243,19.88224 Z" id="testsigma" fill="#2D4A60"></path>
                <path d="M43.096171,16.5223698 C42.6821295,15.9003283 42.0955708,15.5391777 41.3666852,15.4443083 C41.0248853,15.4022639 40.6679902,15.3440486 40.3305033,15.2901455 C39.8981318,15.2243838 39.4538998,15.1543098 39.0161372,15.1068751 C37.8484108,14.9882883 37.1324641,14.5020826 36.7000926,13.5490763 C36.4035785,12.8979272 36.3679968,12.3168521 36.5922693,11.7433234 L36.7593954,11.3110207 C37.0483619,10.5596119 37.3502671,9.77693929 37.6705023,9.01906209 C37.978877,8.28490224 37.9551559,7.56260107 37.6004172,6.86401725 C36.9491644,5.58435831 35.924843,4.69603567 34.5630347,4.228157 C33.7920981,3.96187583 33.0276309,4.06213554 32.3354052,4.51815553 C32.0043877,4.7316117 31.6604314,4.9385995 31.3240226,5.14019699 C30.8549913,5.42480521 30.3697864,5.72019405 29.9136938,6.0403783 C29.5945368,6.26461508 29.1912777,6.38320184 28.7524368,6.38320184 L28.7524368,6.38320184 C27.6569521,6.38320184 26.5959707,5.66090067 26.3361166,4.74347038 C26.2002592,4.25187436 26.0342113,3.7667467 25.8735546,3.29886804 C25.7323061,2.90214142 25.5953705,2.48816583 25.4702954,2.08497084 C25.2158324,1.22683393 24.6529948,0.633900132 23.7947213,0.320184251 C23.5467277,0.231783212 23.2911865,0.160631156 23.0421146,0.101337776 C22.941839,0.0722301171 22.8297027,0.0420443965 22.7283488,0.0118586759 L22.6755154,0 L21.2597954,0 L21.2058838,0.0183270446 C21.1767715,0.0247954133 21.1530503,0.0366540893 21.123938,0.0474347038 C21.0883564,0.0592933797 21.0516964,0.0711520557 21.0118018,0.0776204244 C19.5669695,0.338511295 18.7022266,1.07267114 18.3809132,2.33939335 C18.2396647,2.89675111 18.0391133,3.45842113 17.8493443,3.99745185 C17.7479904,4.28852845 17.6466365,4.57852698 17.5528302,4.86852551 C17.2681767,5.73313079 16.2438553,6.41446562 15.2184557,6.41446562 C14.8108836,6.41446562 14.4248761,6.30234723 14.1121886,6.0824227 C13.5374903,5.69108639 12.9401492,5.3245455 12.3589816,4.97525359 C12.0807975,4.80384182 11.8026134,4.63782036 11.5298204,4.46640859 C10.9907039,4.12897535 10.398754,4.02763758 9.81327341,4.17641006 C8.22180144,4.56559024 7.05623152,5.5369236 6.33920654,7.05914637 C6.05563125,7.66932915 6.04269245,8.33772725 6.31548541,9.00073504 C6.43948222,9.30259225 6.55808785,9.60552752 6.67669348,9.91277503 C6.85460194,10.3806537 7.03790155,10.860391 7.2449223,11.3282697 C7.67082435,12.2877444 7.62446033,13.1351007 7.08426558,13.9813789 C6.71766634,14.5624541 6.23785264,14.9052776 5.61571217,15.0238644 C4.72077874,15.1963542 3.76222957,15.3440486 2.7616293,15.4626354 C1.91413813,15.5575048 1.25641597,15.9779487 0.801401626,16.7121086 C0.185730558,17.7071593 -0.0752018389,18.8380458 0.018604436,20.0638016 C0.108097779,21.2130151 0.659074864,22.035576 1.65428396,22.5099231 C2.01549203,22.6824129 2.37023071,22.8894007 2.72065645,23.0845298 C3.10450741,23.3033763 3.49698424,23.5286911 3.91102573,23.7238203 C4.5040539,23.9954917 4.94720768,24.6240016 5.08953444,25.3872691 C5.23725237,26.1818004 5.03670102,26.9871123 4.55580909,27.4776302 C3.88622637,28.176214 3.22958244,28.9287009 2.60744198,29.7102955 C2.32278845,30.0595874 2.12115887,30.4983584 2.04352609,30.9188024 C1.75455964,32.5703925 3.1400891,35.0165139 4.69274468,35.596511 C5.07659565,35.7388151 5.56287875,35.7797814 6.00711076,35.7140197 C6.84166314,35.5835743 7.70748428,35.4121625 8.64878172,35.1814573 C9.61487853,34.9442838 10.3610158,35.1448033 11.0769625,35.8509335 C11.6150008,36.3834959 11.8586815,36.9581026 11.8403515,37.6739354 C11.8177086,38.5924438 11.7939875,39.5756358 11.7519364,40.5706865 C11.7163547,41.3220954 11.9772871,41.9743225 12.5164037,42.5014946 C13.3757554,43.3423825 14.4539884,43.8404469 15.7316946,43.9762826 C15.8750996,43.9946097 16.0098787,44 16.1468143,44 C17.1183023,44 17.9054124,43.5849463 18.4693283,42.7677758 C18.6936008,42.4529818 18.9372814,42.157593 19.1971356,41.8438771 C19.4645374,41.5183025 19.7362521,41.1873377 19.985324,40.8315774 C20.392896,40.227863 21.1455027,39.8667124 21.9865245,39.8667124 C22.8102945,39.8667124 23.5564318,40.2224727 23.9769427,40.8089381 C24.320899,41.2940658 24.6993588,41.7619444 25.0616451,42.2125741 C25.2859176,42.4853237 25.5112683,42.7634635 25.7247584,43.0469937 C26.1387999,43.5860244 26.7016376,43.8997403 27.3356386,43.9590337 C28.8753554,44.1013378 30.2554937,43.6269907 31.427533,42.5553977 C31.9892924,42.0400843 32.2566942,41.3770765 32.2146431,40.578233 C32.1920002,40.228941 32.1855308,39.8613221 32.1790614,39.5120302 C32.1682791,39.0495418 32.1553403,38.5762728 32.1197586,38.1083942 C32.0378129,37.0066154 32.3817693,36.2131622 33.1926005,35.614838 C33.7306388,35.2235017 34.2578948,35.0811976 34.832593,35.176067 C35.8687749,35.3474788 36.7938989,35.5372176 37.6640329,35.7571422 C38.5632793,35.9759886 39.3935187,35.7690008 40.1148567,35.1286323 C41.0216506,34.3351791 41.6136006,33.3228794 41.8680636,32.1262312 C42.0815537,31.1257902 41.8443425,30.2611849 41.1628992,29.5561327 C40.8954974,29.2779928 40.6356432,28.9761356 40.3865714,28.6861371 C40.1374995,28.3907483 39.8776454,28.087813 39.6037742,27.8032048 C38.8587152,27.034547 38.6516944,26.2400157 38.9298785,25.2341843 C39.1196476,24.5291322 39.4679168,24.0558632 40.0135027,23.7475376 C40.9073579,23.2376145 41.7419103,22.7815946 42.5721498,22.35037 C43.2352631,22.0010781 43.6611651,21.4620473 43.8326042,20.7462145 C44.2045946,19.2401627 43.9555228,17.8192777 43.096171,16.5223698 Z" id="Path-Copy-32" fill="#03A973"></path>
                <path d="M21.8989727,16.8488283 L21.9051746,16.7600223 L21.9671944,15.1896721 C21.9558241,15.1181941 21.9837329,14.8387801 21.9837329,14.7965431 C21.9899349,13.958301 22.0343824,14.017866 22.1036377,12.4226068 C22.1077724,12.2980618 22.0581566,12.1735168 21.962026,12.0890428 C21.8710638,12.0056518 21.7449571,11.9829088 21.6260859,12.0121498 C20.962475,12.1843468 20.1386465,12.3684568 19.1794082,12.5590648 C18.9974837,12.5948038 18.8775789,12.7550879 18.8610404,12.9402809 C18.7473376,14.409912 18.7638761,14.065518 18.7090921,14.7543061 L18.5550764,16.7123703 C18.5550764,16.7123703 18.5550764,16.7177853 18.5550764,16.7242833 L18.4579122,18.5740475 L18.2501462,22.595227 L18.1757225,24.0226211 C18.0785583,25.8615553 18.0279089,26.9023184 18.0175723,27.2109735 C18.0051683,27.5152965 18,27.7340625 18,27.8661885 C18,28.8538846 18.1695206,29.6628857 18.5054607,30.2628678 C18.8517374,30.8747629 19.3509961,31.3274569 19.9929001,31.601456 C20.6006933,31.87004 21.4007476,32 22.3723898,32 C22.7527774,32 23.1672758,31.976174 23.5931445,31.933937 C24.0241815,31.886285 24.6040659,31.773653 25.3245282,31.600373 C25.4775102,31.558136 25.5974149,31.4281759 25.6201555,31.2668089 C25.6770069,30.8736799 25.7400603,30.3863298 25.7917434,29.9163078 C25.8589314,29.3455667 25.9271531,28.7564146 25.9902065,28.4759176 C26.0243173,28.3210486 25.9674659,28.1596816 25.8485948,28.0654606 C25.72869,27.9701566 25.5695061,27.9528285 25.43513,28.0243066 C24.7363746,28.3936096 24.3446167,28.5419806 23.7089147,28.6665256 C23.4866773,28.7141776 23.2933826,28.7141776 23.0835492,28.7141776 L22.9822503,28.7141776 C22.686623,28.7141776 22.2938315,28.6134586 21.9764973,28.4520916 C21.687072,28.3026376 21.6188503,28.2495706 21.5671672,28.0004806 C21.476205,27.5304585 21.476205,27.4297395 21.476205,26.8709114 L21.476205,26.6272364 L21.4937772,25.9362823 L21.7211828,20.8559288 L21.8989727,16.8488283 Z" id="Path-Copy-36" fill="#FFFFFF"></path>
                <path d="M29.9047716,17.0622653 L29.2230804,15.580195 C29.1100089,15.3395554 28.9066975,15.148393 28.6620714,15.0618078 C28.4174454,14.9684756 28.1489004,14.9808449 27.9097105,15.0989157 L22.8693272,17.5941464 L22.8758505,17.5019387 L19.2499492,19.3854499 L17.1189848,20.4413406 L16.3013902,18.6567841 C16.1926676,18.4161444 15.9904434,18.2306045 15.7458174,18.1372723 C15.5011913,18.0450646 15.2326463,18.0574339 14.9934564,18.1755048 L13.5604915,18.8783075 C13.0712395,19.1189471 12.862492,19.7250441 13.0951585,20.2310621 L15.0119393,24.4197661 C15.1250109,24.6604057 15.3228861,24.8515681 15.5675122,24.9381534 C15.6762348,24.9820083 15.7893064,25 15.8958547,25 C16.0448047,25 16.1894059,24.9696389 16.3198731,24.9010454 L19.0314167,23.5606601 L22.6823242,21.7547383 L29.4427002,18.412771 C29.9286906,18.1743803 30.1374382,17.5682833 29.9047716,17.0622653 Z" id="Path-Copy-35" fill="#FFFFFF"></path>
            </g>
        </g>
    </g>
</svg>