<svg width="41" height="41" xmlns="http://www.w3.org/2000/svg">

 <g>
  <title>background</title>
  <rect fill="none" id="canvas_background" height="43" width="43" y="-1" x="-1"/>
 </g>
 <g>
  <title>Layer 1</title>
  <path id="svg_3" d="m39.969,15.419c-0.384,-0.577 -0.928,-0.912 -1.604,-1c-0.317,-0.039 -0.648,-0.093 -0.961,-0.143c-0.401,-0.061 -0.813,-0.126 -1.219,-0.17c-1.083,-0.11 -1.747,-0.561 -2.148,-1.445c-0.275,-0.604 -0.308,-1.143 -0.1,-1.675l0.155,-0.401c0.268,-0.697 0.548,-1.423 0.845,-2.126c0.286,-0.681 0.264,-1.351 -0.065,-1.999c-0.604,-1.187 -1.554,-2.011 -2.817,-2.445c-0.715,-0.247 -1.424,-0.154 -2.066,0.269c-0.307,0.198 -0.626,0.39 -0.938,0.577c-0.435,0.264 -0.885,0.538 -1.308,0.835c-0.296,0.208 -0.67,0.318 -1.077,0.318l0,0c-1.016,0 -2,-0.67 -2.241,-1.521c-0.126,-0.456 -0.28,-0.906 -0.429,-1.34c-0.131,-0.368 -0.258,-0.752 -0.374,-1.126c-0.236,-0.796 -0.758,-1.346 -1.554,-1.637c-0.23,-0.082 -0.467,-0.148 -0.698,-0.203c-0.093,-0.027 -0.197,-0.055 -0.291,-0.083l-0.049,-0.011l-1.313,0l-0.05,0.017c-0.027,0.006 -0.049,0.017 -0.076,0.027c-0.033,0.011 -0.067,0.022 -0.104,0.028c-1.34,0.242 -2.142,0.923 -2.44,2.098c-0.131,0.517 -0.317,1.038 -0.493,1.538c-0.094,0.27 -0.188,0.539 -0.275,0.808c-0.264,0.802 -1.214,1.434 -2.165,1.434c-0.378,0 -0.736,-0.104 -1.026,-0.308c-0.533,-0.363 -1.087,-0.703 -1.626,-1.027c-0.258,-0.159 -0.516,-0.313 -0.769,-0.472c-0.5,-0.313 -1.049,-0.407 -1.592,-0.269c-1.476,0.361 -2.557,1.262 -3.222,2.674c-0.263,0.566 -0.275,1.186 -0.022,1.801c0.115,0.28 0.225,0.561 0.335,0.846c0.165,0.434 0.335,0.879 0.527,1.313c0.395,0.89 0.352,1.676 -0.149,2.461c-0.34,0.539 -0.785,0.857 -1.362,0.967c-0.83,0.16 -1.719,0.297 -2.647,0.407c-0.786,0.088 -1.396,0.478 -1.818,1.159c-0.571,0.923 -0.813,1.972 -0.726,3.109c0.083,1.066 0.594,1.829 1.517,2.269c0.335,0.16 0.664,0.352 0.989,0.533c0.356,0.203 0.72,0.412 1.104,0.593c0.55,0.252 0.961,0.835 1.093,1.543c0.137,0.737 -0.049,1.484 -0.495,1.939c-0.621,0.648 -1.23,1.346 -1.807,2.071c-0.264,0.324 -0.451,0.731 -0.523,1.121c-0.268,1.532 1.017,3.801 2.457,4.339c0.356,0.132 0.807,0.17 1.219,0.109c0.774,-0.121 1.577,-0.28 2.45,-0.494c0.896,-0.22 1.588,-0.034 2.252,0.621c0.499,0.494 0.725,1.027 0.708,1.691c-0.021,0.852 -0.043,1.764 -0.082,2.687c-0.033,0.697 0.209,1.302 0.709,1.791c0.797,0.78 1.797,1.242 2.982,1.368c0.133,0.017 0.258,0.022 0.385,0.022c0.901,0 1.631,-0.385 2.154,-1.143c0.208,-0.292 0.434,-0.566 0.675,-0.857c0.248,-0.302 0.5,-0.609 0.731,-0.939c0.378,-0.56 1.076,-0.895 1.856,-0.895c0.764,0 1.456,0.33 1.846,0.874c0.319,0.45 0.67,0.884 1.006,1.302c0.208,0.253 0.417,0.511 0.615,0.774c0.384,0.5 0.906,0.791 1.494,0.846c1.428,0.132 2.708,-0.308 3.795,-1.302c0.521,-0.478 0.769,-1.093 0.73,-1.834c-0.021,-0.324 -0.027,-0.665 -0.033,-0.989c-0.01,-0.429 -0.022,-0.868 -0.055,-1.302c-0.076,-1.022 0.243,-1.758 0.995,-2.313c0.499,-0.363 0.988,-0.495 1.521,-0.407c0.961,0.159 1.819,0.335 2.626,0.539c0.834,0.203 1.604,0.011 2.273,-0.583c0.841,-0.736 1.39,-1.675 1.626,-2.785c0.198,-0.928 -0.022,-1.73 -0.654,-2.384c-0.248,-0.258 -0.489,-0.538 -0.72,-0.807c-0.231,-0.274 -0.472,-0.555 -0.726,-0.819c-0.691,-0.713 -0.883,-1.45 -0.625,-2.383c0.176,-0.654 0.499,-1.093 1.005,-1.379c0.829,-0.473 1.603,-0.896 2.373,-1.296c0.615,-0.324 1.01,-0.824 1.169,-1.488c0.345,-1.397 0.114,-2.715 -0.683,-3.918z" fill="#03a973"/>
  <path id="svg_4" d="m27.182,15.271l-0.627,-1.318c-0.104,-0.214 -0.291,-0.384 -0.516,-0.461c-0.225,-0.083 -0.472,-0.072 -0.692,0.033l-4.636,2.219l0.006,-0.082l0.06,-1.45c-0.011,-0.066 0.016,-0.324 0.016,-0.363c0.006,-0.774 0.049,-0.719 0.116,-2.192c0.004,-0.115 -0.044,-0.23 -0.137,-0.308c-0.088,-0.077 -0.21,-0.098 -0.325,-0.071c-0.642,0.159 -1.439,0.329 -2.367,0.505c-0.176,0.033 -0.292,0.181 -0.308,0.352c-0.11,1.357 -0.094,1.039 -0.147,1.675l-0.149,1.808c0,0 0,0.005 0,0.011l-0.094,1.708l-1.96,0.939l-0.752,-1.587c-0.1,-0.214 -0.286,-0.379 -0.511,-0.462c-0.225,-0.082 -0.472,-0.071 -0.692,0.034l-1.318,0.625c-0.45,0.214 -0.642,0.753 -0.428,1.203l1.763,3.725c0.104,0.214 0.286,0.384 0.511,0.461c0.1,0.039 0.204,0.055 0.302,0.055c0.137,0 0.27,-0.027 0.39,-0.088l2.494,-1.192l-0.072,1.318c-0.094,1.698 -0.143,2.659 -0.153,2.944c-0.012,0.281 -0.017,0.483 -0.017,0.605c0,0.912 0.164,1.659 0.489,2.213c0.335,0.565 0.818,0.983 1.439,1.236c0.588,0.248 1.362,0.368 2.302,0.368c0.368,0 0.769,-0.022 1.181,-0.061c0.417,-0.044 0.978,-0.148 1.675,-0.308c0.148,-0.039 0.264,-0.159 0.286,-0.308c0.055,-0.363 0.116,-0.813 0.166,-1.247c0.065,-0.527 0.131,-1.071 0.192,-1.33c0.033,-0.143 -0.022,-0.292 -0.137,-0.379c-0.116,-0.088 -0.27,-0.104 -0.4,-0.038c-0.676,0.341 -1.055,0.478 -1.67,0.593c-0.215,0.044 -0.402,0.044 -0.605,0.044l-0.098,0c-0.286,0 -0.666,-0.093 -0.973,-0.242c-0.28,-0.138 -0.346,-0.187 -0.396,-0.417c-0.088,-0.434 -0.088,-0.527 -0.088,-1.043l0,-0.225l0.017,-0.638l0.22,-4.691l6.218,-2.972c0.447,-0.212 0.639,-0.751 0.425,-1.201z" fill="#FFFFFF"/>
 </g>
</svg>