<?xml version="1.0" encoding="UTF-8"?>
<svg width="186px" height="44px" viewBox="0 0 186 44" version="1.1" xmlns="http://www.w3.org/2000/svg" xmlns:xlink="http://www.w3.org/1999/xlink">
    <!-- Generator: Sketch 55.2 (78181) - https://sketchapp.com -->
    <title>Logo with white text</title>
    <desc>Created with Sketch.</desc>
    <defs>
        <path d="M60.64408,18.15776 L60.33448,19.9844 C60.2931998,20.1495208 60.2003207,20.2939994 60.05584,20.41784 C59.9113593,20.5416806 59.7565608,20.6036 59.59144,20.6036 L56.80504,20.6036 L55.10224,30.32504 C54.9990395,30.8410426 54.94744,31.202239 54.94744,31.40864 C54.94744,31.6976014 55.0248392,31.8781996 55.17964,31.95044 C55.3344408,32.0226804 55.607918,32.0588 56.00008,32.0588 L57.64096,32.0588 C57.7854407,32.0588 57.9144394,32.0794398 58.02796,32.12072 C58.1414806,32.1620002 58.19824,32.2651992 58.19824,32.43032 L58.19824,32.5232 L57.85768,34.47368 C57.7957597,34.7832815 57.568722,34.9690397 57.17656,35.03096 C56.784398,35.0928803 56.4180417,35.1444798 56.07748,35.18576 C55.7369183,35.2270402 55.3912018,35.24768 55.04032,35.24768 C53.6780732,35.24768 52.6357636,34.9896826 51.91336,34.47368 C51.1909564,33.9576774 50.82976,33.0804862 50.82976,31.84208 C50.82976,31.6150389 50.8452398,31.3776812 50.8762,31.13 C50.9071602,30.8823188 50.9432798,30.6140014 50.98456,30.32504 L52.68736,20.6036 L49.83904,20.17016 C49.5087983,20.1288798 49.34368,19.9534415 49.34368,19.64384 L49.34368,19.55096 L49.59136,18.15776 C49.6326402,17.9926392 49.7203593,17.8481606 49.85452,17.72432 C49.9886807,17.6004794 50.1383192,17.53856 50.30344,17.53856 L53.21368,17.53856 L53.67808,14.99984 C53.7193602,14.8347192 53.8070793,14.7005605 53.94124,14.59736 C54.0754007,14.4941595 54.2250392,14.4219202 54.39016,14.38064 L57.36232,13.88528 L57.48616,13.88528 C57.7751214,13.88528 57.9196,14.0091188 57.9196,14.2568 L57.9196,14.34968 L57.33136,17.53856 L60.11776,17.53856 C60.4686418,17.53856 60.64408,17.7139982 60.64408,18.06488 L60.64408,18.15776 Z M76.1144754,23.66864 C76.1144754,23.9576014 76.0989955,24.2517185 76.0680354,24.551 C76.0370752,24.8502815 76.0009556,25.1443986 75.9596754,25.43336 L75.7119954,26.91944 C75.6087949,27.4354426 75.3611173,27.69344 74.9689554,27.69344 L64.8759954,27.69344 C64.8347152,27.9204811 64.7985955,28.132039 64.7676354,28.32812 C64.7366752,28.524201 64.7211954,28.7357589 64.7211954,28.9628 C64.7211954,29.8090442 64.958553,30.4849975 65.4332754,30.99068 C65.9079977,31.4963625 66.7232696,31.7492 67.8791154,31.7492 C69.0143211,31.7492 70.0875903,31.7079204 71.0989554,31.62536 C72.1103204,31.5427996 72.9462321,31.4705603 73.6067154,31.40864 L73.7305554,31.40864 C73.854396,31.40864 73.9627549,31.4292798 74.0556354,31.47056 C74.1485158,31.5118402 74.1949554,31.6047193 74.1949554,31.7492 L74.1949554,31.87304 L73.8234354,33.9164 C73.7821552,34.1640812 73.7150758,34.3498394 73.6221954,34.47368 C73.5293149,34.5975206 73.3383968,34.6800798 73.0494354,34.72136 C72.5334328,34.8039204 72.0483976,34.8813196 71.5943154,34.95356 C71.1402331,35.0258004 70.6758377,35.0825598 70.2011154,35.12384 C69.726393,35.1651202 69.2207181,35.1960799 68.6840754,35.21672 C68.1474327,35.2373601 67.5282389,35.24768 66.8264754,35.24768 C66.145352,35.24768 65.443599,35.144481 64.7211954,34.93808 C63.9987918,34.731679 63.3434783,34.3859624 62.7552354,33.90092 C62.1669924,33.4158776 61.6819573,32.776044 61.3001154,31.9814 C60.9182735,31.186756 60.7273554,30.2012059 60.7273554,29.02472 C60.7273554,28.7357586 60.7376753,28.4364815 60.7583154,28.12688 C60.7789555,27.8172785 60.8202351,27.4973617 60.8821554,27.16712 L61.2227154,25.2476 C61.4703966,23.8027928 61.8522328,22.5747251 62.3682354,21.56336 C62.884238,20.5519949 63.5137517,19.7315631 64.2567954,19.10204 C64.9998391,18.4725169 65.8563905,18.0184414 66.8264754,17.7398 C67.7965602,17.4611586 68.8698295,17.32184 70.0463154,17.32184 C71.0783205,17.32184 71.9761516,17.4817984 72.7398354,17.80172 C73.5035192,18.1216416 74.1330329,18.5653972 74.6283954,19.133 C75.1237579,19.7006028 75.4952741,20.3713961 75.7429554,21.1454 C75.9906366,21.9194039 76.1144754,22.7604755 76.1144754,23.66864 Z M72.0896754,23.60672 C72.0896754,22.6985555 71.8626376,22.0122823 71.4085554,21.54788 C70.9544731,21.0834777 70.2939997,20.85128 69.4271154,20.85128 C68.1887092,20.85128 67.2599185,21.2227963 66.6407154,21.96584 C66.0215123,22.7088837 65.6087164,23.6479943 65.4023154,24.7832 L71.9658354,24.7832 C72.0071156,24.576799 72.0380753,24.3807209 72.0587154,24.19496 C72.0793555,24.0091991 72.0896754,23.813121 72.0896754,23.60672 Z M91.3062307,18.68408 L90.9966307,20.4488 C90.9347104,20.840962 90.7386324,21.03704 90.4083907,21.03704 L90.2845507,21.03704 C90.0781497,20.9957598 89.7891926,20.9544802 89.4176707,20.9132 C89.0461489,20.8719198 88.638513,20.8358002 88.1947507,20.80484 C87.7509885,20.7738798 87.2814332,20.7429202 86.7860707,20.71196 C86.2907083,20.6809998 85.8263129,20.66552 85.3928707,20.66552 C85.1451895,20.66552 84.8820321,20.6809998 84.6033907,20.71196 C84.3247494,20.7429202 84.0667519,20.8048395 83.8293907,20.89772 C83.5920296,20.9906005 83.3959515,21.1299191 83.2411507,21.31568 C83.08635,21.5014409 83.0089507,21.7594383 83.0089507,22.08968 C83.0089507,22.5024821 83.3185477,22.9255978 83.9377507,23.35904 L87.5600707,25.83584 C88.4888754,26.4756832 89.1029093,27.1155168 89.4021907,27.75536 C89.7014722,28.3952032 89.8511107,29.0556766 89.8511107,29.7368 C89.8511107,30.7068849 89.6653526,31.5376365 89.2938307,32.22908 C88.9223089,32.9205235 88.4269538,33.4932777 87.8077507,33.94736 C87.1885477,34.4014423 86.4661549,34.731679 85.6405507,34.93808 C84.8149466,35.144481 83.9377554,35.24768 83.0089507,35.24768 C82.7612695,35.24768 82.415553,35.2425201 81.9717907,35.2322 C81.5280285,35.2218799 81.0533133,35.1909203 80.5476307,35.13932 C80.0419482,35.0877197 79.5156335,35.0206404 78.9686707,34.93808 C78.421708,34.8555196 77.9108731,34.7523206 77.4361507,34.62848 C77.1265492,34.5252795 76.9717507,34.3395213 76.9717507,34.0712 L76.9717507,33.9164 L77.3123107,32.0588 C77.353591,31.8936792 77.4309902,31.7698404 77.5445107,31.68728 C77.6580313,31.6047196 77.7973499,31.56344 77.9624707,31.56344 L78.0553507,31.56344 C78.4268726,31.6047202 78.8499884,31.6459998 79.3247107,31.68728 C79.7994331,31.7285602 80.2689884,31.7646798 80.7333907,31.79564 C81.1977931,31.8266002 81.6363887,31.8523999 82.0491907,31.87304 C82.4619928,31.8936801 82.7819096,31.904 83.0089507,31.904 C83.7726346,31.904 84.4073082,31.7956411 84.9129907,31.57892 C85.4186733,31.3621989 85.6715107,30.8926436 85.6715107,30.17024 C85.6715107,29.9225588 85.5941115,29.6800412 85.4393107,29.44268 C85.28451,29.2053188 85.0213526,28.9524813 84.6498307,28.68416 L80.8727107,26.08352 C80.2741478,25.6707179 79.7891126,25.1392433 79.4175907,24.48908 C79.0460689,23.8389167 78.8603107,23.1423237 78.8603107,22.39928 C78.8603107,21.3672748 79.0615487,20.5262033 79.4640307,19.87604 C79.8665128,19.2258767 80.3825076,18.7098819 81.0120307,18.32804 C81.6415539,17.9461981 82.3433069,17.6830407 83.1173107,17.53856 C83.8913146,17.3940793 84.649827,17.32184 85.3928707,17.32184 C86.3216754,17.32184 87.2504661,17.3734395 88.1792707,17.47664 C89.1080754,17.5798405 90.0059064,17.7449589 90.8727907,17.972 C91.1617522,18.0545604 91.3062307,18.2403186 91.3062307,18.52928 L91.3062307,18.68408 Z M104.485586,18.15776 L104.175986,19.9844 C104.134706,20.1495208 104.041827,20.2939994 103.897346,20.41784 C103.752865,20.5416806 103.598067,20.6036 103.432946,20.6036 L100.646546,20.6036 L98.9437461,30.32504 C98.8405456,30.8410426 98.7889461,31.202239 98.7889461,31.40864 C98.7889461,31.6976014 98.8663453,31.8781996 99.0211461,31.95044 C99.1759469,32.0226804 99.4494242,32.0588 99.8415861,32.0588 L101.482466,32.0588 C101.626947,32.0588 101.755946,32.0794398 101.869466,32.12072 C101.982987,32.1620002 102.039746,32.2651992 102.039746,32.43032 L102.039746,32.5232 L101.699186,34.47368 C101.637266,34.7832815 101.410228,34.9690397 101.018066,35.03096 C100.625904,35.0928803 100.259548,35.1444798 99.9189861,35.18576 C99.5784244,35.2270402 99.2327079,35.24768 98.8818261,35.24768 C97.5195793,35.24768 96.4772697,34.9896826 95.7548661,34.47368 C95.0324625,33.9576774 94.6712661,33.0804862 94.6712661,31.84208 C94.6712661,31.6150389 94.686746,31.3776812 94.7177061,31.13 C94.7486663,30.8823188 94.7847859,30.6140014 94.8260661,30.32504 L96.5288661,20.6036 L93.6805461,20.17016 C93.3503045,20.1288798 93.1851861,19.9534415 93.1851861,19.64384 L93.1851861,19.55096 L93.4328661,18.15776 C93.4741463,17.9926392 93.5618655,17.8481606 93.6960261,17.72432 C93.8301868,17.6004794 93.9798253,17.53856 94.1449461,17.53856 L97.0551861,17.53856 L97.5195861,14.99984 C97.5608663,14.8347192 97.6485855,14.7005605 97.7827461,14.59736 C97.9169068,14.4941595 98.0665453,14.4219202 98.2316661,14.38064 L101.203826,13.88528 L101.327666,13.88528 C101.616628,13.88528 101.761106,14.0091188 101.761106,14.2568 L101.761106,14.34968 L101.172866,17.53856 L103.959266,17.53856 C104.310148,17.53856 104.485586,17.7139982 104.485586,18.06488 L104.485586,18.15776 Z M117.912621,18.68408 L117.603021,20.4488 C117.541101,20.840962 117.345023,21.03704 117.014781,21.03704 L116.890941,21.03704 C116.68454,20.9957598 116.395583,20.9544802 116.024061,20.9132 C115.65254,20.8719198 115.244904,20.8358002 114.801141,20.80484 C114.357379,20.7738798 113.887824,20.7429202 113.392461,20.71196 C112.897099,20.6809998 112.432704,20.66552 111.999261,20.66552 C111.75158,20.66552 111.488423,20.6809998 111.209781,20.71196 C110.93114,20.7429202 110.673143,20.8048395 110.435781,20.89772 C110.19842,20.9906005 110.002342,21.1299191 109.847541,21.31568 C109.692741,21.5014409 109.615341,21.7594383 109.615341,22.08968 C109.615341,22.5024821 109.924938,22.9255978 110.544141,23.35904 L114.166461,25.83584 C115.095266,26.4756832 115.7093,27.1155168 116.008581,27.75536 C116.307863,28.3952032 116.457501,29.0556766 116.457501,29.7368 C116.457501,30.7068849 116.271743,31.5376365 115.900221,32.22908 C115.5287,32.9205235 115.033345,33.4932777 114.414141,33.94736 C113.794938,34.4014423 113.072546,34.731679 112.246941,34.93808 C111.421337,35.144481 110.544146,35.24768 109.615341,35.24768 C109.36766,35.24768 109.021944,35.2425201 108.578181,35.2322 C108.134419,35.2218799 107.659704,35.1909203 107.154021,35.13932 C106.648339,35.0877197 106.122024,35.0206404 105.575061,34.93808 C105.028099,34.8555196 104.517264,34.7523206 104.042541,34.62848 C103.73294,34.5252795 103.578141,34.3395213 103.578141,34.0712 L103.578141,33.9164 L103.918701,32.0588 C103.959982,31.8936792 104.037381,31.7698404 104.150901,31.68728 C104.264422,31.6047196 104.403741,31.56344 104.568861,31.56344 L104.661741,31.56344 C105.033263,31.6047202 105.456379,31.6459998 105.931101,31.68728 C106.405824,31.7285602 106.875379,31.7646798 107.339781,31.79564 C107.804184,31.8266002 108.242779,31.8523999 108.655581,31.87304 C109.068384,31.8936801 109.3883,31.904 109.615341,31.904 C110.379025,31.904 111.013699,31.7956411 111.519381,31.57892 C112.025064,31.3621989 112.277901,30.8926436 112.277901,30.17024 C112.277901,29.9225588 112.200502,29.6800412 112.045701,29.44268 C111.890901,29.2053188 111.627743,28.9524813 111.256221,28.68416 L107.479101,26.08352 C106.880539,25.6707179 106.395503,25.1392433 106.023981,24.48908 C105.65246,23.8389167 105.466701,23.1423237 105.466701,22.39928 C105.466701,21.3672748 105.667939,20.5262033 106.070421,19.87604 C106.472904,19.2258767 106.988898,18.7098819 107.618421,18.32804 C108.247945,17.9461981 108.949698,17.6830407 109.723701,17.53856 C110.497705,17.3940793 111.256218,17.32184 111.999261,17.32184 C112.928066,17.32184 113.856857,17.3734395 114.785661,17.47664 C115.714466,17.5798405 116.612297,17.7449589 117.479181,17.972 C117.768143,18.0545604 117.912621,18.2403186 117.912621,18.52928 L117.912621,18.68408 Z M126.819497,11.87288 L126.324137,14.59736 C126.282857,14.7624808 126.195138,14.9069594 126.060977,15.0308 C125.926816,15.1546406 125.777178,15.21656 125.612057,15.21656 L122.608937,15.21656 C122.443816,15.21656 122.309657,15.1701205 122.206457,15.07724 C122.103256,14.9843595 122.051657,14.8553608 122.051657,14.69024 L122.051657,14.59736 L122.547017,11.87288 C122.588297,11.7077592 122.681176,11.5632806 122.825657,11.43944 C122.970138,11.3155994 123.124936,11.25368 123.290057,11.25368 L126.293177,11.25368 C126.644059,11.25368 126.819497,11.4291182 126.819497,11.78 L126.819497,11.87288 Z M125.612057,18.15776 L122.763737,34.34984 C122.722457,34.5149608 122.629578,34.6645993 122.485097,34.79876 C122.340616,34.9329207 122.185818,35 122.020697,35 L119.172377,35 C119.007256,35 118.883417,34.9484005 118.800857,34.8452 C118.718296,34.7419995 118.677017,34.6181607 118.677017,34.47368 L118.677017,34.34984 L121.525337,18.15776 C121.566617,17.9926392 121.654336,17.8481606 121.788497,17.72432 C121.922658,17.6004794 122.072296,17.53856 122.237417,17.53856 L125.085737,17.53856 C125.436619,17.53856 125.612057,17.7139982 125.612057,18.06488 L125.612057,18.15776 Z M142.909092,18.746 C142.909092,18.7872802 142.903932,18.8233998 142.893612,18.85436 C142.883292,18.8853202 142.878132,18.9214398 142.878132,18.96272 L140.060772,34.93808 C139.854371,36.0732857 139.575734,37.038196 139.224852,37.83284 C138.87397,38.627484 138.388935,39.2724775 137.769732,39.76784 C137.150529,40.2632025 136.371377,40.6243989 135.432252,40.85144 C134.493128,41.0784811 133.352779,41.192 132.011172,41.192 C130.504445,41.192 129.276377,41.0991209 128.326932,40.91336 C127.377488,40.7275991 126.717014,40.5728006 126.345492,40.44896 C126.180371,40.3870397 126.051373,40.3199604 125.958492,40.24772 C125.865612,40.1754796 125.819172,40.0568008 125.819172,39.89168 C125.819172,39.8710399 125.824332,39.8452402 125.834652,39.81428 C125.844972,39.7833198 125.850132,39.7472002 125.850132,39.70592 L126.159732,38.06504 C126.221653,37.7141582 126.44869,37.53872 126.840852,37.53872 L126.902772,37.53872 C127.253654,37.5800002 127.67677,37.6212798 128.172132,37.66256 C128.667495,37.7038402 129.18349,37.7399598 129.720132,37.77092 C130.256775,37.8018802 130.77793,37.8328398 131.283612,37.8638 C131.789295,37.8947602 132.21757,37.91024 132.568452,37.91024 C133.744938,37.91024 134.57569,37.709002 135.060732,37.30652 C135.545775,36.904038 135.850212,36.1868052 135.974052,35.1548 L136.005012,34.90712 C135.53029,35.0103205 135.055575,35.0877197 134.580852,35.13932 C134.10613,35.1909203 133.641735,35.21672 133.187652,35.21672 C132.300128,35.21672 131.464216,35.1083611 130.679892,34.89164 C129.895568,34.6749189 129.214455,34.3292024 128.636532,33.85448 C128.058609,33.3797576 127.604534,32.7760437 127.274292,32.04332 C126.944051,31.3105963 126.778932,30.4179253 126.778932,29.36528 C126.778932,29.0763186 126.789252,28.7770415 126.809892,28.46744 C126.830532,28.1578385 126.871812,27.8276018 126.933732,27.47672 L127.336212,25.0928 C127.583893,23.6479928 127.94509,22.430245 128.419812,21.43952 C128.894535,20.448795 129.498249,19.649003 130.230972,19.04012 C130.963696,18.431237 131.820247,17.9926413 132.800652,17.72432 C133.781057,17.4559987 134.890446,17.32184 136.128852,17.32184 C137.119577,17.32184 138.172207,17.3992392 139.286772,17.55404 C140.401338,17.7088408 141.371408,17.8997589 142.197012,18.1268 C142.424053,18.1887203 142.599492,18.2609596 142.723332,18.34352 C142.847173,18.4260804 142.909092,18.5602391 142.909092,18.746 Z M138.450852,20.94416 C138.161891,20.8822397 137.743935,20.8203203 137.196972,20.7584 C136.65001,20.6964797 136.097895,20.66552 135.540612,20.66552 C134.260926,20.66552 133.316655,21.0318763 132.707772,21.7646 C132.098889,22.4973237 131.670613,23.6067126 131.422932,25.0928 L131.020452,27.47672 C130.958532,27.8482419 130.906932,28.1939584 130.865652,28.51388 C130.824372,28.8338016 130.803732,29.1382386 130.803732,29.4272 C130.803732,30.2528041 130.99981,30.8719979 131.391972,31.2848 C131.784134,31.6976021 132.506527,31.904 133.559172,31.904 C133.930694,31.904 134.410569,31.8782003 134.998812,31.8266 C135.587055,31.7749997 136.10821,31.7182403 136.562292,31.65632 L138.450852,20.94416 Z M167.946128,21.842 C167.946128,22.440563 167.884208,23.1010364 167.760368,23.82344 L165.902768,34.34984 C165.861487,34.5149608 165.768608,34.6645993 165.624128,34.79876 C165.479647,34.9329207 165.324848,35 165.159728,35 L162.311408,35 C162.146287,35 162.022448,34.9484005 161.939888,34.8452 C161.857327,34.7419995 161.816048,34.6181607 161.816048,34.47368 L161.816048,34.34984 L163.673648,23.82344 C163.714928,23.5344786 163.751047,23.2713212 163.782008,23.03396 C163.812968,22.7965988 163.828448,22.5850409 163.828448,22.39928 C163.828448,21.800717 163.683969,21.3879211 163.395008,21.16088 C163.106046,20.9338389 162.631331,20.82032 161.970848,20.82032 C161.681886,20.82032 161.243291,20.8770794 160.655048,20.9906 C160.066805,21.1041206 159.463091,21.3053586 158.843888,21.59432 C158.823248,21.9452018 158.807768,22.3063981 158.797448,22.67792 C158.787128,23.0494419 158.751008,23.431278 158.689088,23.82344 L156.831488,34.34984 C156.790207,34.5149608 156.697328,34.6645993 156.552848,34.79876 C156.408367,34.9329207 156.253568,35 156.088448,35 L153.240128,35 C153.075007,35 152.951168,34.9484005 152.868608,34.8452 C152.786047,34.7419995 152.744768,34.6181607 152.744768,34.47368 L152.744768,34.34984 L154.602368,23.82344 C154.664288,23.5138385 154.705568,23.2352012 154.726208,22.98752 C154.746848,22.7398388 154.757168,22.512801 154.757168,22.3064 C154.757168,21.7284771 154.623009,21.336321 154.354688,21.12992 C154.086366,20.923519 153.632291,20.82032 152.992448,20.82032 C152.373245,20.82032 151.361895,21.1608766 149.958368,21.842 L147.760208,34.34984 C147.718927,34.5149608 147.626048,34.6645993 147.481568,34.79876 C147.337087,34.9329207 147.182288,35 147.017168,35 L144.168848,35 C144.003727,35 143.879888,34.9484005 143.797328,34.8452 C143.714767,34.7419995 143.673488,34.6181607 143.673488,34.47368 L143.673488,34.34984 L146.521808,18.15776 C146.563088,17.9926392 146.650807,17.8481606 146.784968,17.72432 C146.919128,17.6004794 147.068767,17.53856 147.233888,17.53856 L149.927408,17.53856 C150.278289,17.53856 150.453728,17.7139982 150.453728,18.06488 L150.453728,18.15776 L150.329888,18.80792 C151.052291,18.3951179 151.764364,18.0442414 152.466128,17.75528 C153.167891,17.4663186 153.983163,17.32184 154.911968,17.32184 C155.799492,17.32184 156.506405,17.4714785 157.032728,17.77076 C157.55905,18.0700415 157.956366,18.4260779 158.224688,18.83888 C159.009012,18.3228774 159.844923,17.9410412 160.732448,17.69336 C161.619972,17.4456788 162.600362,17.32184 163.673648,17.32184 C165.159735,17.32184 166.243324,17.724316 166.924448,18.52928 C167.605571,19.334244 167.946128,20.438473 167.946128,21.842 Z M185.769483,18.71504 C185.769483,18.8182405 185.759163,18.9007997 185.738523,18.96272 L183.045003,34.3808 C183.003723,34.5459208 182.910844,34.6903994 182.766363,34.81424 C182.621882,34.9380806 182.467084,35 182.301963,35 L179.825163,35 C179.494921,35 179.329803,34.8245618 179.329803,34.47368 L179.329803,34.3808 L179.453643,33.48296 C178.586759,34.1434433 177.761167,34.6026787 176.976843,34.86068 C176.192519,35.1186813 175.418527,35.24768 174.654843,35.24768 C173.953079,35.24768 173.292606,35.1290012 172.673403,34.89164 C172.0542,34.6542788 171.512405,34.2982424 171.048003,33.82352 C170.583601,33.3487976 170.222404,32.7657235 169.964403,32.07428 C169.706402,31.3828365 169.577403,30.5727246 169.577403,29.64392 C169.577403,29.3549586 169.587723,29.0505216 169.608363,28.7306 C169.629003,28.4106784 169.670283,28.0959215 169.732203,27.78632 C169.773483,27.4767185 169.825083,27.1671215 169.887003,26.85752 C169.928283,26.5891987 169.979883,26.3002415 170.041803,25.99064 C170.103723,25.6810385 170.155323,25.3817614 170.196603,25.0928 C170.630045,22.6572678 171.579476,20.7532469 173.044923,19.38068 C174.51037,18.0081131 176.491791,17.32184 178.989243,17.32184 C179.979968,17.32184 181.006798,17.3940793 182.069763,17.53856 C183.132728,17.6830407 184.128598,17.8791188 185.057403,18.1268 C185.284444,18.1887203 185.459882,18.2557996 185.583723,18.32804 C185.707564,18.4002804 185.769483,18.5292791 185.769483,18.71504 Z M181.311243,20.88224 C181.022282,20.8203197 180.604326,20.7687202 180.057363,20.72744 C179.5104,20.6861598 178.958286,20.66552 178.401003,20.66552 C177.74052,20.66552 177.172925,20.7790389 176.698203,21.00608 C176.223481,21.2331211 175.826165,21.542718 175.506243,21.93488 C175.186321,22.327042 174.928324,22.7914373 174.732243,23.32808 C174.536162,23.8647227 174.386524,24.4529568 174.283323,25.0928 L173.726043,28.28168 C173.684763,28.5087211 173.653803,28.7305989 173.633163,28.94732 C173.612523,29.1640411 173.602203,29.3652791 173.602203,29.55104 C173.602203,30.4385644 173.808601,31.0525983 174.221403,31.39316 C174.634205,31.7337217 175.13988,31.904 175.738443,31.904 C176.337006,31.904 176.9562,31.7904811 177.596043,31.56344 C178.235886,31.3363989 178.906679,31.0164821 179.608443,30.60368 L181.311243,20.88224 Z" id="path-1"></path>
    </defs>
    <g id="Page-1" stroke="none" stroke-width="1" fill="none" fill-rule="evenodd">
        <g id="Test-Sigma-Site-**Final**" transform="translate(-103.000000, -48.000000)" fill-rule="nonzero">
            <g id="Logo-with-white-text" transform="translate(103.000000, 48.000000)">
                <g id="testsigma">
                    <use fill="#2D4A60" xlink:href="#path-1"></use>
                    <use fill="#FFFFFF" xlink:href="#path-1"></use>
                </g>
                <path d="M43.096171,16.5223698 C42.6821295,15.9003283 42.0955708,15.5391777 41.3666852,15.4443083 C41.0248853,15.4022639 40.6679902,15.3440486 40.3305033,15.2901455 C39.8981318,15.2243838 39.4538998,15.1543098 39.0161372,15.1068751 C37.8484108,14.9882883 37.1324641,14.5020826 36.7000926,13.5490763 C36.4035785,12.8979272 36.3679968,12.3168521 36.5922693,11.7433234 L36.7593954,11.3110207 C37.0483619,10.5596119 37.3502671,9.77693929 37.6705023,9.01906209 C37.978877,8.28490224 37.9551559,7.56260107 37.6004172,6.86401725 C36.9491644,5.58435831 35.924843,4.69603567 34.5630347,4.228157 C33.7920981,3.96187583 33.0276309,4.06213554 32.3354052,4.51815553 C32.0043877,4.7316117 31.6604314,4.9385995 31.3240226,5.14019699 C30.8549913,5.42480521 30.3697864,5.72019405 29.9136938,6.0403783 C29.5945368,6.26461508 29.1912777,6.38320184 28.7524368,6.38320184 L28.7524368,6.38320184 C27.6569521,6.38320184 26.5959707,5.66090067 26.3361166,4.74347038 C26.2002592,4.25187436 26.0342113,3.7667467 25.8735546,3.29886804 C25.7323061,2.90214142 25.5953705,2.48816583 25.4702954,2.08497084 C25.2158324,1.22683393 24.6529948,0.633900132 23.7947213,0.320184251 C23.5467277,0.231783212 23.2911865,0.160631156 23.0421146,0.101337776 C22.941839,0.0722301171 22.8297027,0.0420443965 22.7283488,0.0118586759 L22.6755154,0 L21.2597954,0 L21.2058838,0.0183270446 C21.1767715,0.0247954133 21.1530503,0.0366540893 21.123938,0.0474347038 C21.0883564,0.0592933797 21.0516964,0.0711520557 21.0118018,0.0776204244 C19.5669695,0.338511295 18.7022266,1.07267114 18.3809132,2.33939335 C18.2396647,2.89675111 18.0391133,3.45842113 17.8493443,3.99745185 C17.7479904,4.28852845 17.6466365,4.57852698 17.5528302,4.86852551 C17.2681767,5.73313079 16.2438553,6.41446562 15.2184557,6.41446562 C14.8108836,6.41446562 14.4248761,6.30234723 14.1121886,6.0824227 C13.5374903,5.69108639 12.9401492,5.3245455 12.3589816,4.97525359 C12.0807975,4.80384182 11.8026134,4.63782036 11.5298204,4.46640859 C10.9907039,4.12897535 10.398754,4.02763758 9.81327341,4.17641006 C8.22180144,4.56559024 7.05623152,5.5369236 6.33920654,7.05914637 C6.05563125,7.66932915 6.04269245,8.33772725 6.31548541,9.00073504 C6.43948222,9.30259225 6.55808785,9.60552752 6.67669348,9.91277503 C6.85460194,10.3806537 7.03790155,10.860391 7.2449223,11.3282697 C7.67082435,12.2877444 7.62446033,13.1351007 7.08426558,13.9813789 C6.71766634,14.5624541 6.23785264,14.9052776 5.61571217,15.0238644 C4.72077874,15.1963542 3.76222957,15.3440486 2.7616293,15.4626354 C1.91413813,15.5575048 1.25641597,15.9779487 0.801401626,16.7121086 C0.185730558,17.7071593 -0.0752018389,18.8380458 0.018604436,20.0638016 C0.108097779,21.2130151 0.659074864,22.035576 1.65428396,22.5099231 C2.01549203,22.6824129 2.37023071,22.8894007 2.72065645,23.0845298 C3.10450741,23.3033763 3.49698424,23.5286911 3.91102573,23.7238203 C4.5040539,23.9954917 4.94720768,24.6240016 5.08953444,25.3872691 C5.23725237,26.1818004 5.03670102,26.9871123 4.55580909,27.4776302 C3.88622637,28.176214 3.22958244,28.9287009 2.60744198,29.7102955 C2.32278845,30.0595874 2.12115887,30.4983584 2.04352609,30.9188024 C1.75455964,32.5703925 3.1400891,35.0165139 4.69274468,35.596511 C5.07659565,35.7388151 5.56287875,35.7797814 6.00711076,35.7140197 C6.84166314,35.5835743 7.70748428,35.4121625 8.64878172,35.1814573 C9.61487853,34.9442838 10.3610158,35.1448033 11.0769625,35.8509335 C11.6150008,36.3834959 11.8586815,36.9581026 11.8403515,37.6739354 C11.8177086,38.5924438 11.7939875,39.5756358 11.7519364,40.5706865 C11.7163547,41.3220954 11.9772871,41.9743225 12.5164037,42.5014946 C13.3757554,43.3423825 14.4539884,43.8404469 15.7316946,43.9762826 C15.8750996,43.9946097 16.0098787,44 16.1468143,44 C17.1183023,44 17.9054124,43.5849463 18.4693283,42.7677758 C18.6936008,42.4529818 18.9372814,42.157593 19.1971356,41.8438771 C19.4645374,41.5183025 19.7362521,41.1873377 19.985324,40.8315774 C20.392896,40.227863 21.1455027,39.8667124 21.9865245,39.8667124 C22.8102945,39.8667124 23.5564318,40.2224727 23.9769427,40.8089381 C24.320899,41.2940658 24.6993588,41.7619444 25.0616451,42.2125741 C25.2859176,42.4853237 25.5112683,42.7634635 25.7247584,43.0469937 C26.1387999,43.5860244 26.7016376,43.8997403 27.3356386,43.9590337 C28.8753554,44.1013378 30.2554937,43.6269907 31.427533,42.5553977 C31.9892924,42.0400843 32.2566942,41.3770765 32.2146431,40.578233 C32.1920002,40.228941 32.1855308,39.8613221 32.1790614,39.5120302 C32.1682791,39.0495418 32.1553403,38.5762728 32.1197586,38.1083942 C32.0378129,37.0066154 32.3817693,36.2131622 33.1926005,35.614838 C33.7306388,35.2235017 34.2578948,35.0811976 34.832593,35.176067 C35.8687749,35.3474788 36.7938989,35.5372176 37.6640329,35.7571422 C38.5632793,35.9759886 39.3935187,35.7690008 40.1148567,35.1286323 C41.0216506,34.3351791 41.6136006,33.3228794 41.8680636,32.1262312 C42.0815537,31.1257902 41.8443425,30.2611849 41.1628992,29.5561327 C40.8954974,29.2779928 40.6356432,28.9761356 40.3865714,28.6861371 C40.1374995,28.3907483 39.8776454,28.087813 39.6037742,27.8032048 C38.8587152,27.034547 38.6516944,26.2400157 38.9298785,25.2341843 C39.1196476,24.5291322 39.4679168,24.0558632 40.0135027,23.7475376 C40.9073579,23.2376145 41.7419103,22.7815946 42.5721498,22.35037 C43.2352631,22.0010781 43.6611651,21.4620473 43.8326042,20.7462145 C44.2045946,19.2401627 43.9555228,17.8192777 43.096171,16.5223698 Z" id="Path-Copy-32" fill="#03A973"></path>
                <path d="M21.8989727,16.8488283 L21.9051746,16.7600223 L21.9671944,15.1896721 C21.9558241,15.1181941 21.9837329,14.8387801 21.9837329,14.7965431 C21.9899349,13.958301 22.0343824,14.017866 22.1036377,12.4226068 C22.1077724,12.2980618 22.0581566,12.1735168 21.962026,12.0890428 C21.8710638,12.0056518 21.7449571,11.9829088 21.6260859,12.0121498 C20.962475,12.1843468 20.1386465,12.3684568 19.1794082,12.5590648 C18.9974837,12.5948038 18.8775789,12.7550879 18.8610404,12.9402809 C18.7473376,14.409912 18.7638761,14.065518 18.7090921,14.7543061 L18.5550764,16.7123703 C18.5550764,16.7123703 18.5550764,16.7177853 18.5550764,16.7242833 L18.4579122,18.5740475 L18.2501462,22.595227 L18.1757225,24.0226211 C18.0785583,25.8615553 18.0279089,26.9023184 18.0175723,27.2109735 C18.0051683,27.5152965 18,27.7340625 18,27.8661885 C18,28.8538846 18.1695206,29.6628857 18.5054607,30.2628678 C18.8517374,30.8747629 19.3509961,31.3274569 19.9929001,31.601456 C20.6006933,31.87004 21.4007476,32 22.3723898,32 C22.7527774,32 23.1672758,31.976174 23.5931445,31.933937 C24.0241815,31.886285 24.6040659,31.773653 25.3245282,31.600373 C25.4775102,31.558136 25.5974149,31.4281759 25.6201555,31.2668089 C25.6770069,30.8736799 25.7400603,30.3863298 25.7917434,29.9163078 C25.8589314,29.3455667 25.9271531,28.7564146 25.9902065,28.4759176 C26.0243173,28.3210486 25.9674659,28.1596816 25.8485948,28.0654606 C25.72869,27.9701566 25.5695061,27.9528285 25.43513,28.0243066 C24.7363746,28.3936096 24.3446167,28.5419806 23.7089147,28.6665256 C23.4866773,28.7141776 23.2933826,28.7141776 23.0835492,28.7141776 L22.9822503,28.7141776 C22.686623,28.7141776 22.2938315,28.6134586 21.9764973,28.4520916 C21.687072,28.3026376 21.6188503,28.2495706 21.5671672,28.0004806 C21.476205,27.5304585 21.476205,27.4297395 21.476205,26.8709114 L21.476205,26.6272364 L21.4937772,25.9362823 L21.7211828,20.8559288 L21.8989727,16.8488283 Z" id="Path-Copy-36" fill="#FFFFFF"></path>
                <path d="M29.9047716,17.0622653 L29.2230804,15.580195 C29.1100089,15.3395554 28.9066975,15.148393 28.6620714,15.0618078 C28.4174454,14.9684756 28.1489004,14.9808449 27.9097105,15.0989157 L22.8693272,17.5941464 L22.8758505,17.5019387 L19.2499492,19.3854499 L17.1189848,20.4413406 L16.3013902,18.6567841 C16.1926676,18.4161444 15.9904434,18.2306045 15.7458174,18.1372723 C15.5011913,18.0450646 15.2326463,18.0574339 14.9934564,18.1755048 L13.5604915,18.8783075 C13.0712395,19.1189471 12.862492,19.7250441 13.0951585,20.2310621 L15.0119393,24.4197661 C15.1250109,24.6604057 15.3228861,24.8515681 15.5675122,24.9381534 C15.6762348,24.9820083 15.7893064,25 15.8958547,25 C16.0448047,25 16.1894059,24.9696389 16.3198731,24.9010454 L19.0314167,23.5606601 L22.6823242,21.7547383 L29.4427002,18.412771 C29.9286906,18.1743803 30.1374382,17.5682833 29.9047716,17.0622653 Z" id="Path-Copy-35" fill="#FFFFFF"></path>
            </g>
        </g>
    </g>
</svg>