<?xml version="1.0" encoding="UTF-8"?>
<svg width="17px" height="17px" viewBox="0 0 17 17" version="1.1" xmlns="http://www.w3.org/2000/svg" xmlns:xlink="http://www.w3.org/1999/xlink">
    <!-- Generator: Sketch 58 (84663) - https://sketch.com -->
    <title>edit</title>
    <desc>Created with Sketch.</desc>
    <g id="Page-1" stroke="none" stroke-width="1" fill="none" fill-rule="evenodd">
        <g id="Test-case-5-Copy" transform="translate(-21.000000, -214.000000)" fill="#9EB6CA" fill-rule="nonzero">
            <g id="edit" transform="translate(21.000000, 214.000000)">
                <path d="M15.9452273,4.14645455 C15.5843636,3.54990909 15.1392727,2.96572727 14.5945,2.42404545 C14.0435455,1.87695455 13.4493182,1.42877273 12.8411818,1.06868182 L13.9090909,0 C13.9090909,0 15.4545455,0 16.2272727,0.772727273 C17,1.54545455 17,3.09090909 17,3.09090909 L15.9452273,4.14645455 Z M6.95454545,13.1363636 L3.86363636,13.1363636 L3.86363636,10.0454545 L4.23454545,9.67454545 C4.86277273,9.97204545 5.48713636,10.3900909 6.04890909,10.9510909 C6.61145455,11.5144091 7.02872727,12.1372273 7.32545455,12.7654545 L6.95454545,13.1363636 Z M15.0527273,5.03818182 L8.21718182,11.8729545 C7.85631818,11.2771818 7.41122727,10.6914545 6.86645455,10.1505455 C6.31627273,9.60268182 5.72127273,9.15527273 5.11313636,8.79518182 L11.9618182,1.94727273 C12.5900455,2.24322727 13.2144091,2.66127273 13.7761818,3.22304545 C14.3395,3.78559091 14.7567727,4.40995455 15.0527273,5.03818182 Z M1,1 L0.888888889,16.1111111 L16.1111111,16.1111111 L16.1111111,9.44444444 L17,6.92518182 L17,15.4545455 C17,16.3084091 16.3076364,17 15.4545455,17 L1.54545455,17 C0.692363636,17 0,16.3084091 0,15.4545455 L0,1.54545455 C0,0.692363636 0.692363636,0 1.54545455,0 L10.0531818,0 L9,1 L1,1 Z" id="Shape"></path>
            </g>
        </g>
    </g>
</svg>