<svg width="65" height="62" viewBox="0 0 65 62" fill="none" xmlns="http://www.w3.org/2000/svg">
<circle cx="31" cy="31" r="29" stroke="#F23D3D" stroke-width="4"/>
<circle cx="53" cy="12" r="11" fill="#F23D3D" stroke="white" stroke-width="2"/>
<path d="M49.4844 15.833L57.4842 7.83301" stroke="white" stroke-width="2" stroke-linejoin="round"/>
<path d="M57.4844 15.833L49.4845 7.83301" stroke="white" stroke-width="2" stroke-linejoin="round"/>
<path d="M20.4375 22.4375H22.0625V24.0625H20.4375V22.4375Z" fill="black"/>
<path d="M23.6875 22.4375H25.3125V24.0625H23.6875V22.4375Z" fill="black"/>
<path d="M26.9375 22.4375H28.5625V24.0625H26.9375V22.4375Z" fill="black"/>
<path d="M42.375 20H19.625C19.194 20 18.7807 20.1712 18.476 20.476C18.1712 20.7807 18 21.194 18 21.625V41.125C18 41.556 18.1712 41.9693 18.476 42.274C18.7807 42.5788 19.194 42.75 19.625 42.75H42.375C42.806 42.75 43.2193 42.5788 43.524 42.274C43.8288 41.9693 44 41.556 44 41.125V21.625C44 21.194 43.8288 20.7807 43.524 20.476C43.2193 20.1712 42.806 20 42.375 20ZM19.625 21.625H42.375V25.0375H19.625V21.625ZM19.625 41.125V26.3375H42.375V41.125H19.625Z" fill="black"/>
</svg>
