<?xml version="1.0" encoding="UTF-8"?>
<svg width="46px" height="45px" viewBox="0 0 46 45" version="1.1" xmlns="http://www.w3.org/2000/svg" xmlns:xlink="http://www.w3.org/1999/xlink">
    <!-- Generator: Sketch 59 (86127) - https://sketch.com -->
    <title>private-grid</title>
    <desc>Created with Sketch.</desc>
    <g id="Page-1" stroke="none" stroke-width="1" fill="none" fill-rule="evenodd">
        <g id="private-grid" transform="translate(1.000000, 0.000000)">
            <g id="iconfinder_windows_1220364-copy" transform="translate(27.000000, 30.000000)" fill-rule="nonzero">
                <path d="M11.9975422,2.78067486 C11.9975422,3.6562806 11.9950845,4.53188635 12,5.40502559 C12,5.52341735 11.9705069,5.57274725 11.8525346,5.55794828 C11.8328725,5.55548179 11.8107527,5.55794828 11.7910906,5.55794828 C10.2771121,5.56534777 8.76313364,5.57274725 7.24669739,5.58261323 C6.75268817,5.58507973 6.2562212,5.59001272 5.76221198,5.5998787 C5.64178187,5.60234519 5.6,5.56781426 5.6,5.43955652 C5.60491551,3.97692496 5.60491551,2.5142934 5.6,1.05166184 C5.6,0.92587059 5.62703533,0.874074194 5.76466974,0.859275224 C6.31766513,0.792679858 6.86574501,0.713752016 7.41628264,0.63729067 C8.1781874,0.528764888 8.93763441,0.415306116 9.69708141,0.306780334 C10.4221198,0.203187542 11.1471582,0.106994235 11.8721966,0.00340144341 C11.9877112,-0.0138640219 12,0.035465879 12,0.131659186 C11.9975422,1.01219792 11.9975422,1.89766964 11.9975422,2.78067486 Z" id="Path" fill="#00ACEE"></path>
                <path d="M4.79983354,3.18484017 C4.79983354,3.9250501 4.79983354,4.66778634 4.79983354,5.40799626 C4.79983354,5.56968034 4.79983354,5.56968034 4.63869976,5.56968034 C4.34084641,5.57220665 4.04543447,5.57220665 3.74758112,5.57473297 C2.55616771,5.58231191 1.3647543,5.58989085 0.173340886,5.6 C0,5.6 0,5.60252242 0,5.42568046 C0,4.16757622 0,2.90947197 0,1.64884142 C0,1.47452577 0.00244142093,1.48210471 0.168458044,1.45684157 C0.598148127,1.39621004 1.02783821,1.32799957 1.45752829,1.26484173 C1.78712012,1.21684177 2.11915336,1.17642075 2.44874519,1.1309471 C3.11281168,1.03747349 3.77687817,0.938947256 4.43850324,0.842947334 C4.53371866,0.827789451 4.62893407,0.8 4.72659091,0.8 C4.77786075,0.8 4.80227496,0.817684196 4.79983354,0.873263098 C4.79739212,0.916210432 4.79983354,0.956631452 4.79983354,0.999578785 C4.79983354,1.72715714 4.79983354,2.4547355 4.79983354,3.18484017 Z M4.72414949,3.16968229 C4.72414949,2.44715656 4.72170807,1.72210452 4.72659091,0.999578785 C4.72659091,0.893473608 4.6899696,0.870736785 4.59963702,0.875789412 C4.52395297,0.88084204 4.46535887,0.926315687 4.38967482,0.931368314 C4.22854104,0.941473569 4.06984868,0.971789334 3.9087149,0.994526158 C3.5937716,1.03999981 3.27638688,1.08042083 2.963885,1.1309471 C2.77345417,1.16126286 2.57569908,1.15873655 2.39259251,1.23705228 C2.36085403,1.24968385 2.32911556,1.2597891 2.29737709,1.24715753 C2.19483741,1.2042102 2.08985631,1.2421049 1.99952374,1.26484173 C1.77003017,1.32547326 1.53321234,1.34063114 1.29883593,1.37347322 C1.10352226,1.40126267 0.908208584,1.44168369 0.710453489,1.44926263 C0.544436866,1.45431526 0.39551019,1.54273624 0.224610725,1.5351573 C0.0781254696,1.52757836 0.0585941022,1.55536781 0.0585941022,1.71199926 C0.0585941022,2.92462986 0.0585941022,4.13473414 0.0585941022,5.34736473 C0.0585941022,5.51157512 0.0756840487,5.52420669 0.234376409,5.52673301 C1.01318968,5.53936458 1.79444438,5.4888383 2.57325766,5.49894356 C3.22267562,5.5065225 3.87453501,5.50146987 4.52395297,5.49894356 C4.71194239,5.49894356 4.72170807,5.49136461 4.72170807,5.28925952 C4.72414949,4.58189167 4.72414949,3.87705014 4.72414949,3.16968229 Z" id="Shape" fill="#35ABD5"></path>
                <path d="M4.79739949,8.82745119 C4.79739949,9.57204556 4.79496055,10.3166399 4.79983843,11.0612343 C4.79983843,11.1748165 4.77788795,11.2152012 4.66081872,11.1950089 C4.30961103,11.1369557 3.9559644,11.0864748 3.60231777,11.0359938 C3.23647642,10.9829888 2.87063508,10.9400799 2.50479373,10.8845509 C1.98773797,10.8088294 1.4706822,10.7255358 0.951187494,10.6498143 C0.678025957,10.6094296 0.404864421,10.5690448 0.131702884,10.5387562 C0.0341451921,10.52866 0,10.4958474 0,10.3923614 C0.00243894229,9.11014465 0.00243894229,7.82792791 0,6.54318713 C0,6.43465304 0.0268283652,6.38417207 0.139019711,6.40436446 C0.190237499,6.4119366 0.243894229,6.40688851 0.29755096,6.40688851 C1.75603845,6.41446065 3.21452594,6.42455685 4.67301343,6.42960494 C4.77788795,6.42960494 4.80227737,6.46494163 4.79983843,6.56590357 C4.79496055,7.32059413 4.79739949,8.07276064 4.79739949,8.82745119 Z M4.72179228,8.82997524 C4.72179228,8.12324161 4.71691439,7.41650798 4.72423122,6.7122984 C4.72667016,6.52804284 4.64618507,6.50027831 4.51448218,6.50027831 C4.31448892,6.50027831 4.11693459,6.5103745 3.91450238,6.5053264 C3.0218495,6.48008592 2.12919662,6.52299474 1.23654374,6.47756187 C0.899969706,6.45989353 0.56339567,6.47503782 0.224382691,6.47503782 C0.0756072111,6.47503782 0.058534615,6.49523021 0.058534615,6.65172123 C0.058534615,7.86578864 0.058534615,9.08238011 0.058534615,10.2964475 C0.058534615,10.4605107 0.082924038,10.475655 0.239016345,10.4907993 C0.480471632,10.5135157 0.721926919,10.5337081 0.958504321,10.581665 C1.25605528,10.6397181 1.55604518,10.6725308 1.85603508,10.7154396 C2.01212739,10.738156 2.17309758,10.7432041 2.32187306,10.7810649 C2.53406104,10.8315458 2.74868796,10.8466901 2.96087594,10.8820268 C3.19257546,10.9224116 3.43159181,10.9527002 3.66816921,10.9779407 C3.97059805,11.0132774 4.27546584,11.048614 4.57545574,11.1167633 C4.67301343,11.1394798 4.71935334,11.1091912 4.71935334,10.9880369 C4.71935334,10.2661589 4.72179228,9.54680507 4.72179228,8.82997524 Z" id="Shape" fill="#35ABD5"></path>
                <path d="M12,9.22463011 C12,10.0900742 12,10.9555183 12,11.823414 C12,12.0121936 12,12.0146453 11.806135,11.9876768 C11.3447853,11.9214813 10.8858896,11.8528342 10.4245399,11.7890905 C9.78895706,11.7008299 9.15337423,11.6174727 8.5202454,11.5267604 C7.9190184,11.4434032 7.31533742,11.3575943 6.71411043,11.266882 C6.3803681,11.2153967 6.04171779,11.1884281 5.70797546,11.1271361 C5.60245399,11.1075226 5.6,11.0609406 5.6,10.9824868 C5.6,10.1856898 5.6,9.38889286 5.6,8.59209591 C5.6,7.91297973 5.6,7.23631524 5.6,6.55719907 C5.6,6.40764641 5.60490798,6.39783968 5.76196319,6.40029136 C7.80122699,6.43461492 9.8404908,6.43461492 11.8797546,6.44442165 C11.9828221,6.44442165 12,6.48610026 12,6.57436085 C12,7.45941839 12,8.34202425 12,9.22463011 C12,9.22463011 12,9.22463011 12,9.22463011 Z M11.9582822,9.20011328 C11.9582822,8.53080384 11.9582822,7.85904271 11.9582822,7.18973327 C11.9582822,6.998502 11.9582822,6.80481904 11.9582822,6.61358777 C11.9582822,6.56455412 11.9680982,6.51306877 11.8920245,6.50816541 C11.806135,6.50326204 11.7226994,6.48855194 11.6368098,6.48610026 C10.7828221,6.47139016 9.92883436,6.48610026 9.07484663,6.4664868 C7.99263804,6.44196997 6.90797546,6.45913175 5.82331288,6.45913175 C5.65153374,6.45913175 5.65153374,6.45913175 5.65153374,6.62584619 C5.65153374,7.98162686 5.65153374,9.33740752 5.65153374,10.6956399 C5.65153374,10.7937072 5.65398773,10.8917745 5.65153374,10.9898418 C5.64907975,11.0633923 5.6809816,11.0879091 5.75460123,11.0928125 C5.87239264,11.1001676 5.98773006,11.1271361 6.10552147,11.1295878 C6.30920245,11.1344911 6.50306748,11.2055899 6.70920245,11.2153967 C6.90797546,11.2252034 7.10429448,11.2521719 7.3006135,11.2766887 C7.53374233,11.3085606 7.76441718,11.374756 7.99754601,11.3772077 C8.2601227,11.3796594 8.51042945,11.460565 8.77055215,11.475275 C9.01349693,11.4899851 9.25153374,11.5463739 9.49202454,11.5806974 C9.77668712,11.6199243 10.0638037,11.6493445 10.3484663,11.6959265 C10.5693252,11.7327018 10.790184,11.7498635 11.0110429,11.7792837 C11.2417178,11.8111556 11.4674847,11.8650926 11.7006135,11.8528342 C11.7177914,11.8528342 11.7374233,11.869996 11.7546012,11.8773511 C11.8969325,11.9386431 11.9582822,11.8994162 11.9582822,11.7425085 C11.9582822,10.8991296 11.9582822,10.0508473 11.9582822,9.20011328 Z" id="Shape" fill="#35ABD5"></path>
                <path d="M4.79497908,3.16701026 C4.79497908,3.89673247 4.79497908,4.62645468 4.79497908,5.35357074 C4.79497908,5.56206279 4.7874477,5.56988125 4.5916318,5.56988125 C3.92384937,5.56988125 3.25355649,5.5776997 2.58577406,5.56988125 C1.78242678,5.55945664 0.981589958,5.60897351 0.180753138,5.5985489 C0.0175732218,5.59594275 0,5.58030585 0,5.4135122 C0,4.16255985 0,2.91421364 0,1.66326129 C0,1.50167994 0.020083682,1.47301228 0.170711297,1.48083074 C0.343933054,1.49125534 0.49958159,1.39743391 0.670292887,1.39222161 C0.873640167,1.38700931 1.07447699,1.34270475 1.27531381,1.31403709 C1.51380753,1.28015713 1.75732218,1.26712638 1.9958159,1.20197261 C2.08870293,1.1759111 2.19665272,1.13942499 2.30209205,1.18372955 C2.33472803,1.19676031 2.36736402,1.1863357 2.4,1.17330495 C2.58828452,1.09251428 2.7916318,1.09512043 2.9874477,1.06384662 C3.31129707,1.0117236 3.63514644,0.96741904 3.95899582,0.923114478 C4.12217573,0.899659121 4.28786611,0.868385312 4.45355649,0.857960709 C4.53138075,0.852748408 4.59414226,0.805837694 4.66945607,0.800625393 C4.76485356,0.795413091 4.8,0.821474599 4.8,0.928326779 C4.79497908,1.67368589 4.79497908,2.419045 4.79497908,3.16701026 Z" id="Path" fill="#00ACEE"></path>
                <path d="M4.79241719,8.83726374 C4.79241719,9.57906756 4.78990807,10.3208714 4.79492631,11.0600724 C4.79492631,11.1850078 4.74725305,11.2162416 4.64688829,11.1928162 C4.33826666,11.1225401 4.02462679,11.0834978 3.71349604,11.0496611 C3.47011151,11.0210301 3.22421785,10.9897962 2.98585155,10.9507539 C2.7675582,10.9143144 2.54675573,10.8986975 2.32846238,10.8466411 C2.17540613,10.8102016 2.00980428,10.8023932 1.84922066,10.7789678 C1.54059903,10.7347198 1.2319774,10.7008832 0.925864892,10.6410183 C0.682480354,10.5915647 0.434077578,10.5707421 0.185674802,10.5473168 C0.0225820705,10.5316998 0,10.5186857 0,10.3468996 C0,9.09494296 0,7.84038352 0,6.58842689 C0,6.42444921 0.0175638326,6.40622946 0.170620088,6.40622946 C0.516878503,6.40622946 0.865646037,6.39061254 1.21190445,6.40883229 C2.13024199,6.45568305 3.04857952,6.40883229 3.96691706,6.43746331 C4.17266481,6.44266895 4.37841256,6.43486049 4.58416032,6.43225767 C4.71965274,6.43225767 4.80245367,6.46088869 4.79994455,6.65089458 C4.78739895,7.3796843 4.79241719,8.10847402 4.79241719,8.83726374 Z" id="Path" fill="#00ACEE"></path>
                <path d="M11.9995809,9.21402758 C11.9995809,10.0879164 11.9995809,10.9592868 11.9995809,11.8331756 C11.9995809,11.9943539 11.9373282,12.0346485 11.7929018,11.9716882 C11.7729809,11.964133 11.7555502,11.9465041 11.7381194,11.9465041 C11.501559,11.9590962 11.2699789,11.9036911 11.0383987,11.8709518 C10.8142889,11.8407308 10.590179,11.8231019 10.3660692,11.7853258 C10.0772165,11.7349575 9.78587373,11.707255 9.49702105,11.6669604 C9.25299034,11.6317027 9.00895963,11.5737792 8.76492891,11.5586687 C8.50097733,11.5410398 8.24947629,11.4604507 7.98054449,11.4579323 C7.7439841,11.4554139 7.50991383,11.3874167 7.27335345,11.3546774 C7.0741447,11.3269749 6.87244585,11.3017907 6.67323711,11.2917171 C6.46655803,11.2816435 6.2698394,11.2086095 6.06067022,11.2035727 C5.94114497,11.2010543 5.82410984,11.1733518 5.70458459,11.1657965 C5.63237142,11.1607597 5.6,11.1330572 5.6,11.0600232 C5.60249011,10.9592868 5.6,10.8585503 5.6,10.7578139 C5.6,9.36513227 5.6,7.97245069 5.6,6.5772507 C5.6,6.40599872 5.6,6.40599872 5.77430765,6.40599872 C6.87493596,6.40599872 7.97307416,6.38836984 9.07370247,6.41355395 C9.9402605,6.43370124 10.8068185,6.41859077 11.6733766,6.43370124 C11.7605304,6.43621965 11.8451941,6.45133012 11.9323479,6.45636695 C12.0095413,6.45888536 11.9995809,6.51429041 11.9995809,6.56465864 C11.9995809,6.76109474 11.9995809,6.96004925 11.9995809,7.15648535 C11.9995809,7.83897488 11.9995809,8.52650123 11.9995809,9.21402758 Z" id="Path" fill="#00ACEE"></path>
            </g>
            <g id="iconfinder_Apple_367618-Copy" transform="translate(2.000000, 2.000000)" fill="#000000" fill-rule="nonzero">
                <path d="M6.77962477,3.26483333 C6.56738609,3.32633333 6.26737159,3.37383333 5.88374481,3.4075 C5.9010133,2.57176667 6.12413864,1.8509 6.55646531,1.2459 C6.98084027,0.6448 7.69772171,0.229466667 8.70833819,0 C8.71461764,0.0160666667 8.72273998,0.0482333333 8.73052104,0.0929 C8.73837036,0.137566667 8.74618555,0.1682 8.75253325,0.185066667 C8.75253325,0.207266667 8.75406899,0.235633333 8.75720872,0.2693 C8.75881271,0.303266667 8.76034844,0.330833333 8.76034844,0.354033333 C8.76034844,0.6961 8.67697506,1.07696667 8.51053543,1.49763333 C8.3391132,1.9183 8.07175867,2.30526667 7.71028061,2.65856667 C7.40057391,2.9608 7.08929734,3.16346667 6.77962477,3.26483333 Z M10.6386215,9.1622 C10.2426747,8.60776667 10.0445989,7.98133333 10.0445989,7.286 C10.0445989,6.65193333 10.230184,6.07143333 10.6041527,5.54486667 C10.8053682,5.2577 11.1323434,4.9276 11.5865117,4.55163333 C11.2878282,4.19223333 10.9893494,3.91296667 10.6906659,3.71026667 C10.1498821,3.34626667 9.53838628,3.1635 8.85471087,3.1635 C8.44750201,3.1635 7.95067444,3.2587 7.36603692,3.44913333 C6.80341161,3.6411 6.39145903,3.7353 6.13359194,3.7353 C5.93862176,3.7353 5.54264084,3.65183333 4.94520552,3.4831 C4.34176376,3.31463333 3.83398128,3.23113333 3.4205271,3.23113333 C2.43182044,3.23113333 1.61750511,3.6347 0.973008023,4.44236667 C0.323835472,5.26076667 0,6.31093333 0,7.58826667 C0,8.9473 0.422873362,10.3566 1.26701609,11.8213 C2.122182,13.2737667 2.98669882,14 3.85906496,14 C4.15150317,14 4.53178546,13.9047667 4.99568003,13.7143667 C5.46087144,13.5288 5.86958191,13.4363667 6.2200368,13.4363667 C6.59277692,13.4363667 7.02657107,13.5262 7.52002002,13.7051333 C8.04193127,13.8848667 8.44439641,13.9744667 8.72587971,13.9744667 C9.46156537,13.9744667 10.1985479,13.4251333 10.940513,12.3257 C11.4216419,11.6247333 11.7752365,10.9240333 12,10.2230667 C11.4874738,10.0709667 11.0348754,9.7179 10.6386215,9.1622 Z" id="Shape"></path>
            </g>
            <line x1="21.5" y1="0.64285714" x2="21.5" y2="44.3571429" id="Line" stroke="#C4D3DD" stroke-linecap="square"></line>
            <line x1="0" y1="22.5" x2="44" y2="22.5" id="Line-Copy" stroke="#C4D3DD" stroke-linecap="square"></line>
            <g id="linux-2" transform="translate(3.000000, 27.000000)" fill="#000000" fill-rule="nonzero">
                <path d="M4.37466398,2.75245792 C4.32573812,2.75692186 4.29126762,2.78035762 4.2712525,2.82276514 C4.25123738,2.86517268 4.2323342,2.88637646 4.21454298,2.88637646 C4.19230394,2.8908404 4.18118444,2.87968052 4.18118444,2.85289682 C4.18118444,2.7993294 4.22343858,2.76584976 4.3079469,2.75245792 L4.37466398,2.75245792 Z M4.95510262,2.8462009 C4.9373114,2.85066484 4.91173652,2.836157 4.87837798,2.80267736 C4.84501944,2.76919774 4.80610114,2.75915384 4.76162308,2.7725457 C4.86837042,2.72344224 4.9395353,2.72790618 4.97511774,2.78593754 C4.98846116,2.81272126 4.98178945,2.83280904 4.95510262,2.8462009 Z M2.61333294,5.70536164 C2.59554172,5.70089768 2.5821983,5.70759362 2.57330268,5.72544942 C2.56440708,5.74330522 2.5543995,5.77120492 2.54328,5.8091485 C2.53216048,5.84709208 2.51992902,5.87722376 2.5065856,5.89954352 C2.49324218,5.92186328 2.47100316,5.95087896 2.43986852,5.98659056 C2.40873388,6.03123008 2.40650998,6.05801378 2.4331968,6.06694168 C2.45098802,6.07140564 2.47878682,6.0557818 2.51659316,6.0200702 C2.5543995,5.98435858 2.5821983,5.94418302 2.59998952,5.89954352 C2.60443732,5.88615166 2.60888512,5.87052784 2.61333294,5.85267202 C2.61778074,5.83481622 2.62222854,5.82142438 2.62667636,5.81249646 C2.63112416,5.80356856 2.63446002,5.79352468 2.63668392,5.7823648 C2.63890782,5.77120492 2.64001976,5.76227702 2.64001976,5.7555811 L2.64001976,5.7354933 L2.63334806,5.7187535 L2.61333294,5.70536164 Z M8.31764372,8.10919936 C8.31764372,8.02884824 8.19532906,7.93510526 7.95069974,7.82797044 C7.96849096,7.76101118 7.98517024,7.69963184 8.00073756,7.64383246 C8.01630488,7.58803306 8.0274244,7.5300017 8.0340961,7.46973836 C8.0407678,7.40947502 8.04743952,7.36148754 8.05411122,7.32577592 C8.06078294,7.29006432 8.06189488,7.23984486 8.05744708,7.17511758 C8.05299928,7.11039028 8.05077538,7.06686676 8.05077538,7.044547 C8.05077538,7.02222724 8.04299172,6.97312378 8.0274244,6.89723662 C8.01185708,6.82134944 8.00296146,6.77559394 8.00073756,6.75997012 C7.99851366,6.74434628 7.98739414,6.6885469 7.96737902,6.59257194 C7.94736388,6.496597 7.93513242,6.43744964 7.93068462,6.41512988 C7.88620656,6.20086022 7.78168312,5.97096674 7.61711432,5.72544942 C7.4525455,5.4799321 7.2924245,5.31253394 7.1367513,5.2232549 C7.24349864,5.31253394 7.3702611,5.4977879 7.51703868,5.77901684 C7.90399778,6.50217692 8.02408854,7.12266614 7.87731094,7.64048448 C7.82838508,7.81904254 7.71718994,7.91278552 7.54372552,7.92171342 C7.40584354,7.93956922 7.32022328,7.89827766 7.28686474,7.79783876 C7.2535062,7.69739986 7.23571498,7.5110299 7.23349108,7.23872888 C7.23126718,6.96642786 7.2056923,6.72760646 7.15676644,6.52226472 C7.11673618,6.34817062 7.07337008,6.1941643 7.02666812,6.06024576 C6.97996616,5.92632722 6.93660004,5.82477234 6.8965698,5.7555811 C6.85653954,5.68638984 6.82206906,5.63170644 6.79315832,5.59153088 C6.76424758,5.55135532 6.73533684,5.51787568 6.7064261,5.49109198 C6.67751536,5.46430828 6.6608361,5.44868444 6.6563883,5.4442205 C6.59411902,5.16745552 6.52517802,4.93756204 6.44956532,4.75454004 C6.37395264,4.57151804 6.3083475,4.4465274 6.25274992,4.37956814 C6.19715236,4.31260886 6.14489064,4.23895366 6.09596478,4.15860254 C6.04703892,4.07825142 6.01368038,3.9889724 5.99588914,3.89076548 C5.97809792,3.7970225 5.99144134,3.6776118 6.0359194,3.53253338 C6.08039746,3.38745498 6.09040502,3.27697218 6.06594208,3.20108502 C6.04147916,3.12519784 5.94251548,3.06939846 5.76905106,3.03368684 C5.70233398,3.02029498 5.6033703,2.98011942 5.47216004,2.91316016 C5.34094976,2.8462009 5.26200122,2.81048928 5.23531438,2.80602532 C5.19973194,2.80156138 5.175269,2.74353002 5.16192558,2.63193124 C5.14858216,2.52033246 5.1663734,2.4065017 5.21529926,2.29043896 C5.26422512,2.17437624 5.34428562,2.1141129 5.45548076,2.10964894 C5.62004956,2.09625708 5.73346862,2.16321636 5.7957379,2.31052674 C5.85800718,2.45783714 5.86690278,2.58729172 5.82242472,2.6988905 C5.77349886,2.78370558 5.76905106,2.84285292 5.80908132,2.87633256 C5.84911156,2.9098122 5.91582864,2.91092818 6.00923256,2.87968052 C6.06705404,2.86182472 6.09596478,2.7814736 6.09596478,2.63862716 L6.09596478,2.39087786 C6.07372574,2.25695934 6.04370306,2.14536056 6.00589672,2.05608152 C5.96809036,1.9668025 5.9213884,1.89872725 5.86579084,1.85185576 C5.81019326,1.80498427 5.75793154,1.77150464 5.70900568,1.75141686 C5.66007982,1.73132908 5.60003444,1.71458926 5.52886956,1.70119741 C5.05295434,1.73690902 4.855027,2.03599374 4.9350875,2.5984516 C4.9350875,2.66541086 4.9328636,2.6988905 4.92841578,2.6988905 C4.88838554,2.65871494 4.8227804,2.6352792 4.73160038,2.62858326 C4.64042038,2.62188734 4.56703158,2.62300332 4.511434,2.63193124 C4.45583644,2.64085914 4.42136594,2.62969926 4.40802252,2.5984516 C4.41247032,2.34400638 4.37688788,2.14312858 4.30127518,1.99581819 C4.2256625,1.8485078 4.12558686,1.77262062 4.0010483,1.76815667 C3.88095756,1.76369272 3.78866558,1.82507205 3.7241724,1.95229466 C3.65967922,2.07951728 3.62298482,2.21231982 3.61408922,2.3507023 C3.6096414,2.41766158 3.61742506,2.50024468 3.6374402,2.5984516 C3.65745532,2.69665852 3.68636606,2.78035762 3.7241724,2.84954886 C3.76197874,2.9187401 3.79644924,2.94887176 3.82758388,2.93994386 C3.87206194,2.92655202 3.90764438,2.89530436 3.93433122,2.8462009 C3.95212244,2.80602532 3.93655512,2.78816952 3.88762926,2.79263348 C3.85649462,2.79263348 3.82202412,2.76026982 3.78421778,2.69554254 C3.74641142,2.63081524 3.72528436,2.55604406 3.72083654,2.47122898 C3.71638874,2.37302206 3.73640386,2.29043896 3.78088192,2.2234797 C3.82535998,2.15652042 3.90097268,2.12527278 4.00772002,2.12973672 C4.0833327,2.12973672 4.14337808,2.1766082 4.18785614,2.27035118 C4.2323342,2.36409416 4.25346128,2.4511412 4.25123738,2.53149234 C4.24901348,2.61184346 4.24567762,2.66094692 4.24122982,2.67880272 C4.14337808,2.74576198 4.0744371,2.81048928 4.03440684,2.8729846 C3.9988244,2.92655202 3.93766708,2.97900344 3.85093486,3.03033888 C3.76420266,3.08167432 3.71861264,3.10957402 3.71416484,3.11403796 C3.65634336,3.17653328 3.62187288,3.23679662 3.61075336,3.29482798 C3.59963384,3.35285936 3.61631312,3.39303492 3.66079118,3.41535466 C3.72306044,3.45106628 3.77865802,3.4945898 3.82758388,3.54592524 C3.87650974,3.59726068 3.9120922,3.63966822 3.93433122,3.67314786 C3.95657024,3.70662748 3.99771246,3.73564316 4.05775782,3.7601949 C4.1178032,3.78474664 4.19675176,3.79925448 4.29460348,3.80371842 C4.50365034,3.81264632 4.73048844,3.7791667 4.97511774,3.70327952 C4.98401336,3.69881558 5.03516312,3.68319174 5.12856704,3.65640804 C5.22197096,3.62962432 5.2986956,3.60618858 5.35874098,3.5861008 C5.41878636,3.56601302 5.4843915,3.53699734 5.55555638,3.49905376 C5.62672128,3.46111016 5.67342324,3.4220506 5.69566226,3.38187504 C5.73569252,3.31937972 5.78017058,3.30152392 5.82909644,3.32830762 C5.85133546,3.34169948 5.86579084,3.36067126 5.87246254,3.385223 C5.87913426,3.40977474 5.87246254,3.43655844 5.85244742,3.46557412 C5.8324323,3.4945898 5.7957379,3.51579358 5.74236422,3.52918542 C5.65340812,3.55596914 5.5277576,3.6039566 5.3654127,3.67314786 C5.20306778,3.7423391 5.1018802,3.78586262 5.06184996,3.80371842 C4.8661465,3.8885335 4.7104733,3.93986894 4.59483036,3.95772474 C4.48363522,3.9800445 4.3079469,3.97558054 4.06776538,3.94433288 C4.02328734,3.93540498 4.0032722,3.93986894 4.00772002,3.95772474 C4.01216782,3.97558054 4.04997416,4.01798808 4.12113906,4.08494736 C4.2323342,4.18761822 4.38133568,4.2367217 4.56814352,4.23225774 C4.64375622,4.22779378 4.72381672,4.21216996 4.80832504,4.18538626 C4.89283334,4.15860254 4.97289384,4.12735488 5.04850654,4.09164328 C5.12411924,4.05593166 5.19861998,4.0168721 5.27200878,3.97446456 C5.34539756,3.93205702 5.41211466,3.89411344 5.47216004,3.8606338 C5.5322054,3.82715416 5.58669102,3.80037046 5.63561688,3.78028268 C5.68454276,3.7601949 5.72346106,3.75461496 5.75237178,3.76354286 C5.78128252,3.77247076 5.8001857,3.7970225 5.80908132,3.83719806 C5.80908132,3.84612596 5.8068574,3.85616986 5.8024096,3.86732972 C5.7979618,3.8784896 5.78906618,3.88964948 5.77572276,3.90080936 C5.76237936,3.91196924 5.74903594,3.92201314 5.73569252,3.93094104 C5.7223491,3.93986894 5.70344592,3.95102882 5.678983,3.96442066 C5.65452006,3.97781252 5.63450494,3.98785642 5.61893762,3.99455234 C5.6033703,4.00124826 5.58113128,4.01240814 5.55222054,4.02803198 C5.5233098,4.0436558 5.50218272,4.0536997 5.4888393,4.05816364 C5.36430074,4.12065896 5.2141873,4.21886588 5.03849898,4.35278442 C4.86281066,4.48670296 4.71492112,4.58267792 4.59483036,4.64070928 C4.4747396,4.69874064 4.36576836,4.70097262 4.26791664,4.6474052 C4.17451272,4.59830174 4.03440684,4.43536752 3.847599,4.15860254 C3.74974728,4.02022006 3.69414972,3.9711166 3.6808063,4.01129216 C3.6763585,4.024684 3.67413458,4.04700376 3.67413458,4.07825142 C3.67413458,4.1898502 3.64077604,4.31595682 3.57405896,4.45657128 C3.50734188,4.59718576 3.44173674,4.7210604 3.37724356,4.82819522 C3.31275038,4.93533006 3.26604842,5.06478464 3.23713768,5.21655898 C3.20822694,5.36833332 3.23380182,5.50894778 3.31386232,5.63840238 C3.2115628,5.66518608 3.07256886,5.86606388 2.89688054,6.24103578 C2.72119222,6.61600768 2.61555684,6.93071624 2.5799744,7.18516146 C2.57107878,7.26551258 2.56774292,7.4195189 2.56996682,7.64718042 C2.57219074,7.87484192 2.55995926,8.00652848 2.53327244,8.0422401 C2.49768998,8.14937492 2.4331968,8.15607086 2.33979288,8.06232788 C2.1974631,7.92394538 2.1174026,7.71413968 2.09961138,7.43291076 C2.09071576,7.30792012 2.09961138,7.18292948 2.12629822,7.05793886 C2.14408944,6.97312378 2.14186554,6.93294822 2.1196265,6.93741218 L2.09293968,6.9708918 C1.93281867,7.26104864 1.95505769,7.63155658 2.15965676,8.08241566 C2.18189578,8.13598308 2.23749336,8.19847838 2.32644946,8.2699016 C2.41540558,8.34132482 2.46877924,8.38596434 2.48657048,8.40382014 C2.57552658,8.50649102 2.80681248,8.70848482 3.18042816,9.00980152 C3.55404384,9.31111822 3.7608668,9.48186436 3.80089704,9.52203992 C3.87206194,9.5889992 3.91098024,9.67381426 3.91765194,9.77648514 C3.92432366,9.87915602 3.89318902,9.97513096 3.82424802,10.06441 C3.75530704,10.153689 3.65411946,10.2050245 3.5206853,10.2184163 C3.55626774,10.2853756 3.62076092,10.3846985 3.71416484,10.5163851 C3.80756876,10.6480716 3.86983804,10.7685983 3.90097268,10.8779651 C3.93210732,10.9873319 3.94767464,11.1446862 3.94767464,11.3500279 C4.1522737,11.2428931 4.16784102,11.0375514 3.9943766,10.7340027 C3.97658538,10.6982911 3.9532344,10.6625795 3.92432366,10.6268678 C3.89541292,10.5911562 3.87428584,10.5643725 3.86094242,10.5465167 C3.847599,10.5286609 3.8431512,10.5152691 3.847599,10.5063412 C3.86094242,10.4840214 3.88985316,10.4628176 3.93433122,10.4427299 C3.97880928,10.4226421 4.02328734,10.428222 4.06776538,10.4594697 C4.27236446,10.6915951 4.64153232,10.7719463 5.175269,10.700523 C5.76682716,10.6335638 6.16045796,10.4393819 6.3561614,10.1179774 C6.45846094,9.94834726 6.53407364,9.881388 6.5829995,9.9170996 C6.63637316,9.94388332 6.6586122,10.059946 6.64971658,10.2652878 C6.64526878,10.3768866 6.59411902,10.5822283 6.49626728,10.8813131 C6.45623704,10.9839839 6.44289362,11.067683 6.45623704,11.1324103 C6.46958046,11.1971376 6.52295412,11.2317332 6.61635804,11.2361972 C6.62970146,11.1513821 6.66194804,10.97952 6.71309782,10.7206108 C6.76424758,10.4617017 6.79427026,10.2608238 6.80316588,10.1179774 C6.8120615,10.0242344 6.79760612,9.86018422 6.75979978,9.62582678 C6.72199342,9.39146934 6.70531416,9.17496772 6.70976196,8.97632188 C6.71420976,8.77767606 6.76535954,8.62032178 6.86321126,8.50425904 C6.92992834,8.42390792 7.04334738,8.38373236 7.20346838,8.38373236 C7.2079162,8.21856616 7.28464084,8.10027146 7.43364234,8.02884824 C7.58264382,7.95742502 7.74387678,7.93398928 7.9173412,7.95854102 C8.09080562,7.98309274 8.2242398,8.0333122 8.31764372,8.10919936 Z M4.12781076,2.5716679 C4.14115418,2.49578072 4.13559442,2.42882146 4.1111315,2.37079008 C4.08666856,2.31275872 4.06109368,2.27927908 4.03440684,2.27035118 C3.9943766,2.26142328 3.97436148,2.27704712 3.97436148,2.31722268 C3.98325708,2.33954242 3.9943766,2.35293428 4.00772002,2.35739824 C4.05219806,2.35739824 4.06776538,2.39087786 4.05442198,2.45783714 C4.04107856,2.54711616 4.05886978,2.59175568 4.10779564,2.59175568 C4.12113906,2.59175568 4.12781076,2.58505974 4.12781076,2.5716679 Z M6.92325664,3.89076548 C6.91436102,3.85505386 6.89990566,3.82938614 6.87989052,3.81376232 C6.8598754,3.79813848 6.83096466,3.7869786 6.79315832,3.78028268 C6.75535196,3.77358676 6.72310538,3.76131088 6.69641854,3.74345508 C6.67417952,3.73006322 6.65305244,3.71220742 6.63303732,3.68988766 C6.61302218,3.66756792 6.59745486,3.6497121 6.58633536,3.63632026 C6.57521584,3.6229284 6.56298438,3.60842056 6.54964096,3.59279672 C6.53629754,3.5771729 6.52740192,3.568245 6.52295412,3.56601302 C6.51850632,3.56378104 6.5096107,3.56712902 6.49626728,3.57605692 C6.433998,3.64748014 6.44956532,3.74457108 6.54296924,3.86732972 C6.63637316,3.99008838 6.72310538,4.06039562 6.80316588,4.07825142 C6.84319614,4.08271538 6.87544272,4.06485958 6.89990566,4.024684 C6.92436858,3.98450844 6.93215224,3.93986894 6.92325664,3.89076548 Z M5.73569252,2.46453306 C5.73569252,2.4154296 5.724573,2.37190608 5.70233398,2.33396248 C5.68009494,2.2960189 5.65563202,2.2681192 5.62894518,2.2502634 C5.60225834,2.2324076 5.58224322,2.22571168 5.5688998,2.23017562 C5.50663052,2.23463958 5.4910632,2.2502634 5.52219784,2.27704712 L5.54888468,2.29043896 C5.61115396,2.30829476 5.6511842,2.37748602 5.66897544,2.4980127 C5.66897544,2.51140454 5.68676666,2.5069406 5.7223491,2.48462084 L5.73569252,2.46453306 Z M6.09596478,0.904382114 C6.09596478,0.895454212 6.09040502,0.884294334 6.0792855,0.87090248 C6.068166,0.857510628 6.04815086,0.841886798 6.01924012,0.824030994 C5.9903294,0.806175188 5.96920232,0.792783334 5.9558589,0.783855432 C5.88914182,0.716896164 5.83576814,0.68341653 5.7957379,0.68341653 C5.75570764,0.687880482 5.73013276,0.704620298 5.71901324,0.733635982 C5.70789374,0.762651664 5.70566982,0.791667346 5.71234154,0.82068303 C5.71901324,0.849698712 5.7179013,0.877598408 5.70900568,0.904382114 C5.70455788,0.92223792 5.69121446,0.945673664 5.66897544,0.974689346 C5.6467364,1.00370503 5.63339298,1.02379281 5.62894518,1.03495269 C5.62449738,1.04611257 5.63116908,1.06508436 5.6489603,1.09186807 C5.66675152,1.10525992 5.68454276,1.10525992 5.70233398,1.09186807 C5.7201252,1.07847621 5.74458812,1.05838843 5.77572276,1.03160472 C5.8068574,1.00482102 5.84021596,0.984733236 5.8757984,0.971341384 C5.8802462,0.966877432 5.90026132,0.964645456 5.93584378,0.964645456 C5.97142622,0.964645456 6.00478476,0.960181504 6.0359194,0.951253602 C6.06705404,0.9423257 6.08706916,0.92670187 6.09596478,0.904382114 Z M9.86548008,9.88361996 C9.9544362,9.93718738 10.0233772,9.99187078 10.072303,10.0476702 C10.1212289,10.1034696 10.1479157,10.157037 10.1523636,10.2083724 C10.1568114,10.2597079 10.1512516,10.3099273 10.1356843,10.3590308 C10.120117,10.4081342 10.0856465,10.4572377 10.0322728,10.5063412 C9.97889914,10.5554446 9.92663742,10.5989682 9.87548764,10.6369117 C9.82433788,10.6748553 9.7576208,10.7161469 9.6753364,10.7607864 C9.59305198,10.8054259 9.52299904,10.8422535 9.46517758,10.8712692 C9.4073561,10.9002849 9.33619122,10.9348805 9.2516829,10.975056 C9.1671746,11.0152316 9.10712922,11.0442473 9.07154678,11.0621031 C8.90253016,11.1469182 8.71238646,11.2719088 8.5011157,11.437075 C8.28984492,11.6022412 8.12194026,11.7450876 7.9974017,11.8656143 C7.921789,11.9370375 7.77056362,11.980561 7.54372552,11.9961849 C7.31688744,12.0118087 7.11896008,11.9794451 6.94994346,11.8990939 C6.86988296,11.8589184 6.80427784,11.806467 6.75312806,11.7417397 C6.7019783,11.6770124 6.6652839,11.620097 6.64304488,11.5709935 C6.62080584,11.5218901 6.57187998,11.4783665 6.49626728,11.440423 C6.4206546,11.4024794 6.31613116,11.3812756 6.18269698,11.3768116 C5.98699354,11.3723477 5.69788616,11.3701157 5.31537488,11.3701157 C5.23086658,11.3701157 5.10410412,11.3734637 4.9350875,11.3801596 C4.76607088,11.3868555 4.63708452,11.3924355 4.5481284,11.3968994 C4.35242496,11.4013634 4.17562468,11.434843 4.01772758,11.4973383 C3.85983048,11.5598336 3.74085168,11.6267929 3.66079118,11.6982161 C3.58073066,11.7696394 3.4839909,11.8332507 3.37057186,11.88905 C3.2571528,11.9448494 3.138174,11.9705172 3.01363544,11.9660532 C2.88464908,11.9615893 2.63779586,11.892398 2.2730758,11.7584795 C1.90835573,11.6245609 1.58366592,11.528586 1.29900636,11.4705546 C1.21449805,11.4526988 1.101079,11.4314951 0.958749224,11.4069433 C0.816419442,11.3823916 0.7052243,11.3623038 0.625163798,11.34668 C0.545103296,11.3310561 0.457259134,11.3098524 0.361631312,11.2830687 C0.26600349,11.256285 0.191502744,11.2239213 0.138129076,11.1859777 C0.0847554083,11.1480341 0.0469490599,11.1045106 0.0247100317,11.0554072 C-0.0197680251,10.9527363 -0.00420070527,10.8043099 0.0714119913,10.610128 C0.147024688,10.4159462 0.187054939,10.2943035 0.191502744,10.2452 C0.19595055,10.1737768 0.187054939,10.0844978 0.16481591,9.97736294 C0.142576882,9.87022812 0.120337854,9.77536916 0.0980988253,9.69278606 C0.0758597969,9.61020296 0.0658522341,9.52873584 0.0680761369,9.44838472 C0.0703000397,9.3680336 0.0936510195,9.30777026 0.138129076,9.2675947 C0.200398356,9.21402728 0.327160818,9.18277964 0.518416462,9.17385172 C0.709672106,9.16492382 0.843106276,9.13814012 0.918718972,9.0935006 C1.05215314,9.01314948 1.14555706,8.93503034 1.19893073,8.85914316 C1.2523044,8.783256 1.27899123,8.66942524 1.27899123,8.5176509 C1.37239515,8.84351934 1.30123026,9.08010876 1.06549656,9.22741914 C0.923166778,9.31669816 0.738582842,9.3501778 0.511744752,9.32785804 C0.36051936,9.3144662 0.264891538,9.33678594 0.224861286,9.39481732 C0.167039813,9.46177658 0.178159327,9.5889992 0.25821983,9.77648514 C0.26711544,9.80326884 0.284906664,9.8434444 0.311593498,9.89701182 C0.338280332,9.95057924 0.357183506,9.9907548 0.36830302,10.0175385 C0.379422534,10.0443222 0.389430096,10.0822658 0.398325708,10.1313693 C0.40722132,10.1804727 0.409445222,10.2295762 0.404997416,10.2786797 C0.404997416,10.3456389 0.367191068,10.4550057 0.291578372,10.6067801 C0.215965676,10.7585544 0.184831036,10.8656892 0.198174453,10.9281846 C0.21151787,11.0040717 0.293802274,11.0621031 0.445027668,11.1022786 C0.533983782,11.1290624 0.72190357,11.1703539 1.00878704,11.2261533 C1.2956705,11.2819527 1.51694884,11.3277082 1.67262203,11.3634198 C1.77936937,11.3902035 1.94393818,11.439307 2.16632846,11.5107302 C2.38871874,11.5821534 2.57219074,11.6334888 2.71674442,11.6647365 C2.8612981,11.6959842 2.9847247,11.7049121 3.08702424,11.6915202 C3.27827988,11.6647365 3.42172162,11.6022412 3.51734944,11.5040343 C3.61297726,11.4058273 3.66412702,11.2986925 3.67079874,11.1826298 C3.67747044,11.066567 3.66079118,10.9359965 3.62076092,10.7909181 C3.58073066,10.6458396 3.53847652,10.5297769 3.49399846,10.4427299 C3.4495204,10.3556828 3.40504234,10.2742157 3.36056428,10.1983285 C2.8223798,9.3501778 2.44654022,8.8100397 2.23304554,8.57791424 C1.93059476,8.24758186 1.67929374,8.15830282 1.47914249,8.31007716 C1.43021662,8.35025272 1.39685808,8.3167731 1.37906686,8.20963826 C1.36572344,8.13821504 1.36127564,8.05339998 1.36572344,7.95519304 C1.37017125,7.82573846 1.39241028,7.70967574 1.43244053,7.60700486 C1.47247078,7.50433398 1.52584445,7.39943112 1.59256153,7.2922963 C1.65927862,7.18516146 1.70820448,7.09141848 1.73933912,7.01106736 C1.77492156,6.9173244 1.83385499,6.75662214 1.91613939,6.52896064 C1.9984238,6.30129912 2.06402894,6.12720502 2.1129548,6.00667834 C2.16188066,5.88615166 2.22859774,5.75000116 2.31310606,5.59822682 C2.39761436,5.44645246 2.48434656,5.32592578 2.57330268,5.23664676 C3.0625613,4.59830174 3.33832526,4.1630665 3.40059454,3.93094104 C3.34722088,3.4309785 3.31163842,2.73906606 3.2938472,1.85520372 C3.2849516,1.45344811 3.33832526,1.11530381 3.4539682,0.84077081 C3.56961116,0.56623781 3.80534486,0.33299636 4.1611693,0.141046458 C4.33463372,0.047303483 4.56591962,0.000431995288 4.855027,0.000431995288 C5.0907607,-0.00403195591 5.3264944,0.0260997148 5.5622281,0.0908270072 C5.7979618,0.1555543 5.99588914,0.248181288 6.15601016,0.36870797 C6.40953508,0.55619392 6.61302218,0.827378956 6.76647148,1.18226308 C6.91992078,1.5371472 6.98552592,1.8663636 6.96328688,2.16991228 C6.94104786,2.59398764 7.00776494,3.07163042 7.16343814,3.60284062 C7.31466354,4.1072671 7.6104426,4.59383778 8.05077538,5.06255266 C8.29540468,5.32592578 8.51668302,5.6897378 8.71461036,6.15398874 C8.91253772,6.61823966 9.04485994,7.044547 9.11157702,7.43291076 C9.14715946,7.65164436 9.15827898,7.8402463 9.14493556,7.99871658 C9.13159214,8.15718684 9.10490532,8.28106148 9.06487506,8.37034052 C9.02484482,8.45961954 8.98036676,8.508723 8.9314409,8.5176509 C8.88696284,8.5265788 8.83470112,8.56898634 8.77465574,8.6448735 C8.71461036,8.72076068 8.654565,8.79999582 8.59451962,8.88257892 C8.53447424,8.965162 8.44440618,9.0399332 8.32431542,9.10689246 C8.20422466,9.17385172 8.0685666,9.20509938 7.9173412,9.20063544 C7.8372807,9.19617148 7.76722776,9.1850116 7.70718238,9.1671558 C7.647137,9.1493 7.5970992,9.11916832 7.55706894,9.07676078 C7.51703868,9.03435326 7.487016,8.99975764 7.46700088,8.97297392 C7.44698576,8.94619022 7.42141086,8.90043472 7.39027622,8.83570742 C7.35914158,8.77098014 7.33912646,8.7274566 7.33023086,8.70513686 C7.23237912,8.53997066 7.14119912,8.47301138 7.0566908,8.50425904 C6.9721825,8.5355067 6.90991322,8.6448735 6.86988296,8.83235946 C6.82985272,9.01984542 6.84542004,9.23634704 6.91658492,9.48186436 C7.00554104,9.79434094 7.00776494,10.2295762 6.92325664,10.7875701 C6.87877858,11.0777269 6.91880882,11.3020405 7.04334738,11.4605107 C7.16788594,11.618981 7.33023086,11.6926362 7.5303821,11.6814763 C7.73053336,11.6703164 7.9195651,11.5910813 8.09747734,11.4437709 C8.35989786,11.2250373 8.55893716,11.0766109 8.69459524,10.9984918 C8.83025332,10.9203726 9.06042726,10.8255137 9.38511708,10.7139149 C9.62085078,10.6335638 9.7920913,10.5520967 9.89883862,10.4695136 C10.005586,10.3869305 10.0467282,10.3099273 10.0222652,10.2385041 C9.9978023,10.1670809 9.94220474,10.1034696 9.85547252,10.0476702 C9.76874032,9.99187078 9.65420932,9.93941936 9.51187954,9.8903159 C9.36510194,9.84121244 9.25501876,9.7340776 9.18162996,9.5689114 C9.10824116,9.40374522 9.07488262,9.24192698 9.08155434,9.08345672 C9.08822604,8.92498644 9.12269654,8.8189676 9.18496582,8.7654002 C9.18941362,8.90378268 9.20720484,9.0298893 9.23833948,9.14372006 C9.26947412,9.25755082 9.30172072,9.34794582 9.33507926,9.4149051 C9.3684378,9.48186436 9.41402782,9.54547566 9.47184928,9.605739 C9.52967076,9.66600234 9.57637272,9.70840988 9.61195516,9.73296162 C9.6475376,9.75751334 9.69535152,9.78652904 9.7553969,9.82000866 C9.81544228,9.8534883 9.85213666,9.87469206 9.86548008,9.88361996 Z" id="Shape"></path>
            </g>
            <path d="M28.3615274,7.72588128 L28.3615274,12.1217123 C28.3615274,12.7063047 27.9022048,13.1732194 27.3176124,13.1732194 C26.7368161,13.1732194 26.175,12.7025086 26.175,12.1217123 L26.175,7.72588128 C26.175,7.15267704 26.7368161,6.68196628 27.3176124,6.68196628 C27.8908166,6.68196628 28.3615274,7.15267704 28.3615274,7.72588128 Z M28.7715013,13.6856868 C28.7715013,14.3082397 29.2725804,14.8093189 29.8951334,14.8093189 L30.6505482,14.8093189 L30.6619363,17.1287081 C30.6619363,18.5294522 32.7573584,18.5180641 32.7573584,17.1287081 L32.7573584,14.8093189 L34.1694907,14.8093189 L34.1694907,17.1287081 C34.1694907,18.5218601 36.2763009,18.5256562 36.2763009,17.1287081 L36.2763009,14.8093189 L37.0431039,14.8093189 C37.6580647,14.8093189 38.1591439,14.3082397 38.1591439,13.6856868 L38.1591439,6.87556508 L28.7715013,6.87556508 L28.7715013,13.6856868 Z M38.1857163,6.50734779 L28.7297446,6.50734779 C28.7297446,4.88263649 29.7015346,3.47050423 31.1440353,2.73406967 L30.4189889,1.39406245 C30.3126994,1.20805578 30.5822192,1.09037809 30.6733245,1.24981238 L31.4097591,2.60120776 C32.7345821,2.01281932 34.2567999,2.04318776 35.5208861,2.60120776 L36.2535246,1.25360843 C36.3484259,1.09037809 36.6141497,1.21185183 36.5078602,1.3978585 L35.7828138,2.73406967 C37.2139263,3.47050423 38.1857163,4.88263649 38.1857163,6.50734779 L38.1857163,6.50734779 Z M31.7058513,4.40053756 C31.7058513,4.18416248 31.5312328,4.00195184 31.3072656,4.00195184 C31.0908905,4.00195184 30.9200681,4.18416248 30.9200681,4.40053756 C30.9200681,4.61691266 31.0946866,4.79912327 31.3072656,4.79912327 C31.5312328,4.79912327 31.7058513,4.61691266 31.7058513,4.40053756 Z M36.0105771,4.40053756 C36.0105771,4.18416248 35.8359586,4.00195184 35.6233795,4.00195184 C35.3994123,4.00195184 35.2247938,4.18416248 35.2247938,4.40053756 C35.2247938,4.61691266 35.3994123,4.79912327 35.6233795,4.79912327 C35.8359586,4.79912327 36.0105771,4.61691266 36.0105771,4.40053756 Z M39.6092367,6.68196628 C39.0360325,6.68196628 38.5653217,7.14128888 38.5653217,7.72588128 L38.5653217,12.1217123 C38.5653217,12.7063047 39.0360325,13.1732194 39.6092367,13.1732194 C40.1938291,13.1732194 40.7518491,12.7025086 40.7518491,12.1217123 L40.7518491,7.72588128 C40.7518491,7.14128888 40.190033,6.68196628 39.6092367,6.68196628 Z" id="Shape" fill="#A4C639" fill-rule="nonzero"></path>
        </g>
    </g>
</svg>