<?xml version="1.0" encoding="UTF-8"?>
<svg width="65px" height="66px" viewBox="0 0 65 66" version="1.1" xmlns="http://www.w3.org/2000/svg" xmlns:xlink="http://www.w3.org/1999/xlink">
    <!-- Generator: Sketch 59.1 (86144) - https://sketch.com -->
    <title>play button</title>
    <desc>Created with Sketch.</desc>
    <g id="Page-1" stroke="none" stroke-width="1" fill="none" fill-rule="evenodd">
        <g id="Test-case-11-Copy" transform="translate(-868.000000, -505.000000)">
            <g id="Group-6" transform="translate(673.000000, 480.000226)">
                <g id="play-button" transform="translate(196.000000, 25.999774)">
                    <path d="M63.2505155,31.9789618 C63.2505155,49.4035387 49.1250267,63.5288195 31.7004497,63.5288195 C14.2758728,63.5288195 0.150592008,49.4035387 0.150592008,31.9789618 C0.150592008,14.5543848 14.2758728,0.429104024 31.7004497,0.429104024 C49.1250267,0.429104024 63.2505155,14.5543848 63.2505155,31.9789618" id="Fill-7" stroke="#FFFFFF" fill="#DD424B"></path>
                    <path d="M27.3784175,38.4209301 C27.3784175,34.0887059 27.3784175,29.8032816 27.3784175,25.4446414 C31.0560657,27.6047215 34.6985619,29.7440016 38.4225941,31.9313298 C34.7118739,34.1117939 31.0681297,36.252738 27.3784175,38.4209301 Z M52.9952829,27.2831535 C52.9780189,26.7781295 52.9518109,26.2733134 52.9133309,25.7691214 C52.7494269,23.6312973 52.5110589,21.1827212 51.0985308,19.4727531 C49.8896347,18.009265 48.0174266,17.678545 46.2398585,17.477201 C43.9888824,17.2226089 41.7275063,17.0688969 39.4642582,16.9823689 C34.8801459,16.8072329 30.2918737,16.9087369 25.7073454,17.0106569 C23.3519533,17.0630729 20.9953132,17.1154889 18.646785,17.302481 C15.7630729,17.532113 12.7969927,17.954769 11.4537286,20.8364011 C10.2479526,23.4230893 10.3977126,26.7072015 10.3823206,29.4900336 C10.3688006,31.9854098 10.3604806,34.4818259 10.4603206,36.975122 C10.5903206,40.2111862 10.7823046,44.4267224 14.2754568,45.8459065 C16.1403849,46.6036506 18.391985,46.7727546 20.3835851,46.9021306 C22.4947852,47.0394106 24.6113934,47.0229786 26.7255055,47.0545946 C31.1596497,47.1201146 35.592754,46.9682746 40.0254422,46.8802906 C43.1042584,46.8191386 46.2646105,46.7844026 49.2107227,45.7791385 C51.7539388,44.9113625 52.4174589,42.1551543 52.7612829,39.7646102 C53.1032349,37.3890421 53.0160829,34.9787379 53.0121309,32.5867378 C53.0094269,30.8197777 53.0562269,29.0496976 52.9952829,27.2831535 L52.9952829,27.2831535 Z" id="Fill-8" fill="#FFFFFE"></path>
                </g>
            </g>
        </g>
    </g>
</svg>