<?xml version="1.0" encoding="UTF-8"?>
<svg width="27px" height="27px" viewBox="0 0 27 27" version="1.1" xmlns="http://www.w3.org/2000/svg" xmlns:xlink="http://www.w3.org/1999/xlink">
    <!-- Generator: Sketch 58 (84663) - https://sketch.com -->
    <title>iconfinder_Apple_Safari_2697652</title>
    <desc>Created with Sketch.</desc>
    <defs>
        <linearGradient x1="50.0010256%" y1="0.00102564103%" x2="50.0010256%" y2="100.001026%" id="linearGradient-1">
            <stop stop-color="#23D9FD" offset="0%"></stop>
            <stop stop-color="#1F63F0" offset="100%"></stop>
        </linearGradient>
    </defs>
    <g id="Page-1" stroke="none" stroke-width="1" fill="none" fill-rule="evenodd">
        <g id="Test-case-11-Copy-8" transform="translate(-1025.000000, -476.000000)" fill-rule="nonzero">
            <g id="iconfinder_Apple_Safari_2697652" transform="translate(1025.000000, 476.000000)">
                <path d="M17.58,0 C20.28,0 21.63,0 23.1,0.45 C24.69,1.02 25.95,2.28 26.52,3.87 C27,5.34 27,6.72 27,9.42 L27,17.58 C27,20.28 27,21.63 26.55,23.1 C25.98,24.69 24.72,25.95 23.13,26.52 C21.63,27 20.28,27 17.58,27 L9.42,27 C6.72,27 5.37,27 3.9,26.55 C2.28,25.95 1.05,24.72 0.45,23.1 C0,21.66 0,20.31 0,17.58 L0,9.42 C0,6.72 0,5.37 0.45,3.9 C1.05,2.31 2.28,1.05 3.9,0.48 C5.34,0 6.69,0 9.42,0 L17.58,0 Z" id="Background_10_" fill="#FFFFFF"></path>
                <circle id="Oval_4_" fill="url(#linearGradient-1)" cx="13.5" cy="13.5" r="11.4230769"></circle>
                <path d="M12.8596154,2.07692308 L13.1019231,2.07692308 L13.1019231,4.10625 L12.8899038,4.10625 L12.8596154,2.07692308 L12.8596154,2.07692308 Z M14.7677885,2.22836538 L14.9798077,2.25865385 L14.6163462,4.25769231 L14.4043269,4.22740385 L14.7677885,2.22836538 L14.7677885,2.22836538 Z M16.6153846,2.71298077 L16.8274038,2.80384615 L16.1307692,4.71201923 L15.91875,4.62115385 L16.6153846,2.71298077 L16.6153846,2.71298077 Z M18.3418269,3.50048077 L18.5235577,3.62163462 L17.49375,5.37836538 L17.3120192,5.25721154 L18.3418269,3.50048077 L18.3418269,3.50048077 Z M19.9168269,4.56057692 L20.0985577,4.71201923 L18.7961538,6.28701923 L18.6144231,6.13557692 L19.9168269,4.56057692 L19.9168269,4.56057692 Z M21.2495192,5.89326923 L21.4009615,6.075 L19.8259615,7.37740385 L19.6745192,7.19567308 L21.2495192,5.89326923 L21.2495192,5.89326923 Z M22.3701923,7.43798077 L22.4913462,7.61971154 L20.7346154,8.64951923 L20.6134615,8.46778846 L22.3701923,7.43798077 L22.3701923,7.43798077 Z M23.1879808,9.16442308 L23.2788462,9.37644231 L21.3706731,10.0730769 L21.2798077,9.86105769 L23.1879808,9.16442308 L23.1879808,9.16442308 Z M23.7028846,10.9817308 L23.7331731,11.19375 L21.7341346,11.5572115 L21.7038462,11.3451923 L23.7028846,10.9817308 L23.7028846,10.9817308 Z M23.8846154,12.8596154 L23.8846154,13.0716346 L21.8552885,13.0716346 L21.8552885,12.8596154 L23.8846154,12.8596154 L23.8846154,12.8596154 Z M23.7331731,14.7677885 L23.7028846,14.9798077 L21.7038462,14.6163462 L21.7341346,14.4043269 L23.7331731,14.7677885 L23.7331731,14.7677885 Z M23.2788462,16.6153846 L23.1879808,16.8274038 L21.2798077,16.1307692 L21.3706731,15.91875 L23.2788462,16.6153846 L23.2788462,16.6153846 Z M22.4913462,18.3418269 L22.3701923,18.5235577 L20.5831731,17.5240385 L20.7043269,17.3423077 L22.4913462,18.3418269 L22.4913462,18.3418269 Z M21.4009615,19.9168269 L21.2495192,20.0985577 L19.6745192,18.7961538 L19.8259615,18.6144231 L21.4009615,19.9168269 L21.4009615,19.9168269 Z M20.0682692,21.2495192 L19.8865385,21.4009615 L18.5841346,19.8259615 L18.7658654,19.6745192 L20.0682692,21.2495192 L20.0682692,21.2495192 Z M18.5235577,22.3701923 L18.3418269,22.4913462 L17.3120192,20.7346154 L17.49375,20.6134615 L18.5235577,22.3701923 L18.5235577,22.3701923 Z M16.8274038,23.1879808 L16.6153846,23.2788462 L15.91875,21.3706731 L16.1307692,21.2798077 L16.8274038,23.1879808 L16.8274038,23.1879808 Z M14.9798077,23.7028846 L14.7677885,23.7331731 L14.4043269,21.7341346 L14.6163462,21.7038462 L14.9798077,23.7028846 L14.9798077,23.7028846 Z M13.1019231,23.8846154 L12.8899038,23.8846154 L12.8899038,21.8552885 L13.1019231,21.8552885 L13.1019231,23.8846154 L13.1019231,23.8846154 Z M11.19375,23.7331731 L10.9817308,23.7028846 L11.3451923,21.7038462 L11.5572115,21.7341346 L11.19375,23.7331731 L11.19375,23.7331731 Z M9.37644231,23.2788462 L9.16442308,23.1879808 L9.86105769,21.2798077 L10.0730769,21.3706731 L9.37644231,23.2788462 L9.37644231,23.2788462 Z M7.61971154,22.4913462 L7.43798077,22.3701923 L8.46778846,20.6134615 L8.64951923,20.7346154 L7.61971154,22.4913462 L7.61971154,22.4913462 Z M6.075,21.4009615 L5.89326923,21.2495192 L7.19567308,19.6745192 L7.37740385,19.8259615 L6.075,21.4009615 L6.075,21.4009615 Z M4.71201923,20.0682692 L4.56057692,19.8865385 L6.13557692,18.5841346 L6.28701923,18.7658654 L4.71201923,20.0682692 L4.71201923,20.0682692 Z M3.59134615,18.5235577 L3.47019231,18.3418269 L5.22692308,17.3120192 L5.34807692,17.49375 L3.59134615,18.5235577 L3.59134615,18.5235577 Z M2.77355769,16.8274038 L2.71298077,16.6153846 L4.62115385,15.91875 L4.71201923,16.1307692 L2.77355769,16.8274038 L2.77355769,16.8274038 Z M2.25865385,14.9798077 L2.22836538,14.7677885 L4.22740385,14.4043269 L4.25769231,14.6163462 L2.25865385,14.9798077 L2.25865385,14.9798077 Z M2.07692308,13.1019231 L2.07692308,12.8899038 L4.10625,12.8899038 L4.10625,13.1019231 L2.07692308,13.1019231 L2.07692308,13.1019231 Z M2.22836538,11.19375 L2.25865385,10.9817308 L4.25769231,11.3451923 L4.22740385,11.5572115 L2.22836538,11.19375 L2.22836538,11.19375 Z M2.71298077,9.37644231 L2.80384615,9.16442308 L4.71201923,9.86105769 L4.62115385,10.0730769 L2.71298077,9.37644231 L2.71298077,9.37644231 Z M3.50048077,7.61971154 L3.62163462,7.43798077 L5.37836538,8.46778846 L5.25721154,8.64951923 L3.50048077,7.61971154 L3.50048077,7.61971154 Z M4.56057692,6.075 L4.71201923,5.89326923 L6.28701923,7.19567308 L6.13557692,7.37740385 L4.56057692,6.075 L4.56057692,6.075 Z M5.89326923,4.71201923 L6.075,4.56057692 L7.37740385,6.13557692 L7.19567308,6.28701923 L5.89326923,4.71201923 L5.89326923,4.71201923 Z M7.43798077,3.59134615 L7.61971154,3.47019231 L8.64951923,5.22692308 L8.46778846,5.34807692 L7.43798077,3.59134615 L7.43798077,3.59134615 Z M9.13413462,2.77355769 L9.34615385,2.68269231 L10.0427885,4.59086538 L9.83076923,4.68173077 L9.13413462,2.77355769 L9.13413462,2.77355769 Z M10.9817308,2.25865385 L11.19375,2.22836538 L11.5572115,4.22740385 L11.3451923,4.25769231 L10.9817308,2.25865385 L10.9817308,2.25865385 Z" id="Scale" fill="#FFFFFF"></path>
                <path d="M13.8312085,2.07692308 L14.0438183,2.10729591 L13.9526998,3.23109064 L13.7097172,3.23109064 L13.8312085,2.07692308 Z M15.714324,2.41102421 L15.9269338,2.47176987 L15.6232055,3.56519177 L15.4105957,3.50444611 L15.714324,2.41102421 Z M17.506321,3.01848082 L17.7189308,3.10959931 L17.2329655,4.17264838 L17.0203557,4.08152989 L17.506321,3.01848082 Z M19.1464538,3.96003857 L19.3286908,4.08152989 L18.6604885,5.02308764 L18.4782516,4.90159631 L19.1464538,3.96003857 Z M20.6347225,5.17495179 L20.7865867,5.32681594 L19.9665202,6.14688237 L19.8146561,5.99501821 L20.6347225,5.17495179 Z M21.8800086,6.63284765 L22.0014999,6.81508464 L21.0599421,7.48328691 L20.9384508,7.30104993 L21.8800086,6.63284765 Z M22.8519391,8.2729805 L22.9430576,8.48559031 L21.9103814,8.94118277 L21.8192629,8.72857296 L22.8519391,8.2729805 Z M23.5201414,10.0346047 L23.5808871,10.2472145 L22.4874652,10.5509428 L22.4267195,10.338333 L23.5201414,10.0346047 Z M23.8542426,11.9177202 L23.8846154,12.13033 L22.7608207,12.2214485 L22.7304478,12.0088387 L23.8542426,11.9177202 Z M23.8846154,13.8312085 L23.8542426,14.0438183 L22.7304478,13.9526998 L22.7608207,13.74009 L23.8846154,13.8312085 Z M23.5808871,15.714324 L23.5201414,15.9269338 L22.4267195,15.6232055 L22.4874652,15.4105957 L23.5808871,15.714324 Z M22.9430576,17.506321 L22.8519391,17.7189308 L21.8192629,17.2329655 L21.9103814,17.0203557 L22.9430576,17.506321 Z M22.0014999,19.1464538 L21.8800086,19.3590636 L20.9384508,18.6908614 L21.0599421,18.5086244 L22.0014999,19.1464538 Z M20.7865867,20.6347225 L20.6347225,20.7865867 L19.8146561,19.9665202 L19.9665202,19.8146561 L20.7865867,20.6347225 Z M19.3590636,21.8800086 L19.1768267,22.0014999 L18.5086244,21.0599421 L18.6908614,20.9384508 L19.3590636,21.8800086 Z M17.7189308,22.8519391 L17.506321,22.9430576 L17.0203557,21.9103814 L17.2329655,21.8192629 L17.7189308,22.8519391 Z M15.9269338,23.5201414 L15.714324,23.5808871 L15.4105957,22.4874652 L15.6232055,22.4267195 L15.9269338,23.5201414 Z M14.0438183,23.8542426 L13.8312085,23.8846154 L13.7097172,22.7608207 L13.922327,22.7304478 L14.0438183,23.8542426 Z M12.13033,23.8846154 L11.9177202,23.8542426 L12.0088387,22.7304478 L12.2214485,22.7608207 L12.13033,23.8846154 Z M10.2775873,23.5808871 L10.0649775,23.5201414 L10.3687058,22.4267195 L10.5813156,22.4874652 L10.2775873,23.5808871 Z M8.45521748,22.9430576 L8.24260767,22.8519391 L8.72857296,21.8192629 L8.94118277,21.9103814 L8.45521748,22.9430576 Z M6.81508464,22.0014999 L6.63284765,21.8800086 L7.30104993,20.9384508 L7.48328691,21.0599421 L6.81508464,22.0014999 Z M5.32681594,20.7865867 L5.17495179,20.6347225 L5.99501821,19.8146561 L6.14688237,19.9665202 L5.32681594,20.7865867 Z M4.08152989,19.3590636 L3.96003857,19.1768267 L4.90159631,18.5086244 L5.02308764,18.6908614 L4.08152989,19.3590636 Z M3.13997214,17.7189308 L3.04885365,17.506321 L4.08152989,17.0203557 L4.17264838,17.2329655 L3.13997214,17.7189308 Z M2.44139704,15.9269338 L2.41102421,15.714324 L3.50444611,15.4105957 L3.56519177,15.6232055 L2.44139704,15.9269338 Z M2.10729591,14.0438183 L2.07692308,13.8312085 L3.20071781,13.74009 L3.23109064,13.9526998 L2.10729591,14.0438183 Z M2.07692308,12.1607028 L2.10729591,11.948093 L3.23109064,12.0392115 L3.20071781,12.2518213 L2.07692308,12.1607028 Z M2.41102421,10.2775873 L2.47176987,10.0649775 L3.56519177,10.3687058 L3.50444611,10.5509428 L2.41102421,10.2775873 Z M3.01848082,8.45521748 L3.10959931,8.24260767 L4.14227555,8.72857296 L4.05115706,8.94118277 L3.01848082,8.45521748 Z M3.96003857,6.81508464 L4.08152989,6.63284765 L5.02308764,7.30104993 L4.90159631,7.45291408 L3.96003857,6.81508464 Z M5.17495179,5.32681594 L5.32681594,5.17495179 L6.14688237,5.99501821 L5.99501821,6.14688237 L5.17495179,5.32681594 Z M6.63284765,4.11190272 L6.81508464,3.9904114 L7.48328691,4.93196915 L7.30104993,5.05346047 L6.63284765,4.11190272 Z M8.2729805,3.13997214 L8.48559031,3.04885365 L8.9715556,4.08152989 L8.72857296,4.17264838 L8.2729805,3.13997214 Z M10.0346047,2.47176987 L10.2472145,2.41102421 L10.5509428,3.50444611 L10.338333,3.56519177 L10.0346047,2.47176987 Z M11.9177202,2.10729591 L12.13033,2.07692308 L12.2214485,3.20071781 L12.0088387,3.23109064 L11.9177202,2.10729591 Z" id="Scale_1_" fill="#FFFFFF"></path>
                <g id="Compass" transform="translate(13.177755, 14.245406) rotate(45.000000) translate(-13.177755, -14.245406) translate(10.062370, 1.783867)">
                    <g id="Arrow_4_" transform="translate(1.080884, 11.706595)" fill="#FFFFFF">
                        <polyline id="path-2_1_" points="3.3 0 0.15 0 1.65 11.67 3.3 0 0.15 0"></polyline>
                    </g>
                    <polygon id="path-2_3_" fill="#FF1414" points="1.23088351 11.7065955 2.70088351 0.00659548799 4.38088351 11.7065955"></polygon>
                    <g id="Group" transform="translate(0.780884, 0.006595)" fill="#FF1414">
                        <polygon id="Arrow_3_" transform="translate(2.056788, 5.859430) rotate(89.999709) translate(-2.056788, -5.859430) " points="-3.79321163 4.05942989 7.90678837 4.05942989 7.90678837 7.65942989 -3.79321163 7.65942989"></polygon>
                    </g>
                </g>
            </g>
        </g>
    </g>
</svg>