<?xml version="1.0" encoding="UTF-8"?>
<svg width="287px" height="109px" viewBox="0 0 287 109" version="1.1" xmlns="http://www.w3.org/2000/svg" xmlns:xlink="http://www.w3.org/1999/xlink">
    <!-- Generator: Sketch 59 (86127) - https://sketch.com -->
    <title>Group 4</title>
    <desc>Created with Sketch.</desc>
    <defs>
        <linearGradient x1="0%" y1="33.5625392%" x2="100%" y2="33.5625392%" id="linearGradient-1">
            <stop stop-color="#2FCCA2" offset="0%"></stop>
            <stop stop-color="#00A9A6" offset="51.9003378%"></stop>
            <stop stop-color="#008ECB" offset="100%"></stop>
        </linearGradient>
        <rect id="path-2" x="0" y="0" width="287" height="109" rx="12"></rect>
    </defs>
    <g id="Page-1" stroke="none" stroke-width="1" fill="none" fill-rule="evenodd">
        <g id="List-view-with-empty-data-&amp;-Resize-help-widgets" transform="translate(-415.000000, -357.000000)">
            <g id="Group-4" transform="translate(415.000000, 357.000000)">
                <mask id="mask-3" fill="white">
                    <use xlink:href="#path-2"></use>
                </mask>
                <use id="Rectangle" fill="url(#linearGradient-1)" xlink:href="#path-2"></use>
                <path d="M222.999945,48.666784 C209.14063,62.057397 213.462524,64.386235 201.655207,76.9449732 C190.687255,88.6107571 167.54423,82.2640359 148.0829,87.6238184 C134.59878,91.3377433 121.055157,106.456887 124.560825,117 L284.390446,117 L287,117 L287,48.8878632 C280.04376,36.1547295 239.44953,32.7729375 222.999945,48.666784" id="Fill-1" fill="#BEF7F6" opacity="0.200000003" mask="url(#mask-3)"></path>
                <g id="person" mask="url(#mask-3)">
                    <g transform="translate(185.000000, 4.000226)">
                        <path d="M0.272580006,72.9474916 C1.00584002,72.6627016 1.76187004,72.5142016 2.54925006,72.5033116 C2.52186005,72.4670116 2.49414005,72.4307116 2.46609005,72.3940816 C2.20902005,73.1577016 1.97439004,73.9252816 1.74372004,74.6971516 C1.70907004,74.8116616 1.88595004,74.8595116 1.92258004,74.7463216 C2.16975005,73.9800616 2.41164005,73.2144616 2.63241006,72.4402816 C2.64726006,72.3888016 2.60535006,72.3274216 2.54925006,72.3310516 C1.74768004,72.3795616 0.983070021,72.5653516 0.248490005,72.8910616 C0.216810005,72.9052516 0.239580005,72.9603616 0.272580006,72.9474916" id="Fill-81" stroke="none" fill="#ABD5E2" fill-rule="evenodd"></path>
                        <path d="M20.3128204,60.1995913 C21.6678005,60.2312713 23.0762405,60.3744913 24.4266005,60.2616313 C24.6252605,60.2451313 24.6255905,59.9689213 24.4266005,59.9520913 C23.0762405,59.8392313 21.6681305,59.9827813 20.3128204,60.0141313 C20.1933604,60.0167713 20.1933604,60.1969513 20.3128204,60.1995913" id="Fill-149" stroke="none" fill="#ABD5E2" fill-rule="evenodd"></path>
                        <path d="M21.8958305,61.7010913 C21.7955105,61.9093213 21.8196005,62.1399913 21.8123405,62.3676914 C21.8031005,62.6716214 21.7932005,62.9755514 21.7836305,63.2794814 C21.7786805,63.4283114 21.9836105,63.4392014 22.0301405,63.3128114 C22.1443205,63.0012914 22.2971105,62.7079214 22.4937905,62.4406214 C22.6934405,62.1706813 22.9515005,61.9756513 23.1775505,61.7331013 C23.2947005,61.6070413 23.1452105,61.3981513 22.9897805,61.4902213 C22.3918205,61.8443113 21.9902105,62.6049614 21.7882505,63.2458214 C21.8704205,63.2573714 21.9525905,63.2682614 22.0347605,63.2794814 C22.0301405,62.9755514 22.0258505,62.6716214 22.0215605,62.3676914 C22.0182605,62.1399913 22.0459805,61.9113013 21.9492905,61.7010913 C21.9400505,61.6806313 21.9054005,61.6809613 21.8958305,61.7010913" id="Fill-150" stroke="none" fill="#ABD5E2" fill-rule="evenodd"></path>
                        <path d="M22.4211905,62.7528014 C22.7155505,62.8465214 22.9977005,62.9673014 23.2633505,63.1253714 C23.4831305,63.2563814 23.6692505,63.4500914 23.9038805,63.5481014 C23.9781305,63.5791214 24.0527105,63.4751714 24.0088205,63.4118114 C23.8517405,63.1867514 23.5590305,63.0531014 23.3168105,62.9359514 C23.0406005,62.8029614 22.7521805,62.7046214 22.4538605,62.6336714 C22.3763105,62.6151914 22.3449605,62.7290414 22.4211905,62.7528014" id="Fill-151" stroke="none" fill="#ABD5E2" fill-rule="evenodd"></path>
                        <path d="M50.9341811,50.2194011 C62.5521614,51.6799811 73.6477516,57.8199613 81.2242218,66.7058714 C84.3773718,70.4038515 85.5597619,73.3771516 87.4724419,78.6673817 C88.2588319,80.8430718 89.2023019,87.6549319 88.7452519,89.9220319 C88.4258119,91.506032 87.6262219,97.7631621 86.5669219,98.9858121 C84.7842618,101.043032 79.4326517,103.593932 72.3072916,105.377252 C65.5812314,107.060912 55.7158812,106.842782 49.2954011,104.228852 C45.898711,102.845822 42.3426309,102.202652 41.9505909,99.8692222 C37.8747608,100.378742 35.3733608,100.691252 31.2658507,100.760552 C29.4320406,100.791902 27.5979006,100.734812 25.7650806,100.677722 C20.1405604,100.503482 14.5157103,100.328912 8.89119019,100.154012 L9.1188902,100.326272 C6.84651015,100.571132 4.4781001,99.5982922 3.04095007,97.8294921 C1.39095003,95.7986721 1.04379002,93.006212 1.18965003,90.398552 C1.36686003,87.2199919 2.18394005,84.0777318 3.57720008,81.2123418 C4.31178009,79.7016017 5.47998012,76.3794917 6.41850014,74.9852416 C12.3591603,66.1567514 16.1442603,62.8128614 25.4133006,56.4887412 C28.7116506,54.2384712 36.2844908,51.3542711 40.1656209,50.3989211 C44.046421,49.4432411 48.194521,49.3191611 52.0099811,50.5078211" id="Fill-186" stroke="none" fill="#F4BB7B" fill-rule="evenodd"></path>
                        <path d="M45.646261,92.217512 C50.7804011,93.501212 56.3240712,92.339942 61.0262413,90.004202 C63.0128414,89.0178319 64.4697914,87.4506619 65.6488814,85.5980419 C66.7840814,83.8143918 68.0951715,81.6403518 67.5873015,79.4527817 C67.5397815,79.2481817 67.2206715,79.2937217 67.2226515,79.5022817 C67.2708315,83.9163618 63.7886714,88.4277919 59.8263613,90.077462 C55.2697212,91.975292 50.5876811,93.052082 45.655171,92.185832 C45.6342851,92.182202 45.625141,92.212562 45.646261,92.217512" id="Fill-187" stroke="none" fill="#20282E" fill-rule="evenodd"></path>
                        <path d="M25.3456505,65.7627314 C25.0258805,67.5513315 24.4899605,69.4452015 24.4860002,71.2661415 C24.4856705,71.4268515 24.7107305,71.4499515 24.7592405,71.3031015 C25.3258505,69.5874315 25.4139606,67.6381215 25.6740006,65.8534814 C25.7046906,65.6412914 25.3845906,65.5446014 25.3456505,65.7627314" id="Fill-188" stroke="none" fill="#20282E" fill-rule="evenodd"></path>
                        <path d="M54.4117212,69.0980415 C54.4628712,69.3953715 54.4938912,69.6927015 54.4981812,69.9946515 C54.5018112,70.2398415 54.4645212,70.4843715 54.5064312,70.7262615 C54.5341512,70.8859815 54.7625112,70.8605715 54.8050812,70.7262615 C54.9638112,70.2220215 54.7991412,69.5263815 54.6803412,69.0237915 C54.6384312,68.8469115 54.3816912,68.9244615 54.4117212,69.0980415" id="Fill-189" stroke="none" fill="#20282E" fill-rule="evenodd"></path>
                        <path d="M57.8202913,66.8580014 C57.7981813,67.3457415 57.6750913,67.9509615 57.8127013,68.4235215 C57.8727613,68.6291115 58.1704213,68.6294415 58.2301513,68.4235215 C58.3680913,67.9503015 58.2450013,67.3454115 58.2225613,66.8580014 C58.2106813,66.5996114 57.8325013,66.5992814 57.8202913,66.8580014" id="Fill-190" stroke="none" fill="#20282E" fill-rule="evenodd"></path>
                        <path d="M57.3876612,74.5126816 C57.3843612,74.6496316 57.3810612,74.7869116 57.3774312,74.9238616 C57.3747912,75.0571816 57.3582912,75.1670716 57.4239612,75.2868616 C57.4797312,75.3871816 57.6358212,75.3871816 57.6912613,75.2868616 C57.7575913,75.1667416 57.7407613,75.0585016 57.7374613,74.9238616 C57.7344913,74.7869116 57.7311913,74.6496316 57.7278913,74.5126816 C57.7226113,74.2938916 57.3926112,74.2935616 57.3876612,74.5126816" id="Fill-191" stroke="none" fill="#20282E" fill-rule="evenodd"></path>
                        <path d="M20.1346204,101.043032 L14.8344903,75.3089716 C14.8368003,75.3089716 34.6450508,61.3757113 34.0962607,72.1498816 L40.0349409,98.0647821 L20.1346204,101.043032" id="Fill-192" stroke="none" fill="#F9F8F6" fill-rule="evenodd"></path>
                        <path d="M20.2910404,101.043032 L14.8344903,75.6257716 C14.8368003,75.6254416 36.9732008,63.8226614 36.9029108,73.1161216 L40.7774409,98.1756621 L20.2910404,101.043032" id="Fill-193" stroke="none" fill="#DEDEDA" fill-rule="evenodd"></path>
                        <path d="M20.4230404,101.043032 L14.8344903,75.9825016 C15.2766903,74.7898816 37.6721408,66.1914014 37.4371808,74.0051416 L41.4054309,98.2667421 L20.4230404,101.043032" id="Fill-194" stroke="none" fill="#F9F8F6" fill-rule="evenodd"></path>
                        <path d="M15.3908703,99.4554022 L14.6599203,76.1112016 C16.5293704,74.9486116 3.10860007,65.2819214 4.7087701,72.9187816 C6.21159013,80.0896817 15.3908703,99.4554022 15.3908703,99.4554022" id="Fill-195" stroke="none" fill="#F9F8F6" fill-rule="evenodd"></path>
                        <path d="M23.7959705,104.566112 L42.9435609,101.006072 C43.6764909,100.869782 44.152021,99.9992422 43.967221,99.1323321 L38.3298308,72.7118716 C38.1687908,71.9584816 37.5615908,71.4747015 36.9243608,71.5931716 C30.5164207,72.9154816 24.0150905,73.8447616 17.4566704,74.2813516 L23.7959705,104.566112" id="Fill-196" stroke="none" fill="#68BAD8" fill-rule="evenodd"></path>
                        <path d="M19.1532004,104.434772 L7.68933017,99.0933921 C7.38210016,98.9505021 7.15374016,98.6330421 7.07916015,98.2456221 L2.09220005,72.2990416 C1.91202004,71.3615115 2.67399006,70.5622515 3.41781007,70.9090815 C6.74058015,72.6221116 9.91485021,73.9124116 12.8106003,74.4054316 L19.1532004,104.434772" id="Fill-197" stroke="none" fill="#68BAD8" fill-rule="evenodd"></path>
                        <path d="M22.0634705,105.775892 L19.5742804,105.563702 C19.0713604,105.521132 18.6473104,105.095762 18.5205904,104.507042 L12.2093403,75.2027116 C12.0073803,74.2648516 12.3189003,74.0216416 12.8106003,74.0701516 C13.0769103,75.1056916 16.8217504,75.6257716 17.4566704,74.1246016 C17.7361804,74.3348116 17.8048204,74.1948916 17.9315404,74.7836116 L24.2427905,104.087612 C24.4450805,105.025472 22.8643805,105.844202 22.0634705,105.775892" id="Fill-198" stroke="none" fill="#0097CB" fill-rule="evenodd"></path>
                        <path d="M46.158091,93.119732 C46.013551,93.035912 45.856801,92.947142 45.694111,92.856722 C45.658471,92.081882 45.444301,91.288232 45.236071,90.738122 C44.767801,89.5009519 43.7698809,88.0291519 42.3208509,87.9529219 C41.9723709,87.9344419 41.7918609,88.2822619 41.8433409,88.5792619 C41.9710509,89.3178019 42.4380009,90.003542 42.7145409,90.703142 C42.8283909,90.991562 42.9112209,91.273052 42.9818409,91.554872 C42.6904509,91.439702 42.3954309,91.330142 42.0977709,91.233782 C41.7994509,90.979682 41.5024509,90.742742 41.2272309,90.522632 C40.4533809,89.9048719 39.6231009,89.3432119 38.8155908,88.7693419 C38.0133608,88.1994319 37.2170708,87.3797119 36.2729408,87.0794119 C36.0429308,87.0061519 35.8017008,87.2038219 35.8033508,87.4374619 C35.8116008,88.6046719 36.7243808,89.7227119 37.6454108,90.659582 C36.3854708,89.7187519 35.1129908,88.8125719 33.7372207,88.0446619 C33.1115407,87.6955219 32.3637607,88.4030419 32.7426007,89.0396119 C33.5167807,90.339812 34.4374807,91.534742 35.4406808,92.667302 C34.4935807,91.887512 33.5200807,91.095512 32.4261307,90.753962 C31.9763407,90.613382 31.5744007,91.064822 31.6842907,91.496132 C32.1552007,93.345122 34.0497307,95.1244821 35.4707108,96.2979621 C35.9851808,96.7230021 36.7144808,97.2899421 37.5041708,97.7265321 C37.5741308,97.7895621 37.6447508,97.8522621 37.7173508,97.9129821 C38.5073708,99.0059421 39.4775709,99.9117922 40.8503709,100.385342 C41.0414409,100.451342 41.2087509,100.439132 41.3457009,100.375772 C41.7324609,100.456952 42.1499109,100.214402 42.2617809,99.8213722 C42.8950509,97.5994821 44.231881,95.7231021 46.158091,94.439732 C46.626361,94.128212 46.677181,93.420692 46.158091,93.119732" id="Fill-199" stroke="none" fill="#DB8080" fill-rule="evenodd"></path>
                        <path d="M8.67306019,89.4243919 C8.58198019,89.2521319 8.37177018,89.1122119 8.17905018,89.1283819 C7.88139017,89.1528019 7.63191017,89.2709419 7.41213016,89.4372619 C7.53060016,89.0300419 7.63389017,88.6198519 7.65633017,88.1835919 C7.67250017,87.8648119 7.37319016,87.5506519 7.06761015,87.5688019 C6.34590014,87.6113719 5.77302013,87.9836119 5.35095012,88.5337219 C5.28396011,87.7400719 5.35623012,86.9592919 5.85816013,86.2181119 C6.07794013,85.8933919 5.77830013,85.4954119 5.45160012,85.4779219 C3.77982008,85.3865119 3.35016007,87.1110919 3.28119007,88.5360319 C3.22311007,89.7352519 3.20628007,91.444982 4.23588009,92.151512 C4.22796009,92.215532 4.22400009,92.281202 4.22796009,92.350502 C4.30155009,93.605822 5.04603011,94.6618221 5.82978013,95.5706421 C6.64092014,96.5111421 8.04705017,95.7237621 8.09688018,94.5902121 C8.13945018,93.610112 8.33910018,92.704592 8.54700019,91.752212 C8.71530019,90.980672 9.0670802,90.169202 8.67306019,89.4243919" id="Fill-200" stroke="none" fill="#DB8080" fill-rule="evenodd"></path>
                        <path d="M40.3388709,100.069202 C40.3388709,101.968352 51.0853211,105.377252 53.4378912,105.377252 C55.7904612,105.377252 49.7699411,98.3406621 49.7699411,95.9880921 C49.7699411,93.635522 48.173731,92.594042 45.821161,92.594042 C43.4685909,92.594042 40.3388709,97.7169621 40.3388709,100.069202" id="Fill-201" stroke="none" fill="#F4BB7B" fill-rule="evenodd"></path>
                        <path d="M46.230361,8.33844018 C48.440701,8.47539018 50.6246411,9.0317702 52.6313711,9.96930022 C53.6005812,10.4220602 54.5443812,10.9754702 55.2657612,11.7654903 C56.1118812,12.6924603 56.6006112,13.8854103 57.0111312,15.0714303 C58.9667113,20.7207004 59.5131913,26.8521006 58.5878713,32.7581107 L58.4631313,32.6366707 C59.9903713,32.3895007 61.3981513,32.5350307 62.6524814,33.4412107 C63.9064814,34.3473907 64.4509814,36.0917708 64.0249514,37.7724608 C63.7233314,38.9627708 63.1497914,39.8956809 62.1670513,40.6325709 C61.2516313,41.3186409 60.1349113,41.8836009 59.0132413,41.6565609 C58.7376913,41.6007909 58.2324613,41.3150109 57.9605413,41.0932509 C56.9451312,44.118691 53.8906512,46.522081 50.7906311,47.066581 C50.7068111,49.0340411 51.0071111,52.9079111 50.8315511,53.2544112 L50.5896611,53.6844012 C49.8257111,54.8370912 49.4653511,54.9512712 48.4588511,55.8993612 C47.452021,56.8474512 46.175581,57.5741112 44.795851,57.6648612 C43.4161209,57.7559413 41.9449809,57.1107912 41.2975209,55.8888012 C40.8903009,55.1192412 40.8358509,54.2176812 40.8081309,53.3474712 C40.7378409,51.1047911 41.0021709,49.2155411 41.1793809,46.978801 L41.1793809,46.652761 C40.2781509,46.409881 39.9950109,46.218151 39.0852008,45.864061 C37.7424308,45.330451 35.9993708,43.7573409 35.2416908,42.5274309 C31.4160007,36.3141908 32.3657407,29.0215206 34.0675507,21.9912005 C34.8747308,18.6568804 35.9775908,15.3024303 38.1159908,12.6195303 C40.2547209,9.93696022 43.6104909,8.01867017 47.022361,8.37903018" id="Fill-202" stroke="none" fill="#DB8080" fill-rule="evenodd"></path>
                        <path d="M37.7701508,13.0726203 C37.1002508,13.6375803 35.9115908,12.8792403 35.2067108,12.5452803 C34.4998507,12.2106603 33.3062407,10.1976602 33.1719307,9.67362021 C32.8953907,8.59617019 32.9534707,6.71319015 33.5309707,5.13447011 C34.0586407,3.69039008 34.1187007,3.35973007 36.2085908,1.80081004 C37.3243208,0.968220021 38.0358008,1.03191002 38.8862108,0.790020017 C39.9969909,0.47421001 41.8103409,0.174900004 42.7369809,0.150150003 C49.3366511,-0.0247500005 53.9091312,1.17546003 57.9466813,6.23304014 C58.6307713,7.09038015 58.8696913,7.68669017 59.4712813,8.91693019 L60.3863713,11.4173402 C62.3205014,11.2233002 63.8325614,13.3237503 64.4556014,14.2843803 C66.4309814,17.3325904 66.8976014,20.5474504 65.5475714,24.7321805 C64.6427114,27.5368506 62.8732514,30.0095407 62.0499013,32.8386307 L61.9205413,33.0042907 C61.1209513,32.5716607 60.2504113,32.4208507 59.5313413,32.9389507 C58.8126013,33.4567207 58.4443213,34.3302307 58.2123313,35.1852608 C57.7529713,36.8768408 58.2987913,39.3736209 57.9605413,41.0932509 C57.6222912,42.8132109 56.6946612,44.030581 55.3043712,45.098131 C54.7638312,45.513271 53.8091412,45.984181 53.1913812,46.273261 C51.8637911,46.893661 50.7827111,47.291641 49.0752911,47.507791 C46.355761,47.851981 43.6180809,47.865841 40.9058109,47.465551 C38.4014408,47.095621 35.7584708,46.579501 33.8959507,44.864161 C31.7245507,42.8643609 31.1117407,39.6660009 31.2021607,36.7151408 C31.2708007,34.4817007 31.8634807,32.6089507 32.5809007,30.4926607 L32.6488807,30.3913507 C36.2597408,32.4571507 40.2887109,32.6115907 44.448691,32.5558207 C48.6670811,32.4993907 53.0230811,33.2052607 55.4723412,32.0426707 L57.0698712,31.2414307 C57.5048112,30.6216907 57.8153413,29.6630406 57.9239113,29.3620806 C58.1865913,28.6350906 58.1826313,28.0529706 58.2839413,27.4639206 C58.8333913,24.2701805 58.3248613,22.7716505 57.2315712,19.7208004 C56.8939812,18.7779904 56.3455212,17.4962704 55.8241212,16.6409104 C55.1030712,15.4575303 53.8771212,14.1527103 52.8016511,13.2782103 C51.4272011,12.1605003 49.8583811,11.5500003 48.121591,11.2011902 C46.238281,10.8226802 44.868451,10.9550102 42.6320409,11.4420902 C40.7550009,11.8506303 39.3264309,11.9466603 37.7701508,13.0726203" id="Fill-203" stroke="none" fill="#20282E" fill-rule="evenodd"></path>
                        <path d="M50.8853411,27.5870106 C50.8629011,28.2027906 50.3454611,28.6839306 49.7296811,28.6614906 C49.1135711,28.6393806 48.6324311,28.1219406 48.6548711,27.5061606 C48.6773111,26.8900506 49.1947511,26.4089106 49.8105311,26.4313506 C50.4263111,26.4537906 50.9074511,26.9712306 50.8853411,27.5870106" id="Fill-204" stroke="none" fill="#20282E" fill-rule="evenodd"></path>
                        <path d="M38.8855508,27.3266406 C38.8631108,27.9424206 38.3460008,28.4235606 37.7298908,28.4014506 C37.1141108,28.3790106 36.6329708,27.8615706 36.6554108,27.2457906 C36.6775208,26.6296806 37.1949608,26.1485406 37.8107408,26.1709806 C38.4268508,26.1934206 38.9079908,26.7108606 38.8855508,27.3266406" id="Fill-205" stroke="none" fill="#20282E" fill-rule="evenodd"></path>
                        <path d="M52.8052811,20.5474504 C52.7039711,21.1272605 51.2443811,21.2896205 50.1695711,21.1018505 C49.0950911,20.9144105 47.497561,21.3219605 47.741761,19.8036304 C47.946031,18.5347804 49.4613911,18.8149504 50.5358711,19.0027204 C51.6103511,19.1901604 52.9065911,19.9676404 52.8052811,20.5474504" id="Fill-206" stroke="none" fill="#20282E" fill-rule="evenodd"></path>
                        <path d="M39.3063009,20.0504704 C39.3063009,21.6592205 37.6856708,21.1176905 36.6547508,21.1176905 C35.6235008,21.1176905 34.5764107,20.6408404 34.5764107,20.0521204 C34.5764107,19.4637304 35.6235008,18.9868804 36.6547508,18.9868804 C37.6856708,18.9868804 39.3063009,18.9849004 39.3063009,20.0504704" id="Fill-207" stroke="none" fill="#20282E" fill-rule="evenodd"></path>
                        <path d="M41.8948209,31.2414307 C41.5796709,30.7985707 40.4507409,29.6841606 40.2418509,29.1690306 C39.9303309,28.4021106 39.9993009,28.2387606 40.0125009,27.5896506 L40.1511009,26.4666606 C41.2391109,23.2494905 40.8754509,23.6438405 42.7369809,20.5474504" id="Fill-208" stroke="none" fill="#DB8080" fill-rule="evenodd"></path>
                        <path d="M42.0855609,31.1298907 C41.4945309,30.3279907 40.6032009,29.6115606 40.3768209,28.6060506 C40.2157809,27.8892906 40.3824309,26.9847606 40.5698709,26.2878006 C41.1176709,24.2500505 42.0740109,22.5726605 43.0227609,20.7147604 C43.2181209,20.3319604 42.6930909,20.0316604 42.4512009,20.3804704 C41.1975309,22.1882105 40.2299709,24.3860105 39.8013009,26.5498206 C39.3515109,28.8208806 40.3781409,29.7643506 41.7390609,31.3971907 C41.8974609,31.5876007 42.2347209,31.3321807 42.0855609,31.1298907" id="Fill-209" stroke="none" fill="#20282E" fill-rule="evenodd"></path>
                        <path d="M44.817961,34.1754607 C44.817961,35.1641408 43.6527309,35.8908008 42.6643809,35.8908008 C41.6753709,35.8908008 40.8741309,35.1875708 40.8741309,34.1988907 C40.8741309,33.2102107 41.6753709,33.5524207 42.6643809,33.5524207 C43.6527309,33.5524207 44.817961,33.1871107 44.817961,34.1754607" id="Fill-210" stroke="none" fill="#F9F8F6" fill-rule="evenodd"></path>
                        <path d="M62.2439413,36.2386208 C61.6436713,36.4798508 61.1437213,36.7893908 60.6903013,37.2533708 C60.3154213,37.6368308 59.7712513,38.1879308 59.7861013,38.7542108 C59.7894013,38.8667408 59.9204113,38.9588108 60.0233713,38.8901708 C60.4497313,38.6057108 60.6639013,38.0552708 61.0120513,37.6794008 C61.4093713,37.2507308 61.8816013,36.8524208 62.3653814,36.5263808 C62.5029914,36.4333208 62.4195014,36.1680008 62.2439413,36.2386208" id="Fill-211" stroke="none" fill="#20282E" fill-rule="evenodd"></path>
                        <path d="M42.5155509,29.4528306 C42.6462309,29.6683206 42.7911009,29.8739106 42.9501609,30.0696007 C43.0894209,30.2408707 43.2778509,30.5342407 43.5273309,30.5111407 C43.6329309,30.5012407 43.7411709,30.4243507 43.7339109,30.3042307 C43.7184009,30.0511207 43.4666109,29.9267106 43.2956709,29.7693006 C43.1161509,29.6039706 42.9511509,29.4251106 42.7973709,29.2353606 C42.6676809,29.0756406 42.4122609,29.2815606 42.5155509,29.4528306" id="Fill-212" stroke="none" fill="#20282E" fill-rule="evenodd"></path>
                        <path d="M24.5638805,79.8840917 C27.5668806,79.6560617 30.8487307,79.5280217 33.7639507,78.7505417 C33.9150907,78.7102817 33.8853907,78.4753217 33.7269907,78.4772893 C30.7094707,78.5103017 27.5140806,79.2673217 24.5599205,79.8540617 C24.5427605,79.8570317 24.5463905,79.8854117 24.5638805,79.8840917" id="Fill-213" stroke="none" fill="#20282E" fill-rule="evenodd"></path>
                        <path d="M26.6224206,83.1798018 C28.0410906,83.3223618 29.8838106,82.8894018 31.2358207,82.4960418 C31.3480207,82.4637018 31.3321807,82.2676818 31.2071107,82.2835218 C30.4824307,82.3759218 29.7778806,82.5165018 29.0604606,82.6498218 C28.2542706,82.7996418 27.3834006,82.8415518 26.6141706,83.1190818 C26.5805106,83.1309618 26.5877706,83.1761718 26.6224206,83.1798018" id="Fill-214" stroke="none" fill="#20282E" fill-rule="evenodd"></path>
                        <path d="M20.8454405,102.131702 C20.1055804,96.3854121 19.0660804,90.399542 17.4022204,84.8456418 C17.3639404,84.7179318 17.1425104,84.7344318 17.1586804,84.8783118 C17.8249504,90.642092 19.2234904,96.5626221 20.8150805,102.135662 C20.8197005,102.151832 20.8477505,102.149522 20.8454405,102.131702" id="Fill-215" stroke="none" fill="#20282E" fill-rule="evenodd"></path>
                        <path d="M16.9834504,81.1258818 C17.3022304,81.1258818 17.3025604,80.6308817 16.9834504,80.6308817 C16.6650004,80.6308817 16.6643404,81.1258818 16.9834504,81.1258818" id="Fill-216" stroke="none" fill="#20282E" fill-rule="evenodd"></path>
                        <path d="M77.9595317,111.387273 L70.7592615,111.387273 C69.9230415,111.387273 69.2303715,110.738163 69.1755915,109.903923 L68.0922015,93.3999622 C68.0324715,92.4845421 68.7588015,91.7090421 69.6762015,91.7090421 L79.2947117,91.7090421 C80.2216817,91.7090421 80.9516418,92.5003821 80.8767318,93.4240522 L79.5415517,109.928013 C79.4745617,110.752023 78.7861817,111.387273 77.9595317,111.387273" id="Fill-256" stroke="none" fill="#F8F6F4" fill-rule="evenodd"></path>
                        <polyline id="Fill-257" stroke="none" fill="#9ECD8E" fill-rule="evenodd" points="80.1253217 105.629432 68.6928015 105.629432 68.0885715 98.7776423 80.8820118 98.7776423 80.1253217 105.629432"></polyline>
                        <polyline id="Fill-258" stroke="none" fill="#DAD9D3" fill-rule="evenodd" points="80.8496718 92.9858121 68.0885715 92.7591021 68.3007615 96.4155022 80.6543117 96.1736122 80.8496718 92.9858121"></polyline>
                        <path d="M80.3612717,94.4147122 L68.3439915,94.4147122 C67.5770715,94.4147122 66.9550215,93.7929922 66.9550215,93.0260721 L66.9550215,92.4657321 C66.9550215,89.6501721 69.2376315,87.367892 72.0528616,87.367892 L76.6524017,87.367892 C79.4679617,87.367892 81.7502418,89.6501721 81.7502418,92.4657321 L81.7502418,93.0260721 C81.7502418,93.7929922 81.1285218,94.4147122 80.3612717,94.4147122" id="Fill-259" stroke="none" fill="#EFEDE9" fill-rule="evenodd"></path>
                        <path d="M75.8023216,102.203702 C75.8023216,103.322072 74.9505916,104.229242 73.8998716,104.229242 C72.8488216,104.229242 71.9970916,103.322072 71.9970916,102.203702 C71.9970916,101.084672 72.8488216,100.177832 73.8998716,100.177832 C74.9505916,100.177832 75.8023216,101.084672 75.8023216,102.203702 Z" id="Stroke-260" stroke="#83C170" stroke-width="0.990000021" fill="none" stroke-dasharray="1.979999990463256,0.3300000202655795"></path>
                        <path d="M78.3816017,105.177992 C78.8673617,103.413152 79.3072517,101.330852 79.3082417,99.4953923 C79.3082417,99.3376523 79.0779017,99.3069623 79.0343417,99.4581023 C78.5271317,101.221952 78.3733517,103.346822 78.3512386,105.173702 C78.3509117,105.191192 78.3769817,105.194492 78.3816017,105.177992" id="Fill-261" stroke="none" fill="#20282E" fill-rule="evenodd"></path>
                        <path d="M77.3328617,104.553962 C77.3318717,103.324712 77.3150417,102.105032 77.1566417,100.884032 C77.1414617,100.769192 76.9708517,100.760612 76.9708517,100.884032 C76.9708517,102.118232 77.1134117,103.332302 77.2711517,104.553962 C77.2761017,104.591912 77.3328617,104.594882 77.3328617,104.553962" id="Fill-262" stroke="none" fill="#20282E" fill-rule="evenodd"></path>
                        <path d="M68.2555515,91.3717821 C71.9928016,92.1288021 75.8831716,92.5013721 79.6897217,92.1000921 C79.8250217,92.0855721 79.8319517,91.8822921 79.6897217,91.8832821 C75.8538016,91.9047321 72.0815716,91.8430221 68.2720515,91.3120521 C68.2337715,91.3064421 68.2156215,91.3635321 68.2555515,91.3717821" id="Fill-263" stroke="none" fill="#20282E" fill-rule="evenodd"></path>
                    </g>
                </g>
            </g>
        </g>
    </g>
</svg>