<svg width="16" height="16" viewBox="0 0 16 16" fill="none" xmlns="http://www.w3.org/2000/svg">
  <mask id="mask0_767_14009" style="mask-type:alpha" maskUnits="userSpaceOnUse" x="0" y="0" width="16" height="16">
    <rect width="16" height="16" fill="#7F8A96"/>
  </mask>
  <g mask="url(#mask0_767_14009)">
    <path d="M7.25254 9.99749H8.70254V7.82249H10.8775V6.37249H8.70254V4.19749H7.25254V6.37249H5.07754V7.82249H7.25254V9.99749ZM5.07754 14.3475V12.8975H2.17754C1.77879 12.8975 1.43756 12.7556 1.15384 12.4719C0.869639 12.1877 0.727539 11.8462 0.727539 11.4475V2.74749C0.727539 2.34874 0.869639 2.00726 1.15384 1.72306C1.43756 1.43934 1.77879 1.29749 2.17754 1.29749H13.7775C14.1763 1.29749 14.5178 1.43934 14.802 1.72306C15.0857 2.00726 15.2275 2.34874 15.2275 2.74749V11.4475C15.2275 11.8462 15.0857 12.1877 14.802 12.4719C14.5178 12.7556 14.1763 12.8975 13.7775 12.8975H10.8775V14.3475H5.07754ZM2.17754 11.4475H13.7775V2.74749H2.17754V11.4475Z" fill="#7F8A96"/>
  </g>
</svg>
