<?xml version="1.0" encoding="UTF-8"?>
<svg width="60px" height="60px" viewBox="0 0 60 60" version="1.1" xmlns="http://www.w3.org/2000/svg" xmlns:xlink="http://www.w3.org/1999/xlink">
    <!-- Generator: Sketch 59 (86127) - https://sketch.com -->
    <title>Elements ts Copy 6</title>
    <desc>Created with Sketch.</desc>
    <g id="Elements-ts-Copy-6" stroke="none" stroke-width="1" fill="none" fill-rule="evenodd">
        <g id="Group" fill="#000000">
            <path d="M58,34 C59.1045695,34 60,34.8954305 60,36 L60,58 C60,59.1045695 59.1045695,60 58,60 L2,60 C0.8954305,60 1.3527075e-16,59.1045695 0,58 L0,36 C-1.3527075e-16,34.8954305 0.8954305,34 2,34 L58,34 Z M53,40 L7,40 C6.48716416,40 6.06449284,40.3860402 6.00672773,40.8833789 L6,41 L6,53 C6,53.5128358 6.38604019,53.9355072 6.88337887,53.9932723 L7,54 L53,54 C53.5128358,54 53.9355072,53.6139598 53.9932723,53.1166211 L54,53 L54,41 C54,40.4477153 53.5522847,40 53,40 Z M34.6153846,0 L34.615,10.384 L45,10.3846154 L45,19.6153846 L34.615,19.615 L34.6153846,30 L25.3846154,30 L25.384,19.615 L15,19.6153846 L15,10.3846154 L25.384,10.384 L25.3846154,0 L34.6153846,0 Z" id="Combined-Shape"></path>
        </g>
    </g>
</svg>