<?xml version="1.0" encoding="UTF-8"?>
<svg width="60px" height="60px" viewBox="0 0 60 60" version="1.1" xmlns="http://www.w3.org/2000/svg" xmlns:xlink="http://www.w3.org/1999/xlink">
    <!-- Generator: Sketch 55.2 (78181) - https://sketchapp.com -->
    <title>add</title>
    <desc>Created with Sketch.</desc>
    <defs>
        <path d="M28.2447761,50.3104478 C27.8059701,49.8716418 27.5552239,49.2865672 27.5552239,48.6597015 L27.5552239,32.4447761 L11.319403,32.4447761 C10.6925373,32.4447761 10.1074627,32.2149254 9.66865672,31.7552239 C9.22985075,31.2955224 9,30.7313433 9,30.1044776 C9,28.8089552 10.0447761,27.7641791 11.3402985,27.7641791 L27.5761194,27.7641791 L27.5761194,11.5283582 C27.5761194,10.2328358 28.6208955,9.1880597 29.9164179,9.1880597 C30.5432836,9.1880597 31.1283582,9.41791045 31.5671642,9.87761194 C32.0059701,10.3164179 32.2567164,10.9014925 32.2567164,11.5283582 L32.2567164,27.7641791 L48.4925373,27.7641791 C49.119403,27.7641791 49.7044776,27.9940299 50.1432836,28.4537313 C50.5820896,28.8925373 50.8328358,29.4776119 50.8328358,30.1044776 C50.8328358,30.7313433 50.6029851,31.3164179 50.1432836,31.7552239 C49.6835821,32.1940299 49.119403,32.4447761 48.4925373,32.4447761 L32.2358209,32.4447761 L32.2358209,48.680597 C32.2358209,49.3074627 32.0059701,49.8925373 31.5462687,50.3313433 C31.0865672,50.7701493 30.5223881,51 29.8955224,51 C29.2686567,51 28.6835821,50.7701493 28.2447761,50.3104478 Z" id="path-1"></path>
    </defs>
    <g id="add" stroke="none" stroke-width="1" fill="none" fill-rule="evenodd">
        <mask id="mask-2" fill="white">
            <use xlink:href="#path-1"></use>
        </mask>
        <use id="Mask" fill="#000000" fill-rule="nonzero" xlink:href="#path-1"></use>
        <g id="color/2" mask="url(#mask-2)" fill="#27303E">
            <rect x="0" y="0" width="60" height="60"></rect>
        </g>
    </g>
</svg>