<svg width="15" height="14" viewBox="0 0 15 14" fill="none" xmlns="http://www.w3.org/2000/svg">
<path d="M13.7815 6.30811C13.6203 5.99321 13.3918 5.71763 13.1121 5.50091C12.8209 5.2879 12.4837 5.14628 12.1278 5.08747C11.8226 5.02348 11.5075 5.02348 11.2024 5.08747V3.43369C11.2028 3.35338 11.1874 3.27379 11.157 3.19946C11.1266 3.12514 11.0818 3.05754 11.0252 3.00055C10.9074 2.89053 10.7533 2.8275 10.5921 2.82336H7.85549C7.9244 2.51877 7.9244 2.20263 7.85549 1.89804C7.79528 1.54246 7.65379 1.20558 7.44204 0.913643C7.22533 0.634011 6.94975 0.405481 6.63484 0.244256C6.15611 0.00304706 5.60778 -0.0620688 5.08586 0.0603109C4.56395 0.182691 4.10172 0.484766 3.7801 0.913643C3.56126 1.20259 3.41599 1.54043 3.35682 1.89804C3.29783 2.20366 3.29783 2.51774 3.35682 2.82336H0.669425C0.508242 2.8275 0.354158 2.89053 0.236292 3.00055C0.179714 3.05754 0.13494 3.12514 0.104534 3.19946C0.0741279 3.27379 0.058689 3.35338 0.0591015 3.43369V6.02264C0.0578317 6.13396 0.0885841 6.2433 0.147697 6.33765C0.206636 6.4349 0.291979 6.51341 0.393795 6.56406C0.481014 6.59973 0.575706 6.61325 0.669425 6.60343C0.782977 6.5924 0.891621 6.55165 0.98443 6.4853C1.13734 6.36545 1.32229 6.29352 1.516 6.27858C1.71045 6.25325 1.90802 6.28657 2.08341 6.37426C2.25879 6.46195 2.40399 6.60002 2.50039 6.77078C2.60334 6.93622 2.6579 7.12718 2.6579 7.32204C2.6579 7.51689 2.60334 7.70785 2.50039 7.8733C2.40189 8.04396 2.25443 8.18112 2.07711 8.26705C1.8996 8.35265 1.70268 8.39 1.50616 8.37534C1.31356 8.35565 1.12988 8.28422 0.974586 8.16862C0.885179 8.10109 0.780252 8.05709 0.669425 8.04064C0.553508 8.03013 0.437069 8.05411 0.334731 8.10955C0.232915 8.1602 0.147573 8.23871 0.0886333 8.33596C0.0295206 8.4303 -0.00123204 8.53964 3.77944e-05 8.65097V13.3859C0.00417278 13.5471 0.0672075 13.7012 0.177228 13.819C0.240152 13.8844 0.317283 13.9344 0.40264 13.9651C0.487997 13.9958 0.579286 14.0065 0.669425 13.9962H4.33136C4.44646 13.9928 4.55857 13.9588 4.65621 13.8978C4.7517 13.8325 4.82949 13.7446 4.88262 13.6418C4.93166 13.5375 4.95205 13.422 4.94169 13.3071C4.93027 13.192 4.88583 13.0826 4.81372 12.9921C4.67609 12.8075 4.60341 12.5825 4.60699 12.3523C4.60607 12.2156 4.6336 12.0803 4.68783 11.9549C4.74206 11.8295 4.82181 11.7167 4.922 11.6238C5.01891 11.5268 5.134 11.4498 5.26068 11.3973C5.38736 11.3448 5.52316 11.3178 5.66029 11.3178C5.79743 11.3178 5.93322 11.3448 6.05991 11.3973C6.18659 11.4498 6.30168 11.5268 6.39859 11.6238C6.49878 11.7167 6.57852 11.8295 6.63276 11.9549C6.68699 12.0803 6.71452 12.2156 6.71359 12.3523C6.71375 12.5882 6.63393 12.8172 6.48718 13.002C6.41507 13.0925 6.37063 13.2018 6.35921 13.317C6.34978 13.4318 6.37012 13.5471 6.41828 13.6517C6.46892 13.7535 6.54744 13.8388 6.64469 13.8978C6.7393 13.9652 6.8534 13.9998 6.96954 13.9962H10.6413C10.8029 13.994 10.9576 13.9307 11.0745 13.819C11.131 13.762 11.1758 13.6944 11.2062 13.6201C11.2366 13.5458 11.2521 13.4662 11.2516 13.3859V9.54676C11.5755 9.62161 11.9118 9.62425 12.2367 9.5545C12.5617 9.48475 12.8673 9.34431 13.1318 9.14316C13.4138 8.93074 13.6424 8.65559 13.7996 8.3395C13.9568 8.02341 14.0382 7.67506 14.0375 7.32204C14.0267 6.9695 13.9394 6.62352 13.7815 6.30811ZM10.1097 8.2769C10.0434 8.37574 10.009 8.49257 10.0113 8.61159V12.8248H7.88502C7.94418 12.5258 7.94418 12.2181 7.88502 11.9191C7.81651 11.5806 7.668 11.2633 7.45189 10.9938C7.24267 10.7183 6.96882 10.4985 6.65453 10.354C6.34411 10.201 6.00288 10.121 5.65684 10.1199C5.31079 10.1188 4.96906 10.1966 4.65767 10.3476C4.34628 10.4985 4.07345 10.7186 3.85996 10.9909C3.64647 11.2633 3.49795 11.5807 3.42572 11.9191C3.3616 12.2176 3.3616 12.5263 3.42572 12.8248H1.2699V9.56645C1.54288 9.62056 1.82382 9.62056 2.09679 9.56645C2.41232 9.50619 2.71115 9.3786 2.9729 9.19238C3.23672 9.00424 3.45806 8.76277 3.6226 8.48362C3.78229 8.20448 3.88595 7.89684 3.92776 7.57798C3.96449 7.24658 3.93095 6.91115 3.82932 6.59359C3.73088 6.28817 3.56997 6.00657 3.35682 5.7667C3.09905 5.47857 2.77237 5.26058 2.40736 5.13318C2.04235 5.00577 1.65098 4.97311 1.2699 5.03825V4.05385H4.41996C4.54273 4.05105 4.66219 4.0135 4.7645 3.94557C4.86463 3.88136 4.94343 3.78885 4.99091 3.67979C5.02052 3.56685 5.02052 3.44819 4.99091 3.33525C4.97391 3.23831 4.93334 3.14704 4.87278 3.06946C4.72653 2.90397 4.63386 2.69804 4.60699 2.47883C4.57022 2.27625 4.59419 2.06733 4.6759 1.87835C4.75936 1.68911 4.8962 1.52832 5.06966 1.41568C5.24328 1.30535 5.44474 1.24675 5.65045 1.24675C5.85616 1.24675 6.05762 1.30535 6.23124 1.41568C6.40183 1.5289 6.53535 1.6898 6.61515 1.87835C6.70053 2.06633 6.72463 2.27639 6.68406 2.47883C6.65503 2.69934 6.55879 2.90556 6.40843 3.06946C6.32405 3.15524 6.26892 3.26549 6.25093 3.38447C6.21669 3.49676 6.21669 3.61671 6.25093 3.72901C6.29841 3.83807 6.37721 3.93058 6.47734 3.99479C6.57532 4.06404 6.69206 4.10181 6.81203 4.10308H9.97193V6.0817C9.96967 6.20072 10.004 6.31756 10.0704 6.4164C10.1346 6.51653 10.2271 6.59533 10.3362 6.64281C10.4485 6.67705 10.5684 6.67705 10.6807 6.64281C10.7976 6.62465 10.9069 6.57341 10.9957 6.49515C11.1479 6.35972 11.3358 6.27088 11.5371 6.23921C11.7382 6.20762 11.9441 6.23553 12.1295 6.31948C12.3149 6.40343 12.4717 6.53978 12.5806 6.71171C12.6904 6.88191 12.7487 7.08014 12.7487 7.28266C12.7487 7.48519 12.6904 7.68342 12.5806 7.85361C12.4719 8.02675 12.3143 8.16378 12.1278 8.24737C11.9417 8.32684 11.7375 8.35407 11.5371 8.32612C11.3344 8.2991 11.1452 8.20965 10.9957 8.07018C10.9069 7.99191 10.7976 7.94067 10.6807 7.92252C10.5678 7.89291 10.4491 7.89291 10.3362 7.92252C10.2296 7.99705 10.1502 8.10413 10.1097 8.22768V8.2769Z" fill="#2D4A60"/>
</svg>
