<svg width="15" height="16" viewBox="0 0 15 16" fill="none" xmlns="http://www.w3.org/2000/svg">
<path d="M8.61539 0C7.25538 0 6.15385 1.10154 6.15385 2.46154H2.46154V5.53846C1.10154 5.53846 0 6.64 0 8C0 9.36 1.10154 10.4615 2.46154 10.4615V13.5385H6.15385C6.15385 14.8985 7.25538 16 8.61539 16C9.97538 16 11.0769 14.8985 11.0769 13.5385H14.7692V9.23077H13.5385C12.8055 9.23077 12.3077 8.73292 12.3077 8C12.3077 7.26708 12.8055 6.76923 13.5385 6.76923H14.7692V2.46154H11.0769C11.0769 1.10154 9.97538 0 8.61539 0ZM8.61539 1.23077C9.34831 1.23077 9.84615 1.72862 9.84615 2.46154V3.69231H13.5385V5.53846C12.1785 5.53846 11.0769 6.64 11.0769 8C11.0769 9.36 12.1785 10.4615 13.5385 10.4615V12.3077H9.84615V13.5385C9.84615 14.2714 9.34831 14.7692 8.61539 14.7692C7.88246 14.7692 7.38462 14.2714 7.38462 13.5385V12.3077H3.69231V9.23077H2.46154C1.72862 9.23077 1.23077 8.73292 1.23077 8C1.23077 7.26708 1.72862 6.76923 2.46154 6.76923H3.69231V3.69231H7.38462V2.46154C7.38462 1.72862 7.88246 1.23077 8.61539 1.23077Z" fill="#6A737D"/>
</svg>
