<?xml version="1.0" standalone="no"?>
<!DOCTYPE svg PUBLIC "-//W3C//DTD SVG 20010904//EN"
 "http://www.w3.org/TR/2001/REC-SVG-20010904/DTD/svg10.dtd">
<svg version="1.0" xmlns="http://www.w3.org/2000/svg"
 width="256.000000pt" height="256.000000pt" viewBox="0 0 256.000000 256.000000"
 preserveAspectRatio="xMidYMid meet">

<g transform="translate(0.000000,256.000000) scale(0.100000,-0.100000)"
fill="#000000" stroke="none">
<path d="M0 1450 l0 -1010 435 0 435 0 0 -140 0 -140 -85 0 -85 0 0 -30 0 -30
580 0 580 0 0 30 0 30 -85 0 -85 0 0 140 0 140 435 0 435 0 0 1010 0 1010
-1280 0 -1280 0 0 -1010z m2510 100 l0 -850 -1230 0 -1230 0 0 850 0 850 1230
0 1230 0 0 -850z m0 -980 l0 -70 -1230 0 -1230 0 0 70 0 70 1230 0 1230 0 0
-70z m-880 -270 l0 -140 -350 0 -350 0 0 140 0 140 350 0 350 0 0 -140z"/>
<path d="M238 2242 l-28 -3 0 -225 0 -224 30 0 30 0 2 198 3 197 208 3 207 2
0 25 c0 20 -5 25 -27 26 -101 3 -403 3 -425 1z"/>
<path d="M1918 2242 c-43 -3 -48 -6 -48 -27 l0 -25 208 -2 207 -3 3 -197 2
-198 30 0 30 0 0 225 c0 173 -3 225 -12 226 -41 3 -381 3 -420 1z"/>
<path d="M810 1555 l0 -445 470 0 470 0 0 445 0 445 -470 0 -470 0 0 -445z
m880 5 l0 -390 -410 0 -410 0 0 390 0 390 410 0 410 0 0 -390z"/>
<path d="M1075 1760 c-19 -21 -18 -21 68 -108 48 -48 87 -92 87 -97 0 -5 -39
-49 -87 -97 -86 -87 -87 -87 -68 -108 l19 -21 93 93 93 93 93 -93 93 -93 19
21 c19 21 18 21 -68 108 -48 48 -87 92 -87 97 0 5 39 49 87 97 86 87 87 87 68
108 l-19 21 -93 -93 -93 -93 -93 93 -93 93 -19 -21z"/>
<path d="M210 1095 l0 -225 240 0 240 0 0 30 0 30 -210 0 -210 0 0 195 0 195
-30 0 -30 0 0 -225z"/>
<path d="M2290 1125 l0 -195 -210 0 -210 0 0 -30 0 -30 240 0 240 0 0 225 0
225 -30 0 -30 0 0 -195z"/>
</g>
</svg>
