<?xml version="1.0" encoding="iso-8859-1"?>
<!-- Generator: Adobe Illustrator 19.0.0, SVG Export Plug-In . SVG Version: 6.00 Build 0)  -->
<svg version="1.1" id="Layer_1" xmlns="http://www.w3.org/2000/svg" xmlns:xlink="http://www.w3.org/1999/xlink" x="0px" y="0px"
	 viewBox="0 0 453.217 453.217" style="enable-background:new 0 0 453.217 453.217;" xml:space="preserve">
<g>
	<g>
		<path d="M445.717,62.108H214.679c-4.143,0-7.5,3.358-7.5,7.5v71.25h-96.095c-4.143,0-7.5,3.358-7.5,7.5v71.244H7.5
			c-4.143,0-7.5,3.358-7.5,7.5v156.506c0,4.142,3.357,7.5,7.5,7.5h231.039c4.143,0,7.5-3.358,7.5-7.5v-71.244h96.084
			c4.143,0,7.5-3.358,7.5-7.5v-71.247h96.094c4.143,0,7.5-3.358,7.5-7.5V69.608C453.217,65.466,449.859,62.108,445.717,62.108z
			 M118.584,155.859h88.595v12.25h-88.595V155.859z M15,234.602h88.584v12.25H15V234.602z M231.039,376.108H15V261.852h88.584
			v43.013c0,4.142,3.357,7.5,7.5,7.5h119.955V376.108z M334.623,297.365H118.584V183.108h88.595v43.009c0,4.142,3.357,7.5,7.5,7.5
			h119.944V297.365z M438.217,218.618H222.179V104.362h216.038V218.618z M438.217,89.362H222.179V77.108h216.038V89.362z"/>
	</g>
</g>
<g>
</g>
<g>
</g>
<g>
</g>
<g>
</g>
<g>
</g>
<g>
</g>
<g>
</g>
<g>
</g>
<g>
</g>
<g>
</g>
<g>
</g>
<g>
</g>
<g>
</g>
<g>
</g>
<g>
</g>
</svg>
