<?xml version="1.0" encoding="UTF-8"?>
<svg width="60px" height="60px" viewBox="0 0 60 60" version="1.1" xmlns="http://www.w3.org/2000/svg" xmlns:xlink="http://www.w3.org/1999/xlink">
    <!-- Generator: Sketch 59 (86127) - https://sketch.com -->
    <title>android-solid</title>
    <desc>Created with Sketch.</desc>
    <g id="android-solid" stroke="none" stroke-width="1" fill="none" fill-rule="evenodd">
        <path d="M12.0885361,23.2354115 L12.0885361,38.491531 C12.0885361,40.5204104 10.4944166,42.1408791 8.46553711,42.1408791 C6.4498322,42.1408791 4.5,40.5072359 4.5,38.491531 L4.5,23.2354115 C4.5,21.2460556 6.4498322,19.6124124 8.46553711,19.6124124 C10.4548929,19.6124124 12.0885361,21.2460556 12.0885361,23.2354115 Z M13.5113867,43.9194423 C13.5113867,46.0800671 15.2504262,47.8191067 17.4110511,47.8191067 L20.0327849,47.8191067 L20.0723085,55.8687518 C20.0723085,60.7301577 27.3446557,60.6906341 27.3446557,55.8687518 L27.3446557,47.8191067 L32.2455853,47.8191067 L32.2455853,55.8687518 C32.2455853,60.7038086 39.557456,60.7169832 39.557456,55.8687518 L39.557456,47.8191067 L42.2187135,47.8191067 C44.3529893,47.8191067 46.0920288,46.0800671 46.0920288,43.9194423 L46.0920288,20.2843141 L13.5113867,20.2843141 L13.5113867,43.9194423 Z M46.1842506,19.0063835 L13.3664667,19.0063835 C13.3664667,13.3676796 16.7391494,8.46674998 21.7454754,5.91088885 L19.2291379,1.26027555 C18.8602507,0.614723001 19.7956432,0.206312202 20.1118322,0.759642962 L22.6676933,5.44977988 C27.2656084,3.40772589 32.5485997,3.51312222 36.9357222,5.44977988 L39.4784088,0.772817504 C39.8077723,0.206312202 40.7299902,0.627897543 40.3611031,1.2734501 L37.8447656,5.91088885 C42.8115679,8.46674998 46.1842506,13.3676796 46.1842506,19.0063835 L46.1842506,19.0063835 Z M23.6953076,11.6945127 C23.6953076,10.9435639 23.0892786,10.3111858 22.3119807,10.3111858 C21.5610318,10.3111858 20.9681774,10.9435639 20.9681774,11.6945127 C20.9681774,12.4454616 21.5742063,13.0778396 22.3119807,13.0778396 C23.0892786,13.0778396 23.6953076,12.4454616 23.6953076,11.6945127 Z M38.6352381,11.6945127 C38.6352381,10.9435639 38.0292092,10.3111858 37.2914348,10.3111858 C36.5141368,10.3111858 35.9081079,10.9435639 35.9081079,11.6945127 C35.9081079,12.4454616 36.5141368,13.0778396 37.2914348,13.0778396 C38.0292092,13.0778396 38.6352381,12.4454616 38.6352381,11.6945127 Z M51.1247038,19.6124124 C49.135348,19.6124124 47.5017048,21.206532 47.5017048,23.2354115 L47.5017048,38.491531 C47.5017048,40.5204104 49.135348,42.1408791 51.1247038,42.1408791 C53.1535833,42.1408791 55.0902409,40.5072359 55.0902409,38.491531 L55.0902409,23.2354115 C55.0902409,21.206532 53.1404087,19.6124124 51.1247038,19.6124124 Z" id="Shape" fill="#000000" fill-rule="nonzero"></path>
    </g>
</svg>