<svg width="20" height="20" viewBox="0 0 20 20" fill="none" xmlns="http://www.w3.org/2000/svg">
<mask id="mask0_5_4500" style="mask-type:alpha" maskUnits="userSpaceOnUse" x="0" y="0" width="20" height="20">
<rect width="20" height="20" fill="#D9D9D9"/>
</mask>
<g mask="url(#mask0_5_4500)">
<path d="M5.05791 8.16503V12.3026C5.05791 12.8525 4.62575 13.2921 4.07526 13.2921C3.52877 13.2921 3 12.8491 3 12.3026V8.16503C3 7.6254 3.52877 7.18238 4.07526 7.18238C4.61489 7.18238 5.05791 7.6254 5.05791 8.16503ZM5.44377 13.7746C5.44377 14.3605 5.91538 14.8321 6.50131 14.8321H7.21243L7.22329 17.0152C7.22329 18.3334 9.19546 18.3231 9.19546 17.0152V14.8321H10.5245V17.0152C10.5245 18.3265 12.5076 18.33 12.5076 17.0152V14.8321H13.229C13.3674 14.8316 13.5043 14.8039 13.632 14.7505C13.7597 14.6971 13.8756 14.6191 13.9731 14.5209C14.0707 14.4227 14.1479 14.3062 14.2004 14.1782C14.2529 14.0501 14.2796 13.913 14.2791 13.7746V7.3653H5.44377V13.7746ZM14.3042 7.01832H5.40433C5.40433 5.48917 6.31896 4.16011 7.67661 3.46728L6.99407 2.20623C6.89403 2.03131 7.14784 1.92041 7.23358 2.07018L7.92641 3.34209C9.17317 2.78816 10.6063 2.81675 11.7959 3.34209L12.4853 2.07361C12.5744 1.91984 12.8248 2.03417 12.7248 2.20966L12.0422 3.46728C13.389 4.16011 14.3037 5.48975 14.3037 7.01832H14.3042ZM8.20538 5.03529C8.20538 4.93584 8.16587 4.84045 8.09554 4.77013C8.02522 4.6998 7.92983 4.66029 7.83038 4.66029C7.62687 4.66029 7.46624 4.83179 7.46624 5.03529C7.46624 5.2388 7.63088 5.41029 7.83038 5.41029C8.04131 5.41029 8.20538 5.2388 8.20538 5.03529ZM12.2572 5.03529C12.2577 4.93746 12.2197 4.84336 12.1515 4.77322C12.0833 4.70309 11.9903 4.66254 11.8925 4.66029C11.793 4.66029 11.6976 4.6998 11.6273 4.77013C11.557 4.84045 11.5175 4.93584 11.5175 5.03529C11.5175 5.13475 11.557 5.23013 11.6273 5.30045C11.6976 5.37078 11.793 5.41029 11.8925 5.41029C12.0925 5.41029 12.2572 5.2388 12.2572 5.03529ZM15.6442 7.18295C15.1045 7.18295 14.6615 7.61511 14.6615 8.1656V12.3032C14.6615 12.8531 15.1045 13.2927 15.6442 13.2927C16.1947 13.2927 16.7194 12.8496 16.7194 12.3032V8.1656C16.7194 7.61568 16.1906 7.18295 15.6442 7.18295Z" fill="#38414D"/>
</g>
</svg>
