<svg width="24" height="24" viewBox="0 0 24 24" fill="none" xmlns="http://www.w3.org/2000/svg">
<path d="M10.5071 5.27812C10.0712 5.27812 9.75713 5.59219 9.75713 6.02578C9.75713 6.45937 10.0735 6.77344 10.5071 6.77344C10.9431 6.77344 11.2571 6.45937 11.2571 6.02578C11.2595 5.59453 10.9431 5.27812 10.5071 5.27812ZM19.7392 7.5375C19.4157 7.21406 18.9728 7.03359 18.4923 7.03359C18.4009 7.03359 18.3188 7.04297 18.2415 7.05703V7.03359H18.1571C18.0282 6.31641 17.7212 5.61562 17.2642 4.98516C16.8259 4.38281 16.2563 3.8625 15.6048 3.46406L16.1931 2.625V2.54766C16.1931 2.52891 16.2024 2.49375 16.2095 2.45859C16.2235 2.40234 16.2423 2.32969 16.2423 2.25C16.2423 1.81641 15.9259 1.50234 15.4923 1.50234C15.2626 1.50234 15.0353 1.63594 14.8853 1.86328L14.1985 2.85C13.4954 2.62031 12.736 2.49844 12.0001 2.49844C11.2665 2.49844 10.5071 2.62031 9.80166 2.85L9.11728 1.86094C8.9626 1.63594 8.73994 1.5 8.50791 1.5C8.07197 1.5 7.75791 1.81406 7.75791 2.24766C7.75791 2.39297 7.8165 2.54766 7.91494 2.65547L8.44463 3.4125C7.77197 3.81094 7.19072 4.33594 6.75244 4.93828C6.29775 5.56875 6.00244 6.26953 5.89228 6.98672H5.76338V7.01016C5.68838 6.99609 5.60635 6.98672 5.5126 6.98672C5.03682 6.98672 4.59385 7.1625 4.26807 7.48594C3.94463 7.80937 3.76416 8.25 3.76416 8.72812V14.2359C3.76416 14.7117 3.93994 15.1523 4.26572 15.4758C4.58916 15.7992 5.03447 15.9797 5.5126 15.9797C5.604 15.9797 5.68603 15.9703 5.76338 15.9562V18.1477C5.76338 18.832 6.32353 19.3922 7.01025 19.3922H7.75791V20.7586C7.75791 21.2344 7.93369 21.675 8.25947 21.9984C8.58291 22.3219 9.02822 22.5023 9.50635 22.5023C9.98213 22.5023 10.4251 22.3266 10.7509 22.0031C11.0743 21.6797 11.2548 21.2391 11.2548 20.7609V19.3969H12.7501V20.7586C12.7501 21.2344 12.9259 21.675 13.2517 21.9984C13.5751 22.3219 14.0204 22.5023 14.4985 22.5023C14.9767 22.5023 15.4173 22.3266 15.7431 21.9961C16.0665 21.6727 16.247 21.232 16.247 20.7539V19.3898H16.9946C17.6813 19.3898 18.2415 18.832 18.2415 18.1453V16.0031C18.3165 16.0172 18.3985 16.0266 18.4923 16.0266C18.9681 16.0266 19.411 15.8508 19.7368 15.5273C20.0603 15.2039 20.2407 14.7633 20.2407 14.2852V8.77734C20.2384 8.30156 20.0626 7.86328 19.7392 7.5375ZM5.76572 14.2875C5.76572 14.4469 5.67432 14.5359 5.51494 14.5359C5.35557 14.5359 5.26416 14.4469 5.26416 14.2875V8.77734C5.26416 8.61797 5.35557 8.52891 5.51494 8.52891C5.67432 8.52891 5.76572 8.61797 5.76572 8.77734V14.2875ZM8.83838 4.9875C9.71728 4.34766 10.8376 3.99609 12.0024 3.99609C13.1673 3.99609 14.2876 4.35 15.1665 4.99219C15.9259 5.54766 16.4368 6.2625 16.636 7.04297H7.36885C7.56807 6.26016 8.08369 5.54297 8.83838 4.9875ZM9.75947 20.8008C9.74541 20.932 9.65635 21.0047 9.51338 21.0047C9.354 21.0047 9.2626 20.9156 9.2626 20.7562V19.3922H9.75947V20.8008ZM14.5009 21.0047C14.3415 21.0047 14.2501 20.9156 14.2501 20.7562V19.3922H14.747V20.8008C14.7329 20.932 14.6462 21.0047 14.5009 21.0047ZM16.7462 17.8969H7.26338V8.53125H16.7462V17.8969ZM18.7431 14.2875C18.7431 14.4469 18.6517 14.5359 18.4923 14.5359C18.3329 14.5359 18.2415 14.4469 18.2415 14.2875V8.77734C18.2415 8.61797 18.3329 8.52891 18.4923 8.52891C18.6517 8.52891 18.7431 8.61797 18.7431 8.77734V14.2875ZM13.5024 5.27812C13.0665 5.27812 12.7524 5.59219 12.7524 6.02578C12.7524 6.45937 13.0688 6.77344 13.5024 6.77344C13.9384 6.77344 14.2548 6.45937 14.2548 6.02344C14.2524 5.5875 13.9407 5.27812 13.5024 5.27812Z" fill="#0C862F"/>
</svg>
