<?xml version="1.0" encoding="utf-8"?>
<!-- Generator: Adobe Illustrator 23.0.2, SVG Export Plug-In . SVG Version: 6.00 Build 0)  -->
<svg version="1.1" id="Layer_2" xmlns="http://www.w3.org/2000/svg" xmlns:xlink="http://www.w3.org/1999/xlink" x="0px" y="0px"
	 viewBox="0 0 60 60" enable-background="new 0 0 60 60" xml:space="preserve">
<g id="Layer_2">
	<g>
		<path fill="#FFFFFF" d="M4.6,29.4c0.6,0.5,0.7,1.2,0.7,2c0,1.4,0,2.8,0,4.2c0,1.3,0.6,1.8,1.8,1.9c1.1,0,1.1,0,1.1,1.3
			c0,0.8,0,0.8-1.2,0.7c-2.5,0-3.9-1.4-4-3.9c0-1.2,0-2.5,0-3.7c0-0.7-0.1-1.5-0.9-1.8c-0.4-0.1-0.4-1.6,0-1.7
			c0.9-0.3,0.9-1.1,1-1.8c0-1.2,0-2.4,0-3.5c0-2.8,1.8-4.4,4.6-4.1c0.3,0,0.5,0.1,0.5,0.5c0,0.2,0,0.5,0,0.8
			c0.1,0.7-0.2,0.8-0.8,0.8c-1.6,0-2.1,0.5-2.1,2.1c0,1.3,0,2.7,0,4c0,0.7-0.1,1.3-0.7,1.8C4.5,29.1,4.4,29.2,4.6,29.4z M24.9,27.7
			c0.2,2.6,0.1,5.3,0.1,7.9c0,0.4-0.2,0.4-0.5,0.4c-0.5,0-1.1,0-1.6,0c-0.8,0.1-1.2-0.1-0.9-1.2c-1.6,1.3-3.2,1.7-4.9,1.2
			c-1.8-0.5-2.9-2.1-2.7-4c0.2-1.8,1.5-3.1,3.4-3.2c1.5-0.1,2.9,0.1,4.1,1.2c0.5-2.3-0.5-3.4-2.8-3.3c-0.9,0.1-1.8,0.4-2.6,1
			c-0.3,0.2-0.4,0.2-0.7-0.1c-1-1.5-0.9-1.9,0.8-2.6c1.9-0.8,3.8-1,5.7-0.4C23.8,25.2,24.7,26.2,24.9,27.7z M21.9,32.6
			c0-0.4,0-0.9-0.4-1.1c-1-0.6-2-0.8-3.2-0.4c-0.7,0.3-1,0.8-1,1.5c0,0.7,0.4,1.2,1,1.4c0.9,0.4,1.9,0.2,2.8-0.2
			C21.7,33.6,22,33.2,21.9,32.6z M39,27.4c0.7,1.9,0.7,3.9,0,5.8c-1.3,3.4-5.2,4.2-7.8,1.8c-0.1,0-0.1-0.1-0.3-0.2
			c0,1.7,0,3.3,0,4.9c0,0.6-0.1,0.9-0.8,0.8c-0.8-0.1-1.6,0.2-2.3-0.2c0-5.2,0-10.3,0-15.5c0.9-0.2,1.8-0.1,2.6-0.1
			c0.8,0,0.2,0.8,0.6,1.2c0.8-0.7,1.7-1.3,2.8-1.5C36.1,24.1,38.1,25.2,39,27.4z M35.7,28c-0.7-0.9-2-1.3-3.2-0.8
			c-1.3,0.5-1.6,0.9-1.6,2.4c0,0.2,0,0.5,0,0.7c0,0.5,0,1.1,0,1.6c0,0.2,0,0.5,0.2,0.7c1,1.4,3.4,1.4,4.5,0.1
			C36.6,31.4,36.6,29.2,35.7,28z M42.3,24.6c-0.5,0-0.7,0.2-0.7,0.7c0,1.6,0,3.3,0,5c0,1.2,0,2.4,0,3.5c0,2.3,0,2.3,2.2,2.3
			c0.6,0,0.8-0.2,0.8-0.8c0-2.8,0-5.6,0-8.4C44.7,24.5,44.7,24.5,42.3,24.6z M43.2,19.8c-1,0-1.8,0.7-1.8,1.7c0,1,0.8,1.9,1.8,1.9
			c1,0,1.8-0.8,1.8-1.8C45,20.6,44.2,19.8,43.2,19.8z M57.6,28.3c-0.6-0.3-0.8-0.8-0.9-1.4c0-0.8,0-1.6,0-2.4c0,0,0,0,0,0
			c0-0.6,0-1.2,0-1.8c-0.1-2.6-2.1-4.2-4.7-3.8c-0.1,0-0.4,0-0.4,0.2c0,0.6-0.1,1.1,0,1.6c0.1,0.4,0.6,0.2,0.9,0.2c1.4,0,2,0.5,2,2
			c0,1.3,0,2.6,0,3.9c0,0.8,0,1.6,0.7,2.2c0.2,0.2,0.2,0.3,0,0.4c-0.7,0.6-0.8,1.4-0.8,2.2c0,1.4,0,2.7,0,4.1c0,1.2-0.7,1.7-1.8,1.7
			c-0.2,0-0.4,0-0.6,0c-0.4,0-0.6,0.1-0.6,0.6c0,0.3,0,0.6,0,0.9c0,0.4,0.2,0.5,0.5,0.5c2.9,0.2,4.6-1.3,4.6-4.2c0-1.1,0-2.2,0-3.3
			c0-0.8,0-1.6,1-1.9C58,29.9,58,28.5,57.6,28.3z"/>
	</g>
	<g>
		<path fill="#121D25" d="M4.6,29.4c0.6,0.5,0.7,1.2,0.7,2c0,1.4,0,2.8,0,4.2c0,1.3,0.6,1.8,1.8,1.9c1.1,0,1.1,0,1.1,1.3
			c0,0.8,0,0.8-1.2,0.7c-2.5,0-3.9-1.4-4-3.9c0-1.2,0-2.5,0-3.7c0-0.7-0.1-1.5-0.9-1.8c-0.4-0.1-0.4-1.6,0-1.7
			c0.9-0.3,0.9-1.1,1-1.8c0-1.2,0-2.4,0-3.5c0-2.8,1.8-4.4,4.6-4.1c0.3,0,0.5,0.1,0.5,0.5c0,0.2,0,0.5,0,0.8
			c0.1,0.7-0.2,0.8-0.8,0.8c-1.6,0-2.1,0.5-2.1,2.1c0,1.3,0,2.7,0,4c0,0.7-0.1,1.3-0.7,1.8C4.5,29.1,4.4,29.2,4.6,29.4z M24.9,27.7
			c0.2,2.6,0.1,5.3,0.1,7.9c0,0.4-0.2,0.4-0.5,0.4c-0.5,0-1.1,0-1.6,0c-0.8,0.1-1.2-0.1-0.9-1.2c-1.6,1.3-3.2,1.7-4.9,1.2
			c-1.8-0.5-2.9-2.1-2.7-4c0.2-1.8,1.5-3.1,3.4-3.2c1.5-0.1,2.9,0.1,4.1,1.2c0.5-2.3-0.5-3.4-2.8-3.3c-0.9,0.1-1.8,0.4-2.6,1
			c-0.3,0.2-0.4,0.2-0.7-0.1c-1-1.5-0.9-1.9,0.8-2.6c1.9-0.8,3.8-1,5.7-0.4C23.8,25.2,24.7,26.2,24.9,27.7z M21.9,32.6
			c0-0.4,0-0.9-0.4-1.1c-1-0.6-2-0.8-3.2-0.4c-0.7,0.3-1,0.8-1,1.5c0,0.7,0.4,1.2,1,1.4c0.9,0.4,1.9,0.2,2.8-0.2
			C21.7,33.6,22,33.2,21.9,32.6z M39,27.4c0.7,1.9,0.7,3.9,0,5.8c-1.3,3.4-5.2,4.2-7.8,1.8c-0.1,0-0.1-0.1-0.3-0.2
			c0,1.7,0,3.3,0,4.9c0,0.6-0.1,0.9-0.8,0.8c-0.8-0.1-1.6,0.2-2.3-0.2c0-5.2,0-10.3,0-15.5c0.9-0.2,1.8-0.1,2.6-0.1
			c0.8,0,0.2,0.8,0.6,1.2c0.8-0.7,1.7-1.3,2.8-1.5C36.1,24.1,38.1,25.2,39,27.4z M35.7,28c-0.7-0.9-2-1.3-3.2-0.8
			c-1.3,0.5-1.6,0.9-1.6,2.4c0,0.2,0,0.5,0,0.7c0,0.5,0,1.1,0,1.6c0,0.2,0,0.5,0.2,0.7c1,1.4,3.4,1.4,4.5,0.1
			C36.6,31.4,36.6,29.2,35.7,28z M42.3,24.6c-0.5,0-0.7,0.2-0.7,0.7c0,1.6,0,3.3,0,5c0,1.2,0,2.4,0,3.5c0,2.3,0,2.3,2.2,2.3
			c0.6,0,0.8-0.2,0.8-0.8c0-2.8,0-5.6,0-8.4C44.7,24.5,44.7,24.5,42.3,24.6z M43.2,19.8c-1,0-1.8,0.7-1.8,1.7c0,1,0.8,1.9,1.8,1.9
			c1,0,1.8-0.8,1.8-1.8C45,20.6,44.2,19.8,43.2,19.8z M57.6,28.3c-0.6-0.3-0.8-0.8-0.9-1.4c0-0.8,0-1.6,0-2.4c0,0,0,0,0,0
			c0-0.6,0-1.2,0-1.8c-0.1-2.6-2.1-4.2-4.7-3.8c-0.1,0-0.4,0-0.4,0.2c0,0.6-0.1,1.1,0,1.6c0.1,0.4,0.6,0.2,0.9,0.2c1.4,0,2,0.5,2,2
			c0,1.3,0,2.6,0,3.9c0,0.8,0,1.6,0.7,2.2c0.2,0.2,0.2,0.3,0,0.4c-0.7,0.6-0.8,1.4-0.8,2.2c0,1.4,0,2.7,0,4.1c0,1.2-0.7,1.7-1.8,1.7
			c-0.2,0-0.4,0-0.6,0c-0.4,0-0.6,0.1-0.6,0.6c0,0.3,0,0.6,0,0.9c0,0.4,0.2,0.5,0.5,0.5c2.9,0.2,4.6-1.3,4.6-4.2c0-1.1,0-2.2,0-3.3
			c0-0.8,0-1.6,1-1.9C58,29.9,58,28.5,57.6,28.3z"/>
	</g>
</g>
</svg>
