<?xml version="1.0" encoding="utf-8"?>
<!-- Generator: Adobe Illustrator 24.0.3, SVG Export Plug-In . SVG Version: 6.00 Build 0)  -->
<svg version="1.1" id="Layer_1" xmlns="http://www.w3.org/2000/svg" xmlns:xlink="http://www.w3.org/1999/xlink" x="0px" y="0px"
	 viewBox="0 0 60 60" style="enable-background:new 0 0 60 60;" xml:space="preserve">
<path d="M1,30c0-6.8,0-13.7,0-20.6c0-4.6,2.8-8.2,7.3-9.2C9,0,9.8,0,10.6,0c5.7,0,11.3,0,16.9,0c1.9,0,3.5,0.5,4.8,1.7
	c0.6,0.5,1.3,1.1,1.9,1.7c3.2,3.2,6.4,6.4,9.6,9.6c0.6,0.6,1.2,1.4,1.7,2c1.1,1.4,1.5,2.8,1.5,4.5c0,10.3,0,20.5,0,30.8
	c0,2.4-0.6,4.5-2.2,6.4c-1.9,2.2-4.2,3.3-7.1,3.3c-2,0-4.1,0-6.1,0c-7.1,0-14.1,0-21.2,0c-4.2,0-7.6-2.4-8.8-6.2
	c-0.3-1.1-0.5-2.3-0.5-3.5C1,43.5,1,36.7,1,30z M4.5,30c0,6.7,0,13.6,0,20.3c0,3.2,3.9,6.2,7.1,6.2c8.9,0,16.8,0,25.7,0
	c3.2,0,6.1-2.9,6.1-6.1c0-9.8,0-19.5,0-29.3c0-1.7-1.5-3.3-3.2-3.6c-0.3-0.1-0.7-0.1-1.1-0.1c-2.6,0-4.2,0-6.8-0.1
	c-1.9,0-2.7,0.2-2.7-1.7c0-2.6,0-5.2,0-7.8c0-0.6-0.1-2.3-0.2-2.9c-0.3-0.9-1.9-1.4-2.9-1.4c-5.3,0-10.5,0-15.8,0
	c-0.5,0-1.1,0-1.6,0.2C6.9,4.3,4.6,7.1,4.6,9.5C4.5,16.3,4.5,23.2,4.5,30z M19.4,23.4c-0.3,0-0.7,0.3-0.7,0.6c0,0.4,0.2,0.6,0.6,0.6
	c0.4,0.1,0.7-0.2,0.7-0.6C20,23.7,19.8,23.4,19.4,23.4z M39,19.2c-0.3-0.1-0.7-0.1-1-0.1c-2.4,0-3.9,0-6.3-0.1
	c-1.8,0-3.5-0.8-3.5-2.7c0-2.5,0-4.9,0-7.4c0-0.6-0.1-2.2-0.2-2.8c-0.3-0.9-1.8-1.3-2.7-1.3c-4.9,0-8.8,0-13.6,0c-0.5,0-1,0-1.5,0.2
	c-2,0.5-4.1,3.2-4.1,5.5C6,17.1,6,23.6,6,30.2c0,6.4,0,13,0,19.4c0,3,3.6,5.9,6.5,5.9c8.3,0,15.6,0,23.9,0c2.9,0,5.6-2.8,5.6-5.8
	c0-9.4,0-17.6,0-27C42,21.1,40.6,19.5,39,19.2z M15.2,32.2c0,1.1,0,2.2,0,3.3c0,0.7-0.5,1.2-1.1,1.4c-0.6,0.2-1.3,0-1.6-0.6
	c-0.2-0.3-0.3-0.6-0.3-0.9c0-2.2,0-4.3,0-6.5c0-0.9,0.6-1.5,1.5-1.5c0.9,0,1.5,0.6,1.5,1.5C15.2,30,15.2,31.1,15.2,32.2z M19.3,21.6
	c-0.4-0.8-0.9-1.5-1.2-2.3c0.1,0,0.1-0.1,0.2-0.1c0.4,0.7,0.9,1.5,1.3,2.2c0.6-0.2,1.2-0.4,1.9-0.5c1.3-0.3,2.5-0.1,3.7,0.4
	c0.3,0.1,0.5,0.1,0.6-0.2c0.3-0.5,0.6-1,0.9-1.5c0.1-0.1,0.2-0.2,0.4-0.3c-0.2,0.9-0.8,1.5-1.1,2.3c2,1.3,3.3,3,3.5,5.5
	C24.9,27,20.4,27,15.8,27C16.1,24.6,17.3,22.8,19.3,21.6z M29.6,28.3c0,3.1,0,6.2,0,9.3c0,1.2-0.6,1.8-1.8,1.8c-1,0-1,0-1,1
	c0,0.8,0,1.6,0,2.4c0,0.9-0.6,1.5-1.5,1.5s-1.5-0.6-1.5-1.5c0-1,0-2,0-2.9c0-0.4-0.1-0.5-0.5-0.5c-0.7-0.1-1.2-0.1-1.8-0.1
	c0,1.2,0,2.3,0,3.4c0,0.7-0.4,1.2-1,1.4c-0.6,0.2-1.4,0.1-1.7-0.5c-0.2-0.3-0.3-0.7-0.3-1.1c-0.1-0.9,0-1.9,0-2.8
	c0-0.3-0.1-0.4-0.4-0.4c-1.9,0-2.2-0.4-2.2-2.3c0-2.9,0-5.8,0-8.7c0-0.2,0-0.4,0-0.6c4.6,0,9.1,0,13.7,0
	C29.6,27.9,29.6,28.1,29.6,28.3z M33.1,32.2c0,1.1,0,2.1,0,3.2c0,0.9-0.6,1.6-1.5,1.6c-0.9,0-1.5-0.6-1.5-1.5c0-1.5,0-2.9,0-4.4
	c0-0.7,0-1.4,0-2.1c0-0.9,0.7-1.6,1.5-1.6c0.9,0,1.5,0.7,1.5,1.6C33.1,30.1,33.1,31.1,33.1,32.2z M25.7,23.4c-0.3,0-0.6,0.3-0.6,0.6
	c0,0.4,0.2,0.6,0.5,0.6c0.4,0,0.7-0.3,0.7-0.6C26.3,23.7,26,23.4,25.7,23.4z M45.3,8c-0.1-0.4-0.1-0.6-0.2-0.8l-0.2-0.6h-2.2
	l-0.2,0.6c-0.1,0.3-0.2,0.5-0.2,0.8h-1.8c0.1-0.2,0.2-0.4,0.4-0.9l1.6-4.6c0.1-0.4,0.2-0.6,0.2-0.8h2c0.1,0.2,0.1,0.4,0.3,0.8
	l1.7,4.6C46.8,7.5,47,7.8,47.1,8C47.1,8,45.3,8,45.3,8z M43.8,3l-0.7,2.2h1.4L43.8,3z M47.6,8c0-0.3,0.1-0.7,0.1-1.1V2.7
	c0-0.4,0-0.8-0.1-1.1c0.4,0,0.6,0,1.1,0h1.7c1.5,0,2.3,0.7,2.3,2c0,1.4-0.9,2.2-2.3,2.2h-1.2v1c0,0.4,0,0.8,0.1,1.2
	C49.3,8,47.6,8,47.6,8z M50.3,4.6c0.5,0,0.8-0.3,0.8-0.8S50.8,3,50.3,3h-1.1v1.6H50.3z M58.6,6.9C59,7.6,59.1,7.7,59.4,8h-2
	c-0.1-0.2-0.3-0.6-0.5-1l-1.2-1.9l-0.8,0.8v1c0,0.5,0,0.7,0.1,1.1h-1.6c0-0.4,0.1-0.7,0.1-1.1V2.8c0-0.5,0-0.8-0.1-1.1H55
	c0,0.4-0.1,0.6-0.1,1.1v1.3l1.5-1.6c0.4-0.3,0.6-0.6,0.7-0.8h2.1C59.1,1.8,59,1.9,58.9,2c-0.4,0.4-0.4,0.4-0.5,0.5l-1.6,1.7
	L58.6,6.9z"/>
</svg>
