<svg width="18" height="18" viewBox="0 0 18 18" fill="none" xmlns="http://www.w3.org/2000/svg">
  <path d="M9.09 12.6225C9.09 12.7215 9.1665 12.8025 9.25875 12.8025H13.4213C13.5135 12.8025 13.59 12.7215 13.59 12.6225V11.5425C13.59 11.4435 13.5135 11.3625 13.4213 11.3625H9.25875C9.1665 11.3625 9.09 11.4435 9.09 11.5425V12.6225ZM4.70475 12.7598L9.02475 9.13725C9.11025 9.06525 9.11025 8.9325 9.02475 8.8605L4.70475 5.24025C4.67867 5.21807 4.64678 5.20385 4.61285 5.19926C4.57893 5.19467 4.5444 5.19991 4.51336 5.21436C4.48233 5.22881 4.45609 5.25186 4.43777 5.28078C4.41945 5.3097 4.40981 5.34327 4.41 5.3775V6.78825C4.41 6.84225 4.4325 6.89175 4.47525 6.9255L6.94575 9L4.47525 11.0745C4.45514 11.0913 4.4389 11.1123 4.42764 11.136C4.41638 11.1597 4.41036 11.1855 4.41 11.2118V12.6225C4.41 12.7755 4.58775 12.8588 4.70475 12.7598ZM17.28 0H0.72C0.32175 0 0 0.32175 0 0.72V17.28C0 17.6783 0.32175 18 0.72 18H17.28C17.6783 18 18 17.6783 18 17.28V0.72C18 0.32175 17.6783 0 17.28 0ZM16.38 16.38H1.62V1.62H16.38V16.38Z" fill="#24292E"/>
</svg>
