<svg width="32" height="32" viewBox="0 0 32 32" fill="none" xmlns="http://www.w3.org/2000/svg">
<path d="M27 2H5C3.344 2 2 3.344 2 5V27C2 28.656 3.344 30 5 30H27C28.656 30 30 28.656 30 27V5C30 3.344 28.656 2 27 2ZM9.938 24.031C9.77224 24.3177 9.49938 24.5268 9.17944 24.6123C8.8595 24.6978 8.5187 24.6528 8.232 24.487C7.9453 24.3212 7.73619 24.0484 7.65068 23.7284C7.56516 23.4085 7.61024 23.0677 7.776 22.781L8.67 21.237C9.676 20.931 10.501 21.168 11.145 21.949L9.938 24.031ZM18.619 20.663H7.25C6.562 20.663 6 20.1 6 19.413C6 18.726 6.563 18.163 7.25 18.163H10.438L14.525 11.088L13.244 8.876C13.0791 8.5891 13.0346 8.24859 13.12 7.92891C13.2054 7.60924 13.414 7.33639 13.7 7.17C13.9869 7.00514 14.3274 6.96055 14.6471 7.046C14.9668 7.13145 15.2396 7.33997 15.406 7.626L15.962 8.588L16.518 7.626C16.6001 7.48404 16.7093 7.35964 16.8395 7.25989C16.9696 7.16015 17.1181 7.08702 17.2766 7.04468C17.435 7.00233 17.6002 6.99161 17.7627 7.01311C17.9253 7.03461 18.082 7.08792 18.224 7.17C18.366 7.25208 18.4904 7.36131 18.5901 7.49146C18.6898 7.62162 18.763 7.77014 18.8053 7.92856C18.8477 8.08698 18.8584 8.25218 18.8369 8.41474C18.8154 8.57731 18.7621 8.73404 18.68 8.876L13.318 18.164H17.199C18.461 18.164 19.168 19.645 18.618 20.664L18.619 20.663ZM24.75 20.663H22.937L24.162 22.782C24.506 23.382 24.299 24.145 23.706 24.488C23.106 24.832 22.343 24.625 22 24.032C19.944 20.476 18.406 17.801 17.375 16.026C16.331 14.213 17.075 12.401 17.819 11.789C18.638 13.208 19.863 15.333 21.5 18.164H24.75C25.0815 18.164 25.3995 18.2957 25.6339 18.5301C25.8683 18.7645 26 19.0825 26 19.414C26 19.7455 25.8683 20.0635 25.6339 20.2979C25.3995 20.5323 25.0815 20.664 24.75 20.664V20.663Z" fill="#2B5467"/>
</svg>
