<svg width="20" height="20" viewBox="0 0 20 20" fill="none" xmlns="http://www.w3.org/2000/svg">
<mask id="mask0_136_2689" style="mask-type:alpha" maskUnits="userSpaceOnUse" x="0" y="0" width="20" height="20">
<rect width="20" height="20" fill="#D9D9D9"/>
</mask>
<g mask="url(#mask0_136_2689)">
<path d="M2.0835 14.75V5.25C2.0835 4.83333 2.22933 4.47917 2.521 4.1875C2.81266 3.89583 3.16683 3.75 3.5835 3.75H16.4168C16.8335 3.75 17.1877 3.89583 17.4793 4.1875C17.771 4.47917 17.9168 4.83333 17.9168 5.25V14.75C17.9168 15.1667 17.771 15.5208 17.4793 15.8125C17.1877 16.1042 16.8335 16.25 16.4168 16.25H3.5835C3.16683 16.25 2.81266 16.1042 2.521 15.8125C2.22933 15.5208 2.0835 15.1667 2.0835 14.75ZM16.6668 9.375V5.25C16.6668 5.18056 16.6427 5.12167 16.5943 5.07333C16.5454 5.02444 16.4863 5 16.4168 5H3.5835C3.51405 5 3.45516 5.02444 3.40683 5.07333C3.35794 5.12167 3.3335 5.18056 3.3335 5.25V9.375H16.6668ZM8.0835 15H16.4168C16.4863 15 16.5454 14.9758 16.5943 14.9275C16.6427 14.8786 16.6668 14.8194 16.6668 14.75V10.625H8.0835V15ZM3.5835 15H6.8335V10.625H3.3335V14.75C3.3335 14.8194 3.35794 14.8786 3.40683 14.9275C3.45516 14.9758 3.51405 15 3.5835 15Z" fill="#4B5768"/>
</g>
</svg>
