<?xml version="1.0" encoding="UTF-8"?>
<svg width="60px" height="60px" viewBox="0 0 60 60" version="1.1" xmlns="http://www.w3.org/2000/svg" xmlns:xlink="http://www.w3.org/1999/xlink">
    <!-- Generator: Sketch 55.2 (78181) - https://sketchapp.com -->
    <title>apple ts</title>
    <desc>Created with Sketch.</desc>
    <g id="apple-ts" stroke="none" stroke-width="1" fill="none" fill-rule="evenodd">
        <g id="iconfinder_Apple_367618" transform="translate(4.000000, 0.500000)" fill="#000000" fill-rule="nonzero">
            <path d="M29.3331765,13.7589405 C28.4148905,14.018119 27.1168277,14.2182976 25.4570025,14.3601786 C25.5317175,10.8381595 26.4971065,7.80022143 28.3676399,5.25057857 C30.2037689,2.71737143 33.3054759,0.967038095 37.6780766,0 C37.7052457,0.0677095238 37.7403883,0.203269048 37.7740544,0.391507143 C37.8080157,0.579745238 37.8418295,0.708842857 37.8692939,0.77992381 C37.8692939,0.873480952 37.8759385,0.99302619 37.889523,1.13490714 C37.896463,1.27805238 37.9031076,1.39422619 37.9031076,1.49199762 C37.9031076,2.93356429 37.5423787,4.53864524 36.82225,6.31145476 C36.0805631,8.08426429 34.9238092,9.71505238 33.3598141,11.2039595 C32.0198165,12.4776571 30.6730265,13.3317524 29.3331765,13.7589405 Z M46.0297689,38.6121286 C44.3166391,36.2755881 43.4596313,33.635619 43.4596313,30.7052857 C43.4596313,28.0331476 44.2625962,25.5867548 45.8806342,23.3676524 C46.7512266,22.15745 48.1659393,20.7663143 50.1309739,19.1818833 C48.8386698,17.667269 47.5472517,16.4903595 46.2549476,15.6361238 C43.9151566,14.1021238 41.269418,13.3318929 38.3113824,13.3318929 C36.5495254,13.3318929 34.3999181,13.7330929 31.8703864,14.5356333 C29.4360942,15.3446357 27.6537128,15.7416214 26.5380078,15.7416214 C25.6944368,15.7416214 23.9811594,15.389869 21.3962559,14.6787786 C18.7853646,13.9688119 16.588359,13.616919 14.7994806,13.616919 C10.5216765,13.616919 6.99840545,15.3176643 4.20988138,18.7214024 C1.40112814,22.1703738 0,26.5960762 0,31.9791238 C0,37.7064786 1.82963208,43.6456714 5.4819563,49.8183357 C9.1819741,55.9394452 12.9224502,59 16.6968877,59 C17.9621704,59 19.6075251,58.5986595 21.6146423,57.7962595 C23.6273705,57.0142286 25.3957244,56.6246881 26.9120259,56.6246881 C28.5247482,56.6246881 30.4016308,57.0032714 32.53662,57.7573476 C34.794756,58.5147952 36.5360885,58.8923952 37.7539729,58.8923952 C40.9370395,58.8923952 44.1257171,56.5773476 47.3359529,51.9440214 C49.4176374,48.9899476 50.9475235,46.0369976 51.92,43.0829238 C49.70247,42.441931 47.7442277,40.9540071 46.0297689,38.6121286 Z" id="Shape"></path>
        </g>
    </g>
</svg>