<svg width="20" height="19" viewBox="0 0 20 19" fill="none" xmlns="http://www.w3.org/2000/svg">
<path d="M10.7229 5.01175L11.1719 6.39221C11.5971 6.03085 12.0905 5.75864 12.6229 5.59172C13.217 5.3984 13.7416 5.28965 14.2158 5.22723L13.7828 3.8951C13.2429 3.97286 12.7107 4.09682 12.1919 4.26564C11.6663 4.43603 11.1706 4.68779 10.7229 5.01175ZM11.6563 7.88644L12.1053 9.2669C12.5305 8.90555 13.0239 8.63333 13.5563 8.46641C14.1504 8.27309 14.6749 8.16435 15.1492 8.10192L14.7162 6.76979C14.1763 6.84755 13.644 6.97152 13.1253 7.14033C12.5994 7.3101 12.1036 7.56191 11.6563 7.88644ZM12.5907 10.7601L13.0397 12.1406C13.4649 11.7792 13.9583 11.507 14.4907 11.3401C15.0848 11.1468 15.6093 11.038 16.0836 10.9756L15.6506 9.64348C15.1107 9.72123 14.5784 9.8452 14.0597 10.014C13.5338 10.1838 13.038 10.4356 12.5907 10.7601ZM5.47996 12.9471L5.91292 14.2792C6.39277 14.0197 6.89569 13.8053 7.41521 13.6388C7.94411 13.4614 8.50323 13.3919 9.05948 13.4344L8.6104 12.054C8.05816 12.0548 7.50946 12.1421 6.98426 12.3128C6.4655 12.4805 5.9622 12.6928 5.47996 12.9471ZM3.61216 7.19873L4.04513 8.53086C4.52517 8.27173 5.02806 8.05736 5.54742 7.89047C6.07631 7.71302 6.63544 7.64352 7.19168 7.68607L6.74361 6.30461C6.191 6.30583 5.64199 6.39348 5.11647 6.56438C4.59771 6.73214 4.0944 6.94438 3.61216 7.19873ZM4.54556 10.0734L4.97852 11.4055C5.45837 11.146 5.96129 10.9316 6.48081 10.7652C7.00971 10.5877 7.56883 10.5182 8.12508 10.5608L7.67701 9.1793C7.12477 9.18009 6.57607 9.2674 6.05087 9.43807C5.53175 9.60615 5.02811 9.81872 4.54556 10.0734ZM11.1951 1.19964C9.87224 1.62228 8.76829 2.54759 8.12105 3.77629C6.8755 3.16292 5.43882 3.06348 4.12064 3.49939C1.58024 4.32505 0.124268 6.14451 0.124268 6.14451L4.24751 18.8183C4.37438 19.208 4.89797 19.2986 5.13157 18.9623C5.63401 18.2384 6.60164 17.2929 8.41103 16.7048C10.1409 16.143 11.4005 16.7592 12.0912 17.2868C12.3651 17.4963 12.7578 17.3472 12.8585 17.017C13.1122 16.1843 13.7718 14.9629 15.4865 14.4061C17.2979 13.8171 18.6371 14.0144 19.4698 14.3054C19.8574 14.4403 20.225 14.0617 20.0991 13.6721L15.9829 0.991208C15.9829 0.991208 13.7355 0.374987 11.1951 1.19964ZM11.0813 15.1411C10.0477 14.83 8.9432 14.8455 7.91866 15.1854C6.65903 15.5942 5.77699 16.141 5.20105 16.5991L1.93366 6.54827C2.29413 6.18781 3.12885 5.49909 4.61402 5.01678C6.0126 4.56267 7.15946 4.95134 7.91564 5.39739L11.0813 15.1411ZM18.0229 12.4336C17.2868 12.4014 16.2517 12.4779 14.9921 12.8877C13.9634 13.2145 13.0608 13.851 12.4074 14.7102L9.24172 4.96644C9.59011 4.16092 10.2889 3.17215 11.6885 2.71804C13.1727 2.23573 14.2531 2.30219 14.7565 2.38173L18.0229 12.4336Z" fill="#6A737D"/>
</svg>
