<svg width="14" height="16" viewBox="0 0 14 16" fill="none" xmlns="http://www.w3.org/2000/svg">
<path d="M9.50199 5.26942L5.00478 9.76375C4.92884 9.83703 4.86827 9.9247 4.8266 10.0216C4.78492 10.1186 4.76299 10.2228 4.76207 10.3283C4.76115 10.4338 4.78127 10.5384 4.82125 10.636C4.86123 10.7337 4.92027 10.8224 4.99493 10.897C5.06958 10.9716 5.15836 11.0306 5.25608 11.0705C5.3538 11.1105 5.4585 11.1306 5.56407 11.1296C5.66965 11.1287 5.77398 11.1068 5.87099 11.0652C5.968 11.0235 6.05574 10.963 6.12909 10.8871L10.6271 6.3936C11.0745 5.94658 11.3258 5.3403 11.3258 4.70812C11.3258 4.07595 11.0745 3.46967 10.6271 3.02265C10.1797 2.57564 9.57293 2.32451 8.94024 2.32451C8.30755 2.32451 7.70077 2.57564 7.25339 3.02265L2.75538 7.51698C2.37855 7.88413 2.07844 8.32238 1.87244 8.80632C1.66645 9.29027 1.55868 9.81026 1.55538 10.3361C1.55208 10.862 1.65333 11.3833 1.85323 11.8698C2.05314 12.3563 2.34774 12.7983 2.71993 13.1701C3.09213 13.542 3.53451 13.8362 4.02142 14.0359C4.50833 14.2356 5.03007 14.3367 5.55639 14.3333C6.0827 14.3299 6.60311 14.2222 7.08741 14.0163C7.57172 13.8104 8.0103 13.5105 8.37769 13.1339L12.8757 8.64036L14 9.76375L9.50199 14.2581C8.98513 14.7745 8.37152 15.1842 7.69621 15.4637C7.02089 15.7432 6.2971 15.887 5.56614 15.887C4.83518 15.887 4.11138 15.7432 3.43607 15.4637C2.76075 15.1842 2.14715 14.7745 1.63028 14.2581C1.11342 13.7416 0.703422 13.1285 0.423697 12.4538C0.143972 11.779 -5.44604e-09 11.0558 0 10.3254C5.44605e-09 9.59508 0.143972 8.87187 0.423697 8.19711C0.703422 7.52235 1.11342 6.90924 1.63028 6.3928L6.12909 1.89927C6.87889 1.17567 7.88314 0.775279 8.92554 0.78433C9.96793 0.793381 10.9651 1.21115 11.7022 1.94766C12.4393 2.68417 12.8574 3.68048 12.8664 4.72202C12.8755 5.76356 12.4748 6.76699 11.7506 7.51618L7.25339 12.0121C7.03182 12.2334 6.76878 12.409 6.4793 12.5288C6.18982 12.6485 5.87957 12.7102 5.56626 12.7101C5.25294 12.7101 4.9427 12.6484 4.65325 12.5286C4.3638 12.4087 4.10081 12.2331 3.87929 12.0117C3.65777 11.7903 3.48206 11.5275 3.36219 11.2383C3.24232 10.949 3.18065 10.639 3.18069 10.326C3.18072 10.0129 3.24247 9.70291 3.36241 9.41369C3.48234 9.12448 3.65811 8.8617 3.87969 8.64036L8.37769 4.14603L9.50199 5.26942Z" fill="#606060"/>
</svg>
