<?xml version="1.0" encoding="UTF-8"?>
<svg width="60px" height="60px" viewBox="0 0 60 60" version="1.1" xmlns="http://www.w3.org/2000/svg" xmlns:xlink="http://www.w3.org/1999/xlink">
    <!-- Generator: Sketch 59 (86127) - https://sketch.com -->
    <title>award</title>
    <desc>Created with Sketch.</desc>
    <g id="award" stroke="none" stroke-width="1" fill="none" fill-rule="evenodd">
        <path d="M18.6915673,42.2875385 C17.6902005,41.2861717 18.2122019,41.5684903 15.7969375,40.9220384 C14.7010804,40.6281966 13.7377402,40.0635594 12.8665857,39.3871471 L7.63850615,52.2055637 C7.13263732,53.4466132 8.07754038,54.7948286 9.41653716,54.7441264 L15.4881155,54.51251 L19.6641261,58.923594 C20.5859827,59.8961528 22.2038411,59.5930924 22.70971,58.3520429 L28.7075398,43.6461248 C27.458424,44.3421265 26.0721821,44.7500481 24.638695,44.7500481 C22.3916694,44.7500481 20.2806177,43.8754366 18.6915673,42.2875385 Z M51.6110681,52.2055637 L46.3829886,39.3871471 C45.5118341,40.0647117 44.5484939,40.6281966 43.4526368,40.9220384 C41.0246969,41.5719473 41.5570691,41.2884764 40.5580069,42.2875385 C38.9689566,43.8754366 36.8567525,44.7500481 34.6097269,44.7500481 C33.1762399,44.7500481 31.7899979,44.3409742 30.5408822,43.6461248 L36.538712,58.3520429 C37.0445808,59.5930924 38.6635915,59.8961528 39.5842959,58.923594 L43.7614588,54.51251 L49.8330371,54.7441264 C51.1720339,54.7948286 52.116937,53.4454609 51.6110681,52.2055637 L51.6110681,52.2055637 Z M37.8062649,39.6798365 C39.5670111,37.8879777 39.7686672,38.0423887 42.2761173,37.3590624 C43.8766909,36.9223329 45.1281113,35.6490184 45.5567746,34.0196367 C46.4187106,30.7470457 46.1951603,31.1422917 48.5470471,28.7477691 C49.7189574,27.555117 50.1764287,25.8162649 49.7477654,24.1868833 C48.8869817,20.9165969 48.8858294,21.3729159 49.7477654,18.0991725 C50.1764287,16.4697909 49.7189574,14.7309388 48.5470471,13.5382867 C46.1951603,11.1437641 46.4187106,11.5378578 45.5567746,8.26641904 C45.1281113,6.63703742 43.8766909,5.36372293 42.2761173,4.92699335 C39.0634469,4.05007721 39.4506266,4.27938905 37.0964352,1.8837141 C35.924525,0.691062064 34.2156332,0.224372137 32.6150596,0.661101723 C29.4035415,1.53686554 29.8517943,1.53801786 26.6345146,0.661101723 C25.033941,0.224372137 23.3250493,0.689909743 22.153139,1.8837141 C19.8012523,4.27823673 20.1884321,4.05007721 16.9746093,4.92699335 C15.3740357,5.36372293 14.1226153,6.63703742 13.693952,8.26641904 C12.8331683,11.5378578 13.0555663,11.1437641 10.7036795,13.5382867 C9.53176924,14.7309388 9.07314556,16.4697909 9.50296122,18.0991725 C10.3637449,21.3671543 10.3648972,20.9108352 9.50296122,24.185731 C9.07429788,25.8151126 9.53176924,27.5539647 10.7036795,28.7477691 C13.0555663,31.1422917 12.832016,30.7470457 13.693952,34.0196367 C14.1226153,35.6490184 15.3740357,36.9223329 16.9746093,37.3590624 C19.5535033,38.0619781 19.7459409,37.9513553 21.4433094,39.6798365 C22.9678298,41.2320127 25.342763,41.509722 27.1749531,40.3504872 C28.6705888,39.4009812 30.5801377,39.4009812 32.0757735,40.3504872 C33.9068113,41.509722 36.2817444,41.2320127 37.8062649,39.6798365 Z M18.7537926,20.777166 C18.7537926,14.6664088 23.6211957,9.71258165 29.6247871,9.71258165 C35.6283785,9.71258165 40.4957816,14.6664088 40.4957816,20.777166 C40.4957816,26.8879233 35.6283785,31.8417504 29.6247871,31.8417504 C23.6211957,31.8417504 18.7537926,26.8879233 18.7537926,20.777166 L18.7537926,20.777166 Z" id="Shape" fill="#000000" fill-rule="nonzero"></path>
    </g>
</svg>