<svg width="16" height="16" viewBox="0 0 16 16" fill="none" xmlns="http://www.w3.org/2000/svg">
<path fill-rule="evenodd" clip-rule="evenodd" d="M8.00001 0C7.31001 0 6.15701 0.265 5.07201 0.56C3.96201 0.86 2.84301 1.215 2.18501 1.43C1.9099 1.52085 1.666 1.68747 1.48132 1.9107C1.29665 2.13394 1.17869 2.40474 1.14101 2.692C0.545005 7.169 1.92801 10.487 3.60601 12.682C4.31759 13.621 5.16603 14.4478 6.12301 15.135C6.50901 15.408 6.86701 15.617 7.17101 15.76C7.45101 15.892 7.75201 16 8.00001 16C8.24801 16 8.54801 15.892 8.82901 15.76C9.19549 15.5819 9.5461 15.3728 9.87701 15.135C10.834 14.4479 11.6824 13.621 12.394 12.682C14.072 10.487 15.455 7.169 14.859 2.692C14.8214 2.4046 14.7035 2.13364 14.5188 1.91023C14.3341 1.68683 14.0902 1.52003 13.815 1.429C12.8598 1.11581 11.8972 0.825729 10.928 0.559C9.84301 0.266 8.69001 0 8.00001 0ZM8.00001 5C8.35424 4.99947 8.69724 5.12433 8.96824 5.35246C9.23924 5.58059 9.42076 5.89727 9.48065 6.24641C9.54054 6.59555 9.47493 6.95462 9.29544 7.26002C9.11595 7.56542 8.83417 7.79745 8.50001 7.915L8.88501 9.905C8.89901 9.97738 8.89684 10.052 8.87865 10.1234C8.86045 10.1948 8.82668 10.2614 8.77976 10.3182C8.73284 10.3751 8.67392 10.4209 8.60723 10.4523C8.54054 10.4837 8.46773 10.5 8.39401 10.5H7.60601C7.53237 10.4999 7.45967 10.4835 7.3931 10.452C7.32653 10.4205 7.26774 10.3747 7.22093 10.3179C7.17412 10.261 7.14044 10.1945 7.1223 10.1232C7.10416 10.0518 7.10201 9.9773 7.11601 9.905L7.50001 7.915C7.16584 7.79745 6.88406 7.56542 6.70457 7.26002C6.52508 6.95462 6.45947 6.59555 6.51936 6.24641C6.57925 5.89727 6.76077 5.58059 7.03177 5.35246C7.30277 5.12433 7.64577 4.99947 8.00001 5Z" fill="#1AA874"/>
</svg>
