<svg width="20" height="20" viewBox="0 0 20 20" fill="none" xmlns="http://www.w3.org/2000/svg">
<g clip-path="url(#clip0_790:143)">
<path d="M3.125 5C3.29076 5 3.44973 4.93415 3.56694 4.81694C3.68415 4.69973 3.75 4.54076 3.75 4.375C3.75 4.20924 3.68415 4.05027 3.56694 3.93306C3.44973 3.81585 3.29076 3.75 3.125 3.75C2.95924 3.75 2.80027 3.81585 2.68306 3.93306C2.56585 4.05027 2.5 4.20924 2.5 4.375C2.5 4.54076 2.56585 4.69973 2.68306 4.81694C2.80027 4.93415 2.95924 5 3.125 5ZM5.625 4.375C5.625 4.54076 5.55915 4.69973 5.44194 4.81694C5.32473 4.93415 5.16576 5 5 5C4.83424 5 4.67527 4.93415 4.55806 4.81694C4.44085 4.69973 4.375 4.54076 4.375 4.375C4.375 4.20924 4.44085 4.05027 4.55806 3.93306C4.67527 3.81585 4.83424 3.75 5 3.75C5.16576 3.75 5.32473 3.81585 5.44194 3.93306C5.55915 4.05027 5.625 4.20924 5.625 4.375ZM6.875 5C7.04076 5 7.19973 4.93415 7.31694 4.81694C7.43415 4.69973 7.5 4.54076 7.5 4.375C7.5 4.20924 7.43415 4.05027 7.31694 3.93306C7.19973 3.81585 7.04076 3.75 6.875 3.75C6.70924 3.75 6.55027 3.81585 6.43306 3.93306C6.31585 4.05027 6.25 4.20924 6.25 4.375C6.25 4.54076 6.31585 4.69973 6.43306 4.81694C6.55027 4.93415 6.70924 5 6.875 5Z" fill="#0C862F"/>
<path d="M2.5 1.25C1.83696 1.25 1.20107 1.51339 0.732233 1.98223C0.263392 2.45107 0 3.08696 0 3.75L0 16.25C0 16.913 0.263392 17.5489 0.732233 18.0178C1.20107 18.4866 1.83696 18.75 2.5 18.75H17.5C18.163 18.75 18.7989 18.4866 19.2678 18.0178C19.7366 17.5489 20 16.913 20 16.25V3.75C20 3.08696 19.7366 2.45107 19.2678 1.98223C18.7989 1.51339 18.163 1.25 17.5 1.25H2.5ZM18.75 3.75V6.25H1.25V3.75C1.25 3.41848 1.3817 3.10054 1.61612 2.86612C1.85054 2.6317 2.16848 2.5 2.5 2.5H17.5C17.8315 2.5 18.1495 2.6317 18.3839 2.86612C18.6183 3.10054 18.75 3.41848 18.75 3.75ZM2.5 17.5C2.16848 17.5 1.85054 17.3683 1.61612 17.1339C1.3817 16.8995 1.25 16.5815 1.25 16.25V7.5H18.75V16.25C18.75 16.5815 18.6183 16.8995 18.3839 17.1339C18.1495 17.3683 17.8315 17.5 17.5 17.5H2.5Z" fill="#0C862F"/>
</g>
<defs>
<clipPath id="clip0_790:143">
<rect width="20" height="20" fill="white"/>
</clipPath>
</defs>
</svg>
