<svg width="20" height="20" viewBox="0 0 20 20" fill="none" xmlns="http://www.w3.org/2000/svg">
<mask id="mask0_3_146" style="mask-type:alpha" maskUnits="userSpaceOnUse" x="0" y="0" width="20" height="20">
<rect width="20" height="20" fill="#D9D9D9"/>
</mask>
<g mask="url(#mask0_3_146)">
<path d="M11.625 7.375C11.625 7.29166 11.6561 7.20139 11.7183 7.10416C11.7811 7.00694 11.8542 6.9375 11.9375 6.89583C12.3542 6.72916 12.7814 6.60416 13.2192 6.52083C13.6564 6.4375 14.1111 6.39583 14.5833 6.39583C14.8611 6.39583 15.125 6.41333 15.375 6.44833C15.625 6.48278 15.8819 6.52778 16.1458 6.58333C16.2431 6.59722 16.3264 6.64583 16.3958 6.72916C16.4653 6.8125 16.5 6.90972 16.5 7.02083C16.5 7.21528 16.4408 7.35416 16.3225 7.4375C16.2047 7.52083 16.0556 7.54166 15.875 7.5C15.6667 7.45833 15.455 7.43055 15.24 7.41666C15.0244 7.40277 14.8056 7.39583 14.5833 7.39583C14.1806 7.39583 13.7847 7.43389 13.3958 7.51C13.0069 7.58666 12.6389 7.6875 12.2917 7.8125C12.0972 7.89583 11.9375 7.89583 11.8125 7.8125C11.6875 7.72916 11.625 7.58333 11.625 7.375ZM11.625 11.9375C11.625 11.8403 11.6561 11.7431 11.7183 11.6458C11.7811 11.5486 11.8542 11.4792 11.9375 11.4375C12.3403 11.2708 12.7675 11.1458 13.2192 11.0625C13.6703 10.9792 14.125 10.9375 14.5833 10.9375C14.8611 10.9375 15.125 10.955 15.375 10.99C15.625 11.0244 15.8819 11.0694 16.1458 11.125C16.2431 11.1528 16.3264 11.2083 16.3958 11.2917C16.4653 11.375 16.5 11.4722 16.5 11.5833C16.5 11.7639 16.4408 11.8992 16.3225 11.9892C16.2047 12.0797 16.0556 12.1042 15.875 12.0625C15.6667 12.0208 15.455 11.9894 15.24 11.9683C15.0244 11.9478 14.8056 11.9375 14.5833 11.9375C14.1806 11.9375 13.7883 11.9756 13.4067 12.0517C13.0244 12.1283 12.6597 12.2361 12.3125 12.375C12.1042 12.4583 11.9375 12.4547 11.8125 12.3642C11.6875 12.2742 11.625 12.1319 11.625 11.9375ZM11.625 9.66666C11.625 9.56944 11.6561 9.47222 11.7183 9.375C11.7811 9.27778 11.8542 9.20833 11.9375 9.16666C12.3542 9 12.7814 8.875 13.2192 8.79166C13.6564 8.70833 14.1111 8.66666 14.5833 8.66666C14.8611 8.66666 15.125 8.68389 15.375 8.71833C15.625 8.75333 15.8819 8.79861 16.1458 8.85416C16.2431 8.86805 16.3264 8.92 16.3958 9.01C16.4653 9.10055 16.5 9.20139 16.5 9.3125C16.5 9.49305 16.4408 9.62833 16.3225 9.71833C16.2047 9.80889 16.0556 9.82639 15.875 9.77083C15.6667 9.72916 15.455 9.70139 15.24 9.6875C15.0244 9.67361 14.8056 9.66666 14.5833 9.66666C14.1806 9.66666 13.7883 9.705 13.4067 9.78166C13.0244 9.85778 12.6597 9.96528 12.3125 10.1042C12.1042 10.1875 11.9375 10.1839 11.8125 10.0933C11.6875 10.0033 11.625 9.86111 11.625 9.66666ZM5.41667 13.3542C6.11111 13.3542 6.78472 13.4306 7.4375 13.5833C8.09028 13.7361 8.73611 13.9792 9.375 14.3125V6.125C8.79167 5.75 8.15972 5.46528 7.47917 5.27083C6.79861 5.07639 6.11111 4.97916 5.41667 4.97916C4.91667 4.97916 4.44778 5.02083 4.01 5.10416C3.57278 5.1875 3.125 5.3125 2.66667 5.47916C2.61111 5.50694 2.56944 5.54166 2.54167 5.58333C2.51389 5.625 2.5 5.66666 2.5 5.70833V13.5833C2.5 13.6667 2.52778 13.7256 2.58333 13.76C2.63889 13.795 2.69444 13.7986 2.75 13.7708C3.15278 13.6319 3.57278 13.5278 4.01 13.4583C4.44778 13.3889 4.91667 13.3542 5.41667 13.3542ZM10.625 14.3125C11.2639 13.9792 11.9097 13.7361 12.5625 13.5833C13.2153 13.4306 13.8889 13.3542 14.5833 13.3542C15.0833 13.3542 15.5522 13.3889 15.99 13.4583C16.4272 13.5278 16.8472 13.6319 17.25 13.7708C17.3056 13.7986 17.3611 13.795 17.4167 13.76C17.4722 13.7256 17.5 13.6667 17.5 13.5833V5.70833C17.5 5.66666 17.4861 5.625 17.4583 5.58333C17.4306 5.54166 17.3889 5.50694 17.3333 5.47916C16.875 5.3125 16.4272 5.1875 15.99 5.10416C15.5522 5.02083 15.0833 4.97916 14.5833 4.97916C13.8889 4.97916 13.2014 5.07639 12.5208 5.27083C11.8403 5.46528 11.2083 5.75 10.625 6.125V14.3125ZM10 15.8125C9.83333 15.8125 9.68056 15.7917 9.54167 15.75C9.40278 15.7083 9.27083 15.6528 9.14583 15.5833C8.57639 15.2639 7.97556 15.0208 7.34333 14.8542C6.71167 14.6875 6.06944 14.6042 5.41667 14.6042C4.90278 14.6042 4.40278 14.6597 3.91667 14.7708C3.43056 14.8819 2.95833 15.0486 2.5 15.2708C2.20833 15.4097 1.92722 15.3889 1.65667 15.2083C1.38556 15.0278 1.25 14.7708 1.25 14.4375V5.39583C1.25 5.21528 1.29528 5.045 1.38583 4.885C1.47583 4.72555 1.61111 4.61111 1.79167 4.54166C2.34722 4.26389 2.93417 4.05889 3.5525 3.92666C4.17028 3.795 4.79167 3.72916 5.41667 3.72916C6.22222 3.72916 7.01389 3.84028 7.79167 4.0625C8.56944 4.28472 9.30556 4.61111 10 5.04166C10.6944 4.61111 11.4306 4.28472 12.2083 4.0625C12.9861 3.84028 13.7778 3.72916 14.5833 3.72916C15.2083 3.72916 15.83 3.795 16.4483 3.92666C17.0661 4.05889 17.6528 4.26389 18.2083 4.54166C18.3889 4.61111 18.5242 4.72555 18.6142 4.885C18.7047 5.045 18.75 5.21528 18.75 5.39583V14.4375C18.75 14.7708 18.6111 15.0244 18.3333 15.1983C18.0556 15.3717 17.7639 15.3889 17.4583 15.25C17 15.0417 16.5314 14.8819 16.0525 14.7708C15.5731 14.6597 15.0833 14.6042 14.5833 14.6042C13.9306 14.6042 13.2883 14.6875 12.6567 14.8542C12.0244 15.0208 11.4236 15.2639 10.8542 15.5833C10.7292 15.6528 10.5972 15.7083 10.4583 15.75C10.3194 15.7917 10.1667 15.8125 10 15.8125Z" fill="#45526C"/>
</g>
</svg>
