<svg width="17" height="21" viewBox="0 0 17 21" fill="none" xmlns="http://www.w3.org/2000/svg">
<path d="M5.00011 8.00004C5.01047 7.20761 5.32986 6.45055 5.89024 5.89017C6.45062 5.32979 7.20768 5.0104 8.00011 5.00004C8.79253 5.0104 9.54959 5.32979 10.11 5.89017C10.6704 6.45055 10.9897 7.20761 11.0001 8.00004C10.9897 8.79247 10.6704 9.54952 10.11 10.1099C9.54959 10.6703 8.79253 10.9897 8.00011 11C7.20768 10.9897 6.45062 10.6703 5.89024 10.1099C5.32986 9.54952 5.01047 8.79247 5.00011 8.00004ZM8.00011 17L12.0001 18V14.92C10.7938 15.6465 9.40813 16.0206 8.00011 16C6.59208 16.0206 5.20643 15.6465 4.00011 14.92V18L8.00011 17ZM8.00011 2.00004C7.21208 1.98566 6.42943 2.1326 5.70027 2.43183C4.97112 2.73106 4.31087 3.17625 3.76011 3.74004C3.19022 4.2914 2.73988 4.95414 2.4371 5.68701C2.13431 6.41988 1.98557 7.20722 2.00011 8.00004C1.98969 8.78784 2.14044 9.56945 2.4431 10.2969C2.74576 11.0243 3.19394 11.6821 3.76011 12.23C4.3083 12.7993 4.9674 13.25 5.69668 13.5544C6.42595 13.8589 7.20991 14.0105 8.00011 14C8.79031 14.0105 9.57426 13.8589 10.3035 13.5544C11.0328 13.25 11.6919 12.7993 12.2401 12.23C12.8063 11.6821 13.2545 11.0243 13.5571 10.2969C13.8598 9.56945 14.0105 8.78784 14.0001 8.00004C14.0146 7.20722 13.8659 6.41988 13.5631 5.68701C13.2603 4.95414 12.81 4.2914 12.2401 3.74004C11.6893 3.17625 11.0291 2.73106 10.2999 2.43183C9.57079 2.1326 8.78814 1.98566 8.00011 2.00004ZM16.0001 8.00004C15.9788 8.95992 15.7858 9.90823 15.4301 10.8C15.1097 11.7075 14.6249 12.5481 14.0001 13.28V21L8.00011 19L2.00011 21V13.28C0.705796 11.8265 -0.00639275 9.94631 0.000106447 8.00004C-0.0175184 6.95062 0.180143 5.90873 0.580889 4.93868C0.981634 3.96864 1.57696 3.09103 2.33011 2.36004C3.06381 1.60013 3.94547 0.998669 4.92067 0.592766C5.89587 0.186863 6.94391 -0.0148637 8.00011 3.6768e-05C9.0563 -0.0148637 10.1043 0.186863 11.0795 0.592766C12.0547 0.998669 12.9364 1.60013 13.6701 2.36004C14.4233 3.09103 15.0186 3.96864 15.4193 4.93868C15.8201 5.90873 16.0177 6.95062 16.0001 8.00004Z" fill="#9EB6CA"/>
</svg>
