<svg width="21" height="21" viewBox="0 0 21 21" fill="none" xmlns="http://www.w3.org/2000/svg">
<path d="M16.4062 8.53125V2.625H15.0938V3.9375H13.125V5.25H15.0938V8.53125H13.125V9.84375H18.375V8.53125H16.4062Z" fill="#333333"/>
<path d="M5.57813 3.9375C6.03241 3.9375 6.47648 4.07221 6.8542 4.32459C7.23192 4.57698 7.52632 4.9357 7.70016 5.3554C7.87401 5.7751 7.91949 6.23692 7.83087 6.68247C7.74224 7.12802 7.52349 7.53729 7.20226 7.85851C6.88104 8.17974 6.47178 8.39849 6.02623 8.48712C5.58068 8.57574 5.11885 8.53026 4.69915 8.35641C4.27945 8.18257 3.92073 7.88817 3.66834 7.51045C3.41596 7.13273 3.28125 6.68865 3.28125 6.23438C3.28195 5.62542 3.52416 5.0416 3.95476 4.61101C4.38536 4.18041 4.96917 3.93819 5.57813 3.9375ZM5.57813 2.625C4.86426 2.625 4.16642 2.83669 3.57287 3.23329C2.97931 3.62989 2.51668 4.1936 2.2435 4.85313C1.97031 5.51265 1.89884 6.23838 2.0381 6.93853C2.17737 7.63868 2.52113 8.28181 3.02591 8.78659C3.53069 9.29137 4.17382 9.63513 4.87397 9.7744C5.57412 9.91367 6.29985 9.84219 6.95938 9.569C7.6189 9.29582 8.18261 8.8332 8.57921 8.23964C8.97582 7.64608 9.1875 6.94824 9.1875 6.23438C9.1875 5.27711 8.80723 4.35905 8.13034 3.68216C7.45345 3.00527 6.53539 2.625 5.57813 2.625Z" fill="#333333"/>
<path d="M15.4219 13.125C15.8762 13.125 16.3202 13.2597 16.698 13.5121C17.0757 13.7645 17.3701 14.1232 17.5439 14.5429C17.7178 14.9626 17.7632 15.4244 17.6746 15.87C17.586 16.3155 17.3672 16.7248 17.046 17.046C16.7248 17.3672 16.3155 17.586 15.87 17.6746C15.4244 17.7632 14.9626 17.7178 14.5429 17.5439C14.1232 17.3701 13.7645 17.0757 13.5121 16.698C13.2597 16.3202 13.125 15.8762 13.125 15.4219C13.1257 14.8129 13.3679 14.2291 13.7985 13.7985C14.2291 13.3679 14.8129 13.1257 15.4219 13.125ZM15.4219 11.8125C14.708 11.8125 14.0102 12.0242 13.4166 12.4208C12.8231 12.8174 12.3604 13.3811 12.0872 14.0406C11.8141 14.7002 11.7426 15.4259 11.8819 16.126C12.0211 16.8262 12.3649 17.4693 12.8697 17.9741C13.3744 18.4789 14.0176 18.8226 14.7177 18.9619C15.4179 19.1012 16.1436 19.0297 16.8031 18.7565C17.4627 18.4833 18.0264 18.0207 18.423 17.4271C18.8196 16.8336 19.0313 16.1357 19.0313 15.4219C19.0313 14.4646 18.651 13.5466 17.9741 12.8697C17.2972 12.1928 16.3791 11.8125 15.4219 11.8125Z" fill="#333333"/>
<path d="M3.9375 12.4688V13.7812H6.29081L2.625 17.4471L3.55294 18.375L7.21875 14.7092V17.0625H8.53125V12.4688H3.9375Z" fill="#333333"/>
</svg>
