<svg width="20" height="20" viewBox="0 0 20 20" fill="none" xmlns="http://www.w3.org/2000/svg">
<path d="M17.5605 16.9844L16.5254 11.0156H16.875C17.1562 11.0156 17.3828 10.7891 17.3828 10.5078V6.75781C17.3828 6.47656 17.1562 6.25 16.875 6.25H12.0703V2.69531C12.0703 2.41406 11.8437 2.1875 11.5625 2.1875H8.4375C8.15625 2.1875 7.92969 2.41406 7.92969 2.69531V6.25H3.125C2.84375 6.25 2.61719 6.47656 2.61719 6.75781V10.5078C2.61719 10.7891 2.84375 11.0156 3.125 11.0156H3.47461L2.43945 16.9844C2.43359 17.0137 2.43164 17.043 2.43164 17.0703C2.43164 17.3516 2.6582 17.5781 2.93945 17.5781H17.0605C17.0898 17.5781 17.1191 17.5762 17.1465 17.5703C17.4238 17.5234 17.6094 17.2598 17.5605 16.9844ZM3.98437 7.61719H9.29687V3.55469H10.7031V7.61719H16.0156V9.64844H3.98437V7.61719ZM13.125 16.2109V13.1641C13.125 13.0781 13.0547 13.0078 12.9687 13.0078H12.0312C11.9453 13.0078 11.875 13.0781 11.875 13.1641V16.2109H8.125V13.1641C8.125 13.0781 8.05469 13.0078 7.96875 13.0078H7.03125C6.94531 13.0078 6.875 13.0781 6.875 13.1641V16.2109H3.96094L4.8418 11.1328H15.1562L16.0371 16.2109H13.125Z" fill="black"/>
</svg>
