<?xml version="1.0" encoding="UTF-8"?>
<svg width="60px" height="60px" viewBox="0 0 60 60" version="1.1" xmlns="http://www.w3.org/2000/svg" xmlns:xlink="http://www.w3.org/1999/xlink">
    <!-- Generator: Sketch 55.2 (78181) - https://sketchapp.com -->
    <title>bug</title>
    <desc>Created with Sketch.</desc>
    <g id="bug" stroke="none" stroke-width="1" fill="none" fill-rule="evenodd">
        <path d="M0.5,39.3580422 C0.5,40.9562125 1.8768439,42.2541282 3.57283634,42.2541282 C5.26896407,42.2541282 6.64567268,40.9562125 6.64567268,39.3580422 L6.64567268,36.6938727 C6.64567268,35.2810825 7.850428,34.1455975 9.35025029,34.1455975 L10.4316213,34.1455975 C10.3697939,34.6780235 10.3331304,35.2332713 10.3331304,35.8012688 C10.3331304,38.060254 10.7879746,40.2154571 11.6114833,42.1961172 L7.87478015,45.984807 C7.1738439,46.6906283 6.64553739,48.2538645 6.64553739,49.2038419 L6.64553739,54.4167966 C6.64553739,56.0152218 8.02238128,57.3125 9.71850902,57.3125 C11.414772,57.3125 12.7913454,56.0152218 12.7913454,54.4167966 L12.7913454,50.8713703 C12.7913454,50.3509291 12.9511226,49.8760041 13.2338782,49.4713298 L15.1148117,47.5822123 C17.4748063,50.0954258 20.1666667,52.6569606 24.1493266,53.6748937 C24.2351004,53.7109752 24.3335913,53.7334146 24.4320822,53.756364 C24.6408343,53.814885 24.862439,53.8377069 25.0832319,53.8377069 C26.4355883,53.8377069 27.5417174,52.794657 27.5417174,51.5208381 L27.5417174,31.8284738 C27.5417174,30.5540175 28.6477112,29.5116051 29.9999324,29.5116051 C31.3516124,29.5116051 32.4584179,30.5540175 32.4584179,31.8284738 L32.4584179,51.5205831 C32.4584179,52.794402 33.5652234,53.8374519 34.9164976,53.8374519 C35.174901,53.8374519 35.4328986,53.8032828 35.6789906,53.7220674 L35.9860984,53.6405971 C39.7974815,52.6448484 42.550087,50.0728589 44.8843766,47.5819573 L46.766663,49.4710748 C47.0488774,49.8758766 47.2086546,50.3506741 47.2086546,50.8711153 L47.2086546,54.4165416 C47.2086546,56.0149668 48.585228,57.3125 50.2812204,57.3125 C51.977754,57.3125 53.3543273,56.0149668 53.3543273,54.4165416 L53.3543273,49.2035869 C53.3543273,48.2536095 52.8261561,46.6903734 52.1250846,45.984552 L48.3882461,42.1958622 C49.2117548,40.2152021 49.666599,38.059999 49.666599,35.8010138 C49.666599,35.2330163 49.6308825,34.677641 49.5682434,34.1453426 L50.6497497,34.1453426 C52.1493014,34.1453426 53.354192,35.2808275 53.354192,36.6936177 L53.354192,39.3577872 C53.354192,40.9559575 54.7307654,42.2538732 56.4274342,42.2538732 C58.1234267,42.2538732 59.5,40.9559575 59.5,39.3577872 L59.5,34.1452151 C59.5,30.9479821 56.7463122,28.3531707 53.354192,28.3531707 L47.5647373,28.3531707 C47.0115375,27.3802439 46.3851459,26.4417412 45.7461723,25.5034936 L50.8958418,20.2443851 C51.5969133,19.5380538 52.1250846,17.8812351 52.1250846,16.769337 L52.1250846,11.5565098 C52.1250846,9.95821208 50.7485112,8.66067889 49.0525188,8.66067889 C47.3558499,8.66067889 45.9794119,9.95821208 45.9794119,11.5565098 L45.9794119,15.3788588 C45.9794119,15.9004475 45.8196347,16.3756274 45.5374202,16.7804292 L42.2305326,20.1168885 C40.8539593,17.5915627 39.8334686,14.707589 39.8334686,10.9774201 C39.8334686,6.65668687 36.6994813,3.03093774 32.4584179,2 L32.4584179,7.50237201 C32.4584179,8.77657332 31.3516124,9.81898576 29.9999324,9.81898576 C28.6475759,9.81898576 27.5417174,8.77657332 27.5417174,7.50237201 L27.5417174,2 C23.3007893,3.03144773 20.1666667,6.65719686 20.1666667,10.9779301 C20.1666667,14.6961143 19.1335941,17.5688683 17.7575619,20.0941941 L14.4631209,16.7808117 C14.1803653,16.3760099 14.0205881,15.90083 14.0205881,15.3792412 L14.0205881,11.5568923 C14.0205881,9.95859457 12.6437442,8.66106138 10.9477518,8.66106138 C9.25175934,8.66106138 7.87478015,9.95859457 7.87478015,11.5568923 L7.87478015,16.7697195 C7.87478015,17.8816176 8.40281609,19.5384363 9.10415821,20.2447676 L14.2294755,25.4806717 C13.5784612,26.4189193 12.9638398,27.3686417 12.4103694,28.3534257 L6.64567268,28.3534257 C3.25368779,28.3534257 0.5,30.9482371 0.5,34.1454701 L0.5,39.3580422 Z" id="Path" fill="#5E6060"></path>
    </g>
</svg>