<svg width="36" height="36" viewBox="0 0 36 36" fill="none" xmlns="http://www.w3.org/2000/svg">
<path d="M27 3C27.2591 3.0001 27.5102 3.08964 27.711 3.2535L27.825 3.3585L32.733 8.6535L32.778 8.7105C32.931 8.9145 33 9.1455 33 9.3705V12.252C33 13.743 32.4315 15.102 31.5 16.122V31.875C31.4999 32.1471 31.4012 32.4099 31.2222 32.6148C31.0432 32.8198 30.7961 32.9529 30.5265 32.9895L30.375 33H5.62495C5.35309 33 5.09044 32.9015 4.88556 32.7229C4.68067 32.5442 4.54742 32.2973 4.51045 32.028L4.49995 31.875V16.122C3.61301 15.1514 3.08707 13.9051 3.01045 12.5925L2.99995 12.2505V9.435C2.98692 9.22129 3.03699 9.00847 3.14395 8.823L3.24145 8.6805L3.30145 8.6115L8.17495 3.36C8.35143 3.16963 8.58832 3.04615 8.84545 3.0105L8.99995 3H27ZM22.623 15.663L22.605 15.69C22.0703 16.4074 21.3753 16.9899 20.5755 17.391C19.7757 17.792 18.8932 18.0006 17.9985 18C17.0986 18.0006 16.2113 17.7897 15.408 17.3843C14.6047 16.9789 13.9079 16.3903 13.374 15.666C12.8403 16.3902 12.1438 16.9788 11.3408 17.3843C10.5377 17.7897 9.65056 18.0006 8.75095 18C8.04595 18 7.37245 17.874 6.74995 17.643V30.75H8.99995V20.628C8.99996 20.3561 9.09842 20.0935 9.2771 19.8886C9.45579 19.6837 9.70262 19.5505 9.97195 19.5135L10.125 19.5H16.869C17.1408 19.5 17.4035 19.5985 17.6083 19.7772C17.8132 19.9558 17.9465 20.2027 17.9835 20.472L17.994 20.625V30.747H29.247V17.6415C28.0776 18.076 26.7986 18.1178 25.6035 17.7605C24.4083 17.4033 23.362 16.6664 22.623 15.6615V15.663ZM15.7425 21.7515H11.25V30.7485H15.7425V21.7515ZM25.8825 19.5015C26.1543 19.5015 26.417 19.6 26.6219 19.7787C26.8267 19.9573 26.96 20.2042 26.997 20.4735L27.0075 20.6265V25.8795C27.0074 26.1516 26.9087 26.4144 26.7297 26.6193C26.5507 26.8243 26.3036 26.9574 26.034 26.994L25.8825 27.0045H20.6295C20.3576 27.0045 20.0949 26.906 19.8901 26.7274C19.6852 26.5487 19.5519 26.3018 19.515 26.0325L19.5045 25.8795V20.6265C19.5045 20.3546 19.6029 20.092 19.7816 19.8871C19.9603 19.6822 20.2071 19.549 20.4765 19.512L20.6295 19.5015H25.8825ZM24.756 21.7515H21.7545V24.7545H24.7545V21.7515H24.756ZM12.249 10.503H5.24995V12.2505L5.25895 12.5055L5.30245 12.8535L5.35045 13.0875L5.42545 13.3455L5.50645 13.5675L5.56645 13.7085C5.61445 13.8105 5.66545 13.9095 5.72245 14.0055L5.87545 14.2485L5.95795 14.3595L6.15145 14.5935L6.36295 14.8095L6.50845 14.937L6.57145 14.988C7.04245 15.363 7.61395 15.621 8.23795 15.7125L8.50795 15.741L8.74795 15.7485C10.6005 15.7485 12.117 14.31 12.24 12.489L12.2475 12.249V10.5045L12.249 10.503ZM21.4965 10.503H14.499V12.2505C14.499 14.0205 15.816 15.486 17.523 15.717L17.7585 15.741L17.9985 15.7485C19.8495 15.7485 21.366 14.31 21.489 12.489L21.4965 12.249V10.5045V10.503ZM30.747 10.503H23.7495V12.2505C23.7495 14.0205 25.0665 15.486 26.775 15.717L27.009 15.741L27.249 15.7485C28.095 15.7485 28.872 15.4485 29.4765 14.9475L29.6115 14.8305L29.7855 14.661L30.0045 14.406C30.0855 14.3025 30.162 14.196 30.2295 14.082L30.3855 13.803L30.48 13.596L30.567 13.3635L30.612 13.2195L30.669 12.9915L30.7125 12.756L30.7395 12.5055L30.7485 12.2505L30.747 10.503ZM13.593 5.2485H9.49045L6.70345 8.253H12.669L13.593 5.2485ZM20.052 5.2485H15.945L15.021 8.253H20.976L20.052 5.2485ZM26.508 5.2485H22.4055L23.331 8.253H29.295L26.508 5.2485Z" fill="#2B5467"/>
</svg>
