<svg width="12" height="15" viewBox="0 0 12 15" fill="none" xmlns="http://www.w3.org/2000/svg">
<path fill-rule="evenodd" clip-rule="evenodd" d="M6.66667 0.833008C6.84348 0.833008 7.01305 0.903246 7.13807 1.02827L10.4714 4.3616C10.5964 4.48663 10.6667 4.6562 10.6667 4.83301V5.49967C10.6667 5.86786 10.3682 6.16634 10 6.16634H6C5.65811 6.16634 5.37633 5.90898 5.33782 5.57742L5.33333 5.49967L5.33267 2.16634H2C1.63181 2.16634 1.33333 2.46482 1.33333 2.83301V12.1663C1.33333 12.5345 1.63181 12.833 2 12.833H3.33333C3.70152 12.833 4 13.1315 4 13.4997C4 13.8679 3.70152 14.1663 3.33333 14.1663H2C0.895431 14.1663 0 13.2709 0 12.1663V2.83301C0 1.72844 0.895431 0.833008 2 0.833008H6.66667ZM8.86191 7.69495C9.10223 7.45463 9.48039 7.43615 9.74192 7.63949L9.80472 7.69495L11.8047 9.69495C12.045 9.93528 12.0635 10.3134 11.8602 10.575L11.8047 10.6378L8.47139 13.9711C8.3672 14.0753 8.23208 14.1414 8.08761 14.1606L7.99998 14.1664H5.99998C5.65809 14.1664 5.37631 13.909 5.3378 13.5774L5.33331 13.4997V11.4997C5.33331 11.3524 5.38209 11.21 5.4707 11.0943L5.52858 11.0283L8.86191 7.69495ZM9.33335 9.10922L6.66668 11.7759V12.8331H7.72387L10.3905 10.1664L9.33335 9.10922ZM6.66601 2.44232L6.66668 4.83299H9.05735L6.66601 2.44232Z" fill="#1AA874"/>
</svg>
