<svg width="17" height="18" viewBox="0 0 17 18" fill="none" xmlns="http://www.w3.org/2000/svg">
<path d="M3.59998 8.09998H5.39998V9.89998H3.59998V8.09998ZM3.59998 11.7H5.39998V13.5H3.59998V11.7ZM7.19998 8.09998H8.99998V9.89998H7.19998V8.09998ZM7.19998 11.7H8.99998V13.5H7.19998V11.7ZM10.8 8.09998H12.6V9.89998H10.8V8.09998ZM10.8 11.7H12.6V13.5H10.8V11.7Z" fill="#6A737D"/>
<path d="M1.8 18H14.4C15.3927 18 16.2 17.1927 16.2 16.2V3.6C16.2 2.6073 15.3927 1.8 14.4 1.8H12.6V0H10.8V1.8H5.4V0H3.6V1.8H1.8C0.8073 1.8 0 2.6073 0 3.6V16.2C0 17.1927 0.8073 18 1.8 18ZM14.75 5.4V16.5H1.5V5.4H14.75Z" fill="#6A737D"/>
</svg>
