<?xml version="1.0" encoding="UTF-8"?>
<svg width="60px" height="60px" viewBox="0 0 60 60" version="1.1" xmlns="http://www.w3.org/2000/svg" xmlns:xlink="http://www.w3.org/1999/xlink">
    <!-- Generator: Sketch 55.2 (78181) - https://sketchapp.com -->
    <title>calendar</title>
    <desc>Created with Sketch.</desc>
    <g id="calendar" stroke="none" stroke-width="1" fill="none" fill-rule="evenodd">
        <path d="M32.95,32.95 L32.95,41.8 C32.95,43.4284 31.6284,44.75 30,44.75 C28.3716,44.75 27.05,43.4284 27.05,41.8 L27.05,35.9 C27.05,34.2716 25.7284,32.95 24.1,32.95 C22.4716,32.95 21.15,31.6284 21.15,30 C21.15,28.3716 22.4716,27.05 24.1,27.05 L27.05,27.05 C30.30975,27.05 32.95,29.69025 32.95,32.95 L32.95,32.95 Z M53.6,50.65 C53.6,52.2784 52.2784,53.6 50.65,53.6 L9.35,53.6 C7.7216,53.6 6.4,52.2784 6.4,50.65 L6.4,21.15 C6.4,19.5216 7.7216,18.2 9.35,18.2 L50.65,18.2 C52.2784,18.2 53.6,19.5216 53.6,21.15 L53.6,50.65 Z M53.6,6.4 L53.6,3.45 C53.6,1.8216 52.2784,0.5 50.65,0.5 C49.0216,0.5 47.7,1.8216 47.7,3.45 L47.7,6.4 L32.95,6.4 L32.95,3.45 C32.95,1.8216 31.6284,0.5 30,0.5 C28.3716,0.5 27.05,1.8216 27.05,3.45 L27.05,6.4 L12.3,6.4 L12.3,3.45 C12.3,1.8216 10.9784,0.5 9.35,0.5 C7.7216,0.5 6.4,1.8216 6.4,3.45 L6.4,6.4 C3.14025,6.4 0.5,9.04025 0.5,12.3 L0.5,53.6 C0.5,56.8568 3.14025,59.5 6.4,59.5 L53.6,59.5 C56.85975,59.5 59.5,56.8568 59.5,53.6 L59.5,12.3 C59.5,9.04025 56.85975,6.4 53.6,6.4 L53.6,6.4 Z" id="calendar-[#1197]-copy" fill="#333333"></path>
    </g>
</svg>