<svg width="17" height="15" viewBox="0 0 17 15" fill="none" xmlns="http://www.w3.org/2000/svg">
<path d="M15.0312 2.84375H12.5078L11.9066 1.07031C11.8651 0.948961 11.789 0.844066 11.6887 0.769956C11.5884 0.695846 11.4688 0.656136 11.3463 0.65625H5.65371C5.40322 0.65625 5.17871 0.822266 5.09521 1.07031L4.49219 2.84375H1.96875C1.14863 2.84375 0.484375 3.54297 0.484375 4.40625V13.3125C0.484375 14.1758 1.14863 14.875 1.96875 14.875H15.0312C15.8514 14.875 16.5156 14.1758 16.5156 13.3125V4.40625C16.5156 3.54297 15.8514 2.84375 15.0312 2.84375ZM15.1797 13.3125C15.1797 13.3984 15.1129 13.4688 15.0312 13.4688H1.96875C1.88711 13.4688 1.82031 13.3984 1.82031 13.3125V4.40625C1.82031 4.32031 1.88711 4.25 1.96875 4.25H5.43291L5.7502 3.31641L6.1751 2.0625H10.823L11.2479 3.31641L11.5652 4.25H15.0312C15.1129 4.25 15.1797 4.32031 15.1797 4.40625V13.3125ZM8.5 5.5C6.85977 5.5 5.53125 6.89844 5.53125 8.625C5.53125 10.3516 6.85977 11.75 8.5 11.75C10.1402 11.75 11.4688 10.3516 11.4688 8.625C11.4688 6.89844 10.1402 5.5 8.5 5.5ZM8.5 10.5C7.5166 10.5 6.71875 9.66016 6.71875 8.625C6.71875 7.58984 7.5166 6.75 8.5 6.75C9.4834 6.75 10.2812 7.58984 10.2812 8.625C10.2812 9.66016 9.4834 10.5 8.5 10.5Z" fill="#333333"/>
</svg>
