<?xml version="1.0" encoding="UTF-8"?>
<svg width="60px" height="60px" viewBox="0 0 60 60" version="1.1" xmlns="http://www.w3.org/2000/svg" xmlns:xlink="http://www.w3.org/1999/xlink">
    <!-- Generator: Sketch 55.2 (78181) - https://sketchapp.com -->
    <title>candidates</title>
    <desc>Created with Sketch.</desc>
    <defs>
        <path d="M44.3,30.5 C39.7,30.5 35.9,26.8 35.9,22.2 C35.9,17.6 39.7,13.9 44.3,13.9 C48.9,13.9 52.7,17.6 52.7,22.2 C52.7,26.8 48.9,30.5 44.3,30.5 Z M44.3,25.9 C46.4,25.9 48.1,24.2 48.1,22.1 C48.1,20 46.4,18.3 44.3,18.3 C42.2,18.3 40.5,20 40.5,22.1 C40.5,24.2 42.2,25.9 44.3,25.9 Z M19.8,32.4 C13.6,32.4 8.6,27.4 8.6,21.2 C8.6,15 13.6,10 19.8,10 C26,10 31,15 31,21.2 C31,27.4 26,32.4 19.8,32.4 Z M19.8,27.8 C23.5,27.8 26.5,24.8 26.5,21.2 C26.5,17.6 23.5,14.6 19.8,14.6 C16.1,14.6 13.1,17.6 13.1,21.2 C13.1,24.8 16.2,27.8 19.8,27.8 Z M6.6,48.7 C6.6,50 5.6,51 4.3,51 C3,51 2,50 2,48.7 C2,41.2 8.1,35.1 15.7,35.1 L23.3,35.1 C30.9,35.1 37,41.2 37,48.7 C37,50 36,51 34.7,51 C33.4,51 32.4,50 32.4,48.7 C32.4,43.7 28.3,39.6 23.3,39.6 L15.7,39.6 C10.7,39.6 6.6,43.7 6.6,48.7 Z M36.7,37.7 C35.4,37.7 34.4,36.7 34.4,35.4 C34.4,34.1 35.4,33.1 36.7,33.1 L48.6,33.1 C53.8,33.1 58,37.5 58,42.9 C58,44.2 57,45.2 55.7,45.2 C54.4,45.2 53.4,44.2 53.4,42.9 C53.4,39.9 51.2,37.6 48.5,37.6 L36.7,37.6 L36.7,37.7 Z" id="path-1"></path>
    </defs>
    <g id="candidates" stroke="none" stroke-width="1" fill="none" fill-rule="evenodd">
        <mask id="mask-2" fill="white">
            <use xlink:href="#path-1"></use>
        </mask>
        <use id="Mask" fill="#000000" fill-rule="nonzero" xlink:href="#path-1"></use>
        <g id="color/2" mask="url(#mask-2)" fill="#27303E">
            <rect x="0" y="0" width="60" height="60"></rect>
        </g>
    </g>
</svg>