<svg width="30" height="30" viewBox="0 0 30 30" fill="none" xmlns="http://www.w3.org/2000/svg">
<path fill-rule="evenodd" clip-rule="evenodd" d="M26.25 1.875H3.75C3.25272 1.875 2.77581 2.07254 2.42417 2.42417C2.07254 2.77581 1.875 3.25272 1.875 3.75V18.75C1.875 19.2473 2.07254 19.7242 2.42417 20.0758C2.77581 20.4275 3.25272 20.625 3.75 20.625H8.4375C9.01967 20.625 9.59384 20.7605 10.1146 21.0209C10.6353 21.2812 11.0882 21.6593 11.4375 22.125L15 26.8744L18.5625 22.125C18.9118 21.6593 19.3647 21.2812 19.8854 21.0209C20.4062 20.7605 20.9803 20.625 21.5625 20.625H26.25C26.7473 20.625 27.2242 20.4275 27.5758 20.0758C27.9275 19.7242 28.125 19.2473 28.125 18.75V3.75C28.125 3.25272 27.9275 2.77581 27.5758 2.42417C27.2242 2.07254 26.7473 1.875 26.25 1.875ZM3.75 0C2.75544 0 1.80161 0.395088 1.09835 1.09835C0.395088 1.80161 0 2.75544 0 3.75L0 18.75C0 19.7446 0.395088 20.6984 1.09835 21.4016C1.80161 22.1049 2.75544 22.5 3.75 22.5H8.4375C8.72858 22.5 9.01567 22.5678 9.27603 22.6979C9.53638 22.8281 9.76285 23.0171 9.9375 23.25L13.5 27.9994C13.6747 28.2322 13.9011 28.4212 14.1615 28.5514C14.4218 28.6816 14.7089 28.7494 15 28.7494C15.2911 28.7494 15.5782 28.6816 15.8385 28.5514C16.0989 28.4212 16.3253 28.2322 16.5 27.9994L20.0625 23.25C20.2372 23.0171 20.4636 22.8281 20.724 22.6979C20.9843 22.5678 21.2714 22.5 21.5625 22.5H26.25C27.2446 22.5 28.1984 22.1049 28.9016 21.4016C29.6049 20.6984 30 19.7446 30 18.75V3.75C30 2.75544 29.6049 1.80161 28.9016 1.09835C28.1984 0.395088 27.2446 0 26.25 0L3.75 0Z" fill="#6C63FF"/>
<path d="M9.375 11.25C9.375 11.7473 9.17746 12.2242 8.82582 12.5758C8.47419 12.9275 7.99728 13.125 7.5 13.125C7.00272 13.125 6.52581 12.9275 6.17417 12.5758C5.82254 12.2242 5.625 11.7473 5.625 11.25C5.625 10.7527 5.82254 10.2758 6.17417 9.92418C6.52581 9.57254 7.00272 9.375 7.5 9.375C7.99728 9.375 8.47419 9.57254 8.82582 9.92418C9.17746 10.2758 9.375 10.7527 9.375 11.25ZM16.875 11.25C16.875 11.7473 16.6775 12.2242 16.3258 12.5758C15.9742 12.9275 15.4973 13.125 15 13.125C14.5027 13.125 14.0258 12.9275 13.6742 12.5758C13.3225 12.2242 13.125 11.7473 13.125 11.25C13.125 10.7527 13.3225 10.2758 13.6742 9.92418C14.0258 9.57254 14.5027 9.375 15 9.375C15.4973 9.375 15.9742 9.57254 16.3258 9.92418C16.6775 10.2758 16.875 10.7527 16.875 11.25ZM24.375 11.25C24.375 11.7473 24.1775 12.2242 23.8258 12.5758C23.4742 12.9275 22.9973 13.125 22.5 13.125C22.0027 13.125 21.5258 12.9275 21.1742 12.5758C20.8225 12.2242 20.625 11.7473 20.625 11.25C20.625 10.7527 20.8225 10.2758 21.1742 9.92418C21.5258 9.57254 22.0027 9.375 22.5 9.375C22.9973 9.375 23.4742 9.57254 23.8258 9.92418C24.1775 10.2758 24.375 10.7527 24.375 11.25Z" fill="#6C63FF"/>
</svg>
