<svg width="26" height="26" viewBox="0 0 26 26" fill="none" xmlns="http://www.w3.org/2000/svg">
  <path d="M23.1017 16.96C23.0442 16.7492 23.1708 16.4564 23.2916 16.2457C23.3285 16.1829 23.3688 16.1224 23.4123 16.0642C24.4456 14.5015 24.9982 12.661 24.9999 10.7774C25.0172 5.37933 20.5421 1 15.0087 1C10.1828 1 6.15639 4.34304 5.21307 8.78091C5.07195 9.43868 5.0006 10.11 5.00024 10.7832C5.00024 16.1871 9.30273 20.6836 14.8361 20.6836C15.7162 20.6836 16.9011 20.4142 17.5511 20.2327C18.2011 20.0512 18.8453 19.8112 19.0121 19.7468C19.1831 19.6812 19.3643 19.6475 19.547 19.6473C19.7464 19.6465 19.9439 19.6863 20.128 19.7644L23.3893 20.9412C23.4608 20.972 23.5364 20.9917 23.6137 20.9997C23.7357 20.9997 23.8528 20.9504 23.9391 20.8625C24.0253 20.7747 24.0738 20.6555 24.0738 20.5313C24.0698 20.4777 24.0602 20.4247 24.0451 20.3732L23.1017 16.96Z" stroke="#000" stroke-width="1.8" stroke-miterlimit="10" stroke-linecap="round"/>
  <path d="M2.07275 11.857C1.3106 13.1918 0.941903 14.706 1.00743 16.2324C1.07297 17.7587 1.57017 19.2376 2.44408 20.5056C2.57831 20.7034 2.65386 20.8563 2.63061 20.9588C2.60737 21.0614 1.93736 24.4637 1.93736 24.4637C1.92124 24.5434 1.92735 24.6257 1.95505 24.7023C1.98276 24.7788 2.03103 24.8467 2.09483 24.8988C2.17997 24.9649 2.28583 25.0005 2.39468 24.9996C2.45285 24.9998 2.51042 24.9882 2.56379 24.9657L5.83017 23.7194C6.05498 23.633 6.30576 23.637 6.52749 23.7307C7.6281 24.1488 8.84494 24.4105 10.0623 24.4105C11.696 24.4122 13.301 23.9921 14.7141 23.1931" stroke="#000" stroke-width="1.8" stroke-miterlimit="10" stroke-linecap="round"/>
</svg>
