<svg width="20" height="20" viewBox="0 0 20 20" fill="none" xmlns="http://www.w3.org/2000/svg">
<path fill-rule="evenodd" clip-rule="evenodd" d="M8.35078 13.9985L3.6247 17.779C2.96993 18.3028 2 17.8366 2 16.9982V4.99972C2 3.34302 3.34315 2 5 2H15C16.6569 2 18 3.34302 18 4.99972V10.9988C18 12.6555 16.6569 13.9985 15 13.9985H8.35078ZM4 14.9178L7.37531 12.2178C7.55262 12.076 7.77293 11.9987 8 11.9987H15C15.5523 11.9987 16 11.551 16 10.9988V4.99972C16 4.44749 15.5523 3.99981 15 3.99981H5C4.44772 3.99981 4 4.44749 4 4.99972V14.9178Z" fill="#6A737D"/>
</svg>
