<svg width="36" height="36" viewBox="0 0 36 36" fill="none" xmlns="http://www.w3.org/2000/svg">
<path d="M21 28.5C26.6565 28.5 29.4855 28.5 31.242 26.742C33 24.9855 33 22.1565 33 16.5C33 10.8435 33 8.0145 31.242 6.258C29.4855 4.5 26.6565 4.5 21 4.5H15C9.3435 4.5 6.5145 4.5 4.758 6.258C3 8.0145 3 10.8435 3 16.5C3 22.1565 3 24.9855 4.758 26.742C5.7375 27.723 7.05 28.1565 9 28.347" stroke="#375E70" stroke-width="2.6" stroke-linecap="round" stroke-linejoin="round"/>
<path d="M21 28.5C19.146 28.5 17.103 29.25 15.2385 30.2175C12.2415 31.773 10.743 32.5515 10.005 32.055C9.26699 31.56 9.4065 30.0225 9.687 26.949L9.74999 26.25" stroke="#375E70" stroke-width="2.6" stroke-linecap="round"/>
</svg>
