<?xml version="1.0" encoding="UTF-8"?>
<svg width="60px" height="60px" viewBox="0 0 60 60" version="1.1" xmlns="http://www.w3.org/2000/svg" xmlns:xlink="http://www.w3.org/1999/xlink">
    <!-- Generator: Sketch 55.2 (78181) - https://sketchapp.com -->
    <title>check-on-filled</title>
    <desc>Created with Sketch.</desc>
    <defs>
        <path d="M54.8893805,5.11061947 L54.8893805,54.8893805 L5.11061947,54.8893805 L5.11061947,5.11061947 L54.8893805,5.11061947 Z M26.7699115,40.5530973 C27.4336283,40.5309735 28.0752212,40.2433628 28.5176991,39.7345133 L43.4955752,23.340708 C44.4247788,22.3230088 44.3584071,20.7522124 43.340708,19.8230088 C42.3230088,18.8938053 40.7522124,18.960177 39.8230088,19.9778761 L26.5486726,34.5353982 L19.8230088,28.1858407 C18.8274336,27.2345133 17.2566372,27.2787611 16.3053097,28.2964602 C15.3539823,29.2920354 15.3982301,30.8628319 16.4159292,31.8141593 L24.9778761,39.8893805 C25.4424779,40.3318584 26.0619469,40.5752212 26.6814159,40.5752212 C26.7035398,40.5752212 26.7477876,40.5530973 26.7699115,40.5530973 Z" id="path-1"></path>
    </defs>
    <g id="check-on-filled" stroke="none" stroke-width="1" fill="none" fill-rule="evenodd">
        <mask id="mask-2" fill="white">
            <use xlink:href="#path-1"></use>
        </mask>
        <use id="Mask" fill="#FFFFFF" fill-rule="nonzero" xlink:href="#path-1"></use>
        <g id="color" mask="url(#mask-2)" fill="#27303E">
            <rect id="Rectangle" x="0" y="0" width="60" height="60"></rect>
        </g>
    </g>
</svg>