<svg width="26" height="18" viewBox="0 0 26 18" fill="none" xmlns="http://www.w3.org/2000/svg">
<path d="M21.2727 7.875C21.2727 3.52125 17.5736 0 13 0C11.1887 0.000858074 9.42783 0.568406 7.98855 1.61528C6.54928 2.66215 5.51135 4.13031 5.03455 5.79375C3.60384 6.10684 2.32697 6.87253 1.41252 7.96574C0.498075 9.05896 0.000117452 10.4151 0 11.8125C0 15.2325 2.90727 18 6.5 18H20.6818C23.6245 17.9888 26 15.7162 26 12.915C26 10.2937 23.9318 8.1675 21.2727 7.875ZM16.2973 10.125C16.8291 10.125 17.0891 10.7325 16.7109 11.0813L13.4136 14.22C13.1773 14.445 12.8109 14.445 12.5745 14.22L9.27727 11.0813C9.19561 11.0019 9.14043 10.9014 9.11869 10.7923C9.09696 10.6832 9.10964 10.5704 9.15514 10.4681C9.20063 10.3659 9.27691 10.2787 9.37436 10.2176C9.47181 10.1566 9.58606 10.1243 9.70273 10.125H11.8182V6.75C11.8182 6.13125 12.35 5.625 13 5.625C13.65 5.625 14.1818 6.13125 14.1818 6.75V10.125H16.2973Z" fill="#6C91AE"/>
</svg>
