<?xml version="1.0" standalone="no"?>
<!DOCTYPE svg PUBLIC "-//W3C//DTD SVG 20010904//EN"
 "http://www.w3.org/TR/2001/REC-SVG-20010904/DTD/svg10.dtd">
<svg version="1.0" xmlns="http://www.w3.org/2000/svg"
 width="512.000000pt" height="512.000000pt" viewBox="0 0 512.000000 512.000000"
 preserveAspectRatio="xMidYMid meet">

<g transform="translate(0.000000,512.000000) scale(0.100000,-0.100000)"
fill="#000000" stroke="none">
<path d="M1825 4606 c-41 -18 -39 -16 -429 -501 -191 -236 -350 -430 -354
-430 -4 0 -65 64 -135 141 -71 80 -140 147 -157 154 -17 7 -52 10 -81 8 -88
-9 -142 -83 -125 -173 5 -26 50 -83 182 -232 96 -109 193 -215 215 -235 70
-64 154 -61 221 10 39 40 830 1021 856 1060 21 32 19 101 -4 141 -35 61 -122
87 -189 57z"/>
<path d="M2216 4021 c-45 -30 -70 -77 -70 -133 0 -54 21 -89 74 -125 l33 -23
1171 0 c1122 0 1173 1 1206 19 38 20 80 89 80 130 -1 44 -37 109 -72 131 -33
20 -47 20 -1213 20 -1144 0 -1181 -1 -1209 -19z"/>
<path d="M650 2978 c-33 -17 -51 -35 -67 -68 -23 -44 -23 -46 -23 -530 0 -484
0 -486 23 -530 12 -24 35 -53 50 -64 28 -21 39 -21 547 -21 508 0 519 0 546
21 15 11 37 33 48 48 21 27 21 38 21 546 0 508 0 519 -21 547 -11 15 -40 38
-64 51 -44 22 -46 22 -530 22 -484 0 -486 0 -530 -22z m840 -598 l0 -310 -310
0 -310 0 0 310 0 310 310 0 310 0 0 -310z"/>
<path d="M2220 2508 c-77 -53 -97 -136 -52 -210 45 -73 -42 -68 1264 -68 1159
0 1173 0 1206 20 35 22 71 87 72 131 0 41 -42 110 -80 130 -33 18 -84 19
-1206 19 l-1171 0 -33 -22z"/>
<path d="M636 1461 c-16 -11 -38 -34 -50 -53 -21 -32 -21 -41 -21 -545 0 -503
0 -512 21 -540 11 -15 36 -38 54 -50 l33 -23 506 0 c576 0 556 -3 599 80 22
44 22 46 22 540 0 463 -1 498 -19 530 -10 19 -33 45 -51 58 l-33 22 -516 0
c-491 0 -517 -1 -545 -19z m854 -596 l0 -315 -310 0 -310 0 0 315 0 315 310 0
310 0 0 -315z"/>
<path d="M2234 1006 c-116 -51 -117 -224 -1 -277 40 -18 85 -19 1192 -19
l1151 0 44 23 c62 32 85 67 85 132 0 58 -18 91 -69 129 -27 21 -33 21 -1199
23 -966 2 -1177 0 -1203 -11z"/>
</g>
</svg>
