<?xml version="1.0" encoding="UTF-8"?>
<svg width="24px" height="24px" viewBox="0 0 24 24" version="1.1" xmlns="http://www.w3.org/2000/svg" xmlns:xlink="http://www.w3.org/1999/xlink">
    <!-- Generator: Sketch 59 (86127) - https://sketch.com -->
    <title>Google_Chrome_1_</title>
    <desc>Created with Sketch.</desc>
    <g id="Page-1" stroke="none" stroke-width="1" fill="none" fill-rule="evenodd">
        <g id="chrome" fill="#333333" fill-rule="nonzero">
            <g id="Google_Chrome_1_">
                <path d="M2.897625,4.1806875 C8.476125,-2.3116875 18.8195625,-1.030125 22.686375,6.5536875 C19.9644375,6.554625 15.702,6.5529375 13.3935,6.5536875 C11.719125,6.55425 10.6381875,6.5161875 9.4674375,7.1325 C8.0911875,7.857 7.052625,9.199875 6.6901875,10.7773125 L2.897625,4.1806875 Z" id="Path"></path>
                <path d="M8.00775,11.999625 C8.00775,14.1999375 9.796875,15.9901875 11.9960625,15.9901875 C14.1950625,15.9901875 15.9841875,14.200125 15.9841875,11.999625 C15.9841875,9.7993125 14.1950625,8.0090625 11.9960625,8.0090625 C9.796875,8.0090625 8.00775,9.7993125 8.00775,11.999625 Z" id="Path"></path>
                <path d="M13.543875,17.2228125 C11.3053125,17.8880625 8.68575,17.15025 7.2508125,14.673375 C6.1554375,12.7828125 3.261375,7.741125 1.9460625,5.44875 C-2.6608125,12.5098125 1.3096875,22.132125 9.6733125,23.7744375 L13.543875,17.2228125 Z" id="Path"></path>
                <path d="M15.7006875,8.0090625 C17.5651875,9.7430625 17.9713125,12.5510625 16.7083125,14.7283125 C15.75675,16.36875 12.72,21.49425 11.248125,23.9761875 C19.86525,24.507375 26.1470625,16.062 23.309625,8.0090625 L15.7006875,8.0090625 Z" id="Path"></path>
            </g>
        </g>
    </g>
</svg>