<svg width="14" height="14" viewBox="0 0 14 14" fill="none" xmlns="http://www.w3.org/2000/svg">
  <path d="M7.94259 6.99992L9.82859 5.11459C9.89053 5.05265 9.93966 4.97911 9.97318 4.89818C10.0067 4.81725 10.024 4.73052 10.024 4.64292C10.024 4.55532 10.0067 4.46858 9.97318 4.38765C9.93966 4.30673 9.89053 4.23319 9.82859 4.17125C9.76665 4.10931 9.69311 4.06018 9.61218 4.02666C9.53125 3.99313 9.44452 3.97588 9.35692 3.97588C9.26932 3.97588 9.18258 3.99313 9.10166 4.02666C9.02073 4.06018 8.94719 4.10931 8.88525 4.17125L6.99992 6.05725L5.11459 4.17125C4.98949 4.04616 4.81983 3.97588 4.64292 3.97588C4.46601 3.97588 4.29635 4.04616 4.17125 4.17125C4.04616 4.29635 3.97588 4.46601 3.97588 4.64292C3.97588 4.73052 3.99314 4.81725 4.02666 4.89818C4.06018 4.97911 4.10931 5.05265 4.17125 5.11459L6.05725 6.99992L4.17125 8.88525C4.04616 9.01035 3.97588 9.18001 3.97588 9.35692C3.97588 9.53383 4.04616 9.70349 4.17125 9.82859C4.29635 9.95368 4.46601 10.024 4.64292 10.024C4.81983 10.024 4.98949 9.95368 5.11459 9.82859L6.99992 7.94258L8.88525 9.82859C9.01035 9.95368 9.18001 10.024 9.35692 10.024C9.53383 10.024 9.70349 9.95368 9.82859 9.82859C9.95368 9.70349 10.024 9.53383 10.024 9.35692C10.024 9.18001 9.95368 9.01035 9.82859 8.88525L7.94259 6.99992ZM6.99992 13.6666C3.31792 13.6666 0.333252 10.6819 0.333252 6.99992C0.333252 3.31792 3.31792 0.333252 6.99992 0.333252C10.6819 0.333252 13.6666 3.31792 13.6666 6.99992C13.6666 10.6819 10.6819 13.6666 6.99992 13.6666Z" fill="#000"/>
</svg>
