<?xml version="1.0" standalone="no"?>
<!DOCTYPE svg PUBLIC "-//W3C//DTD SVG 20010904//EN"
 "http://www.w3.org/TR/2001/REC-SVG-20010904/DTD/svg10.dtd">
<svg version="1.0" xmlns="http://www.w3.org/2000/svg"
 width="512.000000pt" height="512.000000pt" viewBox="0 0 512.000000 512.000000"
 preserveAspectRatio="xMidYMid meet">

<g transform="translate(0.000000,512.000000) scale(0.100000,-0.100000)"
fill="#000000" stroke="none">
<path d="M1217 4514 c-31 -10 -64 -30 -92 -59 -76 -76 -75 -63 -75 -762 l0
-613 -73 0 c-43 0 -78 -5 -85 -12 -9 -9 -12 -154 -12 -590 0 -663 -11 -598
104 -598 l66 0 0 -533 c0 -609 0 -607 75 -682 79 -80 -14 -75 1435 -75 1436 0
1356 -4 1428 68 80 80 77 49 80 670 l3 552 65 0 c115 0 104 -65 104 598 0 436
-3 581 -12 590 -7 7 -41 12 -85 12 l-72 0 -3 301 -3 301 -430 423 -430 424
-970 0 c-829 0 -977 -3 -1018 -15z m1929 -421 c-7 -333 -6 -360 11 -392 10
-19 31 -44 46 -55 27 -20 44 -21 405 -26 l377 -5 2 -210 c1 -115 0 -236 -3
-267 l-6 -58 -1424 0 -1424 0 0 608 c0 367 4 621 10 641 12 41 54 88 95 107
24 11 208 13 974 14 l944 0 -7 -357z m447 -391 l-328 -3 -24 28 c-23 27 -24
31 -17 153 3 69 6 213 6 320 l0 195 345 -345 345 -345 -327 -3z m567 -1222 l0
-520 -1600 0 -1600 0 0 520 0 520 1600 0 1600 0 0 -520z m-175 -1145 c-1 -477
-3 -544 -17 -570 -22 -40 -56 -70 -97 -84 -44 -14 -2569 -16 -2620 -1 -40 11
-76 42 -99 85 -15 27 -17 90 -20 573 l-3 542 1428 -2 1428 -3 0 -540z"/>
<path d="M1610 2841 c-129 -42 -209 -165 -198 -305 9 -106 64 -189 158 -238
36 -18 60 -23 125 -23 86 0 138 19 182 67 l23 24 -31 23 c-27 20 -32 21 -42 8
-46 -58 -150 -74 -227 -34 -68 34 -103 92 -108 178 -4 60 -1 77 23 125 18 36
40 64 65 80 68 45 164 44 219 -2 l30 -25 31 22 c29 22 29 23 12 42 -33 37 -94
60 -167 63 -38 2 -81 0 -95 -5z"/>
<path d="M3036 2836 c-85 -32 -127 -107 -106 -188 16 -58 56 -91 151 -124 118
-41 145 -84 91 -145 -23 -25 -38 -32 -78 -36 -41 -4 -55 -1 -87 21 -46 32 -48
32 -77 1 -20 -21 -21 -27 -9 -41 23 -29 98 -56 153 -56 71 -1 116 16 156 57
29 30 34 43 38 93 6 81 -14 116 -81 148 -29 13 -58 24 -65 24 -7 0 -32 9 -56
21 -74 34 -86 111 -22 150 40 24 82 24 130 -1 40 -20 60 -17 84 13 13 15 -2
34 -45 56 -37 19 -134 23 -177 7z"/>
<path d="M3478 2840 c-102 -30 -150 -149 -95 -231 23 -35 71 -63 172 -101 65
-25 84 -52 71 -102 -16 -65 -131 -86 -198 -36 l-30 22 -26 -25 c-26 -26 -26
-26 -7 -47 49 -54 178 -70 252 -31 63 32 88 74 88 148 0 55 -3 65 -29 92 -19
20 -56 39 -107 56 -103 35 -129 56 -129 104 0 57 36 86 105 86 42 0 59 -5 77
-22 l24 -23 30 31 29 30 -25 19 c-46 35 -140 49 -202 30z"/>
<path d="M2000 2561 l0 -281 160 0 160 0 0 35 0 35 -125 0 -125 0 -2 243 -3
242 -32 3 -33 3 0 -280z"/>
<path d="M2572 2823 c-21 -39 -232 -525 -232 -534 0 -5 17 -9 38 -9 39 0 39 0
66 70 l28 70 133 0 133 0 28 -70 c27 -70 27 -70 66 -70 24 0 38 5 38 13 0 6
-51 131 -113 277 -112 261 -114 265 -145 268 -22 2 -34 -2 -40 -15z m86 -210
c28 -67 48 -124 44 -127 -3 -3 -50 -6 -105 -6 -75 0 -98 3 -94 13 32 84 101
246 103 245 1 -2 25 -58 52 -125z"/>
</g>
</svg>
