<svg width="20" height="20" viewBox="0 0 20 20" fill="none" xmlns="http://www.w3.org/2000/svg">
<path d="M10 0.3125C4.64844 0.3125 0.3125 4.64844 0.3125 10C0.3125 15.3516 4.64844 19.6875 10 19.6875C15.3516 19.6875 19.6875 15.3516 19.6875 10C19.6875 4.64844 15.3516 0.3125 10 0.3125ZM10 17.8125C5.68359 17.8125 2.1875 14.3164 2.1875 10C2.1875 5.68359 5.68359 2.1875 10 2.1875C14.3164 2.1875 17.8125 5.68359 17.8125 10C17.8125 14.3164 14.3164 17.8125 10 17.8125ZM12.4141 13.7344L9.09766 11.3242C8.97656 11.2344 8.90625 11.0938 8.90625 10.9453V4.53125C8.90625 4.27344 9.11719 4.0625 9.375 4.0625H10.625C10.8828 4.0625 11.0938 4.27344 11.0938 4.53125V10.0664L13.7031 11.9648C13.9141 12.1172 13.957 12.4102 13.8047 12.6211L13.0703 13.6328C12.918 13.8398 12.625 13.8867 12.4141 13.7344Z" fill="#6A737D"/>
</svg>
