<svg width="10" height="10" viewBox="0 0 10 10" fill="none" xmlns="http://www.w3.org/2000/svg">
<path d="M6.06185 5.00307L9.28685 1.78557C9.42808 1.64434 9.50742 1.4528 9.50742 1.25307C9.50742 1.05334 9.42808 0.861797 9.28685 0.720569C9.14562 0.579341 8.95408 0.5 8.75435 0.5C8.55462 0.5 8.36308 0.579341 8.22185 0.720569L5.00435 3.94557L1.78685 0.720569C1.64562 0.579341 1.45408 0.5 1.25435 0.5C1.05462 0.5 0.863077 0.579341 0.721849 0.720569C0.580621 0.861797 0.50128 1.05334 0.50128 1.25307C0.50128 1.4528 0.580621 1.64434 0.721849 1.78557L3.94685 5.00307L0.721849 8.22057C0.651552 8.29029 0.595757 8.37324 0.55768 8.46464C0.519604 8.55603 0.5 8.65406 0.5 8.75307C0.5 8.85208 0.519604 8.95011 0.55768 9.0415C0.595757 9.1329 0.651552 9.21585 0.721849 9.28557C0.791571 9.35586 0.874522 9.41166 0.965916 9.44974C1.05731 9.48781 1.15534 9.50742 1.25435 9.50742C1.35336 9.50742 1.45139 9.48781 1.54278 9.44974C1.63418 9.41166 1.71713 9.35586 1.78685 9.28557L5.00435 6.06057L8.22185 9.28557C8.29157 9.35586 8.37452 9.41166 8.46592 9.44974C8.55731 9.48781 8.65534 9.50742 8.75435 9.50742C8.85336 9.50742 8.95139 9.48781 9.04278 9.44974C9.13418 9.41166 9.21713 9.35586 9.28685 9.28557C9.35715 9.21585 9.41294 9.1329 9.45102 9.0415C9.4891 8.95011 9.5087 8.85208 9.5087 8.75307C9.5087 8.65406 9.4891 8.55603 9.45102 8.46464C9.41294 8.37324 9.35715 8.29029 9.28685 8.22057L6.06185 5.00307Z" fill="#6A737D"/>
</svg>
