<svg width="24" height="24" viewBox="0 0 24 24" fill="none" xmlns="http://www.w3.org/2000/svg">
<mask id="mask0_35_12539" style="mask-type:alpha" maskUnits="userSpaceOnUse" x="0" y="0" width="24" height="24">
<rect width="24" height="24" fill="#D9D9D9"/>
</mask>
<g mask="url(#mask0_35_12539)">
<path d="M10.35 17L16 11.35L14.55 9.9L10.325 14.125L8.225 12.025L6.8 13.45L10.35 17ZM6.5 20C4.98333 20 3.68767 19.475 2.613 18.425C1.53767 17.375 1 16.0917 1 14.575C1 13.275 1.39167 12.1167 2.175 11.1C2.95833 10.0833 3.98333 9.43333 5.25 9.15C5.66667 7.61667 6.5 6.375 7.75 5.425C9 4.475 10.4167 4 12 4C13.95 4 15.604 4.679 16.962 6.037C18.3207 7.39567 19 9.05 19 11C20.15 11.1333 21.1043 11.629 21.863 12.487C22.621 13.3457 23 14.35 23 15.5C23 16.75 22.5627 17.8127 21.688 18.688C20.8127 19.5627 19.75 20 18.5 20H6.5Z" fill="#03A973"/>
</g>
</svg>
