<svg width="20" height="20" viewBox="0 0 20 20" fill="none" xmlns="http://www.w3.org/2000/svg">
<path d="M4.19501 9.26417C3.40685 9.46249 2.71824 9.9418 2.25855 10.612C1.79887 11.2823 1.59974 12.0973 1.6986 12.904C1.79745 13.7107 2.18748 14.4535 2.7954 14.9929C3.40332 15.5323 4.18728 15.8312 5.00001 15.8333H14.1667C14.755 15.8329 15.3367 15.7079 15.8732 15.4665C16.4098 15.2252 16.8892 14.8729 17.2798 14.4329C17.6704 13.9929 17.9634 13.4752 18.1395 12.9138C18.3156 12.3524 18.3708 11.7601 18.3015 11.1758C18.2322 10.5915 18.0399 10.0286 17.7373 9.52395C17.4348 9.01934 17.0288 8.58454 16.546 8.24815C16.0633 7.91177 15.5148 7.68143 14.9367 7.5723C14.3585 7.46317 13.7638 7.47772 13.1917 7.615L12.0833 7.91667" stroke="#03A973" stroke-width="2" stroke-linecap="round" stroke-linejoin="round"/>
<path d="M13.1917 7.61499C12.9069 6.48713 12.2039 5.50977 11.2252 4.88104C10.2464 4.2523 9.06528 4.01923 7.9211 4.22908C6.77692 4.43892 5.75533 5.07598 5.06344 6.0111C4.37154 6.94623 4.0611 8.10946 4.19505 9.26499C4.19505 9.26499 4.32255 9.99999 4.58339 10.4167" stroke="#03A973" stroke-width="2" stroke-linecap="round" stroke-linejoin="round"/>
</svg>
