<svg width="13" height="29" viewBox="0 0 13 29" fill="none" xmlns="http://www.w3.org/2000/svg">
<path d="M2.67371 21.2318L0.757812 23.1464L6.50281 28.8914L12.2478 23.1464L10.3319 21.2318L6.50281 25.0623L2.67371 21.2318Z" fill="black"/>
<path d="M10.3319 8.18494L12.2478 6.27039L6.50281 0.525391L0.757812 6.27039L2.67371 8.18494L6.50281 4.35584L10.3319 8.18494Z" fill="black"/>
<path fill-rule="evenodd" clip-rule="evenodd" d="M6.50559 10.6465C7.58289 10.6465 8.61608 11.0744 9.37785 11.8362C10.1396 12.598 10.5676 13.6312 10.5676 14.7085C10.5676 15.7858 10.1396 16.819 9.37785 17.5807C8.61608 18.3425 7.58289 18.7705 6.50559 18.7705C5.42828 18.7705 4.3951 18.3425 3.63333 17.5807C2.87156 16.819 2.4436 15.7858 2.4436 14.7085C2.4436 13.6312 2.87156 12.598 3.63333 11.8362C4.3951 11.0744 5.42828 10.6465 6.50559 10.6465ZM6.50559 13.3545C6.86469 13.3545 7.20908 13.4971 7.46301 13.7511C7.71693 14.005 7.85958 14.3494 7.85958 14.7085C7.85958 15.0676 7.71693 15.412 7.46301 15.6659C7.20908 15.9198 6.86469 16.0625 6.50559 16.0625C6.14649 16.0625 5.80209 15.9198 5.54817 15.6659C5.29425 15.412 5.15159 15.0676 5.15159 14.7085C5.15159 14.3494 5.29425 14.005 5.54817 13.7511C5.80209 13.4971 6.14649 13.3545 6.50559 13.3545Z" fill="black"/>
</svg>
