<svg width="26" height="23" viewBox="0 0 26 23" fill="none" xmlns="http://www.w3.org/2000/svg">
<path d="M2.4375 2.4375H4.0625V4.0625H2.4375V2.4375Z" fill="black"/>
<path d="M5.6875 2.4375H7.3125V4.0625H5.6875V2.4375Z" fill="black"/>
<path d="M8.9375 2.4375H10.5625V4.0625H8.9375V2.4375Z" fill="black"/>
<path d="M24.375 0H1.625C1.19402 0 0.780698 0.171205 0.475951 0.475951C0.171205 0.780698 0 1.19402 0 1.625V21.125C0 21.556 0.171205 21.9693 0.475951 22.274C0.780698 22.5788 1.19402 22.75 1.625 22.75H24.375C24.806 22.75 25.2193 22.5788 25.524 22.274C25.8288 21.9693 26 21.556 26 21.125V1.625C26 1.19402 25.8288 0.780698 25.524 0.475951C25.2193 0.171205 24.806 0 24.375 0ZM1.625 1.625H24.375V5.0375H1.625V1.625ZM1.625 21.125V6.3375H24.375V21.125H1.625Z" fill="black"/>
</svg>
