<?xml version="1.0" encoding="UTF-8"?>
<svg width="20px" height="20px" viewBox="0 0 20 20" version="1.1" xmlns="http://www.w3.org/2000/svg" xmlns:xlink="http://www.w3.org/1999/xlink">
    <!-- Generator: Sketch 55.2 (78181) - https://sketchapp.com -->
    <title>message [#1578]</title>
    <desc>Created with Sketch.</desc>
    <g id="Page-1" stroke="none" stroke-width="1" fill="none" fill-rule="evenodd">
        <g id="Test-case-11-Copy-25" transform="translate(-351.000000, -199.000000)" fill="#FFFFFF">
            <path d="M363.344,199 L358.657,199 C354.428,199 351,202.260755 351,206.474225 C351,210.687695 354.428,213.948451 358.657,213.948451 L362.907,213.948451 L366.885,218.17089 C368.643,219.922848 371,218.638278 371,216.728862 L371,206.833985 C371,202.619518 367.546,199 363.318,199 L363.344,199 Z M363.172,201.094776 C366.291,201.094776 369,203.725704 369,206.833985 L369,216.728862 C369,217.093605 368.564,217.282952 368.299,217.018862 C363.718,212.15663 364.493,213.044568 363.735,211.955324 L358.657,211.955324 C355.538,211.955324 353,209.582506 353,206.474225 C353,203.365944 355.538,200.993127 358.657,200.993127 L363,200.993127 L363.172,201.094776 Z" id="message-[#1578]"></path>
        </g>
    </g>
</svg>