<svg width="16" height="16" viewBox="0 0 16 16" fill="none" xmlns="http://www.w3.org/2000/svg">
<path d="M0.888889 4.44506H4C4.65422 4.44506 5.23822 4.79261 5.64533 5.33484C5.93422 4.79795 6.29333 4.30106 6.704 3.8575C5.99022 3.12595 5.04533 2.66728 4 2.66728H0.888889C0.397333 2.66728 0 3.0655 0 3.55617C0 4.04684 0.397333 4.44506 0.888889 4.44506Z" fill="black"/>
<path d="M7.72 7.21C8.20978 5.73711 9.72533 4.44467 10.9636 4.44467H12.5973L11.448 5.594C11.1004 5.94156 11.1004 6.50333 11.448 6.85089C11.6213 7.02422 11.8489 7.11133 12.0764 7.11133C12.304 7.11133 12.5316 7.02422 12.7049 6.85089L16 3.55578L12.7049 0.260667C12.3573 -0.0868889 11.7956 -0.0868889 11.448 0.260667C11.1004 0.608222 11.1004 1.17 11.448 1.51755L12.5973 2.66689H10.9636C8.94222 2.66689 6.776 4.41533 6.03289 6.64822L5.61333 7.90244C5.04356 9.61444 3.77156 10.6669 3.11111 10.6669H0.888889C0.397333 10.6669 0 11.0651 0 11.5558C0 12.0464 0.397333 12.4447 0.888889 12.4447H3.11111C4.744 12.4447 6.54489 10.7336 7.30044 8.46333L7.72 7.21Z" fill="black"/>
<path d="M11.448 8.26067C11.1004 8.60822 11.1004 9.17 11.448 9.51755L12.5973 10.6669H10.5191C9.39198 10.6669 8.44798 9.87489 8.12709 8.79311C7.89954 9.45978 7.56976 10.1256 7.1582 10.7353C7.94576 11.7682 9.15198 12.4447 10.5191 12.4447H12.5973L11.448 13.594C11.1004 13.9416 11.1004 14.5033 11.448 14.8509C11.6213 15.0242 11.8489 15.1113 12.0764 15.1113C12.304 15.1113 12.5315 15.0242 12.7049 14.8509L16 11.5558L12.7049 8.26067C12.3573 7.91311 11.7955 7.91311 11.448 8.26067Z" fill="black"/>
</svg>
