<svg width="20" height="16" viewBox="0 0 20 16" fill="none" xmlns="http://www.w3.org/2000/svg">
<path fill-rule="evenodd" clip-rule="evenodd" d="M18.125 1.75H1.875C1.70924 1.75 1.55027 1.81585 1.43306 1.93306C1.31585 2.05027 1.25 2.20924 1.25 2.375V13.625C1.25 13.7908 1.31585 13.9497 1.43306 14.0669C1.55027 14.1842 1.70924 14.25 1.875 14.25H18.125C18.2908 14.25 18.4497 14.1842 18.5669 14.0669C18.6842 13.9497 18.75 13.7908 18.75 13.625V2.375C18.75 2.20924 18.6842 2.05027 18.5669 1.93306C18.4497 1.81585 18.2908 1.75 18.125 1.75ZM1.875 0.5C1.37772 0.5 0.900805 0.697544 0.549175 1.04917C0.197544 1.40081 0 1.87772 0 2.375L0 13.625C0 14.1223 0.197544 14.5992 0.549175 14.9508C0.900805 15.3025 1.37772 15.5 1.875 15.5H18.125C18.6223 15.5 19.0992 15.3025 19.4508 14.9508C19.8025 14.5992 20 14.1223 20 13.625V2.375C20 1.87772 19.8025 1.40081 19.4508 1.04917C19.0992 0.697544 18.6223 0.5 18.125 0.5H1.875Z" fill="#333333"/>
<path fill-rule="evenodd" clip-rule="evenodd" d="M6.25 8C6.25 7.83424 6.31585 7.67527 6.43306 7.55806C6.55027 7.44085 6.70924 7.375 6.875 7.375H15.625C15.7908 7.375 15.9497 7.44085 16.0669 7.55806C16.1842 7.67527 16.25 7.83424 16.25 8C16.25 8.16576 16.1842 8.32473 16.0669 8.44194C15.9497 8.55915 15.7908 8.625 15.625 8.625H6.875C6.70924 8.625 6.55027 8.55915 6.43306 8.44194C6.31585 8.32473 6.25 8.16576 6.25 8ZM6.25 4.875C6.25 4.70924 6.31585 4.55027 6.43306 4.43306C6.55027 4.31585 6.70924 4.25 6.875 4.25H15.625C15.7908 4.25 15.9497 4.31585 16.0669 4.43306C16.1842 4.55027 16.25 4.70924 16.25 4.875C16.25 5.04076 16.1842 5.19973 16.0669 5.31694C15.9497 5.43415 15.7908 5.5 15.625 5.5H6.875C6.70924 5.5 6.55027 5.43415 6.43306 5.31694C6.31585 5.19973 6.25 5.04076 6.25 4.875ZM6.25 11.125C6.25 10.9592 6.31585 10.8003 6.43306 10.6831C6.55027 10.5658 6.70924 10.5 6.875 10.5H15.625C15.7908 10.5 15.9497 10.5658 16.0669 10.6831C16.1842 10.8003 16.25 10.9592 16.25 11.125C16.25 11.2908 16.1842 11.4497 16.0669 11.5669C15.9497 11.6842 15.7908 11.75 15.625 11.75H6.875C6.70924 11.75 6.55027 11.6842 6.43306 11.5669C6.31585 11.4497 6.25 11.2908 6.25 11.125Z" fill="#333333"/>
<path d="M4.375 5.5C4.72018 5.5 5 5.22018 5 4.875C5 4.52982 4.72018 4.25 4.375 4.25C4.02982 4.25 3.75 4.52982 3.75 4.875C3.75 5.22018 4.02982 5.5 4.375 5.5Z" fill="#333333"/>
<path d="M4.375 8.625C4.72018 8.625 5 8.34518 5 8C5 7.65482 4.72018 7.375 4.375 7.375C4.02982 7.375 3.75 7.65482 3.75 8C3.75 8.34518 4.02982 8.625 4.375 8.625Z" fill="#333333"/>
<path d="M4.375 11.75C4.72018 11.75 5 11.4702 5 11.125C5 10.7798 4.72018 10.5 4.375 10.5C4.02982 10.5 3.75 10.7798 3.75 11.125C3.75 11.4702 4.02982 11.75 4.375 11.75Z" fill="#333333"/>
</svg>
