<svg width="24" height="24" viewBox="0 0 24 24" fill="none" xmlns="http://www.w3.org/2000/svg">
<path d="M3.10654 0.361274C3.99592 0.0439199 4.96066 0.00384638 5.87329 0.246348C6.78593 0.488849 7.60353 1.00251 8.21807 1.71948C8.83262 2.43645 9.2152 3.32299 9.31527 4.26198C9.41534 5.20097 9.22818 6.14823 8.77854 6.97861L23.0572 21.2586L21.1719 23.1439L6.89187 8.86394C6.06131 9.31181 5.11453 9.49752 4.17632 9.39661C3.2381 9.29569 2.35248 8.91288 1.63616 8.29862C0.919833 7.68436 0.406429 6.86748 0.163601 5.95564C-0.0792275 5.04379 -0.0400836 4.07977 0.275874 3.19061L3.25854 6.17327C3.44303 6.36429 3.66372 6.51666 3.90773 6.62148C4.15174 6.72629 4.41418 6.78147 4.67974 6.78377C4.9453 6.78608 5.20866 6.73548 5.45445 6.63492C5.70024 6.53435 5.92355 6.38585 6.11133 6.19806C6.29912 6.01028 6.44762 5.78697 6.54818 5.54118C6.64875 5.29539 6.69935 5.03203 6.69704 4.76647C6.69473 4.50091 6.63956 4.23847 6.53474 3.99446C6.42993 3.75046 6.27756 3.52977 6.08654 3.34527L3.10521 0.359941L3.10654 0.361274ZM16.9292 2.87327L21.1719 0.515941L23.0572 2.40127L20.6999 6.64394L18.3425 7.11594L15.5159 9.94394L13.6292 8.05861L16.4572 5.23061L16.9292 2.87327ZM7.97187 13.7159L9.85721 15.6013L2.78654 22.6719C2.54614 22.913 2.22262 23.053 1.88231 23.0632C1.54201 23.0734 1.21069 22.953 0.956295 22.7267C0.701898 22.5005 0.543692 22.1855 0.514112 21.8463C0.484532 21.5071 0.585819 21.1695 0.797207 20.9026L0.901207 20.7866L7.97187 13.7159Z" fill="#606060"/>
</svg>
