<svg width="19" height="18" viewBox="0 0 19 18" fill="none" xmlns="http://www.w3.org/2000/svg">
  <path fill-rule="evenodd" clip-rule="evenodd" d="M2.16772 0C1.7036 0 1.25848 0.184375 0.930288 0.512563C0.602099 0.840752 0.417725 1.28587 0.417725 1.75V11.25C0.417725 12.216 1.20172 13 2.16772 13H3.66772C3.86664 13 4.0574 12.921 4.19805 12.7803C4.33871 12.6397 4.41772 12.4489 4.41772 12.25C4.41772 12.0511 4.33871 11.8603 4.19805 11.7197C4.0574 11.579 3.86664 11.5 3.66772 11.5H2.16772C2.10142 11.5 2.03783 11.4737 1.99095 11.4268C1.94406 11.3799 1.91772 11.3163 1.91772 11.25V1.75C1.91772 1.6837 1.94406 1.62011 1.99095 1.57322C2.03783 1.52634 2.10142 1.5 2.16772 1.5H11.6677C11.734 1.5 11.7976 1.52634 11.8445 1.57322C11.8914 1.62011 11.9177 1.6837 11.9177 1.75V3.25C11.9177 3.44891 11.9967 3.63968 12.1374 3.78033C12.278 3.92098 12.4688 4 12.6677 4C12.8666 4 13.0574 3.92098 13.1981 3.78033C13.3387 3.63968 13.4177 3.44891 13.4177 3.25V1.75C13.4177 1.28587 13.2334 0.840752 12.9052 0.512563C12.577 0.184375 12.1319 0 11.6677 0H2.16772ZM7.16772 5C6.7036 5 6.25848 5.18437 5.93029 5.51256C5.6021 5.84075 5.41772 6.28587 5.41772 6.75V16.25C5.41772 17.216 6.20172 18 7.16772 18H16.6677C17.1319 18 17.577 17.8156 17.9052 17.4874C18.2333 17.1592 18.4177 16.7141 18.4177 16.25V6.75C18.4177 6.28587 18.2333 5.84075 17.9052 5.51256C17.577 5.18437 17.1319 5 16.6677 5H7.16772ZM6.91772 6.75C6.91772 6.6837 6.94406 6.62011 6.99095 6.57322C7.03783 6.52634 7.10142 6.5 7.16772 6.5H16.6677C16.734 6.5 16.7976 6.52634 16.8445 6.57322C16.8914 6.62011 16.9177 6.6837 16.9177 6.75V16.25C16.9177 16.3163 16.8914 16.3799 16.8445 16.4268C16.7976 16.4737 16.734 16.5 16.6677 16.5H7.16772C7.10142 16.5 7.03783 16.4737 6.99095 16.4268C6.94406 16.3799 6.91772 16.3163 6.91772 16.25V6.75Z" fill="black"/>
</svg>
