<?xml version="1.0" encoding="UTF-8"?>
<svg width="15px" height="14px" viewBox="0 0 15 14" version="1.1" xmlns="http://www.w3.org/2000/svg" xmlns:xlink="http://www.w3.org/1999/xlink">
    <!-- Generator: Sketch 58 (84663) - https://sketch.com -->
    <title>copy</title>
    <desc>Created with Sketch.</desc>
    <g id="Page-1" stroke="none" stroke-width="1" fill="none" fill-rule="evenodd">
        <g id="Test-case-11-Copy" transform="translate(-1239.000000, -24.000000)" fill="#5E6060" fill-rule="nonzero">
            <g id="copy" transform="translate(1239.000000, 24.000000)">
                <path d="M13.5136302,4.28785714 L5.62279855,4.28785714 C5.1198573,4.28785714 4.71214286,4.69557159 4.71214286,5.19851284 L4.71214286,13.0893444 C4.71214286,13.5922857 5.1198573,14.0000001 5.62279855,14.0000001 L13.5136302,14.0000001 C14.0165714,14.0000001 14.4242859,13.5922857 14.4242859,13.0893444 L14.4242859,5.19851284 C14.4242859,4.69557159 14.0165714,4.28785714 13.5136302,4.28785714 Z" id="Path"></path>
                <path d="M9.712143,2.12638105 L9.712143,1.21572535 C9.712143,0.546072935 9.17061865,0.00250806148 8.50097092,-1.50990331e-14 L1.21572535,-1.50990331e-14 C0.545335722,0.00249682159 0.00249682159,0.545335722 -1.28785871e-13,1.21572535 L-1.28785871e-13,8.50097092 C0.00250806148,9.17061865 0.546072935,9.712143 1.21572535,9.712143 L2.12638105,9.712143 L2.12638105,3.94769244 C2.12638105,2.94180994 2.94180994,2.12638105 3.94769244,2.12638105 L9.712143,2.12638105 Z" id="Path"></path>
            </g>
        </g>
    </g>
</svg>