<svg width="16" height="13" viewBox="0 0 16 13" fill="none" xmlns="http://www.w3.org/2000/svg">
<path d="M1.38145 0.993861L4.54615 3.77846L7.36568 0.306859C7.44464 0.209805 7.54447 0.131814 7.65774 0.0786932C7.77101 0.0255722 7.89481 -0.00130988 8.01992 4.90724e-05C8.14502 0.00140803 8.2682 0.0309731 8.3803 0.0865422C8.49239 0.142111 8.5905 0.222253 8.66733 0.320998L11.3579 3.77763L14.625 0.953106C14.7532 0.842412 14.9123 0.773546 15.0808 0.755724C15.2493 0.737902 15.4192 0.771974 15.5679 0.853382C15.7165 0.934789 15.8367 1.05965 15.9124 1.21124C15.9881 1.36284 16.0157 1.53394 15.9915 1.70166L14.7439 10.3075H1.27582L0.00910654 1.74075C-0.0160554 1.5721 0.0112232 1.3998 0.0872472 1.24718C0.163271 1.09455 0.284367 0.968984 0.434133 0.887474C0.583899 0.805965 0.755099 0.772456 0.924544 0.791485C1.09399 0.810514 1.25349 0.881163 1.38145 0.993861ZM1.34069 11.1392H14.6482V11.9709C14.6482 12.1915 14.5606 12.4031 14.4046 12.559C14.2487 12.715 14.0371 12.8026 13.8165 12.8026H2.17241C1.95183 12.8026 1.74028 12.715 1.5843 12.559C1.42832 12.4031 1.34069 12.1915 1.34069 11.9709V11.1392Z" fill="#FF9900"/>
</svg>
