<?xml version="1.0" standalone="no"?>
<!DOCTYPE svg PUBLIC "-//W3C//DTD SVG 20010904//EN"
 "http://www.w3.org/TR/2001/REC-SVG-20010904/DTD/svg10.dtd">
<svg version="1.0" xmlns="http://www.w3.org/2000/svg"
 width="512.000000pt" height="512.000000pt" viewBox="0 0 512.000000 512.000000"
 preserveAspectRatio="xMidYMid meet">

<g transform="translate(0.000000,512.000000) scale(0.100000,-0.100000)"
fill="#000000" stroke="none">
<path d="M1264 4511 c-52 -9 -127 -53 -155 -92 -48 -68 -49 -82 -49 -731 l0
-608 -66 0 c-115 0 -104 64 -104 -593 0 -432 3 -576 12 -585 7 -7 41 -12 85
-12 l72 0 3 -553 3 -553 26 -49 c32 -62 93 -110 159 -124 72 -15 2548 -15
2620 0 66 14 127 62 159 124 l26 49 3 553 3 553 72 0 c44 0 78 5 85 12 9 9 12
153 12 585 0 657 11 593 -104 593 l-66 0 0 293 1 292 -422 418 c-232 230 -432
423 -446 428 -28 10 -1864 10 -1929 0z m1878 -431 c-4 -407 -4 -406 78 -447
43 -23 51 -23 402 -23 l358 0 0 -265 0 -265 -1420 0 -1420 0 0 603 c0 364 4
616 10 637 12 42 65 97 106 110 16 4 448 8 959 7 l930 -2 -3 -355z m596 -205
c94 -93 172 -173 172 -176 0 -4 -146 -6 -324 -5 -303 1 -325 2 -345 20 -20 19
-21 27 -21 306 0 158 3 302 6 320 l7 32 166 -164 c91 -89 244 -239 339 -333z
m412 -1395 l0 -519 -1590 0 -1590 0 0 519 0 520 1590 0 1590 0 0 -520z m-172
-1125 l2 -530 -22 -45 c-27 -52 -60 -78 -114 -90 -52 -12 -2516 -12 -2568 0
-45 10 -81 34 -110 74 -21 27 -21 40 -24 564 -1 295 0 542 2 549 4 11 259 13
1418 11 l1413 -3 3 -530z"/>
<path d="M2034 2739 c-18 -5 -53 -24 -80 -41 -129 -89 -154 -303 -49 -426 53
-61 123 -92 211 -92 78 0 124 15 173 56 37 31 38 37 6 58 -23 15 -26 15 -70
-16 -41 -29 -55 -33 -110 -33 -54 0 -70 4 -107 30 -118 82 -122 276 -6 368 61
49 170 50 226 2 l28 -24 30 25 29 24 -30 25 c-56 47 -172 67 -251 44z"/>
<path d="M2497 2736 c-71 -26 -107 -76 -107 -149 0 -80 42 -121 174 -168 98
-35 120 -79 71 -137 -43 -51 -118 -54 -174 -6 l-29 24 -26 -21 c-34 -27 -33
-43 7 -68 121 -75 285 -30 316 87 25 92 -17 155 -129 192 -113 38 -130 52
-130 105 0 37 10 55 41 70 36 19 87 19 119 0 14 -8 31 -17 38 -21 7 -4 24 4
38 17 l24 23 -21 22 c-38 41 -141 55 -212 30z"/>
<path d="M2933 2739 c-46 -14 -101 -71 -109 -114 -18 -95 30 -159 147 -197 83
-27 119 -55 119 -95 0 -86 -123 -122 -198 -58 l-28 24 -30 -24 -29 -23 20 -22
c27 -30 46 -39 105 -50 145 -28 260 67 236 195 -10 52 -55 90 -144 119 -95 32
-122 54 -122 101 0 72 111 114 173 65 14 -11 29 -20 34 -20 10 0 53 42 53 52
0 4 -15 16 -34 27 -40 25 -144 36 -193 20z"/>
</g>
</svg>
