<?xml version="1.0" standalone="no"?>
<!DOCTYPE svg PUBLIC "-//W3C//DTD SVG 20010904//EN"
 "http://www.w3.org/TR/2001/REC-SVG-20010904/DTD/svg10.dtd">
<svg version="1.0" xmlns="http://www.w3.org/2000/svg"
 width="512.000000pt" height="512.000000pt" viewBox="0 0 512.000000 512.000000"
 preserveAspectRatio="xMidYMid meet">

<g transform="translate(0.000000,512.000000) scale(0.100000,-0.100000)"
fill="#000000" stroke="none">
<path d="M448 4260 c-215 -37 -384 -194 -433 -402 -21 -90 -21 -586 0 -676 42
-178 177 -325 354 -385 66 -22 67 -22 914 -25 l847 -3 0 -58 c0 -253 67 -483
200 -683 281 -424 799 -625 1271 -494 154 43 279 103 394 190 l60 45 450 -448
c308 -307 459 -451 478 -455 57 -13 127 44 127 104 0 12 -6 33 -14 48 -8 15
-211 223 -450 462 -240 239 -436 438 -436 442 0 5 20 35 44 67 138 189 226
454 226 686 l0 92 103 6 c58 3 130 15 168 26 128 40 249 143 310 263 52 103
59 155 59 458 0 208 -4 290 -15 338 -42 178 -177 324 -354 385 l-66 22 -2095
1 c-1152 1 -2116 -2 -2142 -6z m4267 -239 c69 -32 136 -99 168 -169 21 -45 22
-59 22 -332 0 -273 -1 -287 -22 -332 -32 -70 -99 -137 -168 -169 -55 -26 -70
-29 -171 -29 l-111 0 -12 43 c-63 210 -263 471 -465 607 -398 266 -901 265
-1303 -2 -106 -71 -255 -223 -328 -335 -32 -51 -60 -91 -61 -90 -1 1 18 142
40 312 l42 310 -49 3 c-27 2 -51 1 -53 -1 -2 -2 -13 -89 -25 -193 -11 -104
-22 -190 -23 -192 -2 -1 -18 55 -35 125 -18 70 -36 145 -42 166 l-10 38 -52
-3 -52 -3 -41 -154 c-58 -219 -62 -217 -90 57 l-17 162 -64 0 c-35 0 -63 -4
-63 -8 0 -5 18 -143 40 -307 22 -164 40 -305 40 -312 0 -9 18 -13 65 -13 l64
0 10 38 c5 20 24 104 42 185 18 81 36 142 40 135 4 -7 28 -91 55 -185 l47
-173 64 0 c34 0 63 -2 63 -5 0 -3 -11 -27 -24 -53 -13 -26 -31 -71 -40 -99
l-18 -53 -856 0 -857 0 -60 29 c-69 32 -136 99 -168 169 -21 45 -22 59 -22
332 0 273 1 287 22 332 32 70 99 137 168 169 l60 29 2095 0 2095 0 60 -29z
m-1165 -427 c333 -84 598 -351 686 -689 21 -82 26 -123 26 -230 2 -268 -82
-480 -262 -669 -124 -129 -255 -210 -427 -263 -80 -24 -103 -26 -258 -27 -148
-1 -181 2 -254 22 -336 92 -591 347 -683 683 -20 73 -23 106 -22 254 1 155 3
178 27 258 53 172 134 303 263 427 159 152 343 236 574 264 72 8 238 -7 330
-30z"/>
<path d="M430 3833 c0 -5 23 -149 51 -320 l52 -313 53 0 c61 0 48 -24 115 218
25 90 45 148 50 140 4 -7 28 -91 55 -185 l47 -173 53 0 c46 0 52 3 57 23 3 12
27 154 54 315 33 204 50 285 55 265 3 -15 28 -157 54 -315 l47 -288 63 0 63 0
10 38 c5 20 24 104 42 185 18 81 36 142 40 135 4 -7 28 -91 55 -185 l47 -173
64 0 c34 0 63 1 63 3 1 1 20 144 43 317 l43 315 -49 3 c-27 2 -51 1 -53 -1 -2
-2 -13 -89 -25 -193 -11 -104 -22 -190 -24 -192 -2 -2 -6 5 -8 15 -3 10 -27
85 -52 166 l-46 148 -52 -3 -52 -3 -40 -147 c-22 -81 -42 -144 -46 -140 -3 4
-14 85 -24 180 l-18 172 -128 0 -127 0 -6 -27 c-3 -16 -17 -102 -31 -193 -15
-90 -27 -166 -29 -168 -2 -1 -18 55 -35 125 -18 70 -36 145 -42 166 l-10 38
-52 -3 -52 -3 -41 -150 c-23 -82 -44 -143 -47 -135 -3 8 -13 90 -23 183 l-17
167 -74 0 c-40 0 -73 -3 -73 -7z"/>
<path d="M2775 3198 c-49 -43 -119 -143 -154 -220 -42 -93 -61 -191 -61 -318
0 -104 1 -112 25 -135 20 -21 34 -25 82 -25 32 0 63 4 69 8 24 16 34 55 34
134 0 147 39 258 134 384 65 87 63 154 -4 189 -46 24 -85 19 -125 -17z"/>
<path d="M2833 2323 c-32 -6 -72 -51 -79 -88 -18 -99 107 -162 179 -90 72 73
3 197 -100 178z"/>
</g>
</svg>
