<svg width="20" height="20" viewBox="0 0 20 20" fill="none" xmlns="http://www.w3.org/2000/svg">
<mask id="mask0_36_355" style="mask-type:alpha" maskUnits="userSpaceOnUse" x="0" y="0" width="20" height="20">
<rect width="20" height="20" fill="#D9D9D9"/>
</mask>
<g mask="url(#mask0_36_355)">
<path d="M7.39567 17.0833H4.1665C3.81928 17.0833 3.52428 16.9617 3.2815 16.7183C3.03817 16.4756 2.9165 16.1806 2.9165 15.8333V12.6042C3.48595 12.5347 3.97567 12.2986 4.38567 11.8958C4.79512 11.4931 4.99984 11 4.99984 10.4167C4.99984 9.83333 4.79512 9.34028 4.38567 8.9375C3.97567 8.53472 3.48595 8.29861 2.9165 8.22916V5C2.9165 4.65278 3.03817 4.35778 3.2815 4.115C3.52428 3.87166 3.81928 3.75 4.1665 3.75H7.49984C7.56928 3.22222 7.79845 2.78472 8.18734 2.4375C8.57623 2.09028 9.0415 1.91666 9.58317 1.91666C10.1248 1.91666 10.5901 2.09028 10.979 2.4375C11.3679 2.78472 11.5971 3.22222 11.6665 3.75H14.9998C15.3471 3.75 15.6421 3.87166 15.8848 4.115C16.1282 4.35778 16.2498 4.65278 16.2498 5V8.33333C16.7776 8.40278 17.2151 8.63194 17.5623 9.02083C17.9096 9.40972 18.0832 9.875 18.0832 10.4167C18.0832 10.9583 17.9096 11.4236 17.5623 11.8125C17.2151 12.2014 16.7776 12.4306 16.2498 12.5V15.8333C16.2498 16.1806 16.1282 16.4756 15.8848 16.7183C15.6421 16.9617 15.3471 17.0833 14.9998 17.0833H11.7707C11.7012 16.4861 11.4582 15.9894 11.0415 15.5933C10.6248 15.1978 10.1387 15 9.58317 15C9.02762 15 8.5415 15.1978 8.12484 15.5933C7.70817 15.9894 7.46512 16.4861 7.39567 17.0833ZM4.1665 15.8333H6.4165C6.70817 15.0972 7.16317 14.5658 7.7815 14.2392C8.39928 13.9131 8.99984 13.75 9.58317 13.75C10.1665 13.75 10.7673 13.9131 11.3857 14.2392C12.0034 14.5658 12.4582 15.0972 12.7498 15.8333H14.9998V11.2917H16.0207C16.2846 11.2639 16.4859 11.1633 16.6248 10.99C16.7637 10.8161 16.8332 10.625 16.8332 10.4167C16.8332 10.2083 16.7637 10.0172 16.6248 9.84333C16.4859 9.67 16.2846 9.56944 16.0207 9.54166H14.9998V5H10.4582V3.97916C10.4304 3.71528 10.3298 3.51389 10.1565 3.375C9.98261 3.23611 9.7915 3.16666 9.58317 3.16666C9.37484 3.16666 9.18373 3.23611 9.00984 3.375C8.8365 3.51389 8.73595 3.71528 8.70817 3.97916V5H4.1665V7.29166C4.80539 7.54166 5.31234 7.95139 5.68734 8.52083C6.06234 9.09028 6.24984 9.72222 6.24984 10.4167C6.24984 11.0972 6.06234 11.7222 5.68734 12.2917C5.31234 12.8611 4.80539 13.2778 4.1665 13.5417V15.8333Z" fill="#4B5768"/>
</g>
</svg>
