<svg width="24" height="24" viewBox="0 0 24 24" fill="none" xmlns="http://www.w3.org/2000/svg">
<mask id="mask0_2_2665" style="mask-type:alpha" maskUnits="userSpaceOnUse" x="0" y="0" width="24" height="24">
<rect width="24" height="24" fill="#D9D9D9"/>
</mask>
<g mask="url(#mask0_2_2665)">
<path d="M10.6 15.35C10.95 15.7 11.4083 15.8667 11.975 15.85C12.5417 15.8333 12.95 15.6333 13.2 15.25L17.2 9.45C17.35 9.23333 17.3333 9.03767 17.15 8.863C16.9667 8.68767 16.7667 8.66667 16.55 8.8L10.75 12.8C10.3667 13.05 10.1583 13.45 10.125 14C10.0917 14.55 10.25 15 10.6 15.35ZM5.1 19.5C4.83333 19.5 4.58333 19.4373 4.35 19.312C4.11667 19.1873 3.925 19 3.775 18.75C3.39167 18.0833 3.08333 17.3583 2.85 16.575C2.61667 15.7917 2.5 14.9333 2.5 14C2.5 12.7 2.75 11.475 3.25 10.325C3.75 9.175 4.425 8.16667 5.275 7.3C6.125 6.43333 7.12933 5.75 8.288 5.25C9.446 4.75 10.6833 4.5 12 4.5C12.7667 4.5 13.4877 4.579 14.163 4.737C14.8377 4.89567 15.4917 5.13333 16.125 5.45C16.4083 5.6 16.571 5.79567 16.613 6.037C16.6543 6.279 16.575 6.50833 16.375 6.725C16.275 6.825 16.1377 6.88333 15.963 6.9C15.7877 6.91667 15.6333 6.9 15.5 6.85C14.95 6.56667 14.3873 6.35433 13.812 6.213C13.2373 6.071 12.6333 6 12 6C9.78333 6 7.896 6.779 6.338 8.337C4.77933 9.89567 4 11.7833 4 14C4 14.7 4.09567 15.3917 4.287 16.075C4.479 16.7583 4.75 17.4 5.1 18H18.9C19.2833 17.3667 19.5627 16.7083 19.738 16.025C19.9127 15.3417 20 14.6333 20 13.9C20 13.3167 19.9293 12.7333 19.788 12.15C19.646 11.5667 19.4333 11 19.15 10.45C19.0667 10.2833 19.0373 10.1207 19.062 9.962C19.0873 9.804 19.175 9.65833 19.325 9.525C19.525 9.35833 19.746 9.30833 19.988 9.375C20.2293 9.44167 20.4083 9.6 20.525 9.85C20.8417 10.5167 21.0793 11.175 21.238 11.825C21.396 12.475 21.4833 13.1583 21.5 13.875C21.5 14.775 21.396 15.6293 21.188 16.438C20.9793 17.246 20.6583 18.0333 20.225 18.8C20.0917 19.0167 19.9043 19.1873 19.663 19.312C19.421 19.4373 19.1667 19.5 18.9 19.5H5.1Z" fill="#DAF2E8"/>
</g>
</svg>
