<?xml version="1.0" encoding="UTF-8"?>
<svg width="60px" height="60px" viewBox="0 0 60 60" version="1.1" xmlns="http://www.w3.org/2000/svg" xmlns:xlink="http://www.w3.org/1999/xlink">
    <!-- Generator: Sketch 55.2 (78181) - https://sketchapp.com -->
    <title>Dashboard ts</title>
    <desc>Created with Sketch.</desc>
    <g id="Dashboard-ts" stroke="none" stroke-width="1" fill="none" fill-rule="evenodd">
        <path d="M12.4556785,46.3768441 C15.8548161,44.3642531 22.4371952,43 30,43 C37.5628048,43 44.1451839,44.3642531 47.5443215,46.3768441 C51.549053,42.0884536 54,36.3304515 54,30 C54,16.745166 43.254834,6 30,6 C16.745166,6 6,16.745166 6,30 C6,36.3304515 8.45094695,42.0884536 12.4556785,46.3768441 Z M30,60 C13.4314575,60 0,46.5685425 0,30 C0,13.4314575 13.4314575,0 30,0 C46.5685425,0 60,13.4314575 60,30 C60,46.5685425 46.5685425,60 30,60 Z M32.3523083,23.405051 L39.8994949,15.8578644 L44.1421356,20.1005051 L36.594949,27.6476917 C36.8571951,28.3828648 37,29.1747555 37,30 C37,33.8659932 33.8659932,37 30,37 C26.1340068,37 23,33.8659932 23,30 C23,26.1340068 26.1340068,23 30,23 C30.8252445,23 31.6171352,23.1428049 32.3523083,23.405051 Z" id="Combined-Shape" fill="#000000"></path>
    </g>
</svg>