<?xml version="1.0" encoding="UTF-8"?>
<svg width="60px" height="60px" viewBox="0 0 60 60" version="1.1" xmlns="http://www.w3.org/2000/svg" xmlns:xlink="http://www.w3.org/1999/xlink">
    <!-- Generator: Sketch 59 (86127) - https://sketch.com -->
    <title>database-solid</title>
    <desc>Created with Sketch.</desc>
    <g id="database-solid" stroke="none" stroke-width="1" fill="none" fill-rule="evenodd">
        <path d="M55.625,8.92858789 L55.625,14.1964121 C55.625,18.8387441 44.0631895,22.625 29.8125,22.625 C15.5618105,22.625 4,18.8387441 4,14.1964121 L4,8.92858789 C4,4.28625586 15.5618105,0.5 29.8125,0.5 C44.0631895,0.5 55.625,4.28625586 55.625,8.92858789 Z M55.625,20.78125 L55.625,32.6339121 C55.625,37.2762441 44.0631895,41.0625 29.8125,41.0625 C15.5618105,41.0625 4,37.2762441 4,32.6339121 L4,20.78125 C9.5456543,24.6004629 19.6958438,26.3784141 29.8125,26.3784141 C39.9291563,26.3784141 50.0792305,24.6004629 55.625,20.78125 Z M55.625,39.21875 L55.625,51.0714121 C55.625,55.7137441 44.0631895,59.5 29.8125,59.5 C15.5618105,59.5 4,55.7137441 4,51.0714121 L4,39.21875 C9.5456543,43.0379629 19.6958438,44.8159141 29.8125,44.8159141 C39.9291563,44.8159141 50.0792305,43.0379629 55.625,39.21875 Z" id="Shape" fill="#000000" fill-rule="nonzero"></path>
    </g>
</svg>