<svg width="24" height="24" viewBox="0 0 24 24" fill="none" xmlns="http://www.w3.org/2000/svg">
<mask id="mask0_2_2692" style="mask-type:alpha" maskUnits="userSpaceOnUse" x="0" y="0" width="24" height="24">
<rect width="24" height="24" fill="#D9D9D9"/>
</mask>
<g mask="url(#mask0_2_2692)">
<path d="M12 21.5C10.6833 21.5 9.45 21.25 8.3 20.75C7.15 20.25 6.14567 19.5707 5.287 18.712C4.429 17.854 3.75 16.85 3.25 15.7C2.75 14.55 2.5 13.3167 2.5 12C2.5 9.54999 3.30833 7.42499 4.925 5.62499C6.54167 3.82499 8.56667 2.79999 11 2.54999V4.67499C9.15 4.90832 7.625 5.72065 6.425 7.11199C5.225 8.50399 4.625 10.1333 4.625 12C4.625 14.0667 5.33767 15.8127 6.763 17.238C8.18767 18.6627 9.93333 19.375 12 19.375C13.15 19.375 14.2333 19.1333 15.25 18.65C16.2667 18.1667 17.1333 17.475 17.85 16.575L19.675 17.65C18.7583 18.8667 17.6333 19.8127 16.3 20.488C14.9667 21.1627 13.5333 21.5 12 21.5ZM20.7 15.8L18.875 14.75C19.0583 14.3 19.1877 13.8457 19.263 13.387C19.3377 12.929 19.375 12.4667 19.375 12C19.375 10.1333 18.775 8.50399 17.575 7.11199C16.375 5.72065 14.85 4.90832 13 4.67499V2.54999C15.4333 2.78332 17.4583 3.80399 19.075 5.61199C20.6917 7.42065 21.5 9.54999 21.5 12C21.5 12.65 21.4417 13.296 21.325 13.938C21.2083 14.5793 21 15.2 20.7 15.8Z" fill="#DAF2E8"/>
</g>
</svg>
