<svg width="16" height="20" viewBox="0 0 16 20" fill="none" xmlns="http://www.w3.org/2000/svg">
  <path d="M8.58333 9.16667L13.9 13.6417L13.1667 13.7917L12.6333 13.8917C12.1083 14 11.8083 14.5833 12.0417 15.0583L12.2667 15.5417L13.4 17.9917L12.2167 18.5417L11.0833 16.1L10.8667 15.6167C10.8151 15.5019 10.7378 15.4006 10.6408 15.3205C10.5438 15.2404 10.4297 15.1836 10.3072 15.1546C10.1848 15.1256 10.0574 15.1252 9.93474 15.1533C9.81211 15.1814 9.69758 15.2373 9.6 15.3167L9.175 15.65L8.58333 16.125V9.16667ZM7.96667 7.24167C7.7987 7.24167 7.6376 7.30839 7.51883 7.42717C7.40006 7.54594 7.33333 7.70703 7.33333 7.875V17.4167C7.33333 17.7667 7.61667 18.05 7.96667 18.05C8.125 18.05 8.25833 18 8.36667 17.9167L9.95833 16.625L11.3417 19.6417C11.45 19.8667 11.675 20 11.9167 20C12.0083 20 12.1 20 12.1917 19.9333L14.4917 18.8667C14.8083 18.7167 14.9583 18.3333 14.7917 18.025L13.4 15L15.4083 14.625C15.5463 14.5891 15.6708 14.5138 15.7667 14.4083C15.9917 14.1417 15.9583 13.75 15.6667 13.5083L8.38333 7.38333L8.375 7.39167C8.26102 7.29477 8.11627 7.2416 7.96667 7.24167ZM11.5 8.33333V6.66667H15.6667V8.33333H11.5ZM10.525 3.96667L12.8833 1.60833L14.0583 2.78333L11.7 5.14167L10.525 3.96667ZM7.33333 0H9V4.16667H7.33333V0ZM2.275 12.2167L4.63333 9.85833L5.80833 11.0333L3.45 13.3917L2.275 12.2167ZM2.275 2.78333L3.45 1.60833L5.80833 3.96667L4.63333 5.14167L2.275 2.78333ZM4.83333 8.33333H0.666666V6.66667H4.83333V8.33333Z" fill="#26A775"/>
</svg>
