<?xml version="1.0" encoding="UTF-8"?>
<svg width="62px" height="60px" viewBox="0 0 62 60" version="1.1" xmlns="http://www.w3.org/2000/svg" xmlns:xlink="http://www.w3.org/1999/xlink">
    <!-- Generator: Sketch 55.2 (78181) - https://sketchapp.com -->
    <title>delete icon</title>
    <desc>Created with Sketch.</desc>
    <g id="icons" stroke="none" stroke-width="1" fill="none" fill-rule="evenodd">
        <g id="trash" transform="translate(1.000000, 0.000000)" fill="#333333">
            <g id="delete-icon">
                <path d="M5.98129453,19.9307958 L53.8060933,19.9307958 C54.1639738,19.9307958 54.4540933,20.2209153 54.4540933,20.5787959 C54.4540933,20.6076264 54.4521692,20.6364247 54.4483339,20.664999 L49.4353468,58.0133639 C49.298621,59.032015 48.4293707,59.7923875 47.4015847,59.7923875 L12.0277955,59.7923875 C10.9926432,59.7923875 10.1195756,59.0213799 9.99154989,57.9941751 L5.33826961,20.6589393 C5.29400759,20.3038065 5.54601821,19.980033 5.90115107,19.9357709 C5.92773702,19.9324574 5.95450288,19.9307958 5.98129453,19.9307958 Z M20.5756448,28.2654923 C19.9195305,28.2654923 19.3876448,28.797378 19.3876448,29.4534923 L19.3876448,49.1825567 C19.3876448,49.838671 19.9195305,50.3705568 20.5756448,50.3705568 L25.0786256,50.3705568 C25.7347399,50.3705568 26.2666257,49.838671 26.2666257,49.1825567 L26.2666257,29.4534923 C26.2666257,28.797378 25.7347399,28.2654923 25.0786256,28.2654923 L20.5756448,28.2654923 Z M35.0979378,28.2654923 C34.4418235,28.2654923 33.9099378,28.797378 33.9099378,29.4534923 L33.9099378,49.1825567 C33.9099378,49.838671 34.4418235,50.3705568 35.0979378,50.3705568 L39.6009186,50.3705568 C40.2570329,50.3705568 40.7889187,49.838671 40.7889187,49.1825567 L40.7889187,29.4534923 C40.7889187,28.797378 40.2570329,28.2654923 39.6009186,28.2654923 L35.0979378,28.2654923 Z" id="Combined-Shape"></path>
                <path d="M14.9932147,10.5089651 C14.9528303,10.5089651 14.9126454,10.5033024 14.8738336,10.4921423 C14.6445375,10.42621 14.5121051,10.18688 14.5780374,9.95758394 L17.14912,1.01601139 C17.3221063,0.41440875 17.8724668,1.77635684e-15 18.4984461,0 L41.6781174,0 C42.3040966,3.55271368e-15 42.8544571,0.41440875 43.0274435,1.01601139 L45.598526,9.95758394 C45.609686,9.99639572 45.6153487,10.0365807 45.6153487,10.0769651 C45.6153487,10.3155521 45.4219357,10.5089651 45.1833487,10.5089651 L14.9932147,10.5089651 Z M0.158971359,14.8575024 L59.6354265,14.8575024 C60.231894,14.8575024 60.7154265,15.3410348 60.7154265,15.9375024 C60.7154265,16.1130545 60.6726322,16.2859604 60.5907495,16.4412464 L57.9080664,21.5288085 C57.7211764,21.8832352 57.3534255,22.1050645 56.9527434,22.1050645 L2.84165443,22.1050645 C2.44097231,22.1050645 2.07322143,21.8832352 1.88633142,21.5288085 L-0.796351659,16.4412464 C-1.07456179,15.9136361 -0.872382982,15.2603895 -0.344772649,14.9821794 C-0.189486597,14.9002967 -0.016580721,14.8575024 0.158971359,14.8575024 Z" id="Combined-Shape"></path>
            </g>
        </g>
    </g>
</svg>