<svg xmlns="http://www.w3.org/2000/svg" width="16" height="16" viewBox="0 0 16 16"><path fill-rule="evenodd" d="M 0,0 0,1 0.5,1 1.5,1 2,1 2,0 1.5,0 0.5,0 z M 3,0 3,1 3.5,1 4.5,1 5,1 5,0 4.5,0 3.5,0 z M 6,0 6,1 6.5,1 7.5,1 8,1 8,0 7.5,0 6.5,0 z m 3,0 0,1 0.5,0 1,0 0.5,0 0,-1 -0.5,0 -1,0 z m 3,0 0,1 0.5,0 1,0 0.5,0 0,-1 -0.5,0 -1,0 z m 3,0 0,0.5 0,1 0,0.5 1,0 0,-0.5 0,-1 L 16,0 z M 0,2 0,2.5 0,3.5 0,4 1,4 1,3.5 1,2.5 1,2 z M 10.199219,3 C 11.751538,3 13,4.2484812 13,5.8007812 c 0,1.5523001 -1.248462,2.8007813 -2.800781,2.8007813 -0.181321,0 -0.3578207,-0.020172 -0.5292971,-0.052734 -0.00842,-0.00148 -0.016991,-0.00232 -0.025391,-0.00391 -0.023014,-0.00478 -0.045431,-0.012195 -0.068359,-0.017578 C 9.4326012,8.4948934 9.2942579,8.4499445 9.1601562,8.3964844 9.1435152,8.3898161 9.1258196,8.3859938 9.109375,8.3789062 9.0914326,8.3713688 9.0744681,8.361474 9.0566406,8.3535156 8.9337336,8.2986422 8.8157723,8.2353611 8.703125,8.1640625 8.6759988,8.1467397 8.647643,8.1313254 8.6210938,8.1132812 l -0.00195,0 c -0.01072,-0.00746 -0.020616,-0.015879 -0.03125,-0.023437 C 8.4749557,8.0103043 8.3692034,7.9212076 8.2695312,7.8261719 8.2458933,7.8035129 8.220149,7.7831511 8.1972656,7.7597656 c -0.00193,-0.00197 -0.00393,-0.00388 -0.00586,-0.00586 C 8.0847905,7.6441829 7.9898718,7.5245545 7.9023438,7.3984375 7.8912017,7.382401 7.877989,7.3678156 7.8671875,7.3515625 7.7797554,7.2197252 7.7050378,7.078059 7.640625,6.9316406 7.6310248,6.9094034 7.6204043,6.8876919 7.6113281,6.8652344 7.5503112,6.71602 7.5016171,6.5614018 7.4667969,6.4003906 7.462809,6.3815498 7.4587029,6.3626972 7.4550781,6.34375 7.4208955,6.1680797 7.4003906,5.9868029 7.4003906,5.8007812 7.4003907,4.2484812 8.6468989,3 10.199219,3 z M 15,3 l 0,0.5 0,1 0,0.5 1,0 0,-0.5 0,-1 L 16,3 z M 0,5 0,5.5 0,6.5 0,7 1,7 1,6.5 1,5.5 1,5 z m 15,1 0,0.5 0,1 0,0.5 1,0 0,-0.5 0,-1 L 16,6 z M 6.4375,6.1601562 c 4.408e-4,0.00459 0.0015,0.00909 0.00195,0.013672 l -0.015625,0 z M 3,6.6679688 l 3.5058594,0 c 0.011484,0.049 0.019766,0.1000374 0.033203,0.1484374 0.034075,0.1223 0.073,0.2430282 0.1191406,0.3613282 0.00962,0.024736 0.022988,0.047793 0.033203,0.072266 0.00992,0.023892 0.02086,0.046666 0.03125,0.070312 0.030125,0.067929 0.058062,0.1368484 0.091797,0.203125 l -0.00195,0 c 0.057137,0.1131 0.1213207,0.2232781 0.1894531,0.3300781 0.015165,0.02356 0.033172,0.045125 0.048828,0.068359 0.055049,0.081699 0.1105563,0.1631554 0.171875,0.2402344 0.078756,0.099 0.163684,0.1942562 0.2519532,0.2851562 0.012552,0.012903 0.026378,0.024368 0.039063,0.037109 0.0023,0.0023 0.00551,0.00356 0.00781,0.00586 0.074638,0.074649 0.1495526,0.1488511 0.2304687,0.2167968 0.096694,0.082 0.1963862,0.1586688 0.3007813,0.2304688 l 0.00195,0 c 0.0075,0.0051 0.015916,0.00863 0.023437,0.013672 0.09724,0.065197 0.1958156,0.1273445 0.2988281,0.1835937 l 0.00195,0 c 0.1115256,0.061 0.2247623,0.1168157 0.3417969,0.1660156 5.317e-4,2.26e-4 0.00142,-2.257e-4 0.00195,0 0.1159579,0.048694 0.2332585,0.09119 0.3535157,0.1289063 0.084858,0.026 0.1713381,0.044453 0.2578125,0.064453 l 0,3.5039064 -6.3339844,0 z M 0,8 0,8.5 0,9.5 0,10 1,10 1,9.5 1,8.5 1,8 z m 15,1 0,0.5 0,1 0,0.5 1,0 0,-0.5 0,-1 0,-0.5 z m -15,2 0,0.5 0,1 0,0.5 1,0 0,-0.5 0,-1 0,-0.5 z m 15,1 0,0.5 0,1 0,0.5 1,0 0,-0.5 0,-1 0,-0.5 z m -15,2 0,0.5 0,1 0,0.5 1,0 0,-0.5 0,-1 0,-0.5 z m 2,1 0,1 0.5,0 1,0 0.5,0 0,-1 -0.5,0 -1,0 z m 3,0 0,1 0.5,0 1,0 0.5,0 0,-1 -0.5,0 -1,0 z m 3,0 0,1 0.5,0 1,0 0.5,0 0,-1 -0.5,0 -1,0 z m 3,0 0,1 0.5,0 1,0 0.5,0 0,-1 -0.5,0 -1,0 z m 3,0 0,1 0.5,0 1,0 0.5,0 0,-1 -0.5,0 -1,0 z" color="#000" font-family="sans-serif" font-weight="400" overflow="visible" style="text-indent:0;text-align:start;line-height:normal;text-transform:none;block-progression:tb"/></svg>