<svg width="18" height="18" viewBox="0 0 18 18" fill="none" xmlns="http://www.w3.org/2000/svg">
<path d="M0.9 6.3C1.13869 6.3 1.36761 6.20518 1.5364 6.0364C1.70518 5.86761 1.8 5.63869 1.8 5.4V2.7C1.8 2.46131 1.89482 2.23239 2.0636 2.0636C2.23239 1.89482 2.46131 1.8 2.7 1.8H5.4C5.63869 1.8 5.86761 1.70518 6.0364 1.5364C6.20518 1.36761 6.3 1.13869 6.3 0.9C6.3 0.661305 6.20518 0.432387 6.0364 0.263604C5.86761 0.0948211 5.63869 0 5.4 0H2.7C1.98392 0 1.29716 0.284464 0.790812 0.790812C0.284464 1.29716 0 1.98392 0 2.7V5.4C0 5.63869 0.0948211 5.86761 0.263604 6.0364C0.432387 6.20518 0.661305 6.3 0.9 6.3ZM5.4 16.2H2.7C2.46131 16.2 2.23239 16.1052 2.0636 15.9364C1.89482 15.7676 1.8 15.5387 1.8 15.3V12.6C1.8 12.3613 1.70518 12.1324 1.5364 11.9636C1.36761 11.7948 1.13869 11.7 0.9 11.7C0.661305 11.7 0.432387 11.7948 0.263604 11.9636C0.0948211 12.1324 0 12.3613 0 12.6V15.3C0 16.0161 0.284464 16.7028 0.790812 17.2092C1.29716 17.7155 1.98392 18 2.7 18H5.4C5.63869 18 5.86761 17.9052 6.0364 17.7364C6.20518 17.5676 6.3 17.3387 6.3 17.1C6.3 16.8613 6.20518 16.6324 6.0364 16.4636C5.86761 16.2948 5.63869 16.2 5.4 16.2ZM15.3 0H12.6C12.3613 0 12.1324 0.0948211 11.9636 0.263604C11.7948 0.432387 11.7 0.661305 11.7 0.9C11.7 1.13869 11.7948 1.36761 11.9636 1.5364C12.1324 1.70518 12.3613 1.8 12.6 1.8H15.3C15.5387 1.8 15.7676 1.89482 15.9364 2.0636C16.1052 2.23239 16.2 2.46131 16.2 2.7V5.4C16.2 5.63869 16.2948 5.86761 16.4636 6.0364C16.6324 6.20518 16.8613 6.3 17.1 6.3C17.3387 6.3 17.5676 6.20518 17.7364 6.0364C17.9052 5.86761 18 5.63869 18 5.4V2.7C18 1.98392 17.7155 1.29716 17.2092 0.790812C16.7028 0.284464 16.0161 0 15.3 0ZM17.1 11.7C16.8613 11.7 16.6324 11.7948 16.4636 11.9636C16.2948 12.1324 16.2 12.3613 16.2 12.6V15.3C16.2 15.5387 16.1052 15.7676 15.9364 15.9364C15.7676 16.1052 15.5387 16.2 15.3 16.2H12.6C12.3613 16.2 12.1324 16.2948 11.9636 16.4636C11.7948 16.6324 11.7 16.8613 11.7 17.1C11.7 17.3387 11.7948 17.5676 11.9636 17.7364C12.1324 17.9052 12.3613 18 12.6 18H15.3C16.0161 18 16.7028 17.7155 17.2092 17.2092C17.7155 16.7028 18 16.0161 18 15.3V12.6C18 12.3613 17.9052 12.1324 17.7364 11.9636C17.5676 11.7948 17.3387 11.7 17.1 11.7Z" fill="#1AA874"/>
<path fill-rule="evenodd" clip-rule="evenodd" d="M7.68421 11.5V13H6.63158V14H11.3684V13H10.3158V11.5H12.9474C13.5287 11.5 14 11.0523 14 10.5V6C14 5.44772 13.5287 5 12.9474 5H5.05263C4.47128 5 4 5.44772 4 6V10.5C4 11.0523 4.47128 11.5 5.05263 11.5H7.68421Z" fill="#1AA874"/>
</svg>
