<?xml version="1.0" standalone="no"?>
<!DOCTYPE svg PUBLIC "-//W3C//DTD SVG 20010904//EN"
 "http://www.w3.org/TR/2001/REC-SVG-20010904/DTD/svg10.dtd">
<svg version="1.0" xmlns="http://www.w3.org/2000/svg"
 width="256.000000pt" height="256.000000pt" viewBox="0 0 256.000000 256.000000"
 preserveAspectRatio="xMidYMid meet">

<g transform="translate(0.000000,256.000000) scale(0.100000,-0.100000)"
fill="#000000" stroke="none">
<path d="M1247 2492 c-34 -37 -15 -82 33 -82 49 0 68 51 32 83 -24 22 -45 21
-65 -1z"/>
<path d="M360 1280 l0 -1130 383 2 382 3 0 50 0 50 -332 3 -333 2 0 1020 0
1020 333 2 332 3 0 50 0 50 -382 3 -383 2 0 -1130z"/>
<path d="M1434 2396 c-3 -8 -4 -31 -2 -52 l3 -39 333 -3 332 -2 0 -1020 0
-1020 -332 -2 -333 -3 0 -50 0 -50 383 -3 382 -2 0 1130 0 1130 -380 0 c-316
0 -382 -2 -386 -14z"/>
<path d="M1242 2338 c-20 -20 -14 -56 13 -74 23 -15 27 -15 50 0 44 29 28 86
-25 86 -14 0 -31 -5 -38 -12z"/>
<path d="M1246 2184 c-31 -30 -9 -84 34 -84 43 0 65 54 34 84 -8 9 -24 16 -34
16 -10 0 -26 -7 -34 -16z"/>
<path d="M1247 2032 c-34 -37 -15 -82 33 -82 49 0 68 51 32 83 -24 22 -45 21
-65 -1z"/>
<path d="M720 1895 l0 -55 203 2 202 3 0 50 0 50 -202 3 -203 2 0 -55z"/>
<path d="M1434 1936 c-3 -8 -4 -31 -2 -52 l3 -39 203 -3 202 -2 0 55 0 55
-200 0 c-162 0 -202 -3 -206 -14z"/>
<path d="M1242 1878 c-18 -18 -15 -53 6 -71 24 -22 45 -21 65 1 34 37 15 82
-33 82 -14 0 -31 -5 -38 -12z"/>
<path d="M1246 1724 c-31 -30 -9 -84 34 -84 43 0 65 54 34 84 -8 9 -24 16 -34
16 -10 0 -26 -7 -34 -16z"/>
<path d="M720 1640 l0 -50 205 0 205 0 0 50 0 50 -205 0 -205 0 0 -50z"/>
<path d="M1430 1640 l0 -50 205 0 205 0 0 50 0 50 -205 0 -205 0 0 -50z"/>
<path d="M1247 1572 c-34 -37 -15 -82 33 -82 51 0 69 55 28 84 -29 21 -41 20
-61 -2z"/>
<path d="M720 1380 l0 -50 205 0 205 0 0 50 0 50 -205 0 -205 0 0 -50z"/>
<path d="M1242 1418 c-18 -18 -15 -53 6 -71 24 -22 45 -21 65 1 34 37 15 82
-33 82 -14 0 -31 -5 -38 -12z"/>
<path d="M1430 1380 l0 -50 205 0 205 0 0 50 0 50 -205 0 -205 0 0 -50z"/>
<path d="M1246 1264 c-19 -18 -21 -55 -4 -72 15 -15 61 -15 76 0 28 28 2 88
-38 88 -10 0 -26 -7 -34 -16z"/>
<path d="M720 1130 l0 -50 38 -1 c46 -1 342 -1 360 0 8 1 12 18 12 51 l0 50
-205 0 -205 0 0 -50z"/>
<path d="M1437 1173 c-4 -3 -7 -26 -7 -50 0 -50 -26 -45 215 -45 85 0 164 1
175 1 17 1 20 8 20 51 l0 50 -198 0 c-109 0 -202 -3 -205 -7z"/>
<path d="M1252 1114 c-30 -21 -29 -59 3 -80 23 -15 27 -15 50 0 32 21 33 59 3
80 -12 9 -25 16 -28 16 -3 0 -16 -7 -28 -16z"/>
<path d="M1242 958 c-28 -28 -2 -88 38 -88 40 0 66 60 38 88 -15 15 -61 15
-76 0z"/>
<path d="M1430 870 l0 -50 205 0 205 0 0 50 0 50 -205 0 -205 0 0 -50z"/>
<path d="M1246 804 c-19 -18 -21 -55 -4 -72 15 -15 61 -15 76 0 28 28 2 88
-38 88 -10 0 -26 -7 -34 -16z"/>
<path d="M1252 654 c-30 -21 -29 -59 3 -80 23 -15 27 -15 50 0 32 21 33 59 3
80 -12 9 -25 16 -28 16 -3 0 -16 -7 -28 -16z"/>
<path d="M1434 656 c-3 -8 -4 -31 -2 -52 l3 -39 203 -3 202 -2 0 55 0 55 -200
0 c-162 0 -202 -3 -206 -14z"/>
<path d="M1242 498 c-28 -28 -2 -88 38 -88 40 0 66 60 38 88 -7 7 -24 12 -38
12 -14 0 -31 -5 -38 -12z"/>
<path d="M1247 342 c-34 -37 -15 -82 33 -82 49 0 68 51 32 83 -24 22 -45 21
-65 -1z"/>
<path d="M1242 188 c-18 -18 -15 -53 6 -71 24 -22 45 -21 65 1 34 37 15 82
-33 82 -14 0 -31 -5 -38 -12z"/>
</g>
</svg>
