<?xml version="1.0" standalone="no"?>
<!DOCTYPE svg PUBLIC "-//W3C//DTD SVG 20010904//EN"
 "http://www.w3.org/TR/2001/REC-SVG-20010904/DTD/svg10.dtd">
<svg version="1.0" xmlns="http://www.w3.org/2000/svg"
 width="512.000000pt" height="224.000000pt" viewBox="0 0 512.000000 224.000000"
 preserveAspectRatio="xMidYMid meet">

<g transform="translate(0.000000,224.000000) scale(0.100000,-0.100000)"
fill="#000000" stroke="none">
<path d="M937 2225 c-685 -115 -1098 -807 -877 -1467 132 -395 474 -681 887
-743 147 -22 3079 -22 3226 0 231 35 430 132 600 294 267 255 388 613 332 984
-37 248 -150 464 -332 638 -125 119 -250 195 -411 249 -185 62 -127 60 -1812
59 -1213 -1 -1551 -4 -1613 -14z m2220 -367 c-118 -136 -199 -287 -245 -456
-23 -88 -26 -114 -26 -277 0 -165 3 -188 28 -280 47 -171 133 -334 249 -468
l49 -58 -1118 3 -1119 3 -73 23 c-278 85 -476 285 -554 559 -32 112 -32 314 0
426 87 305 331 525 640 577 26 4 537 8 1135 9 l1089 1 -55 -62z m1061 32 c271
-77 476 -282 554 -557 32 -112 32 -314 0 -426 -79 -277 -282 -480 -559 -559
-112 -32 -314 -32 -426 0 -277 79 -480 282 -559 559 -32 112 -32 314 0 426 87
305 325 520 640 577 78 15 268 4 350 -20z"/>
</g>
</svg>
