<svg width="34" height="34" viewBox="0 0 34 34" fill="none" xmlns="http://www.w3.org/2000/svg">
<path d="M11.6875 14.875C11.4057 14.875 11.1355 14.9869 10.9362 15.1862C10.7369 15.3855 10.625 15.6557 10.625 15.9375C10.625 16.2193 10.7369 16.4895 10.9362 16.6888C11.1355 16.8881 11.4057 17 11.6875 17H22.3125C22.5943 17 22.8645 16.8881 23.0638 16.6888C23.2631 16.4895 23.375 16.2193 23.375 15.9375C23.375 15.6557 23.2631 15.3855 23.0638 15.1862C22.8645 14.9869 22.5943 14.875 22.3125 14.875H11.6875ZM10.625 20.1875C10.625 19.9057 10.7369 19.6355 10.9362 19.4362C11.1355 19.2369 11.4057 19.125 11.6875 19.125H22.3125C22.5943 19.125 22.8645 19.2369 23.0638 19.4362C23.2631 19.6355 23.375 19.9057 23.375 20.1875C23.375 20.4693 23.2631 20.7395 23.0638 20.9388C22.8645 21.1381 22.5943 21.25 22.3125 21.25H11.6875C11.4057 21.25 11.1355 21.1381 10.9362 20.9388C10.7369 20.7395 10.625 20.4693 10.625 20.1875ZM10.625 24.4375C10.625 24.1557 10.7369 23.8855 10.9362 23.6862C11.1355 23.4869 11.4057 23.375 11.6875 23.375H15.9375C16.2193 23.375 16.4895 23.4869 16.6888 23.6862C16.8881 23.8855 17 24.1557 17 24.4375C17 24.7193 16.8881 24.9895 16.6888 25.1888C16.4895 25.3881 16.2193 25.5 15.9375 25.5H11.6875C11.4057 25.5 11.1355 25.3881 10.9362 25.1888C10.7369 24.9895 10.625 24.7193 10.625 24.4375Z" fill="#375E70"/>
<path d="M20.1875 0H8.5C7.37283 0 6.29183 0.447767 5.4948 1.2448C4.69777 2.04183 4.25 3.12283 4.25 4.25V29.75C4.25 30.8772 4.69777 31.9582 5.4948 32.7552C6.29183 33.5522 7.37283 34 8.5 34H25.5C26.6272 34 27.7082 33.5522 28.5052 32.7552C29.3022 31.9582 29.75 30.8772 29.75 29.75V9.5625L20.1875 0ZM20.1875 2.125V6.375C20.1875 7.22038 20.5233 8.03113 21.1211 8.6289C21.7189 9.22668 22.5296 9.5625 23.375 9.5625H27.625V29.75C27.625 30.3136 27.4011 30.8541 27.0026 31.2526C26.6041 31.6511 26.0636 31.875 25.5 31.875H8.5C7.93641 31.875 7.39591 31.6511 6.9974 31.2526C6.59888 30.8541 6.375 30.3136 6.375 29.75V4.25C6.375 3.68641 6.59888 3.14591 6.9974 2.7474C7.39591 2.34888 7.93641 2.125 8.5 2.125H20.1875Z" fill="#375E70"/>
</svg>
