<svg width="12" height="12" viewBox="0 0 12 12" fill="none" xmlns="http://www.w3.org/2000/svg">
<path d="M11.6495 5.47501L7.66618 0.475013C7.59741 0.389407 7.5124 0.318237 7.41604 0.265592C7.31967 0.212947 7.21386 0.179866 7.10467 0.16825C6.99548 0.156634 6.88507 0.166712 6.77978 0.197905C6.6745 0.229099 6.57642 0.280791 6.49118 0.350013C6.40557 0.418782 6.3344 0.503791 6.28176 0.600155C6.22911 0.696519 6.19603 0.802337 6.18442 0.911528C6.1728 1.02072 6.18288 1.13113 6.21407 1.23641C6.24527 1.34169 6.29696 1.43977 6.36618 1.52501L9.92451 6.00001L6.19118 10.475C6.12101 10.5592 6.06815 10.6564 6.03561 10.7611C6.00307 10.8658 5.9915 10.9758 6.00157 11.085C6.01163 11.1941 6.04313 11.3002 6.09425 11.3972C6.14538 11.4941 6.21513 11.5801 6.29951 11.65C6.45058 11.7713 6.63916 11.8361 6.83285 11.8333C6.95527 11.8335 7.07624 11.8068 7.18714 11.7549C7.29804 11.7031 7.39616 11.6274 7.47451 11.5333L11.6412 6.53335C11.7649 6.3852 11.8334 6.19869 11.8349 6.00567C11.8364 5.81265 11.7709 5.62509 11.6495 5.47501Z" fill="#333333"/>
<path d="M1.83317 0.474799C1.69393 0.296883 1.48972 0.181566 1.26546 0.154217C1.0412 0.126868 0.815256 0.189727 0.63734 0.328965C0.459423 0.468204 0.344107 0.672417 0.316758 0.896679C0.289409 1.12094 0.352267 1.34688 0.491506 1.5248L4.09151 5.9998L0.358173 10.4665C0.288005 10.5507 0.235138 10.6479 0.202601 10.7526C0.170064 10.8572 0.158495 10.9673 0.168559 11.0764C0.178622 11.1856 0.210119 11.2917 0.261245 11.3886C0.312372 11.4856 0.382124 11.5715 0.466506 11.6415C0.616433 11.7657 0.805129 11.8335 0.99984 11.8331C1.12227 11.8333 1.24323 11.8066 1.35413 11.7547C1.46504 11.7029 1.56315 11.6272 1.64151 11.5331L5.80817 6.53313C5.93074 6.38402 5.99775 6.19699 5.99775 6.00397C5.99775 5.81094 5.93074 5.62391 5.80817 5.4748L1.83317 0.474799Z" fill="#333333"/>
</svg>
