<svg width="12" height="12" viewBox="0 0 12 12" fill="none" xmlns="http://www.w3.org/2000/svg">
<path d="M0.350487 5.47501L4.33382 0.475013C4.40259 0.389407 4.4876 0.318237 4.58396 0.265592C4.68033 0.212947 4.78614 0.179866 4.89533 0.16825C5.00452 0.156634 5.11493 0.166712 5.22022 0.197905C5.3255 0.229099 5.42358 0.280791 5.50882 0.350013C5.59443 0.418782 5.6656 0.503791 5.71824 0.600155C5.77089 0.696519 5.80397 0.802337 5.81558 0.911528C5.8272 1.02072 5.81712 1.13113 5.78593 1.23641C5.75473 1.34169 5.70304 1.43977 5.63382 1.52501L2.07549 6.00001L5.80882 10.475C5.87899 10.5592 5.93185 10.6564 5.96439 10.7611C5.99693 10.8658 6.0085 10.9758 5.99843 11.085C5.98837 11.1941 5.95687 11.3002 5.90575 11.3972C5.85462 11.4941 5.78487 11.5801 5.70049 11.65C5.54942 11.7713 5.36084 11.8361 5.16715 11.8333C5.04473 11.8335 4.92376 11.8068 4.81286 11.7549C4.70196 11.7031 4.60384 11.6274 4.52549 11.5333L0.35882 6.53335C0.235074 6.3852 0.166594 6.19869 0.165073 6.00567C0.163554 5.81265 0.229088 5.62509 0.350487 5.47501Z" fill="#333333"/>
<path d="M10.1668 0.474799C10.3061 0.296883 10.5103 0.181566 10.7345 0.154217C10.9588 0.126868 11.1847 0.189727 11.3627 0.328965C11.5406 0.468204 11.6559 0.672417 11.6832 0.896679C11.7106 1.12094 11.6477 1.34688 11.5085 1.5248L7.90849 5.9998L11.6418 10.4665C11.712 10.5507 11.7649 10.6479 11.7974 10.7526C11.8299 10.8572 11.8415 10.9673 11.8314 11.0764C11.8214 11.1856 11.7899 11.2917 11.7388 11.3886C11.6876 11.4856 11.6179 11.5715 11.5335 11.6415C11.3836 11.7657 11.1949 11.8335 11.0002 11.8331C10.8777 11.8333 10.7568 11.8066 10.6459 11.7547C10.535 11.7029 10.4368 11.6272 10.3585 11.5331L6.19183 6.53313C6.06926 6.38402 6.00225 6.19699 6.00225 6.00397C6.00225 5.81094 6.06926 5.62391 6.19183 5.4748L10.1668 0.474799Z" fill="#333333"/>
</svg>
