<?xml version="1.0" encoding="UTF-8"?>
<svg width="60px" height="60px" viewBox="0 0 60 60" version="1.1" xmlns="http://www.w3.org/2000/svg" xmlns:xlink="http://www.w3.org/1999/xlink">
    <!-- Generator: Sketch 59 (86127) - https://sketch.com -->
    <title>down sort</title>
    <desc>Created with Sketch.</desc>
    <g id="down-sort" stroke="none" stroke-width="1" fill="none" fill-rule="evenodd">
        <path d="M16.678125,21.184375 L26.653125,3.925 C28.140625,1.34375 31.859375,1.365625 33.346875,3.946875 L43.321875,21.1625 C44.809375,23.74375 42.95,26.89375 39.975,26.89375 L20.025,26.89375 C17.05,26.89375 15.16875,23.74375 16.678125,21.184375 Z M17.225,34.9875 C17.225,36.234375 18.23125,37.175 19.478125,37.175 L40.784375,37.175 C42.03125,37.175 43.0375,36.234375 43.0375,34.9875 C43.0375,33.740625 42.03125,32.8 40.784375,32.8 L19.478125,32.8 C18.23125,32.8 17.225,33.740625 17.225,34.9875 Z M21.73125,45.4875 C21.73125,46.734375 22.7375,47.675 23.984375,47.675 L36.25625,47.675 C37.503125,47.675 38.509375,46.734375 38.509375,45.4875 C38.509375,44.240625 37.503125,43.3 36.25625,43.3 L23.984375,43.3 C22.7375,43.3 21.73125,44.240625 21.73125,45.4875 Z M26.2375,55.76875 C26.2375,57.015625 27.24375,57.95625 28.490625,57.95625 L31.75,57.95625 C32.996875,57.95625 34.003125,57.015625 34.003125,55.76875 C34.003125,54.521875 32.996875,53.58125 31.75,53.58125 L28.490625,53.58125 C27.24375,53.58125 26.2375,54.521875 26.2375,55.76875 Z" id="Mask" fill="#000000" fill-rule="nonzero" transform="translate(29.995437, 29.978108) scale(1, -1) translate(-29.995437, -29.978108) "></path>
    </g>
</svg>