<svg width="12" height="15" viewBox="0 0 12 15" fill="none" xmlns="http://www.w3.org/2000/svg">
  <path fill-rule="evenodd" clip-rule="evenodd" d="M0.75 13.25H11.25C11.4489 13.25 11.6397 13.329 11.7803 13.4697C11.921 13.6103 12 13.8011 12 14C12 14.1989 11.921 14.3897 11.7803 14.5303C11.6397 14.671 11.4489 14.75 11.25 14.75H0.75C0.551088 14.75 0.360322 14.671 0.21967 14.5303C0.0790178 14.3897 0 14.1989 0 14C0 13.8011 0.0790178 13.6103 0.21967 13.4697C0.360322 13.329 0.551088 13.25 0.75 13.25ZM6.75 8.88125L9.18225 6.44975L10.2427 7.51025L6 11.753L1.75725 7.51025L2.81775 6.44975L5.25 8.88125V0.5H6.75V8.88125Z" fill="black"/>
</svg>
