<svg width="14" height="16" viewBox="0 0 14 16" fill="none" xmlns="http://www.w3.org/2000/svg">
<path fill-rule="evenodd" clip-rule="evenodd" d="M0.700195 14.2998C0.700195 14.0611 0.795016 13.8322 0.963799 13.6634C1.13258 13.4946 1.3615 13.3998 1.6002 13.3998H12.4002C12.6389 13.3998 12.8678 13.4946 13.0366 13.6634C13.2054 13.8322 13.3002 14.0611 13.3002 14.2998C13.3002 14.5385 13.2054 14.7674 13.0366 14.9362C12.8678 15.105 12.6389 15.1998 12.4002 15.1998H1.6002C1.3615 15.1998 1.13258 15.105 0.963799 14.9362C0.795016 14.7674 0.700195 14.5385 0.700195 14.2998ZM3.6639 7.3635C3.83267 7.19478 4.06155 7.1 4.3002 7.1C4.53884 7.1 4.76772 7.19478 4.9365 7.3635L6.1002 8.5272V1.6998C6.1002 1.46111 6.19502 1.23219 6.3638 1.06341C6.53258 0.894626 6.7615 0.799805 7.0002 0.799805C7.23889 0.799805 7.46781 0.894626 7.63659 1.06341C7.80537 1.23219 7.9002 1.46111 7.9002 1.6998V8.5272L9.0639 7.3635C9.14692 7.27754 9.24623 7.20898 9.35603 7.16181C9.46584 7.11464 9.58393 7.08982 9.70343 7.08878C9.82294 7.08774 9.94145 7.11051 10.0521 7.15577C10.1627 7.20102 10.2631 7.26785 10.3477 7.35235C10.4322 7.43685 10.499 7.53734 10.5442 7.64795C10.5895 7.75855 10.6123 7.87706 10.6112 7.99656C10.6102 8.11607 10.5854 8.23416 10.5382 8.34397C10.491 8.45377 10.4225 8.55308 10.3365 8.6361L7.6365 11.3361C7.46772 11.5048 7.23884 11.5996 7.0002 11.5996C6.76155 11.5996 6.53267 11.5048 6.3639 11.3361L3.6639 8.6361C3.49517 8.46733 3.40039 8.23845 3.40039 7.9998C3.40039 7.76116 3.49517 7.53228 3.6639 7.3635Z" fill="#606060"/>
</svg>
