<?xml version="1.0" encoding="UTF-8"?>
<svg width="60px" height="60px" viewBox="0 0 60 60" version="1.1" xmlns="http://www.w3.org/2000/svg" xmlns:xlink="http://www.w3.org/1999/xlink">
    <!-- Generator: Sketch 59 (86127) - https://sketch.com -->
    <title>down-sort</title>
    <desc>Created with Sketch.</desc>
    <defs>
        <path d="M43.321875,38.771875 L33.346875,56.03125 C31.859375,58.6125 28.140625,58.590625 26.653125,56.009375 L16.678125,38.79375 C15.190625,36.2125 17.05,33.0625 20.025,33.0625 L39.996875,33.0625 C42.95,33.0625 44.83125,36.2125 43.321875,38.771875 Z M42.775,24.96875 C42.775,23.721875 41.76875,22.78125 40.521875,22.78125 L19.215625,22.78125 C17.96875,22.78125 16.9625,23.721875 16.9625,24.96875 C16.9625,26.215625 17.96875,27.15625 19.215625,27.15625 L40.521875,27.15625 C41.76875,27.15625 42.775,26.215625 42.775,24.96875 Z M38.26875,14.46875 C38.26875,13.221875 37.2625,12.28125 36.015625,12.28125 L23.74375,12.28125 C22.496875,12.28125 21.490625,13.221875 21.490625,14.46875 C21.490625,15.715625 22.496875,16.65625 23.74375,16.65625 L36.015625,16.65625 C37.2625,16.65625 38.26875,15.715625 38.26875,14.46875 Z M33.7625,4.1875 C33.7625,2.940625 32.75625,2 31.509375,2 L28.25,2 C27.003125,2 25.996875,2.940625 25.996875,4.1875 C25.996875,5.434375 27.003125,6.375 28.25,6.375 L31.509375,6.375 C32.75625,6.375 33.7625,5.434375 33.7625,4.1875 Z" id="path-1"></path>
    </defs>
    <g id="down-sort" stroke="none" stroke-width="1" fill="none" fill-rule="evenodd">
        <!-- <mask id="mask-2" fill="white">
            <use xlink:href="#path-1"></use>
        </mask> -->
        <use id="Mask" fill="#000000" fill-rule="nonzero" xlink:href="#path-1"></use>
        <!-- <g id="color/2" mask="url(#mask-2)" fill="#27303E">
            <rect x="0" y="0" width="60" height="60"></rect>
        </g> -->
    </g>
</svg>