<svg width="22" height="20" viewBox="0 0 22 20" fill="none" xmlns="http://www.w3.org/2000/svg">
<path d="M21.4438 8.23893L13.1375 0.0545565C13.1203 0.0372656 13.0998 0.023545 13.0773 0.0141824C13.0548 0.00481988 13.0306 0 13.0063 0C12.9819 0 12.9577 0.00481988 12.9352 0.0141824C12.9127 0.023545 12.8922 0.0372656 12.875 0.0545565L7.28047 5.56706C7.24526 5.60199 7.22526 5.6494 7.22483 5.699C7.22439 5.74859 7.24354 5.79635 7.27813 5.8319L7.28047 5.83424L8.21797 6.75768L5.47109 9.46003C5.43589 9.49496 5.41589 9.54237 5.41545 9.59197C5.41501 9.64156 5.43417 9.68932 5.46875 9.72487L5.47109 9.72721L6.39688 10.6389L1.96484 15.0217H0.689844C0.586719 15.0217 0.5 15.1061 0.5 15.2092V16.503C0.5 16.6061 0.584375 16.6905 0.6875 16.6905H8.77109C8.82031 16.6905 8.86719 16.6717 8.90234 16.6366L10.6859 14.8647L11.6328 15.7975C11.65 15.8148 11.6705 15.8285 11.693 15.8379C11.7155 15.8473 11.7397 15.8521 11.7641 15.8521C11.7885 15.8521 11.8126 15.8473 11.8351 15.8379C11.8577 15.8285 11.8781 15.8148 11.8953 15.7975L14.6398 13.0882L15.5797 14.0139C15.5969 14.0312 15.6173 14.0449 15.6399 14.0543C15.6624 14.0637 15.6865 14.0685 15.7109 14.0685C15.7353 14.0685 15.7595 14.0637 15.782 14.0543C15.8045 14.0449 15.825 14.0312 15.8422 14.0139L21.4367 8.50143C21.5164 8.43112 21.5164 8.31393 21.4438 8.23893ZM8.13594 15.0077H4.38125L7.53125 11.8905L9.40859 13.7397L8.13594 15.0077ZM11.7641 13.5522L7.74688 9.59362L9.35469 8.00924L13.3719 11.9678L11.7641 13.5522ZM15.7133 11.7686L9.55391 5.70065L13.0063 2.29987L19.1656 8.37018L15.7133 11.7686Z" fill="#333333"/>
<rect y="18" width="20" height="2" rx="1" fill="#333333"/>
</svg>
