<svg width="60" height="64" viewBox="0 0 60 64" fill="none" xmlns="http://www.w3.org/2000/svg">
<path d="M18.87 38C18.87 39.54 19.1 40.94 19.57 42.2C20.07 43.44 20.72 44.55 21.55 45.52C22.38 46.49 23.35 47.32 24.49 48.02C25.59 48.72 26.79 49.3 28.07 49.75C29.34 50.21 30.67 50.55 32.02 50.77C33.39 50.99 34.72 51.1 36.07 51.1C37.77 51.1 39.35 50.97 40.85 50.7C42.35 50.42 43.81 50.05 45.25 49.58C46.69 49.11 48.08 48.55 49.47 47.91C50.87 47.27 52.29 46.57 53.75 45.79V59.35C52.12 60.15 50.52 60.82 48.92 61.4C47.32 61.96 45.72 62.45 44.09 62.84C42.46 63.24 40.81 63.54 39.12 63.72C37.43 63.9 35.7 64 33.9 64C31.5 64 29.18 63.72 26.95 63.17C24.72 62.62 22.63 61.83 20.67 60.79C18.71 59.75 16.92 58.49 15.29 57.01C13.65 55.53 12.26 53.86 11.09 52.01C9.92 50.16 9.02 48.13 8.37 45.95C7.74 43.77 7.42 41.45 7.42 38.99C7.42 36.36 7.78 33.86 8.5 31.47C9.23 29.07 10.26 26.89 11.62 24.89C12.97 22.89 14.62 21.11 16.57 19.56C18.52 18.01 20.71 16.74 23.15 15.76C21.82 17.09 20.78 18.66 20.05 20.49C19.3 22.31 18.83 24.14 18.62 25.97H41.4C41.4 23.67 41.17 21.67 40.7 19.95C40.23 18.23 39.48 16.8 38.43 15.67C37.39 14.53 36.05 13.67 34.4 13.11C32.75 12.54 30.76 12.25 28.43 12.25C25.68 12.25 22.93 12.65 20.18 13.48C17.43 14.28 14.82 15.43 12.34 16.88C9.86 18.35 7.58 20.08 5.5 22.06C3.42 24.06 1.67 26.21 0.25 28.54C0.55 25.84 1.15 23.24 1.98 20.77C2.81 18.3 3.91 16 5.23 13.87C6.55 11.77 8.1 9.85 9.87 8.13C11.64 6.41 13.6 4.93 15.77 3.73C17.94 2.53 20.24 1.56 22.74 0.91C25.24 0.34 27.9 0 30.7 0C32.34 0 33.97 0.15 35.6 0.44C37.23 0.74 38.82 1.14 40.37 1.66C43.45 2.72 46.2 4.2 48.62 6.08C51.04 7.98 53.07 10.14 54.72 12.61C56.37 15.08 57.62 17.81 58.48 20.78C59.34 23.75 59.78 26.84 59.78 30.05V38H18.87V38Z" fill="black"/>
</svg>
