<?xml version="1.0" encoding="UTF-8"?>
<svg width="60px" height="60px" viewBox="0 0 60 60" version="1.1" xmlns="http://www.w3.org/2000/svg" xmlns:xlink="http://www.w3.org/1999/xlink">
    <!-- Generator: Sketch 55.2 (78181) - https://sketchapp.com -->
    <title>Edit with borther ts</title>
    <desc>Created with Sketch.</desc>
    <g id="Edit-with-borther-ts" stroke="none" stroke-width="1" fill="none" fill-rule="evenodd">
        <path d="M54,54 L54,30 L60,30 L60,60 L0,60 L0,0 L30,0 L30,6 L6,6 L6,54 L54,54 Z M56.6409091,14.6345455 C55.3672727,12.5290909 53.7963636,10.4672727 51.8736364,8.55545455 C49.9290909,6.62454545 47.8318182,5.04272727 45.6854545,3.77181818 L49.4545455,6.92779167e-14 C49.4545455,6.92779167e-14 54.9090909,6.92779167e-14 57.6363636,2.72727273 C60.3636364,5.45454545 60.3636364,10.9090909 60.3636364,10.9090909 L56.6409091,14.6345455 Z M24.9090909,46.3636364 L14,46.3636364 L14,35.4545455 L15.3090909,34.1454545 C17.5263636,35.1954545 19.73,36.6709091 21.7127273,38.6509091 C23.6981818,40.6390909 25.1709091,42.8372727 26.2181818,45.0545455 L24.9090909,46.3636364 Z M53.4909091,17.7818182 L29.3654545,41.9045455 C28.0918182,39.8018182 26.5209091,37.7345455 24.5981818,35.8254545 C22.6563636,33.8918182 20.5563636,32.3127273 18.41,31.0418182 L42.5818182,6.87272727 C44.7990909,7.91727273 47.0027273,9.39272727 48.9854545,11.3754545 C50.9736364,13.3609091 52.4463636,15.5645455 53.4909091,17.7818182 Z" id="Combined-Shape" fill="#000000"></path>
    </g>
</svg>