<?xml version="1.0" encoding="UTF-8"?>
<svg width="60px" height="60px" viewBox="0 0 60 60" version="1.1" xmlns="http://www.w3.org/2000/svg" xmlns:xlink="http://www.w3.org/1999/xlink">
    <!-- Generator: Sketch 55.2 (78181) - https://sketchapp.com -->
    <title>edit-with-border</title>
    <desc>Created with Sketch.</desc>
    <g id="edit-with-border" stroke="none" stroke-width="1" fill="none" fill-rule="evenodd">
        <path d="M56.2772727,14.6345455 C55.0036364,12.5290909 53.4327273,10.4672727 51.51,8.55545455 C49.5654545,6.62454545 47.4681818,5.04272727 45.3218182,3.77181818 L49.0909091,0 C49.0909091,0 54.5454545,0 57.2727273,2.72727273 C60,5.45454545 60,10.9090909 60,10.9090909 L56.2772727,14.6345455 Z M24.5454545,46.3636364 L13.6363636,46.3636364 L13.6363636,35.4545455 L14.9454545,34.1454545 C17.1627273,35.1954545 19.3663636,36.6709091 21.3490909,38.6509091 C23.3345455,40.6390909 24.8072727,42.8372727 25.8545455,45.0545455 L24.5454545,46.3636364 Z M53.1272727,17.7818182 L29.0018182,41.9045455 C27.7281818,39.8018182 26.1572727,37.7345455 24.2345455,35.8254545 C22.2927273,33.8918182 20.1927273,32.3127273 18.0463636,31.0418182 L42.2181818,6.87272727 C44.4354545,7.91727273 46.6390909,9.39272727 48.6218182,11.3754545 C50.61,13.3609091 52.0827273,15.5645455 53.1272727,17.7818182 Z M3.52941176,3.52941176 L3.1372549,56.8627451 L56.8627451,56.8627451 L56.8627451,33.3333333 L60,24.4418182 L60,54.5454545 C60,57.5590909 57.5563636,60 54.5454545,60 L5.45454545,60 C2.44363636,60 0,57.5590909 0,54.5454545 L0,5.45454545 C0,2.44363636 2.44363636,0 5.45454545,0 L35.4818182,0 L31.7647059,3.52941176 L3.52941176,3.52941176 Z" id="Shape" fill="#333333" fill-rule="nonzero"></path>
    </g>
</svg>