<svg width="14" height="16" viewBox="0 0 14 16" fill="none" xmlns="http://www.w3.org/2000/svg">
<path fill-rule="evenodd" clip-rule="evenodd" d="M14 2C14 0.895431 13.1046 0 12 0H2C0.895431 0 0 0.895431 0 2V14C0 15.1046 0.89543 16 2 16H12C13.1046 16 14 15.1046 14 14V2ZM10.4 14.6V1.4H12C12.3314 1.4 12.6 1.66863 12.6 2V14C12.6 14.3314 12.3314 14.6 12 14.6H10.4ZM9 1.4V14.6H2C1.66863 14.6 1.4 14.3314 1.4 14V2C1.4 1.66863 1.66863 1.4 2 1.4H9ZM3 5C3.55228 5 4 4.55228 4 4C4 3.44772 3.55228 3 3 3C2.44772 3 2 3.44772 2 4C2 4.55228 2.44772 5 3 5ZM6.3 7.6998C6.6866 7.6998 7 7.3864 7 6.9998C7 6.6132 6.6866 6.2998 6.3 6.2998H3.7C3.3134 6.2998 3 6.6132 3 6.9998C3 7.3864 3.3134 7.6998 3.7 7.6998H6.3ZM8 4C8 4.55228 7.55228 5 7 5C6.44772 5 6 4.55228 6 4C6 3.44772 6.44772 3 7 3C7.55228 3 8 3.44772 8 4Z" fill="#2D4A60"/>
</svg>
