<?xml version="1.0" encoding="UTF-8"?>
<svg width="60px" height="60px" viewBox="0 0 60 60" version="1.1" xmlns="http://www.w3.org/2000/svg" xmlns:xlink="http://www.w3.org/1999/xlink">
    <!-- Generator: Sketch 55.2 (78181) - https://sketchapp.com -->
    <title>Elements ts</title>
    <desc>Created with Sketch.</desc>
    <g id="Elements-ts" stroke="none" stroke-width="1" fill="none" fill-rule="evenodd">
        <path d="M6,0 L54,0 C57.3137085,-6.08718376e-16 60,2.6862915 60,6 L60,54 C60,57.3137085 57.3137085,60 54,60 L6,60 C2.6862915,60 4.05812251e-16,57.3137085 0,54 L0,6 C-4.05812251e-16,2.6862915 2.6862915,6.08718376e-16 6,0 Z M30,6 L30,54 L54,54 L54,6 L30,6 Z M9,20 C7.34314575,20 6,21.3431458 6,23 C6,24.6568542 7.34314575,26 9,26 L21,26 C22.6568542,26 24,24.6568542 24,23 C24,21.3431458 22.6568542,20 21,20 L9,20 Z M9,15 C10.6568542,15 12,13.6568542 12,12 C12,10.3431458 10.6568542,9 9,9 C7.34314575,9 6,10.3431458 6,12 C6,13.6568542 7.34314575,15 9,15 Z M21,15 C22.6568542,15 24,13.6568542 24,12 C24,10.3431458 22.6568542,9 21,9 C19.3431458,9 18,10.3431458 18,12 C18,13.6568542 19.3431458,15 21,15 Z" id="Combined-Shape" fill="#000000"></path>
    </g>
</svg>