<?xml version="1.0" standalone="no"?>
<!DOCTYPE svg PUBLIC "-//W3C//DTD SVG 20010904//EN"
 "http://www.w3.org/TR/2001/REC-SVG-20010904/DTD/svg10.dtd">
<svg version="1.0" xmlns="http://www.w3.org/2000/svg"
 width="512.000000pt" height="512.000000pt" viewBox="0 0 512.000000 512.000000"
 preserveAspectRatio="xMidYMid meet">

<g transform="translate(0.000000,512.000000) scale(0.100000,-0.100000)"
fill="#000000" stroke="none">
<path d="M180 4791 c-78 -24 -148 -90 -168 -160 -7 -21 -12 -100 -12 -175 l0
-136 2560 0 2560 0 0 128 c0 193 -32 270 -134 325 l-41 22 -2370 2 c-1304 1
-2381 -2 -2395 -6z m4338 -145 c34 -31 37 -39 37 -86 0 -47 -3 -55 -37 -86
l-38 -34 -1515 0 c-1666 0 -1557 -4 -1590 60 -19 37 -19 83 0 120 33 63 -77
59 1588 60 l1517 0 38 -34z m-4153 -41 c14 -13 25 -33 25 -45 0 -27 -43 -70
-70 -70 -27 0 -70 43 -70 70 0 27 43 70 70 70 12 0 32 -11 45 -25z m205 5 c41
-41 12 -120 -45 -120 -14 0 -34 9 -45 20 -41 41 -12 120 45 120 14 0 34 -9 45
-20z m205 -5 c14 -13 25 -33 25 -45 0 -26 -43 -70 -68 -70 -30 0 -72 38 -72
66 0 30 41 74 70 74 12 0 32 -11 45 -25z"/>
<path d="M560 3480 l0 -440 570 0 570 0 0 440 0 440 -570 0 -570 0 0 -440z"/>
<path d="M1950 3480 l0 -440 610 0 610 0 0 440 0 440 -610 0 -610 0 0 -440z"/>
<path d="M3420 3480 l0 -440 570 0 570 0 0 440 0 440 -570 0 -570 0 0 -440z"/>
<path d="M560 2360 l0 -440 570 0 570 0 0 440 0 440 -570 0 -570 0 0 -440z"/>
<path d="M1950 2360 l0 -440 610 0 610 0 0 440 0 440 -610 0 -610 0 0 -440z"/>
<path d="M3420 2360 l0 -440 570 0 570 0 0 440 0 440 -570 0 -570 0 0 -440z"/>
<path d="M560 1240 l0 -440 570 0 570 0 0 440 0 440 -570 0 -570 0 0 -440z"/>
<path d="M1950 1240 l0 -440 610 0 610 0 0 440 0 440 -610 0 -610 0 0 -440z"/>
<path d="M3420 1240 l0 -440 570 0 570 0 0 440 0 440 -570 0 -570 0 0 -440z"/>
</g>
</svg>
