<svg width="21" height="14" viewBox="0 0 21 14" fill="none" xmlns="http://www.w3.org/2000/svg">
<path d="M3.18161 0H18.6399C20.0983 0 20.8333 0.688333 20.8333 2.08833V11.9117C20.8333 13.3 20.0983 14 18.6399 14H3.18161C1.72328 14 0.988281 13.3 0.988281 11.9117V2.08833C0.988281 0.688333 1.72328 0 3.18161 0ZM10.9049 10.0333L18.7683 3.58167C19.0483 3.34833 19.2699 2.81167 18.9199 2.33333C18.5816 1.855 17.9633 1.84333 17.5549 2.135L10.9049 6.63833L4.26661 2.135C3.85828 1.84333 3.23995 1.855 2.90161 2.33333C2.55161 2.81167 2.77328 3.34833 3.05328 3.58167L10.9049 10.0333Z" fill="white"/>
</svg>
