<?xml version="1.0" encoding="UTF-8"?>
<svg width="60px" height="60px" viewBox="0 0 60 60" version="1.1" xmlns="http://www.w3.org/2000/svg" xmlns:xlink="http://www.w3.org/1999/xlink">
    <!-- Generator: Sketch 59 (86127) - https://sketch.com -->
    <title>email copy</title>
    <desc>Created with Sketch.</desc>
    <defs>
        <path d="M4,8 L56,8 C58.2105263,8 60,9.78095238 60,11.9809524 L60,48.0190476 C60,50.2190476 58.2105263,52 56,52 L4,52 C1.78947368,52 0,50.2190476 0,48.0190476 L0,11.9809524 C0,9.78095238 1.78947368,8 4,8 Z M4.84210526,12.8190476 L4.84210526,47.1809524 L55.2631579,47.1809524 L55.2631579,12.8190476 L4.84210526,12.8190476 Z M13.3684211,20.047619 L30,31.152381 L46.6315789,20.047619 C47.6842105,19.3142857 49.2631579,19.6285714 50,20.6761905 C50.7368421,21.7238095 50.4210526,23.2952381 49.3684211,24.0285714 L31.3684211,35.9714286 C30.5263158,36.4952381 29.4736842,36.4952381 28.7368421,35.9714286 L10.6315789,24.0285714 C9.57894737,23.2952381 9.26315789,21.8285714 10,20.6761905 C10.7368421,19.5238095 12.2105263,19.3142857 13.3684211,20.047619 Z" id="path-1"></path>
    </defs>
    <g id="email-copy" stroke="none" stroke-width="1" fill="none" fill-rule="evenodd">
        <mask id="mask-2" fill="white">
            <use xlink:href="#path-1"></use>
        </mask>
        <use id="Mask" fill="#000000" fill-rule="nonzero" xlink:href="#path-1"></use>
    </g>
</svg>