<?xml version="1.0" encoding="utf-8"?>
<!-- Generator: Adobe Illustrator 24.3.0, SVG Export Plug-In . SVG Version: 6.00 Build 0)  -->
<svg version="1.1" id="Layer_1" xmlns="http://www.w3.org/2000/svg" xmlns:xlink="http://www.w3.org/1999/xlink" x="0px" y="0px"
	 viewBox="0 0 26 25" style="enable-background:new 0 0 26 25;" xml:space="preserve">
<path d="M10.4,19.9H19c0.4,0,0.7,0.3,0.7,0.7l0,0c0,0.4-0.3,0.7-0.7,0.7h-8.6c-0.4,0-0.7-0.3-0.7-0.7l0,0
	C9.7,20.2,10,19.9,10.4,19.9z"/>
<path d="M21.3,8.6l-5-4.9c-0.8-0.8-2.1-0.8-2.8,0l-9.2,9.2C4.2,13,4,13.2,3.9,13.5c-0.3,0.7-0.2,1.6,0.4,2.3l4.9,4.9
	c0.4,0.4,0.9,0.6,1.4,0.6s1-0.2,1.4-0.6l1.4-1.4c0.1-0.1,0.2-0.2,0.2-0.3l7.6-7.6C22.1,10.6,22.1,9.4,21.3,8.6z M12.6,18.1l-1.5,1.5
	c-0.2,0.2-0.6,0.2-0.8,0l-4.9-4.9c-0.2-0.2-0.2-0.4-0.1-0.6c0,0,0-0.1,0.1-0.1l1.4-1.4c0.1-0.1,0.3-0.2,0.4-0.2
	c0.2,0,0.3,0.1,0.4,0.2l4.9,4.9C12.7,17.6,12.7,17.9,12.6,18.1z M20.3,10.4l-6.5,6.5c-0.1-0.2-0.2-0.3-0.3-0.5l-4.9-4.9
	c-0.2-0.2-0.4-0.3-0.6-0.4l6.5-6.5c0.1-0.1,0.3-0.2,0.4-0.2s0.3,0.1,0.4,0.2l5,4.9C20.6,9.8,20.6,10.2,20.3,10.4z"/>
</svg>
