<svg width="18" height="18" viewBox="0 0 18 18" fill="none" xmlns="http://www.w3.org/2000/svg">
<path fill-rule="evenodd" clip-rule="evenodd" d="M10.7496 0.658053L10.877 0.777472L17.2225 7.12302C18.2592 8.15965 18.2592 9.84035 17.2225 10.877L10.877 17.2225C9.84035 18.2592 8.15965 18.2592 7.12302 17.2225L0.777472 10.877C-0.259157 9.84035 -0.259157 8.15965 0.777472 7.12302L7.12302 0.777472C8.11818 -0.217692 9.70693 -0.257499 10.7496 0.658053ZM8.39581 2.0503L2.05026 8.39584C1.71658 8.72953 1.71658 9.27054 2.05026 9.60423L8.39581 15.9498C8.72949 16.2835 9.27051 16.2835 9.60419 15.9498L15.9497 9.60423C16.2834 9.27054 16.2834 8.72953 15.9497 8.39584L9.61782 2.06392L9.5619 2.01065C9.22633 1.71599 8.71449 1.73161 8.39581 2.0503ZM10.4516 6.48873L10.5364 6.5636L12.3364 8.3636C12.6608 8.68804 12.6858 9.19855 12.4113 9.55161L12.3364 9.6364L10.5364 11.4364C10.1849 11.7879 9.61508 11.7879 9.2636 11.4364C8.93917 11.112 8.91421 10.6015 9.18873 10.2484L9.2636 10.1636L9.5256 9.9H7.2V10.8C7.2 11.2971 6.79706 11.7 6.3 11.7C5.83845 11.7 5.45804 11.3526 5.40605 10.905L5.4 10.8V9C5.4 8.53845 5.74744 8.15804 6.19504 8.10606L6.3 8.1H9.5265L9.2636 7.8364C8.93917 7.51196 8.91421 7.00145 9.18873 6.64839L9.2636 6.5636C9.58804 6.23917 10.0985 6.21421 10.4516 6.48873Z" fill="#1AA874"/>
</svg>
