<svg width="14" height="14" viewBox="0 0 14 14" fill="none" xmlns="http://www.w3.org/2000/svg">
<path d="M8.61778 9.79222L10.6322 7.77778H3.11111V6.22222H10.6322L8.61778 4.20778L9.72222 3.11111L13.6111 7L9.72222 10.8889L8.61778 9.79222ZM12.4444 0C12.857 0 13.2527 0.163888 13.5444 0.455612C13.8361 0.747335 14 1.143 14 1.55556V5.18778L12.4444 3.63222V1.55556H1.55556V12.4444H12.4444V10.3678L14 8.81222V12.4444C14 12.857 13.8361 13.2527 13.5444 13.5444C13.2527 13.8361 12.857 14 12.4444 14H1.55556C1.143 14 0.747335 13.8361 0.455612 13.5444C0.163888 13.2527 0 12.857 0 12.4444V1.55556C0 0.692222 0.692222 0 1.55556 0H12.4444Z" fill="#5A5D5E"/>
</svg>
