<?xml version="1.0" encoding="UTF-8"?>
<svg width="60px" height="60px" viewBox="0 0 60 60" version="1.1" xmlns="http://www.w3.org/2000/svg" xmlns:xlink="http://www.w3.org/1999/xlink">
    <!-- Generator: Sketch 59 (86127) - https://sketch.com -->
    <title>expand copy</title>
    <desc>Created with Sketch.</desc>
    <g id="expand-copy" stroke="none" stroke-width="1" fill="none" fill-rule="evenodd">
        <g id="Group-8" transform="translate(6.000000, 0.500000)" fill="#000000" fill-rule="nonzero">
            <path d="M11.8,11.8211949 C11.8,11.1068085 12.0529059,10.3924221 12.5334272,9.81032951 L30.4391678,-10.827499 C31.5013727,-12.0446018 33.2970049,-12.123978 34.4603722,-11.0391691 C35.6237395,-9.92790139 35.6996113,-8.04932982 34.662697,-6.83222711 L18.5020074,11.7947361 L34.662697,30.4216993 C35.7249019,31.638802 35.6237395,33.5173736 34.4603722,34.6286413 C33.2970049,35.739909 31.5013727,35.634074 30.4391678,34.4169713 L12.5334272,13.7791427 C12.0529059,13.2499676 11.8,12.5355812 11.8,11.8211949 Z" id="Mask-Copy-2" transform="translate(23.600000, 11.800000) rotate(-270.000000) translate(-23.600000, -11.800000) "></path>
            <path d="M11.8,47.2211949 C11.8,46.5068085 12.0529059,45.7924221 12.5334272,45.2103295 L30.4391678,24.572501 C31.5013727,23.3553982 33.2970049,23.276022 34.4603722,24.3608309 C35.6237395,25.4720986 35.6996113,27.3506702 34.662697,28.5677729 L18.5020074,47.1947361 L34.662697,65.8216993 C35.7249019,67.038802 35.6237395,68.9173736 34.4603722,70.0286413 C33.2970049,71.139909 31.5013727,71.034074 30.4391678,69.8169713 L12.5334272,49.1791427 C12.0529059,48.6499676 11.8,47.9355812 11.8,47.2211949 Z" id="Mask-Copy-3" transform="translate(23.600000, 47.200000) scale(1, -1) rotate(-270.000000) translate(-23.600000, -47.200000) "></path>
        </g>
    </g>
</svg>