<svg xmlns="http://www.w3.org/2000/svg" viewBox="0 0 60 60"><path d="M46.72,26.76a2.49,2.49,0,0,1,.05,3.59q-3.72,3.74-7.46,7.45a2.5,2.5,0,1,1-3.58-3.5l2.92-2.92.31-.26H21.1c.08.09.14.17.21.24,1,1,2,2,2.94,2.94a2.51,2.51,0,1,1-3.57,3.52L17,34.15c-1.24-1.23-2.47-2.47-3.71-3.71a2.51,2.51,0,0,1,0-3.73l7.32-7.3a2.5,2.5,0,1,1,3.61,3.46c-1,1-1.94,1.95-2.92,2.92l-.24.26H38.91l-.23-.25L35.86,23a2.49,2.49,0,0,1,3.51-3.54l6.86,6.85ZM10,11.12a2.51,2.51,0,1,0-5,.15V38.13C5,40.77,5,43.4,5,46a2.51,2.51,0,1,0,5-.12V17.71C10,15.52,10,13.32,10,11.12Zm45,0a2.5,2.5,0,0,0-3.18-2.45A2.53,2.53,0,0,0,50,11.24V38.92c0,2.37,0,4.75,0,7.12a2.5,2.5,0,0,0,3.18,2.45A2.54,2.54,0,0,0,55,45.94V17.39C55,15.3,55,13.21,55,11.12Z"/></svg>