<?xml version="1.0" encoding="UTF-8"?>
<svg width="60px" height="60px" viewBox="0 0 60 60" version="1.1" xmlns="http://www.w3.org/2000/svg" xmlns:xlink="http://www.w3.org/1999/xlink">
    <!-- Generator: Sketch 59 (86127) - https://sketch.com -->
    <title>export copy</title>
    <desc>Created with Sketch.</desc>
    <g id="export-copy" stroke="none" stroke-width="1" fill="none" fill-rule="evenodd">
        <path d="M42.6083,25.68535 L42.59945,25.67355 C41.4932,24.4847 39.63175,24.4198 38.44585,25.529 L35.4339,28.35215 C34.4899,29.2342 32.95,28.56455 32.95,27.2754 L32.95,8.95 C32.95,7.31865 31.6284,6 30,6 C28.3716,6 27.05,7.31865 27.05,8.95 L27.05,27.23115 C27.05,28.52915 25.49535,29.1929 24.55725,28.2961 L21.68395,25.5585 C20.5069,24.4316 18.6366,24.4847 17.52445,25.67355 C16.42115,26.8506 16.4772,28.70025 17.6513,29.80945 L26.0529,37.73905 C28.3362,39.8955 31.9057,39.88665 34.17425,37.72135 L42.48145,29.79765 C43.6408,28.6914 43.69685,26.85945 42.6083,25.68535 L42.6083,25.68535 Z M59.5,48.6924 C59.5,51.5775 57.494,53.9375 53.2696,53.9375 L5.7451,53.9375 C2.8482,53.9375 0.5,51.5893 0.5,48.6924 L0.5,29.67965 C0.5,26.93615 2.58565,24.4375 6.0696,24.4375 L9.37065,24.4375 C10.98725,24.4375 12.3,25.7473 12.3,27.36685 L12.3,27.4052 C12.3,29.02475 10.98725,30.3375 9.37065,30.3375 L9.32935,30.3375 C7.71275,30.3375 6.4,31.6473 6.4,33.26685 L6.4,45.1052 C6.4,46.72475 7.71275,48.0375 9.32935,48.0375 L50.67065,48.0375 C52.28725,48.0375 53.6,46.72475 53.6,45.1052 L53.6,33.26685 C53.6,31.6473 52.28725,30.3375 50.67065,30.3375 L50.62935,30.3375 C49.01275,30.3375 47.7,29.02475 47.7,27.4052 L47.7,27.36685 C47.7,25.7473 49.01275,24.4375 50.62935,24.4375 L54.2549,24.4375 C57.1518,24.4375 59.5,26.7857 59.5,29.67965 L59.5,48.6924 Z" id="arrow_in_down-[#345]-copy" fill="#000000" transform="translate(30.000000, 29.968750) scale(1, -1) translate(-30.000000, -29.968750) "></path>
    </g>
</svg>