<svg width="16" height="16" viewBox="0 0 16 16" fill="none" xmlns="http://www.w3.org/2000/svg">
<path d="M15.1111 0H0.888889C0.653141 0 0.427049 0.0887222 0.26035 0.246649C0.0936507 0.404575 0 0.61877 0 0.842112V3.02318C0 3.46361 0.189333 3.89645 0.518222 4.20803L5.33333 8.76975V15.158C5.33351 15.3015 5.37233 15.4425 5.44613 15.5678C5.51993 15.6931 5.62626 15.7985 5.75506 15.8739C5.88386 15.9494 6.03086 15.9925 6.18214 15.9991C6.33342 16.0057 6.48398 15.9756 6.61955 15.9117L10.1751 14.2275C10.4764 14.0843 10.6667 13.793 10.6667 13.4738V8.76975L15.4818 4.20803C15.8107 3.89645 16 3.46361 16 3.02318V0.842112C16 0.61877 15.9064 0.404575 15.7397 0.246649C15.573 0.0887222 15.3469 0 15.1111 0ZM9.14933 7.82575C9.06663 7.90381 9.00104 7.99661 8.95634 8.09879C8.91164 8.20097 8.88872 8.31051 8.88889 8.42112V12.9534L7.11111 13.7955V8.42112C7.11128 8.31051 7.08836 8.20097 7.04366 8.09879C6.99896 7.99661 6.93337 7.90381 6.85067 7.82575L1.77778 3.02318V1.68422H14.2231L14.2249 3.01729L9.14933 7.82575Z" fill="#6A737D"/>
</svg>
