<?xml version="1.0" encoding="UTF-8"?>
<svg width="60px" height="60px" viewBox="0 0 60 60" version="1.1" xmlns="http://www.w3.org/2000/svg" xmlns:xlink="http://www.w3.org/1999/xlink">
    <!-- Generator: Sketch 59 (86127) - https://sketch.com -->
    <title>filter outline</title>
    <desc>Created with Sketch.</desc>
    <defs>
        <path d="M3.75464736,0.992457948 L49.7385308,0.992457948 C51.7635092,1.01374738 54.0416098,3.14446119 53.9994228,5.275175 L53.9150487,11.2453929 C53.8939552,12.215817 53.5353652,13.1651449 52.881466,13.8613188 L33.8762004,33.6917245 C33.2012076,34.4089945 32.6738695,36.0544963 32.6738695,37.0671127 L32.6738695,50.737435 C32.6738695,53.6276111 29.9738983,55.9481905 27.5270495,54.5980353 L22.8231935,52.171975 C21.0935245,50.8218197 21.6841432,49.1974141 21.3466468,47.8894512 L21.3466468,37.0671127 C21.3466468,36.1599771 19.827913,34.4300907 19.2794814,33.755013 L0.843740981,13.3128182 C0.295309343,12.6166444 0,11.730605 0,10.8234694 L0.042187049,4.78996294 C0.0843740981,2.68034531 1.72966901,0.971555027 3.75464736,0.992457948 Z" id="path-1"></path>
    </defs>
    <g id="filter-outline" stroke="none" stroke-width="1" fill="none" fill-rule="evenodd">
        <g id="icon/custom-filter" transform="translate(3.000000, 2.000000)">
            <mask id="mask-2" fill="white">
                <use xlink:href="#path-1"></use>
            </mask>
            <use id="Mask" stroke="#000000" stroke-width="6" xlink:href="#path-1"></use>
        </g>
    </g>
</svg>