<?xml version="1.0" encoding="UTF-8"?>
<svg width="60px" height="60px" viewBox="0 0 60 60" version="1.1" xmlns="http://www.w3.org/2000/svg" xmlns:xlink="http://www.w3.org/1999/xlink">
    <!-- Generator: Sketch 59 (86127) - https://sketch.com -->
    <title>filter</title>
    <desc>Created with Sketch.</desc>
    <defs>
        <path d="M4.17183041,0 L55.2650342,0 C57.5150102,0.0236519505 60.0462331,2.39081415 59.9993586,4.75797634 L59.9056096,11.3907179 C59.8821724,12.4688314 59.4837391,13.5235076 58.7571844,14.2969369 L37.6402226,36.3279514 C36.8902307,37.1248179 36.3042994,38.9529233 36.3042994,40.0779113 L36.3042994,55.2652489 C36.3042994,58.4761521 33.3043315,61.0542496 30.5856106,59.5542656 L25.3591039,56.8589819 C23.4372495,55.3589979 24.0934925,53.5543297 23.7184965,52.1012203 L23.7184965,40.0779113 C23.7184965,39.0701096 22.0310145,37.1482551 21.421646,36.3982631 L0.937489979,13.6875684 C0.328121493,12.9141392 0,11.9297747 0,10.921973 L0.0468744989,4.21891961 C0.0937489979,1.87519466 1.92185446,-0.0232225485 4.17183041,0 Z" id="path-1"></path>
    </defs>
    <g id="filter" stroke="none" stroke-width="1" fill="none" fill-rule="evenodd">
        <g id="icon/custom-filter">
            <mask id="mask-2" fill="white">
                <use xlink:href="#path-1"></use>
            </mask>
            <use id="Mask" fill="#000000" xlink:href="#path-1"></use>
        </g>
    </g>
</svg>