<svg width="21" height="21" viewBox="0 0 21 21" fill="none" xmlns="http://www.w3.org/2000/svg">
<path d="M10.5002 1.74963C15.3329 1.74963 19.2502 5.66701 19.2502 10.4996C19.2502 15.3323 15.3329 19.2496 10.5002 19.2496C5.66762 19.2496 1.75024 15.3323 1.75024 10.4996C1.75024 9.21864 2.02499 8.00239 2.52024 6.90689C2.92799 6.08526 3.59912 5.26713 4.13899 4.98713C3.56762 6.10976 3.28762 7.20964 3.22899 7.94726C3.62624 6.63476 4.37962 5.53489 5.434 4.75876C7.24175 3.42963 9.676 3.37013 10.6455 4.21626C8.8465 4.83488 6.8865 7.32076 7.31787 10.2328C7.38787 10.714 7.53225 11.1813 7.74575 11.617C7.40975 10.7333 7.38 9.48814 7.9225 8.67876C8.528 7.77751 9.39075 7.58676 9.85275 7.68476C9.67075 7.64626 9.26825 8.41626 9.20875 8.55189C9.05723 8.89627 8.98229 9.26945 8.98912 9.64564C9.00213 10.4317 9.32622 11.1806 9.89037 11.7281C11.5721 13.3653 14.2855 12.7213 15.5009 10.8514C16.3347 9.56426 16.4362 7.37939 15.3652 5.64338C15.098 5.22067 14.7794 4.83271 14.4167 4.48838C12.798 2.94313 10.4967 2.23963 8.3075 2.55901C7.33975 2.71388 6.51637 2.99301 5.8365 3.39551C6.78587 2.44788 8.6715 1.74963 10.5002 1.74963Z" fill="#6A737D"/>
</svg>
