<svg width="13" height="13" viewBox="0 0 13 13" fill="none" xmlns="http://www.w3.org/2000/svg">
<path d="M7.49038 0.7936C7.45357 0.629767 7.35559 0.482519 7.21303 0.376779C7.07046 0.271038 6.89206 0.213299 6.70802 0.213333H0.976058C0.764329 0.213333 0.561273 0.289752 0.411558 0.425778C0.261843 0.561805 0.177734 0.746296 0.177734 0.938666V11.8187C0.177734 12.011 0.261843 12.1955 0.411558 12.3316C0.561273 12.4676 0.764329 12.544 0.976058 12.544C1.18779 12.544 1.39084 12.4676 1.54056 12.3316C1.69027 12.1955 1.77438 12.011 1.77438 11.8187V7.46667H6.24499L6.43659 8.33707C6.50844 8.67652 6.83815 8.92096 7.21895 8.91733H11.3543C11.566 8.91733 11.7691 8.84091 11.9188 8.70489C12.0685 8.56886 12.1526 8.38437 12.1526 8.192V2.38933C12.1526 2.19696 12.0685 2.01247 11.9188 1.87645C11.7691 1.74042 11.566 1.664 11.3543 1.664H7.68198L7.49038 0.7936Z" fill="black"/>
</svg>
