<svg width="20" height="20" viewBox="0 0 20 20" fill="none" xmlns="http://www.w3.org/2000/svg">
<path d="M5.83337 2.50001V10C5.83337 10.4583 6.20837 10.8333 6.66671 10.8333H8.33337V16.7917C8.33337 17.2167 8.89171 17.3667 9.10837 17L13.4334 9.58334C13.5077 9.45724 13.5472 9.31372 13.5481 9.16737C13.549 9.02102 13.5111 8.87705 13.4383 8.75009C13.3655 8.62312 13.2604 8.51769 13.1336 8.44449C13.0069 8.37129 12.8631 8.33295 12.7167 8.33334H10.8334L12.9084 2.79167C12.9565 2.66609 12.9734 2.53066 12.9575 2.3971C12.9416 2.26354 12.8934 2.13585 12.8171 2.02509C12.7408 1.91432 12.6387 1.8238 12.5196 1.76135C12.4004 1.69891 12.2679 1.66641 12.1334 1.66667H6.66671C6.20837 1.66667 5.83337 2.04167 5.83337 2.50001Z" fill="#24292E"/>
</svg>
