<?xml version="1.0" encoding="iso-8859-1"?>
<!-- Generator: Adobe Illustrator 19.0.0, SVG Export Plug-In . SVG Version: 6.00 Build 0)  -->
<svg version="1.1" id="Capa_1" xmlns="http://www.w3.org/2000/svg" xmlns:xlink="http://www.w3.org/1999/xlink" x="0px" y="0px"
	 viewBox="0 0 60 60" style="enable-background:new 0 0 60 60;" xml:space="preserve">
<g>
	<path d="M7,3C4.794,3,3,4.794,3,7s1.794,4,4,4s4-1.794,4-4S9.206,3,7,3z M7,9C5.897,9,5,8.103,5,7s0.897-2,2-2s2,0.897,2,2
		S8.103,9,7,9z"/>
	<path d="M16,3c-2.206,0-4,1.794-4,4s1.794,4,4,4s4-1.794,4-4S18.206,3,16,3z M16,9c-1.103,0-2-0.897-2-2s0.897-2,2-2s2,0.897,2,2
		S17.103,9,16,9z"/>
	<path d="M25,3c-2.206,0-4,1.794-4,4s1.794,4,4,4s4-1.794,4-4S27.206,3,25,3z M25,9c-1.103,0-2-0.897-2-2s0.897-2,2-2s2,0.897,2,2
		S26.103,9,25,9z"/>
	<path d="M0,0v14v46h60V14V0H0z M2,2h56v10H2V2z M58,58H2V14h56V58z"/>
	<path d="M20,28v-7H4v7v15h16V28z M6,23h12v3H6V23z M6,41V28h12v13H6z"/>
	<path d="M56,28v-7H40v7v15h16V28z M42,23h12v3H42V23z M42,41V28h12v13H42z"/>
	<path d="M38,24v-7H22v7v23h16V24z M36,19.586L33.586,22h-2.172l3-3H36V19.586z M26.414,22l3-3h2.172l-3,3H26.414z M26.586,19
		L24,21.586V19H26.586z M24,45V24h12v21H24z"/>
	<path d="M7,40h10v-6H7V40z M9,36h6v2H9V36z"/>
	<path d="M25,44h10v-6H25V44z M27,40h6v2h-6V40z"/>
	<path d="M43,40h10v-6H43V40z M45,36h6v2h-6V36z"/>
	<path d="M5,51h14c0.553,0,1-0.447,1-1s-0.447-1-1-1H5c-0.553,0-1,0.447-1,1S4.447,51,5,51z"/>
	<path d="M19,52H5c-0.553,0-1,0.447-1,1s0.447,1,1,1h14c0.553,0,1-0.447,1-1S19.553,52,19,52z"/>
	<path d="M23,51h14c0.553,0,1-0.447,1-1s-0.447-1-1-1H23c-0.553,0-1,0.447-1,1S22.447,51,23,51z"/>
	<path d="M23,54h14c0.553,0,1-0.447,1-1s-0.447-1-1-1H23c-0.553,0-1,0.447-1,1S22.447,54,23,54z"/>
	<path d="M41,51h14c0.553,0,1-0.447,1-1s-0.447-1-1-1H41c-0.553,0-1,0.447-1,1S40.447,51,41,51z"/>
	<path d="M41,54h14c0.553,0,1-0.447,1-1s-0.447-1-1-1H41c-0.553,0-1,0.447-1,1S40.447,54,41,54z"/>
</g>
<g>
</g>
<g>
</g>
<g>
</g>
<g>
</g>
<g>
</g>
<g>
</g>
<g>
</g>
<g>
</g>
<g>
</g>
<g>
</g>
<g>
</g>
<g>
</g>
<g>
</g>
<g>
</g>
<g>
</g>
</svg>
