<?xml version="1.0" encoding="UTF-8"?>
<svg width="60px" height="60px" viewBox="0 0 60 60" version="1.1" xmlns="http://www.w3.org/2000/svg" xmlns:xlink="http://www.w3.org/1999/xlink">
    <!-- Generator: Sketch 55.2 (78181) - https://sketchapp.com -->
    <title>funnel-thin</title>
    <desc>Created with Sketch.</desc>
    <g id="funnel-thin" stroke="none" stroke-width="1" fill="none" fill-rule="evenodd">
        <path d="M57.3513423,2.82614346 C56.6926968,1.39221941 55.297801,0.5 53.7118782,0.5 L6.01082098,0.5 C4.42489813,0.5 3.03000237,1.39221941 2.369367,2.82614346 C1.71470123,4.24811814 1.94154591,5.87323207 2.96035707,7.06418565 L21.9018873,32.854903 L21.9018873,57.5084388 C21.9018873,58.2433249 22.30583,58.9184641 22.9525363,59.2649958 C23.2470364,59.4223291 23.5693947,59.5 23.8917529,59.5 C24.2777868,59.5 24.6618309,59.386481 24.9961283,59.1654177 L36.9353216,51.199173 C37.4885043,50.8287426 37.8208118,50.2073755 37.8208118,49.5421941 L37.8208118,32.854903 L56.7623421,7.06617722 C57.7811532,5.87323207 58.0079979,4.24811814 57.3513423,2.82614346 Z" id="XMLID_276_" stroke="#2D4A60" stroke-width="1.6" fill-rule="nonzero"></path>
    </g>
</svg>