<?xml version="1.0" encoding="UTF-8"?>
<svg width="12px" height="12px" viewBox="0 0 12 12" version="1.1" xmlns="http://www.w3.org/2000/svg" xmlns:xlink="http://www.w3.org/1999/xlink">
    <!-- Generator: Sketch 55.2 (78181) - https://sketchapp.com -->
    <title>Mask</title>
    <desc>Created with Sketch.</desc>
    <g id="Page-1" stroke="none" stroke-width="1" fill="none" fill-rule="evenodd">
        <g id="Test-case-5-Copy-2" transform="translate(-1359.000000, -23.000000)" fill="#656565">
            <path d="M1359.83437,23 L1370.05301,23 C1370.503,23.0047304 1371.00925,23.4781628 1370.99987,23.9515953 L1370.98112,25.2781436 C1370.97643,25.4937663 1370.89675,25.7047015 1370.75144,25.8593874 L1366.52804,30.2655903 C1366.37805,30.4249636 1366.26086,30.7905847 1366.26086,31.0155823 L1366.26086,34.0530498 C1366.26086,34.6952304 1365.66087,35.2108499 1365.11712,34.9108531 L1364.07182,34.3717964 C1363.68745,34.0717996 1363.8187,33.7108659 1363.7437,33.4202441 L1363.7437,31.0155823 C1363.7437,30.8140219 1363.4062,30.429651 1363.28433,30.2796526 L1359.1875,25.7375137 C1359.06562,25.5828278 1359,25.3859549 1359,25.1843946 L1359.00937,23.8437839 C1359.01875,23.3750389 1359.38437,22.9953555 1359.83437,23 Z" id="Mask"></path>
        </g>
    </g>
</svg>