<?xml version="1.0" encoding="UTF-8"?>
<svg width="14px" height="14px" viewBox="0 0 14 14" version="1.1" xmlns="http://www.w3.org/2000/svg" xmlns:xlink="http://www.w3.org/1999/xlink">
    <!-- Generator: Sketch 58 (84663) - https://sketch.com -->
    <title>Group 3</title>
    <desc>Created with Sketch.</desc>
    <g id="Page-1" stroke="none" stroke-width="1" fill="none" fill-rule="evenodd">
        <g id="Test-case-11-Copy-2" transform="translate(-945.000000, -320.000000)" fill="#5E6060">
            <g id="close-large-copy" transform="translate(939.000000, 314.000000)">
                <g id="Group-3" transform="translate(6.000000, 6.000000)">
                    <path d="M9.56570455,7.00054328 C9.56570455,5.58522018 8.41595022,4.43541841 6.99835,4.43541841 C5.58748626,4.43541841 4.43768449,5.58522018 4.43768449,7.00054328 C4.43768449,8.41254558 5.58748626,9.56229991 6.99835,9.56229991 C8.41595022,9.56229991 9.56570455,8.41254558 9.56570455,7.00054328 M5.86425085,13.2816859 L5.55157422,11.9537472 C5.20085076,11.8517513 4.86915072,11.7139383 4.55424441,11.5435815 L3.2554338,12.3482103 C2.91699729,12.5599821 2.5225342,12.6261134 2.24126281,12.3482103 L1.65068303,11.7531237 C1.36832052,11.4752205 1.45456633,11.0975986 1.65068303,10.7400912 L2.45080502,9.44014207 C2.23452634,9.03562172 2.06753776,8.59855758 1.96558934,8.13910178 L0.717207377,7.8398981 C0.326112531,7.75251373 1.03999992e-05,7.51830276 1.03999992e-05,7.1249308 L1.03999992e-05,6.28557598 C1.03999992e-05,5.89225146 0.326112531,5.68380037 0.717207377,5.57060868 L2.14937166,5.23331072 L2.55616912,4.38276008 C2.32195815,4.00622929 2.08888573,3.62855995 1.85799556,3.25202917 C1.643994,2.91364009 1.57900128,2.51803845 1.85799556,2.23899674 L2.45080502,1.64732583 C2.73098529,1.36605444 3.10751608,1.45120913 3.46274633,1.64732583 L4.67640225,2.39811029 L5.50114557,2.06081233 C5.61433726,1.61255236 5.73535654,1.16320127 5.86425085,0.718309536 C5.97744254,0.32721469 6.18361651,-2.59999979e-05 6.57921815,-2.59999979e-05 L7.41857297,-2.59999979e-05 C7.81412717,-2.59999979e-05 8.04838558,0.32721469 8.13572251,0.718309536 L8.47534502,2.0574441 L9.46484724,2.4676098 C9.81780038,2.25806759 10.1730781,2.05298474 10.5339062,1.8534998 C10.890275,1.65852166 11.2668058,1.57336697 11.5469861,1.8534998 L12.1408867,2.44630926 C12.4210195,2.72535098 12.3549357,3.12095262 12.1408867,3.46048025 L11.5155809,4.50937727 L11.8304872,5.18179095 C12.3504289,5.30840814 12.8412899,5.43953213 13.2828134,5.568379 C13.6716786,5.68157069 14.0000104,5.89002178 14.0000104,6.28557598 L14.0000104,7.1249308 C14.0000104,7.51830276 13.6739083,7.75023661 13.2828134,7.8398981 L12.0232356,8.16040231 L11.6299111,9.28330564 C11.876409,9.6934239 12.1162654,10.1136943 12.3504289,10.530549 C12.5454545,10.888009 12.6283795,11.2656783 12.3504289,11.5435815 L11.7565283,12.1375295 C11.476348,12.4187534 11.0841621,12.3504399 10.7457256,12.1375295 L9.60038314,11.4583793 C9.23960242,11.667969 8.85410548,11.8349576 8.44839914,11.9537472 L8.13913818,13.2816859 C8.04838558,13.6727808 7.81640429,13.999974 7.42080265,13.999974 L6.58144783,13.999974 C6.18584619,13.999974 5.98081078,13.6705511 5.86425085,13.2816859" id="Fill-1"></path>
                </g>
            </g>
        </g>
    </g>
</svg>