<?xml version="1.0" encoding="UTF-8"?>
<svg width="80px" height="83px" viewBox="0 0 80 83" version="1.1" xmlns="http://www.w3.org/2000/svg" xmlns:xlink="http://www.w3.org/1999/xlink">
    <!-- Generator: Sketch 59 (86127) - https://sketch.com -->
    <title>gear</title>
    <desc>Created with Sketch.</desc>
    <g id="Page-1" stroke="none" stroke-width="1" fill="none" fill-rule="evenodd">
        <g id="gear" fill="#000000" fill-rule="nonzero">
            <path d="M44,40 C44,42.208 42.208,44 40,44 C37.792,44 36,42.208 36,40 C36,37.792 37.792,36 40,36 C42.208,36 44,37.792 44,40 M59.2801589,45.4320448 C57.5081443,52.1080997 52.1080997,57.5081443 45.4320448,59.2801589 C30.2319195,63.3121921 16.6878079,49.7680805 20.7198411,34.5679552 C22.4918557,27.8919003 27.8919003,22.4918557 34.5679552,20.7198411 C49.7680805,16.6878079 63.3121921,30.2319195 59.2801589,45.4320448 M69.376,36 C68.412,36 67.9450936,35.1738597 67.84847,34.2146809 C67.428,30.0406901 65.4977679,26.3962053 63.384,23.592 C62.803018,22.8212471 62.92,22.236 63.6,21.556 L68.284,17.124 C69.848,15.56 69.848,13.152 68.284,11.592 C66.724,10.028 64.188,10.092 62.628,11.652 L57.944,16.368 C57.264,17.048 56.212,17.132 55.408,16.604 C52.488,14.676 49.188,13.288 45.64,12.564 C44.696,12.368 44,11.588 44,10.624 L44,4 C44,1.792 42.208,0 40,0 C37.792,0 36,1.792 36,4 L36,10.624 C36,11.588 35.304,12.376 34.36,12.572 C30.812,13.296 27.512,14.688 24.592,16.616 C23.788,17.148 22.736,17.08 22.056,16.4 L17.372,11.716 C15.812,10.152 13.276,10.152 11.716,11.716 C10.152,13.276 10.152,15.812 11.716,17.372 L16.4,22.056 C17.08,22.736 17.184,23.812 16.616,24.592 C14.64,27.324 13.376,30.248 12.808,35.36 C12.7,36.316 11.588,36 10.624,36 L4,36 C1.792,36 0,37.792 0,40 C0,42.208 1.792,44 4,44 L10.624,44 C11.588,44 12.756,44.352 12.948,45.292 C13.672,48.84 14.692,51.488 16.616,54.408 C17.148,55.212 17.08,56.764 16.4,57.444 L11.716,62.376 C10.152,63.94 10.152,66.596 11.716,68.16 C13.276,69.72 15.812,69.784 17.372,68.22 L22.056,63.568 C22.736,62.888 23.788,62.836 24.592,63.368 C27.512,65.292 30.812,66.696 34.36,67.42 C35.304,67.616 36,68.412 36,69.376 L36,76 C36,78.208 37.792,80 40,80 C42.208,80 44,78.208 44,76 L44,69.376 C44,68.412 44.696,67.624 45.64,67.428 C49.188,66.704 52.488,65.308 55.408,63.384 C56.212,62.852 57.264,62.92 57.944,63.6 L62.628,68.284 C64.188,69.848 66.724,69.848 68.284,68.284 C69.848,66.724 69.848,64.188 68.284,62.628 L63.6,57.944 C62.92,57.264 62.852,56.212 63.384,55.408 C65.308,52.488 66.352,50.856 67.428,47.64 C67.736,46.728 67.736,44 69.376,44 L76,44 C78.208,44 80,42.208 80,40 C80,37.792 78.208,36 76,36 L69.376,36 Z" id="settings-[#1491]"></path>
            <path d="M59.6664942,44.5233049 C59.4914946,43.8178375 58.6086845,43.5787755 58.0946234,44.092837 L52.2852641,49.9022004 L46.9821535,49.0186084 L46.0985621,43.715494 L51.9079214,37.9061306 C52.4251075,37.3889441 52.1758894,36.5076959 51.4657351,36.3311337 C47.7641826,35.413948 43.6884124,36.4022273 40.7954515,39.2944091 C37.6985849,42.3912779 36.8462434,46.8803314 38.1353024,50.7943861 L21.4642538,67.4654467 C19.5119154,69.4177865 19.5119154,72.5834052 21.4642538,74.5357451 C23.4165923,76.488085 26.5822087,76.488085 28.5345472,74.5357451 L45.1915333,57.878747 C49.1071477,59.1842132 53.5876044,58.3224961 56.7047834,55.2053149 C59.6008693,52.3092269 60.5875854,48.2272002 59.6664942,44.5233049 Z M25.0001818,72.8748109 C23.9650283,72.8748109 23.1251868,72.0349688 23.1251868,70.9998147 C23.1251868,69.9638792 23.9650283,69.1248184 25.0001818,69.1248184 C26.0353352,69.1248184 26.8751767,69.9638792 26.8751767,70.9998147 C26.8751767,72.0349688 26.0353352,72.8748109 25.0001818,72.8748109 Z" id="Shape" transform="translate(40.000000, 56.000000) rotate(-45.000000) translate(-40.000000, -56.000000) "></path>
        </g>
    </g>
</svg>