<?xml version="1.0" encoding="UTF-8"?>
<svg width="60px" height="60px" viewBox="0 0 60 60" version="1.1" xmlns="http://www.w3.org/2000/svg" xmlns:xlink="http://www.w3.org/1999/xlink">
    <!-- Generator: Sketch 55.2 (78181) - https://sketchapp.com -->
    <title>gear ts</title>
    <desc>Created with Sketch.</desc>
    <g id="gear-ts" stroke="none" stroke-width="1" fill="none" fill-rule="evenodd">
        <path d="M33,30 C33,31.656 31.656,33 30,33 C28.344,33 27,31.656 27,30 C27,28.344 28.344,27 30,27 C31.656,27 33,28.344 33,30 M44.4601192,34.0740336 C43.1311082,39.0810748 39.0810748,43.1311082 34.0740336,44.4601192 C22.6739396,47.4841441 12.5158559,37.3260604 15.5398808,25.9259664 C16.8688918,20.9189252 20.9189252,16.8688918 25.9259664,15.5398808 C37.3260604,12.5158559 47.4841441,22.6739396 44.4601192,34.0740336 M52.032,27 C51.309,27 50.9588202,26.3803948 50.8863525,25.6610107 C50.571,22.5305176 49.1233259,19.797154 47.538,17.694 C47.1022635,17.1159353 47.19,16.677 47.7,16.167 L51.213,12.843 C52.386,11.67 52.386,9.864 51.213,8.694 C50.043,7.521 48.141,7.569 46.971,8.739 L43.458,12.276 C42.948,12.786 42.159,12.849 41.556,12.453 C39.366,11.007 36.891,9.966 34.23,9.423 C33.522,9.276 33,8.691 33,7.968 L33,3 C33,1.344 31.656,0 30,0 C28.344,0 27,1.344 27,3 L27,7.968 C27,8.691 26.478,9.282 25.77,9.429 C23.109,9.972 20.634,11.016 18.444,12.462 C17.841,12.861 17.052,12.81 16.542,12.3 L13.029,8.787 C11.859,7.614 9.957,7.614 8.787,8.787 C7.614,9.957 7.614,11.859 8.787,13.029 L12.3,16.542 C12.81,17.052 12.888,17.859 12.462,18.444 C10.98,20.493 10.032,22.686 9.606,26.52 C9.525,27.237 8.691,27 7.968,27 L3,27 C1.344,27 0,28.344 0,30 C0,31.656 1.344,33 3,33 L7.968,33 C8.691,33 9.567,33.264 9.711,33.969 C10.254,36.63 11.019,38.616 12.462,40.806 C12.861,41.409 12.81,42.573 12.3,43.083 L8.787,46.782 C7.614,47.955 7.614,49.947 8.787,51.12 C9.957,52.29 11.859,52.338 13.029,51.165 L16.542,47.676 C17.052,47.166 17.841,47.127 18.444,47.526 C20.634,48.969 23.109,50.022 25.77,50.565 C26.478,50.712 27,51.309 27,52.032 L27,57 C27,58.656 28.344,60 30,60 C31.656,60 33,58.656 33,57 L33,52.032 C33,51.309 33.522,50.718 34.23,50.571 C36.891,50.028 39.366,48.981 41.556,47.538 C42.159,47.139 42.948,47.19 43.458,47.7 L46.971,51.213 C48.141,52.386 50.043,52.386 51.213,51.213 C52.386,50.043 52.386,48.141 51.213,46.971 L47.7,43.458 C47.19,42.948 47.139,42.159 47.538,41.556 C48.981,39.366 49.764,38.142 50.571,35.73 C50.802,35.046 50.802,33 52.032,33 L57,33 C58.656,33 60,31.656 60,30 C60,28.344 58.656,27 57,27 L52.032,27 Z M30,41 C36.0751322,41 41,36.0751322 41,30 C41,23.9248678 36.0751322,19 30,19 C23.9248678,19 19,23.9248678 19,30 C19,36.0751322 23.9248678,41 30,41 Z" id="settings-[#1491]" fill="#000000"></path>
    </g>
</svg>