<svg width="18" height="18" viewBox="0 0 18 18" fill="none" xmlns="http://www.w3.org/2000/svg">
<path d="M9 0C10.2188 0 11.3839 0.237723 12.4955 0.71317C13.6071 1.18862 14.5647 1.82812 15.3683 2.6317C16.1719 3.43527 16.8114 4.39286 17.2868 5.50446C17.7623 6.61607 18 7.78125 18 9C18 10.2188 17.7623 11.3839 17.2868 12.4955C16.8114 13.6071 16.1719 14.5647 15.3683 15.3683C14.5647 16.1719 13.6071 16.8114 12.4955 17.2868C11.3839 17.7623 10.2188 18 9 18C7.78125 18 6.61607 17.7623 5.50446 17.2868C4.39286 16.8114 3.43527 16.1719 2.6317 15.3683C1.82812 14.5647 1.18862 13.6071 0.71317 12.4955C0.237723 11.3839 0 10.2188 0 9C0 7.78125 0.237723 6.61607 0.71317 5.50446C1.18862 4.39286 1.82812 3.43527 2.6317 2.6317C3.43527 1.82812 4.39286 1.18862 5.50446 0.71317C6.61607 0.237723 7.78125 0 9 0ZM9 1.28571C7.72768 1.28571 6.51897 1.58705 5.37388 2.18973L7.32254 4.13839C7.87165 3.95089 8.4308 3.85714 9 3.85714C9.5692 3.85714 10.1283 3.95089 10.6775 4.13839L12.6261 2.18973C11.481 1.58705 10.2723 1.28571 9 1.28571ZM2.18973 12.6261L4.13839 10.6775C3.95089 10.1283 3.85714 9.5692 3.85714 9C3.85714 8.4308 3.95089 7.87165 4.13839 7.32254L2.18973 5.37388C1.58705 6.51897 1.28571 7.72768 1.28571 9C1.28571 10.2723 1.58705 11.481 2.18973 12.6261ZM9 16.7143C10.2723 16.7143 11.481 16.4129 12.6261 15.8103L10.6775 13.8616C10.1283 14.0491 9.5692 14.1429 9 14.1429C8.4308 14.1429 7.87165 14.0491 7.32254 13.8616L5.37388 15.8103C6.51897 16.4129 7.72768 16.7143 9 16.7143ZM9 12.8571C10.0647 12.8571 10.9738 12.4805 11.7271 11.7271C12.4805 10.9738 12.8571 10.0647 12.8571 9C12.8571 7.93527 12.4805 7.02623 11.7271 6.27288C10.9738 5.51953 10.0647 5.14286 9 5.14286C7.93527 5.14286 7.02623 5.51953 6.27288 6.27288C5.51953 7.02623 5.14286 7.93527 5.14286 9C5.14286 10.0647 5.51953 10.9738 6.27288 11.7271C7.02623 12.4805 7.93527 12.8571 9 12.8571ZM13.8616 10.6775L15.8103 12.6261C16.4129 11.481 16.7143 10.2723 16.7143 9C16.7143 7.72768 16.4129 6.51897 15.8103 5.37388L13.8616 7.32254C14.0491 7.87165 14.1429 8.4308 14.1429 9C14.1429 9.5692 14.0491 10.1283 13.8616 10.6775Z" fill="#6A737D"/>
</svg>
