<svg width="20" height="20" viewBox="0 0 20 20" fill="none" xmlns="http://www.w3.org/2000/svg">
<mask id="mask0_3_131" style="mask-type:alpha" maskUnits="userSpaceOnUse" x="0" y="0" width="20" height="20">
<rect width="20" height="20" fill="#D9D9D9"/>
</mask>
<g mask="url(#mask0_3_131)">
<path d="M10 17.9167C8.90279 17.9167 7.87168 17.7083 6.90668 17.2917C5.94112 16.875 5.10418 16.3125 4.39584 15.6042C3.68751 14.8958 3.12501 14.0589 2.70834 13.0933C2.29168 12.1283 2.08334 11.0972 2.08334 9.99999C2.08334 8.90277 2.29168 7.87138 2.70834 6.90583C3.12501 5.94083 3.68751 5.10416 4.39584 4.39583C5.10418 3.68749 5.94112 3.12499 6.90668 2.70833C7.87168 2.29166 8.90279 2.08333 10 2.08333C11.0972 2.08333 12.1286 2.29166 13.0942 2.70833C14.0592 3.12499 14.8958 3.68749 15.6042 4.39583C16.3125 5.10416 16.875 5.94083 17.2917 6.90583C17.7083 7.87138 17.9167 8.90277 17.9167 9.99999C17.9167 11.0972 17.7083 12.1283 17.2917 13.0933C16.875 14.0589 16.3125 14.8958 15.6042 15.6042C14.8958 16.3125 14.0592 16.875 13.0942 17.2917C12.1286 17.7083 11.0972 17.9167 10 17.9167ZM7.58334 16.2083L8.81251 13.4167C8.28473 13.2361 7.83334 12.9514 7.45834 12.5625C7.08334 12.1736 6.79862 11.7222 6.60418 11.2083L3.77084 12.375C4.10418 13.2639 4.60418 14.0417 5.27084 14.7083C5.93751 15.375 6.70834 15.875 7.58334 16.2083ZM6.60418 8.79166C6.78473 8.27777 7.06612 7.82999 7.44834 7.44833C7.83001 7.06611 8.27779 6.78472 8.79168 6.60416L7.62501 3.77083C6.73612 4.11805 5.95834 4.62499 5.29168 5.29166C4.62501 5.95833 4.11807 6.73611 3.77084 7.62499L6.60418 8.79166ZM10 12.375C10.6528 12.375 11.212 12.1422 11.6775 11.6767C12.1425 11.2117 12.375 10.6528 12.375 9.99999C12.375 9.34722 12.1425 8.78805 11.6775 8.32249C11.212 7.8575 10.6528 7.62499 10 7.62499C9.34723 7.62499 8.78834 7.8575 8.32334 8.32249C7.85779 8.78805 7.62501 9.34722 7.62501 9.99999C7.62501 10.6528 7.85779 11.2117 8.32334 11.6767C8.78834 12.1422 9.34723 12.375 10 12.375ZM12.4167 16.2083C13.2917 15.875 14.0592 15.3786 14.7192 14.7192C15.3786 14.0592 15.875 13.2917 16.2083 12.4167L13.4167 11.1875C13.2361 11.7014 12.955 12.1492 12.5733 12.5308C12.1911 12.913 11.75 13.2014 11.25 13.3958L12.4167 16.2083ZM13.3958 8.74999L16.2083 7.58333C15.875 6.70833 15.3786 5.94083 14.7192 5.28083C14.0592 4.62138 13.2917 4.12499 12.4167 3.79166L11.25 6.62499C11.75 6.81944 12.1839 7.10055 12.5517 7.46833C12.92 7.83666 13.2014 8.26388 13.3958 8.74999Z" fill="#45526C"/>
</g>
</svg>
