<svg width="39" height="39" viewBox="0 0 39 39" fill="none" xmlns="http://www.w3.org/2000/svg">
<path d="M19.5 35.75C28.4749 35.75 35.75 28.4749 35.75 19.5C35.75 10.5251 28.4749 3.25 19.5 3.25C10.5251 3.25 3.25 10.5251 3.25 19.5C3.25 28.4749 10.5251 35.75 19.5 35.75Z" stroke="#375E70" stroke-width="2.4" stroke-linecap="round" stroke-linejoin="round"/>
<path d="M23.2912 30.875V27.8476C23.3318 27.3439 23.2619 26.8401 23.0864 26.364C22.9097 25.8876 22.6326 25.4547 22.2739 25.0949C25.675 24.726 29.25 23.4699 29.25 17.7109C29.25 16.2386 28.6683 14.8216 27.625 13.7556C28.1193 12.4688 28.0842 11.0387 27.5275 9.77762C27.5275 9.77762 26.2487 9.40874 23.2912 11.3392C20.8062 10.6841 18.1939 10.6841 15.7089 11.3392C12.7514 9.40874 11.4725 9.77924 11.4725 9.77924C10.9167 11.0394 10.8817 12.4681 11.375 13.754C10.3294 14.8167 9.74538 16.2492 9.75003 17.7401C9.75003 23.4585 13.325 24.713 16.7262 25.1241C16.3713 25.4808 16.0966 25.9091 15.9202 26.3802C15.745 26.8479 15.673 27.3479 15.7089 27.846V30.875" stroke="#375E70" stroke-width="2.4" stroke-linecap="round" stroke-linejoin="round"/>
<path d="M15.7089 28.7658C12.4589 29.7911 9.75 28.7658 8.125 25.6003" stroke="#375E70" stroke-width="2.4" stroke-linecap="round" stroke-linejoin="round"/>
</svg>
