<svg width="14" height="16" viewBox="0 0 14 16" fill="none" xmlns="http://www.w3.org/2000/svg">
<path fill-rule="evenodd" clip-rule="evenodd" d="M12 1.4H2C1.66863 1.4 1.4 1.66863 1.4 2V14C1.4 14.3314 1.66863 14.6 2 14.6H12C12.3314 14.6 12.6 14.3314 12.6 14V2C12.6 1.66863 12.3314 1.4 12 1.4ZM2 0C0.895431 0 0 0.895431 0 2V14C0 15.1046 0.89543 16 2 16H12C13.1046 16 14 15.1046 14 14V2C14 0.895431 13.1046 0 12 0H2Z" fill="#2D4A60"/>
<path d="M7 12C4.7908 12 3 10.2092 3 8C3 5.7908 4.7908 4 7 4C9.2092 4 11 5.7908 11 8C11 10.2092 9.2092 12 7 12ZM6.084 11.0668C5.68937 10.2297 5.46075 9.32409 5.4108 8.4H3.8248C3.90263 9.01556 4.15757 9.59527 4.55863 10.0687C4.95969 10.5421 5.48961 10.8888 6.084 11.0668V11.0668ZM6.212 8.4C6.2724 9.3756 6.5512 10.292 7 11.1008C7.46093 10.2706 7.73018 9.34779 7.788 8.4H6.212V8.4ZM10.1752 8.4H8.5892C8.53925 9.32409 8.31063 10.2297 7.916 11.0668C8.51039 10.8888 9.04031 10.5421 9.44137 10.0687C9.84243 9.59527 10.0974 9.01556 10.1752 8.4V8.4ZM3.8248 7.6H5.4108C5.46075 6.67591 5.68937 5.77027 6.084 4.9332C5.48961 5.11115 4.95969 5.4579 4.55863 5.93132C4.15757 6.40474 3.90263 6.98444 3.8248 7.6V7.6ZM6.2124 7.6H7.7876C7.7299 6.65224 7.46079 5.72941 7 4.8992C6.53907 5.72938 6.26982 6.65221 6.212 7.6H6.2124ZM7.916 4.9332C8.31063 5.77027 8.53925 6.67591 8.5892 7.6H10.1752C10.0974 6.98444 9.84243 6.40474 9.44137 5.93132C9.04031 5.4579 8.51039 5.11115 7.916 4.9332V4.9332Z" fill="#2D4A60"/>
</svg>
