<svg width="20" height="20" viewBox="0 0 20 20" fill="none" xmlns="http://www.w3.org/2000/svg">
<mask id="mask0_36_389" style="mask-type:alpha" maskUnits="userSpaceOnUse" x="0" y="0" width="20" height="20">
<rect width="20" height="20" fill="#D9D9D9"/>
</mask>
<g mask="url(#mask0_36_389)">
<path d="M9.99992 17.9167C8.91658 17.9167 7.89214 17.7083 6.92659 17.2917C5.96159 16.875 5.12131 16.3089 4.40575 15.5933C3.69075 14.8783 3.12492 14.0383 2.70825 13.0733C2.29159 12.1078 2.08325 11.0833 2.08325 9.99999C2.08325 8.90277 2.29159 7.87499 2.70825 6.91666C3.12492 5.95833 3.69075 5.12138 4.40575 4.40583C5.12131 3.69083 5.96159 3.12499 6.92659 2.70833C7.89214 2.29166 8.91658 2.08333 9.99992 2.08333C11.0971 2.08333 12.1249 2.29166 13.0833 2.70833C14.0416 3.12499 14.8783 3.69083 15.5933 4.40583C16.3088 5.12138 16.8749 5.95833 17.2916 6.91666C17.7083 7.87499 17.9166 8.90277 17.9166 9.99999C17.9166 11.0833 17.7083 12.1078 17.2916 13.0733C16.8749 14.0383 16.3088 14.8783 15.5933 15.5933C14.8783 16.3089 14.0416 16.875 13.0833 17.2917C12.1249 17.7083 11.0971 17.9167 9.99992 17.9167ZM9.99992 16.6458C10.4305 16.0903 10.7883 15.5244 11.0733 14.9483C11.3577 14.3717 11.5971 13.7431 11.7916 13.0625H8.20825C8.4027 13.7569 8.64242 14.3922 8.92742 14.9683C9.21186 15.545 9.56936 16.1042 9.99992 16.6458ZM8.39575 16.4167C8.07631 15.9583 7.78825 15.4375 7.53159 14.8542C7.27436 14.2708 7.07631 13.6736 6.93742 13.0625H4.10409C4.54853 13.9236 5.13881 14.6494 5.87492 15.24C6.61103 15.83 7.45131 16.2222 8.39575 16.4167ZM11.6041 16.4167C12.5485 16.2222 13.3888 15.83 14.1249 15.24C14.861 14.6494 15.4513 13.9236 15.8958 13.0625H13.0624C12.8958 13.6736 12.6874 14.2742 12.4374 14.8642C12.1874 15.4547 11.9096 15.9722 11.6041 16.4167ZM3.58325 11.8125H6.68742C6.63186 11.5069 6.5902 11.2047 6.56242 10.9058C6.53464 10.6075 6.52075 10.3056 6.52075 9.99999C6.52075 9.69444 6.53464 9.39222 6.56242 9.09333C6.5902 8.79499 6.63186 8.49305 6.68742 8.18749H3.58325C3.49992 8.46527 3.43742 8.75694 3.39575 9.06249C3.35409 9.36805 3.33325 9.68055 3.33325 9.99999C3.33325 10.3194 3.35409 10.6319 3.39575 10.9375C3.43742 11.2431 3.49992 11.5347 3.58325 11.8125ZM7.93742 11.8125H12.0624C12.118 11.5069 12.1596 11.2083 12.1874 10.9167C12.2152 10.625 12.2291 10.3194 12.2291 9.99999C12.2291 9.68055 12.2152 9.37499 12.1874 9.08333C12.1596 8.79166 12.118 8.49305 12.0624 8.18749H7.93742C7.88186 8.49305 7.8402 8.79166 7.81242 9.08333C7.78464 9.37499 7.77075 9.68055 7.77075 9.99999C7.77075 10.3194 7.78464 10.625 7.81242 10.9167C7.8402 11.2083 7.88186 11.5069 7.93742 11.8125ZM13.3124 11.8125H16.4166C16.4999 11.5347 16.5624 11.2431 16.6041 10.9375C16.6458 10.6319 16.6666 10.3194 16.6666 9.99999C16.6666 9.68055 16.6458 9.36805 16.6041 9.06249C16.5624 8.75694 16.4999 8.46527 16.4166 8.18749H13.3124C13.368 8.49305 13.4096 8.79499 13.4374 9.09333C13.4652 9.39222 13.4791 9.69444 13.4791 9.99999C13.4791 10.3056 13.4652 10.6075 13.4374 10.9058C13.4096 11.2047 13.368 11.5069 13.3124 11.8125ZM13.0624 6.93749H15.8958C15.4513 6.06249 14.8646 5.33666 14.1358 4.75999C13.4063 4.18388 12.5624 3.78472 11.6041 3.56249C11.9235 4.04861 12.2083 4.57972 12.4583 5.15583C12.7083 5.73249 12.9096 6.32638 13.0624 6.93749ZM8.20825 6.93749H11.7916C11.5971 6.24305 11.3508 5.60055 11.0524 5.00999C10.7535 4.41999 10.4027 3.86805 9.99992 3.35416C9.59714 3.86805 9.24658 4.41999 8.94825 5.00999C8.64936 5.60055 8.4027 6.24305 8.20825 6.93749ZM4.10409 6.93749H6.93742C7.0902 6.32638 7.29159 5.73249 7.54159 5.15583C7.79159 4.57972 8.07631 4.04861 8.39575 3.56249C7.42353 3.78472 6.57631 4.18388 5.85409 4.75999C5.13186 5.33666 4.54853 6.06249 4.10409 6.93749Z" fill="#4B5768"/>
</g>
</svg>
