<?xml version="1.0" encoding="UTF-8"?>
<svg width="60px" height="60px" viewBox="0 0 60 60" version="1.1" xmlns="http://www.w3.org/2000/svg" xmlns:xlink="http://www.w3.org/1999/xlink">
    <!-- Generator: Sketch 55.2 (78181) - https://sketchapp.com -->
    <title>Global Parameters ts</title>
    <desc>Created with Sketch.</desc>
    <g id="Global-Parameters-ts" stroke="none" stroke-width="1" fill="none" fill-rule="evenodd">
        <path d="M6,0 L54,0 C57.3137085,-6.08718376e-16 60,2.6862915 60,6 L60,54 C60,57.3137085 57.3137085,60 54,60 L6,60 C2.6862915,60 4.05812251e-16,57.3137085 0,54 L0,6 C-4.05812251e-16,2.6862915 2.6862915,6.08718376e-16 6,0 Z M34.1598,43.7965871 C36.4386,40.1017165 37.7634,35.9925016 38.1126,31.8058223 L44.274,31.8058223 C43.5594,37.5021562 39.5202,42.1734382 34.1598,43.7965871 Z M30.009,43.510149 C27.417,40.0026341 25.8942,35.9546701 25.491,31.8058223 L34.5108,31.8058223 C34.113,35.9528686 32.5956,40.0008327 30.009,43.510149 Z M15.7242,31.8058223 L21.8874,31.8058223 C22.2402,35.9943031 23.5722,40.107121 25.8582,43.8019916 C20.4888,42.1842472 16.4406,37.5093621 15.7242,31.8058223 Z M25.1184,16.4624713 C23.1168,20.1231135 22.0332,24.1422535 21.8406,28.202828 L15.7242,28.202828 C16.4064,22.7659097 20.1216,18.2729759 25.1184,16.4624713 Z M29.9406,15.5941497 C29.9568,15.5725318 29.973,15.5509138 29.9892,15.5292958 C30.0054,15.5509138 30.0198,15.5725318 30.036,15.5941497 C32.799,19.3574772 34.3074,23.7459242 34.5576,28.202828 L25.4406,28.202828 C25.6854,23.7477257 27.1866,19.3610802 29.9406,15.5941497 Z M44.274,28.202828 L38.1576,28.202828 C37.9596,24.1386505 36.8688,20.117709 34.8582,16.4534639 C39.8676,18.2603655 43.5918,22.7569023 44.274,28.202828 Z M31.539,12.0668184 C20.8956,11.1624668 12,19.5574434 12,30.0043252 C12,39.7900575 19.803,47.7166448 29.478,47.9922739 C39.6966,48.2877194 48,40.071091 48,30.0043252 C48,20.712203 40.9224,12.8684846 31.539,12.0668184 Z" id="Combined-Shape" fill="#000000"></path>
    </g>
</svg>