<svg width="37" height="37" viewBox="0 0 37 37" fill="none" xmlns="http://www.w3.org/2000/svg">
<path d="M12.3334 23.1251C12.3334 21.4222 10.953 20.0417 9.25008 20.0417C7.5472 20.0417 6.16675 21.4222 6.16675 23.1251V26.2084C6.16675 27.9113 7.5472 29.2917 9.25008 29.2917C10.953 29.2917 12.3334 27.9113 12.3334 26.2084V23.1251Z" stroke="#6C63FF" stroke-width="2" stroke-linecap="round" stroke-linejoin="round"/>
<path d="M30.8334 23.1251C30.8334 21.4222 29.453 20.0417 27.7501 20.0417C26.0472 20.0417 24.6667 21.4222 24.6667 23.1251V26.2084C24.6667 27.9113 26.0472 29.2917 27.7501 29.2917C29.453 29.2917 30.8334 27.9113 30.8334 26.2084V23.1251Z" stroke="#6C63FF" stroke-width="2" stroke-linecap="round" stroke-linejoin="round"/>
<path d="M6.16675 23.1251V18.5001C6.16675 15.2291 7.46615 12.092 9.7791 9.7791C12.092 7.46615 15.2291 6.16675 18.5001 6.16675C21.7711 6.16675 24.9081 7.46615 27.2211 9.7791C29.534 12.092 30.8334 15.2291 30.8334 18.5001V23.1251" stroke="#6C63FF" stroke-width="2" stroke-linecap="round" stroke-linejoin="round"/>
<path d="M27.75 29.2917C27.75 30.5184 26.7755 31.6948 25.0407 32.5621C23.306 33.4295 20.9533 33.9167 18.5 33.9167" stroke="#6C63FF" stroke-width="2" stroke-linecap="round" stroke-linejoin="round"/>
</svg>
