<?xml version="1.0" encoding="UTF-8"?>
<svg width="60px" height="60px" viewBox="0 0 60 60" version="1.1" xmlns="http://www.w3.org/2000/svg" xmlns:xlink="http://www.w3.org/1999/xlink">
    <!-- Generator: Sketch 55.2 (78181) - https://sketchapp.com -->
    <title>help</title>
    <desc>Created with Sketch.</desc>
    <g id="help" stroke="none" stroke-width="1" fill="none" fill-rule="evenodd">
        <g fill="#333333" fill-rule="nonzero" id="Shape">
            <path d="M30,60 C13.4314575,60 0,46.5685425 0,30 C0,13.4314575 13.4314575,0 30,0 C46.5685425,0 60,13.4314575 60,30 C60,46.5685425 46.5685425,60 30,60 Z M30,57 C44.9116882,57 57,44.9116882 57,30 C57,15.0883118 44.9116882,3 30,3 C15.0883118,3 3,15.0883118 3,30 C3,44.9116882 15.0883118,57 30,57 Z M25.77,19.77 C25.0090243,20.5309758 23.899878,20.8281706 22.8603658,20.5496342 C21.8208537,20.2710978 21.0089022,19.4591463 20.7303658,18.4196342 C20.4518294,17.380122 20.7490242,16.2709757 21.51,15.51 C26.1988975,10.8211025 33.8011025,10.8211025 38.49,15.51 C43.1788975,20.1988975 43.1788975,27.8011025 38.49,32.49 L32.13,38.85 C31.3690243,39.6109757 30.259878,39.9081706 29.2203659,39.6296341 C28.1808537,39.3510977 27.3689023,38.5391463 27.0903659,37.4996341 C26.8118294,36.460122 27.1090243,35.3509757 27.87,34.59 L34.23,28.23 C36.1263175,25.8422578 35.9302145,22.4119388 33.7741378,20.2558622 C31.6180612,18.0997855 28.1877422,17.9036825 25.8,19.8 L25.77,19.77 Z M30,48 C28.3431458,48 27,46.6568542 27,45 C27,43.3431458 28.3431458,42 30,42 C31.6568542,42 33,43.3431458 33,45 C33,46.6568542 31.6568542,48 30,48 Z"></path>
        </g>
    </g>
</svg>