<?xml version="1.0" encoding="UTF-8"?>
<svg width="90px" height="90px" viewBox="0 0 90 90" version="1.1" xmlns="http://www.w3.org/2000/svg" xmlns:xlink="http://www.w3.org/1999/xlink">
    <!-- Generator: Sketch 59.1 (86144) - https://sketch.com -->
    <title>Group 2</title>
    <desc>Created with Sketch.</desc>
    <g id="Page-1" stroke="none" stroke-width="1" fill="none" fill-rule="evenodd">
        <g id="12.9″-iPad-Pro" transform="translate(-1000.000000, -488.000000)" fill="#F0F1F4">
            <g id="Group-2" transform="translate(1000.000000, 488.000000)">
                <path d="M45,0 C69.8528137,0 90,20.1471863 90,45 C90,69.8528137 69.8528137,90 45,90 C20.1471863,90 0,69.8528137 0,45 C0,20.1471863 20.1471863,0 45,0 Z M45,9 C25.117749,9 9,25.117749 9,45 C9,64.882251 25.117749,81 45,81 C64.882251,81 81,64.882251 81,45 C81,25.117749 64.882251,9 45,9 Z M42,66 C44.484,66 46.5,68.016 46.5,70.5 C46.5,72.984 44.484,75 42,75 C39.516,75 37.5,72.984 37.5,70.5 C37.5,68.016 39.516,66 42,66 Z M57.879713,25.5 C61.5357577,25.5 64.5,28.482554 64.5,32.1611842 L64.5,43.1221805 C64.5,47.9682801 60.559353,51.9332707 55.7430066,51.9332707 L49.214668,51.9332707 C47.9843104,51.9332707 46.9860131,52.937735 46.9860131,54.1756931 L46.9860131,58.5944549 C46.9860131,61.0263158 45.0288251,63 42.6075164,63 C40.1905862,63 38.2290197,61.0263158 38.2290197,58.5944549 L38.2290197,50.9552397 C38.2290197,46.6289944 41.7143031,43.1221805 46.0139869,43.1221805 L50.3924836,43.1221805 C52.8094138,43.1221805 54.7709803,41.1484962 54.7709803,38.7166353 C54.7709803,36.2847744 52.8094138,34.3110902 50.3924836,34.3110902 L32.8784967,34.3110902 C30.4615665,34.3110902 28.5,32.337406 28.5,29.9055451 C28.5,27.4736842 30.4615665,25.5 32.8784967,25.5 L57.879713,25.5 Z" id="Combined-Shape"></path>
            </g>
        </g>
    </g>
</svg>