<svg width="24" height="24" viewBox="0 0 24 24" fill="none" xmlns="http://www.w3.org/2000/svg">
<mask id="mask0_2_2686" style="mask-type:alpha" maskUnits="userSpaceOnUse" x="0" y="0" width="24" height="24">
<rect width="24" height="24" fill="#D9D9D9"/>
</mask>
<g mask="url(#mask0_2_2686)">
<path d="M12 17.625C12.2833 17.625 12.521 17.525 12.713 17.325C12.9043 17.125 13 16.8833 13 16.6C13 16.3167 12.9043 16.075 12.713 15.875C12.521 15.675 12.2833 15.575 12 15.575C11.7 15.575 11.4543 15.675 11.263 15.875C11.071 16.075 10.975 16.3167 10.975 16.6C10.975 16.8833 11.071 17.125 11.263 17.325C11.4543 17.525 11.7 17.625 12 17.625ZM12.075 7.725C12.5917 7.725 13.004 7.86233 13.312 8.137C13.6207 8.41233 13.775 8.78333 13.775 9.25C13.775 9.55 13.6873 9.84567 13.512 10.137C13.3373 10.429 13.075 10.7333 12.725 11.05C12.2417 11.4667 11.8917 11.8623 11.675 12.237C11.4583 12.6123 11.3417 13 11.325 13.4C11.3083 13.5667 11.3667 13.7123 11.5 13.837C11.6333 13.9623 11.7917 14.025 11.975 14.025C12.1583 14.025 12.321 13.9623 12.463 13.837C12.6043 13.7123 12.6917 13.5583 12.725 13.375C12.775 13.0917 12.8833 12.829 13.05 12.587C13.2167 12.3457 13.4833 12.0417 13.85 11.675C14.3667 11.1917 14.725 10.7583 14.925 10.375C15.125 9.99167 15.225 9.575 15.225 9.125C15.225 8.325 14.9333 7.67067 14.35 7.162C13.7667 6.654 13.0167 6.4 12.1 6.4C11.4833 6.4 10.9167 6.529 10.4 6.787C9.88333 7.04567 9.475 7.43333 9.175 7.95C9.09167 8.11667 9.06267 8.27933 9.088 8.438C9.11267 8.596 9.20833 8.725 9.375 8.825C9.525 8.925 9.70433 8.95833 9.913 8.925C10.121 8.89167 10.2917 8.78333 10.425 8.6C10.625 8.33333 10.8543 8.12067 11.113 7.962C11.371 7.804 11.6917 7.725 12.075 7.725ZM12 21.5C10.6833 21.5 9.45 21.25 8.3 20.75C7.15 20.25 6.14567 19.575 5.287 18.725C4.429 17.875 3.75 16.8707 3.25 15.712C2.75 14.554 2.5 13.3167 2.5 12C2.5 10.6833 2.75 9.44567 3.25 8.287C3.75 7.129 4.429 6.125 5.287 5.275C6.14567 4.425 7.15 3.75 8.3 3.25C9.45 2.75 10.6833 2.5 12 2.5C13.3333 2.5 14.575 2.75 15.725 3.25C16.875 3.75 17.8793 4.425 18.738 5.275C19.596 6.125 20.271 7.129 20.763 8.287C21.2543 9.44567 21.5 10.6833 21.5 12C21.5 13.3167 21.2543 14.554 20.763 15.712C20.271 16.8707 19.596 17.875 18.738 18.725C17.8793 19.575 16.875 20.25 15.725 20.75C14.575 21.25 13.3333 21.5 12 21.5ZM12 20C14.2333 20 16.125 19.221 17.675 17.663C19.225 16.1043 20 14.2167 20 12C20 9.78333 19.225 7.89567 17.675 6.337C16.125 4.779 14.2333 4 12 4C9.8 4 7.91667 4.779 6.35 6.337C4.78333 7.89567 4 9.78333 4 12C4 14.2167 4.78333 16.1043 6.35 17.663C7.91667 19.221 9.8 20 12 20Z" fill="#DAF2E8"/>
</g>
</svg>
