<svg width="490" height="490" xmlns="http://www.w3.org/2000/svg" preserveAspectRatio="xMidYMid meet">

 <g>
  <title>background</title>
  <rect fill="none" id="canvas_background" height="492" width="492" y="-1" x="-1"/>
 </g>
 <g>
  <title>Layer 1</title>
  <path fill="#000" id="svg_2" d="m232.759429,12.804767c-72.08207,4.997146 -135.964524,40.499261 -177.260767,98.451243c-20.349953,28.714946 -34.140215,61.904948 -39.954487,96.512051c-10.063164,59.816588 2.832594,120.155274 36.301932,170.425075c16.101062,24.090721 40.103571,48.106857 64.404248,64.366229c30.114949,20.212338 63.286119,32.667912 101.004348,37.963396c12.9703,1.790023 46.439637,1.790023 59.484479,-0.074584c51.806658,-7.309259 96.755456,-28.864114 132.83377,-63.694971c9.988622,-9.695956 20.086701,-21.480271 19.604534,-22.524451c-0.482167,-1.04418 -0.074542,-0.671258 0.37271,-0.596674c0.447252,0.074584 9.615912,-10.665551 17.219191,-23.046541c17.964611,-29.386204 28.922278,-60.264094 33.096628,-93.528688c1.490839,-11.933484 2.161717,-35.651283 1.267213,-44.675981c-2.012633,-19.391911 -10.063164,-49.225621 -18.859114,-70.034634c-3.950724,-9.099282 -14.237513,-29.460789 -16.02652,-31.474564c-0.596336,-0.596674 -1.043587,-1.417101 -1.043587,-1.715438c0,-1.118764 -13.566636,-20.510676 -19.82816,-28.416609c-3.652556,-4.549641 -11.777629,-13.425169 -18.188237,-19.764833c-16.324695,-16.40854 -31.233086,-28.118272 -49.495865,-38.932991c-5.367021,-3.13254 -11.404919,-6.787169 -13.492094,-8.055102c-12.299422,-7.458427 -43.457959,-16.483125 -68.578598,-19.764833c-8.646867,-1.193348 -34.512925,-2.013775 -42.861624,-1.417101zm32.79846,16.781462c16.846482,1.417101 38.16548,6.041326 53.222955,11.411394c4.025266,1.417101 7.528737,2.759618 7.752363,2.983371c0.149084,0.223753 0,0.820427 -0.37271,1.342517c-0.447252,0.52209 -2.68351,4.624225 -5.068853,9.173866c-7.454195,14.171012 -16.921024,32.071238 -17.144649,32.294991c-0.074542,0.149169 -3.578014,-0.820427 -7.752363,-2.013775c-54.042917,-16.110203 -111.962015,-4.847978 -155.494516,30.132047c-28.62411,22.971957 -49.272232,55.043195 -58.217266,90.321557c-3.727098,14.916855 -4.994311,25.358653 -4.994311,42.065531c-0.074542,20.510676 2.236259,34.830856 8.497783,53.999015c13.939345,42.43846 45.619676,78.686417 86.021415,98.525834c24.151593,11.8589 47.110515,17.079799 74.914664,17.079799c21.542625,0 35.780138,-2.312113 55.533756,-9.024697c42.041662,-14.245596 77.896342,-46.316835 97.64996,-87.114433c9.466836,-19.615672 14.461147,-39.156752 16.250153,-63.993315l0.894503,-12.008068l21.989876,-3.505461c12.075797,-1.939191 22.88438,-3.729214 24.077051,-3.952967l2.012633,-0.447506l0,9.919709c0,25.209485 -4.547059,51.090228 -13.119384,74.957204c-3.876182,10.81472 -14.386597,32.220407 -17.815527,37.739643c-5.516105,9.695956 -7.603279,12.008068 -9.764996,15.140608c-2.236259,3.057955 -4.547059,6.115911 -5.143395,6.712585c-0.596336,0.596674 -5.814272,7.68218 -15.951978,17.97481c-10.137706,10.29263 -14.535688,13.947259 -19.082748,17.601889c-38.314564,30.654137 -82.592485,47.211846 -130.44842,48.703531c-50.986697,1.56627 -98.693547,-13.723507 -139.393454,-44.675981c-41.59441,-31.549148 -71.262108,-78.760994 -81.62344,-129.478308c-16.846482,-83.236051 15.281101,-167.740034 83.188821,-218.755678c33.991131,-25.582406 72.678405,-39.977171 116.210906,-43.408048c6.336066,-0.52209 25.716974,-0.298337 33.17117,0.298337zm82.890653,25.955328c51.433948,30.430384 91.388443,82.191871 108.234925,140.069268c2.758052,9.546787 6.11244,24.687395 5.590647,25.060316c-0.149084,0.149169 -10.212248,1.864607 -22.288044,3.803798c-12.075797,1.939191 -22.735296,3.729214 -23.629799,3.952967c-1.341755,0.298337 -1.714465,0 -2.087175,-1.790023c-6.48515,-28.78953 -21.617174,-60.114925 -40.476288,-83.683556c-12.22488,-15.215192 -29.294988,-30.728721 -46.365095,-42.214699c-4.696143,-3.13254 -8.646867,-5.817573 -8.795951,-5.966742c-0.074542,-0.074584 1.938091,-4.176719 4.547059,-9.024697c2.608968,-4.922562 7.677821,-14.469349 11.330377,-21.405687c3.578014,-6.861753 6.783318,-12.455574 7.156028,-12.455574c0.37271,0 3.42893,1.640854 6.783318,3.654629zm-89.823055,38.858407c16.622856,1.267933 33.767505,5.444652 44.054295,10.665551c3.354388,1.715438 6.11244,3.356292 6.11244,3.654629c0,0.298337 -5.665189,11.187641 -12.59759,24.239889c-13.566636,25.65699 -23.331632,44.079306 -33.842047,63.993308c-9.16866,17.45272 -13.193926,25.060316 -19.977244,37.814227c-4.845227,8.950113 -5.888814,11.560563 -5.888814,14.245596c0,3.729214 2.385343,6.787169 5.814272,7.607596c1.118129,0.223753 12.448506,-1.267933 25.120639,-3.356292c84.30695,-13.648922 129.404832,-20.883597 130.299336,-20.883597c2.981678,0 3.428937,20.212338 0.819961,37.590474c-9.839538,66.305428 -62.615241,119.111094 -128.883039,129.105387c-23.331632,3.505461 -48.750438,1.342517 -70.740314,-5.966742c-9.019576,-3.246191 -12.672132,-4.773394 -17.591901,-7.16009c-41.59441,-20.137754 -71.33665,-56.236543 -82.741569,-100.166688c-3.652556,-13.947259 -4.696143,-22.599035 -4.770685,-37.739643c0,-14.916855 1.192671,-25.134901 4.472517,-38.187149c13.268468,-52.656498 55.011962,-95.542456 107.116788,-110.160974c17.964611,-4.997146 34.736551,-6.712585 53.222955,-5.295484zm88.257674,44.004722c20.573579,20.436091 34.438383,41.767194 44.277921,68.39378c3.205304,8.72636 3.205304,8.800944 1.639923,9.323034c-1.714465,0.596674 -130.597503,21.480271 -132.311968,21.480271c-0.969045,0 1.863549,-5.668405 15.132017,-30.579553c2.981678,-5.519236 7.23057,-13.574338 9.466828,-17.900226c2.310801,-4.325888 11.479461,-21.62944 20.349953,-38.410901c8.945034,-16.856046 16.473772,-31.176227 16.921024,-31.92207c0.596336,-1.193348 1.341755,-0.820427 6.783318,3.356292c3.354388,2.535865 11.330377,9.845124 17.740985,16.259372z"/>
  <path stroke="#000" style="vector-effect: non-scaling-stroke;" fill="none" id="svg_4"/>
 </g>
</svg>