<svg width="20" height="20" viewBox="0 0 20 20" fill="none" xmlns="http://www.w3.org/2000/svg">
<path fill-rule="evenodd" clip-rule="evenodd" d="M17 0C18.5977 0 19.9037 1.24892 19.9949 2.82373L20 3V17C20 18.5977 18.7511 19.9037 17.1763 19.9949L17 20H3C1.40232 20 0.0963391 18.7511 0.00509269 17.1763L0 17V3C0 1.40232 1.24892 0.0963391 2.82373 0.00509269L3 0H17ZM9.00041 2.00041H3.00041C2.48758 2.00041 2.0649 2.49675 2.00714 3.13618L2.00041 3.28613V9.00041H3.00041C3.5527 9.00041 4.00041 9.44813 4.00041 10.0004C4.00041 10.5527 3.5527 11.0004 3.00041 11.0004H2.00041V17.0004C2.00041 17.5132 2.49675 17.9359 3.13618 17.9937L3.28613 18.0004H9.00041V17.0004C9.00041 16.4481 9.44813 16.0004 10.0004 16.0004C10.5527 16.0004 11.0004 16.4481 11.0004 17.0004V18.0004H17.0004C17.5132 18.0004 17.9359 17.6144 17.9937 17.117L18.0004 17.0004V11.0004H17.0004C16.4481 11.0004 16.0004 10.5527 16.0004 10.0004C16.0004 9.44813 16.4481 9.00041 17.0004 9.00041H18.0004V3.28613C18.0004 2.62677 17.5041 2.08333 16.8646 2.00906L16.7147 2.00041H11.0004V3.00041C11.0004 3.5527 10.5527 4.00041 10.0004 4.00041C9.44813 4.00041 9.00041 3.5527 9.00041 3.00041V2.00041ZM10.0004 7.00041C10.5132 7.00041 10.9359 7.38645 10.9937 7.88379L11.0004 8.00041V9.00041H12.0004C12.5527 9.00041 13.0004 9.44813 13.0004 10.0004C13.0004 10.5132 12.6144 10.9359 12.117 10.9937L12.0004 11.0004H11.0004V12.0004C11.0004 12.5527 10.5527 13.0004 10.0004 13.0004C9.48758 13.0004 9.0649 12.6144 9.00714 12.117L9.00041 12.0004V11.0004H8.00041C7.44813 11.0004 7.00041 10.5527 7.00041 10.0004C7.00041 9.48758 7.38645 9.0649 7.88379 9.00714L8.00041 9.00041H9.00041V8.00041C9.00041 7.44813 9.44813 7.00041 10.0004 7.00041Z" fill="#333333"/>
</svg>
