<?xml version="1.0" encoding="utf-8"?>
<!-- Generator: Adobe Illustrator 24.3.0, SVG Export Plug-In . SVG Version: 6.00 Build 0)  -->
<svg version="1.1" id="Layer_1" xmlns="http://www.w3.org/2000/svg" xmlns:xlink="http://www.w3.org/1999/xlink" x="0px" y="0px"
	 viewBox="0 0 24 24" style="enable-background:new 0 0 24 24;" xml:space="preserve">
<path d="M20.1,7.7l-6.5-5.3c-0.9-0.8-2.3-0.8-3.2,0l0,0L3.9,7.7C3,8.5,2.4,9.6,2.4,10.8v8.3c0,1.6,1.3,3,3,3h2.1c1.7,0,3-1.4,3-3
	v-3.6c0-0.6,0.4-1,1-1h0.9c0.6,0,1,0.4,1,1v3.6c0,1.6,1.4,3,3,3h2.1c1.6,0,3-1.4,3-3v-8.3C21.6,9.6,21,8.5,20.1,7.7z M17.9,19.5
	h-1.4c-0.6,0-1.1-0.5-1.1-1.1v-3.9c0-1.1-0.9-2-2-2h-2.8c-1.1,0-2,0.9-2,2v3.9c0,0.6-0.5,1.1-1.1,1.1H6.1C5.5,19.5,5,19,5,18.3v-7.5
	c0-0.6,0.3-1.2,0.7-1.6l5.5-4.5c0.4-0.3,1-0.3,1.5,0l5.5,4.5c0.5,0.4,0.7,1,0.7,1.6l0,7.5C19,19,18.5,19.5,17.9,19.5z"/>
</svg>
