<svg width="16" height="16" viewBox="0 0 16 16" fill="none" xmlns="http://www.w3.org/2000/svg">
<path d="M2.83231 0.353516L2.04031 1.14439L3.21875 2.32227L4.00962 1.53139L2.83175 0.353516H2.83231ZM13.1683 0.353516L11.9898 1.53139L12.7812 2.32227L13.9591 1.14495L13.1677 0.353516H13.1683ZM8 0.704516C7.81437 0.706766 7.6265 0.717453 7.4375 0.740516C7.43188 0.740516 7.42625 0.739391 7.42063 0.740516C5.13912 1.00208 3.32337 2.84539 3.00781 5.11677C2.75581 6.94489 3.50956 8.60258 4.76562 9.6702C5.27942 10.1087 5.62694 10.7104 5.75 11.3746V14.7496H7.0325C7.22825 15.0854 7.58544 15.3121 8 15.3121C8.41456 15.3121 8.77175 15.0854 8.9675 14.7496H10.25V12.4996H10.3029V11.8313C10.3029 11.0067 10.7315 10.1753 11.4279 9.52902C12.3594 8.59639 13.0625 7.2717 13.0625 5.75014C13.0625 2.97139 10.7754 0.678641 8 0.704516ZM8 1.82952C10.1741 1.79914 11.9375 3.57889 11.9375 5.75014C11.9375 6.92802 11.3919 7.96527 10.6364 8.72014L10.6544 8.73814C9.90371 9.43041 9.41827 10.3631 9.28194 11.3751H6.82156C6.69781 10.411 6.28438 9.47783 5.50306 8.80845C4.50912 7.9647 3.91681 6.69345 4.11481 5.25795C4.36063 3.48608 5.79838 2.06127 7.56013 1.86608C7.70558 1.8458 7.85206 1.83378 7.99888 1.83008L8 1.82952ZM0.125 5.75014V6.87514H1.8125V5.75014H0.125ZM14.1875 5.75014V6.87514H15.875V5.75014H14.1875ZM3.21875 10.303L2.04088 11.4803L2.83231 12.2718L4.00906 11.0939L3.21875 10.303ZM12.7812 10.303L11.9904 11.0939L13.1677 12.2718L13.9591 11.4803L12.7812 10.303ZM6.875 12.5001H9.125V13.6251H6.875V12.5001Z" fill="#333333"/>
</svg>
