<svg width="24" height="24" viewBox="0 0 24 24" fill="none" xmlns="http://www.w3.org/2000/svg">
<path d="M5.10975 1.80469L4.05375 2.85919L5.625 4.42969L6.6795 3.37519L5.109 1.80469H5.10975ZM18.891 1.80469L17.3197 3.37519L18.375 4.42969L19.9455 2.85994L18.8903 1.80469H18.891ZM12 2.27269C11.7525 2.27569 11.502 2.28994 11.25 2.32069C11.2425 2.32069 11.235 2.31919 11.2275 2.32069C8.1855 2.66944 5.7645 5.12719 5.34375 8.15569C5.00775 10.5932 6.01275 12.8034 7.6875 14.2269C8.37256 14.8116 8.83592 15.6139 9 16.4994V20.9994H10.71C10.971 21.4472 11.4473 21.7494 12 21.7494C12.5527 21.7494 13.029 21.4472 13.29 20.9994H15V17.9994H15.0705V17.1084C15.0705 16.0089 15.642 14.9004 16.5705 14.0387C17.8125 12.7952 18.75 11.0289 18.75 9.00019C18.75 5.29519 15.7005 2.23819 12 2.27269ZM12 3.77269C14.8988 3.73219 17.25 6.10519 17.25 9.00019C17.25 10.5707 16.5225 11.9537 15.5153 12.9602L15.5392 12.9842C14.5383 13.9072 13.891 15.1508 13.7092 16.5002H10.4288C10.2638 15.2147 9.7125 13.9704 8.67075 13.0779C7.3455 11.9529 6.55575 10.2579 6.81975 8.34394C7.1475 5.98144 9.0645 4.08169 11.4135 3.82144C11.6074 3.7944 11.8027 3.77837 11.9985 3.77344L12 3.77269ZM1.5 9.00019V10.5002H3.75V9.00019H1.5ZM20.25 9.00019V10.5002H22.5V9.00019H20.25ZM5.625 15.0707L4.0545 16.6404L5.10975 17.6957L6.67875 16.1252L5.625 15.0707ZM18.375 15.0707L17.3205 16.1252L18.8903 17.6957L19.9455 16.6404L18.375 15.0707ZM10.5 18.0002H13.5V19.5002H10.5V18.0002Z" fill="#F2994A"/>
<path d="M10 10L12.5 5.5V8.5H14.5L11.5 14L12 10H10Z" fill="#F2994A"/>
</svg>
