<svg width="22" height="22" viewBox="0 0 22 22" fill="none" xmlns="http://www.w3.org/2000/svg">
<path d="M18.3176 7.89782C18.6678 7.10505 19.0072 5.94919 19.0072 5.06618C19.0072 2.72223 16.4398 1.89508 12.2504 3.82223C8.78281 3.5902 5.44414 6.19626 4.61055 9.83141C5.60527 8.70778 7.13281 7.18024 8.54219 6.57223C6.79121 8.1277 5.3002 10.0978 4.16797 12.1517C3.4998 13.3742 2.75 15.3486 2.75 16.8246C2.75 20.0021 5.74277 19.6133 8.55937 18.1781C9.57129 18.6744 10.7035 18.6808 11.8357 18.6808C14.966 18.6808 17.774 16.932 18.8225 13.9758H14.9295C13.2365 16.831 8.5873 15.6838 8.5873 12.4461H19.1834C19.3896 11.041 19.1297 9.36091 18.3176 7.89782ZM4.82969 13.9285C5.40117 15.5763 6.56133 17.0179 8.06094 17.9031C5.20137 19.48 2.47715 18.8398 4.82969 13.9285ZM8.56797 10.4201C8.63242 8.64333 10.1879 7.36286 11.9195 7.36286C13.6404 7.36286 15.2066 8.64333 15.2711 10.4201H8.56797ZM14.5148 4.37438C15.2045 4.04352 16.0789 3.6654 16.8523 3.6654C17.8643 3.6654 18.6012 4.36579 18.6012 5.39704C18.6012 6.04157 18.3627 6.97614 18.1307 7.58415C17.2863 6.21989 16.0059 4.95446 14.5148 4.37438Z" fill="#6A737D"/>
</svg>
