<?xml version="1.0" standalone="no"?>
<!DOCTYPE svg PUBLIC "-//W3C//DTD SVG 20010904//EN"
 "http://www.w3.org/TR/2001/REC-SVG-20010904/DTD/svg10.dtd">
<svg version="1.0" xmlns="http://www.w3.org/2000/svg"
 width="512.000000pt" height="512.000000pt" viewBox="0 0 512.000000 512.000000"
 preserveAspectRatio="xMidYMid meet">

<g transform="translate(0.000000,512.000000) scale(0.100000,-0.100000)"
fill="#000000" stroke="none">
<path d="M142 4574 c-53 -26 -83 -58 -118 -124 -18 -34 -19 -100 -22 -1845 -2
-995 0 -1833 3 -1861 9 -73 58 -151 119 -189 l49 -30 612 -3 c588 -2 613 -2
636 16 34 28 32 87 -5 118 l-27 24 -583 0 -583 0 -27 25 -26 24 0 1831 0 1831
26 24 27 25 1277 0 c1259 0 1278 0 1303 20 13 11 28 31 31 45 7 29 -15 79 -39
89 -9 3 -598 6 -1309 6 l-1292 0 -52 -26z"/>
<path d="M3047 4588 c-43 -33 -40 -100 5 -132 34 -24 66 -19 100 14 25 26 29
36 24 63 -3 18 -16 40 -27 50 -25 20 -78 22 -102 5z"/>
<path d="M3380 4580 c-31 -31 -27 -93 6 -119 26 -21 33 -21 769 -21 l742 0 27
-25 26 -24 0 -1831 0 -1831 -26 -24 -27 -25 -1607 0 -1607 0 -27 -21 c-33 -26
-37 -88 -6 -119 20 -20 29 -20 1658 -18 l1639 3 49 30 c55 34 107 111 118 172
3 21 6 846 6 1833 0 987 -3 1812 -6 1833 -11 61 -63 138 -118 172 l-49 30
-774 3 c-763 2 -773 2 -793 -18z"/>
<path d="M546 3899 l-26 -20 0 -1319 0 -1319 26 -20 27 -21 1352 0 1352 0 21
23 c32 34 30 89 -4 116 -27 21 -27 21 -1320 21 l-1294 0 0 1200 0 1200 1340 0
1341 0 24 25 c16 15 25 36 25 55 0 19 -9 40 -25 55 l-24 25 -1394 0 -1394 0
-27 -21z"/>
<path d="M3612 3897 l-22 -23 0 -1315 0 -1316 23 -21 c23 -22 25 -22 479 -22
445 0 456 0 482 21 20 16 26 29 26 59 0 30 -6 43 -26 59 -26 20 -37 21 -425
21 l-399 0 0 1200 0 1200 345 0 345 0 0 -1076 c0 -798 3 -1081 12 -1097 26
-50 77 -61 122 -26 l26 20 0 1149 0 1149 -26 20 c-26 21 -37 21 -484 21 l-457
0 -21 -23z"/>
<path d="M3963 3478 c-58 -57 -109 -113 -114 -125 -11 -28 7 -80 31 -93 46
-25 80 -12 149 54 l66 65 67 -65 c55 -53 72 -64 100 -64 18 0 43 7 55 15 27
19 38 67 23 97 -17 32 -169 186 -202 204 -51 26 -66 19 -175 -88z"/>
<path d="M3877 1858 c-24 -19 -38 -64 -28 -90 5 -13 56 -69 114 -125 106 -105
125 -115 170 -92 32 16 186 169 203 202 31 58 -7 117 -74 117 -28 0 -45 -11
-101 -64 l-66 -65 -67 65 c-55 53 -71 64 -100 64 -19 0 -42 -6 -51 -12z"/>
</g>
</svg>
