<svg width="20" height="18" viewBox="0 0 20 18" fill="none" xmlns="http://www.w3.org/2000/svg">
<path fill-rule="evenodd" clip-rule="evenodd" d="M4.20091 4.04046C2.09285 4.33743 0.443074 5.96715 0.0543524 8.13659C-0.0238894 8.57324 -0.0164271 9.50487 0.0687966 9.93937C0.445335 11.8592 1.79693 13.3504 3.60359 13.8391C5.11602 14.2482 6.76042 13.8653 7.94669 12.8278C8.07106 12.7191 8.38897 12.4062 8.65315 12.1325L9.13351 11.6349L8.28569 10.7614L7.43789 9.88779L6.91496 10.4209C6.2397 11.1094 5.99675 11.2782 5.45327 11.4365C5.27784 11.4876 5.15553 11.501 4.8515 11.5023C4.40429 11.5043 4.17313 11.4555 3.81005 11.2824C3.26371 11.0219 2.87391 10.6191 2.61869 10.0513C2.44794 9.67135 2.40706 9.46679 2.40802 8.99667C2.40901 8.50126 2.45266 8.30009 2.64829 7.88877C2.96725 7.2182 3.54372 6.7372 4.24377 6.55742C4.59235 6.46792 5.10595 6.46836 5.43096 6.55844C5.67581 6.62629 6.03573 6.79481 6.23283 6.93382C6.30073 6.98172 7.59816 8.29942 9.11602 9.86202C10.6339 11.4246 11.9457 12.7631 12.0312 12.8365C13.5097 14.1049 15.5973 14.3562 17.3177 13.4729C17.9373 13.1547 18.6419 12.5476 19.0373 11.9911C19.5476 11.2728 19.8606 10.4515 19.9609 9.56714C20.013 9.10748 20.013 8.88608 19.961 8.42796C19.7424 6.50124 18.4674 4.87371 16.6952 4.25918C15.4716 3.83485 14.1261 3.93462 12.9636 4.53592C12.4446 4.80435 12.1512 5.03841 11.4871 5.71356C11.1489 6.05733 10.8723 6.3529 10.8723 6.37039C10.8723 6.38792 11.2472 6.78877 11.7054 7.2612L12.5386 8.12014L13.0693 7.57923C13.3612 7.2817 13.6809 6.98216 13.7799 6.91356C14.2919 6.55839 14.9448 6.40993 15.5308 6.51544C16.0348 6.60614 16.4473 6.81682 16.8125 7.17C17.6202 7.95116 17.818 9.14708 17.3077 10.1629C16.6378 11.4961 14.9832 11.9236 13.7627 11.0787C13.6888 11.0275 12.3563 9.67782 10.8016 8.07938C9.1399 6.37086 7.89326 5.11188 7.77672 5.02453C7.038 4.47079 6.37442 4.18579 5.51576 4.05346C5.09428 3.9885 4.60414 3.98363 4.20091 4.04046Z" fill="#6A737D"/>
</svg>
