<?xml version="1.0" encoding="UTF-8"?>
<svg width="60px" height="60px" viewBox="0 0 60 60" version="1.1" xmlns="http://www.w3.org/2000/svg" xmlns:xlink="http://www.w3.org/1999/xlink">
    <!-- Generator: Sketch 55.2 (78181) - https://sketchapp.com -->
    <title>info ts</title>
    <desc>Created with Sketch.</desc>
    <g id="info-ts" stroke="none" stroke-width="1" fill="none" fill-rule="evenodd">
        <path d="M30,60 C13.4314575,60 0,46.5685425 0,30 C0,13.4314575 13.4314575,0 30,0 C46.5685425,0 60,13.4314575 60,30 C60,46.5685425 46.5685425,60 30,60 Z M30,54 C43.254834,54 54,43.254834 54,30 C54,16.745166 43.254834,6 30,6 C16.745166,6 6,16.745166 6,30 C6,43.254834 16.745166,54 30,54 Z M30,22 C28.3431458,22 27,20.6568542 27,19 C27,17.3431458 28.3431458,16 30,16 C31.6568542,16 33,17.3431458 33,19 C33,20.6568542 31.6568542,22 30,22 Z M30,25 C31.6568542,25 33,26.3431458 33,28 L33,42 C33,43.6568542 31.6568542,45 30,45 C28.3431458,45 27,43.6568542 27,42 L27,28 C27,26.3431458 28.3431458,25 30,25 Z" id="Combined-Shape" fill="#000000"></path>
    </g>
</svg>