<svg width="18" height="18" viewBox="0 0 18 18" fill="none" xmlns="http://www.w3.org/2000/svg">
<path d="M16.3176 5.8977C16.6678 5.10492 17.0072 3.94906 17.0072 3.06606C17.0072 0.72211 14.4398 -0.105039 10.2504 1.82211C6.78281 1.59008 3.44414 4.19613 2.61055 7.83129C3.60527 6.70766 5.13281 5.18012 6.54219 4.57211C4.79121 6.12758 3.3002 8.0977 2.16797 10.1516C1.4998 11.3741 0.75 13.3485 0.75 14.8245C0.75 18.002 3.74277 17.6131 6.55937 16.178C7.57129 16.6743 8.70352 16.6807 9.83574 16.6807C12.966 16.6807 15.774 14.9319 16.8225 11.9756H12.9295C11.2365 14.8309 6.5873 13.6836 6.5873 10.4459H17.1834C17.3896 9.04086 17.1297 7.36078 16.3176 5.8977ZM2.82969 11.9284C3.40117 13.5762 4.56133 15.0178 6.06094 15.903C3.20137 17.4799 0.477149 16.8397 2.82969 11.9284ZM6.56797 8.41996C6.63242 6.64321 8.18789 5.36274 9.91953 5.36274C11.6404 5.36274 13.2066 6.64321 13.2711 8.41996H6.56797ZM12.5148 2.37426C13.2045 2.0434 14.0789 1.66527 14.8523 1.66527C15.8643 1.66527 16.6012 2.36567 16.6012 3.39692C16.6012 4.04145 16.3627 4.97602 16.1307 5.58403C15.2863 4.21977 14.0059 2.95434 12.5148 2.37426Z" fill="#6A737D"/>
</svg>
