<?xml version="1.0" standalone="no"?>
<!DOCTYPE svg PUBLIC "-//W3C//DTD SVG 20010904//EN"
 "http://www.w3.org/TR/2001/REC-SVG-20010904/DTD/svg10.dtd">
<svg version="1.0" xmlns="http://www.w3.org/2000/svg"
 width="512.000000pt" height="512.000000pt" viewBox="0 0 512.000000 512.000000"
 preserveAspectRatio="xMidYMid meet">

<g transform="translate(0.000000,512.000000) scale(0.100000,-0.100000)"
fill="#000000" stroke="none">
<path d="M3284 4940 c-79 -39 -110 -150 -61 -220 43 -64 64 -73 206 -82 121
-9 131 -8 170 12 104 52 117 196 26 266 -61 46 -267 60 -341 24z"/>
<path d="M2708 4821 c-147 -65 -178 -98 -178 -189 0 -80 59 -148 137 -159 34
-4 59 3 158 48 139 64 166 91 172 172 7 96 -60 167 -157 167 -30 0 -73 -13
-132 -39z"/>
<path d="M3977 4786 c-48 -17 -71 -38 -91 -81 -34 -71 -10 -159 53 -199 182
-115 184 -116 233 -116 152 0 222 171 110 272 -52 47 -190 125 -232 132 -20 3
-52 0 -73 -8z"/>
<path d="M2223 4459 c-34 -10 -109 -88 -170 -177 -48 -69 -56 -140 -21 -192
72 -107 196 -108 274 -3 16 21 48 62 71 91 72 91 76 172 12 238 -47 48 -100
62 -166 43z"/>
<path d="M4497 4326 c-77 -28 -112 -82 -104 -160 6 -69 115 -250 167 -277 106
-57 234 16 234 134 0 43 -7 65 -44 131 -64 113 -110 161 -164 175 -53 13 -42
13 -89 -3z"/>
<path d="M1876 3817 c-48 -27 -72 -71 -87 -163 -12 -66 -11 -73 10 -117 29
-60 72 -87 141 -87 96 0 145 51 168 175 19 96 -10 165 -82 199 -47 22 -104 20
-150 -7z"/>
<path d="M4725 3676 c-37 -17 -70 -52 -85 -90 -16 -44 -2 -262 21 -307 52
-104 198 -107 273 -6 38 52 31 289 -12 346 -46 62 -133 87 -197 57z"/>
<path d="M1832 3076 c-1558 -437 -1502 -419 -1538 -488 -8 -15 -14 -46 -14
-68 0 -84 9 -93 354 -339 176 -126 330 -237 341 -245 19 -14 2 -33 -382 -418
-273 -273 -407 -415 -418 -440 -20 -50 -19 -91 4 -136 29 -55 727 -748 773
-767 103 -42 108 -39 565 418 250 249 406 398 412 392 5 -6 115 -159 245 -341
255 -358 261 -364 349 -364 48 0 97 27 128 70 10 14 203 688 429 1498 315
1123 411 1480 406 1505 -14 74 -86 137 -156 136 -14 0 -688 -186 -1498 -413z
m1258 4 c0 -13 -631 -2264 -636 -2269 -5 -5 22 -42 -208 281 -150 210 -206
280 -231 292 -43 21 -124 21 -155 0 -14 -9 -210 -201 -435 -425 l-410 -409
-233 233 -232 232 396 395 c218 217 409 413 425 434 23 31 29 50 29 88 0 93
-7 100 -311 315 -153 109 -278 201 -279 204 0 3 75 27 168 53 92 26 597 168
1122 315 525 148 963 269 973 270 9 1 17 -3 17 -9z"/>
<path d="M4665 2991 c-60 -15 -83 -40 -136 -150 -64 -130 -73 -189 -37 -240
39 -58 72 -76 137 -76 84 0 118 30 179 153 40 83 47 106 47 157 0 47 -5 67
-23 93 -38 52 -106 78 -167 63z"/>
<path d="M4235 2415 c-41 -20 -183 -134 -209 -168 -28 -38 -28 -126 0 -164 58
-79 153 -97 235 -45 71 46 168 130 184 162 66 128 -79 277 -210 215z"/>
<path d="M3610 2106 c-113 -25 -162 -76 -162 -166 0 -100 82 -169 185 -156
124 15 185 55 206 134 22 80 -29 169 -110 192 -40 12 -48 12 -119 -4z"/>
</g>
</svg>
