<?xml version="1.0" standalone="no"?>
<!DOCTYPE svg PUBLIC "-//W3C//DTD SVG 20010904//EN"
 "http://www.w3.org/TR/2001/REC-SVG-20010904/DTD/svg10.dtd">
<svg version="1.0" xmlns="http://www.w3.org/2000/svg"
 width="512.000000pt" height="512.000000pt" viewBox="0 0 512.000000 512.000000"
 preserveAspectRatio="xMidYMid meet">

<g transform="translate(0.000000,512.000000) scale(0.100000,-0.100000)"
fill="#000000" stroke="none">
<path d="M78 5099 c-23 -12 -46 -35 -58 -59 -19 -37 -20 -58 -20 -370 0 -305
1 -334 19 -368 31 -60 81 -82 190 -82 l91 0 0 -1660 0 -1660 -90 0 c-112 0
-159 -20 -190 -80 -19 -37 -20 -58 -20 -370 0 -376 2 -385 78 -428 39 -22 46
-22 371 -22 313 0 334 1 371 20 60 31 80 78 80 190 l0 90 1660 0 1660 0 0 -90
c0 -110 18 -154 78 -188 39 -22 46 -22 371 -22 313 0 334 1 371 20 26 13 47
34 60 60 19 37 20 58 20 370 0 312 -1 333 -20 370 -31 60 -78 80 -190 80 l-90
0 0 1660 0 1660 90 0 c112 0 159 20 190 80 19 37 20 58 20 370 0 312 -1 333
-20 370 -13 26 -34 47 -60 60 -37 19 -58 20 -370 20 -312 0 -333 -1 -370 -20
-60 -31 -80 -78 -80 -190 l0 -90 -1660 0 -1660 0 0 90 c0 112 -20 159 -80 190
-37 19 -58 20 -372 20 -312 -1 -335 -2 -370 -21z m4142 -669 c0 -162 48 -210
209 -210 l91 0 0 -1660 0 -1660 -90 0 c-163 0 -210 -47 -210 -210 l0 -90
-1660 0 -1660 0 0 90 c0 163 -47 210 -210 210 l-90 0 0 1660 0 1660 90 0 c163
0 210 47 210 210 l0 90 1660 0 1660 0 0 -90z"/>
<path d="M2485 4011 c-16 -10 -114 -104 -216 -207 -197 -199 -208 -216 -195
-289 13 -66 74 -116 145 -117 49 0 75 13 139 75 l52 51 0 -407 0 -407 -401 0
-402 0 47 50 c49 52 76 103 76 142 0 46 -39 106 -84 127 -51 25 -86 26 -129 5
-38 -19 -392 -367 -413 -406 -18 -35 -18 -101 0 -136 21 -39 375 -387 413
-406 43 -21 78 -20 129 5 45 21 84 81 84 127 0 39 -27 90 -76 142 l-47 50 402
0 401 0 0 -401 0 -402 -50 47 c-52 49 -103 76 -142 76 -46 0 -106 -39 -127
-84 -25 -51 -26 -86 -5 -129 19 -38 367 -392 406 -413 35 -18 101 -18 136 0
39 21 387 375 406 413 21 43 20 78 -5 129 -21 45 -81 84 -127 84 -39 0 -90
-27 -142 -76 l-50 -47 0 402 0 401 407 0 407 0 -58 -59 c-83 -83 -93 -153 -34
-225 34 -42 89 -62 145 -51 32 6 66 34 231 198 107 106 200 204 208 219 18 35
18 101 0 136 -8 15 -101 113 -208 219 -165 164 -199 192 -231 198 -56 11 -111
-9 -145 -51 -59 -72 -49 -142 34 -225 l58 -59 -407 0 -407 0 0 407 0 407 53
-51 c63 -62 89 -75 138 -75 71 1 132 51 145 117 13 73 2 90 -200 293 -105 107
-203 200 -218 208 -38 20 -107 18 -143 -5z"/>
</g>
</svg>
