<?xml version="1.0" standalone="no"?>
<!DOCTYPE svg PUBLIC "-//W3C//DTD SVG 20010904//EN"
 "http://www.w3.org/TR/2001/REC-SVG-20010904/DTD/svg10.dtd">
<svg version="1.0" xmlns="http://www.w3.org/2000/svg"
 width="256.000000pt" height="256.000000pt" viewBox="0 0 256.000000 256.000000"
 preserveAspectRatio="xMidYMid meet">

<g transform="translate(0.000000,256.000000) scale(0.100000,-0.100000)"
fill="#000000" stroke="none">
<path d="M1033 2483 c-7 -2 -13 -13 -13 -24 0 -17 5 -19 38 -13 45 8 46 9 39
29 -6 14 -38 19 -64 8z"/>
<path d="M1180 2476 c0 -20 60 -32 71 -15 15 24 10 29 -31 29 -28 0 -40 -4
-40 -14z"/>
<path d="M1330 2460 c0 -13 7 -20 19 -20 11 0 26 -3 34 -6 9 -3 16 2 20 15 3
14 -1 21 -17 25 -40 11 -56 7 -56 -14z"/>
<path d="M900 2457 c-42 -11 -42 -10 -34 -30 4 -12 14 -15 37 -10 39 7 47 14
38 34 -5 13 -13 14 -41 6z"/>
<path d="M1483 2434 c-7 -19 4 -31 38 -39 19 -5 28 -2 32 9 7 17 3 20 -37 36
-21 8 -28 7 -33 -6z"/>
<path d="M748 2404 c-26 -14 -39 -44 -19 -44 11 0 71 21 71 25 0 11 -13 35
-19 35 -3 -1 -18 -8 -33 -16z"/>
<path d="M1627 2383 c-13 -12 -7 -23 24 -39 26 -13 33 -14 40 -2 13 20 11 24
-16 36 -30 14 -39 15 -48 5z"/>
<path d="M608 2334 c-31 -16 -36 -32 -13 -40 22 -9 66 23 59 41 -7 18 -12 18
-46 -1z"/>
<path d="M1764 2306 c-4 -10 3 -24 17 -36 29 -23 33 -24 48 -6 9 10 6 17 -11
28 -45 29 -48 29 -54 14z"/>
<path d="M471 2237 c-20 -22 -20 -25 -6 -37 14 -11 20 -10 42 12 25 25 25 48
-1 48 -7 0 -22 -11 -35 -23z"/>
<path d="M1039 2160 l-23 -70 -51 -15 c-28 -8 -78 -28 -110 -44 l-60 -30 -61
33 -61 34 -91 -91 -90 -92 33 -58 33 -59 -38 -81 c-21 -45 -41 -96 -44 -113
-6 -27 -14 -33 -76 -53 l-70 -22 0 -124 0 -124 70 -22 70 -23 15 -51 c8 -28
28 -78 44 -110 l30 -60 -33 -61 -34 -61 91 -91 92 -90 60 34 60 33 69 -35 c38
-19 88 -39 111 -45 40 -10 42 -13 64 -80 l22 -69 124 0 124 0 22 70 23 70 51
15 c28 8 77 28 110 44 l58 30 47 -24 47 -24 96 97 96 97 -24 46 -24 47 28 53
c16 30 37 79 46 110 l18 56 68 22 69 22 0 124 0 124 -70 22 -70 23 -15 51 c-8
28 -28 78 -44 110 l-30 60 33 60 34 60 -90 92 -91 91 -62 -34 -62 -34 -54 29
c-30 16 -79 37 -110 46 l-56 18 -22 68 -22 69 -124 0 -124 0 -22 -70z m280
-275 c88 -23 162 -66 231 -135 211 -209 213 -536 4 -744 -208 -209 -535 -207
-744 4 -104 105 -150 217 -150 371 0 150 44 256 154 365 110 110 210 153 361
153 50 1 114 -6 144 -14z"/>
<path d="M1124 1620 c-123 -17 -226 -74 -329 -180 l-60 -61 81 -77 c122 -116
225 -161 370 -162 91 0 181 27 263 80 72 47 171 141 171 163 0 9 -32 45 -71
81 -81 75 -203 141 -276 151 -27 3 -59 7 -73 9 -14 1 -48 0 -76 -4z m153 -96
c27 -16 48 -38 62 -67 76 -157 -79 -312 -236 -236 -82 39 -121 156 -80 236 21
39 71 81 105 89 15 3 32 7 37 9 21 6 71 -8 112 -31z"/>
<path d="M1122 1500 c-74 -34 -100 -128 -55 -198 35 -56 122 -78 184 -47 64
34 89 128 49 192 -39 65 -108 86 -178 53z"/>
<path d="M1892 2218 c-17 -17 -15 -22 17 -46 23 -17 31 -19 40 -8 16 19 -40
71 -57 54z"/>
<path d="M361 2131 c-17 -23 -18 -31 -8 -40 19 -16 72 40 55 57 -18 18 -24 15
-47 -17z"/>
<path d="M2000 2105 c-11 -14 -10 -20 12 -42 14 -14 31 -22 37 -19 15 10 14
17 -13 49 -20 25 -24 27 -36 12z"/>
<path d="M266 2009 c-14 -23 -15 -34 -7 -42 9 -9 17 -6 31 13 11 14 19 31 17
39 -4 26 -22 22 -41 -10z"/>
<path d="M2093 1979 c-8 -8 -6 -19 6 -40 18 -32 20 -33 40 -20 11 7 10 14 -5
40 -20 34 -25 36 -41 20z"/>
<path d="M185 1880 c-17 -32 -13 -50 9 -50 16 0 41 54 31 69 -11 19 -24 12
-40 -19z"/>
<path d="M2170 1850 c-22 -13 -1 -64 28 -68 26 -4 27 3 4 45 -13 24 -21 30
-32 23z"/>
<path d="M129 1743 c-11 -31 -6 -53 14 -53 15 0 31 55 21 71 -10 17 -24 9 -35
-18z"/>
<path d="M2223 1702 c-21 -13 -1 -66 26 -70 19 -3 22 0 17 17 -3 12 -9 30 -12
41 -6 22 -12 24 -31 12z"/>
<path d="M90 1594 c-15 -38 -12 -54 10 -54 11 0 20 6 20 13 0 6 3 22 6 33 9
33 -24 40 -36 8z"/>
<path d="M2245 1523 c11 -49 14 -53 30 -47 11 5 15 16 13 38 -2 24 -8 32 -26
34 -20 3 -22 0 -17 -25z"/>
<path d="M70 1419 c0 -33 3 -40 18 -37 12 2 18 14 20 41 3 32 0 37 -17 37 -18
0 -21 -6 -21 -41z"/>
<path d="M2260 1360 c0 -33 3 -40 20 -40 17 0 20 7 20 40 0 33 -3 40 -20 40
-17 0 -20 -7 -20 -40z"/>
<path d="M82 1301 c-21 -13 -11 -65 13 -69 18 -2 20 2 17 38 -4 42 -8 45 -30
31z"/>
<path d="M2246 1218 c-10 -38 -7 -48 14 -48 13 0 20 7 20 19 0 11 3 26 6 35 4
11 0 16 -14 16 -12 0 -22 -9 -26 -22z"/>
<path d="M95 1118 c9 -40 15 -48 36 -39 24 9 5 71 -22 71 -18 0 -20 -4 -14
-32z"/>
<path d="M2216 1092 c-2 -4 -7 -21 -10 -38 -5 -24 -3 -33 9 -38 15 -6 35 27
35 59 0 14 -27 28 -34 17z"/>
<path d="M151 1001 c-12 -8 -12 -14 -1 -40 12 -29 29 -39 43 -25 5 6 -10 50
-22 66 -4 4 -12 3 -20 -1z"/>
<path d="M2155 920 c-17 -32 -13 -50 9 -50 16 0 41 54 31 69 -11 19 -24 12
-40 -19z"/>
<path d="M1780 775 l-125 -125 275 -275 c298 -298 319 -314 402 -301 118 19
191 144 145 249 -7 15 -96 112 -199 216 -104 104 -188 192 -188 196 0 4 9 19
20 35 18 25 18 29 4 41 -14 11 -19 9 -35 -11 -10 -14 -19 -29 -19 -35 0 -5
-33 23 -73 63 -40 39 -75 72 -77 72 -3 0 -61 -56 -130 -125z"/>
<path d="M212 861 c-12 -7 -11 -14 2 -40 17 -33 23 -36 44 -22 10 6 9 14 -5
39 -20 35 -22 36 -41 23z"/>
<path d="M295 720 c-7 -12 26 -59 42 -60 21 0 24 19 7 45 -17 26 -38 32 -49
15z"/>
<path d="M394 609 c-3 -6 5 -23 20 -37 20 -20 28 -24 38 -14 9 9 6 17 -12 37
-26 28 -35 31 -46 14z"/>
<path d="M520 505 c-7 -9 -11 -17 -9 -19 19 -14 55 -36 60 -36 4 0 9 7 12 15
4 9 -5 22 -22 35 -25 17 -30 18 -41 5z"/>
<path d="M1708 442 c-31 -19 -32 -21 -19 -41 6 -10 13 -10 27 -2 39 22 45 28
38 44 -7 20 -11 20 -46 -1z"/>
<path d="M646 424 c-8 -22 -9 -20 23 -34 52 -21 71 9 21 35 -36 19 -36 19 -44
-1z"/>
<path d="M1568 377 c-26 -10 -35 -26 -22 -40 5 -4 60 9 72 18 5 4 -10 35 -17
34 -3 -1 -18 -6 -33 -12z"/>
<path d="M787 363 c-12 -12 -7 -20 18 -31 37 -17 55 -15 55 7 0 23 -56 42 -73
24z"/>
<path d="M1422 332 c-13 -4 -23 -10 -23 -14 1 -5 1 -14 1 -22 0 -11 8 -12 39
-4 31 8 38 14 34 29 -6 20 -13 21 -51 11z"/>
<path d="M934 316 c-8 -21 -7 -23 39 -31 33 -7 37 -5 37 14 0 11 -6 21 -12 21
-7 0 -23 3 -35 6 -16 4 -25 1 -29 -10z"/>
<path d="M1090 289 c0 -18 19 -29 51 -29 12 0 19 7 19 19 0 14 -9 20 -35 23
-28 3 -35 1 -35 -13z"/>
<path d="M1240 290 c0 -17 7 -20 40 -20 33 0 40 3 40 20 0 17 -7 20 -40 20
-33 0 -40 -3 -40 -20z"/>
</g>
</svg>
