<svg width="17" height="18" viewBox="0 0 17 18" fill="none" xmlns="http://www.w3.org/2000/svg">
<path d="M8.57143 11.3589V13.1503C7.79565 12.876 6.96538 12.7919 6.15035 12.905C5.33531 13.018 4.55931 13.325 3.88751 13.8002C3.21571 14.2753 2.66772 14.9047 2.28957 15.6355C1.91141 16.3663 1.71413 17.1772 1.71429 18L2.21534e-07 17.9991C-0.000265812 16.9525 0.239075 15.9196 0.699685 14.9798C1.16029 14.0399 1.82995 13.2179 2.65733 12.5769C3.48471 11.9358 4.44787 11.4927 5.47299 11.2814C6.49811 11.0701 7.558 11.0963 8.57143 11.358V11.3589ZM6.85714 10.2857C4.01571 10.2857 1.71429 7.98429 1.71429 5.14286C1.71429 2.30143 4.01571 0 6.85714 0C9.69857 0 12 2.30143 12 5.14286C12 7.98429 9.69857 10.2857 6.85714 10.2857ZM6.85714 8.57143C8.75143 8.57143 10.2857 7.03714 10.2857 5.14286C10.2857 3.24857 8.75143 1.71429 6.85714 1.71429C4.96286 1.71429 3.42857 3.24857 3.42857 5.14286C3.42857 7.03714 4.96286 8.57143 6.85714 8.57143ZM12 13.7143V11.1429H13.7143V13.7143H16.2857V15.4286H13.7143V18H12V15.4286H9.42857V13.7143H12Z" fill="#6A737D"/>
</svg>
