<?xml version="1.0" encoding="utf-8"?>
<!-- Generator: Adobe Illustrator 24.0.3, SVG Export Plug-In . SVG Version: 6.00 Build 0)  -->
<svg version="1.1" id="Layer_1" xmlns="http://www.w3.org/2000/svg" xmlns:xlink="http://www.w3.org/1999/xlink" x="0px" y="0px"
	 viewBox="0 0 60 60" style="enable-background:new 0 0 60 60;" xml:space="preserve">
<path d="M38.1,19.3c-0.3-0.1-0.7-0.1-1-0.1c-2.4,0-3.9,0-6.3-0.1c-1.8,0-3.5-0.8-3.5-2.7c0-2.5,0-4.9,0-7.4c0-0.6-0.1-2.2-0.2-2.8
	C26.8,5.4,25.3,5,24.5,5c-4.9,0-8.8,0-13.6,0c-0.5,0-1,0-1.5,0.2c-2,0.5-4.1,3.2-4.1,5.5c-0.1,6.5-0.1,13.1-0.1,19.6
	c0,6.4,0,13,0,19.4c0,3,3.6,5.9,6.5,5.9c8.3,0,15.6,0,23.9,0c2.9,0,5.6-2.8,5.6-5.8c0-9.4,0-17.6,0-27
	C41.1,21.2,39.7,19.7,38.1,19.3z M25.6,23.6c-0.7,1-2.3,1.6-3.6,1.6c0-1.3,0.7-2.6,1.3-3.6c1-1.3,2.3-2,3.6-2
	C26.9,21.3,26.6,22.6,25.6,23.6z M44.1,7V2.9c0-0.6,0-0.8-0.1-1.1h1.7c0,0.3-0.1,0.6-0.1,1.1V7c0,0.5,0,0.8,0.1,1.1H44
	C44,7.8,44.1,7.5,44.1,7z M57.8,7.2l-1.7-4.6c-0.2-0.4-0.2-0.6-0.3-0.8h-2c0,0.2-0.1,0.4-0.2,0.8L52,7.2c-0.2,0.5-0.3,0.7-0.4,0.9
	h1.8c0-0.3,0.1-0.5,0.2-0.8l0.2-0.6H56l0.2,0.6c0.1,0.2,0.1,0.4,0.2,0.8h1.8C58.1,7.9,57.9,7.6,57.8,7.2z M54.2,5.3l0.7-2.2l0.7,2.2
	H54.2z M49.5,1.7h-1.7c-0.5,0-0.7,0-1.1,0c0.1,0.3,0.1,0.7,0.1,1.1V7c0,0.4-0.1,0.7-0.1,1h1.7c-0.1-0.3-0.1-0.7-0.1-1.1v-1h1.2
	c1.4,0,2.3-0.8,2.3-2.2C51.8,2.4,51,1.7,49.5,1.7z M49.4,4.7h-1.1V3.1h1.1c0.5,0,0.8,0.3,0.8,0.8S49.9,4.7,49.4,4.7z M43,13.1
	c-3.2-3.2-6.4-6.4-9.6-9.6c-0.6-0.6-1.3-1.2-1.9-1.7c-1.4-1.2-2.9-1.7-4.8-1.7c-5.7,0-11.3,0-16.9,0c-0.7,0-1.6,0-2.3,0.2
	C3,1.3,0.1,4.8,0.1,9.5c0,6.9,0,13.8,0,20.6c0,6.7,0,13.5,0.1,20.3c0,1.2,0.2,2.4,0.5,3.5c1.3,3.8,4.6,6.2,8.8,6.2
	c7.1,0,14.1,0,21.2,0c2,0,4.1,0,6.1,0c2.8,0,5.2-1.1,7.1-3.3c1.6-1.9,2.2-4,2.2-6.4c0-10.3,0-20.5,0-30.8c0-1.7-0.4-3.2-1.5-4.5
	C44.1,14.4,43.6,13.7,43,13.1z M42.5,50.5c0,3.2-2.9,6.1-6.1,6.1c-8.9,0-16.8,0-25.7,0c-3.2,0-7.1-3-7.1-6.2c0-6.7,0-13.6,0-20.3
	c0-6.8,0-13.7,0.1-20.5c0-2.4,2.3-5.2,4.5-5.7c0.5-0.2,1.1-0.2,1.6-0.2c5.3,0,10.5,0,15.8,0c0.9,0,2.6,0.4,2.9,1.4
	c0.1,0.6,0.2,2.3,0.2,2.9c0,2.6,0,5.2,0,7.8c0,1.9,0.8,1.7,2.7,1.7c2.6,0.1,4.2,0.1,6.8,0.1c0.3,0,0.7,0,1.1,0.1
	c1.7,0.3,3.2,1.9,3.2,3.6C42.5,31.1,42.5,40.7,42.5,50.5z M30.5,40.7c-1,1.3-2,3-3.6,3s-2-1-3.9-1c-2,0-2.3,1-3.9,1s-3-1.6-3.9-3
	c-2.3-3-3.6-8.5-1.6-12.2c1-1.6,3-3,4.9-3c1.6,0,3,1,3.9,1c1,0,2.6-1.3,4.6-1c0.7,0,3,0.3,4.3,2.3c0,0-2.6,1.6-2.6,4.6
	c0.3,3.6,3.3,4.9,3.6,4.9C32.2,37.4,31.8,39,30.5,40.7z"/>
</svg>
