<svg width="20" height="20" viewBox="0 0 20 20" fill="none" xmlns="http://www.w3.org/2000/svg">
<path d="M8.59414 9.63834L15.2108 3.02167L16.9783 4.78917L15.8 5.9675L17.5675 7.735L14.6216 10.6817L12.8541 8.91417L10.3625 11.4058C10.8213 12.2886 10.9492 13.3063 10.7232 14.2752C10.4972 15.244 9.9321 16.1 9.13005 16.6887C8.328 17.2773 7.34188 17.5596 6.34986 17.4846C5.35783 17.4097 4.42532 16.9824 3.7208 16.28C3.01593 15.5763 2.58648 14.6433 2.51027 13.6502C2.43406 12.6571 2.71613 11.6695 3.30537 10.8664C3.89461 10.0634 4.75203 9.49798 5.72226 9.27269C6.69248 9.04739 7.71132 9.17711 8.59414 9.63834ZM7.84497 14.5117C8.00415 14.3579 8.13112 14.174 8.21847 13.9707C8.30582 13.7673 8.3518 13.5486 8.35372 13.3273C8.35564 13.106 8.31347 12.8866 8.22967 12.6817C8.14587 12.4769 8.02212 12.2908 7.86563 12.1343C7.70914 11.9779 7.52305 11.8541 7.31823 11.7703C7.1134 11.6865 6.89393 11.6443 6.67263 11.6463C6.45133 11.6482 6.23263 11.6942 6.02929 11.7815C5.82595 11.8688 5.64205 11.9958 5.4883 12.155C5.18471 12.4693 5.01672 12.8903 5.02051 13.3273C5.02431 13.7643 5.19959 14.1824 5.50861 14.4914C5.81762 14.8004 6.23564 14.9757 6.67263 14.9795C7.10963 14.9833 7.53063 14.8153 7.84497 14.5117Z" fill="black"/>
</svg>
