<svg width="14" height="14" viewBox="0 0 14 14" fill="none" xmlns="http://www.w3.org/2000/svg">
<path d="M3.5 5C3.5 5.732 3.666 6.424 3.949 7.051L0 11V12.5C0 12.5 0.896 14 2 14H4V12H6V10H8.5C11.262 10 13.5 7.762 13.5 5C13.5 2.238 11.262 0 8.5 0C5.738 0 3.5 2.238 3.5 5ZM8.5 7C8.23729 6.99993 7.97717 6.94812 7.73448 6.84753C7.49179 6.74693 7.2713 6.59952 7.08558 6.41371C6.89986 6.2279 6.75256 6.00733 6.65209 5.7646C6.55161 5.52186 6.49993 5.26171 6.5 4.999C6.50007 4.73629 6.55188 4.47617 6.65247 4.23348C6.75307 3.99079 6.90048 3.7703 7.08629 3.58458C7.2721 3.39886 7.49267 3.25156 7.7354 3.15109C7.97814 3.05061 8.23829 2.99893 8.501 2.999C9.03157 2.99913 9.54035 3.21003 9.91542 3.58529C10.2905 3.96055 10.5011 4.46943 10.501 5C10.5009 5.53057 10.29 6.03935 9.91471 6.41442C9.53945 6.78949 9.03057 7.00013 8.5 7Z" fill="#5A5D5E"/>
</svg>
