<?xml version="1.0" encoding="UTF-8"?>
<svg width="60px" height="60px" viewBox="0 0 60 60" version="1.1" xmlns="http://www.w3.org/2000/svg" xmlns:xlink="http://www.w3.org/1999/xlink">
    <!-- Generator: Sketch 55.2 (78181) - https://sketchapp.com -->
    <title>key</title>
    <desc>Created with Sketch.</desc>
    <defs>
        <path d="M54.5642023,55.9778261 C54.4533074,55.9778261 54.3202335,55.9556522 54.1649805,55.8226087 L26.0198444,31.276087 C25.8202335,31.0986957 25.5540856,31.01 25.2879377,31.01 C25.0217899,31.01 24.755642,31.0986957 24.5338521,31.2982609 C22.7817121,32.9169565 20.8299611,34.1365217 18.7451362,34.8904348 C18.2793774,35.0678261 17.8136187,35.2008696 17.3478599,35.3117391 C16.2167315,35.6 15.0856031,35.7552174 13.9544747,35.7552174 C11.2708171,35.7552174 8.80894942,34.9347826 6.81284047,33.3604348 C1.02412451,28.8147826 0.647081712,19.3021739 5.9922179,12.14 C8.49844358,8.76956522 11.8918288,6.39695652 15.5735409,5.44347826 C16.7046693,5.15521739 17.8357977,5 18.9669261,5 C21.6505837,5 24.1124514,5.82043478 26.1085603,7.39478261 C31.0766537,11.2752174 32.1634241,19.013913 28.7035019,25.7991304 C28.4817121,26.2647826 28.570428,26.8191304 28.9696498,27.1517391 L42.2770428,38.9926087 C42.4766537,39.17 42.7428016,39.2586957 43.0089494,39.2586957 C43.0311284,39.2586957 43.0754864,39.2586957 43.0976654,39.2586957 C43.3859922,39.2365217 43.6743191,39.1034783 43.851751,38.8817391 L46.1805447,36.1543478 C46.3136187,35.9991304 46.4910506,35.9104348 46.6906615,35.9104348 C46.8015564,35.9104348 46.9568093,35.9326087 47.1120623,36.0656522 L50.0396887,38.5934783 C50.3058366,38.8152174 50.3280156,39.2143478 50.1062257,39.4804348 L47.7330739,42.2743478 C47.3338521,42.74 47.4003891,43.4273913 47.8661479,43.8265217 L50.0175097,45.6669565 C50.2171206,45.8443478 50.4832685,45.9330435 50.7494163,45.9330435 C50.7715953,45.9330435 50.8159533,45.9330435 50.8381323,45.9330435 C51.1264591,45.9108696 51.414786,45.7556522 51.5922179,45.533913 L54.9412451,41.453913 C55.0521401,41.2986957 55.229572,41.2321739 55.4291829,41.2321739 C55.5400778,41.2321739 55.6953307,41.2543478 55.8505837,41.3873913 L58.7782101,43.9152174 C59.044358,44.1369565 59.066537,44.536087 58.8447471,44.8021739 L55.4513619,48.8821739 C55.0743191,49.3478261 55.118677,50.0352174 55.5844358,50.4343478 L57.3809339,51.9865217 C57.6249027,52.2082609 57.6692607,52.5630435 57.4474708,52.8069565 L55.0077821,55.7782609 C54.9190661,55.9113043 54.7416342,55.9778261 54.5642023,55.9778261 Z M19.122179,10.1665217 C18.3902724,10.1665217 17.6583658,10.2552174 16.9042802,10.4547826 C16.5937743,10.5434783 16.2832685,10.6321739 15.9727626,10.7430435 C13.7105058,11.5634783 11.581323,13.2043478 9.9844358,15.3552174 C6.39143969,20.1669565 6.30272374,26.5530435 9.80700389,29.3026087 C10.9159533,30.1673913 12.2688716,30.6108696 13.8214008,30.6108696 C13.8214008,30.6108696 13.8214008,30.6108696 13.8214008,30.6108696 C14.5533074,30.6108696 15.285214,30.5221739 16.0392996,30.3226087 C18.6120623,29.6573913 21.1404669,27.8834783 22.959144,25.4221739 C26.5521401,20.6104348 26.640856,14.2243478 23.1365759,11.4747826 C22.0276265,10.61 20.6747082,10.1665217 19.122179,10.1665217 Z" id="path-1"></path>
    </defs>
    <g id="key" stroke="none" stroke-width="1" fill="none" fill-rule="evenodd">
        <mask id="mask-2" fill="white">
            <use xlink:href="#path-1"></use>
        </mask>
        <use id="Mask" fill="#070707" fill-rule="nonzero" xlink:href="#path-1"></use>
        <g id="color/2" mask="url(#mask-2)" fill="#27303E">
            <rect x="0" y="0" width="60" height="60"></rect>
        </g>
    </g>
</svg>