<svg width="12" height="16" viewBox="0 0 12 16" fill="none" xmlns="http://www.w3.org/2000/svg">
<path d="M3.66535 13.3333H8.33468C7.89364 14.3882 7.0549 15.2269 6.00002 15.668C4.94514 15.2269 4.10639 14.3882 3.66535 13.3333ZM10 9.86997L11.3334 11.382V12.6666H0.666687V11.382L2.00002 9.86997V5.99997C2.00002 3.67797 3.66935 1.70197 6.00002 0.969971C8.33069 1.70197 10 3.67797 10 5.99997V9.86997ZM6.00002 7.3333C6.35364 7.3333 6.69278 7.19283 6.94283 6.94278C7.19288 6.69273 7.33335 6.35359 7.33335 5.99997C7.33335 5.64635 7.19288 5.30721 6.94283 5.05716C6.69278 4.80711 6.35364 4.66664 6.00002 4.66664C5.6464 4.66664 5.30726 4.80711 5.05721 5.05716C4.80716 5.30721 4.66669 5.64635 4.66669 5.99997C4.66669 6.35359 4.80716 6.69273 5.05721 6.94278C5.30726 7.19283 5.6464 7.3333 6.00002 7.3333Z" fill="#6A737D"/>
</svg>
