<?xml version="1.0" standalone="no"?>
<!DOCTYPE svg PUBLIC "-//W3C//DTD SVG 20010904//EN"
 "http://www.w3.org/TR/2001/REC-SVG-20010904/DTD/svg10.dtd">
<svg version="1.0" xmlns="http://www.w3.org/2000/svg"
 width="256.000000pt" height="256.000000pt" viewBox="0 0 256.000000 256.000000"
 preserveAspectRatio="xMidYMid meet">

<g transform="translate(0.000000,256.000000) scale(0.100000,-0.100000)"
fill="#000000" stroke="none">
<path d="M968 1764 c-238 -118 -288 -147 -288 -164 0 -17 51 -45 296 -165 163
-80 300 -145 304 -145 5 0 141 65 304 145 245 119 296 148 296 165 0 17 -51
46 -292 165 -160 80 -301 144 -312 144 -12 -1 -150 -66 -308 -145z m571 -36
c138 -67 251 -125 250 -128 0 -3 -115 -61 -255 -130 l-254 -125 -250 125
c-138 69 -250 128 -250 132 0 8 478 246 497 247 6 1 124 -54 262 -121z"/>
<path d="M687 1403 c-4 -3 -7 -15 -7 -25 0 -14 65 -51 293 -163 161 -80 300
-145 308 -145 8 0 146 65 307 145 237 117 292 148 292 164 0 11 -4 22 -10 26
-5 3 -138 -57 -296 -135 -157 -77 -290 -140 -294 -140 -4 0 -136 63 -293 140
-157 77 -287 140 -289 140 -3 0 -8 -3 -11 -7z"/>
<path d="M687 1193 c-4 -3 -7 -15 -7 -25 0 -15 63 -50 294 -164 161 -79 299
-144 306 -144 7 0 145 65 307 144 239 118 293 148 293 165 0 11 -4 22 -10 26
-5 3 -138 -57 -295 -135 -158 -77 -290 -140 -294 -140 -4 0 -137 63 -294 140
-157 77 -288 140 -290 140 -2 0 -7 -3 -10 -7z"/>
<path d="M687 983 c-4 -3 -7 -15 -7 -25 0 -15 63 -50 293 -164 162 -79 300
-144 309 -144 8 0 146 65 306 145 236 116 292 148 292 164 0 11 -4 22 -9 25
-5 4 -138 -57 -295 -134 -158 -77 -291 -140 -296 -140 -5 0 -137 63 -294 140
-156 77 -286 140 -288 140 -3 0 -8 -3 -11 -7z"/>
</g>
</svg>
