<svg width="16" height="13" viewBox="0 0 16 13" fill="none" xmlns="http://www.w3.org/2000/svg">
<path d="M8 1.97456C8.90844 1.371 10.142 1 11.5 1C12.8588 1 14.0916 1.371 15 1.97456V12.0857C14.0916 11.4821 12.8588 11.1111 11.5 11.1111C10.142 11.1111 8.90844 11.4821 8 12.0857M8 1.97456V12.0857V1.97456ZM8 1.97456C7.09156 1.371 5.858 1 4.5 1C3.142 1 1.90844 1.371 1 1.97456V12.0857C1.90844 11.4821 3.142 11.1111 4.5 11.1111C5.858 11.1111 7.09156 11.4821 8 12.0857V1.97456Z" stroke="#6A737D" stroke-width="1.4" stroke-linecap="round" stroke-linejoin="round"/>
</svg>
