<svg width="60px" height="60px" viewBox="0 0 16 17" fill="none" xmlns="http://www.w3.org/2000/svg">
<path d="M5.85901 13.691L5.04901 14.496C4.70968 14.83 4.25264 15.0172 3.77651 15.0172C3.30038 15.0172 2.84334 14.83 2.50401 14.496C2.33857 14.3322 2.20723 14.1372 2.1176 13.9223C2.02798 13.7074 1.98183 13.4768 1.98183 13.244C1.98183 13.0112 2.02798 12.7806 2.1176 12.5657C2.20723 12.3508 2.33857 12.1558 2.50401 11.992L5.48401 9.037C6.10101 8.424 7.26301 7.522 8.11001 8.362C8.20116 8.45919 8.31096 8.53702 8.43285 8.59085C8.55474 8.64468 8.68622 8.6734 8.81946 8.6753C8.95269 8.6772 9.08494 8.65224 9.20831 8.60191C9.33169 8.55157 9.44366 8.4769 9.53754 8.38235C9.63143 8.28779 9.7053 8.17529 9.75475 8.05156C9.8042 7.92783 9.82822 7.79541 9.82537 7.66219C9.82252 7.52897 9.79286 7.3977 9.73816 7.27619C9.68347 7.15469 9.60485 7.04545 9.50701 6.955C8.06901 5.527 5.94101 5.791 4.08801 7.63L1.10801 10.586C0.755904 10.9331 0.476555 11.347 0.286306 11.8034C0.0960573 12.2598 -0.00127177 12.7495 1.25466e-05 13.244C-0.00121594 13.7384 0.0961385 14.2282 0.286384 14.6846C0.47663 15.1409 0.755949 15.5548 1.10801 15.902C1.81771 16.606 2.77741 17 3.77701 16.998C4.74401 16.998 5.71101 16.633 6.44601 15.902L7.25701 15.097C7.3495 15.0055 7.42301 14.8967 7.47334 14.7768C7.52367 14.6568 7.54981 14.5281 7.55027 14.398C7.55074 14.268 7.52551 14.1391 7.47605 14.0188C7.42658 13.8985 7.35384 13.7891 7.26201 13.697C7.07638 13.5109 6.82463 13.4058 6.56175 13.4046C6.29887 13.4035 6.04623 13.5065 5.85901 13.691V13.691ZM14.891 2.207C13.344 0.672998 11.182 0.589998 9.75201 2.01L8.74301 3.012C8.55657 3.19712 8.45129 3.44872 8.45036 3.71146C8.44942 3.9742 8.55289 4.22655 8.73801 4.413C8.92313 4.59945 9.17474 4.70472 9.43748 4.70565C9.70022 4.70659 9.95257 4.60312 10.139 4.418L11.149 3.417C11.889 2.681 12.86 2.986 13.495 3.614C13.831 3.949 14.017 4.393 14.017 4.866C14.017 5.339 13.831 5.783 13.495 6.117L10.315 9.271C8.86101 10.712 8.17901 10.037 7.88801 9.748C7.79569 9.65634 7.68622 9.58375 7.56585 9.5344C7.44548 9.48504 7.31657 9.45988 7.18648 9.46034C7.05638 9.46081 6.92765 9.48689 6.80764 9.5371C6.68762 9.58732 6.57867 9.66068 6.48701 9.753C6.39535 9.84532 6.32277 9.95479 6.27341 10.0752C6.22406 10.1955 6.19889 10.3244 6.19936 10.4545C6.19982 10.5846 6.2259 10.7134 6.27612 10.8334C6.32633 10.9534 6.39969 11.0623 6.49201 11.154C7.16001 11.816 7.92201 12.144 8.72001 12.144C9.69701 12.144 10.73 11.652 11.713 10.677L14.893 7.524C15.2444 7.17634 15.5231 6.76234 15.7132 6.30606C15.9032 5.84977 16.0007 5.36028 16 4.866C16.0009 4.37136 15.9033 3.8815 15.7129 3.42498C15.5225 2.96845 15.2431 2.55441 14.891 2.207V2.207Z" fill="black"/>
</svg>
