<?xml version="1.0" encoding="UTF-8"?>
<svg width="60px" height="60px" viewBox="0 0 60 60" version="1.1" xmlns="http://www.w3.org/2000/svg" xmlns:xlink="http://www.w3.org/1999/xlink">
    <!-- Generator: Sketch 55.2 (78181) - https://sketchapp.com -->
    <title>linux</title>
    <desc>Created with Sketch.</desc>
    <g id="linux" stroke="none" stroke-width="1" fill="none" fill-rule="evenodd">
        <g id="iconfinder_linux_1608765" transform="translate(5.000000, 0.000000)" fill="#000000" fill-rule="nonzero">
            <path d="M21.8733199,13.7622896 C21.6286906,13.7846093 21.4563381,13.9017881 21.3562625,14.1138257 C21.2561869,14.3258634 21.161671,14.4318823 21.0727149,14.4318823 C20.9615197,14.454202 20.9059222,14.3984026 20.9059222,14.2644841 C20.9059222,13.996647 21.1171929,13.8292488 21.5397345,13.7622896 L21.8733199,13.7622896 Z M24.7755131,14.2310045 C24.686557,14.2533242 24.5586826,14.180785 24.3918899,14.0133868 C24.2250972,13.8459887 24.0305057,13.7957692 23.8081154,13.8627285 C24.3418521,13.6172112 24.6976765,13.6395309 24.8755887,13.9296877 C24.9423058,14.0636063 24.9089473,14.1640452 24.7755131,14.2310045 Z M13.0666647,28.5268082 C12.9777086,28.5044884 12.9109915,28.5379681 12.8665134,28.6272471 C12.8220354,28.7165261 12.7719975,28.8560246 12.7164,29.0457425 C12.6608024,29.2354604 12.5996451,29.3861188 12.532928,29.4977176 C12.4662109,29.6093164 12.3550158,29.7543948 12.1993426,29.9329528 C12.0436694,30.1561504 12.0325499,30.2900689 12.165984,30.3347084 C12.2549401,30.3570282 12.3939341,30.278909 12.5829658,30.100351 C12.7719975,29.9217929 12.9109915,29.7209151 12.9999476,29.4977176 C13.0221866,29.4307583 13.0444256,29.3526392 13.0666647,29.2633601 C13.0889037,29.1740811 13.1111427,29.1071219 13.1333818,29.0624823 C13.1556208,29.0178428 13.1723001,28.9676234 13.1834196,28.911824 C13.1945391,28.8560246 13.2000988,28.8113851 13.2000988,28.7779055 L13.2000988,28.6774665 L13.1667403,28.5937675 L13.0666647,28.5268082 Z M41.5882186,40.5459968 C41.5882186,40.1442412 40.9766453,39.6755263 39.7534987,39.1398522 C39.8424548,38.8050559 39.9258512,38.4981592 40.0036878,38.2191623 C40.0815244,37.9401653 40.137122,37.6500085 40.1704805,37.3486918 C40.203839,37.0473751 40.2371976,36.8074377 40.2705561,36.6288796 C40.3039147,36.4503216 40.3094744,36.1992243 40.2872354,35.8755879 C40.2649964,35.5519514 40.2538769,35.3343338 40.2538769,35.222735 C40.2538769,35.1111362 40.2149586,34.8656189 40.137122,34.4861831 C40.0592854,34.1067472 40.0148073,33.8779697 40.0036878,33.7998506 C39.9925683,33.7217314 39.9369707,33.4427345 39.8368951,32.9628597 C39.7368194,32.482985 39.6756621,32.1872482 39.6534231,32.0756494 C39.4310328,31.0043011 38.9084156,29.8548337 38.0855716,28.6272471 C37.2627275,27.3996605 36.4621225,26.5626697 35.6837565,26.1162745 C36.2174932,26.5626697 36.8513055,27.4889395 37.5851934,28.8950842 C39.5199889,32.5108846 40.1204427,35.6133307 39.3865547,38.2024224 C39.1419254,39.0952127 38.5859497,39.5639276 37.7186276,39.6085671 C37.0292177,39.6978461 36.6011164,39.4913883 36.4343237,38.9891938 C36.267531,38.4869993 36.1785749,37.5551495 36.1674554,36.1936444 C36.1563359,34.8321393 36.0284615,33.6380323 35.7838322,32.6113236 C35.5836809,31.7408531 35.3668504,30.9708215 35.1333406,30.3012288 C34.8998308,29.6316361 34.6830002,29.1238617 34.482849,28.7779055 C34.2826977,28.4319492 34.1103453,28.1585322 33.9657916,27.9576544 C33.8212379,27.7567766 33.6766842,27.5893784 33.5321305,27.4554599 C33.3875768,27.3215414 33.3041805,27.2434222 33.2819415,27.2211025 C32.9705951,25.8372776 32.6258901,24.6878102 32.2478266,23.7727002 C31.8697632,22.8575902 31.5417375,22.232637 31.2637496,21.8978407 C30.9857618,21.5630443 30.7244532,21.1947683 30.4798239,20.7930127 C30.2351946,20.3912571 30.0684019,19.944862 29.9794457,19.4538274 C29.8904896,18.9851125 29.9572067,18.388059 30.179597,17.6626669 C30.4019873,16.9372749 30.4520251,16.3848609 30.3297104,16.0054251 C30.2073958,15.6259892 29.7125774,15.3469923 28.8452553,15.1684342 C28.5116699,15.1014749 28.0168515,14.9005971 27.3608002,14.5658008 C26.7047488,14.2310045 26.3100061,14.0524464 26.1765719,14.0301266 C25.9986597,14.0078069 25.876345,13.7176501 25.8096279,13.1596562 C25.7429108,12.6016623 25.831867,12.0325085 26.0764963,11.4521948 C26.3211256,10.8718812 26.7214281,10.5705645 27.2774038,10.5482447 C28.1002478,10.4812854 28.6673431,10.8160818 28.9786895,11.5526337 C29.2900359,12.2891857 29.3345139,12.9364586 29.1121236,13.4944525 C28.8674943,13.9185279 28.8452553,14.2142646 29.0454066,14.3816628 C29.2455578,14.549061 29.5791432,14.5546409 30.0461628,14.3984026 C30.3352702,14.3091236 30.4798239,13.907368 30.4798239,13.1931358 L30.4798239,11.9543893 C30.3686287,11.2847967 30.2185153,10.7268028 30.0294836,10.2804076 C29.8404518,9.83401251 29.606942,9.49363623 29.3289542,9.25927879 C29.0509663,9.02492136 28.7896577,8.85752319 28.5450284,8.75708428 C28.3003991,8.65664538 28.0001722,8.5729463 27.6443478,8.50598703 C25.2647717,8.68454508 24.275135,10.1799687 24.6754375,12.992258 C24.6754375,13.3270543 24.664318,13.4944525 24.6420789,13.4944525 C24.4419277,13.2935747 24.113902,13.176396 23.6580019,13.1429163 C23.2021019,13.1094367 22.8351579,13.1150166 22.55717,13.1596562 C22.2791822,13.2042957 22.1068297,13.1484963 22.0401126,12.992258 C22.0623516,11.7200319 21.8844394,10.7156429 21.5063759,9.97909093 C21.1283125,9.24253898 20.6279343,8.86310312 20.0052415,8.84078337 C19.4047878,8.81846361 18.9433279,9.12536026 18.620862,9.7614733 C18.2983961,10.3975864 18.1149241,11.0615991 18.0704461,11.7535115 C18.048207,12.0883079 18.0871253,12.5012234 18.187201,12.992258 C18.2872766,13.4832926 18.4318303,13.9017881 18.620862,14.2477443 C18.8098937,14.5937005 18.9822462,14.7443588 19.1379194,14.6997193 C19.3603097,14.6327601 19.5382219,14.4765218 19.6716561,14.2310045 C19.7606122,14.0301266 19.6827756,13.9408476 19.4381463,13.9631674 C19.2824731,13.9631674 19.1101206,13.8013491 18.9210889,13.4777127 C18.7320571,13.1540762 18.6264218,12.7802203 18.6041827,12.3561449 C18.5819437,11.8651103 18.6820193,11.4521948 18.9044096,11.1173985 C19.1267999,10.7826021 19.5048634,10.6263639 20.0386001,10.6486836 C20.4166635,10.6486836 20.7168904,10.883041 20.9392807,11.3517559 C21.161671,11.8204708 21.2673064,12.255706 21.2561869,12.6574617 C21.2450674,13.0592173 21.2283881,13.3047346 21.2061491,13.3940136 C20.7168904,13.7288099 20.3721855,14.0524464 20.1720342,14.364923 C19.994122,14.6327601 19.6883354,14.8950172 19.2546743,15.1516944 C18.8210133,15.4083716 18.5930632,15.5478701 18.5708242,15.5701898 C18.2817168,15.8826664 18.1093644,16.1839831 18.0537668,16.4741399 C17.9981692,16.7642968 18.0815656,16.9651746 18.3039559,17.0767733 C18.6153022,17.2553314 18.8932901,17.472949 19.1379194,17.7296262 C19.3825487,17.9863034 19.560461,18.1983411 19.6716561,18.3657393 C19.7828512,18.5331374 19.9885623,18.6782158 20.2887891,18.8009745 C20.589016,18.9237332 20.9837588,18.9962724 21.4730174,19.0185921 C22.5182517,19.0632316 23.6524422,18.8958335 24.8755887,18.5163976 C24.9200668,18.4940779 25.1758156,18.4159587 25.6428352,18.2820402 C26.1098548,18.1481216 26.493478,18.0309429 26.7937049,17.930504 C27.0939318,17.8300651 27.4219575,17.6849867 27.7777819,17.4952688 C28.1336064,17.3055508 28.3671162,17.110253 28.4783113,16.9093752 C28.6784626,16.5968986 28.9008529,16.5076196 29.1454822,16.6415381 C29.2566773,16.7084974 29.3289542,16.8033563 29.3623127,16.926115 C29.3956713,17.0488737 29.3623127,17.1827922 29.2622371,17.3278706 C29.1621615,17.472949 28.9786895,17.5789679 28.7118211,17.6459271 C28.2670406,17.7798457 27.638788,18.019783 26.8270635,18.3657393 C26.0153389,18.7116955 25.509401,18.9293131 25.3092498,19.0185921 C24.3307325,19.4426675 23.5523665,19.6993447 22.9741518,19.7886237 C22.4181761,19.9002225 21.5397345,19.8779027 20.3388269,19.7216644 C20.1164367,19.6770249 20.016361,19.6993447 20.0386001,19.7886237 C20.0608391,19.8779027 20.2498708,20.0899404 20.6056953,20.4247368 C21.161671,20.9380911 21.9066784,21.1836085 22.8407176,21.1612887 C23.2187811,21.1389689 23.6190836,21.0608498 24.0416252,20.9269313 C24.4641667,20.7930127 24.8644692,20.6367744 25.2425327,20.4582164 C25.6205962,20.2796583 25.9930999,20.0843605 26.3600439,19.8723228 C26.7269878,19.6602851 27.0605733,19.4705672 27.3608002,19.303169 C27.661027,19.1357708 27.9334551,19.0018523 28.1780844,18.9014134 C28.4227138,18.8009745 28.6173053,18.7730748 28.7618589,18.8177143 C28.9064126,18.8623538 29.0009285,18.9851125 29.0454066,19.1859903 C29.0454066,19.2306298 29.034287,19.2808493 29.012048,19.3366486 C28.989809,19.392448 28.9453309,19.4482474 28.8786138,19.5040468 C28.8118968,19.5598462 28.7451797,19.6100657 28.6784626,19.6547052 C28.6117455,19.6993447 28.5172296,19.7551441 28.394915,19.8221033 C28.2726003,19.8890626 28.1725247,19.9392821 28.0946881,19.9727617 C28.0168515,20.0062413 27.9056564,20.0620407 27.7611027,20.1401599 C27.616549,20.218279 27.5109136,20.2684985 27.4441965,20.2908182 C26.8215037,20.6032948 26.0709365,21.0943294 25.1924949,21.7639221 C24.3140533,22.4335148 23.5746056,22.9133896 22.9741518,23.2035464 C22.373698,23.4937032 21.8288418,23.5048631 21.3395832,23.237026 C20.8725636,22.9915087 20.1720342,22.1768376 19.237995,20.7930127 C18.7487364,20.1011003 18.4707486,19.855583 18.4040315,20.0564608 C18.3817925,20.12342 18.3706729,20.2350188 18.3706729,20.3912571 C18.3706729,20.949251 18.2038802,21.5797841 17.8702948,22.2828564 C17.5367094,22.9859288 17.2086837,23.605302 16.8862178,24.1409761 C16.5637519,24.6766503 16.3302421,25.3239232 16.1856884,26.0827949 C16.0411347,26.8416666 16.1690091,27.5447389 16.5693116,28.1920119 C16.057814,28.3259304 15.3628443,29.3303194 14.4844027,31.2051789 C13.6059611,33.0800384 13.0777842,34.6535812 12.899872,35.9258073 C12.8553939,36.3275629 12.8387146,37.0975945 12.8498341,38.2359021 C12.8609537,39.3742096 12.7997963,40.0326424 12.6663622,40.2112005 C12.4884499,40.7468746 12.165984,40.7803543 11.6989644,40.3116394 C10.9873155,39.6197269 10.587013,38.5706984 10.4980569,37.1645538 C10.4535788,36.5396006 10.4980569,35.9146474 10.6314911,35.2896943 C10.7204472,34.8656189 10.7093277,34.6647411 10.5981325,34.6870609 L10.4646984,34.854459 C9.66409333,36.3052432 9.77528847,38.1577829 10.7982838,40.4120783 C10.9094789,40.6799154 11.1874668,40.9923919 11.6322473,41.349508 C12.0770279,41.7066241 12.3438962,41.9298217 12.4328524,42.0191007 C12.8776329,42.5324551 14.0340624,43.5424241 15.9021408,45.0490076 C17.7702192,46.5555911 18.804334,47.4093218 19.0044852,47.6101996 C19.3603097,47.944996 19.5549012,48.3690713 19.5882597,48.8824257 C19.6216183,49.3957801 19.4659451,49.8756548 19.1212401,50.32205 C18.7765352,50.7684451 18.2705973,51.0251223 17.6034265,51.0920816 C17.7813387,51.4268779 18.1038046,51.9234925 18.5708242,52.5819253 C19.0378438,53.2403581 19.3491902,53.8429915 19.5048634,54.3898255 C19.6605366,54.9366595 19.7383732,55.7234309 19.7383732,56.7501397 C20.7613685,56.2144656 20.8392051,55.1877568 19.971883,53.6700134 C19.8829269,53.4914553 19.766172,53.3128973 19.6216183,53.1343392 C19.4770646,52.9557812 19.3714292,52.8218626 19.3047121,52.7325836 C19.237995,52.6433046 19.215756,52.5763453 19.237995,52.5317058 C19.3047121,52.420107 19.4492658,52.3140882 19.6716561,52.2136493 C19.8940464,52.1132104 20.1164367,52.1411101 20.3388269,52.2973484 C21.3618223,53.4579757 23.2076616,53.8597313 25.876345,53.5026152 C28.8341358,53.1678189 30.8022898,52.1969095 31.780807,50.589887 C32.2923047,49.7417363 32.6703682,49.40694 32.9149975,49.585498 C33.1818658,49.7194166 33.293061,50.2997302 33.2485829,51.326439 C33.2263439,51.8844329 32.9705951,52.9111417 32.4813364,54.4065653 C32.2811852,54.9199197 32.2144681,55.3384151 32.2811852,55.6620516 C32.3479023,55.9856881 32.6147706,56.1586662 33.0817902,56.1809859 C33.1485073,55.7569106 33.3097402,54.8976 33.5654891,53.6030541 C33.8212379,52.3085083 33.9713513,51.3041192 34.0158294,50.589887 C34.0603075,50.1211722 33.9880306,49.3009211 33.7989989,48.1291339 C33.6099671,46.9573467 33.5265708,45.8748386 33.5488098,44.8816094 C33.5710488,43.8883803 33.8267977,43.1016089 34.3160563,42.5212952 C34.6496417,42.1195396 35.2167369,41.9186618 36.0173419,41.9186618 C36.039581,41.0928308 36.4232042,40.5013573 37.1682117,40.1442412 C37.9132191,39.7871251 38.7193839,39.6699464 39.586706,39.7927051 C40.4540281,39.9154637 41.121199,40.166561 41.5882186,40.5459968 Z M20.6390538,12.8583395 C20.7057709,12.4789036 20.6779721,12.1441073 20.5556575,11.8539504 C20.4333428,11.5637936 20.3054684,11.3963954 20.1720342,11.3517559 C19.971883,11.3071164 19.8718074,11.3852356 19.8718074,11.5861134 C19.9162854,11.6977121 19.971883,11.7646714 20.0386001,11.7869912 C20.2609903,11.7869912 20.3388269,11.9543893 20.2721099,12.2891857 C20.2053928,12.7355808 20.2943489,12.9587784 20.5389782,12.9587784 C20.6056953,12.9587784 20.6390538,12.9252987 20.6390538,12.8583395 Z M34.6162832,19.4538274 C34.5718051,19.2752693 34.4995283,19.1469307 34.3994526,19.0688116 C34.299377,18.9906924 34.1548233,18.934893 33.9657916,18.9014134 C33.7767598,18.8679338 33.6155269,18.8065544 33.4820927,18.7172754 C33.3708976,18.6503161 33.2652622,18.5610371 33.1651866,18.4494383 C33.0651109,18.3378396 32.9872743,18.2485605 32.9316768,18.1816013 C32.8760792,18.114642 32.8149219,18.0421028 32.7482048,17.9639836 C32.6814877,17.8858645 32.6370096,17.841225 32.6147706,17.8300651 C32.5925316,17.8189052 32.5480535,17.8356451 32.4813364,17.8802846 C32.16999,18.2374007 32.2478266,18.7228554 32.7148462,19.3366486 C33.1818658,19.9504419 33.6155269,20.3019781 34.0158294,20.3912571 C34.2159807,20.4135769 34.3772136,20.3242979 34.4995283,20.12342 C34.6218429,19.9225422 34.6607612,19.6993447 34.6162832,19.4538274 Z M28.6784626,12.3226653 C28.6784626,12.077148 28.622865,11.8595304 28.5116699,11.6698124 C28.4004747,11.4800945 28.2781601,11.340596 28.1447259,11.251317 C28.0112917,11.162038 27.9112161,11.1285584 27.844499,11.1508781 C27.5331526,11.1731979 27.455316,11.251317 27.6109892,11.3852356 L27.7444234,11.4521948 C28.0557698,11.5414738 28.255921,11.8874301 28.3448772,12.4900635 C28.3448772,12.5570227 28.4338333,12.534703 28.6117455,12.4231042 L28.6784626,12.3226653 Z M30.4798239,4.52191057 C30.4798239,4.47727106 30.4520251,4.42147167 30.3964275,4.3545124 C30.34083,4.28755314 30.2407543,4.20943399 30.0962006,4.12015497 C29.951647,4.03087594 29.8460116,3.96391667 29.7792945,3.91927716 C29.4457091,3.58448082 29.1788407,3.41708265 28.9786895,3.41708265 C28.7785382,3.43940241 28.6506638,3.52310149 28.5950662,3.66817991 C28.5394687,3.81325832 28.5283491,3.95833673 28.5617077,4.10341515 C28.5950662,4.24849356 28.5895065,4.38799204 28.5450284,4.52191057 C28.5227894,4.6111896 28.4560723,4.72836832 28.3448772,4.87344673 C28.233682,5.01852515 28.1669649,5.11896405 28.1447259,5.17476344 C28.1224869,5.23056283 28.1558454,5.32542179 28.2448015,5.45934033 C28.3337576,5.5262996 28.4227138,5.5262996 28.5116699,5.45934033 C28.600626,5.39238106 28.7229406,5.29194216 28.8786138,5.15802362 C29.034287,5.02410509 29.2010798,4.92366618 29.378992,4.85670692 C29.401231,4.83438716 29.5013066,4.82322728 29.6792189,4.82322728 C29.8571311,4.82322728 30.0239238,4.80090752 30.179597,4.75626801 C30.3352702,4.7116285 30.4353458,4.63350935 30.4798239,4.52191057 Z M49.3274004,49.4180998 C49.772181,49.6859369 50.1168859,49.9593539 50.3615152,50.2383509 C50.6061446,50.5173478 50.7395787,50.7851849 50.7618178,51.0418621 C50.7840568,51.2985393 50.756258,51.5496366 50.6784214,51.7951539 C50.6005848,52.0406712 50.4282323,52.2861885 50.161364,52.5317058 C49.8944957,52.7772231 49.6331871,52.9948408 49.3774382,53.1845587 C49.1216894,53.3742766 48.788104,53.5807344 48.376682,53.8039319 C47.9652599,54.0271295 47.6149952,54.2112675 47.3258879,54.3563459 C47.0367805,54.5014243 46.6809561,54.6744024 46.2584145,54.8752802 C45.835873,55.076158 45.5356461,55.2212364 45.3577339,55.3105154 C44.5126508,55.7345908 43.5619323,56.359544 42.5055785,57.185375 C41.4492246,58.0112059 40.6097013,58.7254381 39.9870085,59.3280715 C39.608945,59.6851876 38.8528181,59.9028052 37.7186276,59.9809244 C36.5844372,60.0590435 35.5948004,59.8972253 34.7497173,59.4954697 C34.3494148,59.2945919 34.0213892,59.0323348 33.7656403,58.7086983 C33.5098915,58.3850618 33.3264195,58.1004849 33.2152244,57.8549676 C33.1040292,57.6094503 32.8593999,57.3918327 32.4813364,57.2021148 C32.103273,57.0123968 31.5806558,56.906378 30.9134849,56.8840582 C29.9349677,56.8617385 28.4894308,56.8505786 26.5768744,56.8505786 C26.1543329,56.8505786 25.5205206,56.8673184 24.6754375,56.9007981 C23.8303544,56.9342777 23.1854226,56.9621774 22.740642,56.9844971 C21.7621248,57.0068169 20.8781234,57.1742151 20.0886379,57.4866917 C19.2991524,57.7991682 18.7042584,58.1339646 18.3039559,58.4910807 C17.9036533,58.8481968 17.4199545,59.1662533 16.8528593,59.4452502 C16.285764,59.7242472 15.69087,59.8525858 15.0681772,59.830266 C14.4232454,59.8079463 13.1889793,59.4619901 11.365379,58.7923974 C9.54177867,58.1228047 7.9183296,57.6429299 6.49503179,57.3527731 C6.07249025,57.2634941 5.50539502,57.1574753 4.79374612,57.0347166 C4.08209721,56.9119579 3.5261215,56.811519 3.12581899,56.7333999 C2.72551648,56.6552807 2.28629567,56.5492619 1.80815656,56.4153434 C1.33001745,56.2814248 0.957513722,56.1196066 0.690645381,55.9298887 C0.423777041,55.7401707 0.234745299,55.5225531 0.123550158,55.2770358 C-0.0988401261,54.7636814 -0.0210035268,54.0215495 0.357059956,53.0506401 C0.735123438,52.0797308 0.935274693,51.4715174 0.957513722,51.2260001 C0.97975275,50.868884 0.935274693,50.4224889 0.824079551,49.8868147 C0.712884409,49.3511406 0.601689268,48.8768458 0.490494126,48.4639303 C0.379298984,48.0510148 0.32926117,47.6436792 0.340380684,47.2419236 C0.351500198,46.840168 0.468255097,46.5388513 0.690645381,46.3379735 C1.00199178,46.0701364 1.63580409,45.9138982 2.59208231,45.8692586 C3.54836053,45.8246191 4.21553138,45.6907006 4.59359486,45.467503 C5.26076571,45.0657474 5.72778531,44.6751517 5.99465365,44.2957158 C6.26152199,43.91628 6.39495616,43.3471262 6.39495616,42.5882545 C6.86197575,44.2175967 6.5061513,45.4005438 5.3274828,46.1370957 C4.61583389,46.5834908 3.69291421,46.750889 2.55872376,46.6392902 C1.8025968,46.572331 1.32445769,46.6839297 1.12430643,46.9740866 C0.835199066,47.3088829 0.890796636,47.944996 1.29109915,48.8824257 C1.3355772,49.0163442 1.42453332,49.217222 1.55796749,49.4850591 C1.69140166,49.7528962 1.78591753,49.953774 1.8415151,50.0876925 C1.89711267,50.2216111 1.94715048,50.411329 1.99162854,50.6568463 C2.0361066,50.9023636 2.04722611,51.1478809 2.02498708,51.3933983 C2.02498708,51.7281946 1.83595534,52.2750286 1.45789186,53.0339003 C1.07982838,53.792772 0.924155179,54.3284462 0.990872264,54.6409228 C1.05758935,55.0203586 1.46901137,55.3105154 2.22513834,55.5113932 C2.66991891,55.6453118 3.60951785,55.8517695 5.04393518,56.1307665 C6.47835251,56.4097634 7.58474418,56.6385409 8.36311017,56.817099 C8.89684685,56.9510175 9.7196909,57.1965348 10.8316423,57.5536509 C11.9435937,57.910767 12.8609537,58.1674442 13.5837221,58.3236825 C14.3064905,58.4799208 14.9236235,58.5245603 15.4351212,58.457601 C16.3913994,58.3236825 17.1086081,58.0112059 17.5867472,57.5201713 C18.0648863,57.0291367 18.3206351,56.4934625 18.3539937,55.9131489 C18.3873522,55.3328352 18.3039559,54.6799823 18.1038046,53.9545903 C17.9036533,53.2291982 17.6923826,52.6488845 17.4699923,52.2136493 C17.247602,51.778414 17.0252117,51.3710785 16.8028214,50.9916426 C14.111899,46.750889 12.2327011,44.0501985 11.1652277,42.8895712 C9.65297381,41.2379093 8.39646871,40.7915141 7.39571244,41.5503858 C7.15108312,41.7512636 6.98429041,41.5838655 6.8953343,41.0481913 C6.82861721,40.6910752 6.80637818,40.2669999 6.82861721,39.7759652 C6.85085624,39.1286923 6.96205138,38.5483787 7.16220264,38.0350243 C7.36235389,37.5216699 7.62922223,36.9971556 7.96280766,36.4614815 C8.29639308,35.9258073 8.5410224,35.4570924 8.69669559,35.0553368 C8.87460782,34.586622 9.16927495,33.7831107 9.58069697,32.6448032 C9.992119,31.5064956 10.3201447,30.6360251 10.564774,30.0333917 C10.8094033,29.4307583 11.1429887,28.7500058 11.5655303,27.9911341 C11.9880718,27.2322623 12.4217328,26.6296289 12.8665134,26.1832338 C15.3128065,22.9915087 16.6916263,20.8153325 17.0029727,19.6547052 C16.7361044,17.1548925 16.5581921,13.6953303 16.469236,9.27601861 C16.424758,7.26724057 16.6916263,5.57651905 17.269841,4.20385405 C17.8480558,2.83118905 19.0267243,1.6649818 20.8058465,0.705232292 C21.6731686,0.236517415 22.8295981,0.00215997639 24.275135,0.00215997639 C25.4538035,-0.0201597796 26.632472,0.130498574 27.8111405,0.454135036 C28.989809,0.777771499 29.9794457,1.24090644 30.7800508,1.84353985 C32.0476754,2.7809696 33.0651109,4.13689478 33.8323574,5.91131539 C34.5996039,7.68573599 34.9276296,9.331818 34.8164344,10.8495614 C34.7052393,12.9699382 35.0388247,15.3581521 35.8171907,18.0142031 C36.5733177,20.5363355 38.052213,22.9691889 40.2538769,25.3127633 C41.4770234,26.6296289 42.5834151,28.448689 43.5730518,30.7699437 C44.5626886,33.0911983 45.2242997,35.222735 45.5578851,37.1645538 C45.7357973,38.2582218 45.7913949,39.2012315 45.7246778,39.9935829 C45.6579607,40.7859342 45.5245266,41.4053074 45.3243753,41.8517026 C45.1242241,42.2980977 44.9018338,42.543615 44.6572045,42.5882545 C44.4348142,42.632894 44.1735056,42.8449317 43.8732787,43.2243675 C43.5730518,43.6038034 43.272825,43.9999791 42.9725981,44.4128946 C42.6723712,44.82581 42.2220309,45.199666 41.6215771,45.5344623 C41.0211233,45.8692586 40.342833,46.0254969 39.586706,46.0031772 C39.1864035,45.9808574 38.8361388,45.925058 38.5359119,45.835779 C38.235685,45.7465 37.985496,45.5958416 37.7853447,45.3838039 C37.5851934,45.1717663 37.43508,44.9987882 37.3350044,44.8648696 C37.2349288,44.7309511 37.1070543,44.5021736 36.9513811,44.1785371 C36.7957079,43.8549007 36.6956323,43.637283 36.6511543,43.5256843 C36.1618956,42.6998533 35.7059956,42.3650569 35.283454,42.5212952 C34.8609125,42.6775335 34.5495661,43.2243675 34.3494148,44.1617973 C34.1492636,45.0992271 34.2271002,46.1817352 34.5829246,47.4093218 C35.0277052,48.9717047 35.0388247,51.1478809 34.6162832,53.9378504 C34.3938929,55.3886346 34.5940441,56.5102023 35.2167369,57.3025537 C35.8394297,58.094905 36.6511543,58.463181 37.6519105,58.4073816 C38.6526668,58.3515822 39.5978255,57.9554065 40.4873867,57.2188546 C41.7994893,56.1251865 42.7946858,55.3830547 43.4729762,54.9924589 C44.1512666,54.6018632 45.3021363,54.1275684 46.9255854,53.5695745 C48.1042539,53.1678189 48.9604565,52.7604833 49.4941931,52.3475678 C50.0279298,51.9346523 50.2336408,51.5496366 50.1113262,51.1925205 C49.9890115,50.8354044 49.7110237,50.5173478 49.2773626,50.2383509 C48.8437016,49.9593539 48.2710466,49.6970968 47.5593977,49.4515795 C46.8255097,49.2060622 46.2750938,48.670388 45.9081498,47.844557 C45.5412058,47.0187261 45.3744131,46.2096349 45.4077717,45.4172836 C45.4411302,44.6249322 45.6134827,44.094838 45.9248291,43.827001 C45.9470681,44.5189134 46.0360242,45.1494465 46.1916974,45.7186003 C46.3473706,46.2877541 46.5086036,46.7397291 46.6753963,47.0745255 C46.842189,47.4093218 47.0701391,47.7273783 47.3592464,48.028695 C47.6483538,48.3300117 47.8818636,48.5420494 48.0597758,48.6648081 C48.237688,48.7875667 48.4767576,48.9326452 48.7769845,49.1000433 C49.0772114,49.2674415 49.2606833,49.3734603 49.3274004,49.4180998 Z" id="Shape"></path>
        </g>
    </g>
</svg>