<?xml version="1.0" standalone="no"?>
<!DOCTYPE svg PUBLIC "-//W3C//DTD SVG 20010904//EN"
 "http://www.w3.org/TR/2001/REC-SVG-20010904/DTD/svg10.dtd">
<svg version="1.0" xmlns="http://www.w3.org/2000/svg"
 width="512.000000pt" height="512.000000pt" viewBox="0 0 512.000000 512.000000"
 preserveAspectRatio="xMidYMid meet">

<g transform="translate(0.000000,512.000000) scale(0.100000,-0.100000)"
fill="#000000" stroke="none">
<path d="M145 4776 c-112 -53 -137 -108 -143 -308 l-4 -148 2562 0 2562 0 -4
158 c-3 156 -3 159 -33 208 -19 30 -49 60 -79 79 l-49 30 -2381 2 -2381 3 -50
-24z m4381 -130 c28 -28 34 -42 34 -75 0 -23 -7 -55 -15 -71 -33 -64 75 -60
-1582 -60 -1186 0 -1513 3 -1533 13 -32 16 -70 73 -70 104 0 38 27 86 58 105
25 16 134 17 1550 18 l1524 0 34 -34z m-4155 -37 c45 -45 -4 -130 -66 -115
-29 7 -56 56 -47 88 12 46 78 62 113 27z m208 -5 c27 -35 26 -59 -4 -89 -30
-30 -54 -31 -89 -4 -32 25 -34 64 -4 96 29 31 71 30 97 -3z m201 6 c29 -29 26
-74 -6 -99 -33 -26 -55 -26 -85 -3 -31 26 -31 78 0 104 30 24 66 23 91 -2z"/>
<path d="M560 3480 l0 -440 570 0 570 0 0 440 0 440 -570 0 -570 0 0 -440z"/>
<path d="M1950 3480 l0 -440 585 0 585 0 0 440 0 440 -585 0 -585 0 0 -440z"/>
<path d="M3380 3480 l0 -440 590 0 590 0 0 440 0 440 -590 0 -590 0 0 -440z"/>
<path d="M560 2360 l0 -440 570 0 570 0 0 440 0 440 -570 0 -570 0 0 -440z"/>
<path d="M1950 2760 l0 -40 1305 0 1305 0 0 40 0 40 -1305 0 -1305 0 0 -40z"/>
<path d="M1950 2520 l0 -40 1305 0 1305 0 0 40 0 40 -1305 0 -1305 0 0 -40z"/>
<path d="M1950 2280 l0 -40 1305 0 1305 0 0 40 0 40 -1305 0 -1305 0 0 -40z"/>
<path d="M1950 2040 l0 -40 1305 0 1305 0 0 40 0 40 -1305 0 -1305 0 0 -40z"/>
<path d="M1950 1800 l0 -40 1305 0 1305 0 0 40 0 40 -1305 0 -1305 0 0 -40z"/>
<path d="M560 1240 l0 -440 570 0 570 0 0 440 0 440 -570 0 -570 0 0 -440z"/>
<path d="M1950 1560 l0 -40 1305 0 1305 0 0 40 0 40 -1305 0 -1305 0 0 -40z"/>
<path d="M1950 1320 l0 -40 1305 0 1305 0 0 40 0 40 -1305 0 -1305 0 0 -40z"/>
<path d="M1950 1080 l0 -40 1305 0 1305 0 0 40 0 40 -1305 0 -1305 0 0 -40z"/>
<path d="M1950 840 l0 -40 1305 0 1305 0 0 40 0 40 -1305 0 -1305 0 0 -40z"/>
</g>
</svg>
