
<svg width="60px" height="60px" viewBox="0 0 60 60" version="1.1" xmlns="http://www.w3.org/2000/svg" xmlns:xlink="http://www.w3.org/1999/xlink">
    <!-- Generator: Sketch 59 (86127) - https://sketch.com -->
    <title>list copy</title>
    <desc>Created with Sketch.</desc>
    <g id="list-copy" stroke="none" stroke-width="1" fill="none" fill-rule="evenodd">
        <path d="M8,44 C9.1045695,44 10,44.8954305 10,46 L10,52 C10,53.1045695 9.1045695,54 8,54 L2,54 C0.8954305,54 1.3527075e-16,53.1045695 0,52 L0,46 C-1.3527075e-16,44.8954305 0.8954305,44 2,44 L8,44 Z M58,46 C59.1045695,46 60,46.8954305 60,48 L60,50 C60,51.1045695 59.1045695,52 58,52 L18,52 C16.8954305,52 16,51.1045695 16,50 L16,48 C16,46.8954305 16.8954305,46 18,46 L58,46 Z M8,25 C9.1045695,25 10,25.8954305 10,27 L10,33 C10,34.1045695 9.1045695,35 8,35 L2,35 C0.8954305,35 1.3527075e-16,34.1045695 0,33 L0,27 C-1.3527075e-16,25.8954305 0.8954305,25 2,25 L8,25 Z M58,27 C59.1045695,27 60,27.8954305 60,29 L60,31 C60,32.1045695 59.1045695,33 58,33 L18,33 C16.8954305,33 16,32.1045695 16,31 L16,29 C16,27.8954305 16.8954305,27 18,27 L58,27 Z M8,6 C9.1045695,6 10,6.8954305 10,8 L10,14 C10,15.1045695 9.1045695,16 8,16 L2,16 C0.8954305,16 1.3527075e-16,15.1045695 0,14 L0,8 C-1.3527075e-16,6.8954305 0.8954305,6 2,6 L8,6 Z M58,8 C59.1045695,8 60,8.8954305 60,10 L60,12 C60,13.1045695 59.1045695,14 58,14 L18,14 C16.8954305,14 16,13.1045695 16,12 L16,10 C16,8.8954305 16.8954305,8 18,8 L58,8 Z" id="Combined-Shape" fill="#000000"></path>
    </g>
</svg>
