<svg width="20" height="20" viewBox="0 0 20 20" fill="none" xmlns="http://www.w3.org/2000/svg">
<mask id="mask0_3_156" style="mask-type:alpha" maskUnits="userSpaceOnUse" x="0" y="0" width="20" height="20">
<rect width="20" height="20" fill="#D9D9D9"/>
</mask>
<g mask="url(#mask0_3_156)">
<path d="M9.99999 13.7083C10.2361 13.7083 10.4342 13.625 10.5942 13.4583C10.7536 13.2917 10.8333 13.0903 10.8333 12.8542C10.8333 12.6181 10.7536 12.4167 10.5942 12.25C10.4342 12.0833 10.2361 12 9.99999 12C9.74999 12 9.54527 12.0833 9.38582 12.25C9.22582 12.4167 9.14582 12.6181 9.14582 12.8542C9.14582 13.0903 9.22582 13.2917 9.38582 13.4583C9.54527 13.625 9.74999 13.7083 9.99999 13.7083ZM10.6042 10.1667C10.6319 9.93056 10.705 9.72222 10.8233 9.54167C10.9411 9.36111 11.1528 9.125 11.4583 8.83333C11.9167 8.375 12.2328 7.99306 12.4067 7.6875C12.58 7.38195 12.6667 7.03472 12.6667 6.64583C12.6667 5.96528 12.4272 5.41306 11.9483 4.98917C11.4689 4.56583 10.868 4.35417 10.1458 4.35417C9.59027 4.35417 9.09721 4.47222 8.66666 4.70833C8.2361 4.94445 7.90971 5.25 7.68749 5.625C7.59027 5.77778 7.56582 5.9375 7.61416 6.10417C7.66305 6.27083 7.76388 6.38195 7.91666 6.4375C8.05555 6.50695 8.19777 6.51028 8.34332 6.4475C8.48943 6.38528 8.60416 6.29167 8.68749 6.16667C8.82638 5.94445 9.01749 5.77083 9.26082 5.64583C9.5036 5.52083 9.77777 5.45833 10.0833 5.45833C10.5417 5.45833 10.8925 5.57639 11.1358 5.8125C11.3786 6.04861 11.5 6.34028 11.5 6.6875C11.5 6.95139 11.4203 7.21528 11.2608 7.47917C11.1008 7.74306 10.875 8.00695 10.5833 8.27083C10.2083 8.60417 9.92721 8.93056 9.73999 9.25C9.55221 9.56945 9.45832 9.875 9.45832 10.1667C9.45832 10.3194 9.51388 10.4478 9.62499 10.5517C9.7361 10.6561 9.86805 10.7083 10.0208 10.7083C10.1736 10.7083 10.3022 10.6561 10.4067 10.5517C10.5105 10.4478 10.5764 10.3194 10.6042 10.1667ZM9.47916 18.0417L7.66666 16.25H4.41666C3.99999 16.25 3.64582 16.1042 3.35416 15.8125C3.06249 15.5208 2.91666 15.1667 2.91666 14.75V3.58333C2.91666 3.16667 3.06249 2.8125 3.35416 2.52083C3.64582 2.22917 3.99999 2.08333 4.41666 2.08333H15.5833C16 2.08333 16.3542 2.22917 16.6458 2.52083C16.9375 2.8125 17.0833 3.16667 17.0833 3.58333V14.75C17.0833 15.1667 16.9375 15.5208 16.6458 15.8125C16.3542 16.1042 16 16.25 15.5833 16.25H12.3333L10.5208 18.0417C10.3819 18.1806 10.2083 18.25 9.99999 18.25C9.79166 18.25 9.61805 18.1806 9.47916 18.0417ZM4.41666 15H8.18749L9.99999 16.8125L11.8125 15H15.5833C15.6528 15 15.7119 14.9758 15.7608 14.9275C15.8092 14.8786 15.8333 14.8194 15.8333 14.75V3.58333C15.8333 3.51389 15.8092 3.45472 15.7608 3.40583C15.7119 3.3575 15.6528 3.33333 15.5833 3.33333H4.41666C4.34721 3.33333 4.28832 3.3575 4.23999 3.40583C4.1911 3.45472 4.16666 3.51389 4.16666 3.58333V14.75C4.16666 14.8194 4.1911 14.8786 4.23999 14.9275C4.28832 14.9758 4.34721 15 4.41666 15Z" fill="#45526C"/>
</g>
</svg>
