<?xml version="1.0" encoding="UTF-8"?>
<svg width="60px" height="60px" viewBox="0 0 60 60" version="1.1" xmlns="http://www.w3.org/2000/svg" xmlns:xlink="http://www.w3.org/1999/xlink">
    <!-- Generator: Sketch 59 (86127) - https://sketch.com -->
    <title>location</title>
    <desc>Created with Sketch.</desc>
    <g id="location" stroke="none" stroke-width="1" fill="none" fill-rule="evenodd">
        <path d="M36.6352963,22.0160864 C36.6352963,26.4579176 33.0166972,30.0615835 28.5529428,30.0615835 C24.0885529,30.0615835 20.4705892,26.4579176 20.4705892,22.0160864 C20.4705892,17.5729843 24.0891884,13.9705892 28.5529428,13.9705892 C33.0176504,13.9702715 36.6352963,17.5726665 36.6352963,22.0160864 M50.1058856,21.954661 C50.1058856,10.1053506 40.4569012,0.5 28.5529428,0.5 C16.6498316,0.5 7,10.1053506 7,21.954661 C7,27.1644432 8.86735405,31.9412772 11.9704322,35.656922 L28.5715824,59.5 L45.4154718,35.3091231 C46.0204131,34.5554881 46.5745191,33.7611849 47.0744006,32.9262133 L47.2446993,32.6830506 L47.2167398,32.6830506 C49.0510508,29.5253244 50.1058856,25.8643276 50.1058856,21.954661" id="Shape" fill="#333333" fill-rule="nonzero"></path>
    </g>
</svg>