<svg width="22" height="11" viewBox="0 0 22 11" fill="none" xmlns="http://www.w3.org/2000/svg">
<path d="M0.159485 10.7403H1.9717V2.99561H0.159485V10.7403ZM1.062 1.98C1.62963 1.98 2.07357 1.54163 2.07357 0.993695C2.07357 0.438281 1.62963 0 1.062 0C0.501555 0 0.0576172 0.438367 0.0576172 0.993695C0.0576172 1.54163 0.501555 1.98 1.062 1.98ZM8.00527 0.0218281C4.94136 0.0218281 3.01991 2.11879 3.01991 5.4725C3.01991 8.82613 4.94119 10.9158 8.00535 10.9158C11.062 10.9158 12.9834 8.82613 12.9834 5.4725C12.9834 2.11879 11.0622 0.0218281 8.00535 0.0218281H8.00527ZM8.00527 1.62929C9.8757 1.62929 11.0693 3.11979 11.0693 5.47241C11.0693 7.81773 9.8757 9.30832 8.00535 9.30832C6.12765 9.30832 4.94136 7.81782 4.94136 5.47241C4.94136 3.11979 6.12773 1.62929 8.00535 1.62929H8.00527ZM13.748 7.77391C13.828 9.71747 15.4146 10.9156 17.8308 10.9156C20.3708 10.9156 21.972 9.65895 21.972 7.65695C21.972 6.08609 21.0696 5.20205 18.9371 4.71255L17.729 4.43498C16.4408 4.12809 15.9095 3.71895 15.9095 3.01752C15.9095 2.1407 16.7101 1.55624 17.8964 1.55624C19.0972 1.55624 19.9196 2.14809 20.007 3.1344H21.7973C21.7536 1.27858 20.2253 0.0218281 17.9109 0.0218281C15.6257 0.0218281 14.0027 1.2858 14.0027 3.15631C14.0027 4.66142 14.9197 5.59659 16.8555 6.04235L18.2165 6.36376C19.5411 6.67803 20.0797 7.1164 20.0797 7.87626C20.0797 8.75299 19.199 9.38137 17.9327 9.38137C16.6519 9.38137 15.684 8.74569 15.5675 7.77391H13.748Z" fill="#0C862F"/>
</svg>
