<svg width="20" height="18" viewBox="0 0 20 18" fill="none" xmlns="http://www.w3.org/2000/svg">
  <path d="M8.9 4C8.9 3.73478 9.00536 3.48043 9.19289 3.29289C9.38043 3.10536 9.63478 3 9.9 3C10.1652 3 10.4196 3.10536 10.6071 3.29289C10.7946 3.48043 10.9 3.73478 10.9 4V8.47L12.11 8.6L17.05 10.79C17.58 11.03 17.9 11.56 17.9 12.14V16.5C17.87 17.32 17.22 17.97 16.4 18H9.9C9.52 18 9.16 17.85 8.9 17.57L4 13.37L4.74 12.6C4.93 12.39 5.2 12.28 5.48 12.28H5.7L8.9 14V4Z" fill="#24292E"/>
  <path d="M4 0H0V9H4V7.6H1.4V1.4H4V0Z" fill="#24292E"/>
  <path d="M16 7.6H18.6V1.4H16V0H20V9H16V7.6Z" fill="#24292E"/>
</svg>
