<?xml version="1.0" encoding="UTF-8"?>
<svg width="60px" height="60px" viewBox="0 0 60 60" version="1.1" xmlns="http://www.w3.org/2000/svg" xmlns:xlink="http://www.w3.org/1999/xlink">
    <!-- Generator: Sketch 59 (86127) - https://sketch.com -->
    <title>love copy</title>
    <desc>Created with Sketch.</desc>
    <g id="love-copy" stroke="none" stroke-width="1" fill="none" fill-rule="evenodd">
        <path d="M30.0670672,45.1031978 C28.1841623,45.1031978 26.3583152,45.8981978 25.0610028,47.2871978 C21.0429378,51.5771978 14.5323513,52.0541978 10.4572286,49.1921978 C3.92261776,44.6051978 5.32503654,35.8031978 9.8416058,29.3651978 C11.4542372,27.0701978 13.4242302,24.7391978 16.0398764,22.0331978 C16.6765205,21.3761978 29.7097057,8.39219782 30.367371,9.02219782 C36.9650457,15.3521978 47.5357397,23.9471978 52.0493059,32.2001978 C60.3707244,47.4131978 43.7549148,56.6261978 35.0791378,47.2991978 C33.7818253,45.9041978 31.9529751,45.1031978 30.0670672,45.1031978 Z M32.6627411,53.2861813 C42.4077564,62.5500174 59.9543511,55.2601813 59.9543511,41.7571813 C59.9543511,37.6801813 59.9933906,38.0401813 59.9933906,38.0401813 C60.0984969,38.0401813 58.9393243,32.4451813 57.2786442,29.4091813 C52.2065129,20.1361813 41.5517338,11.5501813 34.4915913,4.77918133 C31.9720424,2.36418133 28.1461719,2.44518133 25.5845804,4.79418133 C19.7616896,10.1311813 10.2450619,18.3781813 4.89064502,26.0071813 C-2.52986206,36.5761813 -1.89922406,49.9831813 9.49730542,55.6891813 C12.5033465,57.1951813 19.9477653,57.6647174 27.5185369,53.2021813 C29.8650841,51.9830369 30.4405048,51.2976402 32.6627411,53.2861813 Z" id="leaf-[#97]" fill="#000000" transform="translate(30.000000, 30.218591) scale(1, -1) translate(-30.000000, -30.218591) "></path>
    </g>
</svg>