<svg width="16" height="14" viewBox="0 0 16 14" fill="none" xmlns="http://www.w3.org/2000/svg">
<path d="M5.75 6.05574C7.40686 6.05574 8.75 4.88276 8.75 3.43583C8.75 1.98889 7.40686 0.815918 5.75 0.815918C4.09315 0.815918 2.75 1.98889 2.75 3.43583C2.75 4.88276 4.09315 6.05574 5.75 6.05574Z" stroke="#2D4A60" stroke-width="1.6" stroke-linecap="round" stroke-linejoin="round"/>
<path d="M1.25 12.6056V11.2957C1.25 10.6008 1.56607 9.93446 2.12868 9.44314C2.69129 8.95181 3.45435 8.67578 4.25 8.67578H7.25C8.04565 8.67578 8.80871 8.95181 9.37132 9.44314C9.93393 9.93446 10.25 10.6008 10.25 11.2957V12.6056" stroke="#2D4A60" stroke-width="1.6" stroke-linecap="round" stroke-linejoin="round"/>
<path d="M11 0.900879C11.6453 1.04517 12.2173 1.37292 12.6257 1.83246C13.0342 2.292 13.2559 2.85719 13.2559 3.43892C13.2559 4.02065 13.0342 4.58583 12.6257 5.04537C12.2173 5.50491 11.6453 5.83266 11 5.97695" stroke="#2D4A60" stroke-width="1.6" stroke-linecap="round" stroke-linejoin="round"/>
<path d="M14.75 12.6055V11.2956C14.7462 10.7173 14.5234 10.1565 14.1165 9.70033C13.7095 9.2442 13.1411 8.91848 12.5 8.77393" stroke="#2D4A60" stroke-width="1.6" stroke-linecap="round" stroke-linejoin="round"/>
</svg>
