<svg width="19" height="20" viewBox="0 0 19 20" fill="none" xmlns="http://www.w3.org/2000/svg">
  <path d="M3.07641 0C2.26049 0 1.478 0.324121 0.901059 0.901059C0.324121 1.478 0 2.26049 0 3.07641V12.301C0 13.1169 0.324121 13.8994 0.901059 14.4764C1.478 15.0533 2.26049 15.3774 3.07641 15.3774H6.16051V16.9326H3.85474C3.65076 16.9326 3.45514 17.0136 3.3109 17.1578C3.16667 17.3021 3.08564 17.4977 3.08564 17.7017C3.08564 17.9056 3.16667 18.1013 3.3109 18.2455C3.45514 18.3897 3.65076 18.4708 3.85474 18.4708H9.22923V16.9326H7.69871V15.379H9.23077V13.8408H3.07641C2.66845 13.8408 2.2772 13.6787 1.98873 13.3902C1.70026 13.1018 1.5382 12.7105 1.5382 12.3026V3.07641C1.5382 2.66845 1.70026 2.2772 1.98873 1.98873C2.2772 1.70026 2.66845 1.5382 3.07641 1.5382H15.382C15.79 1.5382 16.1812 1.70026 16.4697 1.98873C16.7582 2.2772 16.9202 2.66845 16.9202 3.07641V12.2641L18.1816 13.5777C18.36 13.1886 18.4585 12.7563 18.4585 12.301V3.07641C18.4585 2.26049 18.1343 1.478 17.5574 0.901059C16.9805 0.324121 16.198 0 15.382 0H3.07641ZM12.0964 9.46457C11.99 9.35418 11.8531 9.27811 11.7031 9.24613C11.5532 9.21414 11.3971 9.22771 11.2549 9.28508C11.1127 9.34245 10.9909 9.441 10.9052 9.56809C10.8194 9.69518 10.7736 9.84501 10.7736 9.99833L10.7674 19.2306C10.7674 19.3934 10.819 19.552 10.9148 19.6836C11.0106 19.8152 11.1457 19.913 11.3006 19.9629C11.4555 20.0129 11.6223 20.0123 11.7769 19.9615C11.9315 19.9106 12.066 19.812 12.161 19.6798L14.2684 16.7449L17.9601 17.6047C18.1216 17.6422 18.291 17.6264 18.4429 17.5598C18.5947 17.4932 18.721 17.3792 18.8028 17.2349C18.8846 17.0907 18.9176 16.9238 18.8969 16.7593C18.8761 16.5947 18.8027 16.4413 18.6876 16.3219L12.0964 9.46457Z" fill="#24292E"/>
</svg>
