<svg width="20" height="20" viewBox="0 0 20 20" fill="none" xmlns="http://www.w3.org/2000/svg">
<path d="M3.33333 5.83331C3.33333 5.37498 3.70833 4.99998 4.16667 4.99998H17.5C17.9583 4.99998 18.3333 4.62498 18.3333 4.16665C18.3333 3.70831 17.9583 3.33331 17.5 3.33331H3.33333C2.41667 3.33331 1.66667 4.08331 1.66667 4.99998V14.1666H1.25C0.558333 14.1666 0 14.725 0 15.4166C0 16.1083 0.558333 16.6666 1.25 16.6666H10.4167C11.1083 16.6666 11.6667 16.1083 11.6667 15.4166C11.6667 14.725 11.1083 14.1666 10.4167 14.1666H3.33333V5.83331ZM19.1667 6.66665H14.1667C13.7083 6.66665 13.3333 7.04165 13.3333 7.49998V15.8333C13.3333 16.2916 13.7083 16.6666 14.1667 16.6666H19.1667C19.625 16.6666 20 16.2916 20 15.8333V7.49998C20 7.04165 19.625 6.66665 19.1667 6.66665ZM18.3333 14.1666H15V8.33331H18.3333V14.1666Z" fill="#24292E"/>
</svg>
