<svg width="26" height="26" viewBox="0 0 26 26" fill="none" xmlns="http://www.w3.org/2000/svg">
<path d="M18.0556 2.88889H7.94444C7.56135 2.88889 7.19395 3.04107 6.92307 3.31196C6.65218 3.58284 6.5 3.95024 6.5 4.33333V21.6667C6.5 22.0498 6.65218 22.4172 6.92307 22.688C7.19395 22.9589 7.56135 23.1111 7.94444 23.1111H18.0556C18.4386 23.1111 18.806 22.9589 19.0769 22.688C19.3478 22.4172 19.5 22.0498 19.5 21.6667V4.33333C19.5 3.95024 19.3478 3.58284 19.0769 3.31196C18.806 3.04107 18.4386 2.88889 18.0556 2.88889ZM7.94444 4.33333H18.0556V17.3333H7.94444V4.33333ZM7.94444 21.6667V18.7778H18.0556V21.6667H7.94444Z" fill="#0C862F"/>
<path d="M12.2778 19.5H13.7223V20.9444H12.2778V19.5Z" fill="#0C862F"/>
</svg>
