<svg width="15" height="18" viewBox="0 0 15 18" fill="none" xmlns="http://www.w3.org/2000/svg">
<path fill-rule="evenodd" clip-rule="evenodd" d="M0 2.5C0 1.83696 0.263392 1.20107 0.732233 0.732233C1.20107 0.263392 1.83696 0 2.5 0H9.11625C9.44774 7.07968e-05 9.76563 0.131813 10 0.36625L14.6337 5C14.8682 5.23437 14.9999 5.55226 15 5.88375V15C15 15.663 14.7366 16.2989 14.2678 16.7678C13.7989 17.2366 13.163 17.5 12.5 17.5H2.5C1.83696 17.5 1.20107 17.2366 0.732233 16.7678C0.263392 16.2989 0 15.663 0 15V2.5ZM8.75 5V1.25L13.75 6.25H10C9.66848 6.25 9.35054 6.1183 9.11612 5.88388C8.8817 5.64946 8.75 5.33152 8.75 5ZM8.125 7.5C8.125 7.33424 8.05915 7.17527 7.94194 7.05806C7.82473 6.94085 7.66576 6.875 7.5 6.875C7.33424 6.875 7.17527 6.94085 7.05806 7.05806C6.94085 7.17527 6.875 7.33424 6.875 7.5V9.375H5C4.83424 9.375 4.67527 9.44085 4.55806 9.55806C4.44085 9.67527 4.375 9.83424 4.375 10C4.375 10.1658 4.44085 10.3247 4.55806 10.4419C4.67527 10.5592 4.83424 10.625 5 10.625H6.875V12.5C6.875 12.6658 6.94085 12.8247 7.05806 12.9419C7.17527 13.0592 7.33424 13.125 7.5 13.125C7.66576 13.125 7.82473 13.0592 7.94194 12.9419C8.05915 12.8247 8.125 12.6658 8.125 12.5V10.625H10C10.1658 10.625 10.3247 10.5592 10.4419 10.4419C10.5592 10.3247 10.625 10.1658 10.625 10C10.625 9.83424 10.5592 9.67527 10.4419 9.55806C10.3247 9.44085 10.1658 9.375 10 9.375H8.125V7.5Z" fill="#0070D0"/>
</svg>
