<?xml version="1.0" encoding="UTF-8"?>
<svg width="60px" height="60px" viewBox="0 0 60 60" version="1.1" xmlns="http://www.w3.org/2000/svg" xmlns:xlink="http://www.w3.org/1999/xlink">
    <!-- Generator: Sketch 55.2 (78181) - https://sketchapp.com -->
    <title>NLP grammar ts</title>
    <desc>Created with Sketch.</desc>
    <g id="NLP-grammar-ts" stroke="none" stroke-width="1" fill="none" fill-rule="evenodd">
        <path d="M6,0 L54,0 C57.3137085,-6.08718376e-16 60,2.6862915 60,6 L60,54 C60,57.3137085 57.3137085,60 54,60 L6,60 C2.6862915,60 4.05812251e-16,57.3137085 0,54 L0,6 C-4.05812251e-16,2.6862915 2.6862915,6.08718376e-16 6,0 Z M16.6503906,36.0986328 C15.46875,36.0986328 14.6201172,35.5078125 14.6201172,34.5195312 C14.6201172,33.5634766 15.3183594,33.0263672 16.8115234,32.9296875 L19.4648438,32.7578125 L19.4648438,33.6923828 C19.4648438,35.0566406 18.2617188,36.0986328 16.6503906,36.0986328 Z M15.8662109,38.1933594 C17.4023438,38.1933594 18.6914062,37.5273438 19.3466797,36.3886719 L19.5292969,36.3886719 L19.5292969,38 L22.0966797,38 L22.0966797,29.9755859 C22.0966797,27.4833984 20.3994141,26.0117188 17.3808594,26.0117188 C14.5878906,26.0117188 12.6435547,27.3330078 12.4287109,29.40625 L14.9423828,29.40625 C15.1894531,28.6113281 16.0273438,28.1816406 17.2519531,28.1816406 C18.6914062,28.1816406 19.4648438,28.8261719 19.4648438,29.9755859 L19.4648438,30.9638672 L16.4355469,31.1464844 C13.578125,31.3183594 11.9775391,32.5429688 11.9775391,34.6699219 C11.9775391,36.8183594 13.5996094,38.1933594 15.8662109,38.1933594 Z M31.8291016,38.1933594 C34.7939453,38.1933594 36.6523438,35.8623047 36.6523438,32.1240234 C36.6523438,28.3642578 34.8046875,26.0546875 31.8291016,26.0546875 C30.2177734,26.0546875 28.8642578,26.8388672 28.2519531,28.1171875 L28.0693359,28.1171875 L28.0693359,21.7041016 L25.4052734,21.7041016 L25.4052734,38 L27.9726562,38 L27.9726562,36.1416016 L28.1552734,36.1416016 C28.8212891,37.4306641 30.1855469,38.1933594 31.8291016,38.1933594 Z M30.9912109,28.3212891 C32.8066406,28.3212891 33.9130859,29.7607422 33.9130859,32.1240234 C33.9130859,34.4873047 32.8173828,35.9267578 30.9912109,35.9267578 C29.1650391,35.9267578 28.0263672,34.4658203 28.0263672,32.1240234 C28.0263672,29.7822266 29.1757812,28.3212891 30.9912109,28.3212891 Z M49.4785156,30.2011719 C49.1992188,27.7304688 47.3730469,26.0117188 44.3544922,26.0117188 C40.8203125,26.0117188 38.7470703,28.2783203 38.7470703,32.0917969 C38.7470703,35.9589844 40.8310547,38.2363281 44.3652344,38.2363281 C47.3408203,38.2363281 49.1884766,36.5820312 49.4785156,34.1220703 L46.9433594,34.1220703 C46.6640625,35.3466797 45.7402344,36.0019531 44.3544922,36.0019531 C42.5390625,36.0019531 41.4433594,34.5625 41.4433594,32.0917969 C41.4433594,29.6533203 42.5283203,28.2460938 44.3544922,28.2460938 C45.8154297,28.2460938 46.6962891,29.0625 46.9433594,30.2011719 L49.4785156,30.2011719 Z" id="Combined-Shape" fill="#000000"></path>
    </g>
</svg>