<?xml version="1.0" encoding="UTF-8"?>
<svg width="21px" height="20px" viewBox="0 0 21 20" version="1.1" xmlns="http://www.w3.org/2000/svg" xmlns:xlink="http://www.w3.org/1999/xlink">
    <!-- Generator: Sketch 59.1 (86144) - https://sketch.com -->
    <title>Group 2 Copy</title>
    <desc>Created with Sketch.</desc>
    <g id="Page-1" stroke="none" stroke-width="1" fill="none" fill-rule="evenodd">
        <g id="Test-case-11-Copy-42" transform="translate(-409.000000, -552.000000)">
            <g id="Group-2-Copy" transform="translate(410.000000, 552.000000)">
                <path d="M1.68542856,4.6952381 L17.7431429,4.6952381 C18.1374742,4.6952381 18.4571429,5.01490678 18.4571429,5.40923808 L18.4571429,14.2935612 C18.4571429,14.6878925 18.1374742,15.0075612 17.7431429,15.0075612 L12.9847619,15.0075612 L12.9847619,15.0075612 L10.0214304,18.6190476 L6.8,15.0075612 L1.68542856,15.0075612 C1.29109725,15.0075612 0.971428571,14.6878925 0.971428571,14.2935612 L0.971428571,5.40923808 C0.971428571,5.01490678 1.29109725,4.6952381 1.68542856,4.6952381 Z" id="Rectangle-Copy-11" stroke="#000000" stroke-width="2.04" stroke-linejoin="round"></path>
                <rect id="Rectangle" fill="#000000" x="0" y="0.161904762" width="19.4285714" height="1.94285714" rx="0.971428571"></rect>
                <circle id="Oval" fill="#000000" cx="5.18095238" cy="9.87619048" r="1.2952381"></circle>
                <circle id="Oval-Copy" fill="#000000" cx="9.71428571" cy="9.87619048" r="1.2952381"></circle>
                <circle id="Oval-Copy-2" fill="#000000" cx="14.247619" cy="9.87619048" r="1.2952381"></circle>
            </g>
        </g>
    </g>
</svg>