<svg width="20" height="20" viewBox="0 0 20 20" fill="none" xmlns="http://www.w3.org/2000/svg">
<mask id="mask0_36_396" style="mask-type:alpha" maskUnits="userSpaceOnUse" x="0" y="0" width="20" height="20">
<rect width="20" height="20" fill="#D9D9D9"/>
</mask>
<g mask="url(#mask0_36_396)">
<path d="M9.62516 14.5625C8.44461 14.4653 7.44822 13.9828 6.636 13.115C5.82322 12.2466 5.41683 11.2083 5.41683 9.99998C5.41683 8.7222 5.86127 7.63887 6.75016 6.74998C7.63905 5.86109 8.72239 5.41665 10.0002 5.41665C11.2085 5.41665 12.2468 5.81942 13.1152 6.62498C13.9829 7.43054 14.4654 8.43054 14.5627 9.62498L13.2502 9.22915C13.0696 8.47915 12.6807 7.8647 12.0835 7.38581C11.4863 6.90637 10.7918 6.66665 10.0002 6.66665C9.0835 6.66665 8.29877 6.99304 7.646 7.64581C6.99322 8.29859 6.66683 9.08331 6.66683 9.99998C6.66683 10.7916 6.90655 11.4861 7.386 12.0833C7.86489 12.6805 8.47933 13.0694 9.22933 13.25L9.62516 14.5625ZM10.0002 17.9166C8.90294 17.9166 7.87183 17.7083 6.90683 17.2916C5.94127 16.875 5.10433 16.3125 4.396 15.6041C3.68766 14.8958 3.12516 14.0589 2.7085 13.0933C2.29183 12.1283 2.0835 11.0972 2.0835 9.99998C2.0835 8.90276 2.29183 7.87137 2.7085 6.90581C3.12516 5.94081 3.68766 5.10415 4.396 4.39581C5.10433 3.68748 5.94127 3.12498 6.90683 2.70831C7.87183 2.29165 8.90294 2.08331 10.0002 2.08331C11.0974 2.08331 12.1288 2.29165 13.0943 2.70831C14.0593 3.12498 14.896 3.68748 15.6043 4.39581C16.3127 5.10415 16.8752 5.94081 17.2918 6.90581C17.7085 7.87137 17.9168 8.90276 17.9168 9.99998V10.3016C17.9168 10.4061 17.9029 10.5139 17.8752 10.625L16.6668 10.25V9.99998C16.6668 8.13887 16.021 6.56248 14.7293 5.27081C13.4377 3.97915 11.8613 3.33331 10.0002 3.33331C8.13905 3.33331 6.56266 3.97915 5.271 5.27081C3.97933 6.56248 3.3335 8.13887 3.3335 9.99998C3.3335 11.8611 3.97933 13.4375 5.271 14.7291C6.56266 16.0208 8.13905 16.6666 10.0002 16.6666H10.2502L10.6252 17.875C10.5279 17.9028 10.4274 17.9166 10.3235 17.9166H10.0002ZM16.521 17.7708L13.0002 14.25L12.4793 15.8333C12.4238 16.0139 12.3024 16.1005 12.1152 16.0933C11.9274 16.0866 11.8057 15.993 11.7502 15.8125L10.2085 10.6875C10.1668 10.5486 10.2016 10.4236 10.3127 10.3125C10.4238 10.2014 10.5488 10.1666 10.6877 10.2083L15.8127 11.75C15.9932 11.8055 16.0868 11.9269 16.0935 12.1141C16.1007 12.3019 16.0141 12.4236 15.8335 12.4791L14.2502 13L17.771 16.5208C17.8543 16.5903 17.896 16.6769 17.896 16.7808C17.896 16.8853 17.8543 16.9722 17.771 17.0416L17.0418 17.7708C16.9724 17.8541 16.8857 17.8958 16.7818 17.8958C16.6774 17.8958 16.5904 17.8541 16.521 17.7708Z" fill="#4B5768"/>
</g>
</svg>
