<?xml version="1.0" encoding="UTF-8"?>
<svg width="60px" height="51px" viewBox="0 0 60 51" version="1.1" xmlns="http://www.w3.org/2000/svg" xmlns:xlink="http://www.w3.org/1999/xlink">
    <!-- Generator: Sketch 55.2 (78181) - https://sketchapp.com -->
    <title>Group 2</title>
    <desc>Created with Sketch.</desc>
    <g id="icons" stroke="none" stroke-width="1" fill="none" fill-rule="evenodd">
        <g id="language" transform="translate(0.000000, -4.000000)" stroke="#333333" stroke-width="1.39999998">
            <g id="Group-2" transform="translate(1.000000, 5.500000)">
                <rect id="Rectangle-Copy-10" fill="#FFFFFF" x="8.28571429" y="0" width="49.7142857" height="30.3809524" rx="2.09999996"></rect>
                <path d="M2.09999996,6.9047619 L50.3761905,6.9047619 C51.5359885,6.9047619 52.4761905,7.84496391 52.4761905,9.00476187 L52.4761905,38.5256922 C52.4761905,39.6854901 51.5359885,40.6256921 50.3761905,40.6256921 L42.2724868,40.6256921 L37.4135802,48.3333333 L31.5828924,40.6256921 L2.09999996,40.6256921 C0.940202009,40.6256921 1.42034285e-16,39.6854901 0,38.5256922 L0,9.00476187 C-1.42034285e-16,7.84496391 0.940202009,6.9047619 2.09999996,6.9047619 Z" id="Rectangle-Copy-11" fill="#FFFFFF"></path>
                <path d="M12.6751701,18.6428571 L39.8010204,18.6428571" id="Line-9-Copy-10" stroke-linecap="round"></path>
                <path d="M12.6751701,24.1666667 L39.8010204,24.1666667" id="Line-9-Copy-11" stroke-linecap="round"></path>
                <path d="M12.5518707,29.6904762 L26.1147959,29.6904762" id="Line-9-Copy-12" stroke-linecap="round"></path>
            </g>
        </g>
    </g>
</svg>