<svg width="14" height="17" viewBox="0 0 14 17" fill="none" xmlns="http://www.w3.org/2000/svg">
<rect x="0.7" y="0.701953" width="12.6" height="14.6" rx="1.3" stroke="#2D4A60" stroke-width="1.4"/>
<path d="M10.062 6.66667V5.77778C10.062 5.30933 9.67022 4.88889 9.23723 4.88889H7.5V4H9.23723C9.6747 4 10.0943 4.1873 10.4036 4.5207C10.7129 4.8541 10.8867 5.30628 10.8867 5.77778V6.66667H10.062ZM4.64952 12.1113C4.21205 12.1113 3.7925 11.924 3.48316 11.5906C3.17382 11.2572 3.00004 10.805 3.00004 10.3336V9.44466H3.82478V10.3336C3.82478 10.5693 3.91167 10.7954 4.06634 10.9621C4.22101 11.1288 4.43079 11.2224 4.64952 11.2224H6.65625V12.1113H4.64952Z" fill="#2D4A60"/>
<path d="M5.63876 4L7.5 8.88867L6.56454 8.88889L6.06928 7.55556H4.38268L3.88825 8.88889H3L4.81402 4H5.63876ZM5.22639 5.28222L4.71217 6.66667H5.73979L5.22639 5.28222ZM7.5001 7.55562H9.97432C10.2131 7.55571 10.4468 7.63027 10.6471 7.77032C10.8474 7.91036 11.0059 8.10989 11.1033 8.34484C11.2007 8.57978 11.233 8.8401 11.1962 9.09438C11.1594 9.34865 11.0552 9.58602 10.896 9.77784C11.0552 9.96966 11.1594 10.207 11.1962 10.4613C11.233 10.7156 11.2007 10.9759 11.1033 11.2108C11.0059 11.4458 10.8474 11.6453 10.6471 11.7854C10.4468 11.9254 10.2131 12 9.97432 12.0001H7.5001V7.55562ZM9.97432 10.2223H8.32484V11.1112H9.97432C10.0837 11.1112 10.1886 11.0643 10.2659 10.981C10.3432 10.8976 10.3867 10.7846 10.3867 10.6667C10.3867 10.5489 10.3432 10.4358 10.2659 10.3525C10.1886 10.2691 10.0837 10.2223 9.97432 10.2223ZM9.97432 8.44451H8.32484V9.33339H9.97432C10.0837 9.33339 10.1886 9.28657 10.2659 9.20322C10.3432 9.11987 10.3867 9.00682 10.3867 8.88895C10.3867 8.77108 10.3432 8.65803 10.2659 8.57468C10.1886 8.49133 10.0837 8.44451 9.97432 8.44451Z" fill="#2D4A60"/>
</svg>
