<svg width="20" height="20" viewBox="0 0 20 20" fill="none" xmlns="http://www.w3.org/2000/svg">
<g clip-path="url(#clip0)">
<path d="M10.7226 6.01175L11.1717 7.39221C11.5968 7.03085 12.0902 6.75864 12.6226 6.59172C13.2167 6.3984 13.7413 6.28965 14.2156 6.22723L13.7826 4.8951C13.2427 4.97286 12.7104 5.09682 12.1917 5.26564C11.666 5.43603 11.1703 5.68779 10.7226 6.01175ZM11.656 8.88644L12.1051 10.2669C12.5302 9.90555 13.0236 9.63333 13.556 9.46641C14.1501 9.27309 14.6747 9.16435 15.1489 9.10192L14.716 7.76979C14.1761 7.84755 13.6438 7.97152 13.1251 8.14033C12.5992 8.3101 12.1034 8.56191 11.656 8.88644ZM12.5904 11.7601L13.0395 13.1406C13.4646 12.7792 13.958 12.507 14.4904 12.3401C15.0845 12.1468 15.6091 12.038 16.0833 11.9756L15.6504 10.6435C15.1105 10.7212 14.5782 10.8452 14.0595 11.014C13.5336 11.1838 13.0378 11.4356 12.5904 11.7601ZM5.47971 13.9471L5.91268 15.2792C6.39252 15.0197 6.89545 14.8053 7.41497 14.6388C7.94386 14.4614 8.50299 14.3919 9.05923 14.4344L8.61016 13.054C8.05792 13.0548 7.50922 13.1421 6.98402 13.3128C6.46526 13.4805 5.96195 13.6928 5.47971 13.9471ZM3.61192 8.19873L4.04488 9.53086C4.52493 9.27173 5.02781 9.05736 5.54717 8.89047C6.07607 8.71302 6.63519 8.64352 7.19144 8.68607L6.74337 7.30461C6.19076 7.30583 5.64174 7.39348 5.11622 7.56438C4.59746 7.73214 4.09416 7.94438 3.61192 8.19873ZM4.54531 11.0734L4.97828 12.4055C5.45812 12.146 5.96105 11.9316 6.48057 11.7652C7.00946 11.5877 7.56859 11.5182 8.12483 11.5608L7.67676 10.1793C7.12453 10.1801 6.57583 10.2674 6.05062 10.4381C5.53151 10.6061 5.02787 10.8187 4.54531 11.0734ZM11.1949 2.19964C9.87199 2.62228 8.76805 3.54759 8.1208 4.77629C6.87525 4.16292 5.43858 4.06348 4.1204 4.49939C1.58 5.32505 0.124023 7.14451 0.124023 7.14451L4.24727 19.8183C4.37414 20.208 4.89773 20.2986 5.13133 19.9623C5.63377 19.2384 6.6014 18.2929 8.41079 17.7048C10.1406 17.143 11.4003 17.7592 12.091 18.2868C12.3649 18.4963 12.7576 18.3472 12.8583 18.017C13.112 17.1843 13.7715 15.9629 15.4863 15.4061C17.2977 14.8171 18.6368 15.0144 19.4695 15.3054C19.8572 15.4403 20.2247 15.0617 20.0989 14.6721L15.9827 1.99121C15.9827 1.99121 13.7353 1.37499 11.1949 2.19964ZM11.0811 16.1411C10.0474 15.83 8.94295 15.8455 7.91842 16.1854C6.65879 16.5942 5.77675 17.141 5.2008 17.5991L1.93342 7.54827C2.29389 7.18781 3.12861 6.49909 4.61378 6.01678C6.01236 5.56267 7.15922 5.95134 7.9154 6.39739L11.0811 16.1411ZM18.0226 13.4336C17.2866 13.4014 16.2515 13.4779 14.9919 13.8877C13.9632 14.2145 13.0605 14.851 12.4072 15.7102L9.24148 5.96644C9.58987 5.16092 10.2887 4.17215 11.6882 3.71804C13.1724 3.23573 14.2528 3.30219 14.7563 3.38173L18.0226 13.4336Z" fill="#0070D0"/>
</g>
<defs>
<clipPath id="clip0">
<rect width="20" height="20" fill="white"/>
</clipPath>
</defs>
</svg>
