<svg width="42" height="42" viewBox="0 0 42 42" fill="none" xmlns="http://www.w3.org/2000/svg">
<path d="M21 9.75C24.48 9.75 27.52 12.3075 28.2 15.8413L28.6 17.9038L30.6267 18.055C32.7067 18.2062 34.3333 19.9938 34.3333 22.125C34.3333 24.3938 32.5333 26.25 30.3333 26.25H13C10.0533 26.25 7.66667 23.7887 7.66667 20.75C7.66667 17.9313 9.70667 15.58 12.4133 15.2912L13.84 15.14L14.5067 13.8338C15.1184 12.6016 16.0487 11.568 17.1947 10.8473C18.3407 10.1266 19.6577 9.74679 21 9.75ZM21 7C17.1467 7 13.7867 9.255 12.12 12.555C8.12 12.995 5 16.5013 5 20.75C5 25.3013 8.58667 29 13 29H30.3333C34.0133 29 37 25.92 37 22.125C37 18.495 34.2667 15.5525 30.8133 15.305C29.8933 10.5612 25.8533 7 21 7Z" fill="#2B5467"/>
<path d="M27.12 33.438L23.76 25.591C23.43 24.823 23.16 23.511 23.16 22.675C23.16 21.839 23.673 21.155 24.3 21.155C24.927 21.155 25.44 20.641 25.44 20.015C25.44 19.389 24.756 18.875 23.92 18.875H17.08C16.244 18.875 15.56 19.387 15.56 20.015C15.56 20.643 16.073 21.155 16.7 21.155C17.327 21.155 17.84 21.839 17.84 22.675C17.84 23.511 17.57 24.823 17.24 25.592L13.88 33.44C13.55 34.208 13.28 35.18 13.28 35.597C13.28 36.014 13.622 36.7 14.04 37.117C14.458 37.534 15.484 37.877 16.32 37.877H24.68C25.515 37.877 26.54 37.537 26.96 37.117C27.38 36.697 27.72 36.015 27.72 35.597C27.72 35.179 27.45 34.207 27.12 33.44V33.438ZM21.583 16.625C21.583 16.9123 21.6971 17.1877 21.9002 17.3908C22.1033 17.5939 22.3788 17.708 22.666 17.708C22.9533 17.708 23.2287 17.5939 23.4318 17.3908C23.6349 17.1877 23.749 16.9123 23.749 16.625C23.7489 16.3378 23.6347 16.0624 23.4315 15.8594C23.2283 15.6564 22.9528 15.5424 22.6655 15.5425C22.3783 15.5427 22.1029 15.6569 21.8999 15.8601C21.6969 16.0633 21.5829 16.3388 21.583 16.626V16.625ZM18.668 16.792C18.8006 16.792 18.9278 16.7393 19.0216 16.6456C19.1154 16.5518 19.168 16.4246 19.168 16.292C19.168 16.1594 19.1154 16.0322 19.0216 15.9385C18.9278 15.8447 18.8006 15.792 18.668 15.792C18.5354 15.792 18.4082 15.8447 18.3145 15.9385C18.2207 16.0322 18.168 16.1594 18.168 16.292C18.168 16.4246 18.2207 16.5518 18.3145 16.6456C18.4082 16.7393 18.5354 16.792 18.668 16.792ZM20.585 14.292C20.7995 14.3027 21.0139 14.2696 21.2151 14.1949C21.4164 14.1201 21.6004 14.0052 21.7559 13.8571C21.9114 13.7091 22.0352 13.5309 22.1197 13.3336C22.2042 13.1362 22.2477 12.9237 22.2476 12.709C22.2475 12.4943 22.2037 12.2818 22.1189 12.0845C22.0341 11.8873 21.9101 11.7093 21.7544 11.5614C21.5988 11.4136 21.4146 11.2989 21.2133 11.2244C21.0119 11.1499 20.7975 11.1171 20.583 11.128C20.1806 11.1531 19.8028 11.3307 19.5268 11.6246C19.2508 11.9186 19.0972 12.3067 19.0975 12.71C19.0977 13.1132 19.2518 13.5012 19.5282 13.7948C19.8046 14.0884 20.1825 14.2655 20.585 14.29V14.292Z" fill="#2B5467"/>
</svg>
