<svg width="20" height="20" viewBox="0 0 20 20" fill="none" xmlns="http://www.w3.org/2000/svg">
<path d="M1.90476 0C0.847619 0 0 0.847619 0 1.90476V12.381C0 13.4381 0.847619 14.2857 1.90476 14.2857H3.80952V12.381H1.90476V1.90476H12.381V3.80952H14.2857V1.90476C14.2857 0.847619 13.4381 0 12.381 0H1.90476ZM7.61905 5.71429C6.5619 5.71429 5.71429 6.5619 5.71429 7.61905V9.52381H7.61905V7.61905H9.52381V5.71429H7.61905ZM11.4286 5.71429V7.61905H12.381V8.57143H14.2857V5.71429H11.4286ZM16.1905 5.71429V7.61905H18.0952V18.0952H7.61905V16.1905H5.71429V18.0952C5.71429 19.1524 6.5619 20 7.61905 20H18.0952C19.1524 20 20 19.1524 20 18.0952V7.61905C20 6.5619 19.1524 5.71429 18.0952 5.71429H16.1905ZM12.381 10.4762V12.381H10.4762V14.2857H12.381C13.4381 14.2857 14.2857 13.4381 14.2857 12.381V10.4762H12.381ZM5.71429 11.4286V14.2857H8.57143V12.381H7.61905V11.4286H5.71429Z" fill="#333333"/>
</svg>
