<?xml version="1.0" encoding="utf-8"?>
<!-- Uploaded to SVGRepo https://www.svgrepo.com -->
<svg version="1.1" id="Layer_1" xmlns="http://www.w3.org/2000/svg" xmlns:xlink="http://www.w3.org/1999/xlink" x="0px" y="0px"
	 width="256px" height="241px" viewBox="0 0 256 241" enable-background="new 0 0 256 241" xml:space="preserve">
<path d="M254,188V2H2v186h111v29H75v22h106v-22h-38v-29H254z M19,19h217v151H19L19,19z M164.204,51.099
	c0,17.667-6.046,33.865-16.002,43.477c9.955,9.614,16.002,25.813,16.002,43.478v3.545h4.496v10.843H87.3V141.6h4.496v-3.545
	c0-17.665,6.045-33.865,16.002-43.478c-9.957-9.612-16.002-25.813-16.002-43.477v-2.814H87.3V37.443h81.4v10.843h-4.496V51.099z
	 M157.012,54.649H98.987c0.825,15.73,7.077,30.033,16.395,37.099l3.731,2.828l-3.731,2.828c-9.32,7.067-15.57,21.373-16.395,37.101
	h58.027c-0.826-15.73-7.079-30.035-16.396-37.101l-3.733-2.828l3.733-2.828C149.935,84.682,156.189,70.378,157.012,54.649z
	 M117.924,87.867l3.827,2.146c0,0,5.384,7.061,5.384,23.528c0,0,0.047,0.093,0.126,0.23c-4.371,0.759-7.488,3.494-7.488,3.494
	c-6.551,4.969-11.719,9.28-12.035,15.303h42.591c-0.317-6.025-2.953-7.004-12.036-15.303c-2.575-2.352-5.172-3.366-7.577-3.623
	c0.006-0.771,0.184-18.253,3.533-23.036c1.619-1.623,2.831-2.146,2.831-2.146c7.08-5.365,11.829-16.228,12.452-28.171h-43.064
	C107.093,72.232,110.847,82.498,117.924,87.867z"/>
</svg>
