<?xml version="1.0" encoding="iso-8859-1"?>
<!-- Generator: Adobe Illustrator 19.0.0, SVG Export Plug-In . SVG Version: 6.00 Build 0)  -->
<svg version="1.1" id="Capa_1" xmlns="http://www.w3.org/2000/svg" xmlns:xlink="http://www.w3.org/1999/xlink" x="0px" y="0px"
	 viewBox="0 0 60 60" style="enable-background:new 0 0 60 60;" xml:space="preserve">
<g>
	<path d="M7,3C4.794,3,3,4.794,3,7s1.794,4,4,4s4-1.794,4-4S9.206,3,7,3z M7,9C5.897,9,5,8.103,5,7s0.897-2,2-2s2,0.897,2,2
		S8.103,9,7,9z"/>
	<path d="M16,3c-2.206,0-4,1.794-4,4s1.794,4,4,4s4-1.794,4-4S18.206,3,16,3z M16,9c-1.103,0-2-0.897-2-2s0.897-2,2-2s2,0.897,2,2
		S17.103,9,16,9z"/>
	<path d="M25,3c-2.206,0-4,1.794-4,4s1.794,4,4,4s4-1.794,4-4S27.206,3,25,3z M25,9c-1.103,0-2-0.897-2-2s0.897-2,2-2s2,0.897,2,2
		S26.103,9,25,9z"/>
	<path d="M0,0v14v46h60V14V0H0z M2,2h56v10H2V2z M58,58H2V14h56V58z"/>
	<path d="M47,21h5c0.552,0,1-0.447,1-1s-0.448-1-1-1h-5c-0.552,0-1,0.447-1,1S46.448,21,47,21z"/>
	<path d="M47,24h5c0.552,0,1-0.447,1-1s-0.448-1-1-1h-5c-0.552,0-1,0.447-1,1S46.448,24,47,24z"/>
	<path d="M47,27h5c0.552,0,1-0.447,1-1s-0.448-1-1-1h-5c-0.552,0-1,0.447-1,1S46.448,27,47,27z"/>
	<path d="M12,28c2.757,0,5-2.243,5-5s-2.243-5-5-5s-5,2.243-5,5S9.243,28,12,28z M12,20c1.654,0,3,1.346,3,3s-1.346,3-3,3
		s-3-1.346-3-3S10.346,20,12,20z"/>
	<path d="M8,37h21c0.552,0,1-0.447,1-1s-0.448-1-1-1H8c-0.552,0-1,0.447-1,1S7.448,37,8,37z"/>
	<path d="M33,37h9c0.552,0,1-0.447,1-1s-0.448-1-1-1h-9c-0.552,0-1,0.447-1,1S32.448,37,33,37z"/>
	<path d="M46,37h6c0.552,0,1-0.447,1-1s-0.448-1-1-1h-6c-0.552,0-1,0.447-1,1S45.448,37,46,37z"/>
	<path d="M31,42h21c0.552,0,1-0.447,1-1s-0.448-1-1-1H31c-0.552,0-1,0.447-1,1S30.448,42,31,42z"/>
	<path d="M18,40c-0.552,0-1,0.447-1,1s0.448,1,1,1h9c0.552,0,1-0.447,1-1s-0.448-1-1-1H18z"/>
	<path d="M8,42h6c0.552,0,1-0.447,1-1s-0.448-1-1-1H8c-0.552,0-1,0.447-1,1S7.448,42,8,42z"/>
	<path d="M8,47h21c0.552,0,1-0.447,1-1s-0.448-1-1-1H8c-0.552,0-1,0.447-1,1S7.448,47,8,47z"/>
	<path d="M42,47c0.552,0,1-0.447,1-1s-0.448-1-1-1h-9c-0.552,0-1,0.447-1,1s0.448,1,1,1H42z"/>
	<path d="M52,45h-6c-0.552,0-1,0.447-1,1s0.448,1,1,1h6c0.552,0,1-0.447,1-1S52.552,45,52,45z"/>
	<path d="M52,50H31c-0.552,0-1,0.447-1,1s0.448,1,1,1h21c0.552,0,1-0.447,1-1S52.552,50,52,50z"/>
	<path d="M27,50h-9c-0.552,0-1,0.447-1,1s0.448,1,1,1h9c0.552,0,1-0.447,1-1S27.552,50,27,50z"/>
	<path d="M14,50H8c-0.552,0-1,0.447-1,1s0.448,1,1,1h6c0.552,0,1-0.447,1-1S14.552,50,14,50z"/>
</g>
<g>
</g>
<g>
</g>
<g>
</g>
<g>
</g>
<g>
</g>
<g>
</g>
<g>
</g>
<g>
</g>
<g>
</g>
<g>
</g>
<g>
</g>
<g>
</g>
<g>
</g>
<g>
</g>
<g>
</g>
</svg>
