<svg width="25" height="25" viewBox="0 0 25 25" fill="none" xmlns="http://www.w3.org/2000/svg">
  <path d="M12.5 25C19.4035 25 25 19.4035 25 12.5C25 5.59637 19.4035 0 12.5 0C5.59653 0 0 5.59646 0 12.5C0 19.4036 5.59644 25 12.5 25ZM12.5 1.99998C18.2895 1.99998 22.9999 6.71044 22.9999 12.5C22.9999 18.2895 18.2895 22.9999 12.5 22.9999C6.71051 22.9999 2.00006 18.2895 2.00006 12.5C2.00006 6.71044 6.70996 1.99998 12.5 1.99998Z" fill="#FF0000"/>
  <path d="M10.1768 18.396C10.8673 18.396 11.4268 17.8365 11.4268 17.146V7.64597C11.4268 6.9555 10.8673 6.39594 10.1768 6.39594C9.48632 6.39594 8.92676 6.95541 8.92676 7.64597V17.146C8.92676 17.8365 9.48623 18.396 10.1768 18.396Z" fill="#FF0000"/>
  <path d="M15.1768 18.396C15.8673 18.396 16.4268 17.8365 16.4268 17.146V7.64597C16.4268 6.9555 15.8674 6.39594 15.1768 6.39594C14.4863 6.39594 13.9269 6.9555 13.9269 7.64597V17.146C13.9269 17.8365 14.4863 18.396 15.1768 18.396Z" fill="#FF0000"/>
</svg>
