<svg width="14" height="15" viewBox="0 0 14 15" fill="none" xmlns="http://www.w3.org/2000/svg">
<path d="M0 12.0813V14.9976H2.91627L11.5173 6.3965L8.60106 3.48023L0 12.0813ZM13.7726 4.14126C13.8447 4.06931 13.9019 3.98385 13.9409 3.88977C13.9799 3.7957 14 3.69485 14 3.593C14 3.49115 13.9799 3.3903 13.9409 3.29622C13.9019 3.20214 13.8447 3.11668 13.7726 3.04474L11.9528 1.22498C11.8809 1.15289 11.7954 1.0957 11.7013 1.05667C11.6073 1.01765 11.5064 0.997559 11.4046 0.997559C11.3027 0.997559 11.2019 1.01765 11.1078 1.05667C11.0137 1.0957 10.9282 1.15289 10.8563 1.22498L9.43316 2.64812L12.3494 5.5644L13.7726 4.14126Z" fill="#5A5D5E"/>
</svg>
