<svg width="24" height="24" viewBox="0 0 24 24" fill="none" xmlns="http://www.w3.org/2000/svg">
<mask id="mask0_2_2669" style="mask-type:alpha" maskUnits="userSpaceOnUse" x="0" y="0" width="24" height="24">
<rect width="24" height="24" fill="#D9D9D9"/>
</mask>
<g mask="url(#mask0_2_2669)">
<path d="M3.49976 24C3.08309 24 2.72909 23.854 2.43776 23.562C2.14576 23.2707 1.99976 22.9167 1.99976 22.5C1.99976 22.0833 2.14576 21.7293 2.43776 21.438C2.72909 21.146 3.08309 21 3.49976 21H20.4998C20.9164 21 21.2704 21.146 21.5618 21.438C21.8538 21.7293 21.9998 22.0833 21.9998 22.5C21.9998 22.9167 21.8538 23.2707 21.5618 23.562C21.2704 23.854 20.9164 24 20.4998 24H3.49976ZM5.39976 18.5C5.14976 18.5 4.93742 18.4127 4.76276 18.238C4.58742 18.0627 4.49976 17.85 4.49976 17.6V15.825C4.49976 15.7083 4.52042 15.5917 4.56176 15.475C4.60376 15.3583 4.67476 15.2583 4.77476 15.175L13.4248 6.525L16.4748 9.575L7.82476 18.225C7.74142 18.325 7.64142 18.396 7.52476 18.438C7.40809 18.4793 7.29142 18.5 7.17476 18.5H5.39976ZM5.99976 17H6.89976L14.3748 9.575L13.4248 8.625L5.99976 16.1V17ZM17.4748 8.525L14.4498 5.5L15.9248 4.025C16.1081 3.84167 16.3374 3.75 16.6128 3.75C16.8874 3.75 17.1164 3.84167 17.2998 4.025L18.9248 5.675C19.1081 5.85833 19.2041 6.08333 19.2128 6.35C19.2208 6.61667 19.1331 6.85 18.9498 7.05L17.4748 8.525Z" fill="#1DBF84"/>
</g>
</svg>
