<svg width="34" height="34" viewBox="0 0 34 34" fill="none" xmlns="http://www.w3.org/2000/svg">
<path d="M23.6853 27.982L22.7786 20.723C22.6501 19.6948 22.1504 18.749 21.3735 18.0634C20.5966 17.3778 19.596 16.9996 18.5598 17H15.4375C14.4018 17.0003 13.4018 17.3788 12.6255 18.0643C11.8492 18.7499 11.3499 19.6953 11.2215 20.723L10.3134 27.982C10.2635 28.3808 10.2991 28.7857 10.4177 29.1697C10.5364 29.5537 10.7354 29.908 11.0015 30.2092C11.2676 30.5104 11.5947 30.7516 11.9611 30.9167C12.3276 31.0817 12.725 31.167 13.1269 31.1667H20.8732C21.275 31.1668 21.6722 31.0814 22.0385 30.9162C22.4048 30.7511 22.7317 30.5099 22.9977 30.2087C23.2636 29.9075 23.4625 29.5532 23.581 29.1693C23.6996 28.7854 23.7351 28.3807 23.6853 27.982V27.982Z" stroke="#2B5467" stroke-width="2.4" stroke-linecap="round" stroke-linejoin="round"/>
<path d="M17 11.3333C19.3472 11.3333 21.25 9.43049 21.25 7.08328C21.25 4.73607 19.3472 2.83328 17 2.83328C14.6528 2.83328 12.75 4.73607 12.75 7.08328C12.75 9.43049 14.6528 11.3333 17 11.3333Z" stroke="#2B5467" stroke-width="2.4"/>
<path d="M5.66671 15.5832C7.23151 15.5832 8.50004 14.3147 8.50004 12.7499C8.50004 11.1851 7.23151 9.91656 5.66671 9.91656C4.1019 9.91656 2.83337 11.1851 2.83337 12.7499C2.83337 14.3147 4.1019 15.5832 5.66671 15.5832Z" stroke="#2B5467" stroke-width="2.4"/>
<path d="M28.3333 15.5832C29.8981 15.5832 31.1667 14.3147 31.1667 12.7499C31.1667 11.1851 29.8981 9.91656 28.3333 9.91656C26.7685 9.91656 25.5 11.1851 25.5 12.7499C25.5 14.3147 26.7685 15.5832 28.3333 15.5832Z" stroke="#2B5467" stroke-width="2.4"/>
<path d="M5.66667 19.8333H5.23317C4.56246 19.8332 3.91348 20.0711 3.40167 20.5045C2.88986 20.938 2.54841 21.539 2.43808 22.2005L1.96633 25.0339C1.89863 25.4398 1.92018 25.8556 2.02947 26.2524C2.13877 26.6492 2.33318 27.0174 2.5992 27.3314C2.86521 27.6454 3.19644 27.8977 3.56985 28.0707C3.94325 28.2437 4.34987 28.3333 4.76142 28.3333H9.91667" stroke="#2B5467" stroke-width="2.4" stroke-linecap="round" stroke-linejoin="round"/>
<path d="M28.3334 19.8333H28.7669C29.4376 19.8332 30.0866 20.0711 30.5984 20.5045C31.1102 20.938 31.4516 21.539 31.562 22.2005L32.0337 25.0339C32.1014 25.4398 32.0799 25.8556 31.9706 26.2524C31.8613 26.6492 31.6669 27.0174 31.4008 27.3314C31.1348 27.6454 30.8036 27.8977 30.4302 28.0707C30.0568 28.2437 29.6502 28.3333 29.2386 28.3333H24.0834" stroke="#2B5467" stroke-width="2.4" stroke-linecap="round" stroke-linejoin="round"/>
</svg>
