<svg width="26" height="15" viewBox="0 0 26 15" fill="none" xmlns="http://www.w3.org/2000/svg">
<path d="M18.5322 4.44917C16.9 4.275 15.4411 5.35167 15.1089 7.125C15.1089 7.66333 17.0589 8.37583 18.85 8.37583C20.6411 8.37583 22.2589 7.125 22.2589 6.77667C22.2589 6.4125 21.1322 4.63917 18.5322 4.44917ZM7.48222 4.44917C4.88222 4.63917 3.74111 6.23833 3.74111 6.76083C3.74111 7.125 5.51778 8.37583 7.15 8.37583C8.78222 8.37583 10.8911 7.66333 10.8911 7.125C10.5589 5.35167 8.94111 4.275 7.48222 4.44917ZM20.15 14.25C17.3911 14.25 15.6 10.6875 13 10.6875C10.4 10.6875 8.45 14.25 5.85 14.25C2.44111 14.25 0 10.8617 0 4.81333C0 1.07667 0.982222 0 5.35889 0C9.73556 0 10.8911 1.96333 13 1.96333C15.1089 1.96333 16.4089 0 20.6411 0C24.8733 0 26 1.25083 26 4.81333C26 10.8617 23.5589 14.25 20.15 14.25Z" fill="#6C91AE"/>
</svg>
