<svg width="19" height="19" viewBox="0 0 19 19" fill="none" xmlns="http://www.w3.org/2000/svg">
<path d="M9.83337 0.833496C4.87077 0.833496 0.833374 4.8709 0.833374 9.8335C0.833374 14.7961 4.87077 18.8335 9.83337 18.8335C14.796 18.8335 18.8334 14.7961 18.8334 9.8335C18.8334 4.8709 14.796 0.833496 9.83337 0.833496ZM16.9713 8.9335H10.7334V2.6956C12.3172 2.89751 13.7892 3.61966 14.9182 4.74867C16.0472 5.87769 16.7694 7.34965 16.9713 8.9335ZM2.63337 9.8335C2.63337 6.1687 5.38827 3.1411 8.93337 2.6956V9.8335C8.93604 9.97081 8.97021 10.1057 9.03327 10.2277C9.04677 10.2547 9.05307 10.2844 9.07017 10.3114L12.852 16.3621C11.9068 16.8033 10.8765 17.0324 9.83337 17.0335C5.86347 17.0335 2.63337 13.8034 2.63337 9.8335ZM14.3802 15.4099L11.4579 10.7335H16.9713C16.7405 12.5673 15.8126 14.2419 14.3802 15.4099Z" fill="#6A737D"/>
</svg>
