<svg width="18" height="18" viewBox="0 0 18 18" fill="none" xmlns="http://www.w3.org/2000/svg">
<circle cx="9" cy="9" r="8.1" stroke="#606060" stroke-width="1.8"/>
<mask id="path-2-inside-1" fill="white">
<path d="M9 0C10.78 2.12267e-08 12.5201 0.527841 14.0001 1.51677C15.4802 2.50571 16.6337 3.91131 17.3149 5.55585C17.9961 7.20038 18.1743 9.00998 17.8271 10.7558C17.4798 12.5016 16.6226 14.1053 15.364 15.364L9 9V0Z"/>
</mask>
<path d="M9 0C10.78 2.12267e-08 12.5201 0.527841 14.0001 1.51677C15.4802 2.50571 16.6337 3.91131 17.3149 5.55585C17.9961 7.20038 18.1743 9.00998 17.8271 10.7558C17.4798 12.5016 16.6226 14.1053 15.364 15.364L9 9V0Z" stroke="#606060" stroke-width="3.6" mask="url(#path-2-inside-1)"/>
</svg>
