<svg width="29" height="30" viewBox="0 0 29 30" fill="none" xmlns="http://www.w3.org/2000/svg">
<path d="M19.6827 8.90939L10.3671 17.8368C10.2097 17.9824 10.0843 18.1566 9.99795 18.3491C9.91163 18.5416 9.86619 18.7487 9.86429 18.9582C9.86239 19.1678 9.90406 19.3756 9.98688 19.5695C10.0697 19.7635 10.192 19.9397 10.3466 20.0879C10.5013 20.236 10.6852 20.3532 10.8876 20.4326C11.09 20.5119 11.3069 20.5518 11.5256 20.55C11.7443 20.5482 11.9604 20.5047 12.1613 20.422C12.3623 20.3393 12.544 20.219 12.696 20.0683L22.0133 11.1424C22.94 10.2545 23.4606 9.05019 23.4606 7.79445C23.4606 6.53871 22.94 5.3344 22.0133 4.44646C21.0865 3.55852 19.8296 3.05967 18.5191 3.05967C17.2085 3.05967 15.9516 3.55852 15.0249 4.44646L5.70758 13.3739C4.92701 14.1032 4.30534 14.9737 3.87864 15.935C3.45193 16.8963 3.22869 17.9292 3.22186 18.9738C3.21503 20.0184 3.42475 21.054 3.83884 22.0203C4.25294 22.9866 4.86317 23.8646 5.63415 24.6032C6.40512 25.3418 7.32148 25.9264 8.33008 26.323C9.33868 26.7196 10.4194 26.9204 11.5097 26.9137C12.5999 26.907 13.6779 26.693 14.6811 26.284C15.6843 25.875 16.5928 25.2793 17.3538 24.5312L26.6711 15.6054L29 17.8368L19.6827 26.7643C18.6121 27.7901 17.341 28.6039 15.9421 29.1591C14.5433 29.7143 13.044 30 11.5299 30C10.0157 30 8.51644 29.7143 7.11757 29.1591C5.71871 28.6039 4.44766 27.7901 3.37702 26.7643C2.30637 25.7384 1.45709 24.5206 0.877658 23.1802C0.298228 21.8399 -1.12811e-08 20.4033 0 18.9526C1.12811e-08 17.5018 0.298228 16.0652 0.877658 14.7249C1.45709 13.3846 2.30637 12.1667 3.37702 11.1409L12.696 2.21499C14.2491 0.777651 16.3294 -0.0176799 18.4886 0.000298286C20.6479 0.0182764 22.7133 0.848125 24.2402 2.31111C25.7671 3.77409 26.6332 5.75316 26.6519 7.82205C26.6707 9.89095 25.8406 11.8841 24.3405 13.3723L15.0249 22.3029C14.5659 22.7426 14.021 23.0913 13.4214 23.3292C12.8218 23.5671 12.1791 23.6896 11.5301 23.6895C10.8811 23.6894 10.2385 23.5668 9.63888 23.3288C9.0393 23.0908 8.49453 22.7419 8.03567 22.3021C7.5768 21.8624 7.21283 21.3403 6.96454 20.7658C6.71624 20.1912 6.58849 19.5754 6.58857 18.9536C6.58864 18.3317 6.71655 17.716 6.96498 17.1415C7.21342 16.567 7.57752 16.045 8.03649 15.6054L17.3538 6.67792L19.6827 8.90939Z" fill="#6A737D"/>
</svg>
