<?xml version="1.0" encoding="UTF-8"?>
<svg width="60px" height="60px" viewBox="0 0 60 60" version="1.1" xmlns="http://www.w3.org/2000/svg" xmlns:xlink="http://www.w3.org/1999/xlink">
    <!-- Generator: Sketch 59 (86127) - https://sketch.com -->
    <title>Elements ts Copy 8</title>
    <desc>Created with Sketch.</desc>
    <g id="Elements-ts-Copy-8" stroke="none" stroke-width="1" fill="none" fill-rule="evenodd">
        <path d="M48.0240752,12.0997931 L48.0240752,12.0997931 C49.6717176,12.1058039 51.0059498,13.4552319 50.99998,15.1142168 L50.788055,54.0071949 C50.7791004,57.3251647 48.0986966,60.0089936 44.8004269,59.9999773 L14.9518323,59.930853 C11.6565474,59.9218368 8.99106792,57.2229808 9.0000225,53.905011 L9.23881125,5.99581055 C9.24776583,2.6748353 11.9281696,-0.00899357157 15.2234545,2.26508379e-05 L33.1326113,0.0451037629 C36.430881,0.0541199853 39.0963605,2.75297589 39.0874059,6.07094574 L38.8814506,41.9585163 C38.872496,45.2794916 36.1920922,47.9633204 32.8968074,47.9543042 L26.9270885,47.9362718 C23.6288187,47.9272555 20.9633392,45.2283996 20.9722938,41.9074244 L21.1513854,15.0360762 C21.1573551,13.3770913 22.497557,12.0366796 24.1451994,12.039685 C25.7928419,12.0456958 27.127074,13.3951237 27.1211043,15.0541087 L26.9509673,38.9200494 C26.9479825,40.5790343 28.2792298,41.9284622 29.9268722,41.9344731 C31.5774995,41.9374785 32.9177014,40.5970667 32.9206863,38.9380818 L33.1087324,9.06132617 C33.1117173,7.40234125 31.7804699,6.04990788 30.1298427,6.04690248 L18.1933897,6.01985381 C16.5427624,6.0168484 15.2025605,7.35726013 15.1995756,9.01624506 L14.978696,50.9026089 C14.9727263,52.5706101 16.3129282,53.9260489 17.9665403,53.9290543 L41.8215372,53.9801462 C43.4751493,53.986157 44.821321,52.6367291 44.8272907,50.9717333 L45.0302611,15.0961844 C45.0362308,13.4371994 46.3764327,12.0937823 48.0240752,12.0997931" id="attachment-[#1574]" fill="#000000"></path>
    </g>
</svg>