<svg width="16" height="16" viewBox="0 0 16 16" fill="none" xmlns="http://www.w3.org/2000/svg">
<path d="M7.04 11.12L10.776 8.32C10.992 8.16 10.992 7.84 10.776 7.68L7.04 4.88C6.98057 4.83543 6.90991 4.80829 6.83592 4.80162C6.76194 4.79494 6.68756 4.80901 6.62111 4.84223C6.55467 4.87545 6.49879 4.92652 6.45974 4.98971C6.42069 5.0529 6.4 5.12572 6.4 5.2V10.8C6.4 11.128 6.776 11.32 7.04 11.12ZM8 0C3.584 0 0 3.584 0 8C0 12.416 3.584 16 8 16C12.416 16 16 12.416 16 8C16 3.584 12.416 0 8 0ZM8 14.4C4.472 14.4 1.6 11.528 1.6 8C1.6 4.472 4.472 1.6 8 1.6C11.528 1.6 14.4 4.472 14.4 8C14.4 11.528 11.528 14.4 8 14.4Z" fill="#6A737D"/>
</svg>
