<svg width="15" height="18" viewBox="0 0 15 18" fill="none" xmlns="http://www.w3.org/2000/svg">
<path fill-rule="evenodd" clip-rule="evenodd" d="M9.9 0C10.3971 0 10.8 0.402944 10.8 0.9V3.6H11.7C13.1912 3.6 14.4 4.80883 14.4 6.3V9C14.4 11.9823 11.9823 14.4 9 14.4H8.1V17.1C8.1 17.5971 7.69705 18 7.2 18C6.70294 18 6.3 17.5971 6.3 17.1V14.4H5.4C2.41766 14.4 0 11.9823 0 9V6.3C0 4.80883 1.20883 3.6 2.7 3.6H3.6V0.9C3.6 0.402944 4.00294 0 4.5 0C4.99706 0 5.4 0.402944 5.4 0.9V3.6H9V0.9C9 0.402944 9.40294 0 9.9 0ZM11.7004 5.4H2.70035C2.20329 5.4 1.80035 5.80294 1.80035 6.3V9C1.80035 10.9882 3.41213 12.6 5.40035 12.6H9.00035C10.9886 12.6 12.6004 10.9882 12.6004 9V6.3C12.6004 5.80294 12.1974 5.4 11.7004 5.4Z" fill="#6A737D"/>
</svg>
