<?xml version="1.0" encoding="UTF-8"?>
<svg width="18px" height="18px" viewBox="0 0 18 18" version="1.1" xmlns="http://www.w3.org/2000/svg" xmlns:xlink="http://www.w3.org/1999/xlink">
    <!-- Generator: Sketch 59.1 (86144) - https://sketch.com -->
    <title>Combined Shape</title>
    <desc>Created with Sketch.</desc>
    <g id="Page-1" stroke="none" stroke-width="1" fill="none" fill-rule="evenodd">
        <g id="Test-case-11-Copy-42" transform="translate(-849.000000, -674.000000)" fill="#000000" fill-rule="nonzero">
            <path d="M858,674 L858,675.8 C854.02355,675.8 850.8,679.02355 850.8,683 C850.8,686.97645 854.02355,690.2 858,690.2 C861.97645,690.2 865.2,686.97645 865.2,683 C865.2,681.319565 864.623214,679.730853 863.587794,678.458991 L863.493,678.347 L863.412217,678.426655 L861.9,680 L861,674.6 L866.4,675.5 L864.785276,677.087119 C866.203686,678.713444 867,680.796026 867,683 C867,687.970563 862.970563,692 858,692 C853.029437,692 849,687.970563 849,683 C849,678.029437 853.029437,674 858,674 Z M859.157062,678.2 C859.225178,678.200184 859.290244,678.227957 859.33699,678.276859 C859.383498,678.32595 859.406507,678.392335 859.400208,678.459258 L859.123022,681.560039 L860.859084,681.560039 C860.989699,681.561431 861.109869,681.630774 861.175173,681.742438 L861.267569,681.900837 C861.312498,681.976902 861.310621,682.071367 861.262706,682.145635 L857.858663,687.627201 C857.791865,687.73373 857.674357,687.798972 857.547437,687.8 L857.450178,687.8 C857.382062,687.799875 857.316997,687.772103 857.27025,687.7232 C857.223743,687.674109 857.200734,687.607724 857.207032,687.540802 L857.479356,684.440021 L855.743294,684.440021 C855.612678,684.438629 855.492508,684.369285 855.427204,684.257622 L855.334809,684.099223 C855.288397,684.024053 855.288397,683.929594 855.334809,683.854424 L858.738851,678.372858 C858.807461,678.263405 858.929428,678.197739 859.059804,678.2 L859.157062,678.2 Z" id="Combined-Shape"></path>
        </g>
    </g>
</svg>