<svg width="16" height="16" viewBox="0 0 16 16" fill="none" xmlns="http://www.w3.org/2000/svg">
  <mask id="mask0_848_23556" style="mask-type:alpha" maskUnits="userSpaceOnUse" x="0" y="0" width="16" height="16">
    <rect width="16" height="16" fill="#D9D9D9"/>
  </mask>
  <g mask="url(#mask0_848_23556)">
    <path d="M0.860749 5.7215C0.61687 5.7215 0.412586 5.63915 0.247896 5.47446C0.082632 5.3092 0 5.10463 0 4.86075C0 4.61687 0.082632 4.4123 0.247896 4.24704C0.412586 4.08235 0.61687 4 0.860749 4H9.46824C9.71212 4 9.91669 4.08235 10.082 4.24704C10.2466 4.4123 10.329 4.61687 10.329 4.86075C10.329 5.10463 10.2466 5.3092 10.082 5.47446C9.91669 5.63915 9.71212 5.7215 9.46824 5.7215H0.860749ZM0.860749 9.16449C0.61687 9.16449 0.412586 9.08186 0.247896 8.9166C0.082632 8.75191 0 8.54762 0 8.30375C0 8.05987 0.082632 7.85529 0.247896 7.69003C0.412586 7.52534 0.61687 7.443 0.860749 7.443H9.46824C9.71212 7.443 9.91669 7.52534 10.082 7.69003C10.2466 7.85529 10.329 8.05987 10.329 8.30375C10.329 8.54762 10.2466 8.75191 10.082 8.9166C9.91669 9.08186 9.71212 9.16449 9.46824 9.16449H0.860749ZM0.860749 12.6075C0.61687 12.6075 0.412586 12.5249 0.247896 12.3596C0.082632 12.1949 0 11.9906 0 11.7467C0 11.5029 0.082632 11.2983 0.247896 11.133C0.412586 10.9683 0.61687 10.886 0.860749 10.886H6.02524C6.26912 10.886 6.47369 10.9683 6.63896 11.133C6.80365 11.2983 6.88599 11.5029 6.88599 11.7467C6.88599 11.9906 6.80365 12.1949 6.63896 12.3596C6.47369 12.5249 6.26912 12.6075 6.02524 12.6075H0.860749ZM10.8885 14.5872L9.03787 12.7366C8.88006 12.5788 8.80116 12.378 8.80116 12.1341C8.80116 11.8902 8.88006 11.6894 9.03787 11.5316C9.19567 11.3738 9.39307 11.2948 9.63006 11.2948C9.86648 11.2948 10.0708 11.3738 10.2429 11.5316L11.491 12.7366L14.5467 9.68094C14.7045 9.52314 14.9016 9.44424 15.138 9.44424C15.375 9.44424 15.5796 9.53031 15.7517 9.70246C15.9239 9.87461 16.0065 10.0826 15.9996 10.3265C15.9921 10.5704 15.9023 10.7784 15.7302 10.9505L12.0935 14.5872C11.9357 14.745 11.7349 14.8239 11.491 14.8239C11.2471 14.8239 11.0463 14.745 10.8885 14.5872Z" fill="#7F8A96"/>
  </g>
</svg>
