<?xml version="1.0" encoding="UTF-8"?>
<svg width="60px" height="60px" viewBox="0 0 60 60" version="1.1" xmlns="http://www.w3.org/2000/svg" xmlns:xlink="http://www.w3.org/1999/xlink">
    <!-- Generator: Sketch 55.2 (78181) - https://sketchapp.com -->
    <title>profile/profile</title>
    <desc>Created with Sketch.</desc>
    <defs>
        <path d="M45.7882353,39.15 L43.6941176,38.4051724 C39.8352941,37.0318966 36.8941176,33.912931 35.6941176,30.0491379 C38.1647059,27.5818966 39.6941176,24.1836207 39.6941176,20.4362069 C39.6941176,20.1103448 39.6941176,19.8077586 39.6705882,19.5051724 L39.6705882,9.56637931 C39.6705882,4.35258621 35.3882353,0.11637931 30.1176471,0.11637931 L21.5764706,0.11637931 C16.3058824,0.11637931 12.0235294,4.35258621 12.0235294,9.56637931 L12.0235294,20.4362069 C12.0235294,24.3232759 13.6705882,27.837931 16.3294118,30.3517241 C15.0823529,34.0758621 12.1882353,37.0784483 8.42352941,38.4051724 L6.32941176,39.15 C2.63529412,40.4767241 0.141176471,43.9913793 0.141176471,47.8784483 L0.141176471,50.8810345 C0.141176471,52.6034483 1.55294118,54 3.29411765,54 L48.8235294,54 C50.5647059,54 51.9764706,52.6034483 51.9764706,50.8810345 L51.9764706,47.8784483 C51.9764706,43.9913793 49.4823529,40.4767241 45.7882353,39.15 Z M36.1647059,35.8215517 L30.4941176,42.2689655 L27.6941176,39.5922414 L35.1529412,34.425 C35.4823529,34.9137931 35.8117647,35.3793103 36.1647059,35.8215517 Z M21.5764706,2.44396552 L30.1176471,2.44396552 C34.0941176,2.44396552 37.3176471,5.63275862 37.3176471,9.56637931 L37.3176471,12.2896552 C36.8,11.637931 36.2117647,11.0793103 35.5294118,10.637069 C32.3058824,8.47241379 28.2588235,9.38017241 25.4117647,10.4974138 C23.5764706,11.2189655 21.7647059,11.312069 20,11.4051724 C17.9529412,11.5215517 15.8823529,11.637931 14.3529412,12.9181034 L14.3529412,9.56637931 C14.3764706,5.63275862 17.6,2.44396552 21.5764706,2.44396552 Z M14.3764706,20.4362069 C14.3764706,14.0353448 16.3058824,13.9422414 20.1411765,13.7327586 C22,13.6396552 24.0941176,13.5232759 26.3058824,12.662069 C28.0235294,11.987069 29.5529412,11.637931 30.8941176,11.637931 C32.1882353,11.637931 33.2941176,11.9405172 34.2117647,12.5689655 C36.0470588,13.8025862 37.1529412,16.3396552 37.3176471,19.5982759 L37.3176471,20.4594828 L37.3411765,20.4594828 C37.3411765,26.7206897 32.1882353,31.8181034 25.8588235,31.8181034 C19.5294118,31.7948276 14.3764706,26.6974138 14.3764706,20.4362069 Z M25.8588235,34.1224138 C28.8,34.1224138 31.5294118,33.2146552 33.7647059,31.6551724 C33.8588235,31.887931 33.9529412,32.1206897 34.0470588,32.3534483 L25.8588235,38.0327586 L17.9764706,32.5862069 C18.0705882,32.3534483 18.1882353,32.1206897 18.2823529,31.887931 C20.4470588,33.2844828 23.0588235,34.1224138 25.8588235,34.1224138 Z M16.8235294,34.6344828 L24,39.6155172 L21.2,42.2922414 L15.7647059,36.0543103 C16.1411765,35.612069 16.4941176,35.1232759 16.8235294,34.6344828 Z M49.6235294,50.8810345 C49.6235294,51.3232759 49.2705882,51.6724138 48.8235294,51.6724138 L3.29411765,51.6724138 C2.84705882,51.6724138 2.49411765,51.3232759 2.49411765,50.8810345 L2.49411765,47.8784483 C2.49411765,44.9689655 4.35294118,42.3387931 7.12941176,41.337931 L9.22352941,40.5931034 C11.0352941,39.9413793 12.6823529,38.9637931 14.1176471,37.7301724 L20.2823529,44.7362069 C20.4941176,44.9689655 20.8,45.1318966 21.1294118,45.1318966 C21.1529412,45.1318966 21.1529412,45.1318966 21.1764706,45.1318966 C21.4823529,45.1318966 21.7647059,45.0155172 22,44.8060345 L25.8823529,41.0818966 L29.7647059,44.8060345 C29.9764706,45.0155172 30.2823529,45.1318966 30.5882353,45.1318966 C30.6117647,45.1318966 30.6117647,45.1318966 30.6352941,45.1318966 C30.9647059,45.1086207 31.2705882,44.9689655 31.4823529,44.7362069 L37.8117647,37.5439655 C39.2705882,38.8706897 41.0117647,39.9181034 42.9176471,40.5931034 L45.0117647,41.337931 C47.7882353,42.3387931 49.6470588,44.9689655 49.6470588,47.8784483 L49.6470588,50.8810345 L49.6235294,50.8810345 Z" id="path-1"></path>
    </defs>
    <g id="profile/profile" stroke="none" stroke-width="1" fill="none" fill-rule="evenodd">
        <g id="profile" transform="translate(4.000000, 3.000000)">
            <mask id="mask-2" fill="white">
                <use xlink:href="#path-1"></use>
            </mask>
            <use id="Mask" fill="#000000" fill-rule="nonzero" xlink:href="#path-1"></use>
            <g id="color/2" mask="url(#mask-2)" fill="#27303E">
                <g transform="translate(-4.000000, -3.000000)">
                    <rect x="0" y="0" width="60" height="60"></rect>
                </g>
            </g>
        </g>
    </g>
</svg>