<svg width="20" height="20" viewBox="0 0 20 20" fill="none" xmlns="http://www.w3.org/2000/svg">
<mask id="mask0_5_4489" style="mask-type:alpha" maskUnits="userSpaceOnUse" x="0" y="0" width="20" height="20">
<rect width="20" height="20" fill="#D9D9D9"/>
</mask>
<g mask="url(#mask0_5_4489)">
<path d="M8.27075 17.1458C7.93742 17.1458 7.70492 16.9931 7.57325 16.6875C7.44103 16.3819 7.49297 16.1111 7.72908 15.875L8.81242 14.7917H3.58325C3.16659 14.7917 2.81242 14.6458 2.52075 14.3542C2.22909 14.0625 2.08325 13.7083 2.08325 13.2917V4.41667C2.08325 4.00001 2.22909 3.64584 2.52075 3.35417C2.81242 3.06251 3.16659 2.91667 3.58325 2.91667H16.4166C16.8333 2.91667 17.1874 3.06251 17.4791 3.35417C17.7708 3.64584 17.9166 4.00001 17.9166 4.41667V13.2917C17.9166 13.7083 17.7708 14.0625 17.4791 14.3542C17.1874 14.6458 16.8333 14.7917 16.4166 14.7917H11.1874L12.2708 15.875C12.5069 16.1111 12.5591 16.3819 12.4274 16.6875C12.2952 16.9931 12.0624 17.1458 11.7291 17.1458H8.27075ZM3.33325 11.6667H16.6666V4.41667C16.6666 4.34723 16.6424 4.28834 16.5941 4.24C16.5452 4.19112 16.486 4.16667 16.4166 4.16667H3.58325C3.51381 4.16667 3.45492 4.19112 3.40659 4.24C3.3577 4.28834 3.33325 4.34723 3.33325 4.41667V11.6667Z" fill="#38414D"/>
</g>
</svg>
