<svg width="20" height="20" viewBox="0 0 20 20" fill="none" xmlns="http://www.w3.org/2000/svg">
<mask id="mask0_5_4494" style="mask-type:alpha" maskUnits="userSpaceOnUse" x="0" y="0" width="20" height="20">
<rect width="20" height="20" fill="#D9D9D9"/>
</mask>
<g mask="url(#mask0_5_4494)">
<path d="M7.49992 7.08333C7.31936 7.08333 7.1702 7.02417 7.05242 6.90583C6.93409 6.78805 6.87492 6.63889 6.87492 6.45833C6.87492 6.27778 6.93409 6.12861 7.05242 6.01083C7.1702 5.8925 7.31936 5.83333 7.49992 5.83333H12.4999C12.6805 5.83333 12.8299 5.8925 12.9483 6.01083C13.066 6.12861 13.1249 6.27778 13.1249 6.45833C13.1249 6.63889 13.066 6.78805 12.9483 6.90583C12.8299 7.02417 12.6805 7.08333 12.4999 7.08333H7.49992ZM6.08325 18.75C5.66659 18.75 5.31242 18.6042 5.02075 18.3125C4.72909 18.0208 4.58325 17.6667 4.58325 17.25V2.75C4.58325 2.33333 4.72909 1.97917 5.02075 1.6875C5.31242 1.39583 5.66659 1.25 6.08325 1.25H13.9166C14.3333 1.25 14.6874 1.39583 14.9791 1.6875C15.2708 1.97917 15.4166 2.33333 15.4166 2.75V17.25C15.4166 17.6667 15.2708 18.0208 14.9791 18.3125C14.6874 18.6042 14.3333 18.75 13.9166 18.75H6.08325ZM5.83325 15.2083H14.1666V4.79167H5.83325V15.2083Z" fill="#38414D"/>
</g>
</svg>
