<svg width="20" height="20" viewBox="0 0 20 20" fill="none" xmlns="http://www.w3.org/2000/svg">
<mask id="mask0_5_4471" style="mask-type:alpha" maskUnits="userSpaceOnUse" x="0" y="0" width="20" height="20">
<rect width="20" height="20" fill="#D9D9D9"/>
</mask>
<g mask="url(#mask0_5_4471)">
<path d="M3.58325 16.25C3.16659 16.25 2.81242 16.1042 2.52075 15.8125C2.22909 15.5208 2.08325 15.1667 2.08325 14.75V5.25C2.08325 4.83333 2.22909 4.47917 2.52075 4.1875C2.81242 3.89583 3.16659 3.75 3.58325 3.75H16.4166C16.8333 3.75 17.1874 3.89583 17.4791 4.1875C17.7708 4.47917 17.9166 4.83333 17.9166 5.25V14.75C17.9166 15.1667 17.7708 15.5208 17.4791 15.8125C17.1874 16.1042 16.8333 16.25 16.4166 16.25H3.58325ZM3.58325 15H12.2916V11.9167H3.33325V14.75C3.33325 14.8056 3.36103 14.8611 3.41659 14.9167C3.47214 14.9722 3.5277 15 3.58325 15ZM13.5416 15H16.4166C16.4721 15 16.5277 14.9722 16.5833 14.9167C16.6388 14.8611 16.6666 14.8056 16.6666 14.75V7.60417H13.5416V15ZM3.33325 10.6667H12.2916V7.60417H3.33325V10.6667Z" fill="#38414D"/>
</g>
</svg>
