<svg width="20" height="20" viewBox="0 0 20 20" fill="none" xmlns="http://www.w3.org/2000/svg">
<mask id="mask0_5_4480" style="mask-type:alpha" maskUnits="userSpaceOnUse" x="0" y="0" width="20" height="20">
<rect width="20" height="20" fill="#D9D9D9"/>
</mask>
<g mask="url(#mask0_5_4480)">
<path d="M7.70825 17.5C7.5277 17.5 7.37853 17.4411 7.26075 17.3233C7.14242 17.205 7.08325 17.0556 7.08325 16.875C7.08325 16.6944 7.14242 16.545 7.26075 16.4267C7.37853 16.3089 7.5277 16.25 7.70825 16.25H8.74992V14.5833H3.58325C3.16659 14.5833 2.81242 14.4375 2.52075 14.1458C2.22909 13.8542 2.08325 13.5 2.08325 13.0833V4.41667C2.08325 4.00001 2.22909 3.64584 2.52075 3.35417C2.81242 3.06251 3.16659 2.91667 3.58325 2.91667H16.4166C16.8333 2.91667 17.1874 3.06251 17.4791 3.35417C17.7708 3.64584 17.9166 4.00001 17.9166 4.41667V13.0833C17.9166 13.5 17.7708 13.8542 17.4791 14.1458C17.1874 14.4375 16.8333 14.5833 16.4166 14.5833H11.2499V16.25H12.2916C12.4721 16.25 12.6216 16.3089 12.7399 16.4267C12.8577 16.545 12.9166 16.6944 12.9166 16.875C12.9166 17.0556 12.8577 17.205 12.7399 17.3233C12.6216 17.4411 12.4721 17.5 12.2916 17.5H7.70825ZM3.58325 13.3333H16.4166C16.486 13.3333 16.5452 13.3089 16.5941 13.26C16.6424 13.2117 16.6666 13.1528 16.6666 13.0833V4.41667C16.6666 4.34723 16.6424 4.28834 16.5941 4.24C16.5452 4.19112 16.486 4.16667 16.4166 4.16667H3.58325C3.51381 4.16667 3.45492 4.19112 3.40659 4.24C3.3577 4.28834 3.33325 4.34723 3.33325 4.41667V13.0833C3.33325 13.1528 3.3577 13.2117 3.40659 13.26C3.45492 13.3089 3.51381 13.3333 3.58325 13.3333Z" fill="#38414D"/>
</g>
</svg>
