<svg width="14" height="16" viewBox="0 0 14 16" fill="none" xmlns="http://www.w3.org/2000/svg">
<path d="M13.7493 11.7393C13.3733 12.5718 13.1935 12.944 12.7106 13.6797C12.0359 14.7071 11.0833 15.9892 9.90559 15.998C8.85804 16.0068 8.58767 15.3145 7.166 15.3258C5.74434 15.3327 5.44818 16.0106 4.39938 15.9999C3.22168 15.9892 2.32002 14.8341 1.64471 13.8086C-0.243509 10.9319 -0.442832 7.56042 0.724179 5.76652C1.54976 4.4945 2.85636 3.74751 4.08311 3.74751C5.33249 3.74751 6.11783 4.43414 7.15091 4.43414C8.15318 4.43414 8.76373 3.74563 10.2087 3.74563C11.3015 3.74563 12.4572 4.34108 13.2828 5.3685C10.5815 6.84864 11.0204 10.7068 13.7493 11.7393ZM9.11207 2.59748C9.63773 1.9228 10.0364 0.970833 9.89176 0C9.0341 0.0584763 8.0312 0.606142 7.44518 1.3154C6.91449 1.96116 6.47435 2.92067 6.64601 3.84875C7.58163 3.87893 8.54994 3.3212 9.11207 2.59748Z" fill="#2D4A60"/>
</svg>
