<svg width="20" height="20" viewBox="0 0 20 20" fill="none" xmlns="http://www.w3.org/2000/svg">
<mask id="mask0_5_4505" style="mask-type:alpha" maskUnits="userSpaceOnUse" x="0" y="0" width="20" height="20">
<rect width="20" height="20" fill="#D9D9D9"/>
</mask>
<g mask="url(#mask0_5_4505)">
<path d="M16.7493 13.7393C16.3733 14.5718 16.1935 14.944 15.7106 15.6797C15.0359 16.7071 14.0833 17.9892 12.9056 17.998C11.858 18.0068 11.5877 17.3145 10.166 17.3258C8.74433 17.3327 8.44817 18.0106 7.39937 17.9999C6.22168 17.9892 5.32002 16.8341 4.64471 15.8086C2.75649 12.9319 2.55717 9.56041 3.72418 7.76651C4.54976 6.49449 5.85636 5.7475 7.0831 5.7475C8.33248 5.7475 9.11782 6.43413 10.1509 6.43413C11.1532 6.43413 11.7637 5.74562 13.2087 5.74562C14.3015 5.74562 15.4572 6.34107 16.2828 7.36849C13.5815 8.84863 14.0204 12.7068 16.7493 13.7393ZM12.1121 4.59748C12.6377 3.9228 13.0364 2.97083 12.8917 2C12.0341 2.05848 11.0312 2.60614 10.4452 3.3154C9.91448 3.96116 9.47434 4.92067 9.646 5.84874C10.5816 5.87892 11.5499 5.32119 12.1121 4.59748Z" fill="#38414D"/>
</g>
</svg>
