<svg width="14" height="16" viewBox="0 0 14 16" fill="none" xmlns="http://www.w3.org/2000/svg">
<path d="M2.05791 6.16503V10.3026C2.05791 10.8525 1.62575 11.2921 1.07526 11.2921C0.528769 11.2921 0 10.8491 0 10.3026V6.16503C0 5.6254 0.528769 5.18238 1.07526 5.18238C1.61489 5.18238 2.05791 5.6254 2.05791 6.16503ZM2.44377 11.7746C2.44377 12.3605 2.91538 12.8321 3.50131 12.8321H4.21243L4.22329 15.0152C4.22329 16.3334 6.19546 16.3231 6.19546 15.0152V12.8321H7.52453V15.0152C7.52453 16.3265 9.50756 16.33 9.50756 15.0152V12.8321H10.229C10.3674 12.8316 10.5043 12.8039 10.632 12.7505C10.7597 12.6971 10.8756 12.6191 10.9731 12.5209C11.0707 12.4227 11.1479 12.3062 11.2004 12.1782C11.2529 12.0501 11.2796 11.913 11.2791 11.7746V5.3653H2.44377V11.7746ZM11.3042 5.01832H2.40433C2.40433 3.48917 3.31896 2.16011 4.67661 1.46728L3.99407 0.206233C3.89403 0.0313101 4.14784 -0.0795886 4.23358 0.0701817L4.92641 1.34209C6.17317 0.788164 7.60627 0.816746 8.79586 1.34209L9.48526 0.0736116C9.57444 -0.0801602 9.82482 0.0341682 9.72478 0.209662L9.04224 1.46728C10.389 2.16011 11.3037 3.48975 11.3037 5.01832H11.3042ZM5.20538 3.03529C5.20538 2.93584 5.16587 2.84045 5.09554 2.77013C5.02522 2.6998 4.92983 2.66029 4.83038 2.66029C4.62687 2.66029 4.46624 2.83179 4.46624 3.03529C4.46624 3.2388 4.63088 3.41029 4.83038 3.41029C5.04131 3.41029 5.20538 3.2388 5.20538 3.03529ZM9.25718 3.03529C9.25765 2.93746 9.2197 2.84336 9.1515 2.77322C9.08329 2.70309 8.99027 2.66254 8.89247 2.66029C8.79301 2.66029 8.69763 2.6998 8.62731 2.77013C8.55698 2.84045 8.51747 2.93584 8.51747 3.03529C8.51747 3.13475 8.55698 3.23013 8.62731 3.30045C8.69763 3.37078 8.79301 3.41029 8.89247 3.41029C9.09254 3.41029 9.25718 3.2388 9.25718 3.03529ZM12.6442 5.18295C12.1045 5.18295 11.6615 5.61511 11.6615 6.1656V10.3032C11.6615 10.8531 12.1045 11.2927 12.6442 11.2927C13.1947 11.2927 13.7194 10.8496 13.7194 10.3032V6.1656C13.7194 5.61568 13.1906 5.18295 12.6442 5.18295Z" fill="#2D4A60"/>
</svg>
