<svg width="20" height="16" viewBox="0 0 20 16" fill="none" xmlns="http://www.w3.org/2000/svg">
<path d="M12.33 15.9924H12.12C11.6968 15.9504 11.2979 15.7746 10.9814 15.4905C10.6649 15.2063 10.4472 14.8287 10.36 14.4124L7.68 1.99241L4.92 8.39241C4.84193 8.57129 4.71323 8.72341 4.54975 8.83003C4.38627 8.93665 4.19517 8.99309 4 8.99241H1C0.734784 8.99241 0.48043 8.88706 0.292893 8.69952C0.105357 8.51198 0 8.25763 0 7.99241C0 7.7272 0.105357 7.47284 0.292893 7.28531C0.48043 7.09777 0.734784 6.99241 1 6.99241H3.34L5.85 1.20241C6.01896 0.813875 6.30695 0.489033 6.67244 0.274724C7.03793 0.0604146 7.46203 -0.0322888 7.88361 0.0099797C8.30518 0.0522483 8.70244 0.227305 9.01811 0.50991C9.33377 0.792514 9.55154 1.16806 9.64 1.58241L12.32 13.9924L15.08 7.61241C15.155 7.42979 15.2824 7.27347 15.4461 7.16313C15.6099 7.0528 15.8026 6.9934 16 6.99241H19C19.2652 6.99241 19.5196 7.09777 19.7071 7.28531C19.8946 7.47284 20 7.7272 20 7.99241C20 8.25763 19.8946 8.51198 19.7071 8.69952C19.5196 8.88706 19.2652 8.99241 19 8.99241H16.66L14.15 14.7824C13.9967 15.1389 13.7431 15.4431 13.4199 15.658C13.0967 15.8728 12.718 15.989 12.33 15.9924Z" fill="#6A737D"/>
</svg>
