<?xml version="1.0" encoding="UTF-8"?>
<svg width="60px" height="60px" viewBox="0 0 60 60" version="1.1" xmlns="http://www.w3.org/2000/svg" xmlns:xlink="http://www.w3.org/1999/xlink">
    <!-- Generator: Sketch 59 (86127) - https://sketch.com -->
    <title>puzzle-piece-solid</title>
    <desc>Created with Sketch.</desc>
    <g id="puzzle-piece-solid" stroke="none" stroke-width="1" fill="none" fill-rule="evenodd">
        <path d="M53.7067326,33.0666823 C49.4539184,33.0666823 47.6121146,36.3027708 45.3014861,36.3027708 C39.1582135,36.3027708 44.75,18.25 44.75,18.25 C44.75,18.25 24.6441111,26.4444444 24.6441111,17.9122865 C24.6441111,14.2425069 28.3611111,13.1748733 28.3611111,9.10479514 C28.3611111,5.46830556 25.481276,3.5 22.0656267,3.5 C18.5159983,3.5 15.2677205,5.43501562 15.2677205,9.27155208 C15.2677205,13.5084896 18.5158958,15.3433281 18.5158958,17.64525 C18.5159983,24.7767726 0.5,20.5811146 0.5,20.5811146 L0.5,54.7147656 C0.5,54.7147656 18.7976823,58.9192326 18.7976823,51.778901 C18.7976823,49.4769792 14.7004601,47.6707187 14.7004601,43.4337812 C14.7004601,39.5971424 17.6965538,37.6622292 21.2126875,37.6622292 C24.6618316,37.6622292 27.5416667,39.6305347 27.5416667,43.2669219 C27.5416667,47.337 23.8246667,48.4046337 23.8246667,52.0744132 C23.8246667,58.3024983 37.107349,54.7099514 42.3881563,54.7099514 C42.3881563,54.7099514 38.8312552,42.4079392 45.0336302,42.4079392 C48.7172378,42.4079392 49.7887639,46.1110087 53.8742066,46.1110087 C57.5243194,46.1111111 59.5,43.2420312 59.5,39.8057934 C59.5,36.3027708 57.5577118,33.0666823 53.7067326,33.0666823 Z" id="Path" fill="#000000" fill-rule="nonzero"></path>
    </g>
</svg>