<svg width="25" height="25" viewBox="0 0 25 25" fill="none" xmlns="http://www.w3.org/2000/svg">
<path fill-rule="evenodd" clip-rule="evenodd" d="M12.5 1.75189C6.85163 1.75189 1.75189 6.85163 1.75189 12.5C1.75189 18.1484 6.85163 23.2481 12.5 23.2481C18.1484 23.2481 23.2481 18.1484 23.2481 12.5C23.2481 6.85163 18.1484 1.75189 12.5 1.75189ZM0 12.5C0 5.59644 5.59644 0 12.5 0C19.4036 0 25 5.59644 25 12.5C25 19.4036 19.4036 25 12.5 25C5.59644 25 0 19.4036 0 12.5Z" fill="#0070D0"/>
<path d="M12.2661 15.3975C12.2746 14.8939 12.3317 14.4961 12.4375 14.2041C12.5433 13.9121 12.7591 13.5884 13.085 13.2329L13.9165 12.376C14.272 11.974 14.4497 11.5423 14.4497 11.0811C14.4497 10.6367 14.3333 10.2897 14.1006 10.04C13.8678 9.78613 13.5293 9.65918 13.085 9.65918C12.6533 9.65918 12.3063 9.77344 12.0439 10.002C11.7816 10.2305 11.6504 10.5373 11.6504 10.9224H10.4761C10.4845 10.2368 10.7279 9.68457 11.2061 9.26562C11.6885 8.84245 12.3148 8.63086 13.085 8.63086C13.8848 8.63086 14.5068 8.84668 14.9512 9.27832C15.3997 9.70573 15.624 10.2939 15.624 11.043C15.624 11.7835 15.2812 12.5135 14.5957 13.2329L13.9038 13.9185C13.5949 14.2612 13.4404 14.7542 13.4404 15.3975H12.2661ZM12.2153 17.4097C12.2153 17.2192 12.2725 17.0605 12.3867 16.9336C12.5052 16.8024 12.6787 16.7368 12.9072 16.7368C13.1357 16.7368 13.3092 16.8024 13.4277 16.9336C13.5462 17.0605 13.6055 17.2192 13.6055 17.4097C13.6055 17.6001 13.5462 17.7588 13.4277 17.8857C13.3092 18.0085 13.1357 18.0698 12.9072 18.0698C12.6787 18.0698 12.5052 18.0085 12.3867 17.8857C12.2725 17.7588 12.2153 17.6001 12.2153 17.4097Z" fill="#0070D0"/>
</svg>
