<?xml version="1.0" standalone="no"?>
<!DOCTYPE svg PUBLIC "-//W3C//DTD SVG 20010904//EN"
 "http://www.w3.org/TR/2001/REC-SVG-20010904/DTD/svg10.dtd">
<svg version="1.0" xmlns="http://www.w3.org/2000/svg"
 width="512.000000pt" height="512.000000pt" viewBox="0 0 512.000000 512.000000"
 preserveAspectRatio="xMidYMid meet">

<g transform="translate(0.000000,512.000000) scale(0.100000,-0.100000)"
fill="#000000" stroke="none">
<path d="M935 4729 c-145 -21 -252 -76 -360 -184 -112 -112 -163 -214 -185
-374 -28 -197 58 -420 212 -555 69 -60 188 -121 274 -142 101 -24 267 -15 356
18 191 71 325 205 396 396 33 89 42 255 18 356 -60 253 -277 449 -539 485 -87
12 -87 12 -172 0z m249 -287 c243 -114 298 -426 109 -615 -119 -119 -295 -147
-445 -71 -160 81 -243 278 -189 450 70 225 314 335 525 236z"/>
<path d="M913 4325 c-99 -50 -148 -137 -141 -244 6 -75 23 -116 72 -164 52
-52 101 -72 181 -71 80 0 129 20 181 76 53 55 68 95 69 173 0 80 -20 129 -72
181 -49 50 -90 67 -168 71 -61 4 -77 1 -122 -22z"/>
<path d="M2238 4204 c-78 -42 -76 -171 2 -218 26 -15 139 -16 1280 -16 1141 0
1254 1 1280 16 56 34 77 112 45 174 -33 64 49 60 -1327 60 -1089 -1 -1257 -3
-1280 -16z"/>
<path d="M920 3194 c-251 -48 -451 -233 -516 -475 -22 -84 -22 -234 0 -318 72
-270 306 -461 585 -478 293 -18 572 182 650 467 42 151 22 335 -52 475 -39 73
-172 211 -242 249 -93 52 -191 78 -300 81 -55 2 -111 1 -125 -1z m272 -292
c150 -74 237 -237 210 -398 -21 -128 -96 -230 -210 -286 -62 -31 -74 -33 -167
-33 -89 0 -107 3 -162 29 -77 35 -153 113 -191 193 -23 50 -27 71 -27 153 0
82 4 103 27 152 46 99 143 185 248 219 14 5 66 7 115 6 80 -2 98 -6 157 -35z"/>
<path d="M2254 2676 c-72 -32 -100 -131 -52 -191 45 -58 -19 -55 1318 -55
1337 0 1273 -3 1318 55 30 38 30 112 0 150 -45 58 19 55 -1320 55 -1009 -1
-1239 -3 -1264 -14z"/>
<path d="M868 1645 c-189 -46 -367 -202 -437 -385 -72 -186 -58 -385 41 -558
41 -73 157 -189 230 -230 321 -182 719 -66 888 259 50 96 70 179 70 294 0 296
-195 545 -485 620 -73 19 -229 18 -307 0z m243 -249 c195 -45 325 -241 290
-433 -33 -178 -171 -305 -349 -320 -288 -24 -497 278 -374 541 79 168 254 255
433 212z"/>
<path d="M2236 1131 c-16 -11 -35 -30 -42 -43 -18 -31 -17 -93 1 -128 33 -64
-49 -60 1325 -60 1374 0 1292 -4 1325 60 32 62 11 140 -45 174 -26 15 -139 16
-1282 16 -1222 0 -1254 -1 -1282 -19z"/>
</g>
</svg>
