<svg width="18" height="18" viewBox="0 0 18 18" fill="none" xmlns="http://www.w3.org/2000/svg">
<path d="M0.739506 10.434C0.990894 10.3557 1.26306 10.3799 1.49668 10.5013C1.7303 10.6228 1.90642 10.8317 1.98665 11.0825C2.458 12.5237 3.37691 13.7769 4.60968 14.6597C5.84245 15.5426 7.32477 16.0091 8.84096 15.9913C10.7163 16.0126 12.5236 15.2894 13.8665 13.9801C15.2094 12.6709 15.9783 10.8826 16.0046 9.00727C15.9783 7.13198 15.2094 5.34364 13.8665 4.03442C12.5236 2.72519 10.7163 2.00194 8.84096 2.02326C7.14726 2.01917 5.50568 2.60873 4.20158 3.68945L5.36663 3.33027C5.49638 3.30892 5.62908 3.31343 5.75708 3.34354C5.88509 3.37365 6.00588 3.42877 6.11251 3.50573C6.21914 3.58269 6.3095 3.67997 6.37841 3.79197C6.44731 3.90398 6.49339 4.0285 6.514 4.15837C6.53535 4.28813 6.53084 4.42082 6.50073 4.54883C6.47061 4.67684 6.41549 4.79763 6.33854 4.90426C6.26158 5.01089 6.1643 5.10125 6.05229 5.17015C5.94029 5.23905 5.81577 5.28514 5.68589 5.30575L2.45558 6.00415H2.28596C2.17027 6.00401 2.05549 5.98376 1.94674 5.94429C1.91019 5.93041 1.87641 5.91014 1.84697 5.88442C1.77543 5.85782 1.7082 5.82084 1.64743 5.77467L1.55763 5.66492C1.55763 5.61504 1.46784 5.57513 1.42793 5.51527C1.38802 5.4554 1.42793 5.41549 1.37804 5.37559C1.35048 5.31748 1.32713 5.25746 1.3082 5.196L0.559916 1.20513C0.535021 1.07411 0.536177 0.939467 0.563318 0.808892C0.59046 0.678317 0.643053 0.554366 0.718098 0.444117C0.793142 0.333868 0.889162 0.239479 1.00068 0.16634C1.11221 0.0932006 1.23705 0.0427433 1.36807 0.0178491C1.49909 -0.00704506 1.63373 -0.00588877 1.76431 0.021252C1.89488 0.0483927 2.01883 0.100986 2.12908 0.17603C2.35174 0.327588 2.50507 0.561389 2.55535 0.825999L2.82473 2.27269C4.49492 0.825242 6.63084 0.0282561 8.84096 0.0278263C11.2455 0.00654233 13.5603 0.940034 15.2774 2.62347C16.9945 4.3069 17.9737 6.60276 18 9.00727C17.9737 11.4118 16.9945 13.7077 15.2774 15.3911C13.5603 17.0745 11.2455 18.008 8.84096 17.9867C6.89228 18.0167 4.98547 17.4201 3.40128 16.285C1.81709 15.1498 0.639223 13.536 0.0411034 11.6812C0.00325775 11.5534 -0.00862122 11.4194 0.00616646 11.287C0.0209541 11.1546 0.0621109 11.0265 0.127205 10.9102C0.192299 10.794 0.280014 10.692 0.385176 10.6102C0.490337 10.5284 0.610819 10.4685 0.739506 10.434Z" fill="#606060"/>
<path d="M7.95898 13V5L11.959 8.73333L7.95898 13Z" fill="#606060"/>
</svg>
