<svg width="25" height="25" viewBox="0 0 25 25" fill="none" xmlns="http://www.w3.org/2000/svg">
  <path d="M12.5 25C19.4035 25 25 19.4035 25 12.5C25 5.59637 19.4035 0 12.5 0C5.59653 0 0 5.59646 0 12.5C0 19.4036 5.59644 25 12.5 25ZM12.5 1.99998C18.2895 1.99998 22.9999 6.71044 22.9999 12.5C22.9999 18.2895 18.2895 22.9999 12.5 22.9999C6.71051 22.9999 2.00006 18.2895 2.00006 12.5C2.00006 6.71044 6.70996 1.99998 12.5 1.99998Z" fill="#03A973"/>
  <path d="M19.1406 12.3047L8.88672 18.2248L8.88672 6.38459L19.1406 12.3047Z" fill="#03A973"/>
</svg>
