<?xml version="1.0" encoding="UTF-8"?>
<svg width="60px" height="60px" viewBox="0 0 60 60" version="1.1" xmlns="http://www.w3.org/2000/svg" xmlns:xlink="http://www.w3.org/1999/xlink">
    <!-- Generator: Sketch 55.2 (78181) - https://sketchapp.com -->
    <title>record</title>
    <desc>Created with Sketch.</desc>
    <g id="record" stroke="none" stroke-width="1" fill="none" fill-rule="evenodd">
        <path d="M41.8,30 C41.8,36.51655 36.51655,41.8 30,41.8 C23.48345,41.8 18.2,36.51655 18.2,30 C18.2,23.48345 23.48345,18.2 30,18.2 C36.51655,18.2 41.8,23.48345 41.8,30 M30,53.6 C16.98755,53.6 6.4,43.01245 6.4,30 C6.4,16.98755 16.98755,6.4 30,6.4 C43.01245,6.4 53.6,16.98755 53.6,30 C53.6,43.01245 43.01245,53.6 30,53.6 M30,0.5 C13.70715,0.5 0.5,13.70715 0.5,30 C0.5,46.29285 13.70715,59.5 30,59.5 C46.29285,59.5 59.5,46.29285 59.5,30 C59.5,13.70715 46.29285,0.5 30,0.5" id="record-[#982]" fill="#333333"></path>
    </g>
</svg>