<?xml version="1.0" encoding="UTF-8"?>
<svg width="20px" height="20px" viewBox="0 0 20 20" version="1.1" xmlns="http://www.w3.org/2000/svg" xmlns:xlink="http://www.w3.org/1999/xlink">
    <!-- Generator: Sketch 59.1 (86144) - https://sketch.com -->
    <title>Icon color</title>
    <desc>Created with Sketch.</desc>
    <g id="Page-1" stroke="none" stroke-width="1" fill="none" fill-rule="evenodd">
        <g id="Test-case-11-Copy-42" transform="translate(-681.000000, -552.000000)" fill="#000000" fill-rule="nonzero">
            <path d="M700.5,561 L698.93,561 C698.470915,557.37981 695.62019,554.529085 692,554.07 L692,552.5 C692,552.223858 691.776142,552 691.5,552 L690.5,552 C690.223858,552 690,552.223858 690,552.5 L690,554.07 C686.37981,554.529085 683.529085,557.37981 683.07,561 L681.5,561 C681.223858,561 681,561.223858 681,561.5 L681,562.5 C681,562.776142 681.223858,563 681.5,563 L683.07,563 C683.529085,566.62019 686.37981,569.470915 690,569.93 L690,571.5 C690,571.776142 690.223858,572 690.5,572 L691.5,572 C691.776142,572 692,571.776142 692,571.5 L692,569.93 C695.62019,569.470915 698.470915,566.62019 698.93,563 L700.5,563 C700.776142,563 701,562.776142 701,562.5 L701,561.5 C701,561.223858 700.776142,561 700.5,561 Z M691,568 C687.686292,568 685,565.313708 685,562 C685,558.686292 687.686292,556 691,556 C694.313708,556 697,558.686292 697,562 C697,563.591299 696.367859,565.117422 695.242641,566.242641 C694.117422,567.367859 692.591299,568 691,568 Z M691.191781,559.561644 C689.739196,559.561644 688.561644,560.739196 688.561644,562.191781 C688.561644,563.644365 689.739196,564.821918 691.191781,564.821918 C692.644365,564.821918 693.821918,563.644365 693.821918,562.191781 C693.821918,560.739196 692.644365,559.561644 691.191781,559.561644 Z" id="Icon-color"></path>
        </g>
    </g>
</svg>