<?xml version="1.0" encoding="UTF-8"?>
<svg width="16px" height="16px" viewBox="0 0 16 16" version="1.1" xmlns="http://www.w3.org/2000/svg" xmlns:xlink="http://www.w3.org/1999/xlink">
    <!-- Generator: Sketch 55.2 (78181) - https://sketchapp.com -->
    <title>record [#982]</title>
    <desc>Created with Sketch.</desc>
    <g id="Page-1" stroke="none" stroke-width="1" fill="none" fill-rule="evenodd">
        <g id="Test-case-5-Copy-2" transform="translate(-1043.000000, -21.000000)" fill="#FFFFFF">
            <path d="M1054.2,29 C1054.2,30.7672 1052.7672,32.2 1051,32.2 C1049.2328,32.2 1047.8,30.7672 1047.8,29 C1047.8,27.2328 1049.2328,25.8 1051,25.8 C1052.7672,25.8 1054.2,27.2328 1054.2,29 M1051,35.4 C1047.4712,35.4 1044.6,32.5288 1044.6,29 C1044.6,25.4712 1047.4712,22.6 1051,22.6 C1054.5288,22.6 1057.4,25.4712 1057.4,29 C1057.4,32.5288 1054.5288,35.4 1051,35.4 M1051,21 C1046.5816,21 1043,24.5816 1043,29 C1043,33.4184 1046.5816,37 1051,37 C1055.4184,37 1059,33.4184 1059,29 C1059,24.5816 1055.4184,21 1051,21" id="record-[#982]"></path>
        </g>
    </g>
</svg>