<svg width="24" height="24" viewBox="0 0 24 24" fill="none" xmlns="http://www.w3.org/2000/svg">
<mask id="mask0_2_2689" style="mask-type:alpha" maskUnits="userSpaceOnUse" x="0" y="0" width="24" height="24">
<rect width="24" height="24" fill="#D9D9D9"/>
</mask>
<g mask="url(#mask0_2_2689)">
<path d="M4 16.8V18.7C4 18.7833 4.02933 18.8543 4.088 18.913C4.146 18.971 4.21667 19 4.3 19H19.7C19.7833 19 19.8543 18.971 19.913 18.913C19.971 18.8543 20 18.7833 20 18.7V16.8H4ZM4.3 20.5C3.8 20.5 3.375 20.325 3.025 19.975C2.675 19.625 2.5 19.2 2.5 18.7V8.32499C2.5 7.82499 2.675 7.39999 3.025 7.04999C3.375 6.69999 3.8 6.52499 4.3 6.52499H7.075C6.99167 6.37499 6.92933 6.21666 6.888 6.04999C6.846 5.88333 6.825 5.70833 6.825 5.52499C6.825 4.82499 7.06667 4.23333 7.55 3.74999C8.03333 3.26666 8.625 3.02499 9.325 3.02499C9.74167 3.02499 10.1293 3.13333 10.488 3.34999C10.846 3.56666 11.1583 3.83333 11.425 4.14999L11.975 4.89999L12.55 4.14999C12.8 3.81666 13.1043 3.54566 13.463 3.33699C13.821 3.12899 14.2083 3.02499 14.625 3.02499C15.325 3.02499 15.9167 3.26666 16.4 3.74999C16.8833 4.23333 17.125 4.82499 17.125 5.52499C17.125 5.70833 17.1083 5.88333 17.075 6.04999C17.0417 6.21666 16.975 6.37499 16.875 6.52499H19.7C20.2 6.52499 20.625 6.69999 20.975 7.04999C21.325 7.39999 21.5 7.82499 21.5 8.32499V18.7C21.5 19.2 21.325 19.625 20.975 19.975C20.625 20.325 20.2 20.5 19.7 20.5H4.3ZM4 14.2H20V8.32499C20 8.24166 19.971 8.17066 19.913 8.11199C19.8543 8.05399 19.7833 8.02499 19.7 8.02499H14.225L15.85 10.25C15.9667 10.4 16 10.5667 15.95 10.75C15.9 10.9333 15.8083 11.1 15.675 11.25C15.5083 11.3667 15.325 11.4083 15.125 11.375C14.925 11.3417 14.7667 11.2417 14.65 11.075L11.975 7.47499L9.3 11.1C9.16667 11.2833 9 11.3873 8.8 11.412C8.6 11.4373 8.43333 11.3833 8.3 11.25C8.11667 11.1167 8.01267 10.95 7.988 10.75C7.96267 10.55 8.00833 10.375 8.125 10.225L9.7 8.02499H4.3C4.21667 8.02499 4.146 8.05399 4.088 8.11199C4.02933 8.17066 4 8.24166 4 8.32499V14.2ZM9.325 6.52499C9.60833 6.52499 9.846 6.42899 10.038 6.23699C10.2293 6.04566 10.325 5.80833 10.325 5.52499C10.325 5.24166 10.2293 5.00399 10.038 4.81199C9.846 4.62066 9.60833 4.52499 9.325 4.52499C9.04167 4.52499 8.80433 4.62066 8.613 4.81199C8.421 5.00399 8.325 5.24166 8.325 5.52499C8.325 5.80833 8.421 6.04566 8.613 6.23699C8.80433 6.42899 9.04167 6.52499 9.325 6.52499ZM14.625 6.52499C14.9083 6.52499 15.146 6.42899 15.338 6.23699C15.5293 6.04566 15.625 5.80833 15.625 5.52499C15.625 5.24166 15.5293 5.00399 15.338 4.81199C15.146 4.62066 14.9083 4.52499 14.625 4.52499C14.3417 4.52499 14.1043 4.62066 13.913 4.81199C13.721 5.00399 13.625 5.24166 13.625 5.52499C13.625 5.80833 13.721 6.04566 13.913 6.23699C14.1043 6.42899 14.3417 6.52499 14.625 6.52499Z" fill="#DAF2E8"/>
</g>
</svg>
