<svg width="22" height="22" viewBox="0 0 22 22" fill="none" xmlns="http://www.w3.org/2000/svg">
<path d="M16.4175 12.8333C15.9793 15.4303 13.7197 17.4167 11 17.4167C7.96766 17.4167 5.49999 14.949 5.49999 11.9167C5.49999 8.88433 7.96766 6.41667 11 6.41667H12.991L11.0788 8.32883L12.375 9.625L16.5 5.5L12.375 1.375L11.0788 2.67117L12.991 4.58333H11C9.05507 4.58333 7.18981 5.35595 5.81454 6.73122C4.43927 8.10648 3.66666 9.97175 3.66666 11.9167C3.66666 13.8616 4.43927 15.7269 5.81454 17.1021C7.18981 18.4774 9.05507 19.25 11 19.25C14.74 19.25 17.8182 16.4496 18.2692 12.8333H16.4175Z" fill="#24292E"/>
</svg>
