<?xml version="1.0" encoding="UTF-8"?>
<svg width="60px" height="60px" viewBox="0 0 60 60" version="1.1" xmlns="http://www.w3.org/2000/svg" xmlns:xlink="http://www.w3.org/1999/xlink">
    <!-- Generator: Sketch 55.2 (78181) - https://sketchapp.com -->
    <title>refresh-thick</title>
    <desc>Created with Sketch.</desc>
    <g id="refresh-thick" stroke="none" stroke-width="1" fill="none" fill-rule="evenodd">
        <g id="iconfinder_sync-01_186384" transform="translate(2.700000, 0.500000)" fill="#515151" fill-rule="nonzero">
            <path d="M48.8004129,2.93794689 C48.8004129,2.93794689 45.7850918,5.88044521 43.6959862,7.9467936 C33.0297143,0.154748558 17.9986227,1.03772562 8.36552499,10.6708234 C2.74451119,16.2918372 0.120612847,23.7493522 0.436937105,31.113563 L9.53979346,31.113563 C9.21891778,26.0796835 10.9461848,20.9479482 14.7921416,17.0997157 C20.8523682,11.039489 30.119076,10.1747177 37.1214482,14.4553359 C34.7501542,16.8038728 32.0124701,19.548384 32.0124701,19.548384 C30.0985946,21.8445795 32.2491444,23.1713209 33.3414871,23.1371852 L46.1401032,23.1349094 C46.8159903,23.1349094 47.3667131,23.1371852 47.3667131,23.1371852 C47.3667131,23.1371852 47.924263,23.1371852 48.6024258,23.1371852 L51.0875056,23.1371852 C51.7656684,23.1371852 52.3163912,22.5841866 52.3163912,21.9060238 L52.3163912,4.3124782 C52.3937655,2.70354834 50.6278114,1.14240847 48.8004129,2.93794689 Z" id="Path"></path>
            <path d="M5.8144495,56.2306194 C5.8144495,56.2306194 8.83204638,53.2881211 10.9188762,51.2217727 C21.5874239,59.0138178 36.6162397,58.1308407 46.2516132,48.497743 C51.872627,42.8744535 54.4942496,35.4192141 54.180201,28.0550033 L45.075069,28.0550033 C45.3982204,33.0866072 43.6709534,38.2206181 39.8227209,42.0711264 C33.7624942,48.1290773 24.4957865,48.9961244 17.4934142,44.7132304 C19.8647083,42.3646935 22.6023923,39.6201823 22.6023923,39.6201823 C24.5162679,37.3217111 22.3657181,35.9972455 21.2733753,36.0313812 L8.47475927,36.0359326 C7.79887219,36.0359326 7.24587366,36.0313812 7.24587366,36.0313812 C7.24587366,36.0313812 6.68832371,36.0313812 6.01016091,36.0313812 L3.52963255,36.0313812 C2.85146975,36.0313812 2.30074694,36.582104 2.29847123,37.2625425 L2.29847123,54.8583638 C2.22337267,56.465018 3.9893268,58.0261579 5.8144495,56.2306194 Z" id="Path"></path>
        </g>
    </g>
</svg>