<?xml version="1.0" encoding="UTF-8"?>
<svg width="60px" height="60px" viewBox="0 0 60 60" version="1.1" xmlns="http://www.w3.org/2000/svg" xmlns:xlink="http://www.w3.org/1999/xlink">
    <!-- Generator: Sketch 55.2 (78181) - https://sketchapp.com -->
    <title>refresh ts</title>
    <desc>Created with Sketch.</desc>
    <g id="refresh-ts" stroke="none" stroke-width="1" fill="none" fill-rule="evenodd">
        <path d="M30.6157184,23.3332084 C28.779262,23.3332084 27.2888046,24.8265338 27.2888046,26.6665239 L27.2888046,36.6664704 L43.9233735,36.6664704 C45.7598299,36.6664704 47.2502873,34.9998126 47.2502873,33.1598225 L47.2502873,33.069823 C47.2502873,31.2298328 45.7598299,29.9998394 43.9233735,29.9998394 L33.9426322,29.9998394 L33.9426322,26.6665239 C33.9426322,24.8265338 32.4521748,23.3332084 30.6157184,23.3332084 M53.6479424,33.3331549 C51.9911394,33.3331549 50.6104702,34.5564817 50.3742593,36.1964729 C48.7873214,47.2264139 38.1844472,55.3797036 26.3140189,52.8797169 C18.7818861,51.2930588 12.690307,45.1897581 11.1066961,37.6431318 C8.40191519,24.7432009 18.2030032,13.333262 30.6157184,13.333262 L30.6157184,19.9998929 L47.2502873,9.99994647 L30.6157184,0 L30.6157184,6.66663098 C14.1707837,6.66663098 1.20912763,21.6098843 4.51940683,38.6831263 C6.53551657,49.0797373 14.8993778,57.4596924 25.2760218,59.4796816 C40.9990163,62.5396652 54.9121697,51.7197232 56.9682024,37.0864681 C57.2476631,35.0998121 55.6474176,33.3331549 53.6479424,33.3331549" id="arrow_repeat-[#238]" fill="#000000"></path>
    </g>
</svg>