<?xml version="1.0" encoding="UTF-8"?>
<svg width="60px" height="60px" viewBox="0 0 60 60" version="1.1" xmlns="http://www.w3.org/2000/svg" xmlns:xlink="http://www.w3.org/1999/xlink">
    <!-- Generator: Sketch 59 (86127) - https://sketch.com -->
    <title>reorder copy</title>
    <desc>Created with Sketch.</desc>
    <defs>
        <path d="M35.4084507,47 L24.6591549,47 C23.2619718,47 22.1352113,45.8888889 22.1352113,44.5111111 C22.1352113,43.1333333 23.2619718,42.0222222 24.6591549,42.0222222 L35.4084507,42.0222222 C36.8056338,42.0222222 37.9323944,43.1333333 37.9323944,44.5111111 C37.9323944,45.8888889 36.8056338,47 35.4084507,47 Z M37.9549296,15.5777778 C37.9549296,14.2 36.828169,13.0888889 35.4309859,13.0888889 L24.6816901,13.0888889 C23.284507,13.0888889 22.1577465,14.2 22.1577465,15.5777778 C22.1577465,16.9555556 23.284507,18.0666667 24.6816901,18.0666667 L35.4309859,18.0666667 C36.8056338,18.0888889 37.9549296,16.9555556 37.9549296,15.5777778 Z M37.9549296,25.2222222 C37.9549296,23.8444444 36.828169,22.7333333 35.4309859,22.7333333 L24.6816901,22.7333333 C23.284507,22.7333333 22.1577465,23.8444444 22.1577465,25.2222222 C22.1577465,26.6 23.284507,27.7111111 24.6816901,27.7111111 L35.4309859,27.7111111 C36.8056338,27.7111111 37.9549296,26.6 37.9549296,25.2222222 Z M37.9549296,34.8666667 C37.9549296,33.4888889 36.828169,32.3777778 35.4309859,32.3777778 L24.6816901,32.3777778 C23.284507,32.3777778 22.1577465,33.4888889 22.1577465,34.8666667 C22.1577465,36.2444444 23.284507,37.3555556 24.6816901,37.3555556 L35.4309859,37.3555556 C36.8056338,37.3777778 37.9549296,36.2444444 37.9549296,34.8666667 Z" id="path-1"></path>
    </defs>
    <g id="reorder-copy" stroke="none" stroke-width="1" fill="none" fill-rule="evenodd">
        <!-- <mask id="mask-2" fill="white">
            <use xlink:href="#path-1"></use>
        </mask> -->
        <use id="Mask" fill="#000000" fill-rule="nonzero" xlink:href="#path-1"></use>
        <!-- <g id="color" mask="url(#mask-2)" fill="#27303E">
            <rect id="Rectangle" x="0" y="0" width="60" height="60"></rect>
        </g> -->
    </g>
</svg>