<?xml version="1.0" encoding="UTF-8"?>
<svg width="60px" height="60px" viewBox="0 0 60 60" version="1.1" xmlns="http://www.w3.org/2000/svg" xmlns:xlink="http://www.w3.org/1999/xlink">
    <!-- Generator: Sketch 55.2 (78181) - https://sketchapp.com -->
    <title>Reports ts</title>
    <desc>Created with Sketch.</desc>
    <g id="Reports-ts" stroke="none" stroke-width="1" fill="none" fill-rule="evenodd">
        <path d="M28,4.87940436 L28,32 L55.0197567,32 C55.0197567,47.1875 42.6875,60 27.5,60 C12.3125,60 -2.13162821e-13,47.6875 -2.13162821e-13,32.5 C-2.13162821e-13,17.3125 12.8125,4.87940436 28,4.87940436 Z M22,12.107844 C12.4756679,14.3171621 6,22.3037731 6,32.5 C6,44.3738636 15.6261364,54 27.5,54 C37.3960198,54 45.497919,47.1013168 48,38 C47.3489951,37.9821012 38.6823284,37.9821012 22,38 C22.0718121,28.0701622 22.0718121,19.4394435 22,12.107844 Z M32,0 C47.4636364,0 60,12.5363636 60,28 L32,28 L32,0 Z" id="reports-ts" fill="#000000" fill-rule="nonzero"></path>
    </g>
</svg>