<svg width="20" height="20" viewBox="0 0 20 20" fill="none" xmlns="http://www.w3.org/2000/svg">
<mask id="mask0_36_367" style="mask-type:alpha" maskUnits="userSpaceOnUse" x="0" y="0" width="20" height="20">
<rect width="20" height="20" fill="#D9D9D9"/>
</mask>
<g mask="url(#mask0_36_367)">
<path d="M6.66675 13.8542H10.8334C11.014 13.8542 11.1634 13.7953 11.2817 13.6775C11.3995 13.5592 11.4584 13.4097 11.4584 13.2292C11.4584 13.0625 11.3995 12.9167 11.2817 12.7917C11.1634 12.6667 11.014 12.6042 10.8334 12.6042H6.66675C6.48619 12.6042 6.33703 12.6667 6.21925 12.7917C6.10091 12.9167 6.04175 13.0625 6.04175 13.2292C6.04175 13.4097 6.10091 13.5592 6.21925 13.6775C6.33703 13.7953 6.48619 13.8542 6.66675 13.8542ZM6.66675 10.625H13.3334C13.514 10.625 13.6634 10.5658 13.7817 10.4475C13.8995 10.3297 13.9584 10.1806 13.9584 10C13.9584 9.81944 13.8995 9.67 13.7817 9.55167C13.6634 9.43389 13.514 9.375 13.3334 9.375H6.66675C6.48619 9.375 6.33703 9.43389 6.21925 9.55167C6.10091 9.67 6.04175 9.81944 6.04175 10C6.04175 10.1806 6.10091 10.3297 6.21925 10.4475C6.33703 10.5658 6.48619 10.625 6.66675 10.625ZM6.66675 7.39583H13.3334C13.514 7.39583 13.6634 7.33333 13.7817 7.20833C13.8995 7.08333 13.9584 6.9375 13.9584 6.77083C13.9584 6.59028 13.8995 6.44111 13.7817 6.32333C13.6634 6.205 13.514 6.14583 13.3334 6.14583H6.66675C6.48619 6.14583 6.33703 6.205 6.21925 6.32333C6.10091 6.44111 6.04175 6.59028 6.04175 6.77083C6.04175 6.9375 6.10091 7.08333 6.21925 7.20833C6.33703 7.33333 6.48619 7.39583 6.66675 7.39583ZM4.41675 15.8333H15.5834C15.639 15.8333 15.6945 15.8056 15.7501 15.75C15.8056 15.6944 15.8334 15.6389 15.8334 15.5833V4.41667C15.8334 4.36111 15.8056 4.30556 15.7501 4.25C15.6945 4.19444 15.639 4.16667 15.5834 4.16667H4.41675C4.36119 4.16667 4.30564 4.19444 4.25008 4.25C4.19453 4.30556 4.16675 4.36111 4.16675 4.41667V15.5833C4.16675 15.6389 4.19453 15.6944 4.25008 15.75C4.30564 15.8056 4.36119 15.8333 4.41675 15.8333ZM4.41675 17.0833C4.00008 17.0833 3.64591 16.9375 3.35425 16.6458C3.06258 16.3542 2.91675 16 2.91675 15.5833V4.41667C2.91675 4 3.06258 3.64583 3.35425 3.35417C3.64591 3.0625 4.00008 2.91667 4.41675 2.91667H8.12508C8.18064 2.45833 8.38564 2.06583 8.74008 1.73917C9.09397 1.41306 9.51397 1.25 10.0001 1.25C10.5001 1.25 10.9237 1.41306 11.2709 1.73917C11.6181 2.06583 11.8195 2.45833 11.8751 2.91667H15.5834C16.0001 2.91667 16.3542 3.0625 16.6459 3.35417C16.9376 3.64583 17.0834 4 17.0834 4.41667V15.5833C17.0834 16 16.9376 16.3542 16.6459 16.6458C16.3542 16.9375 16.0001 17.0833 15.5834 17.0833H4.41675ZM10.0001 3.625C10.1806 3.625 10.3301 3.56583 10.4484 3.4475C10.5662 3.32972 10.6251 3.18056 10.6251 3C10.6251 2.81944 10.5662 2.67 10.4484 2.55167C10.3301 2.43389 10.1806 2.375 10.0001 2.375C9.81953 2.375 9.67036 2.43389 9.55258 2.55167C9.43425 2.67 9.37508 2.81944 9.37508 3C9.37508 3.18056 9.43425 3.32972 9.55258 3.4475C9.67036 3.56583 9.81953 3.625 10.0001 3.625Z" fill="#4B5768"/>
</g>
</svg>
