<svg width="17" height="18" viewBox="0 0 17 18" fill="none" xmlns="http://www.w3.org/2000/svg">
<path fill-rule="evenodd" clip-rule="evenodd" d="M0 2.7C0 1.20883 1.20883 0 2.7 0H12.7C14.1912 0 15.4 1.20883 15.4 2.7V5.2H14V2.7C14 1.98203 13.418 1.4 12.7 1.4H2.7C1.98203 1.4 1.4 1.98203 1.4 2.7V14.7C1.4 15.418 1.98203 16 2.7 16H12.7C13.418 16 14 15.418 14 14.7V12.2H15.4V14.7C15.4 16.1912 14.1912 17.4 12.7 17.4H2.7C1.20883 17.4 0 16.1912 0 14.7V2.7ZM11.2002 5.2002C11.2002 5.47634 10.9763 5.7002 10.7002 5.7002H4.2002C3.92405 5.7002 3.7002 5.47634 3.7002 5.2002C3.7002 4.92405 3.92405 4.7002 4.2002 4.7002H10.7002C10.9763 4.7002 11.2002 4.92405 11.2002 5.2002ZM8.7002 8.7002C8.97634 8.7002 9.2002 8.47634 9.2002 8.2002C9.2002 7.92405 8.97634 7.7002 8.7002 7.7002H4.2002C3.92405 7.7002 3.7002 7.92405 3.7002 8.2002C3.7002 8.47634 3.92405 8.7002 4.2002 8.7002H8.7002ZM7.2002 11.2002C7.2002 11.4763 6.97634 11.7002 6.7002 11.7002H4.2002C3.92405 11.7002 3.7002 11.4763 3.7002 11.2002C3.7002 10.9241 3.92405 10.7002 4.2002 10.7002H6.7002C6.97634 10.7002 7.2002 10.9241 7.2002 11.2002ZM8.81739 14.5571C8.90039 14.648 9.01778 14.7 9.14092 14.7002C9.15365 14.7002 9.16726 14.6998 9.18086 14.6984L10.3635 14.5909L15.3305 9.62338L13.7778 8.07074L8.80949 13.0387L8.70194 14.2216C8.69086 14.3448 8.73287 14.4668 8.81739 14.5571ZM14.0882 7.7603L15.6404 9.31294L15.6408 9.3125L16.5714 8.38162C16.6539 8.29926 16.7002 8.1875 16.7002 8.07096C16.7002 7.95442 16.6539 7.84266 16.5714 7.7603L15.6404 6.82898C15.558 6.74652 15.4463 6.7002 15.3298 6.7002C15.2133 6.7002 15.1016 6.74652 15.0192 6.82898L14.0882 7.7603Z" fill="#2D4A60"/>
</svg>
