<svg width="16" height="14" viewBox="0 0 16 14" fill="none" xmlns="http://www.w3.org/2000/svg">
<path d="M2.59459 4.60811L4.68919 8.37838H0.5L2.59459 4.60811ZM0.918919 0H4.27027V3.35135H0.918919V0ZM2.59459 13.4054C3.03901 13.4054 3.46523 13.2289 3.77948 12.9146C4.09373 12.6004 4.27027 12.1741 4.27027 11.7297C4.27027 11.2853 4.09373 10.8591 3.77948 10.5448C3.46523 10.2306 3.03901 10.0541 2.59459 10.0541C2.15018 10.0541 1.72396 10.2306 1.40971 10.5448C1.09546 10.8591 0.918919 11.2853 0.918919 11.7297C0.918919 12.1741 1.09546 12.6004 1.40971 12.9146C1.72396 13.2289 2.15018 13.4054 2.59459 13.4054ZM5.94595 0.837838V2.51351H16V0.837838H5.94595ZM5.94595 12.5676H16V10.8919H5.94595V12.5676ZM5.94595 7.54054H16V5.86486H5.94595V7.54054Z" fill="#2D4A60"/>
</svg>
