<?xml version="1.0" encoding="UTF-8"?>
<svg width="60px" height="60px" viewBox="0 0 60 60" version="1.1" xmlns="http://www.w3.org/2000/svg" xmlns:xlink="http://www.w3.org/1999/xlink">
    <!-- Generator: Sketch 55.2 (78181) - https://sketchapp.com -->
    <title>requirements ts</title>
    <desc>Created with Sketch.</desc>
    <g id="requirements-ts" stroke="none" stroke-width="1" fill="none" fill-rule="evenodd">
        <path d="M22.0144618,9 C22.004865,8.8345585 22,8.6678474 22,8.5 C22,3.80557963 25.8055796,0 30.5,0 C35.1944204,0 39,3.80557963 39,8.5 C39,8.6678474 38.995135,8.8345585 38.9855382,9 L48,9 C51.3137085,9 54,11.6862915 54,15 L54,54 C54,57.3137085 51.3137085,60 48,60 L12,60 C8.6862915,60 6,57.3137085 6,54 L6,15 C6,11.6862915 8.6862915,9 12,9 L22.0144618,9 Z M30.5,12 C32.4329966,12 34,10.4329966 34,8.5 C34,6.56700338 32.4329966,5 30.5,5 C28.5670034,5 27,6.56700338 27,8.5 C27,10.4329966 28.5670034,12 30.5,12 Z M49,22.4 L46.693,20 L39.769,27.2 L36.307,23.6 L34,26 L39.769,32 L39.769,31.9985 L39.7705,32 L49,22.4 Z M49,39.4 L46.693,37 L39.769,44.2 L36.307,40.6 L34,43 L39.769,49 L39.769,48.9985 L39.7705,49 L49,39.4 Z M13.5,24 C12.1192881,24 11,25.1192881 11,26.5 C11,27.8807119 12.1192881,29 13.5,29 L26.5,29 C27.8807119,29 29,27.8807119 29,26.5 C29,25.1192881 27.8807119,24 26.5,24 L13.5,24 Z M13.5,41 C12.1192881,41 11,42.1192881 11,43.5 C11,44.8807119 12.1192881,46 13.5,46 L26.5,46 C27.8807119,46 29,44.8807119 29,43.5 C29,42.1192881 27.8807119,41 26.5,41 L13.5,41 Z" id="Combined-Shape" fill="#000000"></path>
    </g>
</svg>