<svg width="20" height="20" viewBox="0 0 20 20" fill="none" xmlns="http://www.w3.org/2000/svg">
<mask id="mask0_5_4511" style="mask-type:alpha" maskUnits="userSpaceOnUse" x="0" y="0" width="20" height="20">
<rect width="20" height="20" fill="#D9D9D9"/>
</mask>
<g mask="url(#mask0_5_4511)">
<path d="M12.5 16.2917C12.3194 16.2917 12.1703 16.2325 12.0525 16.1142C11.9342 15.9964 11.875 15.8472 11.875 15.6667C11.875 15.5 11.9342 15.3542 12.0525 15.2292C12.1703 15.1042 12.3194 15.0417 12.5 15.0417H14C14.2917 15.0417 14.5383 14.9411 14.74 14.74C14.9411 14.5383 15.0417 14.2917 15.0417 14V12.2708C15.0417 11.7847 15.1875 11.3403 15.4792 10.9375C15.7708 10.5347 16.1528 10.2569 16.625 10.1042V9.89583C16.1528 9.74305 15.7708 9.46527 15.4792 9.0625C15.1875 8.65972 15.0417 8.21527 15.0417 7.72916V5.99999C15.0417 5.70833 14.9411 5.46166 14.74 5.25999C14.5383 5.05888 14.2917 4.95833 14 4.95833H12.5C12.3194 4.95833 12.1703 4.89583 12.0525 4.77083C11.9342 4.64583 11.875 4.49999 11.875 4.33333C11.875 4.15277 11.9342 4.00333 12.0525 3.885C12.1703 3.76722 12.3194 3.70833 12.5 3.70833H14C14.6389 3.70833 15.1806 3.93055 15.625 4.375C16.0694 4.81944 16.2917 5.36111 16.2917 5.99999V7.72916C16.2917 8.00694 16.3856 8.24305 16.5733 8.4375C16.7606 8.63194 16.9861 8.74305 17.25 8.77083C17.4306 8.78472 17.58 8.85055 17.6983 8.96833C17.8161 9.08666 17.875 9.23611 17.875 9.41666V10.5833C17.875 10.7639 17.8161 10.9131 17.6983 11.0308C17.58 11.1492 17.4306 11.2153 17.25 11.2292C16.9861 11.2569 16.7606 11.3681 16.5733 11.5625C16.3856 11.7569 16.2917 11.9931 16.2917 12.2708V14C16.2917 14.6389 16.0694 15.1806 15.625 15.625C15.1806 16.0694 14.6389 16.2917 14 16.2917H12.5ZM6 16.2917C5.36111 16.2917 4.81944 16.0694 4.375 15.625C3.93056 15.1806 3.70833 14.6389 3.70833 14V12.2708C3.70833 11.9931 3.61472 11.7569 3.4275 11.5625C3.23972 11.3681 3.01389 11.2569 2.75 11.2292C2.56944 11.2153 2.42028 11.1492 2.3025 11.0308C2.18417 10.9131 2.125 10.7639 2.125 10.5833V9.41666C2.125 9.23611 2.18417 9.08666 2.3025 8.96833C2.42028 8.85055 2.56944 8.78472 2.75 8.77083C3.01389 8.74305 3.23972 8.63194 3.4275 8.4375C3.61472 8.24305 3.70833 8.00694 3.70833 7.72916V5.99999C3.70833 5.36111 3.93056 4.81944 4.375 4.375C4.81944 3.93055 5.36111 3.70833 6 3.70833H7.5C7.68056 3.70833 7.83 3.76722 7.94833 3.885C8.06611 4.00333 8.125 4.15277 8.125 4.33333C8.125 4.49999 8.06611 4.64583 7.94833 4.77083C7.83 4.89583 7.68056 4.95833 7.5 4.95833H6C5.70833 4.95833 5.46167 5.05888 5.26 5.25999C5.05889 5.46166 4.95833 5.70833 4.95833 5.99999V7.72916C4.95833 8.21527 4.8125 8.65972 4.52083 9.0625C4.22917 9.46527 3.84722 9.74305 3.375 9.89583V10.1042C3.84722 10.2569 4.22917 10.5347 4.52083 10.9375C4.8125 11.3403 4.95833 11.7847 4.95833 12.2708V14C4.95833 14.2917 5.05889 14.5383 5.26 14.74C5.46167 14.9411 5.70833 15.0417 6 15.0417H7.5C7.68056 15.0417 7.83 15.1042 7.94833 15.2292C8.06611 15.3542 8.125 15.5 8.125 15.6667C8.125 15.8472 8.06611 15.9964 7.94833 16.1142C7.83 16.2325 7.68056 16.2917 7.5 16.2917H6Z" fill="#38414D"/>
<path d="M6.66659 10.8333C6.4351 10.8333 6.23844 10.7522 6.07659 10.59C5.91436 10.4281 5.83325 10.2315 5.83325 10C5.83325 9.76852 5.91436 9.57185 6.07659 9.41C6.23844 9.24778 6.4351 9.16666 6.66659 9.16666C6.89807 9.16666 7.09492 9.24778 7.25714 9.41C7.41899 9.57185 7.49992 9.76852 7.49992 10C7.49992 10.2315 7.41899 10.4281 7.25714 10.59C7.09492 10.7522 6.89807 10.8333 6.66659 10.8333ZM9.87492 10.8333C9.64344 10.8333 9.44677 10.7522 9.28492 10.59C9.1227 10.4281 9.04159 10.2315 9.04159 10C9.04159 9.76852 9.1227 9.57185 9.28492 9.41C9.44677 9.24778 9.64344 9.16666 9.87492 9.16666C10.1064 9.16666 10.3031 9.24778 10.4649 9.41C10.6271 9.57185 10.7083 9.76852 10.7083 10C10.7083 10.2315 10.6271 10.4281 10.4649 10.59C10.3031 10.7522 10.1064 10.8333 9.87492 10.8333ZM13.0833 10.8333C12.8518 10.8333 12.6551 10.7522 12.4933 10.59C12.331 10.4281 12.2499 10.2315 12.2499 10C12.2499 9.76852 12.331 9.57185 12.4933 9.41C12.6551 9.24778 12.8518 9.16666 13.0833 9.16666C13.3147 9.16666 13.5116 9.24778 13.6738 9.41C13.8357 9.57185 13.9166 9.76852 13.9166 10C13.9166 10.2315 13.8357 10.4281 13.6738 10.59C13.5116 10.7522 13.3147 10.8333 13.0833 10.8333Z" fill="#38414D"/>
</g>
</svg>
