<?xml version="1.0" encoding="UTF-8"?>
<svg width="20px" height="19px" viewBox="0 0 20 19" version="1.1" xmlns="http://www.w3.org/2000/svg" xmlns:xlink="http://www.w3.org/1999/xlink">
    <!-- Generator: Sketch 60.1 (88133) - https://sketch.com -->
    <title>rest</title>
    <desc>Created with Sketch.</desc>
    <g id="Symbols" stroke="none" stroke-width="1" fill="none" fill-rule="evenodd">
        <g id="rest" fill="#000000" fill-rule="nonzero">
            <g id="Page-1">
                <g id="Test-case-11-Copy-42">
                    <path d="M5.7,0 L5.7,1.9 L5.3,1.9 C3.7,1.9 3.2,2.4 3.2,4 L3.2,6.5 C3.2,7.9 2.6,8.7 1.3,8.8 L1.3,9 C2.5,9.1 3.2,10 3.2,11.4 L3.2,14.2 C3.2,15.7 3.7,16.3 5.3,16.3 L5.7,16.3 L5.7,18.2 L4.9,18.2 C2.2,18.2 1.7,17.1 1.7,14.6 L1.7,12 C1.7,10.5 1.3,10 0.1,10 L0.1,7.6 C1.3,7.6 1.7,7.1 1.7,5.6 L1.7,3.6 C1.7,1.1 2.2,0.1 4.9,0.1 L5.7,0.1 L5.7,0 Z M15.1,0 C17.8,0 18.3,1.1 18.3,3.5 L18.3,3.5 L18.3,5.5 C18.3,7 18.7,7.5 19.9,7.5 L19.9,7.5 L19.9,9.9 C18.7,9.9 18.3,10.4 18.3,11.9 L18.3,11.9 L18.3,14.3 C18.3,16.8 17.8,17.9 15.1,17.9 L15.1,17.9 L14.3,17.9 L14.3,16 L14.7,16 C16.2,16 16.8,15.5 16.8,13.9 L16.8,13.9 L16.8,11.1 C16.8,9.6 17.4,8.8 18.7,8.7 L18.7,8.7 L18.7,8.5 C17.4,8.4 16.8,7.6 16.8,6.2 L16.8,6.2 L16.8,3.7 C16.8,2.2 16.3,1.6 14.7,1.6 L14.7,1.6 L14.3,1.6 L14.3,0 L15.1,0 Z" id="Combined-Shape"></path>
                </g>
            </g>
            <g id="Group" transform="translate(5.500000, 8.000000)">
                <path d="M1.5,2.1 C0.966666667,2.1 0.5,1.6862069 0.5,1.13448276 C0.5,0.513793103 0.9,0.1 1.5,0.1 C2.03333333,0.1 2.5,0.513793103 2.5,1.06551724 C2.5,1.61724138 2.03333333,2.1 1.5,2.1 Z" id="Path"></path>
                <path d="M4.5,2.1 C3.96666667,2.1 3.5,1.6862069 3.5,1.13448276 C3.5,0.513793103 3.9,0.1 4.5,0.1 C5.03333333,0.1 5.5,0.582758621 5.5,1.13448276 C5.5,1.61724138 5.03333333,2.1 4.5,2.1 Z" id="Path"></path>
                <path d="M7.43333333,0 C8.03333333,0 8.5,0.466666667 8.5,1 C8.5,1.53333333 8.03333333,2 7.5,2 C6.9,2 6.5,1.6 6.5,1 C6.5,0.466666667 6.9,0 7.43333333,0 Z" id="Path"></path>
            </g>
        </g>
    </g>
</svg>