<?xml version="1.0" encoding="utf-8"?>
<!-- Generator: Adobe Illustrator 23.0.2, SVG Export Plug-In . SVG Version: 6.00 Build 0)  -->
<svg version="1.1" id="Layer_1" xmlns="http://www.w3.org/2000/svg" xmlns:xlink="http://www.w3.org/1999/xlink" x="0px" y="0px"
	 viewBox="0 0 60 60" style="enable-background:new 0 0 60 60;" xml:space="preserve">
<path d="M3.3,30.2c2.6,1.1,3.5,3.2,3.8,5.7c0.1,2.1,0.1,4,0.1,6.1c0,2.1,0.7,2.8,2.8,2.8c0.8,0,1,0.3,1,1c0,1.9,0,1.9-1.9,1.8
	c-2.9-0.1-4.5-1.8-4.6-4.7c-0.3-2.5,0-5.2-0.3-7.7c-0.3-2.1-1-3.1-3.1-3.5c-0.4-0.1-0.6-0.3-0.6-0.7c0-0.3,0-0.4,0-0.7
	c-0.1-1,0.1-1.5,1.3-1.8C3.2,28.3,3.9,27,4,25.6c0.3-1.9,0.1-4,0.1-6c0-1.1,0.1-2.1,0.4-3.1c0.7-2.6,3.2-4.3,6-3.6
	c0.3,0,0.4,0.1,0.4,0.4c0,0.7,0,1.4,0,2.1c0,0.3-0.1,0.4-0.4,0.4c-0.3,0-0.4,0-0.7,0c-1.9,0.3-2.5,0.8-2.5,2.8s0,3.9-0.1,5.8
	C6.9,26.7,6.1,28.9,3.3,30.2z"/>
<path d="M56.5,30.2c-2.9-1.3-3.6-3.8-3.8-6.5c-0.1-1.9,0.1-3.8-0.1-5.7c-0.3-1.8-0.6-2.4-2.5-2.4c-1,0-1.1-0.4-1.1-1.3
	c0-1.7,0-1.7,1.7-1.5c3.2,0.1,4.7,1.8,4.9,5.2c0.1,2.2,0,4.5,0.3,6.7c0.1,2.4,0.8,3.3,3.2,4c0.4,0.1,0.6,0.3,0.4,0.6
	c0,0.3,0,0.6,0,0.8c0.1,1,0,1.5-1.3,1.8c-1.4,0.3-2.4,1.8-2.4,3.6c-0.1,2.2-0.1,4.6-0.3,6.8c-0.1,1.7-0.4,3.2-1.8,4.3
	c-1.4,1.1-2.9,1-4.5,1c-0.1,0-0.3-0.1-0.3-0.3c0-0.1,0-0.3,0-0.6c0-1.8,0-1.8,1.7-2.1c1.3-0.3,1.7-0.6,1.8-1.9
	c0.1-1.7,0.1-3.3,0.1-5c0-1.1,0.1-2.4,0.3-3.5C53.3,32.4,54.4,31,56.5,30.2z"/>
<path d="M20.2,47.5c-1.8,0-3.3-1.4-3.3-3.2c0-1.9,1.4-3.3,3.3-3.3c1.8,0,3.3,1.4,3.3,3.2C23.5,45.9,22,47.5,20.2,47.5z"/>
<path d="M30.2,47.5c-1.8,0-3.3-1.4-3.3-3.2c0-1.9,1.4-3.3,3.3-3.3c1.8,0,3.3,1.5,3.3,3.3C33.5,45.9,32,47.5,30.2,47.5z"/>
<path d="M40.2,40.8c1.9,0,3.5,1.5,3.5,3.3s-1.5,3.3-3.3,3.3c-1.9,0-3.3-1.4-3.3-3.3C36.9,42.3,38.3,40.8,40.2,40.8z"/>
</svg>
