<?xml version="1.0" encoding="utf-8"?>
<!-- Generator: Adobe Illustrator 23.0.2, SVG Export Plug-In . SVG Version: 6.00 Build 0)  -->
<svg version="1.1" id="Layer_1" xmlns="http://www.w3.org/2000/svg" xmlns:xlink="http://www.w3.org/1999/xlink" x="0px" y="0px"
	 viewBox="0 0 60 60" enable-background="new 0 0 60 60" xml:space="preserve">
<g>
	<g>
		<path fill="#FEFEFE" d="M0,30c0-9.9,0-19.7,0-29.6C0,0.1,0.1,0,0.4,0c19.7,0,39.5,0,59.2,0C59.9,0,60,0.1,60,0.4
			c0,19.7,0,39.5,0,59.2c0,0.3-0.1,0.4-0.4,0.4c-19.7,0-39.5,0-59.2,0C0.1,60,0,59.9,0,59.6C0,49.7,0,39.9,0,30z"/>
		<path fill="#121C24" d="M8.1,29.9C7.9,18.1,17.8,7.6,30.8,8.1c11.2,0.5,20.9,9.5,20.9,21.8c0,12.3-9.8,22-22.2,21.9
			C17.5,51.7,7.9,41.8,8.1,29.9z"/>
	</g>
</g>
<path fill="#F9FCFB" d="M14.7,30.2c1.9,0.8,2.5,2.3,2.7,4.1c0.1,1.5,0.1,2.9,0.1,4.4c0,1.5,0.5,2,2,2c0.6,0,0.7,0.2,0.7,0.7
	c0,1.4,0,1.4-1.4,1.3c-2.1-0.1-3.2-1.3-3.3-3.4c-0.2-1.8,0-3.7-0.2-5.5c-0.2-1.5-0.7-2.2-2.2-2.5c-0.3-0.1-0.4-0.2-0.4-0.5
	c0-0.2,0-0.3,0-0.5c-0.1-0.7,0.1-1.1,0.9-1.3c1-0.2,1.5-1.1,1.6-2.1c0.2-1.4,0.1-2.9,0.1-4.3c0-0.8,0.1-1.5,0.3-2.2
	c0.5-1.9,2.3-3.1,4.3-2.6c0.2,0,0.3,0.1,0.3,0.3c0,0.5,0,1,0,1.5c0,0.2-0.1,0.3-0.3,0.3c-0.2,0-0.3,0-0.5,0c-1.4,0.2-1.8,0.6-1.8,2
	c0,1.4,0,2.8-0.1,4.2C17.3,27.7,16.7,29.3,14.7,30.2z"/>
<path fill="#FAFDFC" d="M45.2,30.2c-2.1-0.9-2.6-2.7-2.7-4.7c-0.1-1.4,0.1-2.7-0.1-4.1c-0.2-1.3-0.4-1.7-1.8-1.7
	c-0.7,0-0.8-0.3-0.8-0.9c0-1.2,0-1.2,1.2-1.1c2.3,0.1,3.4,1.3,3.5,3.7c0.1,1.6,0,3.2,0.2,4.8c0.1,1.7,0.6,2.4,2.3,2.9
	c0.3,0.1,0.4,0.2,0.3,0.4c0,0.2,0,0.4,0,0.6c0.1,0.7,0,1.1-0.9,1.3c-1,0.2-1.7,1.3-1.7,2.6c-0.1,1.6-0.1,3.3-0.2,4.9
	c-0.1,1.2-0.3,2.3-1.3,3.1c-1,0.8-2.1,0.7-3.2,0.7c-0.1,0-0.2-0.1-0.2-0.2c0-0.1,0-0.2,0-0.4c0-1.3,0-1.3,1.2-1.5
	c0.9-0.2,1.2-0.4,1.3-1.4c0.1-1.2,0.1-2.4,0.1-3.6c0-0.8,0.1-1.7,0.2-2.5C42.9,31.8,43.7,30.8,45.2,30.2z"/>
<path fill="#FAFDFC" d="M22.8,32.6c-1.3,0-2.4-1-2.4-2.3c0-1.4,1-2.4,2.4-2.4c1.3,0,2.4,1,2.4,2.3C25.2,31.5,24.1,32.6,22.8,32.6z"
	/>
<path fill="#FBFDFD" d="M30,32.6c-1.3,0-2.4-1-2.4-2.3c0-1.4,1-2.4,2.4-2.4c1.3,0,2.4,1.1,2.4,2.4C32.4,31.5,31.3,32.6,30,32.6z"/>
<path fill="#FAFDFC" d="M37.2,27.8c1.4,0,2.5,1.1,2.5,2.4c0,1.3-1.1,2.4-2.4,2.4c-1.4,0-2.4-1-2.4-2.4
	C34.8,28.9,35.8,27.8,37.2,27.8z"/>
<text transform="matrix(1 0 0 1 22.595 20.982)" fill="#FFFFFF" font-family="'MyriadPro-Regular'" font-size="4.7756px">RESTful</text>
<text transform="matrix(1 0 0 1 26.7523 42.563)" fill="#FFFFFF" font-family="'MyriadPro-Regular'" font-size="4.9166px">API</text>
</svg>
