<svg width="24" height="24" viewBox="0 0 24 24" fill="none" xmlns="http://www.w3.org/2000/svg">
  <circle cx="12" cy="12" r="11" stroke="#000" stroke-width="2"/>
  <path d="M18 9.2L17.3 8.5L14 11.8L10.7 8.5L10 9.2L13.3 12.5L10 15.8L10.7 16.5L14 13.2L17.3 16.5L18 15.8L14.7 12.5L18 9.2Z" fill="#000" stroke="#000" stroke-width="0.5"/>
  <path d="M8.23828 14.4863H7.01367L6.87891 8.46875H8.37891L8.23828 14.4863ZM6.83789 16.3262C6.83789 16.1035 6.91016 15.9199 7.05469 15.7754C7.19922 15.627 7.39648 15.5527 7.64648 15.5527C7.89648 15.5527 8.09375 15.627 8.23828 15.7754C8.38281 15.9199 8.45508 16.1035 8.45508 16.3262C8.45508 16.541 8.38477 16.7207 8.24414 16.8652C8.10352 17.0098 7.9043 17.082 7.64648 17.082C7.38867 17.082 7.18945 17.0098 7.04883 16.8652C6.9082 16.7207 6.83789 16.541 6.83789 16.3262Z" fill="#000"/>
</svg>
