<svg width="24" height="24" viewBox="0 0 24 24" fill="none" xmlns="http://www.w3.org/2000/svg">
  <circle cx="12" cy="12" r="11" stroke="#000" stroke-width="2"/>
  <path d="M13.1641 14.5078H11.2891L11.0234 6.625H13.4297L13.1641 14.5078ZM12.2266 15.7422C12.6068 15.7422 12.9115 15.8542 13.1406 16.0781C13.375 16.3021 13.4922 16.5885 13.4922 16.9375C13.4922 17.2812 13.375 17.5651 13.1406 17.7891C12.9115 18.013 12.6068 18.125 12.2266 18.125C11.8516 18.125 11.5469 18.013 11.3125 17.7891C11.0833 17.5651 10.9688 17.2812 10.9688 16.9375C10.9688 16.5938 11.0833 16.3099 11.3125 16.0859C11.5469 15.8568 11.8516 15.7422 12.2266 15.7422Z" fill="#000"/>
</svg>
