<svg width="20" height="20" viewBox="0 0 20 20" fill="none" xmlns="http://www.w3.org/2000/svg">
<mask id="mask0_36_384" style="mask-type:alpha" maskUnits="userSpaceOnUse" x="0" y="0" width="20" height="20">
<rect width="20" height="20" fill="#D9D9D9"/>
</mask>
<g mask="url(#mask0_36_384)">
<path d="M6.77091 13.9583C6.93758 13.9583 7.08341 13.8995 7.20841 13.7817C7.33341 13.6633 7.39592 13.5139 7.39592 13.3333V9.16667C7.39592 8.98612 7.33341 8.83667 7.20841 8.71834C7.08341 8.60056 6.93758 8.54167 6.77091 8.54167C6.59036 8.54167 6.44119 8.60056 6.32341 8.71834C6.20508 8.83667 6.14591 8.98612 6.14591 9.16667V13.3333C6.14591 13.5139 6.20508 13.6633 6.32341 13.7817C6.44119 13.8995 6.59036 13.9583 6.77091 13.9583ZM10.0001 13.9583C10.1806 13.9583 10.3301 13.8995 10.4484 13.7817C10.5662 13.6633 10.6251 13.5139 10.6251 13.3333V6.66667C10.6251 6.48612 10.5662 6.33695 10.4484 6.21917C10.3301 6.10084 10.1806 6.04167 10.0001 6.04167C9.81953 6.04167 9.67036 6.10084 9.55258 6.21917C9.43425 6.33695 9.37508 6.48612 9.37508 6.66667V13.3333C9.37508 13.5139 9.43425 13.6633 9.55258 13.7817C9.67036 13.8995 9.81953 13.9583 10.0001 13.9583ZM13.2292 13.9583C13.4098 13.9583 13.5592 13.8995 13.6776 13.7817C13.7954 13.6633 13.8542 13.5139 13.8542 13.3333V11.6667C13.8542 11.4861 13.7954 11.3367 13.6776 11.2183C13.5592 11.1006 13.4098 11.0417 13.2292 11.0417C13.0626 11.0417 12.9167 11.1006 12.7917 11.2183C12.6667 11.3367 12.6042 11.4861 12.6042 11.6667V13.3333C12.6042 13.5139 12.6667 13.6633 12.7917 13.7817C12.9167 13.8995 13.0626 13.9583 13.2292 13.9583ZM4.41675 17.0833C4.00008 17.0833 3.64591 16.9375 3.35425 16.6458C3.06258 16.3542 2.91675 16 2.91675 15.5833V4.41667C2.91675 4.00001 3.06258 3.64584 3.35425 3.35417C3.64591 3.06251 4.00008 2.91667 4.41675 2.91667H15.5834C16.0001 2.91667 16.3542 3.06251 16.6459 3.35417C16.9376 3.64584 17.0834 4.00001 17.0834 4.41667V15.5833C17.0834 16 16.9376 16.3542 16.6459 16.6458C16.3542 16.9375 16.0001 17.0833 15.5834 17.0833H4.41675ZM4.41675 15.8333H15.5834C15.6529 15.8333 15.712 15.8092 15.7609 15.7608C15.8092 15.712 15.8334 15.6528 15.8334 15.5833V4.41667C15.8334 4.34723 15.8092 4.28834 15.7609 4.24001C15.712 4.19112 15.6529 4.16667 15.5834 4.16667H4.41675C4.3473 4.16667 4.28841 4.19112 4.24008 4.24001C4.19119 4.28834 4.16675 4.34723 4.16675 4.41667V15.5833C4.16675 15.6528 4.19119 15.712 4.24008 15.7608C4.28841 15.8092 4.3473 15.8333 4.41675 15.8333Z" fill="#4B5768"/>
</g>
</svg>
