<?xml version="1.0" encoding="UTF-8"?>
<svg width="60px" height="60px" viewBox="0 0 60 60" version="1.1" xmlns="http://www.w3.org/2000/svg" xmlns:xlink="http://www.w3.org/1999/xlink">
    <!-- Generator: Sketch 55.2 (78181) - https://sketchapp.com -->
    <title>run results ts</title>
    <desc>Created with Sketch.</desc>
    <g id="run-results-ts" stroke="none" stroke-width="1" fill="none" fill-rule="evenodd">
        <path d="M54,12.6894531 L54,54 C54,57.3137085 51.3137085,60 48,60 L12,60 C8.6862915,60 6,57.3137085 6,54 L6,6 C6,2.6862915 8.6862915,0 12,0 L39.0683594,0 L54,12.6894531 Z M41.9369988,37.4780283 C42.6154519,36.7712533 43.6923615,37.2716051 43.6923615,38.270065 L43.6923615,44.6721191 C43.6923615,45.9106582 44.7391177,46.8231641 45.9280259,46.8231641 L45.8871033,46.8231641 C47.0781654,46.8231641 48,45.9106582 48,44.6721191 L48,32.2389185 C48,29.7595968 46.2338682,28.8733234 43.8560518,28.8733234 L33.0869556,28.8733234 C31.8980474,28.8733234 30.9208984,29.6570201 30.9208984,30.8955591 L30.9208984,31.1760254 C30.9208984,32.4145644 31.8980474,33.3607836 33.0869556,33.3607836 L38.3530436,33.3607836 C39.313647,33.3607836 39.7939487,34.0092216 39.1154956,34.7159965 L31.3481739,42.3215608 C30.5081844,43.1988593 29.1448168,43.0575043 28.3026735,42.1824496 L27.4152999,41.1862334 C25.7331671,39.4338802 23.0064319,39.4002242 21.3221453,41.1525774 L12.5152557,50.0567342 C11.6731124,50.9317889 11.1385719,52.1121653 12.1914062,53.2136624 C13.3724586,54.5037669 14.7186128,54.0909609 15.5607562,53.2136624 L22.6467441,45.8801168 C23.4888875,45.0028183 24.9513307,45.0028183 25.793474,45.8801168 L26.723924,46.8000461 C28.403903,48.5568868 31.1844836,48.5591305 32.8687703,46.8045336 L41.9369988,37.4780283 Z M35,5 L35,17.1445312 L49.5,17.1445312 L35,5 Z" id="Combined-Shape" fill="#000000"></path>
    </g>
</svg>