<svg width="14" height="16" viewBox="0 0 14 16" fill="none" xmlns="http://www.w3.org/2000/svg">
<path fill-rule="evenodd" clip-rule="evenodd" d="M12 1.4H2C1.66863 1.4 1.4 1.66863 1.4 2V14C1.4 14.3314 1.66863 14.6 2 14.6H12C12.3314 14.6 12.6 14.3314 12.6 14V2C12.6 1.66863 12.3314 1.4 12 1.4ZM2 0C0.895431 0 0 0.895431 0 2V14C0 15.1046 0.89543 16 2 16H12C13.1046 16 14 15.1046 14 14V2C14 0.895431 13.1046 0 12 0H2Z" fill="#2D4A60"/>
<path d="M3.9624 9.0092L5.3232 7.6484L6.4544 8.78L7.7172 7.5172L7 6.8H9V8.8L8.2828 8.0828L6.4544 9.9112L5.3232 8.78L4.3332 9.7696C4.78257 10.4459 5.47225 10.9262 6.2625 11.1129C7.05274 11.2997 7.88443 11.1791 8.58905 10.7755C9.29366 10.3719 9.81849 9.71551 10.0572 8.93936C10.2959 8.16322 10.2306 7.32536 9.8745 6.59557C9.51844 5.86579 8.89825 5.29865 8.13962 5.0091C7.38098 4.71954 6.54064 4.72923 5.78888 5.03619C5.03711 5.34315 4.43016 5.92442 4.09102 6.66222C3.75187 7.40002 3.70589 8.23916 3.9624 9.0096V9.0092ZM3.3472 9.6324L3.3432 9.6284L3.3448 9.6268C3.11677 9.11481 2.99928 8.56048 3 8C3 5.7908 4.7908 4 7 4C9.2092 4 11 5.7908 11 8C11 10.2092 9.2092 12 7 12C5.372 12 3.972 11.028 3.3472 9.6324V9.6324Z" fill="#2D4A60"/>
</svg>
