<svg width="18" height="17" viewBox="0 0 18 17" fill="none" xmlns="http://www.w3.org/2000/svg">
<path fill-rule="evenodd" clip-rule="evenodd" d="M15.3 0C16.7912 0 18 1.20883 18 2.7V4.5C18 5.99117 16.7912 7.2 15.3 7.2H14.4V9H15.3C16.7912 9 18 10.2088 18 11.7V13.5C18 14.9912 16.7912 16.2 15.3 16.2H2.7C1.20883 16.2 0 14.9912 0 13.5V11.7C0 10.2088 1.20883 9 2.7 9H3.6V7.2H2.7C1.20883 7.2 0 5.99117 0 4.5V2.7C0 1.20883 1.20883 0 2.7 0H15.3ZM15.3 10.8H2.7C2.20294 10.8 1.8 11.2029 1.8 11.7V13.5C1.8 13.9971 2.20294 14.4 2.7 14.4H15.3C15.7971 14.4 16.2 13.9971 16.2 13.5V11.7C16.2 11.2029 15.7971 10.8 15.3 10.8ZM4.5 11.7C4.99706 11.7 5.4 12.1029 5.4 12.6C5.4 13.0971 4.99706 13.5 4.5 13.5C4.00294 13.5 3.6 13.0971 3.6 12.6C3.6 12.1029 4.00294 11.7 4.5 11.7ZM12.6 7.2H5.4V9H12.6V7.2ZM15.3 1.8H2.7C2.20294 1.8 1.8 2.20294 1.8 2.7V4.5C1.8 4.99706 2.20294 5.4 2.7 5.4H15.3C15.7971 5.4 16.2 4.99706 16.2 4.5V2.7C16.2 2.20294 15.7971 1.8 15.3 1.8ZM4.5 2.7C4.99706 2.7 5.4 3.10294 5.4 3.6C5.4 4.09706 4.99706 4.5 4.5 4.5C4.00294 4.5 3.6 4.09706 3.6 3.6C3.6 3.10294 4.00294 2.7 4.5 2.7Z" fill="#6A737D"/>
</svg>
