<?xml version="1.0" standalone="no"?>
<!DOCTYPE svg PUBLIC "-//W3C//DTD SVG 20010904//EN"
 "http://www.w3.org/TR/2001/REC-SVG-20010904/DTD/svg10.dtd">
<svg version="1.0" xmlns="http://www.w3.org/2000/svg"
 width="256.000000pt" height="256.000000pt" viewBox="0 0 256.000000 256.000000"
 preserveAspectRatio="xMidYMid meet">

<g transform="translate(0.000000,256.000000) scale(0.100000,-0.100000)"
fill="#000000" stroke="none">
<path d="M290 2422 c-75 -37 -70 38 -70 -1142 0 -984 1 -1057 18 -1090 37 -74
-26 -70 1042 -70 889 0 957 1 990 18 74 36 70 -20 70 990 l0 904 -197 204
-196 204 -811 0 c-752 0 -814 -1 -846 -18z m270 -408 c0 -412 0 -412 60 -448
25 -14 83 -16 525 -16 535 0 537 0 567 53 10 16 14 119 18 402 l5 380 95 3 95
3 182 -188 182 -188 1 -896 c0 -868 -1 -898 -19 -920 -18 -23 -27 -24 -145
-27 l-125 -4 -3 461 -3 461 -33 32 -32 33 -638 3 -638 2 -35 -23 c-18 -12 -39
-34 -46 -47 -10 -19 -13 -135 -13 -473 l0 -449 -126 4 c-118 3 -127 4 -145 27
-18 23 -19 55 -19 1078 0 727 3 1060 11 1074 16 31 45 38 167 38 l112 1 0
-376z m1125 -2 l0 -374 -24 -19 c-22 -18 -46 -19 -517 -19 -481 0 -495 1 -514
20 -19 19 -20 33 -20 395 l0 375 538 -2 537 -3 0 -373z m239 -923 l26 -20 0
-450 0 -449 -670 0 -670 0 0 449 0 450 26 20 c26 21 35 21 644 21 609 0 618 0
644 -21z"/>
<path d="M1197 2204 c-10 -10 -8 -406 1 -422 7 -9 43 -12 148 -10 l139 3 0
215 0 215 -141 3 c-77 1 -143 -1 -147 -4z m241 -211 l2 -173 -100 0 -100 0 0
169 c0 195 -13 176 120 176 l75 0 3 -172z"/>
<path d="M987 896 c-13 -33 15 -36 293 -36 278 0 306 3 293 36 -8 21 -578 21
-586 0z"/>
<path d="M850 655 c-6 -8 -9 -19 -5 -25 4 -7 148 -10 435 -10 287 0 431 3 435
10 4 6 1 17 -5 25 -11 13 -77 15 -430 15 -353 0 -419 -2 -430 -15z"/>
<path d="M987 406 c-13 -33 15 -36 293 -36 278 0 306 3 293 36 -8 21 -578 21
-586 0z"/>
</g>
</svg>
