<svg width="22" height="24" viewBox="0 0 22 24" fill="none" xmlns="http://www.w3.org/2000/svg">
  <path d="M14.5715 24C13.2153 24 11.8895 23.5978 10.7619 22.8444C9.63423 22.0909 8.75533 21.0199 8.23633 19.767C7.71733 18.514 7.58153 17.1352 7.84612 15.8051C8.1107 14.4749 8.76378 13.2531 9.72277 12.2941C10.6818 11.3351 11.9036 10.6821 13.2337 10.4175C14.5639 10.1529 15.9426 10.2887 17.1956 10.8077C18.4486 11.3267 19.5195 12.2056 20.273 13.3332C21.0265 14.4609 21.4286 15.7866 21.4286 17.1428C21.4286 18.9615 20.7062 20.7056 19.4202 21.9916C18.1343 23.2775 16.3901 24 14.5715 24ZM14.5715 12C13.5543 12 12.56 12.3016 11.7143 12.8667C10.8685 13.4318 10.2094 14.235 9.82012 15.1748C9.43087 16.1145 9.32902 17.1486 9.52746 18.1462C9.7259 19.1438 10.2157 20.0602 10.935 20.7794C11.6542 21.4986 12.5706 21.9884 13.5682 22.1869C14.5658 22.3853 15.5999 22.2835 16.5396 21.8942C17.4793 21.505 18.2825 20.8458 18.8476 20.0001C19.4127 19.1543 19.7144 18.16 19.7144 17.1428C19.7144 15.7789 19.1725 14.4708 18.208 13.5063C17.2436 12.5418 15.9355 12 14.5715 12Z" fill="black"/>
  <path d="M15.9344 19.7142L13.7144 17.4942V13.7142H15.4286V16.7914L17.1429 18.5057L15.9344 19.7142Z" fill="black"/>
  <path d="M20.5714 3.42857C20.5714 2.97391 20.3908 2.53788 20.0693 2.21639C19.7478 1.8949 19.3118 1.71429 18.8571 1.71429H15.4286V0H13.7143V1.71429H6.85714V0H5.14286V1.71429H1.71429C1.25963 1.71429 0.823593 1.8949 0.502102 2.21639C0.180612 2.53788 0 2.97391 0 3.42857V20.5714C0 21.0261 0.180612 21.4621 0.502102 21.7836C0.823593 22.1051 1.25963 22.2857 1.71429 22.2857H5.14286V20.5714H1.71429V3.42857H5.14286V5.14286H6.85714V3.42857H13.7143V5.14286H15.4286V3.42857H18.8571V8.57143H20.5714V3.42857Z" fill="black"/>
</svg>
