<svg width="18" height="14" viewBox="0 0 18 14" fill="none" xmlns="http://www.w3.org/2000/svg">
<path d="M17.125 1.375H14V0.28125C14 0.195312 13.9297 0.125 13.8438 0.125H12.75C12.6641 0.125 12.5938 0.195312 12.5938 0.28125V1.375H9.70312V0.28125C9.70312 0.195312 9.63281 0.125 9.54688 0.125H8.45312C8.36719 0.125 8.29688 0.195312 8.29688 0.28125V1.375H5.40625V0.28125C5.40625 0.195312 5.33594 0.125 5.25 0.125H4.15625C4.07031 0.125 4 0.195312 4 0.28125V1.375H0.875C0.529297 1.375 0.25 1.6543 0.25 2V13.25C0.25 13.5957 0.529297 13.875 0.875 13.875H17.125C17.4707 13.875 17.75 13.5957 17.75 13.25V2C17.75 1.6543 17.4707 1.375 17.125 1.375ZM16.3438 12.4688H1.65625V2.78125H4V3.875C4 3.96094 4.07031 4.03125 4.15625 4.03125H5.25C5.33594 4.03125 5.40625 3.96094 5.40625 3.875V2.78125H8.29688V3.875C8.29688 3.96094 8.36719 4.03125 8.45312 4.03125H9.54688C9.63281 4.03125 9.70312 3.96094 9.70312 3.875V2.78125H12.5938V3.875C12.5938 3.96094 12.6641 4.03125 12.75 4.03125H13.8438C13.9297 4.03125 14 3.96094 14 3.875V2.78125H16.3438V12.4688ZM7.125 6.6875H3.53125C3.44531 6.6875 3.375 6.75781 3.375 6.84375V7.78125C3.375 7.86719 3.44531 7.9375 3.53125 7.9375H7.125C7.21094 7.9375 7.28125 7.86719 7.28125 7.78125V6.84375C7.28125 6.75781 7.21094 6.6875 7.125 6.6875ZM7.125 9.34375H3.53125C3.44531 9.34375 3.375 9.41406 3.375 9.5V10.4375C3.375 10.5234 3.44531 10.5938 3.53125 10.5938H7.125C7.21094 10.5938 7.28125 10.5234 7.28125 10.4375V9.5C7.28125 9.41406 7.21094 9.34375 7.125 9.34375ZM13.1445 5.87891L11.1211 8.68555L10.0898 7.25781C10.0312 7.17578 9.9375 7.12891 9.83789 7.12891H8.76562C8.63867 7.12891 8.56445 7.27344 8.63867 7.37695L10.8672 10.4668C10.896 10.5067 10.9338 10.5392 10.9776 10.5617C11.0214 10.5841 11.0699 10.5958 11.1191 10.5958C11.1684 10.5958 11.2169 10.5841 11.2607 10.5617C11.3045 10.5392 11.3423 10.5067 11.3711 10.4668L14.5938 6C14.668 5.89648 14.5938 5.75195 14.4668 5.75195H13.3945C13.2969 5.75 13.2031 5.79883 13.1445 5.87891Z" fill="#6A737D"/>
</svg>
