<svg width="20" height="18" viewBox="0 0 20 18" fill="none" xmlns="http://www.w3.org/2000/svg">
<path d="M19.35 13.5L14.85 18L11.7 14.85L13.05 13.5L14.85 15.3L18 12.15L19.35 13.5ZM9.99 16.11C9.63 16.2 9.36 16.2 9 16.2C5.04 16.2 1.8 12.96 1.8 9C1.8 5.04 5.04 1.8 9 1.8C12.96 1.8 16.2 5.04 16.2 9C16.2 9.36 16.2 9.63 16.11 9.99C16.74 10.08 17.28 10.26 17.82 10.53C17.91 9.99 18 9.54 18 9C18 4.05 13.95 0 9 0C4.05 0 0 4.05 0 9C0 13.95 4.05 18 9 18C9.54 18 10.08 17.91 10.53 17.82C10.26 17.37 10.08 16.74 9.99 16.11ZM12.24 10.89L9.45 9.27V4.5H8.1V9.9L11.25 11.79C11.52 11.43 11.88 11.16 12.24 10.89Z" fill="#6A737D"/>
</svg>
