<svg width="16" height="14" viewBox="0 0 16 14" fill="none" xmlns="http://www.w3.org/2000/svg">
  <path d="M2.4 7.00001H4V4.60001H6.4V3.00001H2.4V7.00001ZM9.6 11H13.6V7.00001H12V9.40001H9.6V11ZM1.6 13.4C1.16 13.4 0.783467 13.2435 0.4704 12.9304C0.1568 12.6168 0 12.24 0 11.8V2.20001C0 1.76001 0.1568 1.38347 0.4704 1.07041C0.783467 0.756806 1.16 0.600006 1.6 0.600006H14.4C14.84 0.600006 15.2168 0.756806 15.5304 1.07041C15.8435 1.38347 16 1.76001 16 2.20001V11.8C16 12.24 15.8435 12.6168 15.5304 12.9304C15.2168 13.2435 14.84 13.4 14.4 13.4H1.6ZM1.6 11.8H14.4V2.20001H1.6V11.8Z" fill="#7F8A96"/>
</svg>
