<?xml version="1.0" encoding="utf-8"?>
<!-- Generator: Adobe Illustrator 24.3.0, SVG Export Plug-In . SVG Version: 6.00 Build 0)  -->
<svg version="1.1" id="Layer_1" xmlns:sketch="http://www.bohemiancoding.com/sketch/ns"
	 xmlns="http://www.w3.org/2000/svg" xmlns:xlink="http://www.w3.org/1999/xlink" x="0px" y="0px" viewBox="0 0 24 24"
	 style="enable-background:new 0 0 24 24;" xml:space="preserve">
<style type="text/css">
	
		.st0{fill-rule:evenodd;clip-rule:evenodd;stroke:#000000;stroke-width:0.5;stroke-linecap:round;stroke-linejoin:round;stroke-miterlimit:10;}
	.st1{fill-rule:evenodd;clip-rule:evenodd;stroke:#000000;stroke-miterlimit:10;}
</style>
<g id="Page-1">
	<g id="Icons-Device" transform="translate(-210.000000, -124.000000)">
		<g id="screen-rotation" transform="translate(210.000000, 124.000000)">
			<path class="st0" d="M15.8,2.9c3.5,1.6,6,5,6.4,9h1.6C23.1,5.4,17.7,0.2,11,0.2h-0.7l4,4L15.8,2.9L15.8,2.9z"/>
			<path class="st1" d="M20.1,12.9l-9-9C10.2,3,8.9,3,8.1,3.8L3.8,8.1C3,8.9,3,10.2,3.8,11l9,9c0.8,0.8,2.1,0.8,2.9,0l4.3-4.3
				C20.9,15,20.9,13.7,20.1,12.9z M13.5,18.2l-7.7-7.7c-0.3-0.3-0.3-0.8,0-1.2l3.6-3.6c0.3-0.3,0.8-0.3,1.2,0l7.7,7.7
				c0.3,0.3,0.3,0.8,0,1.2l-3.6,3.6C14.3,18.5,13.8,18.5,13.5,18.2z"/>
			<path class="st0" d="M8.2,21.1c-3.5-1.6-6-5-6.4-9.1H0.3c0.5,6.6,6,11.8,12.8,11.8h0.8l-4.1-4.1L8.2,21.1L8.2,21.1z"/>
		</g>
	</g>
</g>
</svg>
