<?xml version="1.0" standalone="no"?>
<!DOCTYPE svg PUBLIC "-//W3C//DTD SVG 20010904//EN"
 "http://www.w3.org/TR/2001/REC-SVG-20010904/DTD/svg10.dtd">
<svg version="1.0" xmlns="http://www.w3.org/2000/svg"
 width="256.000000pt" height="256.000000pt" viewBox="0 0 256.000000 256.000000"
 preserveAspectRatio="xMidYMid meet">

<g transform="translate(0.000000,256.000000) scale(0.100000,-0.100000)"
fill="#000000" stroke="none">
<path d="M928 2366 c-99 -36 -166 -95 -216 -189 l-27 -52 0 -625 0 -625 34
-63 c60 -110 163 -180 278 -190 l63 -5 0 42 c0 41 0 41 -38 41 -90 0 -180 54
-230 138 l-27 47 -3 593 c-2 394 1 606 8 632 15 54 67 119 125 155 l48 30 337
0 337 0 48 -30 c58 -36 110 -101 125 -155 7 -26 10 -238 8 -632 l-3 -593 -27
-47 c-50 -84 -140 -138 -230 -138 -38 0 -38 0 -38 -41 l0 -41 58 4 c116 8 223
80 283 190 l34 63 0 625 0 625 -28 53 c-39 75 -87 124 -159 163 l-63 34 -330
2 c-255 2 -338 0 -367 -11z"/>
<path d="M1240 1850 l0 -170 40 0 40 0 0 170 0 170 -40 0 -40 0 0 -170z"/>
<path d="M1150 1065 l0 -25 131 0 c130 0 130 0 127 23 -3 21 -7 22 -130 25
l-128 3 0 -26z"/>
<path d="M1150 950 l0 -30 130 0 130 0 0 30 0 30 -130 0 -130 0 0 -30z"/>
<path d="M1150 810 l0 -40 130 0 130 0 0 40 0 40 -130 0 -130 0 0 -40z"/>
<path d="M1150 550 l0 -150 -47 0 -48 0 113 -112 113 -113 104 110 104 110
-40 3 -39 3 0 150 0 149 -130 0 -130 0 0 -150z"/>
</g>
</svg>
