<?xml version="1.0" encoding="UTF-8"?>
<svg width="60px" height="60px" viewBox="0 0 60 60" version="1.1" xmlns="http://www.w3.org/2000/svg" xmlns:xlink="http://www.w3.org/1999/xlink">
    <!-- Generator: Sketch 55.2 (78181) - https://sketchapp.com -->
    <title>search-thick</title>
    <desc>Created with Sketch.</desc>
    <g id="search-thick" stroke="none" stroke-width="1" fill="none" fill-rule="evenodd">
        <path d="M58.6429418,50.2845839 L46.9199039,38.561546 C49.2421561,34.7700511 50.6501476,30.3521366 50.6501476,25.5750738 C50.6501476,11.7295192 39.4186041,0.5 25.5750738,0.5 C23.2404716,0.5 20.9802481,0.819275968 18.8356973,1.41653395 C8.26180923,4.36136465 0.5,14.0641214 0.5,25.5750738 C0.5,39.4186041 11.7295192,50.6501476 25.5750738,50.6501476 C30.3521366,50.6501476 34.7700511,49.2421561 38.561546,46.9280664 L50.2845839,58.6429418 C51.4273281,59.7856861 53.3210186,59.7775236 54.4637628,58.6429418 L58.6429418,54.4637628 C59.7856861,53.3210186 59.7856861,51.4273281 58.6429418,50.2845839 Z M25.5750738,42.2917897 C16.3433328,42.2917897 8.85835794,34.8068149 8.85835794,25.5750738 C8.85835794,16.3433328 16.3433328,8.85835794 25.5750738,8.85835794 C34.8068149,8.85835794 42.2917897,16.3433328 42.2917897,25.5750738 C42.2917897,34.8068149 34.8068149,42.2917897 25.5750738,42.2917897 Z" id="Shape" fill="#333333" fill-rule="nonzero"></path>
    </g>
</svg>