<?xml version="1.0" encoding="UTF-8"?>
<svg width="16px" height="16px" viewBox="0 0 16 16" version="1.1" xmlns="http://www.w3.org/2000/svg" xmlns:xlink="http://www.w3.org/1999/xlink">
    <!-- Generator: Sketch 55.2 (78181) - https://sketchapp.com -->
    <title>search_left [#1504]</title>
    <desc>Created with Sketch.</desc>
    <g id="Page-1" stroke="none" stroke-width="1" fill="none" fill-rule="evenodd">
        <g id="Test-case-7-Copy-3" transform="translate(-580.000000, -253.000000)" fill="#333333">
            <path d="M596,267.8688 L594.8688,269 L591.4744,265.6064 L592.6056,264.4744 L596,267.8688 Z M586.4,264.2 C583.7536,264.2 581.6,262.0472 581.6,259.4 C581.6,256.7536 583.7536,254.6 586.4,254.6 C589.0464,254.6 591.2,256.7536 591.2,259.4 C591.2,262.0472 589.0464,264.2 586.4,264.2 L586.4,264.2 Z M586.4,253 C582.8656,253 580,255.8656 580,259.4 C580,262.9344 582.8656,265.8 586.4,265.8 C589.9344,265.8 592.8,262.9344 592.8,259.4 C592.8,255.8656 589.9344,253 586.4,253 L586.4,253 Z" id="search_left-[#1504]" transform="translate(588.000000, 261.000000) scale(-1, 1) translate(-588.000000, -261.000000) "></path>
        </g>
    </g>
</svg>