<?xml version="1.0" encoding="UTF-8"?>
<svg width="60px" height="60px" viewBox="0 0 60 60" version="1.1" xmlns="http://www.w3.org/2000/svg" xmlns:xlink="http://www.w3.org/1999/xlink">
    <!-- Generator: Sketch 55.2 (78181) - https://sketchapp.com -->
    <title>search-left ts</title>
    <desc>Created with Sketch.</desc>
    <g id="search-left-ts" stroke="none" stroke-width="1" fill="none" fill-rule="evenodd">
        <path d="M42.8941134,38.8000765 L60,55.758 L55.758,60 L38.6318245,43.0248998 C34.5815827,46.1446286 29.5073031,48 24,48 C10.746,48 0,37.254 0,24 C0,10.746 10.746,0 24,0 C37.254,0 48,10.746 48,24 C48,29.5838327 46.0927057,34.7225237 42.8941134,38.8000765 Z M6,24 C6,33.927 14.076,42 24,42 C33.924,42 42,33.927 42,24 C42,14.076 33.924,6 24,6 C14.076,6 6,14.076 6,24 Z" id="search_left-[#1504]" fill="#333333"></path>
    </g>
</svg>