<?xml version="1.0" standalone="no"?>
<!DOCTYPE svg PUBLIC "-//W3C//DTD SVG 20010904//EN"
 "http://www.w3.org/TR/2001/REC-SVG-20010904/DTD/svg10.dtd">
<svg version="1.0" xmlns="http://www.w3.org/2000/svg"
 width="256.000000pt" height="256.000000pt" viewBox="0 0 256.000000 256.000000"
 preserveAspectRatio="xMidYMid meet">

<g transform="translate(0.000000,256.000000) scale(0.100000,-0.100000)"
fill="#000000" stroke="none">
<path d="M277 2282 c-15 -16 -17 -45 -17 -193 0 -123 4 -179 12 -187 7 -7 32
-12 57 -12 26 0 56 -3 69 -6 l22 -6 0 -598 0 -598 -31 -6 c-17 -3 -48 -6 -68
-6 -20 0 -42 -5 -49 -12 -8 -8 -12 -65 -12 -188 0 -159 2 -179 18 -193 16 -15
45 -17 194 -17 130 0 178 3 186 13 6 7 13 42 15 77 l5 65 600 3 600 2 6 -22
c3 -13 6 -43 6 -69 0 -25 5 -50 12 -57 8 -8 65 -12 188 -12 159 0 179 2 193
18 15 16 17 45 17 194 0 133 -3 178 -13 187 -7 6 -42 12 -78 15 l-64 4 0 602
0 602 65 5 c35 2 70 9 77 15 10 8 13 57 13 189 0 148 -3 180 -16 193 -13 13
-45 16 -193 16 -124 0 -181 -4 -189 -12 -7 -7 -12 -29 -12 -49 0 -20 -3 -51
-6 -68 l-7 -31 -599 2 -600 3 -4 64 c-3 36 -9 71 -15 78 -9 10 -54 13 -189 13
-159 0 -179 -2 -193 -18z m298 -192 l0 -105 -105 0 -105 0 -3 108 -3 108 108
-3 108 -3 0 -105z m1623 3 l-3 -108 -105 0 -105 0 -3 93 c-2 51 -1 99 2 107 4
12 28 15 111 15 l106 0 -3 -107z m-310 -118 c2 -32 8 -65 13 -72 6 -7 38 -13
72 -15 l62 -3 0 -605 0 -605 -62 -3 c-34 -2 -66 -8 -72 -15 -5 -7 -11 -40 -13
-72 l-3 -60 -605 0 -605 0 -3 60 c-2 32 -8 65 -13 72 -6 7 -38 13 -72 15 l-62
3 0 605 0 605 60 3 c32 2 65 8 72 14 8 6 13 33 13 68 0 31 3 60 7 63 3 4 277
6 607 5 l601 -3 3 -60z m-1313 -1505 l0 -105 -107 -3 -108 -3 0 104 c0 57 3
107 7 111 4 4 53 6 108 4 l100 -3 0 -105z m1623 -3 l3 -108 -108 3 -108 3 -1
100 c-1 55 0 103 2 106 2 3 50 6 106 5 l103 -1 3 -108z"/>
</g>
</svg>
