<?xml version="1.0" encoding="UTF-8"?>
<svg width="60px" height="60px" viewBox="0 0 60 60" version="1.1" xmlns="http://www.w3.org/2000/svg" xmlns:xlink="http://www.w3.org/1999/xlink">
    <!-- Generator: Sketch 59 (86127) - https://sketch.com -->
    <title>settings-wrench</title>
    <desc>Created with Sketch.</desc>
    <g id="settings-wrench" stroke="none" stroke-width="1" fill="none" fill-rule="evenodd">
        <g id="gear" transform="translate(0.000000, -0.000000)" fill="#333333" fill-rule="nonzero">
            <g id="_x32_7" transform="translate(0.685714, 0.028571)">
                <path d="M51.0217714,33.6192 L57.1062857,32.8983429 C57.5393143,32.8508571 57.8948571,32.4514286 57.8948571,32.0120571 L57.8948571,25.9179429 C57.8948571,25.4859429 57.5394857,25.0830857 57.1062857,25.0354286 L51.0217714,24.3159429 C50.4390857,21.5449714 49.3467429,18.9610286 47.8462286,16.6707429 L51.6444,11.8493143 C51.9181714,11.514 51.888,10.9791429 51.5790857,10.6716 L47.2686857,6.36 C46.9623429,6.05485714 46.4288571,6.01971429 46.0848,6.29211429 L41.2683429,10.0877143 C38.9744571,8.59611429 36.3953143,7.5 33.6243429,6.91868571 L32.9062286,0.828 C32.856,0.399771429 32.4579429,0.0432 32.0197714,0.0432 L25.9265143,0.0432 C25.4881714,0.0432 25.0928571,0.399771429 25.0398857,0.828 L24.3193714,6.91868571 C21.5482286,7.50017143 18.9678857,8.59611429 16.6765714,10.0877143 L11.8577143,6.29211429 C11.5162286,6.01954286 10.9851429,6.05468571 10.6774286,6.36 L6.36822857,10.6716 C6.05691429,10.9791429 6.02417143,11.514 6.29794286,11.8542857 L10.0935429,16.6707429 C8.59697143,18.9608571 7.50342857,21.5449714 6.92331429,24.3159429 L0.8388,25.0354286 C0.4032,25.0830857 0.0516,25.4861143 0.0478285714,25.9179429 L0.0516,32.0120571 C0.0478285714,32.4512571 0.4032,32.8508571 0.8388,32.8983429 L6.92331429,33.6192 C7.50342857,36.3915429 8.59697143,38.9729143 10.0949143,41.2656 L6.29811429,46.0846286 C6.02434286,46.4235429 6.05708571,46.9534286 6.3684,47.2649143 L10.6776,51.5741143 C10.9853143,51.8854286 11.5164,51.9106286 11.8602857,51.6418286 L16.6767429,47.8426286 C18.9680571,49.3392 21.5484,50.4392571 24.3195429,51.0168 L25.0400571,57.0989143 C25.0930286,57.5331429 25.4883429,57.8874857 25.9266857,57.8897143 L32.0199429,57.8873143 C32.4581143,57.8897143 32.8561714,57.5331429 32.9064,57.0987429 L33.6245143,51.0166286 C35.3485714,50.6573143 36.9845143,50.0748 38.5362857,49.3416 L33.5628,44.52 C32.1051429,44.952 30.5694857,45.1906286 28.9712571,45.1906286 C20.0103429,45.1906286 12.7503429,37.9256571 12.7503429,28.9664571 C12.7503429,20.0055429 20.0103429,12.7417714 28.9712571,12.7417714 C37.9311429,12.7417714 45.1959429,20.0053714 45.1959429,28.9664571 C45.1959429,30.5034857 44.9674286,31.9818857 44.5668,33.3905143 L49.4924571,38.1666857 C50.1464571,36.7203429 50.6878286,35.2112571 51.0217714,33.6192 Z" id="Path"></path>
                <path d="M57.0874286,49.2258857 L57.0924,49.2209143 L40.2639429,32.9010857 C41.4843429,28.8121714 40.3896,24.1364571 37.0232571,20.9045143 C33.6445714,17.6550857 28.8920571,16.7436 24.8367429,18.1597714 L28.8294857,21.9929143 C29.7522857,22.8819429 29.7810857,24.3534857 28.8948,25.2762857 L25.0338857,29.2904571 C24.1474286,30.2156571 22.6772571,30.2432571 21.7542857,29.3583429 L17.7603429,25.5173143 C16.5070286,29.6269714 17.6046857,34.3395429 20.9883429,37.5891429 C24.3858857,40.8564 29.1622286,41.7502286 33.2276571,40.3038857 L50.0185714,56.5861714 L50.0737714,56.5282286 C52.0863429,58.4216571 55.2428571,58.3513714 57.1638857,56.3501143 C59.0862857,54.3486857 59.0449714,51.1745143 57.0874286,49.2258857 Z M55.5418286,55.2176571 C54.9090857,55.8756 53.8618286,55.8932571 53.2064571,55.2577714 C52.5471429,54.6176571 52.5298286,53.5702286 53.1625714,52.9073143 C53.7977143,52.2493714 54.8437714,52.2320571 55.5003429,52.8672 C56.1582857,53.5049143 56.1771429,54.5545714 55.5418286,55.2176571 Z" id="Shape"></path>
            </g>
        </g>
    </g>
</svg>