<svg width="24" height="24" viewBox="0 0 24 24" fill="none" xmlns="http://www.w3.org/2000/svg">
<mask id="mask0_2_2678" style="mask-type:alpha" maskUnits="userSpaceOnUse" x="0" y="0" width="24" height="24">
<rect width="24" height="24" fill="#D9D9D9"/>
</mask>
<g mask="url(#mask0_2_2678)">
<path d="M13.4999 21.5H10.4749C10.2583 21.5 10.0666 21.425 9.89994 21.275C9.73327 21.125 9.63328 20.9333 9.59994 20.7L9.29994 18.45C9.03327 18.3667 8.76261 18.2417 8.48794 18.075C8.21261 17.9083 7.95827 17.7333 7.72494 17.55L5.64994 18.45C5.43327 18.5333 5.22094 18.5417 5.01294 18.475C4.80427 18.4083 4.63327 18.275 4.49994 18.075L2.99994 15.45C2.88327 15.25 2.84994 15.0373 2.89994 14.812C2.94994 14.5873 3.05827 14.4083 3.22494 14.275L5.04994 12.9C5.01661 12.75 4.99594 12.6 4.98794 12.45C4.97927 12.3 4.97494 12.15 4.97494 12C4.97494 11.8667 4.97927 11.725 4.98794 11.575C4.99594 11.425 5.01661 11.2667 5.04994 11.1L3.22494 9.725C3.05827 9.59167 2.94994 9.41267 2.89994 9.188C2.84994 8.96267 2.88327 8.75 2.99994 8.55L4.49994 5.95C4.61661 5.75 4.78327 5.61667 4.99994 5.55C5.21661 5.48333 5.42494 5.49167 5.62494 5.575L7.72494 6.45C7.95827 6.26667 8.21261 6.096 8.48794 5.938C8.76261 5.77933 9.03327 5.65 9.29994 5.55L9.59994 3.3C9.63328 3.06667 9.73327 2.875 9.89994 2.725C10.0666 2.575 10.2583 2.5 10.4749 2.5H13.4999C13.7333 2.5 13.9333 2.575 14.0999 2.725C14.2666 2.875 14.3666 3.06667 14.3999 3.3L14.6999 5.55C14.9999 5.66667 15.2706 5.79567 15.5119 5.937C15.7539 6.079 15.9999 6.25 16.2499 6.45L18.3749 5.575C18.5749 5.49167 18.7793 5.48333 18.9879 5.55C19.1959 5.61667 19.3666 5.75 19.4999 5.95L20.9999 8.55C21.1166 8.75 21.1499 8.96267 21.0999 9.188C21.0499 9.41267 20.9416 9.59167 20.7749 9.725L18.9249 11.125C18.9583 11.2917 18.9749 11.4417 18.9749 11.575V12C18.9749 12.1333 18.9706 12.2707 18.9619 12.412C18.9539 12.554 18.9333 12.7167 18.8999 12.9L20.7249 14.275C20.9083 14.4083 21.0249 14.5873 21.0749 14.812C21.1249 15.0373 21.0833 15.25 20.9499 15.45L19.4499 18.05C19.3333 18.25 19.1666 18.3833 18.9499 18.45C18.7333 18.5167 18.5166 18.5083 18.2999 18.425L16.2499 17.55C15.9999 17.75 15.7459 17.925 15.4879 18.075C15.2293 18.225 14.9666 18.35 14.6999 18.45L14.3999 20.7C14.3666 20.9333 14.2666 21.125 14.0999 21.275C13.9333 21.425 13.7333 21.5 13.4999 21.5ZM11.9999 15C12.8333 15 13.5416 14.7083 14.1249 14.125C14.7083 13.5417 14.9999 12.8333 14.9999 12C14.9999 11.1667 14.7083 10.4583 14.1249 9.875C13.5416 9.29167 12.8333 9 11.9999 9C11.1666 9 10.4583 9.29167 9.87494 9.875C9.29161 10.4583 8.99994 11.1667 8.99994 12C8.99994 12.8333 9.29161 13.5417 9.87494 14.125C10.4583 14.7083 11.1666 15 11.9999 15ZM11.9999 13.5C11.5833 13.5 11.2293 13.354 10.9379 13.062C10.6459 12.7707 10.4999 12.4167 10.4999 12C10.4999 11.5833 10.6459 11.2293 10.9379 10.938C11.2293 10.646 11.5833 10.5 11.9999 10.5C12.4166 10.5 12.7706 10.646 13.0619 10.938C13.3539 11.2293 13.4999 11.5833 13.4999 12C13.4999 12.4167 13.3539 12.7707 13.0619 13.062C12.7706 13.354 12.4166 13.5 11.9999 13.5ZM10.9999 20H12.9749L13.3249 17.325C13.8416 17.1917 14.3083 17 14.7249 16.75C15.1416 16.5 15.5499 16.1833 15.9499 15.8L18.4249 16.85L19.4249 15.15L17.2499 13.525C17.3333 13.2583 17.3876 13 17.4129 12.75C17.4376 12.5 17.4499 12.25 17.4499 12C17.4499 11.7333 17.4376 11.4793 17.4129 11.238C17.3876 10.996 17.3333 10.75 17.2499 10.5L19.4249 8.85L18.4499 7.15L15.9249 8.2C15.5916 7.85 15.1916 7.53733 14.7249 7.262C14.2583 6.98733 13.7916 6.79167 13.3249 6.675L12.9999 4H11.0249L10.6749 6.675C10.1749 6.79167 9.70827 6.975 9.27494 7.225C8.84161 7.475 8.42494 7.79167 8.02494 8.175L5.54994 7.15L4.57494 8.85L6.72494 10.45C6.64161 10.7 6.58327 10.95 6.54994 11.2C6.51661 11.45 6.49994 11.7167 6.49994 12C6.49994 12.2667 6.51661 12.525 6.54994 12.775C6.58327 13.025 6.64161 13.275 6.72494 13.525L4.57494 15.15L5.54994 16.85L8.02494 15.8C8.40827 16.1833 8.81661 16.5 9.24994 16.75C9.68327 17 10.1583 17.1917 10.6749 17.325L10.9999 20Z" fill="#DAF2E8"/>
</g>
</svg>
