<?xml version="1.0" encoding="UTF-8"?>
<svg width="60px" height="60px" viewBox="0 0 60 60" version="1.1" xmlns="http://www.w3.org/2000/svg" xmlns:xlink="http://www.w3.org/1999/xlink">
    <!-- Generator: Sketch 55.2 (78181) - https://sketchapp.com -->
    <title>sheduled ts</title>
    <desc>Created with Sketch.</desc>
    <defs>
        <path d="M46.4,26.6 C53.8,26.6 59.8,32.6 59.9,40 C60,47.5 54,53.4 46.5,53.5 C39,53.6 33,47.5 33,40.1 C33,32.6 39,26.6 46.4,26.6 Z M46.4,49 C51.4,49 55.4,44.9 55.4,40 C55.4,35 51.4,31 46.4,31 C41.4,31 37.4,35 37.4,40 C37.4,45 41.4,49 46.4,49 Z M6.7,47.4 L29.3,47.4 C30,49 30.9,50.5 32,51.9 L4,51.9 C1.9,51.9 0.2,50.2 0.2,48.1 L0.2,15 C0.2,12.9 1.9,11.2 4,11.2 L13.7,11.2 L13.7,8.8 C13.7,7.5 14.7,6.5 16,6.5 C17.3,6.5 18.3,7.6 18.3,8.8 L18.3,11.2 L30.3,11.2 L30.3,8.8 C30.3,7.5 31.4,6.5 32.6,6.5 C33.9,6.5 34.9,7.6 34.9,8.8 L34.9,11.2 L46.5,11.2 C48.6,11.2 50.3,12.9 50.3,15 L50.3,22 C49.1,21.7 47.9,21.6 46.7,21.6 C46.4,21.6 46,21.6 45.7,21.6 L45.7,17.7 C45.7,16.7 44.8,15.8 43.8,15.8 L35.1,15.8 L35.1,17.2 C35.1,18.5 34,19.5 32.8,19.5 C31.5,19.5 30.5,18.4 30.5,17.2 L30.5,15.8 L18.5,15.8 L18.5,17.2 C18.5,18.5 17.5,19.5 16.2,19.5 C14.9,19.5 13.9,18.4 13.9,17.2 L13.9,15.8 L6.7,15.8 C5.7,15.8 4.8,16.7 4.8,17.7 L4.8,24.3 L37,24.3 C35.1,25.5 33.3,27 31.9,28.8 L4.8,28.8 L4.8,45.5 C4.8,46.5 5.7,47.4 6.7,47.4 Z M47.1,34.8 L47.1,39.5 L51.2,39.5 L51.2,42.5 L44.1,42.5 L44.1,34.8 L47.1,34.8 Z" id="path-1"></path>
    </defs>
    <g id="sheduled-ts" stroke="none" stroke-width="1" fill="none" fill-rule="evenodd">
        <mask id="mask-2" fill="white">
            <use xlink:href="#path-1"></use>
        </mask>
        <use id="Combined-Shape" fill="#000000" fill-rule="nonzero" xlink:href="#path-1"></use>
    </g>
</svg>