<svg xmlns="http://www.w3.org/2000/svg" viewBox="0 0 60 60"><path d="M27.66,30V9.19a2.34,2.34,0,0,1,4.65-.46,2.8,2.8,0,0,1,0,.5V50.8a2.34,2.34,0,0,1-4.65.45,3,3,0,0,1,0-.52ZM16.22,33l-2.77,3a2.32,2.32,0,0,0-.63,2.19,2.2,2.2,0,0,0,1.69,1.75,2.27,2.27,0,0,0,2.38-.75l6.83-7.45a2.36,2.36,0,0,0,0-3.46l-1.82-2c-1.68-1.83-3.35-3.67-5-5.5a2.34,2.34,0,0,0-3.87.55,2.37,2.37,0,0,0,.49,2.7l3.12,3.41.17.22H5.23a2.34,2.34,0,1,0,0,4.68H16.79Zm27.65-5.91c.93-1,1.87-2,2.8-3.07a2.29,2.29,0,0,0,.58-2.27,2.25,2.25,0,0,0-1.71-1.65,2.34,2.34,0,0,0-2.37.79l-6.84,7.48a2.34,2.34,0,0,0,0,3.34l4.31,4.71c.87,1,1.73,1.91,2.61,2.85a2.33,2.33,0,0,0,3.92-.73,2.25,2.25,0,0,0-.47-2.44c-1-1.17-2.12-2.32-3.18-3.49-.06-.06-.11-.13-.2-.24H54.88a2.27,2.27,0,0,0,1.77-.75,2.34,2.34,0,0,0-1.73-3.93c-3.74,0-7.48,0-11.22,0h-.38Z"/></svg>