<svg width="20" height="20" viewBox="0 0 20 20" fill="none" xmlns="http://www.w3.org/2000/svg">
<mask id="mask0_3_151" style="mask-type:alpha" maskUnits="userSpaceOnUse" x="0" y="0" width="20" height="20">
<rect width="20" height="20" fill="#D9D9D9"/>
</mask>
<g mask="url(#mask0_3_151)">
<path d="M7.7875 14.2917L10.4125 12.7083L13.0375 14.3125L12.35 11.3125L14.6625 9.3125L11.6208 9.04167L10.4125 6.20833L9.20417 9.02083L6.1625 9.29167L8.475 11.3125L7.7875 14.2917ZM10.4125 14.1875L7.1625 16.125C7.05139 16.1944 6.93333 16.2256 6.80833 16.2183C6.68333 16.2117 6.57222 16.1736 6.475 16.1042C6.37778 16.0347 6.30139 15.9411 6.24583 15.8233C6.19028 15.705 6.18333 15.5764 6.225 15.4375L7.07917 11.7708L4.225 9.29167C4.11389 9.19444 4.04444 9.08333 4.01667 8.95833C3.98889 8.83333 3.99583 8.71528 4.0375 8.60417C4.07917 8.49306 4.14528 8.39917 4.23583 8.3225C4.32583 8.24639 4.44028 8.20139 4.57917 8.1875L8.35 7.85417L9.82917 4.375C9.88472 4.25 9.96472 4.15611 10.0692 4.09333C10.1731 4.03111 10.2875 4 10.4125 4C10.5375 4 10.6522 4.03111 10.7567 4.09333C10.8606 4.15611 10.9403 4.25 10.9958 4.375L12.475 7.85417L16.2458 8.1875C16.3847 8.20139 16.4994 8.24639 16.59 8.3225C16.68 8.39917 16.7458 8.49306 16.7875 8.60417C16.8292 8.71528 16.8361 8.83333 16.8083 8.95833C16.7806 9.08333 16.7111 9.19444 16.6 9.29167L13.7458 11.7708L14.6 15.4375C14.6417 15.5764 14.6347 15.705 14.5792 15.8233C14.5236 15.9411 14.4472 16.0347 14.35 16.1042C14.2528 16.1736 14.1417 16.2117 14.0167 16.2183C13.8917 16.2256 13.7736 16.1944 13.6625 16.125L10.4125 14.1875Z" fill="#028C5F"/>
</g>
</svg>
