<svg width="20" height="21" viewBox="0 0 20 21" fill="none" xmlns="http://www.w3.org/2000/svg">
  <path d="M19.947 7.18097C19.8842 6.99583 19.7685 6.83316 19.6142 6.71303C19.46 6.5929 19.2739 6.52057 19.079 6.50497L13.378 6.05197L10.911 0.590968C10.8325 0.41508 10.7047 0.265689 10.5431 0.160825C10.3815 0.0559612 10.193 0.000105879 10.0004 1.50379e-07C9.80771 -0.000105578 9.61916 0.0555428 9.45745 0.160229C9.29574 0.264916 9.16779 0.414166 9.08903 0.589968L6.62203 6.05197L0.921026 6.50497C0.729482 6.52014 0.546364 6.59018 0.393581 6.7067C0.240798 6.82322 0.124819 6.98129 0.0595194 7.162C-0.00578038 7.34271 -0.0176359 7.5384 0.0253712 7.72567C0.0683784 7.91294 0.164427 8.08385 0.302026 8.21797L4.51503 12.325L3.02503 18.777C2.97978 18.9723 2.99428 19.1767 3.06665 19.3636C3.13901 19.5506 3.26589 19.7115 3.43083 19.8254C3.59577 19.9394 3.79115 20.0011 3.99161 20.0026C4.19208 20.0042 4.38837 19.9454 4.55503 19.834L10 16.204L15.445 19.834C15.6154 19.9471 15.8162 20.0053 16.0207 20.0008C16.2251 19.9963 16.4232 19.9293 16.5884 19.8089C16.7536 19.6884 16.878 19.5203 16.9448 19.327C17.0116 19.1338 17.0176 18.9247 16.962 18.728L15.133 12.328L19.669 8.24597C19.966 7.97797 20.075 7.55997 19.947 7.18097Z" fill="#000"/>
</svg>
