<svg width="20" height="20" viewBox="0 0 20 20" fill="none" xmlns="http://www.w3.org/2000/svg">
<mask id="mask0_2_3232" style="mask-type:alpha" maskUnits="userSpaceOnUse" x="0" y="0" width="20" height="20">
<rect width="20" height="20" fill="#D9D9D9"/>
</mask>
<g mask="url(#mask0_2_3232)">
<path d="M10.6248 8.33332H13.3748C13.5554 8.33332 13.7046 8.27416 13.8223 8.15582C13.9407 8.03804 13.9998 7.88888 13.9998 7.70832C13.9998 7.52777 13.9407 7.37832 13.8223 7.25999C13.7046 7.14221 13.5554 7.08332 13.3748 7.08332H10.6248C10.4443 7.08332 10.2951 7.14221 10.1773 7.25999C10.059 7.37832 9.99984 7.52777 9.99984 7.70832C9.99984 7.88888 10.059 8.03804 10.1773 8.15582C10.2951 8.27416 10.4443 8.33332 10.6248 8.33332ZM10.6248 12.9167H13.3748C13.5554 12.9167 13.7046 12.8575 13.8223 12.7392C13.9407 12.6214 13.9998 12.4722 13.9998 12.2917C13.9998 12.1111 13.9407 11.9617 13.8223 11.8433C13.7046 11.7255 13.5554 11.6667 13.3748 11.6667H10.6248C10.4443 11.6667 10.2951 11.7255 10.1773 11.8433C10.059 11.9617 9.99984 12.1111 9.99984 12.2917C9.99984 12.4722 10.059 12.6214 10.1773 12.7392C10.2951 12.8575 10.4443 12.9167 10.6248 12.9167ZM6.9165 9.06249H8.08317C8.30539 9.06249 8.48956 8.98971 8.63567 8.84416C8.78123 8.69805 8.854 8.51388 8.854 8.29166V7.12499C8.854 6.90277 8.78123 6.7186 8.63567 6.57249C8.48956 6.42693 8.30539 6.35416 8.08317 6.35416H6.9165C6.69428 6.35416 6.51039 6.42693 6.36484 6.57249C6.21873 6.7186 6.14567 6.90277 6.14567 7.12499V8.29166C6.14567 8.51388 6.21873 8.69805 6.36484 8.84416C6.51039 8.98971 6.69428 9.06249 6.9165 9.06249ZM6.9165 13.6458H8.08317C8.30539 13.6458 8.48956 13.573 8.63567 13.4275C8.78123 13.2814 8.854 13.0972 8.854 12.875V11.7083C8.854 11.4861 8.78123 11.3019 8.63567 11.1558C8.48956 11.0103 8.30539 10.9375 8.08317 10.9375H6.9165C6.69428 10.9375 6.51039 11.0103 6.36484 11.1558C6.21873 11.3019 6.14567 11.4861 6.14567 11.7083V12.875C6.14567 13.0972 6.21873 13.2814 6.36484 13.4275C6.51039 13.573 6.69428 13.6458 6.9165 13.6458ZM4.4165 17.0833C3.99984 17.0833 3.64567 16.9375 3.354 16.6458C3.06234 16.3542 2.9165 16 2.9165 15.5833V4.41666C2.9165 3.99999 3.06234 3.64582 3.354 3.35416C3.64567 3.06249 3.99984 2.91666 4.4165 2.91666H15.5832C15.9998 2.91666 16.354 3.06249 16.6457 3.35416C16.9373 3.64582 17.0832 3.99999 17.0832 4.41666V15.5833C17.0832 16 16.9373 16.3542 16.6457 16.6458C16.354 16.9375 15.9998 17.0833 15.5832 17.0833H4.4165ZM4.4165 15.8333H15.5832C15.6387 15.8333 15.6943 15.8055 15.7498 15.75C15.8054 15.6944 15.8332 15.6389 15.8332 15.5833V4.41666C15.8332 4.3611 15.8054 4.30555 15.7498 4.24999C15.6943 4.19443 15.6387 4.16666 15.5832 4.16666H4.4165C4.36095 4.16666 4.30539 4.19443 4.24984 4.24999C4.19428 4.30555 4.1665 4.3611 4.1665 4.41666V15.5833C4.1665 15.6389 4.19428 15.6944 4.24984 15.75C4.30539 15.8055 4.36095 15.8333 4.4165 15.8333Z" fill="#38414D"/>
</g>
</svg>
