<svg width="32" height="36" viewBox="0 0 32 36" fill="none" xmlns="http://www.w3.org/2000/svg">
<path d="M29.3333 8.25V28.5C29.3333 30.9855 23.364 33 16 33C8.63596 33 2.66663 30.9855 2.66663 28.5V8.25" stroke="#2B5467" stroke-width="2.4" stroke-linecap="round" stroke-linejoin="round"/>
<path d="M29.3333 21.75C29.3333 24.2355 23.364 26.25 16 26.25C8.63596 26.25 2.66663 24.2355 2.66663 21.75" stroke="#2B5467" stroke-width="2.4" stroke-linecap="round" stroke-linejoin="round"/>
<path d="M29.3333 15C29.3333 17.4855 23.364 19.5 16 19.5C8.63596 19.5 2.66663 17.4855 2.66663 15" stroke="#2B5467" stroke-width="2.4" stroke-linecap="round" stroke-linejoin="round"/>
<path d="M16 12C23.3638 12 29.3333 9.98528 29.3333 7.5C29.3333 5.01472 23.3638 3 16 3C8.63616 3 2.66663 5.01472 2.66663 7.5C2.66663 9.98528 8.63616 12 16 12Z" stroke="#2B5467" stroke-width="2.4" stroke-linecap="round" stroke-linejoin="round"/>
</svg>
