<?xml version="1.0" encoding="UTF-8"?>
<svg width="60px" height="60px" viewBox="0 0 60 60" version="1.1" xmlns="http://www.w3.org/2000/svg" xmlns:xlink="http://www.w3.org/1999/xlink">
    <!-- Generator: Sketch 55.2 (78181) - https://sketchapp.com -->
    <title>Test Cases ts</title>
    <desc>Created with Sketch.</desc>
    <g id="Test-Cases-ts" stroke="none" stroke-width="1" fill="none" fill-rule="evenodd">
        <path d="M20,10 L20,5 C20,3.8954305 20.8954305,3 22,3 L38,3 C39.1045695,3 40,3.8954305 40,5 L40,10 L54,10 C57.3137085,10 60,12.6862915 60,16 L60,33 C60,36.3137085 57.3137085,39 54,39 L6,39 C2.6862915,39 -1.20386557e-13,36.3137085 -1.20792265e-13,33 L-1.20792265e-13,16 C-1.21197974e-13,12.6862915 2.6862915,10 6,10 L20,10 Z M60,43.3581403 L60,51 C60,54.3137085 57.3137085,57 54,57 L6,57 C2.6862915,57 -1.20386557e-13,54.3137085 -1.20792265e-13,51 L-1.20792265e-13,42.2060042 C1.0750545,43.8218979 2.91269349,44.8867789 4.99904876,44.8867789 L55.9990488,44.8867789 C57.5362167,44.8867789 58.9383733,44.3087265 60,43.3581403 Z M29.9983971,32 C32.7598208,32 34.9983971,29.7614237 34.9983971,27 C34.9983971,24.2385763 32.7598208,22 29.9983971,22 C27.2369733,22 24.9983971,24.2385763 24.9983971,27 C24.9983971,29.7614237 27.2369733,32 29.9983971,32 Z" id="Combined-Shape" fill="#000000"></path>
    </g>
</svg>