<?xml version="1.0" encoding="UTF-8"?>
<svg width="60px" height="60px" viewBox="0 0 60 60" version="1.1" xmlns="http://www.w3.org/2000/svg" xmlns:xlink="http://www.w3.org/1999/xlink">
    <!-- Generator: Sketch 55.2 (78181) - https://sketchapp.com -->
    <title>suitecase ts</title>
    <desc>Created with Sketch.</desc>
    <g id="suitecase-ts" stroke="none" stroke-width="1" fill="none" fill-rule="evenodd">
        <path d="M15,14 L15,6 C15,2.6862915 17.6862915,6.08718376e-16 21,0 L39,0 C42.3137085,-6.08718376e-16 45,2.6862915 45,6 L45,14 L58,14 C59.1045695,14 60,14.8954305 60,16 L60,52 C60,56.418278 56.418278,60 52,60 L8,60 C3.581722,60 5.41083001e-16,56.418278 0,52 L0,16 C-1.3527075e-16,14.8954305 0.8954305,14 2,14 L15,14 Z M21,14 L39,14 L39,8 C39,6.8954305 38.1045695,6 37,6 L23,6 C21.8954305,6 21,6.8954305 21,8 L21,14 Z M6,32 L6,50 C6,52.209139 7.790861,54 10,54 L50,54 C52.209139,54 54,52.209139 54,50 L54,32 L36.2237832,39.6831192 C32.7933533,41.165797 28.912517,41.2154036 25.4453097,39.8208944 L6,32 Z" id="Combined-Shape" fill="#000000"></path>
    </g>
</svg>