<?xml version="1.0" encoding="UTF-8"?>
<svg width="60px" height="60px" viewBox="0 0 60 60" version="1.1" xmlns="http://www.w3.org/2000/svg" xmlns:xlink="http://www.w3.org/1999/xlink">
    <!-- Generator: Sketch 59 (86127) - https://sketch.com -->
    <title>suitcase-2</title>
    <desc>Created with Sketch.</desc>
    <g id="suitcase-2" stroke="none" stroke-width="1" fill="none" fill-rule="evenodd">
        <path d="M21.5714286,12.9285714 L38.4285714,12.9285714 L38.4285714,8.71428571 L21.5714286,8.71428571 L21.5714286,12.9285714 Z M9.98214286,12.9285714 L9.98214286,55.0714286 L7.875,55.0714286 C5.85565476,55.0714286 4.12165179,54.3470982 2.67299107,52.8984375 C1.22433036,51.4497768 0.5,49.7157738 0.5,47.6964286 L0.5,20.3035714 C0.5,18.2842262 1.22433036,16.5502232 2.67299107,15.1015625 C4.12165179,13.6529018 5.85565476,12.9285714 7.875,12.9285714 L9.98214286,12.9285714 Z M46.8571429,12.9285714 L46.8571429,55.0714286 L13.1428571,55.0714286 L13.1428571,12.9285714 L17.3571429,12.9285714 L17.3571429,7.66071429 C17.3571429,6.7827381 17.6644345,6.03645833 18.2790179,5.421875 C18.8936012,4.80729167 19.639881,4.5 20.5178571,4.5 L39.4821429,4.5 C40.360119,4.5 41.1063988,4.80729167 41.7209821,5.421875 C42.3355655,6.03645833 42.6428571,6.7827381 42.6428571,7.66071429 L42.6428571,12.9285714 L46.8571429,12.9285714 Z M59.5,20.3035714 L59.5,47.6964286 C59.5,49.7157738 58.7756696,51.4497768 57.3270089,52.8984375 C55.8783482,54.3470982 54.1443452,55.0714286 52.125,55.0714286 L50.0178571,55.0714286 L50.0178571,12.9285714 L52.125,12.9285714 C54.1443452,12.9285714 55.8783482,13.6529018 57.3270089,15.1015625 C58.7756696,16.5502232 59.5,18.2842262 59.5,20.3035714 Z" id="Shape" fill="#333333" fill-rule="nonzero"></path>
    </g>
</svg>