<svg width="16" height="16" viewBox="0 0 16 16" fill="none" xmlns="http://www.w3.org/2000/svg">
  <path d="M8 0.5C3.8645 0.5 0.5 3.8645 0.5 8V11.1073C0.5 11.8752 1.17275 12.5 2 12.5H2.75C2.94891 12.5 3.13968 12.421 3.28033 12.2803C3.42098 12.1397 3.5 11.9489 3.5 11.75V7.89275C3.5 7.69384 3.42098 7.50307 3.28033 7.36242C3.13968 7.22177 2.94891 7.14275 2.75 7.14275H2.069C2.486 4.24025 4.9835 2 8 2C11.0165 2 13.514 4.24025 13.931 7.14275H13.25C13.0511 7.14275 12.8603 7.22177 12.7197 7.36242C12.579 7.50307 12.5 7.69384 12.5 7.89275V12.5C12.5 13.3273 11.8273 14 11 14H9.5V13.25H6.5V15.5H11C12.6545 15.5 14 14.1545 14 12.5C14.8273 12.5 15.5 11.8752 15.5 11.1073V8C15.5 3.8645 12.1355 0.5 8 0.5Z" fill="#000"/>
</svg>
