<svg width="24" height="24" viewBox="0 0 24 24" fill="none" xmlns="http://www.w3.org/2000/svg">
<path d="M6 1L3 4L6 7V5H9V7L12 4L9 1V3H6V1ZM11 8C10.7348 8 10.4804 8.10536 10.2929 8.29289C10.1054 8.48043 10 8.73478 10 9V19L6.8 17.28H6.58C6.3 17.28 6.03 17.39 5.84 17.6L5.1 18.37L10 22.57C10.26 22.85 10.62 23 11 23H17.5C17.8978 23 18.2794 22.842 18.5607 22.5607C18.842 22.2794 19 21.8978 19 21.5V17.14C19 16.56 18.68 16.03 18.15 15.79L13.21 13.6L12 13.47V9C12 8.73478 11.8946 8.48043 11.7071 8.29289C11.5196 8.10536 11.2652 8 11 8Z" fill="#24292E"/>
</svg>
