<svg width="16" height="22" viewBox="0 0 16 22" fill="none" xmlns="http://www.w3.org/2000/svg">
  <path d="M3 0L0 3L3 6V4H6V6L9 3L6 0V2H3V0ZM8 7C7.73478 7 7.48043 7.10536 7.29289 7.29289C7.10536 7.48043 7 7.73478 7 8V18L3.8 16.28H3.58C3.3 16.28 3.03 16.39 2.84 16.6L2.1 17.37L7 21.57C7.26 21.85 7.62 22 8 22H14.5C14.8978 22 15.2794 21.842 15.5607 21.5607C15.842 21.2794 16 20.8978 16 20.5V16.14C16 15.56 15.68 15.03 15.15 14.79L10.21 12.6L9 12.47V8C9 7.73478 8.89464 7.48043 8.70711 7.29289C8.51957 7.10536 8.26522 7 8 7Z" fill="#24292E"/>
</svg>
