<svg width="16" height="21" viewBox="0 0 16 21" fill="none" xmlns="http://www.w3.org/2000/svg">
  <path d="M7.75001 5C9.09801 5 9.92901 5.97 9.99501 7.329L10 7.509V9.624L12.219 10.027C12.6455 10.1047 13.0521 10.2668 13.415 10.5039C13.7779 10.741 14.0897 11.0483 14.3321 11.4077C14.5745 11.767 14.7427 12.1712 14.8266 12.5965C14.9106 13.0217 14.9087 13.4595 14.821 13.884L14.778 14.064L13.73 17.987C13.6235 18.3852 13.4097 18.7466 13.1118 19.0315C12.814 19.3165 12.4436 19.5142 12.041 19.603L11.876 19.633L9.45801 19.98C9.00907 20.0444 8.55113 19.9717 8.14426 19.7713C7.7374 19.5709 7.40059 19.2522 7.17801 18.857L7.09801 18.702L7.06801 18.639C6.83412 18.1354 6.48258 17.6953 6.04301 17.356L5.84901 17.218L3.96501 15.962L3.87201 15.903L3.77401 15.851L1.41101 14.676C1.28854 14.6151 1.18505 14.5219 1.11172 14.4065C1.0384 14.291 0.998041 14.1577 0.995012 14.021C0.971012 12.912 1.46101 12.057 2.41501 11.581C3.11601 11.229 4.04901 11.249 5.24101 11.597L5.50001 11.677V7.507C5.50001 6.055 6.34201 5 7.75001 5ZM7.75001 6.5C7.29001 6.5 7.03701 6.775 7.00401 7.366L7.00001 7.508V12.753C6.99996 12.8762 6.96955 12.9975 6.91147 13.1062C6.85338 13.2149 6.76943 13.3076 6.66701 13.3761C6.56459 13.4446 6.44687 13.4868 6.32426 13.499C6.20165 13.5112 6.07792 13.493 5.96401 13.446C4.50401 12.844 3.52301 12.703 3.08501 12.922C2.83101 13.049 2.66501 13.212 2.57501 13.441L2.53701 13.561L4.44201 14.508L4.62301 14.605L4.79701 14.714L6.68101 15.97C7.36248 16.4241 7.92106 17.0397 8.30701 17.762L8.42901 18.007L8.45901 18.069C8.51901 18.1982 8.61454 18.3076 8.73443 18.3844C8.85431 18.4613 8.99361 18.5024 9.13601 18.503L9.24501 18.495L11.663 18.148C11.7896 18.1298 11.9094 18.0796 12.0111 18.002C12.1128 17.9245 12.193 17.8222 12.244 17.705L12.281 17.6L13.329 13.676C13.4487 13.2277 13.3854 12.7501 13.153 12.3484C12.9207 11.9468 12.5383 11.6538 12.09 11.534L12.02 11.517L9.11601 10.988C8.96127 10.9601 8.81922 10.8842 8.70994 10.7712C8.60066 10.6581 8.52967 10.5136 8.50701 10.358L8.50001 10.25V7.508C8.50001 6.818 8.24501 6.5 7.75001 6.5ZM7.74901 5.54537e-07C8.9424 -0.000466151 10.1174 0.293663 11.1699 0.856286C12.2223 1.41891 13.1196 2.23263 13.7821 3.22523C14.4446 4.21784 14.8518 5.35863 14.9676 6.54638C15.0834 7.73413 14.9043 8.93211 14.446 10.034C14.0624 9.69507 13.6202 9.42904 13.141 9.249C13.4813 8.32938 13.5808 7.33801 13.43 6.36912C13.2791 5.40022 12.883 4.48599 12.2793 3.71332C11.6756 2.94064 10.8843 2.33519 9.98067 1.95451C9.07702 1.57383 8.09103 1.43057 7.1164 1.53834C6.14178 1.64612 5.21091 2.00134 4.41226 2.57026C3.61362 3.13917 2.97373 3.90288 2.55341 4.78879C2.1331 5.6747 1.94632 6.65339 2.01084 7.63182C2.07535 8.61026 2.38901 9.55595 2.92201 10.379C2.58995 10.4323 2.26793 10.5358 1.96701 10.686C1.80701 10.766 1.65501 10.856 1.51201 10.952C0.858208 9.8511 0.507622 8.59668 0.495909 7.31632C0.484196 6.03596 0.811774 4.77534 1.44533 3.66266C2.07888 2.54998 2.99581 1.62493 4.10286 0.981593C5.20992 0.338254 6.4676 -0.000424381 7.74801 5.54537e-07H7.74901ZM7.74901 2.502C8.52382 2.50187 9.28689 2.69132 9.97166 3.05381C10.6564 3.41631 11.2421 3.94085 11.6776 4.58168C12.1131 5.22251 12.3852 5.96016 12.4702 6.7303C12.5551 7.50043 12.4504 8.27966 12.165 9L11 8.789V7.51L10.996 7.315L10.998 7.252C10.9988 6.59709 10.8011 5.9573 10.431 5.417L10.341 5.285C9.78301 4.496 8.89101 4 7.75001 4C6.57501 4 5.66501 4.526 5.11001 5.353C4.71207 5.90574 4.49861 6.56991 4.50001 7.251L4.50201 7.361L4.50001 7.508V10.398L4.23801 10.362C4.0007 10.3325 3.7818 10.219 3.62101 10.042C3.20701 9.583 3.00001 8.653 3.00001 7.25C2.99988 6.62627 3.12262 6.00862 3.36122 5.43233C3.59982 4.85604 3.94961 4.3324 4.39061 3.8913C4.83161 3.45021 5.35518 3.10031 5.93142 2.86159C6.50766 2.62287 7.12528 2.5 7.74901 2.5V2.502Z" fill="black"/>
</svg>
