<svg width="24" height="24" viewBox="0 0 24 24" fill="none" xmlns="http://www.w3.org/2000/svg">
<path d="M10 9C10 8.73478 10.1054 8.48043 10.2929 8.29289C10.4804 8.10536 10.7348 8 11 8C11.2652 8 11.5196 8.10536 11.7071 8.29289C11.8946 8.48043 12 8.73478 12 9V13.47L13.21 13.6L18.15 15.79C18.68 16.03 19 16.56 19 17.14V21.5C18.97 22.32 18.32 22.97 17.5 23H11C10.62 23 10.26 22.85 10 22.57L5.10001 18.37L5.84001 17.6C6.03001 17.39 6.30001 17.28 6.58001 17.28H6.80001L10 19V9ZM11 5C12.0609 5 13.0783 5.42143 13.8284 6.17157C14.5786 6.92172 15 7.93913 15 9C15 10.5 14.2 11.77 13 12.46V11.24C13.61 10.69 14 9.89 14 9C14 8.20435 13.6839 7.44129 13.1213 6.87868C12.5587 6.31607 11.7957 6 11 6C10.2044 6 9.44129 6.31607 8.87869 6.87868C8.31608 7.44129 8.00001 8.20435 8.00001 9C8.00001 9.89 8.39001 10.69 9.00001 11.24V12.46C7.80001 11.77 7.00001 10.5 7.00001 9C7.00001 7.93913 7.42143 6.92172 8.17158 6.17157C8.92172 5.42143 9.93914 5 11 5Z" fill="#24292E"/>
</svg>
