<?xml version="1.0" encoding="utf-8"?>
<!-- Generator: Adobe Illustrator 24.0.3, SVG Export Plug-In . SVG Version: 6.00 Build 0)  -->
<svg version="1.1" id="Layer_1" xmlns="http://www.w3.org/2000/svg" xmlns:xlink="http://www.w3.org/1999/xlink" x="0px" y="0px"
	 viewBox="0 0 54 54" enable-background="new 0 0 54 54" xml:space="preserve">
<path fill="#FFFFFF" d="M52.9,20.3c-0.5-0.8-1.2-1.2-2.1-1.3c-0.4-0.1-0.9-0.1-1.3-0.2c-0.5-0.1-1.1-0.2-1.6-0.2
	c-1.4-0.1-2.3-0.7-2.8-1.9c-0.4-0.8-0.4-1.5-0.1-2.2l0.2-0.5c0.4-0.9,0.7-1.9,1.1-2.8c0.4-0.9,0.3-1.8-0.1-2.6
	c-0.8-1.6-2.1-2.7-3.7-3.2c-0.9-0.3-1.9-0.2-2.7,0.4c-0.4,0.3-0.8,0.5-1.2,0.8c-0.6,0.3-1.2,0.7-1.7,1.1c-0.4,0.3-0.9,0.4-1.4,0.4
	c-1.3,0-2.6-0.9-3-2C32.2,5.2,32,4.6,31.8,4c-0.2-0.5-0.3-1-0.5-1.5c-0.3-1.1-1-1.8-2.1-2.2c-0.3-0.1-0.6-0.2-0.9-0.3
	c-0.1,0-0.3-0.1-0.4-0.1l-0.1,0h-1.7L26,0c0,0-0.1,0-0.1,0c0,0-0.1,0-0.1,0C24,0.4,23,1.3,22.6,2.9c-0.2,0.7-0.4,1.4-0.7,2
	c-0.1,0.4-0.2,0.7-0.4,1.1c-0.3,1.1-1.6,1.9-2.9,1.9c-0.5,0-1-0.1-1.4-0.4c-0.7-0.5-1.4-0.9-2.2-1.4c-0.3-0.2-0.7-0.4-1-0.6
	c-0.7-0.4-1.4-0.5-2.1-0.4c-2,0.5-3.4,1.7-4.3,3.5c-0.3,0.7-0.4,1.6,0,2.4c0.2,0.4,0.3,0.7,0.4,1.1c0.2,0.6,0.4,1.2,0.7,1.7
	c0.5,1.2,0.5,2.2-0.2,3.3c-0.4,0.7-1,1.1-1.8,1.3c-1.1,0.2-2.3,0.4-3.5,0.5c-1,0.1-1.8,0.6-2.4,1.5c-0.8,1.2-1.1,2.6-1,4.1
	c0.1,1.4,0.8,2.4,2,3c0.4,0.2,0.9,0.5,1.3,0.7c0.5,0.3,1,0.5,1.5,0.8c0.7,0.3,1.3,1.1,1.4,2c0.2,1-0.1,2-0.7,2.6
	c-0.8,0.9-1.6,1.8-2.4,2.7c-0.3,0.4-0.6,1-0.7,1.5c-0.4,2,1.3,5,3.3,5.7c0.5,0.2,1.1,0.2,1.6,0.1c1-0.2,2.1-0.4,3.2-0.7
	c1.2-0.3,2.1,0,3,0.8c0.7,0.7,1,1.4,0.9,2.2c0,1.1-0.1,2.3-0.1,3.6c0,0.9,0.3,1.7,0.9,2.4c1.1,1,2.4,1.6,3.9,1.8c0.2,0,0.3,0,0.5,0
	c1.2,0,2.2-0.5,2.9-1.5c0.3-0.4,0.6-0.7,0.9-1.1c0.3-0.4,0.7-0.8,1-1.2c0.5-0.7,1.4-1.2,2.5-1.2c1,0,1.9,0.4,2.4,1.2
	c0.4,0.6,0.9,1.2,1.3,1.7c0.3,0.3,0.6,0.7,0.8,1c0.5,0.7,1.2,1,2,1.1c1.9,0.2,3.6-0.4,5-1.7c0.7-0.6,1-1.4,1-2.4c0-0.4,0-0.9,0-1.3
	c0-0.6,0-1.1-0.1-1.7c-0.1-1.4,0.3-2.3,1.3-3.1c0.7-0.5,1.3-0.7,2-0.5c1.3,0.2,2.4,0.4,3.5,0.7c1.1,0.3,2.1,0,3-0.8
	c1.1-1,1.8-2.2,2.2-3.7c0.3-1.2,0-2.3-0.9-3.2c-0.3-0.3-0.6-0.7-1-1.1c-0.3-0.4-0.6-0.7-1-1.1c-0.9-0.9-1.2-1.9-0.8-3.2
	c0.2-0.9,0.7-1.4,1.3-1.8c1.1-0.6,2.1-1.2,3.1-1.7c0.8-0.4,1.3-1.1,1.5-2C54.3,23.6,53.9,21.9,52.9,20.3z M36.1,22.6l-8.3,4.1
	l-1.3,0.6l-0.2,4.5l0,0.8V33c0,0.7,0,0.8,0.1,1.4c0.1,0.3,0.1,0.4,0.5,0.6c0.4,0.2,0.9,0.3,1.2,0.3h0.1c0.3,0,0.5,0,0.8-0.1
	c0.8-0.2,1.3-0.3,2.1-0.8c0.2-0.1,0.4-0.1,0.5,0.1c0.1,0.1,0.2,0.3,0.2,0.5c-0.1,0.3-0.2,1.1-0.2,1.8c-0.1,0.6-0.1,1.2-0.2,1.7
	c0,0.2-0.2,0.4-0.4,0.4c-0.9,0.2-1.6,0.4-2.1,0.4c-0.5,0.1-1,0.1-1.5,0.1c-1.2,0-2.2-0.2-2.9-0.5c-0.8-0.3-1.4-0.9-1.8-1.6
	c-0.4-0.7-0.6-1.7-0.6-2.9c0-0.2,0-0.4,0-0.8c0-0.4,0.1-1.7,0.2-3.9l0,0L20,30.6c-0.2,0.1-0.3,0.1-0.5,0.1c-0.1,0-0.3,0-0.4-0.1
	c-0.3-0.1-0.5-0.3-0.7-0.6l-2.4-5.1c-0.3-0.6,0-1.4,0.6-1.7l1.8-0.9c0.3-0.1,0.6-0.2,0.9,0c0.3,0.1,0.5,0.3,0.7,0.6l1,2.2l1.6-0.8
	l0.1-1.5l0.1-2.3c0,0,0,0,0,0l0.2-2.4c0.1-0.8,0-0.4,0.2-2.2c0-0.2,0.2-0.4,0.4-0.5c1.2-0.2,2.2-0.5,3-0.7c0.1,0,0.3,0,0.4,0.1
	c0.1,0.1,0.2,0.3,0.2,0.4c-0.1,2-0.1,1.9-0.1,2.9c0,0.1,0,0.4,0,0.5l-0.1,1.9l0,0.1l-0.1,1.5l1.3-0.7l0,0.1l6.2-3.1
	c0.3-0.1,0.6-0.2,0.9,0c0.3,0.1,0.5,0.3,0.7,0.6l0.8,1.8C37,21.6,36.7,22.3,36.1,22.6z"/>
</svg>
