<?xml version="1.0" encoding="UTF-8"?>
<svg width="60px" height="60px" viewBox="0 0 60 60" version="1.1" xmlns="http://www.w3.org/2000/svg" xmlns:xlink="http://www.w3.org/1999/xlink">
    <!-- Generator: Sketch 59.1 (86144) - https://sketch.com -->
    <title>Edit with borther ts Copy 8</title>
    <desc>Created with Sketch.</desc>
    <g id="Edit-with-borther-ts-Copy-8" stroke="none" stroke-width="1" fill="none" fill-rule="evenodd">
        <path d="M34.7341176,53.1482353 C35.9775294,53.7370588 37.2132941,54.5644706 38.3251765,55.6748235 C39.4385882,56.7897647 40.2644706,58.0224706 40.8517647,59.2658824 L40.1176471,60 L34,60 L34,53.8823529 L34.7341176,53.1482353 Z M50.0282353,37.8541176 C51.2716471,38.4398824 52.5074118,39.2672941 53.6192941,40.3791765 C54.7342353,41.4925882 55.5601176,42.7283529 56.1458824,43.9717647 L42.6167059,57.4994118 C41.9024706,56.3202353 41.0215294,55.1609412 39.9432941,54.0903529 C38.8543529,53.006 37.6767059,52.1204706 36.4730588,51.4077647 L50.0282353,37.8541176 Z M58.4705882,35.5294118 C60,37.0588235 60,40.1176471 60,40.1176471 L57.9123529,42.2068235 C57.1981176,41.0261176 56.3171765,39.8698824 55.2389412,38.7977647 C54.1484706,37.7149412 52.9723529,36.8278824 51.7687059,36.1151765 L53.8823529,34 L53.9170784,34.0003734 C54.2587316,34.0059743 57.0367647,34.0955882 58.4705882,35.5294118 Z" id="Combined-Shape" fill="#000000" fill-rule="nonzero"></path>
        <path d="M48,0 C50.209139,-4.05812251e-16 52,1.790861 52,4 L52,30 L22.3632812,60 L4,60 C1.790861,60 2.705415e-16,58.209139 0,56 L0,4 C-2.705415e-16,1.790861 1.790861,4.05812251e-16 4,0 L48,0 Z M20.0664473,43.1082132 L11.8043134,43.1082132 C10.8078186,43.1082132 10,43.9160318 10,44.9125266 C10,45.9090214 10.8078186,46.71684 11.8043134,46.71684 L11.8043134,46.71684 L20.0664473,46.71684 C21.0629421,46.71684 21.8707607,45.9090214 21.8707607,44.9125266 C21.8707607,43.9160318 21.0629421,43.1082132 20.0664473,43.1082132 L20.0664473,43.1082132 Z M41.9817921,25.3270946 C41.5169872,24.8764767 40.7511394,24.887418 40.2897411,25.3694856 L40.2897411,25.3694856 L35.9522607,29.9012717 C35.4926744,30.381446 34.7488505,30.3860064 34.2949308,29.9072289 L34.2949308,29.9072289 L32.613784,28.1340187 C32.1604198,27.6558272 31.4112793,27.6443872 30.9417727,28.1097754 L30.9417727,28.1097754 L30.1309863,28.9134499 C29.6622393,29.3780852 29.6664039,30.1356275 30.1419848,30.6037862 L30.1419848,30.6037862 L34.2557098,34.6533098 C34.7339118,35.1240487 35.4903326,35.1130866 35.9510774,34.6345883 L35.9510774,34.6345883 L42.6636693,27.6633463 C43.1269822,27.182181 43.1144018,26.4251346 42.6413062,25.9664789 L42.6413062,25.9664789 Z M25.0664473,29.1082132 L11.8043134,29.1082132 C10.8078186,29.1082132 10,29.9160318 10,30.9125266 C10,31.9090214 10.8078186,32.71684 11.8043134,32.71684 L11.8043134,32.71684 L25.0664473,32.71684 C26.0629421,32.71684 26.8707607,31.9090214 26.8707607,30.9125266 C26.8707607,29.9160318 26.0629421,29.1082132 25.0664473,29.1082132 L25.0664473,29.1082132 Z M41.9817921,11.3270946 C41.5169872,10.8764767 40.7511394,10.887418 40.2897411,11.3694856 L40.2897411,11.3694856 L35.9522607,15.9012717 C35.4926744,16.381446 34.7488505,16.3860064 34.2949308,15.9072289 L34.2949308,15.9072289 L32.613784,14.1340187 C32.1604198,13.6558272 31.4112793,13.6443872 30.9417727,14.1097754 L30.9417727,14.1097754 L30.1309863,14.9134499 C29.6622393,15.3780852 29.6664039,16.1356275 30.1419848,16.6037862 L30.1419848,16.6037862 L34.2557098,20.6533098 C34.7339118,21.1240487 35.4903326,21.1130866 35.9510774,20.6345883 L35.9510774,20.6345883 L42.6636693,13.6633463 C43.1269822,13.182181 43.1144018,12.4251346 42.6413062,11.9664789 L42.6413062,11.9664789 Z M25.0664473,15.1082132 L11.8043134,15.1082132 C10.8078186,15.1082132 10,15.9160318 10,16.9125266 C10,17.9090214 10.8078186,18.71684 11.8043134,18.71684 L11.8043134,18.71684 L25.0664473,18.71684 C26.0629421,18.71684 26.8707607,17.9090214 26.8707607,16.9125266 C26.8707607,15.9160318 26.0629421,15.1082132 25.0664473,15.1082132 L25.0664473,15.1082132 Z" id="Combined-Shape" fill="#000000"></path>
    </g>
</svg>