<svg width="32" height="34" viewBox="0 0 32 34" fill="none" xmlns="http://www.w3.org/2000/svg">
<path d="M6 1H22.688C25.4494 1 27.688 3.23858 27.688 6V13.0093C27.688 14.2822 27.2025 15.5072 26.3306 16.4345L13.3061 30.2859C12.3611 31.2909 11.043 31.8608 9.6635 31.8608H6C3.23857 31.8608 1 29.6222 1 26.8608V6C1 3.23858 3.23858 1 6 1Z" stroke="#1FB47E" stroke-width="2"/>
<path fill-rule="evenodd" clip-rule="evenodd" d="M22.8763 6.25919C23.1722 6.57406 23.1568 7.06921 22.8419 7.36514L18.9721 11.0021C18.6924 11.2649 18.2635 11.2861 17.9593 11.0522L15.8662 9.44275C15.5237 9.17935 15.4595 8.68813 15.7229 8.34559C15.9863 8.00304 16.4775 7.93888 16.8201 8.20227L17.7332 8.90442C18.1092 9.19356 18.6394 9.16733 18.9851 8.84249L21.7703 6.22487C22.0852 5.92895 22.5803 5.94431 22.8763 6.25919Z" fill="#1FB47E"/>
<path fill-rule="evenodd" clip-rule="evenodd" d="M22.8763 13.04C23.1722 13.3549 23.1568 13.85 22.8419 14.146L18.9721 17.7829C18.6924 18.0457 18.2635 18.0669 17.9593 17.833L15.8662 16.2236C15.5237 15.9602 15.4595 15.469 15.7229 15.1264C15.9863 14.7839 16.4775 14.7197 16.8201 14.9831L17.7332 15.6852C18.1092 15.9744 18.6394 15.9482 18.9851 15.6233L21.7703 13.0057C22.0852 12.7098 22.5803 12.7251 22.8763 13.04Z" fill="#1FB47E"/>
<path d="M17.0824 30.5892V33.0999C17.0824 33.3311 17.2641 33.5128 17.4953 33.5128H20.006C20.1133 33.5128 20.2207 33.4715 20.295 33.3889L29.3135 24.3787L26.2165 21.2817L17.2063 30.2919C17.1237 30.3745 17.0824 30.4736 17.0824 30.5892ZM31.7085 21.9837C31.785 21.9073 31.8458 21.8166 31.8872 21.7167C31.9287 21.6167 31.95 21.5096 31.95 21.4015C31.95 21.2933 31.9287 21.1862 31.8872 21.0863C31.8458 20.9864 31.785 20.8957 31.7085 20.8192L29.776 18.8867C29.6996 18.8102 29.6088 18.7494 29.5089 18.708C29.409 18.6665 29.3019 18.6452 29.1937 18.6452C29.0856 18.6452 28.9785 18.6665 28.8786 18.708C28.7786 18.7494 28.6879 18.8102 28.6115 18.8867L27.1002 20.3981L30.1972 23.4951L31.7085 21.9837Z" fill="#1AA874"/>
<rect x="5.21606" y="8.34558" width="8.3456" height="1.5648" rx="0.7824" fill="#1FB47E"/>
<rect x="5.21606" y="15.1264" width="8.3456" height="1.5648" rx="0.7824" fill="#1FB47E"/>
<rect x="5.21606" y="21.9072" width="8.3456" height="1.5648" rx="0.7824" fill="#1FB47E"/>
</svg>
