<?xml version="1.0" standalone="no"?>
<!DOCTYPE svg PUBLIC "-//W3C//DTD SVG 20010904//EN"
 "http://www.w3.org/TR/2001/REC-SVG-20010904/DTD/svg10.dtd">
<svg version="1.0" xmlns="http://www.w3.org/2000/svg"
 width="512.000000pt" height="512.000000pt" viewBox="0 0 512.000000 512.000000"
 preserveAspectRatio="xMidYMid meet">

<g transform="translate(0.000000,512.000000) scale(0.100000,-0.100000)"
fill="#000000" stroke="none">
<path d="M433 4255 c-199 -43 -382 -227 -422 -423 -15 -73 -15 -1191 0 -1264
30 -147 147 -298 286 -371 130 -68 110 -67 1081 -67 969 0 924 -3 956 65 20
41 20 49 0 90 -32 68 15 65 -978 65 -868 0 -897 1 -948 20 -76 28 -122 71
-160 148 l-33 67 0 615 0 615 33 67 c38 77 84 120 160 148 52 20 84 20 2152
20 2068 0 2100 0 2152 -20 76 -28 122 -71 160 -148 l33 -67 0 -615 0 -615 -26
-55 c-36 -77 -71 -115 -137 -147 l-57 -28 -498 -5 -499 -5 -29 -33 c-40 -45
-40 -99 0 -144 l29 -33 454 -3 c307 -2 475 1 521 9 209 35 404 221 446 427 15
73 15 1191 0 1264 -41 199 -224 380 -426 423 -98 21 -4155 21 -4250 0z"/>
<path d="M1220 3342 c-82 -45 -119 -135 -82 -202 45 -82 135 -119 202 -82 82
45 119 135 82 202 -45 82 -135 119 -202 82z m92 -109 c22 -20 23 -41 1 -65
-20 -22 -41 -23 -65 -1 -22 20 -23 41 -1 65 20 22 41 23 65 1z"/>
<path d="M2500 3342 c-82 -45 -119 -135 -82 -202 45 -82 135 -119 202 -82 82
45 119 135 82 202 -45 82 -135 119 -202 82z m92 -109 c22 -20 23 -41 1 -65
-20 -22 -41 -23 -65 -1 -22 20 -23 41 -1 65 20 22 41 23 65 1z"/>
<path d="M3780 3342 c-82 -45 -119 -135 -82 -202 45 -82 135 -119 202 -82 82
45 119 135 82 202 -45 82 -135 119 -202 82z m92 -109 c22 -20 23 -41 1 -65
-20 -22 -41 -23 -65 -1 -22 20 -23 41 -1 65 20 22 41 23 65 1z"/>
<path d="M2920 2084 c-76 -33 -113 -96 -114 -194 l0 -65 414 -825 c384 -763
418 -827 457 -856 23 -18 65 -37 93 -44 44 -11 57 -10 97 5 52 20 108 66 128
105 8 15 41 137 75 271 33 134 64 253 69 265 8 18 49 31 280 89 249 62 273 70
311 102 100 86 108 207 19 307 -27 32 -169 106 -851 447 l-818 409 -62 0 c-35
-1 -79 -8 -98 -16z m1662 -985 c-4 -3 -131 -37 -282 -74 -151 -37 -287 -74
-301 -81 -36 -18 -45 -46 -124 -363 l-68 -274 -393 784 c-216 431 -393 787
-393 791 -1 5 352 -169 784 -384 431 -216 781 -395 777 -399z"/>
</g>
</svg>
