<?xml version="1.0" encoding="UTF-8"?>
<svg width="60px" height="60px" viewBox="0 0 60 60" version="1.1" xmlns="http://www.w3.org/2000/svg" xmlns:xlink="http://www.w3.org/1999/xlink">
    <!-- Generator: Sketch 59 (86127) - https://sketch.com -->
    <title>tick-circle-filled</title>
    <desc>Created with Sketch.</desc>
    <defs>
        <path d="M30.1084559,0.5 C22.1911765,0.5 14.7077206,3.64522059 9.17647059,9.17647059 C3.64522059,14.7077206 0.5,22.1911765 0.5,30 C0.5,46.2683824 13.7316176,59.5 30,59.5 C46.2683824,59.5 59.5,46.2683824 59.5,30 C59.5,13.7316176 46.2683824,0.5 30.1084559,0.5 Z M44.3161765,24.2518382 C44.2077206,24.3602941 43.9908088,24.46875 43.8823529,24.5772059 L26.7463235,38.6764706 C26.3125,39.0018382 25.7702206,39.21875 25.1194853,39.21875 C24.3602941,39.21875 23.7095588,38.8933824 23.2757353,38.3511029 L16.5514706,30.4338235 C15.7922794,29.3492647 16.1176471,27.8308824 17.2022059,27.0716912 C18.1783088,26.4209559 19.3713235,26.5294118 20.2389706,27.2886029 L25.4448529,33.3621324 L40.7371324,20.8897059 C41.7132353,19.9136029 43.2316176,19.9136029 44.2077206,20.78125 C45.1838235,21.7573529 45.1838235,23.2757353 44.3161765,24.2518382 Z" id="path-1"></path>
    </defs>
    <g id="tick-circle-filled" stroke="none" stroke-width="1" fill="none" fill-rule="evenodd">
        <mask id="mask-2" fill="white">
            <use xlink:href="#path-1"></use>
        </mask>
        <use id="Mask" fill="#333333" fill-rule="nonzero" xlink:href="#path-1"></use>
    </g>
</svg>