<svg width="18" height="18" viewBox="0 0 18 18" fill="none" xmlns="http://www.w3.org/2000/svg">
<path d="M9 0C4.02991 0 0 4.02991 0 9C0 13.9701 4.02991 18 9 18C13.9701 18 18 13.9701 18 9C18 4.02991 13.9701 0 9 0ZM9 16.4732C4.87366 16.4732 1.52679 13.1263 1.52679 9C1.52679 4.87366 4.87366 1.52679 9 1.52679C13.1263 1.52679 16.4732 4.87366 16.4732 9C16.4732 13.1263 13.1263 16.4732 9 16.4732Z" fill="#6A737D"/>
<path d="M12.5079 11.5438L9.64319 9.47264V4.50056C9.64319 4.41216 9.57087 4.33984 9.48247 4.33984H8.51618C8.42779 4.33984 8.35547 4.41216 8.35547 4.50056V10.0331C8.35547 10.0854 8.37958 10.1336 8.42176 10.1637L11.7445 12.5865C11.8168 12.6387 11.9173 12.6226 11.9695 12.5523L12.5441 11.7688C12.5963 11.6945 12.5802 11.5941 12.5079 11.5438Z" fill="#6A737D"/>
</svg>
