<?xml version="1.0" encoding="UTF-8"?>
<svg width="60px" height="60px" viewBox="0 0 60 60" version="1.1" xmlns="http://www.w3.org/2000/svg" xmlns:xlink="http://www.w3.org/1999/xlink">
    <!-- Generator: Sketch 59 (86127) - https://sketch.com -->
    <title>trash-thin copy</title>
    <desc>Created with Sketch.</desc>
    <g id="trash-thin-copy" stroke="none" stroke-width="1" fill="none" fill-rule="evenodd">
        <path d="M21,48 L27,48 L27,24 L21,24 L21,48 Z M33,48 L39,48 L39,24 L33,24 L33,48 Z M15,54 L45,54 L45,18 L15,18 L15,54 Z M21,12 L39,12 L39,6 L21,6 L21,12 Z M45,12 L45,0 L15,0 L15,12 L0,12 L0,18 L9,18 L9,60 L51,60 L51,18 L60,18 L60,12 L45,12 Z" id="delete-[#1487]" fill="#000000"></path>
    </g>
</svg>