<svg width="20" height="20" viewBox="0 0 20 20" fill="none" xmlns="http://www.w3.org/2000/svg">
<mask id="mask0_36_345" style="mask-type:alpha" maskUnits="userSpaceOnUse" x="0" y="0" width="20" height="20">
<rect width="20" height="20" fill="#D9D9D9"/>
</mask>
<g mask="url(#mask0_36_345)">
<path d="M7.33333 8.85416C7.04167 8.85416 6.82278 8.72222 6.67667 8.45833C6.53111 8.19444 6.53472 7.9375 6.6875 7.6875L9.35417 3.33333C9.50694 3.08333 9.72222 2.95833 10 2.95833C10.2778 2.95833 10.4931 3.08333 10.6458 3.33333L13.3125 7.6875C13.4653 7.9375 13.4689 8.19444 13.3233 8.45833C13.1772 8.72222 12.9583 8.85416 12.6667 8.85416H7.33333ZM14.5833 18.0208C13.625 18.0208 12.8125 17.6875 12.1458 17.0208C11.4792 16.3542 11.1458 15.5417 11.1458 14.5833C11.1458 13.625 11.4792 12.8125 12.1458 12.1458C12.8125 11.4792 13.625 11.1458 14.5833 11.1458C15.5417 11.1458 16.3542 11.4792 17.0208 12.1458C17.6875 12.8125 18.0208 13.625 18.0208 14.5833C18.0208 15.5417 17.6875 16.3542 17.0208 17.0208C16.3542 17.6875 15.5417 18.0208 14.5833 18.0208ZM3.5625 17.6042C3.35417 17.6042 3.17722 17.5314 3.03167 17.3858C2.88556 17.2397 2.8125 17.0556 2.8125 16.8333V12.3125C2.8125 12.1042 2.88556 11.9269 3.03167 11.7808C3.17722 11.6353 3.36111 11.5625 3.58333 11.5625H8.10417C8.3125 11.5625 8.48972 11.6353 8.63583 11.7808C8.78139 11.9269 8.85417 12.1111 8.85417 12.3333V16.8542C8.85417 17.0625 8.78139 17.2397 8.63583 17.3858C8.48972 17.5314 8.30556 17.6042 8.08333 17.6042H3.5625ZM14.5833 16.7708C15.1944 16.7708 15.7119 16.5592 16.1358 16.1358C16.5592 15.7119 16.7708 15.1944 16.7708 14.5833C16.7708 13.9722 16.5592 13.4547 16.1358 13.0308C15.7119 12.6075 15.1944 12.3958 14.5833 12.3958C13.9722 12.3958 13.455 12.6075 13.0317 13.0308C12.6078 13.4547 12.3958 13.9722 12.3958 14.5833C12.3958 15.1944 12.6078 15.7119 13.0317 16.1358C13.455 16.5592 13.9722 16.7708 14.5833 16.7708ZM4.0625 16.3542H7.60417V12.8125H4.0625V16.3542ZM8.20833 7.60416H11.7917L10 4.70833L8.20833 7.60416Z" fill="#4B5768"/>
</g>
</svg>
