<svg width="14" height="16" viewBox="0 0 14 16" fill="none" xmlns="http://www.w3.org/2000/svg">
<path fill-rule="evenodd" clip-rule="evenodd" d="M3.61507 2.77296L6.14138 0.246647C6.47025 -0.0822156 7.00344 -0.0822156 7.3323 0.246647C7.63587 0.550212 7.65922 1.02788 7.40235 1.35823L7.3323 1.43756L6.22245 2.5457C6.39293 2.53281 6.56448 2.52632 6.73684 2.52632C10.4575 2.52632 13.4737 5.5425 13.4737 9.26316C13.4737 12.9838 10.4575 16 6.73684 16C3.01619 16 0 12.9838 0 9.26316C0 8.79808 0.377023 8.42105 0.842105 8.42105C1.30719 8.42105 1.68421 8.79808 1.68421 9.26316C1.68421 12.0536 3.94635 14.3158 6.73684 14.3158C9.52733 14.3158 11.7895 12.0536 11.7895 9.26316C11.7895 6.47267 9.52733 4.21053 6.73684 4.21053C6.57931 4.21053 6.42284 4.21771 6.26775 4.23196L7.3323 5.29928C7.66116 5.62814 7.66116 6.16133 7.3323 6.4902C7.02874 6.79376 6.55107 6.81711 6.22072 6.56025L6.14138 6.4902L3.61507 3.96388C3.3115 3.66031 3.28815 3.18265 3.54501 2.8523L3.61507 2.77296Z" fill="#37464E"/>
</svg>
