<?xml version="1.0" encoding="UTF-8"?>
<svg width="60px" height="60px" viewBox="0 0 60 60" version="1.1" xmlns="http://www.w3.org/2000/svg" xmlns:xlink="http://www.w3.org/1999/xlink">
    <!-- Generator: Sketch 55.2 (78181) - https://sketchapp.com -->
    <title>uploads</title>
    <desc>Created with Sketch.</desc>
    <g id="uploads" stroke="none" stroke-width="1" fill="none" fill-rule="evenodd">
        <path d="M6,0 L54,0 C57.3137085,-6.08718376e-16 60,2.6862915 60,6 L60,54 C60,57.3137085 57.3137085,60 54,60 L6,60 C2.6862915,60 4.05812251e-16,57.3137085 0,54 L0,6 C-4.05812251e-16,2.6862915 2.6862915,6.08718376e-16 6,0 Z M37.4934403,31.8395435 L37.4753496,31.8395435 C38.1808847,30.0439372 38.1718394,29.6291521 37.4663043,28.9288657 L32.7844462,24.0986848 C31.3715671,22.6963163 29.0776737,22.6047404 27.6647945,24.0071089 L22.9847455,28.6020653 C22.2792105,29.3041474 21.1756813,30.4174233 22.9847455,31.1195054 L22.9847455,31.1069361 C22.9847455,31.8090182 24.8354182,31.8018357 25.5427623,31.1015493 L26.8669972,29.7835743 C27.4368525,29.2179583 28.4119381,29.6147873 28.4119381,30.4156277 L28.4119381,46.2043937 C28.4119381,47.1955684 29.3671239,48 30.3657274,48 L30.439899,48 C31.4385024,48 32.0300664,47.1955684 32.0300664,46.2043937 L32.0300664,30.4156277 C32.0300664,29.6147873 33.003343,29.2143671 33.5731982,29.7799831 L34.8992422,31.467853 C35.6047773,32.1681394 36.7860962,31.8395435 37.4934403,31.8395435 Z M37.2089215,37.9595461 C50.6499371,37.9595461 50.844213,22.7568151 41.6071125,19.865646 C41.6071125,19.865646 40.3425202,16.5000286 37.0038525,14.1963599 C29.2256202,8.83287055 18.7239274,13.8368171 17.5366857,23.3128092 C17.5366857,23.3128092 14.958932,23.9077228 13.3183798,26.3170304 C9.88257414,31.3617499 13.581012,37.9595461 19.5819794,37.9595461 C22.0482043,37.9595461 24.6169637,38.437701 24.6169637,36.1062325 C24.6169637,32.6831624 19.7420771,35.5131722 17.0402028,33.4448743 C13.2608165,30.5499986 17.6787949,24.5712091 21.4455891,27.6569761 C17.7309616,15.0507375 36.430019,10.9085817 38.8278875,23.1515709 C44.2010558,22.9532664 46.4604128,30.1700693 42.1143885,33.2317432 C40.4756352,34.3845043 39.1085083,34.252919 37.2089215,34.252919 C34.8326392,34.252919 34.8290415,37.9595461 37.2089215,37.9595461 Z" id="Combined-Shape" fill="#000000"></path>
    </g>
</svg>