<svg width="20" height="20" viewBox="0 0 20 20" fill="none" xmlns="http://www.w3.org/2000/svg">
<mask id="mask0_36_360" style="mask-type:alpha" maskUnits="userSpaceOnUse" x="0" y="0" width="20" height="20">
<rect width="20" height="20" fill="#D9D9D9"/>
</mask>
<g mask="url(#mask0_36_360)">
<path d="M5.41667 16.25C4.26389 16.25 3.28111 15.8506 2.46833 15.0517C1.65611 14.2533 1.25 13.2778 1.25 12.125C1.25 11.0833 1.58333 10.17 2.25 9.385C2.91667 8.60056 3.74306 8.13889 4.72917 8C4.99306 6.75 5.61806 5.72917 6.60417 4.9375C7.59028 4.14583 8.72222 3.75 10 3.75C11.5139 3.75 12.7953 4.27417 13.8442 5.3225C14.8925 6.37139 15.4167 7.65278 15.4167 9.16667V9.58333H15.6667C16.5556 9.65278 17.2917 10.0069 17.875 10.6458C18.4583 11.2847 18.75 12.0417 18.75 12.9167C18.75 13.8472 18.4306 14.6353 17.7917 15.2808C17.1528 15.9269 16.3681 16.25 15.4375 16.25H10.875C10.4583 16.25 10.1042 16.1042 9.8125 15.8125C9.52083 15.5208 9.375 15.1667 9.375 14.75V10.1458L8.27083 11.2708C8.15972 11.3819 8.01389 11.4375 7.83333 11.4375C7.65278 11.4375 7.50694 11.3819 7.39583 11.2708C7.27083 11.1458 7.21194 10.9964 7.21917 10.8225C7.22583 10.6492 7.28472 10.5069 7.39583 10.3958L9.47917 8.3125C9.54861 8.22917 9.62861 8.17361 9.71917 8.14583C9.80917 8.11806 9.90278 8.10417 10 8.10417C10.0972 8.10417 10.1911 8.11806 10.2817 8.14583C10.3717 8.17361 10.4514 8.22917 10.5208 8.3125L12.6042 10.3958C12.7153 10.5069 12.7744 10.6492 12.7817 10.8225C12.7883 10.9964 12.7292 11.1458 12.6042 11.2708C12.4931 11.3819 12.3472 11.4375 12.1667 11.4375C11.9861 11.4375 11.8403 11.375 11.7292 11.25L10.625 10.1458V14.75C10.625 14.8056 10.6528 14.8611 10.7083 14.9167C10.7639 14.9722 10.8194 15 10.875 15H15.4167C16 15 16.4931 14.7986 16.8958 14.3958C17.2986 13.9931 17.5 13.5 17.5 12.9167C17.5 12.3333 17.2986 11.8403 16.8958 11.4375C16.4931 11.0347 16 10.8333 15.4167 10.8333H14.1667V9.16667C14.1667 8.01389 13.7606 7.03111 12.9483 6.21833C12.1356 5.40611 11.1528 5 10 5C8.84722 5 7.86472 5.40611 7.0525 6.21833C6.23972 7.03111 5.83333 8.01389 5.83333 9.16667H5.39583C4.60417 9.16667 3.92361 9.45139 3.35417 10.0208C2.78472 10.5903 2.5 11.2778 2.5 12.0833C2.5 12.8889 2.78472 13.5764 3.35417 14.1458C3.92361 14.7153 4.61111 15 5.41667 15H6.875C7.05556 15 7.205 15.0589 7.32333 15.1767C7.44111 15.295 7.5 15.4444 7.5 15.625C7.5 15.8056 7.44111 15.955 7.32333 16.0733C7.205 16.1911 7.05556 16.25 6.875 16.25H5.41667Z" fill="#4B5768"/>
</g>
</svg>
