<svg width="16" height="14" viewBox="0 0 16 14" fill="none" xmlns="http://www.w3.org/2000/svg">
<path d="M7.99992 7.3516L10.6983 9.8968L9.79844 10.7458L8.63589 9.649V13H7.36395V9.6478L6.20141 10.7458L5.30151 9.8968L7.99992 7.3516ZM7.99992 1C9.09187 1.00005 10.1457 1.37867 10.9611 2.06387C11.7765 2.74907 12.2966 3.69308 12.4224 4.7164C13.2138 4.91999 13.9041 5.37946 14.3727 6.01452C14.8414 6.64957 15.0586 7.41981 14.9864 8.19063C14.9142 8.96145 14.5572 9.68382 13.9777 10.2315C13.3983 10.7792 12.6333 11.1173 11.8164 11.1868V9.9784C12.109 9.93897 12.3904 9.84493 12.6441 9.70178C12.8978 9.55863 13.1188 9.36923 13.2941 9.14465C13.4694 8.92006 13.5955 8.66478 13.665 8.3937C13.7346 8.12263 13.7462 7.8412 13.6993 7.56584C13.6523 7.29048 13.5477 7.0267 13.3915 6.78991C13.2353 6.55312 13.0306 6.34805 12.7895 6.18668C12.5484 6.02531 12.2756 5.91087 11.9871 5.85005C11.6986 5.78922 11.4002 5.78322 11.1092 5.8324C11.2088 5.39493 11.2034 4.94198 11.0934 4.50673C10.9834 4.07148 10.7717 3.66495 10.4736 3.31692C10.1755 2.96888 9.79869 2.68816 9.37073 2.49532C8.94277 2.30247 8.47451 2.20238 8.00024 2.20238C7.52597 2.20238 7.05771 2.30247 6.62975 2.49532C6.20179 2.68816 5.82497 2.96888 5.5269 3.31692C5.22883 3.66495 5.01705 4.07148 4.90707 4.50673C4.7971 4.94198 4.79171 5.39493 4.89131 5.8324C4.31109 5.7296 3.71135 5.84847 3.22402 6.16286C2.7367 6.47724 2.40171 6.96139 2.29275 7.5088C2.18379 8.05621 2.30978 8.62203 2.64302 9.08179C2.97625 9.54156 3.48942 9.8576 4.06964 9.9604L4.18412 9.9784V11.1868C3.36719 11.1174 2.60209 10.7793 2.02255 10.2317C1.44301 9.68409 1.08589 8.96173 1.01361 8.1909C0.941333 7.42006 1.15849 6.64977 1.62713 6.01466C2.09576 5.37956 2.78607 4.92003 3.5774 4.7164C3.70314 3.69303 4.22317 2.74895 5.03859 2.06372C5.85401 1.37849 6.90794 0.999918 7.99992 1V1Z" fill="#2D4A60" stroke="#2D4A60" stroke-width="0.2"/>
</svg>
