<?xml version="1.0" encoding="UTF-8"?>
<svg width="60px" height="60px" viewBox="0 0 60 60" version="1.1" xmlns="http://www.w3.org/2000/svg" xmlns:xlink="http://www.w3.org/1999/xlink">
    <!-- Generator: Sketch 59 (86127) - https://sketch.com -->
    <title>user-plus-solid</title>
    <desc>Created with Sketch.</desc>
    <g id="user-plus-solid" stroke="none" stroke-width="1" fill="none" fill-rule="evenodd">
        <path d="M58.025,25.175 L52.125,25.175 L52.125,19.275 C52.125,18.46375 51.46125,17.8 50.65,17.8 L47.7,17.8 C46.88875,17.8 46.225,18.46375 46.225,19.275 L46.225,25.175 L40.325,25.175 C39.51375,25.175 38.85,25.83875 38.85,26.65 L38.85,29.6 C38.85,30.41125 39.51375,31.075 40.325,31.075 L46.225,31.075 L46.225,36.975 C46.225,37.78625 46.88875,38.45 47.7,38.45 L50.65,38.45 C51.46125,38.45 52.125,37.78625 52.125,36.975 L52.125,31.075 L58.025,31.075 C58.83625,31.075 59.5,30.41125 59.5,29.6 L59.5,26.65 C59.5,25.83875 58.83625,25.175 58.025,25.175 Z M21.15,29.6 C27.6676563,29.6 32.95,24.3176562 32.95,17.8 C32.95,11.2823438 27.6676563,6 21.15,6 C14.6323438,6 9.35,11.2823437 9.35,17.8 C9.35,24.3176562 14.6323438,29.6 21.15,29.6 Z M29.41,32.55 L27.8704688,32.55 C25.8239063,33.4903125 23.546875,34.025 21.15,34.025 C18.753125,34.025 16.4853125,33.4903125 14.4295313,32.55 L12.89,32.55 C6.0496875,32.55 0.5,38.0996875 0.5,44.94 L0.5,48.775 C0.5,51.2179687 2.48203125,53.2 4.925,53.2 L37.375,53.2 C39.8179687,53.2 41.8,51.2179687 41.8,48.775 L41.8,44.94 C41.8,38.0996875 36.2503125,32.55 29.41,32.55 Z" id="Shape" fill="#000000" fill-rule="nonzero"></path>
    </g>
</svg>