<?xml version="1.0" encoding="UTF-8"?>
<svg width="60px" height="60px" viewBox="0 0 60 60" version="1.1" xmlns="http://www.w3.org/2000/svg" xmlns:xlink="http://www.w3.org/1999/xlink">
    <!-- Generator: Sketch 55.2 (78181) - https://sketchapp.com -->
    <title>user ts</title>
    <desc>Created with Sketch.</desc>
    <g id="user-ts" stroke="none" stroke-width="1" fill="none" fill-rule="evenodd">
        <path d="M18.8573536,32.1374757 C14.6808009,28.8411512 12,23.7336429 12,18 C12,8.0588745 20.0588745,0 30,0 C39.9411255,0 48,8.0588745 48,18 C48,23.7336429 45.3191991,28.8411512 41.1426464,32.1374757 C52.1938438,36.561015 60,47.3688948 60,60 L3.55271368e-15,60 C0,47.3688948 7.80615618,36.561015 18.8573536,32.1374757 Z M53.281323,54.147364 C50.6686695,43.7213107 41.2360391,36 30,36 C18.7821483,36 9.36187179,43.6963345 6.73138819,54.0967564 C36.7792969,54.2062988 45.7373047,54.2241211 53.281323,54.147364 Z M30,30 C36.627417,30 42,24.627417 42,18 C42,11.372583 36.627417,16 30,16 C23.372583,16 18,11.372583 18,18 C18,24.627417 23.372583,30 30,30 Z" id="Combined-Shape" fill="#000000" fill-rule="nonzero"></path>
    </g>
</svg>