<?xml version="1.0" encoding="UTF-8"?>
<svg width="60px" height="60px" viewBox="0 0 60 60" version="1.1" xmlns="http://www.w3.org/2000/svg" xmlns:xlink="http://www.w3.org/1999/xlink">
    <!-- Generator: Sketch 59 (86127) - https://sketch.com -->
    <title>user-role</title>
    <desc>Created with Sketch.</desc>
    <g id="user-role" stroke="none" stroke-width="1" fill="none" fill-rule="evenodd">
        <path d="M58.6368406,39.641188 L50.311822,31.3253887 C49.2055072,30.2190739 47.702763,29.6013815 46.1354838,29.6013815 L38.8245871,29.6013815 C37.1927728,29.6013815 35.8744144,30.9197399 35.8744144,32.5515542 L35.8744144,39.8532316 C35.8744144,41.4205109 36.4921068,42.9140358 37.5984216,44.0203505 L45.9234401,52.3361498 C47.0758513,53.488561 48.9473671,53.488561 50.0997783,52.3361498 L58.6276213,43.8083069 C59.7892518,42.6558957 59.7892518,40.7935992 58.6368406,39.641188 Z M41.7839791,37.7051371 C40.5578135,37.7051371 39.5713496,36.7186731 39.5713496,35.4925076 C39.5713496,34.2663421 40.5578135,33.2798781 41.7839791,33.2798781 C43.0101446,33.2798781 43.9966086,34.2663421 43.9966086,35.4925076 C43.9966086,36.7094538 43.0101446,37.7051371 41.7839791,37.7051371 Z M21.1512088,29.5921622 C27.6692466,29.5921622 32.9518996,24.3095093 32.9518996,17.7914715 C32.9518996,11.282653 27.6692466,6 21.1512088,6 C14.633171,6 9.35051807,11.282653 9.35051807,17.8006908 C9.35051807,24.3095093 14.633171,29.5921622 21.1512088,29.5921622 Z M32.933461,39.8440123 L32.933461,33.1047116 C31.8087077,32.7728172 30.6378579,32.5331156 29.4116924,32.5331156 L27.872071,32.5331156 C25.8253887,33.4734832 23.5482241,34.008202 21.1512088,34.008202 C18.7541935,34.008202 16.4862483,33.4734832 14.4303467,32.5331156 L12.8907253,32.5331156 C6.05001237,32.5423349 0.5,38.0923473 0.5,44.9330602 L0.5,48.7682847 C0.5,51.2113965 2.48214728,53.1935437 4.92525903,53.1935437 L37.3771586,53.1935437 C38.8061485,53.1935437 40.0599719,52.502097 40.8712694,51.451098 L35.5240814,46.10391 C33.85539,44.4352186 32.933461,42.2133698 32.933461,39.8440123 L32.933461,39.8440123 Z" id="Shape" fill="#000000" fill-rule="nonzero"></path>
    </g>
</svg>