<svg width="36" height="36" viewBox="0 0 36 36" fill="none" xmlns="http://www.w3.org/2000/svg">
<path d="M18 5.625C13.6125 5.625 10.125 9.1125 10.125 13.5C10.1173 14.7902 10.4286 16.0624 11.0311 17.2033C11.6337 18.3442 12.5088 19.3185 13.5787 20.0396C9.57375 21.7642 6.75 25.7535 6.75 30.375H9C9 25.425 13.05 21.375 18 21.375C22.3875 21.375 25.875 17.8875 25.875 13.5C25.875 9.1125 22.3875 5.625 18 5.625ZM18 7.875C21.15 7.875 23.625 10.35 23.625 13.5C23.625 16.65 21.15 19.125 18 19.125C14.85 19.125 12.375 16.65 12.375 13.5C12.375 10.35 14.85 7.875 18 7.875ZM23.625 21.375C22.3875 21.375 21.375 22.3875 21.375 23.625V28.575L28.125 35.325C28.575 35.775 29.1375 36 29.7 36C30.2625 36 30.825 35.775 31.275 35.325L35.325 31.275C35.775 30.825 36 30.2625 36 29.7C36 29.1375 35.775 28.575 35.325 28.125L28.575 21.375H23.625ZM23.625 23.625H27.675L33.75 29.7L29.7 33.75L23.625 27.675V23.625ZM25.875 24.75C25.5766 24.75 25.2905 24.8685 25.0795 25.0795C24.8685 25.2905 24.75 25.5766 24.75 25.875C24.75 26.1734 24.8685 26.4595 25.0795 26.6705C25.2905 26.8815 25.5766 27 25.875 27C26.1734 27 26.4595 26.8815 26.6705 26.6705C26.8815 26.4595 27 26.1734 27 25.875C27 25.5766 26.8815 25.2905 26.6705 25.0795C26.4595 24.8685 26.1734 24.75 25.875 24.75Z" fill="#2B5467"/>
</svg>
