<?xml version="1.0" encoding="UTF-8"?>
<svg width="60px" height="60px" viewBox="0 0 60 60" version="1.1" xmlns="http://www.w3.org/2000/svg" xmlns:xlink="http://www.w3.org/1999/xlink">
    <!-- Generator: Sketch 59 (86127) - https://sketch.com -->
    <title>user-shield</title>
    <desc>Created with Sketch.</desc>
    <g id="user-shield" stroke="none" stroke-width="1" fill="none" fill-rule="evenodd">
        <path d="M57.8682812,30.9920312 L47.2482813,26.8435937 C46.8703125,26.6960937 46.0867187,26.5025 45.2017187,26.8435937 L34.5817188,30.9920312 C33.5953125,31.3792187 32.95,32.2826562 32.95,33.2875 C32.95,43.575625 39.2832813,50.6925 45.2017187,53.0064062 C46.0867188,53.3475 46.8610938,53.1539062 47.2482813,53.0064062 C51.9775,51.1626562 59.5,44.7648437 59.5,33.2875 C59.5,32.2826562 58.8546875,31.3792187 57.8682812,30.9920312 Z M46.225,48.6275 L46.225,31.1948438 L55.0289062,34.6334375 C54.5126562,42.6629688 49.4146875,47.115625 46.225,48.6275 L46.225,48.6275 Z M21.15,29.6 C27.6676563,29.6 32.95,24.3176562 32.95,17.8 C32.95,11.2823438 27.6676563,6 21.15,6 C14.6323438,6 9.35,11.2823437 9.35,17.8 C9.35,24.3176562 14.6323438,29.6 21.15,29.6 Z M30,33.2875 C30,33.0570313 30.07375,32.845 30.1014063,32.62375 C29.8709375,32.6145312 29.6496875,32.55 29.41,32.55 L27.8704688,32.55 C25.8239063,33.4903125 23.546875,34.025 21.15,34.025 C18.753125,34.025 16.4853125,33.4903125 14.4295313,32.55 L12.89,32.55 C6.0496875,32.55 0.5,38.0996875 0.5,44.94 L0.5,48.775 C0.5,51.2179687 2.48203125,53.2 4.925,53.2 L37.375,53.2 C38.001875,53.2 38.6010938,53.0617187 39.145,52.83125 C34.166875,48.8764063 30,42.0729688 30,33.2875 Z" id="Shape" fill="#000000" fill-rule="nonzero"></path>
    </g>
</svg>