<?xml version="1.0" encoding="UTF-8"?>
<svg width="60px" height="60px" viewBox="0 0 60 60" version="1.1" xmlns="http://www.w3.org/2000/svg" xmlns:xlink="http://www.w3.org/1999/xlink">
    <!-- Generator: Sketch 59 (86127) - https://sketch.com -->
    <title>users-solid</title>
    <desc>Created with Sketch.</desc>
    <g id="users-solid" stroke="none" stroke-width="1" fill="none" fill-rule="evenodd">
        <path d="M9.35,26.7 C12.6042188,26.7 15.25,24.0542188 15.25,20.8 C15.25,17.5457812 12.6042188,14.9 9.35,14.9 C6.09578125,14.9 3.45,17.5457812 3.45,20.8 C3.45,24.0542188 6.09578125,26.7 9.35,26.7 Z M50.65,26.7 C53.9042187,26.7 56.55,24.0542188 56.55,20.8 C56.55,17.5457812 53.9042187,14.9 50.65,14.9 C47.3957813,14.9 44.75,17.5457812 44.75,20.8 C44.75,24.0542188 47.3957812,26.7 50.65,26.7 Z M53.6,29.65 L47.7,29.65 C46.0775,29.65 44.6117188,30.3045313 43.5423438,31.3646875 C47.2575,33.4020313 49.8940625,37.0803125 50.465625,41.45 L56.55,41.45 C58.1817188,41.45 59.5,40.1317187 59.5,38.5 L59.5,35.55 C59.5,32.2957812 56.8542188,29.65 53.6,29.65 Z M30,29.65 C35.7064063,29.65 40.325,25.0314062 40.325,19.325 C40.325,13.6185937 35.7064063,9 30,9 C24.2935938,9 19.675,13.6185937 19.675,19.325 C19.675,25.0314062 24.2935938,29.65 30,29.65 Z M37.08,32.6 L36.3148438,32.6 C34.3973438,33.521875 32.2678125,34.075 30,34.075 C27.7321875,34.075 25.611875,33.521875 23.6851563,32.6 L22.92,32.6 C17.056875,32.6 12.3,37.356875 12.3,43.22 L12.3,45.875 C12.3,48.3179688 14.2820313,50.3 16.725,50.3 L43.275,50.3 C45.7179688,50.3 47.7,48.3179688 47.7,45.875 L47.7,43.22 C47.7,37.356875 42.943125,32.6 37.08,32.6 Z M16.4576562,31.3646875 C15.3882812,30.3045313 13.9225,29.65 12.3,29.65 L6.4,29.65 C3.14578125,29.65 0.5,32.2957812 0.5,35.55 L0.5,38.5 C0.5,40.1317187 1.81828125,41.45 3.45,41.45 L9.52515625,41.45 C10.1059375,37.0803125 12.7425,33.4020312 16.4576562,31.3646875 Z" id="Shape" fill="#000000" fill-rule="nonzero"></path>
    </g>
</svg>