<?xml version="1.0" encoding="UTF-8"?>
<svg width="60px" height="60px" viewBox="0 0 60 60" version="1.1" xmlns="http://www.w3.org/2000/svg" xmlns:xlink="http://www.w3.org/1999/xlink">
    <!-- Generator: Sketch 59 (86127) - https://sketch.com -->
    <title>user-tie</title>
    <desc>Created with Sketch.</desc>
    <g id="user-tie" stroke="none" stroke-width="1" fill="none" fill-rule="evenodd">
        <path d="M29.8125,30 C37.9595703,30 44.5625,23.3970703 44.5625,15.25 C44.5625,7.10292969 37.9595703,0.5 29.8125,0.5 C21.6654297,0.5 15.0625,7.10292969 15.0625,15.25 C15.0625,23.3970703 21.6654297,30 29.8125,30 Z M40.8519531,33.7566406 L35.34375,55.8125 L31.65625,40.140625 L35.34375,33.6875 L24.28125,33.6875 L27.96875,40.140625 L24.28125,55.8125 L18.7730469,33.7566406 C10.5568359,34.1484375 4,40.8666016 4,49.175 L4,53.96875 C4,57.0224609 6.47753906,59.5 9.53125,59.5 L50.09375,59.5 C53.1474609,59.5 55.625,57.0224609 55.625,53.96875 L55.625,49.175 C55.625,40.8666016 49.0681641,34.1484375 40.8519531,33.7566406 L40.8519531,33.7566406 Z" id="Shape" fill="#000000" fill-rule="nonzero"></path>
    </g>
</svg>