<?xml version="1.0" encoding="UTF-8"?>
<svg width="60px" height="60px" viewBox="0 0 60 60" version="1.1" xmlns="http://www.w3.org/2000/svg" xmlns:xlink="http://www.w3.org/1999/xlink">
    <!-- Generator: Sketch 55.2 (78181) - https://sketchapp.com -->
    <title>user-filled</title>
    <desc>Created with Sketch.</desc>
    <g id="user-filled" stroke="none" stroke-width="1" fill="none" fill-rule="evenodd">
        <path d="M8.96910943,58.0376563 C12.333229,59.2948026 16.180081,59.5 20.8118108,59.5 C21.8873286,59.5 23.0053669,59.4890162 24.1689271,59.4775331 C26.5265621,59.4530692 29.1388197,59.4515714 31.8661327,59.4725405 C39.2721982,59.5334507 46.2610628,59.590866 50.5186126,58.0276711 C54.6556042,56.5109076 57.1387997,52.289133 56.4234553,47.9889739 C55.0137767,39.5164672 49.7917626,32.5562306 42.6708344,28.7143957 C45.2760887,25.72081 46.8583504,21.8175656 46.8583504,17.5503579 C46.8583504,8.14872138 39.1946609,0.5 29.7746258,0.5 C20.3545907,0.5 12.690401,8.14872138 12.690401,17.5503579 C12.690401,21.8170664 14.2721625,25.7193122 16.8769165,28.7128979 C9.7454832,32.5597255 4.52046773,39.5344407 3.1197934,48.0254201 C2.41545431,52.2966219 4.87513847,56.5079121 8.96910943,58.0376563 Z" id="Path" fill="#333333"></path>
    </g>
</svg>