<?xml version="1.0" encoding="UTF-8"?>
<svg width="60px" height="60px" viewBox="0 0 60 60" version="1.1" xmlns="http://www.w3.org/2000/svg" xmlns:xlink="http://www.w3.org/1999/xlink">
    <!-- Generator: Sketch 55.2 (78181) - https://sketchapp.com -->
    <title>ellipsis ts</title>
    <desc>Created with Sketch.</desc>
    <g id="ellipsis-ts" stroke="none" stroke-width="1" fill="none" fill-rule="evenodd">
        <path d="M30,19 C27.2385763,19 25,16.7614237 25,14 C25,11.2385763 27.2385763,9 30,9 C32.7614237,9 35,11.2385763 35,14 C35,16.7614237 32.7614237,19 30,19 Z M30,35 C27.2385763,35 25,32.7614237 25,30 C25,27.2385763 27.2385763,25 30,25 C32.7614237,25 35,27.2385763 35,30 C35,32.7614237 32.7614237,35 30,35 Z M30,51 C27.2385763,51 25,48.7614237 25,46 C25,43.2385763 27.2385763,41 30,41 C32.7614237,41 35,43.2385763 35,46 C35,48.7614237 32.7614237,51 30,51 Z" id="Combined-Shape" fill="#000000" fill-rule="nonzero"></path>
    </g>
</svg>