<svg width="20" height="20" viewBox="0 0 20 20" fill="none" xmlns="http://www.w3.org/2000/svg">
<mask id="mask0_3_136" style="mask-type:alpha" maskUnits="userSpaceOnUse" x="0" y="0" width="20" height="20">
<rect width="20" height="20" fill="#D9D9D9"/>
</mask>
<g mask="url(#mask0_3_136)">
<path d="M9.29168 12.6042L12.3958 10.6458C12.632 10.4931 12.75 10.2778 12.75 10C12.75 9.72222 12.632 9.50694 12.3958 9.35417L9.29168 7.39583C9.04168 7.22917 8.78473 7.21528 8.52084 7.35417C8.25695 7.49306 8.12501 7.71528 8.12501 8.02083V11.9792C8.12501 12.2847 8.25695 12.5069 8.52084 12.6458C8.78473 12.7847 9.04168 12.7708 9.29168 12.6042ZM3.58334 16.25C3.16668 16.25 2.81251 16.1042 2.52084 15.8125C2.22918 15.5208 2.08334 15.1667 2.08334 14.75V5.25C2.08334 4.83333 2.22918 4.47917 2.52084 4.1875C2.81251 3.89583 3.16668 3.75 3.58334 3.75H16.4167C16.8333 3.75 17.1875 3.89583 17.4792 4.1875C17.7708 4.47917 17.9167 4.83333 17.9167 5.25V14.75C17.9167 15.1667 17.7708 15.5208 17.4792 15.8125C17.1875 16.1042 16.8333 16.25 16.4167 16.25H3.58334ZM3.58334 15H16.4167C16.4861 15 16.5453 14.9758 16.5942 14.9275C16.6425 14.8786 16.6667 14.8194 16.6667 14.75V5.25C16.6667 5.18056 16.6425 5.12167 16.5942 5.07333C16.5453 5.02444 16.4861 5 16.4167 5H3.58334C3.5139 5 3.45501 5.02444 3.40668 5.07333C3.35779 5.12167 3.33334 5.18056 3.33334 5.25V14.75C3.33334 14.8194 3.35779 14.8786 3.40668 14.9275C3.45501 14.9758 3.5139 15 3.58334 15Z" fill="#45526C"/>
</g>
</svg>
