<svg width="60" height="60" viewBox="0 0 22 21" fill="none" xmlns="http://www.w3.org/2000/svg">
  <path d="M21.56 15.3002L13.89 2.58018C13.5798 2.095 13.1525 1.69571 12.6475 1.41912C12.1424 1.14253 11.5758 0.997559 11 0.997559C10.4241 0.997559 9.85756 1.14253 9.3525 1.41912C8.84743 1.69571 8.42012 2.095 8.10998 2.58018L0.439978 15.3002C0.169032 15.7518 0.0217669 16.2669 0.0129899 16.7935C0.00421295 17.3201 0.134233 17.8397 0.389978 18.3002C0.685657 18.8184 1.11364 19.2489 1.63018 19.5476C2.14672 19.8463 2.7333 20.0025 3.32998 20.0002H18.67C19.2627 20.0065 19.8467 19.8564 20.3629 19.5649C20.879 19.2735 21.3092 18.851 21.61 18.3402C21.8732 17.875 22.0074 17.3478 21.9986 16.8134C21.9898 16.2789 21.8384 15.7565 21.56 15.3002ZM19.86 17.3502C19.7398 17.5568 19.5654 17.7266 19.3556 17.8411C19.1459 17.9557 18.9088 18.0107 18.67 18.0002H3.32998C3.0912 18.0107 2.85409 17.9557 2.64434 17.8411C2.43458 17.7266 2.26016 17.5568 2.13998 17.3502C2.05221 17.1982 2.006 17.0257 2.006 16.8502C2.006 16.6746 2.05221 16.5022 2.13998 16.3502L9.81998 3.62018C9.95798 3.43789 10.1363 3.29005 10.3411 3.18826C10.5458 3.08646 10.7713 3.03349 11 3.03349C11.2286 3.03349 11.4541 3.08646 11.6589 3.18826C11.8636 3.29005 12.042 3.43789 12.18 3.62018L19.85 16.3402C19.9411 16.4925 19.9901 16.6663 19.9919 16.8438C19.9936 17.0213 19.9481 17.1961 19.86 17.3502Z" fill="#000"/>
  <path d="M11 16C11.5523 16 12 15.5523 12 15C12 14.4477 11.5523 14 11 14C10.4477 14 10 14.4477 10 15C10 15.5523 10.4477 16 11 16Z" fill="#000"/>
  <path d="M11 7C10.7348 7 10.4804 7.10536 10.2929 7.29289C10.1054 7.48043 10 7.73478 10 8V12C10 12.2652 10.1054 12.5196 10.2929 12.7071C10.4804 12.8946 10.7348 13 11 13C11.2652 13 11.5196 12.8946 11.7071 12.7071C11.8946 12.5196 12 12.2652 12 12V8C12 7.73478 11.8946 7.48043 11.7071 7.29289C11.5196 7.10536 11.2652 7 11 7Z" fill="#000"/>
</svg>
