<?xml version="1.0" encoding="UTF-8"?>
<svg width="60px" height="60px" viewBox="0 0 60 60" version="1.1" xmlns="http://www.w3.org/2000/svg" xmlns:xlink="http://www.w3.org/1999/xlink">
    <!-- Generator: Sketch 55.2 (78181) - https://sketchapp.com -->
    <title>watch tv ts</title>
    <desc>Created with Sketch.</desc>
    <g id="watch-tv-ts" stroke="none" stroke-width="1" fill="none" fill-rule="evenodd">
        <path d="M54,9 C54,7.344 52.656,6 51,6 L9,6 C7.344,6 6,7.344 6,9 L6,39 C6,40.656 7.344,42 9,42 L51,42 C52.656,42 54,40.656 54,39 L54,9 Z M60,4.575 L60,4.584 L60,40.584 L60,40.596 C60,43.902 57.984,48 54.678,48 L36.666,48 C35.01,48 33.666,49.344 33.666,51 C33.666,52.656 35.01,54 36.666,54 L45.666,54 C47.325,54 48.666,55.344 48.666,57 C48.666,58.656 47.325,60 45.666,60 L15.666,60 C14.01,60 12.666,58.656 12.666,57 C12.666,55.344 14.01,54 15.666,54 L24.666,54 C26.325,54 27.666,52.656 27.666,51 C27.666,49.344 26.325,48 24.666,48 L6.678,48 L6.666,48 C3.354,48 0,43.899 0,40.584 L0,4.584 C0,1.272 3.354,0 6.666,0 L6.678,0 L54.678,0 C57.984,0 60,1.266 60,4.575 L60,4.575 Z M35.2658865,23.8208883 L26.4365622,29.7579171 C25.4796474,30.4113929 24,29.6650058 24,28.4385774 L24,16.5614226 C24,15.3349942 25.4796474,14.5886071 26.4365622,15.2420829 L35.3830015,21.1791117 C36.2799306,21.792326 36.1628156,23.207674 35.2658865,23.8208883 L35.2658865,23.8208883 Z" id="desktop-[#231]" fill="#000000"></path>
    </g>
</svg>