<svg width="26" height="18" viewBox="0 0 26 18" fill="none" xmlns="http://www.w3.org/2000/svg">
<path d="M25.4711 2.83001C25.3231 2.28713 25.0339 1.79205 24.6324 1.39403C24.2308 0.996009 23.7308 0.708936 23.1821 0.561385C21.1477 0.00900178 13.009 9.75857e-06 13.009 9.75857e-06C13.009 9.75857e-06 4.87156 -0.00898279 2.8359 0.518993C2.28759 0.673334 1.7886 0.964467 1.38686 1.36444C0.985108 1.76441 0.694082 2.2598 0.541719 2.80303C0.00519846 4.81473 1.90334e-06 8.98715 1.90334e-06 8.98715C1.90334e-06 8.98715 -0.0051944 13.1801 0.527429 15.1713C0.826217 16.2722 1.7031 17.1419 2.81771 17.4386C4.87286 17.991 12.9895 18 12.9895 18C12.9895 18 21.1283 18.009 23.1626 17.4823C23.7115 17.335 24.2119 17.0486 24.6145 16.6514C25.0171 16.2542 25.3079 15.7599 25.4581 15.2175C25.9959 13.2071 25.9998 9.03597 25.9998 9.03597C25.9998 9.03597 26.0258 4.84171 25.4711 2.83001ZM10.4056 12.8526L10.4121 5.14488L17.1765 9.00514L10.4056 12.8526Z" fill="#6C91AE"/>
</svg>
