<svg width="18" height="17" viewBox="0 0 18 17" fill="none" xmlns="http://www.w3.org/2000/svg">
<path d="M13.7145 3.60099C15.1287 3.60099 16.2859 4.75812 16.2859 6.17239L16.2859 10.4581C16.2859 11.8723 15.1287 13.0295 13.7145 13.0295L13.7145 14.7437C16.0716 14.7437 18.0001 12.8152 18.0001 10.4581L18.0001 6.17239C18.0001 3.81527 16.0716 1.88672 13.7145 1.88672L8.9145 1.88672L8.9145 3.60099L13.7145 3.60099Z" fill="black"/>
<path d="M9.85703 0L6.25706 2.74283L9.85702 5.48566L9.85703 0Z" fill="black"/>
<path d="M4.28563 13.0275C2.87136 13.0275 1.71423 11.8704 1.71423 10.4561L1.71423 6.17044C1.71423 4.75616 2.87136 3.59903 4.28563 3.59903L4.28563 1.88477C1.92851 1.88477 -4.01386e-05 3.81332 -4.02417e-05 6.17044L-4.0429e-05 10.4561C-4.0532e-05 12.8132 1.92851 14.7418 4.28563 14.7418L9.42844 14.7418L9.42844 13.0275L4.28563 13.0275Z" fill="black"/>
<path d="M8.14308 11.1426L11.743 13.8854L8.14308 16.6282L8.14308 11.1426Z" fill="black"/>
<path d="M6.052 7.40234C6.3469 7.40234 6.57458 7.48691 6.73504 7.65605C6.8955 7.82084 6.97574 8.02901 6.97574 8.28054C6.97574 8.52774 6.8955 8.73374 6.73504 8.89854C6.57458 9.059 6.3469 9.13923 6.052 9.13923C5.77011 9.13923 5.54676 9.059 5.38196 8.89854C5.21716 8.73808 5.13477 8.53208 5.13477 8.28054C5.13477 8.02901 5.215 7.82084 5.37546 7.65605C5.53592 7.48691 5.76143 7.40234 6.052 7.40234Z" fill="black"/>
<path d="M9.24006 7.40234C9.53497 7.40234 9.76265 7.48691 9.92311 7.65605C10.0836 7.82084 10.1638 8.02901 10.1638 8.28054C10.1638 8.52774 10.0836 8.73374 9.92311 8.89854C9.76265 9.059 9.53497 9.13923 9.24006 9.13923C8.95817 9.13923 8.73483 9.059 8.57003 8.89854C8.40523 8.73808 8.32283 8.53208 8.32283 8.28054C8.32283 8.02901 8.40306 7.82084 8.56352 7.65605C8.72398 7.48691 8.9495 7.40234 9.24006 7.40234Z" fill="black"/>
<path d="M12.4281 7.40234C12.723 7.40234 12.9507 7.48691 13.1112 7.65605C13.2716 7.82084 13.3519 8.02901 13.3519 8.28054C13.3519 8.52774 13.2716 8.73374 13.1112 8.89854C12.9507 9.059 12.723 9.13923 12.4281 9.13923C12.1462 9.13923 11.9229 9.059 11.7581 8.89854C11.5933 8.73808 11.5109 8.53208 11.5109 8.28054C11.5109 8.02901 11.5911 7.82084 11.7516 7.65605C11.9121 7.48691 12.1376 7.40234 12.4281 7.40234Z" fill="black"/>
</svg>
