<svg width="33" height="31" viewBox="0 0 33 31" fill="none" xmlns="http://www.w3.org/2000/svg">
<path d="M32.583 15.653L29.0339 19.6967L29.5285 25.0494L24.2776 26.2421L21.5285 30.8676L16.583 28.7439L11.6376 30.8821L8.88846 26.2567L3.63755 25.0639L4.1321 19.6967L0.583008 15.653L4.1321 11.5948L3.63755 6.24211L8.88846 5.06393L11.6376 0.438477L16.583 2.56211L21.5285 0.438477L24.2776 5.06393L29.5285 6.25666L29.0339 11.6094L32.583 15.653ZM28.6994 15.653L26.0376 12.5839L26.3866 8.52575L22.4012 7.65302L20.3357 4.11848L16.583 5.73302L12.8303 4.11848L10.7648 7.65302L6.77937 8.5112L7.12846 12.5694L4.46664 15.653L7.12846 18.7076L6.77937 22.7803L10.7648 23.653L12.8303 27.1876L16.583 25.5585L20.3357 27.173L22.4012 23.653L26.3866 22.7657L26.0376 18.7076L28.6994 15.653ZM15.1285 20.0167H18.0376V22.9258H15.1285V20.0167ZM15.1285 8.38029H18.0376V17.1076H15.1285V8.38029Z" fill="#606060"/>
</svg>
