<?xml version="1.0" encoding="UTF-8"?>
<svg width="60px" height="60px" viewBox="0 0 60 60" version="1.1" xmlns="http://www.w3.org/2000/svg" xmlns:xlink="http://www.w3.org/1999/xlink">
    <!-- Generator: Sketch 59 (86127) - https://sketch.com -->
    <title>wrench</title>
    <desc>Created with Sketch.</desc>
    <g id="wrench" stroke="none" stroke-width="1" fill="none" fill-rule="evenodd">
        <path d="M58.5089084,13.5475634 C58.2512865,12.5090253 56.9516764,12.1570955 56.1949123,12.9138596 L47.6427875,21.4659844 L39.8359259,20.1652242 L38.5351657,12.3583626 L47.0872904,3.80623782 C47.848655,3.04487329 47.4817739,1.74756335 46.4363353,1.48764133 C40.9871735,0.137426901 34.987115,1.59230019 30.7283041,5.84996101 C26.1693177,10.4089474 24.9145614,17.0174074 26.8122222,22.7793957 L2.2702924,47.3213255 C-0.60380117,50.1954191 -0.60380117,54.855614 2.2702924,57.7297076 C5.14438596,60.6038012 9.8045809,60.6038012 12.6786745,57.7297076 L37.1999025,33.2084795 C42.964191,35.1302924 49.56,33.8617349 54.1488889,29.272846 C58.4123002,25.0094347 59.8648733,19.0001702 58.5089084,13.5475634 Z M7.47563353,55.2846004 C5.95175439,55.2846004 4.71539961,54.0482456 4.71539961,52.5243665 C4.71539961,50.9993372 5.95175439,49.7641326 7.47563353,49.7641326 C8.99951267,49.7641326 10.2358674,50.9993372 10.2358674,52.5243665 C10.2358674,54.0482456 8.99951267,55.2846004 7.47563353,55.2846004 Z" id="Shape" fill="#000000" fill-rule="nonzero"></path>
    </g>
</svg>