<svg width="18" height="14" viewBox="0 0 18 14" fill="none" xmlns="http://www.w3.org/2000/svg">
<path d="M15.3377 2.82982C15.2744 2.58148 15.0943 2.39398 14.8885 2.33648C14.5243 2.23398 12.7493 2.00065 8.99935 2.00065C5.24935 2.00065 3.47602 2.23398 3.10852 2.33648C2.90518 2.39315 2.72518 2.58065 2.66102 2.82982C2.57018 3.18315 2.33268 4.66398 2.33268 7.00065C2.33268 9.33732 2.57018 10.8173 2.66102 11.1723C2.72435 11.4198 2.90435 11.6073 3.10935 11.664C3.47602 11.7673 5.24935 12.0007 8.99935 12.0007C12.7493 12.0007 14.5235 11.7673 14.8902 11.6648C15.0935 11.6082 15.2735 11.4207 15.3377 11.1715C15.4285 10.8182 15.666 9.33398 15.666 7.00065C15.666 4.66732 15.4285 3.18398 15.3377 2.82982ZM16.9518 2.41565C17.3327 3.90065 17.3327 7.00065 17.3327 7.00065C17.3327 7.00065 17.3327 10.1007 16.9518 11.5857C16.7402 12.4065 16.121 13.0523 15.3368 13.2707C13.9127 13.6673 8.99935 13.6673 8.99935 13.6673C8.99935 13.6673 4.08852 13.6673 2.66185 13.2707C1.87435 13.049 1.25602 12.404 1.04685 11.5857C0.666016 10.1007 0.666016 7.00065 0.666016 7.00065C0.666016 7.00065 0.666016 3.90065 1.04685 2.41565C1.25852 1.59482 1.87768 0.948984 2.66185 0.730651C4.08852 0.333984 8.99935 0.333984 8.99935 0.333984C8.99935 0.333984 13.9127 0.333984 15.3368 0.730651C16.1243 0.952318 16.7427 1.59732 16.9518 2.41565ZM7.33268 9.91732V4.08398L12.3327 7.00065L7.33268 9.91732Z" fill="#6A737D"/>
</svg>
